<?xml version="1.0" encoding="utf-8" standalone="no"?>
<!DOCTYPE svg PUBLIC "-//W3C//DTD SVG 1.1//EN"
  "http://www.w3.org/Graphics/SVG/1.1/DTD/svg11.dtd">
<svg height="345.6pt" version="1.1" viewBox="0 0 460.8 345.6" width="460.8pt" xmlns="http://www.w3.org/2000/svg" xmlns:xlink="http://www.w3.org/1999/xlink">
 <metadata>
  <rdf:RDF xmlns:cc="http://creativecommons.org/ns#" xmlns:dc="http://purl.org/dc/elements/1.1/" xmlns:rdf="http://www.w3.org/1999/02/22-rdf-syntax-ns#">
   <cc:Work>
    <dc:type rdf:resource="http://purl.org/dc/dcmitype/StillImage"/>
    <dc:date>2023-04-17T17:52:27.732022</dc:date>
    <dc:format>image/svg+xml</dc:format>
    <dc:creator>
     <cc:Agent>
      <dc:title>Matplotlib v3.4.1, https://matplotlib.org/</dc:title>
     </cc:Agent>
    </dc:creator>
   </cc:Work>
  </rdf:RDF>
 </metadata>
 <defs>
  <style type="text/css">*{stroke-linecap:butt;stroke-linejoin:round;}</style>
 </defs>
 <g id="figure_1">
  <g id="patch_1">
   <path d="M 0 345.6 
L 460.8 345.6 
L 460.8 0 
L 0 0 
z
" style="fill:#ffffff;"/>
  </g>
  <g id="axes_1">
   <g id="patch_2">
    <path d="M 35.2 283.2 
L 452.992 283.2 
L 452.992 3.6 
L 35.2 3.6 
z
" style="fill:#ffffff;"/>
   </g>
   <g id="matplotlib.axis_1">
    <g id="xtick_1">
     <g id="line2d_1">
      <path clip-path="url(#pda54d19e0c)" d="M 169.765927 283.2 
L 169.765927 3.6 
" style="fill:none;stroke:#b0b0b0;stroke-linecap:square;stroke-width:0.8;"/>
     </g>
     <g id="line2d_2">
      <defs>
       <path d="M 0 0 
L 0 3.5 
" id="me5b195ec77" style="stroke:#000000;stroke-width:0.8;"/>
      </defs>
      <g>
       <use style="stroke:#000000;stroke-width:0.8;" x="169.765927" xlink:href="#me5b195ec77" y="283.2"/>
      </g>
     </g>
     <g id="text_1">
      <!-- -1 -->
      <g transform="translate(159.795614 305.396875)scale(0.2 -0.2)">
       <defs>
        <path d="M 313 2009 
L 1997 2009 
L 1997 1497 
L 313 1497 
L 313 2009 
z
" id="DejaVuSans-2d" transform="scale(0.015625)"/>
        <path d="M 794 531 
L 1825 531 
L 1825 4091 
L 703 3866 
L 703 4441 
L 1819 4666 
L 2450 4666 
L 2450 531 
L 3481 531 
L 3481 0 
L 794 0 
L 794 531 
z
" id="DejaVuSans-31" transform="scale(0.015625)"/>
       </defs>
       <use xlink:href="#DejaVuSans-2d"/>
       <use x="36.083984" xlink:href="#DejaVuSans-31"/>
      </g>
     </g>
    </g>
    <g id="xtick_2">
     <g id="line2d_3">
      <path clip-path="url(#pda54d19e0c)" d="M 318.426073 283.2 
L 318.426073 3.6 
" style="fill:none;stroke:#b0b0b0;stroke-linecap:square;stroke-width:0.8;"/>
     </g>
     <g id="line2d_4">
      <g>
       <use style="stroke:#000000;stroke-width:0.8;" x="318.426073" xlink:href="#me5b195ec77" y="283.2"/>
      </g>
     </g>
     <g id="text_2">
      <!-- 1 -->
      <g transform="translate(312.063573 305.396875)scale(0.2 -0.2)">
       <use xlink:href="#DejaVuSans-31"/>
      </g>
     </g>
    </g>
    <g id="xtick_3">
     <g id="line2d_5">
      <defs>
       <path d="M 0 0 
L 0 2 
" id="m6aa0c0408d" style="stroke:#000000;stroke-width:0.6;"/>
      </defs>
      <g>
       <use style="stroke:#000000;stroke-width:0.6;" x="43.481362" xlink:href="#m6aa0c0408d" y="283.2"/>
      </g>
     </g>
    </g>
    <g id="xtick_4">
     <g id="line2d_6">
      <g>
       <use style="stroke:#000000;stroke-width:0.6;" x="56.570238" xlink:href="#m6aa0c0408d" y="283.2"/>
      </g>
     </g>
    </g>
    <g id="xtick_5">
     <g id="line2d_7">
      <g>
       <use style="stroke:#000000;stroke-width:0.6;" x="65.856944" xlink:href="#m6aa0c0408d" y="283.2"/>
      </g>
     </g>
    </g>
    <g id="xtick_6">
     <g id="line2d_8">
      <g>
       <use style="stroke:#000000;stroke-width:0.6;" x="73.060272" xlink:href="#m6aa0c0408d" y="283.2"/>
      </g>
     </g>
    </g>
    <g id="xtick_7">
     <g id="line2d_9">
      <g>
       <use style="stroke:#000000;stroke-width:0.6;" x="78.94582" xlink:href="#m6aa0c0408d" y="283.2"/>
      </g>
     </g>
    </g>
    <g id="xtick_8">
     <g id="line2d_10">
      <g>
       <use style="stroke:#000000;stroke-width:0.6;" x="83.921979" xlink:href="#m6aa0c0408d" y="283.2"/>
      </g>
     </g>
    </g>
    <g id="xtick_9">
     <g id="line2d_11">
      <g>
       <use style="stroke:#000000;stroke-width:0.6;" x="88.232525" xlink:href="#m6aa0c0408d" y="283.2"/>
      </g>
     </g>
    </g>
    <g id="xtick_10">
     <g id="line2d_12">
      <g>
       <use style="stroke:#000000;stroke-width:0.6;" x="92.034696" xlink:href="#m6aa0c0408d" y="283.2"/>
      </g>
     </g>
    </g>
    <g id="xtick_11">
     <g id="line2d_13">
      <g>
       <use style="stroke:#000000;stroke-width:0.6;" x="117.811435" xlink:href="#m6aa0c0408d" y="283.2"/>
      </g>
     </g>
    </g>
    <g id="xtick_12">
     <g id="line2d_14">
      <g>
       <use style="stroke:#000000;stroke-width:0.6;" x="130.900311" xlink:href="#m6aa0c0408d" y="283.2"/>
      </g>
     </g>
    </g>
    <g id="xtick_13">
     <g id="line2d_15">
      <g>
       <use style="stroke:#000000;stroke-width:0.6;" x="140.187017" xlink:href="#m6aa0c0408d" y="283.2"/>
      </g>
     </g>
    </g>
    <g id="xtick_14">
     <g id="line2d_16">
      <g>
       <use style="stroke:#000000;stroke-width:0.6;" x="147.390345" xlink:href="#m6aa0c0408d" y="283.2"/>
      </g>
     </g>
    </g>
    <g id="xtick_15">
     <g id="line2d_17">
      <g>
       <use style="stroke:#000000;stroke-width:0.6;" x="153.275893" xlink:href="#m6aa0c0408d" y="283.2"/>
      </g>
     </g>
    </g>
    <g id="xtick_16">
     <g id="line2d_18">
      <g>
       <use style="stroke:#000000;stroke-width:0.6;" x="158.252053" xlink:href="#m6aa0c0408d" y="283.2"/>
      </g>
     </g>
    </g>
    <g id="xtick_17">
     <g id="line2d_19">
      <g>
       <use style="stroke:#000000;stroke-width:0.6;" x="162.562598" xlink:href="#m6aa0c0408d" y="283.2"/>
      </g>
     </g>
    </g>
    <g id="xtick_18">
     <g id="line2d_20">
      <g>
       <use style="stroke:#000000;stroke-width:0.6;" x="166.364769" xlink:href="#m6aa0c0408d" y="283.2"/>
      </g>
     </g>
    </g>
    <g id="xtick_19">
     <g id="line2d_21">
      <g>
       <use style="stroke:#000000;stroke-width:0.6;" x="192.141508" xlink:href="#m6aa0c0408d" y="283.2"/>
      </g>
     </g>
    </g>
    <g id="xtick_20">
     <g id="line2d_22">
      <g>
       <use style="stroke:#000000;stroke-width:0.6;" x="205.230385" xlink:href="#m6aa0c0408d" y="283.2"/>
      </g>
     </g>
    </g>
    <g id="xtick_21">
     <g id="line2d_23">
      <g>
       <use style="stroke:#000000;stroke-width:0.6;" x="214.51709" xlink:href="#m6aa0c0408d" y="283.2"/>
      </g>
     </g>
    </g>
    <g id="xtick_22">
     <g id="line2d_24">
      <g>
       <use style="stroke:#000000;stroke-width:0.6;" x="221.720418" xlink:href="#m6aa0c0408d" y="283.2"/>
      </g>
     </g>
    </g>
    <g id="xtick_23">
     <g id="line2d_25">
      <g>
       <use style="stroke:#000000;stroke-width:0.6;" x="227.605966" xlink:href="#m6aa0c0408d" y="283.2"/>
      </g>
     </g>
    </g>
    <g id="xtick_24">
     <g id="line2d_26">
      <g>
       <use style="stroke:#000000;stroke-width:0.6;" x="232.582126" xlink:href="#m6aa0c0408d" y="283.2"/>
      </g>
     </g>
    </g>
    <g id="xtick_25">
     <g id="line2d_27">
      <g>
       <use style="stroke:#000000;stroke-width:0.6;" x="236.892672" xlink:href="#m6aa0c0408d" y="283.2"/>
      </g>
     </g>
    </g>
    <g id="xtick_26">
     <g id="line2d_28">
      <g>
       <use style="stroke:#000000;stroke-width:0.6;" x="240.694842" xlink:href="#m6aa0c0408d" y="283.2"/>
      </g>
     </g>
    </g>
    <g id="xtick_27">
     <g id="line2d_29">
      <g>
       <use style="stroke:#000000;stroke-width:0.6;" x="266.471582" xlink:href="#m6aa0c0408d" y="283.2"/>
      </g>
     </g>
    </g>
    <g id="xtick_28">
     <g id="line2d_30">
      <g>
       <use style="stroke:#000000;stroke-width:0.6;" x="279.560458" xlink:href="#m6aa0c0408d" y="283.2"/>
      </g>
     </g>
    </g>
    <g id="xtick_29">
     <g id="line2d_31">
      <g>
       <use style="stroke:#000000;stroke-width:0.6;" x="288.847163" xlink:href="#m6aa0c0408d" y="283.2"/>
      </g>
     </g>
    </g>
    <g id="xtick_30">
     <g id="line2d_32">
      <g>
       <use style="stroke:#000000;stroke-width:0.6;" x="296.050492" xlink:href="#m6aa0c0408d" y="283.2"/>
      </g>
     </g>
    </g>
    <g id="xtick_31">
     <g id="line2d_33">
      <g>
       <use style="stroke:#000000;stroke-width:0.6;" x="301.936039" xlink:href="#m6aa0c0408d" y="283.2"/>
      </g>
     </g>
    </g>
    <g id="xtick_32">
     <g id="line2d_34">
      <g>
       <use style="stroke:#000000;stroke-width:0.6;" x="306.912199" xlink:href="#m6aa0c0408d" y="283.2"/>
      </g>
     </g>
    </g>
    <g id="xtick_33">
     <g id="line2d_35">
      <g>
       <use style="stroke:#000000;stroke-width:0.6;" x="311.222745" xlink:href="#m6aa0c0408d" y="283.2"/>
      </g>
     </g>
    </g>
    <g id="xtick_34">
     <g id="line2d_36">
      <g>
       <use style="stroke:#000000;stroke-width:0.6;" x="315.024916" xlink:href="#m6aa0c0408d" y="283.2"/>
      </g>
     </g>
    </g>
    <g id="xtick_35">
     <g id="line2d_37">
      <g>
       <use style="stroke:#000000;stroke-width:0.6;" x="340.801655" xlink:href="#m6aa0c0408d" y="283.2"/>
      </g>
     </g>
    </g>
    <g id="xtick_36">
     <g id="line2d_38">
      <g>
       <use style="stroke:#000000;stroke-width:0.6;" x="353.890531" xlink:href="#m6aa0c0408d" y="283.2"/>
      </g>
     </g>
    </g>
    <g id="xtick_37">
     <g id="line2d_39">
      <g>
       <use style="stroke:#000000;stroke-width:0.6;" x="363.177237" xlink:href="#m6aa0c0408d" y="283.2"/>
      </g>
     </g>
    </g>
    <g id="xtick_38">
     <g id="line2d_40">
      <g>
       <use style="stroke:#000000;stroke-width:0.6;" x="370.380565" xlink:href="#m6aa0c0408d" y="283.2"/>
      </g>
     </g>
    </g>
    <g id="xtick_39">
     <g id="line2d_41">
      <g>
       <use style="stroke:#000000;stroke-width:0.6;" x="376.266113" xlink:href="#m6aa0c0408d" y="283.2"/>
      </g>
     </g>
    </g>
    <g id="xtick_40">
     <g id="line2d_42">
      <g>
       <use style="stroke:#000000;stroke-width:0.6;" x="381.242272" xlink:href="#m6aa0c0408d" y="283.2"/>
      </g>
     </g>
    </g>
    <g id="xtick_41">
     <g id="line2d_43">
      <g>
       <use style="stroke:#000000;stroke-width:0.6;" x="385.552818" xlink:href="#m6aa0c0408d" y="283.2"/>
      </g>
     </g>
    </g>
    <g id="xtick_42">
     <g id="line2d_44">
      <g>
       <use style="stroke:#000000;stroke-width:0.6;" x="389.354989" xlink:href="#m6aa0c0408d" y="283.2"/>
      </g>
     </g>
    </g>
    <g id="xtick_43">
     <g id="line2d_45">
      <g>
       <use style="stroke:#000000;stroke-width:0.6;" x="415.131728" xlink:href="#m6aa0c0408d" y="283.2"/>
      </g>
     </g>
    </g>
    <g id="xtick_44">
     <g id="line2d_46">
      <g>
       <use style="stroke:#000000;stroke-width:0.6;" x="428.220604" xlink:href="#m6aa0c0408d" y="283.2"/>
      </g>
     </g>
    </g>
    <g id="xtick_45">
     <g id="line2d_47">
      <g>
       <use style="stroke:#000000;stroke-width:0.6;" x="437.50731" xlink:href="#m6aa0c0408d" y="283.2"/>
      </g>
     </g>
    </g>
    <g id="xtick_46">
     <g id="line2d_48">
      <g>
       <use style="stroke:#000000;stroke-width:0.6;" x="444.710638" xlink:href="#m6aa0c0408d" y="283.2"/>
      </g>
     </g>
    </g>
    <g id="xtick_47">
     <g id="line2d_49">
      <g>
       <use style="stroke:#000000;stroke-width:0.6;" x="450.596186" xlink:href="#m6aa0c0408d" y="283.2"/>
      </g>
     </g>
    </g>
    <g id="text_3">
     <!-- log10 of FEvals ratio -->
     <g transform="translate(141.791313 328.753125)scale(0.2 -0.2)">
      <defs>
       <path d="M 603 4863 
L 1178 4863 
L 1178 0 
L 603 0 
L 603 4863 
z
" id="DejaVuSans-6c" transform="scale(0.015625)"/>
       <path d="M 1959 3097 
Q 1497 3097 1228 2736 
Q 959 2375 959 1747 
Q 959 1119 1226 758 
Q 1494 397 1959 397 
Q 2419 397 2687 759 
Q 2956 1122 2956 1747 
Q 2956 2369 2687 2733 
Q 2419 3097 1959 3097 
z
M 1959 3584 
Q 2709 3584 3137 3096 
Q 3566 2609 3566 1747 
Q 3566 888 3137 398 
Q 2709 -91 1959 -91 
Q 1206 -91 779 398 
Q 353 888 353 1747 
Q 353 2609 779 3096 
Q 1206 3584 1959 3584 
z
" id="DejaVuSans-6f" transform="scale(0.015625)"/>
       <path d="M 2906 1791 
Q 2906 2416 2648 2759 
Q 2391 3103 1925 3103 
Q 1463 3103 1205 2759 
Q 947 2416 947 1791 
Q 947 1169 1205 825 
Q 1463 481 1925 481 
Q 2391 481 2648 825 
Q 2906 1169 2906 1791 
z
M 3481 434 
Q 3481 -459 3084 -895 
Q 2688 -1331 1869 -1331 
Q 1566 -1331 1297 -1286 
Q 1028 -1241 775 -1147 
L 775 -588 
Q 1028 -725 1275 -790 
Q 1522 -856 1778 -856 
Q 2344 -856 2625 -561 
Q 2906 -266 2906 331 
L 2906 616 
Q 2728 306 2450 153 
Q 2172 0 1784 0 
Q 1141 0 747 490 
Q 353 981 353 1791 
Q 353 2603 747 3093 
Q 1141 3584 1784 3584 
Q 2172 3584 2450 3431 
Q 2728 3278 2906 2969 
L 2906 3500 
L 3481 3500 
L 3481 434 
z
" id="DejaVuSans-67" transform="scale(0.015625)"/>
       <path d="M 2034 4250 
Q 1547 4250 1301 3770 
Q 1056 3291 1056 2328 
Q 1056 1369 1301 889 
Q 1547 409 2034 409 
Q 2525 409 2770 889 
Q 3016 1369 3016 2328 
Q 3016 3291 2770 3770 
Q 2525 4250 2034 4250 
z
M 2034 4750 
Q 2819 4750 3233 4129 
Q 3647 3509 3647 2328 
Q 3647 1150 3233 529 
Q 2819 -91 2034 -91 
Q 1250 -91 836 529 
Q 422 1150 422 2328 
Q 422 3509 836 4129 
Q 1250 4750 2034 4750 
z
" id="DejaVuSans-30" transform="scale(0.015625)"/>
       <path id="DejaVuSans-20" transform="scale(0.015625)"/>
       <path d="M 2375 4863 
L 2375 4384 
L 1825 4384 
Q 1516 4384 1395 4259 
Q 1275 4134 1275 3809 
L 1275 3500 
L 2222 3500 
L 2222 3053 
L 1275 3053 
L 1275 0 
L 697 0 
L 697 3053 
L 147 3053 
L 147 3500 
L 697 3500 
L 697 3744 
Q 697 4328 969 4595 
Q 1241 4863 1831 4863 
L 2375 4863 
z
" id="DejaVuSans-66" transform="scale(0.015625)"/>
       <path d="M 628 4666 
L 3309 4666 
L 3309 4134 
L 1259 4134 
L 1259 2759 
L 3109 2759 
L 3109 2228 
L 1259 2228 
L 1259 0 
L 628 0 
L 628 4666 
z
" id="DejaVuSans-46" transform="scale(0.015625)"/>
       <path d="M 628 4666 
L 3578 4666 
L 3578 4134 
L 1259 4134 
L 1259 2753 
L 3481 2753 
L 3481 2222 
L 1259 2222 
L 1259 531 
L 3634 531 
L 3634 0 
L 628 0 
L 628 4666 
z
" id="DejaVuSans-45" transform="scale(0.015625)"/>
       <path d="M 191 3500 
L 800 3500 
L 1894 563 
L 2988 3500 
L 3597 3500 
L 2284 0 
L 1503 0 
L 191 3500 
z
" id="DejaVuSans-76" transform="scale(0.015625)"/>
       <path d="M 2194 1759 
Q 1497 1759 1228 1600 
Q 959 1441 959 1056 
Q 959 750 1161 570 
Q 1363 391 1709 391 
Q 2188 391 2477 730 
Q 2766 1069 2766 1631 
L 2766 1759 
L 2194 1759 
z
M 3341 1997 
L 3341 0 
L 2766 0 
L 2766 531 
Q 2569 213 2275 61 
Q 1981 -91 1556 -91 
Q 1019 -91 701 211 
Q 384 513 384 1019 
Q 384 1609 779 1909 
Q 1175 2209 1959 2209 
L 2766 2209 
L 2766 2266 
Q 2766 2663 2505 2880 
Q 2244 3097 1772 3097 
Q 1472 3097 1187 3025 
Q 903 2953 641 2809 
L 641 3341 
Q 956 3463 1253 3523 
Q 1550 3584 1831 3584 
Q 2591 3584 2966 3190 
Q 3341 2797 3341 1997 
z
" id="DejaVuSans-61" transform="scale(0.015625)"/>
       <path d="M 2834 3397 
L 2834 2853 
Q 2591 2978 2328 3040 
Q 2066 3103 1784 3103 
Q 1356 3103 1142 2972 
Q 928 2841 928 2578 
Q 928 2378 1081 2264 
Q 1234 2150 1697 2047 
L 1894 2003 
Q 2506 1872 2764 1633 
Q 3022 1394 3022 966 
Q 3022 478 2636 193 
Q 2250 -91 1575 -91 
Q 1294 -91 989 -36 
Q 684 19 347 128 
L 347 722 
Q 666 556 975 473 
Q 1284 391 1588 391 
Q 1994 391 2212 530 
Q 2431 669 2431 922 
Q 2431 1156 2273 1281 
Q 2116 1406 1581 1522 
L 1381 1569 
Q 847 1681 609 1914 
Q 372 2147 372 2553 
Q 372 3047 722 3315 
Q 1072 3584 1716 3584 
Q 2034 3584 2315 3537 
Q 2597 3491 2834 3397 
z
" id="DejaVuSans-73" transform="scale(0.015625)"/>
       <path d="M 2631 2963 
Q 2534 3019 2420 3045 
Q 2306 3072 2169 3072 
Q 1681 3072 1420 2755 
Q 1159 2438 1159 1844 
L 1159 0 
L 581 0 
L 581 3500 
L 1159 3500 
L 1159 2956 
Q 1341 3275 1631 3429 
Q 1922 3584 2338 3584 
Q 2397 3584 2469 3576 
Q 2541 3569 2628 3553 
L 2631 2963 
z
" id="DejaVuSans-72" transform="scale(0.015625)"/>
       <path d="M 1172 4494 
L 1172 3500 
L 2356 3500 
L 2356 3053 
L 1172 3053 
L 1172 1153 
Q 1172 725 1289 603 
Q 1406 481 1766 481 
L 2356 481 
L 2356 0 
L 1766 0 
Q 1100 0 847 248 
Q 594 497 594 1153 
L 594 3053 
L 172 3053 
L 172 3500 
L 594 3500 
L 594 4494 
L 1172 4494 
z
" id="DejaVuSans-74" transform="scale(0.015625)"/>
       <path d="M 603 3500 
L 1178 3500 
L 1178 0 
L 603 0 
L 603 3500 
z
M 603 4863 
L 1178 4863 
L 1178 4134 
L 603 4134 
L 603 4863 
z
" id="DejaVuSans-69" transform="scale(0.015625)"/>
      </defs>
      <use xlink:href="#DejaVuSans-6c"/>
      <use x="27.783203" xlink:href="#DejaVuSans-6f"/>
      <use x="88.964844" xlink:href="#DejaVuSans-67"/>
      <use x="152.441406" xlink:href="#DejaVuSans-31"/>
      <use x="216.064453" xlink:href="#DejaVuSans-30"/>
      <use x="279.6875" xlink:href="#DejaVuSans-20"/>
      <use x="311.474609" xlink:href="#DejaVuSans-6f"/>
      <use x="372.65625" xlink:href="#DejaVuSans-66"/>
      <use x="407.861328" xlink:href="#DejaVuSans-20"/>
      <use x="439.648438" xlink:href="#DejaVuSans-46"/>
      <use x="497.167969" xlink:href="#DejaVuSans-45"/>
      <use x="560.351562" xlink:href="#DejaVuSans-76"/>
      <use x="619.53125" xlink:href="#DejaVuSans-61"/>
      <use x="680.810547" xlink:href="#DejaVuSans-6c"/>
      <use x="708.59375" xlink:href="#DejaVuSans-73"/>
      <use x="760.693359" xlink:href="#DejaVuSans-20"/>
      <use x="792.480469" xlink:href="#DejaVuSans-72"/>
      <use x="833.59375" xlink:href="#DejaVuSans-61"/>
      <use x="894.873047" xlink:href="#DejaVuSans-74"/>
      <use x="934.082031" xlink:href="#DejaVuSans-69"/>
      <use x="961.865234" xlink:href="#DejaVuSans-6f"/>
     </g>
    </g>
   </g>
   <g id="matplotlib.axis_2">
    <g id="ytick_1">
     <g id="line2d_50">
      <path clip-path="url(#pda54d19e0c)" d="M 35.2 280.458824 
L 452.992 280.458824 
" style="fill:none;stroke:#b0b0b0;stroke-linecap:square;stroke-width:0.8;"/>
     </g>
     <g id="line2d_51">
      <defs>
       <path d="M 0 0 
L -3.5 0 
" id="mf5d3410314" style="stroke:#000000;stroke-width:0.8;"/>
      </defs>
      <g>
       <use style="stroke:#000000;stroke-width:0.8;" x="35.2" xlink:href="#mf5d3410314" y="280.458824"/>
      </g>
     </g>
    </g>
    <g id="ytick_2">
     <g id="line2d_52">
      <path clip-path="url(#pda54d19e0c)" d="M 35.2 211.929412 
L 452.992 211.929412 
" style="fill:none;stroke:#b0b0b0;stroke-linecap:square;stroke-width:0.8;"/>
     </g>
     <g id="line2d_53">
      <g>
       <use style="stroke:#000000;stroke-width:0.8;" x="35.2" xlink:href="#mf5d3410314" y="211.929412"/>
      </g>
     </g>
    </g>
    <g id="ytick_3">
     <g id="line2d_54">
      <path clip-path="url(#pda54d19e0c)" d="M 35.2 143.4 
L 452.992 143.4 
" style="fill:none;stroke:#b0b0b0;stroke-linecap:square;stroke-width:0.8;"/>
     </g>
     <g id="line2d_55">
      <g>
       <use style="stroke:#000000;stroke-width:0.8;" x="35.2" xlink:href="#mf5d3410314" y="143.4"/>
      </g>
     </g>
    </g>
    <g id="ytick_4">
     <g id="line2d_56">
      <path clip-path="url(#pda54d19e0c)" d="M 35.2 74.870588 
L 452.992 74.870588 
" style="fill:none;stroke:#b0b0b0;stroke-linecap:square;stroke-width:0.8;"/>
     </g>
     <g id="line2d_57">
      <g>
       <use style="stroke:#000000;stroke-width:0.8;" x="35.2" xlink:href="#mf5d3410314" y="74.870588"/>
      </g>
     </g>
    </g>
    <g id="ytick_5">
     <g id="line2d_58">
      <path clip-path="url(#pda54d19e0c)" d="M 35.2 6.341176 
L 452.992 6.341176 
" style="fill:none;stroke:#b0b0b0;stroke-linecap:square;stroke-width:0.8;"/>
     </g>
     <g id="line2d_59">
      <g>
       <use style="stroke:#000000;stroke-width:0.8;" x="35.2" xlink:href="#mf5d3410314" y="6.341176"/>
      </g>
     </g>
    </g>
    <g id="text_4">
     <!-- proportion of trials -->
     <g transform="translate(20.040625 236.40625)rotate(-90)scale(0.2 -0.2)">
      <defs>
       <path d="M 1159 525 
L 1159 -1331 
L 581 -1331 
L 581 3500 
L 1159 3500 
L 1159 2969 
Q 1341 3281 1617 3432 
Q 1894 3584 2278 3584 
Q 2916 3584 3314 3078 
Q 3713 2572 3713 1747 
Q 3713 922 3314 415 
Q 2916 -91 2278 -91 
Q 1894 -91 1617 61 
Q 1341 213 1159 525 
z
M 3116 1747 
Q 3116 2381 2855 2742 
Q 2594 3103 2138 3103 
Q 1681 3103 1420 2742 
Q 1159 2381 1159 1747 
Q 1159 1113 1420 752 
Q 1681 391 2138 391 
Q 2594 391 2855 752 
Q 3116 1113 3116 1747 
z
" id="DejaVuSans-70" transform="scale(0.015625)"/>
       <path d="M 3513 2113 
L 3513 0 
L 2938 0 
L 2938 2094 
Q 2938 2591 2744 2837 
Q 2550 3084 2163 3084 
Q 1697 3084 1428 2787 
Q 1159 2491 1159 1978 
L 1159 0 
L 581 0 
L 581 3500 
L 1159 3500 
L 1159 2956 
Q 1366 3272 1645 3428 
Q 1925 3584 2291 3584 
Q 2894 3584 3203 3211 
Q 3513 2838 3513 2113 
z
" id="DejaVuSans-6e" transform="scale(0.015625)"/>
      </defs>
      <use xlink:href="#DejaVuSans-70"/>
      <use x="63.476562" xlink:href="#DejaVuSans-72"/>
      <use x="102.339844" xlink:href="#DejaVuSans-6f"/>
      <use x="163.521484" xlink:href="#DejaVuSans-70"/>
      <use x="226.998047" xlink:href="#DejaVuSans-6f"/>
      <use x="288.179688" xlink:href="#DejaVuSans-72"/>
      <use x="329.292969" xlink:href="#DejaVuSans-74"/>
      <use x="368.501953" xlink:href="#DejaVuSans-69"/>
      <use x="396.285156" xlink:href="#DejaVuSans-6f"/>
      <use x="457.466797" xlink:href="#DejaVuSans-6e"/>
      <use x="520.845703" xlink:href="#DejaVuSans-20"/>
      <use x="552.632812" xlink:href="#DejaVuSans-6f"/>
      <use x="613.814453" xlink:href="#DejaVuSans-66"/>
      <use x="649.019531" xlink:href="#DejaVuSans-20"/>
      <use x="680.806641" xlink:href="#DejaVuSans-74"/>
      <use x="720.015625" xlink:href="#DejaVuSans-72"/>
      <use x="761.128906" xlink:href="#DejaVuSans-69"/>
      <use x="788.912109" xlink:href="#DejaVuSans-61"/>
      <use x="850.191406" xlink:href="#DejaVuSans-6c"/>
      <use x="877.974609" xlink:href="#DejaVuSans-73"/>
     </g>
    </g>
   </g>
   <g id="line2d_60">
    <path clip-path="url(#pda54d19e0c)" d="M 35.2 249.640863 
L 53.109825 249.640863 
L 53.109825 249.235364 
L 60.553001 249.235364 
L 60.553001 248.829864 
L 62.245716 248.829864 
L 62.245716 248.424365 
L 62.97941 248.424365 
L 62.97941 248.018865 
L 63.140213 248.018865 
L 63.140213 247.613366 
L 63.578335 247.613366 
L 63.578335 247.207866 
L 64.243949 247.207866 
L 64.243949 246.802367 
L 70.156861 246.802367 
L 70.156861 246.396867 
L 77.600037 246.396867 
L 77.600037 245.991368 
L 79.292752 245.991368 
L 79.292752 245.585868 
L 80.026445 245.585868 
L 80.026445 245.180369 
L 80.187248 245.180369 
L 80.187248 244.774869 
L 80.625371 244.774869 
L 80.625371 244.36937 
L 81.290985 244.36937 
L 81.290985 243.963871 
L 86.912609 243.963871 
L 86.912609 243.558371 
L 90.088222 243.558371 
L 90.088222 243.152872 
L 94.355784 243.152872 
L 94.355784 242.747372 
L 96.048499 242.747372 
L 96.048499 242.341873 
L 96.782193 242.341873 
L 96.782193 241.936373 
L 96.942996 241.936373 
L 96.942996 241.530874 
L 97.381118 241.530874 
L 97.381118 241.125374 
L 97.531398 241.125374 
L 97.531398 240.719875 
L 98.046733 240.719875 
L 98.046733 240.314375 
L 99.224113 240.314375 
L 99.224113 239.908876 
L 99.957807 239.908876 
L 99.957807 239.503376 
L 100.11861 239.503376 
L 100.11861 239.097877 
L 100.556732 239.097877 
L 100.556732 238.692377 
L 101.222346 238.692377 
L 101.222346 238.286878 
L 135.963035 238.286878 
L 135.963035 237.881378 
L 139.058003 237.881378 
L 139.058003 237.475879 
L 143.406211 237.475879 
L 143.406211 237.070379 
L 145.098926 237.070379 
L 145.098926 236.66488 
L 145.832619 236.66488 
L 145.832619 236.25938 
L 145.993422 236.25938 
L 145.993422 235.853881 
L 146.431545 235.853881 
L 146.501178 235.042882 
L 147.097159 235.042882 
L 147.097159 234.637383 
L 148.193893 234.637383 
L 148.193893 234.231883 
L 148.927587 234.231883 
L 148.927587 233.826384 
L 149.08839 233.826384 
L 149.08839 233.420884 
L 149.526512 233.420884 
L 149.526512 233.015385 
L 150.192126 233.015385 
L 150.192126 232.609885 
L 159.602342 232.609885 
L 159.602342 232.204386 
L 160.741607 232.204386 
L 160.741607 231.798886 
L 161.401769 231.798886 
L 161.401769 231.393387 
L 161.775997 231.393387 
L 161.775997 230.987887 
L 163.69393 230.987887 
L 163.69393 230.582388 
L 164.562767 230.582388 
L 164.562767 230.176888 
L 165.826242 230.176888 
L 165.826242 229.771389 
L 166.674899 229.771389 
L 166.674899 229.365889 
L 169.277484 229.365889 
L 169.277484 228.96039 
L 170.146321 228.96039 
L 170.146321 228.55489 
L 171.409796 228.55489 
L 171.409796 228.149391 
L 176.649377 228.149391 
L 176.649377 227.743891 
L 177.788643 227.743891 
L 177.788643 227.338392 
L 178.448804 227.338392 
L 178.448804 226.932892 
L 178.823033 226.932892 
L 178.823033 226.527393 
L 183.721935 226.527393 
L 183.721935 226.121893 
L 188.92936 226.121893 
L 188.92936 225.716394 
L 189.282333 225.716394 
L 189.282333 225.310895 
L 191.687026 225.310895 
L 191.687026 224.905395 
L 192.555863 224.905395 
L 192.555863 224.499896 
L 193.405125 224.499896 
L 193.405125 224.094396 
L 193.819338 224.094396 
L 193.819338 223.688897 
L 194.544391 223.688897 
L 194.544391 223.283397 
L 194.865887 223.283397 
L 194.865887 222.877898 
L 195.204552 222.877898 
L 195.204552 222.472398 
L 195.578781 222.472398 
L 195.578781 222.066899 
L 196.580739 222.066899 
L 196.580739 221.661399 
L 197.720004 221.661399 
L 197.720004 221.2559 
L 198.380166 221.2559 
L 198.380166 220.8504 
L 198.754394 220.8504 
L 198.754394 220.444901 
L 199.349958 220.444901 
L 199.349958 220.039401 
L 200.477683 220.039401 
L 200.477683 219.633902 
L 203.653296 219.633902 
L 203.653296 219.228402 
L 204.933512 219.228402 
L 204.933512 218.822903 
L 205.864992 218.822903 
L 205.864992 218.417403 
L 205.976395 218.417403 
L 205.976395 218.011904 
L 206.733829 218.011904 
L 206.733829 217.606404 
L 207.997304 217.606404 
L 207.997304 217.200905 
L 209.27299 217.200905 
L 209.27299 216.795405 
L 210.141827 216.795405 
L 210.141827 216.389906 
L 211.405301 216.389906 
L 211.437399 215.578907 
L 212.074285 215.578907 
L 212.074285 215.173408 
L 212.306236 215.173408 
L 212.306236 214.767908 
L 213.569711 214.767908 
L 213.569711 214.362409 
L 215.37449 214.362409 
L 215.37449 213.956909 
L 217.275429 213.956909 
L 217.275429 213.55141 
L 217.899552 213.55141 
L 217.899552 213.14591 
L 218.768389 213.14591 
L 218.768389 212.740411 
L 220.031864 212.740411 
L 220.031864 212.334911 
L 220.958045 212.334911 
L 220.958045 211.929412 
L 222.732143 211.929412 
L 222.732143 211.523912 
L 223.456382 211.523912 
L 223.456382 211.118413 
L 223.723648 211.118413 
L 223.723648 210.712913 
L 224.117042 210.712913 
L 224.180579 209.901914 
L 224.84124 209.901914 
L 224.84124 209.496415 
L 225.157226 209.496415 
L 225.157226 209.090915 
L 225.32251 209.090915 
L 225.32251 208.685416 
L 225.607206 208.685416 
L 225.607206 208.279916 
L 225.817886 208.279916 
L 225.907757 207.063418 
L 226.046707 207.063418 
L 226.046707 206.657919 
L 226.24211 206.657919 
L 226.331403 205.84692 
L 226.618632 205.84692 
L 226.618632 205.44142 
L 227.023354 205.44142 
L 227.110947 204.630421 
L 227.30805 204.630421 
L 227.343054 203.819422 
L 227.595279 203.819422 
L 227.67525 203.008423 
L 227.809419 203.008423 
L 227.809419 202.602924 
L 228.311593 202.602924 
L 228.374421 201.386425 
L 228.533617 201.386425 
L 228.533617 200.980926 
L 228.881522 200.980926 
L 228.972253 200.169927 
L 229.121321 200.169927 
L 229.121321 199.764427 
L 229.510264 199.764427 
L 229.605719 198.14243 
L 229.826073 198.14243 
L 229.826073 197.73693 
L 230.113302 197.73693 
L 230.177721 196.925931 
L 230.316786 196.925931 
L 230.316786 196.520432 
L 230.462417 196.520432 
L 230.462417 196.114932 
L 230.582366 196.114932 
L 230.582366 195.709433 
L 230.749646 195.709433 
L 230.749646 195.303933 
L 231.140609 195.303933 
L 231.166824 194.492934 
L 231.293433 194.492934 
L 231.293433 194.087435 
L 231.453395 194.087435 
L 231.453395 193.681935 
L 231.801269 193.681935 
L 231.850194 192.870936 
L 232.028287 192.870936 
L 232.134547 192.059937 
L 232.212426 192.059937 
L 232.212426 191.654438 
L 232.664631 191.654438 
L 232.664631 191.248938 
L 232.807236 191.248938 
L 232.859539 190.03244 
L 232.936624 190.03244 
L 233.006737 189.221441 
L 233.100389 189.221441 
L 233.100389 188.815942 
L 233.291433 188.815942 
L 233.291433 188.410442 
L 233.578662 188.410442 
L 233.593233 187.599443 
L 233.736733 187.599443 
L 233.835391 185.977445 
L 233.913271 185.977445 
L 233.913271 185.571946 
L 234.192158 185.571946 
L 234.192158 185.166446 
L 234.4478 185.166446 
L 234.553157 184.355447 
L 234.686355 184.355447 
L 234.686355 183.949948 
L 234.829105 183.949948 
L 234.861393 182.733449 
L 235.001363 182.733449 
L 235.001363 182.32795 
L 235.449391 182.32795 
L 235.493647 181.111451 
L 235.709026 181.111451 
L 235.709026 180.705952 
L 236.060117 180.705952 
L 236.060117 180.300452 
L 236.173588 180.300452 
L 236.173588 179.894953 
L 236.353415 179.894953 
L 236.433224 178.678455 
L 236.564032 178.678455 
L 236.565749 177.867456 
L 236.695233 177.867456 
L 236.695233 177.461956 
L 236.843099 177.461956 
L 236.843099 177.056457 
L 236.979929 177.056457 
L 237.067638 175.434459 
L 237.150235 175.434459 
L 237.224692 174.62346 
L 237.267158 174.62346 
L 237.312281 173.406961 
L 237.409871 173.406961 
L 237.433748 172.595962 
L 238.036479 172.595962 
L 238.097974 171.784963 
L 238.210452 171.784963 
L 238.210452 171.379464 
L 238.430159 171.379464 
L 238.430159 170.973964 
L 238.714855 170.973964 
L 238.822172 170.162966 
L 238.871113 170.162966 
L 238.871113 169.757466 
L 239.002084 169.757466 
L 239.013126 168.946467 
L 239.159449 168.946467 
L 239.182143 168.135468 
L 239.668259 168.135468 
L 239.668259 167.729969 
L 239.798818 167.729969 
L 239.896654 165.702471 
L 239.927894 165.702471 
L 239.927894 165.296972 
L 240.07658 165.296972 
L 240.136711 164.485973 
L 240.250411 164.485973 
L 240.361276 162.458475 
L 240.50551 162.458475 
L 240.564237 161.241977 
L 240.648505 161.241977 
L 240.648505 160.836478 
L 240.917069 160.836478 
L 241.025577 159.21448 
L 241.270956 159.21448 
L 241.310273 158.403481 
L 241.52102 158.403481 
L 241.597502 157.186982 
L 241.643672 157.186982 
L 241.710977 156.375983 
L 241.795622 156.375983 
L 241.795622 155.970484 
L 241.931616 155.970484 
L 241.995673 153.942986 
L 242.167493 153.942986 
L 242.167493 153.537487 
L 242.282902 153.537487 
L 242.316842 152.726488 
L 242.426653 152.726488 
L 242.455551 151.50999 
L 242.547063 151.50999 
L 242.56349 150.698991 
L 242.67682 150.698991 
L 242.700238 149.887992 
L 242.832223 149.887992 
L 242.837623 149.076993 
L 242.953185 149.076993 
L 243.059096 148.265994 
L 243.133618 148.265994 
L 243.148912 147.049495 
L 243.275745 147.049495 
L 243.367587 146.238496 
L 243.393254 146.238496 
L 243.487955 145.021998 
L 243.50727 145.021998 
L 243.594817 143.4 
L 243.635592 143.4 
L 243.709009 142.589001 
L 243.94136 142.589001 
L 244.017749 141.778002 
L 244.095698 141.778002 
L 244.197887 140.561504 
L 244.254978 140.561504 
L 244.346659 139.345005 
L 244.492788 139.345005 
L 244.584589 138.534006 
L 244.629207 138.534006 
L 244.629207 138.128507 
L 244.870948 138.128507 
L 244.929017 137.317508 
L 244.996509 137.317508 
L 245.031751 136.506509 
L 245.216986 136.506509 
L 245.320076 134.073512 
L 245.469873 134.073512 
L 245.550519 133.262513 
L 245.623994 133.262513 
L 245.623994 132.857014 
L 245.782202 132.857014 
L 245.877069 132.046015 
L 245.981056 132.046015 
L 245.981056 131.640515 
L 246.135487 131.640515 
L 246.193632 130.829516 
L 246.689785 130.829516 
L 246.696096 130.018517 
L 246.822114 130.018517 
L 246.888617 129.207518 
L 246.966497 129.207518 
L 246.966497 128.802019 
L 247.081749 128.802019 
L 247.183529 127.58552 
L 247.349946 127.58552 
L 247.407163 126.774521 
L 247.724175 126.774521 
L 247.724175 126.369022 
L 247.837614 126.369022 
L 247.915494 125.152523 
L 247.968849 125.152523 
L 247.968849 124.747024 
L 248.523014 124.747024 
L 248.600894 123.530526 
L 248.673617 123.530526 
L 248.711656 122.314027 
L 248.816676 122.314027 
L 248.816676 121.908528 
L 249.046671 121.908528 
L 249.052682 120.692029 
L 249.334352 120.692029 
L 249.426901 119.475531 
L 249.470697 119.475531 
L 249.542454 118.259032 
L 249.621581 118.259032 
L 249.707332 117.042534 
L 249.949121 117.042534 
L 250.027001 115.826036 
L 250.087562 115.826036 
L 250.087562 115.420536 
L 250.203461 115.420536 
L 250.203461 115.015037 
L 250.395258 115.015037 
L 250.463097 113.798538 
L 250.556061 113.798538 
L 250.556061 113.393039 
L 250.805929 113.393039 
L 250.912799 112.58204 
L 250.994183 112.58204 
L 250.994183 112.17654 
L 251.152458 112.17654 
L 251.205624 110.960042 
L 251.293029 110.960042 
L 251.293029 110.554542 
L 251.412093 110.554542 
L 251.484724 109.743543 
L 251.536566 109.743543 
L 251.577725 108.932544 
L 251.659798 108.932544 
L 251.703736 107.716046 
L 251.830513 107.716046 
L 251.864954 106.499548 
L 252.066352 106.499548 
L 252.177015 105.283049 
L 252.341867 105.283049 
L 252.416647 104.47205 
L 252.57745 104.47205 
L 252.623076 103.255552 
L 252.852045 103.255552 
L 252.852045 102.850052 
L 253.015349 102.850052 
L 253.015572 102.039053 
L 253.263965 102.039053 
L 253.319735 101.228054 
L 253.396451 101.228054 
L 253.399709 100.417055 
L 253.5236 100.417055 
L 253.55558 99.606056 
L 253.681186 99.606056 
L 253.779939 98.389558 
L 253.801041 98.389558 
L 253.801041 97.984058 
L 254.130145 97.984058 
L 254.130145 97.578559 
L 254.290948 97.578559 
L 254.290948 97.17306 
L 254.471811 97.17306 
L 254.486442 96.362061 
L 254.72907 96.362061 
L 254.72907 95.956561 
L 254.852041 95.956561 
L 254.852041 95.551062 
L 255.126855 95.551062 
L 255.182878 94.740063 
L 255.394684 94.740063 
L 255.394684 94.334563 
L 255.563108 94.334563 
L 255.563108 93.929064 
L 255.861693 93.929064 
L 255.939573 92.307066 
L 257.545553 92.307066 
L 257.600438 91.496067 
L 257.724836 91.496067 
L 257.802716 90.685068 
L 258.105066 90.685068 
L 258.182946 89.874069 
L 259.176538 89.874069 
L 259.246858 89.06307 
L 259.436173 89.06307 
L 259.436173 88.65757 
L 259.785043 88.65757 
L 259.84329 87.846572 
L 260.195855 87.846572 
L 260.195855 87.441072 
L 260.881256 87.441072 
L 260.95355 86.630073 
L 261.039428 86.630073 
L 261.039681 85.819074 
L 261.299316 85.819074 
L 261.299316 85.413575 
L 261.41991 85.413575 
L 261.477758 84.602576 
L 261.679546 84.602576 
L 261.679546 84.197076 
L 261.825121 84.197076 
L 261.898137 83.386077 
L 262.211452 83.386077 
L 262.307362 82.575078 
L 262.372255 82.575078 
L 262.372255 82.169579 
L 262.546253 82.169579 
L 262.546253 81.764079 
L 262.679452 81.764079 
L 262.679452 81.35858 
L 262.810377 81.35858 
L 262.902571 80.547581 
L 263.117959 80.547581 
L 263.117959 80.142081 
L 263.282801 80.142081 
L 263.282801 79.736582 
L 263.475991 79.736582 
L 263.475991 79.331082 
L 263.688264 79.331082 
L 263.688264 78.925583 
L 264.053214 78.925583 
L 264.068494 78.114584 
L 264.836195 78.114584 
L 264.836195 77.709085 
L 266.515187 77.709085 
L 266.515187 77.303585 
L 267.551789 77.303585 
L 267.551789 76.898086 
L 268.219935 76.898086 
L 268.219935 76.492586 
L 268.737315 76.492586 
L 268.737315 76.087087 
L 269.580113 76.087087 
L 269.580113 75.681587 
L 270.083078 75.681587 
L 270.083078 75.276088 
L 270.463307 75.276088 
L 270.463307 74.870588 
L 271.782569 74.870588 
L 271.782569 74.465089 
L 274.021256 74.465089 
L 274.021256 74.059589 
L 274.26202 74.059589 
L 274.26202 73.65409 
L 274.877537 73.65409 
L 274.877537 73.24859 
L 276.582812 73.24859 
L 276.582812 72.843091 
L 276.724219 72.843091 
L 276.724219 72.437591 
L 276.857418 72.437591 
L 276.857418 72.032092 
L 277.429254 72.032092 
L 277.429254 71.626592 
L 277.619414 71.626592 
L 277.619414 71.221093 
L 277.92267 71.221093 
L 277.92267 70.815593 
L 278.23118 70.815593 
L 278.23118 70.410094 
L 278.80494 70.410094 
L 278.80494 70.004595 
L 279.014161 70.004595 
L 279.014161 69.599095 
L 279.593663 69.599095 
L 279.593663 69.193596 
L 280.132216 69.193596 
L 280.132216 68.788096 
L 280.265415 68.788096 
L 280.265415 68.382597 
L 281.639177 68.382597 
L 281.639177 67.977097 
L 282.296626 67.977097 
L 282.296626 67.571598 
L 282.422159 67.571598 
L 282.429824 66.760599 
L 283.803586 66.760599 
L 283.803586 66.355099 
L 284.329645 66.355099 
L 284.329645 65.9496 
L 284.586568 65.9496 
L 284.586568 65.5441 
L 286.055816 65.5441 
L 286.055816 65.138601 
L 288.758779 65.138601 
L 288.758779 64.733101 
L 288.891978 64.733101 
L 288.891978 64.327602 
L 290.26574 64.327602 
L 290.26574 63.922102 
L 291.048721 63.922102 
L 291.048721 63.516603 
L 292.607345 63.516603 
L 292.607345 63.111103 
L 293.643947 63.111103 
L 293.643947 62.705604 
L 294.398374 62.705604 
L 294.398374 62.300104 
L 294.829473 62.300104 
L 294.927495 61.489105 
L 297.101336 61.489105 
L 297.101336 61.083606 
L 297.234535 61.083606 
L 297.234535 60.678107 
L 298.022463 60.678107 
L 298.022463 60.272607 
L 298.608297 60.272607 
L 298.608297 59.867108 
L 299.391279 59.867108 
L 299.391279 59.461608 
L 300.354178 59.461608 
L 300.354178 59.056109 
L 309.083048 59.056109 
L 309.083048 58.650609 
L 310.11965 58.650609 
L 310.11965 58.24511 
L 311.305176 58.24511 
L 311.305176 57.83961 
L 311.786011 57.83961 
L 311.786011 57.434111 
L 311.91921 57.434111 
L 311.91921 57.028611 
L 312.822613 57.028611 
L 312.822613 56.623112 
L 312.955812 56.623112 
L 312.955812 56.217612 
L 313.292972 56.217612 
L 313.292972 55.812113 
L 314.008139 55.812113 
L 314.075954 55.001114 
L 314.141338 55.001114 
L 314.141338 54.595614 
L 314.329574 54.595614 
L 314.329574 54.190115 
L 315.112555 54.190115 
L 315.112555 53.784615 
L 315.5151 53.784615 
L 315.5151 53.379116 
L 316.298081 53.379116 
L 316.298081 52.973616 
L 316.829881 52.973616 
L 316.829881 52.568117 
L 319.532844 52.568117 
L 319.532844 52.162617 
L 319.666043 52.162617 
L 319.666043 51.757118 
L 321.039805 51.757118 
L 321.039805 51.351619 
L 321.822786 51.351619 
L 321.822786 50.946119 
L 330.216165 50.946119 
L 330.216165 50.54062 
L 331.35543 50.54062 
L 331.35543 50.13512 
L 332.015592 50.13512 
L 332.015592 49.729621 
L 332.38982 49.729621 
L 332.38982 49.324121 
L 337.288722 49.324121 
L 337.288722 48.918622 
L 339.299752 48.918622 
L 339.299752 48.513122 
L 340.439018 48.513122 
L 340.439018 48.107623 
L 341.099179 48.107623 
L 341.099179 47.702123 
L 341.473408 47.702123 
L 341.49388 46.891124 
L 342.633145 46.891124 
L 342.633145 46.485625 
L 343.293307 46.485625 
L 343.293307 46.080125 
L 343.667535 46.080125 
L 343.667535 45.674626 
L 346.37231 45.674626 
L 346.37231 45.269126 
L 347.01819 45.269126 
L 347.01819 44.863627 
L 348.157456 44.863627 
L 348.157456 44.458127 
L 348.566437 44.458127 
L 348.566437 44.052628 
L 348.817617 44.052628 
L 348.817617 43.647128 
L 349.039579 43.647128 
L 349.039579 43.241629 
L 349.191846 43.241629 
L 349.191846 42.836129 
L 350.178845 42.836129 
L 350.178845 42.43063 
L 350.753077 42.43063 
L 350.839006 41.619631 
L 351.213235 41.619631 
L 351.213235 41.214132 
L 351.892342 41.214132 
L 351.892342 40.808632 
L 352.552504 40.808632 
L 352.552504 40.403133 
L 352.926732 40.403133 
L 352.926732 39.997633 
L 354.090748 39.997633 
L 354.090748 39.592134 
L 356.112136 39.592134 
L 356.112136 39.186634 
L 357.825634 39.186634 
L 357.825634 38.781135 
L 358.834383 38.781135 
L 358.834383 38.375635 
L 359.543183 38.375635 
L 359.543183 37.970136 
L 359.973649 37.970136 
L 359.973649 37.564636 
L 360.63381 37.564636 
L 360.63381 37.159137 
L 361.008039 37.159137 
L 361.008039 36.753637 
L 365.906941 36.753637 
L 365.906941 36.348138 
L 368.62677 36.348138 
L 368.62677 35.942638 
L 370.820898 35.942638 
L 370.820898 35.537139 
L 376.345208 35.537139 
L 376.345208 35.131639 
L 378.366597 35.131639 
L 378.366597 34.72614 
L 380.080095 34.72614 
L 380.080095 34.32064 
L 382.688108 34.32064 
L 382.688108 33.915141 
L 388.161402 33.915141 
L 388.161402 33.509641 
L 391.771696 33.509641 
L 391.771696 33.104142 
L 393.965823 33.104142 
L 393.965823 32.698643 
L 399.490134 32.698643 
L 399.490134 32.293143 
L 401.511523 32.293143 
L 401.511523 31.887644 
L 403.22502 31.887644 
L 403.22502 31.482144 
L 411.306327 31.482144 
L 411.306327 31.076645 
L 452.992 31.076645 
L 452.992 31.076645 
" style="fill:none;stroke:#000000;stroke-linecap:square;stroke-width:3;"/>
   </g>
   <g id="line2d_61">
    <path clip-path="url(#pda54d19e0c)" style="fill:none;stroke:#000000;stroke-linecap:square;stroke-width:3;"/>
   </g>
   <g id="line2d_62">
    <path clip-path="url(#pda54d19e0c)" d="M 35.2 242.336502 
L 82.896991 242.336502 
L 82.933343 241.126269 
L 85.831091 241.126269 
L 85.867444 239.916037 
L 86.097474 239.916037 
L 86.097474 239.310921 
L 89.031574 239.310921 
L 89.031574 238.705804 
L 102.098144 238.705804 
L 102.134497 237.495572 
L 105.298628 237.495572 
L 105.298628 236.890456 
L 120.32999 236.890456 
L 120.366343 235.680223 
L 120.974622 235.680223 
L 121.010975 234.469991 
L 121.566537 234.469991 
L 121.60289 233.259758 
L 123.530474 233.259758 
L 123.530474 232.654642 
L 124.175105 232.654642 
L 124.175105 232.049526 
L 124.76702 232.049526 
L 124.76702 231.44441 
L 142.13223 231.44441 
L 142.168582 230.234177 
L 144.607597 230.234177 
L 144.643949 229.023945 
L 145.332713 229.023945 
L 145.332713 228.418829 
L 147.80808 228.418829 
L 147.80808 227.813713 
L 157.976672 227.813713 
L 157.976672 227.208596 
L 158.328355 227.208596 
L 158.328355 226.60348 
L 158.556045 226.60348 
L 158.556045 225.998364 
L 160.910773 225.998364 
L 160.910773 225.393248 
L 161.262455 225.393248 
L 161.262455 224.788131 
L 161.490146 224.788131 
L 161.490146 224.183015 
L 163.510257 224.183015 
L 163.510257 223.577899 
L 166.444357 223.577899 
L 166.444357 222.972783 
L 173.78214 222.972783 
L 173.78214 222.367667 
L 176.716241 222.367667 
L 176.716241 221.76255 
L 177.177826 221.76255 
L 177.177826 221.157434 
L 177.529509 221.157434 
L 177.529509 220.552318 
L 177.757199 220.552318 
L 177.757199 219.947202 
L 181.106889 219.947202 
L 181.106889 219.342085 
L 181.35693 219.342085 
L 181.40372 218.131853 
L 181.65376 218.131853 
L 181.65376 217.526737 
L 182.171237 217.526737 
L 182.171237 216.921621 
L 182.421278 216.921621 
L 182.421278 216.316504 
L 182.711411 216.316504 
L 182.711411 215.711388 
L 183.319508 215.711388 
L 183.319508 215.106272 
L 183.581468 215.106272 
L 183.616338 213.896039 
L 183.800465 213.896039 
L 183.831509 212.685807 
L 184.383856 212.685807 
L 184.383856 212.080691 
L 185.326383 212.080691 
L 185.326383 211.475575 
L 185.581265 211.475575 
L 185.581265 210.870458 
L 185.794087 210.870458 
L 185.794087 210.265342 
L 186.734566 210.265342 
L 186.734566 209.660226 
L 188.260483 209.660226 
L 188.260483 209.05511 
L 188.515366 209.05511 
L 188.515366 208.449994 
L 192.983294 208.449994 
L 192.983294 207.844877 
L 195.409672 207.844877 
L 195.409672 207.239761 
L 195.761355 207.239761 
L 195.761355 206.634645 
L 195.989045 206.634645 
L 196.054303 205.424412 
L 196.405986 205.424412 
L 196.405986 204.819296 
L 196.633677 204.819296 
L 196.646219 203.609064 
L 196.955406 203.609064 
L 196.997901 202.398831 
L 197.225592 202.398831 
L 197.252237 201.188599 
L 197.730745 201.188599 
L 197.730745 200.583483 
L 198.019755 200.583483 
L 198.027575 199.37325 
L 198.795093 199.37325 
L 198.795093 198.768134 
L 199.429985 198.768134 
L 199.429985 198.163018 
L 200.205323 198.163018 
L 200.314874 196.347669 
L 200.528089 196.347669 
L 200.611705 195.137437 
L 200.943257 195.137437 
L 200.943257 194.53232 
L 201.295606 194.53232 
L 201.379222 193.322088 
L 201.587888 193.322088 
L 201.587888 192.716972 
L 202.179803 192.716972 
L 202.218769 191.506739 
L 202.408659 191.506739 
L 202.5156 190.296507 
L 202.522574 190.296507 
L 202.522574 189.691391 
L 202.70549 189.691391 
L 202.789453 187.270926 
L 202.819405 187.270926 
L 202.819405 186.66581 
L 202.957243 186.66581 
L 203.001619 185.455577 
L 203.107101 185.455577 
L 203.107101 184.850461 
L 203.283117 184.850461 
L 203.357142 183.640229 
L 203.447632 183.640229 
L 203.473008 182.429996 
L 203.586922 182.429996 
L 203.697673 181.219764 
L 204.150769 181.219764 
L 204.171623 180.009531 
L 204.373873 180.009531 
L 204.468454 178.194183 
L 204.527537 178.194183 
L 204.623914 176.98395 
L 204.693348 176.98395 
L 204.782419 175.773718 
L 204.883238 175.773718 
L 204.91982 174.563485 
L 204.997153 174.563485 
L 204.997153 173.958369 
L 205.235971 173.958369 
L 205.31972 172.748137 
L 205.660251 172.748137 
L 205.660251 172.14302 
L 205.821978 172.14302 
L 205.821978 171.537904 
L 206.072018 171.537904 
L 206.072018 170.932788 
L 206.363388 170.932788 
L 206.363388 170.327672 
L 206.586492 170.327672 
L 206.646202 169.117439 
L 208.034596 169.117439 
L 208.034596 168.512323 
L 211.21514 168.512323 
L 211.21514 167.907207 
L 211.859771 167.907207 
L 211.859771 167.302091 
L 212.451686 167.302091 
L 212.451686 166.696974 
L 217.211911 166.696974 
L 217.211911 166.091858 
L 217.563594 166.091858 
L 217.563594 165.486742 
L 217.791284 165.486742 
L 217.791284 164.881626 
L 218.555719 164.881626 
L 218.555719 164.27651 
L 218.955618 164.27651 
L 218.955618 163.671393 
L 219.296149 163.671393 
L 219.331057 162.461161 
L 219.687278 162.461161 
L 219.730956 161.250928 
L 219.999286 161.250928 
L 220.071488 159.43558 
L 220.222391 159.43558 
L 220.266651 158.225347 
L 220.774625 158.225347 
L 220.774625 157.620231 
L 220.892188 157.620231 
L 220.997729 156.409999 
L 221.189019 156.409999 
L 221.233465 155.199766 
L 221.670495 155.199766 
L 221.670495 154.59465 
L 221.831571 154.59465 
L 221.915187 152.779301 
L 221.956537 152.779301 
L 221.956537 152.174185 
L 222.23147 152.174185 
L 222.315086 150.963953 
L 222.445833 150.963953 
L 222.470012 149.75372 
L 222.572001 149.75372 
L 222.655617 148.543488 
L 222.70313 148.543488 
L 222.759383 146.728139 
L 222.953171 146.728139 
L 223.014265 145.517907 
L 223.116477 145.517907 
L 223.116477 144.912791 
L 223.249298 144.912791 
L 223.358754 143.097442 
L 223.366767 143.097442 
L 223.413308 141.282093 
L 223.498242 141.282093 
L 223.581858 138.861628 
L 223.658896 138.861628 
L 223.687025 137.651396 
L 223.794184 137.651396 
L 223.819082 136.441163 
L 223.995929 136.441163 
L 224.008972 135.230931 
L 224.122887 135.230931 
L 224.218981 133.415582 
L 224.250812 133.415582 
L 224.250812 132.810466 
L 224.408871 132.810466 
L 224.408871 132.20535 
L 224.522786 132.20535 
L 224.559512 130.995118 
L 224.749403 130.995118 
L 224.834454 129.784885 
L 224.863317 129.784885 
L 224.946347 127.969536 
L 225.029963 127.969536 
L 225.084495 126.759304 
L 225.220863 126.759304 
L 225.262649 125.549072 
L 225.45254 125.549072 
L 225.485753 123.733723 
L 225.566454 123.733723 
L 225.675644 121.918374 
L 225.756762 121.918374 
L 225.789558 120.103026 
L 226.171835 120.103026 
L 226.171835 119.497909 
L 226.512366 119.497909 
L 226.621126 118.287677 
L 226.933858 118.287677 
L 226.933858 117.682561 
L 227.047073 117.682561 
L 227.123748 116.472328 
L 227.215503 116.472328 
L 227.237663 115.262096 
L 227.438607 115.262096 
L 227.438607 114.65698 
L 228.886712 114.65698 
L 228.886712 114.051863 
L 233.017379 114.051863 
L 233.017379 113.446747 
L 235.492746 113.446747 
L 235.492746 112.841631 
L 238.551647 112.841631 
L 238.551647 112.236515 
L 239.097815 112.236515 
L 239.097815 111.631399 
L 239.326986 111.631399 
L 239.39266 110.421166 
L 239.873154 110.421166 
L 239.873154 109.81605 
L 240.167999 109.81605 
L 240.167999 109.210934 
L 240.682972 109.210934 
L 240.682972 108.605817 
L 241.45831 108.605817 
L 241.45831 108.000701 
L 241.827499 108.000701 
L 241.911115 106.790469 
L 242.018307 106.790469 
L 242.054659 105.580236 
L 242.373667 105.580236 
L 242.457283 104.370004 
L 242.492501 104.370004 
L 242.585543 103.159771 
L 242.668512 103.159771 
L 242.752128 101.949539 
L 242.882374 101.949539 
L 242.8924 100.13419 
L 243.035704 100.13419 
L 243.035704 99.529074 
L 243.232931 99.529074 
L 243.232931 98.923958 
L 243.649892 98.923958 
L 243.649892 98.318842 
L 243.81501 98.318842 
L 243.81501 97.713725 
L 243.936068 97.713725 
L 244.042439 95.293261 
L 244.118815 95.293261 
L 244.159173 94.083028 
L 244.361178 94.083028 
L 244.361178 93.477912 
L 244.551068 93.477912 
L 244.656023 91.662563 
L 244.664983 91.662563 
L 244.71679 90.452331 
L 244.816504 90.452331 
L 244.845914 89.242098 
L 244.959828 89.242098 
L 245.060122 88.031866 
L 245.116689 88.031866 
L 245.21879 86.821634 
L 245.39181 86.821634 
L 245.45722 85.611401 
L 245.511071 85.611401 
L 245.607277 84.401169 
L 245.641851 84.401169 
L 245.641851 83.796052 
L 245.767864 83.796052 
L 245.767864 83.190936 
L 245.946334 83.190936 
L 245.946334 82.58582 
L 246.136225 82.58582 
L 246.160357 81.375588 
L 246.25014 81.375588 
L 246.314032 80.165355 
L 246.383461 80.165355 
L 246.383461 79.560239 
L 246.608877 79.560239 
L 246.608877 78.955123 
L 247.036989 78.955123 
L 247.036989 78.350006 
L 247.291871 78.350006 
L 247.291871 77.74489 
L 247.604429 77.74489 
L 247.604429 77.139774 
L 247.831566 77.139774 
L 247.899188 75.929542 
L 250.314252 75.929542 
L 250.350604 74.719309 
L 252.859557 74.719309 
L 252.89591 73.509077 
L 253.514735 73.509077 
L 253.514735 72.903961 
L 256.06004 72.903961 
L 256.06004 72.298844 
L 261.120025 72.298844 
L 261.120025 71.693728 
L 261.240328 71.693728 
L 261.240328 71.088612 
L 261.764656 71.088612 
L 261.764656 70.483496 
L 262.015666 70.483496 
L 262.015666 69.878379 
L 262.356571 69.878379 
L 262.356571 69.273263 
L 262.488429 69.273263 
L 262.488429 68.668147 
L 263.034597 68.668147 
L 263.034597 68.063031 
L 263.329442 68.063031 
L 263.329442 67.457915 
L 264.185856 67.457915 
L 264.185856 66.852798 
L 264.516179 66.852798 
L 264.619754 64.432333 
L 264.712718 64.432333 
L 264.712718 63.827217 
L 264.926286 63.827217 
L 264.926286 63.222101 
L 265.258886 63.222101 
L 265.258886 62.616985 
L 265.553731 62.616985 
L 265.629423 61.406752 
L 265.852528 61.406752 
L 265.852528 60.801636 
L 266.50369 60.801636 
L 266.50369 60.19652 
L 266.693581 60.19652 
L 266.693581 59.591404 
L 266.807496 59.591404 
L 266.844042 58.381171 
L 267.300632 58.381171 
L 267.300632 57.776055 
L 268.456544 57.776055 
L 268.456544 57.170939 
L 282.922264 57.170939 
L 282.922264 56.565823 
L 284.181784 56.565823 
L 284.181784 55.960706 
L 284.727952 55.960706 
L 284.727952 55.35559 
L 285.022797 55.35559 
L 285.022797 54.750474 
L 285.17711 54.750474 
L 285.17711 54.145358 
L 285.397631 54.145358 
L 285.397631 53.540242 
L 286.313109 53.540242 
L 286.313109 52.935125 
L 287.401398 52.935125 
L 287.401398 52.330009 
L 306.870465 52.330009 
L 306.870465 51.724893 
L 317.097988 51.724893 
L 317.097988 51.119777 
L 317.449671 51.119777 
L 317.449671 50.51466 
L 317.677361 50.51466 
L 317.677361 49.909544 
L 322.631573 49.909544 
L 322.631573 49.304428 
L 325.393933 49.304428 
L 325.393933 48.699312 
L 325.745616 48.699312 
L 325.745616 48.094196 
L 325.973307 48.094196 
L 325.973307 47.489079 
L 327.939239 47.489079 
L 327.939239 46.883963 
L 328.290921 46.883963 
L 328.290921 46.278847 
L 328.518612 46.278847 
L 328.518612 45.673731 
L 330.927518 45.673731 
L 330.927518 45.068614 
L 332.903456 45.068614 
L 332.903456 44.463498 
L 333.472823 44.463498 
L 333.472823 43.858382 
L 341.199401 43.858382 
L 341.199401 43.253266 
L 342.921781 43.253266 
L 342.921781 42.64815 
L 343.744707 42.64815 
L 343.744707 42.043033 
L 344.447699 42.043033 
L 344.447699 41.437917 
L 344.702581 41.437917 
L 344.702581 40.832801 
L 351.217726 40.832801 
L 351.217726 40.227685 
L 352.743644 40.227685 
L 352.743644 39.622568 
L 352.998526 39.622568 
L 352.998526 39.017452 
L 353.763032 39.017452 
L 353.763032 38.412336 
L 355.288949 38.412336 
L 355.288949 37.80722 
L 355.543832 37.80722 
L 355.543832 37.202104 
L 382.808341 37.202104 
L 382.808341 36.596987 
L 391.104286 36.596987 
L 391.104286 35.991871 
L 393.649592 35.991871 
L 393.649592 35.386755 
L 452.992 35.386755 
L 452.992 35.386755 
" style="fill:none;stroke:#00bfbf;stroke-linecap:square;stroke-width:3;"/>
   </g>
   <g id="line2d_63">
    <path clip-path="url(#pda54d19e0c)" style="fill:none;stroke:#00bfbf;stroke-linecap:square;stroke-width:3;"/>
   </g>
   <g id="line2d_64">
    <path clip-path="url(#pda54d19e0c)" d="M 35.2 226.614286 
L 155.32631 226.614286 
L 155.32631 225.390546 
L 157.608831 225.390546 
L 157.608831 224.166807 
L 158.335132 224.166807 
L 158.335132 222.943067 
L 158.630524 222.943067 
L 158.686531 220.495588 
L 160.617653 220.495588 
L 160.617653 219.271849 
L 161.639346 219.271849 
L 161.695353 216.82437 
L 164.280276 216.82437 
L 164.280276 215.60063 
L 167.289098 215.60063 
L 167.289098 214.376891 
L 175.003307 214.376891 
L 175.003307 213.153151 
L 177.285828 213.153151 
L 177.285828 211.929412 
L 178.307522 211.929412 
L 178.363528 209.481933 
L 183.065775 209.481933 
L 183.065775 208.258193 
L 183.823999 208.258193 
L 183.823999 207.034454 
L 183.957274 207.034454 
L 183.957274 205.810714 
L 184.800215 205.810714 
L 184.800215 204.586975 
L 185.203002 204.586975 
L 185.203002 203.363235 
L 186.051671 203.363235 
L 186.074596 200.915756 
L 186.832821 200.915756 
L 186.832821 199.692017 
L 187.809037 199.692017 
L 187.809037 198.468277 
L 188.211824 198.468277 
L 188.211824 197.244538 
L 189.060493 197.244538 
L 189.060493 196.020798 
L 193.10472 196.020798 
L 193.10472 194.797059 
L 193.305555 194.797059 
L 193.305555 193.573319 
L 194.441292 193.573319 
L 194.441292 192.34958 
L 195.387241 192.34958 
L 195.387241 191.12584 
L 195.588076 191.12584 
L 195.588076 189.902101 
L 196.408935 189.902101 
L 196.464941 187.454622 
L 196.60977 187.454622 
L 196.665776 185.007143 
L 196.723813 185.007143 
L 196.723813 183.783403 
L 197.745506 183.783403 
L 197.801513 181.335924 
L 202.058686 181.335924 
L 202.058686 180.112185 
L 202.259522 180.112185 
L 202.259522 178.888445 
L 202.742772 178.888445 
L 202.742772 177.664706 
L 203.395258 177.664706 
L 203.500996 175.217227 
L 204.477213 175.217227 
L 204.477213 173.993487 
L 204.88 173.993487 
L 204.88 172.769748 
L 205.728669 172.769748 
L 205.728669 171.546008 
L 215.015871 171.546008 
L 215.015871 170.322269 
L 217.298392 170.322269 
L 217.298392 169.098529 
L 217.963533 169.098529 
L 217.963533 167.87479 
L 218.320085 167.87479 
L 218.376092 165.427311 
L 220.246054 165.427311 
L 220.246054 164.203571 
L 220.844185 164.203571 
L 220.844185 162.979832 
L 221.04502 162.979832 
L 221.04502 161.756092 
L 221.267747 161.756092 
L 221.323754 159.308613 
L 221.602409 159.308613 
L 221.602409 158.084874 
L 221.803244 158.084874 
L 221.803244 156.861134 
L 222.180756 156.861134 
L 222.180756 155.637395 
L 222.578626 155.637395 
L 222.578626 154.413655 
L 222.779461 154.413655 
L 222.779461 153.189916 
L 222.938981 153.189916 
L 222.981412 150.742437 
L 223.135028 150.742437 
L 223.182248 148.294958 
L 223.830081 148.294958 
L 223.915197 145.847479 
L 223.969837 145.847479 
L 224.030917 143.4 
L 224.317984 143.4 
L 224.317984 142.176261 
L 225.166653 142.176261 
L 225.166653 140.952521 
L 226.143849 140.952521 
L 226.143849 139.728782 
L 226.917499 139.728782 
L 226.917499 138.505042 
L 242.755335 138.505042 
L 242.812025 136.057563 
L 243.51356 136.057563 
L 243.51356 134.833824 
L 243.893907 134.833824 
L 243.893907 133.610084 
L 244.489776 133.610084 
L 244.489776 132.386345 
L 244.892563 132.386345 
L 244.892563 131.162605 
L 245.702998 131.162605 
L 245.741232 128.715126 
L 246.176428 128.715126 
L 246.176428 127.491387 
L 246.461222 127.491387 
L 246.461222 126.267647 
L 247.198121 126.267647 
L 247.254127 123.820168 
L 247.437438 123.820168 
L 247.437438 122.596429 
L 247.840225 122.596429 
L 247.840225 121.372689 
L 248.688894 121.372689 
L 248.688894 120.14895 
L 252.847873 120.14895 
L 252.847873 118.92521 
L 260.913438 118.92521 
L 260.913438 117.701471 
L 261.114273 117.701471 
L 261.114273 116.477731 
L 262.250009 116.477731 
L 262.250009 115.253992 
L 271.633371 115.253992 
L 271.633371 114.030252 
L 272.391596 114.030252 
L 272.391596 112.806513 
L 273.367812 112.806513 
L 273.367812 111.582773 
L 273.770599 111.582773 
L 273.770599 110.359034 
L 274.619268 110.359034 
L 274.619268 109.135294 
L 282.824588 109.135294 
L 282.824588 107.911555 
L 285.772251 107.911555 
L 285.772251 106.687815 
L 301.50967 106.687815 
L 301.50967 105.464076 
L 303.792191 105.464076 
L 303.792191 104.240336 
L 304.813884 104.240336 
L 304.869891 101.792857 
L 310.463636 101.792857 
L 310.463636 100.569118 
L 310.792771 100.569118 
L 310.792771 99.345378 
L 311.702624 99.345378 
L 311.702624 98.121639 
L 313.075292 98.121639 
L 313.075292 96.897899 
L 314.096985 96.897899 
L 314.152992 94.45042 
L 319.746737 94.45042 
L 319.746737 93.226681 
L 329.249135 93.226681 
L 329.249135 92.002941 
L 330.007359 92.002941 
L 330.007359 90.779202 
L 330.983576 90.779202 
L 330.983576 89.555462 
L 331.386362 89.555462 
L 331.386362 88.331723 
L 332.235031 88.331723 
L 332.235031 87.107983 
L 338.532236 87.107983 
L 338.532236 85.884244 
L 339.29046 85.884244 
L 339.29046 84.660504 
L 340.266676 84.660504 
L 340.266676 83.436765 
L 340.669463 83.436765 
L 340.669463 82.213025 
L 341.518132 82.213025 
L 341.518132 80.989286 
L 369.318388 80.989286 
L 369.318388 79.765546 
L 378.601488 79.765546 
L 378.601488 78.541807 
L 452.992 78.541807 
L 452.992 78.541807 
" style="fill:none;stroke:#bf00bf;stroke-linecap:square;stroke-width:3;"/>
   </g>
   <g id="line2d_65">
    <path clip-path="url(#pda54d19e0c)" style="fill:none;stroke:#bf00bf;stroke-linecap:square;stroke-width:3;"/>
   </g>
   <g id="line2d_66">
    <path clip-path="url(#pda54d19e0c)" d="M 35.2 226.614286 
L 156.462677 226.614286 
L 156.462677 225.390546 
L 159.111893 225.390546 
L 159.111893 224.166807 
L 159.775589 224.166807 
L 159.775589 222.943067 
L 160.234382 222.943067 
L 160.234382 221.719328 
L 160.824669 221.719328 
L 160.824669 220.495588 
L 162.424805 220.495588 
L 162.424805 219.271849 
L 162.883598 219.271849 
L 162.883598 218.048109 
L 163.473885 218.048109 
L 163.473885 216.82437 
L 164.72148 216.82437 
L 164.72148 215.60063 
L 167.370696 215.60063 
L 167.370696 214.376891 
L 176.176192 214.376891 
L 176.176192 213.153151 
L 179.489105 213.153151 
L 179.489105 211.929412 
L 179.947898 211.929412 
L 179.947898 210.705672 
L 180.538185 210.705672 
L 180.538185 209.481933 
L 183.631038 209.481933 
L 183.631038 208.258193 
L 184.136329 208.258193 
L 184.136329 207.034454 
L 184.434996 207.034454 
L 184.434996 205.810714 
L 185.503122 205.810714 
L 185.503122 204.586975 
L 186.081931 204.586975 
L 186.081931 203.363235 
L 186.280254 203.363235 
L 186.280254 202.139496 
L 186.785546 202.139496 
L 186.785546 200.915756 
L 188.152338 200.915756 
L 188.152338 199.692017 
L 188.731147 199.692017 
L 188.731147 198.468277 
L 193.552005 198.468277 
L 193.552005 197.244538 
L 194.618968 197.244538 
L 194.618968 196.020798 
L 195.304138 196.020798 
L 195.304138 194.797059 
L 196.864917 194.797059 
L 196.864917 193.573319 
L 197.32371 193.573319 
L 197.32371 192.34958 
L 197.902542 192.34958 
L 197.93188 188.678361 
L 198.390673 188.678361 
L 198.390673 187.454622 
L 198.617051 187.454622 
L 198.617051 186.230882 
L 198.98096 186.230882 
L 199.075844 183.783403 
L 199.666131 183.783403 
L 199.666131 182.559664 
L 200.551758 182.559664 
L 200.551758 181.335924 
L 201.810808 181.335924 
L 201.810808 180.112185 
L 202.877771 180.112185 
L 202.877771 178.888445 
L 203.344554 178.888445 
L 203.344554 177.664706 
L 203.562942 177.664706 
L 203.562942 176.440966 
L 203.849845 176.440966 
L 203.849845 175.217227 
L 205.216638 175.217227 
L 205.216638 173.993487 
L 205.795447 173.993487 
L 205.795447 172.769748 
L 215.485582 172.769748 
L 215.485582 171.546008 
L 217.616057 171.546008 
L 217.616057 170.322269 
L 218.55297 170.322269 
L 218.55297 169.098529 
L 218.798494 169.098529 
L 218.798494 167.87479 
L 219.257288 167.87479 
L 219.257288 166.65105 
L 219.847575 166.65105 
L 219.847575 165.427311 
L 220.720366 165.427311 
L 220.720366 164.203571 
L 221.225657 164.203571 
L 221.225657 162.979832 
L 221.787329 162.979832 
L 221.865883 160.532353 
L 222.29262 160.532353 
L 222.324676 158.084874 
L 222.4725 158.084874 
L 222.4725 156.861134 
L 222.59245 156.861134 
L 222.59245 155.637395 
L 222.914963 155.637395 
L 222.977791 153.189916 
L 223.171259 153.189916 
L 223.171259 151.966176 
L 223.659413 151.966176 
L 223.744386 149.518697 
L 224.105488 149.518697 
L 224.105488 148.294958 
L 224.238222 148.294958 
L 224.344584 145.847479 
L 224.923393 145.847479 
L 224.923393 144.623739 
L 226.754704 144.623739 
L 226.811774 142.176261 
L 234.991869 142.176261 
L 234.991869 140.952521 
L 236.058832 140.952521 
L 236.058832 139.728782 
L 236.744003 139.728782 
L 236.744003 138.505042 
L 242.501546 138.505042 
L 242.501546 137.281303 
L 242.653943 137.281303 
L 242.653943 136.057563 
L 243.159235 136.057563 
L 243.159235 134.833824 
L 243.819004 134.833824 
L 243.819004 133.610084 
L 244.526027 133.610084 
L 244.526027 132.386345 
L 245.104837 132.386345 
L 245.104837 131.162605 
L 245.721331 131.162605 
L 245.814458 128.715126 
L 246.226623 128.715126 
L 246.273251 126.267647 
L 246.863538 126.267647 
L 246.863538 125.043908 
L 247.593416 125.043908 
L 247.593416 123.820168 
L 248.172225 123.820168 
L 248.172225 122.596429 
L 250.760349 122.596429 
L 250.760349 121.372689 
L 256.925447 121.372689 
L 256.925447 120.14895 
L 259.992835 120.14895 
L 259.992835 118.92521 
L 261.194816 118.92521 
L 261.194816 117.701471 
L 262.261779 117.701471 
L 262.261779 116.477731 
L 262.946949 116.477731 
L 262.946949 115.253992 
L 269.669907 115.253992 
L 269.669907 114.030252 
L 270.175198 114.030252 
L 270.175198 112.806513 
L 271.541991 112.806513 
L 271.541991 111.582773 
L 272.1208 111.582773 
L 272.1208 110.359034 
L 283.128393 110.359034 
L 283.128393 109.135294 
L 283.94141 109.135294 
L 283.94141 107.911555 
L 286.013184 107.911555 
L 286.013184 106.687815 
L 286.195781 106.687815 
L 286.195781 105.464076 
L 287.338731 105.464076 
L 287.338731 104.240336 
L 289.326096 104.240336 
L 289.326096 103.016597 
L 289.784889 103.016597 
L 289.784889 101.792857 
L 290.375176 101.792857 
L 290.375176 100.569118 
L 290.651644 100.569118 
L 290.651644 99.345378 
L 291.110437 99.345378 
L 291.110437 98.121639 
L 291.700724 98.121639 
L 291.700724 96.897899 
L 294.271987 96.897899 
L 294.271987 95.67416 
L 295.597535 95.67416 
L 295.597535 94.45042 
L 310.144357 94.45042 
L 310.144357 93.226681 
L 313.181545 93.226681 
L 313.181545 92.002941 
L 313.686836 92.002941 
L 313.686836 90.779202 
L 314.507093 90.779202 
L 314.507093 89.555462 
L 315.012384 89.555462 
L 315.053629 87.107983 
L 315.632438 87.107983 
L 315.632438 85.884244 
L 316.379177 85.884244 
L 316.379177 84.660504 
L 316.957986 84.660504 
L 316.957986 83.436765 
L 327.453049 83.436765 
L 327.453049 82.213025 
L 328.778596 82.213025 
L 328.778596 80.989286 
L 353.655995 80.989286 
L 353.655995 79.765546 
L 354.981543 79.765546 
L 354.981543 78.541807 
L 452.992 78.541807 
L 452.992 78.541807 
" style="fill:none;stroke:#ff0000;stroke-linecap:square;stroke-width:3;"/>
   </g>
   <g id="line2d_67">
    <path clip-path="url(#pda54d19e0c)" style="fill:none;stroke:#ff0000;stroke-linecap:square;stroke-width:3;"/>
   </g>
   <g id="line2d_68">
    <path clip-path="url(#pda54d19e0c)" d="M 244.096 283.2 
L 244.096 3.6 
" style="fill:none;stroke:#000000;stroke-linecap:square;stroke-width:1.5;"/>
   </g>
   <g id="line2d_69">
    <path clip-path="url(#pda54d19e0c)" d="M 35.2 143.4 
L 452.992 143.4 
" style="fill:none;stroke:#000000;stroke-dasharray:2,3.3;stroke-dashoffset:0;stroke-width:2;"/>
   </g>
   <g id="patch_3">
    <path d="M 35.2 283.2 
L 35.2 3.6 
" style="fill:none;stroke:#000000;stroke-linecap:square;stroke-linejoin:miter;stroke-width:0.8;"/>
   </g>
   <g id="patch_4">
    <path d="M 452.992 283.2 
L 452.992 3.6 
" style="fill:none;stroke:#000000;stroke-linecap:square;stroke-linejoin:miter;stroke-width:0.8;"/>
   </g>
   <g id="patch_5">
    <path d="M 35.2 283.2 
L 452.992 283.2 
" style="fill:none;stroke:#000000;stroke-linecap:square;stroke-linejoin:miter;stroke-width:0.8;"/>
   </g>
   <g id="patch_6">
    <path d="M 35.2 3.6 
L 452.992 3.6 
" style="fill:none;stroke:#000000;stroke-linecap:square;stroke-linejoin:miter;stroke-width:0.8;"/>
   </g>
   <g id="text_5">
    <!-- f20-f24,40-D -->
    <g transform="translate(318.01741 277.608)scale(0.2 -0.2)">
     <defs>
      <path d="M 1228 531 
L 3431 531 
L 3431 0 
L 469 0 
L 469 531 
Q 828 903 1448 1529 
Q 2069 2156 2228 2338 
Q 2531 2678 2651 2914 
Q 2772 3150 2772 3378 
Q 2772 3750 2511 3984 
Q 2250 4219 1831 4219 
Q 1534 4219 1204 4116 
Q 875 4013 500 3803 
L 500 4441 
Q 881 4594 1212 4672 
Q 1544 4750 1819 4750 
Q 2544 4750 2975 4387 
Q 3406 4025 3406 3419 
Q 3406 3131 3298 2873 
Q 3191 2616 2906 2266 
Q 2828 2175 2409 1742 
Q 1991 1309 1228 531 
z
" id="DejaVuSans-32" transform="scale(0.015625)"/>
      <path d="M 2419 4116 
L 825 1625 
L 2419 1625 
L 2419 4116 
z
M 2253 4666 
L 3047 4666 
L 3047 1625 
L 3713 1625 
L 3713 1100 
L 3047 1100 
L 3047 0 
L 2419 0 
L 2419 1100 
L 313 1100 
L 313 1709 
L 2253 4666 
z
" id="DejaVuSans-34" transform="scale(0.015625)"/>
      <path d="M 750 794 
L 1409 794 
L 1409 256 
L 897 -744 
L 494 -744 
L 750 256 
L 750 794 
z
" id="DejaVuSans-2c" transform="scale(0.015625)"/>
      <path d="M 1259 4147 
L 1259 519 
L 2022 519 
Q 2988 519 3436 956 
Q 3884 1394 3884 2338 
Q 3884 3275 3436 3711 
Q 2988 4147 2022 4147 
L 1259 4147 
z
M 628 4666 
L 1925 4666 
Q 3281 4666 3915 4102 
Q 4550 3538 4550 2338 
Q 4550 1131 3912 565 
Q 3275 0 1925 0 
L 628 0 
L 628 4666 
z
" id="DejaVuSans-44" transform="scale(0.015625)"/>
     </defs>
     <use xlink:href="#DejaVuSans-66"/>
     <use x="35.205078" xlink:href="#DejaVuSans-32"/>
     <use x="98.828125" xlink:href="#DejaVuSans-30"/>
     <use x="162.451172" xlink:href="#DejaVuSans-2d"/>
     <use x="198.535156" xlink:href="#DejaVuSans-66"/>
     <use x="233.740234" xlink:href="#DejaVuSans-32"/>
     <use x="297.363281" xlink:href="#DejaVuSans-34"/>
     <use x="360.986328" xlink:href="#DejaVuSans-2c"/>
     <use x="392.773438" xlink:href="#DejaVuSans-34"/>
     <use x="456.396484" xlink:href="#DejaVuSans-30"/>
     <use x="520.019531" xlink:href="#DejaVuSans-2d"/>
     <use x="556.103516" xlink:href="#DejaVuSans-44"/>
    </g>
   </g>
   <g id="text_6">
    <!-- v2.6.3 -->
    <g style="fill:#808080;" transform="translate(228.41475 278.324312)scale(0.1 -0.1)">
     <defs>
      <path d="M 684 794 
L 1344 794 
L 1344 0 
L 684 0 
L 684 794 
z
" id="DejaVuSans-2e" transform="scale(0.015625)"/>
      <path d="M 2113 2584 
Q 1688 2584 1439 2293 
Q 1191 2003 1191 1497 
Q 1191 994 1439 701 
Q 1688 409 2113 409 
Q 2538 409 2786 701 
Q 3034 994 3034 1497 
Q 3034 2003 2786 2293 
Q 2538 2584 2113 2584 
z
M 3366 4563 
L 3366 3988 
Q 3128 4100 2886 4159 
Q 2644 4219 2406 4219 
Q 1781 4219 1451 3797 
Q 1122 3375 1075 2522 
Q 1259 2794 1537 2939 
Q 1816 3084 2150 3084 
Q 2853 3084 3261 2657 
Q 3669 2231 3669 1497 
Q 3669 778 3244 343 
Q 2819 -91 2113 -91 
Q 1303 -91 875 529 
Q 447 1150 447 2328 
Q 447 3434 972 4092 
Q 1497 4750 2381 4750 
Q 2619 4750 2861 4703 
Q 3103 4656 3366 4563 
z
" id="DejaVuSans-36" transform="scale(0.015625)"/>
      <path d="M 2597 2516 
Q 3050 2419 3304 2112 
Q 3559 1806 3559 1356 
Q 3559 666 3084 287 
Q 2609 -91 1734 -91 
Q 1441 -91 1130 -33 
Q 819 25 488 141 
L 488 750 
Q 750 597 1062 519 
Q 1375 441 1716 441 
Q 2309 441 2620 675 
Q 2931 909 2931 1356 
Q 2931 1769 2642 2001 
Q 2353 2234 1838 2234 
L 1294 2234 
L 1294 2753 
L 1863 2753 
Q 2328 2753 2575 2939 
Q 2822 3125 2822 3475 
Q 2822 3834 2567 4026 
Q 2313 4219 1838 4219 
Q 1578 4219 1281 4162 
Q 984 4106 628 3988 
L 628 4550 
Q 988 4650 1302 4700 
Q 1616 4750 1894 4750 
Q 2613 4750 3031 4423 
Q 3450 4097 3450 3541 
Q 3450 3153 3228 2886 
Q 3006 2619 2597 2516 
z
" id="DejaVuSans-33" transform="scale(0.015625)"/>
     </defs>
     <use xlink:href="#DejaVuSans-76"/>
     <use x="59.179688" xlink:href="#DejaVuSans-32"/>
     <use x="122.802734" xlink:href="#DejaVuSans-2e"/>
     <use x="154.589844" xlink:href="#DejaVuSans-36"/>
     <use x="218.212891" xlink:href="#DejaVuSans-2e"/>
     <use x="250" xlink:href="#DejaVuSans-33"/>
    </g>
   </g>
   <g id="legend_1">
    <g id="patch_7">
     <path d="M 49.2 137.025 
L 178.421875 137.025 
Q 182.421875 137.025 182.421875 133.025 
L 182.421875 17.6 
Q 182.421875 13.6 178.421875 13.6 
L 49.2 13.6 
Q 45.2 13.6 45.2 17.6 
L 45.2 133.025 
Q 45.2 137.025 49.2 137.025 
z
" style="fill:#ffffff;opacity:0.2;stroke:#cccccc;stroke-linejoin:miter;"/>
    </g>
    <g id="line2d_70">
     <path d="M 53.2 29.796875 
L 93.2 29.796875 
" style="fill:none;stroke:#000000;stroke-linecap:square;stroke-width:3;"/>
    </g>
    <g id="line2d_71"/>
    <g id="text_7">
     <!-- 1: 3/4 -->
     <g transform="translate(109.2 36.796875)scale(0.2 -0.2)">
      <defs>
       <path d="M 750 794 
L 1409 794 
L 1409 0 
L 750 0 
L 750 794 
z
M 750 3309 
L 1409 3309 
L 1409 2516 
L 750 2516 
L 750 3309 
z
" id="DejaVuSans-3a" transform="scale(0.015625)"/>
       <path d="M 1625 4666 
L 2156 4666 
L 531 -594 
L 0 -594 
L 1625 4666 
z
" id="DejaVuSans-2f" transform="scale(0.015625)"/>
      </defs>
      <use xlink:href="#DejaVuSans-31"/>
      <use x="63.623047" xlink:href="#DejaVuSans-3a"/>
      <use x="97.314453" xlink:href="#DejaVuSans-20"/>
      <use x="129.101562" xlink:href="#DejaVuSans-33"/>
      <use x="192.724609" xlink:href="#DejaVuSans-2f"/>
      <use x="226.416016" xlink:href="#DejaVuSans-34"/>
     </g>
    </g>
    <g id="line2d_72">
     <path d="M 53.2 59.153125 
L 93.2 59.153125 
" style="fill:none;stroke:#00bfbf;stroke-linecap:square;stroke-width:3;"/>
    </g>
    <g id="line2d_73"/>
    <g id="text_8">
     <!-- -1: 2/3 -->
     <g transform="translate(109.2 66.153125)scale(0.2 -0.2)">
      <use xlink:href="#DejaVuSans-2d"/>
      <use x="36.083984" xlink:href="#DejaVuSans-31"/>
      <use x="99.707031" xlink:href="#DejaVuSans-3a"/>
      <use x="133.398438" xlink:href="#DejaVuSans-20"/>
      <use x="165.185547" xlink:href="#DejaVuSans-32"/>
      <use x="228.808594" xlink:href="#DejaVuSans-2f"/>
      <use x="262.5" xlink:href="#DejaVuSans-33"/>
     </g>
    </g>
    <g id="line2d_74">
     <path d="M 53.2 88.509375 
L 93.2 88.509375 
" style="fill:none;stroke:#bf00bf;stroke-linecap:square;stroke-width:3;"/>
    </g>
    <g id="line2d_75"/>
    <g id="text_9">
     <!-- -4: 1/2 -->
     <g transform="translate(109.2 95.509375)scale(0.2 -0.2)">
      <use xlink:href="#DejaVuSans-2d"/>
      <use x="36.083984" xlink:href="#DejaVuSans-34"/>
      <use x="99.707031" xlink:href="#DejaVuSans-3a"/>
      <use x="133.398438" xlink:href="#DejaVuSans-20"/>
      <use x="165.185547" xlink:href="#DejaVuSans-31"/>
      <use x="228.808594" xlink:href="#DejaVuSans-2f"/>
      <use x="262.5" xlink:href="#DejaVuSans-32"/>
     </g>
    </g>
    <g id="line2d_76">
     <path d="M 53.2 117.865625 
L 93.2 117.865625 
" style="fill:none;stroke:#ff0000;stroke-linecap:square;stroke-width:3;"/>
    </g>
    <g id="line2d_77"/>
    <g id="text_10">
     <!-- -8: 1/2 -->
     <g transform="translate(109.2 124.865625)scale(0.2 -0.2)">
      <defs>
       <path d="M 2034 2216 
Q 1584 2216 1326 1975 
Q 1069 1734 1069 1313 
Q 1069 891 1326 650 
Q 1584 409 2034 409 
Q 2484 409 2743 651 
Q 3003 894 3003 1313 
Q 3003 1734 2745 1975 
Q 2488 2216 2034 2216 
z
M 1403 2484 
Q 997 2584 770 2862 
Q 544 3141 544 3541 
Q 544 4100 942 4425 
Q 1341 4750 2034 4750 
Q 2731 4750 3128 4425 
Q 3525 4100 3525 3541 
Q 3525 3141 3298 2862 
Q 3072 2584 2669 2484 
Q 3125 2378 3379 2068 
Q 3634 1759 3634 1313 
Q 3634 634 3220 271 
Q 2806 -91 2034 -91 
Q 1263 -91 848 271 
Q 434 634 434 1313 
Q 434 1759 690 2068 
Q 947 2378 1403 2484 
z
M 1172 3481 
Q 1172 3119 1398 2916 
Q 1625 2713 2034 2713 
Q 2441 2713 2670 2916 
Q 2900 3119 2900 3481 
Q 2900 3844 2670 4047 
Q 2441 4250 2034 4250 
Q 1625 4250 1398 4047 
Q 1172 3844 1172 3481 
z
" id="DejaVuSans-38" transform="scale(0.015625)"/>
      </defs>
      <use xlink:href="#DejaVuSans-2d"/>
      <use x="36.083984" xlink:href="#DejaVuSans-38"/>
      <use x="99.707031" xlink:href="#DejaVuSans-3a"/>
      <use x="133.398438" xlink:href="#DejaVuSans-20"/>
      <use x="165.185547" xlink:href="#DejaVuSans-31"/>
      <use x="228.808594" xlink:href="#DejaVuSans-2f"/>
      <use x="262.5" xlink:href="#DejaVuSans-32"/>
     </g>
    </g>
   </g>
  </g>
 </g>
 <defs>
  <clipPath id="pda54d19e0c">
   <rect height="279.6" width="417.792" x="35.2" y="3.6"/>
  </clipPath>
 </defs>
</svg>
