<?xml version="1.0" encoding="utf-8" standalone="no"?>
<!DOCTYPE svg PUBLIC "-//W3C//DTD SVG 1.1//EN"
  "http://www.w3.org/Graphics/SVG/1.1/DTD/svg11.dtd">
<svg height="345.6pt" version="1.1" viewBox="0 0 460.8 345.6" width="460.8pt" xmlns="http://www.w3.org/2000/svg" xmlns:xlink="http://www.w3.org/1999/xlink">
 <metadata>
  <rdf:RDF xmlns:cc="http://creativecommons.org/ns#" xmlns:dc="http://purl.org/dc/elements/1.1/" xmlns:rdf="http://www.w3.org/1999/02/22-rdf-syntax-ns#">
   <cc:Work>
    <dc:type rdf:resource="http://purl.org/dc/dcmitype/StillImage"/>
    <dc:date>2023-04-17T17:52:28.191022</dc:date>
    <dc:format>image/svg+xml</dc:format>
    <dc:creator>
     <cc:Agent>
      <dc:title>Matplotlib v3.4.1, https://matplotlib.org/</dc:title>
     </cc:Agent>
    </dc:creator>
   </cc:Work>
  </rdf:RDF>
 </metadata>
 <defs>
  <style type="text/css">*{stroke-linecap:butt;stroke-linejoin:round;}</style>
 </defs>
 <g id="figure_1">
  <g id="patch_1">
   <path d="M 0 345.6 
L 460.8 345.6 
L 460.8 0 
L 0 0 
z
" style="fill:#ffffff;"/>
  </g>
  <g id="axes_1">
   <g id="patch_2">
    <path d="M 35.2 283.2 
L 452.992 283.2 
L 452.992 3.6 
L 35.2 3.6 
z
" style="fill:#ffffff;"/>
   </g>
   <g id="matplotlib.axis_1">
    <g id="xtick_1">
     <g id="line2d_1">
      <path clip-path="url(#p5972609ffe)" d="M 133.862248 283.2 
L 133.862248 3.6 
" style="fill:none;stroke:#b0b0b0;stroke-linecap:square;stroke-width:0.8;"/>
     </g>
     <g id="line2d_2">
      <defs>
       <path d="M 0 0 
L 0 3.5 
" id="m4f6afb931a" style="stroke:#000000;stroke-width:0.8;"/>
      </defs>
      <g>
       <use style="stroke:#000000;stroke-width:0.8;" x="133.862248" xlink:href="#m4f6afb931a" y="283.2"/>
      </g>
     </g>
     <g id="text_1">
      <!-- -1 -->
      <g transform="translate(123.891935 305.396875)scale(0.2 -0.2)">
       <defs>
        <path d="M 313 2009 
L 1997 2009 
L 1997 1497 
L 313 1497 
L 313 2009 
z
" id="DejaVuSans-2d" transform="scale(0.015625)"/>
        <path d="M 794 531 
L 1825 531 
L 1825 4091 
L 703 3866 
L 703 4441 
L 1819 4666 
L 2450 4666 
L 2450 531 
L 3481 531 
L 3481 0 
L 794 0 
L 794 531 
z
" id="DejaVuSans-31" transform="scale(0.015625)"/>
       </defs>
       <use xlink:href="#DejaVuSans-2d"/>
       <use x="36.083984" xlink:href="#DejaVuSans-31"/>
      </g>
     </g>
    </g>
    <g id="xtick_2">
     <g id="line2d_3">
      <path clip-path="url(#p5972609ffe)" d="M 244.096 283.2 
L 244.096 3.6 
" style="fill:none;stroke:#b0b0b0;stroke-linecap:square;stroke-width:0.8;"/>
     </g>
     <g id="line2d_4">
      <g>
       <use style="stroke:#000000;stroke-width:0.8;" x="244.096" xlink:href="#m4f6afb931a" y="283.2"/>
      </g>
     </g>
     <g id="text_2">
      <!-- 0 -->
      <g transform="translate(237.7335 305.396875)scale(0.2 -0.2)">
       <defs>
        <path d="M 2034 4250 
Q 1547 4250 1301 3770 
Q 1056 3291 1056 2328 
Q 1056 1369 1301 889 
Q 1547 409 2034 409 
Q 2525 409 2770 889 
Q 3016 1369 3016 2328 
Q 3016 3291 2770 3770 
Q 2525 4250 2034 4250 
z
M 2034 4750 
Q 2819 4750 3233 4129 
Q 3647 3509 3647 2328 
Q 3647 1150 3233 529 
Q 2819 -91 2034 -91 
Q 1250 -91 836 529 
Q 422 1150 422 2328 
Q 422 3509 836 4129 
Q 1250 4750 2034 4750 
z
" id="DejaVuSans-30" transform="scale(0.015625)"/>
       </defs>
       <use xlink:href="#DejaVuSans-30"/>
      </g>
     </g>
    </g>
    <g id="xtick_3">
     <g id="line2d_5">
      <path clip-path="url(#p5972609ffe)" d="M 354.329752 283.2 
L 354.329752 3.6 
" style="fill:none;stroke:#b0b0b0;stroke-linecap:square;stroke-width:0.8;"/>
     </g>
     <g id="line2d_6">
      <g>
       <use style="stroke:#000000;stroke-width:0.8;" x="354.329752" xlink:href="#m4f6afb931a" y="283.2"/>
      </g>
     </g>
     <g id="text_3">
      <!-- 1 -->
      <g transform="translate(347.967252 305.396875)scale(0.2 -0.2)">
       <use xlink:href="#DejaVuSans-31"/>
      </g>
     </g>
    </g>
    <g id="xtick_4">
     <g id="line2d_7">
      <defs>
       <path d="M 0 0 
L 0 2 
" id="m40ad02f719" style="stroke:#000000;stroke-width:0.6;"/>
      </defs>
      <g>
       <use style="stroke:#000000;stroke-width:0.6;" x="56.812162" xlink:href="#m40ad02f719" y="283.2"/>
      </g>
     </g>
    </g>
    <g id="xtick_5">
     <g id="line2d_8">
      <g>
       <use style="stroke:#000000;stroke-width:0.6;" x="76.223362" xlink:href="#m40ad02f719" y="283.2"/>
      </g>
     </g>
    </g>
    <g id="xtick_6">
     <g id="line2d_9">
      <g>
       <use style="stroke:#000000;stroke-width:0.6;" x="89.995828" xlink:href="#m40ad02f719" y="283.2"/>
      </g>
     </g>
    </g>
    <g id="xtick_7">
     <g id="line2d_10">
      <g>
       <use style="stroke:#000000;stroke-width:0.6;" x="100.678582" xlink:href="#m40ad02f719" y="283.2"/>
      </g>
     </g>
    </g>
    <g id="xtick_8">
     <g id="line2d_11">
      <g>
       <use style="stroke:#000000;stroke-width:0.6;" x="109.407028" xlink:href="#m40ad02f719" y="283.2"/>
      </g>
     </g>
    </g>
    <g id="xtick_9">
     <g id="line2d_12">
      <g>
       <use style="stroke:#000000;stroke-width:0.6;" x="116.786824" xlink:href="#m40ad02f719" y="283.2"/>
      </g>
     </g>
    </g>
    <g id="xtick_10">
     <g id="line2d_13">
      <g>
       <use style="stroke:#000000;stroke-width:0.6;" x="123.179493" xlink:href="#m40ad02f719" y="283.2"/>
      </g>
     </g>
    </g>
    <g id="xtick_11">
     <g id="line2d_14">
      <g>
       <use style="stroke:#000000;stroke-width:0.6;" x="128.818228" xlink:href="#m40ad02f719" y="283.2"/>
      </g>
     </g>
    </g>
    <g id="xtick_12">
     <g id="line2d_15">
      <g>
       <use style="stroke:#000000;stroke-width:0.6;" x="167.045914" xlink:href="#m40ad02f719" y="283.2"/>
      </g>
     </g>
    </g>
    <g id="xtick_13">
     <g id="line2d_16">
      <g>
       <use style="stroke:#000000;stroke-width:0.6;" x="186.457114" xlink:href="#m40ad02f719" y="283.2"/>
      </g>
     </g>
    </g>
    <g id="xtick_14">
     <g id="line2d_17">
      <g>
       <use style="stroke:#000000;stroke-width:0.6;" x="200.22958" xlink:href="#m40ad02f719" y="283.2"/>
      </g>
     </g>
    </g>
    <g id="xtick_15">
     <g id="line2d_18">
      <g>
       <use style="stroke:#000000;stroke-width:0.6;" x="210.912334" xlink:href="#m40ad02f719" y="283.2"/>
      </g>
     </g>
    </g>
    <g id="xtick_16">
     <g id="line2d_19">
      <g>
       <use style="stroke:#000000;stroke-width:0.6;" x="219.64078" xlink:href="#m40ad02f719" y="283.2"/>
      </g>
     </g>
    </g>
    <g id="xtick_17">
     <g id="line2d_20">
      <g>
       <use style="stroke:#000000;stroke-width:0.6;" x="227.020576" xlink:href="#m40ad02f719" y="283.2"/>
      </g>
     </g>
    </g>
    <g id="xtick_18">
     <g id="line2d_21">
      <g>
       <use style="stroke:#000000;stroke-width:0.6;" x="233.413246" xlink:href="#m40ad02f719" y="283.2"/>
      </g>
     </g>
    </g>
    <g id="xtick_19">
     <g id="line2d_22">
      <g>
       <use style="stroke:#000000;stroke-width:0.6;" x="239.05198" xlink:href="#m40ad02f719" y="283.2"/>
      </g>
     </g>
    </g>
    <g id="xtick_20">
     <g id="line2d_23">
      <g>
       <use style="stroke:#000000;stroke-width:0.6;" x="277.279666" xlink:href="#m40ad02f719" y="283.2"/>
      </g>
     </g>
    </g>
    <g id="xtick_21">
     <g id="line2d_24">
      <g>
       <use style="stroke:#000000;stroke-width:0.6;" x="296.690866" xlink:href="#m40ad02f719" y="283.2"/>
      </g>
     </g>
    </g>
    <g id="xtick_22">
     <g id="line2d_25">
      <g>
       <use style="stroke:#000000;stroke-width:0.6;" x="310.463332" xlink:href="#m40ad02f719" y="283.2"/>
      </g>
     </g>
    </g>
    <g id="xtick_23">
     <g id="line2d_26">
      <g>
       <use style="stroke:#000000;stroke-width:0.6;" x="321.146086" xlink:href="#m40ad02f719" y="283.2"/>
      </g>
     </g>
    </g>
    <g id="xtick_24">
     <g id="line2d_27">
      <g>
       <use style="stroke:#000000;stroke-width:0.6;" x="329.874532" xlink:href="#m40ad02f719" y="283.2"/>
      </g>
     </g>
    </g>
    <g id="xtick_25">
     <g id="line2d_28">
      <g>
       <use style="stroke:#000000;stroke-width:0.6;" x="337.254328" xlink:href="#m40ad02f719" y="283.2"/>
      </g>
     </g>
    </g>
    <g id="xtick_26">
     <g id="line2d_29">
      <g>
       <use style="stroke:#000000;stroke-width:0.6;" x="343.646998" xlink:href="#m40ad02f719" y="283.2"/>
      </g>
     </g>
    </g>
    <g id="xtick_27">
     <g id="line2d_30">
      <g>
       <use style="stroke:#000000;stroke-width:0.6;" x="349.285732" xlink:href="#m40ad02f719" y="283.2"/>
      </g>
     </g>
    </g>
    <g id="xtick_28">
     <g id="line2d_31">
      <g>
       <use style="stroke:#000000;stroke-width:0.6;" x="387.513418" xlink:href="#m40ad02f719" y="283.2"/>
      </g>
     </g>
    </g>
    <g id="xtick_29">
     <g id="line2d_32">
      <g>
       <use style="stroke:#000000;stroke-width:0.6;" x="406.924618" xlink:href="#m40ad02f719" y="283.2"/>
      </g>
     </g>
    </g>
    <g id="xtick_30">
     <g id="line2d_33">
      <g>
       <use style="stroke:#000000;stroke-width:0.6;" x="420.697084" xlink:href="#m40ad02f719" y="283.2"/>
      </g>
     </g>
    </g>
    <g id="xtick_31">
     <g id="line2d_34">
      <g>
       <use style="stroke:#000000;stroke-width:0.6;" x="431.379838" xlink:href="#m40ad02f719" y="283.2"/>
      </g>
     </g>
    </g>
    <g id="xtick_32">
     <g id="line2d_35">
      <g>
       <use style="stroke:#000000;stroke-width:0.6;" x="440.108284" xlink:href="#m40ad02f719" y="283.2"/>
      </g>
     </g>
    </g>
    <g id="xtick_33">
     <g id="line2d_36">
      <g>
       <use style="stroke:#000000;stroke-width:0.6;" x="447.48808" xlink:href="#m40ad02f719" y="283.2"/>
      </g>
     </g>
    </g>
    <g id="text_4">
     <!-- log10 of FEvals ratio -->
     <g transform="translate(141.791313 328.753125)scale(0.2 -0.2)">
      <defs>
       <path d="M 603 4863 
L 1178 4863 
L 1178 0 
L 603 0 
L 603 4863 
z
" id="DejaVuSans-6c" transform="scale(0.015625)"/>
       <path d="M 1959 3097 
Q 1497 3097 1228 2736 
Q 959 2375 959 1747 
Q 959 1119 1226 758 
Q 1494 397 1959 397 
Q 2419 397 2687 759 
Q 2956 1122 2956 1747 
Q 2956 2369 2687 2733 
Q 2419 3097 1959 3097 
z
M 1959 3584 
Q 2709 3584 3137 3096 
Q 3566 2609 3566 1747 
Q 3566 888 3137 398 
Q 2709 -91 1959 -91 
Q 1206 -91 779 398 
Q 353 888 353 1747 
Q 353 2609 779 3096 
Q 1206 3584 1959 3584 
z
" id="DejaVuSans-6f" transform="scale(0.015625)"/>
       <path d="M 2906 1791 
Q 2906 2416 2648 2759 
Q 2391 3103 1925 3103 
Q 1463 3103 1205 2759 
Q 947 2416 947 1791 
Q 947 1169 1205 825 
Q 1463 481 1925 481 
Q 2391 481 2648 825 
Q 2906 1169 2906 1791 
z
M 3481 434 
Q 3481 -459 3084 -895 
Q 2688 -1331 1869 -1331 
Q 1566 -1331 1297 -1286 
Q 1028 -1241 775 -1147 
L 775 -588 
Q 1028 -725 1275 -790 
Q 1522 -856 1778 -856 
Q 2344 -856 2625 -561 
Q 2906 -266 2906 331 
L 2906 616 
Q 2728 306 2450 153 
Q 2172 0 1784 0 
Q 1141 0 747 490 
Q 353 981 353 1791 
Q 353 2603 747 3093 
Q 1141 3584 1784 3584 
Q 2172 3584 2450 3431 
Q 2728 3278 2906 2969 
L 2906 3500 
L 3481 3500 
L 3481 434 
z
" id="DejaVuSans-67" transform="scale(0.015625)"/>
       <path id="DejaVuSans-20" transform="scale(0.015625)"/>
       <path d="M 2375 4863 
L 2375 4384 
L 1825 4384 
Q 1516 4384 1395 4259 
Q 1275 4134 1275 3809 
L 1275 3500 
L 2222 3500 
L 2222 3053 
L 1275 3053 
L 1275 0 
L 697 0 
L 697 3053 
L 147 3053 
L 147 3500 
L 697 3500 
L 697 3744 
Q 697 4328 969 4595 
Q 1241 4863 1831 4863 
L 2375 4863 
z
" id="DejaVuSans-66" transform="scale(0.015625)"/>
       <path d="M 628 4666 
L 3309 4666 
L 3309 4134 
L 1259 4134 
L 1259 2759 
L 3109 2759 
L 3109 2228 
L 1259 2228 
L 1259 0 
L 628 0 
L 628 4666 
z
" id="DejaVuSans-46" transform="scale(0.015625)"/>
       <path d="M 628 4666 
L 3578 4666 
L 3578 4134 
L 1259 4134 
L 1259 2753 
L 3481 2753 
L 3481 2222 
L 1259 2222 
L 1259 531 
L 3634 531 
L 3634 0 
L 628 0 
L 628 4666 
z
" id="DejaVuSans-45" transform="scale(0.015625)"/>
       <path d="M 191 3500 
L 800 3500 
L 1894 563 
L 2988 3500 
L 3597 3500 
L 2284 0 
L 1503 0 
L 191 3500 
z
" id="DejaVuSans-76" transform="scale(0.015625)"/>
       <path d="M 2194 1759 
Q 1497 1759 1228 1600 
Q 959 1441 959 1056 
Q 959 750 1161 570 
Q 1363 391 1709 391 
Q 2188 391 2477 730 
Q 2766 1069 2766 1631 
L 2766 1759 
L 2194 1759 
z
M 3341 1997 
L 3341 0 
L 2766 0 
L 2766 531 
Q 2569 213 2275 61 
Q 1981 -91 1556 -91 
Q 1019 -91 701 211 
Q 384 513 384 1019 
Q 384 1609 779 1909 
Q 1175 2209 1959 2209 
L 2766 2209 
L 2766 2266 
Q 2766 2663 2505 2880 
Q 2244 3097 1772 3097 
Q 1472 3097 1187 3025 
Q 903 2953 641 2809 
L 641 3341 
Q 956 3463 1253 3523 
Q 1550 3584 1831 3584 
Q 2591 3584 2966 3190 
Q 3341 2797 3341 1997 
z
" id="DejaVuSans-61" transform="scale(0.015625)"/>
       <path d="M 2834 3397 
L 2834 2853 
Q 2591 2978 2328 3040 
Q 2066 3103 1784 3103 
Q 1356 3103 1142 2972 
Q 928 2841 928 2578 
Q 928 2378 1081 2264 
Q 1234 2150 1697 2047 
L 1894 2003 
Q 2506 1872 2764 1633 
Q 3022 1394 3022 966 
Q 3022 478 2636 193 
Q 2250 -91 1575 -91 
Q 1294 -91 989 -36 
Q 684 19 347 128 
L 347 722 
Q 666 556 975 473 
Q 1284 391 1588 391 
Q 1994 391 2212 530 
Q 2431 669 2431 922 
Q 2431 1156 2273 1281 
Q 2116 1406 1581 1522 
L 1381 1569 
Q 847 1681 609 1914 
Q 372 2147 372 2553 
Q 372 3047 722 3315 
Q 1072 3584 1716 3584 
Q 2034 3584 2315 3537 
Q 2597 3491 2834 3397 
z
" id="DejaVuSans-73" transform="scale(0.015625)"/>
       <path d="M 2631 2963 
Q 2534 3019 2420 3045 
Q 2306 3072 2169 3072 
Q 1681 3072 1420 2755 
Q 1159 2438 1159 1844 
L 1159 0 
L 581 0 
L 581 3500 
L 1159 3500 
L 1159 2956 
Q 1341 3275 1631 3429 
Q 1922 3584 2338 3584 
Q 2397 3584 2469 3576 
Q 2541 3569 2628 3553 
L 2631 2963 
z
" id="DejaVuSans-72" transform="scale(0.015625)"/>
       <path d="M 1172 4494 
L 1172 3500 
L 2356 3500 
L 2356 3053 
L 1172 3053 
L 1172 1153 
Q 1172 725 1289 603 
Q 1406 481 1766 481 
L 2356 481 
L 2356 0 
L 1766 0 
Q 1100 0 847 248 
Q 594 497 594 1153 
L 594 3053 
L 172 3053 
L 172 3500 
L 594 3500 
L 594 4494 
L 1172 4494 
z
" id="DejaVuSans-74" transform="scale(0.015625)"/>
       <path d="M 603 3500 
L 1178 3500 
L 1178 0 
L 603 0 
L 603 3500 
z
M 603 4863 
L 1178 4863 
L 1178 4134 
L 603 4134 
L 603 4863 
z
" id="DejaVuSans-69" transform="scale(0.015625)"/>
      </defs>
      <use xlink:href="#DejaVuSans-6c"/>
      <use x="27.783203" xlink:href="#DejaVuSans-6f"/>
      <use x="88.964844" xlink:href="#DejaVuSans-67"/>
      <use x="152.441406" xlink:href="#DejaVuSans-31"/>
      <use x="216.064453" xlink:href="#DejaVuSans-30"/>
      <use x="279.6875" xlink:href="#DejaVuSans-20"/>
      <use x="311.474609" xlink:href="#DejaVuSans-6f"/>
      <use x="372.65625" xlink:href="#DejaVuSans-66"/>
      <use x="407.861328" xlink:href="#DejaVuSans-20"/>
      <use x="439.648438" xlink:href="#DejaVuSans-46"/>
      <use x="497.167969" xlink:href="#DejaVuSans-45"/>
      <use x="560.351562" xlink:href="#DejaVuSans-76"/>
      <use x="619.53125" xlink:href="#DejaVuSans-61"/>
      <use x="680.810547" xlink:href="#DejaVuSans-6c"/>
      <use x="708.59375" xlink:href="#DejaVuSans-73"/>
      <use x="760.693359" xlink:href="#DejaVuSans-20"/>
      <use x="792.480469" xlink:href="#DejaVuSans-72"/>
      <use x="833.59375" xlink:href="#DejaVuSans-61"/>
      <use x="894.873047" xlink:href="#DejaVuSans-74"/>
      <use x="934.082031" xlink:href="#DejaVuSans-69"/>
      <use x="961.865234" xlink:href="#DejaVuSans-6f"/>
     </g>
    </g>
   </g>
   <g id="matplotlib.axis_2">
    <g id="ytick_1">
     <g id="line2d_37">
      <path clip-path="url(#p5972609ffe)" d="M 35.2 280.458824 
L 452.992 280.458824 
" style="fill:none;stroke:#b0b0b0;stroke-linecap:square;stroke-width:0.8;"/>
     </g>
     <g id="line2d_38">
      <defs>
       <path d="M 0 0 
L -3.5 0 
" id="mb4191bc1fa" style="stroke:#000000;stroke-width:0.8;"/>
      </defs>
      <g>
       <use style="stroke:#000000;stroke-width:0.8;" x="35.2" xlink:href="#mb4191bc1fa" y="280.458824"/>
      </g>
     </g>
    </g>
    <g id="ytick_2">
     <g id="line2d_39">
      <path clip-path="url(#p5972609ffe)" d="M 35.2 211.929412 
L 452.992 211.929412 
" style="fill:none;stroke:#b0b0b0;stroke-linecap:square;stroke-width:0.8;"/>
     </g>
     <g id="line2d_40">
      <g>
       <use style="stroke:#000000;stroke-width:0.8;" x="35.2" xlink:href="#mb4191bc1fa" y="211.929412"/>
      </g>
     </g>
    </g>
    <g id="ytick_3">
     <g id="line2d_41">
      <path clip-path="url(#p5972609ffe)" d="M 35.2 143.4 
L 452.992 143.4 
" style="fill:none;stroke:#b0b0b0;stroke-linecap:square;stroke-width:0.8;"/>
     </g>
     <g id="line2d_42">
      <g>
       <use style="stroke:#000000;stroke-width:0.8;" x="35.2" xlink:href="#mb4191bc1fa" y="143.4"/>
      </g>
     </g>
    </g>
    <g id="ytick_4">
     <g id="line2d_43">
      <path clip-path="url(#p5972609ffe)" d="M 35.2 74.870588 
L 452.992 74.870588 
" style="fill:none;stroke:#b0b0b0;stroke-linecap:square;stroke-width:0.8;"/>
     </g>
     <g id="line2d_44">
      <g>
       <use style="stroke:#000000;stroke-width:0.8;" x="35.2" xlink:href="#mb4191bc1fa" y="74.870588"/>
      </g>
     </g>
    </g>
    <g id="ytick_5">
     <g id="line2d_45">
      <path clip-path="url(#p5972609ffe)" d="M 35.2 6.341176 
L 452.992 6.341176 
" style="fill:none;stroke:#b0b0b0;stroke-linecap:square;stroke-width:0.8;"/>
     </g>
     <g id="line2d_46">
      <g>
       <use style="stroke:#000000;stroke-width:0.8;" x="35.2" xlink:href="#mb4191bc1fa" y="6.341176"/>
      </g>
     </g>
    </g>
    <g id="text_5">
     <!-- proportion of trials -->
     <g transform="translate(20.040625 236.40625)rotate(-90)scale(0.2 -0.2)">
      <defs>
       <path d="M 1159 525 
L 1159 -1331 
L 581 -1331 
L 581 3500 
L 1159 3500 
L 1159 2969 
Q 1341 3281 1617 3432 
Q 1894 3584 2278 3584 
Q 2916 3584 3314 3078 
Q 3713 2572 3713 1747 
Q 3713 922 3314 415 
Q 2916 -91 2278 -91 
Q 1894 -91 1617 61 
Q 1341 213 1159 525 
z
M 3116 1747 
Q 3116 2381 2855 2742 
Q 2594 3103 2138 3103 
Q 1681 3103 1420 2742 
Q 1159 2381 1159 1747 
Q 1159 1113 1420 752 
Q 1681 391 2138 391 
Q 2594 391 2855 752 
Q 3116 1113 3116 1747 
z
" id="DejaVuSans-70" transform="scale(0.015625)"/>
       <path d="M 3513 2113 
L 3513 0 
L 2938 0 
L 2938 2094 
Q 2938 2591 2744 2837 
Q 2550 3084 2163 3084 
Q 1697 3084 1428 2787 
Q 1159 2491 1159 1978 
L 1159 0 
L 581 0 
L 581 3500 
L 1159 3500 
L 1159 2956 
Q 1366 3272 1645 3428 
Q 1925 3584 2291 3584 
Q 2894 3584 3203 3211 
Q 3513 2838 3513 2113 
z
" id="DejaVuSans-6e" transform="scale(0.015625)"/>
      </defs>
      <use xlink:href="#DejaVuSans-70"/>
      <use x="63.476562" xlink:href="#DejaVuSans-72"/>
      <use x="102.339844" xlink:href="#DejaVuSans-6f"/>
      <use x="163.521484" xlink:href="#DejaVuSans-70"/>
      <use x="226.998047" xlink:href="#DejaVuSans-6f"/>
      <use x="288.179688" xlink:href="#DejaVuSans-72"/>
      <use x="329.292969" xlink:href="#DejaVuSans-74"/>
      <use x="368.501953" xlink:href="#DejaVuSans-69"/>
      <use x="396.285156" xlink:href="#DejaVuSans-6f"/>
      <use x="457.466797" xlink:href="#DejaVuSans-6e"/>
      <use x="520.845703" xlink:href="#DejaVuSans-20"/>
      <use x="552.632812" xlink:href="#DejaVuSans-6f"/>
      <use x="613.814453" xlink:href="#DejaVuSans-66"/>
      <use x="649.019531" xlink:href="#DejaVuSans-20"/>
      <use x="680.806641" xlink:href="#DejaVuSans-74"/>
      <use x="720.015625" xlink:href="#DejaVuSans-72"/>
      <use x="761.128906" xlink:href="#DejaVuSans-69"/>
      <use x="788.912109" xlink:href="#DejaVuSans-61"/>
      <use x="850.191406" xlink:href="#DejaVuSans-6c"/>
      <use x="877.974609" xlink:href="#DejaVuSans-73"/>
     </g>
    </g>
   </g>
   <g id="line2d_47">
    <path clip-path="url(#p5972609ffe)" d="M 35.2 263.326471 
L 54.054306 263.326471 
L 54.054306 263.009205 
L 57.524949 263.009205 
L 57.524949 262.691939 
L 62.652591 262.691939 
L 62.652591 262.374673 
L 66.82652 262.374673 
L 66.82652 262.057407 
L 88.226749 262.057407 
L 88.226749 261.740142 
L 91.697393 261.740142 
L 91.697393 261.422876 
L 93.296215 261.422876 
L 93.296215 261.10561 
L 94.617767 261.10561 
L 94.617767 260.788344 
L 95.479134 260.788344 
L 95.479134 260.471078 
L 96.766858 260.471078 
L 96.825035 259.836547 
L 96.926989 259.836547 
L 96.926989 259.519281 
L 98.949778 259.519281 
L 98.949778 259.202015 
L 100.397633 259.202015 
L 100.397633 258.884749 
L 100.998964 258.884749 
L 100.998964 258.567484 
L 101.894501 258.567484 
L 101.894501 258.250218 
L 104.07742 258.250218 
L 104.07742 257.932952 
L 104.218532 257.932952 
L 104.218532 257.615686 
L 105.506285 257.615686 
L 105.525275 256.981155 
L 105.644973 256.981155 
L 105.644973 256.663889 
L 106.06843 256.663889 
L 106.06843 256.346623 
L 106.671812 256.346623 
L 106.671812 256.029357 
L 106.932725 256.029357 
L 106.932725 255.712092 
L 108.098252 255.712092 
L 108.098252 255.394826 
L 108.251349 255.394826 
L 108.251349 255.07756 
L 108.53924 255.07756 
L 108.53924 254.760294 
L 108.836462 254.760294 
L 108.836462 254.443028 
L 109.699204 254.443028 
L 109.699204 254.125763 
L 109.96568 254.125763 
L 109.96568 253.808497 
L 110.262903 253.808497 
L 110.29551 253.173965 
L 111.721951 253.173965 
L 111.721951 252.856699 
L 115.170895 252.856699 
L 115.170895 252.539434 
L 116.59571 252.539434 
L 116.597335 251.904902 
L 118.02215 251.904902 
L 118.02215 251.587636 
L 119.83143 251.587636 
L 119.83143 251.27037 
L 121.25787 251.27037 
L 121.25787 250.953105 
L 122.481773 250.953105 
L 122.481773 250.635839 
L 123.908213 250.635839 
L 124.016626 250.001307 
L 124.993055 250.001307 
L 124.993055 249.684041 
L 125.443066 249.684041 
L 125.443066 249.366776 
L 126.419496 249.366776 
L 126.419496 249.04951 
L 128.790211 249.04951 
L 128.790211 248.732244 
L 133.859677 248.732244 
L 133.859677 248.414978 
L 136.042596 248.414978 
L 136.042596 248.097712 
L 137.490451 248.097712 
L 137.490451 247.780447 
L 148.613439 247.780447 
L 148.613439 247.463181 
L 150.039879 247.463181 
L 150.039879 247.145915 
L 173.396815 247.145915 
L 173.396815 246.828649 
L 176.052072 246.828649 
L 176.052072 246.511383 
L 181.137953 246.511383 
L 181.137953 246.194118 
L 187.047247 246.194118 
L 187.047247 245.876852 
L 189.702503 245.876852 
L 189.702503 245.559586 
L 190.218434 245.559586 
L 190.218434 245.24232 
L 191.048269 245.24232 
L 191.048269 244.925054 
L 193.968664 244.925054 
L 193.968664 244.607789 
L 194.788385 244.607789 
L 194.788385 244.290523 
L 195.395104 244.290523 
L 195.395104 243.973257 
L 196.467156 243.973257 
L 196.467156 243.655991 
L 196.715183 243.655991 
L 196.715183 243.338725 
L 197.519191 243.338725 
L 197.519191 243.02146 
L 197.684224 243.02146 
L 197.684224 242.704194 
L 198.644956 242.704194 
L 198.644956 242.386928 
L 198.788932 242.386928 
L 198.788932 242.069662 
L 199.122413 242.069662 
L 199.122413 241.752397 
L 199.838914 241.752397 
L 199.838914 241.435131 
L 200.947946 241.435131 
L 200.947946 241.117865 
L 201.300212 241.117865 
L 201.354219 240.483333 
L 202.159869 240.483333 
L 202.159869 240.166068 
L 202.565356 240.166068 
L 202.565356 239.848802 
L 203.046505 239.848802 
L 203.046505 239.531536 
L 203.686003 239.531536 
L 203.686003 239.21427 
L 203.868866 239.21427 
L 203.938192 238.579739 
L 204.208294 238.579739 
L 204.208294 238.262473 
L 204.451331 238.262473 
L 204.451331 237.945207 
L 204.698701 237.945207 
L 204.698701 237.627941 
L 204.956819 237.627941 
L 204.956819 237.310675 
L 205.220612 237.310675 
L 205.220612 236.99341 
L 205.869069 236.99341 
L 205.869069 236.676144 
L 206.386094 236.676144 
L 206.447001 236.041612 
L 206.517148 236.041612 
L 206.517148 235.724346 
L 207.06716 235.724346 
L 207.06716 235.407081 
L 207.556141 235.407081 
L 207.556141 235.089815 
L 209.096992 235.089815 
L 209.096992 234.772549 
L 209.224238 234.772549 
L 209.224238 234.455283 
L 210.050253 234.455283 
L 210.138597 233.820752 
L 210.306494 233.820752 
L 210.365614 233.18622 
L 210.778895 233.18622 
L 210.778895 232.868954 
L 211.169622 232.868954 
L 211.169622 232.551688 
L 211.64479 232.551688 
L 211.752249 231.917157 
L 211.767798 231.917157 
L 211.767798 231.599891 
L 212.439364 231.599891 
L 212.439364 231.282625 
L 212.661347 231.282625 
L 212.661347 230.965359 
L 213.288775 230.965359 
L 213.288775 230.648094 
L 213.520897 230.648094 
L 213.520897 230.330828 
L 214.11861 230.330828 
L 214.11861 230.013562 
L 215.004651 230.013562 
L 215.004651 229.696296 
L 215.316604 229.696296 
L 215.316604 229.379031 
L 215.466575 229.379031 
L 215.466575 229.061765 
L 215.658286 229.061765 
L 215.658286 228.744499 
L 215.818719 228.744499 
L 215.920111 228.109967 
L 216.29641 228.109967 
L 216.29641 227.792702 
L 216.83813 227.792702 
L 216.83813 227.475436 
L 217.084727 227.475436 
L 217.084727 227.15817 
L 217.207864 227.15817 
L 217.207864 226.840904 
L 217.336434 226.840904 
L 217.336434 226.523638 
L 217.588624 226.523638 
L 217.588624 226.206373 
L 218.171858 226.206373 
L 218.171858 225.889107 
L 218.373391 225.889107 
L 218.373391 225.571841 
L 218.648539 225.571841 
L 218.648539 225.254575 
L 219.020793 225.254575 
L 219.020793 224.937309 
L 219.246459 224.937309 
L 219.246459 224.620044 
L 219.386975 224.620044 
L 219.459611 223.985512 
L 219.785524 223.985512 
L 219.785524 223.668246 
L 220.185201 223.668246 
L 220.240819 222.716449 
L 220.402485 222.716449 
L 220.402485 222.399183 
L 220.538041 222.399183 
L 220.63245 221.13012 
L 220.991487 221.13012 
L 221.085916 220.178322 
L 221.389793 220.178322 
L 221.389793 219.861057 
L 221.776064 219.861057 
L 221.859273 219.226525 
L 221.963323 219.226525 
L 221.997089 218.591993 
L 222.077449 218.591993 
L 222.077449 218.274728 
L 222.276044 218.274728 
L 222.276044 217.957462 
L 222.492566 217.957462 
L 222.492566 217.640196 
L 222.717102 217.640196 
L 222.822468 216.371133 
L 223.063817 216.371133 
L 223.063817 216.053867 
L 223.287707 216.053867 
L 223.305053 215.419336 
L 223.789029 215.419336 
L 223.789029 215.10207 
L 224.037073 215.10207 
L 224.04505 214.467538 
L 224.229344 214.467538 
L 224.264141 213.515741 
L 224.42456 213.515741 
L 224.46213 212.881209 
L 224.931301 212.881209 
L 224.931301 212.563943 
L 225.548092 212.563943 
L 225.548092 212.246678 
L 225.883723 212.246678 
L 225.918611 211.612146 
L 226.096772 211.612146 
L 226.096772 211.29488 
L 226.393994 211.29488 
L 226.393994 210.977614 
L 226.60236 210.977614 
L 226.687731 210.025817 
L 226.748446 210.025817 
L 226.775696 209.07402 
L 226.872474 209.07402 
L 226.872474 208.756754 
L 227.008533 208.756754 
L 227.008533 208.439488 
L 227.319847 208.439488 
L 227.319847 208.122222 
L 227.782511 208.122222 
L 227.853042 207.170425 
L 227.922976 207.170425 
L 227.957473 206.535893 
L 228.214344 206.535893 
L 228.307333 205.584096 
L 228.373588 205.584096 
L 228.383626 204.949564 
L 228.6076 204.949564 
L 228.698727 204.315033 
L 228.934144 204.315033 
L 228.934144 203.997767 
L 229.088504 203.997767 
L 229.186333 202.728704 
L 229.482966 202.728704 
L 229.589772 202.094172 
L 229.773127 202.094172 
L 229.773127 201.776906 
L 230.017182 201.776906 
L 230.017182 201.459641 
L 230.312801 201.459641 
L 230.312801 201.142375 
L 230.52276 201.142375 
L 230.549036 200.507843 
L 230.675735 200.507843 
L 230.721413 199.873312 
L 230.869601 199.873312 
L 230.96259 198.921514 
L 231.253154 198.921514 
L 231.288814 197.969717 
L 231.431722 197.969717 
L 231.533009 197.335185 
L 231.640555 197.335185 
L 231.640555 197.017919 
L 231.785447 197.017919 
L 231.856668 196.066122 
L 231.903338 196.066122 
L 232.009166 195.114325 
L 232.018673 195.114325 
L 232.018673 194.797059 
L 232.41536 194.797059 
L 232.41536 194.479793 
L 232.576567 194.479793 
L 232.671225 193.845261 
L 232.712202 193.845261 
L 232.728427 192.893464 
L 232.854543 192.893464 
L 232.854543 192.576198 
L 233.02198 192.576198 
L 233.106733 191.941667 
L 233.174693 191.941667 
L 233.219368 190.989869 
L 233.396825 190.989869 
L 233.396825 190.672603 
L 233.742094 190.672603 
L 233.784756 189.720806 
L 233.885001 189.720806 
L 233.885001 189.40354 
L 234.011358 189.40354 
L 234.011358 189.086275 
L 234.153242 189.086275 
L 234.183352 188.451743 
L 234.489109 188.451743 
L 234.489109 188.134477 
L 234.736347 188.134477 
L 234.736347 187.817211 
L 234.849664 187.817211 
L 234.849664 187.499946 
L 235.042121 187.499946 
L 235.12039 186.865414 
L 235.25609 186.865414 
L 235.339343 186.230882 
L 235.386738 186.230882 
L 235.386738 185.913617 
L 235.609522 185.913617 
L 235.718205 184.961819 
L 235.752429 184.961819 
L 235.752429 184.644553 
L 235.890942 184.644553 
L 235.979715 183.37549 
L 236.048471 183.37549 
L 236.077267 182.423693 
L 236.332313 182.423693 
L 236.435099 181.471895 
L 236.694634 181.471895 
L 236.798391 180.520098 
L 236.926134 180.520098 
L 236.981912 179.568301 
L 237.054397 179.568301 
L 237.054397 179.251035 
L 237.178695 179.251035 
L 237.178695 178.933769 
L 237.365792 178.933769 
L 237.454069 177.981972 
L 237.5087 177.981972 
L 237.587586 177.34744 
L 237.914573 177.34744 
L 237.969952 176.712908 
L 238.053464 176.712908 
L 238.053464 176.395643 
L 238.211412 176.395643 
L 238.283904 175.12658 
L 238.344222 175.12658 
L 238.344222 174.809314 
L 238.623775 174.809314 
L 238.623775 174.492048 
L 238.946381 174.492048 
L 239.041247 173.540251 
L 239.080823 173.540251 
L 239.129263 172.271187 
L 239.307138 172.271187 
L 239.416515 171.31939 
L 239.471166 171.31939 
L 239.471166 171.002124 
L 239.599628 171.002124 
L 239.697025 170.050327 
L 239.740825 170.050327 
L 239.740825 169.733061 
L 239.927498 169.733061 
L 239.927498 169.415795 
L 240.039305 169.415795 
L 240.041513 168.781264 
L 240.189856 168.781264 
L 240.21165 168.146732 
L 240.383732 168.146732 
L 240.383732 167.829466 
L 240.508872 167.829466 
L 240.619444 166.243137 
L 240.763118 166.243137 
L 240.763118 165.925871 
L 241.155841 165.925871 
L 241.263743 164.974074 
L 241.267725 164.974074 
L 241.283943 164.339542 
L 241.401779 164.339542 
L 241.401779 164.022277 
L 241.574158 164.022277 
L 241.673776 163.070479 
L 241.96792 163.070479 
L 241.96792 162.753214 
L 242.091134 162.753214 
L 242.091134 162.435948 
L 242.241177 162.435948 
L 242.248121 161.801416 
L 242.372775 161.801416 
L 242.384084 161.166885 
L 242.550588 161.166885 
L 242.550588 160.849619 
L 242.711598 160.849619 
L 242.822382 160.215087 
L 242.932745 160.215087 
L 243.040214 159.26329 
L 243.098591 159.26329 
L 243.202725 158.628758 
L 243.211468 158.628758 
L 243.264193 157.994227 
L 243.584698 157.994227 
L 243.69324 156.725163 
L 243.736282 156.725163 
L 243.82063 155.4561 
L 243.909901 155.4561 
L 243.950817 154.821569 
L 244.156257 154.821569 
L 244.198728 154.187037 
L 244.268934 154.187037 
L 244.268934 153.869771 
L 244.551945 153.869771 
L 244.557661 153.23524 
L 244.708161 153.23524 
L 244.799371 152.283442 
L 244.898464 152.283442 
L 244.898464 151.966176 
L 245.032553 151.966176 
L 245.128952 150.697113 
L 245.197653 150.697113 
L 245.197653 150.379847 
L 245.404379 150.379847 
L 245.512169 149.42805 
L 245.583088 149.42805 
L 245.68891 148.476253 
L 245.717473 148.476253 
L 245.717473 148.158987 
L 245.838775 148.158987 
L 245.87616 147.20719 
L 245.958787 147.20719 
L 246.024567 146.572658 
L 246.30907 146.572658 
L 246.39842 144.669063 
L 246.433317 144.669063 
L 246.433317 144.351797 
L 246.78191 144.351797 
L 246.843305 143.717266 
L 246.901712 143.717266 
L 246.959036 143.082734 
L 247.032381 143.082734 
L 247.117941 142.130937 
L 247.293898 142.130937 
L 247.334482 141.179139 
L 247.409747 141.179139 
L 247.409747 140.861874 
L 247.584901 140.861874 
L 247.668161 140.227342 
L 247.829503 140.227342 
L 247.915598 138.641013 
L 247.947939 138.641013 
L 247.947939 138.323747 
L 248.09437 138.323747 
L 248.189334 137.689216 
L 248.230609 137.689216 
L 248.339111 136.737418 
L 248.491989 136.737418 
L 248.589854 135.785621 
L 248.741753 135.785621 
L 248.794247 135.151089 
L 248.984654 135.151089 
L 248.984654 134.833824 
L 249.319684 134.833824 
L 249.40313 133.247495 
L 249.512282 133.247495 
L 249.552055 132.612963 
L 249.687638 132.612963 
L 249.694962 131.978431 
L 249.843599 131.978431 
L 249.939844 131.3439 
L 249.986879 131.3439 
L 250.081999 130.709368 
L 250.233449 130.709368 
L 250.254456 130.074837 
L 250.497495 130.074837 
L 250.519507 129.440305 
L 250.613715 129.440305 
L 250.673434 128.805773 
L 250.921638 128.805773 
L 250.921638 128.488508 
L 251.086908 128.488508 
L 251.173827 127.853976 
L 251.229815 127.853976 
L 251.247526 127.219444 
L 251.495936 127.219444 
L 251.548431 125.950381 
L 251.625701 125.950381 
L 251.678981 125.31585 
L 251.931171 125.31585 
L 251.931171 124.998584 
L 252.063337 124.998584 
L 252.063337 124.681318 
L 252.206245 124.681318 
L 252.228688 124.046786 
L 252.33672 124.046786 
L 252.429709 123.412255 
L 252.51304 123.412255 
L 252.576133 122.460458 
L 252.817422 122.460458 
L 252.817422 122.143192 
L 253.064099 122.143192 
L 253.114954 121.50866 
L 253.216528 121.50866 
L 253.216528 121.191394 
L 253.412177 121.191394 
L 253.432682 120.556863 
L 253.606461 120.556863 
L 253.69945 119.922331 
L 254.154183 119.922331 
L 254.216555 119.2878 
L 254.720971 119.2878 
L 254.773519 118.336002 
L 254.862263 118.336002 
L 254.871225 117.701471 
L 255.226476 117.701471 
L 255.226476 117.384205 
L 255.583377 117.384205 
L 255.689036 116.432407 
L 255.760088 116.432407 
L 255.760088 116.115142 
L 256.171749 116.115142 
L 256.264738 115.48061 
L 256.287079 115.48061 
L 256.365342 114.528813 
L 256.665465 114.528813 
L 256.761329 113.894281 
L 256.786093 113.894281 
L 256.786093 113.577015 
L 257.144356 113.577015 
L 257.200753 112.942484 
L 257.374232 112.942484 
L 257.374232 112.625218 
L 257.737759 112.625218 
L 257.737759 112.307952 
L 258.131576 112.307952 
L 258.131576 111.990686 
L 258.285326 111.990686 
L 258.285326 111.67342 
L 258.414097 111.67342 
L 258.503532 111.038889 
L 258.596521 111.038889 
L 258.596521 110.721623 
L 258.755722 110.721623 
L 258.848711 110.087092 
L 258.877091 110.087092 
L 258.877091 109.769826 
L 259.017827 109.769826 
L 259.017827 109.45256 
L 259.522799 109.45256 
L 259.522799 109.135294 
L 259.746609 109.135294 
L 259.80992 108.500763 
L 259.964318 108.500763 
L 259.964318 108.183497 
L 260.315018 108.183497 
L 260.350448 107.548965 
L 260.742214 107.548965 
L 260.742214 107.231699 
L 260.979384 107.231699 
L 260.979384 106.914434 
L 261.171424 106.914434 
L 261.171424 106.597168 
L 261.527434 106.597168 
L 261.554949 105.962636 
L 262.173142 105.962636 
L 262.173142 105.64537 
L 262.566765 105.64537 
L 262.640911 105.010839 
L 263.062286 105.010839 
L 263.062286 104.693573 
L 263.311168 104.693573 
L 263.311168 104.376307 
L 263.528673 104.376307 
L 263.563357 103.741776 
L 263.707994 103.741776 
L 263.707994 103.42451 
L 263.854 103.42451 
L 263.868514 102.789978 
L 264.038716 102.789978 
L 264.038716 102.472712 
L 264.177492 102.472712 
L 264.177492 102.155447 
L 264.407144 102.155447 
L 264.407144 101.838181 
L 264.663858 101.838181 
L 264.684424 100.886383 
L 264.878868 100.886383 
L 264.956127 100.251852 
L 265.012903 100.251852 
L 265.049116 99.61732 
L 265.493693 99.61732 
L 265.493693 99.300054 
L 266.170971 99.300054 
L 266.256428 98.665523 
L 267.013772 98.665523 
L 267.057487 98.030991 
L 267.900023 98.030991 
L 267.900023 97.713725 
L 268.321551 97.713725 
L 268.345973 97.079194 
L 268.59234 97.079194 
L 268.59234 96.761928 
L 268.947088 96.761928 
L 268.947088 96.444662 
L 269.078894 96.444662 
L 269.078894 96.127397 
L 269.248441 96.127397 
L 269.248441 95.810131 
L 269.56877 95.810131 
L 269.56877 95.492865 
L 269.763762 95.492865 
L 269.763762 95.175599 
L 269.965145 95.175599 
L 269.965145 94.858333 
L 270.350748 94.858333 
L 270.350748 94.541068 
L 270.916538 94.541068 
L 270.916538 94.223802 
L 271.030131 94.223802 
L 271.030131 93.906536 
L 271.154757 93.906536 
L 271.160606 93.272004 
L 271.499776 93.272004 
L 271.514653 92.637473 
L 271.714754 92.637473 
L 271.714754 92.320207 
L 271.964614 92.320207 
L 271.964614 92.002941 
L 272.257119 92.002941 
L 272.348908 91.36841 
L 272.424498 91.36841 
L 272.471195 90.733878 
L 272.691018 90.733878 
L 272.691018 90.416612 
L 273.14337 90.416612 
L 273.234356 89.782081 
L 273.293805 89.782081 
L 273.293805 89.464815 
L 273.460098 89.464815 
L 273.460098 89.147549 
L 273.838323 89.147549 
L 273.931312 88.513017 
L 274.961902 88.513017 
L 274.989785 87.878486 
L 275.11632 87.878486 
L 275.11632 87.56122 
L 275.651307 87.56122 
L 275.683721 86.926688 
L 275.799643 86.926688 
L 275.903445 85.974891 
L 275.996434 85.974891 
L 275.996434 85.657625 
L 276.516559 85.657625 
L 276.516559 85.340359 
L 276.842858 85.340359 
L 276.842858 85.023094 
L 277.321569 85.023094 
L 277.321569 84.705828 
L 277.505462 84.705828 
L 277.573758 84.071296 
L 278.131426 84.071296 
L 278.131426 83.754031 
L 278.383616 83.754031 
L 278.383616 83.436765 
L 278.645958 83.436765 
L 278.645958 83.119499 
L 279.08167 83.119499 
L 279.174659 82.484967 
L 279.626343 82.484967 
L 279.626343 82.167702 
L 280.285849 82.167702 
L 280.304287 81.53317 
L 280.71108 81.53317 
L 280.71108 81.215904 
L 280.979512 81.215904 
L 280.979512 80.898638 
L 281.358142 80.898638 
L 281.358142 80.581373 
L 281.877501 80.581373 
L 281.877501 80.264107 
L 282.712912 80.264107 
L 282.712912 79.946841 
L 283.463457 79.946841 
L 283.463457 79.629575 
L 283.774163 79.629575 
L 283.774163 79.312309 
L 283.889306 79.312309 
L 283.889306 78.995044 
L 284.584021 78.995044 
L 284.584021 78.677778 
L 284.695809 78.677778 
L 284.695809 78.360512 
L 285.922865 78.360512 
L 285.922865 78.043246 
L 286.758276 78.043246 
L 286.758276 77.72598 
L 286.878728 77.72598 
L 286.878728 77.408715 
L 287.6591 77.408715 
L 287.6591 77.091449 
L 288.304808 77.091449 
L 288.326583 76.456917 
L 288.791662 76.456917 
L 288.791662 76.139651 
L 290.391028 76.139651 
L 290.391028 75.822386 
L 292.656359 75.822386 
L 292.656359 75.50512 
L 293.189153 75.50512 
L 293.189153 75.187854 
L 293.466217 75.187854 
L 293.466217 74.870588 
L 294.436391 74.870588 
L 294.436391 74.553322 
L 294.721482 74.553322 
L 294.721482 74.236057 
L 295.531339 74.236057 
L 295.531339 73.918791 
L 297.899707 73.918791 
L 297.899707 73.601525 
L 298.709565 73.601525 
L 298.709565 73.284259 
L 301.163466 73.284259 
L 301.163466 72.966993 
L 304.772907 72.966993 
L 304.772907 72.649728 
L 305.20883 72.649728 
L 305.20883 72.332462 
L 305.670243 72.332462 
L 305.670243 72.015196 
L 306.441005 72.015196 
L 306.491672 71.380664 
L 307.92199 71.380664 
L 307.995662 70.746133 
L 308.424186 70.746133 
L 308.424186 70.428867 
L 308.984565 70.428867 
L 308.984565 70.111601 
L 310.092283 70.111601 
L 310.092283 69.794336 
L 310.537035 69.794336 
L 310.537035 69.47707 
L 311.526196 69.47707 
L 311.526196 69.159804 
L 311.64694 69.159804 
L 311.64694 68.842538 
L 312.635843 68.842538 
L 312.635843 68.525272 
L 316.385355 68.525272 
L 316.385355 68.208007 
L 317.069979 68.208007 
L 317.069979 67.890741 
L 317.401968 67.890741 
L 317.401968 67.573475 
L 318.237379 67.573475 
L 318.237379 67.256209 
L 320.471545 67.256209 
L 320.471545 66.938943 
L 321.038946 66.938943 
L 321.053246 66.304412 
L 321.181853 66.304412 
L 321.181853 65.987146 
L 321.888657 65.987146 
L 321.888657 65.66988 
L 325.641074 65.66988 
L 325.641074 65.352614 
L 325.915494 65.352614 
L 325.915494 65.035349 
L 326.713367 65.035349 
L 326.713367 64.718083 
L 327.359866 64.718083 
L 327.359866 64.400817 
L 329.566773 64.400817 
L 329.611613 63.766285 
L 333.014325 63.766285 
L 333.014325 63.44902 
L 333.215819 63.44902 
L 333.215819 63.131754 
L 333.660033 63.131754 
L 333.660033 62.814488 
L 336.687933 62.814488 
L 336.687933 62.497222 
L 338.074978 62.497222 
L 338.074978 62.179956 
L 338.544378 62.179956 
L 338.544378 61.862691 
L 338.759601 61.862691 
L 338.759601 61.545425 
L 340.339211 61.545425 
L 340.339211 61.228159 
L 342.016138 61.228159 
L 342.016138 60.910893 
L 342.161167 60.910893 
L 342.161167 60.593627 
L 342.728569 60.593627 
L 342.728569 60.276362 
L 342.871476 60.276362 
L 342.871476 59.959096 
L 345.667417 59.959096 
L 345.667417 59.64183 
L 346.676423 59.64183 
L 346.676423 59.324564 
L 347.330697 59.324564 
L 347.330697 59.007298 
L 348.40299 59.007298 
L 348.40299 58.690033 
L 348.831113 58.690033 
L 348.831113 58.372767 
L 349.940145 58.372767 
L 349.940145 58.055501 
L 351.152068 58.055501 
L 351.152068 57.738235 
L 353.44353 57.738235 
L 353.44353 57.420969 
L 353.680172 57.420969 
L 353.680172 57.103704 
L 353.949018 57.103704 
L 353.949018 56.786438 
L 354.703947 56.786438 
L 354.703947 56.469172 
L 354.861268 56.469172 
L 354.861268 56.151906 
L 355.349655 56.151906 
L 355.4392 55.517375 
L 355.834862 55.517375 
L 355.834862 55.200109 
L 356.059359 55.200109 
L 356.059359 54.882843 
L 356.943894 54.882843 
L 356.943894 54.565577 
L 358.155817 54.565577 
L 358.155817 54.248312 
L 360.234001 54.248312 
L 360.234001 53.931046 
L 360.447279 53.931046 
L 360.447279 53.61378 
L 360.952767 53.61378 
L 360.952767 53.296514 
L 361.865017 53.296514 
L 361.865017 52.979248 
L 362.442948 52.979248 
L 362.442948 52.661983 
L 362.876377 52.661983 
L 362.876377 52.344717 
L 363.000686 52.344717 
L 363.063108 51.710185 
L 364.621406 51.710185 
L 364.668783 51.075654 
L 365.031067 51.075654 
L 365.031067 50.758388 
L 365.707368 50.758388 
L 365.707368 50.441122 
L 366.140099 50.441122 
L 366.22344 49.80659 
L 366.776095 49.80659 
L 366.776095 49.489325 
L 366.934971 49.489325 
L 366.934971 49.172059 
L 367.212343 49.172059 
L 367.212343 48.854793 
L 367.352022 48.854793 
L 367.352022 48.537527 
L 367.862058 48.537527 
L 367.885128 47.902996 
L 368.97109 47.902996 
L 368.97109 47.58573 
L 369.089661 47.58573 
L 369.097051 46.951198 
L 369.643484 46.951198 
L 369.643484 46.633932 
L 370.148972 46.633932 
L 370.198693 45.682135 
L 371.061222 45.682135 
L 371.061222 45.364869 
L 371.388512 45.364869 
L 371.41243 44.413072 
L 371.639154 44.413072 
L 371.639154 44.095806 
L 371.894 44.095806 
L 371.894 43.77854 
L 372.013545 43.77854 
L 372.013545 43.461275 
L 372.259313 43.461275 
L 372.259313 43.144009 
L 372.474475 43.144009 
L 372.474475 42.826743 
L 372.806251 42.826743 
L 372.806251 42.509477 
L 372.979962 42.509477 
L 372.979962 42.192211 
L 373.384182 42.192211 
L 373.384182 41.874946 
L 373.567119 41.874946 
L 373.567119 41.55768 
L 373.702078 41.55768 
L 373.702078 41.240414 
L 373.892213 41.240414 
L 373.892213 40.923148 
L 374.004341 40.923148 
L 374.004341 40.605882 
L 374.168234 40.605882 
L 374.207566 39.971351 
L 374.470144 39.971351 
L 374.470144 39.654085 
L 374.676151 39.654085 
L 374.676151 39.336819 
L 375.090304 39.336819 
L 375.119816 38.702288 
L 375.277267 38.702288 
L 375.277267 38.385022 
L 375.415365 38.385022 
L 375.415365 38.067756 
L 375.629746 38.067756 
L 375.697748 37.433224 
L 375.888074 37.433224 
L 375.888074 37.115959 
L 376.317907 37.115959 
L 376.317907 36.798693 
L 376.465157 36.798693 
L 376.48919 36.164161 
L 377.570055 36.164161 
L 377.570055 35.846895 
L 378.179536 35.846895 
L 378.179536 35.52963 
L 378.679087 35.52963 
L 378.780651 34.577832 
L 379.286139 34.577832 
L 379.286139 34.260566 
L 379.597274 34.260566 
L 379.597274 33.943301 
L 379.89101 33.943301 
L 379.89101 33.626035 
L 380.175206 33.626035 
L 380.19839 32.991503 
L 380.776321 32.991503 
L 380.795365 32.356972 
L 381.396481 32.356972 
L 381.396481 32.039706 
L 382.182472 32.039706 
L 382.182472 31.72244 
L 382.68796 31.72244 
L 382.68796 31.405174 
L 383.370744 31.405174 
L 383.370744 31.087908 
L 383.60021 31.087908 
L 383.60021 30.770643 
L 384.143272 30.770643 
L 384.178142 30.136111 
L 384.798301 30.136111 
L 384.798301 29.818845 
L 385.525434 29.818845 
L 385.525434 29.50158 
L 386.634466 29.50158 
L 386.634466 29.184314 
L 387.846389 29.184314 
L 387.846389 28.867048 
L 390.13785 28.867048 
L 390.13785 28.549782 
L 390.643338 28.549782 
L 390.643338 28.232516 
L 391.555589 28.232516 
L 391.555589 27.915251 
L 392.13352 27.915251 
L 392.13352 27.597985 
L 392.75368 27.597985 
L 392.75368 27.280719 
L 394.446098 27.280719 
L 394.446098 26.963453 
L 394.915711 26.963453 
L 394.915711 26.646187 
L 400.243916 26.646187 
L 400.243916 26.328922 
L 401.449847 26.328922 
L 401.449847 26.011656 
L 410.646052 26.011656 
L 410.646052 25.69439 
L 412.391081 25.69439 
L 412.391081 25.377124 
L 413.477043 25.377124 
L 413.477043 25.059858 
L 414.704646 25.059858 
L 414.704646 24.742593 
L 419.182105 24.742593 
L 419.182105 24.425327 
L 419.78322 24.425327 
L 419.78322 24.108061 
L 423.18504 24.108061 
L 423.18504 23.790795 
L 431.140419 23.790795 
L 431.140419 23.473529 
L 452.992 23.473529 
L 452.992 23.473529 
" style="fill:none;stroke:#000000;stroke-linecap:square;stroke-width:3;"/>
   </g>
   <g id="line2d_48">
    <path clip-path="url(#p5972609ffe)" style="fill:none;stroke:#000000;stroke-linecap:square;stroke-width:3;"/>
   </g>
   <g id="line2d_49">
    <path clip-path="url(#p5972609ffe)" d="M 35.2 194.46113 
L 241.032996 194.46113 
L 241.032996 192.669512 
L 241.037729 192.669512 
L 241.037729 190.877893 
L 242.380397 190.877893 
L 242.380397 189.086275 
L 244.459961 189.086275 
L 244.459961 187.294656 
L 244.464694 187.294656 
L 244.464694 185.503037 
L 245.423216 185.503037 
L 245.423216 183.711419 
L 245.807362 183.711419 
L 245.807362 181.9198 
L 248.850181 181.9198 
L 248.850181 180.128181 
L 251.997787 180.128181 
L 251.997787 178.336563 
L 254.180183 178.336563 
L 254.180183 176.544944 
L 254.184916 176.544944 
L 254.184916 174.753326 
L 255.424752 174.753326 
L 255.424752 172.961707 
L 255.527584 172.961707 
L 255.527584 171.170088 
L 258.570403 171.170088 
L 258.570403 169.37847 
L 259.664598 169.37847 
L 259.664598 167.586851 
L 263.091563 167.586851 
L 263.091563 165.795233 
L 265.144975 165.795233 
L 265.144975 164.003614 
L 270.176015 164.003614 
L 270.176015 162.211995 
L 270.180749 162.211995 
L 270.180749 160.420377 
L 271.523416 160.420377 
L 271.523416 158.628758 
L 272.278171 158.628758 
L 272.278171 156.83714 
L 272.282904 156.83714 
L 272.282904 155.045521 
L 272.811785 155.045521 
L 272.811785 153.253902 
L 273.168162 153.253902 
L 273.168162 151.462284 
L 273.172895 151.462284 
L 273.172895 149.670665 
L 273.625572 149.670665 
L 273.625572 147.879047 
L 274.515563 147.879047 
L 274.515563 146.087428 
L 274.566236 146.087428 
L 274.566236 144.295809 
L 276.668391 144.295809 
L 276.668391 142.504191 
L 277.558382 142.504191 
L 277.558382 140.712572 
L 281.140807 140.712572 
L 281.140807 138.920953 
L 283.242963 138.920953 
L 283.242963 137.129335 
L 284.132953 137.129335 
L 284.132953 135.337716 
L 288.807618 135.337716 
L 288.807618 133.546098 
L 290.909773 133.546098 
L 290.909773 131.754479 
L 291.799764 131.754479 
L 291.799764 129.96286 
L 308.323153 129.96286 
L 308.323153 128.171242 
L 308.327886 128.171242 
L 308.327886 126.379623 
L 309.670554 126.379623 
L 309.670554 124.588005 
L 312.713373 124.588005 
L 312.713373 122.796386 
L 319.287944 122.796386 
L 319.287944 121.004767 
L 326.954755 121.004767 
L 326.954755 119.213149 
L 452.992 119.213149 
" style="fill:none;stroke:#00bfbf;stroke-linecap:square;stroke-width:3;"/>
   </g>
   <g id="line2d_50">
    <path clip-path="url(#p5972609ffe)" style="fill:none;stroke:#00bfbf;stroke-linecap:square;stroke-width:3;"/>
   </g>
   <g id="line2d_51">
    <path clip-path="url(#p5972609ffe)" d="M 35.2 194.46113 
L 240.209036 194.46113 
L 240.209036 192.669512 
L 242.018899 192.669512 
L 242.018899 190.877893 
L 242.02819 190.877893 
L 242.02819 189.086275 
L 244.726185 189.086275 
L 244.726185 187.294656 
L 244.895675 187.294656 
L 244.895675 185.503037 
L 246.536047 185.503037 
L 246.536047 183.711419 
L 246.545338 183.711419 
L 246.545338 181.9198 
L 249.412823 181.9198 
L 249.412823 180.128181 
L 251.888676 180.128181 
L 251.888676 178.336563 
L 254.134518 178.336563 
L 254.134518 176.544944 
L 255.944381 176.544944 
L 255.944381 174.753326 
L 255.953672 174.753326 
L 255.953672 172.961707 
L 256.405824 172.961707 
L 256.405824 171.170088 
L 258.821156 171.170088 
L 258.821156 169.37847 
L 260.211247 169.37847 
L 260.211247 167.586851 
L 264.728396 167.586851 
L 264.728396 165.795233 
L 265.814157 165.795233 
L 265.814157 164.003614 
L 269.412011 164.003614 
L 269.412011 162.211995 
L 271.221873 162.211995 
L 271.221873 160.420377 
L 271.231164 160.420377 
L 271.231164 158.628758 
L 272.139763 158.628758 
L 272.139763 156.83714 
L 272.426006 156.83714 
L 272.426006 155.045521 
L 273.949626 155.045521 
L 273.949626 153.253902 
L 273.958916 153.253902 
L 273.958916 151.462284 
L 274.098649 151.462284 
L 274.098649 149.670665 
L 274.136729 149.670665 
L 274.136729 147.879047 
L 274.235869 147.879047 
L 274.235869 146.087428 
L 274.245159 146.087428 
L 274.245159 144.295809 
L 276.826401 144.295809 
L 276.826401 142.504191 
L 277.112644 142.504191 
L 277.112644 140.712572 
L 281.09165 140.712572 
L 281.09165 138.920953 
L 283.819402 138.920953 
L 283.819402 137.129335 
L 284.105645 137.129335 
L 284.105645 135.337716 
L 289.414222 135.337716 
L 289.414222 133.546098 
L 292.141974 133.546098 
L 292.141974 131.754479 
L 292.428217 131.754479 
L 292.428217 129.96286 
L 308.127197 129.96286 
L 308.127197 128.171242 
L 309.93706 128.171242 
L 309.93706 126.379623 
L 309.946351 126.379623 
L 309.946351 124.588005 
L 312.813835 124.588005 
L 312.813835 122.796386 
L 319.806837 122.796386 
L 319.806837 121.004767 
L 328.129408 121.004767 
L 328.129408 119.213149 
L 452.992 119.213149 
" style="fill:none;stroke:#bf00bf;stroke-linecap:square;stroke-width:3;"/>
   </g>
   <g id="line2d_52">
    <path clip-path="url(#p5972609ffe)" style="fill:none;stroke:#bf00bf;stroke-linecap:square;stroke-width:3;"/>
   </g>
   <g id="line2d_53">
    <path clip-path="url(#p5972609ffe)" d="M 35.2 194.46113 
L 241.010463 194.46113 
L 241.010463 192.669512 
L 241.057755 192.669512 
L 241.057755 190.877893 
L 242.445127 190.877893 
L 242.445127 189.086275 
L 244.84512 189.086275 
L 244.84512 187.294656 
L 245.070737 187.294656 
L 245.070737 185.503037 
L 245.11803 185.503037 
L 245.11803 183.711419 
L 246.505402 183.711419 
L 246.505402 181.9198 
L 248.905394 181.9198 
L 248.905394 180.128181 
L 251.54788 180.128181 
L 251.54788 178.336563 
L 255.32148 178.336563 
L 255.32148 176.544944 
L 255.368773 176.544944 
L 255.368773 174.753326 
L 255.608154 174.753326 
L 255.608154 172.961707 
L 256.756145 172.961707 
L 256.756145 171.170088 
L 259.152979 171.170088 
L 259.152979 169.37847 
L 259.156137 169.37847 
L 259.156137 167.586851 
L 263.213253 167.586851 
L 263.213253 165.795233 
L 265.858897 165.795233 
L 265.858897 164.003614 
L 270.326965 164.003614 
L 270.326965 162.211995 
L 270.374258 162.211995 
L 270.374258 160.420377 
L 271.76163 160.420377 
L 271.76163 158.628758 
L 273.38403 158.628758 
L 273.38403 156.83714 
L 273.431323 156.83714 
L 273.431323 155.045521 
L 273.463996 155.045521 
L 273.463996 153.253902 
L 273.759908 153.253902 
L 273.759908 151.462284 
L 273.807201 151.462284 
L 273.807201 149.670665 
L 274.161622 149.670665 
L 274.161622 147.879047 
L 274.818695 147.879047 
L 274.818695 146.087428 
L 275.194573 146.087428 
L 275.194573 144.295809 
L 277.218687 144.295809 
L 277.218687 142.504191 
L 277.594565 142.504191 
L 277.594565 140.712572 
L 280.864382 140.712572 
L 280.864382 138.920953 
L 283.921447 138.920953 
L 283.921447 137.129335 
L 284.297325 137.129335 
L 284.297325 135.337716 
L 288.469481 135.337716 
L 288.469481 133.546098 
L 291.526546 133.546098 
L 291.526546 131.754479 
L 291.902424 131.754479 
L 291.902424 129.96286 
L 308.962362 129.96286 
L 308.962362 128.171242 
L 309.009654 128.171242 
L 309.009654 126.379623 
L 310.397026 126.379623 
L 310.397026 124.588005 
L 312.797018 124.588005 
L 312.797018 122.796386 
L 319.499779 122.796386 
L 319.499779 121.004767 
L 327.104878 121.004767 
L 327.104878 119.213149 
L 452.992 119.213149 
" style="fill:none;stroke:#ff0000;stroke-linecap:square;stroke-width:3;"/>
   </g>
   <g id="line2d_54">
    <path clip-path="url(#p5972609ffe)" style="fill:none;stroke:#ff0000;stroke-linecap:square;stroke-width:3;"/>
   </g>
   <g id="line2d_55">
    <path clip-path="url(#p5972609ffe)" d="M 244.096 283.2 
L 244.096 3.6 
" style="fill:none;stroke:#000000;stroke-linecap:square;stroke-width:1.5;"/>
   </g>
   <g id="line2d_56">
    <path clip-path="url(#p5972609ffe)" d="M 35.2 143.4 
L 452.992 143.4 
" style="fill:none;stroke:#000000;stroke-dasharray:2,3.3;stroke-dashoffset:0;stroke-width:2;"/>
   </g>
   <g id="patch_3">
    <path d="M 35.2 283.2 
L 35.2 3.6 
" style="fill:none;stroke:#000000;stroke-linecap:square;stroke-linejoin:miter;stroke-width:0.8;"/>
   </g>
   <g id="patch_4">
    <path d="M 452.992 283.2 
L 452.992 3.6 
" style="fill:none;stroke:#000000;stroke-linecap:square;stroke-linejoin:miter;stroke-width:0.8;"/>
   </g>
   <g id="patch_5">
    <path d="M 35.2 283.2 
L 452.992 283.2 
" style="fill:none;stroke:#000000;stroke-linecap:square;stroke-linejoin:miter;stroke-width:0.8;"/>
   </g>
   <g id="patch_6">
    <path d="M 35.2 3.6 
L 452.992 3.6 
" style="fill:none;stroke:#000000;stroke-linecap:square;stroke-linejoin:miter;stroke-width:0.8;"/>
   </g>
   <g id="text_6">
    <!-- f6-f9,40-D -->
    <g transform="translate(343.46741 277.608)scale(0.2 -0.2)">
     <defs>
      <path d="M 2113 2584 
Q 1688 2584 1439 2293 
Q 1191 2003 1191 1497 
Q 1191 994 1439 701 
Q 1688 409 2113 409 
Q 2538 409 2786 701 
Q 3034 994 3034 1497 
Q 3034 2003 2786 2293 
Q 2538 2584 2113 2584 
z
M 3366 4563 
L 3366 3988 
Q 3128 4100 2886 4159 
Q 2644 4219 2406 4219 
Q 1781 4219 1451 3797 
Q 1122 3375 1075 2522 
Q 1259 2794 1537 2939 
Q 1816 3084 2150 3084 
Q 2853 3084 3261 2657 
Q 3669 2231 3669 1497 
Q 3669 778 3244 343 
Q 2819 -91 2113 -91 
Q 1303 -91 875 529 
Q 447 1150 447 2328 
Q 447 3434 972 4092 
Q 1497 4750 2381 4750 
Q 2619 4750 2861 4703 
Q 3103 4656 3366 4563 
z
" id="DejaVuSans-36" transform="scale(0.015625)"/>
      <path d="M 703 97 
L 703 672 
Q 941 559 1184 500 
Q 1428 441 1663 441 
Q 2288 441 2617 861 
Q 2947 1281 2994 2138 
Q 2813 1869 2534 1725 
Q 2256 1581 1919 1581 
Q 1219 1581 811 2004 
Q 403 2428 403 3163 
Q 403 3881 828 4315 
Q 1253 4750 1959 4750 
Q 2769 4750 3195 4129 
Q 3622 3509 3622 2328 
Q 3622 1225 3098 567 
Q 2575 -91 1691 -91 
Q 1453 -91 1209 -44 
Q 966 3 703 97 
z
M 1959 2075 
Q 2384 2075 2632 2365 
Q 2881 2656 2881 3163 
Q 2881 3666 2632 3958 
Q 2384 4250 1959 4250 
Q 1534 4250 1286 3958 
Q 1038 3666 1038 3163 
Q 1038 2656 1286 2365 
Q 1534 2075 1959 2075 
z
" id="DejaVuSans-39" transform="scale(0.015625)"/>
      <path d="M 750 794 
L 1409 794 
L 1409 256 
L 897 -744 
L 494 -744 
L 750 256 
L 750 794 
z
" id="DejaVuSans-2c" transform="scale(0.015625)"/>
      <path d="M 2419 4116 
L 825 1625 
L 2419 1625 
L 2419 4116 
z
M 2253 4666 
L 3047 4666 
L 3047 1625 
L 3713 1625 
L 3713 1100 
L 3047 1100 
L 3047 0 
L 2419 0 
L 2419 1100 
L 313 1100 
L 313 1709 
L 2253 4666 
z
" id="DejaVuSans-34" transform="scale(0.015625)"/>
      <path d="M 1259 4147 
L 1259 519 
L 2022 519 
Q 2988 519 3436 956 
Q 3884 1394 3884 2338 
Q 3884 3275 3436 3711 
Q 2988 4147 2022 4147 
L 1259 4147 
z
M 628 4666 
L 1925 4666 
Q 3281 4666 3915 4102 
Q 4550 3538 4550 2338 
Q 4550 1131 3912 565 
Q 3275 0 1925 0 
L 628 0 
L 628 4666 
z
" id="DejaVuSans-44" transform="scale(0.015625)"/>
     </defs>
     <use xlink:href="#DejaVuSans-66"/>
     <use x="35.205078" xlink:href="#DejaVuSans-36"/>
     <use x="98.828125" xlink:href="#DejaVuSans-2d"/>
     <use x="134.912109" xlink:href="#DejaVuSans-66"/>
     <use x="170.117188" xlink:href="#DejaVuSans-39"/>
     <use x="233.740234" xlink:href="#DejaVuSans-2c"/>
     <use x="265.527344" xlink:href="#DejaVuSans-34"/>
     <use x="329.150391" xlink:href="#DejaVuSans-30"/>
     <use x="392.773438" xlink:href="#DejaVuSans-2d"/>
     <use x="428.857422" xlink:href="#DejaVuSans-44"/>
    </g>
   </g>
   <g id="text_7">
    <!-- v2.6.3 -->
    <g style="fill:#808080;" transform="translate(228.41475 278.324312)scale(0.1 -0.1)">
     <defs>
      <path d="M 1228 531 
L 3431 531 
L 3431 0 
L 469 0 
L 469 531 
Q 828 903 1448 1529 
Q 2069 2156 2228 2338 
Q 2531 2678 2651 2914 
Q 2772 3150 2772 3378 
Q 2772 3750 2511 3984 
Q 2250 4219 1831 4219 
Q 1534 4219 1204 4116 
Q 875 4013 500 3803 
L 500 4441 
Q 881 4594 1212 4672 
Q 1544 4750 1819 4750 
Q 2544 4750 2975 4387 
Q 3406 4025 3406 3419 
Q 3406 3131 3298 2873 
Q 3191 2616 2906 2266 
Q 2828 2175 2409 1742 
Q 1991 1309 1228 531 
z
" id="DejaVuSans-32" transform="scale(0.015625)"/>
      <path d="M 684 794 
L 1344 794 
L 1344 0 
L 684 0 
L 684 794 
z
" id="DejaVuSans-2e" transform="scale(0.015625)"/>
      <path d="M 2597 2516 
Q 3050 2419 3304 2112 
Q 3559 1806 3559 1356 
Q 3559 666 3084 287 
Q 2609 -91 1734 -91 
Q 1441 -91 1130 -33 
Q 819 25 488 141 
L 488 750 
Q 750 597 1062 519 
Q 1375 441 1716 441 
Q 2309 441 2620 675 
Q 2931 909 2931 1356 
Q 2931 1769 2642 2001 
Q 2353 2234 1838 2234 
L 1294 2234 
L 1294 2753 
L 1863 2753 
Q 2328 2753 2575 2939 
Q 2822 3125 2822 3475 
Q 2822 3834 2567 4026 
Q 2313 4219 1838 4219 
Q 1578 4219 1281 4162 
Q 984 4106 628 3988 
L 628 4550 
Q 988 4650 1302 4700 
Q 1616 4750 1894 4750 
Q 2613 4750 3031 4423 
Q 3450 4097 3450 3541 
Q 3450 3153 3228 2886 
Q 3006 2619 2597 2516 
z
" id="DejaVuSans-33" transform="scale(0.015625)"/>
     </defs>
     <use xlink:href="#DejaVuSans-76"/>
     <use x="59.179688" xlink:href="#DejaVuSans-32"/>
     <use x="122.802734" xlink:href="#DejaVuSans-2e"/>
     <use x="154.589844" xlink:href="#DejaVuSans-36"/>
     <use x="218.212891" xlink:href="#DejaVuSans-2e"/>
     <use x="250" xlink:href="#DejaVuSans-33"/>
    </g>
   </g>
   <g id="legend_1">
    <g id="patch_7">
     <path d="M 49.2 137.025 
L 178.421875 137.025 
Q 182.421875 137.025 182.421875 133.025 
L 182.421875 17.6 
Q 182.421875 13.6 178.421875 13.6 
L 49.2 13.6 
Q 45.2 13.6 45.2 17.6 
L 45.2 133.025 
Q 45.2 137.025 49.2 137.025 
z
" style="fill:#ffffff;opacity:0.2;stroke:#cccccc;stroke-linejoin:miter;"/>
    </g>
    <g id="line2d_57">
     <path d="M 53.2 29.796875 
L 93.2 29.796875 
" style="fill:none;stroke:#000000;stroke-linecap:square;stroke-width:3;"/>
    </g>
    <g id="line2d_58"/>
    <g id="text_8">
     <!-- 1: 4/4 -->
     <g transform="translate(109.2 36.796875)scale(0.2 -0.2)">
      <defs>
       <path d="M 750 794 
L 1409 794 
L 1409 0 
L 750 0 
L 750 794 
z
M 750 3309 
L 1409 3309 
L 1409 2516 
L 750 2516 
L 750 3309 
z
" id="DejaVuSans-3a" transform="scale(0.015625)"/>
       <path d="M 1625 4666 
L 2156 4666 
L 531 -594 
L 0 -594 
L 1625 4666 
z
" id="DejaVuSans-2f" transform="scale(0.015625)"/>
      </defs>
      <use xlink:href="#DejaVuSans-31"/>
      <use x="63.623047" xlink:href="#DejaVuSans-3a"/>
      <use x="97.314453" xlink:href="#DejaVuSans-20"/>
      <use x="129.101562" xlink:href="#DejaVuSans-34"/>
      <use x="192.724609" xlink:href="#DejaVuSans-2f"/>
      <use x="226.416016" xlink:href="#DejaVuSans-34"/>
     </g>
    </g>
    <g id="line2d_59">
     <path d="M 53.2 59.153125 
L 93.2 59.153125 
" style="fill:none;stroke:#00bfbf;stroke-linecap:square;stroke-width:3;"/>
    </g>
    <g id="line2d_60"/>
    <g id="text_9">
     <!-- -1: 1/1 -->
     <g transform="translate(109.2 66.153125)scale(0.2 -0.2)">
      <use xlink:href="#DejaVuSans-2d"/>
      <use x="36.083984" xlink:href="#DejaVuSans-31"/>
      <use x="99.707031" xlink:href="#DejaVuSans-3a"/>
      <use x="133.398438" xlink:href="#DejaVuSans-20"/>
      <use x="165.185547" xlink:href="#DejaVuSans-31"/>
      <use x="228.808594" xlink:href="#DejaVuSans-2f"/>
      <use x="262.5" xlink:href="#DejaVuSans-31"/>
     </g>
    </g>
    <g id="line2d_61">
     <path d="M 53.2 88.509375 
L 93.2 88.509375 
" style="fill:none;stroke:#bf00bf;stroke-linecap:square;stroke-width:3;"/>
    </g>
    <g id="line2d_62"/>
    <g id="text_10">
     <!-- -4: 1/1 -->
     <g transform="translate(109.2 95.509375)scale(0.2 -0.2)">
      <use xlink:href="#DejaVuSans-2d"/>
      <use x="36.083984" xlink:href="#DejaVuSans-34"/>
      <use x="99.707031" xlink:href="#DejaVuSans-3a"/>
      <use x="133.398438" xlink:href="#DejaVuSans-20"/>
      <use x="165.185547" xlink:href="#DejaVuSans-31"/>
      <use x="228.808594" xlink:href="#DejaVuSans-2f"/>
      <use x="262.5" xlink:href="#DejaVuSans-31"/>
     </g>
    </g>
    <g id="line2d_63">
     <path d="M 53.2 117.865625 
L 93.2 117.865625 
" style="fill:none;stroke:#ff0000;stroke-linecap:square;stroke-width:3;"/>
    </g>
    <g id="line2d_64"/>
    <g id="text_11">
     <!-- -8: 1/1 -->
     <g transform="translate(109.2 124.865625)scale(0.2 -0.2)">
      <defs>
       <path d="M 2034 2216 
Q 1584 2216 1326 1975 
Q 1069 1734 1069 1313 
Q 1069 891 1326 650 
Q 1584 409 2034 409 
Q 2484 409 2743 651 
Q 3003 894 3003 1313 
Q 3003 1734 2745 1975 
Q 2488 2216 2034 2216 
z
M 1403 2484 
Q 997 2584 770 2862 
Q 544 3141 544 3541 
Q 544 4100 942 4425 
Q 1341 4750 2034 4750 
Q 2731 4750 3128 4425 
Q 3525 4100 3525 3541 
Q 3525 3141 3298 2862 
Q 3072 2584 2669 2484 
Q 3125 2378 3379 2068 
Q 3634 1759 3634 1313 
Q 3634 634 3220 271 
Q 2806 -91 2034 -91 
Q 1263 -91 848 271 
Q 434 634 434 1313 
Q 434 1759 690 2068 
Q 947 2378 1403 2484 
z
M 1172 3481 
Q 1172 3119 1398 2916 
Q 1625 2713 2034 2713 
Q 2441 2713 2670 2916 
Q 2900 3119 2900 3481 
Q 2900 3844 2670 4047 
Q 2441 4250 2034 4250 
Q 1625 4250 1398 4047 
Q 1172 3844 1172 3481 
z
" id="DejaVuSans-38" transform="scale(0.015625)"/>
      </defs>
      <use xlink:href="#DejaVuSans-2d"/>
      <use x="36.083984" xlink:href="#DejaVuSans-38"/>
      <use x="99.707031" xlink:href="#DejaVuSans-3a"/>
      <use x="133.398438" xlink:href="#DejaVuSans-20"/>
      <use x="165.185547" xlink:href="#DejaVuSans-31"/>
      <use x="228.808594" xlink:href="#DejaVuSans-2f"/>
      <use x="262.5" xlink:href="#DejaVuSans-31"/>
     </g>
    </g>
   </g>
  </g>
 </g>
 <defs>
  <clipPath id="p5972609ffe">
   <rect height="279.6" width="417.792" x="35.2" y="3.6"/>
  </clipPath>
 </defs>
</svg>
