<?xml version="1.0" encoding="utf-8" standalone="no"?>
<!DOCTYPE svg PUBLIC "-//W3C//DTD SVG 1.1//EN"
  "http://www.w3.org/Graphics/SVG/1.1/DTD/svg11.dtd">
<svg height="345.6pt" version="1.1" viewBox="0 0 460.8 345.6" width="460.8pt" xmlns="http://www.w3.org/2000/svg" xmlns:xlink="http://www.w3.org/1999/xlink">
 <metadata>
  <rdf:RDF xmlns:cc="http://creativecommons.org/ns#" xmlns:dc="http://purl.org/dc/elements/1.1/" xmlns:rdf="http://www.w3.org/1999/02/22-rdf-syntax-ns#">
   <cc:Work>
    <dc:type rdf:resource="http://purl.org/dc/dcmitype/StillImage"/>
    <dc:date>2023-04-17T17:52:37.669318</dc:date>
    <dc:format>image/svg+xml</dc:format>
    <dc:creator>
     <cc:Agent>
      <dc:title>Matplotlib v3.4.1, https://matplotlib.org/</dc:title>
     </cc:Agent>
    </dc:creator>
   </cc:Work>
  </rdf:RDF>
 </metadata>
 <defs>
  <style type="text/css">*{stroke-linecap:butt;stroke-linejoin:round;}</style>
 </defs>
 <g id="figure_1">
  <g id="patch_1">
   <path d="M 0 345.6 
L 460.8 345.6 
L 460.8 0 
L 0 0 
z
" style="fill:#ffffff;"/>
  </g>
  <g id="axes_1">
   <g id="patch_2">
    <path d="M 62.208 293.76 
L 460.8 293.76 
L 460.8 3.456 
L 62.208 3.456 
z
" style="fill:#ffffff;"/>
   </g>
   <g id="line2d_1">
    <path clip-path="url(#p2f29da27bb)" d="M 272.987014 293.76 
L 272.987014 289.927604 
L 276.356664 289.927604 
L 276.356664 286.095208 
L 284.462793 286.095208 
L 284.462793 282.262812 
L 296.630854 282.262812 
L 296.630854 278.430416 
L 318.477844 278.430416 
L 318.477844 274.59802 
L 328.065848 274.59802 
L 328.065848 270.765624 
L 328.065848 270.765624 
L 328.065848 270.765624 
L 460.8 270.765624 
" style="fill:none;stroke:#f5deb3;stroke-linecap:square;stroke-width:1.5;"/>
   </g>
   <g id="line2d_2">
    <path clip-path="url(#p2f29da27bb)" d="M 408.371069 293.76 
L 408.371069 282.262812 
L 408.371069 282.262812 
L 408.371069 282.262812 
L 460.8 282.262812 
" style="fill:none;stroke:#f5deb3;stroke-linecap:square;stroke-width:1.5;"/>
   </g>
   <g id="line2d_3">
    <path clip-path="url(#p2f29da27bb)" d="M 218.596192 293.76 
L 218.596192 289.927604 
L 225.293877 289.927604 
L 225.293877 286.095208 
L 284.832729 286.095208 
L 284.832729 282.262812 
L 288.156628 282.262812 
L 288.156628 278.430416 
L 298.429604 278.430416 
L 298.429604 274.59802 
L 301.242536 274.59802 
L 301.242536 270.765624 
L 304.451049 270.765624 
L 304.451049 266.933228 
L 315.954876 266.933228 
L 315.954876 263.100832 
L 317.223119 263.100832 
L 317.223119 259.268436 
L 317.640094 259.268436 
L 317.640094 255.43604 
L 318.265914 255.43604 
L 318.265914 251.603644 
L 321.952975 251.603644 
L 321.952975 247.771248 
L 328.844188 247.771248 
L 328.844188 243.938851 
L 333.965907 243.938851 
L 333.965907 240.106455 
L 334.520193 240.106455 
L 334.520193 236.274059 
L 343.302015 236.274059 
L 343.302015 232.441663 
L 344.54618 232.441663 
L 344.54618 228.609267 
L 348.131095 228.609267 
L 348.131095 224.776871 
L 372.529724 224.776871 
L 372.529724 220.944475 
L 373.945856 220.944475 
L 373.945856 217.112079 
L 376.669483 217.112079 
L 376.669483 213.279683 
L 379.431579 213.279683 
L 379.431579 209.447287 
L 380.500934 209.447287 
L 380.500934 205.614891 
L 386.865341 205.614891 
L 386.865341 201.782495 
L 387.360812 201.782495 
L 387.360812 197.950099 
L 403.812783 197.950099 
L 403.812783 194.117703 
L 405.609115 194.117703 
L 405.609115 190.285307 
L 407.762596 190.285307 
L 407.762596 186.452911 
L 414.702468 186.452911 
L 414.702468 182.620515 
L 426.766627 182.620515 
L 426.766627 178.788119 
L 426.766627 178.788119 
L 426.766627 178.788119 
L 460.8 178.788119 
" style="fill:none;stroke:#f5deb3;stroke-linecap:square;stroke-width:1.5;"/>
   </g>
   <g id="line2d_4">
    <path clip-path="url(#p2f29da27bb)" d="M 233.173775 293.76 
L 233.173775 289.927604 
L 237.28964 289.927604 
L 237.28964 286.095208 
L 265.611048 286.095208 
L 265.611048 282.262812 
L 286.845076 282.262812 
L 286.845076 278.430416 
L 288.59589 278.430416 
L 288.59589 274.59802 
L 297.4927 274.59802 
L 297.4927 270.765624 
L 302.34007 270.765624 
L 302.34007 266.933228 
L 320.189734 266.933228 
L 320.189734 263.100832 
L 320.7936 263.100832 
L 320.7936 259.268436 
L 337.503596 259.268436 
L 337.503596 255.43604 
L 338.997018 255.43604 
L 338.997018 251.603644 
L 344.295128 251.603644 
L 344.295128 247.771248 
L 350.307286 247.771248 
L 350.307286 243.938851 
L 350.899509 243.938851 
L 350.899509 240.106455 
L 357.256796 240.106455 
L 357.256796 236.274059 
L 364.647611 236.274059 
L 364.647611 232.441663 
L 380.816754 232.441663 
L 380.816754 228.609267 
L 382.130859 228.609267 
L 382.130859 224.776871 
L 382.931576 224.776871 
L 382.931576 220.944475 
L 383.603573 220.944475 
L 383.603573 217.112079 
L 386.825197 217.112079 
L 386.825197 213.279683 
L 390.227351 213.279683 
L 390.227351 209.447287 
L 397.432733 209.447287 
L 397.432733 205.614891 
L 400.179 205.614891 
L 400.179 201.782495 
L 400.215835 201.782495 
L 400.215835 197.950099 
L 408.713734 197.950099 
L 408.713734 194.117703 
L 416.559576 194.117703 
L 416.559576 190.285307 
L 424.381066 190.285307 
L 424.381066 186.452911 
L 430.322168 186.452911 
L 430.322168 182.620515 
L 431.478768 182.620515 
L 431.478768 178.788119 
L 431.478768 178.788119 
L 431.478768 178.788119 
L 460.8 178.788119 
" style="fill:none;stroke:#f5deb3;stroke-linecap:square;stroke-width:1.5;"/>
   </g>
   <g id="line2d_5"/>
   <g id="line2d_6"/>
   <g id="line2d_7">
    <path clip-path="url(#p2f29da27bb)" d="M 264.328111 293.76 
L 264.328111 289.927604 
L 372.988469 289.927604 
L 372.988469 286.095208 
L 376.186224 286.095208 
L 376.186224 282.262812 
L 378.653337 282.262812 
L 378.653337 278.430416 
L 401.564691 278.430416 
L 401.564691 274.59802 
L 405.196007 274.59802 
L 405.196007 270.765624 
L 406.788955 270.765624 
L 406.788955 266.933228 
L 411.961865 266.933228 
L 411.961865 263.100832 
L 436.166338 263.100832 
L 436.166338 259.268436 
L 445.095849 259.268436 
L 445.095849 255.43604 
L 446.234723 255.43604 
L 446.234723 251.603644 
L 451.990695 251.603644 
L 451.990695 247.771248 
L 452.053115 247.771248 
L 452.053115 243.938851 
L 461.8 243.938851 
" style="fill:none;stroke:#f5deb3;stroke-linecap:square;stroke-width:1.5;"/>
   </g>
   <g id="line2d_8">
    <path clip-path="url(#p2f29da27bb)" d="M 406.647964 293.76 
L 406.647964 289.927604 
L 410.967858 289.927604 
L 410.967858 286.095208 
L 441.096532 286.095208 
L 441.096532 282.262812 
L 442.5035 282.262812 
L 442.5035 278.430416 
L 461.8 278.430416 
" style="fill:none;stroke:#f5deb3;stroke-linecap:square;stroke-width:1.5;"/>
   </g>
   <g id="line2d_9">
    <path clip-path="url(#p2f29da27bb)" d="M 253.506238 293.76 
L 253.506238 289.927604 
L 258.05468 289.927604 
L 258.05468 286.095208 
L 359.659999 286.095208 
L 359.659999 282.262812 
L 370.012161 282.262812 
L 370.012161 278.430416 
L 381.374256 278.430416 
L 381.374256 274.59802 
L 383.180432 274.59802 
L 383.180432 270.765624 
L 383.750317 270.765624 
L 383.750317 266.933228 
L 397.200488 266.933228 
L 397.200488 263.100832 
L 397.921649 263.100832 
L 397.921649 259.268436 
L 397.988835 259.268436 
L 397.988835 255.43604 
L 398.784318 255.43604 
L 398.784318 251.603644 
L 402.516715 251.603644 
L 402.516715 247.771248 
L 412.480248 247.771248 
L 412.480248 243.938851 
L 417.349973 243.938851 
L 417.349973 240.106455 
L 427.136037 240.106455 
L 427.136037 236.274059 
L 437.621476 236.274059 
L 437.621476 232.441663 
L 440.974875 232.441663 
L 440.974875 228.609267 
L 443.455915 228.609267 
L 443.455915 224.776871 
L 443.762613 224.776871 
L 443.762613 220.944475 
L 453.975881 220.944475 
L 453.975881 217.112079 
L 455.91988 217.112079 
L 455.91988 213.279683 
L 456.006543 213.279683 
L 456.006543 209.447287 
L 459.451428 209.447287 
L 459.451428 205.614891 
L 461.8 205.614891 
" style="fill:none;stroke:#f5deb3;stroke-linecap:square;stroke-width:1.5;"/>
   </g>
   <g id="line2d_10">
    <path clip-path="url(#p2f29da27bb)" d="M 432.763933 293.76 
L 432.763933 289.927604 
L 441.614704 289.927604 
L 441.614704 286.095208 
L 461.8 286.095208 
" style="fill:none;stroke:#f5deb3;stroke-linecap:square;stroke-width:1.5;"/>
   </g>
   <g id="line2d_11">
    <path clip-path="url(#p2f29da27bb)" d="M 234.508651 293.76 
L 234.508651 289.927604 
L 235.61935 289.927604 
L 235.61935 286.095208 
L 279.950819 286.095208 
L 279.950819 282.262812 
L 336.926044 282.262812 
L 336.926044 278.430416 
L 365.139798 278.430416 
L 365.139798 274.59802 
L 378.403889 274.59802 
L 378.403889 270.765624 
L 379.290834 270.765624 
L 379.290834 266.933228 
L 381.886006 266.933228 
L 381.886006 263.100832 
L 382.482555 263.100832 
L 382.482555 259.268436 
L 390.196051 259.268436 
L 390.196051 255.43604 
L 395.762647 255.43604 
L 395.762647 251.603644 
L 402.013562 251.603644 
L 402.013562 247.771248 
L 415.374886 247.771248 
L 415.374886 243.938851 
L 416.204786 243.938851 
L 416.204786 240.106455 
L 417.627157 240.106455 
L 417.627157 236.274059 
L 424.124116 236.274059 
L 424.124116 232.441663 
L 426.568323 232.441663 
L 426.568323 228.609267 
L 440.160841 228.609267 
L 440.160841 224.776871 
L 440.229682 224.776871 
L 440.229682 220.944475 
L 440.830405 220.944475 
L 440.830405 217.112079 
L 444.339078 217.112079 
L 444.339078 213.279683 
L 449.436206 213.279683 
L 449.436206 209.447287 
L 455.908638 209.447287 
L 455.908638 205.614891 
L 456.369917 205.614891 
L 456.369917 201.782495 
L 460.554119 201.782495 
L 460.554119 197.950099 
L 461.8 197.950099 
" style="fill:none;stroke:#f5deb3;stroke-linecap:square;stroke-width:1.5;"/>
   </g>
   <g id="line2d_12">
    <path clip-path="url(#p2f29da27bb)" d="M 294.3573 293.76 
L 294.3573 289.927604 
L 323.435275 289.927604 
L 323.435275 286.095208 
L 335.034501 286.095208 
L 335.034501 282.262812 
L 367.950939 282.262812 
L 367.950939 278.430416 
L 381.520367 278.430416 
L 381.520367 274.59802 
L 382.739251 274.59802 
L 382.739251 270.765624 
L 385.916191 270.765624 
L 385.916191 266.933228 
L 388.719575 266.933228 
L 388.719575 263.100832 
L 390.513634 263.100832 
L 390.513634 259.268436 
L 392.23274 259.268436 
L 392.23274 255.43604 
L 397.432733 255.43604 
L 397.432733 251.603644 
L 406.082022 251.603644 
L 406.082022 247.771248 
L 410.859458 247.771248 
L 410.859458 243.938851 
L 410.859458 243.938851 
L 410.859458 243.938851 
L 460.8 243.938851 
" style="fill:none;stroke:#f5deb3;stroke-linecap:square;stroke-width:1.5;"/>
   </g>
   <g id="line2d_13">
    <path clip-path="url(#p2f29da27bb)" d="M 332.989004 293.76 
L 332.989004 289.927604 
L 354.427121 289.927604 
L 354.427121 286.095208 
L 358.354247 286.095208 
L 358.354247 282.262812 
L 358.354247 282.262812 
L 358.354247 282.262812 
L 460.8 282.262812 
" style="fill:none;stroke:#f5deb3;stroke-linecap:square;stroke-width:1.5;"/>
   </g>
   <g id="line2d_14">
    <path clip-path="url(#p2f29da27bb)" d="M 266.655207 293.76 
L 266.655207 289.927604 
L 269.182214 289.927604 
L 269.182214 286.095208 
L 326.883281 286.095208 
L 326.883281 282.262812 
L 341.268915 282.262812 
L 341.268915 278.430416 
L 346.365275 278.430416 
L 346.365275 274.59802 
L 365.927579 274.59802 
L 365.927579 270.765624 
L 371.239463 270.765624 
L 371.239463 266.933228 
L 372.880223 266.933228 
L 372.880223 263.100832 
L 374.158653 263.100832 
L 374.158653 259.268436 
L 377.139315 259.268436 
L 377.139315 255.43604 
L 378.80754 255.43604 
L 378.80754 251.603644 
L 380.111814 251.603644 
L 380.111814 247.771248 
L 396.643293 247.771248 
L 396.643293 243.938851 
L 397.488802 243.938851 
L 397.488802 240.106455 
L 399.234683 240.106455 
L 399.234683 236.274059 
L 399.362458 236.274059 
L 399.362458 232.441663 
L 399.726489 232.441663 
L 399.726489 228.609267 
L 406.365485 228.609267 
L 406.365485 224.776871 
L 406.674675 224.776871 
L 406.674675 220.944475 
L 411.464892 220.944475 
L 411.464892 217.112079 
L 413.265288 217.112079 
L 413.265288 213.279683 
L 418.475611 213.279683 
L 418.475611 209.447287 
L 422.080845 209.447287 
L 422.080845 205.614891 
L 427.530896 205.614891 
L 427.530896 201.782495 
L 440.313151 201.782495 
L 440.313151 197.950099 
L 440.313151 197.950099 
L 440.313151 197.950099 
L 460.8 197.950099 
" style="fill:none;stroke:#f5deb3;stroke-linecap:square;stroke-width:1.5;"/>
   </g>
   <g id="line2d_15">
    <path clip-path="url(#p2f29da27bb)" style="fill:none;stroke:#f5deb3;stroke-linecap:square;stroke-width:1.5;"/>
   </g>
   <g id="line2d_16">
    <path clip-path="url(#p2f29da27bb)" d="M 385.702439 293.76 
L 385.702439 289.927604 
L 419.547571 289.927604 
L 419.547571 286.095208 
L 455.529512 286.095208 
L 455.529512 282.262812 
L 461.8 282.262812 
" style="fill:none;stroke:#f5deb3;stroke-linecap:square;stroke-width:1.5;"/>
   </g>
   <g id="line2d_17">
    <path clip-path="url(#p2f29da27bb)" d="M 379.557103 293.76 
L 379.557103 289.927604 
L 387.47045 289.927604 
L 387.47045 286.095208 
L 395.339028 286.095208 
L 395.339028 282.262812 
L 400.948979 282.262812 
L 400.948979 278.430416 
L 400.948979 278.430416 
L 400.948979 278.430416 
L 460.8 278.430416 
" style="fill:none;stroke:#f5deb3;stroke-linecap:square;stroke-width:1.5;"/>
   </g>
   <g id="line2d_18">
    <path clip-path="url(#p2f29da27bb)" d="M 224.663135 293.76 
L 224.663135 289.927604 
L 229.80956 289.927604 
L 229.80956 286.095208 
L 229.80956 286.095208 
L 229.80956 282.262812 
L 232.719018 282.262812 
L 232.719018 278.430416 
L 282.891003 278.430416 
L 282.891003 274.59802 
L 292.41284 274.59802 
L 292.41284 270.765624 
L 294.254906 270.765624 
L 294.254906 266.933228 
L 295.708181 266.933228 
L 295.708181 263.100832 
L 300.994613 263.100832 
L 300.994613 259.268436 
L 307.469927 259.268436 
L 307.469927 255.43604 
L 309.42018 255.43604 
L 309.42018 251.603644 
L 313.193193 251.603644 
L 313.193193 247.771248 
L 315.642502 247.771248 
L 315.642502 243.938851 
L 326.416666 243.938851 
L 326.416666 240.106455 
L 333.814961 240.106455 
L 333.814961 236.274059 
L 342.611297 236.274059 
L 342.611297 232.441663 
L 343.342025 232.441663 
L 343.342025 228.609267 
L 344.808575 228.609267 
L 344.808575 224.776871 
L 348.972822 224.776871 
L 348.972822 220.944475 
L 365.58219 220.944475 
L 365.58219 217.112079 
L 374.742896 217.112079 
L 374.742896 213.279683 
L 378.040247 213.279683 
L 378.040247 209.447287 
L 384.086847 209.447287 
L 384.086847 205.614891 
L 399.544309 205.614891 
L 399.544309 201.782495 
L 405.546433 201.782495 
L 405.546433 197.950099 
L 407.094992 197.950099 
L 407.094992 194.117703 
L 410.175848 194.117703 
L 410.175848 190.285307 
L 410.175848 190.285307 
L 410.175848 190.285307 
L 460.8 190.285307 
" style="fill:none;stroke:#f5deb3;stroke-linecap:square;stroke-width:1.5;"/>
   </g>
   <g id="line2d_19">
    <path clip-path="url(#p2f29da27bb)" d="M 392.89517 293.76 
L 392.89517 290.338218 
L 394.178541 290.338218 
L 394.178541 286.916436 
L 396.948811 286.916436 
L 396.948811 283.494653 
L 403.707348 283.494653 
L 403.707348 280.072871 
L 405.611073 280.072871 
L 405.611073 276.651089 
L 406.494996 276.651089 
L 406.494996 273.229307 
L 408.594671 273.229307 
L 408.594671 269.807525 
L 408.601042 269.807525 
L 408.601042 266.385743 
L 411.668119 266.385743 
L 411.668119 262.96396 
L 415.30226 262.96396 
L 415.30226 259.542178 
L 426.257214 259.542178 
L 426.257214 256.120396 
L 432.568183 256.120396 
L 432.568183 252.698614 
L 436.56174 252.698614 
L 436.56174 249.276832 
L 436.722887 249.276832 
L 436.722887 245.85505 
L 454.335989 245.85505 
L 454.335989 242.433267 
L 461.8 242.433267 
" style="fill:none;stroke:#f5deb3;stroke-linecap:square;stroke-width:1.5;"/>
   </g>
   <g id="line2d_20">
    <path clip-path="url(#p2f29da27bb)" d="M 246.891896 293.76 
L 246.891896 289.927604 
L 292.519915 289.927604 
L 292.519915 286.095208 
L 294.851051 286.095208 
L 294.851051 282.262812 
L 307.310267 282.262812 
L 307.310267 278.430416 
L 310.440854 278.430416 
L 310.440854 274.59802 
L 315.877004 274.59802 
L 315.877004 270.765624 
L 323.500092 270.765624 
L 323.500092 266.933228 
L 323.965207 266.933228 
L 323.965207 263.100832 
L 333.522681 263.100832 
L 333.522681 259.268436 
L 333.567783 259.268436 
L 333.567783 255.43604 
L 348.277182 255.43604 
L 348.277182 251.603644 
L 353.007899 251.603644 
L 353.007899 247.771248 
L 353.183192 247.771248 
L 353.183192 243.938851 
L 355.43631 243.938851 
L 355.43631 240.106455 
L 358.716714 240.106455 
L 358.716714 236.274059 
L 362.414232 236.274059 
L 362.414232 232.441663 
L 367.999782 232.441663 
L 367.999782 228.609267 
L 370.36624 228.609267 
L 370.36624 224.776871 
L 372.19826 224.776871 
L 372.19826 220.944475 
L 375.555274 220.944475 
L 375.555274 217.112079 
L 382.804027 217.112079 
L 382.804027 213.279683 
L 383.741993 213.279683 
L 383.741993 209.447287 
L 384.797225 209.447287 
L 384.797225 205.614891 
L 385.595941 205.614891 
L 385.595941 201.782495 
L 393.714696 201.782495 
L 393.714696 197.950099 
L 394.003752 197.950099 
L 394.003752 194.117703 
L 402.273337 194.117703 
L 402.273337 190.285307 
L 424.338249 190.285307 
L 424.338249 186.452911 
L 432.22157 186.452911 
L 432.22157 182.620515 
L 432.22157 182.620515 
L 432.22157 182.620515 
L 460.8 182.620515 
" style="fill:none;stroke:#f5deb3;stroke-linecap:square;stroke-width:1.5;"/>
   </g>
   <g id="line2d_21"/>
   <g id="line2d_22">
    <path clip-path="url(#p2f29da27bb)" d="M 246.144451 293.76 
L 246.144451 289.927604 
L 262.341356 289.927604 
L 262.341356 286.095208 
L 265.493378 286.095208 
L 265.493378 282.262812 
L 267.673529 282.262812 
L 267.673529 278.430416 
L 272.542623 278.430416 
L 272.542623 274.59802 
L 312.690956 274.59802 
L 312.690956 270.765624 
L 325.191924 270.765624 
L 325.191924 266.933228 
L 334.761733 266.933228 
L 334.761733 263.100832 
L 355.687256 263.100832 
L 355.687256 259.268436 
L 365.909607 259.268436 
L 365.909607 255.43604 
L 366.496017 255.43604 
L 366.496017 251.603644 
L 367.84328 251.603644 
L 367.84328 247.771248 
L 379.621561 247.771248 
L 379.621561 243.938851 
L 382.856795 243.938851 
L 382.856795 240.106455 
L 390.488204 240.106455 
L 390.488204 236.274059 
L 408.006142 236.274059 
L 408.006142 232.441663 
L 410.535138 232.441663 
L 410.535138 228.609267 
L 424.079156 228.609267 
L 424.079156 224.776871 
L 426.457609 224.776871 
L 426.457609 220.944475 
L 427.72577 220.944475 
L 427.72577 217.112079 
L 435.838057 217.112079 
L 435.838057 213.279683 
L 438.908998 213.279683 
L 438.908998 209.447287 
L 441.546917 209.447287 
L 441.546917 205.614891 
L 445.294456 205.614891 
L 445.294456 201.782495 
L 456.375903 201.782495 
L 456.375903 197.950099 
L 459.386305 197.950099 
L 459.386305 194.117703 
L 461.8 194.117703 
" style="fill:none;stroke:#f5deb3;stroke-linecap:square;stroke-width:1.5;"/>
   </g>
   <g id="line2d_23">
    <path clip-path="url(#p2f29da27bb)" d="M 337.034954 293.76 
L 337.034954 289.927604 
L 340.376104 289.927604 
L 340.376104 286.095208 
L 342.3208 286.095208 
L 342.3208 282.262812 
L 346.620463 282.262812 
L 346.620463 278.430416 
L 347.028751 278.430416 
L 347.028751 274.59802 
L 350.292276 274.59802 
L 350.292276 270.765624 
L 461.8 270.765624 
" style="fill:none;stroke:#f5deb3;stroke-linecap:square;stroke-width:1.5;"/>
   </g>
   <g id="line2d_24">
    <path clip-path="url(#p2f29da27bb)" d="M 310.853883 293.76 
L 310.853883 289.927604 
L 315.134191 289.927604 
L 315.134191 286.095208 
L 317.780909 286.095208 
L 317.780909 282.262812 
L 322.949514 282.262812 
L 322.949514 278.430416 
L 384.025714 278.430416 
L 384.025714 274.59802 
L 389.143729 274.59802 
L 389.143729 270.765624 
L 389.624215 270.765624 
L 389.624215 266.933228 
L 390.447201 266.933228 
L 390.447201 263.100832 
L 398.895068 263.100832 
L 398.895068 259.268436 
L 404.199448 259.268436 
L 404.199448 255.43604 
L 411.298175 255.43604 
L 411.298175 251.603644 
L 412.311782 251.603644 
L 412.311782 247.771248 
L 412.461196 247.771248 
L 412.461196 243.938851 
L 446.28247 243.938851 
L 446.28247 240.106455 
L 446.764842 240.106455 
L 446.764842 236.274059 
L 446.926178 236.274059 
L 446.926178 232.441663 
L 449.913214 232.441663 
L 449.913214 228.609267 
L 452.201655 228.609267 
L 452.201655 224.776871 
L 452.265962 224.776871 
L 452.265962 220.944475 
L 453.496286 220.944475 
L 453.496286 217.112079 
L 456.823546 217.112079 
L 456.823546 213.279683 
L 461.8 213.279683 
" style="fill:none;stroke:#f5deb3;stroke-linecap:square;stroke-width:1.5;"/>
   </g>
   <g id="line2d_25">
    <path clip-path="url(#p2f29da27bb)" d="M 431.844086 293.76 
L 431.844086 289.927604 
L 433.340669 289.927604 
L 433.340669 286.095208 
L 434.106758 286.095208 
L 434.106758 282.262812 
L 461.8 282.262812 
" style="fill:none;stroke:#f5deb3;stroke-linecap:square;stroke-width:1.5;"/>
   </g>
   <g id="line2d_26">
    <path clip-path="url(#p2f29da27bb)" d="M 303.209282 293.76 
L 303.209282 289.927604 
L 324.000768 289.927604 
L 324.000768 286.095208 
L 330.345866 286.095208 
L 330.345866 282.262812 
L 334.898343 282.262812 
L 334.898343 278.430416 
L 341.775145 278.430416 
L 341.775145 274.59802 
L 391.034298 274.59802 
L 391.034298 270.765624 
L 431.777293 270.765624 
L 431.777293 266.933228 
L 432.423563 266.933228 
L 432.423563 263.100832 
L 432.863984 263.100832 
L 432.863984 259.268436 
L 439.739379 259.268436 
L 439.739379 255.43604 
L 450.519717 255.43604 
L 450.519717 251.603644 
L 450.944088 251.603644 
L 450.944088 247.771248 
L 461.8 247.771248 
" style="fill:none;stroke:#f5deb3;stroke-linecap:square;stroke-width:1.5;"/>
   </g>
   <g id="line2d_27">
    <path clip-path="url(#p2f29da27bb)" d="M 247.534957 293.76 
L 247.534957 289.927604 
L 297.668317 289.927604 
L 297.668317 286.095208 
L 300.05137 286.095208 
L 300.05137 282.262812 
L 305.556404 282.262812 
L 305.556404 278.430416 
L 307.096418 278.430416 
L 307.096418 274.59802 
L 325.998912 274.59802 
L 325.998912 270.765624 
L 335.099697 270.765624 
L 335.099697 266.933228 
L 335.381027 266.933228 
L 335.381027 263.100832 
L 349.922832 263.100832 
L 349.922832 259.268436 
L 354.10682 259.268436 
L 354.10682 255.43604 
L 354.141013 255.43604 
L 354.141013 251.603644 
L 369.544671 251.603644 
L 369.544671 247.771248 
L 377.379037 247.771248 
L 377.379037 243.938851 
L 380.180857 243.938851 
L 380.180857 240.106455 
L 386.713825 240.106455 
L 386.713825 236.274059 
L 386.829831 236.274059 
L 386.829831 232.441663 
L 387.045505 232.441663 
L 387.045505 228.609267 
L 390.342387 228.609267 
L 390.342387 224.776871 
L 392.386869 224.776871 
L 392.386869 220.944475 
L 404.58753 220.944475 
L 404.58753 217.112079 
L 407.115754 217.112079 
L 407.115754 213.279683 
L 408.327118 213.279683 
L 408.327118 209.447287 
L 410.056555 209.447287 
L 410.056555 205.614891 
L 413.696108 205.614891 
L 413.696108 201.782495 
L 417.760682 201.782495 
L 417.760682 197.950099 
L 440.634062 197.950099 
L 440.634062 194.117703 
L 444.662787 194.117703 
L 444.662787 190.285307 
L 447.079738 190.285307 
L 447.079738 186.452911 
L 453.38915 186.452911 
L 453.38915 182.620515 
L 461.422039 182.620515 
L 461.422039 178.788119 
L 461.422039 178.788119 
" style="fill:none;stroke:#f5deb3;stroke-linecap:square;stroke-width:1.5;"/>
   </g>
   <g id="line2d_28">
    <path clip-path="url(#p2f29da27bb)" d="M 280.994849 293.76 
L 280.994849 289.927604 
L 281.115952 289.927604 
L 281.115952 286.095208 
L 284.145712 286.095208 
L 284.145712 282.262812 
L 285.544678 282.262812 
L 285.544678 278.430416 
L 306.065181 278.430416 
L 306.065181 274.59802 
L 364.943103 274.59802 
L 364.943103 270.765624 
L 366.713155 270.765624 
L 366.713155 266.933228 
L 369.318375 266.933228 
L 369.318375 263.100832 
L 388.880064 263.100832 
L 388.880064 259.268436 
L 410.382039 259.268436 
L 410.382039 255.43604 
L 411.016803 255.43604 
L 411.016803 251.603644 
L 411.227372 251.603644 
L 411.227372 247.771248 
L 411.963543 247.771248 
L 411.963543 243.938851 
L 443.510113 243.938851 
L 443.510113 240.106455 
L 454.622538 240.106455 
L 454.622538 236.274059 
L 455.806453 236.274059 
L 455.806453 232.441663 
L 456.029546 232.441663 
L 456.029546 228.609267 
L 461.8 228.609267 
" style="fill:none;stroke:#f5deb3;stroke-linecap:square;stroke-width:1.5;"/>
   </g>
   <g id="line2d_29">
    <path clip-path="url(#p2f29da27bb)" d="M 336.166075 293.76 
L 336.166075 289.927604 
L 336.166075 289.927604 
L 336.166075 286.095208 
L 336.166075 286.095208 
L 336.166075 282.262812 
L 343.871813 282.262812 
L 343.871813 278.430416 
L 343.871813 278.430416 
L 343.871813 274.59802 
L 343.871813 274.59802 
L 343.871813 270.765624 
L 351.766734 270.765624 
L 351.766734 266.933228 
L 351.766734 266.933228 
L 351.766734 263.100832 
L 351.766734 263.100832 
L 351.766734 259.268436 
L 351.766734 259.268436 
L 351.766734 259.268436 
L 460.8 259.268436 
" style="fill:none;stroke:#f5deb3;stroke-linecap:square;stroke-width:1.5;"/>
   </g>
   <g id="line2d_30">
    <path clip-path="url(#p2f29da27bb)" d="M 427.896955 293.76 
L 427.896955 289.927604 
L 439.696225 289.927604 
L 439.696225 286.095208 
L 440.237699 286.095208 
L 440.237699 282.262812 
L 440.237699 282.262812 
L 440.237699 282.262812 
L 460.8 282.262812 
" style="fill:none;stroke:#f5deb3;stroke-linecap:square;stroke-width:1.5;"/>
   </g>
   <g id="matplotlib.axis_1">
    <g id="xtick_1">
     <g id="line2d_31">
      <path clip-path="url(#p2f29da27bb)" d="M 156.971061 293.76 
L 156.971061 3.456 
" style="fill:none;stroke:#b0b0b0;stroke-linecap:square;stroke-width:0.8;"/>
     </g>
     <g id="line2d_32">
      <defs>
       <path d="M 0 0 
L 0 3.5 
" id="m0bdaf9d008" style="stroke:#000000;stroke-width:0.8;"/>
      </defs>
      <g>
       <use style="stroke:#000000;stroke-width:0.8;" x="156.971061" xlink:href="#m0bdaf9d008" y="293.76"/>
      </g>
     </g>
     <g id="text_1">
      <!-- 1 -->
      <g transform="translate(150.608561 315.956875)scale(0.2 -0.2)">
       <defs>
        <path d="M 794 531 
L 1825 531 
L 1825 4091 
L 703 3866 
L 703 4441 
L 1819 4666 
L 2450 4666 
L 2450 531 
L 3481 531 
L 3481 0 
L 794 0 
L 794 531 
z
" id="DejaVuSans-31" transform="scale(0.015625)"/>
       </defs>
       <use xlink:href="#DejaVuSans-31"/>
      </g>
     </g>
    </g>
    <g id="xtick_2">
     <g id="line2d_33">
      <path clip-path="url(#p2f29da27bb)" d="M 346.497182 293.76 
L 346.497182 3.456 
" style="fill:none;stroke:#b0b0b0;stroke-linecap:square;stroke-width:0.8;"/>
     </g>
     <g id="line2d_34">
      <g>
       <use style="stroke:#000000;stroke-width:0.8;" x="346.497182" xlink:href="#m0bdaf9d008" y="293.76"/>
      </g>
     </g>
     <g id="text_2">
      <!-- 3 -->
      <g transform="translate(340.134682 315.956875)scale(0.2 -0.2)">
       <defs>
        <path d="M 2597 2516 
Q 3050 2419 3304 2112 
Q 3559 1806 3559 1356 
Q 3559 666 3084 287 
Q 2609 -91 1734 -91 
Q 1441 -91 1130 -33 
Q 819 25 488 141 
L 488 750 
Q 750 597 1062 519 
Q 1375 441 1716 441 
Q 2309 441 2620 675 
Q 2931 909 2931 1356 
Q 2931 1769 2642 2001 
Q 2353 2234 1838 2234 
L 1294 2234 
L 1294 2753 
L 1863 2753 
Q 2328 2753 2575 2939 
Q 2822 3125 2822 3475 
Q 2822 3834 2567 4026 
Q 2313 4219 1838 4219 
Q 1578 4219 1281 4162 
Q 984 4106 628 3988 
L 628 4550 
Q 988 4650 1302 4700 
Q 1616 4750 1894 4750 
Q 2613 4750 3031 4423 
Q 3450 4097 3450 3541 
Q 3450 3153 3228 2886 
Q 3006 2619 2597 2516 
z
" id="DejaVuSans-33" transform="scale(0.015625)"/>
       </defs>
       <use xlink:href="#DejaVuSans-33"/>
      </g>
     </g>
    </g>
    <g id="xtick_3">
     <g id="line2d_35">
      <path clip-path="url(#p2f29da27bb)" d="M 90.734524 293.76 
L 90.734524 3.456 
" style="fill:none;stroke:#b0b0b0;stroke-linecap:square;stroke-width:0.8;"/>
     </g>
     <g id="line2d_36">
      <defs>
       <path d="M 0 0 
L 0 2 
" id="mb72177fd1d" style="stroke:#000000;stroke-width:0.6;"/>
      </defs>
      <g>
       <use style="stroke:#000000;stroke-width:0.6;" x="90.734524" xlink:href="#mb72177fd1d" y="293.76"/>
      </g>
     </g>
    </g>
    <g id="xtick_4">
     <g id="line2d_37">
      <path clip-path="url(#p2f29da27bb)" d="M 107.42147 293.76 
L 107.42147 3.456 
" style="fill:none;stroke:#b0b0b0;stroke-linecap:square;stroke-width:0.8;"/>
     </g>
     <g id="line2d_38">
      <g>
       <use style="stroke:#000000;stroke-width:0.6;" x="107.42147" xlink:href="#mb72177fd1d" y="293.76"/>
      </g>
     </g>
    </g>
    <g id="xtick_5">
     <g id="line2d_39">
      <path clip-path="url(#p2f29da27bb)" d="M 119.261048 293.76 
L 119.261048 3.456 
" style="fill:none;stroke:#b0b0b0;stroke-linecap:square;stroke-width:0.8;"/>
     </g>
     <g id="line2d_40">
      <g>
       <use style="stroke:#000000;stroke-width:0.6;" x="119.261048" xlink:href="#mb72177fd1d" y="293.76"/>
      </g>
     </g>
    </g>
    <g id="xtick_6">
     <g id="line2d_41">
      <path clip-path="url(#p2f29da27bb)" d="M 128.444537 293.76 
L 128.444537 3.456 
" style="fill:none;stroke:#b0b0b0;stroke-linecap:square;stroke-width:0.8;"/>
     </g>
     <g id="line2d_42">
      <g>
       <use style="stroke:#000000;stroke-width:0.6;" x="128.444537" xlink:href="#mb72177fd1d" y="293.76"/>
      </g>
     </g>
    </g>
    <g id="xtick_7">
     <g id="line2d_43">
      <path clip-path="url(#p2f29da27bb)" d="M 135.947994 293.76 
L 135.947994 3.456 
" style="fill:none;stroke:#b0b0b0;stroke-linecap:square;stroke-width:0.8;"/>
     </g>
     <g id="line2d_44">
      <g>
       <use style="stroke:#000000;stroke-width:0.6;" x="135.947994" xlink:href="#mb72177fd1d" y="293.76"/>
      </g>
     </g>
    </g>
    <g id="xtick_8">
     <g id="line2d_45">
      <path clip-path="url(#p2f29da27bb)" d="M 142.292077 293.76 
L 142.292077 3.456 
" style="fill:none;stroke:#b0b0b0;stroke-linecap:square;stroke-width:0.8;"/>
     </g>
     <g id="line2d_46">
      <g>
       <use style="stroke:#000000;stroke-width:0.6;" x="142.292077" xlink:href="#mb72177fd1d" y="293.76"/>
      </g>
     </g>
    </g>
    <g id="xtick_9">
     <g id="line2d_47">
      <path clip-path="url(#p2f29da27bb)" d="M 147.787571 293.76 
L 147.787571 3.456 
" style="fill:none;stroke:#b0b0b0;stroke-linecap:square;stroke-width:0.8;"/>
     </g>
     <g id="line2d_48">
      <g>
       <use style="stroke:#000000;stroke-width:0.6;" x="147.787571" xlink:href="#mb72177fd1d" y="293.76"/>
      </g>
     </g>
    </g>
    <g id="xtick_10">
     <g id="line2d_49">
      <path clip-path="url(#p2f29da27bb)" d="M 152.634941 293.76 
L 152.634941 3.456 
" style="fill:none;stroke:#b0b0b0;stroke-linecap:square;stroke-width:0.8;"/>
     </g>
     <g id="line2d_50">
      <g>
       <use style="stroke:#000000;stroke-width:0.6;" x="152.634941" xlink:href="#mb72177fd1d" y="293.76"/>
      </g>
     </g>
    </g>
    <g id="xtick_11">
     <g id="line2d_51">
      <path clip-path="url(#p2f29da27bb)" d="M 185.497585 293.76 
L 185.497585 3.456 
" style="fill:none;stroke:#b0b0b0;stroke-linecap:square;stroke-width:0.8;"/>
     </g>
     <g id="line2d_52">
      <g>
       <use style="stroke:#000000;stroke-width:0.6;" x="185.497585" xlink:href="#mb72177fd1d" y="293.76"/>
      </g>
     </g>
    </g>
    <g id="xtick_12">
     <g id="line2d_53">
      <path clip-path="url(#p2f29da27bb)" d="M 202.184531 293.76 
L 202.184531 3.456 
" style="fill:none;stroke:#b0b0b0;stroke-linecap:square;stroke-width:0.8;"/>
     </g>
     <g id="line2d_54">
      <g>
       <use style="stroke:#000000;stroke-width:0.6;" x="202.184531" xlink:href="#mb72177fd1d" y="293.76"/>
      </g>
     </g>
    </g>
    <g id="xtick_13">
     <g id="line2d_55">
      <path clip-path="url(#p2f29da27bb)" d="M 214.024108 293.76 
L 214.024108 3.456 
" style="fill:none;stroke:#b0b0b0;stroke-linecap:square;stroke-width:0.8;"/>
     </g>
     <g id="line2d_56">
      <g>
       <use style="stroke:#000000;stroke-width:0.6;" x="214.024108" xlink:href="#mb72177fd1d" y="293.76"/>
      </g>
     </g>
    </g>
    <g id="xtick_14">
     <g id="line2d_57">
      <path clip-path="url(#p2f29da27bb)" d="M 223.207598 293.76 
L 223.207598 3.456 
" style="fill:none;stroke:#b0b0b0;stroke-linecap:square;stroke-width:0.8;"/>
     </g>
     <g id="line2d_58">
      <g>
       <use style="stroke:#000000;stroke-width:0.6;" x="223.207598" xlink:href="#mb72177fd1d" y="293.76"/>
      </g>
     </g>
    </g>
    <g id="xtick_15">
     <g id="line2d_59">
      <path clip-path="url(#p2f29da27bb)" d="M 230.711055 293.76 
L 230.711055 3.456 
" style="fill:none;stroke:#b0b0b0;stroke-linecap:square;stroke-width:0.8;"/>
     </g>
     <g id="line2d_60">
      <g>
       <use style="stroke:#000000;stroke-width:0.6;" x="230.711055" xlink:href="#mb72177fd1d" y="293.76"/>
      </g>
     </g>
    </g>
    <g id="xtick_16">
     <g id="line2d_61">
      <path clip-path="url(#p2f29da27bb)" d="M 237.055138 293.76 
L 237.055138 3.456 
" style="fill:none;stroke:#b0b0b0;stroke-linecap:square;stroke-width:0.8;"/>
     </g>
     <g id="line2d_62">
      <g>
       <use style="stroke:#000000;stroke-width:0.6;" x="237.055138" xlink:href="#mb72177fd1d" y="293.76"/>
      </g>
     </g>
    </g>
    <g id="xtick_17">
     <g id="line2d_63">
      <path clip-path="url(#p2f29da27bb)" d="M 242.550632 293.76 
L 242.550632 3.456 
" style="fill:none;stroke:#b0b0b0;stroke-linecap:square;stroke-width:0.8;"/>
     </g>
     <g id="line2d_64">
      <g>
       <use style="stroke:#000000;stroke-width:0.6;" x="242.550632" xlink:href="#mb72177fd1d" y="293.76"/>
      </g>
     </g>
    </g>
    <g id="xtick_18">
     <g id="line2d_65">
      <path clip-path="url(#p2f29da27bb)" d="M 247.398002 293.76 
L 247.398002 3.456 
" style="fill:none;stroke:#b0b0b0;stroke-linecap:square;stroke-width:0.8;"/>
     </g>
     <g id="line2d_66">
      <g>
       <use style="stroke:#000000;stroke-width:0.6;" x="247.398002" xlink:href="#mb72177fd1d" y="293.76"/>
      </g>
     </g>
    </g>
    <g id="xtick_19">
     <g id="line2d_67">
      <path clip-path="url(#p2f29da27bb)" d="M 280.260645 293.76 
L 280.260645 3.456 
" style="fill:none;stroke:#b0b0b0;stroke-linecap:square;stroke-width:0.8;"/>
     </g>
     <g id="line2d_68">
      <g>
       <use style="stroke:#000000;stroke-width:0.6;" x="280.260645" xlink:href="#mb72177fd1d" y="293.76"/>
      </g>
     </g>
    </g>
    <g id="xtick_20">
     <g id="line2d_69">
      <path clip-path="url(#p2f29da27bb)" d="M 296.947592 293.76 
L 296.947592 3.456 
" style="fill:none;stroke:#b0b0b0;stroke-linecap:square;stroke-width:0.8;"/>
     </g>
     <g id="line2d_70">
      <g>
       <use style="stroke:#000000;stroke-width:0.6;" x="296.947592" xlink:href="#mb72177fd1d" y="293.76"/>
      </g>
     </g>
    </g>
    <g id="xtick_21">
     <g id="line2d_71">
      <path clip-path="url(#p2f29da27bb)" d="M 308.787169 293.76 
L 308.787169 3.456 
" style="fill:none;stroke:#b0b0b0;stroke-linecap:square;stroke-width:0.8;"/>
     </g>
     <g id="line2d_72">
      <g>
       <use style="stroke:#000000;stroke-width:0.6;" x="308.787169" xlink:href="#mb72177fd1d" y="293.76"/>
      </g>
     </g>
    </g>
    <g id="xtick_22">
     <g id="line2d_73">
      <path clip-path="url(#p2f29da27bb)" d="M 317.970659 293.76 
L 317.970659 3.456 
" style="fill:none;stroke:#b0b0b0;stroke-linecap:square;stroke-width:0.8;"/>
     </g>
     <g id="line2d_74">
      <g>
       <use style="stroke:#000000;stroke-width:0.6;" x="317.970659" xlink:href="#mb72177fd1d" y="293.76"/>
      </g>
     </g>
    </g>
    <g id="xtick_23">
     <g id="line2d_75">
      <path clip-path="url(#p2f29da27bb)" d="M 325.474116 293.76 
L 325.474116 3.456 
" style="fill:none;stroke:#b0b0b0;stroke-linecap:square;stroke-width:0.8;"/>
     </g>
     <g id="line2d_76">
      <g>
       <use style="stroke:#000000;stroke-width:0.6;" x="325.474116" xlink:href="#mb72177fd1d" y="293.76"/>
      </g>
     </g>
    </g>
    <g id="xtick_24">
     <g id="line2d_77">
      <path clip-path="url(#p2f29da27bb)" d="M 331.818199 293.76 
L 331.818199 3.456 
" style="fill:none;stroke:#b0b0b0;stroke-linecap:square;stroke-width:0.8;"/>
     </g>
     <g id="line2d_78">
      <g>
       <use style="stroke:#000000;stroke-width:0.6;" x="331.818199" xlink:href="#mb72177fd1d" y="293.76"/>
      </g>
     </g>
    </g>
    <g id="xtick_25">
     <g id="line2d_79">
      <path clip-path="url(#p2f29da27bb)" d="M 337.313693 293.76 
L 337.313693 3.456 
" style="fill:none;stroke:#b0b0b0;stroke-linecap:square;stroke-width:0.8;"/>
     </g>
     <g id="line2d_80">
      <g>
       <use style="stroke:#000000;stroke-width:0.6;" x="337.313693" xlink:href="#mb72177fd1d" y="293.76"/>
      </g>
     </g>
    </g>
    <g id="xtick_26">
     <g id="line2d_81">
      <path clip-path="url(#p2f29da27bb)" d="M 342.161063 293.76 
L 342.161063 3.456 
" style="fill:none;stroke:#b0b0b0;stroke-linecap:square;stroke-width:0.8;"/>
     </g>
     <g id="line2d_82">
      <g>
       <use style="stroke:#000000;stroke-width:0.6;" x="342.161063" xlink:href="#mb72177fd1d" y="293.76"/>
      </g>
     </g>
    </g>
    <g id="xtick_27">
     <g id="line2d_83">
      <path clip-path="url(#p2f29da27bb)" d="M 375.023706 293.76 
L 375.023706 3.456 
" style="fill:none;stroke:#b0b0b0;stroke-linecap:square;stroke-width:0.8;"/>
     </g>
     <g id="line2d_84">
      <g>
       <use style="stroke:#000000;stroke-width:0.6;" x="375.023706" xlink:href="#mb72177fd1d" y="293.76"/>
      </g>
     </g>
    </g>
    <g id="xtick_28">
     <g id="line2d_85">
      <path clip-path="url(#p2f29da27bb)" d="M 391.710653 293.76 
L 391.710653 3.456 
" style="fill:none;stroke:#b0b0b0;stroke-linecap:square;stroke-width:0.8;"/>
     </g>
     <g id="line2d_86">
      <g>
       <use style="stroke:#000000;stroke-width:0.6;" x="391.710653" xlink:href="#mb72177fd1d" y="293.76"/>
      </g>
     </g>
    </g>
    <g id="xtick_29">
     <g id="line2d_87">
      <path clip-path="url(#p2f29da27bb)" d="M 403.55023 293.76 
L 403.55023 3.456 
" style="fill:none;stroke:#b0b0b0;stroke-linecap:square;stroke-width:0.8;"/>
     </g>
     <g id="line2d_88">
      <g>
       <use style="stroke:#000000;stroke-width:0.6;" x="403.55023" xlink:href="#mb72177fd1d" y="293.76"/>
      </g>
     </g>
    </g>
    <g id="xtick_30">
     <g id="line2d_89">
      <path clip-path="url(#p2f29da27bb)" d="M 412.73372 293.76 
L 412.73372 3.456 
" style="fill:none;stroke:#b0b0b0;stroke-linecap:square;stroke-width:0.8;"/>
     </g>
     <g id="line2d_90">
      <g>
       <use style="stroke:#000000;stroke-width:0.6;" x="412.73372" xlink:href="#mb72177fd1d" y="293.76"/>
      </g>
     </g>
    </g>
    <g id="xtick_31">
     <g id="line2d_91">
      <path clip-path="url(#p2f29da27bb)" d="M 420.237177 293.76 
L 420.237177 3.456 
" style="fill:none;stroke:#b0b0b0;stroke-linecap:square;stroke-width:0.8;"/>
     </g>
     <g id="line2d_92">
      <g>
       <use style="stroke:#000000;stroke-width:0.6;" x="420.237177" xlink:href="#mb72177fd1d" y="293.76"/>
      </g>
     </g>
    </g>
    <g id="xtick_32">
     <g id="line2d_93">
      <path clip-path="url(#p2f29da27bb)" d="M 426.581259 293.76 
L 426.581259 3.456 
" style="fill:none;stroke:#b0b0b0;stroke-linecap:square;stroke-width:0.8;"/>
     </g>
     <g id="line2d_94">
      <g>
       <use style="stroke:#000000;stroke-width:0.6;" x="426.581259" xlink:href="#mb72177fd1d" y="293.76"/>
      </g>
     </g>
    </g>
    <g id="xtick_33">
     <g id="line2d_95">
      <path clip-path="url(#p2f29da27bb)" d="M 432.076754 293.76 
L 432.076754 3.456 
" style="fill:none;stroke:#b0b0b0;stroke-linecap:square;stroke-width:0.8;"/>
     </g>
     <g id="line2d_96">
      <g>
       <use style="stroke:#000000;stroke-width:0.6;" x="432.076754" xlink:href="#mb72177fd1d" y="293.76"/>
      </g>
     </g>
    </g>
    <g id="xtick_34">
     <g id="line2d_97">
      <path clip-path="url(#p2f29da27bb)" d="M 436.924123 293.76 
L 436.924123 3.456 
" style="fill:none;stroke:#b0b0b0;stroke-linecap:square;stroke-width:0.8;"/>
     </g>
     <g id="line2d_98">
      <g>
       <use style="stroke:#000000;stroke-width:0.6;" x="436.924123" xlink:href="#mb72177fd1d" y="293.76"/>
      </g>
     </g>
    </g>
    <g id="text_3">
     <!-- log10 of FEvals / DIM -->
     <g transform="translate(156.430563 339.313125)scale(0.2 -0.2)">
      <defs>
       <path d="M 603 4863 
L 1178 4863 
L 1178 0 
L 603 0 
L 603 4863 
z
" id="DejaVuSans-6c" transform="scale(0.015625)"/>
       <path d="M 1959 3097 
Q 1497 3097 1228 2736 
Q 959 2375 959 1747 
Q 959 1119 1226 758 
Q 1494 397 1959 397 
Q 2419 397 2687 759 
Q 2956 1122 2956 1747 
Q 2956 2369 2687 2733 
Q 2419 3097 1959 3097 
z
M 1959 3584 
Q 2709 3584 3137 3096 
Q 3566 2609 3566 1747 
Q 3566 888 3137 398 
Q 2709 -91 1959 -91 
Q 1206 -91 779 398 
Q 353 888 353 1747 
Q 353 2609 779 3096 
Q 1206 3584 1959 3584 
z
" id="DejaVuSans-6f" transform="scale(0.015625)"/>
       <path d="M 2906 1791 
Q 2906 2416 2648 2759 
Q 2391 3103 1925 3103 
Q 1463 3103 1205 2759 
Q 947 2416 947 1791 
Q 947 1169 1205 825 
Q 1463 481 1925 481 
Q 2391 481 2648 825 
Q 2906 1169 2906 1791 
z
M 3481 434 
Q 3481 -459 3084 -895 
Q 2688 -1331 1869 -1331 
Q 1566 -1331 1297 -1286 
Q 1028 -1241 775 -1147 
L 775 -588 
Q 1028 -725 1275 -790 
Q 1522 -856 1778 -856 
Q 2344 -856 2625 -561 
Q 2906 -266 2906 331 
L 2906 616 
Q 2728 306 2450 153 
Q 2172 0 1784 0 
Q 1141 0 747 490 
Q 353 981 353 1791 
Q 353 2603 747 3093 
Q 1141 3584 1784 3584 
Q 2172 3584 2450 3431 
Q 2728 3278 2906 2969 
L 2906 3500 
L 3481 3500 
L 3481 434 
z
" id="DejaVuSans-67" transform="scale(0.015625)"/>
       <path d="M 2034 4250 
Q 1547 4250 1301 3770 
Q 1056 3291 1056 2328 
Q 1056 1369 1301 889 
Q 1547 409 2034 409 
Q 2525 409 2770 889 
Q 3016 1369 3016 2328 
Q 3016 3291 2770 3770 
Q 2525 4250 2034 4250 
z
M 2034 4750 
Q 2819 4750 3233 4129 
Q 3647 3509 3647 2328 
Q 3647 1150 3233 529 
Q 2819 -91 2034 -91 
Q 1250 -91 836 529 
Q 422 1150 422 2328 
Q 422 3509 836 4129 
Q 1250 4750 2034 4750 
z
" id="DejaVuSans-30" transform="scale(0.015625)"/>
       <path id="DejaVuSans-20" transform="scale(0.015625)"/>
       <path d="M 2375 4863 
L 2375 4384 
L 1825 4384 
Q 1516 4384 1395 4259 
Q 1275 4134 1275 3809 
L 1275 3500 
L 2222 3500 
L 2222 3053 
L 1275 3053 
L 1275 0 
L 697 0 
L 697 3053 
L 147 3053 
L 147 3500 
L 697 3500 
L 697 3744 
Q 697 4328 969 4595 
Q 1241 4863 1831 4863 
L 2375 4863 
z
" id="DejaVuSans-66" transform="scale(0.015625)"/>
       <path d="M 628 4666 
L 3309 4666 
L 3309 4134 
L 1259 4134 
L 1259 2759 
L 3109 2759 
L 3109 2228 
L 1259 2228 
L 1259 0 
L 628 0 
L 628 4666 
z
" id="DejaVuSans-46" transform="scale(0.015625)"/>
       <path d="M 628 4666 
L 3578 4666 
L 3578 4134 
L 1259 4134 
L 1259 2753 
L 3481 2753 
L 3481 2222 
L 1259 2222 
L 1259 531 
L 3634 531 
L 3634 0 
L 628 0 
L 628 4666 
z
" id="DejaVuSans-45" transform="scale(0.015625)"/>
       <path d="M 191 3500 
L 800 3500 
L 1894 563 
L 2988 3500 
L 3597 3500 
L 2284 0 
L 1503 0 
L 191 3500 
z
" id="DejaVuSans-76" transform="scale(0.015625)"/>
       <path d="M 2194 1759 
Q 1497 1759 1228 1600 
Q 959 1441 959 1056 
Q 959 750 1161 570 
Q 1363 391 1709 391 
Q 2188 391 2477 730 
Q 2766 1069 2766 1631 
L 2766 1759 
L 2194 1759 
z
M 3341 1997 
L 3341 0 
L 2766 0 
L 2766 531 
Q 2569 213 2275 61 
Q 1981 -91 1556 -91 
Q 1019 -91 701 211 
Q 384 513 384 1019 
Q 384 1609 779 1909 
Q 1175 2209 1959 2209 
L 2766 2209 
L 2766 2266 
Q 2766 2663 2505 2880 
Q 2244 3097 1772 3097 
Q 1472 3097 1187 3025 
Q 903 2953 641 2809 
L 641 3341 
Q 956 3463 1253 3523 
Q 1550 3584 1831 3584 
Q 2591 3584 2966 3190 
Q 3341 2797 3341 1997 
z
" id="DejaVuSans-61" transform="scale(0.015625)"/>
       <path d="M 2834 3397 
L 2834 2853 
Q 2591 2978 2328 3040 
Q 2066 3103 1784 3103 
Q 1356 3103 1142 2972 
Q 928 2841 928 2578 
Q 928 2378 1081 2264 
Q 1234 2150 1697 2047 
L 1894 2003 
Q 2506 1872 2764 1633 
Q 3022 1394 3022 966 
Q 3022 478 2636 193 
Q 2250 -91 1575 -91 
Q 1294 -91 989 -36 
Q 684 19 347 128 
L 347 722 
Q 666 556 975 473 
Q 1284 391 1588 391 
Q 1994 391 2212 530 
Q 2431 669 2431 922 
Q 2431 1156 2273 1281 
Q 2116 1406 1581 1522 
L 1381 1569 
Q 847 1681 609 1914 
Q 372 2147 372 2553 
Q 372 3047 722 3315 
Q 1072 3584 1716 3584 
Q 2034 3584 2315 3537 
Q 2597 3491 2834 3397 
z
" id="DejaVuSans-73" transform="scale(0.015625)"/>
       <path d="M 1625 4666 
L 2156 4666 
L 531 -594 
L 0 -594 
L 1625 4666 
z
" id="DejaVuSans-2f" transform="scale(0.015625)"/>
       <path d="M 1259 4147 
L 1259 519 
L 2022 519 
Q 2988 519 3436 956 
Q 3884 1394 3884 2338 
Q 3884 3275 3436 3711 
Q 2988 4147 2022 4147 
L 1259 4147 
z
M 628 4666 
L 1925 4666 
Q 3281 4666 3915 4102 
Q 4550 3538 4550 2338 
Q 4550 1131 3912 565 
Q 3275 0 1925 0 
L 628 0 
L 628 4666 
z
" id="DejaVuSans-44" transform="scale(0.015625)"/>
       <path d="M 628 4666 
L 1259 4666 
L 1259 0 
L 628 0 
L 628 4666 
z
" id="DejaVuSans-49" transform="scale(0.015625)"/>
       <path d="M 628 4666 
L 1569 4666 
L 2759 1491 
L 3956 4666 
L 4897 4666 
L 4897 0 
L 4281 0 
L 4281 4097 
L 3078 897 
L 2444 897 
L 1241 4097 
L 1241 0 
L 628 0 
L 628 4666 
z
" id="DejaVuSans-4d" transform="scale(0.015625)"/>
      </defs>
      <use xlink:href="#DejaVuSans-6c"/>
      <use x="27.783203" xlink:href="#DejaVuSans-6f"/>
      <use x="88.964844" xlink:href="#DejaVuSans-67"/>
      <use x="152.441406" xlink:href="#DejaVuSans-31"/>
      <use x="216.064453" xlink:href="#DejaVuSans-30"/>
      <use x="279.6875" xlink:href="#DejaVuSans-20"/>
      <use x="311.474609" xlink:href="#DejaVuSans-6f"/>
      <use x="372.65625" xlink:href="#DejaVuSans-66"/>
      <use x="407.861328" xlink:href="#DejaVuSans-20"/>
      <use x="439.648438" xlink:href="#DejaVuSans-46"/>
      <use x="497.167969" xlink:href="#DejaVuSans-45"/>
      <use x="560.351562" xlink:href="#DejaVuSans-76"/>
      <use x="619.53125" xlink:href="#DejaVuSans-61"/>
      <use x="680.810547" xlink:href="#DejaVuSans-6c"/>
      <use x="708.59375" xlink:href="#DejaVuSans-73"/>
      <use x="760.693359" xlink:href="#DejaVuSans-20"/>
      <use x="792.480469" xlink:href="#DejaVuSans-2f"/>
      <use x="826.171875" xlink:href="#DejaVuSans-20"/>
      <use x="857.958984" xlink:href="#DejaVuSans-44"/>
      <use x="934.960938" xlink:href="#DejaVuSans-49"/>
      <use x="964.453125" xlink:href="#DejaVuSans-4d"/>
     </g>
    </g>
   </g>
   <g id="matplotlib.axis_2">
    <g id="ytick_1">
     <g id="line2d_99">
      <path clip-path="url(#p2f29da27bb)" d="M 62.208 293.76 
L 460.8 293.76 
" style="fill:none;stroke:#b0b0b0;stroke-linecap:square;stroke-width:0.8;"/>
     </g>
     <g id="line2d_100">
      <defs>
       <path d="M 0 0 
L -3.5 0 
" id="m0f1f629b3a" style="stroke:#000000;stroke-width:0.8;"/>
      </defs>
      <g>
       <use style="stroke:#000000;stroke-width:0.8;" x="62.208" xlink:href="#m0f1f629b3a" y="293.76"/>
      </g>
     </g>
     <g id="text_4">
      <!-- 0.0 -->
      <g transform="translate(29.763 299.83875)scale(0.16 -0.16)">
       <defs>
        <path d="M 684 794 
L 1344 794 
L 1344 0 
L 684 0 
L 684 794 
z
" id="DejaVuSans-2e" transform="scale(0.015625)"/>
       </defs>
       <use xlink:href="#DejaVuSans-30"/>
       <use x="63.623047" xlink:href="#DejaVuSans-2e"/>
       <use x="95.410156" xlink:href="#DejaVuSans-30"/>
      </g>
     </g>
    </g>
    <g id="ytick_2">
     <g id="line2d_101">
      <path clip-path="url(#p2f29da27bb)" d="M 62.208 236.274059 
L 460.8 236.274059 
" style="fill:none;stroke:#b0b0b0;stroke-linecap:square;stroke-width:0.8;"/>
     </g>
     <g id="line2d_102">
      <g>
       <use style="stroke:#000000;stroke-width:0.8;" x="62.208" xlink:href="#m0f1f629b3a" y="236.274059"/>
      </g>
     </g>
     <g id="text_5">
      <!-- 0.2 -->
      <g transform="translate(29.763 242.352809)scale(0.16 -0.16)">
       <defs>
        <path d="M 1228 531 
L 3431 531 
L 3431 0 
L 469 0 
L 469 531 
Q 828 903 1448 1529 
Q 2069 2156 2228 2338 
Q 2531 2678 2651 2914 
Q 2772 3150 2772 3378 
Q 2772 3750 2511 3984 
Q 2250 4219 1831 4219 
Q 1534 4219 1204 4116 
Q 875 4013 500 3803 
L 500 4441 
Q 881 4594 1212 4672 
Q 1544 4750 1819 4750 
Q 2544 4750 2975 4387 
Q 3406 4025 3406 3419 
Q 3406 3131 3298 2873 
Q 3191 2616 2906 2266 
Q 2828 2175 2409 1742 
Q 1991 1309 1228 531 
z
" id="DejaVuSans-32" transform="scale(0.015625)"/>
       </defs>
       <use xlink:href="#DejaVuSans-30"/>
       <use x="63.623047" xlink:href="#DejaVuSans-2e"/>
       <use x="95.410156" xlink:href="#DejaVuSans-32"/>
      </g>
     </g>
    </g>
    <g id="ytick_3">
     <g id="line2d_103">
      <path clip-path="url(#p2f29da27bb)" d="M 62.208 178.788119 
L 460.8 178.788119 
" style="fill:none;stroke:#b0b0b0;stroke-linecap:square;stroke-width:0.8;"/>
     </g>
     <g id="line2d_104">
      <g>
       <use style="stroke:#000000;stroke-width:0.8;" x="62.208" xlink:href="#m0f1f629b3a" y="178.788119"/>
      </g>
     </g>
     <g id="text_6">
      <!-- 0.4 -->
      <g transform="translate(29.763 184.866869)scale(0.16 -0.16)">
       <defs>
        <path d="M 2419 4116 
L 825 1625 
L 2419 1625 
L 2419 4116 
z
M 2253 4666 
L 3047 4666 
L 3047 1625 
L 3713 1625 
L 3713 1100 
L 3047 1100 
L 3047 0 
L 2419 0 
L 2419 1100 
L 313 1100 
L 313 1709 
L 2253 4666 
z
" id="DejaVuSans-34" transform="scale(0.015625)"/>
       </defs>
       <use xlink:href="#DejaVuSans-30"/>
       <use x="63.623047" xlink:href="#DejaVuSans-2e"/>
       <use x="95.410156" xlink:href="#DejaVuSans-34"/>
      </g>
     </g>
    </g>
    <g id="ytick_4">
     <g id="line2d_105">
      <path clip-path="url(#p2f29da27bb)" d="M 62.208 121.302178 
L 460.8 121.302178 
" style="fill:none;stroke:#b0b0b0;stroke-linecap:square;stroke-width:0.8;"/>
     </g>
     <g id="line2d_106">
      <g>
       <use style="stroke:#000000;stroke-width:0.8;" x="62.208" xlink:href="#m0f1f629b3a" y="121.302178"/>
      </g>
     </g>
     <g id="text_7">
      <!-- 0.6 -->
      <g transform="translate(29.763 127.380928)scale(0.16 -0.16)">
       <defs>
        <path d="M 2113 2584 
Q 1688 2584 1439 2293 
Q 1191 2003 1191 1497 
Q 1191 994 1439 701 
Q 1688 409 2113 409 
Q 2538 409 2786 701 
Q 3034 994 3034 1497 
Q 3034 2003 2786 2293 
Q 2538 2584 2113 2584 
z
M 3366 4563 
L 3366 3988 
Q 3128 4100 2886 4159 
Q 2644 4219 2406 4219 
Q 1781 4219 1451 3797 
Q 1122 3375 1075 2522 
Q 1259 2794 1537 2939 
Q 1816 3084 2150 3084 
Q 2853 3084 3261 2657 
Q 3669 2231 3669 1497 
Q 3669 778 3244 343 
Q 2819 -91 2113 -91 
Q 1303 -91 875 529 
Q 447 1150 447 2328 
Q 447 3434 972 4092 
Q 1497 4750 2381 4750 
Q 2619 4750 2861 4703 
Q 3103 4656 3366 4563 
z
" id="DejaVuSans-36" transform="scale(0.015625)"/>
       </defs>
       <use xlink:href="#DejaVuSans-30"/>
       <use x="63.623047" xlink:href="#DejaVuSans-2e"/>
       <use x="95.410156" xlink:href="#DejaVuSans-36"/>
      </g>
     </g>
    </g>
    <g id="ytick_5">
     <g id="line2d_107">
      <path clip-path="url(#p2f29da27bb)" d="M 62.208 63.816238 
L 460.8 63.816238 
" style="fill:none;stroke:#b0b0b0;stroke-linecap:square;stroke-width:0.8;"/>
     </g>
     <g id="line2d_108">
      <g>
       <use style="stroke:#000000;stroke-width:0.8;" x="62.208" xlink:href="#m0f1f629b3a" y="63.816238"/>
      </g>
     </g>
     <g id="text_8">
      <!-- 0.8 -->
      <g transform="translate(29.763 69.894988)scale(0.16 -0.16)">
       <defs>
        <path d="M 2034 2216 
Q 1584 2216 1326 1975 
Q 1069 1734 1069 1313 
Q 1069 891 1326 650 
Q 1584 409 2034 409 
Q 2484 409 2743 651 
Q 3003 894 3003 1313 
Q 3003 1734 2745 1975 
Q 2488 2216 2034 2216 
z
M 1403 2484 
Q 997 2584 770 2862 
Q 544 3141 544 3541 
Q 544 4100 942 4425 
Q 1341 4750 2034 4750 
Q 2731 4750 3128 4425 
Q 3525 4100 3525 3541 
Q 3525 3141 3298 2862 
Q 3072 2584 2669 2484 
Q 3125 2378 3379 2068 
Q 3634 1759 3634 1313 
Q 3634 634 3220 271 
Q 2806 -91 2034 -91 
Q 1263 -91 848 271 
Q 434 634 434 1313 
Q 434 1759 690 2068 
Q 947 2378 1403 2484 
z
M 1172 3481 
Q 1172 3119 1398 2916 
Q 1625 2713 2034 2713 
Q 2441 2713 2670 2916 
Q 2900 3119 2900 3481 
Q 2900 3844 2670 4047 
Q 2441 4250 2034 4250 
Q 1625 4250 1398 4047 
Q 1172 3844 1172 3481 
z
" id="DejaVuSans-38" transform="scale(0.015625)"/>
       </defs>
       <use xlink:href="#DejaVuSans-30"/>
       <use x="63.623047" xlink:href="#DejaVuSans-2e"/>
       <use x="95.410156" xlink:href="#DejaVuSans-38"/>
      </g>
     </g>
    </g>
    <g id="ytick_6">
     <g id="line2d_109">
      <path clip-path="url(#p2f29da27bb)" d="M 62.208 6.330297 
L 460.8 6.330297 
" style="fill:none;stroke:#b0b0b0;stroke-linecap:square;stroke-width:0.8;"/>
     </g>
     <g id="line2d_110">
      <g>
       <use style="stroke:#000000;stroke-width:0.8;" x="62.208" xlink:href="#m0f1f629b3a" y="6.330297"/>
      </g>
     </g>
     <g id="text_9">
      <!-- 1.0 -->
      <g transform="translate(29.763 12.409047)scale(0.16 -0.16)">
       <use xlink:href="#DejaVuSans-31"/>
       <use x="63.623047" xlink:href="#DejaVuSans-2e"/>
       <use x="95.410156" xlink:href="#DejaVuSans-30"/>
      </g>
     </g>
    </g>
    <g id="text_10">
     <!-- proportion of trials -->
     <g transform="translate(21.603625 241.61425)rotate(-90)scale(0.2 -0.2)">
      <defs>
       <path d="M 1159 525 
L 1159 -1331 
L 581 -1331 
L 581 3500 
L 1159 3500 
L 1159 2969 
Q 1341 3281 1617 3432 
Q 1894 3584 2278 3584 
Q 2916 3584 3314 3078 
Q 3713 2572 3713 1747 
Q 3713 922 3314 415 
Q 2916 -91 2278 -91 
Q 1894 -91 1617 61 
Q 1341 213 1159 525 
z
M 3116 1747 
Q 3116 2381 2855 2742 
Q 2594 3103 2138 3103 
Q 1681 3103 1420 2742 
Q 1159 2381 1159 1747 
Q 1159 1113 1420 752 
Q 1681 391 2138 391 
Q 2594 391 2855 752 
Q 3116 1113 3116 1747 
z
" id="DejaVuSans-70" transform="scale(0.015625)"/>
       <path d="M 2631 2963 
Q 2534 3019 2420 3045 
Q 2306 3072 2169 3072 
Q 1681 3072 1420 2755 
Q 1159 2438 1159 1844 
L 1159 0 
L 581 0 
L 581 3500 
L 1159 3500 
L 1159 2956 
Q 1341 3275 1631 3429 
Q 1922 3584 2338 3584 
Q 2397 3584 2469 3576 
Q 2541 3569 2628 3553 
L 2631 2963 
z
" id="DejaVuSans-72" transform="scale(0.015625)"/>
       <path d="M 1172 4494 
L 1172 3500 
L 2356 3500 
L 2356 3053 
L 1172 3053 
L 1172 1153 
Q 1172 725 1289 603 
Q 1406 481 1766 481 
L 2356 481 
L 2356 0 
L 1766 0 
Q 1100 0 847 248 
Q 594 497 594 1153 
L 594 3053 
L 172 3053 
L 172 3500 
L 594 3500 
L 594 4494 
L 1172 4494 
z
" id="DejaVuSans-74" transform="scale(0.015625)"/>
       <path d="M 603 3500 
L 1178 3500 
L 1178 0 
L 603 0 
L 603 3500 
z
M 603 4863 
L 1178 4863 
L 1178 4134 
L 603 4134 
L 603 4863 
z
" id="DejaVuSans-69" transform="scale(0.015625)"/>
       <path d="M 3513 2113 
L 3513 0 
L 2938 0 
L 2938 2094 
Q 2938 2591 2744 2837 
Q 2550 3084 2163 3084 
Q 1697 3084 1428 2787 
Q 1159 2491 1159 1978 
L 1159 0 
L 581 0 
L 581 3500 
L 1159 3500 
L 1159 2956 
Q 1366 3272 1645 3428 
Q 1925 3584 2291 3584 
Q 2894 3584 3203 3211 
Q 3513 2838 3513 2113 
z
" id="DejaVuSans-6e" transform="scale(0.015625)"/>
      </defs>
      <use xlink:href="#DejaVuSans-70"/>
      <use x="63.476562" xlink:href="#DejaVuSans-72"/>
      <use x="102.339844" xlink:href="#DejaVuSans-6f"/>
      <use x="163.521484" xlink:href="#DejaVuSans-70"/>
      <use x="226.998047" xlink:href="#DejaVuSans-6f"/>
      <use x="288.179688" xlink:href="#DejaVuSans-72"/>
      <use x="329.292969" xlink:href="#DejaVuSans-74"/>
      <use x="368.501953" xlink:href="#DejaVuSans-69"/>
      <use x="396.285156" xlink:href="#DejaVuSans-6f"/>
      <use x="457.466797" xlink:href="#DejaVuSans-6e"/>
      <use x="520.845703" xlink:href="#DejaVuSans-20"/>
      <use x="552.632812" xlink:href="#DejaVuSans-6f"/>
      <use x="613.814453" xlink:href="#DejaVuSans-66"/>
      <use x="649.019531" xlink:href="#DejaVuSans-20"/>
      <use x="680.806641" xlink:href="#DejaVuSans-74"/>
      <use x="720.015625" xlink:href="#DejaVuSans-72"/>
      <use x="761.128906" xlink:href="#DejaVuSans-69"/>
      <use x="788.912109" xlink:href="#DejaVuSans-61"/>
      <use x="850.191406" xlink:href="#DejaVuSans-6c"/>
      <use x="877.974609" xlink:href="#DejaVuSans-73"/>
     </g>
    </g>
   </g>
   <g id="line2d_111">
    <path clip-path="url(#p2f29da27bb)" d="M 117.150068 293.76 
L 117.150068 289.927604 
L 118.219091 289.927604 
L 118.219091 286.095208 
L 125.89805 286.095208 
L 125.89805 282.262812 
L 130.842598 282.262812 
L 130.842598 278.430416 
L 133.837015 278.430416 
L 133.837015 274.59802 
L 136.628259 274.59802 
L 136.628259 270.765624 
L 139.242158 270.765624 
L 139.242158 266.933228 
L 141.099093 266.933228 
L 141.099093 259.268436 
L 142.292077 259.268436 
L 142.292077 255.43604 
L 143.451452 255.43604 
L 143.451452 251.603644 
L 144.019117 251.603644 
L 144.019117 243.938851 
L 145.131484 243.938851 
L 145.131484 240.106455 
L 145.676592 240.106455 
L 145.676592 236.274059 
L 147.269891 236.274059 
L 147.269891 232.441663 
L 149.795534 232.441663 
L 149.795534 228.609267 
L 151.710069 228.609267 
L 151.710069 224.776871 
L 153.089698 224.776871 
L 153.089698 220.944475 
L 153.539485 220.944475 
L 153.539485 217.112079 
L 156.557439 217.112079 
L 156.557439 213.279683 
L 157.380567 213.279683 
L 157.380567 209.447287 
L 157.786039 209.447287 
L 157.786039 205.614891 
L 159.755558 205.614891 
L 159.755558 201.782495 
L 162.000937 201.782495 
L 162.000937 194.117703 
L 162.722974 194.117703 
L 162.722974 190.285307 
L 165.154783 190.285307 
L 165.154783 182.620515 
L 166.482481 182.620515 
L 166.482481 178.788119 
L 167.130606 178.788119 
L 167.130606 174.955723 
L 167.768682 174.955723 
L 167.768682 171.123327 
L 169.92712 171.123327 
L 169.92712 167.290931 
L 171.40237 167.290931 
L 171.40237 163.458535 
L 178.566302 163.458535 
L 178.566302 159.626139 
L 179.290457 159.626139 
L 179.290457 155.793743 
L 191.428045 155.793743 
L 191.428045 151.961347 
L 191.605821 151.961347 
L 191.605821 148.12895 
L 198.453644 148.12895 
L 198.453644 144.296554 
L 204.192494 144.296554 
L 204.192494 140.464158 
L 292.611472 140.464158 
L 292.611472 136.631762 
L 296.450744 136.631762 
L 296.450744 132.799366 
L 297.139202 132.799366 
L 297.139202 128.96697 
L 298.614453 128.96697 
L 298.614453 125.134574 
L 302.267805 125.134574 
L 302.267805 121.302178 
L 303.444253 121.302178 
L 303.444253 117.469782 
L 324.40401 117.469782 
L 324.40401 113.637386 
L 331.202164 113.637386 
L 331.202164 109.80499 
L 334.695999 109.80499 
L 334.695999 105.972594 
L 335.434909 105.972594 
L 335.434909 102.140198 
L 354.70114 102.140198 
L 354.70114 98.307802 
L 357.575597 98.307802 
L 357.575597 94.475406 
L 361.538379 94.475406 
L 361.538379 90.64301 
L 377.466393 90.64301 
L 377.466393 86.810614 
L 380.590902 86.810614 
L 380.590902 82.978218 
L 382.363935 82.978218 
L 382.363935 79.145822 
L 401.070457 79.145822 
L 401.070457 75.313426 
L 412.481905 75.313426 
L 412.481905 71.48103 
L 419.152988 71.48103 
L 419.152988 67.648634 
L 420.695551 67.648634 
L 420.695551 63.816238 
L 434.435 63.816238 
L 434.435 59.983842 
L 436.403664 59.983842 
L 436.403664 56.151446 
L 436.634104 56.151446 
L 436.634104 52.31905 
L 436.634104 52.31905 
L 460.8 52.31905 
L 460.8 52.31905 
" style="fill:none;stroke:#000000;stroke-linecap:square;stroke-width:1.5;"/>
   </g>
   <g id="line2d_112">
    <defs>
     <path d="M 0 14.142136 
L 8.485281 0 
L 0 -14.142136 
L -8.485281 0 
z
" id="m8a01b7c6fe" style="stroke:#000000;stroke-linejoin:miter;stroke-width:1.5;"/>
    </defs>
    <g clip-path="url(#p2f29da27bb)">
     <use style="fill-opacity:0;stroke:#000000;stroke-linejoin:miter;stroke-width:1.5;" x="153.089698" xlink:href="#m8a01b7c6fe" y="224.776871"/>
     <use style="fill-opacity:0;stroke:#000000;stroke-linejoin:miter;stroke-width:1.5;" x="169.92712" xlink:href="#m8a01b7c6fe" y="171.123327"/>
     <use style="fill-opacity:0;stroke:#000000;stroke-linejoin:miter;stroke-width:1.5;" x="292.611472" xlink:href="#m8a01b7c6fe" y="140.464158"/>
     <use style="fill-opacity:0;stroke:#000000;stroke-linejoin:miter;stroke-width:1.5;" x="357.575597" xlink:href="#m8a01b7c6fe" y="98.307802"/>
     <use style="fill-opacity:0;stroke:#000000;stroke-linejoin:miter;stroke-width:1.5;" x="419.152988" xlink:href="#m8a01b7c6fe" y="71.48103"/>
     <use style="fill-opacity:0;stroke:#000000;stroke-linejoin:miter;stroke-width:1.5;" x="436.634104" xlink:href="#m8a01b7c6fe" y="52.31905"/>
    </g>
   </g>
   <g id="line2d_113">
    <path clip-path="url(#p2f29da27bb)" style="fill:none;stroke:#000000;stroke-linecap:square;stroke-width:1.5;"/>
    <g clip-path="url(#p2f29da27bb)">
     <use style="fill-opacity:0;stroke:#000000;stroke-linejoin:miter;stroke-width:1.5;" x="-1" xlink:href="#m8a01b7c6fe" y="581.189703"/>
     <use style="fill-opacity:0;stroke:#000000;stroke-linejoin:miter;stroke-width:1.5;" x="460.8" xlink:href="#m8a01b7c6fe" y="581.189703"/>
    </g>
   </g>
   <g id="line2d_114">
    <path clip-path="url(#p2f29da27bb)" d="M 12.65841 293.76 
L 12.65841 289.927604 
L 84.046045 289.927604 
L 84.046045 286.095208 
L 90.734524 286.095208 
L 90.734524 278.430416 
L 103.085351 278.430416 
L 103.085351 274.59802 
L 113.765553 274.59802 
L 113.765553 270.765624 
L 118.219091 270.765624 
L 118.219091 266.933228 
L 119.261048 266.933228 
L 119.261048 263.100832 
L 122.23741 263.100832 
L 122.23741 259.268436 
L 123.183545 259.268436 
L 123.183545 255.43604 
L 137.297462 255.43604 
L 137.297462 251.603644 
L 139.870492 251.603644 
L 139.870492 247.771248 
L 141.699907 247.771248 
L 141.699907 243.938851 
L 146.214575 243.938851 
L 146.214575 240.106455 
L 148.298821 240.106455 
L 148.298821 232.441663 
L 148.803798 232.441663 
L 148.803798 224.776871 
L 150.282582 224.776871 
L 150.282582 220.944475 
L 151.710069 220.944475 
L 151.710069 217.112079 
L 152.175103 217.112079 
L 152.175103 213.279683 
L 152.634941 213.279683 
L 152.634941 209.447287 
L 156.971061 209.447287 
L 156.971061 205.614891 
L 160.51771 205.614891 
L 160.51771 201.782495 
L 165.490744 201.782495 
L 165.490744 197.950099 
L 165.823986 197.950099 
L 165.823986 194.117703 
L 167.768682 194.117703 
L 167.768682 190.285307 
L 168.397016 190.285307 
L 168.397016 186.452911 
L 168.707621 186.452911 
L 168.707621 182.620515 
L 169.625617 182.620515 
L 169.625617 174.955723 
L 169.92712 174.955723 
L 169.92712 171.123327 
L 173.105582 171.123327 
L 173.105582 167.290931 
L 175.272139 167.290931 
L 175.272139 163.458535 
L 179.766244 163.458535 
L 179.766244 159.626139 
L 184.455628 159.626139 
L 184.455628 155.793743 
L 186.312563 155.793743 
L 186.312563 151.961347 
L 186.913378 151.961347 
L 186.913378 148.12895 
L 221.613216 148.12895 
L 221.613216 144.296554 
L 241.190875 144.296554 
L 241.190875 140.464158 
L 295.467135 140.464158 
L 295.467135 136.631762 
L 295.849317 136.631762 
L 295.849317 132.799366 
L 300.506825 132.799366 
L 300.506825 128.96697 
L 300.745188 128.96697 
L 300.745188 125.134574 
L 300.857617 125.134574 
L 300.857617 121.302178 
L 304.15274 121.302178 
L 304.15274 117.469782 
L 308.133818 117.469782 
L 308.133818 113.637386 
L 332.262617 113.637386 
L 332.262617 109.80499 
L 333.023276 109.80499 
L 333.023276 105.972594 
L 335.061679 105.972594 
L 335.061679 102.140198 
L 358.053877 102.140198 
L 358.053877 98.307802 
L 360.058584 98.307802 
L 360.058584 94.475406 
L 364.982518 94.475406 
L 364.982518 90.64301 
L 367.769714 90.64301 
L 367.769714 86.810614 
L 379.619721 86.810614 
L 379.619721 82.978218 
L 381.169178 82.978218 
L 381.169178 79.145822 
L 395.847099 79.145822 
L 395.847099 75.313426 
L 398.999775 75.313426 
L 398.999775 71.48103 
L 399.968522 71.48103 
L 399.968522 67.648634 
L 416.665943 67.648634 
L 416.665943 63.816238 
L 420.017096 63.816238 
L 420.017096 59.983842 
L 425.167991 59.983842 
L 425.167991 56.151446 
L 425.743816 56.151446 
L 425.743816 52.31905 
L 425.743816 52.31905 
L 460.8 52.31905 
L 460.8 52.31905 
" style="fill:none;stroke:#000000;stroke-linecap:square;stroke-width:1.5;"/>
   </g>
   <g id="line2d_115">
    <defs>
     <path d="M 0 7.5 
C 1.989023 7.5 3.896849 6.709753 5.303301 5.303301 
C 6.709753 3.896849 7.5 1.989023 7.5 0 
C 7.5 -1.989023 6.709753 -3.896849 5.303301 -5.303301 
C 3.896849 -6.709753 1.989023 -7.5 0 -7.5 
C -1.989023 -7.5 -3.896849 -6.709753 -5.303301 -5.303301 
C -6.709753 -3.896849 -7.5 -1.989023 -7.5 0 
C -7.5 1.989023 -6.709753 3.896849 -5.303301 5.303301 
C -3.896849 6.709753 -1.989023 7.5 0 7.5 
z
" id="m8d61ca3c84" style="stroke:#000000;stroke-width:1.5;"/>
    </defs>
    <g clip-path="url(#p2f29da27bb)">
     <use style="fill-opacity:0;stroke:#000000;stroke-width:1.5;" x="90.734524" xlink:href="#m8d61ca3c84" y="282.262812"/>
     <use style="fill-opacity:0;stroke:#000000;stroke-width:1.5;" x="156.971061" xlink:href="#m8d61ca3c84" y="209.447287"/>
     <use style="fill-opacity:0;stroke:#000000;stroke-width:1.5;" x="186.913378" xlink:href="#m8d61ca3c84" y="151.961347"/>
     <use style="fill-opacity:0;stroke:#000000;stroke-width:1.5;" x="304.15274" xlink:href="#m8d61ca3c84" y="121.302178"/>
     <use style="fill-opacity:0;stroke:#000000;stroke-width:1.5;" x="364.982518" xlink:href="#m8d61ca3c84" y="94.475406"/>
     <use style="fill-opacity:0;stroke:#000000;stroke-width:1.5;" x="425.743816" xlink:href="#m8d61ca3c84" y="56.151446"/>
     <use style="fill-opacity:0;stroke:#000000;stroke-width:1.5;" x="425.743816" xlink:href="#m8d61ca3c84" y="52.31905"/>
    </g>
   </g>
   <g id="line2d_116">
    <path clip-path="url(#p2f29da27bb)" style="fill:none;stroke:#000000;stroke-linecap:square;stroke-width:1.5;"/>
   </g>
   <g id="line2d_117">
    <path clip-path="url(#p2f29da27bb)" d="M 201.072164 293.76 
L 201.072164 289.927604 
L 210.592532 289.927604 
L 210.592532 286.095208 
L 211.368021 286.095208 
L 211.368021 282.262812 
L 216.712336 282.262812 
L 216.712336 278.430416 
L 219.865392 278.430416 
L 219.865392 274.59802 
L 226.298651 274.59802 
L 226.298651 270.765624 
L 233.238332 270.765624 
L 233.238332 266.933228 
L 300.229091 266.933228 
L 300.229091 263.100832 
L 301.501258 263.100832 
L 301.501258 259.268436 
L 302.098691 259.268436 
L 302.098691 255.43604 
L 303.549554 255.43604 
L 303.549554 251.603644 
L 306.021188 251.603644 
L 306.021188 247.771248 
L 306.50254 247.771248 
L 306.50254 243.938851 
L 307.597211 243.938851 
L 307.597211 240.106455 
L 308.930961 240.106455 
L 308.930961 236.274059 
L 311.658116 236.274059 
L 311.658116 232.441663 
L 311.878223 232.441663 
L 311.878223 228.609267 
L 313.082113 228.609267 
L 313.082113 224.776871 
L 315.764262 224.776871 
L 315.764262 220.944475 
L 335.224369 220.944475 
L 335.224369 217.112079 
L 335.92202 217.112079 
L 335.92202 213.279683 
L 337.7232 213.279683 
L 337.7232 209.447287 
L 338.410144 209.447287 
L 338.410144 205.614891 
L 339.658335 205.614891 
L 339.658335 201.782495 
L 340.476267 201.782495 
L 340.476267 197.950099 
L 341.175348 197.950099 
L 341.175348 194.117703 
L 357.647851 194.117703 
L 357.647851 190.285307 
L 357.854488 190.285307 
L 357.854488 186.452911 
L 358.035226 186.452911 
L 358.035226 182.620515 
L 360.841453 182.620515 
L 360.841453 178.788119 
L 361.220179 178.788119 
L 361.220179 174.955723 
L 364.488434 174.955723 
L 364.488434 171.123327 
L 370.287819 171.123327 
L 370.287819 167.290931 
L 379.089995 167.290931 
L 379.089995 163.458535 
L 381.574807 163.458535 
L 381.574807 159.626139 
L 383.858373 159.626139 
L 383.858373 155.793743 
L 384.05877 155.793743 
L 384.05877 151.961347 
L 384.309134 151.961347 
L 384.309134 148.12895 
L 385.889335 148.12895 
L 385.889335 144.296554 
L 390.345223 144.296554 
L 390.345223 140.464158 
L 397.494762 140.464158 
L 397.494762 136.631762 
L 401.236224 136.631762 
L 401.236224 132.799366 
L 411.31607 132.799366 
L 411.31607 128.96697 
L 424.947134 128.96697 
L 424.947134 125.134574 
L 424.947134 125.134574 
L 424.947134 125.134574 
L 460.8 125.134574 
" style="fill:none;stroke:#00bfbf;stroke-linecap:square;stroke-width:1.5;"/>
   </g>
   <g id="line2d_118">
    <defs>
     <path d="M 0 14.142136 
L 8.485281 0 
L 0 -14.142136 
L -8.485281 0 
z
" id="me0038d3e75" style="stroke:#00bfbf;stroke-linejoin:miter;stroke-width:1.5;"/>
    </defs>
    <g clip-path="url(#p2f29da27bb)">
     <use style="fill-opacity:0;stroke:#00bfbf;stroke-linejoin:miter;stroke-width:1.5;" x="233.238332" xlink:href="#me0038d3e75" y="270.765624"/>
     <use style="fill-opacity:0;stroke:#00bfbf;stroke-linejoin:miter;stroke-width:1.5;" x="315.764262" xlink:href="#me0038d3e75" y="224.776871"/>
     <use style="fill-opacity:0;stroke:#00bfbf;stroke-linejoin:miter;stroke-width:1.5;" x="364.488434" xlink:href="#me0038d3e75" y="174.955723"/>
     <use style="fill-opacity:0;stroke:#00bfbf;stroke-linejoin:miter;stroke-width:1.5;" x="424.947134" xlink:href="#me0038d3e75" y="128.96697"/>
     <use style="fill-opacity:0;stroke:#00bfbf;stroke-linejoin:miter;stroke-width:1.5;" x="424.947134" xlink:href="#me0038d3e75" y="125.134574"/>
    </g>
   </g>
   <g id="line2d_119">
    <path clip-path="url(#p2f29da27bb)" style="fill:none;stroke:#00bfbf;stroke-linecap:square;stroke-width:1.5;"/>
    <g clip-path="url(#p2f29da27bb)">
     <use style="fill-opacity:0;stroke:#00bfbf;stroke-linejoin:miter;stroke-width:1.5;" x="-1" xlink:href="#me0038d3e75" y="581.189703"/>
     <use style="fill-opacity:0;stroke:#00bfbf;stroke-linejoin:miter;stroke-width:1.5;" x="460.8" xlink:href="#me0038d3e75" y="581.189703"/>
    </g>
   </g>
   <g id="line2d_120">
    <path clip-path="url(#p2f29da27bb)" d="M 194.017268 293.76 
L 194.017268 289.927604 
L 211.477622 289.927604 
L 211.477622 286.095208 
L 218.596192 286.095208 
L 218.596192 282.262812 
L 222.038815 282.262812 
L 222.038815 278.430416 
L 227.650582 278.430416 
L 227.650582 274.59802 
L 237.055138 274.59802 
L 237.055138 270.765624 
L 239.007069 270.765624 
L 239.007069 266.933228 
L 261.797096 266.933228 
L 261.797096 263.100832 
L 300.317664 263.100832 
L 300.317664 259.268436 
L 301.989606 259.268436 
L 301.989606 255.43604 
L 302.255748 255.43604 
L 302.255748 251.603644 
L 302.352102 251.603644 
L 302.352102 247.771248 
L 305.955111 247.771248 
L 305.955111 243.938851 
L 307.660706 243.938851 
L 307.660706 240.106455 
L 309.652552 240.106455 
L 309.652552 236.274059 
L 310.133318 236.274059 
L 310.133318 232.441663 
L 310.361709 232.441663 
L 310.361709 228.609267 
L 311.262808 228.609267 
L 311.262808 224.776871 
L 316.53 224.776871 
L 316.53 220.944475 
L 318.534716 220.944475 
L 318.534716 217.112079 
L 326.363 217.112079 
L 326.363 213.279683 
L 333.13731 213.279683 
L 333.13731 209.447287 
L 335.27305 209.447287 
L 335.27305 205.614891 
L 337.493354 205.614891 
L 337.493354 201.782495 
L 338.073156 201.782495 
L 338.073156 197.950099 
L 338.390102 197.950099 
L 338.390102 194.117703 
L 340.775302 194.117703 
L 340.775302 190.285307 
L 348.704558 190.285307 
L 348.704558 186.452911 
L 349.515635 186.452911 
L 349.515635 182.620515 
L 351.914923 182.620515 
L 351.914923 178.788119 
L 358.655503 178.788119 
L 358.655503 174.955723 
L 359.000154 174.955723 
L 359.000154 171.123327 
L 360.406409 171.123327 
L 360.406409 167.290931 
L 384.361649 167.290931 
L 384.361649 163.458535 
L 384.670454 163.458535 
L 384.670454 159.626139 
L 385.996654 159.626139 
L 385.996654 155.793743 
L 392.334206 155.793743 
L 392.334206 151.961347 
L 404.056399 151.961347 
L 404.056399 148.12895 
L 409.257385 148.12895 
L 409.257385 144.296554 
L 419.236706 144.296554 
L 419.236706 140.464158 
L 420.164405 140.464158 
L 420.164405 136.631762 
L 420.864783 136.631762 
L 420.864783 132.799366 
L 424.08103 132.799366 
L 424.08103 128.96697 
L 425.123549 128.96697 
L 425.123549 125.134574 
L 436.844938 125.134574 
L 436.844938 121.302178 
L 436.844938 121.302178 
L 436.844938 121.302178 
L 460.8 121.302178 
" style="fill:none;stroke:#00bfbf;stroke-linecap:square;stroke-width:1.5;"/>
   </g>
   <g id="line2d_121">
    <defs>
     <path d="M 0 7.5 
C 1.989023 7.5 3.896849 6.709753 5.303301 5.303301 
C 6.709753 3.896849 7.5 1.989023 7.5 0 
C 7.5 -1.989023 6.709753 -3.896849 5.303301 -5.303301 
C 3.896849 -6.709753 1.989023 -7.5 0 -7.5 
C -1.989023 -7.5 -3.896849 -6.709753 -5.303301 -5.303301 
C -6.709753 -3.896849 -7.5 -1.989023 -7.5 0 
C -7.5 1.989023 -6.709753 3.896849 -5.303301 5.303301 
C -3.896849 6.709753 -1.989023 7.5 0 7.5 
z
" id="m809565cf39" style="stroke:#00bfbf;stroke-width:1.5;"/>
    </defs>
    <g clip-path="url(#p2f29da27bb)">
     <use style="fill-opacity:0;stroke:#00bfbf;stroke-width:1.5;" x="237.055138" xlink:href="#m809565cf39" y="274.59802"/>
     <use style="fill-opacity:0;stroke:#00bfbf;stroke-width:1.5;" x="310.361709" xlink:href="#m809565cf39" y="232.441663"/>
     <use style="fill-opacity:0;stroke:#00bfbf;stroke-width:1.5;" x="340.775302" xlink:href="#m809565cf39" y="194.117703"/>
     <use style="fill-opacity:0;stroke:#00bfbf;stroke-width:1.5;" x="404.056399" xlink:href="#m809565cf39" y="151.961347"/>
     <use style="fill-opacity:0;stroke:#00bfbf;stroke-width:1.5;" x="436.844938" xlink:href="#m809565cf39" y="121.302178"/>
    </g>
   </g>
   <g id="line2d_122">
    <path clip-path="url(#p2f29da27bb)" style="fill:none;stroke:#00bfbf;stroke-linecap:square;stroke-width:1.5;"/>
   </g>
   <g id="line2d_123">
    <path clip-path="url(#p2f29da27bb)" d="M 301.989606 293.76 
L 301.989606 289.927604 
L 304.747212 289.927604 
L 304.747212 286.095208 
L 305.131314 286.095208 
L 305.131314 282.262812 
L 306.589456 282.262812 
L 306.589456 278.430416 
L 308.227791 278.430416 
L 308.227791 274.59802 
L 309.298419 274.59802 
L 309.298419 270.765624 
L 310.549429 270.765624 
L 310.549429 266.933228 
L 336.503241 266.933228 
L 336.503241 263.100832 
L 337.442102 263.100832 
L 337.442102 259.268436 
L 338.19922 259.268436 
L 338.19922 255.43604 
L 338.813897 255.43604 
L 338.813897 251.603644 
L 342.728728 251.603644 
L 342.728728 247.771248 
L 347.661701 247.771248 
L 347.661701 243.938851 
L 348.178532 243.938851 
L 348.178532 240.106455 
L 348.899126 240.106455 
L 348.899126 236.274059 
L 360.105919 236.274059 
L 360.105919 232.441663 
L 362.58162 232.441663 
L 362.58162 228.609267 
L 362.872921 228.609267 
L 362.872921 224.776871 
L 363.465762 224.776871 
L 363.465762 220.944475 
L 364.832542 220.944475 
L 364.832542 217.112079 
L 366.147728 217.112079 
L 366.147728 213.279683 
L 374.630864 213.279683 
L 374.630864 209.447287 
L 383.328691 209.447287 
L 383.328691 205.614891 
L 383.738663 205.614891 
L 383.738663 201.782495 
L 386.488615 201.782495 
L 386.488615 197.950099 
L 386.811292 197.950099 
L 386.811292 194.117703 
L 387.348612 194.117703 
L 387.348612 190.285307 
L 388.900632 190.285307 
L 388.900632 186.452911 
L 395.628162 186.452911 
L 395.628162 182.620515 
L 398.842038 182.620515 
L 398.842038 178.788119 
L 401.344919 178.788119 
L 401.344919 174.955723 
L 401.550652 174.955723 
L 401.550652 171.123327 
L 402.977292 171.123327 
L 402.977292 167.290931 
L 413.321315 167.290931 
L 413.321315 163.458535 
L 421.984977 163.458535 
L 421.984977 159.626139 
L 423.177792 159.626139 
L 423.177792 155.793743 
L 425.324678 155.793743 
L 425.324678 151.961347 
L 426.591841 151.961347 
L 426.591841 148.12895 
L 426.591841 148.12895 
L 426.591841 148.12895 
L 460.8 148.12895 
" style="fill:none;stroke:#bf00bf;stroke-linecap:square;stroke-width:1.5;"/>
   </g>
   <g id="line2d_124">
    <defs>
     <path d="M 0 14.142136 
L 8.485281 0 
L 0 -14.142136 
L -8.485281 0 
z
" id="m0bde725a6a" style="stroke:#bf00bf;stroke-linejoin:miter;stroke-width:1.5;"/>
    </defs>
    <g clip-path="url(#p2f29da27bb)">
     <use style="fill-opacity:0;stroke:#bf00bf;stroke-linejoin:miter;stroke-width:1.5;" x="347.661701" xlink:href="#m0bde725a6a" y="247.771248"/>
     <use style="fill-opacity:0;stroke:#bf00bf;stroke-linejoin:miter;stroke-width:1.5;" x="388.900632" xlink:href="#m0bde725a6a" y="190.285307"/>
     <use style="fill-opacity:0;stroke:#bf00bf;stroke-linejoin:miter;stroke-width:1.5;" x="426.591841" xlink:href="#m0bde725a6a" y="151.961347"/>
     <use style="fill-opacity:0;stroke:#bf00bf;stroke-linejoin:miter;stroke-width:1.5;" x="426.591841" xlink:href="#m0bde725a6a" y="148.12895"/>
    </g>
   </g>
   <g id="line2d_125">
    <path clip-path="url(#p2f29da27bb)" style="fill:none;stroke:#bf00bf;stroke-linecap:square;stroke-width:1.5;"/>
    <g clip-path="url(#p2f29da27bb)">
     <use style="fill-opacity:0;stroke:#bf00bf;stroke-linejoin:miter;stroke-width:1.5;" x="-1" xlink:href="#m0bde725a6a" y="581.189703"/>
     <use style="fill-opacity:0;stroke:#bf00bf;stroke-linejoin:miter;stroke-width:1.5;" x="460.8" xlink:href="#m0bde725a6a" y="581.189703"/>
    </g>
   </g>
   <g id="line2d_126">
    <path clip-path="url(#p2f29da27bb)" d="M 194.017268 293.76 
L 194.017268 289.927604 
L 225.05848 289.927604 
L 225.05848 286.095208 
L 226.374935 286.095208 
L 226.374935 282.262812 
L 230.711055 282.262812 
L 230.711055 278.430416 
L 303.432537 278.430416 
L 303.432537 274.59802 
L 304.690423 274.59802 
L 304.690423 270.765624 
L 317.731264 270.765624 
L 317.731264 266.933228 
L 331.818199 266.933228 
L 331.818199 263.100832 
L 336.476999 263.100832 
L 336.476999 259.268436 
L 336.649887 259.268436 
L 336.649887 255.43604 
L 339.658335 255.43604 
L 339.658335 251.603644 
L 339.818386 251.603644 
L 339.818386 247.771248 
L 341.282931 247.771248 
L 341.282931 243.938851 
L 350.479498 243.938851 
L 350.479498 240.106455 
L 352.520182 240.106455 
L 352.520182 236.274059 
L 357.250459 236.274059 
L 357.250459 232.441663 
L 361.518384 232.441663 
L 361.518384 228.609267 
L 362.142173 228.609267 
L 362.142173 224.776871 
L 363.189616 224.776871 
L 363.189616 220.944475 
L 377.414002 220.944475 
L 377.414002 217.112079 
L 385.993501 217.112079 
L 385.993501 213.279683 
L 386.131981 213.279683 
L 386.131981 209.447287 
L 387.347087 209.447287 
L 387.347087 205.614891 
L 394.73293 205.614891 
L 394.73293 201.782495 
L 397.339514 201.782495 
L 397.339514 197.950099 
L 398.795869 197.950099 
L 398.795869 194.117703 
L 401.33732 194.117703 
L 401.33732 190.285307 
L 401.45441 190.285307 
L 401.45441 186.452911 
L 403.652989 186.452911 
L 403.652989 182.620515 
L 407.567089 182.620515 
L 407.567089 178.788119 
L 412.018856 178.788119 
L 412.018856 174.955723 
L 420.73352 174.955723 
L 420.73352 171.123327 
L 422.290842 171.123327 
L 422.290842 167.290931 
L 424.621009 167.290931 
L 424.621009 163.458535 
L 424.863852 163.458535 
L 424.863852 159.626139 
L 425.797782 159.626139 
L 425.797782 155.793743 
L 428.740685 155.793743 
L 428.740685 151.961347 
L 438.369508 151.961347 
L 438.369508 148.12895 
L 438.369508 148.12895 
L 438.369508 148.12895 
L 460.8 148.12895 
" style="fill:none;stroke:#bf00bf;stroke-linecap:square;stroke-width:1.5;"/>
   </g>
   <g id="line2d_127">
    <defs>
     <path d="M 0 7.5 
C 1.989023 7.5 3.896849 6.709753 5.303301 5.303301 
C 6.709753 3.896849 7.5 1.989023 7.5 0 
C 7.5 -1.989023 6.709753 -3.896849 5.303301 -5.303301 
C 3.896849 -6.709753 1.989023 -7.5 0 -7.5 
C -1.989023 -7.5 -3.896849 -6.709753 -5.303301 -5.303301 
C -6.709753 -3.896849 -7.5 -1.989023 -7.5 0 
C -7.5 1.989023 -6.709753 3.896849 -5.303301 5.303301 
C -3.896849 6.709753 -1.989023 7.5 0 7.5 
z
" id="md6ec42de74" style="stroke:#bf00bf;stroke-width:1.5;"/>
    </defs>
    <g clip-path="url(#p2f29da27bb)">
     <use style="fill-opacity:0;stroke:#bf00bf;stroke-width:1.5;" x="226.374935" xlink:href="#md6ec42de74" y="286.095208"/>
     <use style="fill-opacity:0;stroke:#bf00bf;stroke-width:1.5;" x="317.731264" xlink:href="#md6ec42de74" y="270.765624"/>
     <use style="fill-opacity:0;stroke:#bf00bf;stroke-width:1.5;" x="363.189616" xlink:href="#md6ec42de74" y="224.776871"/>
     <use style="fill-opacity:0;stroke:#bf00bf;stroke-width:1.5;" x="424.863852" xlink:href="#md6ec42de74" y="163.458535"/>
     <use style="fill-opacity:0;stroke:#bf00bf;stroke-width:1.5;" x="438.369508" xlink:href="#md6ec42de74" y="148.12895"/>
    </g>
   </g>
   <g id="line2d_128">
    <path clip-path="url(#p2f29da27bb)" style="fill:none;stroke:#bf00bf;stroke-linecap:square;stroke-width:1.5;"/>
   </g>
   <g id="line2d_129">
    <path clip-path="url(#p2f29da27bb)" d="M 307.469927 293.76 
L 307.469927 289.927604 
L 308.14427 289.927604 
L 308.14427 286.095208 
L 308.539495 286.095208 
L 308.539495 282.262812 
L 310.38151 282.262812 
L 310.38151 278.430416 
L 310.480369 278.430416 
L 310.480369 274.59802 
L 312.267691 274.59802 
L 312.267691 270.765624 
L 313.634539 270.765624 
L 313.634539 266.933228 
L 338.174038 266.933228 
L 338.174038 263.100832 
L 339.789332 263.100832 
L 339.789332 259.268436 
L 341.231514 259.268436 
L 341.231514 255.43604 
L 341.664215 255.43604 
L 341.664215 251.603644 
L 345.467887 251.603644 
L 345.467887 247.771248 
L 353.521144 247.771248 
L 353.521144 243.938851 
L 354.647157 243.938851 
L 354.647157 240.106455 
L 355.687256 240.106455 
L 355.687256 236.274059 
L 361.266197 236.274059 
L 361.266197 232.441663 
L 365.901903 232.441663 
L 365.901903 228.609267 
L 366.698043 228.609267 
L 366.698043 224.776871 
L 367.208764 224.776871 
L 367.208764 220.944475 
L 369.031364 220.944475 
L 369.031364 217.112079 
L 369.249769 217.112079 
L 369.249769 213.279683 
L 379.339038 213.279683 
L 379.339038 209.447287 
L 385.454046 209.447287 
L 385.454046 205.614891 
L 386.454338 205.614891 
L 386.454338 201.782495 
L 389.36362 201.782495 
L 389.36362 197.950099 
L 389.739507 197.950099 
L 389.739507 194.117703 
L 389.82002 194.117703 
L 389.82002 190.285307 
L 391.631009 190.285307 
L 391.631009 186.452911 
L 397.644676 186.452911 
L 397.644676 182.620515 
L 402.192599 182.620515 
L 402.192599 178.788119 
L 402.739778 178.788119 
L 402.739778 174.955723 
L 403.599587 174.955723 
L 403.599587 171.123327 
L 405.469909 171.123327 
L 405.469909 167.290931 
L 414.938754 167.290931 
L 414.938754 163.458535 
L 424.29663 163.458535 
L 424.29663 159.626139 
L 425.704196 159.626139 
L 425.704196 155.793743 
L 427.273281 155.793743 
L 427.273281 151.961347 
L 428.622805 151.961347 
L 428.622805 148.12895 
L 428.622805 148.12895 
L 428.622805 148.12895 
L 460.8 148.12895 
" style="fill:none;stroke:#ff0000;stroke-linecap:square;stroke-width:3;"/>
   </g>
   <g id="line2d_130">
    <defs>
     <path d="M 0 14.142136 
L 8.485281 0 
L 0 -14.142136 
L -8.485281 0 
z
" id="m367b93730e" style="stroke:#ff0000;stroke-linejoin:miter;stroke-width:3;"/>
    </defs>
    <g clip-path="url(#p2f29da27bb)">
     <use style="fill-opacity:0;stroke:#ff0000;stroke-linejoin:miter;stroke-width:3;" x="313.634539" xlink:href="#m367b93730e" y="270.765624"/>
     <use style="fill-opacity:0;stroke:#ff0000;stroke-linejoin:miter;stroke-width:3;" x="379.339038" xlink:href="#m367b93730e" y="213.279683"/>
     <use style="fill-opacity:0;stroke:#ff0000;stroke-linejoin:miter;stroke-width:3;" x="405.469909" xlink:href="#m367b93730e" y="171.123327"/>
     <use style="fill-opacity:0;stroke:#ff0000;stroke-linejoin:miter;stroke-width:3;" x="428.622805" xlink:href="#m367b93730e" y="148.12895"/>
    </g>
   </g>
   <g id="line2d_131">
    <path clip-path="url(#p2f29da27bb)" style="fill:none;stroke:#ff0000;stroke-linecap:square;stroke-width:3;"/>
    <g clip-path="url(#p2f29da27bb)">
     <use style="fill-opacity:0;stroke:#ff0000;stroke-linejoin:miter;stroke-width:3;" x="-1" xlink:href="#m367b93730e" y="581.189703"/>
     <use style="fill-opacity:0;stroke:#ff0000;stroke-linejoin:miter;stroke-width:3;" x="460.8" xlink:href="#m367b93730e" y="581.189703"/>
    </g>
   </g>
   <g id="line2d_132">
    <path clip-path="url(#p2f29da27bb)" d="M 233.687417 293.76 
L 233.687417 289.927604 
L 235.862154 289.927604 
L 235.862154 286.095208 
L 238.214512 286.095208 
L 238.214512 282.262812 
L 255.843264 282.262812 
L 255.843264 278.430416 
L 307.288932 278.430416 
L 307.288932 274.59802 
L 307.87165 274.59802 
L 307.87165 270.765624 
L 319.829409 270.765624 
L 319.829409 266.933228 
L 336.461246 266.933228 
L 336.461246 263.100832 
L 338.00239 263.100832 
L 338.00239 259.268436 
L 339.179327 259.268436 
L 339.179327 255.43604 
L 340.98287 255.43604 
L 340.98287 251.603644 
L 341.752059 251.603644 
L 341.752059 247.771248 
L 342.881788 247.771248 
L 342.881788 243.938851 
L 354.758419 243.938851 
L 354.758419 240.106455 
L 355.08039 240.106455 
L 355.08039 236.274059 
L 360.850165 236.274059 
L 360.850165 232.441663 
L 364.036749 232.441663 
L 364.036749 228.609267 
L 364.581362 228.609267 
L 364.581362 224.776871 
L 367.136547 224.776871 
L 367.136547 220.944475 
L 381.622163 220.944475 
L 381.622163 217.112079 
L 388.785908 217.112079 
L 388.785908 213.279683 
L 389.025289 213.279683 
L 389.025289 209.447287 
L 390.033479 209.447287 
L 390.033479 205.614891 
L 396.058706 205.614891 
L 396.058706 201.782495 
L 401.408915 201.782495 
L 401.408915 197.950099 
L 402.678872 197.950099 
L 402.678872 194.117703 
L 405.261199 194.117703 
L 405.261199 190.285307 
L 405.474818 190.285307 
L 405.474818 186.452911 
L 406.73376 186.452911 
L 406.73376 182.620515 
L 409.677975 182.620515 
L 409.677975 178.788119 
L 414.148718 178.788119 
L 414.148718 174.955723 
L 422.141796 174.955723 
L 422.141796 171.123327 
L 425.929999 171.123327 
L 425.929999 167.290931 
L 426.467043 167.290931 
L 426.467043 163.458535 
L 426.688124 163.458535 
L 426.688124 159.626139 
L 427.091348 159.626139 
L 427.091348 155.793743 
L 430.290482 155.793743 
L 430.290482 151.961347 
L 439.524442 151.961347 
L 439.524442 148.12895 
L 439.524442 148.12895 
L 439.524442 148.12895 
L 460.8 148.12895 
" style="fill:none;stroke:#ff0000;stroke-linecap:square;stroke-width:3;"/>
   </g>
   <g id="line2d_133">
    <defs>
     <path d="M 0 7.5 
C 1.989023 7.5 3.896849 6.709753 5.303301 5.303301 
C 6.709753 3.896849 7.5 1.989023 7.5 0 
C 7.5 -1.989023 6.709753 -3.896849 5.303301 -5.303301 
C 3.896849 -6.709753 1.989023 -7.5 0 -7.5 
C -1.989023 -7.5 -3.896849 -6.709753 -5.303301 -5.303301 
C -6.709753 -3.896849 -7.5 -1.989023 -7.5 0 
C -7.5 1.989023 -6.709753 3.896849 -5.303301 5.303301 
C -3.896849 6.709753 -1.989023 7.5 0 7.5 
z
" id="m2b6d7d255f" style="stroke:#ff0000;stroke-width:3;"/>
    </defs>
    <g clip-path="url(#p2f29da27bb)">
     <use style="fill-opacity:0;stroke:#ff0000;stroke-width:3;" x="307.87165" xlink:href="#m2b6d7d255f" y="274.59802"/>
     <use style="fill-opacity:0;stroke:#ff0000;stroke-width:3;" x="364.036749" xlink:href="#m2b6d7d255f" y="232.441663"/>
     <use style="fill-opacity:0;stroke:#ff0000;stroke-width:3;" x="422.141796" xlink:href="#m2b6d7d255f" y="174.955723"/>
     <use style="fill-opacity:0;stroke:#ff0000;stroke-width:3;" x="439.524442" xlink:href="#m2b6d7d255f" y="151.961347"/>
     <use style="fill-opacity:0;stroke:#ff0000;stroke-width:3;" x="439.524442" xlink:href="#m2b6d7d255f" y="148.12895"/>
    </g>
   </g>
   <g id="line2d_134">
    <path clip-path="url(#p2f29da27bb)" style="fill:none;stroke:#ff0000;stroke-linecap:square;stroke-width:3;"/>
   </g>
   <g id="line2d_135">
    <path clip-path="url(#p2f29da27bb)" d="M 441.790999 293.76 
L 441.790999 3.456 
" style="fill:none;stroke:#000000;stroke-linecap:square;stroke-width:1.5;"/>
    <defs>
     <path d="M -10 0 
L 10 0 
M 0 10 
L 0 -10 
" id="m45748368d8" style="stroke:#000000;stroke-width:3;"/>
    </defs>
    <g clip-path="url(#p2f29da27bb)">
     <use style="stroke:#000000;stroke-width:3;" x="441.790999" xlink:href="#m45748368d8" y="293.76"/>
     <use style="stroke:#000000;stroke-width:3;" x="441.790999" xlink:href="#m45748368d8" y="3.456"/>
    </g>
   </g>
   <g id="line2d_136">
    <path clip-path="url(#p2f29da27bb)" d="M 441.755638 293.76 
L 441.755638 3.456 
" style="fill:none;stroke:#000000;stroke-linecap:square;stroke-width:1.5;"/>
    <defs>
     <path d="M 0 7.5 
C 1.989023 7.5 3.896849 6.709753 5.303301 5.303301 
C 6.709753 3.896849 7.5 1.989023 7.5 0 
C 7.5 -1.989023 6.709753 -3.896849 5.303301 -5.303301 
C 3.896849 -6.709753 1.989023 -7.5 0 -7.5 
C -1.989023 -7.5 -3.896849 -6.709753 -5.303301 -5.303301 
C -6.709753 -3.896849 -7.5 -1.989023 -7.5 0 
C -7.5 1.989023 -6.709753 3.896849 -5.303301 5.303301 
C -3.896849 6.709753 -1.989023 7.5 0 7.5 
z
" id="m3191b1d1df" style="stroke:#000000;stroke-width:3;"/>
    </defs>
    <g clip-path="url(#p2f29da27bb)">
     <use style="fill-opacity:0;stroke:#000000;stroke-width:3;" x="441.755638" xlink:href="#m3191b1d1df" y="293.76"/>
     <use style="fill-opacity:0;stroke:#000000;stroke-width:3;" x="441.755638" xlink:href="#m3191b1d1df" y="3.456"/>
    </g>
   </g>
   <g id="patch_3">
    <path d="M 62.208 293.76 
L 62.208 3.456 
" style="fill:none;stroke:#000000;stroke-linecap:square;stroke-linejoin:miter;stroke-width:0.8;"/>
   </g>
   <g id="patch_4">
    <path d="M 460.8 293.76 
L 460.8 3.456 
" style="fill:none;stroke:#000000;stroke-linecap:square;stroke-linejoin:miter;stroke-width:0.8;"/>
   </g>
   <g id="patch_5">
    <path d="M 62.208 293.76 
L 460.8 293.76 
" style="fill:none;stroke:#000000;stroke-linecap:square;stroke-linejoin:miter;stroke-width:0.8;"/>
   </g>
   <g id="patch_6">
    <path d="M 62.208 3.456 
L 460.8 3.456 
" style="fill:none;stroke:#000000;stroke-linecap:square;stroke-linejoin:miter;stroke-width:0.8;"/>
   </g>
   <g id="text_11">
    <!-- f20-f24 -->
    <g transform="translate(225.405563 24.458955)scale(0.2 -0.2)">
     <defs>
      <path d="M 313 2009 
L 1997 2009 
L 1997 1497 
L 313 1497 
L 313 2009 
z
" id="DejaVuSans-2d" transform="scale(0.015625)"/>
     </defs>
     <use xlink:href="#DejaVuSans-66"/>
     <use x="35.205078" xlink:href="#DejaVuSans-32"/>
     <use x="98.828125" xlink:href="#DejaVuSans-30"/>
     <use x="162.451172" xlink:href="#DejaVuSans-2d"/>
     <use x="198.535156" xlink:href="#DejaVuSans-66"/>
     <use x="233.740234" xlink:href="#DejaVuSans-32"/>
     <use x="297.363281" xlink:href="#DejaVuSans-34"/>
    </g>
   </g>
   <g id="text_12">
    <!-- absolute targets -->
    <g transform="translate(62.208 607.633236)scale(0.14 -0.14)">
     <defs>
      <path d="M 3116 1747 
Q 3116 2381 2855 2742 
Q 2594 3103 2138 3103 
Q 1681 3103 1420 2742 
Q 1159 2381 1159 1747 
Q 1159 1113 1420 752 
Q 1681 391 2138 391 
Q 2594 391 2855 752 
Q 3116 1113 3116 1747 
z
M 1159 2969 
Q 1341 3281 1617 3432 
Q 1894 3584 2278 3584 
Q 2916 3584 3314 3078 
Q 3713 2572 3713 1747 
Q 3713 922 3314 415 
Q 2916 -91 2278 -91 
Q 1894 -91 1617 61 
Q 1341 213 1159 525 
L 1159 0 
L 581 0 
L 581 4863 
L 1159 4863 
L 1159 2969 
z
" id="DejaVuSans-62" transform="scale(0.015625)"/>
      <path d="M 544 1381 
L 544 3500 
L 1119 3500 
L 1119 1403 
Q 1119 906 1312 657 
Q 1506 409 1894 409 
Q 2359 409 2629 706 
Q 2900 1003 2900 1516 
L 2900 3500 
L 3475 3500 
L 3475 0 
L 2900 0 
L 2900 538 
Q 2691 219 2414 64 
Q 2138 -91 1772 -91 
Q 1169 -91 856 284 
Q 544 659 544 1381 
z
M 1991 3584 
L 1991 3584 
z
" id="DejaVuSans-75" transform="scale(0.015625)"/>
      <path d="M 3597 1894 
L 3597 1613 
L 953 1613 
Q 991 1019 1311 708 
Q 1631 397 2203 397 
Q 2534 397 2845 478 
Q 3156 559 3463 722 
L 3463 178 
Q 3153 47 2828 -22 
Q 2503 -91 2169 -91 
Q 1331 -91 842 396 
Q 353 884 353 1716 
Q 353 2575 817 3079 
Q 1281 3584 2069 3584 
Q 2775 3584 3186 3129 
Q 3597 2675 3597 1894 
z
M 3022 2063 
Q 3016 2534 2758 2815 
Q 2500 3097 2075 3097 
Q 1594 3097 1305 2825 
Q 1016 2553 972 2059 
L 3022 2063 
z
" id="DejaVuSans-65" transform="scale(0.015625)"/>
     </defs>
     <use xlink:href="#DejaVuSans-61"/>
     <use x="61.279297" xlink:href="#DejaVuSans-62"/>
     <use x="124.755859" xlink:href="#DejaVuSans-73"/>
     <use x="176.855469" xlink:href="#DejaVuSans-6f"/>
     <use x="238.037109" xlink:href="#DejaVuSans-6c"/>
     <use x="265.820312" xlink:href="#DejaVuSans-75"/>
     <use x="329.199219" xlink:href="#DejaVuSans-74"/>
     <use x="368.408203" xlink:href="#DejaVuSans-65"/>
     <use x="429.931641" xlink:href="#DejaVuSans-20"/>
     <use x="461.71875" xlink:href="#DejaVuSans-74"/>
     <use x="500.927734" xlink:href="#DejaVuSans-61"/>
     <use x="562.207031" xlink:href="#DejaVuSans-72"/>
     <use x="601.570312" xlink:href="#DejaVuSans-67"/>
     <use x="665.046875" xlink:href="#DejaVuSans-65"/>
     <use x="726.570312" xlink:href="#DejaVuSans-74"/>
     <use x="765.779297" xlink:href="#DejaVuSans-73"/>
    </g>
   </g>
   <g id="text_13">
    <!-- v2.6.3 -->
    <g style="fill:#808080;" transform="translate(245.82275 288.777272)scale(0.1 -0.1)">
     <use xlink:href="#DejaVuSans-76"/>
     <use x="59.179688" xlink:href="#DejaVuSans-32"/>
     <use x="122.802734" xlink:href="#DejaVuSans-2e"/>
     <use x="154.589844" xlink:href="#DejaVuSans-36"/>
     <use x="218.212891" xlink:href="#DejaVuSans-2e"/>
     <use x="250" xlink:href="#DejaVuSans-33"/>
    </g>
   </g>
   <g id="legend_1">
    <g id="patch_7">
     <path d="M 76.208 136.881 
L 160.148625 136.881 
Q 164.148625 136.881 164.148625 132.881 
L 164.148625 17.456 
Q 164.148625 13.456 160.148625 13.456 
L 76.208 13.456 
Q 72.208 13.456 72.208 17.456 
L 72.208 132.881 
Q 72.208 136.881 76.208 136.881 
z
" style="fill:#ffffff;opacity:0.2;stroke:#cccccc;stroke-linejoin:miter;"/>
    </g>
    <g id="line2d_137">
     <path d="M 80.208 29.652875 
L 120.208 29.652875 
" style="fill:none;stroke:#000000;stroke-linecap:square;stroke-width:1.5;"/>
    </g>
    <g id="line2d_138"/>
    <g id="text_14">
     <!-- 1 -->
     <g transform="translate(136.208 36.652875)scale(0.2 -0.2)">
      <use xlink:href="#DejaVuSans-31"/>
     </g>
    </g>
    <g id="line2d_139">
     <path d="M 80.208 59.009125 
L 120.208 59.009125 
" style="fill:none;stroke:#00bfbf;stroke-linecap:square;stroke-width:1.5;"/>
    </g>
    <g id="line2d_140"/>
    <g id="text_15">
     <!-- -1 -->
     <g transform="translate(136.208 66.009125)scale(0.2 -0.2)">
      <use xlink:href="#DejaVuSans-2d"/>
      <use x="36.083984" xlink:href="#DejaVuSans-31"/>
     </g>
    </g>
    <g id="line2d_141">
     <path d="M 80.208 88.365375 
L 120.208 88.365375 
" style="fill:none;stroke:#bf00bf;stroke-linecap:square;stroke-width:1.5;"/>
    </g>
    <g id="line2d_142"/>
    <g id="text_16">
     <!-- -4 -->
     <g transform="translate(136.208 95.365375)scale(0.2 -0.2)">
      <use xlink:href="#DejaVuSans-2d"/>
      <use x="36.083984" xlink:href="#DejaVuSans-34"/>
     </g>
    </g>
    <g id="line2d_143">
     <path d="M 80.208 117.721625 
L 120.208 117.721625 
" style="fill:none;stroke:#ff0000;stroke-linecap:square;stroke-width:3;"/>
    </g>
    <g id="line2d_144"/>
    <g id="text_17">
     <!-- -8 -->
     <g transform="translate(136.208 124.721625)scale(0.2 -0.2)">
      <use xlink:href="#DejaVuSans-2d"/>
      <use x="36.083984" xlink:href="#DejaVuSans-38"/>
     </g>
    </g>
   </g>
  </g>
 </g>
 <defs>
  <clipPath id="p2f29da27bb">
   <rect height="290.304" width="398.592" x="62.208" y="3.456"/>
  </clipPath>
 </defs>
</svg>
