<?xml version="1.0" encoding="utf-8" standalone="no"?>
<!DOCTYPE svg PUBLIC "-//W3C//DTD SVG 1.1//EN"
  "http://www.w3.org/Graphics/SVG/1.1/DTD/svg11.dtd">
<svg height="345.6pt" version="1.1" viewBox="0 0 460.8 345.6" width="460.8pt" xmlns="http://www.w3.org/2000/svg" xmlns:xlink="http://www.w3.org/1999/xlink">
 <metadata>
  <rdf:RDF xmlns:cc="http://creativecommons.org/ns#" xmlns:dc="http://purl.org/dc/elements/1.1/" xmlns:rdf="http://www.w3.org/1999/02/22-rdf-syntax-ns#">
   <cc:Work>
    <dc:type rdf:resource="http://purl.org/dc/dcmitype/StillImage"/>
    <dc:date>2023-04-17T17:52:32.760023</dc:date>
    <dc:format>image/svg+xml</dc:format>
    <dc:creator>
     <cc:Agent>
      <dc:title>Matplotlib v3.4.1, https://matplotlib.org/</dc:title>
     </cc:Agent>
    </dc:creator>
   </cc:Work>
  </rdf:RDF>
 </metadata>
 <defs>
  <style type="text/css">*{stroke-linecap:butt;stroke-linejoin:round;}</style>
 </defs>
 <g id="figure_1">
  <g id="patch_1">
   <path d="M 0 345.6 
L 460.8 345.6 
L 460.8 0 
L 0 0 
z
" style="fill:#ffffff;"/>
  </g>
  <g id="axes_1">
   <g id="patch_2">
    <path d="M 62.208 293.76 
L 460.8 293.76 
L 460.8 3.456 
L 62.208 3.456 
z
" style="fill:#ffffff;"/>
   </g>
   <g id="line2d_1"/>
   <g id="line2d_2"/>
   <g id="line2d_3"/>
   <g id="line2d_4"/>
   <g id="line2d_5">
    <path clip-path="url(#p63eecb6df9)" d="M 411.065074 293.76 
L 411.065074 289.927604 
L 412.510609 289.927604 
L 412.510609 286.095208 
L 412.719372 286.095208 
L 412.719372 282.262812 
L 442.041009 282.262812 
L 442.041009 278.430416 
L 442.890882 278.430416 
L 442.984694 270.765624 
L 443.112666 270.765624 
L 443.112666 266.933228 
L 443.567266 266.933228 
L 443.668102 259.268436 
L 444.159584 259.268436 
L 444.159584 255.43604 
L 444.654484 255.43604 
L 444.654484 251.603644 
L 445.871273 251.603644 
L 445.871273 247.771248 
L 447.083919 247.771248 
L 447.083919 243.938851 
L 447.891358 243.938851 
L 447.891358 240.106455 
L 448.430651 240.106455 
L 448.512761 232.441663 
L 448.712933 232.441663 
L 448.712933 228.609267 
L 449.424992 228.609267 
L 449.424992 224.776871 
L 450.900948 224.776871 
L 450.900948 220.944475 
L 458.877271 220.944475 
L 458.877271 217.112079 
L 461.8 217.112079 
L 461.8 217.112079 
" style="fill:none;stroke:#f5deb3;stroke-linecap:square;stroke-width:1.5;"/>
   </g>
   <g id="line2d_6"/>
   <g id="line2d_7"/>
   <g id="line2d_8"/>
   <g id="line2d_9"/>
   <g id="line2d_10"/>
   <g id="line2d_11"/>
   <g id="line2d_12"/>
   <g id="line2d_13"/>
   <g id="line2d_14"/>
   <g id="line2d_15"/>
   <g id="line2d_16"/>
   <g id="line2d_17">
    <path clip-path="url(#p63eecb6df9)" d="M 428.02669 293.76 
L 428.02669 289.927604 
L 429.18633 289.927604 
L 429.18633 286.095208 
L 430.877058 286.095208 
L 430.877058 282.262812 
L 431.78621 282.262812 
L 431.78621 278.430416 
L 431.884285 278.430416 
L 431.884285 274.59802 
L 432.204638 274.59802 
L 432.204638 270.765624 
L 432.718563 270.765624 
L 432.718563 266.933228 
L 432.782596 266.933228 
L 432.782596 263.100832 
L 433.979931 263.100832 
L 433.979931 259.268436 
L 434.076771 259.268436 
L 434.076771 255.43604 
L 436.659777 255.43604 
L 436.659777 251.603644 
L 461.8 251.603644 
" style="fill:none;stroke:#f5deb3;stroke-linecap:square;stroke-width:1.5;"/>
   </g>
   <g id="line2d_18"/>
   <g id="line2d_19">
    <path clip-path="url(#p63eecb6df9)" style="fill:none;stroke:#f5deb3;stroke-linecap:square;stroke-width:1.5;"/>
   </g>
   <g id="line2d_20"/>
   <g id="matplotlib.axis_1">
    <g id="xtick_1">
     <g id="line2d_21">
      <path clip-path="url(#p63eecb6df9)" d="M 157.086061 293.76 
L 157.086061 3.456 
" style="fill:none;stroke:#b0b0b0;stroke-linecap:square;stroke-width:0.8;"/>
     </g>
     <g id="line2d_22">
      <defs>
       <path d="M 0 0 
L 0 3.5 
" id="m8e07452188" style="stroke:#000000;stroke-width:0.8;"/>
      </defs>
      <g>
       <use style="stroke:#000000;stroke-width:0.8;" x="157.086061" xlink:href="#m8e07452188" y="293.76"/>
      </g>
     </g>
     <g id="text_1">
      <!-- 1 -->
      <g transform="translate(150.723561 315.956875)scale(0.2 -0.2)">
       <defs>
        <path d="M 794 531 
L 1825 531 
L 1825 4091 
L 703 3866 
L 703 4441 
L 1819 4666 
L 2450 4666 
L 2450 531 
L 3481 531 
L 3481 0 
L 794 0 
L 794 531 
z
" id="DejaVuSans-31" transform="scale(0.015625)"/>
       </defs>
       <use xlink:href="#DejaVuSans-31"/>
      </g>
     </g>
    </g>
    <g id="xtick_2">
     <g id="line2d_23">
      <path clip-path="url(#p63eecb6df9)" d="M 346.842183 293.76 
L 346.842183 3.456 
" style="fill:none;stroke:#b0b0b0;stroke-linecap:square;stroke-width:0.8;"/>
     </g>
     <g id="line2d_24">
      <g>
       <use style="stroke:#000000;stroke-width:0.8;" x="346.842183" xlink:href="#m8e07452188" y="293.76"/>
      </g>
     </g>
     <g id="text_2">
      <!-- 3 -->
      <g transform="translate(340.479683 315.956875)scale(0.2 -0.2)">
       <defs>
        <path d="M 2597 2516 
Q 3050 2419 3304 2112 
Q 3559 1806 3559 1356 
Q 3559 666 3084 287 
Q 2609 -91 1734 -91 
Q 1441 -91 1130 -33 
Q 819 25 488 141 
L 488 750 
Q 750 597 1062 519 
Q 1375 441 1716 441 
Q 2309 441 2620 675 
Q 2931 909 2931 1356 
Q 2931 1769 2642 2001 
Q 2353 2234 1838 2234 
L 1294 2234 
L 1294 2753 
L 1863 2753 
Q 2328 2753 2575 2939 
Q 2822 3125 2822 3475 
Q 2822 3834 2567 4026 
Q 2313 4219 1838 4219 
Q 1578 4219 1281 4162 
Q 984 4106 628 3988 
L 628 4550 
Q 988 4650 1302 4700 
Q 1616 4750 1894 4750 
Q 2613 4750 3031 4423 
Q 3450 4097 3450 3541 
Q 3450 3153 3228 2886 
Q 3006 2619 2597 2516 
z
" id="DejaVuSans-33" transform="scale(0.015625)"/>
       </defs>
       <use xlink:href="#DejaVuSans-33"/>
      </g>
     </g>
    </g>
    <g id="xtick_3">
     <g id="line2d_25">
      <path clip-path="url(#p63eecb6df9)" d="M 90.769142 293.76 
L 90.769142 3.456 
" style="fill:none;stroke:#b0b0b0;stroke-linecap:square;stroke-width:0.8;"/>
     </g>
     <g id="line2d_26">
      <defs>
       <path d="M 0 0 
L 0 2 
" id="m84d51a59b8" style="stroke:#000000;stroke-width:0.6;"/>
      </defs>
      <g>
       <use style="stroke:#000000;stroke-width:0.6;" x="90.769142" xlink:href="#m84d51a59b8" y="293.76"/>
      </g>
     </g>
    </g>
    <g id="xtick_4">
     <g id="line2d_27">
      <path clip-path="url(#p63eecb6df9)" d="M 107.47634 293.76 
L 107.47634 3.456 
" style="fill:none;stroke:#b0b0b0;stroke-linecap:square;stroke-width:0.8;"/>
     </g>
     <g id="line2d_28">
      <g>
       <use style="stroke:#000000;stroke-width:0.6;" x="107.47634" xlink:href="#m84d51a59b8" y="293.76"/>
      </g>
     </g>
    </g>
    <g id="xtick_5">
     <g id="line2d_29">
      <path clip-path="url(#p63eecb6df9)" d="M 119.330285 293.76 
L 119.330285 3.456 
" style="fill:none;stroke:#b0b0b0;stroke-linecap:square;stroke-width:0.8;"/>
     </g>
     <g id="line2d_30">
      <g>
       <use style="stroke:#000000;stroke-width:0.6;" x="119.330285" xlink:href="#m84d51a59b8" y="293.76"/>
      </g>
     </g>
    </g>
    <g id="xtick_6">
     <g id="line2d_31">
      <path clip-path="url(#p63eecb6df9)" d="M 128.524919 293.76 
L 128.524919 3.456 
" style="fill:none;stroke:#b0b0b0;stroke-linecap:square;stroke-width:0.8;"/>
     </g>
     <g id="line2d_32">
      <g>
       <use style="stroke:#000000;stroke-width:0.6;" x="128.524919" xlink:href="#m84d51a59b8" y="293.76"/>
      </g>
     </g>
    </g>
    <g id="xtick_7">
     <g id="line2d_33">
      <path clip-path="url(#p63eecb6df9)" d="M 136.037482 293.76 
L 136.037482 3.456 
" style="fill:none;stroke:#b0b0b0;stroke-linecap:square;stroke-width:0.8;"/>
     </g>
     <g id="line2d_34">
      <g>
       <use style="stroke:#000000;stroke-width:0.6;" x="136.037482" xlink:href="#m84d51a59b8" y="293.76"/>
      </g>
     </g>
    </g>
    <g id="xtick_8">
     <g id="line2d_35">
      <path clip-path="url(#p63eecb6df9)" d="M 142.389263 293.76 
L 142.389263 3.456 
" style="fill:none;stroke:#b0b0b0;stroke-linecap:square;stroke-width:0.8;"/>
     </g>
     <g id="line2d_36">
      <g>
       <use style="stroke:#000000;stroke-width:0.6;" x="142.389263" xlink:href="#m84d51a59b8" y="293.76"/>
      </g>
     </g>
    </g>
    <g id="xtick_9">
     <g id="line2d_37">
      <path clip-path="url(#p63eecb6df9)" d="M 147.891427 293.76 
L 147.891427 3.456 
" style="fill:none;stroke:#b0b0b0;stroke-linecap:square;stroke-width:0.8;"/>
     </g>
     <g id="line2d_38">
      <g>
       <use style="stroke:#000000;stroke-width:0.6;" x="147.891427" xlink:href="#m84d51a59b8" y="293.76"/>
      </g>
     </g>
    </g>
    <g id="xtick_10">
     <g id="line2d_39">
      <path clip-path="url(#p63eecb6df9)" d="M 152.744679 293.76 
L 152.744679 3.456 
" style="fill:none;stroke:#b0b0b0;stroke-linecap:square;stroke-width:0.8;"/>
     </g>
     <g id="line2d_40">
      <g>
       <use style="stroke:#000000;stroke-width:0.6;" x="152.744679" xlink:href="#m84d51a59b8" y="293.76"/>
      </g>
     </g>
    </g>
    <g id="xtick_11">
     <g id="line2d_41">
      <path clip-path="url(#p63eecb6df9)" d="M 185.647203 293.76 
L 185.647203 3.456 
" style="fill:none;stroke:#b0b0b0;stroke-linecap:square;stroke-width:0.8;"/>
     </g>
     <g id="line2d_42">
      <g>
       <use style="stroke:#000000;stroke-width:0.6;" x="185.647203" xlink:href="#m84d51a59b8" y="293.76"/>
      </g>
     </g>
    </g>
    <g id="xtick_12">
     <g id="line2d_43">
      <path clip-path="url(#p63eecb6df9)" d="M 202.3544 293.76 
L 202.3544 3.456 
" style="fill:none;stroke:#b0b0b0;stroke-linecap:square;stroke-width:0.8;"/>
     </g>
     <g id="line2d_44">
      <g>
       <use style="stroke:#000000;stroke-width:0.6;" x="202.3544" xlink:href="#m84d51a59b8" y="293.76"/>
      </g>
     </g>
    </g>
    <g id="xtick_13">
     <g id="line2d_45">
      <path clip-path="url(#p63eecb6df9)" d="M 214.208346 293.76 
L 214.208346 3.456 
" style="fill:none;stroke:#b0b0b0;stroke-linecap:square;stroke-width:0.8;"/>
     </g>
     <g id="line2d_46">
      <g>
       <use style="stroke:#000000;stroke-width:0.6;" x="214.208346" xlink:href="#m84d51a59b8" y="293.76"/>
      </g>
     </g>
    </g>
    <g id="xtick_14">
     <g id="line2d_47">
      <path clip-path="url(#p63eecb6df9)" d="M 223.40298 293.76 
L 223.40298 3.456 
" style="fill:none;stroke:#b0b0b0;stroke-linecap:square;stroke-width:0.8;"/>
     </g>
     <g id="line2d_48">
      <g>
       <use style="stroke:#000000;stroke-width:0.6;" x="223.40298" xlink:href="#m84d51a59b8" y="293.76"/>
      </g>
     </g>
    </g>
    <g id="xtick_15">
     <g id="line2d_49">
      <path clip-path="url(#p63eecb6df9)" d="M 230.915543 293.76 
L 230.915543 3.456 
" style="fill:none;stroke:#b0b0b0;stroke-linecap:square;stroke-width:0.8;"/>
     </g>
     <g id="line2d_50">
      <g>
       <use style="stroke:#000000;stroke-width:0.6;" x="230.915543" xlink:href="#m84d51a59b8" y="293.76"/>
      </g>
     </g>
    </g>
    <g id="xtick_16">
     <g id="line2d_51">
      <path clip-path="url(#p63eecb6df9)" d="M 237.267324 293.76 
L 237.267324 3.456 
" style="fill:none;stroke:#b0b0b0;stroke-linecap:square;stroke-width:0.8;"/>
     </g>
     <g id="line2d_52">
      <g>
       <use style="stroke:#000000;stroke-width:0.6;" x="237.267324" xlink:href="#m84d51a59b8" y="293.76"/>
      </g>
     </g>
    </g>
    <g id="xtick_17">
     <g id="line2d_53">
      <path clip-path="url(#p63eecb6df9)" d="M 242.769488 293.76 
L 242.769488 3.456 
" style="fill:none;stroke:#b0b0b0;stroke-linecap:square;stroke-width:0.8;"/>
     </g>
     <g id="line2d_54">
      <g>
       <use style="stroke:#000000;stroke-width:0.6;" x="242.769488" xlink:href="#m84d51a59b8" y="293.76"/>
      </g>
     </g>
    </g>
    <g id="xtick_18">
     <g id="line2d_55">
      <path clip-path="url(#p63eecb6df9)" d="M 247.62274 293.76 
L 247.62274 3.456 
" style="fill:none;stroke:#b0b0b0;stroke-linecap:square;stroke-width:0.8;"/>
     </g>
     <g id="line2d_56">
      <g>
       <use style="stroke:#000000;stroke-width:0.6;" x="247.62274" xlink:href="#m84d51a59b8" y="293.76"/>
      </g>
     </g>
    </g>
    <g id="xtick_19">
     <g id="line2d_57">
      <path clip-path="url(#p63eecb6df9)" d="M 280.525264 293.76 
L 280.525264 3.456 
" style="fill:none;stroke:#b0b0b0;stroke-linecap:square;stroke-width:0.8;"/>
     </g>
     <g id="line2d_58">
      <g>
       <use style="stroke:#000000;stroke-width:0.6;" x="280.525264" xlink:href="#m84d51a59b8" y="293.76"/>
      </g>
     </g>
    </g>
    <g id="xtick_20">
     <g id="line2d_59">
      <path clip-path="url(#p63eecb6df9)" d="M 297.232461 293.76 
L 297.232461 3.456 
" style="fill:none;stroke:#b0b0b0;stroke-linecap:square;stroke-width:0.8;"/>
     </g>
     <g id="line2d_60">
      <g>
       <use style="stroke:#000000;stroke-width:0.6;" x="297.232461" xlink:href="#m84d51a59b8" y="293.76"/>
      </g>
     </g>
    </g>
    <g id="xtick_21">
     <g id="line2d_61">
      <path clip-path="url(#p63eecb6df9)" d="M 309.086407 293.76 
L 309.086407 3.456 
" style="fill:none;stroke:#b0b0b0;stroke-linecap:square;stroke-width:0.8;"/>
     </g>
     <g id="line2d_62">
      <g>
       <use style="stroke:#000000;stroke-width:0.6;" x="309.086407" xlink:href="#m84d51a59b8" y="293.76"/>
      </g>
     </g>
    </g>
    <g id="xtick_22">
     <g id="line2d_63">
      <path clip-path="url(#p63eecb6df9)" d="M 318.281041 293.76 
L 318.281041 3.456 
" style="fill:none;stroke:#b0b0b0;stroke-linecap:square;stroke-width:0.8;"/>
     </g>
     <g id="line2d_64">
      <g>
       <use style="stroke:#000000;stroke-width:0.6;" x="318.281041" xlink:href="#m84d51a59b8" y="293.76"/>
      </g>
     </g>
    </g>
    <g id="xtick_23">
     <g id="line2d_65">
      <path clip-path="url(#p63eecb6df9)" d="M 325.793604 293.76 
L 325.793604 3.456 
" style="fill:none;stroke:#b0b0b0;stroke-linecap:square;stroke-width:0.8;"/>
     </g>
     <g id="line2d_66">
      <g>
       <use style="stroke:#000000;stroke-width:0.6;" x="325.793604" xlink:href="#m84d51a59b8" y="293.76"/>
      </g>
     </g>
    </g>
    <g id="xtick_24">
     <g id="line2d_67">
      <path clip-path="url(#p63eecb6df9)" d="M 332.145385 293.76 
L 332.145385 3.456 
" style="fill:none;stroke:#b0b0b0;stroke-linecap:square;stroke-width:0.8;"/>
     </g>
     <g id="line2d_68">
      <g>
       <use style="stroke:#000000;stroke-width:0.6;" x="332.145385" xlink:href="#m84d51a59b8" y="293.76"/>
      </g>
     </g>
    </g>
    <g id="xtick_25">
     <g id="line2d_69">
      <path clip-path="url(#p63eecb6df9)" d="M 337.647549 293.76 
L 337.647549 3.456 
" style="fill:none;stroke:#b0b0b0;stroke-linecap:square;stroke-width:0.8;"/>
     </g>
     <g id="line2d_70">
      <g>
       <use style="stroke:#000000;stroke-width:0.6;" x="337.647549" xlink:href="#m84d51a59b8" y="293.76"/>
      </g>
     </g>
    </g>
    <g id="xtick_26">
     <g id="line2d_71">
      <path clip-path="url(#p63eecb6df9)" d="M 342.500801 293.76 
L 342.500801 3.456 
" style="fill:none;stroke:#b0b0b0;stroke-linecap:square;stroke-width:0.8;"/>
     </g>
     <g id="line2d_72">
      <g>
       <use style="stroke:#000000;stroke-width:0.6;" x="342.500801" xlink:href="#m84d51a59b8" y="293.76"/>
      </g>
     </g>
    </g>
    <g id="xtick_27">
     <g id="line2d_73">
      <path clip-path="url(#p63eecb6df9)" d="M 375.403325 293.76 
L 375.403325 3.456 
" style="fill:none;stroke:#b0b0b0;stroke-linecap:square;stroke-width:0.8;"/>
     </g>
     <g id="line2d_74">
      <g>
       <use style="stroke:#000000;stroke-width:0.6;" x="375.403325" xlink:href="#m84d51a59b8" y="293.76"/>
      </g>
     </g>
    </g>
    <g id="xtick_28">
     <g id="line2d_75">
      <path clip-path="url(#p63eecb6df9)" d="M 392.110522 293.76 
L 392.110522 3.456 
" style="fill:none;stroke:#b0b0b0;stroke-linecap:square;stroke-width:0.8;"/>
     </g>
     <g id="line2d_76">
      <g>
       <use style="stroke:#000000;stroke-width:0.6;" x="392.110522" xlink:href="#m84d51a59b8" y="293.76"/>
      </g>
     </g>
    </g>
    <g id="xtick_29">
     <g id="line2d_77">
      <path clip-path="url(#p63eecb6df9)" d="M 403.964468 293.76 
L 403.964468 3.456 
" style="fill:none;stroke:#b0b0b0;stroke-linecap:square;stroke-width:0.8;"/>
     </g>
     <g id="line2d_78">
      <g>
       <use style="stroke:#000000;stroke-width:0.6;" x="403.964468" xlink:href="#m84d51a59b8" y="293.76"/>
      </g>
     </g>
    </g>
    <g id="xtick_30">
     <g id="line2d_79">
      <path clip-path="url(#p63eecb6df9)" d="M 413.159102 293.76 
L 413.159102 3.456 
" style="fill:none;stroke:#b0b0b0;stroke-linecap:square;stroke-width:0.8;"/>
     </g>
     <g id="line2d_80">
      <g>
       <use style="stroke:#000000;stroke-width:0.6;" x="413.159102" xlink:href="#m84d51a59b8" y="293.76"/>
      </g>
     </g>
    </g>
    <g id="xtick_31">
     <g id="line2d_81">
      <path clip-path="url(#p63eecb6df9)" d="M 420.671665 293.76 
L 420.671665 3.456 
" style="fill:none;stroke:#b0b0b0;stroke-linecap:square;stroke-width:0.8;"/>
     </g>
     <g id="line2d_82">
      <g>
       <use style="stroke:#000000;stroke-width:0.6;" x="420.671665" xlink:href="#m84d51a59b8" y="293.76"/>
      </g>
     </g>
    </g>
    <g id="xtick_32">
     <g id="line2d_83">
      <path clip-path="url(#p63eecb6df9)" d="M 427.023446 293.76 
L 427.023446 3.456 
" style="fill:none;stroke:#b0b0b0;stroke-linecap:square;stroke-width:0.8;"/>
     </g>
     <g id="line2d_84">
      <g>
       <use style="stroke:#000000;stroke-width:0.6;" x="427.023446" xlink:href="#m84d51a59b8" y="293.76"/>
      </g>
     </g>
    </g>
    <g id="xtick_33">
     <g id="line2d_85">
      <path clip-path="url(#p63eecb6df9)" d="M 432.52561 293.76 
L 432.52561 3.456 
" style="fill:none;stroke:#b0b0b0;stroke-linecap:square;stroke-width:0.8;"/>
     </g>
     <g id="line2d_86">
      <g>
       <use style="stroke:#000000;stroke-width:0.6;" x="432.52561" xlink:href="#m84d51a59b8" y="293.76"/>
      </g>
     </g>
    </g>
    <g id="xtick_34">
     <g id="line2d_87">
      <path clip-path="url(#p63eecb6df9)" d="M 437.378862 293.76 
L 437.378862 3.456 
" style="fill:none;stroke:#b0b0b0;stroke-linecap:square;stroke-width:0.8;"/>
     </g>
     <g id="line2d_88">
      <g>
       <use style="stroke:#000000;stroke-width:0.6;" x="437.378862" xlink:href="#m84d51a59b8" y="293.76"/>
      </g>
     </g>
    </g>
    <g id="text_3">
     <!-- log10 of FEvals / DIM -->
     <g transform="translate(156.430563 339.313125)scale(0.2 -0.2)">
      <defs>
       <path d="M 603 4863 
L 1178 4863 
L 1178 0 
L 603 0 
L 603 4863 
z
" id="DejaVuSans-6c" transform="scale(0.015625)"/>
       <path d="M 1959 3097 
Q 1497 3097 1228 2736 
Q 959 2375 959 1747 
Q 959 1119 1226 758 
Q 1494 397 1959 397 
Q 2419 397 2687 759 
Q 2956 1122 2956 1747 
Q 2956 2369 2687 2733 
Q 2419 3097 1959 3097 
z
M 1959 3584 
Q 2709 3584 3137 3096 
Q 3566 2609 3566 1747 
Q 3566 888 3137 398 
Q 2709 -91 1959 -91 
Q 1206 -91 779 398 
Q 353 888 353 1747 
Q 353 2609 779 3096 
Q 1206 3584 1959 3584 
z
" id="DejaVuSans-6f" transform="scale(0.015625)"/>
       <path d="M 2906 1791 
Q 2906 2416 2648 2759 
Q 2391 3103 1925 3103 
Q 1463 3103 1205 2759 
Q 947 2416 947 1791 
Q 947 1169 1205 825 
Q 1463 481 1925 481 
Q 2391 481 2648 825 
Q 2906 1169 2906 1791 
z
M 3481 434 
Q 3481 -459 3084 -895 
Q 2688 -1331 1869 -1331 
Q 1566 -1331 1297 -1286 
Q 1028 -1241 775 -1147 
L 775 -588 
Q 1028 -725 1275 -790 
Q 1522 -856 1778 -856 
Q 2344 -856 2625 -561 
Q 2906 -266 2906 331 
L 2906 616 
Q 2728 306 2450 153 
Q 2172 0 1784 0 
Q 1141 0 747 490 
Q 353 981 353 1791 
Q 353 2603 747 3093 
Q 1141 3584 1784 3584 
Q 2172 3584 2450 3431 
Q 2728 3278 2906 2969 
L 2906 3500 
L 3481 3500 
L 3481 434 
z
" id="DejaVuSans-67" transform="scale(0.015625)"/>
       <path d="M 2034 4250 
Q 1547 4250 1301 3770 
Q 1056 3291 1056 2328 
Q 1056 1369 1301 889 
Q 1547 409 2034 409 
Q 2525 409 2770 889 
Q 3016 1369 3016 2328 
Q 3016 3291 2770 3770 
Q 2525 4250 2034 4250 
z
M 2034 4750 
Q 2819 4750 3233 4129 
Q 3647 3509 3647 2328 
Q 3647 1150 3233 529 
Q 2819 -91 2034 -91 
Q 1250 -91 836 529 
Q 422 1150 422 2328 
Q 422 3509 836 4129 
Q 1250 4750 2034 4750 
z
" id="DejaVuSans-30" transform="scale(0.015625)"/>
       <path id="DejaVuSans-20" transform="scale(0.015625)"/>
       <path d="M 2375 4863 
L 2375 4384 
L 1825 4384 
Q 1516 4384 1395 4259 
Q 1275 4134 1275 3809 
L 1275 3500 
L 2222 3500 
L 2222 3053 
L 1275 3053 
L 1275 0 
L 697 0 
L 697 3053 
L 147 3053 
L 147 3500 
L 697 3500 
L 697 3744 
Q 697 4328 969 4595 
Q 1241 4863 1831 4863 
L 2375 4863 
z
" id="DejaVuSans-66" transform="scale(0.015625)"/>
       <path d="M 628 4666 
L 3309 4666 
L 3309 4134 
L 1259 4134 
L 1259 2759 
L 3109 2759 
L 3109 2228 
L 1259 2228 
L 1259 0 
L 628 0 
L 628 4666 
z
" id="DejaVuSans-46" transform="scale(0.015625)"/>
       <path d="M 628 4666 
L 3578 4666 
L 3578 4134 
L 1259 4134 
L 1259 2753 
L 3481 2753 
L 3481 2222 
L 1259 2222 
L 1259 531 
L 3634 531 
L 3634 0 
L 628 0 
L 628 4666 
z
" id="DejaVuSans-45" transform="scale(0.015625)"/>
       <path d="M 191 3500 
L 800 3500 
L 1894 563 
L 2988 3500 
L 3597 3500 
L 2284 0 
L 1503 0 
L 191 3500 
z
" id="DejaVuSans-76" transform="scale(0.015625)"/>
       <path d="M 2194 1759 
Q 1497 1759 1228 1600 
Q 959 1441 959 1056 
Q 959 750 1161 570 
Q 1363 391 1709 391 
Q 2188 391 2477 730 
Q 2766 1069 2766 1631 
L 2766 1759 
L 2194 1759 
z
M 3341 1997 
L 3341 0 
L 2766 0 
L 2766 531 
Q 2569 213 2275 61 
Q 1981 -91 1556 -91 
Q 1019 -91 701 211 
Q 384 513 384 1019 
Q 384 1609 779 1909 
Q 1175 2209 1959 2209 
L 2766 2209 
L 2766 2266 
Q 2766 2663 2505 2880 
Q 2244 3097 1772 3097 
Q 1472 3097 1187 3025 
Q 903 2953 641 2809 
L 641 3341 
Q 956 3463 1253 3523 
Q 1550 3584 1831 3584 
Q 2591 3584 2966 3190 
Q 3341 2797 3341 1997 
z
" id="DejaVuSans-61" transform="scale(0.015625)"/>
       <path d="M 2834 3397 
L 2834 2853 
Q 2591 2978 2328 3040 
Q 2066 3103 1784 3103 
Q 1356 3103 1142 2972 
Q 928 2841 928 2578 
Q 928 2378 1081 2264 
Q 1234 2150 1697 2047 
L 1894 2003 
Q 2506 1872 2764 1633 
Q 3022 1394 3022 966 
Q 3022 478 2636 193 
Q 2250 -91 1575 -91 
Q 1294 -91 989 -36 
Q 684 19 347 128 
L 347 722 
Q 666 556 975 473 
Q 1284 391 1588 391 
Q 1994 391 2212 530 
Q 2431 669 2431 922 
Q 2431 1156 2273 1281 
Q 2116 1406 1581 1522 
L 1381 1569 
Q 847 1681 609 1914 
Q 372 2147 372 2553 
Q 372 3047 722 3315 
Q 1072 3584 1716 3584 
Q 2034 3584 2315 3537 
Q 2597 3491 2834 3397 
z
" id="DejaVuSans-73" transform="scale(0.015625)"/>
       <path d="M 1625 4666 
L 2156 4666 
L 531 -594 
L 0 -594 
L 1625 4666 
z
" id="DejaVuSans-2f" transform="scale(0.015625)"/>
       <path d="M 1259 4147 
L 1259 519 
L 2022 519 
Q 2988 519 3436 956 
Q 3884 1394 3884 2338 
Q 3884 3275 3436 3711 
Q 2988 4147 2022 4147 
L 1259 4147 
z
M 628 4666 
L 1925 4666 
Q 3281 4666 3915 4102 
Q 4550 3538 4550 2338 
Q 4550 1131 3912 565 
Q 3275 0 1925 0 
L 628 0 
L 628 4666 
z
" id="DejaVuSans-44" transform="scale(0.015625)"/>
       <path d="M 628 4666 
L 1259 4666 
L 1259 0 
L 628 0 
L 628 4666 
z
" id="DejaVuSans-49" transform="scale(0.015625)"/>
       <path d="M 628 4666 
L 1569 4666 
L 2759 1491 
L 3956 4666 
L 4897 4666 
L 4897 0 
L 4281 0 
L 4281 4097 
L 3078 897 
L 2444 897 
L 1241 4097 
L 1241 0 
L 628 0 
L 628 4666 
z
" id="DejaVuSans-4d" transform="scale(0.015625)"/>
      </defs>
      <use xlink:href="#DejaVuSans-6c"/>
      <use x="27.783203" xlink:href="#DejaVuSans-6f"/>
      <use x="88.964844" xlink:href="#DejaVuSans-67"/>
      <use x="152.441406" xlink:href="#DejaVuSans-31"/>
      <use x="216.064453" xlink:href="#DejaVuSans-30"/>
      <use x="279.6875" xlink:href="#DejaVuSans-20"/>
      <use x="311.474609" xlink:href="#DejaVuSans-6f"/>
      <use x="372.65625" xlink:href="#DejaVuSans-66"/>
      <use x="407.861328" xlink:href="#DejaVuSans-20"/>
      <use x="439.648438" xlink:href="#DejaVuSans-46"/>
      <use x="497.167969" xlink:href="#DejaVuSans-45"/>
      <use x="560.351562" xlink:href="#DejaVuSans-76"/>
      <use x="619.53125" xlink:href="#DejaVuSans-61"/>
      <use x="680.810547" xlink:href="#DejaVuSans-6c"/>
      <use x="708.59375" xlink:href="#DejaVuSans-73"/>
      <use x="760.693359" xlink:href="#DejaVuSans-20"/>
      <use x="792.480469" xlink:href="#DejaVuSans-2f"/>
      <use x="826.171875" xlink:href="#DejaVuSans-20"/>
      <use x="857.958984" xlink:href="#DejaVuSans-44"/>
      <use x="934.960938" xlink:href="#DejaVuSans-49"/>
      <use x="964.453125" xlink:href="#DejaVuSans-4d"/>
     </g>
    </g>
   </g>
   <g id="matplotlib.axis_2">
    <g id="ytick_1">
     <g id="line2d_89">
      <path clip-path="url(#p63eecb6df9)" d="M 62.208 293.76 
L 460.8 293.76 
" style="fill:none;stroke:#b0b0b0;stroke-linecap:square;stroke-width:0.8;"/>
     </g>
     <g id="line2d_90">
      <defs>
       <path d="M 0 0 
L -3.5 0 
" id="md036f56b2e" style="stroke:#000000;stroke-width:0.8;"/>
      </defs>
      <g>
       <use style="stroke:#000000;stroke-width:0.8;" x="62.208" xlink:href="#md036f56b2e" y="293.76"/>
      </g>
     </g>
     <g id="text_4">
      <!-- 0.0 -->
      <g transform="translate(29.763 299.83875)scale(0.16 -0.16)">
       <defs>
        <path d="M 684 794 
L 1344 794 
L 1344 0 
L 684 0 
L 684 794 
z
" id="DejaVuSans-2e" transform="scale(0.015625)"/>
       </defs>
       <use xlink:href="#DejaVuSans-30"/>
       <use x="63.623047" xlink:href="#DejaVuSans-2e"/>
       <use x="95.410156" xlink:href="#DejaVuSans-30"/>
      </g>
     </g>
    </g>
    <g id="ytick_2">
     <g id="line2d_91">
      <path clip-path="url(#p63eecb6df9)" d="M 62.208 236.274059 
L 460.8 236.274059 
" style="fill:none;stroke:#b0b0b0;stroke-linecap:square;stroke-width:0.8;"/>
     </g>
     <g id="line2d_92">
      <g>
       <use style="stroke:#000000;stroke-width:0.8;" x="62.208" xlink:href="#md036f56b2e" y="236.274059"/>
      </g>
     </g>
     <g id="text_5">
      <!-- 0.2 -->
      <g transform="translate(29.763 242.352809)scale(0.16 -0.16)">
       <defs>
        <path d="M 1228 531 
L 3431 531 
L 3431 0 
L 469 0 
L 469 531 
Q 828 903 1448 1529 
Q 2069 2156 2228 2338 
Q 2531 2678 2651 2914 
Q 2772 3150 2772 3378 
Q 2772 3750 2511 3984 
Q 2250 4219 1831 4219 
Q 1534 4219 1204 4116 
Q 875 4013 500 3803 
L 500 4441 
Q 881 4594 1212 4672 
Q 1544 4750 1819 4750 
Q 2544 4750 2975 4387 
Q 3406 4025 3406 3419 
Q 3406 3131 3298 2873 
Q 3191 2616 2906 2266 
Q 2828 2175 2409 1742 
Q 1991 1309 1228 531 
z
" id="DejaVuSans-32" transform="scale(0.015625)"/>
       </defs>
       <use xlink:href="#DejaVuSans-30"/>
       <use x="63.623047" xlink:href="#DejaVuSans-2e"/>
       <use x="95.410156" xlink:href="#DejaVuSans-32"/>
      </g>
     </g>
    </g>
    <g id="ytick_3">
     <g id="line2d_93">
      <path clip-path="url(#p63eecb6df9)" d="M 62.208 178.788119 
L 460.8 178.788119 
" style="fill:none;stroke:#b0b0b0;stroke-linecap:square;stroke-width:0.8;"/>
     </g>
     <g id="line2d_94">
      <g>
       <use style="stroke:#000000;stroke-width:0.8;" x="62.208" xlink:href="#md036f56b2e" y="178.788119"/>
      </g>
     </g>
     <g id="text_6">
      <!-- 0.4 -->
      <g transform="translate(29.763 184.866869)scale(0.16 -0.16)">
       <defs>
        <path d="M 2419 4116 
L 825 1625 
L 2419 1625 
L 2419 4116 
z
M 2253 4666 
L 3047 4666 
L 3047 1625 
L 3713 1625 
L 3713 1100 
L 3047 1100 
L 3047 0 
L 2419 0 
L 2419 1100 
L 313 1100 
L 313 1709 
L 2253 4666 
z
" id="DejaVuSans-34" transform="scale(0.015625)"/>
       </defs>
       <use xlink:href="#DejaVuSans-30"/>
       <use x="63.623047" xlink:href="#DejaVuSans-2e"/>
       <use x="95.410156" xlink:href="#DejaVuSans-34"/>
      </g>
     </g>
    </g>
    <g id="ytick_4">
     <g id="line2d_95">
      <path clip-path="url(#p63eecb6df9)" d="M 62.208 121.302178 
L 460.8 121.302178 
" style="fill:none;stroke:#b0b0b0;stroke-linecap:square;stroke-width:0.8;"/>
     </g>
     <g id="line2d_96">
      <g>
       <use style="stroke:#000000;stroke-width:0.8;" x="62.208" xlink:href="#md036f56b2e" y="121.302178"/>
      </g>
     </g>
     <g id="text_7">
      <!-- 0.6 -->
      <g transform="translate(29.763 127.380928)scale(0.16 -0.16)">
       <defs>
        <path d="M 2113 2584 
Q 1688 2584 1439 2293 
Q 1191 2003 1191 1497 
Q 1191 994 1439 701 
Q 1688 409 2113 409 
Q 2538 409 2786 701 
Q 3034 994 3034 1497 
Q 3034 2003 2786 2293 
Q 2538 2584 2113 2584 
z
M 3366 4563 
L 3366 3988 
Q 3128 4100 2886 4159 
Q 2644 4219 2406 4219 
Q 1781 4219 1451 3797 
Q 1122 3375 1075 2522 
Q 1259 2794 1537 2939 
Q 1816 3084 2150 3084 
Q 2853 3084 3261 2657 
Q 3669 2231 3669 1497 
Q 3669 778 3244 343 
Q 2819 -91 2113 -91 
Q 1303 -91 875 529 
Q 447 1150 447 2328 
Q 447 3434 972 4092 
Q 1497 4750 2381 4750 
Q 2619 4750 2861 4703 
Q 3103 4656 3366 4563 
z
" id="DejaVuSans-36" transform="scale(0.015625)"/>
       </defs>
       <use xlink:href="#DejaVuSans-30"/>
       <use x="63.623047" xlink:href="#DejaVuSans-2e"/>
       <use x="95.410156" xlink:href="#DejaVuSans-36"/>
      </g>
     </g>
    </g>
    <g id="ytick_5">
     <g id="line2d_97">
      <path clip-path="url(#p63eecb6df9)" d="M 62.208 63.816238 
L 460.8 63.816238 
" style="fill:none;stroke:#b0b0b0;stroke-linecap:square;stroke-width:0.8;"/>
     </g>
     <g id="line2d_98">
      <g>
       <use style="stroke:#000000;stroke-width:0.8;" x="62.208" xlink:href="#md036f56b2e" y="63.816238"/>
      </g>
     </g>
     <g id="text_8">
      <!-- 0.8 -->
      <g transform="translate(29.763 69.894988)scale(0.16 -0.16)">
       <defs>
        <path d="M 2034 2216 
Q 1584 2216 1326 1975 
Q 1069 1734 1069 1313 
Q 1069 891 1326 650 
Q 1584 409 2034 409 
Q 2484 409 2743 651 
Q 3003 894 3003 1313 
Q 3003 1734 2745 1975 
Q 2488 2216 2034 2216 
z
M 1403 2484 
Q 997 2584 770 2862 
Q 544 3141 544 3541 
Q 544 4100 942 4425 
Q 1341 4750 2034 4750 
Q 2731 4750 3128 4425 
Q 3525 4100 3525 3541 
Q 3525 3141 3298 2862 
Q 3072 2584 2669 2484 
Q 3125 2378 3379 2068 
Q 3634 1759 3634 1313 
Q 3634 634 3220 271 
Q 2806 -91 2034 -91 
Q 1263 -91 848 271 
Q 434 634 434 1313 
Q 434 1759 690 2068 
Q 947 2378 1403 2484 
z
M 1172 3481 
Q 1172 3119 1398 2916 
Q 1625 2713 2034 2713 
Q 2441 2713 2670 2916 
Q 2900 3119 2900 3481 
Q 2900 3844 2670 4047 
Q 2441 4250 2034 4250 
Q 1625 4250 1398 4047 
Q 1172 3844 1172 3481 
z
" id="DejaVuSans-38" transform="scale(0.015625)"/>
       </defs>
       <use xlink:href="#DejaVuSans-30"/>
       <use x="63.623047" xlink:href="#DejaVuSans-2e"/>
       <use x="95.410156" xlink:href="#DejaVuSans-38"/>
      </g>
     </g>
    </g>
    <g id="ytick_6">
     <g id="line2d_99">
      <path clip-path="url(#p63eecb6df9)" d="M 62.208 6.330297 
L 460.8 6.330297 
" style="fill:none;stroke:#b0b0b0;stroke-linecap:square;stroke-width:0.8;"/>
     </g>
     <g id="line2d_100">
      <g>
       <use style="stroke:#000000;stroke-width:0.8;" x="62.208" xlink:href="#md036f56b2e" y="6.330297"/>
      </g>
     </g>
     <g id="text_9">
      <!-- 1.0 -->
      <g transform="translate(29.763 12.409047)scale(0.16 -0.16)">
       <use xlink:href="#DejaVuSans-31"/>
       <use x="63.623047" xlink:href="#DejaVuSans-2e"/>
       <use x="95.410156" xlink:href="#DejaVuSans-30"/>
      </g>
     </g>
    </g>
    <g id="text_10">
     <!-- proportion of trials -->
     <g transform="translate(21.603625 241.61425)rotate(-90)scale(0.2 -0.2)">
      <defs>
       <path d="M 1159 525 
L 1159 -1331 
L 581 -1331 
L 581 3500 
L 1159 3500 
L 1159 2969 
Q 1341 3281 1617 3432 
Q 1894 3584 2278 3584 
Q 2916 3584 3314 3078 
Q 3713 2572 3713 1747 
Q 3713 922 3314 415 
Q 2916 -91 2278 -91 
Q 1894 -91 1617 61 
Q 1341 213 1159 525 
z
M 3116 1747 
Q 3116 2381 2855 2742 
Q 2594 3103 2138 3103 
Q 1681 3103 1420 2742 
Q 1159 2381 1159 1747 
Q 1159 1113 1420 752 
Q 1681 391 2138 391 
Q 2594 391 2855 752 
Q 3116 1113 3116 1747 
z
" id="DejaVuSans-70" transform="scale(0.015625)"/>
       <path d="M 2631 2963 
Q 2534 3019 2420 3045 
Q 2306 3072 2169 3072 
Q 1681 3072 1420 2755 
Q 1159 2438 1159 1844 
L 1159 0 
L 581 0 
L 581 3500 
L 1159 3500 
L 1159 2956 
Q 1341 3275 1631 3429 
Q 1922 3584 2338 3584 
Q 2397 3584 2469 3576 
Q 2541 3569 2628 3553 
L 2631 2963 
z
" id="DejaVuSans-72" transform="scale(0.015625)"/>
       <path d="M 1172 4494 
L 1172 3500 
L 2356 3500 
L 2356 3053 
L 1172 3053 
L 1172 1153 
Q 1172 725 1289 603 
Q 1406 481 1766 481 
L 2356 481 
L 2356 0 
L 1766 0 
Q 1100 0 847 248 
Q 594 497 594 1153 
L 594 3053 
L 172 3053 
L 172 3500 
L 594 3500 
L 594 4494 
L 1172 4494 
z
" id="DejaVuSans-74" transform="scale(0.015625)"/>
       <path d="M 603 3500 
L 1178 3500 
L 1178 0 
L 603 0 
L 603 3500 
z
M 603 4863 
L 1178 4863 
L 1178 4134 
L 603 4134 
L 603 4863 
z
" id="DejaVuSans-69" transform="scale(0.015625)"/>
       <path d="M 3513 2113 
L 3513 0 
L 2938 0 
L 2938 2094 
Q 2938 2591 2744 2837 
Q 2550 3084 2163 3084 
Q 1697 3084 1428 2787 
Q 1159 2491 1159 1978 
L 1159 0 
L 581 0 
L 581 3500 
L 1159 3500 
L 1159 2956 
Q 1366 3272 1645 3428 
Q 1925 3584 2291 3584 
Q 2894 3584 3203 3211 
Q 3513 2838 3513 2113 
z
" id="DejaVuSans-6e" transform="scale(0.015625)"/>
      </defs>
      <use xlink:href="#DejaVuSans-70"/>
      <use x="63.476562" xlink:href="#DejaVuSans-72"/>
      <use x="102.339844" xlink:href="#DejaVuSans-6f"/>
      <use x="163.521484" xlink:href="#DejaVuSans-70"/>
      <use x="226.998047" xlink:href="#DejaVuSans-6f"/>
      <use x="288.179688" xlink:href="#DejaVuSans-72"/>
      <use x="329.292969" xlink:href="#DejaVuSans-74"/>
      <use x="368.501953" xlink:href="#DejaVuSans-69"/>
      <use x="396.285156" xlink:href="#DejaVuSans-6f"/>
      <use x="457.466797" xlink:href="#DejaVuSans-6e"/>
      <use x="520.845703" xlink:href="#DejaVuSans-20"/>
      <use x="552.632812" xlink:href="#DejaVuSans-6f"/>
      <use x="613.814453" xlink:href="#DejaVuSans-66"/>
      <use x="649.019531" xlink:href="#DejaVuSans-20"/>
      <use x="680.806641" xlink:href="#DejaVuSans-74"/>
      <use x="720.015625" xlink:href="#DejaVuSans-72"/>
      <use x="761.128906" xlink:href="#DejaVuSans-69"/>
      <use x="788.912109" xlink:href="#DejaVuSans-61"/>
      <use x="850.191406" xlink:href="#DejaVuSans-6c"/>
      <use x="877.974609" xlink:href="#DejaVuSans-73"/>
     </g>
    </g>
   </g>
   <g id="line2d_101">
    <path clip-path="url(#p63eecb6df9)" d="M 187.114449 293.76 
L 187.114449 289.927604 
L 191.629431 289.927604 
L 191.629431 286.095208 
L 194.344386 286.095208 
L 194.344386 282.262812 
L 197.436715 282.262812 
L 197.436715 278.430416 
L 198.089254 278.430416 
L 198.089254 274.59802 
L 199.658447 274.59802 
L 199.658447 270.765624 
L 201.731643 270.765624 
L 201.731643 266.933228 
L 202.866271 266.933228 
L 202.866271 263.100832 
L 203.102985 263.100832 
L 203.102985 259.268436 
L 204.200963 259.268436 
L 204.200963 255.43604 
L 209.464399 255.43604 
L 209.464399 251.603644 
L 211.603938 251.603644 
L 211.603938 247.771248 
L 211.822823 247.771248 
L 211.822823 243.938851 
L 212.553092 243.938851 
L 212.553092 240.106455 
L 214.490661 240.106455 
L 214.490661 236.274059 
L 215.923367 236.274059 
L 215.923367 232.441663 
L 216.26777 232.441663 
L 216.26777 228.609267 
L 217.284034 228.609267 
L 217.284034 224.776871 
L 217.546108 224.776871 
L 217.546108 220.944475 
L 219.855116 220.944475 
L 219.855116 217.112079 
L 223.710864 217.112079 
L 223.710864 213.279683 
L 224.117831 213.279683 
L 224.117831 209.447287 
L 224.640948 209.447287 
L 224.640948 205.614891 
L 242.550003 205.614891 
L 242.550003 201.782495 
L 257.091163 201.782495 
L 257.091163 197.950099 
L 264.085033 197.950099 
L 264.085033 194.117703 
L 268.125183 194.117703 
L 268.125183 190.285307 
L 268.719364 190.285307 
L 268.719364 186.452911 
L 277.523909 186.452911 
L 277.523909 182.620515 
L 285.125935 182.620515 
L 285.125935 178.788119 
L 287.801078 178.788119 
L 287.801078 174.955723 
L 319.23413 174.955723 
L 319.23413 171.123327 
L 321.905644 171.123327 
L 321.905644 167.290931 
L 323.66741 167.290931 
L 323.66741 163.458535 
L 323.883776 163.458535 
L 323.883776 159.626139 
L 324.775028 159.626139 
L 324.775028 155.793743 
L 327.475675 155.793743 
L 327.475675 151.961347 
L 329.014036 151.961347 
L 329.014036 148.12895 
L 343.689869 148.12895 
L 343.689869 144.296554 
L 344.787155 144.296554 
L 344.787155 140.464158 
L 345.759852 140.464158 
L 345.759852 136.631762 
L 357.038193 136.631762 
L 357.038193 132.799366 
L 358.928537 132.799366 
L 358.928537 128.96697 
L 365.158866 128.96697 
L 365.158866 125.134574 
L 378.731112 125.134574 
L 378.731112 121.302178 
L 389.978543 121.302178 
L 389.978543 117.469782 
L 390.530979 117.469782 
L 390.530979 113.637386 
L 391.018672 113.637386 
L 391.018672 109.80499 
L 391.615852 109.80499 
L 391.615852 105.972594 
L 391.737652 105.972594 
L 391.737652 102.140198 
L 393.166489 102.140198 
L 393.166489 98.307802 
L 393.235043 98.307802 
L 393.235043 94.475406 
L 395.930883 94.475406 
L 395.930883 90.64301 
L 415.782214 90.64301 
L 415.782214 86.810614 
L 418.114233 86.810614 
L 418.114233 82.978218 
L 419.269777 82.978218 
L 419.269777 79.145822 
L 420.796806 79.145822 
L 420.796806 75.313426 
L 441.726321 75.313426 
L 441.726321 71.48103 
L 441.726321 71.48103 
L 441.726321 71.48103 
L 460.8 71.48103 
" style="fill:none;stroke:#000000;stroke-linecap:square;stroke-width:1.5;"/>
   </g>
   <g id="line2d_102">
    <defs>
     <path d="M 0 14.142136 
L 8.485281 0 
L 0 -14.142136 
L -8.485281 0 
z
" id="m620dd2d703" style="stroke:#000000;stroke-linejoin:miter;stroke-width:1.5;"/>
    </defs>
    <g clip-path="url(#p63eecb6df9)">
     <use style="fill-opacity:0;stroke:#000000;stroke-linejoin:miter;stroke-width:1.5;" x="223.710864" xlink:href="#m620dd2d703" y="217.112079"/>
     <use style="fill-opacity:0;stroke:#000000;stroke-linejoin:miter;stroke-width:1.5;" x="285.125935" xlink:href="#m620dd2d703" y="182.620515"/>
     <use style="fill-opacity:0;stroke:#000000;stroke-linejoin:miter;stroke-width:1.5;" x="378.731112" xlink:href="#m620dd2d703" y="125.134574"/>
     <use style="fill-opacity:0;stroke:#000000;stroke-linejoin:miter;stroke-width:1.5;" x="420.796806" xlink:href="#m620dd2d703" y="79.145822"/>
     <use style="fill-opacity:0;stroke:#000000;stroke-linejoin:miter;stroke-width:1.5;" x="441.726321" xlink:href="#m620dd2d703" y="71.48103"/>
    </g>
   </g>
   <g id="line2d_103">
    <path clip-path="url(#p63eecb6df9)" style="fill:none;stroke:#000000;stroke-linecap:square;stroke-width:1.5;"/>
    <g clip-path="url(#p63eecb6df9)">
     <use style="fill-opacity:0;stroke:#000000;stroke-linejoin:miter;stroke-width:1.5;" x="-1" xlink:href="#m620dd2d703" y="581.189703"/>
     <use style="fill-opacity:0;stroke:#000000;stroke-linejoin:miter;stroke-width:1.5;" x="460.8" xlink:href="#m620dd2d703" y="581.189703"/>
    </g>
   </g>
   <g id="line2d_104">
    <path clip-path="url(#p63eecb6df9)" d="M 186.311403 293.76 
L 186.311403 289.927604 
L 189.245383 289.927604 
L 189.245383 286.095208 
L 190.774244 286.095208 
L 190.774244 282.262812 
L 193.073833 282.262812 
L 193.073833 278.430416 
L 197.00891 278.430416 
L 197.00891 274.59802 
L 202.730392 274.59802 
L 202.730392 270.765624 
L 206.281658 270.765624 
L 206.281658 266.933228 
L 206.870533 266.933228 
L 206.870533 263.100832 
L 208.647276 263.100832 
L 208.647276 259.268436 
L 209.203515 259.268436 
L 209.203515 255.43604 
L 209.694917 255.43604 
L 209.694917 251.603644 
L 210.095247 251.603644 
L 210.095247 247.771248 
L 210.208916 247.771248 
L 210.208916 243.938851 
L 212.472587 243.938851 
L 212.472587 240.106455 
L 212.953273 240.106455 
L 212.953273 236.274059 
L 214.872545 236.274059 
L 214.872545 232.441663 
L 214.999057 232.441663 
L 214.999057 228.609267 
L 216.948057 228.609267 
L 216.948057 224.776871 
L 220.43485 224.776871 
L 220.43485 220.944475 
L 221.849474 220.944475 
L 221.849474 217.112079 
L 222.738368 217.112079 
L 222.738368 213.279683 
L 223.935193 213.279683 
L 223.935193 209.447287 
L 225.393753 209.447287 
L 225.393753 205.614891 
L 226.190856 205.614891 
L 226.190856 201.782495 
L 227.888327 201.782495 
L 227.888327 197.950099 
L 233.154226 197.950099 
L 233.154226 194.117703 
L 253.915615 194.117703 
L 253.915615 190.285307 
L 263.621877 190.285307 
L 263.621877 186.452911 
L 272.222273 186.452911 
L 272.222273 182.620515 
L 272.460997 182.620515 
L 272.460997 178.788119 
L 277.546063 178.788119 
L 277.546063 174.955723 
L 321.828214 174.955723 
L 321.828214 171.123327 
L 327.467433 171.123327 
L 327.467433 167.290931 
L 327.549777 167.290931 
L 327.549777 163.458535 
L 342.528262 163.458535 
L 342.528262 159.626139 
L 344.804476 159.626139 
L 344.804476 155.793743 
L 347.765064 155.793743 
L 347.765064 151.961347 
L 349.158519 151.961347 
L 349.158519 148.12895 
L 349.709888 148.12895 
L 349.709888 144.296554 
L 351.406908 144.296554 
L 351.406908 140.464158 
L 352.769136 140.464158 
L 352.769136 136.631762 
L 357.338713 136.631762 
L 357.338713 132.799366 
L 358.324903 132.799366 
L 358.324903 128.96697 
L 368.964664 128.96697 
L 368.964664 125.134574 
L 384.006564 125.134574 
L 384.006564 121.302178 
L 393.254752 121.302178 
L 393.254752 117.469782 
L 396.07148 117.469782 
L 396.07148 113.637386 
L 412.146509 113.637386 
L 412.146509 109.80499 
L 413.131691 109.80499 
L 413.131691 105.972594 
L 413.494788 105.972594 
L 413.494788 102.140198 
L 414.110379 102.140198 
L 414.110379 98.307802 
L 414.975381 98.307802 
L 414.975381 94.475406 
L 415.558907 94.475406 
L 415.558907 90.64301 
L 416.002009 90.64301 
L 416.002009 86.810614 
L 416.587013 86.810614 
L 416.587013 82.978218 
L 417.46297 82.978218 
L 417.46297 79.145822 
L 417.837457 79.145822 
L 417.837457 75.313426 
L 418.015833 75.313426 
L 418.015833 71.48103 
L 419.975111 71.48103 
L 419.975111 67.648634 
L 423.607695 67.648634 
L 423.607695 63.816238 
L 438.616275 63.816238 
L 438.616275 59.983842 
L 438.616275 59.983842 
L 438.616275 59.983842 
L 460.8 59.983842 
" style="fill:none;stroke:#000000;stroke-linecap:square;stroke-width:1.5;"/>
   </g>
   <g id="line2d_105">
    <defs>
     <path d="M 0 7.5 
C 1.989023 7.5 3.896849 6.709753 5.303301 5.303301 
C 6.709753 3.896849 7.5 1.989023 7.5 0 
C 7.5 -1.989023 6.709753 -3.896849 5.303301 -5.303301 
C 3.896849 -6.709753 1.989023 -7.5 0 -7.5 
C -1.989023 -7.5 -3.896849 -6.709753 -5.303301 -5.303301 
C -6.709753 -3.896849 -7.5 -1.989023 -7.5 0 
C -7.5 1.989023 -6.709753 3.896849 -5.303301 5.303301 
C -3.896849 6.709753 -1.989023 7.5 0 7.5 
z
" id="m0e496109f4" style="stroke:#000000;stroke-width:1.5;"/>
    </defs>
    <g clip-path="url(#p63eecb6df9)">
     <use style="fill-opacity:0;stroke:#000000;stroke-width:1.5;" x="226.190856" xlink:href="#m0e496109f4" y="205.614891"/>
     <use style="fill-opacity:0;stroke:#000000;stroke-width:1.5;" x="272.460997" xlink:href="#m0e496109f4" y="182.620515"/>
     <use style="fill-opacity:0;stroke:#000000;stroke-width:1.5;" x="368.964664" xlink:href="#m0e496109f4" y="128.96697"/>
     <use style="fill-opacity:0;stroke:#000000;stroke-width:1.5;" x="419.975111" xlink:href="#m0e496109f4" y="71.48103"/>
     <use style="fill-opacity:0;stroke:#000000;stroke-width:1.5;" x="438.616275" xlink:href="#m0e496109f4" y="59.983842"/>
    </g>
   </g>
   <g id="line2d_106">
    <path clip-path="url(#p63eecb6df9)" style="fill:none;stroke:#000000;stroke-linecap:square;stroke-width:1.5;"/>
   </g>
   <g id="line2d_107">
    <path clip-path="url(#p63eecb6df9)" d="M 251.881629 293.76 
L 251.881629 289.927604 
L 253.232069 289.927604 
L 253.232069 286.095208 
L 255.087584 286.095208 
L 255.087584 282.262812 
L 256.087572 282.262812 
L 256.087572 278.430416 
L 257.272683 278.430416 
L 257.272683 274.59802 
L 257.651292 274.59802 
L 257.651292 270.765624 
L 259.459513 270.765624 
L 259.459513 266.933228 
L 262.885634 266.933228 
L 262.885634 263.100832 
L 265.138423 263.100832 
L 265.138423 259.268436 
L 329.885975 259.268436 
L 329.885975 255.43604 
L 330.265091 255.43604 
L 330.265091 251.603644 
L 331.688131 251.603644 
L 331.688131 247.771248 
L 331.882603 247.771248 
L 331.882603 243.938851 
L 332.058469 243.938851 
L 332.058469 240.106455 
L 332.340646 240.106455 
L 332.340646 236.274059 
L 332.750171 236.274059 
L 332.750171 232.441663 
L 333.050707 232.441663 
L 333.050707 228.609267 
L 333.53445 228.609267 
L 333.53445 224.776871 
L 334.781696 224.776871 
L 334.781696 220.944475 
L 335.773223 220.944475 
L 335.773223 217.112079 
L 336.274161 217.112079 
L 336.274161 213.279683 
L 336.478673 213.279683 
L 336.478673 209.447287 
L 362.027953 209.447287 
L 362.027953 205.614891 
L 366.890626 205.614891 
L 366.890626 201.782495 
L 367.502227 201.782495 
L 367.502227 197.950099 
L 372.102288 197.950099 
L 372.102288 194.117703 
L 373.399157 194.117703 
L 373.399157 190.285307 
L 388.948941 190.285307 
L 388.948941 186.452911 
L 390.580899 186.452911 
L 390.580899 182.620515 
L 390.666338 182.620515 
L 390.666338 178.788119 
L 391.686338 178.788119 
L 391.686338 174.955723 
L 392.365887 174.955723 
L 392.365887 171.123327 
L 392.901908 171.123327 
L 392.901908 167.290931 
L 393.269778 167.290931 
L 393.269778 163.458535 
L 393.493184 163.458535 
L 393.493184 159.626139 
L 395.379196 159.626139 
L 395.379196 155.793743 
L 395.37983 155.793743 
L 395.37983 151.961347 
L 408.056916 151.961347 
L 408.056916 148.12895 
L 417.842238 148.12895 
L 417.842238 144.296554 
L 419.917098 144.296554 
L 419.917098 140.464158 
L 420.691919 140.464158 
L 420.691919 136.631762 
L 422.490474 136.631762 
L 422.490474 132.799366 
L 422.490474 132.799366 
L 422.490474 132.799366 
L 460.8 132.799366 
" style="fill:none;stroke:#00bfbf;stroke-linecap:square;stroke-width:1.5;"/>
   </g>
   <g id="line2d_108">
    <defs>
     <path d="M 0 14.142136 
L 8.485281 0 
L 0 -14.142136 
L -8.485281 0 
z
" id="m4f40bcc7b5" style="stroke:#00bfbf;stroke-linejoin:miter;stroke-width:1.5;"/>
    </defs>
    <g clip-path="url(#p63eecb6df9)">
     <use style="fill-opacity:0;stroke:#00bfbf;stroke-linejoin:miter;stroke-width:1.5;" x="265.138423" xlink:href="#m4f40bcc7b5" y="263.100832"/>
     <use style="fill-opacity:0;stroke:#00bfbf;stroke-linejoin:miter;stroke-width:1.5;" x="336.478673" xlink:href="#m4f40bcc7b5" y="213.279683"/>
     <use style="fill-opacity:0;stroke:#00bfbf;stroke-linejoin:miter;stroke-width:1.5;" x="395.37983" xlink:href="#m4f40bcc7b5" y="155.793743"/>
     <use style="fill-opacity:0;stroke:#00bfbf;stroke-linejoin:miter;stroke-width:1.5;" x="422.490474" xlink:href="#m4f40bcc7b5" y="132.799366"/>
    </g>
   </g>
   <g id="line2d_109">
    <path clip-path="url(#p63eecb6df9)" style="fill:none;stroke:#00bfbf;stroke-linecap:square;stroke-width:1.5;"/>
    <g clip-path="url(#p63eecb6df9)">
     <use style="fill-opacity:0;stroke:#00bfbf;stroke-linejoin:miter;stroke-width:1.5;" x="-1" xlink:href="#m4f40bcc7b5" y="581.189703"/>
     <use style="fill-opacity:0;stroke:#00bfbf;stroke-linejoin:miter;stroke-width:1.5;" x="460.8" xlink:href="#m4f40bcc7b5" y="581.189703"/>
    </g>
   </g>
   <g id="line2d_110">
    <path clip-path="url(#p63eecb6df9)" d="M 251.047491 293.76 
L 251.047491 289.927604 
L 252.138872 289.927604 
L 252.138872 286.095208 
L 252.261781 286.095208 
L 252.261781 282.262812 
L 255.600044 282.262812 
L 255.600044 278.430416 
L 257.946349 278.430416 
L 257.946349 274.59802 
L 258.195055 274.59802 
L 258.195055 270.765624 
L 260.022455 270.765624 
L 260.022455 266.933228 
L 260.284236 266.933228 
L 260.284236 263.100832 
L 261.315038 263.100832 
L 261.315038 259.268436 
L 262.208363 259.268436 
L 262.208363 255.43604 
L 267.345387 255.43604 
L 267.345387 251.603644 
L 269.203532 251.603644 
L 269.203532 247.771248 
L 328.231811 247.771248 
L 328.231811 243.938851 
L 328.51564 243.938851 
L 328.51564 240.106455 
L 329.882865 240.106455 
L 329.882865 236.274059 
L 330.464847 236.274059 
L 330.464847 232.441663 
L 331.441872 232.441663 
L 331.441872 228.609267 
L 332.545188 228.609267 
L 332.545188 224.776871 
L 333.453269 224.776871 
L 333.453269 220.944475 
L 333.673652 220.944475 
L 333.673652 217.112079 
L 333.922471 217.112079 
L 333.922471 213.279683 
L 334.632342 213.279683 
L 334.632342 209.447287 
L 335.19375 209.447287 
L 335.19375 205.614891 
L 361.565035 205.614891 
L 361.565035 201.782495 
L 363.576841 201.782495 
L 363.576841 197.950099 
L 364.669891 197.950099 
L 364.669891 194.117703 
L 365.315095 194.117703 
L 365.315095 190.285307 
L 365.93804 190.285307 
L 365.93804 186.452911 
L 371.538754 186.452911 
L 371.538754 182.620515 
L 378.33296 182.620515 
L 378.33296 178.788119 
L 395.580435 178.788119 
L 395.580435 174.955723 
L 413.642882 174.955723 
L 413.642882 171.123327 
L 415.438806 171.123327 
L 415.438806 167.290931 
L 415.714884 167.290931 
L 415.714884 163.458535 
L 415.810815 163.458535 
L 415.810815 159.626139 
L 416.107058 159.626139 
L 416.107058 155.793743 
L 416.809357 155.793743 
L 416.809357 151.961347 
L 417.259245 151.961347 
L 417.259245 148.12895 
L 417.471692 148.12895 
L 417.471692 144.296554 
L 418.296147 144.296554 
L 418.296147 140.464158 
L 419.705323 140.464158 
L 419.705323 136.631762 
L 419.955899 136.631762 
L 419.955899 132.799366 
L 420.079921 132.799366 
L 420.079921 128.96697 
L 421.399 128.96697 
L 421.399 125.134574 
L 439.293441 125.134574 
L 439.293441 121.302178 
L 439.293441 121.302178 
L 439.293441 121.302178 
L 460.8 121.302178 
" style="fill:none;stroke:#00bfbf;stroke-linecap:square;stroke-width:1.5;"/>
   </g>
   <g id="line2d_111">
    <defs>
     <path d="M 0 7.5 
C 1.989023 7.5 3.896849 6.709753 5.303301 5.303301 
C 6.709753 3.896849 7.5 1.989023 7.5 0 
C 7.5 -1.989023 6.709753 -3.896849 5.303301 -5.303301 
C 3.896849 -6.709753 1.989023 -7.5 0 -7.5 
C -1.989023 -7.5 -3.896849 -6.709753 -5.303301 -5.303301 
C -6.709753 -3.896849 -7.5 -1.989023 -7.5 0 
C -7.5 1.989023 -6.709753 3.896849 -5.303301 5.303301 
C -3.896849 6.709753 -1.989023 7.5 0 7.5 
z
" id="m587644184e" style="stroke:#00bfbf;stroke-width:1.5;"/>
    </defs>
    <g clip-path="url(#p63eecb6df9)">
     <use style="fill-opacity:0;stroke:#00bfbf;stroke-width:1.5;" x="267.345387" xlink:href="#m587644184e" y="255.43604"/>
     <use style="fill-opacity:0;stroke:#00bfbf;stroke-width:1.5;" x="335.19375" xlink:href="#m587644184e" y="209.447287"/>
     <use style="fill-opacity:0;stroke:#00bfbf;stroke-width:1.5;" x="413.642882" xlink:href="#m587644184e" y="174.955723"/>
     <use style="fill-opacity:0;stroke:#00bfbf;stroke-width:1.5;" x="439.293441" xlink:href="#m587644184e" y="121.302178"/>
    </g>
   </g>
   <g id="line2d_112">
    <path clip-path="url(#p63eecb6df9)" style="fill:none;stroke:#00bfbf;stroke-linecap:square;stroke-width:1.5;"/>
   </g>
   <g id="line2d_113">
    <path clip-path="url(#p63eecb6df9)" d="M 294.175671 293.76 
L 294.175671 289.927604 
L 296.52246 289.927604 
L 296.52246 286.095208 
L 296.956842 286.095208 
L 296.956842 282.262812 
L 297.187799 282.262812 
L 297.187799 278.430416 
L 297.191236 278.430416 
L 297.191236 274.59802 
L 297.448222 274.59802 
L 297.448222 270.765624 
L 298.503738 270.765624 
L 298.503738 266.933228 
L 299.830563 266.933228 
L 299.830563 263.100832 
L 300.36229 263.100832 
L 300.36229 259.268436 
L 342.631077 259.268436 
L 342.631077 255.43604 
L 344.200449 255.43604 
L 344.200449 251.603644 
L 344.956805 251.603644 
L 344.956805 247.771248 
L 345.564803 247.771248 
L 345.564803 243.938851 
L 345.759852 243.938851 
L 345.759852 240.106455 
L 345.912911 240.106455 
L 345.912911 236.274059 
L 346.00973 236.274059 
L 346.00973 232.441663 
L 347.143932 232.441663 
L 347.143932 228.609267 
L 347.416068 228.609267 
L 347.416068 224.776871 
L 347.810368 224.776871 
L 347.810368 220.944475 
L 348.35811 220.944475 
L 348.35811 217.112079 
L 348.61941 217.112079 
L 348.61941 213.279683 
L 352.180618 213.279683 
L 352.180618 209.447287 
L 371.68614 209.447287 
L 371.68614 205.614891 
L 372.586034 205.614891 
L 372.586034 201.782495 
L 376.58978 201.782495 
L 376.58978 197.950099 
L 377.698719 197.950099 
L 377.698719 194.117703 
L 378.682147 194.117703 
L 378.682147 190.285307 
L 396.099853 190.285307 
L 396.099853 186.452911 
L 396.238322 186.452911 
L 396.238322 182.620515 
L 396.27372 182.620515 
L 396.27372 178.788119 
L 396.302885 178.788119 
L 396.302885 174.955723 
L 396.78054 174.955723 
L 396.78054 171.123327 
L 396.83385 171.123327 
L 396.83385 167.290931 
L 398.706747 167.290931 
L 398.706747 163.458535 
L 398.782164 163.458535 
L 398.782164 159.626139 
L 398.862107 159.626139 
L 398.862107 155.793743 
L 399.304521 155.793743 
L 399.304521 151.961347 
L 411.510282 151.961347 
L 411.510282 148.12895 
L 420.891182 148.12895 
L 420.891182 144.296554 
L 423.1 144.296554 
L 423.1 140.464158 
L 423.917494 140.464158 
L 423.917494 136.631762 
L 425.260972 136.631762 
L 425.260972 132.799366 
L 425.260972 132.799366 
L 425.260972 132.799366 
L 460.8 132.799366 
" style="fill:none;stroke:#bf00bf;stroke-linecap:square;stroke-width:1.5;"/>
   </g>
   <g id="line2d_114">
    <defs>
     <path d="M 0 14.142136 
L 8.485281 0 
L 0 -14.142136 
L -8.485281 0 
z
" id="ma7cb2e5146" style="stroke:#bf00bf;stroke-linejoin:miter;stroke-width:1.5;"/>
    </defs>
    <g clip-path="url(#p63eecb6df9)">
     <use style="fill-opacity:0;stroke:#bf00bf;stroke-linejoin:miter;stroke-width:1.5;" x="300.36229" xlink:href="#ma7cb2e5146" y="263.100832"/>
     <use style="fill-opacity:0;stroke:#bf00bf;stroke-linejoin:miter;stroke-width:1.5;" x="348.61941" xlink:href="#ma7cb2e5146" y="217.112079"/>
     <use style="fill-opacity:0;stroke:#bf00bf;stroke-linejoin:miter;stroke-width:1.5;" x="398.862107" xlink:href="#ma7cb2e5146" y="159.626139"/>
     <use style="fill-opacity:0;stroke:#bf00bf;stroke-linejoin:miter;stroke-width:1.5;" x="425.260972" xlink:href="#ma7cb2e5146" y="132.799366"/>
    </g>
   </g>
   <g id="line2d_115">
    <path clip-path="url(#p63eecb6df9)" style="fill:none;stroke:#bf00bf;stroke-linecap:square;stroke-width:1.5;"/>
    <g clip-path="url(#p63eecb6df9)">
     <use style="fill-opacity:0;stroke:#bf00bf;stroke-linejoin:miter;stroke-width:1.5;" x="-1" xlink:href="#ma7cb2e5146" y="581.189703"/>
     <use style="fill-opacity:0;stroke:#bf00bf;stroke-linejoin:miter;stroke-width:1.5;" x="460.8" xlink:href="#ma7cb2e5146" y="581.189703"/>
    </g>
   </g>
   <g id="line2d_116">
    <path clip-path="url(#p63eecb6df9)" d="M 288.963059 293.76 
L 288.963059 289.927604 
L 292.217937 289.927604 
L 292.217937 286.095208 
L 294.308591 286.095208 
L 294.308591 282.262812 
L 298.01812 282.262812 
L 298.01812 278.430416 
L 299.174129 278.430416 
L 299.174129 274.59802 
L 299.451627 274.59802 
L 299.451627 270.765624 
L 300.375018 270.765624 
L 300.375018 266.933228 
L 300.457657 266.933228 
L 300.457657 263.100832 
L 301.078478 263.100832 
L 301.078478 259.268436 
L 303.86875 259.268436 
L 303.86875 255.43604 
L 304.032112 255.43604 
L 304.032112 251.603644 
L 305.200333 251.603644 
L 305.200333 247.771248 
L 342.403396 247.771248 
L 342.403396 243.938851 
L 342.900604 243.938851 
L 342.900604 240.106455 
L 343.786502 240.106455 
L 343.786502 236.274059 
L 344.470848 236.274059 
L 344.470848 232.441663 
L 344.836934 232.441663 
L 344.836934 228.609267 
L 344.91041 228.609267 
L 344.91041 224.776871 
L 346.091638 224.776871 
L 346.091638 220.944475 
L 346.235109 220.944475 
L 346.235109 217.112079 
L 347.234844 217.112079 
L 347.234844 213.279683 
L 347.287868 213.279683 
L 347.287868 209.447287 
L 347.826464 209.447287 
L 347.826464 205.614891 
L 372.442945 205.614891 
L 372.442945 201.782495 
L 373.506623 201.782495 
L 373.506623 197.950099 
L 373.528191 197.950099 
L 373.528191 194.117703 
L 373.969985 194.117703 
L 373.969985 190.285307 
L 374.095651 190.285307 
L 374.095651 186.452911 
L 374.522491 186.452911 
L 374.522491 182.620515 
L 383.475634 182.620515 
L 383.475634 178.788119 
L 398.948586 178.788119 
L 398.948586 174.955723 
L 417.970945 174.955723 
L 417.970945 171.123327 
L 419.150772 171.123327 
L 419.150772 167.290931 
L 419.458166 167.290931 
L 419.458166 163.458535 
L 419.568001 163.458535 
L 419.568001 159.626139 
L 419.763635 159.626139 
L 419.763635 155.793743 
L 420.373224 155.793743 
L 420.373224 151.961347 
L 420.460119 151.961347 
L 420.460119 148.12895 
L 420.514787 148.12895 
L 420.514787 144.296554 
L 422.685171 144.296554 
L 422.685171 140.464158 
L 423.030503 140.464158 
L 423.030503 136.631762 
L 423.315038 136.631762 
L 423.315038 132.799366 
L 423.406235 132.799366 
L 423.406235 128.96697 
L 425.044145 128.96697 
L 425.044145 125.134574 
L 440.454126 125.134574 
L 440.454126 121.302178 
L 440.454126 121.302178 
L 440.454126 121.302178 
L 460.8 121.302178 
" style="fill:none;stroke:#bf00bf;stroke-linecap:square;stroke-width:1.5;"/>
   </g>
   <g id="line2d_117">
    <defs>
     <path d="M 0 7.5 
C 1.989023 7.5 3.896849 6.709753 5.303301 5.303301 
C 6.709753 3.896849 7.5 1.989023 7.5 0 
C 7.5 -1.989023 6.709753 -3.896849 5.303301 -5.303301 
C 3.896849 -6.709753 1.989023 -7.5 0 -7.5 
C -1.989023 -7.5 -3.896849 -6.709753 -5.303301 -5.303301 
C -6.709753 -3.896849 -7.5 -1.989023 -7.5 0 
C -7.5 1.989023 -6.709753 3.896849 -5.303301 5.303301 
C -3.896849 6.709753 -1.989023 7.5 0 7.5 
z
" id="md7654db186" style="stroke:#bf00bf;stroke-width:1.5;"/>
    </defs>
    <g clip-path="url(#p63eecb6df9)">
     <use style="fill-opacity:0;stroke:#bf00bf;stroke-width:1.5;" x="304.032112" xlink:href="#md7654db186" y="255.43604"/>
     <use style="fill-opacity:0;stroke:#bf00bf;stroke-width:1.5;" x="374.522491" xlink:href="#md7654db186" y="186.452911"/>
     <use style="fill-opacity:0;stroke:#bf00bf;stroke-width:1.5;" x="425.044145" xlink:href="#md7654db186" y="128.96697"/>
     <use style="fill-opacity:0;stroke:#bf00bf;stroke-width:1.5;" x="440.454126" xlink:href="#md7654db186" y="121.302178"/>
    </g>
   </g>
   <g id="line2d_118">
    <path clip-path="url(#p63eecb6df9)" style="fill:none;stroke:#bf00bf;stroke-linecap:square;stroke-width:1.5;"/>
   </g>
   <g id="line2d_119">
    <path clip-path="url(#p63eecb6df9)" d="M 318.171702 293.76 
L 318.171702 289.927604 
L 320.530129 289.927604 
L 320.530129 286.095208 
L 321.767679 286.095208 
L 321.767679 282.262812 
L 322.497589 282.262812 
L 322.497589 278.430416 
L 323.104981 278.430416 
L 323.104981 274.59802 
L 325.668081 274.59802 
L 325.668081 270.765624 
L 326.491578 270.765624 
L 326.491578 266.933228 
L 326.592736 266.933228 
L 326.592736 263.100832 
L 328.584689 263.100832 
L 328.584689 259.268436 
L 357.361064 259.268436 
L 357.361064 255.43604 
L 357.799242 255.43604 
L 357.799242 251.603644 
L 358.155385 251.603644 
L 358.155385 247.771248 
L 359.047444 247.771248 
L 359.047444 243.938851 
L 359.086493 243.938851 
L 359.086493 240.106455 
L 359.123212 240.106455 
L 359.123212 236.274059 
L 359.715346 236.274059 
L 359.715346 232.441663 
L 359.861309 232.441663 
L 359.861309 228.609267 
L 360.423006 228.609267 
L 360.423006 224.776871 
L 360.52586 224.776871 
L 360.52586 220.944475 
L 360.963989 220.944475 
L 360.963989 217.112079 
L 361.938784 217.112079 
L 361.938784 213.279683 
L 362.410961 213.279683 
L 362.410961 209.447287 
L 378.173868 209.447287 
L 378.173868 205.614891 
L 380.457078 205.614891 
L 380.457078 201.782495 
L 384.980212 201.782495 
L 384.980212 197.950099 
L 384.992457 197.950099 
L 384.992457 194.117703 
L 386.377752 194.117703 
L 386.377752 190.285307 
L 400.042721 190.285307 
L 400.042721 186.452911 
L 400.10216 186.452911 
L 400.10216 182.620515 
L 400.441578 182.620515 
L 400.441578 178.788119 
L 401.128972 178.788119 
L 401.128972 174.955723 
L 401.414068 174.955723 
L 401.414068 171.123327 
L 402.80036 171.123327 
L 402.80036 167.290931 
L 403.310062 167.290931 
L 403.310062 163.458535 
L 405.292056 163.458535 
L 405.292056 159.626139 
L 406.919759 159.626139 
L 406.919759 155.793743 
L 407.792104 155.793743 
L 407.792104 151.961347 
L 416.065032 151.961347 
L 416.065032 148.12895 
L 424.943816 148.12895 
L 424.943816 144.296554 
L 426.891969 144.296554 
L 426.891969 140.464158 
L 427.521797 140.464158 
L 427.521797 136.631762 
L 429.062147 136.631762 
L 429.062147 132.799366 
L 429.062147 132.799366 
L 429.062147 132.799366 
L 460.8 132.799366 
" style="fill:none;stroke:#ff0000;stroke-linecap:square;stroke-width:3;"/>
   </g>
   <g id="line2d_120">
    <defs>
     <path d="M 0 14.142136 
L 8.485281 0 
L 0 -14.142136 
L -8.485281 0 
z
" id="m522bf0bd2c" style="stroke:#ff0000;stroke-linejoin:miter;stroke-width:3;"/>
    </defs>
    <g clip-path="url(#p63eecb6df9)">
     <use style="fill-opacity:0;stroke:#ff0000;stroke-linejoin:miter;stroke-width:3;" x="357.799242" xlink:href="#m522bf0bd2c" y="255.43604"/>
     <use style="fill-opacity:0;stroke:#ff0000;stroke-linejoin:miter;stroke-width:3;" x="400.042721" xlink:href="#m522bf0bd2c" y="190.285307"/>
     <use style="fill-opacity:0;stroke:#ff0000;stroke-linejoin:miter;stroke-width:3;" x="429.062147" xlink:href="#m522bf0bd2c" y="136.631762"/>
     <use style="fill-opacity:0;stroke:#ff0000;stroke-linejoin:miter;stroke-width:3;" x="429.062147" xlink:href="#m522bf0bd2c" y="132.799366"/>
    </g>
   </g>
   <g id="line2d_121">
    <path clip-path="url(#p63eecb6df9)" style="fill:none;stroke:#ff0000;stroke-linecap:square;stroke-width:3;"/>
    <g clip-path="url(#p63eecb6df9)">
     <use style="fill-opacity:0;stroke:#ff0000;stroke-linejoin:miter;stroke-width:3;" x="-1" xlink:href="#m522bf0bd2c" y="581.189703"/>
     <use style="fill-opacity:0;stroke:#ff0000;stroke-linejoin:miter;stroke-width:3;" x="460.8" xlink:href="#m522bf0bd2c" y="581.189703"/>
    </g>
   </g>
   <g id="line2d_122">
    <path clip-path="url(#p63eecb6df9)" d="M 317.741863 293.76 
L 317.741863 289.927604 
L 319.092968 289.927604 
L 319.092968 286.095208 
L 319.56297 286.095208 
L 319.56297 282.262812 
L 320.920388 282.262812 
L 320.920388 278.430416 
L 321.097788 278.430416 
L 321.097788 274.59802 
L 321.850891 274.59802 
L 321.850891 270.765624 
L 322.380251 270.765624 
L 322.380251 266.933228 
L 324.864683 266.933228 
L 324.864683 263.100832 
L 324.90856 263.100832 
L 324.90856 259.268436 
L 324.934864 259.268436 
L 324.934864 255.43604 
L 325.666359 255.43604 
L 325.666359 251.603644 
L 326.953193 251.603644 
L 326.953193 247.771248 
L 355.481772 247.771248 
L 355.481772 243.938851 
L 355.869184 243.938851 
L 355.869184 240.106455 
L 357.453532 240.106455 
L 357.453532 236.274059 
L 357.613268 236.274059 
L 357.613268 232.441663 
L 358.744516 232.441663 
L 358.744516 228.609267 
L 359.224019 228.609267 
L 359.224019 224.776871 
L 359.811709 224.776871 
L 359.811709 220.944475 
L 359.949838 220.944475 
L 359.949838 217.112079 
L 360.253737 217.112079 
L 360.253737 213.279683 
L 360.265638 213.279683 
L 360.265638 209.447287 
L 360.548764 209.447287 
L 360.548764 205.614891 
L 378.965146 205.614891 
L 378.965146 201.782495 
L 382.720992 201.782495 
L 382.720992 197.950099 
L 382.884973 197.950099 
L 382.884973 194.117703 
L 383.625677 194.117703 
L 383.625677 190.285307 
L 384.194655 190.285307 
L 384.194655 186.452911 
L 384.724676 186.452911 
L 384.724676 182.620515 
L 388.351792 182.620515 
L 388.351792 178.788119 
L 403.009637 178.788119 
L 403.009637 174.955723 
L 422.362635 174.955723 
L 422.362635 171.123327 
L 423.454085 171.123327 
L 423.454085 167.290931 
L 423.47045 167.290931 
L 423.47045 163.458535 
L 423.779368 163.458535 
L 423.779368 159.626139 
L 423.838871 159.626139 
L 423.838871 155.793743 
L 424.144576 155.793743 
L 424.144576 151.961347 
L 424.919199 151.961347 
L 424.919199 148.12895 
L 425.108789 148.12895 
L 425.108789 144.296554 
L 425.522475 144.296554 
L 425.522475 140.464158 
L 426.995329 140.464158 
L 426.995329 136.631762 
L 427.847781 136.631762 
L 427.847781 132.799366 
L 428.440389 132.799366 
L 428.440389 128.96697 
L 430.989215 128.96697 
L 430.989215 125.134574 
L 430.989215 125.134574 
L 430.989215 125.134574 
L 460.8 125.134574 
" style="fill:none;stroke:#ff0000;stroke-linecap:square;stroke-width:3;"/>
   </g>
   <g id="line2d_123">
    <defs>
     <path d="M 0 7.5 
C 1.989023 7.5 3.896849 6.709753 5.303301 5.303301 
C 6.709753 3.896849 7.5 1.989023 7.5 0 
C 7.5 -1.989023 6.709753 -3.896849 5.303301 -5.303301 
C 3.896849 -6.709753 1.989023 -7.5 0 -7.5 
C -1.989023 -7.5 -3.896849 -6.709753 -5.303301 -5.303301 
C -6.709753 -3.896849 -7.5 -1.989023 -7.5 0 
C -7.5 1.989023 -6.709753 3.896849 -5.303301 5.303301 
C -3.896849 6.709753 -1.989023 7.5 0 7.5 
z
" id="m6482f120db" style="stroke:#ff0000;stroke-width:3;"/>
    </defs>
    <g clip-path="url(#p63eecb6df9)">
     <use style="fill-opacity:0;stroke:#ff0000;stroke-width:3;" x="325.666359" xlink:href="#m6482f120db" y="255.43604"/>
     <use style="fill-opacity:0;stroke:#ff0000;stroke-width:3;" x="360.548764" xlink:href="#m6482f120db" y="209.447287"/>
     <use style="fill-opacity:0;stroke:#ff0000;stroke-width:3;" x="425.108789" xlink:href="#m6482f120db" y="148.12895"/>
     <use style="fill-opacity:0;stroke:#ff0000;stroke-width:3;" x="430.989215" xlink:href="#m6482f120db" y="125.134574"/>
    </g>
   </g>
   <g id="line2d_124">
    <path clip-path="url(#p63eecb6df9)" style="fill:none;stroke:#ff0000;stroke-linecap:square;stroke-width:3;"/>
   </g>
   <g id="line2d_125">
    <path clip-path="url(#p63eecb6df9)" d="M 441.768014 293.76 
L 441.768014 3.456 
" style="fill:none;stroke:#000000;stroke-linecap:square;stroke-width:1.5;"/>
    <defs>
     <path d="M -10 0 
L 10 0 
M 0 10 
L 0 -10 
" id="m78465144d2" style="stroke:#000000;stroke-width:3;"/>
    </defs>
    <g clip-path="url(#p63eecb6df9)">
     <use style="stroke:#000000;stroke-width:3;" x="441.768014" xlink:href="#m78465144d2" y="293.76"/>
     <use style="stroke:#000000;stroke-width:3;" x="441.768014" xlink:href="#m78465144d2" y="3.456"/>
    </g>
   </g>
   <g id="line2d_126">
    <path clip-path="url(#p63eecb6df9)" d="M 441.759679 293.76 
L 441.759679 3.456 
" style="fill:none;stroke:#000000;stroke-linecap:square;stroke-width:1.5;"/>
    <defs>
     <path d="M 0 7.5 
C 1.989023 7.5 3.896849 6.709753 5.303301 5.303301 
C 6.709753 3.896849 7.5 1.989023 7.5 0 
C 7.5 -1.989023 6.709753 -3.896849 5.303301 -5.303301 
C 3.896849 -6.709753 1.989023 -7.5 0 -7.5 
C -1.989023 -7.5 -3.896849 -6.709753 -5.303301 -5.303301 
C -6.709753 -3.896849 -7.5 -1.989023 -7.5 0 
C -7.5 1.989023 -6.709753 3.896849 -5.303301 5.303301 
C -3.896849 6.709753 -1.989023 7.5 0 7.5 
z
" id="m5088c8fe22" style="stroke:#000000;stroke-width:3;"/>
    </defs>
    <g clip-path="url(#p63eecb6df9)">
     <use style="fill-opacity:0;stroke:#000000;stroke-width:3;" x="441.759679" xlink:href="#m5088c8fe22" y="293.76"/>
     <use style="fill-opacity:0;stroke:#000000;stroke-width:3;" x="441.759679" xlink:href="#m5088c8fe22" y="3.456"/>
    </g>
   </g>
   <g id="patch_3">
    <path d="M 62.208 293.76 
L 62.208 3.456 
" style="fill:none;stroke:#000000;stroke-linecap:square;stroke-linejoin:miter;stroke-width:0.8;"/>
   </g>
   <g id="patch_4">
    <path d="M 460.8 293.76 
L 460.8 3.456 
" style="fill:none;stroke:#000000;stroke-linecap:square;stroke-linejoin:miter;stroke-width:0.8;"/>
   </g>
   <g id="patch_5">
    <path d="M 62.208 293.76 
L 460.8 293.76 
" style="fill:none;stroke:#000000;stroke-linecap:square;stroke-linejoin:miter;stroke-width:0.8;"/>
   </g>
   <g id="patch_6">
    <path d="M 62.208 3.456 
L 460.8 3.456 
" style="fill:none;stroke:#000000;stroke-linecap:square;stroke-linejoin:miter;stroke-width:0.8;"/>
   </g>
   <g id="text_11">
    <!-- f15-f19 -->
    <g transform="translate(225.405563 24.458955)scale(0.2 -0.2)">
     <defs>
      <path d="M 691 4666 
L 3169 4666 
L 3169 4134 
L 1269 4134 
L 1269 2991 
Q 1406 3038 1543 3061 
Q 1681 3084 1819 3084 
Q 2600 3084 3056 2656 
Q 3513 2228 3513 1497 
Q 3513 744 3044 326 
Q 2575 -91 1722 -91 
Q 1428 -91 1123 -41 
Q 819 9 494 109 
L 494 744 
Q 775 591 1075 516 
Q 1375 441 1709 441 
Q 2250 441 2565 725 
Q 2881 1009 2881 1497 
Q 2881 1984 2565 2268 
Q 2250 2553 1709 2553 
Q 1456 2553 1204 2497 
Q 953 2441 691 2322 
L 691 4666 
z
" id="DejaVuSans-35" transform="scale(0.015625)"/>
      <path d="M 313 2009 
L 1997 2009 
L 1997 1497 
L 313 1497 
L 313 2009 
z
" id="DejaVuSans-2d" transform="scale(0.015625)"/>
      <path d="M 703 97 
L 703 672 
Q 941 559 1184 500 
Q 1428 441 1663 441 
Q 2288 441 2617 861 
Q 2947 1281 2994 2138 
Q 2813 1869 2534 1725 
Q 2256 1581 1919 1581 
Q 1219 1581 811 2004 
Q 403 2428 403 3163 
Q 403 3881 828 4315 
Q 1253 4750 1959 4750 
Q 2769 4750 3195 4129 
Q 3622 3509 3622 2328 
Q 3622 1225 3098 567 
Q 2575 -91 1691 -91 
Q 1453 -91 1209 -44 
Q 966 3 703 97 
z
M 1959 2075 
Q 2384 2075 2632 2365 
Q 2881 2656 2881 3163 
Q 2881 3666 2632 3958 
Q 2384 4250 1959 4250 
Q 1534 4250 1286 3958 
Q 1038 3666 1038 3163 
Q 1038 2656 1286 2365 
Q 1534 2075 1959 2075 
z
" id="DejaVuSans-39" transform="scale(0.015625)"/>
     </defs>
     <use xlink:href="#DejaVuSans-66"/>
     <use x="35.205078" xlink:href="#DejaVuSans-31"/>
     <use x="98.828125" xlink:href="#DejaVuSans-35"/>
     <use x="162.451172" xlink:href="#DejaVuSans-2d"/>
     <use x="198.535156" xlink:href="#DejaVuSans-66"/>
     <use x="233.740234" xlink:href="#DejaVuSans-31"/>
     <use x="297.363281" xlink:href="#DejaVuSans-39"/>
    </g>
   </g>
   <g id="text_12">
    <!-- absolute targets -->
    <g transform="translate(62.208 608.591335)scale(0.14 -0.14)">
     <defs>
      <path d="M 3116 1747 
Q 3116 2381 2855 2742 
Q 2594 3103 2138 3103 
Q 1681 3103 1420 2742 
Q 1159 2381 1159 1747 
Q 1159 1113 1420 752 
Q 1681 391 2138 391 
Q 2594 391 2855 752 
Q 3116 1113 3116 1747 
z
M 1159 2969 
Q 1341 3281 1617 3432 
Q 1894 3584 2278 3584 
Q 2916 3584 3314 3078 
Q 3713 2572 3713 1747 
Q 3713 922 3314 415 
Q 2916 -91 2278 -91 
Q 1894 -91 1617 61 
Q 1341 213 1159 525 
L 1159 0 
L 581 0 
L 581 4863 
L 1159 4863 
L 1159 2969 
z
" id="DejaVuSans-62" transform="scale(0.015625)"/>
      <path d="M 544 1381 
L 544 3500 
L 1119 3500 
L 1119 1403 
Q 1119 906 1312 657 
Q 1506 409 1894 409 
Q 2359 409 2629 706 
Q 2900 1003 2900 1516 
L 2900 3500 
L 3475 3500 
L 3475 0 
L 2900 0 
L 2900 538 
Q 2691 219 2414 64 
Q 2138 -91 1772 -91 
Q 1169 -91 856 284 
Q 544 659 544 1381 
z
M 1991 3584 
L 1991 3584 
z
" id="DejaVuSans-75" transform="scale(0.015625)"/>
      <path d="M 3597 1894 
L 3597 1613 
L 953 1613 
Q 991 1019 1311 708 
Q 1631 397 2203 397 
Q 2534 397 2845 478 
Q 3156 559 3463 722 
L 3463 178 
Q 3153 47 2828 -22 
Q 2503 -91 2169 -91 
Q 1331 -91 842 396 
Q 353 884 353 1716 
Q 353 2575 817 3079 
Q 1281 3584 2069 3584 
Q 2775 3584 3186 3129 
Q 3597 2675 3597 1894 
z
M 3022 2063 
Q 3016 2534 2758 2815 
Q 2500 3097 2075 3097 
Q 1594 3097 1305 2825 
Q 1016 2553 972 2059 
L 3022 2063 
z
" id="DejaVuSans-65" transform="scale(0.015625)"/>
     </defs>
     <use xlink:href="#DejaVuSans-61"/>
     <use x="61.279297" xlink:href="#DejaVuSans-62"/>
     <use x="124.755859" xlink:href="#DejaVuSans-73"/>
     <use x="176.855469" xlink:href="#DejaVuSans-6f"/>
     <use x="238.037109" xlink:href="#DejaVuSans-6c"/>
     <use x="265.820312" xlink:href="#DejaVuSans-75"/>
     <use x="329.199219" xlink:href="#DejaVuSans-74"/>
     <use x="368.408203" xlink:href="#DejaVuSans-65"/>
     <use x="429.931641" xlink:href="#DejaVuSans-20"/>
     <use x="461.71875" xlink:href="#DejaVuSans-74"/>
     <use x="500.927734" xlink:href="#DejaVuSans-61"/>
     <use x="562.207031" xlink:href="#DejaVuSans-72"/>
     <use x="601.570312" xlink:href="#DejaVuSans-67"/>
     <use x="665.046875" xlink:href="#DejaVuSans-65"/>
     <use x="726.570312" xlink:href="#DejaVuSans-74"/>
     <use x="765.779297" xlink:href="#DejaVuSans-73"/>
    </g>
   </g>
   <g id="text_13">
    <!-- v2.6.3 -->
    <g style="fill:#808080;" transform="translate(245.82275 288.777272)scale(0.1 -0.1)">
     <use xlink:href="#DejaVuSans-76"/>
     <use x="59.179688" xlink:href="#DejaVuSans-32"/>
     <use x="122.802734" xlink:href="#DejaVuSans-2e"/>
     <use x="154.589844" xlink:href="#DejaVuSans-36"/>
     <use x="218.212891" xlink:href="#DejaVuSans-2e"/>
     <use x="250" xlink:href="#DejaVuSans-33"/>
    </g>
   </g>
   <g id="legend_1">
    <g id="patch_7">
     <path d="M 76.208 136.881 
L 160.148625 136.881 
Q 164.148625 136.881 164.148625 132.881 
L 164.148625 17.456 
Q 164.148625 13.456 160.148625 13.456 
L 76.208 13.456 
Q 72.208 13.456 72.208 17.456 
L 72.208 132.881 
Q 72.208 136.881 76.208 136.881 
z
" style="fill:#ffffff;opacity:0.2;stroke:#cccccc;stroke-linejoin:miter;"/>
    </g>
    <g id="line2d_127">
     <path d="M 80.208 29.652875 
L 120.208 29.652875 
" style="fill:none;stroke:#000000;stroke-linecap:square;stroke-width:1.5;"/>
    </g>
    <g id="line2d_128"/>
    <g id="text_14">
     <!-- 1 -->
     <g transform="translate(136.208 36.652875)scale(0.2 -0.2)">
      <use xlink:href="#DejaVuSans-31"/>
     </g>
    </g>
    <g id="line2d_129">
     <path d="M 80.208 59.009125 
L 120.208 59.009125 
" style="fill:none;stroke:#00bfbf;stroke-linecap:square;stroke-width:1.5;"/>
    </g>
    <g id="line2d_130"/>
    <g id="text_15">
     <!-- -1 -->
     <g transform="translate(136.208 66.009125)scale(0.2 -0.2)">
      <use xlink:href="#DejaVuSans-2d"/>
      <use x="36.083984" xlink:href="#DejaVuSans-31"/>
     </g>
    </g>
    <g id="line2d_131">
     <path d="M 80.208 88.365375 
L 120.208 88.365375 
" style="fill:none;stroke:#bf00bf;stroke-linecap:square;stroke-width:1.5;"/>
    </g>
    <g id="line2d_132"/>
    <g id="text_16">
     <!-- -4 -->
     <g transform="translate(136.208 95.365375)scale(0.2 -0.2)">
      <use xlink:href="#DejaVuSans-2d"/>
      <use x="36.083984" xlink:href="#DejaVuSans-34"/>
     </g>
    </g>
    <g id="line2d_133">
     <path d="M 80.208 117.721625 
L 120.208 117.721625 
" style="fill:none;stroke:#ff0000;stroke-linecap:square;stroke-width:3;"/>
    </g>
    <g id="line2d_134"/>
    <g id="text_17">
     <!-- -8 -->
     <g transform="translate(136.208 124.721625)scale(0.2 -0.2)">
      <use xlink:href="#DejaVuSans-2d"/>
      <use x="36.083984" xlink:href="#DejaVuSans-38"/>
     </g>
    </g>
   </g>
  </g>
 </g>
 <defs>
  <clipPath id="p63eecb6df9">
   <rect height="290.304" width="398.592" x="62.208" y="3.456"/>
  </clipPath>
 </defs>
</svg>
