<?xml version="1.0" encoding="utf-8" standalone="no"?>
<!DOCTYPE svg PUBLIC "-//W3C//DTD SVG 1.1//EN"
  "http://www.w3.org/Graphics/SVG/1.1/DTD/svg11.dtd">
<svg height="345.6pt" version="1.1" viewBox="0 0 460.8 345.6" width="460.8pt" xmlns="http://www.w3.org/2000/svg" xmlns:xlink="http://www.w3.org/1999/xlink">
 <metadata>
  <rdf:RDF xmlns:cc="http://creativecommons.org/ns#" xmlns:dc="http://purl.org/dc/elements/1.1/" xmlns:rdf="http://www.w3.org/1999/02/22-rdf-syntax-ns#">
   <cc:Work>
    <dc:type rdf:resource="http://purl.org/dc/dcmitype/StillImage"/>
    <dc:date>2023-04-17T19:00:56.054340</dc:date>
    <dc:format>image/svg+xml</dc:format>
    <dc:creator>
     <cc:Agent>
      <dc:title>Matplotlib v3.4.1, https://matplotlib.org/</dc:title>
     </cc:Agent>
    </dc:creator>
   </cc:Work>
  </rdf:RDF>
 </metadata>
 <defs>
  <style type="text/css">*{stroke-linecap:butt;stroke-linejoin:round;}</style>
 </defs>
 <g id="figure_1">
  <g id="patch_1">
   <path d="M 0 345.6 
L 460.8 345.6 
L 460.8 0 
L 0 0 
z
" style="fill:#ffffff;"/>
  </g>
  <g id="axes_1">
   <g id="patch_2">
    <path d="M 34.16 291.28 
L 453.192 291.28 
L 453.192 3 
L 34.16 3 
z
" style="fill:#ffffff;"/>
   </g>
   <g id="matplotlib.axis_1">
    <g id="xtick_1">
     <g id="line2d_1">
      <path clip-path="url(#pb360c8e637)" d="M 143.994962 291.28 
L 143.994962 3 
" style="fill:none;stroke:#b0b0b0;stroke-linecap:square;stroke-width:0.8;"/>
     </g>
     <g id="line2d_2">
      <defs>
       <path d="M 0 0 
L 0 3.5 
" id="m2b8496bff4" style="stroke:#000000;stroke-width:0.8;"/>
      </defs>
      <g>
       <use style="stroke:#000000;stroke-width:0.8;" x="143.994962" xlink:href="#m2b8496bff4" y="291.28"/>
      </g>
     </g>
     <g id="text_1">
      <!-- -1 -->
      <g transform="translate(134.024649 313.476875)scale(0.2 -0.2)">
       <defs>
        <path d="M 313 2009 
L 1997 2009 
L 1997 1497 
L 313 1497 
L 313 2009 
z
" id="DejaVuSans-2d" transform="scale(0.015625)"/>
        <path d="M 794 531 
L 1825 531 
L 1825 4091 
L 703 3866 
L 703 4441 
L 1819 4666 
L 2450 4666 
L 2450 531 
L 3481 531 
L 3481 0 
L 794 0 
L 794 531 
z
" id="DejaVuSans-31" transform="scale(0.015625)"/>
       </defs>
       <use xlink:href="#DejaVuSans-2d"/>
       <use x="36.083984" xlink:href="#DejaVuSans-31"/>
      </g>
     </g>
    </g>
    <g id="xtick_2">
     <g id="line2d_3">
      <path clip-path="url(#pb360c8e637)" d="M 343.357038 291.28 
L 343.357038 3 
" style="fill:none;stroke:#b0b0b0;stroke-linecap:square;stroke-width:0.8;"/>
     </g>
     <g id="line2d_4">
      <g>
       <use style="stroke:#000000;stroke-width:0.8;" x="343.357038" xlink:href="#m2b8496bff4" y="291.28"/>
      </g>
     </g>
     <g id="text_2">
      <!-- 1 -->
      <g transform="translate(336.994538 313.476875)scale(0.2 -0.2)">
       <use xlink:href="#DejaVuSans-31"/>
      </g>
     </g>
    </g>
    <g id="xtick_3">
     <g id="line2d_5">
      <defs>
       <path d="M 0 0 
L 0 2 
" id="m2faba2f7cb" style="stroke:#000000;stroke-width:0.6;"/>
      </defs>
      <g>
       <use style="stroke:#000000;stroke-width:0.6;" x="34.653833" xlink:href="#m2faba2f7cb" y="291.28"/>
      </g>
     </g>
    </g>
    <g id="xtick_4">
     <g id="line2d_6">
      <g>
       <use style="stroke:#000000;stroke-width:0.6;" x="39.752769" xlink:href="#m2faba2f7cb" y="291.28"/>
      </g>
     </g>
    </g>
    <g id="xtick_5">
     <g id="line2d_7">
      <g>
       <use style="stroke:#000000;stroke-width:0.6;" x="74.320906" xlink:href="#m2faba2f7cb" y="291.28"/>
      </g>
     </g>
    </g>
    <g id="xtick_6">
     <g id="line2d_8">
      <g>
       <use style="stroke:#000000;stroke-width:0.6;" x="91.873866" xlink:href="#m2faba2f7cb" y="291.28"/>
      </g>
     </g>
    </g>
    <g id="xtick_7">
     <g id="line2d_9">
      <g>
       <use style="stroke:#000000;stroke-width:0.6;" x="104.327889" xlink:href="#m2faba2f7cb" y="291.28"/>
      </g>
     </g>
    </g>
    <g id="xtick_8">
     <g id="line2d_10">
      <g>
       <use style="stroke:#000000;stroke-width:0.6;" x="113.987979" xlink:href="#m2faba2f7cb" y="291.28"/>
      </g>
     </g>
    </g>
    <g id="xtick_9">
     <g id="line2d_11">
      <g>
       <use style="stroke:#000000;stroke-width:0.6;" x="121.880848" xlink:href="#m2faba2f7cb" y="291.28"/>
      </g>
     </g>
    </g>
    <g id="xtick_10">
     <g id="line2d_12">
      <g>
       <use style="stroke:#000000;stroke-width:0.6;" x="128.554174" xlink:href="#m2faba2f7cb" y="291.28"/>
      </g>
     </g>
    </g>
    <g id="xtick_11">
     <g id="line2d_13">
      <g>
       <use style="stroke:#000000;stroke-width:0.6;" x="134.334871" xlink:href="#m2faba2f7cb" y="291.28"/>
      </g>
     </g>
    </g>
    <g id="xtick_12">
     <g id="line2d_14">
      <g>
       <use style="stroke:#000000;stroke-width:0.6;" x="139.433808" xlink:href="#m2faba2f7cb" y="291.28"/>
      </g>
     </g>
    </g>
    <g id="xtick_13">
     <g id="line2d_15">
      <g>
       <use style="stroke:#000000;stroke-width:0.6;" x="174.001944" xlink:href="#m2faba2f7cb" y="291.28"/>
      </g>
     </g>
    </g>
    <g id="xtick_14">
     <g id="line2d_16">
      <g>
       <use style="stroke:#000000;stroke-width:0.6;" x="191.554904" xlink:href="#m2faba2f7cb" y="291.28"/>
      </g>
     </g>
    </g>
    <g id="xtick_15">
     <g id="line2d_17">
      <g>
       <use style="stroke:#000000;stroke-width:0.6;" x="204.008927" xlink:href="#m2faba2f7cb" y="291.28"/>
      </g>
     </g>
    </g>
    <g id="xtick_16">
     <g id="line2d_18">
      <g>
       <use style="stroke:#000000;stroke-width:0.6;" x="213.669017" xlink:href="#m2faba2f7cb" y="291.28"/>
      </g>
     </g>
    </g>
    <g id="xtick_17">
     <g id="line2d_19">
      <g>
       <use style="stroke:#000000;stroke-width:0.6;" x="221.561886" xlink:href="#m2faba2f7cb" y="291.28"/>
      </g>
     </g>
    </g>
    <g id="xtick_18">
     <g id="line2d_20">
      <g>
       <use style="stroke:#000000;stroke-width:0.6;" x="228.235212" xlink:href="#m2faba2f7cb" y="291.28"/>
      </g>
     </g>
    </g>
    <g id="xtick_19">
     <g id="line2d_21">
      <g>
       <use style="stroke:#000000;stroke-width:0.6;" x="234.015909" xlink:href="#m2faba2f7cb" y="291.28"/>
      </g>
     </g>
    </g>
    <g id="xtick_20">
     <g id="line2d_22">
      <g>
       <use style="stroke:#000000;stroke-width:0.6;" x="239.114846" xlink:href="#m2faba2f7cb" y="291.28"/>
      </g>
     </g>
    </g>
    <g id="xtick_21">
     <g id="line2d_23">
      <g>
       <use style="stroke:#000000;stroke-width:0.6;" x="273.682983" xlink:href="#m2faba2f7cb" y="291.28"/>
      </g>
     </g>
    </g>
    <g id="xtick_22">
     <g id="line2d_24">
      <g>
       <use style="stroke:#000000;stroke-width:0.6;" x="291.235942" xlink:href="#m2faba2f7cb" y="291.28"/>
      </g>
     </g>
    </g>
    <g id="xtick_23">
     <g id="line2d_25">
      <g>
       <use style="stroke:#000000;stroke-width:0.6;" x="303.689965" xlink:href="#m2faba2f7cb" y="291.28"/>
      </g>
     </g>
    </g>
    <g id="xtick_24">
     <g id="line2d_26">
      <g>
       <use style="stroke:#000000;stroke-width:0.6;" x="313.350056" xlink:href="#m2faba2f7cb" y="291.28"/>
      </g>
     </g>
    </g>
    <g id="xtick_25">
     <g id="line2d_27">
      <g>
       <use style="stroke:#000000;stroke-width:0.6;" x="321.242925" xlink:href="#m2faba2f7cb" y="291.28"/>
      </g>
     </g>
    </g>
    <g id="xtick_26">
     <g id="line2d_28">
      <g>
       <use style="stroke:#000000;stroke-width:0.6;" x="327.91625" xlink:href="#m2faba2f7cb" y="291.28"/>
      </g>
     </g>
    </g>
    <g id="xtick_27">
     <g id="line2d_29">
      <g>
       <use style="stroke:#000000;stroke-width:0.6;" x="333.696948" xlink:href="#m2faba2f7cb" y="291.28"/>
      </g>
     </g>
    </g>
    <g id="xtick_28">
     <g id="line2d_30">
      <g>
       <use style="stroke:#000000;stroke-width:0.6;" x="338.795884" xlink:href="#m2faba2f7cb" y="291.28"/>
      </g>
     </g>
    </g>
    <g id="xtick_29">
     <g id="line2d_31">
      <g>
       <use style="stroke:#000000;stroke-width:0.6;" x="373.364021" xlink:href="#m2faba2f7cb" y="291.28"/>
      </g>
     </g>
    </g>
    <g id="xtick_30">
     <g id="line2d_32">
      <g>
       <use style="stroke:#000000;stroke-width:0.6;" x="390.91698" xlink:href="#m2faba2f7cb" y="291.28"/>
      </g>
     </g>
    </g>
    <g id="xtick_31">
     <g id="line2d_33">
      <g>
       <use style="stroke:#000000;stroke-width:0.6;" x="403.371003" xlink:href="#m2faba2f7cb" y="291.28"/>
      </g>
     </g>
    </g>
    <g id="xtick_32">
     <g id="line2d_34">
      <g>
       <use style="stroke:#000000;stroke-width:0.6;" x="413.031094" xlink:href="#m2faba2f7cb" y="291.28"/>
      </g>
     </g>
    </g>
    <g id="xtick_33">
     <g id="line2d_35">
      <g>
       <use style="stroke:#000000;stroke-width:0.6;" x="420.923963" xlink:href="#m2faba2f7cb" y="291.28"/>
      </g>
     </g>
    </g>
    <g id="xtick_34">
     <g id="line2d_36">
      <g>
       <use style="stroke:#000000;stroke-width:0.6;" x="427.597288" xlink:href="#m2faba2f7cb" y="291.28"/>
      </g>
     </g>
    </g>
    <g id="xtick_35">
     <g id="line2d_37">
      <g>
       <use style="stroke:#000000;stroke-width:0.6;" x="433.377986" xlink:href="#m2faba2f7cb" y="291.28"/>
      </g>
     </g>
    </g>
    <g id="xtick_36">
     <g id="line2d_38">
      <g>
       <use style="stroke:#000000;stroke-width:0.6;" x="438.476922" xlink:href="#m2faba2f7cb" y="291.28"/>
      </g>
     </g>
    </g>
    <g id="text_3">
     <!-- log10 of FEvals ratio -->
     <g transform="translate(141.371312 336.833125)scale(0.2 -0.2)">
      <defs>
       <path d="M 603 4863 
L 1178 4863 
L 1178 0 
L 603 0 
L 603 4863 
z
" id="DejaVuSans-6c" transform="scale(0.015625)"/>
       <path d="M 1959 3097 
Q 1497 3097 1228 2736 
Q 959 2375 959 1747 
Q 959 1119 1226 758 
Q 1494 397 1959 397 
Q 2419 397 2687 759 
Q 2956 1122 2956 1747 
Q 2956 2369 2687 2733 
Q 2419 3097 1959 3097 
z
M 1959 3584 
Q 2709 3584 3137 3096 
Q 3566 2609 3566 1747 
Q 3566 888 3137 398 
Q 2709 -91 1959 -91 
Q 1206 -91 779 398 
Q 353 888 353 1747 
Q 353 2609 779 3096 
Q 1206 3584 1959 3584 
z
" id="DejaVuSans-6f" transform="scale(0.015625)"/>
       <path d="M 2906 1791 
Q 2906 2416 2648 2759 
Q 2391 3103 1925 3103 
Q 1463 3103 1205 2759 
Q 947 2416 947 1791 
Q 947 1169 1205 825 
Q 1463 481 1925 481 
Q 2391 481 2648 825 
Q 2906 1169 2906 1791 
z
M 3481 434 
Q 3481 -459 3084 -895 
Q 2688 -1331 1869 -1331 
Q 1566 -1331 1297 -1286 
Q 1028 -1241 775 -1147 
L 775 -588 
Q 1028 -725 1275 -790 
Q 1522 -856 1778 -856 
Q 2344 -856 2625 -561 
Q 2906 -266 2906 331 
L 2906 616 
Q 2728 306 2450 153 
Q 2172 0 1784 0 
Q 1141 0 747 490 
Q 353 981 353 1791 
Q 353 2603 747 3093 
Q 1141 3584 1784 3584 
Q 2172 3584 2450 3431 
Q 2728 3278 2906 2969 
L 2906 3500 
L 3481 3500 
L 3481 434 
z
" id="DejaVuSans-67" transform="scale(0.015625)"/>
       <path d="M 2034 4250 
Q 1547 4250 1301 3770 
Q 1056 3291 1056 2328 
Q 1056 1369 1301 889 
Q 1547 409 2034 409 
Q 2525 409 2770 889 
Q 3016 1369 3016 2328 
Q 3016 3291 2770 3770 
Q 2525 4250 2034 4250 
z
M 2034 4750 
Q 2819 4750 3233 4129 
Q 3647 3509 3647 2328 
Q 3647 1150 3233 529 
Q 2819 -91 2034 -91 
Q 1250 -91 836 529 
Q 422 1150 422 2328 
Q 422 3509 836 4129 
Q 1250 4750 2034 4750 
z
" id="DejaVuSans-30" transform="scale(0.015625)"/>
       <path id="DejaVuSans-20" transform="scale(0.015625)"/>
       <path d="M 2375 4863 
L 2375 4384 
L 1825 4384 
Q 1516 4384 1395 4259 
Q 1275 4134 1275 3809 
L 1275 3500 
L 2222 3500 
L 2222 3053 
L 1275 3053 
L 1275 0 
L 697 0 
L 697 3053 
L 147 3053 
L 147 3500 
L 697 3500 
L 697 3744 
Q 697 4328 969 4595 
Q 1241 4863 1831 4863 
L 2375 4863 
z
" id="DejaVuSans-66" transform="scale(0.015625)"/>
       <path d="M 628 4666 
L 3309 4666 
L 3309 4134 
L 1259 4134 
L 1259 2759 
L 3109 2759 
L 3109 2228 
L 1259 2228 
L 1259 0 
L 628 0 
L 628 4666 
z
" id="DejaVuSans-46" transform="scale(0.015625)"/>
       <path d="M 628 4666 
L 3578 4666 
L 3578 4134 
L 1259 4134 
L 1259 2753 
L 3481 2753 
L 3481 2222 
L 1259 2222 
L 1259 531 
L 3634 531 
L 3634 0 
L 628 0 
L 628 4666 
z
" id="DejaVuSans-45" transform="scale(0.015625)"/>
       <path d="M 191 3500 
L 800 3500 
L 1894 563 
L 2988 3500 
L 3597 3500 
L 2284 0 
L 1503 0 
L 191 3500 
z
" id="DejaVuSans-76" transform="scale(0.015625)"/>
       <path d="M 2194 1759 
Q 1497 1759 1228 1600 
Q 959 1441 959 1056 
Q 959 750 1161 570 
Q 1363 391 1709 391 
Q 2188 391 2477 730 
Q 2766 1069 2766 1631 
L 2766 1759 
L 2194 1759 
z
M 3341 1997 
L 3341 0 
L 2766 0 
L 2766 531 
Q 2569 213 2275 61 
Q 1981 -91 1556 -91 
Q 1019 -91 701 211 
Q 384 513 384 1019 
Q 384 1609 779 1909 
Q 1175 2209 1959 2209 
L 2766 2209 
L 2766 2266 
Q 2766 2663 2505 2880 
Q 2244 3097 1772 3097 
Q 1472 3097 1187 3025 
Q 903 2953 641 2809 
L 641 3341 
Q 956 3463 1253 3523 
Q 1550 3584 1831 3584 
Q 2591 3584 2966 3190 
Q 3341 2797 3341 1997 
z
" id="DejaVuSans-61" transform="scale(0.015625)"/>
       <path d="M 2834 3397 
L 2834 2853 
Q 2591 2978 2328 3040 
Q 2066 3103 1784 3103 
Q 1356 3103 1142 2972 
Q 928 2841 928 2578 
Q 928 2378 1081 2264 
Q 1234 2150 1697 2047 
L 1894 2003 
Q 2506 1872 2764 1633 
Q 3022 1394 3022 966 
Q 3022 478 2636 193 
Q 2250 -91 1575 -91 
Q 1294 -91 989 -36 
Q 684 19 347 128 
L 347 722 
Q 666 556 975 473 
Q 1284 391 1588 391 
Q 1994 391 2212 530 
Q 2431 669 2431 922 
Q 2431 1156 2273 1281 
Q 2116 1406 1581 1522 
L 1381 1569 
Q 847 1681 609 1914 
Q 372 2147 372 2553 
Q 372 3047 722 3315 
Q 1072 3584 1716 3584 
Q 2034 3584 2315 3537 
Q 2597 3491 2834 3397 
z
" id="DejaVuSans-73" transform="scale(0.015625)"/>
       <path d="M 2631 2963 
Q 2534 3019 2420 3045 
Q 2306 3072 2169 3072 
Q 1681 3072 1420 2755 
Q 1159 2438 1159 1844 
L 1159 0 
L 581 0 
L 581 3500 
L 1159 3500 
L 1159 2956 
Q 1341 3275 1631 3429 
Q 1922 3584 2338 3584 
Q 2397 3584 2469 3576 
Q 2541 3569 2628 3553 
L 2631 2963 
z
" id="DejaVuSans-72" transform="scale(0.015625)"/>
       <path d="M 1172 4494 
L 1172 3500 
L 2356 3500 
L 2356 3053 
L 1172 3053 
L 1172 1153 
Q 1172 725 1289 603 
Q 1406 481 1766 481 
L 2356 481 
L 2356 0 
L 1766 0 
Q 1100 0 847 248 
Q 594 497 594 1153 
L 594 3053 
L 172 3053 
L 172 3500 
L 594 3500 
L 594 4494 
L 1172 4494 
z
" id="DejaVuSans-74" transform="scale(0.015625)"/>
       <path d="M 603 3500 
L 1178 3500 
L 1178 0 
L 603 0 
L 603 3500 
z
M 603 4863 
L 1178 4863 
L 1178 4134 
L 603 4134 
L 603 4863 
z
" id="DejaVuSans-69" transform="scale(0.015625)"/>
      </defs>
      <use xlink:href="#DejaVuSans-6c"/>
      <use x="27.783203" xlink:href="#DejaVuSans-6f"/>
      <use x="88.964844" xlink:href="#DejaVuSans-67"/>
      <use x="152.441406" xlink:href="#DejaVuSans-31"/>
      <use x="216.064453" xlink:href="#DejaVuSans-30"/>
      <use x="279.6875" xlink:href="#DejaVuSans-20"/>
      <use x="311.474609" xlink:href="#DejaVuSans-6f"/>
      <use x="372.65625" xlink:href="#DejaVuSans-66"/>
      <use x="407.861328" xlink:href="#DejaVuSans-20"/>
      <use x="439.648438" xlink:href="#DejaVuSans-46"/>
      <use x="497.167969" xlink:href="#DejaVuSans-45"/>
      <use x="560.351562" xlink:href="#DejaVuSans-76"/>
      <use x="619.53125" xlink:href="#DejaVuSans-61"/>
      <use x="680.810547" xlink:href="#DejaVuSans-6c"/>
      <use x="708.59375" xlink:href="#DejaVuSans-73"/>
      <use x="760.693359" xlink:href="#DejaVuSans-20"/>
      <use x="792.480469" xlink:href="#DejaVuSans-72"/>
      <use x="833.59375" xlink:href="#DejaVuSans-61"/>
      <use x="894.873047" xlink:href="#DejaVuSans-74"/>
      <use x="934.082031" xlink:href="#DejaVuSans-69"/>
      <use x="961.865234" xlink:href="#DejaVuSans-6f"/>
     </g>
    </g>
   </g>
   <g id="matplotlib.axis_2">
    <g id="ytick_1">
     <g id="line2d_39">
      <path clip-path="url(#pb360c8e637)" d="M 34.16 288.453725 
L 453.192 288.453725 
" style="fill:none;stroke:#b0b0b0;stroke-linecap:square;stroke-width:0.8;"/>
     </g>
     <g id="line2d_40">
      <defs>
       <path d="M 0 0 
L -3.5 0 
" id="m164bd94c75" style="stroke:#000000;stroke-width:0.8;"/>
      </defs>
      <g>
       <use style="stroke:#000000;stroke-width:0.8;" x="34.16" xlink:href="#m164bd94c75" y="288.453725"/>
      </g>
     </g>
    </g>
    <g id="ytick_2">
     <g id="line2d_41">
      <path clip-path="url(#pb360c8e637)" d="M 34.16 217.796863 
L 453.192 217.796863 
" style="fill:none;stroke:#b0b0b0;stroke-linecap:square;stroke-width:0.8;"/>
     </g>
     <g id="line2d_42">
      <g>
       <use style="stroke:#000000;stroke-width:0.8;" x="34.16" xlink:href="#m164bd94c75" y="217.796863"/>
      </g>
     </g>
    </g>
    <g id="ytick_3">
     <g id="line2d_43">
      <path clip-path="url(#pb360c8e637)" d="M 34.16 147.14 
L 453.192 147.14 
" style="fill:none;stroke:#b0b0b0;stroke-linecap:square;stroke-width:0.8;"/>
     </g>
     <g id="line2d_44">
      <g>
       <use style="stroke:#000000;stroke-width:0.8;" x="34.16" xlink:href="#m164bd94c75" y="147.14"/>
      </g>
     </g>
    </g>
    <g id="ytick_4">
     <g id="line2d_45">
      <path clip-path="url(#pb360c8e637)" d="M 34.16 76.483137 
L 453.192 76.483137 
" style="fill:none;stroke:#b0b0b0;stroke-linecap:square;stroke-width:0.8;"/>
     </g>
     <g id="line2d_46">
      <g>
       <use style="stroke:#000000;stroke-width:0.8;" x="34.16" xlink:href="#m164bd94c75" y="76.483137"/>
      </g>
     </g>
    </g>
    <g id="ytick_5">
     <g id="line2d_47">
      <path clip-path="url(#pb360c8e637)" d="M 34.16 5.826275 
L 453.192 5.826275 
" style="fill:none;stroke:#b0b0b0;stroke-linecap:square;stroke-width:0.8;"/>
     </g>
     <g id="line2d_48">
      <g>
       <use style="stroke:#000000;stroke-width:0.8;" x="34.16" xlink:href="#m164bd94c75" y="5.826275"/>
      </g>
     </g>
    </g>
    <g id="text_4">
     <!-- proportion of trials -->
     <g transform="translate(19.000625 240.14625)rotate(-90)scale(0.2 -0.2)">
      <defs>
       <path d="M 1159 525 
L 1159 -1331 
L 581 -1331 
L 581 3500 
L 1159 3500 
L 1159 2969 
Q 1341 3281 1617 3432 
Q 1894 3584 2278 3584 
Q 2916 3584 3314 3078 
Q 3713 2572 3713 1747 
Q 3713 922 3314 415 
Q 2916 -91 2278 -91 
Q 1894 -91 1617 61 
Q 1341 213 1159 525 
z
M 3116 1747 
Q 3116 2381 2855 2742 
Q 2594 3103 2138 3103 
Q 1681 3103 1420 2742 
Q 1159 2381 1159 1747 
Q 1159 1113 1420 752 
Q 1681 391 2138 391 
Q 2594 391 2855 752 
Q 3116 1113 3116 1747 
z
" id="DejaVuSans-70" transform="scale(0.015625)"/>
       <path d="M 3513 2113 
L 3513 0 
L 2938 0 
L 2938 2094 
Q 2938 2591 2744 2837 
Q 2550 3084 2163 3084 
Q 1697 3084 1428 2787 
Q 1159 2491 1159 1978 
L 1159 0 
L 581 0 
L 581 3500 
L 1159 3500 
L 1159 2956 
Q 1366 3272 1645 3428 
Q 1925 3584 2291 3584 
Q 2894 3584 3203 3211 
Q 3513 2838 3513 2113 
z
" id="DejaVuSans-6e" transform="scale(0.015625)"/>
      </defs>
      <use xlink:href="#DejaVuSans-70"/>
      <use x="63.476562" xlink:href="#DejaVuSans-72"/>
      <use x="102.339844" xlink:href="#DejaVuSans-6f"/>
      <use x="163.521484" xlink:href="#DejaVuSans-70"/>
      <use x="226.998047" xlink:href="#DejaVuSans-6f"/>
      <use x="288.179688" xlink:href="#DejaVuSans-72"/>
      <use x="329.292969" xlink:href="#DejaVuSans-74"/>
      <use x="368.501953" xlink:href="#DejaVuSans-69"/>
      <use x="396.285156" xlink:href="#DejaVuSans-6f"/>
      <use x="457.466797" xlink:href="#DejaVuSans-6e"/>
      <use x="520.845703" xlink:href="#DejaVuSans-20"/>
      <use x="552.632812" xlink:href="#DejaVuSans-6f"/>
      <use x="613.814453" xlink:href="#DejaVuSans-66"/>
      <use x="649.019531" xlink:href="#DejaVuSans-20"/>
      <use x="680.806641" xlink:href="#DejaVuSans-74"/>
      <use x="720.015625" xlink:href="#DejaVuSans-72"/>
      <use x="761.128906" xlink:href="#DejaVuSans-69"/>
      <use x="788.912109" xlink:href="#DejaVuSans-61"/>
      <use x="850.191406" xlink:href="#DejaVuSans-6c"/>
      <use x="877.974609" xlink:href="#DejaVuSans-73"/>
     </g>
    </g>
   </g>
   <g id="line2d_49">
    <path clip-path="url(#pb360c8e637)" d="M 34.16 268.962177 
L 78.914903 268.962177 
L 78.914903 268.637318 
L 85.389513 268.637318 
L 85.389513 268.312459 
L 88.296536 268.312459 
L 88.296536 267.9876 
L 89.153104 267.9876 
L 89.153104 267.662741 
L 90.952826 267.662741 
L 90.952826 267.337881 
L 94.995601 267.337881 
L 94.995601 267.013022 
L 97.163611 267.013022 
L 97.163611 266.688163 
L 98.436965 266.688163 
L 98.436965 266.363304 
L 102.955321 266.363304 
L 102.955321 266.038445 
L 103.719298 266.038445 
L 103.719298 265.713586 
L 111.591126 265.713586 
L 111.591126 265.388727 
L 113.626867 265.388727 
L 113.626867 265.063867 
L 114.187658 265.063867 
L 114.187658 264.739008 
L 114.710264 264.739008 
L 114.710264 264.414149 
L 115.535184 264.414149 
L 115.535184 264.08929 
L 115.992282 264.08929 
L 115.992282 263.764431 
L 118.064381 263.764431 
L 118.064381 263.439572 
L 119.160286 263.439572 
L 119.160286 263.114713 
L 120.101477 263.114713 
L 120.16315 262.464994 
L 120.662268 262.464994 
L 120.662268 262.140135 
L 121.184874 262.140135 
L 121.184874 261.815276 
L 122.009795 261.815276 
L 122.111571 261.165558 
L 122.466892 261.165558 
L 122.466892 260.840699 
L 123.0085 260.840699 
L 123.0085 260.51584 
L 123.569292 260.51584 
L 123.569292 260.19098 
L 123.865068 260.19098 
L 123.865068 259.866121 
L 124.091898 259.866121 
L 124.091898 259.541262 
L 124.425859 259.541262 
L 124.425859 259.216403 
L 124.538991 259.216403 
L 124.538991 258.891544 
L 124.916818 258.891544 
L 124.948465 258.241826 
L 125.373915 258.241826 
L 125.373915 257.916966 
L 125.634897 257.916966 
L 125.66479 257.267248 
L 125.773385 257.267248 
L 125.773385 256.942389 
L 126.225581 256.942389 
L 126.230483 256.292671 
L 126.637761 256.292671 
L 126.748187 255.642952 
L 127.446015 255.642952 
L 127.446015 255.318093 
L 127.573107 255.318093 
L 127.573107 254.993234 
L 128.030205 254.993234 
L 128.030205 254.668375 
L 128.302582 254.668375 
L 128.302582 254.343516 
L 128.54192 254.343516 
L 128.586181 253.693798 
L 129.398487 253.693798 
L 129.398487 253.368938 
L 129.544784 253.368938 
L 129.611572 252.71922 
L 129.707565 252.71922 
L 129.707565 252.394361 
L 130.102304 252.394361 
L 130.102304 252.069502 
L 130.268356 252.069502 
L 130.268356 251.744643 
L 130.401351 251.744643 
L 130.401351 251.419784 
L 130.790962 251.419784 
L 130.790962 251.094924 
L 131.198209 251.094924 
L 131.198209 250.770065 
L 131.493205 250.770065 
L 131.493205 250.445206 
L 131.615883 250.445206 
L 131.615883 250.120347 
L 131.875575 250.120347 
L 131.875575 249.795488 
L 132.07298 249.795488 
L 132.07298 249.470629 
L 132.201073 249.470629 
L 132.201073 249.14577 
L 132.349772 249.14577 
L 132.436366 248.496051 
L 132.958972 248.496051 
L 132.958972 248.171192 
L 133.148929 248.171192 
L 133.148929 247.846333 
L 133.70972 247.846333 
L 133.783892 247.196615 
L 134.145079 247.196615 
L 134.24099 245.897178 
L 135.057247 245.897178 
L 135.057247 245.572319 
L 135.240985 245.572319 
L 135.240985 245.24746 
L 135.514344 245.24746 
L 135.514344 244.922601 
L 136.243849 244.922601 
L 136.313089 243.948023 
L 137.237977 243.948023 
L 137.237977 243.623164 
L 137.408994 243.623164 
L 137.408994 243.298305 
L 137.586443 243.298305 
L 137.667285 242.648587 
L 138.192269 242.648587 
L 138.228076 241.998869 
L 138.411859 241.998869 
L 138.431262 241.34915 
L 138.682349 241.34915 
L 138.750682 240.699432 
L 138.992053 240.699432 
L 138.992053 240.374573 
L 139.514659 240.374573 
L 139.575602 239.724855 
L 139.685213 239.724855 
L 139.685213 239.399995 
L 140.0327 239.399995 
L 140.0327 239.075136 
L 140.339579 239.075136 
L 140.360279 238.425418 
L 140.796677 238.425418 
L 140.796677 238.100559 
L 141.633633 238.100559 
L 141.633633 237.7757 
L 142.104799 237.7757 
L 142.104799 237.450841 
L 142.868776 237.450841 
L 142.868776 237.125982 
L 143.200704 237.125982 
L 143.200704 236.801122 
L 143.964681 236.801122 
L 143.964681 236.476263 
L 144.203568 236.476263 
L 144.203568 236.151404 
L 144.967546 236.151404 
L 145.002529 235.501686 
L 145.91646 235.501686 
L 145.91646 235.176827 
L 146.151989 235.176827 
L 146.151989 234.851968 
L 146.30309 234.851968 
L 146.30309 234.527108 
L 146.863881 234.527108 
L 146.915966 233.87739 
L 147.386487 233.87739 
L 147.386487 233.552531 
L 147.951796 233.552531 
L 147.951796 233.227672 
L 148.211408 233.227672 
L 148.211408 232.902813 
L 148.668505 232.902813 
L 148.668505 232.577954 
L 149.245262 232.577954 
L 149.245262 232.253094 
L 150.740604 232.253094 
L 150.740604 231.928235 
L 151.063427 231.928235 
L 151.063427 231.603376 
L 151.83651 231.603376 
L 151.83651 231.278517 
L 152.137743 231.278517 
L 152.137743 230.953658 
L 152.839374 230.953658 
L 152.839374 230.628799 
L 154.71518 230.628799 
L 154.787794 229.97908 
L 155.284603 229.97908 
L 155.284603 229.654221 
L 156.069165 229.654221 
L 156.069165 229.329362 
L 156.348162 229.329362 
L 156.348162 229.004503 
L 156.851245 229.004503 
L 156.955878 228.354785 
L 159.533315 228.354785 
L 159.533315 228.029926 
L 161.140448 228.029926 
L 161.140448 227.705066 
L 162.097949 227.705066 
L 162.097949 227.380207 
L 162.715825 227.380207 
L 162.715825 227.055348 
L 163.061198 227.055348 
L 163.061198 226.730489 
L 163.246033 226.730489 
L 163.246033 226.40563 
L 164.323536 226.40563 
L 164.323536 226.080771 
L 164.615797 226.080771 
L 164.615797 225.755912 
L 164.884328 225.755912 
L 164.884328 225.431053 
L 165.406933 225.431053 
L 165.406933 225.106193 
L 165.529728 225.106193 
L 165.529728 224.781334 
L 166.231854 224.781334 
L 166.231854 224.456475 
L 166.688951 224.456475 
L 166.697067 223.806757 
L 167.565064 223.806757 
L 167.565064 223.481898 
L 168.76105 223.481898 
L 168.85853 222.832179 
L 169.274504 222.832179 
L 169.274504 222.50732 
L 169.856956 222.50732 
L 169.856956 222.182461 
L 170.676695 222.182461 
L 170.676695 221.857602 
L 170.85982 221.857602 
L 170.85982 221.532743 
L 171.010739 221.532743 
L 171.010739 221.207884 
L 171.571531 221.207884 
L 171.571531 220.883025 
L 172.094136 220.883025 
L 172.094136 220.558165 
L 172.80824 220.558165 
L 172.919057 219.908447 
L 173.345298 219.908447 
L 173.376154 219.258729 
L 173.640154 219.258729 
L 173.640154 218.93387 
L 174.077628 218.93387 
L 174.077628 218.609011 
L 174.395591 218.609011 
L 174.395591 218.284151 
L 174.897871 218.284151 
L 174.897871 217.959292 
L 175.448253 217.959292 
L 175.448253 217.634433 
L 175.682433 217.634433 
L 175.682433 217.309574 
L 175.96143 217.309574 
L 175.96143 216.984715 
L 176.217591 216.984715 
L 176.217591 216.659856 
L 176.544159 216.659856 
L 176.544159 216.334997 
L 176.973028 216.334997 
L 177.024309 215.685278 
L 177.547023 215.685278 
L 177.547023 215.360419 
L 179.495443 215.360419 
L 179.495443 215.03556 
L 180.044067 215.03556 
L 180.044067 214.710701 
L 180.753716 214.710701 
L 180.753716 214.385842 
L 181.711217 214.385842 
L 181.711217 214.060983 
L 181.842444 214.060983 
L 181.842444 213.736124 
L 182.007193 213.736124 
L 182.007193 213.411264 
L 182.329093 213.411264 
L 182.329093 213.086405 
L 182.674466 213.086405 
L 182.674466 212.761546 
L 182.859301 212.761546 
L 182.901428 212.111828 
L 184.307257 212.111828 
L 184.307257 211.786969 
L 184.58463 211.786969 
L 184.58463 211.46211 
L 184.862202 211.46211 
L 184.862202 211.13725 
L 185.478865 211.13725 
L 185.478865 210.812391 
L 185.815667 210.812391 
L 185.815667 210.487532 
L 186.746809 210.487532 
L 186.746809 210.162673 
L 186.884694 210.162673 
L 186.884694 209.837814 
L 188.393104 209.837814 
L 188.393104 209.512955 
L 191.01012 209.512955 
L 191.094208 208.863236 
L 191.583633 208.863236 
L 191.583633 208.538377 
L 194.603391 208.538377 
L 194.603391 208.213518 
L 194.86926 208.213518 
L 194.86926 207.888659 
L 196.464032 207.888659 
L 196.464032 207.5638 
L 197.219071 207.5638 
L 197.265442 206.914082 
L 197.864599 206.914082 
L 197.951401 205.939504 
L 198.294677 205.939504 
L 198.294677 205.614645 
L 198.52672 205.614645 
L 198.52672 205.289786 
L 198.717547 205.289786 
L 198.717547 204.964927 
L 199.027007 204.964927 
L 199.027007 204.640068 
L 199.282157 204.640068 
L 199.282157 204.315208 
L 199.449877 204.315208 
L 199.449877 203.990349 
L 201.546478 203.990349 
L 201.546478 203.66549 
L 202.301915 203.66549 
L 202.301915 203.340631 
L 203.869053 203.340631 
L 203.869053 203.015772 
L 204.055451 203.015772 
L 204.055451 202.690913 
L 204.601383 202.690913 
L 204.601383 202.366054 
L 204.787781 202.366054 
L 204.787781 202.041195 
L 205.158311 202.041195 
L 205.158311 201.716335 
L 205.62915 201.716335 
L 205.62915 201.391476 
L 206.543082 201.391476 
L 206.543082 201.066617 
L 206.893759 201.066617 
L 206.893759 200.741758 
L 207.787994 200.741758 
L 207.787994 200.416899 
L 208.381449 200.416899 
L 208.381449 200.09204 
L 208.578418 200.09204 
L 208.578418 199.767181 
L 209.193823 199.767181 
L 209.193823 199.442321 
L 209.550399 199.442321 
L 209.550399 199.117462 
L 209.73491 199.117462 
L 209.73491 198.792603 
L 209.871884 198.792603 
L 209.913517 198.142885 
L 210.282729 198.142885 
L 210.282729 197.818026 
L 210.620582 197.818026 
L 210.702233 197.168307 
L 210.807752 197.168307 
L 210.807752 196.843448 
L 211.088637 196.843448 
L 211.088637 196.518589 
L 211.690049 196.518589 
L 211.696188 195.868871 
L 212.119057 195.868871 
L 212.213581 195.219153 
L 213.721991 195.219153 
L 213.721991 194.894293 
L 214.28781 194.894293 
L 214.28781 194.569434 
L 214.482528 194.569434 
L 214.553045 193.919716 
L 214.644785 193.919716 
L 214.644785 193.594857 
L 214.883894 193.594857 
L 214.967981 192.945139 
L 215.311441 192.945139 
L 215.377114 192.29542 
L 215.906772 192.29542 
L 215.9595 191.320843 
L 216.043587 191.320843 
L 216.043587 190.995984 
L 216.382369 190.995984 
L 216.466457 190.346265 
L 216.695787 190.346265 
L 216.695787 190.021406 
L 216.974784 190.021406 
L 216.974784 189.696547 
L 217.270563 189.696547 
L 217.270563 189.371688 
L 217.456962 189.371688 
L 217.456962 189.046829 
L 217.832909 189.046829 
L 217.832909 188.72197 
L 218.541859 188.72197 
L 218.541859 188.397111 
L 219.223795 188.397111 
L 219.274189 187.747392 
L 219.802227 187.747392 
L 219.802227 187.422533 
L 220.106751 187.422533 
L 220.106751 187.097674 
L 220.337805 187.097674 
L 220.337805 186.772815 
L 220.557266 186.772815 
L 220.557266 186.447956 
L 221.139215 186.447956 
L 221.139215 186.123097 
L 221.289596 186.123097 
L 221.289596 185.798238 
L 221.413412 185.798238 
L 221.494672 185.148519 
L 221.533875 185.148519 
L 221.617963 184.498801 
L 221.720274 184.498801 
L 221.824058 182.874505 
L 221.836281 182.874505 
L 221.836281 182.549646 
L 222.214822 182.549646 
L 222.214822 182.224787 
L 222.637691 182.224787 
L 222.72457 181.575069 
L 222.899664 181.575069 
L 222.951909 180.92535 
L 223.322534 180.92535 
L 223.342447 180.275632 
L 223.68782 180.275632 
L 223.68782 179.950773 
L 223.872655 179.950773 
L 223.891297 179.301055 
L 224.294234 179.301055 
L 224.294234 178.976196 
L 224.674668 178.976196 
L 224.693075 178.326477 
L 225.406998 178.326477 
L 225.406998 178.001618 
L 225.549642 178.001618 
L 225.647961 177.3519 
L 225.702056 177.3519 
L 225.702056 177.027041 
L 226.434386 177.027041 
L 226.434386 176.702182 
L 226.81726 176.702182 
L 226.81726 176.377323 
L 226.987787 176.377323 
L 226.988347 175.727604 
L 227.174185 175.727604 
L 227.215221 175.077886 
L 227.299309 175.077886 
L 227.349364 174.428168 
L 227.789197 174.428168 
L 227.871303 173.778449 
L 227.902278 173.778449 
L 227.975595 173.128731 
L 228.046295 173.128731 
L 228.105677 172.479013 
L 228.320365 172.479013 
L 228.320365 172.154154 
L 228.47404 172.154154 
L 228.47404 171.829295 
L 228.660438 171.829295 
L 228.660438 171.504435 
L 228.785234 171.504435 
L 228.785234 171.179576 
L 229.032084 171.179576 
L 229.032084 170.854717 
L 229.259224 170.854717 
L 229.259224 170.529858 
L 229.937615 170.529858 
L 229.937615 170.204999 
L 230.10769 170.204999 
L 230.173155 169.555281 
L 230.53056 169.555281 
L 230.53056 169.230421 
L 230.82057 169.230421 
L 230.82057 168.905562 
L 231.23108 168.905562 
L 231.237321 168.255844 
L 231.39214 168.255844 
L 231.39214 167.930985 
L 231.655848 167.930985 
L 231.655848 167.606126 
L 231.943369 167.606126 
L 231.992758 166.956407 
L 232.114036 166.956407 
L 232.208491 165.98183 
L 232.255222 165.98183 
L 232.309607 165.332112 
L 232.393694 165.332112 
L 232.393694 165.007253 
L 232.514339 165.007253 
L 232.591048 164.032675 
L 232.669133 164.032675 
L 232.669133 163.707816 
L 232.917936 163.707816 
L 232.917936 163.382957 
L 233.049246 163.382957 
L 233.049246 163.058098 
L 233.330829 163.058098 
L 233.346485 162.40838 
L 233.470543 162.40838 
L 233.56015 161.433802 
L 233.753698 161.433802 
L 233.833712 160.784084 
L 233.932201 160.784084 
L 233.958776 160.134366 
L 234.102482 160.134366 
L 234.155386 159.484647 
L 234.581812 159.484647 
L 234.605116 158.834929 
L 234.795552 158.834929 
L 234.833504 158.185211 
L 235.320122 158.185211 
L 235.320122 157.860352 
L 235.495743 157.860352 
L 235.495743 157.535492 
L 235.682066 157.535492 
L 235.79114 156.885774 
L 235.868464 156.885774 
L 235.898582 155.911197 
L 236.17235 155.911197 
L 236.206681 155.261478 
L 236.290768 155.261478 
L 236.290768 154.936619 
L 236.78416 154.936619 
L 236.845091 154.286901 
L 237.270422 154.286901 
L 237.270422 153.962042 
L 237.393737 153.962042 
L 237.393737 153.637183 
L 237.531079 153.637183 
L 237.531079 153.312324 
L 237.716747 153.312324 
L 237.763519 152.662605 
L 238.009566 152.662605 
L 238.076179 151.688028 
L 238.153377 151.688028 
L 238.222088 150.713451 
L 238.306175 150.713451 
L 238.33398 150.063732 
L 238.564929 150.063732 
L 238.564929 149.738873 
L 238.819497 149.738873 
L 238.905204 148.764296 
L 238.937939 148.764296 
L 238.937939 148.439437 
L 239.091602 148.439437 
L 239.103566 147.789718 
L 239.216936 147.789718 
L 239.249771 146.815141 
L 239.351859 146.815141 
L 239.351859 146.490282 
L 239.541298 146.490282 
L 239.622055 145.190845 
L 239.660059 145.190845 
L 239.660059 144.865986 
L 240.112962 144.865986 
L 240.115837 144.216268 
L 240.241896 144.216268 
L 240.32586 143.24169 
L 240.442223 143.24169 
L 240.498595 142.591972 
L 240.604857 142.591972 
L 240.664036 141.617395 
L 240.958087 141.617395 
L 240.990484 140.967676 
L 241.192823 140.967676 
L 241.192823 140.642817 
L 241.363412 140.642817 
L 241.363412 140.317958 
L 241.578168 140.317958 
L 241.660593 139.343381 
L 241.706682 139.343381 
L 241.706682 139.018522 
L 241.852322 139.018522 
L 241.937923 137.394226 
L 242.211871 137.394226 
L 242.211871 137.069367 
L 242.339491 137.069367 
L 242.423578 136.419648 
L 242.462003 136.419648 
L 242.512195 135.76993 
L 242.722485 135.76993 
L 242.782288 134.795353 
L 243.001482 134.795353 
L 243.001482 134.470494 
L 243.126267 134.470494 
L 243.228159 133.171057 
L 243.258151 133.171057 
L 243.366878 132.521339 
L 243.412834 132.521339 
L 243.450965 131.87162 
L 243.555692 131.87162 
L 243.555692 131.546761 
L 243.676 131.546761 
L 243.676 130.897043 
L 244.009222 130.897043 
L 244.083767 130.247325 
L 244.21658 130.247325 
L 244.21658 129.922466 
L 244.469623 129.922466 
L 244.547532 128.623029 
L 244.58655 128.623029 
L 244.609643 127.973311 
L 244.701643 127.973311 
L 244.811565 126.673874 
L 244.816301 126.673874 
L 244.863886 126.024156 
L 244.966723 126.024156 
L 245.047016 125.049579 
L 245.162252 125.049579 
L 245.231851 124.075001 
L 245.397143 124.075001 
L 245.397143 123.750142 
L 245.523574 123.750142 
L 245.587116 122.775565 
L 245.648448 122.775565 
L 245.648448 122.450705 
L 245.774118 122.450705 
L 245.840997 121.800987 
L 245.927445 121.800987 
L 245.929972 121.151269 
L 246.109767 121.151269 
L 246.152303 120.176691 
L 246.33979 120.176691 
L 246.396303 119.202114 
L 246.457797 119.202114 
L 246.504959 118.552396 
L 246.68805 118.552396 
L 246.68805 118.227537 
L 246.916834 118.227537 
L 246.97252 117.252959 
L 247.215862 117.252959 
L 247.317893 116.603241 
L 247.502728 116.603241 
L 247.55891 115.953523 
L 247.659163 115.953523 
L 247.659163 115.628664 
L 247.793403 115.628664 
L 247.798425 114.654086 
L 247.927932 114.654086 
L 247.987665 114.004368 
L 248.356663 114.004368 
L 248.356663 113.679509 
L 248.543062 113.679509 
L 248.594813 113.02979 
L 248.723386 113.02979 
L 248.82079 112.055213 
L 248.852376 112.055213 
L 248.853352 111.405495 
L 249.279655 111.405495 
L 249.369145 110.430917 
L 249.61659 110.430917 
L 249.714518 109.131481 
L 249.823857 109.131481 
L 249.934516 107.832044 
L 250.016851 107.832044 
L 250.016851 107.507185 
L 250.307042 107.507185 
L 250.354872 106.532608 
L 250.492911 106.532608 
L 250.560966 105.55803 
L 250.670541 105.55803 
L 250.731674 103.933735 
L 251.345527 103.933735 
L 251.345527 103.608875 
L 251.624525 103.608875 
L 251.677232 102.959157 
L 251.835017 102.959157 
L 251.880339 102.309439 
L 251.953061 102.309439 
L 252.008149 101.334861 
L 252.149108 101.334861 
L 252.194138 100.685143 
L 252.295108 100.685143 
L 252.370279 100.035425 
L 252.480146 100.035425 
L 252.480146 99.710566 
L 252.640481 99.710566 
L 252.6649 99.060847 
L 252.825316 99.060847 
L 252.933669 98.411129 
L 252.943897 98.411129 
L 252.965649 97.761411 
L 253.212667 97.761411 
L 253.269744 97.111693 
L 253.57801 97.111693 
L 253.598214 96.137115 
L 253.692614 96.137115 
L 253.692614 95.812256 
L 253.837766 95.812256 
L 253.928898 95.162538 
L 254.038009 95.162538 
L 254.113733 94.512819 
L 254.454782 94.512819 
L 254.454782 94.18796 
L 254.622328 94.18796 
L 254.622328 93.863101 
L 254.891717 93.863101 
L 254.901325 93.213383 
L 255.30434 93.213383 
L 255.327963 92.563665 
L 255.495882 92.563665 
L 255.593417 91.589087 
L 255.676279 91.589087 
L 255.676279 91.264228 
L 255.955276 91.264228 
L 256.056193 90.289651 
L 256.10575 90.289651 
L 256.137492 89.639932 
L 256.254504 89.639932 
L 256.297963 88.990214 
L 256.416811 88.990214 
L 256.522922 88.015637 
L 256.790592 88.015637 
L 256.840754 87.365918 
L 257.0534 87.365918 
L 257.119752 86.7162 
L 257.374311 86.7162 
L 257.374311 86.391341 
L 257.515069 86.391341 
L 257.515069 86.066482 
L 257.67476 86.066482 
L 257.736184 85.416764 
L 257.992188 85.416764 
L 258.004953 84.767045 
L 258.234986 84.767045 
L 258.33756 84.117327 
L 258.430197 84.117327 
L 258.522395 83.14275 
L 258.690931 83.14275 
L 258.693684 82.493031 
L 258.84412 82.493031 
L 258.896148 81.843313 
L 258.962453 81.843313 
L 259.030518 81.193595 
L 259.091553 81.193595 
L 259.132395 80.543876 
L 259.31156 80.543876 
L 259.31156 80.219017 
L 259.484371 80.219017 
L 259.58033 79.569299 
L 259.651584 79.569299 
L 259.71082 78.269863 
L 259.841768 78.269863 
L 259.925703 77.620144 
L 259.964286 77.620144 
L 259.964286 77.295285 
L 260.110538 77.295285 
L 260.110538 76.970426 
L 260.297279 76.970426 
L 260.297279 76.645567 
L 260.651112 76.645567 
L 260.747562 75.670989 
L 260.891275 75.670989 
L 260.891275 75.34613 
L 261.101713 75.34613 
L 261.101713 75.021271 
L 261.268988 75.021271 
L 261.373383 74.371553 
L 261.499778 74.371553 
L 261.499778 74.046694 
L 261.614361 74.046694 
L 261.705062 73.396975 
L 261.799196 73.396975 
L 261.799196 73.072116 
L 261.912038 73.072116 
L 261.912038 72.747257 
L 262.22995 72.747257 
L 262.322939 72.097539 
L 262.465289 72.097539 
L 262.465289 71.77268 
L 262.668312 71.77268 
L 262.668312 71.447821 
L 262.853147 71.447821 
L 262.869538 70.798102 
L 263.029469 70.798102 
L 263.080579 70.148384 
L 263.487415 70.148384 
L 263.487415 69.823525 
L 263.738643 69.823525 
L 263.836016 68.848947 
L 263.998619 68.848947 
L 264.029672 67.87437 
L 264.482641 67.87437 
L 264.53781 66.899793 
L 264.665002 66.899793 
L 264.665002 66.574934 
L 264.934051 66.574934 
L 265.044876 65.600356 
L 265.246618 65.600356 
L 265.246618 65.275497 
L 265.559237 65.275497 
L 265.61718 64.30092 
L 266.008111 64.30092 
L 266.0418 63.326342 
L 266.644568 63.326342 
L 266.644568 63.001483 
L 266.936035 63.001483 
L 267.014195 62.026906 
L 267.10206 62.026906 
L 267.10206 61.702046 
L 267.221757 61.702046 
L 267.263187 61.052328 
L 268.072448 61.052328 
L 268.157422 60.40261 
L 268.256998 60.40261 
L 268.341864 59.752892 
L 268.375415 59.752892 
L 268.473476 59.103173 
L 269.020976 59.103173 
L 269.020976 58.778314 
L 269.162279 58.778314 
L 269.162279 58.453455 
L 269.563251 58.453455 
L 269.619852 57.803737 
L 269.850273 57.803737 
L 269.850273 57.478878 
L 270.189666 57.478878 
L 270.240458 56.829159 
L 271.07166 56.829159 
L 271.131597 56.179441 
L 271.187791 56.179441 
L 271.187791 55.854582 
L 271.37419 55.854582 
L 271.447618 55.204864 
L 271.513812 55.204864 
L 271.513812 54.880005 
L 272.158985 54.880005 
L 272.158985 54.555145 
L 272.341853 54.555145 
L 272.341853 54.230286 
L 272.695314 54.230286 
L 272.695314 53.905427 
L 272.89377 53.905427 
L 272.89377 53.580568 
L 273.118447 53.580568 
L 273.128118 52.93085 
L 273.516926 52.93085 
L 273.516926 52.605991 
L 273.657747 52.605991 
L 273.747682 51.956272 
L 274.334019 51.956272 
L 274.334019 51.631413 
L 274.894811 51.631413 
L 274.95386 50.981695 
L 275.256092 50.981695 
L 275.256092 50.656836 
L 275.417417 50.656836 
L 275.514651 50.007117 
L 275.532333 50.007117 
L 275.532333 49.682258 
L 276.032167 49.682258 
L 276.037257 49.03254 
L 276.242337 49.03254 
L 276.242337 48.707681 
L 276.673216 48.707681 
L 276.699434 48.057963 
L 276.796145 48.057963 
L 276.892804 46.433667 
L 277.319275 46.433667 
L 277.319275 46.108808 
L 277.738034 46.108808 
L 277.738034 45.783949 
L 278.642535 45.783949 
L 278.642535 45.459089 
L 278.771534 45.459089 
L 278.771534 45.13423 
L 279.125955 45.13423 
L 279.125955 44.809371 
L 279.391374 44.809371 
L 279.391374 44.484512 
L 279.649736 44.484512 
L 279.649736 44.159653 
L 279.867439 44.159653 
L 279.867439 43.834794 
L 280.487279 43.834794 
L 280.487279 43.509935 
L 280.677123 43.509935 
L 280.677123 43.185076 
L 280.870303 43.185076 
L 280.870303 42.860216 
L 281.490143 42.860216 
L 281.529576 41.885639 
L 281.963523 41.885639 
L 281.963523 41.56078 
L 282.818723 41.56078 
L 282.818723 41.235921 
L 283.438564 41.235921 
L 283.438564 40.911062 
L 284.448543 40.911062 
L 284.448543 40.586202 
L 284.667973 40.586202 
L 284.667973 40.261343 
L 285.73696 40.261343 
L 285.73696 39.936484 
L 285.860597 39.936484 
L 285.860597 39.611625 
L 287.160673 39.611625 
L 287.160673 39.286766 
L 287.876004 39.286766 
L 287.876004 38.961907 
L 290.145622 38.961907 
L 290.145622 38.637048 
L 291.138893 38.637048 
L 291.138893 38.312188 
L 291.464995 38.312188 
L 291.464995 37.987329 
L 291.733764 37.987329 
L 291.733764 37.66247 
L 291.993407 37.66247 
L 291.993407 37.337611 
L 293.020794 37.337611 
L 293.020794 37.012752 
L 293.422423 37.012752 
L 293.422423 36.687893 
L 294.476374 36.687893 
L 294.476374 36.363034 
L 294.91325 36.363034 
L 294.91325 36.038174 
L 295.640849 36.038174 
L 295.640849 35.713315 
L 297.826096 35.713315 
L 297.826096 35.388456 
L 299.504344 35.388456 
L 299.550022 34.738738 
L 301.600453 34.738738 
L 301.600453 34.413879 
L 302.688419 34.413879 
L 302.688419 34.08902 
L 306.237225 34.08902 
L 306.237225 33.76416 
L 309.375622 33.76416 
L 309.375622 33.439301 
L 328.091453 33.439301 
L 328.091453 33.114442 
L 328.823782 33.114442 
L 328.823782 32.789583 
L 341.492963 32.789583 
L 341.492963 32.464724 
L 345.756275 32.464724 
L 345.840362 31.815006 
L 351.210187 31.815006 
L 351.210187 31.490146 
L 352.011597 31.490146 
L 352.011597 31.165287 
L 352.696439 31.165287 
L 352.696439 30.840428 
L 359.904466 30.840428 
L 359.904466 30.515569 
L 363.127604 30.515569 
L 363.127604 30.19071 
L 368.050543 30.19071 
L 368.050543 29.865851 
L 368.782872 29.865851 
L 368.782872 29.540992 
L 369.033965 29.540992 
L 369.033965 29.216133 
L 372.579063 29.216133 
L 372.579063 28.891273 
L 374.548382 28.891273 
L 374.548382 28.566414 
L 376.018594 28.566414 
L 376.018594 28.241555 
L 376.638434 28.241555 
L 376.638434 27.916696 
L 381.452053 27.916696 
L 381.452053 27.591837 
L 383.06652 27.591837 
L 383.06652 27.266978 
L 385.715365 27.266978 
L 385.799452 26.617259 
L 391.169277 26.617259 
L 391.169277 26.2924 
L 391.970687 26.2924 
L 391.970687 25.967541 
L 392.655529 25.967541 
L 392.655529 25.642682 
L 395.410191 25.642682 
L 395.410191 25.317823 
L 399.863556 25.317823 
L 399.863556 24.992964 
L 401.149376 24.992964 
L 401.149376 24.668105 
L 401.769216 24.668105 
L 401.769216 24.343245 
L 403.086694 24.343245 
L 403.086694 24.018386 
L 404.923733 24.018386 
L 404.923733 23.693527 
L 405.543574 23.693527 
L 405.543574 23.368668 
L 408.993055 23.368668 
L 408.993055 23.043809 
L 409.560505 23.043809 
L 409.560505 22.71895 
L 410.180345 22.71895 
L 410.180345 22.394091 
L 412.538153 22.394091 
L 412.538153 22.069231 
L 412.698902 22.069231 
L 412.698902 21.744372 
L 413.318742 21.744372 
L 413.318742 21.419513 
L 414.507472 21.419513 
L 414.507472 21.094654 
L 423.02561 21.094654 
L 423.02561 20.769795 
L 435.369281 20.769795 
L 435.369281 20.444936 
L 453.192 20.444936 
L 453.192 20.444936 
" style="fill:none;stroke:#000000;stroke-linecap:square;stroke-width:3;"/>
   </g>
   <g id="line2d_50">
    <path clip-path="url(#pb360c8e637)" style="fill:none;stroke:#000000;stroke-linecap:square;stroke-width:3;"/>
   </g>
   <g id="line2d_51">
    <path clip-path="url(#pb360c8e637)" d="M 34.16 147.14 
L 168.295081 147.14 
L 168.295081 145.569847 
L 169.155113 145.569847 
L 169.155113 143.999695 
L 175.227945 143.999695 
L 175.227945 142.429542 
L 176.087977 142.429542 
L 176.087977 140.85939 
L 181.173131 140.85939 
L 181.173131 139.289237 
L 182.033163 139.289237 
L 182.033163 137.719085 
L 183.92466 137.719085 
L 183.92466 136.148932 
L 184.784692 136.148932 
L 184.784692 134.57878 
L 185.138794 134.57878 
L 185.138794 133.008627 
L 185.143074 133.008627 
L 185.143074 131.438475 
L 185.998825 131.438475 
L 185.998825 129.868322 
L 186.003106 129.868322 
L 186.003106 128.29817 
L 194.510737 128.29817 
L 194.510737 126.728017 
L 195.93018 126.728017 
L 195.93018 125.157865 
L 201.443601 125.157865 
L 201.443601 123.587712 
L 202.863044 123.587712 
L 202.863044 122.01756 
L 207.388786 122.01756 
L 207.388786 120.447407 
L 208.80823 120.447407 
L 208.80823 118.877255 
L 210.140316 118.877255 
L 210.140316 117.307102 
L 211.354449 117.307102 
L 211.354449 115.73695 
L 211.358729 115.73695 
L 211.358729 114.166797 
L 211.559759 114.166797 
L 211.559759 112.596645 
L 212.773893 112.596645 
L 212.773893 111.026492 
L 212.778173 111.026492 
L 212.778173 109.45634 
L 225.153693 109.45634 
L 225.153693 107.886187 
L 226.723656 107.886187 
L 226.723656 106.316035 
L 232.086557 106.316035 
L 232.086557 104.745882 
L 233.656521 104.745882 
L 233.656521 103.17573 
L 238.031743 103.17573 
L 238.031743 101.605577 
L 239.601706 101.605577 
L 239.601706 100.035425 
L 240.783272 100.035425 
L 240.783272 98.465272 
L 241.997406 98.465272 
L 241.997406 96.89512 
L 242.001686 96.89512 
L 242.001686 95.324967 
L 242.353235 95.324967 
L 242.353235 93.754815 
L 243.567369 93.754815 
L 243.567369 92.184662 
L 243.571649 92.184662 
L 243.571649 90.61451 
L 249.241772 90.61451 
L 249.241772 89.044357 
L 252.128538 89.044357 
L 252.128538 87.474205 
L 252.855714 87.474205 
L 252.855714 85.904052 
L 256.174637 85.904052 
L 256.174637 84.3339 
L 256.399534 84.3339 
L 256.399534 82.763747 
L 259.061402 82.763747 
L 259.061402 81.193595 
L 259.788578 81.193595 
L 259.788578 79.623442 
L 262.119822 79.623442 
L 262.119822 78.05329 
L 263.332398 78.05329 
L 263.332398 76.483137 
L 264.871351 76.483137 
L 264.871351 74.912985 
L 265.006587 74.912985 
L 265.006587 73.342832 
L 265.733764 73.342832 
L 265.733764 71.77268 
L 266.085485 71.77268 
L 266.085485 70.202527 
L 266.089765 70.202527 
L 266.089765 68.632375 
L 267.758116 68.632375 
L 267.758116 67.062222 
L 268.485293 67.062222 
L 268.485293 65.49207 
L 268.97225 65.49207 
L 268.97225 63.921917 
L 268.97653 63.921917 
L 268.97653 62.351765 
L 269.277584 62.351765 
L 269.277584 60.781612 
L 269.699426 60.781612 
L 269.699426 59.21146 
L 269.703706 59.21146 
L 269.703706 57.641307 
L 272.029113 57.641307 
L 272.029113 56.071155 
L 273.243247 56.071155 
L 273.243247 54.501002 
L 273.247527 54.501002 
L 273.247527 52.93085 
L 453.192 52.93085 
" style="fill:none;stroke:#00bfbf;stroke-linecap:square;stroke-width:3;"/>
   </g>
   <g id="line2d_52">
    <path clip-path="url(#pb360c8e637)" style="fill:none;stroke:#00bfbf;stroke-linecap:square;stroke-width:3;"/>
   </g>
   <g id="line2d_53">
    <path clip-path="url(#pb360c8e637)" d="M 34.16 147.14 
L 168.571509 147.14 
L 168.571509 145.569847 
L 168.888886 145.569847 
L 168.888886 143.999695 
L 176.097358 143.999695 
L 176.097358 142.429542 
L 176.414735 142.429542 
L 176.414735 140.85939 
L 182.420917 140.85939 
L 182.420917 139.289237 
L 182.738294 139.289237 
L 182.738294 137.719085 
L 185.013896 137.719085 
L 185.013896 136.148932 
L 185.022297 136.148932 
L 185.022297 134.57878 
L 185.331273 134.57878 
L 185.331273 133.008627 
L 185.339674 133.008627 
L 185.339674 131.438475 
L 186.658901 131.438475 
L 186.658901 129.868322 
L 186.976278 129.868322 
L 186.976278 128.29817 
L 193.813587 128.29817 
L 193.813587 126.728017 
L 195.163319 126.728017 
L 195.163319 125.157865 
L 201.339436 125.157865 
L 201.339436 123.587712 
L 202.689168 123.587712 
L 202.689168 122.01756 
L 207.662995 122.01756 
L 207.662995 120.447407 
L 209.012727 120.447407 
L 209.012727 118.877255 
L 210.255974 118.877255 
L 210.255974 117.307102 
L 210.264376 117.307102 
L 210.264376 115.73695 
L 211.605706 115.73695 
L 211.605706 114.166797 
L 211.614107 114.166797 
L 211.614107 112.596645 
L 211.90098 112.596645 
L 211.90098 111.026492 
L 213.250711 111.026492 
L 213.250711 109.45634 
L 224.871861 109.45634 
L 224.871861 107.886187 
L 226.241091 107.886187 
L 226.241091 106.316035 
L 232.39771 106.316035 
L 232.39771 104.745882 
L 233.76694 104.745882 
L 233.76694 103.17573 
L 238.721269 103.17573 
L 238.721269 101.605577 
L 240.090499 101.605577 
L 240.090499 100.035425 
L 241.314248 100.035425 
L 241.314248 98.465272 
L 241.32265 98.465272 
L 241.32265 96.89512 
L 242.683478 96.89512 
L 242.683478 95.324967 
L 242.69188 95.324967 
L 242.69188 93.754815 
L 242.959254 93.754815 
L 242.959254 92.184662 
L 244.328484 92.184662 
L 244.328484 90.61451 
L 249.123733 90.61451 
L 249.123733 89.044357 
L 251.296319 89.044357 
L 251.296319 87.474205 
L 251.959228 87.474205 
L 251.959228 85.904052 
L 254.919396 85.904052 
L 254.919396 84.3339 
L 256.649582 84.3339 
L 256.649582 82.763747 
L 258.822168 82.763747 
L 258.822168 81.193595 
L 259.485077 81.193595 
L 259.485077 79.623442 
L 262.445245 79.623442 
L 262.445245 78.05329 
L 262.973141 78.05329 
L 262.973141 76.483137 
L 265.145727 76.483137 
L 265.145727 74.912985 
L 265.56612 74.912985 
L 265.56612 73.342832 
L 265.574522 73.342832 
L 265.574522 71.77268 
L 265.808636 71.77268 
L 265.808636 70.202527 
L 267.211126 70.202527 
L 267.211126 68.632375 
L 267.738706 68.632375 
L 267.738706 67.062222 
L 267.747108 67.062222 
L 267.747108 65.49207 
L 268.401615 65.49207 
L 268.401615 63.921917 
L 268.410017 63.921917 
L 268.410017 62.351765 
L 268.768804 62.351765 
L 268.768804 60.781612 
L 269.383712 60.781612 
L 269.383712 59.21146 
L 270.046621 59.21146 
L 270.046621 57.641307 
L 271.361783 57.641307 
L 271.361783 56.071155 
L 271.370184 56.071155 
L 271.370184 54.501002 
L 273.006789 54.501002 
L 273.006789 52.93085 
L 453.192 52.93085 
" style="fill:none;stroke:#bf00bf;stroke-linecap:square;stroke-width:3;"/>
   </g>
   <g id="line2d_54">
    <path clip-path="url(#pb360c8e637)" style="fill:none;stroke:#bf00bf;stroke-linecap:square;stroke-width:3;"/>
   </g>
   <g id="line2d_55">
    <path clip-path="url(#pb360c8e637)" d="M 34.16 154.577564 
L 169.457635 154.577564 
L 169.457635 152.924772 
L 169.506639 152.924772 
L 169.506639 151.27198 
L 176.334696 151.27198 
L 176.334696 149.619188 
L 176.3837 149.619188 
L 176.3837 147.966396 
L 182.395799 147.966396 
L 182.395799 146.313604 
L 182.444802 146.313604 
L 182.444802 144.660812 
L 184.566039 144.660812 
L 184.566039 143.00802 
L 184.615042 143.00802 
L 184.615042 141.355228 
L 185.820597 141.355228 
L 185.820597 139.702436 
L 185.863362 139.702436 
L 185.863362 138.049643 
L 185.869601 138.049643 
L 185.869601 136.396851 
L 185.912366 136.396851 
L 185.912366 134.744059 
L 194.914618 134.744059 
L 194.914618 133.091267 
L 196.140716 133.091267 
L 196.140716 131.438475 
L 201.791678 131.438475 
L 201.791678 129.785683 
L 203.017777 129.785683 
L 203.017777 128.132891 
L 207.852781 128.132891 
L 207.852781 126.480099 
L 209.07888 126.480099 
L 209.07888 124.827307 
L 210.023021 124.827307 
L 210.023021 123.174514 
L 211.24912 123.174514 
L 211.24912 121.521722 
L 211.277579 121.521722 
L 211.277579 119.86893 
L 211.320344 119.86893 
L 211.320344 118.216138 
L 212.503678 118.216138 
L 212.503678 116.563346 
L 212.546443 116.563346 
L 212.546443 114.910554 
L 225.78418 114.910554 
L 225.78418 113.257762 
L 227.053137 113.257762 
L 227.053137 111.60497 
L 232.66124 111.60497 
L 232.66124 109.952178 
L 233.930197 109.952178 
L 233.930197 108.299385 
L 238.722343 108.299385 
L 238.722343 106.646593 
L 239.9913 106.646593 
L 239.9913 104.993801 
L 240.892583 104.993801 
L 240.892583 103.341009 
L 242.147141 103.341009 
L 242.147141 101.688217 
L 242.16154 101.688217 
L 242.16154 100.035425 
L 242.189907 100.035425 
L 242.189907 98.382633 
L 243.416098 98.382633 
L 243.416098 96.729841 
L 243.458864 96.729841 
L 243.458864 95.077049 
L 249.798714 95.077049 
L 249.798714 93.424256 
L 251.329566 93.424256 
L 251.329566 91.771464 
L 251.959228 91.771464 
L 251.959228 90.118672 
L 256.675775 90.118672 
L 256.675775 88.46588 
L 258.206626 88.46588 
L 258.206626 86.813088 
L 258.836288 86.813088 
L 258.836288 85.160296 
L 262.736878 85.160296 
L 262.736878 83.507504 
L 264.267729 83.507504 
L 264.267729 81.854712 
L 264.897391 81.854712 
L 264.897391 80.20192 
L 264.907118 80.20192 
L 264.907118 78.549127 
L 266.161676 78.549127 
L 266.161676 76.896335 
L 266.204441 76.896335 
L 266.204441 75.243543 
L 266.437969 75.243543 
L 266.437969 73.590751 
L 267.067631 73.590751 
L 267.067631 71.937959 
L 267.692528 71.937959 
L 267.692528 70.285167 
L 267.735293 70.285167 
L 267.735293 68.632375 
L 268.32219 68.632375 
L 268.32219 66.979583 
L 268.364955 66.979583 
L 268.364955 65.326791 
L 453.192 65.326791 
" style="fill:none;stroke:#ff0000;stroke-linecap:square;stroke-width:3;"/>
   </g>
   <g id="line2d_56">
    <path clip-path="url(#pb360c8e637)" style="fill:none;stroke:#ff0000;stroke-linecap:square;stroke-width:3;"/>
   </g>
   <g id="line2d_57">
    <path clip-path="url(#pb360c8e637)" d="M 243.676 291.28 
L 243.676 3 
" style="fill:none;stroke:#000000;stroke-linecap:square;stroke-width:1.5;"/>
   </g>
   <g id="line2d_58">
    <path clip-path="url(#pb360c8e637)" d="M 34.16 147.14 
L 453.192 147.14 
" style="fill:none;stroke:#000000;stroke-dasharray:2,3.3;stroke-dashoffset:0;stroke-width:2;"/>
   </g>
   <g id="patch_3">
    <path d="M 34.16 291.28 
L 34.16 3 
" style="fill:none;stroke:#000000;stroke-linecap:square;stroke-linejoin:miter;stroke-width:0.8;"/>
   </g>
   <g id="patch_4">
    <path d="M 453.192 291.28 
L 453.192 3 
" style="fill:none;stroke:#000000;stroke-linecap:square;stroke-linejoin:miter;stroke-width:0.8;"/>
   </g>
   <g id="patch_5">
    <path d="M 34.16 291.28 
L 453.192 291.28 
" style="fill:none;stroke:#000000;stroke-linecap:square;stroke-linejoin:miter;stroke-width:0.8;"/>
   </g>
   <g id="patch_6">
    <path d="M 34.16 3 
L 453.192 3 
" style="fill:none;stroke:#000000;stroke-linecap:square;stroke-linejoin:miter;stroke-width:0.8;"/>
   </g>
   <g id="text_5">
    <!-- f6-f9,40-D -->
    <g transform="translate(343.64261 285.5144)scale(0.2 -0.2)">
     <defs>
      <path d="M 2113 2584 
Q 1688 2584 1439 2293 
Q 1191 2003 1191 1497 
Q 1191 994 1439 701 
Q 1688 409 2113 409 
Q 2538 409 2786 701 
Q 3034 994 3034 1497 
Q 3034 2003 2786 2293 
Q 2538 2584 2113 2584 
z
M 3366 4563 
L 3366 3988 
Q 3128 4100 2886 4159 
Q 2644 4219 2406 4219 
Q 1781 4219 1451 3797 
Q 1122 3375 1075 2522 
Q 1259 2794 1537 2939 
Q 1816 3084 2150 3084 
Q 2853 3084 3261 2657 
Q 3669 2231 3669 1497 
Q 3669 778 3244 343 
Q 2819 -91 2113 -91 
Q 1303 -91 875 529 
Q 447 1150 447 2328 
Q 447 3434 972 4092 
Q 1497 4750 2381 4750 
Q 2619 4750 2861 4703 
Q 3103 4656 3366 4563 
z
" id="DejaVuSans-36" transform="scale(0.015625)"/>
      <path d="M 703 97 
L 703 672 
Q 941 559 1184 500 
Q 1428 441 1663 441 
Q 2288 441 2617 861 
Q 2947 1281 2994 2138 
Q 2813 1869 2534 1725 
Q 2256 1581 1919 1581 
Q 1219 1581 811 2004 
Q 403 2428 403 3163 
Q 403 3881 828 4315 
Q 1253 4750 1959 4750 
Q 2769 4750 3195 4129 
Q 3622 3509 3622 2328 
Q 3622 1225 3098 567 
Q 2575 -91 1691 -91 
Q 1453 -91 1209 -44 
Q 966 3 703 97 
z
M 1959 2075 
Q 2384 2075 2632 2365 
Q 2881 2656 2881 3163 
Q 2881 3666 2632 3958 
Q 2384 4250 1959 4250 
Q 1534 4250 1286 3958 
Q 1038 3666 1038 3163 
Q 1038 2656 1286 2365 
Q 1534 2075 1959 2075 
z
" id="DejaVuSans-39" transform="scale(0.015625)"/>
      <path d="M 750 794 
L 1409 794 
L 1409 256 
L 897 -744 
L 494 -744 
L 750 256 
L 750 794 
z
" id="DejaVuSans-2c" transform="scale(0.015625)"/>
      <path d="M 2419 4116 
L 825 1625 
L 2419 1625 
L 2419 4116 
z
M 2253 4666 
L 3047 4666 
L 3047 1625 
L 3713 1625 
L 3713 1100 
L 3047 1100 
L 3047 0 
L 2419 0 
L 2419 1100 
L 313 1100 
L 313 1709 
L 2253 4666 
z
" id="DejaVuSans-34" transform="scale(0.015625)"/>
      <path d="M 1259 4147 
L 1259 519 
L 2022 519 
Q 2988 519 3436 956 
Q 3884 1394 3884 2338 
Q 3884 3275 3436 3711 
Q 2988 4147 2022 4147 
L 1259 4147 
z
M 628 4666 
L 1925 4666 
Q 3281 4666 3915 4102 
Q 4550 3538 4550 2338 
Q 4550 1131 3912 565 
Q 3275 0 1925 0 
L 628 0 
L 628 4666 
z
" id="DejaVuSans-44" transform="scale(0.015625)"/>
     </defs>
     <use xlink:href="#DejaVuSans-66"/>
     <use x="35.205078" xlink:href="#DejaVuSans-36"/>
     <use x="98.828125" xlink:href="#DejaVuSans-2d"/>
     <use x="134.912109" xlink:href="#DejaVuSans-66"/>
     <use x="170.117188" xlink:href="#DejaVuSans-39"/>
     <use x="233.740234" xlink:href="#DejaVuSans-2c"/>
     <use x="265.527344" xlink:href="#DejaVuSans-34"/>
     <use x="329.150391" xlink:href="#DejaVuSans-30"/>
     <use x="392.773438" xlink:href="#DejaVuSans-2d"/>
     <use x="428.857422" xlink:href="#DejaVuSans-44"/>
    </g>
   </g>
   <g id="text_6">
    <!-- v2.6.3 -->
    <g style="fill:#808080;" transform="translate(227.99475 286.317512)scale(0.1 -0.1)">
     <defs>
      <path d="M 1228 531 
L 3431 531 
L 3431 0 
L 469 0 
L 469 531 
Q 828 903 1448 1529 
Q 2069 2156 2228 2338 
Q 2531 2678 2651 2914 
Q 2772 3150 2772 3378 
Q 2772 3750 2511 3984 
Q 2250 4219 1831 4219 
Q 1534 4219 1204 4116 
Q 875 4013 500 3803 
L 500 4441 
Q 881 4594 1212 4672 
Q 1544 4750 1819 4750 
Q 2544 4750 2975 4387 
Q 3406 4025 3406 3419 
Q 3406 3131 3298 2873 
Q 3191 2616 2906 2266 
Q 2828 2175 2409 1742 
Q 1991 1309 1228 531 
z
" id="DejaVuSans-32" transform="scale(0.015625)"/>
      <path d="M 684 794 
L 1344 794 
L 1344 0 
L 684 0 
L 684 794 
z
" id="DejaVuSans-2e" transform="scale(0.015625)"/>
      <path d="M 2597 2516 
Q 3050 2419 3304 2112 
Q 3559 1806 3559 1356 
Q 3559 666 3084 287 
Q 2609 -91 1734 -91 
Q 1441 -91 1130 -33 
Q 819 25 488 141 
L 488 750 
Q 750 597 1062 519 
Q 1375 441 1716 441 
Q 2309 441 2620 675 
Q 2931 909 2931 1356 
Q 2931 1769 2642 2001 
Q 2353 2234 1838 2234 
L 1294 2234 
L 1294 2753 
L 1863 2753 
Q 2328 2753 2575 2939 
Q 2822 3125 2822 3475 
Q 2822 3834 2567 4026 
Q 2313 4219 1838 4219 
Q 1578 4219 1281 4162 
Q 984 4106 628 3988 
L 628 4550 
Q 988 4650 1302 4700 
Q 1616 4750 1894 4750 
Q 2613 4750 3031 4423 
Q 3450 4097 3450 3541 
Q 3450 3153 3228 2886 
Q 3006 2619 2597 2516 
z
" id="DejaVuSans-33" transform="scale(0.015625)"/>
     </defs>
     <use xlink:href="#DejaVuSans-76"/>
     <use x="59.179688" xlink:href="#DejaVuSans-32"/>
     <use x="122.802734" xlink:href="#DejaVuSans-2e"/>
     <use x="154.589844" xlink:href="#DejaVuSans-36"/>
     <use x="218.212891" xlink:href="#DejaVuSans-2e"/>
     <use x="250" xlink:href="#DejaVuSans-33"/>
    </g>
   </g>
   <g id="legend_1">
    <g id="patch_7">
     <path d="M 48.16 136.425 
L 177.381875 136.425 
Q 181.381875 136.425 181.381875 132.425 
L 181.381875 17 
Q 181.381875 13 177.381875 13 
L 48.16 13 
Q 44.16 13 44.16 17 
L 44.16 132.425 
Q 44.16 136.425 48.16 136.425 
z
" style="fill:#ffffff;opacity:0.2;stroke:#cccccc;stroke-linejoin:miter;"/>
    </g>
    <g id="line2d_59">
     <path d="M 52.16 29.196875 
L 92.16 29.196875 
" style="fill:none;stroke:#000000;stroke-linecap:square;stroke-width:3;"/>
    </g>
    <g id="line2d_60"/>
    <g id="text_7">
     <!-- 1: 4/4 -->
     <g transform="translate(108.16 36.196875)scale(0.2 -0.2)">
      <defs>
       <path d="M 750 794 
L 1409 794 
L 1409 0 
L 750 0 
L 750 794 
z
M 750 3309 
L 1409 3309 
L 1409 2516 
L 750 2516 
L 750 3309 
z
" id="DejaVuSans-3a" transform="scale(0.015625)"/>
       <path d="M 1625 4666 
L 2156 4666 
L 531 -594 
L 0 -594 
L 1625 4666 
z
" id="DejaVuSans-2f" transform="scale(0.015625)"/>
      </defs>
      <use xlink:href="#DejaVuSans-31"/>
      <use x="63.623047" xlink:href="#DejaVuSans-3a"/>
      <use x="97.314453" xlink:href="#DejaVuSans-20"/>
      <use x="129.101562" xlink:href="#DejaVuSans-34"/>
      <use x="192.724609" xlink:href="#DejaVuSans-2f"/>
      <use x="226.416016" xlink:href="#DejaVuSans-34"/>
     </g>
    </g>
    <g id="line2d_61">
     <path d="M 52.16 58.553125 
L 92.16 58.553125 
" style="fill:none;stroke:#00bfbf;stroke-linecap:square;stroke-width:3;"/>
    </g>
    <g id="line2d_62"/>
    <g id="text_8">
     <!-- -1: 1/1 -->
     <g transform="translate(108.16 65.553125)scale(0.2 -0.2)">
      <use xlink:href="#DejaVuSans-2d"/>
      <use x="36.083984" xlink:href="#DejaVuSans-31"/>
      <use x="99.707031" xlink:href="#DejaVuSans-3a"/>
      <use x="133.398438" xlink:href="#DejaVuSans-20"/>
      <use x="165.185547" xlink:href="#DejaVuSans-31"/>
      <use x="228.808594" xlink:href="#DejaVuSans-2f"/>
      <use x="262.5" xlink:href="#DejaVuSans-31"/>
     </g>
    </g>
    <g id="line2d_63">
     <path d="M 52.16 87.909375 
L 92.16 87.909375 
" style="fill:none;stroke:#bf00bf;stroke-linecap:square;stroke-width:3;"/>
    </g>
    <g id="line2d_64"/>
    <g id="text_9">
     <!-- -4: 1/1 -->
     <g transform="translate(108.16 94.909375)scale(0.2 -0.2)">
      <use xlink:href="#DejaVuSans-2d"/>
      <use x="36.083984" xlink:href="#DejaVuSans-34"/>
      <use x="99.707031" xlink:href="#DejaVuSans-3a"/>
      <use x="133.398438" xlink:href="#DejaVuSans-20"/>
      <use x="165.185547" xlink:href="#DejaVuSans-31"/>
      <use x="228.808594" xlink:href="#DejaVuSans-2f"/>
      <use x="262.5" xlink:href="#DejaVuSans-31"/>
     </g>
    </g>
    <g id="line2d_65">
     <path d="M 52.16 117.265625 
L 92.16 117.265625 
" style="fill:none;stroke:#ff0000;stroke-linecap:square;stroke-width:3;"/>
    </g>
    <g id="line2d_66"/>
    <g id="text_10">
     <!-- -8: 1/1 -->
     <g transform="translate(108.16 124.265625)scale(0.2 -0.2)">
      <defs>
       <path d="M 2034 2216 
Q 1584 2216 1326 1975 
Q 1069 1734 1069 1313 
Q 1069 891 1326 650 
Q 1584 409 2034 409 
Q 2484 409 2743 651 
Q 3003 894 3003 1313 
Q 3003 1734 2745 1975 
Q 2488 2216 2034 2216 
z
M 1403 2484 
Q 997 2584 770 2862 
Q 544 3141 544 3541 
Q 544 4100 942 4425 
Q 1341 4750 2034 4750 
Q 2731 4750 3128 4425 
Q 3525 4100 3525 3541 
Q 3525 3141 3298 2862 
Q 3072 2584 2669 2484 
Q 3125 2378 3379 2068 
Q 3634 1759 3634 1313 
Q 3634 634 3220 271 
Q 2806 -91 2034 -91 
Q 1263 -91 848 271 
Q 434 634 434 1313 
Q 434 1759 690 2068 
Q 947 2378 1403 2484 
z
M 1172 3481 
Q 1172 3119 1398 2916 
Q 1625 2713 2034 2713 
Q 2441 2713 2670 2916 
Q 2900 3119 2900 3481 
Q 2900 3844 2670 4047 
Q 2441 4250 2034 4250 
Q 1625 4250 1398 4047 
Q 1172 3844 1172 3481 
z
" id="DejaVuSans-38" transform="scale(0.015625)"/>
      </defs>
      <use xlink:href="#DejaVuSans-2d"/>
      <use x="36.083984" xlink:href="#DejaVuSans-38"/>
      <use x="99.707031" xlink:href="#DejaVuSans-3a"/>
      <use x="133.398438" xlink:href="#DejaVuSans-20"/>
      <use x="165.185547" xlink:href="#DejaVuSans-31"/>
      <use x="228.808594" xlink:href="#DejaVuSans-2f"/>
      <use x="262.5" xlink:href="#DejaVuSans-31"/>
     </g>
    </g>
   </g>
  </g>
 </g>
 <defs>
  <clipPath id="pb360c8e637">
   <rect height="288.28" width="419.032" x="34.16" y="3"/>
  </clipPath>
 </defs>
</svg>
