<?xml version="1.0" encoding="utf-8" standalone="no"?>
<!DOCTYPE svg PUBLIC "-//W3C//DTD SVG 1.1//EN"
  "http://www.w3.org/Graphics/SVG/1.1/DTD/svg11.dtd">
<svg height="345.6pt" version="1.1" viewBox="0 0 460.8 345.6" width="460.8pt" xmlns="http://www.w3.org/2000/svg" xmlns:xlink="http://www.w3.org/1999/xlink">
 <metadata>
  <rdf:RDF xmlns:cc="http://creativecommons.org/ns#" xmlns:dc="http://purl.org/dc/elements/1.1/" xmlns:rdf="http://www.w3.org/1999/02/22-rdf-syntax-ns#">
   <cc:Work>
    <dc:type rdf:resource="http://purl.org/dc/dcmitype/StillImage"/>
    <dc:date>2023-04-17T19:00:58.353337</dc:date>
    <dc:format>image/svg+xml</dc:format>
    <dc:creator>
     <cc:Agent>
      <dc:title>Matplotlib v3.4.1, https://matplotlib.org/</dc:title>
     </cc:Agent>
    </dc:creator>
   </cc:Work>
  </rdf:RDF>
 </metadata>
 <defs>
  <style type="text/css">*{stroke-linecap:butt;stroke-linejoin:round;}</style>
 </defs>
 <g id="figure_1">
  <g id="patch_1">
   <path d="M 0 345.6 
L 460.8 345.6 
L 460.8 0 
L 0 0 
z
" style="fill:#ffffff;"/>
  </g>
  <g id="axes_1">
   <g id="patch_2">
    <path d="M 34.16 291.28 
L 453.192 291.28 
L 453.192 3 
L 34.16 3 
z
" style="fill:#ffffff;"/>
   </g>
   <g id="matplotlib.axis_1">
    <g id="xtick_1">
     <g id="line2d_1">
      <path clip-path="url(#pbdc16ad2f5)" d="M 109.960947 291.28 
L 109.960947 3 
" style="fill:none;stroke:#b0b0b0;stroke-linecap:square;stroke-width:0.8;"/>
     </g>
     <g id="line2d_2">
      <defs>
       <path d="M 0 0 
L 0 3.5 
" id="mcd0488ff9e" style="stroke:#000000;stroke-width:0.8;"/>
      </defs>
      <g>
       <use style="stroke:#000000;stroke-width:0.8;" x="109.960947" xlink:href="#mcd0488ff9e" y="291.28"/>
      </g>
     </g>
     <g id="text_1">
      <!-- -2 -->
      <g transform="translate(99.990634 313.476875)scale(0.2 -0.2)">
       <defs>
        <path d="M 313 2009 
L 1997 2009 
L 1997 1497 
L 313 1497 
L 313 2009 
z
" id="DejaVuSans-2d" transform="scale(0.015625)"/>
        <path d="M 1228 531 
L 3431 531 
L 3431 0 
L 469 0 
L 469 531 
Q 828 903 1448 1529 
Q 2069 2156 2228 2338 
Q 2531 2678 2651 2914 
Q 2772 3150 2772 3378 
Q 2772 3750 2511 3984 
Q 2250 4219 1831 4219 
Q 1534 4219 1204 4116 
Q 875 4013 500 3803 
L 500 4441 
Q 881 4594 1212 4672 
Q 1544 4750 1819 4750 
Q 2544 4750 2975 4387 
Q 3406 4025 3406 3419 
Q 3406 3131 3298 2873 
Q 3191 2616 2906 2266 
Q 2828 2175 2409 1742 
Q 1991 1309 1228 531 
z
" id="DejaVuSans-32" transform="scale(0.015625)"/>
       </defs>
       <use xlink:href="#DejaVuSans-2d"/>
       <use x="36.083984" xlink:href="#DejaVuSans-32"/>
      </g>
     </g>
    </g>
    <g id="xtick_2">
     <g id="line2d_3">
      <path clip-path="url(#pbdc16ad2f5)" d="M 243.676 291.28 
L 243.676 3 
" style="fill:none;stroke:#b0b0b0;stroke-linecap:square;stroke-width:0.8;"/>
     </g>
     <g id="line2d_4">
      <g>
       <use style="stroke:#000000;stroke-width:0.8;" x="243.676" xlink:href="#mcd0488ff9e" y="291.28"/>
      </g>
     </g>
     <g id="text_2">
      <!-- 0 -->
      <g transform="translate(237.3135 313.476875)scale(0.2 -0.2)">
       <defs>
        <path d="M 2034 4250 
Q 1547 4250 1301 3770 
Q 1056 3291 1056 2328 
Q 1056 1369 1301 889 
Q 1547 409 2034 409 
Q 2525 409 2770 889 
Q 3016 1369 3016 2328 
Q 3016 3291 2770 3770 
Q 2525 4250 2034 4250 
z
M 2034 4750 
Q 2819 4750 3233 4129 
Q 3647 3509 3647 2328 
Q 3647 1150 3233 529 
Q 2819 -91 2034 -91 
Q 1250 -91 836 529 
Q 422 1150 422 2328 
Q 422 3509 836 4129 
Q 1250 4750 2034 4750 
z
" id="DejaVuSans-30" transform="scale(0.015625)"/>
       </defs>
       <use xlink:href="#DejaVuSans-30"/>
      </g>
     </g>
    </g>
    <g id="xtick_3">
     <g id="line2d_5">
      <path clip-path="url(#pbdc16ad2f5)" d="M 377.391053 291.28 
L 377.391053 3 
" style="fill:none;stroke:#b0b0b0;stroke-linecap:square;stroke-width:0.8;"/>
     </g>
     <g id="line2d_6">
      <g>
       <use style="stroke:#000000;stroke-width:0.8;" x="377.391053" xlink:href="#mcd0488ff9e" y="291.28"/>
      </g>
     </g>
     <g id="text_3">
      <!-- 2 -->
      <g transform="translate(371.028553 313.476875)scale(0.2 -0.2)">
       <use xlink:href="#DejaVuSans-32"/>
      </g>
     </g>
    </g>
    <g id="text_4">
     <!-- log10 of FEvals ratio -->
     <g transform="translate(141.371312 336.833125)scale(0.2 -0.2)">
      <defs>
       <path d="M 603 4863 
L 1178 4863 
L 1178 0 
L 603 0 
L 603 4863 
z
" id="DejaVuSans-6c" transform="scale(0.015625)"/>
       <path d="M 1959 3097 
Q 1497 3097 1228 2736 
Q 959 2375 959 1747 
Q 959 1119 1226 758 
Q 1494 397 1959 397 
Q 2419 397 2687 759 
Q 2956 1122 2956 1747 
Q 2956 2369 2687 2733 
Q 2419 3097 1959 3097 
z
M 1959 3584 
Q 2709 3584 3137 3096 
Q 3566 2609 3566 1747 
Q 3566 888 3137 398 
Q 2709 -91 1959 -91 
Q 1206 -91 779 398 
Q 353 888 353 1747 
Q 353 2609 779 3096 
Q 1206 3584 1959 3584 
z
" id="DejaVuSans-6f" transform="scale(0.015625)"/>
       <path d="M 2906 1791 
Q 2906 2416 2648 2759 
Q 2391 3103 1925 3103 
Q 1463 3103 1205 2759 
Q 947 2416 947 1791 
Q 947 1169 1205 825 
Q 1463 481 1925 481 
Q 2391 481 2648 825 
Q 2906 1169 2906 1791 
z
M 3481 434 
Q 3481 -459 3084 -895 
Q 2688 -1331 1869 -1331 
Q 1566 -1331 1297 -1286 
Q 1028 -1241 775 -1147 
L 775 -588 
Q 1028 -725 1275 -790 
Q 1522 -856 1778 -856 
Q 2344 -856 2625 -561 
Q 2906 -266 2906 331 
L 2906 616 
Q 2728 306 2450 153 
Q 2172 0 1784 0 
Q 1141 0 747 490 
Q 353 981 353 1791 
Q 353 2603 747 3093 
Q 1141 3584 1784 3584 
Q 2172 3584 2450 3431 
Q 2728 3278 2906 2969 
L 2906 3500 
L 3481 3500 
L 3481 434 
z
" id="DejaVuSans-67" transform="scale(0.015625)"/>
       <path d="M 794 531 
L 1825 531 
L 1825 4091 
L 703 3866 
L 703 4441 
L 1819 4666 
L 2450 4666 
L 2450 531 
L 3481 531 
L 3481 0 
L 794 0 
L 794 531 
z
" id="DejaVuSans-31" transform="scale(0.015625)"/>
       <path id="DejaVuSans-20" transform="scale(0.015625)"/>
       <path d="M 2375 4863 
L 2375 4384 
L 1825 4384 
Q 1516 4384 1395 4259 
Q 1275 4134 1275 3809 
L 1275 3500 
L 2222 3500 
L 2222 3053 
L 1275 3053 
L 1275 0 
L 697 0 
L 697 3053 
L 147 3053 
L 147 3500 
L 697 3500 
L 697 3744 
Q 697 4328 969 4595 
Q 1241 4863 1831 4863 
L 2375 4863 
z
" id="DejaVuSans-66" transform="scale(0.015625)"/>
       <path d="M 628 4666 
L 3309 4666 
L 3309 4134 
L 1259 4134 
L 1259 2759 
L 3109 2759 
L 3109 2228 
L 1259 2228 
L 1259 0 
L 628 0 
L 628 4666 
z
" id="DejaVuSans-46" transform="scale(0.015625)"/>
       <path d="M 628 4666 
L 3578 4666 
L 3578 4134 
L 1259 4134 
L 1259 2753 
L 3481 2753 
L 3481 2222 
L 1259 2222 
L 1259 531 
L 3634 531 
L 3634 0 
L 628 0 
L 628 4666 
z
" id="DejaVuSans-45" transform="scale(0.015625)"/>
       <path d="M 191 3500 
L 800 3500 
L 1894 563 
L 2988 3500 
L 3597 3500 
L 2284 0 
L 1503 0 
L 191 3500 
z
" id="DejaVuSans-76" transform="scale(0.015625)"/>
       <path d="M 2194 1759 
Q 1497 1759 1228 1600 
Q 959 1441 959 1056 
Q 959 750 1161 570 
Q 1363 391 1709 391 
Q 2188 391 2477 730 
Q 2766 1069 2766 1631 
L 2766 1759 
L 2194 1759 
z
M 3341 1997 
L 3341 0 
L 2766 0 
L 2766 531 
Q 2569 213 2275 61 
Q 1981 -91 1556 -91 
Q 1019 -91 701 211 
Q 384 513 384 1019 
Q 384 1609 779 1909 
Q 1175 2209 1959 2209 
L 2766 2209 
L 2766 2266 
Q 2766 2663 2505 2880 
Q 2244 3097 1772 3097 
Q 1472 3097 1187 3025 
Q 903 2953 641 2809 
L 641 3341 
Q 956 3463 1253 3523 
Q 1550 3584 1831 3584 
Q 2591 3584 2966 3190 
Q 3341 2797 3341 1997 
z
" id="DejaVuSans-61" transform="scale(0.015625)"/>
       <path d="M 2834 3397 
L 2834 2853 
Q 2591 2978 2328 3040 
Q 2066 3103 1784 3103 
Q 1356 3103 1142 2972 
Q 928 2841 928 2578 
Q 928 2378 1081 2264 
Q 1234 2150 1697 2047 
L 1894 2003 
Q 2506 1872 2764 1633 
Q 3022 1394 3022 966 
Q 3022 478 2636 193 
Q 2250 -91 1575 -91 
Q 1294 -91 989 -36 
Q 684 19 347 128 
L 347 722 
Q 666 556 975 473 
Q 1284 391 1588 391 
Q 1994 391 2212 530 
Q 2431 669 2431 922 
Q 2431 1156 2273 1281 
Q 2116 1406 1581 1522 
L 1381 1569 
Q 847 1681 609 1914 
Q 372 2147 372 2553 
Q 372 3047 722 3315 
Q 1072 3584 1716 3584 
Q 2034 3584 2315 3537 
Q 2597 3491 2834 3397 
z
" id="DejaVuSans-73" transform="scale(0.015625)"/>
       <path d="M 2631 2963 
Q 2534 3019 2420 3045 
Q 2306 3072 2169 3072 
Q 1681 3072 1420 2755 
Q 1159 2438 1159 1844 
L 1159 0 
L 581 0 
L 581 3500 
L 1159 3500 
L 1159 2956 
Q 1341 3275 1631 3429 
Q 1922 3584 2338 3584 
Q 2397 3584 2469 3576 
Q 2541 3569 2628 3553 
L 2631 2963 
z
" id="DejaVuSans-72" transform="scale(0.015625)"/>
       <path d="M 1172 4494 
L 1172 3500 
L 2356 3500 
L 2356 3053 
L 1172 3053 
L 1172 1153 
Q 1172 725 1289 603 
Q 1406 481 1766 481 
L 2356 481 
L 2356 0 
L 1766 0 
Q 1100 0 847 248 
Q 594 497 594 1153 
L 594 3053 
L 172 3053 
L 172 3500 
L 594 3500 
L 594 4494 
L 1172 4494 
z
" id="DejaVuSans-74" transform="scale(0.015625)"/>
       <path d="M 603 3500 
L 1178 3500 
L 1178 0 
L 603 0 
L 603 3500 
z
M 603 4863 
L 1178 4863 
L 1178 4134 
L 603 4134 
L 603 4863 
z
" id="DejaVuSans-69" transform="scale(0.015625)"/>
      </defs>
      <use xlink:href="#DejaVuSans-6c"/>
      <use x="27.783203" xlink:href="#DejaVuSans-6f"/>
      <use x="88.964844" xlink:href="#DejaVuSans-67"/>
      <use x="152.441406" xlink:href="#DejaVuSans-31"/>
      <use x="216.064453" xlink:href="#DejaVuSans-30"/>
      <use x="279.6875" xlink:href="#DejaVuSans-20"/>
      <use x="311.474609" xlink:href="#DejaVuSans-6f"/>
      <use x="372.65625" xlink:href="#DejaVuSans-66"/>
      <use x="407.861328" xlink:href="#DejaVuSans-20"/>
      <use x="439.648438" xlink:href="#DejaVuSans-46"/>
      <use x="497.167969" xlink:href="#DejaVuSans-45"/>
      <use x="560.351562" xlink:href="#DejaVuSans-76"/>
      <use x="619.53125" xlink:href="#DejaVuSans-61"/>
      <use x="680.810547" xlink:href="#DejaVuSans-6c"/>
      <use x="708.59375" xlink:href="#DejaVuSans-73"/>
      <use x="760.693359" xlink:href="#DejaVuSans-20"/>
      <use x="792.480469" xlink:href="#DejaVuSans-72"/>
      <use x="833.59375" xlink:href="#DejaVuSans-61"/>
      <use x="894.873047" xlink:href="#DejaVuSans-74"/>
      <use x="934.082031" xlink:href="#DejaVuSans-69"/>
      <use x="961.865234" xlink:href="#DejaVuSans-6f"/>
     </g>
    </g>
   </g>
   <g id="matplotlib.axis_2">
    <g id="ytick_1">
     <g id="line2d_7">
      <path clip-path="url(#pbdc16ad2f5)" d="M 34.16 288.453725 
L 453.192 288.453725 
" style="fill:none;stroke:#b0b0b0;stroke-linecap:square;stroke-width:0.8;"/>
     </g>
     <g id="line2d_8">
      <defs>
       <path d="M 0 0 
L -3.5 0 
" id="m9abbdbce71" style="stroke:#000000;stroke-width:0.8;"/>
      </defs>
      <g>
       <use style="stroke:#000000;stroke-width:0.8;" x="34.16" xlink:href="#m9abbdbce71" y="288.453725"/>
      </g>
     </g>
    </g>
    <g id="ytick_2">
     <g id="line2d_9">
      <path clip-path="url(#pbdc16ad2f5)" d="M 34.16 217.796863 
L 453.192 217.796863 
" style="fill:none;stroke:#b0b0b0;stroke-linecap:square;stroke-width:0.8;"/>
     </g>
     <g id="line2d_10">
      <g>
       <use style="stroke:#000000;stroke-width:0.8;" x="34.16" xlink:href="#m9abbdbce71" y="217.796863"/>
      </g>
     </g>
    </g>
    <g id="ytick_3">
     <g id="line2d_11">
      <path clip-path="url(#pbdc16ad2f5)" d="M 34.16 147.14 
L 453.192 147.14 
" style="fill:none;stroke:#b0b0b0;stroke-linecap:square;stroke-width:0.8;"/>
     </g>
     <g id="line2d_12">
      <g>
       <use style="stroke:#000000;stroke-width:0.8;" x="34.16" xlink:href="#m9abbdbce71" y="147.14"/>
      </g>
     </g>
    </g>
    <g id="ytick_4">
     <g id="line2d_13">
      <path clip-path="url(#pbdc16ad2f5)" d="M 34.16 76.483137 
L 453.192 76.483137 
" style="fill:none;stroke:#b0b0b0;stroke-linecap:square;stroke-width:0.8;"/>
     </g>
     <g id="line2d_14">
      <g>
       <use style="stroke:#000000;stroke-width:0.8;" x="34.16" xlink:href="#m9abbdbce71" y="76.483137"/>
      </g>
     </g>
    </g>
    <g id="ytick_5">
     <g id="line2d_15">
      <path clip-path="url(#pbdc16ad2f5)" d="M 34.16 5.826275 
L 453.192 5.826275 
" style="fill:none;stroke:#b0b0b0;stroke-linecap:square;stroke-width:0.8;"/>
     </g>
     <g id="line2d_16">
      <g>
       <use style="stroke:#000000;stroke-width:0.8;" x="34.16" xlink:href="#m9abbdbce71" y="5.826275"/>
      </g>
     </g>
    </g>
    <g id="text_5">
     <!-- proportion of trials -->
     <g transform="translate(19.000625 240.14625)rotate(-90)scale(0.2 -0.2)">
      <defs>
       <path d="M 1159 525 
L 1159 -1331 
L 581 -1331 
L 581 3500 
L 1159 3500 
L 1159 2969 
Q 1341 3281 1617 3432 
Q 1894 3584 2278 3584 
Q 2916 3584 3314 3078 
Q 3713 2572 3713 1747 
Q 3713 922 3314 415 
Q 2916 -91 2278 -91 
Q 1894 -91 1617 61 
Q 1341 213 1159 525 
z
M 3116 1747 
Q 3116 2381 2855 2742 
Q 2594 3103 2138 3103 
Q 1681 3103 1420 2742 
Q 1159 2381 1159 1747 
Q 1159 1113 1420 752 
Q 1681 391 2138 391 
Q 2594 391 2855 752 
Q 3116 1113 3116 1747 
z
" id="DejaVuSans-70" transform="scale(0.015625)"/>
       <path d="M 3513 2113 
L 3513 0 
L 2938 0 
L 2938 2094 
Q 2938 2591 2744 2837 
Q 2550 3084 2163 3084 
Q 1697 3084 1428 2787 
Q 1159 2491 1159 1978 
L 1159 0 
L 581 0 
L 581 3500 
L 1159 3500 
L 1159 2956 
Q 1366 3272 1645 3428 
Q 1925 3584 2291 3584 
Q 2894 3584 3203 3211 
Q 3513 2838 3513 2113 
z
" id="DejaVuSans-6e" transform="scale(0.015625)"/>
      </defs>
      <use xlink:href="#DejaVuSans-70"/>
      <use x="63.476562" xlink:href="#DejaVuSans-72"/>
      <use x="102.339844" xlink:href="#DejaVuSans-6f"/>
      <use x="163.521484" xlink:href="#DejaVuSans-70"/>
      <use x="226.998047" xlink:href="#DejaVuSans-6f"/>
      <use x="288.179688" xlink:href="#DejaVuSans-72"/>
      <use x="329.292969" xlink:href="#DejaVuSans-74"/>
      <use x="368.501953" xlink:href="#DejaVuSans-69"/>
      <use x="396.285156" xlink:href="#DejaVuSans-6f"/>
      <use x="457.466797" xlink:href="#DejaVuSans-6e"/>
      <use x="520.845703" xlink:href="#DejaVuSans-20"/>
      <use x="552.632812" xlink:href="#DejaVuSans-6f"/>
      <use x="613.814453" xlink:href="#DejaVuSans-66"/>
      <use x="649.019531" xlink:href="#DejaVuSans-20"/>
      <use x="680.806641" xlink:href="#DejaVuSans-74"/>
      <use x="720.015625" xlink:href="#DejaVuSans-72"/>
      <use x="761.128906" xlink:href="#DejaVuSans-69"/>
      <use x="788.912109" xlink:href="#DejaVuSans-61"/>
      <use x="850.191406" xlink:href="#DejaVuSans-6c"/>
      <use x="877.974609" xlink:href="#DejaVuSans-73"/>
     </g>
    </g>
   </g>
   <g id="line2d_17">
    <path clip-path="url(#pbdc16ad2f5)" d="M 34.16 263.877425 
L 65.484705 263.877425 
L 65.484705 263.604355 
L 67.849021 263.604355 
L 67.849021 263.331285 
L 74.173479 263.331285 
L 74.173479 263.058215 
L 76.537794 263.058215 
L 76.537794 262.785145 
L 78.505988 262.785145 
L 78.505988 262.512075 
L 79.629437 262.512075 
L 79.629437 262.239005 
L 80.31291 262.239005 
L 80.31291 261.965935 
L 80.870303 261.965935 
L 80.870303 261.692865 
L 88.31821 261.692865 
L 88.31821 261.419795 
L 89.001683 261.419795 
L 89.001683 261.146725 
L 92.65072 261.146725 
L 92.65072 260.873655 
L 92.892808 260.873655 
L 92.892808 260.600585 
L 93.334193 260.600585 
L 93.334193 260.327515 
L 93.985985 260.327515 
L 93.985985 260.054445 
L 101.581581 260.054445 
L 101.581581 259.781375 
L 102.674759 259.781375 
L 102.674759 259.508305 
L 104.31287 259.508305 
L 104.31287 259.235235 
L 105.914091 259.235235 
L 105.914091 258.962165 
L 107.007268 258.962165 
L 107.007268 258.689095 
L 109.201186 258.689095 
L 109.201186 258.416025 
L 112.266766 258.416025 
L 112.266766 258.142955 
L 113.001644 258.142955 
L 113.001644 257.869885 
L 113.704906 257.869885 
L 113.704906 257.596815 
L 114.241568 257.596815 
L 114.241568 257.323745 
L 117.334153 257.323745 
L 117.334153 257.050675 
L 117.889959 257.050675 
L 117.889959 256.777605 
L 122.222469 256.777605 
L 122.222469 256.504535 
L 124.739485 256.504535 
L 124.739485 256.231465 
L 124.969019 256.231465 
L 124.969019 255.958395 
L 126.177625 255.958395 
L 126.177625 255.685325 
L 126.407159 255.685325 
L 126.407159 255.412255 
L 126.714288 255.412255 
L 126.714288 255.139185 
L 126.943821 255.139185 
L 126.943821 254.866115 
L 131.264993 254.866115 
L 131.264993 254.593045 
L 133.2649 254.593045 
L 133.2649 254.319975 
L 133.775808 254.319975 
L 133.775808 254.046905 
L 134.073736 254.046905 
L 134.073736 253.773835 
L 134.443328 253.773835 
L 134.443328 253.500765 
L 134.70304 253.500765 
L 134.70304 253.227695 
L 135.213948 253.227695 
L 135.256711 252.408485 
L 135.750611 252.408485 
L 135.750611 252.135415 
L 135.881469 252.135415 
L 135.881469 251.862345 
L 136.398521 251.862345 
L 136.418131 251.316205 
L 136.694851 251.316205 
L 136.694851 251.043135 
L 137.231513 251.043135 
L 137.231513 250.770065 
L 139.931992 250.770065 
L 139.931992 250.496995 
L 140.201631 250.496995 
L 140.201631 250.223925 
L 140.609825 250.223925 
L 140.609825 249.950855 
L 141.185262 249.950855 
L 141.185262 249.677785 
L 142.623402 249.677785 
L 142.623402 249.404715 
L 143.160064 249.404715 
L 143.160064 249.131645 
L 143.737712 249.131645 
L 143.737712 248.858575 
L 143.967246 248.858575 
L 143.967246 248.585505 
L 146.546455 248.585505 
L 146.546455 248.312435 
L 146.775988 248.312435 
L 146.775988 248.039365 
L 148.87124 248.039365 
L 148.87124 247.766295 
L 149.100774 247.766295 
L 149.100774 247.493225 
L 149.633789 247.493225 
L 149.633789 247.220155 
L 149.80196 247.220155 
L 149.80196 246.947085 
L 152.263127 246.947085 
L 152.263127 246.674015 
L 152.404711 246.674015 
L 152.404711 246.400945 
L 152.634245 246.400945 
L 152.67435 245.854805 
L 152.774035 245.854805 
L 152.870962 245.308665 
L 152.903883 245.308665 
L 152.903883 245.035595 
L 153.441555 245.035595 
L 153.441555 244.762525 
L 154.254938 244.762525 
L 154.309102 244.216385 
L 154.845764 244.216385 
L 154.845764 243.943315 
L 155.07187 243.943315 
L 155.07187 243.670245 
L 155.582778 243.670245 
L 155.582778 243.397175 
L 156.250298 243.397175 
L 156.250298 243.124105 
L 156.692352 243.124105 
L 156.692352 242.851035 
L 157.06368 242.851035 
L 157.06368 242.577965 
L 157.396655 242.577965 
L 157.396655 242.304895 
L 157.799705 242.304895 
L 157.907563 241.758755 
L 158.322563 241.758755 
L 158.322563 241.485685 
L 158.490733 241.485685 
L 158.575084 240.939545 
L 159.388466 240.939545 
L 159.388466 240.666475 
L 159.930077 240.666475 
L 159.930077 240.393405 
L 160.076011 240.393405 
L 160.183489 239.574195 
L 160.404104 239.574195 
L 160.404104 239.301125 
L 160.930126 239.301125 
L 160.930126 239.028055 
L 161.199765 239.028055 
L 161.199765 238.754985 
L 161.441034 238.754985 
L 161.441034 238.481915 
L 161.710673 238.481915 
L 161.710673 238.208845 
L 162.108555 238.208845 
L 162.108555 237.935775 
L 162.294392 237.935775 
L 162.378193 237.389635 
L 162.655072 237.389635 
L 162.655072 237.116565 
L 162.810818 237.116565 
L 162.823242 236.570425 
L 162.921937 236.570425 
L 162.992232 236.024285 
L 163.191575 236.024285 
L 163.191575 235.751215 
L 164.281302 235.751215 
L 164.281302 235.478145 
L 165.317017 235.478145 
L 165.317017 235.205075 
L 168.757198 235.205075 
L 168.850488 234.658935 
L 169.120126 234.658935 
L 169.120126 234.385865 
L 170.57253 234.385865 
L 170.57253 234.112795 
L 171.869189 234.112795 
L 171.944437 233.566655 
L 172.62791 233.566655 
L 172.62791 233.293585 
L 174.074808 233.293585 
L 174.074808 233.020515 
L 174.677932 233.020515 
L 174.758281 232.474375 
L 177.002717 232.474375 
L 177.002717 232.201305 
L 178.494785 232.201305 
L 178.494785 231.928235 
L 180.530225 231.928235 
L 180.536188 231.382095 
L 180.805827 231.382095 
L 180.862066 230.562885 
L 181.197745 230.562885 
L 181.197745 230.289815 
L 182.190884 230.289815 
L 182.190884 230.016745 
L 183.297637 230.016745 
L 183.297637 229.743675 
L 184.032761 229.743675 
L 184.032761 229.470605 
L 184.555199 229.470605 
L 184.555199 229.197535 
L 185.207808 229.197535 
L 185.207808 228.924465 
L 185.962255 228.924465 
L 185.962255 228.651395 
L 186.300985 228.651395 
L 186.300985 228.378325 
L 186.608264 228.378325 
L 186.608264 228.105255 
L 187.174835 228.105255 
L 187.174835 227.832185 
L 187.338179 227.832185 
L 187.338179 227.559115 
L 187.652066 227.559115 
L 187.652066 227.286045 
L 188.32657 227.286045 
L 188.431357 226.466835 
L 190.016381 226.466835 
L 190.016381 226.193765 
L 190.967504 226.193765 
L 190.967504 225.920695 
L 191.197038 225.920695 
L 191.197038 225.647625 
L 192.953186 225.647625 
L 192.953186 225.374555 
L 193.587173 225.374555 
L 193.587173 225.101485 
L 195.317501 225.101485 
L 195.317501 224.828415 
L 195.632725 224.828415 
L 195.632725 224.555345 
L 196.038983 224.555345 
L 196.038983 224.282275 
L 196.269311 224.282275 
L 196.335616 223.736135 
L 196.62787 223.736135 
L 196.62787 223.463065 
L 196.944594 223.463065 
L 197.019089 222.643855 
L 197.928955 222.643855 
L 197.928955 222.370785 
L 198.592461 222.370785 
L 198.592461 222.097715 
L 198.758242 222.097715 
L 198.758242 221.824645 
L 199.16823 221.824645 
L 199.16823 221.551575 
L 199.452845 221.551575 
L 199.492919 221.005435 
L 199.671985 221.005435 
L 199.671985 220.732365 
L 200.003827 220.732365 
L 200.106987 219.913155 
L 200.115289 219.913155 
L 200.115289 219.640085 
L 200.253063 219.640085 
L 200.328253 218.820875 
L 200.472458 218.820875 
L 200.472458 218.547805 
L 200.656345 218.547805 
L 200.671347 217.728595 
L 200.79046 217.728595 
L 200.79046 217.455525 
L 201.48473 217.455525 
L 201.532545 216.363245 
L 201.722426 216.363245 
L 201.796797 215.817105 
L 201.874945 215.817105 
L 201.874945 215.544035 
L 202.48027 215.544035 
L 202.48027 215.270965 
L 202.999869 215.270965 
L 203.06306 214.451755 
L 203.423758 214.451755 
L 203.423758 213.905615 
L 203.646557 213.905615 
L 203.7556 213.359475 
L 204.23926 213.359475 
L 204.23926 213.086405 
L 204.408119 213.086405 
L 204.408119 212.813335 
L 204.533544 212.813335 
L 204.533544 212.267195 
L 204.733868 212.267195 
L 204.733868 211.994125 
L 205.463222 211.994125 
L 205.463222 211.721055 
L 207.097917 211.721055 
L 207.097917 211.447985 
L 207.413281 211.447985 
L 207.413281 211.174915 
L 207.78139 211.174915 
L 207.78139 210.901845 
L 209.00944 210.901845 
L 209.00944 210.355705 
L 209.598987 210.355705 
L 209.669701 209.809565 
L 210.692164 209.809565 
L 210.792492 209.263425 
L 210.824772 209.263425 
L 210.824772 208.717285 
L 211.776853 208.717285 
L 211.776853 208.444215 
L 212.194642 208.444215 
L 212.194642 208.171145 
L 212.351839 208.171145 
L 212.351839 207.898075 
L 213.012608 207.898075 
L 213.05336 207.078865 
L 213.312961 207.078865 
L 213.381452 205.986585 
L 213.495452 205.986585 
L 213.510852 205.167375 
L 213.851725 205.167375 
L 213.928641 204.621235 
L 213.996435 204.621235 
L 214.011483 204.075095 
L 214.151995 204.075095 
L 214.151995 203.802025 
L 214.463535 203.802025 
L 214.463535 203.528955 
L 214.746607 203.528955 
L 214.807471 202.709745 
L 214.984066 202.709745 
L 215.060168 202.163605 
L 215.344133 202.163605 
L 215.344133 201.890535 
L 215.735498 201.890535 
L 215.844451 201.071325 
L 215.858326 201.071325 
L 215.965264 200.525185 
L 216.019677 200.525185 
L 216.06359 199.705975 
L 216.153346 199.705975 
L 216.153346 199.432905 
L 216.264583 199.432905 
L 216.335591 198.886765 
L 216.506895 198.886765 
L 216.506895 198.613695 
L 216.620628 198.613695 
L 216.725549 197.794485 
L 216.819321 197.794485 
L 216.819321 197.521415 
L 217.2127 197.521415 
L 217.25865 196.975275 
L 217.395142 196.975275 
L 217.488505 196.429135 
L 217.723234 196.429135 
L 217.723234 196.156065 
L 217.878922 196.156065 
L 217.878922 195.882995 
L 218.058768 195.882995 
L 218.165402 195.063785 
L 218.470304 195.063785 
L 218.484505 194.517645 
L 218.59543 194.517645 
L 218.59543 194.244575 
L 219.098981 194.244575 
L 219.098981 193.971505 
L 219.222504 193.971505 
L 219.240377 193.425365 
L 219.603542 193.425365 
L 219.603542 193.152295 
L 219.71925 193.152295 
L 219.71925 192.879225 
L 219.838128 192.879225 
L 219.940789 192.333085 
L 220.047342 192.333085 
L 220.140205 191.513875 
L 220.361288 191.513875 
L 220.361288 191.240805 
L 220.490646 191.240805 
L 220.490646 190.967735 
L 220.782466 190.967735 
L 220.782466 190.421595 
L 220.956775 190.421595 
L 221.019049 189.875455 
L 221.159024 189.875455 
L 221.159024 189.602385 
L 221.363033 189.602385 
L 221.454466 188.510105 
L 221.600432 188.510105 
L 221.600432 188.237035 
L 221.734547 188.237035 
L 221.83128 187.690895 
L 222.272424 187.690895 
L 222.272424 187.417825 
L 222.454056 187.417825 
L 222.454056 187.144755 
L 223.221787 187.144755 
L 223.221787 186.871685 
L 223.409269 186.871685 
L 223.409269 186.598615 
L 223.549879 186.598615 
L 223.549879 185.506335 
L 223.710565 185.506335 
L 223.76105 184.960195 
L 223.874305 184.960195 
L 223.92454 184.414055 
L 224.178839 184.414055 
L 224.285003 183.048705 
L 224.416685 183.048705 
L 224.416685 182.775635 
L 224.621434 182.775635 
L 224.621434 182.502565 
L 224.79042 182.502565 
L 224.855081 181.683355 
L 224.996805 181.683355 
L 225.039224 180.591075 
L 225.143268 180.591075 
L 225.172416 180.044935 
L 225.258363 180.044935 
L 225.283878 179.498795 
L 225.701667 179.498795 
L 225.701667 179.225725 
L 225.857189 179.225725 
L 225.956593 178.133445 
L 226.076329 178.133445 
L 226.076329 177.314235 
L 226.232017 177.314235 
L 226.232017 177.041165 
L 226.480231 177.041165 
L 226.576332 175.948885 
L 226.609112 175.948885 
L 226.655906 175.402745 
L 226.891015 175.402745 
L 226.891015 175.129675 
L 227.073695 175.129675 
L 227.184098 174.583535 
L 227.308805 174.583535 
L 227.308805 174.310465 
L 227.427077 174.310465 
L 227.427077 173.491255 
L 227.66951 173.491255 
L 227.66951 173.218185 
L 227.891661 173.218185 
L 227.891661 172.398975 
L 228.079596 172.398975 
L 228.12677 171.579765 
L 228.400437 171.579765 
L 228.400437 171.306695 
L 228.985726 171.306695 
L 228.985726 171.033625 
L 229.283048 171.033625 
L 229.283048 170.760555 
L 229.472701 170.760555 
L 229.472701 170.487485 
L 229.678736 170.487485 
L 229.685419 169.941345 
L 229.887058 169.941345 
L 229.914953 169.122135 
L 230.215769 169.122135 
L 230.243331 168.575995 
L 230.333086 168.575995 
L 230.376225 168.029855 
L 230.552226 168.029855 
L 230.552226 167.756785 
L 230.99553 167.756785 
L 230.99553 167.483715 
L 231.368546 167.483715 
L 231.368546 167.210645 
L 231.781351 167.210645 
L 231.781351 166.937575 
L 231.902974 166.937575 
L 231.902974 166.664505 
L 232.047791 166.664505 
L 232.11262 165.845295 
L 232.367558 165.845295 
L 232.367558 165.299155 
L 232.527425 165.299155 
L 232.602667 164.479945 
L 232.901849 164.479945 
L 232.936387 163.933805 
L 233.507573 163.933805 
L 233.507573 163.660735 
L 233.718306 163.660735 
L 233.718306 163.387665 
L 233.846619 163.387665 
L 233.846619 162.841525 
L 234.175093 162.841525 
L 234.261424 162.295385 
L 234.370825 162.295385 
L 234.370825 162.022315 
L 234.670386 162.022315 
L 234.670386 161.749245 
L 235.1763 161.749245 
L 235.1763 161.476175 
L 235.322905 161.476175 
L 235.43145 160.383895 
L 235.618855 160.383895 
L 235.618855 160.110825 
L 235.759543 160.110825 
L 235.759543 159.837755 
L 235.961081 159.837755 
L 235.961081 159.564685 
L 236.189711 159.564685 
L 236.285508 158.472405 
L 236.378871 158.472405 
L 236.47299 157.926265 
L 236.534792 157.926265 
L 236.6136 157.380125 
L 236.669666 157.380125 
L 236.669666 157.107055 
L 236.857232 157.107055 
L 236.95115 156.287845 
L 237.01011 156.287845 
L 237.01011 156.014775 
L 237.163629 156.014775 
L 237.196836 155.195565 
L 237.474693 155.195565 
L 237.501086 154.649425 
L 237.704227 154.649425 
L 237.704227 154.376355 
L 237.849355 154.376355 
L 237.913807 153.830215 
L 237.996395 153.830215 
L 237.996395 153.557145 
L 238.166257 153.557145 
L 238.210834 153.011005 
L 238.288322 153.011005 
L 238.288322 152.737935 
L 238.427598 152.737935 
L 238.523432 151.918725 
L 238.664041 151.918725 
L 238.721742 150.826445 
L 238.957124 150.826445 
L 239.034656 149.734165 
L 239.081831 149.734165 
L 239.081831 149.188025 
L 239.389263 149.188025 
L 239.456132 148.368815 
L 239.636741 148.368815 
L 239.692248 147.549605 
L 239.899796 147.549605 
L 239.972372 146.184255 
L 240.152184 146.184255 
L 240.256069 144.818905 
L 240.490798 144.818905 
L 240.490798 144.545835 
L 240.616767 144.545835 
L 240.70311 143.999695 
L 240.752383 143.999695 
L 240.840984 143.453555 
L 240.937609 143.453555 
L 241.034557 142.634345 
L 241.190131 142.634345 
L 241.297466 141.542065 
L 241.304195 141.542065 
L 241.351892 140.995925 
L 241.44137 140.995925 
L 241.458445 140.449785 
L 241.625559 140.449785 
L 241.687979 139.630575 
L 241.948789 139.630575 
L 242.049599 138.811365 
L 242.116959 138.811365 
L 242.141673 138.265225 
L 242.297157 138.265225 
L 242.297157 137.992155 
L 242.632683 137.992155 
L 242.632683 137.719085 
L 242.834322 137.719085 
L 242.940876 136.626805 
L 243.394096 136.626805 
L 243.394096 136.353735 
L 243.676 136.353735 
L 243.676 134.715315 
L 244.032273 134.715315 
L 244.112638 133.076895 
L 244.247331 133.076895 
L 244.34352 131.711545 
L 244.375693 131.711545 
L 244.375693 131.165405 
L 244.493965 131.165405 
L 244.555492 130.346195 
L 244.638603 130.346195 
L 244.731966 129.526985 
L 244.920584 129.526985 
L 244.996039 127.888565 
L 245.128095 127.888565 
L 245.176341 127.069355 
L 245.372006 127.069355 
L 245.372006 126.796285 
L 245.502757 126.796285 
L 245.591426 125.977075 
L 245.619645 125.977075 
L 245.619645 125.430935 
L 245.750872 125.430935 
L 245.830628 124.611725 
L 245.92797 124.611725 
L 246.03445 123.519445 
L 246.100267 123.519445 
L 246.142452 122.700235 
L 246.40418 122.700235 
L 246.511016 121.334885 
L 246.54871 121.334885 
L 246.54871 121.061815 
L 246.782027 121.061815 
L 246.818074 120.515675 
L 246.991673 120.515675 
L 247.095931 119.423395 
L 247.178537 119.423395 
L 247.226782 118.331115 
L 247.373409 118.331115 
L 247.406478 117.511905 
L 247.593498 117.511905 
L 247.641587 116.965765 
L 247.81544 116.965765 
L 247.884283 116.146555 
L 247.991919 116.146555 
L 248.05055 115.600415 
L 248.113817 115.600415 
L 248.113817 115.327345 
L 248.375251 115.327345 
L 248.375251 115.054275 
L 248.526558 115.054275 
L 248.526558 114.781205 
L 248.687959 114.781205 
L 248.687959 114.508135 
L 248.843893 114.508135 
L 248.843893 114.235065 
L 249.203083 114.235065 
L 249.203083 113.961995 
L 249.937651 113.961995 
L 249.98386 113.142785 
L 250.064431 113.142785 
L 250.064431 112.869715 
L 250.207289 112.869715 
L 250.296458 112.050505 
L 250.320611 112.050505 
L 250.320611 111.777435 
L 250.470688 111.777435 
L 250.494768 111.231295 
L 250.65273 111.231295 
L 250.65273 110.958225 
L 250.830447 110.958225 
L 250.830447 110.685155 
L 250.973129 110.685155 
L 250.973129 110.412085 
L 251.162289 110.412085 
L 251.162289 110.139015 
L 251.440329 110.139015 
L 251.440329 109.865945 
L 251.793985 109.865945 
L 251.793985 109.592875 
L 251.975671 109.592875 
L 251.975671 109.319805 
L 252.300714 109.319805 
L 252.300714 109.046735 
L 252.519853 109.046735 
L 252.519853 108.773665 
L 252.70776 108.773665 
L 252.70776 108.500595 
L 252.963158 108.500595 
L 253.002455 107.954455 
L 253.31979 107.954455 
L 253.415161 107.408315 
L 253.795335 107.408315 
L 253.795335 107.135245 
L 253.92047 107.135245 
L 253.92047 106.862175 
L 254.335185 106.862175 
L 254.335185 106.589105 
L 254.570295 106.589105 
L 254.570295 106.316035 
L 254.817787 106.316035 
L 254.817787 106.042965 
L 255.105402 106.042965 
L 255.162956 105.223755 
L 255.334936 105.223755 
L 255.378293 104.677615 
L 255.468481 104.677615 
L 255.468481 104.404545 
L 255.779477 104.404545 
L 255.885664 103.858405 
L 256.15965 103.858405 
L 256.238678 103.312265 
L 256.296848 103.312265 
L 256.401107 102.219985 
L 256.409698 102.219985 
L 256.457817 101.673845 
L 256.553184 101.673845 
L 256.553184 101.400775 
L 256.711653 101.400775 
L 256.760393 100.581565 
L 256.901121 100.581565 
L 256.920606 100.035425 
L 257.120616 100.035425 
L 257.217564 99.489285 
L 257.407241 99.489285 
L 257.407241 99.216215 
L 257.588127 99.216215 
L 257.588127 98.943145 
L 257.816896 98.943145 
L 257.904222 98.123935 
L 258.07278 98.123935 
L 258.07278 97.850865 
L 258.273149 97.850865 
L 258.273149 97.577795 
L 258.401509 97.577795 
L 258.508259 97.031655 
L 258.653076 97.031655 
L 258.653076 96.758585 
L 258.951563 96.758585 
L 258.999808 95.393235 
L 259.083245 95.393235 
L 259.183542 94.300955 
L 259.356081 94.300955 
L 259.414613 92.935605 
L 259.507134 92.935605 
L 259.507134 92.662535 
L 259.770886 92.662535 
L 259.828298 91.570255 
L 260.179849 91.570255 
L 260.242258 91.024115 
L 260.437095 91.024115 
L 260.437095 90.751045 
L 260.742888 90.751045 
L 260.742888 90.204905 
L 261.028574 90.204905 
L 261.028574 89.931835 
L 261.160678 89.931835 
L 261.160678 89.658765 
L 261.390211 89.658765 
L 261.390211 89.385695 
L 261.75168 89.385695 
L 261.858842 88.839555 
L 261.92819 88.839555 
L 261.92819 88.566485 
L 262.142478 88.566485 
L 262.200773 88.020345 
L 262.4192 88.020345 
L 262.530274 87.201135 
L 262.663314 87.201135 
L 262.663314 86.928065 
L 263.003377 86.928065 
L 263.066997 86.108855 
L 263.384332 86.108855 
L 263.384332 85.835785 
L 263.630818 85.835785 
L 263.640361 85.289645 
L 264.141725 85.289645 
L 264.141725 85.016575 
L 264.33006 85.016575 
L 264.33006 84.743505 
L 264.519092 84.743505 
L 264.519092 84.470435 
L 264.775481 84.470435 
L 264.809246 83.924295 
L 265.092816 83.924295 
L 265.092816 83.651225 
L 265.254216 83.651225 
L 265.254216 83.378155 
L 265.443001 83.378155 
L 265.443001 83.105085 
L 265.60617 83.105085 
L 265.622628 82.558945 
L 265.760336 82.558945 
L 265.805388 82.012805 
L 266.339968 82.012805 
L 266.343321 81.193595 
L 266.508138 81.193595 
L 266.569534 80.374385 
L 266.699594 80.374385 
L 266.699594 80.101315 
L 267.222052 80.101315 
L 267.299222 79.009035 
L 267.542894 79.009035 
L 267.578325 78.189825 
L 267.860228 78.189825 
L 267.940066 77.643685 
L 268.243366 77.643685 
L 268.278018 77.097545 
L 268.39629 77.097545 
L 268.39629 76.824475 
L 268.595353 76.824475 
L 268.623539 76.278335 
L 269.201761 76.278335 
L 269.201761 76.005265 
L 269.589922 76.005265 
L 269.686093 75.186055 
L 270.062145 75.186055 
L 270.111339 74.639915 
L 270.197001 74.639915 
L 270.296685 73.001495 
L 270.637557 73.001495 
L 270.724589 72.455355 
L 270.864521 72.455355 
L 270.919461 71.909215 
L 271.157255 71.909215 
L 271.157255 71.636145 
L 271.33725 71.636145 
L 271.420092 71.090005 
L 271.551179 71.090005 
L 271.551179 70.816935 
L 271.677903 70.816935 
L 271.737427 70.270795 
L 271.80115 70.270795 
L 271.80115 69.997725 
L 271.96932 69.997725 
L 271.96932 69.724655 
L 272.096617 69.724655 
L 272.155216 68.905445 
L 272.217511 68.905445 
L 272.217511 68.632375 
L 272.331726 68.632375 
L 272.331726 68.359305 
L 272.900984 68.359305 
L 272.900984 68.086235 
L 275.575147 68.086235 
L 275.575147 67.813165 
L 276.01576 67.813165 
L 276.01576 67.540095 
L 276.631113 67.540095 
L 276.631113 67.267025 
L 277.10227 67.267025 
L 277.10227 66.993955 
L 277.27044 66.993955 
L 277.27044 66.720885 
L 277.606454 66.720885 
L 277.606454 66.447815 
L 278.779197 66.447815 
L 278.779197 65.901675 
L 279.597349 65.901675 
L 279.633255 65.082465 
L 280.026801 65.082465 
L 280.026801 64.809395 
L 280.823264 64.809395 
L 280.823264 64.536325 
L 281.203437 64.536325 
L 281.203437 64.263255 
L 281.401792 64.263255 
L 281.401792 63.990185 
L 281.916441 63.990185 
L 281.916441 63.717115 
L 282.054311 63.717115 
L 282.054311 63.170975 
L 282.296615 63.170975 
L 282.296615 62.897905 
L 282.551877 62.897905 
L 282.551877 62.624835 
L 282.835544 62.624835 
L 282.876583 61.805625 
L 283.236879 61.805625 
L 283.317314 61.259485 
L 283.485484 61.259485 
L 283.485484 60.986415 
L 283.969761 60.986415 
L 283.969761 60.713345 
L 284.104752 60.713345 
L 284.104752 60.167205 
L 284.352131 60.167205 
L 284.461025 59.347995 
L 284.645213 59.347995 
L 284.645213 58.801855 
L 284.76992 58.801855 
L 284.76992 58.528785 
L 285.160329 58.528785 
L 285.160329 58.255715 
L 285.480882 58.255715 
L 285.587885 57.436505 
L 286.024029 57.436505 
L 286.024029 57.163435 
L 286.192199 57.163435 
L 286.192199 56.890365 
L 286.57406 56.890365 
L 286.57406 56.617295 
L 287.044519 56.617295 
L 287.044519 56.344225 
L 287.669015 56.344225 
L 287.669015 55.798085 
L 287.986349 55.798085 
L 287.986349 55.251945 
L 288.500443 55.251945 
L 288.500443 54.978875 
L 288.6938 54.978875 
L 288.6938 54.705805 
L 288.963439 54.705805 
L 288.963439 54.432735 
L 289.292155 54.432735 
L 289.292155 54.159665 
L 289.690952 54.159665 
L 289.690952 53.886595 
L 290.063782 53.886595 
L 290.063782 53.613525 
L 290.966497 53.613525 
L 290.966497 53.340455 
L 291.129093 53.340455 
L 291.129093 53.067385 
L 291.255228 53.067385 
L 291.255228 52.521245 
L 291.665755 52.521245 
L 291.670033 51.975105 
L 292.078996 51.975105 
L 292.078996 51.702035 
L 292.243326 51.702035 
L 292.243326 51.428965 
L 292.484899 51.428965 
L 292.484899 51.155895 
L 292.6235 51.155895 
L 292.6235 50.882825 
L 294.296646 50.882825 
L 294.296646 50.609755 
L 295.984547 50.609755 
L 295.984547 50.336685 
L 296.406878 50.336685 
L 296.406878 50.063615 
L 296.900945 50.063615 
L 296.900945 49.790545 
L 297.131642 49.790545 
L 297.131642 49.517475 
L 297.511816 49.517475 
L 297.511816 49.244405 
L 297.778222 49.244405 
L 297.778222 48.971335 
L 298.598741 48.971335 
L 298.598741 48.698265 
L 299.184961 48.698265 
L 299.184961 48.425195 
L 299.908593 48.425195 
L 299.908593 48.152125 
L 301.789261 48.152125 
L 301.789261 47.879055 
L 302.536704 47.879055 
L 302.536704 47.605985 
L 304.687898 47.605985 
L 304.687898 47.059845 
L 305.102703 47.059845 
L 305.102703 46.786775 
L 305.511665 46.786775 
L 305.511665 46.513705 
L 308.689179 46.513705 
L 308.689179 46.240635 
L 309.549166 46.240635 
L 309.549166 45.967565 
L 311.497922 45.967565 
L 311.497922 45.694495 
L 312.03141 45.694495 
L 312.03141 45.421425 
L 313.822707 45.421425 
L 313.822707 45.148355 
L 315.969374 45.148355 
L 315.969374 44.875285 
L 316.360172 44.875285 
L 316.360172 44.602215 
L 317.356178 44.602215 
L 317.356178 44.329145 
L 317.625817 44.329145 
L 317.625817 44.056075 
L 318.315265 44.056075 
L 318.315265 43.783005 
L 321.566562 43.783005 
L 321.566562 43.509935 
L 322.169401 43.509935 
L 322.169401 43.236865 
L 323.111336 43.236865 
L 323.111336 42.963795 
L 325.940772 42.963795 
L 325.940772 42.417655 
L 326.104539 42.417655 
L 326.104539 42.144585 
L 327.218359 42.144585 
L 327.256593 41.598445 
L 327.630582 41.598445 
L 327.630582 41.325375 
L 329.355836 41.325375 
L 329.355836 41.052305 
L 329.792841 41.052305 
L 329.792841 40.779235 
L 330.088291 40.779235 
L 330.088291 40.506165 
L 330.900611 40.506165 
L 330.900611 40.233095 
L 332.001477 40.233095 
L 332.001477 39.960025 
L 332.931702 39.960025 
L 332.931702 39.686955 
L 333.339588 39.686955 
L 333.339588 39.413885 
L 334.131849 39.413885 
L 334.131849 39.140815 
L 334.456673 39.140815 
L 334.456673 38.867745 
L 334.717755 38.867745 
L 334.717755 38.594675 
L 334.884362 38.594675 
L 334.884362 38.321605 
L 335.007633 38.321605 
L 335.007633 38.048535 
L 335.135544 38.048535 
L 335.135544 37.775465 
L 335.95351 37.775465 
L 335.95351 37.229325 
L 336.514129 37.229325 
L 336.587045 36.683185 
L 337.564245 36.683185 
L 337.564245 36.410115 
L 337.732416 36.410115 
L 337.732416 36.137045 
L 337.944419 36.137045 
L 337.944419 35.863975 
L 338.112589 35.863975 
L 338.112589 35.590905 
L 338.991385 35.590905 
L 338.991385 35.317835 
L 339.146746 35.317835 
L 339.146746 35.044765 
L 339.617564 35.044765 
L 339.617564 34.771695 
L 339.765426 34.771695 
L 339.785735 34.225555 
L 340.429407 34.225555 
L 340.429407 33.952485 
L 341.3102 33.952485 
L 341.3102 33.679415 
L 341.853462 33.679415 
L 341.853462 33.406345 
L 342.221864 33.406345 
L 342.221864 33.133275 
L 342.390034 33.133275 
L 342.390034 32.860205 
L 343.735248 32.860205 
L 343.735248 32.587135 
L 345.417223 32.587135 
L 345.417223 32.314065 
L 346.350171 32.314065 
L 346.350171 32.040995 
L 346.986545 32.040995 
L 346.986545 31.767925 
L 348.53132 31.767925 
L 348.53132 31.494855 
L 349.790523 31.494855 
L 349.790523 31.221785 
L 352.638342 31.221785 
L 352.638342 30.948715 
L 353.041821 30.948715 
L 353.041821 30.675645 
L 354.586595 30.675645 
L 354.586595 30.402575 
L 355.053522 30.402575 
L 355.053522 29.856435 
L 355.468327 29.856435 
L 355.468327 29.583365 
L 355.87729 29.583365 
L 355.918971 29.037225 
L 356.392656 29.037225 
L 356.392656 28.764155 
L 358.693617 28.764155 
L 358.693617 28.491085 
L 358.847852 28.491085 
L 358.847852 28.218015 
L 360.164027 28.218015 
L 360.164027 27.944945 
L 361.853838 27.944945 
L 361.853838 27.671875 
L 362.397035 27.671875 
L 362.397035 27.398805 
L 362.619223 27.398805 
L 362.619223 27.125735 
L 364.309034 27.125735 
L 364.309034 26.852665 
L 365.974508 26.852665 
L 365.974508 26.579595 
L 366.334999 26.579595 
L 366.334999 26.306525 
L 367.154958 26.306525 
L 367.154958 26.033455 
L 369.610154 26.033455 
L 369.610154 25.760385 
L 373.370002 25.760385 
L 373.370002 25.487315 
L 373.763783 25.487315 
L 373.763783 25.214245 
L 375.825198 25.214245 
L 375.825198 24.941175 
L 376.076717 24.941175 
L 376.076717 24.668105 
L 377.747534 24.668105 
L 377.747534 24.395035 
L 378.531913 24.395035 
L 378.531913 24.121965 
L 380.158466 24.121965 
L 380.158466 23.848895 
L 384.173372 23.848895 
L 384.173372 23.575825 
L 391.394492 23.575825 
L 391.394492 23.302755 
L 393.393678 23.302755 
L 393.393678 23.029685 
L 393.773851 23.029685 
L 393.773851 22.756615 
L 394.636886 22.756615 
L 394.636886 22.483545 
L 395.446997 22.483545 
L 395.446997 22.210475 
L 397.449767 22.210475 
L 397.449767 21.937405 
L 398.051296 21.937405 
L 398.051296 21.664335 
L 402.426161 21.664335 
L 402.426161 21.391265 
L 406.409913 21.391265 
L 406.409913 21.118195 
L 412.835751 21.118195 
L 412.835751 20.845125 
L 420.05687 20.845125 
L 420.05687 20.572055 
L 426.112145 20.572055 
L 426.112145 20.298985 
L 427.616933 20.298985 
L 427.616933 20.025915 
L 427.997107 20.025915 
L 427.997107 19.752845 
L 429.670253 19.752845 
L 429.670253 19.479775 
L 430.072129 19.479775 
L 430.072129 19.206705 
L 430.452303 19.206705 
L 430.452303 18.933635 
L 432.125449 18.933635 
L 432.125449 18.660565 
L 432.274552 18.660565 
L 432.274552 18.387495 
L 434.729748 18.387495 
L 434.729748 18.114425 
L 453.192 18.114425 
L 453.192 18.114425 
" style="fill:none;stroke:#000000;stroke-linecap:square;stroke-width:3;"/>
   </g>
   <g id="line2d_18">
    <path clip-path="url(#pbdc16ad2f5)" style="fill:none;stroke:#000000;stroke-linecap:square;stroke-width:3;"/>
   </g>
   <g id="line2d_19">
    <path clip-path="url(#pbdc16ad2f5)" d="M 34.16 255.203437 
L 134.191688 255.203437 
L 134.191688 254.833989 
L 134.422274 254.833989 
L 134.422274 254.464542 
L 135.183833 254.464542 
L 135.183833 254.095094 
L 135.936107 254.095094 
L 135.936107 253.725647 
L 136.928253 253.725647 
L 136.928253 253.356199 
L 137.899843 253.356199 
L 137.899843 252.986751 
L 138.891988 252.986751 
L 138.891988 252.617304 
L 140.016547 252.617304 
L 140.016547 252.247856 
L 142.902151 252.247856 
L 142.902151 251.878408 
L 143.894297 251.878408 
L 143.894297 251.508961 
L 149.7247 251.508961 
L 149.7247 251.139513 
L 149.948313 251.139513 
L 149.948313 250.770065 
L 150.357377 250.770065 
L 150.357377 250.400618 
L 151.46912 250.400618 
L 151.46912 250.03117 
L 151.692733 250.03117 
L 151.692733 249.661722 
L 151.923852 249.661722 
L 151.923852 249.292275 
L 152.101796 249.292275 
L 152.101796 248.922827 
L 153.430666 248.922827 
L 153.432855 248.183932 
L 153.656468 248.183932 
L 153.668272 247.445037 
L 154.065532 247.445037 
L 154.065532 247.075589 
L 155.175086 247.075589 
L 155.175086 246.706141 
L 155.632007 246.706141 
L 155.707794 245.967246 
L 157.138821 245.967246 
L 157.138821 245.597798 
L 157.530492 245.597798 
L 157.530492 245.228351 
L 158.435164 245.228351 
L 158.435164 244.858903 
L 158.658777 244.858903 
L 158.658777 244.489455 
L 159.067841 244.489455 
L 159.067841 244.120008 
L 160.634316 244.120008 
L 160.634316 243.75056 
L 160.838293 243.75056 
L 160.838293 243.381112 
L 161.474039 243.381112 
L 161.474039 243.011665 
L 161.635174 243.011665 
L 161.635174 242.642217 
L 161.974366 242.642217 
L 161.974366 242.272769 
L 162.14113 242.272769 
L 162.14113 241.903322 
L 163.124765 241.903322 
L 163.124765 241.533874 
L 163.379659 241.533874 
L 163.379659 241.164427 
L 163.632911 241.164427 
L 163.632911 240.794979 
L 164.582996 240.794979 
L 164.582996 240.425531 
L 165.147507 240.425531 
L 165.234714 239.686636 
L 166.162972 239.686636 
L 166.162972 239.317188 
L 166.891926 239.317188 
L 166.891926 238.947741 
L 167.125002 238.947741 
L 167.192982 238.208845 
L 168.855662 238.208845 
L 168.855662 237.839398 
L 169.227184 237.839398 
L 169.227184 237.46995 
L 170.828987 237.46995 
L 170.828987 237.100502 
L 171.757245 237.100502 
L 171.757245 236.731055 
L 173.85797 236.731055 
L 173.85797 236.361607 
L 175.40609 236.361607 
L 175.40609 235.992159 
L 176.585684 235.992159 
L 176.585684 235.622712 
L 177.15051 235.622712 
L 177.15051 235.253264 
L 178.330103 235.253264 
L 178.330103 234.883816 
L 178.816012 234.883816 
L 178.816012 234.514369 
L 179.114245 234.514369 
L 179.114245 234.144921 
L 180.293839 234.144921 
L 180.293839 233.775474 
L 180.757276 233.775474 
L 180.757276 233.406026 
L 181.492797 233.406026 
L 181.492797 233.036578 
L 183.761933 233.036578 
L 183.761933 232.667131 
L 183.94651 232.667131 
L 183.94651 232.297683 
L 184.116554 232.297683 
L 184.116554 231.928235 
L 184.582256 231.928235 
L 184.582256 231.558788 
L 184.743392 231.558788 
L 184.743392 231.18934 
L 184.871777 231.18934 
L 184.918431 230.450445 
L 185.082583 230.450445 
L 185.082583 230.080997 
L 185.296148 230.080997 
L 185.296148 229.711549 
L 185.607298 229.711549 
L 185.607298 229.342102 
L 186.487877 229.342102 
L 186.520234 228.603206 
L 187.448491 228.603206 
L 187.448491 228.233759 
L 187.691213 228.233759 
L 187.691213 227.864311 
L 187.876435 227.864311 
L 187.876435 227.494864 
L 188.133098 227.494864 
L 188.133098 227.125416 
L 190.048929 227.125416 
L 190.048929 226.755968 
L 190.233219 226.755968 
L 190.301199 226.017073 
L 190.684675 226.017073 
L 190.684675 225.647625 
L 190.845811 225.647625 
L 190.845811 225.278178 
L 191.185002 225.278178 
L 191.185002 224.90873 
L 191.650732 224.90873 
L 191.650732 224.539282 
L 192.286478 224.539282 
L 192.286478 224.169835 
L 192.447614 224.169835 
L 192.447614 223.800387 
L 192.57899 223.800387 
L 192.590296 223.061492 
L 192.786805 223.061492 
L 192.786805 222.692044 
L 193.214736 222.692044 
L 193.254167 221.953149 
L 193.375872 221.953149 
L 193.375872 221.583701 
L 193.715063 221.583701 
L 193.793632 220.844806 
L 193.989687 220.844806 
L 193.989687 220.475358 
L 194.192099 220.475358 
L 194.192099 220.105911 
L 195.120357 220.105911 
L 195.120357 219.736463 
L 195.395435 219.736463 
L 195.395435 219.367015 
L 195.620636 219.367015 
L 195.620636 218.997568 
L 195.737494 218.997568 
L 195.737494 218.62812 
L 196.258824 218.62812 
L 196.335638 217.519777 
L 196.403618 217.519777 
L 196.403618 217.150329 
L 197.937441 217.150329 
L 198.005421 216.411434 
L 198.11954 216.411434 
L 198.11954 216.041986 
L 198.865699 216.041986 
L 198.933679 214.933643 
L 199.111685 214.933643 
L 199.111685 214.564196 
L 199.268967 214.564196 
L 199.268967 214.194748 
L 199.735138 214.194748 
L 199.735138 213.825301 
L 199.867435 213.825301 
L 199.901599 213.086405 
L 200.004488 213.086405 
L 200.004488 212.716958 
L 200.556112 212.716958 
L 200.556112 212.34751 
L 200.814543 212.34751 
L 200.841718 211.608615 
L 201.706926 211.608615 
L 201.806689 210.869719 
L 201.833863 210.869719 
L 201.833863 210.500272 
L 201.960669 210.500272 
L 201.960669 210.130824 
L 202.273625 210.130824 
L 202.273625 209.761376 
L 202.699072 209.761376 
L 202.699072 209.391929 
L 202.952814 209.391929 
L 202.952814 209.022481 
L 203.221677 209.022481 
L 203.221677 208.653033 
L 203.781316 208.653033 
L 203.781316 208.283586 
L 205.668587 208.283586 
L 205.668587 207.914138 
L 206.660732 207.914138 
L 206.660732 207.544691 
L 206.965615 207.544691 
L 206.965615 207.175243 
L 207.596754 207.175243 
L 207.596754 206.805795 
L 207.761301 206.805795 
L 207.761301 206.436348 
L 207.95776 206.436348 
L 207.95776 206.0669 
L 208.117527 206.0669 
L 208.117527 205.697452 
L 208.362203 205.697452 
L 208.362203 205.328005 
L 208.643071 205.328005 
L 208.643071 204.958557 
L 209.515737 204.958557 
L 209.515737 204.589109 
L 210.956293 204.589109 
L 210.956293 204.219662 
L 211.816384 204.219662 
L 211.816384 203.850214 
L 212.476705 203.850214 
L 212.476705 203.480766 
L 213.193517 203.480766 
L 213.193517 203.111319 
L 213.468585 203.111319 
L 213.468585 202.741871 
L 213.630239 202.741871 
L 213.652552 202.002976 
L 213.876165 202.002976 
L 213.876165 201.633528 
L 214.132328 201.633528 
L 214.132328 201.26408 
L 214.285229 201.26408 
L 214.285229 200.894633 
L 214.408302 200.894633 
L 214.408302 200.525185 
L 214.539011 200.525185 
L 214.631915 199.78629 
L 214.763343 199.78629 
L 214.763343 199.416842 
L 214.990178 199.416842 
L 215.040979 198.677947 
L 215.549817 198.677947 
L 215.644691 197.939052 
L 215.759123 197.939052 
L 215.851704 197.200156 
L 215.902723 197.200156 
L 215.902723 196.830709 
L 216.20433 196.830709 
L 216.20433 196.461261 
L 216.347556 196.461261 
L 216.37473 195.722366 
L 216.550566 195.722366 
L 216.607454 194.244575 
L 216.980233 194.244575 
L 217.007407 193.50568 
L 217.239939 193.50568 
L 217.239939 193.136232 
L 217.358518 193.136232 
L 217.463552 192.397337 
L 217.493681 192.397337 
L 217.559183 191.658442 
L 217.717295 191.658442 
L 217.717295 191.288994 
L 217.828534 191.288994 
L 217.872616 190.550099 
L 218.114268 190.550099 
L 218.126358 189.811203 
L 218.546708 189.811203 
L 218.573882 189.072308 
L 218.845712 189.072308 
L 218.845712 188.70286 
L 219.062858 188.70286 
L 219.062858 188.333413 
L 219.439091 188.333413 
L 219.536447 187.22507 
L 219.692834 187.22507 
L 219.692834 186.855622 
L 219.828648 186.855622 
L 219.828648 186.486175 
L 220.053522 186.486175 
L 220.133284 185.377832 
L 220.184315 185.377832 
L 220.184315 185.008384 
L 220.357616 185.008384 
L 220.411572 184.269489 
L 220.859094 184.269489 
L 220.945905 183.530593 
L 221.066085 183.530593 
L 221.144014 182.791698 
L 221.199647 182.791698 
L 221.201599 182.052803 
L 221.353396 182.052803 
L 221.425213 181.313907 
L 221.496996 181.313907 
L 221.496996 180.94446 
L 221.834276 180.94446 
L 221.834276 180.575012 
L 222.012628 180.575012 
L 222.012628 180.205565 
L 222.498627 180.205565 
L 222.498627 179.836117 
L 222.685332 179.836117 
L 222.722241 179.097222 
L 223.131304 179.097222 
L 223.153456 178.358326 
L 223.244971 178.358326 
L 223.244971 177.988879 
L 223.400751 177.988879 
L 223.422807 177.249983 
L 224.697779 177.249983 
L 224.697779 176.880536 
L 224.907565 176.880536 
L 224.948131 175.772193 
L 226.204593 175.772193 
L 226.204593 175.402745 
L 226.549934 175.402745 
L 226.549934 175.033297 
L 226.738287 175.033297 
L 226.738287 174.66385 
L 226.873895 174.66385 
L 226.873895 174.294402 
L 227.038528 174.294402 
L 227.038528 173.924955 
L 227.224957 173.924955 
L 227.224957 173.555507 
L 227.478192 173.555507 
L 227.478192 173.186059 
L 228.027429 173.186059 
L 228.106727 172.447164 
L 229.075358 172.447164 
L 229.075358 172.077716 
L 229.831109 172.077716 
L 229.831109 171.708269 
L 231.770362 171.708269 
L 231.813219 170.599926 
L 232.241812 170.599926 
L 232.241812 170.230478 
L 232.632801 170.230478 
L 232.662745 169.491583 
L 232.916488 169.491583 
L 232.916488 169.122135 
L 233.557638 169.122135 
L 233.557638 168.752687 
L 234.242069 168.752687 
L 234.242069 168.38324 
L 234.625026 168.38324 
L 234.625026 168.013792 
L 234.754105 168.013792 
L 234.754105 167.644344 
L 234.924602 167.644344 
L 234.924602 167.274897 
L 235.184665 167.274897 
L 235.184665 166.905449 
L 235.521374 166.905449 
L 235.521374 166.536002 
L 235.81044 166.536002 
L 235.824531 165.797106 
L 235.986488 165.797106 
L 236.048863 165.058211 
L 236.301734 165.058211 
L 236.301734 164.688763 
L 236.624406 164.688763 
L 236.624406 164.319316 
L 237.044643 164.319316 
L 237.044643 163.949868 
L 237.188243 163.949868 
L 237.188243 163.58042 
L 237.372311 163.58042 
L 237.372311 163.210973 
L 237.921434 163.210973 
L 238.008057 162.10263 
L 238.169193 162.10263 
L 238.169193 161.733182 
L 238.508384 161.733182 
L 238.508384 161.363734 
L 238.759484 161.363734 
L 238.844703 160.624839 
L 239.011852 160.624839 
L 239.114054 159.885944 
L 239.16465 159.885944 
L 239.264385 159.147049 
L 239.333942 159.147049 
L 239.333942 158.777601 
L 239.884603 158.777601 
L 239.913678 158.038706 
L 240.03198 158.038706 
L 240.089692 156.930363 
L 240.513536 156.930363 
L 240.591619 155.452572 
L 240.681485 155.452572 
L 240.681485 155.083124 
L 240.95503 155.083124 
L 241.027021 153.605334 
L 241.117014 153.605334 
L 241.179361 152.866439 
L 241.269286 152.866439 
L 241.269286 152.496991 
L 241.590776 152.496991 
L 241.590776 152.127543 
L 241.751911 152.127543 
L 241.815107 151.388648 
L 241.976243 151.388648 
L 242.05612 150.280305 
L 242.091103 150.280305 
L 242.175141 149.54141 
L 242.315434 149.54141 
L 242.42597 148.063619 
L 242.429534 148.063619 
L 242.429534 147.694171 
L 242.628824 147.694171 
L 242.628824 147.324724 
L 242.810887 147.324724 
L 242.921329 146.585829 
L 242.936866 146.585829 
L 242.97254 144.73859 
L 243.115623 144.73859 
L 243.20854 143.630247 
L 243.235714 143.630247 
L 243.311214 142.521904 
L 243.454814 142.521904 
L 243.557082 141.413561 
L 243.629306 141.413561 
L 243.727 139.935771 
L 243.975201 139.935771 
L 244.005956 139.196876 
L 244.100923 139.196876 
L 244.100923 138.827428 
L 244.244552 138.827428 
L 244.354665 138.088533 
L 244.571604 138.088533 
L 244.610947 137.349637 
L 244.699733 137.349637 
L 244.772083 136.241294 
L 244.860108 136.241294 
L 244.934214 134.763504 
L 245.041434 134.763504 
L 245.111274 134.024608 
L 245.380625 134.024608 
L 245.453374 133.285713 
L 245.919844 133.285713 
L 245.919844 132.916266 
L 246.05088 132.916266 
L 246.063444 132.17737 
L 246.171312 132.17737 
L 246.239292 131.438475 
L 246.516568 131.438475 
L 246.516568 131.069027 
L 246.785919 131.069027 
L 246.882989 130.330132 
L 247.043026 130.330132 
L 247.043026 129.960684 
L 247.241739 129.960684 
L 247.309718 129.221789 
L 247.46607 129.221789 
L 247.560033 128.113446 
L 247.578941 128.113446 
L 247.578941 127.743998 
L 247.719904 127.743998 
L 247.719904 127.374551 
L 247.974848 127.374551 
L 248.062583 125.89676 
L 248.180017 125.89676 
L 248.233454 124.788417 
L 248.324047 124.788417 
L 248.356914 124.049522 
L 248.46185 124.049522 
L 248.52983 123.310627 
L 248.60545 123.310627 
L 248.696106 122.202284 
L 249.039285 122.202284 
L 249.039285 121.832836 
L 249.359611 121.832836 
L 249.359611 121.463388 
L 249.745937 121.463388 
L 249.745937 121.093941 
L 250.101399 121.093941 
L 250.101399 120.724493 
L 250.26191 120.724493 
L 250.32989 119.985598 
L 250.527985 119.985598 
L 250.599241 118.877255 
L 250.641088 118.877255 
L 250.641088 118.507807 
L 250.780353 118.507807 
L 250.780353 118.13836 
L 251.182498 118.13836 
L 251.182498 117.768912 
L 251.304736 117.768912 
L 251.304736 117.399464 
L 251.434866 117.399464 
L 251.434866 117.030017 
L 251.569345 117.030017 
L 251.583067 116.291121 
L 253.327487 116.291121 
L 253.327487 115.921674 
L 253.454546 115.921674 
L 253.454546 115.552226 
L 253.846742 115.552226 
L 253.914721 114.813331 
L 254.090292 114.813331 
L 254.090292 114.443883 
L 254.251428 114.443883 
L 254.251428 114.074435 
L 254.590619 114.074435 
L 254.590619 113.704988 
L 255.274095 113.704988 
L 255.291222 112.966093 
L 255.995912 112.966093 
L 255.995912 112.596645 
L 257.199249 112.596645 
L 257.199249 112.227197 
L 258.22314 112.227197 
L 258.22314 111.85775 
L 258.386128 111.85775 
L 258.475508 111.118854 
L 258.945767 111.118854 
L 258.945767 110.749407 
L 259.741255 110.749407 
L 259.809235 110.010511 
L 260.293531 110.010511 
L 260.293531 109.641064 
L 261.583893 109.641064 
L 261.583893 109.271616 
L 261.807506 109.271616 
L 261.807506 108.902168 
L 262.21657 108.902168 
L 262.21657 108.532721 
L 262.925753 108.532721 
L 262.925753 108.163273 
L 263.141763 108.163273 
L 263.141763 107.793825 
L 263.701402 107.793825 
L 263.807523 106.685483 
L 264.834516 106.685483 
L 264.834516 106.316035 
L 265.289859 106.316035 
L 265.394155 105.57714 
L 266.080656 105.57714 
L 266.080656 105.207692 
L 267.213789 105.207692 
L 267.213789 104.838244 
L 267.681387 104.838244 
L 267.681387 104.468797 
L 268.563157 104.468797 
L 268.563157 104.099349 
L 269.37414 104.099349 
L 269.37414 103.729901 
L 270.162833 103.729901 
L 270.25591 102.991006 
L 270.415201 102.991006 
L 270.415201 102.621558 
L 272.271513 102.621558 
L 272.271513 102.252111 
L 272.620743 102.252111 
L 272.620743 101.882663 
L 273.280649 101.882663 
L 273.280649 101.513215 
L 274.272794 101.513215 
L 274.272794 101.143768 
L 274.783805 101.143768 
L 274.783805 100.77432 
L 275.569787 100.77432 
L 275.569787 100.404872 
L 275.822155 100.404872 
L 275.854231 99.665977 
L 276.078563 99.665977 
L 276.078563 99.29653 
L 277.006699 99.29653 
L 277.074343 98.557634 
L 277.217943 98.557634 
L 277.217943 98.188187 
L 278.874403 98.188187 
L 278.874403 97.818739 
L 279.143754 97.818739 
L 279.143754 97.449291 
L 281.169234 97.449291 
L 281.169234 97.079844 
L 281.728873 97.079844 
L 281.728873 96.710396 
L 282.459234 96.710396 
L 282.459234 96.340948 
L 285.708859 96.340948 
L 285.708859 95.971501 
L 286.590629 95.971501 
L 286.590629 95.602053 
L 287.265283 95.602053 
L 287.265283 95.232605 
L 288.350403 95.232605 
L 288.444877 94.124262 
L 288.813661 94.124262 
L 288.813661 93.754815 
L 289.037274 93.754815 
L 289.037274 93.385367 
L 289.446338 93.385367 
L 289.446338 93.01592 
L 289.727535 93.01592 
L 289.727535 92.646472 
L 290.862695 92.646472 
L 290.862695 92.277024 
L 290.974891 92.277024 
L 291.012813 91.538129 
L 291.933121 91.538129 
L 291.933121 91.168681 
L 292.157453 91.168681 
L 292.239827 90.429786 
L 292.519627 90.429786 
L 292.519627 90.060338 
L 293.153233 90.060338 
L 293.153233 89.690891 
L 293.296833 89.690891 
L 293.310254 88.951995 
L 293.534586 88.951995 
L 293.534586 88.582548 
L 293.923936 88.582548 
L 293.923936 88.2131 
L 294.176304 88.2131 
L 294.176304 87.843652 
L 294.530366 87.843652 
L 294.530366 87.474205 
L 294.673966 87.474205 
L 294.673966 87.104757 
L 294.953293 87.104757 
L 294.953293 86.735309 
L 295.222644 86.735309 
L 295.222644 86.365862 
L 295.730526 86.365862 
L 295.74107 85.626967 
L 296.330426 85.626967 
L 296.362666 84.888071 
L 296.496821 84.888071 
L 296.599777 84.149176 
L 297.423279 84.149176 
L 297.423279 83.779728 
L 298.169921 83.779728 
L 298.169921 83.410281 
L 298.436074 83.410281 
L 298.538124 82.301938 
L 298.67957 82.301938 
L 298.67957 81.93249 
L 298.874959 81.93249 
L 298.931938 80.824147 
L 299.328457 80.824147 
L 299.328457 80.454699 
L 299.5822 80.454699 
L 299.5822 80.085252 
L 299.915257 80.085252 
L 299.945385 79.346357 
L 300.169717 79.346357 
L 300.169717 78.976909 
L 300.372323 78.976909 
L 300.372323 78.607461 
L 300.624691 78.607461 
L 300.624691 78.238014 
L 300.864924 78.238014 
L 300.892099 77.499118 
L 301.165497 77.499118 
L 301.165497 77.129671 
L 301.309097 77.129671 
L 301.309097 76.760223 
L 301.757307 76.760223 
L 301.757307 76.390775 
L 302.01105 76.390775 
L 302.01105 76.021328 
L 302.965557 76.021328 
L 302.965557 75.65188 
L 303.192236 75.65188 
L 303.290118 74.543537 
L 303.947987 74.543537 
L 303.947987 74.174089 
L 304.236468 74.174089 
L 304.236468 73.804642 
L 304.432638 73.804642 
L 304.432638 73.435194 
L 304.587146 73.435194 
L 304.587146 73.065747 
L 305.718968 73.065747 
L 305.80977 72.326851 
L 305.88724 72.326851 
L 305.914415 71.587956 
L 306.550388 71.587956 
L 306.550388 71.218508 
L 306.779623 71.218508 
L 306.779623 70.849061 
L 307.015996 70.849061 
L 307.033366 70.110165 
L 310.741284 70.110165 
L 310.741284 69.740718 
L 312.038312 69.740718 
L 312.038312 69.37127 
L 312.444901 69.37127 
L 312.444901 69.001822 
L 313.757998 69.001822 
L 313.757998 68.632375 
L 314.495051 68.632375 
L 314.495051 68.262927 
L 315.510919 68.262927 
L 315.510919 67.893479 
L 315.674645 67.893479 
L 315.674645 67.524032 
L 316.266669 67.524032 
L 316.266669 67.154584 
L 316.707042 67.154584 
L 316.707042 66.785136 
L 316.95941 66.785136 
L 316.95941 66.415689 
L 318.205923 66.415689 
L 318.233097 65.676794 
L 319.098306 65.676794 
L 319.098306 65.307346 
L 319.352048 65.307346 
L 319.352048 64.937898 
L 323.059966 64.937898 
L 323.059966 64.568451 
L 324.356994 64.568451 
L 324.356994 64.199003 
L 343.672411 64.199003 
L 343.672411 63.829555 
L 346.101261 63.829555 
L 346.101261 63.460108 
L 351.123577 63.460108 
L 351.123577 63.09066 
L 363.44226 63.09066 
L 363.44226 62.721212 
L 370.90218 62.721212 
L 370.90218 62.351765 
L 373.33103 62.351765 
L 373.33103 61.982317 
L 378.353346 61.982317 
L 378.353346 61.612869 
L 390.672028 61.612869 
L 390.672028 61.243422 
L 453.192 61.243422 
L 453.192 61.243422 
" style="fill:none;stroke:#00bfbf;stroke-linecap:square;stroke-width:3;"/>
   </g>
   <g id="line2d_20">
    <path clip-path="url(#pbdc16ad2f5)" style="fill:none;stroke:#00bfbf;stroke-linecap:square;stroke-width:3;"/>
   </g>
   <g id="line2d_21">
    <path clip-path="url(#pbdc16ad2f5)" d="M 34.16 233.044394 
L 141.876634 233.044394 
L 141.876634 232.645766 
L 142.316731 232.645766 
L 142.316731 232.247138 
L 145.00853 232.247138 
L 145.00853 231.84851 
L 145.448627 231.84851 
L 145.448627 231.449881 
L 150.26278 231.449881 
L 150.26278 231.051253 
L 150.702877 231.051253 
L 150.702877 230.652625 
L 152.502915 230.652625 
L 152.502915 230.253997 
L 152.943012 230.253997 
L 152.943012 229.855368 
L 156.59331 229.855368 
L 156.59331 229.45674 
L 157.62658 229.45674 
L 157.62658 229.058112 
L 157.7395 229.058112 
L 157.7395 228.659483 
L 159.725207 228.659483 
L 159.725207 228.260855 
L 159.86203 228.260855 
L 159.86203 227.862227 
L 159.984006 227.862227 
L 159.984006 227.463599 
L 160.758477 227.463599 
L 160.758477 227.06497 
L 160.871397 227.06497 
L 160.871397 226.666342 
L 162.993926 226.666342 
L 162.993926 226.267714 
L 163.115902 226.267714 
L 163.115902 225.869085 
L 164.979457 225.869085 
L 164.979457 225.470457 
L 166.012727 225.470457 
L 166.012727 225.071829 
L 166.125647 225.071829 
L 166.125647 224.673201 
L 167.219591 224.673201 
L 167.219591 224.274572 
L 168.248176 224.274572 
L 168.252861 223.477316 
L 168.365782 223.477316 
L 168.370152 222.680059 
L 170.488311 222.680059 
L 170.488311 222.281431 
L 170.610287 222.281431 
L 170.610287 221.882803 
L 173.209555 221.882803 
L 173.209555 221.484174 
L 176.341451 221.484174 
L 176.341451 221.085546 
L 180.901674 221.085546 
L 180.901674 220.686918 
L 181.595701 220.686918 
L 181.595701 220.288289 
L 182.410169 220.288289 
L 182.410169 219.889661 
L 182.736895 219.889661 
L 182.736895 219.491033 
L 182.977961 219.491033 
L 182.977961 219.092405 
L 183.297637 219.092405 
L 183.297637 218.693776 
L 183.835836 218.693776 
L 183.835836 218.295148 
L 184.813182 218.295148 
L 184.813182 217.89652 
L 185.452188 217.89652 
L 185.542066 217.099263 
L 186.429534 217.099263 
L 186.429534 216.700635 
L 187.287409 216.700635 
L 187.287409 216.302007 
L 189.157932 216.302007 
L 189.157932 215.903378 
L 190.796316 215.903378 
L 190.796316 215.50475 
L 191.553351 215.50475 
L 191.553351 215.106122 
L 191.683784 215.106122 
L 191.683784 214.707494 
L 193.03645 214.707494 
L 193.03645 214.308865 
L 193.629637 214.308865 
L 193.629637 213.910237 
L 193.923918 213.910237 
L 193.923918 213.511609 
L 195.840135 213.511609 
L 195.840135 213.11298 
L 196.103864 213.11298 
L 196.103864 212.714352 
L 197.675356 212.714352 
L 197.675356 212.315724 
L 198.148861 212.315724 
L 198.148861 211.917096 
L 198.686483 211.917096 
L 198.686483 211.518467 
L 199.160835 211.518467 
L 199.160835 211.119839 
L 199.600932 211.119839 
L 199.600932 210.721211 
L 200.225147 210.721211 
L 200.225147 210.322582 
L 201.600528 210.322582 
L 201.600528 209.923954 
L 201.847031 209.923954 
L 201.905664 209.126698 
L 202.147318 209.126698 
L 202.147318 208.728069 
L 202.287128 208.728069 
L 202.345761 207.930813 
L 202.477368 207.930813 
L 202.587415 207.133556 
L 202.699374 207.133556 
L 202.699374 206.734928 
L 202.917465 206.734928 
L 202.949374 205.937671 
L 203.389471 205.937671 
L 203.389471 205.539043 
L 204.142119 205.539043 
L 204.142119 205.140415 
L 206.491812 205.140415 
L 206.491812 204.741787 
L 207.094741 204.741787 
L 207.094741 204.343158 
L 207.534838 204.343158 
L 207.534838 203.94453 
L 207.748924 203.94453 
L 207.748924 203.545902 
L 209.411053 203.545902 
L 209.411053 203.147273 
L 209.553497 203.147273 
L 209.553497 202.748645 
L 209.804612 202.748645 
L 209.804612 202.350017 
L 210.105813 202.350017 
L 210.154692 201.55276 
L 210.804488 201.55276 
L 210.804488 201.154132 
L 210.963099 201.154132 
L 210.963099 200.755504 
L 211.941034 200.755504 
L 211.941034 200.356875 
L 212.79832 200.356875 
L 212.79832 199.958247 
L 213.087322 199.958247 
L 213.087322 199.559619 
L 213.670671 199.559619 
L 213.670671 199.160991 
L 213.877512 199.160991 
L 213.877512 198.762362 
L 214.910782 198.762362 
L 214.910782 198.363734 
L 215.023702 198.363734 
L 215.023702 197.965106 
L 216.563707 197.965106 
L 216.62234 196.769221 
L 216.863995 196.769221 
L 216.863995 196.370593 
L 217.146231 196.370593 
L 217.194045 195.573336 
L 217.268207 195.573336 
L 217.268207 195.174708 
L 217.596978 195.174708 
L 217.666051 193.978823 
L 217.709898 193.978823 
L 217.768531 193.181566 
L 217.897265 193.181566 
L 217.897265 192.782938 
L 218.010185 192.782938 
L 218.010185 192.38431 
L 218.227315 192.38431 
L 218.227315 191.985682 
L 218.340235 191.985682 
L 218.340235 191.587053 
L 218.699321 191.587053 
L 218.699321 191.188425 
L 218.812241 191.188425 
L 218.812241 190.789797 
L 218.939605 190.789797 
L 218.939605 190.391168 
L 219.683244 190.391168 
L 219.683244 189.99254 
L 219.832427 189.99254 
L 219.89106 189.195284 
L 219.944544 189.195284 
L 220.013036 187.999399 
L 220.132714 187.999399 
L 220.132714 187.60077 
L 220.25469 187.60077 
L 220.333039 186.803514 
L 220.462764 186.803514 
L 220.462764 186.404886 
L 220.584741 186.404886 
L 220.584741 186.006257 
L 220.75749 186.006257 
L 220.75749 185.607629 
L 220.93477 185.607629 
L 220.93477 185.209001 
L 221.056746 185.209001 
L 221.056746 184.810373 
L 221.614776 184.810373 
L 221.614776 184.411744 
L 221.811418 184.411744 
L 221.85365 183.614488 
L 222.597288 183.614488 
L 222.597288 183.215859 
L 222.733112 183.215859 
L 222.733112 182.817231 
L 222.844688 182.817231 
L 222.844688 182.418603 
L 222.957608 182.418603 
L 222.957608 182.019975 
L 223.247084 182.019975 
L 223.247084 181.621346 
L 224.346919 181.621346 
L 224.346919 181.222718 
L 224.527886 181.222718 
L 224.598034 180.425461 
L 224.967983 180.425461 
L 224.967983 180.026833 
L 225.080137 180.026833 
L 225.080137 179.628205 
L 225.202113 179.628205 
L 225.202113 179.229577 
L 225.661181 179.229577 
L 225.661181 178.830948 
L 225.898067 178.830948 
L 225.980677 178.033692 
L 226.110413 178.033692 
L 226.149182 177.236435 
L 226.231792 177.236435 
L 226.231792 176.837807 
L 227.353 176.837807 
L 227.353 176.439179 
L 227.77373 176.439179 
L 227.77373 176.04055 
L 228.002046 176.04055 
L 228.024845 175.243294 
L 228.210285 175.243294 
L 228.210285 174.844666 
L 228.745685 174.844666 
L 228.801222 174.047409 
L 229.052337 174.047409 
L 229.052337 173.648781 
L 229.39548 173.648781 
L 229.39548 173.250152 
L 229.726077 173.250152 
L 229.726077 172.851524 
L 230.493756 172.851524 
L 230.493756 172.452896 
L 233.179952 172.452896 
L 233.238585 171.655639 
L 233.480239 171.655639 
L 233.480239 171.257011 
L 233.810289 171.257011 
L 233.810289 170.858383 
L 234.282295 170.858383 
L 234.282295 170.459754 
L 234.604321 170.459754 
L 234.604321 170.061126 
L 234.928732 170.061126 
L 234.928732 169.662498 
L 237.663553 169.662498 
L 237.736217 168.865241 
L 238.427662 168.865241 
L 238.524263 168.067985 
L 238.582973 168.067985 
L 238.592343 167.270728 
L 239.244562 167.270728 
L 239.244562 166.8721 
L 239.609917 166.8721 
L 239.694371 166.074843 
L 240.072942 166.074843 
L 240.072942 165.676215 
L 240.197666 165.676215 
L 240.277832 164.878958 
L 240.390753 164.878958 
L 240.454603 164.081702 
L 240.581839 164.081702 
L 240.581839 163.683074 
L 240.79545 163.683074 
L 240.79545 163.284445 
L 240.941305 163.284445 
L 240.941305 162.885817 
L 241.094601 162.885817 
L 241.177537 162.088561 
L 241.249515 162.088561 
L 241.249515 161.689932 
L 241.5911 161.689932 
L 241.5911 161.291304 
L 241.72424 161.291304 
L 241.72424 160.892676 
L 242.005751 160.892676 
L 242.088361 160.095419 
L 242.19908 160.095419 
L 242.19908 159.696791 
L 242.380566 159.696791 
L 242.439199 158.899534 
L 242.513282 158.899534 
L 242.513282 158.500906 
L 242.635258 158.500906 
L 242.680854 157.703649 
L 242.85913 157.703649 
L 242.85913 157.305021 
L 242.990467 157.305021 
L 243.010904 156.507765 
L 243.110245 156.507765 
L 243.110245 156.109136 
L 243.268034 156.109136 
L 243.326667 155.31188 
L 243.48291 155.31188 
L 243.568322 154.514623 
L 243.881414 154.514623 
L 243.898372 153.717367 
L 244.370378 153.717367 
L 244.370378 153.318738 
L 244.519498 153.318738 
L 244.519498 152.92011 
L 244.908906 152.92011 
L 244.908906 152.521482 
L 245.230602 152.521482 
L 245.230602 152.122854 
L 246.0497 152.122854 
L 246.153257 150.926969 
L 246.363535 150.926969 
L 246.389293 150.129712 
L 246.572175 150.129712 
L 246.572175 149.731084 
L 246.97849 149.731084 
L 247.012272 148.933827 
L 247.107174 148.933827 
L 247.107174 148.535199 
L 247.628277 148.535199 
L 247.628277 148.136571 
L 247.756969 148.136571 
L 247.756969 147.737942 
L 247.946309 147.737942 
L 248.052815 146.940686 
L 248.111525 146.940686 
L 248.111525 146.542058 
L 248.289835 146.542058 
L 248.289835 146.143429 
L 248.515745 146.143429 
L 248.515745 145.744801 
L 248.973801 145.744801 
L 248.973801 145.346173 
L 249.138469 145.346173 
L 249.218624 144.548916 
L 249.726612 144.548916 
L 249.726612 144.150288 
L 250.96686 144.150288 
L 251.02557 143.353031 
L 252.052514 143.353031 
L 252.052514 142.954403 
L 254.866364 142.954403 
L 254.866364 142.555775 
L 255.860807 142.555775 
L 255.970959 141.758518 
L 256.042936 141.758518 
L 256.042936 141.35989 
L 256.417512 141.35989 
L 256.500122 140.562633 
L 257.115256 140.562633 
L 257.183268 139.366749 
L 257.522107 139.366749 
L 257.604717 138.170864 
L 257.676695 138.170864 
L 257.676695 137.772235 
L 258.20091 137.772235 
L 258.293174 136.974979 
L 258.966814 136.974979 
L 258.966814 136.576351 
L 259.320666 136.576351 
L 259.39777 135.779094 
L 259.469747 135.779094 
L 259.469747 135.380466 
L 260.425262 135.380466 
L 260.497239 134.184581 
L 261.288851 134.184581 
L 261.373481 133.387324 
L 261.862044 133.387324 
L 261.862044 132.988696 
L 262.113159 132.988696 
L 262.113159 132.590068 
L 262.322122 132.590068 
L 262.322122 132.191439 
L 262.435042 132.191439 
L 262.452202 131.394183 
L 263.03171 131.394183 
L 263.03171 130.995555 
L 263.195841 130.995555 
L 263.195841 130.596926 
L 263.624531 130.596926 
L 263.624531 130.198298 
L 263.845636 130.198298 
L 263.845636 129.79967 
L 264.33234 129.79967 
L 264.33234 129.401042 
L 264.557571 129.401042 
L 264.557571 129.002413 
L 264.679547 129.002413 
L 264.7108 128.205157 
L 265.061421 128.205157 
L 265.061421 127.806528 
L 265.948889 127.806528 
L 265.948889 127.4079 
L 266.642415 127.4079 
L 266.642415 127.009272 
L 267.386054 127.009272 
L 267.386054 126.610644 
L 268.035849 126.610644 
L 268.035849 126.212015 
L 268.878781 126.212015 
L 268.878781 125.813387 
L 269.310876 125.813387 
L 269.369586 125.01613 
L 269.979734 125.01613 
L 269.979734 124.617502 
L 270.39653 124.617502 
L 270.39653 124.218874 
L 270.723373 124.218874 
L 270.723373 123.820246 
L 271.118916 123.820246 
L 271.118916 123.421617 
L 271.373168 123.421617 
L 271.373168 123.022989 
L 273.378575 123.022989 
L 273.488802 122.225732 
L 273.928899 122.225732 
L 273.928899 121.827104 
L 274.48317 121.827104 
L 274.555148 121.029848 
L 275.476745 121.029848 
L 275.535455 120.232591 
L 276.562399 120.232591 
L 276.562399 119.833963 
L 277.905096 119.833963 
L 277.969728 119.036706 
L 279.316527 119.036706 
L 279.316527 118.638078 
L 282.034624 118.638078 
L 282.034624 118.23945 
L 284.585461 118.23945 
L 284.585461 117.840821 
L 285.3291 117.840821 
L 285.3291 117.442193 
L 285.978896 117.442193 
L 285.978896 117.043565 
L 287.10571 117.043565 
L 287.10571 116.644937 
L 287.993178 116.644937 
L 287.993178 116.246308 
L 288.205478 116.246308 
L 288.205478 115.84768 
L 289.238748 115.84768 
L 289.238748 115.449052 
L 289.351669 115.449052 
L 289.351669 115.050423 
L 291.474198 115.050423 
L 291.565412 114.253167 
L 291.596174 114.253167 
L 291.624122 113.45591 
L 291.888522 113.45591 
L 291.888522 113.057282 
L 292.381489 113.057282 
L 292.381489 112.658654 
L 292.651066 112.658654 
L 292.651066 112.260025 
L 293.486084 112.260025 
L 293.558062 111.462769 
L 294.574718 111.462769 
L 294.633351 110.665512 
L 294.875005 110.665512 
L 294.947755 109.868256 
L 295.205056 109.868256 
L 295.205056 109.469627 
L 295.677061 109.469627 
L 295.755625 108.672371 
L 295.814335 108.672371 
L 295.876545 107.875114 
L 296.841279 107.875114 
L 296.841279 107.476486 
L 297.633951 107.476486 
L 297.692584 106.67923 
L 297.934238 106.67923 
L 297.934238 106.280601 
L 298.264288 106.280601 
L 298.264288 105.881973 
L 298.56274 105.881973 
L 298.621373 105.084716 
L 298.736294 105.084716 
L 298.736294 104.686088 
L 298.863028 104.686088 
L 298.863028 104.28746 
L 299.092944 104.28746 
L 299.193078 103.091575 
L 299.665084 103.091575 
L 299.665084 102.692947 
L 299.822428 102.692947 
L 299.822428 102.294318 
L 300.178598 102.294318 
L 300.178598 101.89569 
L 302.881661 101.89569 
L 302.881661 101.497062 
L 303.810451 101.497062 
L 303.810451 101.098434 
L 304.821723 101.098434 
L 304.821723 100.699805 
L 313.698671 100.699805 
L 313.757381 99.902549 
L 314.022337 99.902549 
L 314.022337 99.50392 
L 314.784325 99.50392 
L 314.784325 99.105292 
L 314.909805 99.105292 
L 314.909805 98.706664 
L 317.255573 98.706664 
L 317.255573 98.308036 
L 317.776836 98.308036 
L 317.776836 97.909407 
L 320.314806 97.909407 
L 320.314806 97.510779 
L 320.463032 97.510779 
L 320.521665 96.713522 
L 320.763319 96.713522 
L 320.763319 96.314894 
L 321.093369 96.314894 
L 321.093369 95.916266 
L 321.243595 95.916266 
L 321.243595 95.517638 
L 321.565375 95.517638 
L 321.565375 95.119009 
L 325.710742 95.119009 
L 325.710742 94.720381 
L 339.299862 94.720381 
L 339.299862 94.321753 
L 342.359095 94.321753 
L 342.359095 93.923125 
L 343.143887 93.923125 
L 343.143887 93.524496 
L 343.287884 93.524496 
L 343.287884 93.125868 
L 365.188176 93.125868 
L 365.188176 92.72724 
L 366.216489 92.72724 
L 366.216489 92.328611 
L 369.275722 92.328611 
L 369.275722 91.929983 
L 370.204511 91.929983 
L 370.204511 91.531355 
L 392.104803 91.531355 
L 392.104803 91.132727 
L 453.192 91.132727 
L 453.192 91.132727 
" style="fill:none;stroke:#bf00bf;stroke-linecap:square;stroke-width:3;"/>
   </g>
   <g id="line2d_22">
    <path clip-path="url(#pbdc16ad2f5)" style="fill:none;stroke:#bf00bf;stroke-linecap:square;stroke-width:3;"/>
   </g>
   <g id="line2d_23">
    <path clip-path="url(#pbdc16ad2f5)" d="M 34.16 233.044394 
L 154.642002 233.044394 
L 154.642002 232.645766 
L 155.026239 232.645766 
L 155.026239 232.247138 
L 155.667832 232.247138 
L 155.667832 231.84851 
L 156.052069 231.84851 
L 156.052069 231.449881 
L 156.882581 231.449881 
L 156.882581 231.051253 
L 157.266818 231.051253 
L 157.266818 230.652625 
L 160.512425 230.652625 
L 160.512425 230.253997 
L 160.896663 230.253997 
L 160.896663 229.855368 
L 169.951553 229.855368 
L 169.951553 229.45674 
L 170.748602 229.45674 
L 170.748602 229.058112 
L 170.977382 229.058112 
L 170.977382 228.659483 
L 171.291283 228.659483 
L 171.291283 228.260855 
L 171.774432 228.260855 
L 171.774432 227.862227 
L 172.192131 227.862227 
L 172.192131 227.463599 
L 172.317113 227.463599 
L 172.317113 227.06497 
L 172.563724 227.06497 
L 172.563724 226.666342 
L 172.989181 226.666342 
L 172.989181 226.267714 
L 173.39408 226.267714 
L 173.39408 225.869085 
L 173.531862 225.869085 
L 173.589554 225.071829 
L 174.41991 225.071829 
L 174.41991 224.673201 
L 174.804303 224.673201 
L 174.804303 224.274572 
L 175.634659 224.274572 
L 175.634659 223.875944 
L 175.821976 223.875944 
L 175.821976 223.477316 
L 176.619026 223.477316 
L 176.619026 223.078687 
L 177.161706 223.078687 
L 177.161706 222.680059 
L 178.434148 222.680059 
L 178.434148 222.281431 
L 179.264504 222.281431 
L 179.264504 221.882803 
L 181.353117 221.882803 
L 181.353117 221.484174 
L 183.894664 221.484174 
L 183.894664 221.085546 
L 184.0364 221.085546 
L 184.0364 220.686918 
L 184.429538 220.686918 
L 184.429538 220.288289 
L 186.215538 220.288289 
L 186.215538 219.889661 
L 186.577947 219.889661 
L 186.577947 219.491033 
L 187.112821 219.491033 
L 187.112821 219.092405 
L 187.241368 219.092405 
L 187.241368 218.693776 
L 188.456117 218.693776 
L 188.456117 218.295148 
L 190.948654 218.295148 
L 190.948654 217.89652 
L 191.129388 217.89652 
L 191.129388 217.497892 
L 192.085961 217.497892 
L 192.085961 217.099263 
L 193.4902 217.099263 
L 193.4902 216.700635 
L 194.025075 216.700635 
L 194.025075 216.302007 
L 194.652013 216.302007 
L 194.652013 215.903378 
L 195.063134 215.903378 
L 195.063134 215.50475 
L 195.677843 215.50475 
L 195.677843 215.106122 
L 195.895716 215.106122 
L 195.895716 214.707494 
L 196.088964 214.707494 
L 196.088964 214.308865 
L 196.892592 214.308865 
L 196.892592 213.910237 
L 197.303713 213.910237 
L 197.303713 213.511609 
L 198.578999 213.511609 
L 198.578999 213.11298 
L 198.728195 213.11298 
L 198.728195 212.714352 
L 199.610108 212.714352 
L 199.610108 212.315724 
L 199.994345 212.315724 
L 199.994345 211.917096 
L 200.341685 211.917096 
L 200.341685 211.518467 
L 200.522437 211.518467 
L 200.522437 211.119839 
L 200.933557 211.119839 
L 200.933557 210.721211 
L 201.269742 210.721211 
L 201.33322 209.923954 
L 201.717457 209.923954 
L 201.804616 209.126698 
L 202.430234 209.126698 
L 202.430234 208.728069 
L 202.814471 208.728069 
L 202.837843 207.532185 
L 203.214442 207.532185 
L 203.22208 206.734928 
L 203.393247 206.734928 
L 203.393247 206.3363 
L 204.297388 206.3363 
L 204.297388 205.937671 
L 204.681625 205.937671 
L 204.681625 205.539043 
L 205.24388 205.539043 
L 205.24388 205.140415 
L 205.491253 205.140415 
L 205.491253 204.741787 
L 208.001585 204.741787 
L 208.001585 204.343158 
L 208.385822 204.343158 
L 208.385822 203.94453 
L 209.032548 203.94453 
L 209.032548 203.545902 
L 209.755362 203.545902 
L 209.755362 203.147273 
L 209.921936 203.147273 
L 209.921936 202.748645 
L 210.635552 202.748645 
L 210.635552 202.350017 
L 210.793955 202.350017 
L 210.880273 201.154132 
L 212.057462 201.154132 
L 212.057462 200.755504 
L 212.438645 200.755504 
L 212.438645 200.356875 
L 213.270795 200.356875 
L 213.318835 199.559619 
L 214.456177 199.559619 
L 214.456177 199.160991 
L 214.919658 199.160991 
L 214.919658 198.762362 
L 215.716708 198.762362 
L 215.716708 198.363734 
L 216.259389 198.363734 
L 216.259389 197.965106 
L 216.64277 197.965106 
L 216.64277 197.566478 
L 217.43982 197.566478 
L 217.53183 196.370593 
L 217.739785 196.370593 
L 217.739785 195.971964 
L 217.982501 195.971964 
L 217.982501 195.573336 
L 218.139755 195.573336 
L 218.147393 194.77608 
L 218.362186 194.77608 
L 218.362186 194.377451 
L 218.536834 194.377451 
L 218.536834 193.978823 
L 218.936805 193.978823 
L 218.944443 193.181566 
L 219.079515 193.181566 
L 219.134233 192.38431 
L 219.254942 192.38431 
L 219.350899 191.587053 
L 219.479485 191.587053 
L 219.487123 190.789797 
L 219.606938 190.789797 
L 219.606938 190.391168 
L 220.006251 190.391168 
L 220.085298 189.593912 
L 220.231088 189.593912 
L 220.231088 189.195284 
L 220.351956 189.195284 
L 220.403988 188.398027 
L 220.751927 188.398027 
L 220.759565 187.60077 
L 220.946668 187.60077 
L 220.946668 187.202142 
L 221.182312 187.202142 
L 221.269759 186.404886 
L 221.582283 186.404886 
L 221.589921 185.607629 
L 221.795469 185.607629 
L 221.795469 185.209001 
L 222.185794 185.209001 
L 222.21911 184.411744 
L 223.049466 184.411744 
L 223.14704 183.215859 
L 223.311135 183.215859 
L 223.311135 182.817231 
L 224.108185 182.817231 
L 224.108185 182.418603 
L 224.32132 182.418603 
L 224.32132 182.019975 
L 224.650866 182.019975 
L 224.650866 181.621346 
L 224.841713 181.621346 
L 224.841713 181.222718 
L 225.218927 181.222718 
L 225.243022 180.026833 
L 225.923307 180.026833 
L 225.923307 179.628205 
L 226.107139 179.628205 
L 226.131234 178.830948 
L 226.257852 178.830948 
L 226.281947 178.033692 
L 226.441311 178.033692 
L 226.441311 177.635063 
L 226.753663 177.635063 
L 226.757707 176.837807 
L 227.13044 176.837807 
L 227.13044 176.439179 
L 227.825095 176.439179 
L 227.825095 176.04055 
L 228.01063 176.04055 
L 228.103839 174.844666 
L 228.697114 174.844666 
L 228.697114 174.446037 
L 228.975728 174.446037 
L 228.999822 173.648781 
L 229.846486 173.648781 
L 229.846486 173.250152 
L 229.960621 173.250152 
L 229.960621 172.851524 
L 231.183644 172.851524 
L 231.183644 172.452896 
L 231.35924 172.452896 
L 231.35924 172.054268 
L 232.38507 172.054268 
L 232.38507 171.655639 
L 232.906756 171.655639 
L 232.906756 171.257011 
L 233.599819 171.257011 
L 233.599819 170.858383 
L 234.00377 170.858383 
L 234.00377 170.459754 
L 234.40374 170.459754 
L 234.411378 169.662498 
L 235.870923 169.662498 
L 235.909961 168.865241 
L 237.229664 168.865241 
L 237.229664 168.466613 
L 238.71579 168.466613 
L 238.739493 167.669356 
L 239.57512 167.669356 
L 239.620119 166.8721 
L 239.758536 166.8721 
L 239.758536 166.473472 
L 240.03124 166.473472 
L 240.03124 166.074843 
L 240.151263 166.074843 
L 240.170112 165.277587 
L 240.588016 165.277587 
L 240.588016 164.878958 
L 240.804059 164.878958 
L 240.872199 164.081702 
L 240.948313 164.081702 
L 240.948313 163.683074 
L 241.1478 163.683074 
L 241.1478 163.284445 
L 241.343231 163.284445 
L 241.343231 162.885817 
L 241.460035 162.885817 
L 241.490994 162.088561 
L 241.692271 162.088561 
L 241.754352 161.291304 
L 241.842985 161.291304 
L 241.842985 160.892676 
L 242.20072 160.892676 
L 242.20072 160.494047 
L 242.396625 160.494047 
L 242.440245 159.696791 
L 242.723542 159.696791 
L 242.763435 158.899534 
L 242.840216 158.899534 
L 242.935738 157.305021 
L 242.959833 157.305021 
L 242.959833 156.906393 
L 243.251336 156.906393 
L 243.258974 156.109136 
L 243.593791 156.109136 
L 243.664876 155.31188 
L 243.796731 155.31188 
L 243.796731 154.913251 
L 244.209235 154.913251 
L 244.307399 154.115995 
L 244.56086 154.115995 
L 244.56086 153.717367 
L 244.71852 153.717367 
L 244.822561 152.92011 
L 245.097447 152.92011 
L 245.097447 152.521482 
L 245.24816 152.521482 
L 245.24816 152.122854 
L 245.456375 152.122854 
L 245.550254 151.325597 
L 246.03731 151.325597 
L 246.068826 150.52834 
L 246.422273 150.52834 
L 246.482205 149.332456 
L 246.635907 149.332456 
L 246.635907 148.933827 
L 246.990701 148.933827 
L 247.070052 148.136571 
L 247.68578 148.136571 
L 247.696953 147.339314 
L 247.928087 147.339314 
L 248.016531 145.346173 
L 248.422717 145.346173 
L 248.422717 144.947544 
L 248.970833 144.947544 
L 248.970833 144.548916 
L 249.23128 144.548916 
L 249.23128 144.150288 
L 249.667155 144.150288 
L 249.667155 143.75166 
L 250.706617 143.75166 
L 250.706617 143.353031 
L 250.979649 143.353031 
L 251.003352 142.555775 
L 251.326798 142.555775 
L 251.326798 142.157146 
L 252.022394 142.157146 
L 252.022394 141.758518 
L 252.861125 141.758518 
L 252.861125 141.35989 
L 254.53286 141.35989 
L 254.53286 140.961262 
L 255.421072 140.961262 
L 255.510548 140.164005 
L 255.571786 140.164005 
L 255.571786 139.765377 
L 256.315212 139.765377 
L 256.415249 138.569492 
L 256.549473 138.569492 
L 256.642653 137.373607 
L 256.759374 137.373607 
L 256.759374 136.974979 
L 257.393678 136.974979 
L 257.393678 136.576351 
L 257.647586 136.576351 
L 257.661696 135.779094 
L 257.798299 135.779094 
L 257.798299 135.380466 
L 258.289661 135.380466 
L 258.371365 134.583209 
L 258.520871 134.583209 
L 258.520871 134.184581 
L 259.267349 134.184581 
L 259.267349 133.785953 
L 259.620191 133.785953 
L 259.620191 133.387324 
L 260.516175 133.387324 
L 260.516175 132.988696 
L 260.750399 132.988696 
L 260.750399 132.590068 
L 260.993267 132.590068 
L 260.993267 132.191439 
L 261.378377 132.191439 
L 261.378377 131.792811 
L 261.865286 131.792811 
L 261.926046 130.198298 
L 262.175426 130.198298 
L 262.175426 129.79967 
L 262.718107 129.79967 
L 262.718107 129.401042 
L 263.128793 129.401042 
L 263.128793 129.002413 
L 263.842852 129.002413 
L 263.842852 128.603785 
L 263.990548 128.603785 
L 263.990548 128.205157 
L 264.820904 128.205157 
L 264.851724 127.009272 
L 265.262845 127.009272 
L 265.262845 126.610644 
L 265.428454 126.610644 
L 265.428454 126.212015 
L 266.300473 126.212015 
L 266.300473 125.813387 
L 267.56398 125.813387 
L 267.56398 125.414759 
L 269.38187 125.414759 
L 269.405574 124.617502 
L 269.499164 124.617502 
L 269.499164 124.218874 
L 270.371183 124.218874 
L 270.424616 123.421617 
L 271.63469 123.421617 
L 271.63469 123.022989 
L 272.249672 123.022989 
L 272.249672 122.624361 
L 273.227359 122.624361 
L 273.227359 122.225732 
L 274.344108 122.225732 
L 274.367812 121.428476 
L 274.476185 121.428476 
L 274.476185 121.029848 
L 274.763703 121.029848 
L 274.763703 120.631219 
L 275.14794 120.631219 
L 275.14794 120.232591 
L 275.386854 120.232591 
L 275.386854 119.833963 
L 276.327346 119.833963 
L 276.327346 119.435334 
L 277.473862 119.435334 
L 277.473862 119.036706 
L 277.642362 119.036706 
L 277.642362 118.638078 
L 277.957344 118.638078 
L 278.050458 117.840821 
L 279.147472 117.840821 
L 279.147472 117.442193 
L 279.547443 117.442193 
L 279.555081 116.644937 
L 280.879038 116.644937 
L 280.879038 116.246308 
L 281.014626 116.246308 
L 281.014626 115.84768 
L 282.635399 115.84768 
L 282.635399 115.449052 
L 283.507418 115.449052 
L 283.507418 115.050423 
L 284.718823 115.050423 
L 284.770926 114.253167 
L 286.078837 114.253167 
L 286.078837 113.854539 
L 286.489958 113.854539 
L 286.489958 113.45591 
L 288.764837 113.45591 
L 288.764837 113.057282 
L 289.787121 113.057282 
L 289.810825 112.260025 
L 290.073253 112.260025 
L 290.073253 111.861397 
L 290.424481 111.861397 
L 290.487949 111.064141 
L 290.829867 111.064141 
L 290.870303 110.266884 
L 291.202663 110.266884 
L 291.202663 109.868256 
L 291.412984 109.868256 
L 291.412984 109.469627 
L 291.584963 109.469627 
L 291.584963 109.070999 
L 291.958807 109.070999 
L 291.992572 107.875114 
L 292.147592 107.875114 
L 292.180351 107.077858 
L 292.685425 107.077858 
L 292.685425 106.67923 
L 293.244607 106.67923 
L 293.244607 106.280601 
L 293.429176 106.280601 
L 293.515781 105.084716 
L 293.644577 105.084716 
L 293.681919 103.888832 
L 294.222309 103.888832 
L 294.246012 103.091575 
L 294.778933 103.091575 
L 294.778933 102.692947 
L 295.11176 102.692947 
L 295.186542 101.497062 
L 295.265055 101.497062 
L 295.265055 101.098434 
L 296.646087 101.098434 
L 296.646087 100.699805 
L 297.156314 100.699805 
L 297.156314 100.301177 
L 298.293018 100.301177 
L 298.316722 99.50392 
L 298.815957 99.50392 
L 298.815957 99.105292 
L 299.335764 99.105292 
L 299.335764 98.706664 
L 300.350284 98.706664 
L 300.350284 98.308036 
L 301.558951 98.308036 
L 301.558951 97.909407 
L 306.337239 97.909407 
L 306.337239 97.510779 
L 311.429254 97.510779 
L 311.452957 96.713522 
L 312.472 96.713522 
L 312.472 96.314894 
L 313.996442 96.314894 
L 313.996442 95.916266 
L 314.773714 95.916266 
L 314.773714 95.517638 
L 315.184835 95.517638 
L 315.184835 95.119009 
L 315.656086 95.119009 
L 315.656086 94.720381 
L 317.190412 94.720381 
L 317.190412 94.321753 
L 322.786064 94.321753 
L 322.786064 93.923125 
L 335.223556 93.923125 
L 335.223556 93.524496 
L 336.883199 93.524496 
L 336.883199 93.125868 
L 338.417526 93.125868 
L 338.417526 92.72724 
L 351.480941 92.72724 
L 351.480941 92.328611 
L 363.918432 92.328611 
L 363.918432 91.929983 
L 365.578076 91.929983 
L 365.578076 91.531355 
L 367.112402 91.531355 
L 367.112402 91.132727 
L 453.192 91.132727 
L 453.192 91.132727 
" style="fill:none;stroke:#ff0000;stroke-linecap:square;stroke-width:3;"/>
   </g>
   <g id="line2d_24">
    <path clip-path="url(#pbdc16ad2f5)" style="fill:none;stroke:#ff0000;stroke-linecap:square;stroke-width:3;"/>
   </g>
   <g id="line2d_25">
    <path clip-path="url(#pbdc16ad2f5)" d="M 243.676 291.28 
L 243.676 3 
" style="fill:none;stroke:#000000;stroke-linecap:square;stroke-width:1.5;"/>
   </g>
   <g id="line2d_26">
    <path clip-path="url(#pbdc16ad2f5)" d="M 34.16 147.14 
L 453.192 147.14 
" style="fill:none;stroke:#000000;stroke-dasharray:2,3.3;stroke-dashoffset:0;stroke-width:2;"/>
   </g>
   <g id="patch_3">
    <path d="M 34.16 291.28 
L 34.16 3 
" style="fill:none;stroke:#000000;stroke-linecap:square;stroke-linejoin:miter;stroke-width:0.8;"/>
   </g>
   <g id="patch_4">
    <path d="M 453.192 291.28 
L 453.192 3 
" style="fill:none;stroke:#000000;stroke-linecap:square;stroke-linejoin:miter;stroke-width:0.8;"/>
   </g>
   <g id="patch_5">
    <path d="M 34.16 291.28 
L 453.192 291.28 
" style="fill:none;stroke:#000000;stroke-linecap:square;stroke-linejoin:miter;stroke-width:0.8;"/>
   </g>
   <g id="patch_6">
    <path d="M 34.16 3 
L 453.192 3 
" style="fill:none;stroke:#000000;stroke-linecap:square;stroke-linejoin:miter;stroke-width:0.8;"/>
   </g>
   <g id="text_6">
    <!-- f20-f24,10-D -->
    <g transform="translate(318.19261 285.5144)scale(0.2 -0.2)">
     <defs>
      <path d="M 2419 4116 
L 825 1625 
L 2419 1625 
L 2419 4116 
z
M 2253 4666 
L 3047 4666 
L 3047 1625 
L 3713 1625 
L 3713 1100 
L 3047 1100 
L 3047 0 
L 2419 0 
L 2419 1100 
L 313 1100 
L 313 1709 
L 2253 4666 
z
" id="DejaVuSans-34" transform="scale(0.015625)"/>
      <path d="M 750 794 
L 1409 794 
L 1409 256 
L 897 -744 
L 494 -744 
L 750 256 
L 750 794 
z
" id="DejaVuSans-2c" transform="scale(0.015625)"/>
      <path d="M 1259 4147 
L 1259 519 
L 2022 519 
Q 2988 519 3436 956 
Q 3884 1394 3884 2338 
Q 3884 3275 3436 3711 
Q 2988 4147 2022 4147 
L 1259 4147 
z
M 628 4666 
L 1925 4666 
Q 3281 4666 3915 4102 
Q 4550 3538 4550 2338 
Q 4550 1131 3912 565 
Q 3275 0 1925 0 
L 628 0 
L 628 4666 
z
" id="DejaVuSans-44" transform="scale(0.015625)"/>
     </defs>
     <use xlink:href="#DejaVuSans-66"/>
     <use x="35.205078" xlink:href="#DejaVuSans-32"/>
     <use x="98.828125" xlink:href="#DejaVuSans-30"/>
     <use x="162.451172" xlink:href="#DejaVuSans-2d"/>
     <use x="198.535156" xlink:href="#DejaVuSans-66"/>
     <use x="233.740234" xlink:href="#DejaVuSans-32"/>
     <use x="297.363281" xlink:href="#DejaVuSans-34"/>
     <use x="360.986328" xlink:href="#DejaVuSans-2c"/>
     <use x="392.773438" xlink:href="#DejaVuSans-31"/>
     <use x="456.396484" xlink:href="#DejaVuSans-30"/>
     <use x="520.019531" xlink:href="#DejaVuSans-2d"/>
     <use x="556.103516" xlink:href="#DejaVuSans-44"/>
    </g>
   </g>
   <g id="text_7">
    <!-- v2.6.3 -->
    <g style="fill:#808080;" transform="translate(227.99475 286.317512)scale(0.1 -0.1)">
     <defs>
      <path d="M 684 794 
L 1344 794 
L 1344 0 
L 684 0 
L 684 794 
z
" id="DejaVuSans-2e" transform="scale(0.015625)"/>
      <path d="M 2113 2584 
Q 1688 2584 1439 2293 
Q 1191 2003 1191 1497 
Q 1191 994 1439 701 
Q 1688 409 2113 409 
Q 2538 409 2786 701 
Q 3034 994 3034 1497 
Q 3034 2003 2786 2293 
Q 2538 2584 2113 2584 
z
M 3366 4563 
L 3366 3988 
Q 3128 4100 2886 4159 
Q 2644 4219 2406 4219 
Q 1781 4219 1451 3797 
Q 1122 3375 1075 2522 
Q 1259 2794 1537 2939 
Q 1816 3084 2150 3084 
Q 2853 3084 3261 2657 
Q 3669 2231 3669 1497 
Q 3669 778 3244 343 
Q 2819 -91 2113 -91 
Q 1303 -91 875 529 
Q 447 1150 447 2328 
Q 447 3434 972 4092 
Q 1497 4750 2381 4750 
Q 2619 4750 2861 4703 
Q 3103 4656 3366 4563 
z
" id="DejaVuSans-36" transform="scale(0.015625)"/>
      <path d="M 2597 2516 
Q 3050 2419 3304 2112 
Q 3559 1806 3559 1356 
Q 3559 666 3084 287 
Q 2609 -91 1734 -91 
Q 1441 -91 1130 -33 
Q 819 25 488 141 
L 488 750 
Q 750 597 1062 519 
Q 1375 441 1716 441 
Q 2309 441 2620 675 
Q 2931 909 2931 1356 
Q 2931 1769 2642 2001 
Q 2353 2234 1838 2234 
L 1294 2234 
L 1294 2753 
L 1863 2753 
Q 2328 2753 2575 2939 
Q 2822 3125 2822 3475 
Q 2822 3834 2567 4026 
Q 2313 4219 1838 4219 
Q 1578 4219 1281 4162 
Q 984 4106 628 3988 
L 628 4550 
Q 988 4650 1302 4700 
Q 1616 4750 1894 4750 
Q 2613 4750 3031 4423 
Q 3450 4097 3450 3541 
Q 3450 3153 3228 2886 
Q 3006 2619 2597 2516 
z
" id="DejaVuSans-33" transform="scale(0.015625)"/>
     </defs>
     <use xlink:href="#DejaVuSans-76"/>
     <use x="59.179688" xlink:href="#DejaVuSans-32"/>
     <use x="122.802734" xlink:href="#DejaVuSans-2e"/>
     <use x="154.589844" xlink:href="#DejaVuSans-36"/>
     <use x="218.212891" xlink:href="#DejaVuSans-2e"/>
     <use x="250" xlink:href="#DejaVuSans-33"/>
    </g>
   </g>
   <g id="legend_1">
    <g id="patch_7">
     <path d="M 48.16 136.425 
L 177.381875 136.425 
Q 181.381875 136.425 181.381875 132.425 
L 181.381875 17 
Q 181.381875 13 177.381875 13 
L 48.16 13 
Q 44.16 13 44.16 17 
L 44.16 132.425 
Q 44.16 136.425 48.16 136.425 
z
" style="fill:#ffffff;opacity:0.2;stroke:#cccccc;stroke-linejoin:miter;"/>
    </g>
    <g id="line2d_27">
     <path d="M 52.16 29.196875 
L 92.16 29.196875 
" style="fill:none;stroke:#000000;stroke-linecap:square;stroke-width:3;"/>
    </g>
    <g id="line2d_28"/>
    <g id="text_8">
     <!-- 1: 5/5 -->
     <g transform="translate(108.16 36.196875)scale(0.2 -0.2)">
      <defs>
       <path d="M 750 794 
L 1409 794 
L 1409 0 
L 750 0 
L 750 794 
z
M 750 3309 
L 1409 3309 
L 1409 2516 
L 750 2516 
L 750 3309 
z
" id="DejaVuSans-3a" transform="scale(0.015625)"/>
       <path d="M 691 4666 
L 3169 4666 
L 3169 4134 
L 1269 4134 
L 1269 2991 
Q 1406 3038 1543 3061 
Q 1681 3084 1819 3084 
Q 2600 3084 3056 2656 
Q 3513 2228 3513 1497 
Q 3513 744 3044 326 
Q 2575 -91 1722 -91 
Q 1428 -91 1123 -41 
Q 819 9 494 109 
L 494 744 
Q 775 591 1075 516 
Q 1375 441 1709 441 
Q 2250 441 2565 725 
Q 2881 1009 2881 1497 
Q 2881 1984 2565 2268 
Q 2250 2553 1709 2553 
Q 1456 2553 1204 2497 
Q 953 2441 691 2322 
L 691 4666 
z
" id="DejaVuSans-35" transform="scale(0.015625)"/>
       <path d="M 1625 4666 
L 2156 4666 
L 531 -594 
L 0 -594 
L 1625 4666 
z
" id="DejaVuSans-2f" transform="scale(0.015625)"/>
      </defs>
      <use xlink:href="#DejaVuSans-31"/>
      <use x="63.623047" xlink:href="#DejaVuSans-3a"/>
      <use x="97.314453" xlink:href="#DejaVuSans-20"/>
      <use x="129.101562" xlink:href="#DejaVuSans-35"/>
      <use x="192.724609" xlink:href="#DejaVuSans-2f"/>
      <use x="226.416016" xlink:href="#DejaVuSans-35"/>
     </g>
    </g>
    <g id="line2d_29">
     <path d="M 52.16 58.553125 
L 92.16 58.553125 
" style="fill:none;stroke:#00bfbf;stroke-linecap:square;stroke-width:3;"/>
    </g>
    <g id="line2d_30"/>
    <g id="text_9">
     <!-- -1: 4/4 -->
     <g transform="translate(108.16 65.553125)scale(0.2 -0.2)">
      <use xlink:href="#DejaVuSans-2d"/>
      <use x="36.083984" xlink:href="#DejaVuSans-31"/>
      <use x="99.707031" xlink:href="#DejaVuSans-3a"/>
      <use x="133.398438" xlink:href="#DejaVuSans-20"/>
      <use x="165.185547" xlink:href="#DejaVuSans-34"/>
      <use x="228.808594" xlink:href="#DejaVuSans-2f"/>
      <use x="262.5" xlink:href="#DejaVuSans-34"/>
     </g>
    </g>
    <g id="line2d_31">
     <path d="M 52.16 87.909375 
L 92.16 87.909375 
" style="fill:none;stroke:#bf00bf;stroke-linecap:square;stroke-width:3;"/>
    </g>
    <g id="line2d_32"/>
    <g id="text_10">
     <!-- -4: 4/4 -->
     <g transform="translate(108.16 94.909375)scale(0.2 -0.2)">
      <use xlink:href="#DejaVuSans-2d"/>
      <use x="36.083984" xlink:href="#DejaVuSans-34"/>
      <use x="99.707031" xlink:href="#DejaVuSans-3a"/>
      <use x="133.398438" xlink:href="#DejaVuSans-20"/>
      <use x="165.185547" xlink:href="#DejaVuSans-34"/>
      <use x="228.808594" xlink:href="#DejaVuSans-2f"/>
      <use x="262.5" xlink:href="#DejaVuSans-34"/>
     </g>
    </g>
    <g id="line2d_33">
     <path d="M 52.16 117.265625 
L 92.16 117.265625 
" style="fill:none;stroke:#ff0000;stroke-linecap:square;stroke-width:3;"/>
    </g>
    <g id="line2d_34"/>
    <g id="text_11">
     <!-- -8: 4/4 -->
     <g transform="translate(108.16 124.265625)scale(0.2 -0.2)">
      <defs>
       <path d="M 2034 2216 
Q 1584 2216 1326 1975 
Q 1069 1734 1069 1313 
Q 1069 891 1326 650 
Q 1584 409 2034 409 
Q 2484 409 2743 651 
Q 3003 894 3003 1313 
Q 3003 1734 2745 1975 
Q 2488 2216 2034 2216 
z
M 1403 2484 
Q 997 2584 770 2862 
Q 544 3141 544 3541 
Q 544 4100 942 4425 
Q 1341 4750 2034 4750 
Q 2731 4750 3128 4425 
Q 3525 4100 3525 3541 
Q 3525 3141 3298 2862 
Q 3072 2584 2669 2484 
Q 3125 2378 3379 2068 
Q 3634 1759 3634 1313 
Q 3634 634 3220 271 
Q 2806 -91 2034 -91 
Q 1263 -91 848 271 
Q 434 634 434 1313 
Q 434 1759 690 2068 
Q 947 2378 1403 2484 
z
M 1172 3481 
Q 1172 3119 1398 2916 
Q 1625 2713 2034 2713 
Q 2441 2713 2670 2916 
Q 2900 3119 2900 3481 
Q 2900 3844 2670 4047 
Q 2441 4250 2034 4250 
Q 1625 4250 1398 4047 
Q 1172 3844 1172 3481 
z
" id="DejaVuSans-38" transform="scale(0.015625)"/>
      </defs>
      <use xlink:href="#DejaVuSans-2d"/>
      <use x="36.083984" xlink:href="#DejaVuSans-38"/>
      <use x="99.707031" xlink:href="#DejaVuSans-3a"/>
      <use x="133.398438" xlink:href="#DejaVuSans-20"/>
      <use x="165.185547" xlink:href="#DejaVuSans-34"/>
      <use x="228.808594" xlink:href="#DejaVuSans-2f"/>
      <use x="262.5" xlink:href="#DejaVuSans-34"/>
     </g>
    </g>
   </g>
  </g>
 </g>
 <defs>
  <clipPath id="pbdc16ad2f5">
   <rect height="288.28" width="419.032" x="34.16" y="3"/>
  </clipPath>
 </defs>
</svg>
