<?xml version="1.0" encoding="utf-8" standalone="no"?>
<!DOCTYPE svg PUBLIC "-//W3C//DTD SVG 1.1//EN"
  "http://www.w3.org/Graphics/SVG/1.1/DTD/svg11.dtd">
<svg height="345.6pt" version="1.1" viewBox="0 0 460.8 345.6" width="460.8pt" xmlns="http://www.w3.org/2000/svg" xmlns:xlink="http://www.w3.org/1999/xlink">
 <metadata>
  <rdf:RDF xmlns:cc="http://creativecommons.org/ns#" xmlns:dc="http://purl.org/dc/elements/1.1/" xmlns:rdf="http://www.w3.org/1999/02/22-rdf-syntax-ns#">
   <cc:Work>
    <dc:type rdf:resource="http://purl.org/dc/dcmitype/StillImage"/>
    <dc:date>2023-04-17T19:00:55.659342</dc:date>
    <dc:format>image/svg+xml</dc:format>
    <dc:creator>
     <cc:Agent>
      <dc:title>Matplotlib v3.4.1, https://matplotlib.org/</dc:title>
     </cc:Agent>
    </dc:creator>
   </cc:Work>
  </rdf:RDF>
 </metadata>
 <defs>
  <style type="text/css">*{stroke-linecap:butt;stroke-linejoin:round;}</style>
 </defs>
 <g id="figure_1">
  <g id="patch_1">
   <path d="M 0 345.6 
L 460.8 345.6 
L 460.8 0 
L 0 0 
z
" style="fill:#ffffff;"/>
  </g>
  <g id="axes_1">
   <g id="patch_2">
    <path d="M 34.16 291.28 
L 453.192 291.28 
L 453.192 3 
L 34.16 3 
z
" style="fill:#ffffff;"/>
   </g>
   <g id="matplotlib.axis_1">
    <g id="xtick_1">
     <g id="line2d_1">
      <path clip-path="url(#pede5451856)" d="M 164.217629 291.28 
L 164.217629 3 
" style="fill:none;stroke:#b0b0b0;stroke-linecap:square;stroke-width:0.8;"/>
     </g>
     <g id="line2d_2">
      <defs>
       <path d="M 0 0 
L 0 3.5 
" id="m310d16d5dd" style="stroke:#000000;stroke-width:0.8;"/>
      </defs>
      <g>
       <use style="stroke:#000000;stroke-width:0.8;" x="164.217629" xlink:href="#m310d16d5dd" y="291.28"/>
      </g>
     </g>
     <g id="text_1">
      <!-- -1 -->
      <g transform="translate(154.247317 313.476875)scale(0.2 -0.2)">
       <defs>
        <path d="M 313 2009 
L 1997 2009 
L 1997 1497 
L 313 1497 
L 313 2009 
z
" id="DejaVuSans-2d" transform="scale(0.015625)"/>
        <path d="M 794 531 
L 1825 531 
L 1825 4091 
L 703 3866 
L 703 4441 
L 1819 4666 
L 2450 4666 
L 2450 531 
L 3481 531 
L 3481 0 
L 794 0 
L 794 531 
z
" id="DejaVuSans-31" transform="scale(0.015625)"/>
       </defs>
       <use xlink:href="#DejaVuSans-2d"/>
       <use x="36.083984" xlink:href="#DejaVuSans-31"/>
      </g>
     </g>
    </g>
    <g id="xtick_2">
     <g id="line2d_3">
      <path clip-path="url(#pede5451856)" d="M 323.134371 291.28 
L 323.134371 3 
" style="fill:none;stroke:#b0b0b0;stroke-linecap:square;stroke-width:0.8;"/>
     </g>
     <g id="line2d_4">
      <g>
       <use style="stroke:#000000;stroke-width:0.8;" x="323.134371" xlink:href="#m310d16d5dd" y="291.28"/>
      </g>
     </g>
     <g id="text_2">
      <!-- 1 -->
      <g transform="translate(316.771871 313.476875)scale(0.2 -0.2)">
       <use xlink:href="#DejaVuSans-31"/>
      </g>
     </g>
    </g>
    <g id="xtick_3">
     <g id="line2d_5">
      <defs>
       <path d="M 0 0 
L 0 2 
" id="m2d2fcec909" style="stroke:#000000;stroke-width:0.6;"/>
      </defs>
      <g>
       <use style="stroke:#000000;stroke-width:0.6;" x="43.212166" xlink:href="#m2d2fcec909" y="291.28"/>
      </g>
     </g>
    </g>
    <g id="xtick_4">
     <g id="line2d_6">
      <g>
       <use style="stroke:#000000;stroke-width:0.6;" x="53.139594" xlink:href="#m2d2fcec909" y="291.28"/>
      </g>
     </g>
    </g>
    <g id="xtick_5">
     <g id="line2d_7">
      <g>
       <use style="stroke:#000000;stroke-width:0.6;" x="60.839906" xlink:href="#m2d2fcec909" y="291.28"/>
      </g>
     </g>
    </g>
    <g id="xtick_6">
     <g id="line2d_8">
      <g>
       <use style="stroke:#000000;stroke-width:0.6;" x="67.131519" xlink:href="#m2d2fcec909" y="291.28"/>
      </g>
     </g>
    </g>
    <g id="xtick_7">
     <g id="line2d_9">
      <g>
       <use style="stroke:#000000;stroke-width:0.6;" x="72.451002" xlink:href="#m2d2fcec909" y="291.28"/>
      </g>
     </g>
    </g>
    <g id="xtick_8">
     <g id="line2d_10">
      <g>
       <use style="stroke:#000000;stroke-width:0.6;" x="77.058947" xlink:href="#m2d2fcec909" y="291.28"/>
      </g>
     </g>
    </g>
    <g id="xtick_9">
     <g id="line2d_11">
      <g>
       <use style="stroke:#000000;stroke-width:0.6;" x="81.123443" xlink:href="#m2d2fcec909" y="291.28"/>
      </g>
     </g>
    </g>
    <g id="xtick_10">
     <g id="line2d_12">
      <g>
       <use style="stroke:#000000;stroke-width:0.6;" x="108.678612" xlink:href="#m2d2fcec909" y="291.28"/>
      </g>
     </g>
    </g>
    <g id="xtick_11">
     <g id="line2d_13">
      <g>
       <use style="stroke:#000000;stroke-width:0.6;" x="122.670536" xlink:href="#m2d2fcec909" y="291.28"/>
      </g>
     </g>
    </g>
    <g id="xtick_12">
     <g id="line2d_14">
      <g>
       <use style="stroke:#000000;stroke-width:0.6;" x="132.597965" xlink:href="#m2d2fcec909" y="291.28"/>
      </g>
     </g>
    </g>
    <g id="xtick_13">
     <g id="line2d_15">
      <g>
       <use style="stroke:#000000;stroke-width:0.6;" x="140.298276" xlink:href="#m2d2fcec909" y="291.28"/>
      </g>
     </g>
    </g>
    <g id="xtick_14">
     <g id="line2d_16">
      <g>
       <use style="stroke:#000000;stroke-width:0.6;" x="146.589889" xlink:href="#m2d2fcec909" y="291.28"/>
      </g>
     </g>
    </g>
    <g id="xtick_15">
     <g id="line2d_17">
      <g>
       <use style="stroke:#000000;stroke-width:0.6;" x="151.909372" xlink:href="#m2d2fcec909" y="291.28"/>
      </g>
     </g>
    </g>
    <g id="xtick_16">
     <g id="line2d_18">
      <g>
       <use style="stroke:#000000;stroke-width:0.6;" x="156.517318" xlink:href="#m2d2fcec909" y="291.28"/>
      </g>
     </g>
    </g>
    <g id="xtick_17">
     <g id="line2d_19">
      <g>
       <use style="stroke:#000000;stroke-width:0.6;" x="160.581814" xlink:href="#m2d2fcec909" y="291.28"/>
      </g>
     </g>
    </g>
    <g id="xtick_18">
     <g id="line2d_20">
      <g>
       <use style="stroke:#000000;stroke-width:0.6;" x="188.136982" xlink:href="#m2d2fcec909" y="291.28"/>
      </g>
     </g>
    </g>
    <g id="xtick_19">
     <g id="line2d_21">
      <g>
       <use style="stroke:#000000;stroke-width:0.6;" x="202.128907" xlink:href="#m2d2fcec909" y="291.28"/>
      </g>
     </g>
    </g>
    <g id="xtick_20">
     <g id="line2d_22">
      <g>
       <use style="stroke:#000000;stroke-width:0.6;" x="212.056335" xlink:href="#m2d2fcec909" y="291.28"/>
      </g>
     </g>
    </g>
    <g id="xtick_21">
     <g id="line2d_23">
      <g>
       <use style="stroke:#000000;stroke-width:0.6;" x="219.756647" xlink:href="#m2d2fcec909" y="291.28"/>
      </g>
     </g>
    </g>
    <g id="xtick_22">
     <g id="line2d_24">
      <g>
       <use style="stroke:#000000;stroke-width:0.6;" x="226.04826" xlink:href="#m2d2fcec909" y="291.28"/>
      </g>
     </g>
    </g>
    <g id="xtick_23">
     <g id="line2d_25">
      <g>
       <use style="stroke:#000000;stroke-width:0.6;" x="231.367743" xlink:href="#m2d2fcec909" y="291.28"/>
      </g>
     </g>
    </g>
    <g id="xtick_24">
     <g id="line2d_26">
      <g>
       <use style="stroke:#000000;stroke-width:0.6;" x="235.975688" xlink:href="#m2d2fcec909" y="291.28"/>
      </g>
     </g>
    </g>
    <g id="xtick_25">
     <g id="line2d_27">
      <g>
       <use style="stroke:#000000;stroke-width:0.6;" x="240.040184" xlink:href="#m2d2fcec909" y="291.28"/>
      </g>
     </g>
    </g>
    <g id="xtick_26">
     <g id="line2d_28">
      <g>
       <use style="stroke:#000000;stroke-width:0.6;" x="267.595353" xlink:href="#m2d2fcec909" y="291.28"/>
      </g>
     </g>
    </g>
    <g id="xtick_27">
     <g id="line2d_29">
      <g>
       <use style="stroke:#000000;stroke-width:0.6;" x="281.587277" xlink:href="#m2d2fcec909" y="291.28"/>
      </g>
     </g>
    </g>
    <g id="xtick_28">
     <g id="line2d_30">
      <g>
       <use style="stroke:#000000;stroke-width:0.6;" x="291.514706" xlink:href="#m2d2fcec909" y="291.28"/>
      </g>
     </g>
    </g>
    <g id="xtick_29">
     <g id="line2d_31">
      <g>
       <use style="stroke:#000000;stroke-width:0.6;" x="299.215018" xlink:href="#m2d2fcec909" y="291.28"/>
      </g>
     </g>
    </g>
    <g id="xtick_30">
     <g id="line2d_32">
      <g>
       <use style="stroke:#000000;stroke-width:0.6;" x="305.50663" xlink:href="#m2d2fcec909" y="291.28"/>
      </g>
     </g>
    </g>
    <g id="xtick_31">
     <g id="line2d_33">
      <g>
       <use style="stroke:#000000;stroke-width:0.6;" x="310.826113" xlink:href="#m2d2fcec909" y="291.28"/>
      </g>
     </g>
    </g>
    <g id="xtick_32">
     <g id="line2d_34">
      <g>
       <use style="stroke:#000000;stroke-width:0.6;" x="315.434059" xlink:href="#m2d2fcec909" y="291.28"/>
      </g>
     </g>
    </g>
    <g id="xtick_33">
     <g id="line2d_35">
      <g>
       <use style="stroke:#000000;stroke-width:0.6;" x="319.498555" xlink:href="#m2d2fcec909" y="291.28"/>
      </g>
     </g>
    </g>
    <g id="xtick_34">
     <g id="line2d_36">
      <g>
       <use style="stroke:#000000;stroke-width:0.6;" x="347.053724" xlink:href="#m2d2fcec909" y="291.28"/>
      </g>
     </g>
    </g>
    <g id="xtick_35">
     <g id="line2d_37">
      <g>
       <use style="stroke:#000000;stroke-width:0.6;" x="361.045648" xlink:href="#m2d2fcec909" y="291.28"/>
      </g>
     </g>
    </g>
    <g id="xtick_36">
     <g id="line2d_38">
      <g>
       <use style="stroke:#000000;stroke-width:0.6;" x="370.973076" xlink:href="#m2d2fcec909" y="291.28"/>
      </g>
     </g>
    </g>
    <g id="xtick_37">
     <g id="line2d_39">
      <g>
       <use style="stroke:#000000;stroke-width:0.6;" x="378.673388" xlink:href="#m2d2fcec909" y="291.28"/>
      </g>
     </g>
    </g>
    <g id="xtick_38">
     <g id="line2d_40">
      <g>
       <use style="stroke:#000000;stroke-width:0.6;" x="384.965001" xlink:href="#m2d2fcec909" y="291.28"/>
      </g>
     </g>
    </g>
    <g id="xtick_39">
     <g id="line2d_41">
      <g>
       <use style="stroke:#000000;stroke-width:0.6;" x="390.284484" xlink:href="#m2d2fcec909" y="291.28"/>
      </g>
     </g>
    </g>
    <g id="xtick_40">
     <g id="line2d_42">
      <g>
       <use style="stroke:#000000;stroke-width:0.6;" x="394.892429" xlink:href="#m2d2fcec909" y="291.28"/>
      </g>
     </g>
    </g>
    <g id="xtick_41">
     <g id="line2d_43">
      <g>
       <use style="stroke:#000000;stroke-width:0.6;" x="398.956925" xlink:href="#m2d2fcec909" y="291.28"/>
      </g>
     </g>
    </g>
    <g id="xtick_42">
     <g id="line2d_44">
      <g>
       <use style="stroke:#000000;stroke-width:0.6;" x="426.512094" xlink:href="#m2d2fcec909" y="291.28"/>
      </g>
     </g>
    </g>
    <g id="xtick_43">
     <g id="line2d_45">
      <g>
       <use style="stroke:#000000;stroke-width:0.6;" x="440.504019" xlink:href="#m2d2fcec909" y="291.28"/>
      </g>
     </g>
    </g>
    <g id="xtick_44">
     <g id="line2d_46">
      <g>
       <use style="stroke:#000000;stroke-width:0.6;" x="450.431447" xlink:href="#m2d2fcec909" y="291.28"/>
      </g>
     </g>
    </g>
    <g id="text_3">
     <!-- log10 of FEvals ratio -->
     <g transform="translate(141.371312 336.833125)scale(0.2 -0.2)">
      <defs>
       <path d="M 603 4863 
L 1178 4863 
L 1178 0 
L 603 0 
L 603 4863 
z
" id="DejaVuSans-6c" transform="scale(0.015625)"/>
       <path d="M 1959 3097 
Q 1497 3097 1228 2736 
Q 959 2375 959 1747 
Q 959 1119 1226 758 
Q 1494 397 1959 397 
Q 2419 397 2687 759 
Q 2956 1122 2956 1747 
Q 2956 2369 2687 2733 
Q 2419 3097 1959 3097 
z
M 1959 3584 
Q 2709 3584 3137 3096 
Q 3566 2609 3566 1747 
Q 3566 888 3137 398 
Q 2709 -91 1959 -91 
Q 1206 -91 779 398 
Q 353 888 353 1747 
Q 353 2609 779 3096 
Q 1206 3584 1959 3584 
z
" id="DejaVuSans-6f" transform="scale(0.015625)"/>
       <path d="M 2906 1791 
Q 2906 2416 2648 2759 
Q 2391 3103 1925 3103 
Q 1463 3103 1205 2759 
Q 947 2416 947 1791 
Q 947 1169 1205 825 
Q 1463 481 1925 481 
Q 2391 481 2648 825 
Q 2906 1169 2906 1791 
z
M 3481 434 
Q 3481 -459 3084 -895 
Q 2688 -1331 1869 -1331 
Q 1566 -1331 1297 -1286 
Q 1028 -1241 775 -1147 
L 775 -588 
Q 1028 -725 1275 -790 
Q 1522 -856 1778 -856 
Q 2344 -856 2625 -561 
Q 2906 -266 2906 331 
L 2906 616 
Q 2728 306 2450 153 
Q 2172 0 1784 0 
Q 1141 0 747 490 
Q 353 981 353 1791 
Q 353 2603 747 3093 
Q 1141 3584 1784 3584 
Q 2172 3584 2450 3431 
Q 2728 3278 2906 2969 
L 2906 3500 
L 3481 3500 
L 3481 434 
z
" id="DejaVuSans-67" transform="scale(0.015625)"/>
       <path d="M 2034 4250 
Q 1547 4250 1301 3770 
Q 1056 3291 1056 2328 
Q 1056 1369 1301 889 
Q 1547 409 2034 409 
Q 2525 409 2770 889 
Q 3016 1369 3016 2328 
Q 3016 3291 2770 3770 
Q 2525 4250 2034 4250 
z
M 2034 4750 
Q 2819 4750 3233 4129 
Q 3647 3509 3647 2328 
Q 3647 1150 3233 529 
Q 2819 -91 2034 -91 
Q 1250 -91 836 529 
Q 422 1150 422 2328 
Q 422 3509 836 4129 
Q 1250 4750 2034 4750 
z
" id="DejaVuSans-30" transform="scale(0.015625)"/>
       <path id="DejaVuSans-20" transform="scale(0.015625)"/>
       <path d="M 2375 4863 
L 2375 4384 
L 1825 4384 
Q 1516 4384 1395 4259 
Q 1275 4134 1275 3809 
L 1275 3500 
L 2222 3500 
L 2222 3053 
L 1275 3053 
L 1275 0 
L 697 0 
L 697 3053 
L 147 3053 
L 147 3500 
L 697 3500 
L 697 3744 
Q 697 4328 969 4595 
Q 1241 4863 1831 4863 
L 2375 4863 
z
" id="DejaVuSans-66" transform="scale(0.015625)"/>
       <path d="M 628 4666 
L 3309 4666 
L 3309 4134 
L 1259 4134 
L 1259 2759 
L 3109 2759 
L 3109 2228 
L 1259 2228 
L 1259 0 
L 628 0 
L 628 4666 
z
" id="DejaVuSans-46" transform="scale(0.015625)"/>
       <path d="M 628 4666 
L 3578 4666 
L 3578 4134 
L 1259 4134 
L 1259 2753 
L 3481 2753 
L 3481 2222 
L 1259 2222 
L 1259 531 
L 3634 531 
L 3634 0 
L 628 0 
L 628 4666 
z
" id="DejaVuSans-45" transform="scale(0.015625)"/>
       <path d="M 191 3500 
L 800 3500 
L 1894 563 
L 2988 3500 
L 3597 3500 
L 2284 0 
L 1503 0 
L 191 3500 
z
" id="DejaVuSans-76" transform="scale(0.015625)"/>
       <path d="M 2194 1759 
Q 1497 1759 1228 1600 
Q 959 1441 959 1056 
Q 959 750 1161 570 
Q 1363 391 1709 391 
Q 2188 391 2477 730 
Q 2766 1069 2766 1631 
L 2766 1759 
L 2194 1759 
z
M 3341 1997 
L 3341 0 
L 2766 0 
L 2766 531 
Q 2569 213 2275 61 
Q 1981 -91 1556 -91 
Q 1019 -91 701 211 
Q 384 513 384 1019 
Q 384 1609 779 1909 
Q 1175 2209 1959 2209 
L 2766 2209 
L 2766 2266 
Q 2766 2663 2505 2880 
Q 2244 3097 1772 3097 
Q 1472 3097 1187 3025 
Q 903 2953 641 2809 
L 641 3341 
Q 956 3463 1253 3523 
Q 1550 3584 1831 3584 
Q 2591 3584 2966 3190 
Q 3341 2797 3341 1997 
z
" id="DejaVuSans-61" transform="scale(0.015625)"/>
       <path d="M 2834 3397 
L 2834 2853 
Q 2591 2978 2328 3040 
Q 2066 3103 1784 3103 
Q 1356 3103 1142 2972 
Q 928 2841 928 2578 
Q 928 2378 1081 2264 
Q 1234 2150 1697 2047 
L 1894 2003 
Q 2506 1872 2764 1633 
Q 3022 1394 3022 966 
Q 3022 478 2636 193 
Q 2250 -91 1575 -91 
Q 1294 -91 989 -36 
Q 684 19 347 128 
L 347 722 
Q 666 556 975 473 
Q 1284 391 1588 391 
Q 1994 391 2212 530 
Q 2431 669 2431 922 
Q 2431 1156 2273 1281 
Q 2116 1406 1581 1522 
L 1381 1569 
Q 847 1681 609 1914 
Q 372 2147 372 2553 
Q 372 3047 722 3315 
Q 1072 3584 1716 3584 
Q 2034 3584 2315 3537 
Q 2597 3491 2834 3397 
z
" id="DejaVuSans-73" transform="scale(0.015625)"/>
       <path d="M 2631 2963 
Q 2534 3019 2420 3045 
Q 2306 3072 2169 3072 
Q 1681 3072 1420 2755 
Q 1159 2438 1159 1844 
L 1159 0 
L 581 0 
L 581 3500 
L 1159 3500 
L 1159 2956 
Q 1341 3275 1631 3429 
Q 1922 3584 2338 3584 
Q 2397 3584 2469 3576 
Q 2541 3569 2628 3553 
L 2631 2963 
z
" id="DejaVuSans-72" transform="scale(0.015625)"/>
       <path d="M 1172 4494 
L 1172 3500 
L 2356 3500 
L 2356 3053 
L 1172 3053 
L 1172 1153 
Q 1172 725 1289 603 
Q 1406 481 1766 481 
L 2356 481 
L 2356 0 
L 1766 0 
Q 1100 0 847 248 
Q 594 497 594 1153 
L 594 3053 
L 172 3053 
L 172 3500 
L 594 3500 
L 594 4494 
L 1172 4494 
z
" id="DejaVuSans-74" transform="scale(0.015625)"/>
       <path d="M 603 3500 
L 1178 3500 
L 1178 0 
L 603 0 
L 603 3500 
z
M 603 4863 
L 1178 4863 
L 1178 4134 
L 603 4134 
L 603 4863 
z
" id="DejaVuSans-69" transform="scale(0.015625)"/>
      </defs>
      <use xlink:href="#DejaVuSans-6c"/>
      <use x="27.783203" xlink:href="#DejaVuSans-6f"/>
      <use x="88.964844" xlink:href="#DejaVuSans-67"/>
      <use x="152.441406" xlink:href="#DejaVuSans-31"/>
      <use x="216.064453" xlink:href="#DejaVuSans-30"/>
      <use x="279.6875" xlink:href="#DejaVuSans-20"/>
      <use x="311.474609" xlink:href="#DejaVuSans-6f"/>
      <use x="372.65625" xlink:href="#DejaVuSans-66"/>
      <use x="407.861328" xlink:href="#DejaVuSans-20"/>
      <use x="439.648438" xlink:href="#DejaVuSans-46"/>
      <use x="497.167969" xlink:href="#DejaVuSans-45"/>
      <use x="560.351562" xlink:href="#DejaVuSans-76"/>
      <use x="619.53125" xlink:href="#DejaVuSans-61"/>
      <use x="680.810547" xlink:href="#DejaVuSans-6c"/>
      <use x="708.59375" xlink:href="#DejaVuSans-73"/>
      <use x="760.693359" xlink:href="#DejaVuSans-20"/>
      <use x="792.480469" xlink:href="#DejaVuSans-72"/>
      <use x="833.59375" xlink:href="#DejaVuSans-61"/>
      <use x="894.873047" xlink:href="#DejaVuSans-74"/>
      <use x="934.082031" xlink:href="#DejaVuSans-69"/>
      <use x="961.865234" xlink:href="#DejaVuSans-6f"/>
     </g>
    </g>
   </g>
   <g id="matplotlib.axis_2">
    <g id="ytick_1">
     <g id="line2d_47">
      <path clip-path="url(#pede5451856)" d="M 34.16 288.453725 
L 453.192 288.453725 
" style="fill:none;stroke:#b0b0b0;stroke-linecap:square;stroke-width:0.8;"/>
     </g>
     <g id="line2d_48">
      <defs>
       <path d="M 0 0 
L -3.5 0 
" id="m2f22e24317" style="stroke:#000000;stroke-width:0.8;"/>
      </defs>
      <g>
       <use style="stroke:#000000;stroke-width:0.8;" x="34.16" xlink:href="#m2f22e24317" y="288.453725"/>
      </g>
     </g>
    </g>
    <g id="ytick_2">
     <g id="line2d_49">
      <path clip-path="url(#pede5451856)" d="M 34.16 217.796863 
L 453.192 217.796863 
" style="fill:none;stroke:#b0b0b0;stroke-linecap:square;stroke-width:0.8;"/>
     </g>
     <g id="line2d_50">
      <g>
       <use style="stroke:#000000;stroke-width:0.8;" x="34.16" xlink:href="#m2f22e24317" y="217.796863"/>
      </g>
     </g>
    </g>
    <g id="ytick_3">
     <g id="line2d_51">
      <path clip-path="url(#pede5451856)" d="M 34.16 147.14 
L 453.192 147.14 
" style="fill:none;stroke:#b0b0b0;stroke-linecap:square;stroke-width:0.8;"/>
     </g>
     <g id="line2d_52">
      <g>
       <use style="stroke:#000000;stroke-width:0.8;" x="34.16" xlink:href="#m2f22e24317" y="147.14"/>
      </g>
     </g>
    </g>
    <g id="ytick_4">
     <g id="line2d_53">
      <path clip-path="url(#pede5451856)" d="M 34.16 76.483137 
L 453.192 76.483137 
" style="fill:none;stroke:#b0b0b0;stroke-linecap:square;stroke-width:0.8;"/>
     </g>
     <g id="line2d_54">
      <g>
       <use style="stroke:#000000;stroke-width:0.8;" x="34.16" xlink:href="#m2f22e24317" y="76.483137"/>
      </g>
     </g>
    </g>
    <g id="ytick_5">
     <g id="line2d_55">
      <path clip-path="url(#pede5451856)" d="M 34.16 5.826275 
L 453.192 5.826275 
" style="fill:none;stroke:#b0b0b0;stroke-linecap:square;stroke-width:0.8;"/>
     </g>
     <g id="line2d_56">
      <g>
       <use style="stroke:#000000;stroke-width:0.8;" x="34.16" xlink:href="#m2f22e24317" y="5.826275"/>
      </g>
     </g>
    </g>
    <g id="text_4">
     <!-- proportion of trials -->
     <g transform="translate(19.000625 240.14625)rotate(-90)scale(0.2 -0.2)">
      <defs>
       <path d="M 1159 525 
L 1159 -1331 
L 581 -1331 
L 581 3500 
L 1159 3500 
L 1159 2969 
Q 1341 3281 1617 3432 
Q 1894 3584 2278 3584 
Q 2916 3584 3314 3078 
Q 3713 2572 3713 1747 
Q 3713 922 3314 415 
Q 2916 -91 2278 -91 
Q 1894 -91 1617 61 
Q 1341 213 1159 525 
z
M 3116 1747 
Q 3116 2381 2855 2742 
Q 2594 3103 2138 3103 
Q 1681 3103 1420 2742 
Q 1159 2381 1159 1747 
Q 1159 1113 1420 752 
Q 1681 391 2138 391 
Q 2594 391 2855 752 
Q 3116 1113 3116 1747 
z
" id="DejaVuSans-70" transform="scale(0.015625)"/>
       <path d="M 3513 2113 
L 3513 0 
L 2938 0 
L 2938 2094 
Q 2938 2591 2744 2837 
Q 2550 3084 2163 3084 
Q 1697 3084 1428 2787 
Q 1159 2491 1159 1978 
L 1159 0 
L 581 0 
L 581 3500 
L 1159 3500 
L 1159 2956 
Q 1366 3272 1645 3428 
Q 1925 3584 2291 3584 
Q 2894 3584 3203 3211 
Q 3513 2838 3513 2113 
z
" id="DejaVuSans-6e" transform="scale(0.015625)"/>
      </defs>
      <use xlink:href="#DejaVuSans-70"/>
      <use x="63.476562" xlink:href="#DejaVuSans-72"/>
      <use x="102.339844" xlink:href="#DejaVuSans-6f"/>
      <use x="163.521484" xlink:href="#DejaVuSans-70"/>
      <use x="226.998047" xlink:href="#DejaVuSans-6f"/>
      <use x="288.179688" xlink:href="#DejaVuSans-72"/>
      <use x="329.292969" xlink:href="#DejaVuSans-74"/>
      <use x="368.501953" xlink:href="#DejaVuSans-69"/>
      <use x="396.285156" xlink:href="#DejaVuSans-6f"/>
      <use x="457.466797" xlink:href="#DejaVuSans-6e"/>
      <use x="520.845703" xlink:href="#DejaVuSans-20"/>
      <use x="552.632812" xlink:href="#DejaVuSans-6f"/>
      <use x="613.814453" xlink:href="#DejaVuSans-66"/>
      <use x="649.019531" xlink:href="#DejaVuSans-20"/>
      <use x="680.806641" xlink:href="#DejaVuSans-74"/>
      <use x="720.015625" xlink:href="#DejaVuSans-72"/>
      <use x="761.128906" xlink:href="#DejaVuSans-69"/>
      <use x="788.912109" xlink:href="#DejaVuSans-61"/>
      <use x="850.191406" xlink:href="#DejaVuSans-6c"/>
      <use x="877.974609" xlink:href="#DejaVuSans-73"/>
     </g>
    </g>
   </g>
   <g id="line2d_57">
    <path clip-path="url(#pede5451856)" d="M 34.16 266.811083 
L 79.096903 266.811083 
L 79.096903 266.386717 
L 79.544746 266.386717 
L 79.544746 265.962352 
L 85.019259 265.962352 
L 85.019259 265.537986 
L 85.935095 265.537986 
L 85.935095 265.113621 
L 92.260925 265.113621 
L 92.260925 264.689255 
L 94.479491 264.689255 
L 94.479491 264.26489 
L 103.838679 264.26489 
L 103.838679 263.840524 
L 104.286523 263.840524 
L 104.286523 263.416159 
L 109.761036 263.416159 
L 109.761036 262.991793 
L 110.676872 262.991793 
L 110.676872 262.567427 
L 117.002702 262.567427 
L 117.002702 262.143062 
L 119.221268 262.143062 
L 119.221268 261.718696 
L 127.628555 261.718696 
L 127.628555 261.294331 
L 128.076398 261.294331 
L 128.076398 260.869965 
L 132.865449 260.869965 
L 132.865449 260.4456 
L 133.265497 260.4456 
L 133.313293 259.596869 
L 133.550911 259.596869 
L 133.550911 259.172503 
L 133.713341 259.172503 
L 133.713341 258.748138 
L 133.971205 258.748138 
L 133.971205 258.323772 
L 134.419049 258.323772 
L 134.466747 257.475041 
L 135.189073 257.475041 
L 135.189073 257.050675 
L 135.636916 257.050675 
L 135.636916 256.62631 
L 138.787806 256.62631 
L 138.787806 256.201944 
L 139.187854 256.201944 
L 139.187854 255.777579 
L 139.703642 255.777579 
L 139.703642 255.353213 
L 139.893562 255.353213 
L 139.893562 254.928848 
L 140.10369 254.928848 
L 140.10369 254.504482 
L 140.792577 254.504482 
L 140.809398 253.655751 
L 141.11143 253.655751 
L 141.11143 253.231386 
L 142.027266 253.231386 
L 142.027266 252.80702 
L 143.011143 252.80702 
L 143.011143 252.382654 
L 146.029472 252.382654 
L 146.029472 251.958289 
L 146.42952 251.958289 
L 146.42952 251.533923 
L 147.135228 251.533923 
L 147.135228 251.109558 
L 148.248037 251.109558 
L 148.353096 250.260827 
L 148.648086 250.260827 
L 148.648086 249.836461 
L 149.353794 249.836461 
L 149.353794 249.412096 
L 150.571661 249.412096 
L 150.571661 248.98773 
L 181.916705 248.98773 
L 181.916705 248.563365 
L 184.050802 248.563365 
L 184.050802 248.138999 
L 200.823376 248.138999 
L 200.823376 247.714633 
L 201.184091 247.714633 
L 201.184091 247.290268 
L 203.617291 247.290268 
L 203.617291 246.865902 
L 206.658481 246.865902 
L 206.72925 246.017171 
L 207.996569 246.017171 
L 207.996569 245.592806 
L 208.792578 245.592806 
L 208.792578 245.16844 
L 209.10469 245.16844 
L 209.10469 244.744075 
L 209.523165 244.744075 
L 209.523165 244.319709 
L 210.790485 244.319709 
L 210.790485 243.895344 
L 211.898605 243.895344 
L 211.898605 243.470978 
L 220.279588 243.470978 
L 220.279588 243.046612 
L 221.54793 243.046612 
L 221.54793 242.622247 
L 221.961269 242.622247 
L 221.961269 242.197881 
L 223.698204 242.197881 
L 223.718424 241.34915 
L 224.104667 241.34915 
L 224.104667 240.924785 
L 224.739687 240.924785 
L 224.802513 240.076054 
L 225.110748 240.076054 
L 225.14615 239.227323 
L 225.517211 239.227323 
L 225.517211 238.802957 
L 225.925868 238.802957 
L 225.925868 238.378592 
L 226.096355 238.378592 
L 226.185462 237.52986 
L 227.137838 237.52986 
L 227.137838 237.105495 
L 227.452781 237.105495 
L 227.508899 235.832398 
L 227.596428 235.832398 
L 227.596428 235.408033 
L 227.867143 235.408033 
L 227.867143 234.983667 
L 228.028682 234.983667 
L 228.028682 234.559302 
L 228.197841 234.559302 
L 228.197841 234.134936 
L 228.435146 234.134936 
L 228.435146 233.710571 
L 228.560902 233.710571 
L 228.604304 232.861839 
L 228.721123 232.861839 
L 228.724695 232.013108 
L 228.948959 232.013108 
L 228.948959 231.588743 
L 229.134463 231.588743 
L 229.134463 231.164377 
L 229.355422 231.164377 
L 229.355422 230.740012 
L 229.481442 230.740012 
L 229.481442 230.315646 
L 229.603165 230.315646 
L 229.624298 229.466915 
L 229.829244 229.466915 
L 229.887906 228.618184 
L 229.965778 228.618184 
L 230.009628 227.769453 
L 230.165595 227.769453 
L 230.242584 226.920722 
L 230.364262 226.920722 
L 230.448357 225.22326 
L 230.572058 225.22326 
L 230.595992 224.374529 
L 230.770725 224.374529 
L 230.770725 223.950163 
L 230.891618 223.950163 
L 230.891618 223.525798 
L 231.186394 223.525798 
L 231.186394 223.101432 
L 231.34711 223.101432 
L 231.34711 222.677066 
L 231.592857 222.677066 
L 231.592857 222.252701 
L 231.879593 222.252701 
L 231.879593 221.828335 
L 231.999738 221.828335 
L 232.001316 220.979604 
L 232.363929 220.979604 
L 232.416857 220.130873 
L 232.563746 220.130873 
L 232.582454 219.282142 
L 232.762413 219.282142 
L 232.762413 218.857777 
L 233.45834 218.857777 
L 233.45834 218.433411 
L 233.584545 218.433411 
L 233.584545 218.009046 
L 233.720653 218.009046 
L 233.829401 217.160314 
L 233.941356 217.160314 
L 233.941356 216.735949 
L 234.674045 216.735949 
L 234.674045 216.311583 
L 234.982839 216.311583 
L 235.061236 215.462852 
L 235.3539 215.462852 
L 235.3539 215.038487 
L 235.467699 215.038487 
L 235.467699 214.614121 
L 235.685251 214.614121 
L 235.715527 213.341025 
L 236.085299 213.341025 
L 236.086588 212.492293 
L 236.350783 212.492293 
L 236.350783 212.067928 
L 236.514569 212.067928 
L 236.514569 211.643562 
L 236.65535 211.643562 
L 236.757246 209.521735 
L 236.791007 209.521735 
L 236.791007 209.097369 
L 236.916494 209.097369 
L 236.916494 208.673004 
L 237.10106 208.673004 
L 237.126582 207.824273 
L 237.448529 207.824273 
L 237.459387 206.975541 
L 237.574425 206.975541 
L 237.667612 206.12681 
L 237.819348 206.12681 
L 237.838119 205.278079 
L 238.008875 205.278079 
L 238.008875 204.853714 
L 238.200095 204.853714 
L 238.306469 202.731886 
L 238.321818 202.731886 
L 238.321818 202.30752 
L 238.440993 202.30752 
L 238.490012 201.034424 
L 238.684431 201.034424 
L 238.754312 199.761327 
L 238.861073 199.761327 
L 238.92621 198.063865 
L 239.004523 198.063865 
L 239.082915 197.215134 
L 239.173681 197.215134 
L 239.26268 195.942037 
L 239.303154 195.942037 
L 239.303154 195.517672 
L 239.682998 195.517672 
L 239.724594 194.244575 
L 239.846317 194.244575 
L 239.924799 192.971479 
L 240.018994 192.971479 
L 240.018994 192.547113 
L 240.142972 192.547113 
L 240.20893 191.274016 
L 240.344637 191.274016 
L 240.408747 190.425285 
L 240.457283 190.425285 
L 240.462921 189.576554 
L 240.579005 189.576554 
L 240.628653 188.303458 
L 240.715698 188.303458 
L 240.715698 187.879092 
L 240.939271 187.879092 
L 240.941618 187.030361 
L 241.072182 187.030361 
L 241.141435 186.18163 
L 241.340102 186.18163 
L 241.429545 185.332899 
L 241.471754 185.332899 
L 241.520025 184.484168 
L 241.593477 184.484168 
L 241.593477 184.059802 
L 241.779007 184.059802 
L 241.779007 183.635437 
L 241.948166 183.635437 
L 241.95609 182.786706 
L 242.155907 182.786706 
L 242.162234 181.937974 
L 242.354574 181.937974 
L 242.358099 181.089243 
L 242.561224 181.089243 
L 242.561224 180.664878 
L 242.699284 180.664878 
L 242.764563 179.816147 
L 242.942393 179.816147 
L 243.048939 178.967416 
L 243.176705 178.967416 
L 243.246133 177.694319 
L 243.35349 177.694319 
L 243.422569 176.845588 
L 243.633632 176.845588 
L 243.716103 175.996857 
L 243.760476 175.996857 
L 243.828544 174.299395 
L 243.91592 174.299395 
L 243.964774 173.450664 
L 244.114587 173.450664 
L 244.114587 173.026298 
L 244.228826 173.026298 
L 244.287616 171.753201 
L 244.400723 171.753201 
L 244.400723 171.328836 
L 244.553909 171.328836 
L 244.658677 170.480105 
L 244.676312 170.480105 
L 244.75625 169.631374 
L 244.936664 169.631374 
L 244.936719 168.782643 
L 245.069436 168.782643 
L 245.144661 167.509546 
L 245.185037 167.509546 
L 245.208115 166.660815 
L 245.304387 166.660815 
L 245.316559 165.812084 
L 245.527067 165.812084 
L 245.570728 164.963353 
L 245.736309 164.963353 
L 245.770545 164.114622 
L 245.940406 164.114622 
L 246.037076 162.841525 
L 246.100873 162.841525 
L 246.100873 162.41716 
L 246.270333 162.41716 
L 246.270333 161.992794 
L 246.58552 161.992794 
L 246.593934 161.144063 
L 246.791344 161.144063 
L 246.791344 160.719697 
L 246.95058 160.719697 
L 247.051547 159.446601 
L 247.311816 159.446601 
L 247.326623 158.59787 
L 247.576611 158.59787 
L 247.682877 157.749139 
L 247.697561 157.749139 
L 247.74577 156.900407 
L 247.910374 156.900407 
L 247.992063 156.051676 
L 248.341094 156.051676 
L 248.363123 155.202945 
L 248.496888 155.202945 
L 248.496888 154.77858 
L 248.811561 154.77858 
L 248.811561 154.354214 
L 249.028889 154.354214 
L 249.029371 153.505483 
L 249.151094 153.505483 
L 249.151094 153.081118 
L 249.379436 153.081118 
L 249.476732 152.232387 
L 249.513706 152.232387 
L 249.513706 151.808021 
L 249.642331 151.808021 
L 249.715743 150.534924 
L 249.91219 150.534924 
L 249.91219 150.110559 
L 250.101107 150.110559 
L 250.101107 149.686193 
L 250.290605 149.686193 
L 250.290605 149.261828 
L 250.600811 149.261828 
L 250.68636 147.564366 
L 250.734322 147.564366 
L 250.76997 146.715634 
L 251.002142 146.715634 
L 251.076752 145.442538 
L 251.281058 145.442538 
L 251.281058 145.018172 
L 251.450217 145.018172 
L 251.521088 143.32071 
L 251.642389 143.32071 
L 251.727843 142.471979 
L 251.955733 142.471979 
L 252.053571 141.623248 
L 252.098904 141.623248 
L 252.201335 140.350151 
L 252.426703 140.350151 
L 252.50917 139.077055 
L 252.537906 139.077055 
L 252.601251 138.228324 
L 252.733818 138.228324 
L 252.737724 137.379593 
L 252.855541 137.379593 
L 252.93639 136.106496 
L 253.176865 136.106496 
L 253.220707 134.833399 
L 253.33394 134.833399 
L 253.417971 133.984668 
L 253.466471 133.984668 
L 253.466471 133.560303 
L 253.616637 133.560303 
L 253.689057 132.711572 
L 253.758522 132.711572 
L 253.860954 131.86284 
L 253.972809 131.86284 
L 253.972809 131.438475 
L 254.141968 131.438475 
L 254.236204 130.589744 
L 254.348411 130.589744 
L 254.445207 129.316647 
L 254.609164 129.316647 
L 254.645269 128.467916 
L 254.858547 128.467916 
L 254.952637 126.770454 
L 255.016838 126.770454 
L 255.016838 126.346088 
L 255.185997 126.346088 
L 255.185997 125.921723 
L 255.352686 125.921723 
L 255.425569 125.072992 
L 255.547292 125.072992 
L 255.547292 124.648626 
L 255.791001 124.648626 
L 255.898711 123.37553 
L 255.909904 123.37553 
L 255.960159 122.102433 
L 256.058394 122.102433 
L 256.109722 120.829336 
L 256.308388 120.829336 
L 256.308388 120.404971 
L 256.45477 120.404971 
L 256.469598 119.55624 
L 256.591321 119.55624 
L 256.615701 118.707509 
L 256.711277 118.707509 
L 256.711277 118.283143 
L 256.953934 118.283143 
L 256.953934 117.858778 
L 257.13052 117.858778 
L 257.153751 117.010047 
L 257.243761 117.010047 
L 257.352418 115.73695 
L 257.365483 115.73695 
L 257.365483 115.312584 
L 257.633364 115.312584 
L 257.728096 114.463853 
L 257.927913 114.463853 
L 257.963049 113.615122 
L 258.12658 113.615122 
L 258.174549 112.766391 
L 258.313611 112.766391 
L 258.313611 112.342026 
L 258.922911 112.342026 
L 258.948712 111.493294 
L 259.603158 111.493294 
L 259.603158 111.068929 
L 260.084865 111.068929 
L 260.084865 110.644563 
L 260.397549 110.644563 
L 260.397549 110.220198 
L 260.634487 110.220198 
L 260.634487 109.795832 
L 261.005362 109.795832 
L 261.005362 109.371467 
L 261.353207 109.371467 
L 261.405625 108.522736 
L 261.741675 108.522736 
L 261.766547 107.674005 
L 261.906028 107.674005 
L 261.906028 107.249639 
L 262.049391 107.249639 
L 262.049391 106.825274 
L 262.192912 106.825274 
L 262.294909 105.976542 
L 262.398605 105.976542 
L 262.398605 105.552177 
L 262.823554 105.552177 
L 262.823554 105.127811 
L 263.338938 105.127811 
L 263.338938 104.703446 
L 263.523702 104.703446 
L 263.523702 104.27908 
L 263.666947 104.27908 
L 263.666947 103.854715 
L 264.080287 103.854715 
L 264.113101 103.005984 
L 264.411477 103.005984 
L 264.424775 102.157253 
L 264.53559 102.157253 
L 264.53559 101.732887 
L 264.930228 101.732887 
L 264.930228 101.308521 
L 265.204697 101.308521 
L 265.204697 100.884156 
L 265.445962 100.884156 
L 265.445962 100.45979 
L 265.610475 100.45979 
L 265.610475 100.035425 
L 265.837441 100.035425 
L 265.837441 99.611059 
L 266.041732 99.611059 
L 266.041732 99.186694 
L 267.310074 99.186694 
L 267.310074 98.762328 
L 267.723414 98.762328 
L 267.723414 98.337963 
L 268.302226 98.337963 
L 268.302226 97.913597 
L 269.346255 97.913597 
L 269.346255 97.489232 
L 269.480569 97.489232 
L 269.552628 96.640501 
L 270.120418 96.640501 
L 270.120418 96.216135 
L 276.460628 96.216135 
L 276.460628 95.791769 
L 277.256347 95.791769 
L 277.256347 95.367404 
L 278.774367 95.367404 
L 278.774367 94.943038 
L 281.197887 94.943038 
L 281.197887 94.518673 
L 282.417495 94.518673 
L 282.493241 93.245576 
L 282.879569 93.245576 
L 282.893289 92.396845 
L 283.598997 92.396845 
L 283.598997 91.97248 
L 284.636723 91.97248 
L 284.636723 91.548114 
L 284.816865 91.548114 
L 284.816865 91.123748 
L 285.139326 91.123748 
L 285.1955 90.275017 
L 285.697331 90.275017 
L 285.697331 89.850652 
L 288.21465 89.850652 
L 288.21465 89.426286 
L 288.491247 89.426286 
L 288.491247 89.001921 
L 288.994573 89.001921 
L 288.994573 88.577555 
L 290.187738 88.577555 
L 290.187738 88.15319 
L 290.432395 88.15319 
L 290.432395 87.728824 
L 290.832443 87.728824 
L 290.832443 87.304459 
L 291.538151 87.304459 
L 291.538151 86.880093 
L 291.666115 86.880093 
L 291.666115 86.455727 
L 292.756019 86.455727 
L 292.756019 86.031362 
L 293.451545 86.031362 
L 293.451545 85.606996 
L 293.851593 85.606996 
L 293.851593 85.182631 
L 294.231467 85.182631 
L 294.231467 84.758265 
L 294.460031 84.758265 
L 294.557301 83.909534 
L 294.631515 83.909534 
L 294.631515 83.485169 
L 295.337223 83.485169 
L 295.337223 83.060803 
L 295.775169 83.060803 
L 295.775169 82.636438 
L 296.555091 82.636438 
L 296.555091 82.212072 
L 297.573649 82.212072 
L 297.573649 81.787707 
L 305.153543 81.787707 
L 305.153543 81.363341 
L 306.421885 81.363341 
L 306.421885 80.938975 
L 306.835225 80.938975 
L 306.835225 80.51461 
L 308.592379 80.51461 
L 308.592379 80.090244 
L 308.929201 80.090244 
L 308.929201 79.665879 
L 311.122327 79.665879 
L 311.122327 79.241513 
L 312.390669 79.241513 
L 312.390669 78.817148 
L 312.804009 78.817148 
L 312.804009 78.392782 
L 313.977614 78.392782 
L 313.977614 77.968417 
L 314.166096 77.968417 
L 314.166096 77.544051 
L 314.561163 77.544051 
L 314.566144 76.69532 
L 315.271852 76.69532 
L 315.271852 76.270954 
L 316.48972 76.270954 
L 316.48972 75.846589 
L 319.214508 75.846589 
L 319.214508 75.422223 
L 319.614556 75.422223 
L 319.614556 74.997858 
L 320.320264 74.997858 
L 320.320264 74.573492 
L 321.529306 74.573492 
L 321.538132 73.724761 
L 327.498089 73.724761 
L 327.498089 73.300396 
L 339.946384 73.300396 
L 339.946384 72.87603 
L 340.657921 72.87603 
L 340.657921 72.451665 
L 341.126271 72.451665 
L 341.126271 72.027299 
L 341.298168 72.027299 
L 341.298168 71.602934 
L 342.080481 71.602934 
L 342.082482 70.754202 
L 342.792018 70.754202 
L 342.792018 70.329837 
L 343.260368 70.329837 
L 343.260368 69.905471 
L 343.432265 69.905471 
L 343.432265 69.481106 
L 343.891984 69.481106 
L 343.891984 69.05674 
L 344.216579 69.05674 
L 344.216579 68.632375 
L 346.026081 68.632375 
L 346.026081 68.208009 
L 351.848691 68.208009 
L 351.848691 67.783644 
L 353.982788 67.783644 
L 353.982788 67.359278 
L 359.21377 67.359278 
L 359.21377 66.934913 
L 359.925307 66.934913 
L 359.925307 66.510547 
L 360.393657 66.510547 
L 360.393657 66.086181 
L 360.565555 66.086181 
L 360.565555 65.661816 
L 361.349869 65.661816 
L 361.349869 65.23745 
L 363.15937 65.23745 
L 363.15937 64.813085 
L 371.116077 64.813085 
L 371.116077 64.388719 
L 386.754374 64.388719 
L 386.754374 63.964354 
L 387.465911 63.964354 
L 387.465911 63.539988 
L 387.934261 63.539988 
L 387.934261 63.115623 
L 388.106158 63.115623 
L 388.106158 62.691257 
L 388.890472 62.691257 
L 388.890472 62.266892 
L 390.699974 62.266892 
L 390.699974 61.842526 
L 394.693528 61.842526 
L 394.693528 61.418161 
L 395.405065 61.418161 
L 395.405065 60.993795 
L 395.873415 60.993795 
L 395.873415 60.569429 
L 396.045312 60.569429 
L 396.045312 60.145064 
L 396.829626 60.145064 
L 396.829626 59.720698 
L 397.712677 59.720698 
L 397.712677 59.296333 
L 398.424214 59.296333 
L 398.4926 58.447602 
L 398.639127 58.447602 
L 398.656681 57.598871 
L 398.892564 57.598871 
L 398.892564 57.174505 
L 399.064462 57.174505 
L 399.064462 56.75014 
L 399.204137 56.75014 
L 399.204137 56.325774 
L 399.672487 56.325774 
L 399.672487 55.901408 
L 399.844384 55.901408 
L 399.848776 55.052677 
L 400.628698 55.052677 
L 400.628698 54.628312 
L 401.658277 54.628312 
L 401.658277 54.203946 
L 402.4382 54.203946 
L 402.4382 53.779581 
L 406.595834 53.779581 
L 406.595834 53.355215 
L 409.614984 53.355215 
L 409.614984 52.93085 
L 410.394907 52.93085 
L 410.394907 52.506484 
L 418.427229 52.506484 
L 418.427229 52.082119 
L 419.138766 52.082119 
L 419.138766 51.657753 
L 419.607116 51.657753 
L 419.607116 51.233388 
L 419.779013 51.233388 
L 419.779013 50.809022 
L 420.563327 50.809022 
L 420.563327 50.384656 
L 422.372828 50.384656 
L 422.372828 49.960291 
L 423.475641 49.960291 
L 423.475641 49.535925 
L 424.187178 49.535925 
L 424.187178 49.11156 
L 424.655528 49.11156 
L 424.655528 48.687194 
L 424.827425 48.687194 
L 424.827425 48.262829 
L 425.611739 48.262829 
L 425.611739 47.838463 
L 427.421241 47.838463 
L 427.421241 47.414098 
L 430.329535 47.414098 
L 430.329535 46.989732 
L 435.377948 46.989732 
L 435.377948 46.565367 
L 453.192 46.565367 
L 453.192 46.565367 
" style="fill:none;stroke:#000000;stroke-linecap:square;stroke-width:3;"/>
   </g>
   <g id="line2d_58">
    <path clip-path="url(#pede5451856)" style="fill:none;stroke:#000000;stroke-linecap:square;stroke-width:3;"/>
   </g>
   <g id="line2d_59">
    <path clip-path="url(#pede5451856)" d="M 34.16 251.985667 
L 86.525087 251.985667 
L 86.525087 251.377866 
L 93.191794 251.377866 
L 93.191794 250.770065 
L 114.136546 250.770065 
L 114.136546 250.162264 
L 115.99549 250.162264 
L 115.99549 249.554463 
L 127.259899 249.554463 
L 127.259899 248.946662 
L 127.532367 248.946662 
L 127.532367 248.338861 
L 128.842732 248.338861 
L 128.842732 247.731061 
L 129.163563 247.731061 
L 129.163563 247.12326 
L 133.926606 247.12326 
L 133.926606 246.515459 
L 134.199074 246.515459 
L 134.199074 245.907658 
L 135.83027 245.907658 
L 135.83027 245.299857 
L 136.112228 245.299857 
L 136.112228 244.692056 
L 137.491562 244.692056 
L 137.491562 244.084255 
L 137.80675 244.084255 
L 137.80675 243.476454 
L 138.3906 243.476454 
L 138.3906 242.868653 
L 139.873088 242.868653 
L 139.873088 242.260852 
L 146.539795 242.260852 
L 146.648471 241.04525 
L 148.164513 241.04525 
L 148.164513 240.437449 
L 150.818413 240.437449 
L 150.853665 239.221847 
L 151.140036 239.221847 
L 151.140036 238.614046 
L 152.197748 238.614046 
L 152.197748 238.006245 
L 152.512935 238.006245 
L 152.512935 237.398444 
L 153.096785 237.398444 
L 153.096785 236.790643 
L 156.149686 236.790643 
L 156.149686 236.182842 
L 156.393085 236.182842 
L 156.436443 234.96724 
L 156.730302 234.96724 
L 156.769032 233.751638 
L 157.002769 233.751638 
L 157.002769 233.143837 
L 157.520372 233.143837 
L 157.520372 232.536036 
L 157.984457 232.536036 
L 157.984457 231.928235 
L 158.222954 231.928235 
L 158.222954 231.320434 
L 158.633965 231.320434 
L 158.633965 230.712633 
L 158.974603 230.712633 
L 158.974603 230.104832 
L 159.338629 230.104832 
L 159.338629 229.497031 
L 159.766119 229.497031 
L 159.766119 228.88923 
L 162.816393 228.88923 
L 162.816393 228.281429 
L 163.059792 228.281429 
L 163.059792 227.673629 
L 163.435739 227.673629 
L 163.435739 227.065828 
L 169.343491 227.065828 
L 169.343491 226.458027 
L 170.140194 226.458027 
L 170.140194 225.850226 
L 171.142629 225.850226 
L 171.142629 225.242425 
L 171.468216 225.242425 
L 171.519529 224.026823 
L 171.834717 224.026823 
L 171.834717 223.419022 
L 172.044428 223.419022 
L 172.044428 222.811221 
L 172.392726 222.811221 
L 172.418567 221.595619 
L 172.589089 221.595619 
L 172.690643 220.380017 
L 172.92914 220.380017 
L 172.92914 219.772216 
L 173.115718 219.772216 
L 173.115718 219.164415 
L 173.680789 219.164415 
L 173.680789 218.556614 
L 174.044815 218.556614 
L 174.044815 217.948813 
L 174.376367 217.948813 
L 174.472304 216.733211 
L 174.495052 216.733211 
L 174.495052 216.12541 
L 174.81024 216.12541 
L 174.81024 215.517609 
L 175.39409 215.517609 
L 175.39409 214.909808 
L 176.36588 214.909808 
L 176.36588 214.302007 
L 179.789156 214.302007 
L 179.789156 213.694206 
L 180.211405 213.694206 
L 180.211405 213.086405 
L 180.324068 213.086405 
L 180.324068 212.478604 
L 181.718933 212.478604 
L 181.718933 211.870803 
L 182.539404 211.870803 
L 182.539404 211.263002 
L 182.856714 211.263002 
L 182.856714 210.655201 
L 183.614061 210.655201 
L 183.614061 210.0474 
L 184.330585 210.0474 
L 184.330585 209.439599 
L 185.620088 209.439599 
L 185.620088 208.831798 
L 185.863488 208.831798 
L 185.863488 208.223997 
L 186.239434 208.223997 
L 186.239434 207.616197 
L 187.383283 207.616197 
L 187.383283 207.008396 
L 187.655751 207.008396 
L 187.655751 206.400595 
L 189.286947 206.400595 
L 189.286947 205.792794 
L 190.46441 205.792794 
L 190.46441 205.184993 
L 192.012424 205.184993 
L 192.012424 204.577192 
L 192.250921 204.577192 
L 192.250921 203.969391 
L 193.00257 203.969391 
L 193.00257 203.36159 
L 193.366596 203.36159 
L 193.439933 202.145988 
L 193.794085 202.145988 
L 193.794085 201.538187 
L 194.02011 201.538187 
L 194.02011 200.930386 
L 194.564771 200.930386 
L 194.564771 200.322585 
L 194.917591 200.322585 
L 194.987947 199.106983 
L 195.226444 199.106983 
L 195.226444 198.499182 
L 195.399444 198.499182 
L 195.399444 197.891381 
L 195.714632 197.891381 
L 195.714632 197.28358 
L 195.944105 197.28358 
L 195.978093 196.067978 
L 196.259293 196.067978 
L 196.342119 194.244575 
L 196.425118 194.244575 
L 196.425118 193.636774 
L 196.769609 193.636774 
L 196.843143 192.421172 
L 197.24559 192.421172 
L 197.24559 191.813371 
L 197.5629 191.813371 
L 197.5629 191.20557 
L 197.822809 191.20557 
L 197.822809 190.597769 
L 198.341561 190.597769 
L 198.341561 189.989968 
L 198.601779 189.989968 
L 198.601779 189.382167 
L 199.720896 189.382167 
L 199.720896 188.774366 
L 199.996472 188.774366 
L 200.036083 187.558764 
L 200.619933 187.558764 
L 200.619933 186.950964 
L 201.764838 186.950964 
L 201.764838 186.343163 
L 203.144172 186.343163 
L 203.144172 185.735362 
L 203.45936 185.735362 
L 203.45936 185.127561 
L 204.04321 185.127561 
L 204.04321 184.51976 
L 205.589742 184.51976 
L 205.589742 183.911959 
L 206.969077 183.911959 
L 206.969077 183.304158 
L 207.284264 183.304158 
L 207.284264 182.696357 
L 207.868114 182.696357 
L 207.868114 182.088556 
L 210.977049 182.088556 
L 211.013783 180.872954 
L 212.203029 180.872954 
L 212.203029 180.265153 
L 212.475496 180.265153 
L 212.475496 179.657352 
L 213.127538 179.657352 
L 213.127538 179.049551 
L 213.400006 179.049551 
L 213.400006 178.44175 
L 214.106692 178.44175 
L 214.106692 177.833949 
L 214.239372 177.833949 
L 214.344325 176.618347 
L 214.888986 176.618347 
L 214.888986 176.010546 
L 215.031202 176.010546 
L 215.11118 174.794944 
L 215.383647 174.794944 
L 215.383647 174.187143 
L 215.746899 174.187143 
L 215.746899 173.579342 
L 215.892339 173.579342 
L 215.892339 172.971541 
L 216.130836 172.971541 
L 216.130836 172.36374 
L 216.273069 172.36374 
L 216.273069 171.755939 
L 216.437 171.755939 
L 216.516469 170.540337 
L 216.567371 170.540337 
L 216.675497 169.324735 
L 216.882485 169.324735 
L 216.892416 167.501332 
L 217.014843 167.501332 
L 217.014843 166.893532 
L 217.214895 166.893532 
L 217.246511 165.67793 
L 217.427146 165.67793 
L 217.427146 165.070129 
L 217.674001 165.070129 
L 217.674001 164.462328 
L 217.791172 164.462328 
L 217.791172 163.854527 
L 218.215576 163.854527 
L 218.218662 162.638925 
L 218.665777 162.638925 
L 218.722423 161.423323 
L 218.921604 161.423323 
L 218.921604 160.815522 
L 219.542894 160.815522 
L 219.542894 160.207721 
L 219.798491 160.207721 
L 219.860204 158.992119 
L 220.213791 158.992119 
L 220.213791 158.384318 
L 220.452288 158.384318 
L 220.452288 157.776517 
L 220.577461 157.776517 
L 220.624132 156.560915 
L 221.177825 156.560915 
L 221.203937 155.345313 
L 221.493013 155.345313 
L 221.567963 154.129711 
L 221.956795 154.129711 
L 221.995452 152.914109 
L 222.076863 152.914109 
L 222.089053 151.698507 
L 222.251846 151.698507 
L 222.271983 150.482905 
L 222.855833 150.482905 
L 222.855833 149.875104 
L 223.378567 149.875104 
L 223.378567 149.267303 
L 223.637067 149.267303 
L 223.725617 148.051701 
L 223.875564 148.051701 
L 223.875564 147.4439 
L 224.627213 147.4439 
L 224.627213 146.8361 
L 224.816218 146.8361 
L 224.816218 146.228299 
L 224.991239 146.228299 
L 225.065397 145.012697 
L 225.337865 145.012697 
L 225.418729 143.797095 
L 225.740727 143.797095 
L 225.740727 143.189294 
L 225.913958 143.189294 
L 225.913958 142.581493 
L 226.969061 142.581493 
L 226.969061 141.973692 
L 227.461972 141.973692 
L 227.461972 141.365891 
L 227.700469 141.365891 
L 227.724369 140.150289 
L 228.452118 140.150289 
L 228.452118 139.542488 
L 228.816144 139.542488 
L 228.816144 138.934687 
L 229.243633 138.934687 
L 229.243633 138.326886 
L 233.607433 138.326886 
L 233.607433 137.719085 
L 235.796795 137.719085 
L 235.796795 137.111284 
L 236.721304 137.111284 
L 236.721304 136.503483 
L 236.989868 136.503483 
L 237.028729 135.287881 
L 237.678586 135.287881 
L 237.678586 134.68008 
L 238.119287 134.68008 
L 238.119287 134.072279 
L 238.663948 134.072279 
L 238.704946 132.856677 
L 239.626815 132.856677 
L 239.626815 132.248876 
L 240.122706 132.248876 
L 240.191258 130.425473 
L 240.27414 130.425473 
L 240.27414 129.817672 
L 240.447286 129.817672 
L 240.447286 129.209871 
L 240.764596 129.209871 
L 240.764596 128.60207 
L 240.897286 128.60207 
L 240.991947 126.778668 
L 241.092815 126.778668 
L 241.092815 126.170867 
L 241.309257 126.170867 
L 241.336215 124.955265 
L 241.570592 124.955265 
L 241.670721 123.739663 
L 241.712161 123.739663 
L 241.712161 123.131862 
L 241.88578 123.131862 
L 241.909218 121.91626 
L 242.017324 121.91626 
L 242.017324 121.308459 
L 242.260724 121.308459 
L 242.27662 120.092857 
L 242.440739 120.092857 
L 242.46963 118.269454 
L 242.591808 118.269454 
L 242.688188 115.83825 
L 243.024892 115.83825 
L 243.024892 115.230449 
L 243.175658 115.230449 
L 243.175658 114.622648 
L 243.439837 114.622648 
L 243.452382 113.407046 
L 243.656575 113.407046 
L 243.695436 112.191444 
L 243.778061 112.191444 
L 243.803862 110.975842 
L 243.948266 110.975842 
L 244.000966 109.76024 
L 244.227527 109.76024 
L 244.244366 107.936837 
L 244.620312 107.936837 
L 244.620312 107.329036 
L 244.768738 107.329036 
L 244.768738 106.721236 
L 245.086048 106.721236 
L 245.086048 106.113435 
L 245.228321 106.113435 
L 245.228321 105.505634 
L 245.606862 105.505634 
L 245.701299 104.290032 
L 245.864015 104.290032 
L 245.922049 103.07443 
L 246.151518 103.07443 
L 246.151518 102.466629 
L 246.5059 102.466629 
L 246.5059 101.858828 
L 247.080633 101.858828 
L 247.080633 101.251027 
L 247.371542 101.251027 
L 247.395821 100.035425 
L 247.979671 100.035425 
L 247.979671 99.427624 
L 248.192014 99.427624 
L 248.192014 98.819823 
L 248.397291 98.819823 
L 248.397291 98.212022 
L 248.509324 98.212022 
L 248.509324 97.604221 
L 248.659163 97.604221 
L 248.659163 96.99642 
L 249.68892 96.99642 
L 249.68892 96.388619 
L 251.196447 96.388619 
L 251.196447 95.780818 
L 251.748595 95.780818 
L 251.748595 95.173017 
L 252.016919 95.173017 
L 252.021063 93.957415 
L 252.334229 93.957415 
L 252.334229 93.349614 
L 253.652259 93.349614 
L 253.652259 92.741813 
L 253.955183 92.741813 
L 253.955183 92.134012 
L 254.198583 92.134012 
L 254.198583 91.526211 
L 254.574529 91.526211 
L 254.574529 90.91841 
L 260.515473 90.91841 
L 260.515473 90.310609 
L 261.221501 90.310609 
L 261.221501 89.702808 
L 261.358944 89.702808 
L 261.358944 89.095007 
L 261.631412 89.095007 
L 261.631412 88.487206 
L 262.063487 88.487206 
L 262.063487 87.879405 
L 262.301984 87.879405 
L 262.301984 87.271604 
L 262.769516 87.271604 
L 262.769516 86.663803 
L 263.008013 86.663803 
L 263.077835 84.840401 
L 263.262608 84.840401 
L 263.262608 84.2326 
L 263.417659 84.2326 
L 263.417659 83.624799 
L 263.759661 83.624799 
L 263.845149 82.409197 
L 263.897669 82.409197 
L 263.897669 81.801396 
L 264.113379 81.801396 
L 264.123687 80.585794 
L 264.361784 80.585794 
L 264.385847 79.370192 
L 264.551177 79.370192 
L 264.551743 78.15459 
L 264.676639 78.15459 
L 264.676639 77.546789 
L 265.405196 77.546789 
L 265.405196 76.938988 
L 266.017043 76.938988 
L 266.099757 75.115585 
L 266.184166 75.115585 
L 266.225667 73.899983 
L 266.338254 73.899983 
L 266.338254 73.292182 
L 266.46027 73.292182 
L 266.542977 71.468779 
L 267.004637 71.468779 
L 267.089903 70.253177 
L 267.321947 70.253177 
L 267.321947 69.645376 
L 267.453929 69.645376 
L 267.453929 69.037575 
L 267.573528 69.037575 
L 267.573528 68.429774 
L 267.812025 68.429774 
L 267.881418 67.214172 
L 268.563674 67.214172 
L 268.563674 66.606371 
L 268.9277 66.606371 
L 268.9277 65.998571 
L 269.35519 65.998571 
L 269.35519 65.39077 
L 273.972133 65.39077 
L 273.972133 64.782969 
L 275.342361 64.782969 
L 275.342361 64.175168 
L 276.726568 64.175168 
L 276.726568 63.567367 
L 280.638381 63.567367 
L 280.638381 62.959566 
L 280.881781 62.959566 
L 280.881781 62.351765 
L 281.257727 62.351765 
L 281.257727 61.743964 
L 284.290435 61.743964 
L 284.290435 61.136163 
L 284.512873 61.136163 
L 284.512873 60.528362 
L 284.785341 60.528362 
L 284.785341 59.920561 
L 284.95271 59.920561 
L 284.996463 58.704959 
L 285.797962 58.704959 
L 285.797962 58.097158 
L 285.963133 58.097158 
L 285.963133 57.489357 
L 286.2356 57.489357 
L 286.2356 56.881556 
L 286.416537 56.881556 
L 286.503991 55.665954 
L 286.618434 55.665954 
L 286.618434 55.058153 
L 286.88633 55.058153 
L 286.935744 53.842551 
L 287.158798 53.842551 
L 287.158798 53.23475 
L 287.324462 53.23475 
L 287.324462 52.626949 
L 287.641772 52.626949 
L 287.707145 51.411347 
L 287.866796 51.411347 
L 287.866796 50.803546 
L 288.326705 50.803546 
L 288.326705 50.195745 
L 288.789994 50.195745 
L 288.789994 49.587944 
L 289.132103 49.587944 
L 289.132103 48.980143 
L 289.40457 48.980143 
L 289.40457 48.372342 
L 289.800476 48.372342 
L 289.834232 47.15674 
L 290.24873 47.15674 
L 290.24873 46.548939 
L 290.49213 46.548939 
L 290.49213 45.941139 
L 290.654704 45.941139 
L 290.654704 45.333338 
L 290.868077 45.333338 
L 290.972014 44.117736 
L 291.035766 44.117736 
L 291.035766 43.509935 
L 291.308003 43.509935 
L 291.308003 42.902134 
L 292.128475 42.902134 
L 292.128475 42.294333 
L 292.445785 42.294333 
L 292.445785 41.686532 
L 293.003165 41.686532 
L 293.003165 41.078731 
L 293.246565 41.078731 
L 293.246565 40.47093 
L 293.622512 40.47093 
L 293.730817 39.255328 
L 297.113252 39.255328 
L 297.152113 37.431925 
L 298.576322 37.431925 
L 298.576322 36.824124 
L 299.499519 36.824124 
L 299.499519 36.216323 
L 301.745292 36.216323 
L 301.745292 35.608522 
L 308.10664 35.608522 
L 308.10664 35.000721 
L 309.556899 35.000721 
L 309.556899 34.39292 
L 310.480096 34.39292 
L 310.480096 33.785119 
L 312.725869 33.785119 
L 312.725869 33.177318 
L 313.40266 33.177318 
L 313.40266 32.569517 
L 313.646059 32.569517 
L 313.646059 31.961716 
L 314.022006 31.961716 
L 314.022006 31.353915 
L 314.852919 31.353915 
L 314.852919 30.746114 
L 315.096319 30.746114 
L 315.096319 30.138313 
L 315.472265 30.138313 
L 315.472265 29.530512 
L 315.776117 29.530512 
L 315.776117 28.922711 
L 316.019516 28.922711 
L 316.019516 28.31491 
L 316.395463 28.31491 
L 316.395463 27.707109 
L 318.021889 27.707109 
L 318.021889 27.099308 
L 318.265289 27.099308 
L 318.265289 26.491507 
L 318.550562 26.491507 
L 318.641235 25.275906 
L 319.475072 25.275906 
L 319.475072 24.668105 
L 321.458713 24.668105 
L 321.458713 24.060304 
L 321.932997 24.060304 
L 321.971858 22.844702 
L 322.857507 22.844702 
L 322.896368 21.6291 
L 324.841148 21.6291 
L 324.880009 20.413498 
L 331.412931 20.413498 
L 331.412931 19.805697 
L 334.795366 19.805697 
L 334.834226 18.590095 
L 358.096129 18.590095 
L 358.096129 17.982294 
L 361.478564 17.982294 
L 361.517424 16.766692 
L 367.706478 16.766692 
L 367.706478 16.158891 
L 370.460913 16.158891 
L 370.460913 15.55109 
L 371.088913 15.55109 
L 371.127774 14.335488 
L 373.843348 14.335488 
L 373.882209 13.119886 
L 390.860407 13.119886 
L 390.860407 12.512085 
L 392.310666 12.512085 
L 392.310666 11.904284 
L 393.233864 11.904284 
L 393.233864 11.296483 
L 394.242842 11.296483 
L 394.281703 10.080881 
L 395.479636 10.080881 
L 395.479636 9.47308 
L 395.693102 9.47308 
L 395.731962 8.257478 
L 396.616299 8.257478 
L 396.65516 7.041876 
L 398.862072 7.041876 
L 398.900932 5.826275 
L 453.192 5.826275 
L 453.192 5.826275 
" style="fill:none;stroke:#00bfbf;stroke-linecap:square;stroke-width:3;"/>
   </g>
   <g id="line2d_60">
    <path clip-path="url(#pede5451856)" style="fill:none;stroke:#00bfbf;stroke-linecap:square;stroke-width:3;"/>
   </g>
   <g id="line2d_61">
    <path clip-path="url(#pede5451856)" d="M 34.16 200.132647 
L 117.797609 200.132647 
L 117.797609 198.955033 
L 130.014016 198.955033 
L 130.014016 197.777418 
L 130.696109 197.777418 
L 130.696109 196.599804 
L 157.439479 196.599804 
L 157.439479 195.42219 
L 158.3467 195.42219 
L 158.3467 194.244575 
L 158.777277 194.244575 
L 158.777277 193.066961 
L 159.820846 193.066961 
L 159.820846 191.889346 
L 160.631383 191.889346 
L 160.631383 190.711732 
L 169.655885 190.711732 
L 169.655885 189.534118 
L 170.337978 189.534118 
L 170.337978 188.356503 
L 170.563107 188.356503 
L 170.563107 187.178889 
L 170.993683 187.178889 
L 170.993683 186.001275 
L 171.2452 186.001275 
L 171.2452 184.82366 
L 171.675776 184.82366 
L 171.675776 183.646046 
L 172.037252 183.646046 
L 172.037252 182.468431 
L 172.719346 182.468431 
L 172.719346 181.290817 
L 172.847789 181.290817 
L 172.847789 180.113203 
L 172.975164 180.113203 
L 172.975164 178.935588 
L 173.529883 178.935588 
L 173.529883 177.757974 
L 175.399964 177.757974 
L 175.399964 176.580359 
L 176.471843 176.580359 
L 176.471843 175.402745 
L 180.71296 175.402745 
L 180.71296 174.225131 
L 184.279538 174.225131 
L 184.279538 173.047516 
L 186.692638 173.047516 
L 186.752508 170.692288 
L 187.844692 170.692288 
L 187.844692 169.514673 
L 190.284692 169.514673 
L 190.284692 168.337059 
L 192.929366 168.337059 
L 192.929366 167.159444 
L 193.61146 167.159444 
L 193.61146 165.98183 
L 198.909044 165.98183 
L 198.968915 163.626601 
L 199.591138 163.626601 
L 199.651008 161.271373 
L 200.061098 161.271373 
L 200.061098 160.093758 
L 200.743192 160.093758 
L 200.743192 158.916144 
L 202.501099 158.916144 
L 202.501099 157.738529 
L 203.183192 157.738529 
L 203.183192 156.560915 
L 204.284954 156.560915 
L 204.284954 155.383301 
L 210.396644 155.383301 
L 210.396644 154.205686 
L 212.617033 154.205686 
L 212.617033 153.028072 
L 213.524255 153.028072 
L 213.524255 151.850458 
L 213.954831 151.850458 
L 213.954831 150.672843 
L 214.998401 150.672843 
L 215.041833 148.317614 
L 215.808938 148.317614 
L 215.808938 147.14 
L 215.949055 147.14 
L 215.949055 145.962386 
L 216.113712 145.962386 
L 216.113712 144.784771 
L 216.379631 144.784771 
L 216.379631 143.607157 
L 217.020934 143.607157 
L 217.020934 142.429542 
L 217.4232 142.429542 
L 217.45151 140.074314 
L 218.233737 140.074314 
L 218.233737 138.896699 
L 218.49508 138.896699 
L 218.49508 137.719085 
L 219.305617 137.719085 
L 219.305617 136.541471 
L 220.582285 136.541471 
L 220.582285 135.363856 
L 223.775368 135.363856 
L 223.775368 134.186242 
L 223.921407 134.186242 
L 223.921407 133.008627 
L 224.828629 133.008627 
L 224.828629 131.831013 
L 225.259205 131.831013 
L 225.259205 130.653399 
L 226.302775 130.653399 
L 226.302775 129.475784 
L 227.113312 129.475784 
L 227.113312 128.29817 
L 235.890514 128.29817 
L 235.890514 127.120556 
L 238.315314 127.120556 
L 238.315314 125.942941 
L 239.387194 125.942941 
L 239.387194 124.765327 
L 241.870192 124.765327 
L 241.930063 122.410098 
L 243.022247 122.410098 
L 243.022247 121.232484 
L 243.926823 121.232484 
L 243.926823 120.054869 
L 244.294992 120.054869 
L 244.354863 117.699641 
L 244.618322 117.699641 
L 244.618322 116.522026 
L 244.834045 116.522026 
L 244.834045 115.344412 
L 245.264621 115.344412 
L 245.366871 112.989183 
L 245.426742 112.989183 
L 245.462247 109.45634 
L 245.589212 109.45634 
L 245.589212 108.278725 
L 246.308191 108.278725 
L 246.308191 107.101111 
L 246.518926 107.101111 
L 246.518926 105.923497 
L 246.914367 105.923497 
L 246.914367 104.745882 
L 247.118728 104.745882 
L 247.194889 102.390654 
L 247.887047 102.390654 
L 247.997308 100.035425 
L 248.958926 100.035425 
L 248.958926 98.85781 
L 250.038514 98.85781 
L 250.038514 97.680196 
L 250.945735 97.680196 
L 250.945735 96.502582 
L 251.376312 96.502582 
L 251.376312 95.324967 
L 252.419881 95.324967 
L 252.419881 94.147353 
L 253.174567 94.147353 
L 253.234437 90.61451 
L 254.326621 90.61451 
L 254.326621 89.436895 
L 256.766621 89.436895 
L 256.766621 88.259281 
L 260.224154 88.259281 
L 260.224154 87.081667 
L 261.131376 87.081667 
L 261.131376 85.904052 
L 261.561952 85.904052 
L 261.561952 84.726438 
L 262.605522 84.726438 
L 262.605522 83.548824 
L 263.416059 83.548824 
L 263.417238 81.193595 
L 264.324459 81.193595 
L 264.324459 80.01598 
L 264.755036 80.01598 
L 264.755036 78.838366 
L 265.798605 78.838366 
L 265.798605 77.660752 
L 266.609142 77.660752 
L 266.609142 76.483137 
L 267.200305 76.483137 
L 267.200305 75.305523 
L 273.179982 75.305523 
L 273.239853 72.950294 
L 273.311995 72.950294 
L 273.311995 71.77268 
L 274.332037 71.77268 
L 274.332037 70.595065 
L 276.772037 70.595065 
L 276.772037 69.417451 
L 279.291673 69.417451 
L 279.351543 67.062222 
L 280.443727 67.062222 
L 280.443727 65.884608 
L 282.883727 65.884608 
L 282.883727 64.706993 
L 283.497636 64.706993 
L 283.497636 63.529379 
L 284.260192 63.529379 
L 284.260192 62.351765 
L 285.167413 62.351765 
L 285.231081 59.996536 
L 285.59799 59.996536 
L 285.59799 58.818922 
L 286.138303 58.818922 
L 286.138303 57.641307 
L 286.556236 57.641307 
L 286.641559 54.108464 
L 286.690719 54.108464 
L 286.690719 52.93085 
L 287.452096 52.93085 
L 287.463458 50.575621 
L 287.612449 50.575621 
L 287.639177 48.220392 
L 287.894035 48.220392 
L 287.894035 47.042778 
L 288.422986 47.042778 
L 288.422986 45.865163 
L 288.546399 45.865163 
L 288.546399 44.687549 
L 288.937604 44.687549 
L 288.976975 42.33232 
L 289.477313 42.33232 
L 289.537184 39.977092 
L 289.748141 39.977092 
L 289.748141 38.799477 
L 290.020545 38.799477 
L 290.020545 37.621863 
L 290.629368 37.621863 
L 290.629368 36.444248 
L 290.831082 36.444248 
L 290.831082 35.266634 
L 292.670397 35.266634 
L 292.730267 32.911405 
L 293.069368 32.911405 
L 293.069368 31.733791 
L 293.822451 31.733791 
L 293.822451 30.556176 
L 296.262451 30.556176 
L 296.262451 29.378562 
L 307.533673 29.378562 
L 307.533673 28.200948 
L 308.504563 28.200948 
L 308.504563 27.023333 
L 309.829718 27.023333 
L 309.829718 25.845719 
L 310.912659 25.845719 
L 310.912659 24.668105 
L 313.513351 24.668105 
L 313.573221 22.312876 
L 314.484241 22.312876 
L 314.544111 19.957647 
L 314.665405 19.957647 
L 314.665405 18.780033 
L 315.636295 18.780033 
L 315.636295 17.602418 
L 315.809396 17.602418 
L 315.869266 15.24719 
L 316.892336 15.24719 
L 316.96145 11.714346 
L 317.105405 11.714346 
L 317.105405 10.536732 
L 318.044391 10.536732 
L 318.076295 8.181503 
L 319.40145 8.181503 
L 319.40145 7.003889 
L 320.484391 7.003889 
L 320.484391 5.826275 
L 453.192 5.826275 
L 453.192 5.826275 
" style="fill:none;stroke:#bf00bf;stroke-linecap:square;stroke-width:3;"/>
   </g>
   <g id="line2d_62">
    <path clip-path="url(#pede5451856)" style="fill:none;stroke:#bf00bf;stroke-linecap:square;stroke-width:3;"/>
   </g>
   <g id="line2d_63">
    <path clip-path="url(#pede5451856)" d="M 34.16 200.132647 
L 118.814955 200.132647 
L 118.814955 198.955033 
L 128.390687 198.955033 
L 128.390687 197.777418 
L 130.36279 197.777418 
L 130.36279 196.599804 
L 146.825736 196.599804 
L 146.825736 195.42219 
L 156.401469 195.42219 
L 156.401469 194.244575 
L 158.373572 194.244575 
L 158.373572 193.066961 
L 159.461892 193.066961 
L 159.461892 191.889346 
L 160.080636 191.889346 
L 160.080636 190.711732 
L 161.541728 190.711732 
L 161.541728 189.534118 
L 162.081882 189.534118 
L 162.081882 188.356503 
L 169.037625 188.356503 
L 169.037625 187.178889 
L 169.656368 187.178889 
L 169.656368 186.001275 
L 171.009728 186.001275 
L 171.117461 183.646046 
L 171.628471 183.646046 
L 171.657614 181.290817 
L 173.089564 181.290817 
L 173.089564 180.113203 
L 173.629717 180.113203 
L 173.629717 178.935588 
L 174.352364 178.935588 
L 174.352364 177.757974 
L 175.341963 177.757974 
L 175.341963 176.580359 
L 175.804731 176.580359 
L 175.804731 175.402745 
L 182.296077 175.402745 
L 182.296077 174.225131 
L 184.409062 174.225131 
L 184.409062 173.047516 
L 186.461743 173.047516 
L 186.461743 171.869902 
L 187.092756 171.869902 
L 187.092756 170.692288 
L 187.583203 170.692288 
L 187.583203 169.514673 
L 191.124685 169.514673 
L 191.124685 168.337059 
L 191.87181 168.337059 
L 191.87181 167.159444 
L 193.843913 167.159444 
L 193.843913 165.98183 
L 196.037476 165.98183 
L 196.037476 164.804216 
L 196.668489 164.804216 
L 196.668489 163.626601 
L 197.158936 163.626601 
L 197.158936 162.448987 
L 198.009579 162.448987 
L 198.009579 161.271373 
L 198.640592 161.271373 
L 198.640592 160.093758 
L 199.131039 160.093758 
L 199.131039 158.916144 
L 200.700418 158.916144 
L 200.700418 157.738529 
L 202.363145 157.738529 
L 202.363145 156.560915 
L 202.672521 156.560915 
L 202.672521 155.383301 
L 203.352744 155.383301 
L 203.352744 154.205686 
L 203.815513 154.205686 
L 203.815513 153.028072 
L 207.860027 153.028072 
L 207.860027 151.850458 
L 212.419844 151.850458 
L 212.419844 150.672843 
L 214.999301 150.672843 
L 214.999301 149.495229 
L 215.618045 149.495229 
L 215.618045 148.317614 
L 215.988901 148.317614 
L 215.988901 147.14 
L 216.451669 147.14 
L 216.451669 145.962386 
L 216.607644 145.962386 
L 216.607644 144.784771 
L 217.070412 144.784771 
L 217.079137 142.429542 
L 217.61929 142.429542 
L 217.61929 141.251928 
L 218.068737 141.251928 
L 218.068737 140.074314 
L 218.531505 140.074314 
L 218.60889 137.719085 
L 219.071658 137.719085 
L 219.071658 136.541471 
L 220.2005 136.541471 
L 220.2005 135.363856 
L 223.765468 135.363856 
L 223.765468 134.186242 
L 225.056 134.186242 
L 225.056 133.008627 
L 225.674743 133.008627 
L 225.674743 131.831013 
L 227.135836 131.831013 
L 227.135836 130.653399 
L 227.675989 130.653399 
L 227.675989 129.475784 
L 235.870808 129.475784 
L 235.870808 128.29817 
L 237.833486 128.29817 
L 237.833486 127.120556 
L 238.823086 127.120556 
L 238.823086 125.942941 
L 239.285854 125.942941 
L 239.285854 124.765327 
L 241.999152 124.765327 
L 241.999152 123.587712 
L 242.630165 123.587712 
L 242.630165 122.410098 
L 242.988751 122.410098 
L 242.988751 121.232484 
L 243.120612 121.232484 
L 243.120612 120.054869 
L 243.45152 120.054869 
L 243.45152 118.877255 
L 243.619764 118.877255 
L 243.619764 117.699641 
L 243.956271 117.699641 
L 243.956271 116.522026 
L 244.082533 116.522026 
L 244.110211 114.166797 
L 244.447242 114.166797 
L 244.447242 112.989183 
L 244.57298 112.989183 
L 244.6186 110.633954 
L 245.593547 110.633954 
L 245.593547 109.45634 
L 245.923895 109.45634 
L 245.923895 108.278725 
L 246.662094 108.278725 
L 246.662094 107.101111 
L 247.651694 107.101111 
L 247.651694 105.923497 
L 247.890185 105.923497 
L 247.890185 104.745882 
L 248.114462 104.745882 
L 248.211281 102.390654 
L 248.506964 102.390654 
L 248.506964 101.213039 
L 249.125708 101.213039 
L 249.125708 100.035425 
L 250.5868 100.035425 
L 250.5868 98.85781 
L 251.126954 98.85781 
L 251.126954 97.680196 
L 251.77625 97.680196 
L 251.77625 96.502582 
L 252.055851 96.502582 
L 252.055851 95.324967 
L 252.686864 95.324967 
L 252.686864 94.147353 
L 253.177311 94.147353 
L 253.177311 92.969739 
L 256.718793 92.969739 
L 256.718793 91.792124 
L 260.847438 91.792124 
L 260.847438 90.61451 
L 261.466181 90.61451 
L 261.466181 89.436895 
L 262.927274 89.436895 
L 262.927274 88.259281 
L 263.467427 88.259281 
L 263.467427 87.081667 
L 264.412406 87.081667 
L 264.412406 85.904052 
L 265.031149 85.904052 
L 265.031149 84.726438 
L 266.492242 84.726438 
L 266.492242 83.548824 
L 267.032395 83.548824 
L 267.032395 82.371209 
L 271.341149 82.371209 
L 271.341149 81.193595 
L 271.967052 81.193595 
L 271.967052 80.01598 
L 272.458023 80.01598 
L 272.458023 78.838366 
L 272.629381 78.838366 
L 272.629381 77.660752 
L 273.604328 77.660752 
L 273.604328 76.483137 
L 273.934677 76.483137 
L 273.934677 75.305523 
L 275.506815 75.305523 
L 275.506815 74.127908 
L 276.137828 74.127908 
L 276.137828 72.950294 
L 276.628275 72.950294 
L 276.628275 71.77268 
L 280.169757 71.77268 
L 280.169757 70.595065 
L 283.681622 70.595065 
L 283.681622 69.417451 
L 284.603208 69.417451 
L 284.603208 68.239837 
L 285.09418 68.239837 
L 285.09418 67.062222 
L 285.221951 67.062222 
L 285.265537 64.706993 
L 285.712923 64.706993 
L 285.712923 63.529379 
L 285.884281 63.529379 
L 285.884281 62.351765 
L 286.240485 62.351765 
L 286.240485 61.17415 
L 286.570833 61.17415 
L 286.570833 59.996536 
L 286.683044 59.996536 
L 286.683044 58.818922 
L 286.859228 58.818922 
L 286.859228 57.641307 
L 287.174016 57.641307 
L 287.246591 52.93085 
L 287.345373 52.93085 
L 287.345373 51.753235 
L 287.714169 51.753235 
L 287.714169 50.575621 
L 287.847288 50.575621 
L 287.885527 48.220392 
L 288.320321 48.220392 
L 288.320321 47.042778 
L 288.478301 47.042778 
L 288.478301 45.865163 
L 288.650669 45.865163 
L 288.650669 44.687549 
L 288.860474 44.687549 
L 288.968748 42.33232 
L 289.190822 42.33232 
L 289.190822 41.154706 
L 291.412257 41.154706 
L 291.412257 39.977092 
L 292.043269 39.977092 
L 292.043269 38.799477 
L 292.51023 38.799477 
L 292.533716 36.444248 
L 296.075199 36.444248 
L 296.075199 35.266634 
L 307.437393 35.266634 
L 307.437393 34.08902 
L 307.928364 34.08902 
L 307.928364 32.911405 
L 308.099722 32.911405 
L 308.099722 31.733791 
L 309.07467 31.733791 
L 309.07467 30.556176 
L 309.405018 30.556176 
L 309.405018 29.378562 
L 311.603059 29.378562 
L 311.603059 28.200948 
L 312.09403 28.200948 
L 312.09403 27.023333 
L 312.234072 27.023333 
L 312.265388 24.668105 
L 312.724519 24.668105 
L 312.725043 22.312876 
L 312.896401 22.312876 
L 312.896401 21.135261 
L 313.21549 21.135261 
L 313.240335 18.780033 
L 313.386848 18.780033 
L 313.386848 17.602418 
L 313.570684 17.602418 
L 313.570684 16.424804 
L 313.871348 16.424804 
L 313.871348 15.24719 
L 314.201697 15.24719 
L 314.201697 14.069575 
L 314.361795 14.069575 
L 314.361795 12.891961 
L 314.692144 12.891961 
L 314.692144 11.714346 
L 316.266001 11.714346 
L 316.266001 10.536732 
L 316.756972 10.536732 
L 316.756972 9.359118 
L 316.92833 9.359118 
L 316.92833 8.181503 
L 317.903278 8.181503 
L 317.903278 7.003889 
L 318.233626 7.003889 
L 318.233626 5.826275 
L 453.192 5.826275 
L 453.192 5.826275 
" style="fill:none;stroke:#ff0000;stroke-linecap:square;stroke-width:3;"/>
   </g>
   <g id="line2d_64">
    <path clip-path="url(#pede5451856)" style="fill:none;stroke:#ff0000;stroke-linecap:square;stroke-width:3;"/>
   </g>
   <g id="line2d_65">
    <path clip-path="url(#pede5451856)" d="M 243.676 291.28 
L 243.676 3 
" style="fill:none;stroke:#000000;stroke-linecap:square;stroke-width:1.5;"/>
   </g>
   <g id="line2d_66">
    <path clip-path="url(#pede5451856)" d="M 34.16 147.14 
L 453.192 147.14 
" style="fill:none;stroke:#000000;stroke-dasharray:2,3.3;stroke-dashoffset:0;stroke-width:2;"/>
   </g>
   <g id="patch_3">
    <path d="M 34.16 291.28 
L 34.16 3 
" style="fill:none;stroke:#000000;stroke-linecap:square;stroke-linejoin:miter;stroke-width:0.8;"/>
   </g>
   <g id="patch_4">
    <path d="M 453.192 291.28 
L 453.192 3 
" style="fill:none;stroke:#000000;stroke-linecap:square;stroke-linejoin:miter;stroke-width:0.8;"/>
   </g>
   <g id="patch_5">
    <path d="M 34.16 291.28 
L 453.192 291.28 
" style="fill:none;stroke:#000000;stroke-linecap:square;stroke-linejoin:miter;stroke-width:0.8;"/>
   </g>
   <g id="patch_6">
    <path d="M 34.16 3 
L 453.192 3 
" style="fill:none;stroke:#000000;stroke-linecap:square;stroke-linejoin:miter;stroke-width:0.8;"/>
   </g>
   <g id="text_5">
    <!-- f20-f24,40-D -->
    <g transform="translate(318.19261 285.5144)scale(0.2 -0.2)">
     <defs>
      <path d="M 1228 531 
L 3431 531 
L 3431 0 
L 469 0 
L 469 531 
Q 828 903 1448 1529 
Q 2069 2156 2228 2338 
Q 2531 2678 2651 2914 
Q 2772 3150 2772 3378 
Q 2772 3750 2511 3984 
Q 2250 4219 1831 4219 
Q 1534 4219 1204 4116 
Q 875 4013 500 3803 
L 500 4441 
Q 881 4594 1212 4672 
Q 1544 4750 1819 4750 
Q 2544 4750 2975 4387 
Q 3406 4025 3406 3419 
Q 3406 3131 3298 2873 
Q 3191 2616 2906 2266 
Q 2828 2175 2409 1742 
Q 1991 1309 1228 531 
z
" id="DejaVuSans-32" transform="scale(0.015625)"/>
      <path d="M 2419 4116 
L 825 1625 
L 2419 1625 
L 2419 4116 
z
M 2253 4666 
L 3047 4666 
L 3047 1625 
L 3713 1625 
L 3713 1100 
L 3047 1100 
L 3047 0 
L 2419 0 
L 2419 1100 
L 313 1100 
L 313 1709 
L 2253 4666 
z
" id="DejaVuSans-34" transform="scale(0.015625)"/>
      <path d="M 750 794 
L 1409 794 
L 1409 256 
L 897 -744 
L 494 -744 
L 750 256 
L 750 794 
z
" id="DejaVuSans-2c" transform="scale(0.015625)"/>
      <path d="M 1259 4147 
L 1259 519 
L 2022 519 
Q 2988 519 3436 956 
Q 3884 1394 3884 2338 
Q 3884 3275 3436 3711 
Q 2988 4147 2022 4147 
L 1259 4147 
z
M 628 4666 
L 1925 4666 
Q 3281 4666 3915 4102 
Q 4550 3538 4550 2338 
Q 4550 1131 3912 565 
Q 3275 0 1925 0 
L 628 0 
L 628 4666 
z
" id="DejaVuSans-44" transform="scale(0.015625)"/>
     </defs>
     <use xlink:href="#DejaVuSans-66"/>
     <use x="35.205078" xlink:href="#DejaVuSans-32"/>
     <use x="98.828125" xlink:href="#DejaVuSans-30"/>
     <use x="162.451172" xlink:href="#DejaVuSans-2d"/>
     <use x="198.535156" xlink:href="#DejaVuSans-66"/>
     <use x="233.740234" xlink:href="#DejaVuSans-32"/>
     <use x="297.363281" xlink:href="#DejaVuSans-34"/>
     <use x="360.986328" xlink:href="#DejaVuSans-2c"/>
     <use x="392.773438" xlink:href="#DejaVuSans-34"/>
     <use x="456.396484" xlink:href="#DejaVuSans-30"/>
     <use x="520.019531" xlink:href="#DejaVuSans-2d"/>
     <use x="556.103516" xlink:href="#DejaVuSans-44"/>
    </g>
   </g>
   <g id="text_6">
    <!-- v2.6.3 -->
    <g style="fill:#808080;" transform="translate(227.99475 286.317512)scale(0.1 -0.1)">
     <defs>
      <path d="M 684 794 
L 1344 794 
L 1344 0 
L 684 0 
L 684 794 
z
" id="DejaVuSans-2e" transform="scale(0.015625)"/>
      <path d="M 2113 2584 
Q 1688 2584 1439 2293 
Q 1191 2003 1191 1497 
Q 1191 994 1439 701 
Q 1688 409 2113 409 
Q 2538 409 2786 701 
Q 3034 994 3034 1497 
Q 3034 2003 2786 2293 
Q 2538 2584 2113 2584 
z
M 3366 4563 
L 3366 3988 
Q 3128 4100 2886 4159 
Q 2644 4219 2406 4219 
Q 1781 4219 1451 3797 
Q 1122 3375 1075 2522 
Q 1259 2794 1537 2939 
Q 1816 3084 2150 3084 
Q 2853 3084 3261 2657 
Q 3669 2231 3669 1497 
Q 3669 778 3244 343 
Q 2819 -91 2113 -91 
Q 1303 -91 875 529 
Q 447 1150 447 2328 
Q 447 3434 972 4092 
Q 1497 4750 2381 4750 
Q 2619 4750 2861 4703 
Q 3103 4656 3366 4563 
z
" id="DejaVuSans-36" transform="scale(0.015625)"/>
      <path d="M 2597 2516 
Q 3050 2419 3304 2112 
Q 3559 1806 3559 1356 
Q 3559 666 3084 287 
Q 2609 -91 1734 -91 
Q 1441 -91 1130 -33 
Q 819 25 488 141 
L 488 750 
Q 750 597 1062 519 
Q 1375 441 1716 441 
Q 2309 441 2620 675 
Q 2931 909 2931 1356 
Q 2931 1769 2642 2001 
Q 2353 2234 1838 2234 
L 1294 2234 
L 1294 2753 
L 1863 2753 
Q 2328 2753 2575 2939 
Q 2822 3125 2822 3475 
Q 2822 3834 2567 4026 
Q 2313 4219 1838 4219 
Q 1578 4219 1281 4162 
Q 984 4106 628 3988 
L 628 4550 
Q 988 4650 1302 4700 
Q 1616 4750 1894 4750 
Q 2613 4750 3031 4423 
Q 3450 4097 3450 3541 
Q 3450 3153 3228 2886 
Q 3006 2619 2597 2516 
z
" id="DejaVuSans-33" transform="scale(0.015625)"/>
     </defs>
     <use xlink:href="#DejaVuSans-76"/>
     <use x="59.179688" xlink:href="#DejaVuSans-32"/>
     <use x="122.802734" xlink:href="#DejaVuSans-2e"/>
     <use x="154.589844" xlink:href="#DejaVuSans-36"/>
     <use x="218.212891" xlink:href="#DejaVuSans-2e"/>
     <use x="250" xlink:href="#DejaVuSans-33"/>
    </g>
   </g>
   <g id="legend_1">
    <g id="patch_7">
     <path d="M 48.16 136.425 
L 177.381875 136.425 
Q 181.381875 136.425 181.381875 132.425 
L 181.381875 17 
Q 181.381875 13 177.381875 13 
L 48.16 13 
Q 44.16 13 44.16 17 
L 44.16 132.425 
Q 44.16 136.425 48.16 136.425 
z
" style="fill:#ffffff;opacity:0.2;stroke:#cccccc;stroke-linejoin:miter;"/>
    </g>
    <g id="line2d_67">
     <path d="M 52.16 29.196875 
L 92.16 29.196875 
" style="fill:none;stroke:#000000;stroke-linecap:square;stroke-width:3;"/>
    </g>
    <g id="line2d_68"/>
    <g id="text_7">
     <!-- 1: 4/3 -->
     <g transform="translate(108.16 36.196875)scale(0.2 -0.2)">
      <defs>
       <path d="M 750 794 
L 1409 794 
L 1409 0 
L 750 0 
L 750 794 
z
M 750 3309 
L 1409 3309 
L 1409 2516 
L 750 2516 
L 750 3309 
z
" id="DejaVuSans-3a" transform="scale(0.015625)"/>
       <path d="M 1625 4666 
L 2156 4666 
L 531 -594 
L 0 -594 
L 1625 4666 
z
" id="DejaVuSans-2f" transform="scale(0.015625)"/>
      </defs>
      <use xlink:href="#DejaVuSans-31"/>
      <use x="63.623047" xlink:href="#DejaVuSans-3a"/>
      <use x="97.314453" xlink:href="#DejaVuSans-20"/>
      <use x="129.101562" xlink:href="#DejaVuSans-34"/>
      <use x="192.724609" xlink:href="#DejaVuSans-2f"/>
      <use x="226.416016" xlink:href="#DejaVuSans-33"/>
     </g>
    </g>
    <g id="line2d_69">
     <path d="M 52.16 58.553125 
L 92.16 58.553125 
" style="fill:none;stroke:#00bfbf;stroke-linecap:square;stroke-width:3;"/>
    </g>
    <g id="line2d_70"/>
    <g id="text_8">
     <!-- -1: 3/2 -->
     <g transform="translate(108.16 65.553125)scale(0.2 -0.2)">
      <use xlink:href="#DejaVuSans-2d"/>
      <use x="36.083984" xlink:href="#DejaVuSans-31"/>
      <use x="99.707031" xlink:href="#DejaVuSans-3a"/>
      <use x="133.398438" xlink:href="#DejaVuSans-20"/>
      <use x="165.185547" xlink:href="#DejaVuSans-33"/>
      <use x="228.808594" xlink:href="#DejaVuSans-2f"/>
      <use x="262.5" xlink:href="#DejaVuSans-32"/>
     </g>
    </g>
    <g id="line2d_71">
     <path d="M 52.16 87.909375 
L 92.16 87.909375 
" style="fill:none;stroke:#bf00bf;stroke-linecap:square;stroke-width:3;"/>
    </g>
    <g id="line2d_72"/>
    <g id="text_9">
     <!-- -4: 2/1 -->
     <g transform="translate(108.16 94.909375)scale(0.2 -0.2)">
      <use xlink:href="#DejaVuSans-2d"/>
      <use x="36.083984" xlink:href="#DejaVuSans-34"/>
      <use x="99.707031" xlink:href="#DejaVuSans-3a"/>
      <use x="133.398438" xlink:href="#DejaVuSans-20"/>
      <use x="165.185547" xlink:href="#DejaVuSans-32"/>
      <use x="228.808594" xlink:href="#DejaVuSans-2f"/>
      <use x="262.5" xlink:href="#DejaVuSans-31"/>
     </g>
    </g>
    <g id="line2d_73">
     <path d="M 52.16 117.265625 
L 92.16 117.265625 
" style="fill:none;stroke:#ff0000;stroke-linecap:square;stroke-width:3;"/>
    </g>
    <g id="line2d_74"/>
    <g id="text_10">
     <!-- -8: 2/1 -->
     <g transform="translate(108.16 124.265625)scale(0.2 -0.2)">
      <defs>
       <path d="M 2034 2216 
Q 1584 2216 1326 1975 
Q 1069 1734 1069 1313 
Q 1069 891 1326 650 
Q 1584 409 2034 409 
Q 2484 409 2743 651 
Q 3003 894 3003 1313 
Q 3003 1734 2745 1975 
Q 2488 2216 2034 2216 
z
M 1403 2484 
Q 997 2584 770 2862 
Q 544 3141 544 3541 
Q 544 4100 942 4425 
Q 1341 4750 2034 4750 
Q 2731 4750 3128 4425 
Q 3525 4100 3525 3541 
Q 3525 3141 3298 2862 
Q 3072 2584 2669 2484 
Q 3125 2378 3379 2068 
Q 3634 1759 3634 1313 
Q 3634 634 3220 271 
Q 2806 -91 2034 -91 
Q 1263 -91 848 271 
Q 434 634 434 1313 
Q 434 1759 690 2068 
Q 947 2378 1403 2484 
z
M 1172 3481 
Q 1172 3119 1398 2916 
Q 1625 2713 2034 2713 
Q 2441 2713 2670 2916 
Q 2900 3119 2900 3481 
Q 2900 3844 2670 4047 
Q 2441 4250 2034 4250 
Q 1625 4250 1398 4047 
Q 1172 3844 1172 3481 
z
" id="DejaVuSans-38" transform="scale(0.015625)"/>
      </defs>
      <use xlink:href="#DejaVuSans-2d"/>
      <use x="36.083984" xlink:href="#DejaVuSans-38"/>
      <use x="99.707031" xlink:href="#DejaVuSans-3a"/>
      <use x="133.398438" xlink:href="#DejaVuSans-20"/>
      <use x="165.185547" xlink:href="#DejaVuSans-32"/>
      <use x="228.808594" xlink:href="#DejaVuSans-2f"/>
      <use x="262.5" xlink:href="#DejaVuSans-31"/>
     </g>
    </g>
   </g>
  </g>
 </g>
 <defs>
  <clipPath id="pede5451856">
   <rect height="288.28" width="419.032" x="34.16" y="3"/>
  </clipPath>
 </defs>
</svg>
