<?xml version="1.0" encoding="utf-8" standalone="no"?>
<!DOCTYPE svg PUBLIC "-//W3C//DTD SVG 1.1//EN"
  "http://www.w3.org/Graphics/SVG/1.1/DTD/svg11.dtd">
<svg height="345.6pt" version="1.1" viewBox="0 0 460.8 345.6" width="460.8pt" xmlns="http://www.w3.org/2000/svg" xmlns:xlink="http://www.w3.org/1999/xlink">
 <metadata>
  <rdf:RDF xmlns:cc="http://creativecommons.org/ns#" xmlns:dc="http://purl.org/dc/elements/1.1/" xmlns:rdf="http://www.w3.org/1999/02/22-rdf-syntax-ns#">
   <cc:Work>
    <dc:type rdf:resource="http://purl.org/dc/dcmitype/StillImage"/>
    <dc:date>2023-04-17T19:01:01.195341</dc:date>
    <dc:format>image/svg+xml</dc:format>
    <dc:creator>
     <cc:Agent>
      <dc:title>Matplotlib v3.4.1, https://matplotlib.org/</dc:title>
     </cc:Agent>
    </dc:creator>
   </cc:Work>
  </rdf:RDF>
 </metadata>
 <defs>
  <style type="text/css">*{stroke-linecap:butt;stroke-linejoin:round;}</style>
 </defs>
 <g id="figure_1">
  <g id="patch_1">
   <path d="M 0 345.6 
L 460.8 345.6 
L 460.8 0 
L 0 0 
z
" style="fill:#ffffff;"/>
  </g>
  <g id="axes_1">
   <g id="patch_2">
    <path d="M 62.208 293.76 
L 460.8 293.76 
L 460.8 3.456 
L 62.208 3.456 
z
" style="fill:#ffffff;"/>
   </g>
   <g id="line2d_1"/>
   <g id="line2d_2">
    <path clip-path="url(#pc53e25c925)" d="M 237.851803 293.76 
L 237.851803 289.927604 
L 238.556671 289.927604 
L 238.556671 286.095208 
L 285.802117 286.095208 
L 285.802117 282.262812 
L 323.013247 282.262812 
L 323.013247 278.430416 
L 352.516789 278.430416 
L 352.516789 274.59802 
L 359.393764 274.59802 
L 359.393764 270.765624 
L 360.5399 270.765624 
L 360.5399 266.933228 
L 385.923403 266.933228 
L 385.923403 263.100832 
L 391.162632 263.100832 
L 391.162632 259.268436 
L 396.735447 259.268436 
L 396.735447 255.43604 
L 404.287175 255.43604 
L 404.287175 251.603644 
L 404.608642 251.603644 
L 404.608642 247.771248 
L 407.968211 247.771248 
L 407.968211 243.938851 
L 411.989749 243.938851 
L 411.989749 240.106455 
L 418.048049 240.106455 
L 418.048049 236.274059 
L 430.188632 236.274059 
L 430.188632 232.441663 
L 437.412385 232.441663 
L 437.412385 228.609267 
L 437.412385 228.609267 
L 437.412385 228.609267 
L 460.8 228.609267 
" style="fill:none;stroke:#f5deb3;stroke-linecap:square;stroke-width:1.5;"/>
   </g>
   <g id="line2d_3"/>
   <g id="line2d_4"/>
   <g id="line2d_5">
    <path clip-path="url(#pc53e25c925)" d="M 340.513573 293.76 
L 340.513573 289.927604 
L 376.54672 289.927604 
L 376.54672 286.095208 
L 386.807232 286.095208 
L 386.807232 282.262812 
L 392.692873 282.262812 
L 392.692873 278.430416 
L 424.741644 278.430416 
L 424.741644 274.59802 
L 461.8 274.59802 
" style="fill:none;stroke:#f5deb3;stroke-linecap:square;stroke-width:1.5;"/>
   </g>
   <g id="line2d_6">
    <path clip-path="url(#pc53e25c925)" d="M 248.539577 293.76 
L 248.539577 290.417794 
L 322.228896 290.417794 
L 322.228896 287.075588 
L 327.825254 287.075588 
L 327.825254 283.733382 
L 345.092454 283.733382 
L 345.092454 280.391177 
L 355.784697 280.391177 
L 355.784697 277.048971 
L 358.940059 277.048971 
L 358.940059 273.706765 
L 364.266931 273.706765 
L 364.266931 270.364559 
L 387.522317 270.364559 
L 387.522317 267.022353 
L 397.081727 267.022353 
L 397.081727 263.680147 
L 397.223614 263.680147 
L 397.223614 260.337942 
L 397.759389 260.337942 
L 397.759389 256.995736 
L 430.055954 256.995736 
L 430.055954 253.65353 
L 444.608699 253.65353 
L 444.608699 250.311324 
L 450.72556 250.311324 
L 450.72556 246.969118 
L 461.8 246.969118 
" style="fill:none;stroke:#f5deb3;stroke-linecap:square;stroke-width:1.5;"/>
   </g>
   <g id="line2d_7">
    <path clip-path="url(#pc53e25c925)" d="M 318.130367 293.76 
L 318.130367 289.927604 
L 419.401899 289.927604 
L 419.401899 286.095208 
L 419.401899 286.095208 
L 419.401899 286.095208 
L 460.8 286.095208 
" style="fill:none;stroke:#f5deb3;stroke-linecap:square;stroke-width:1.5;"/>
   </g>
   <g id="line2d_8"/>
   <g id="line2d_9">
    <path clip-path="url(#pc53e25c925)" d="M 238.442411 293.76 
L 238.442411 289.927604 
L 303.89797 289.927604 
L 303.89797 286.095208 
L 305.645067 286.095208 
L 305.645067 282.262812 
L 334.650349 282.262812 
L 334.650349 278.430416 
L 348.893767 278.430416 
L 348.893767 274.59802 
L 361.975188 274.59802 
L 361.975188 270.765624 
L 383.209285 270.765624 
L 383.209285 266.933228 
L 396.039341 266.933228 
L 396.039341 263.100832 
L 400.833277 263.100832 
L 400.833277 259.268436 
L 401.986517 259.268436 
L 401.986517 255.43604 
L 413.645732 255.43604 
L 413.645732 251.603644 
L 417.774511 251.603644 
L 417.774511 247.771248 
L 435.430292 247.771248 
L 435.430292 243.938851 
L 435.430292 243.938851 
L 435.430292 243.938851 
L 460.8 243.938851 
" style="fill:none;stroke:#f5deb3;stroke-linecap:square;stroke-width:1.5;"/>
   </g>
   <g id="line2d_10"/>
   <g id="line2d_11">
    <path clip-path="url(#pc53e25c925)" d="M 347.497258 293.76 
L 347.497258 289.927604 
L 351.559693 289.927604 
L 351.559693 286.095208 
L 434.566902 286.095208 
L 434.566902 282.262812 
L 456.852607 282.262812 
L 456.852607 278.430416 
L 461.8 278.430416 
" style="fill:none;stroke:#f5deb3;stroke-linecap:square;stroke-width:1.5;"/>
   </g>
   <g id="line2d_12"/>
   <g id="line2d_13">
    <path clip-path="url(#pc53e25c925)" d="M 229.942698 293.76 
L 229.942698 291.364752 
L 233.735497 291.364752 
L 233.735497 288.969505 
L 256.189968 288.969505 
L 256.189968 286.574257 
L 262.568304 286.574257 
L 262.568304 284.17901 
L 289.917209 284.17901 
L 289.917209 281.783762 
L 292.883448 281.783762 
L 292.883448 279.388515 
L 311.797192 279.388515 
L 311.797192 276.993267 
L 312.29334 276.993267 
L 312.29334 274.59802 
L 322.342931 274.59802 
L 322.342931 272.202772 
L 329.889084 272.202772 
L 329.889084 269.807525 
L 329.938796 269.807525 
L 329.938796 267.412277 
L 333.213064 267.412277 
L 333.213064 265.01703 
L 337.133152 265.01703 
L 337.133152 262.621782 
L 340.291969 262.621782 
L 340.291969 260.226535 
L 354.560258 260.226535 
L 354.560258 257.831287 
L 365.3197 257.831287 
L 365.3197 255.43604 
L 372.093917 255.43604 
L 372.093917 253.040792 
L 375.105576 253.040792 
L 375.105576 250.645545 
L 378.837397 250.645545 
L 378.837397 248.250297 
L 379.9556 248.250297 
L 379.9556 245.85505 
L 380.884044 245.85505 
L 380.884044 243.459802 
L 381.42696 243.459802 
L 381.42696 241.064554 
L 382.829525 241.064554 
L 382.829525 238.669307 
L 386.147434 238.669307 
L 386.147434 236.274059 
L 386.724746 236.274059 
L 386.724746 233.878812 
L 388.540947 233.878812 
L 388.540947 231.483564 
L 389.276499 231.483564 
L 389.276499 229.088317 
L 390.916999 229.088317 
L 390.916999 226.693069 
L 395.885164 226.693069 
L 395.885164 224.297822 
L 400.511368 224.297822 
L 400.511368 221.902574 
L 404.609403 221.902574 
L 404.609403 219.507327 
L 406.6902 219.507327 
L 406.6902 217.112079 
L 410.076342 217.112079 
L 410.076342 214.716832 
L 414.561681 214.716832 
L 414.561681 212.321584 
L 414.561681 212.321584 
L 414.561681 212.321584 
L 460.8 212.321584 
" style="fill:none;stroke:#f5deb3;stroke-linecap:square;stroke-width:1.5;"/>
   </g>
   <g id="line2d_14">
    <path clip-path="url(#pc53e25c925)" d="M 440.068743 293.76 
L 440.068743 289.927604 
L 446.753945 289.927604 
L 446.753945 286.095208 
L 447.733375 286.095208 
L 447.733375 282.262812 
L 451.173 282.262812 
L 451.173 278.430416 
L 457.542046 278.430416 
L 457.542046 274.59802 
L 457.695356 274.59802 
L 457.695356 270.765624 
L 461.097696 270.765624 
L 461.097696 266.933228 
L 461.8 266.933228 
" style="fill:none;stroke:#f5deb3;stroke-linecap:square;stroke-width:1.5;"/>
   </g>
   <g id="line2d_15"/>
   <g id="line2d_16">
    <path clip-path="url(#pc53e25c925)" d="M 260.081712 293.76 
L 260.081712 289.927604 
L 263.985123 289.927604 
L 263.985123 286.095208 
L 340.886634 286.095208 
L 340.886634 282.262812 
L 380.814544 282.262812 
L 380.814544 278.430416 
L 393.243729 278.430416 
L 393.243729 274.59802 
L 399.151982 274.59802 
L 399.151982 270.765624 
L 417.047758 270.765624 
L 417.047758 266.933228 
L 433.808912 266.933228 
L 433.808912 263.100832 
L 433.808912 263.100832 
L 433.808912 263.100832 
L 460.8 263.100832 
" style="fill:none;stroke:#f5deb3;stroke-linecap:square;stroke-width:1.5;"/>
   </g>
   <g id="line2d_17">
    <path clip-path="url(#pc53e25c925)" d="M 442.306216 293.76 
L 442.306216 289.927604 
L 461.8 289.927604 
" style="fill:none;stroke:#f5deb3;stroke-linecap:square;stroke-width:1.5;"/>
   </g>
   <g id="line2d_18">
    <path clip-path="url(#pc53e25c925)" d="M 261.837144 293.76 
L 261.837144 289.927604 
L 264.161722 289.927604 
L 264.161722 286.095208 
L 268.999648 286.095208 
L 268.999648 282.262812 
L 329.954318 282.262812 
L 329.954318 278.430416 
L 331.296411 278.430416 
L 331.296411 274.59802 
L 369.365562 274.59802 
L 369.365562 270.765624 
L 369.860525 270.765624 
L 369.860525 266.933228 
L 383.428606 266.933228 
L 383.428606 263.100832 
L 394.04531 263.100832 
L 394.04531 259.268436 
L 397.74861 259.268436 
L 397.74861 255.43604 
L 406.25499 255.43604 
L 406.25499 251.603644 
L 427.945752 251.603644 
L 427.945752 247.771248 
L 440.612312 247.771248 
L 440.612312 243.938851 
L 457.597301 243.938851 
L 457.597301 240.106455 
L 457.597301 240.106455 
L 457.597301 240.106455 
L 460.8 240.106455 
" style="fill:none;stroke:#f5deb3;stroke-linecap:square;stroke-width:1.5;"/>
   </g>
   <g id="line2d_19">
    <path clip-path="url(#pc53e25c925)" d="M 329.009272 293.76 
L 329.009272 289.927604 
L 329.589546 289.927604 
L 329.589546 286.095208 
L 425.74637 286.095208 
L 425.74637 282.262812 
L 461.8 282.262812 
" style="fill:none;stroke:#f5deb3;stroke-linecap:square;stroke-width:1.5;"/>
   </g>
   <g id="line2d_20">
    <path clip-path="url(#pc53e25c925)" d="M 318.326341 293.76 
L 318.326341 289.927604 
L 326.191706 289.927604 
L 326.191706 286.095208 
L 359.815469 286.095208 
L 359.815469 282.262812 
L 375.212827 282.262812 
L 375.212827 278.430416 
L 396.807816 278.430416 
L 396.807816 274.59802 
L 413.061743 274.59802 
L 413.061743 270.765624 
L 427.032275 270.765624 
L 427.032275 266.933228 
L 427.032275 266.933228 
L 427.032275 266.933228 
L 460.8 266.933228 
" style="fill:none;stroke:#f5deb3;stroke-linecap:square;stroke-width:1.5;"/>
   </g>
   <g id="matplotlib.axis_1">
    <g id="xtick_1">
     <g id="line2d_21">
      <path clip-path="url(#pc53e25c925)" d="M 62.208 293.76 
L 62.208 3.456 
" style="fill:none;stroke:#b0b0b0;stroke-linecap:square;stroke-width:0.8;"/>
     </g>
     <g id="line2d_22">
      <defs>
       <path d="M 0 0 
L 0 3.5 
" id="md74bbe5de2" style="stroke:#000000;stroke-width:0.8;"/>
      </defs>
      <g>
       <use style="stroke:#000000;stroke-width:0.8;" x="62.208" xlink:href="#md74bbe5de2" y="293.76"/>
      </g>
     </g>
     <g id="text_1">
      <!-- 0 -->
      <g transform="translate(55.8455 315.956875)scale(0.2 -0.2)">
       <defs>
        <path d="M 2034 4250 
Q 1547 4250 1301 3770 
Q 1056 3291 1056 2328 
Q 1056 1369 1301 889 
Q 1547 409 2034 409 
Q 2525 409 2770 889 
Q 3016 1369 3016 2328 
Q 3016 3291 2770 3770 
Q 2525 4250 2034 4250 
z
M 2034 4750 
Q 2819 4750 3233 4129 
Q 3647 3509 3647 2328 
Q 3647 1150 3233 529 
Q 2819 -91 2034 -91 
Q 1250 -91 836 529 
Q 422 1150 422 2328 
Q 422 3509 836 4129 
Q 1250 4750 2034 4750 
z
" id="DejaVuSans-30" transform="scale(0.015625)"/>
       </defs>
       <use xlink:href="#DejaVuSans-30"/>
      </g>
     </g>
    </g>
    <g id="xtick_2">
     <g id="line2d_23">
      <path clip-path="url(#pc53e25c925)" d="M 251.964122 293.76 
L 251.964122 3.456 
" style="fill:none;stroke:#b0b0b0;stroke-linecap:square;stroke-width:0.8;"/>
     </g>
     <g id="line2d_24">
      <g>
       <use style="stroke:#000000;stroke-width:0.8;" x="251.964122" xlink:href="#md74bbe5de2" y="293.76"/>
      </g>
     </g>
     <g id="text_2">
      <!-- 2 -->
      <g transform="translate(245.601622 315.956875)scale(0.2 -0.2)">
       <defs>
        <path d="M 1228 531 
L 3431 531 
L 3431 0 
L 469 0 
L 469 531 
Q 828 903 1448 1529 
Q 2069 2156 2228 2338 
Q 2531 2678 2651 2914 
Q 2772 3150 2772 3378 
Q 2772 3750 2511 3984 
Q 2250 4219 1831 4219 
Q 1534 4219 1204 4116 
Q 875 4013 500 3803 
L 500 4441 
Q 881 4594 1212 4672 
Q 1544 4750 1819 4750 
Q 2544 4750 2975 4387 
Q 3406 4025 3406 3419 
Q 3406 3131 3298 2873 
Q 3191 2616 2906 2266 
Q 2828 2175 2409 1742 
Q 1991 1309 1228 531 
z
" id="DejaVuSans-32" transform="scale(0.015625)"/>
       </defs>
       <use xlink:href="#DejaVuSans-32"/>
      </g>
     </g>
    </g>
    <g id="xtick_3">
     <g id="line2d_25">
      <path clip-path="url(#pc53e25c925)" d="M 441.720244 293.76 
L 441.720244 3.456 
" style="fill:none;stroke:#b0b0b0;stroke-linecap:square;stroke-width:0.8;"/>
     </g>
     <g id="line2d_26">
      <g>
       <use style="stroke:#000000;stroke-width:0.8;" x="441.720244" xlink:href="#md74bbe5de2" y="293.76"/>
      </g>
     </g>
     <g id="text_3">
      <!-- 4 -->
      <g transform="translate(435.357744 315.956875)scale(0.2 -0.2)">
       <defs>
        <path d="M 2419 4116 
L 825 1625 
L 2419 1625 
L 2419 4116 
z
M 2253 4666 
L 3047 4666 
L 3047 1625 
L 3713 1625 
L 3713 1100 
L 3047 1100 
L 3047 0 
L 2419 0 
L 2419 1100 
L 313 1100 
L 313 1709 
L 2253 4666 
z
" id="DejaVuSans-34" transform="scale(0.015625)"/>
       </defs>
       <use xlink:href="#DejaVuSans-34"/>
      </g>
     </g>
    </g>
    <g id="xtick_4">
     <g id="line2d_27">
      <path clip-path="url(#pc53e25c925)" d="M 90.769142 293.76 
L 90.769142 3.456 
" style="fill:none;stroke:#b0b0b0;stroke-linecap:square;stroke-width:0.8;"/>
     </g>
     <g id="line2d_28">
      <defs>
       <path d="M 0 0 
L 0 2 
" id="m8482f51716" style="stroke:#000000;stroke-width:0.6;"/>
      </defs>
      <g>
       <use style="stroke:#000000;stroke-width:0.6;" x="90.769142" xlink:href="#m8482f51716" y="293.76"/>
      </g>
     </g>
    </g>
    <g id="xtick_5">
     <g id="line2d_29">
      <path clip-path="url(#pc53e25c925)" d="M 107.47634 293.76 
L 107.47634 3.456 
" style="fill:none;stroke:#b0b0b0;stroke-linecap:square;stroke-width:0.8;"/>
     </g>
     <g id="line2d_30">
      <g>
       <use style="stroke:#000000;stroke-width:0.6;" x="107.47634" xlink:href="#m8482f51716" y="293.76"/>
      </g>
     </g>
    </g>
    <g id="xtick_6">
     <g id="line2d_31">
      <path clip-path="url(#pc53e25c925)" d="M 119.330285 293.76 
L 119.330285 3.456 
" style="fill:none;stroke:#b0b0b0;stroke-linecap:square;stroke-width:0.8;"/>
     </g>
     <g id="line2d_32">
      <g>
       <use style="stroke:#000000;stroke-width:0.6;" x="119.330285" xlink:href="#m8482f51716" y="293.76"/>
      </g>
     </g>
    </g>
    <g id="xtick_7">
     <g id="line2d_33">
      <path clip-path="url(#pc53e25c925)" d="M 128.524919 293.76 
L 128.524919 3.456 
" style="fill:none;stroke:#b0b0b0;stroke-linecap:square;stroke-width:0.8;"/>
     </g>
     <g id="line2d_34">
      <g>
       <use style="stroke:#000000;stroke-width:0.6;" x="128.524919" xlink:href="#m8482f51716" y="293.76"/>
      </g>
     </g>
    </g>
    <g id="xtick_8">
     <g id="line2d_35">
      <path clip-path="url(#pc53e25c925)" d="M 136.037482 293.76 
L 136.037482 3.456 
" style="fill:none;stroke:#b0b0b0;stroke-linecap:square;stroke-width:0.8;"/>
     </g>
     <g id="line2d_36">
      <g>
       <use style="stroke:#000000;stroke-width:0.6;" x="136.037482" xlink:href="#m8482f51716" y="293.76"/>
      </g>
     </g>
    </g>
    <g id="xtick_9">
     <g id="line2d_37">
      <path clip-path="url(#pc53e25c925)" d="M 142.389263 293.76 
L 142.389263 3.456 
" style="fill:none;stroke:#b0b0b0;stroke-linecap:square;stroke-width:0.8;"/>
     </g>
     <g id="line2d_38">
      <g>
       <use style="stroke:#000000;stroke-width:0.6;" x="142.389263" xlink:href="#m8482f51716" y="293.76"/>
      </g>
     </g>
    </g>
    <g id="xtick_10">
     <g id="line2d_39">
      <path clip-path="url(#pc53e25c925)" d="M 147.891427 293.76 
L 147.891427 3.456 
" style="fill:none;stroke:#b0b0b0;stroke-linecap:square;stroke-width:0.8;"/>
     </g>
     <g id="line2d_40">
      <g>
       <use style="stroke:#000000;stroke-width:0.6;" x="147.891427" xlink:href="#m8482f51716" y="293.76"/>
      </g>
     </g>
    </g>
    <g id="xtick_11">
     <g id="line2d_41">
      <path clip-path="url(#pc53e25c925)" d="M 152.744679 293.76 
L 152.744679 3.456 
" style="fill:none;stroke:#b0b0b0;stroke-linecap:square;stroke-width:0.8;"/>
     </g>
     <g id="line2d_42">
      <g>
       <use style="stroke:#000000;stroke-width:0.6;" x="152.744679" xlink:href="#m8482f51716" y="293.76"/>
      </g>
     </g>
    </g>
    <g id="xtick_12">
     <g id="line2d_43">
      <path clip-path="url(#pc53e25c925)" d="M 185.647203 293.76 
L 185.647203 3.456 
" style="fill:none;stroke:#b0b0b0;stroke-linecap:square;stroke-width:0.8;"/>
     </g>
     <g id="line2d_44">
      <g>
       <use style="stroke:#000000;stroke-width:0.6;" x="185.647203" xlink:href="#m8482f51716" y="293.76"/>
      </g>
     </g>
    </g>
    <g id="xtick_13">
     <g id="line2d_45">
      <path clip-path="url(#pc53e25c925)" d="M 202.3544 293.76 
L 202.3544 3.456 
" style="fill:none;stroke:#b0b0b0;stroke-linecap:square;stroke-width:0.8;"/>
     </g>
     <g id="line2d_46">
      <g>
       <use style="stroke:#000000;stroke-width:0.6;" x="202.3544" xlink:href="#m8482f51716" y="293.76"/>
      </g>
     </g>
    </g>
    <g id="xtick_14">
     <g id="line2d_47">
      <path clip-path="url(#pc53e25c925)" d="M 214.208346 293.76 
L 214.208346 3.456 
" style="fill:none;stroke:#b0b0b0;stroke-linecap:square;stroke-width:0.8;"/>
     </g>
     <g id="line2d_48">
      <g>
       <use style="stroke:#000000;stroke-width:0.6;" x="214.208346" xlink:href="#m8482f51716" y="293.76"/>
      </g>
     </g>
    </g>
    <g id="xtick_15">
     <g id="line2d_49">
      <path clip-path="url(#pc53e25c925)" d="M 223.40298 293.76 
L 223.40298 3.456 
" style="fill:none;stroke:#b0b0b0;stroke-linecap:square;stroke-width:0.8;"/>
     </g>
     <g id="line2d_50">
      <g>
       <use style="stroke:#000000;stroke-width:0.6;" x="223.40298" xlink:href="#m8482f51716" y="293.76"/>
      </g>
     </g>
    </g>
    <g id="xtick_16">
     <g id="line2d_51">
      <path clip-path="url(#pc53e25c925)" d="M 230.915543 293.76 
L 230.915543 3.456 
" style="fill:none;stroke:#b0b0b0;stroke-linecap:square;stroke-width:0.8;"/>
     </g>
     <g id="line2d_52">
      <g>
       <use style="stroke:#000000;stroke-width:0.6;" x="230.915543" xlink:href="#m8482f51716" y="293.76"/>
      </g>
     </g>
    </g>
    <g id="xtick_17">
     <g id="line2d_53">
      <path clip-path="url(#pc53e25c925)" d="M 237.267324 293.76 
L 237.267324 3.456 
" style="fill:none;stroke:#b0b0b0;stroke-linecap:square;stroke-width:0.8;"/>
     </g>
     <g id="line2d_54">
      <g>
       <use style="stroke:#000000;stroke-width:0.6;" x="237.267324" xlink:href="#m8482f51716" y="293.76"/>
      </g>
     </g>
    </g>
    <g id="xtick_18">
     <g id="line2d_55">
      <path clip-path="url(#pc53e25c925)" d="M 242.769488 293.76 
L 242.769488 3.456 
" style="fill:none;stroke:#b0b0b0;stroke-linecap:square;stroke-width:0.8;"/>
     </g>
     <g id="line2d_56">
      <g>
       <use style="stroke:#000000;stroke-width:0.6;" x="242.769488" xlink:href="#m8482f51716" y="293.76"/>
      </g>
     </g>
    </g>
    <g id="xtick_19">
     <g id="line2d_57">
      <path clip-path="url(#pc53e25c925)" d="M 247.62274 293.76 
L 247.62274 3.456 
" style="fill:none;stroke:#b0b0b0;stroke-linecap:square;stroke-width:0.8;"/>
     </g>
     <g id="line2d_58">
      <g>
       <use style="stroke:#000000;stroke-width:0.6;" x="247.62274" xlink:href="#m8482f51716" y="293.76"/>
      </g>
     </g>
    </g>
    <g id="xtick_20">
     <g id="line2d_59">
      <path clip-path="url(#pc53e25c925)" d="M 280.525264 293.76 
L 280.525264 3.456 
" style="fill:none;stroke:#b0b0b0;stroke-linecap:square;stroke-width:0.8;"/>
     </g>
     <g id="line2d_60">
      <g>
       <use style="stroke:#000000;stroke-width:0.6;" x="280.525264" xlink:href="#m8482f51716" y="293.76"/>
      </g>
     </g>
    </g>
    <g id="xtick_21">
     <g id="line2d_61">
      <path clip-path="url(#pc53e25c925)" d="M 297.232461 293.76 
L 297.232461 3.456 
" style="fill:none;stroke:#b0b0b0;stroke-linecap:square;stroke-width:0.8;"/>
     </g>
     <g id="line2d_62">
      <g>
       <use style="stroke:#000000;stroke-width:0.6;" x="297.232461" xlink:href="#m8482f51716" y="293.76"/>
      </g>
     </g>
    </g>
    <g id="xtick_22">
     <g id="line2d_63">
      <path clip-path="url(#pc53e25c925)" d="M 309.086407 293.76 
L 309.086407 3.456 
" style="fill:none;stroke:#b0b0b0;stroke-linecap:square;stroke-width:0.8;"/>
     </g>
     <g id="line2d_64">
      <g>
       <use style="stroke:#000000;stroke-width:0.6;" x="309.086407" xlink:href="#m8482f51716" y="293.76"/>
      </g>
     </g>
    </g>
    <g id="xtick_23">
     <g id="line2d_65">
      <path clip-path="url(#pc53e25c925)" d="M 318.281041 293.76 
L 318.281041 3.456 
" style="fill:none;stroke:#b0b0b0;stroke-linecap:square;stroke-width:0.8;"/>
     </g>
     <g id="line2d_66">
      <g>
       <use style="stroke:#000000;stroke-width:0.6;" x="318.281041" xlink:href="#m8482f51716" y="293.76"/>
      </g>
     </g>
    </g>
    <g id="xtick_24">
     <g id="line2d_67">
      <path clip-path="url(#pc53e25c925)" d="M 325.793604 293.76 
L 325.793604 3.456 
" style="fill:none;stroke:#b0b0b0;stroke-linecap:square;stroke-width:0.8;"/>
     </g>
     <g id="line2d_68">
      <g>
       <use style="stroke:#000000;stroke-width:0.6;" x="325.793604" xlink:href="#m8482f51716" y="293.76"/>
      </g>
     </g>
    </g>
    <g id="xtick_25">
     <g id="line2d_69">
      <path clip-path="url(#pc53e25c925)" d="M 332.145385 293.76 
L 332.145385 3.456 
" style="fill:none;stroke:#b0b0b0;stroke-linecap:square;stroke-width:0.8;"/>
     </g>
     <g id="line2d_70">
      <g>
       <use style="stroke:#000000;stroke-width:0.6;" x="332.145385" xlink:href="#m8482f51716" y="293.76"/>
      </g>
     </g>
    </g>
    <g id="xtick_26">
     <g id="line2d_71">
      <path clip-path="url(#pc53e25c925)" d="M 337.647549 293.76 
L 337.647549 3.456 
" style="fill:none;stroke:#b0b0b0;stroke-linecap:square;stroke-width:0.8;"/>
     </g>
     <g id="line2d_72">
      <g>
       <use style="stroke:#000000;stroke-width:0.6;" x="337.647549" xlink:href="#m8482f51716" y="293.76"/>
      </g>
     </g>
    </g>
    <g id="xtick_27">
     <g id="line2d_73">
      <path clip-path="url(#pc53e25c925)" d="M 342.500801 293.76 
L 342.500801 3.456 
" style="fill:none;stroke:#b0b0b0;stroke-linecap:square;stroke-width:0.8;"/>
     </g>
     <g id="line2d_74">
      <g>
       <use style="stroke:#000000;stroke-width:0.6;" x="342.500801" xlink:href="#m8482f51716" y="293.76"/>
      </g>
     </g>
    </g>
    <g id="xtick_28">
     <g id="line2d_75">
      <path clip-path="url(#pc53e25c925)" d="M 375.403325 293.76 
L 375.403325 3.456 
" style="fill:none;stroke:#b0b0b0;stroke-linecap:square;stroke-width:0.8;"/>
     </g>
     <g id="line2d_76">
      <g>
       <use style="stroke:#000000;stroke-width:0.6;" x="375.403325" xlink:href="#m8482f51716" y="293.76"/>
      </g>
     </g>
    </g>
    <g id="xtick_29">
     <g id="line2d_77">
      <path clip-path="url(#pc53e25c925)" d="M 392.110522 293.76 
L 392.110522 3.456 
" style="fill:none;stroke:#b0b0b0;stroke-linecap:square;stroke-width:0.8;"/>
     </g>
     <g id="line2d_78">
      <g>
       <use style="stroke:#000000;stroke-width:0.6;" x="392.110522" xlink:href="#m8482f51716" y="293.76"/>
      </g>
     </g>
    </g>
    <g id="xtick_30">
     <g id="line2d_79">
      <path clip-path="url(#pc53e25c925)" d="M 403.964468 293.76 
L 403.964468 3.456 
" style="fill:none;stroke:#b0b0b0;stroke-linecap:square;stroke-width:0.8;"/>
     </g>
     <g id="line2d_80">
      <g>
       <use style="stroke:#000000;stroke-width:0.6;" x="403.964468" xlink:href="#m8482f51716" y="293.76"/>
      </g>
     </g>
    </g>
    <g id="xtick_31">
     <g id="line2d_81">
      <path clip-path="url(#pc53e25c925)" d="M 413.159102 293.76 
L 413.159102 3.456 
" style="fill:none;stroke:#b0b0b0;stroke-linecap:square;stroke-width:0.8;"/>
     </g>
     <g id="line2d_82">
      <g>
       <use style="stroke:#000000;stroke-width:0.6;" x="413.159102" xlink:href="#m8482f51716" y="293.76"/>
      </g>
     </g>
    </g>
    <g id="xtick_32">
     <g id="line2d_83">
      <path clip-path="url(#pc53e25c925)" d="M 420.671665 293.76 
L 420.671665 3.456 
" style="fill:none;stroke:#b0b0b0;stroke-linecap:square;stroke-width:0.8;"/>
     </g>
     <g id="line2d_84">
      <g>
       <use style="stroke:#000000;stroke-width:0.6;" x="420.671665" xlink:href="#m8482f51716" y="293.76"/>
      </g>
     </g>
    </g>
    <g id="xtick_33">
     <g id="line2d_85">
      <path clip-path="url(#pc53e25c925)" d="M 427.023446 293.76 
L 427.023446 3.456 
" style="fill:none;stroke:#b0b0b0;stroke-linecap:square;stroke-width:0.8;"/>
     </g>
     <g id="line2d_86">
      <g>
       <use style="stroke:#000000;stroke-width:0.6;" x="427.023446" xlink:href="#m8482f51716" y="293.76"/>
      </g>
     </g>
    </g>
    <g id="xtick_34">
     <g id="line2d_87">
      <path clip-path="url(#pc53e25c925)" d="M 432.52561 293.76 
L 432.52561 3.456 
" style="fill:none;stroke:#b0b0b0;stroke-linecap:square;stroke-width:0.8;"/>
     </g>
     <g id="line2d_88">
      <g>
       <use style="stroke:#000000;stroke-width:0.6;" x="432.52561" xlink:href="#m8482f51716" y="293.76"/>
      </g>
     </g>
    </g>
    <g id="xtick_35">
     <g id="line2d_89">
      <path clip-path="url(#pc53e25c925)" d="M 437.378862 293.76 
L 437.378862 3.456 
" style="fill:none;stroke:#b0b0b0;stroke-linecap:square;stroke-width:0.8;"/>
     </g>
     <g id="line2d_90">
      <g>
       <use style="stroke:#000000;stroke-width:0.6;" x="437.378862" xlink:href="#m8482f51716" y="293.76"/>
      </g>
     </g>
    </g>
    <g id="text_4">
     <!-- log10 of FEvals / DIM -->
     <g transform="translate(156.430563 339.313125)scale(0.2 -0.2)">
      <defs>
       <path d="M 603 4863 
L 1178 4863 
L 1178 0 
L 603 0 
L 603 4863 
z
" id="DejaVuSans-6c" transform="scale(0.015625)"/>
       <path d="M 1959 3097 
Q 1497 3097 1228 2736 
Q 959 2375 959 1747 
Q 959 1119 1226 758 
Q 1494 397 1959 397 
Q 2419 397 2687 759 
Q 2956 1122 2956 1747 
Q 2956 2369 2687 2733 
Q 2419 3097 1959 3097 
z
M 1959 3584 
Q 2709 3584 3137 3096 
Q 3566 2609 3566 1747 
Q 3566 888 3137 398 
Q 2709 -91 1959 -91 
Q 1206 -91 779 398 
Q 353 888 353 1747 
Q 353 2609 779 3096 
Q 1206 3584 1959 3584 
z
" id="DejaVuSans-6f" transform="scale(0.015625)"/>
       <path d="M 2906 1791 
Q 2906 2416 2648 2759 
Q 2391 3103 1925 3103 
Q 1463 3103 1205 2759 
Q 947 2416 947 1791 
Q 947 1169 1205 825 
Q 1463 481 1925 481 
Q 2391 481 2648 825 
Q 2906 1169 2906 1791 
z
M 3481 434 
Q 3481 -459 3084 -895 
Q 2688 -1331 1869 -1331 
Q 1566 -1331 1297 -1286 
Q 1028 -1241 775 -1147 
L 775 -588 
Q 1028 -725 1275 -790 
Q 1522 -856 1778 -856 
Q 2344 -856 2625 -561 
Q 2906 -266 2906 331 
L 2906 616 
Q 2728 306 2450 153 
Q 2172 0 1784 0 
Q 1141 0 747 490 
Q 353 981 353 1791 
Q 353 2603 747 3093 
Q 1141 3584 1784 3584 
Q 2172 3584 2450 3431 
Q 2728 3278 2906 2969 
L 2906 3500 
L 3481 3500 
L 3481 434 
z
" id="DejaVuSans-67" transform="scale(0.015625)"/>
       <path d="M 794 531 
L 1825 531 
L 1825 4091 
L 703 3866 
L 703 4441 
L 1819 4666 
L 2450 4666 
L 2450 531 
L 3481 531 
L 3481 0 
L 794 0 
L 794 531 
z
" id="DejaVuSans-31" transform="scale(0.015625)"/>
       <path id="DejaVuSans-20" transform="scale(0.015625)"/>
       <path d="M 2375 4863 
L 2375 4384 
L 1825 4384 
Q 1516 4384 1395 4259 
Q 1275 4134 1275 3809 
L 1275 3500 
L 2222 3500 
L 2222 3053 
L 1275 3053 
L 1275 0 
L 697 0 
L 697 3053 
L 147 3053 
L 147 3500 
L 697 3500 
L 697 3744 
Q 697 4328 969 4595 
Q 1241 4863 1831 4863 
L 2375 4863 
z
" id="DejaVuSans-66" transform="scale(0.015625)"/>
       <path d="M 628 4666 
L 3309 4666 
L 3309 4134 
L 1259 4134 
L 1259 2759 
L 3109 2759 
L 3109 2228 
L 1259 2228 
L 1259 0 
L 628 0 
L 628 4666 
z
" id="DejaVuSans-46" transform="scale(0.015625)"/>
       <path d="M 628 4666 
L 3578 4666 
L 3578 4134 
L 1259 4134 
L 1259 2753 
L 3481 2753 
L 3481 2222 
L 1259 2222 
L 1259 531 
L 3634 531 
L 3634 0 
L 628 0 
L 628 4666 
z
" id="DejaVuSans-45" transform="scale(0.015625)"/>
       <path d="M 191 3500 
L 800 3500 
L 1894 563 
L 2988 3500 
L 3597 3500 
L 2284 0 
L 1503 0 
L 191 3500 
z
" id="DejaVuSans-76" transform="scale(0.015625)"/>
       <path d="M 2194 1759 
Q 1497 1759 1228 1600 
Q 959 1441 959 1056 
Q 959 750 1161 570 
Q 1363 391 1709 391 
Q 2188 391 2477 730 
Q 2766 1069 2766 1631 
L 2766 1759 
L 2194 1759 
z
M 3341 1997 
L 3341 0 
L 2766 0 
L 2766 531 
Q 2569 213 2275 61 
Q 1981 -91 1556 -91 
Q 1019 -91 701 211 
Q 384 513 384 1019 
Q 384 1609 779 1909 
Q 1175 2209 1959 2209 
L 2766 2209 
L 2766 2266 
Q 2766 2663 2505 2880 
Q 2244 3097 1772 3097 
Q 1472 3097 1187 3025 
Q 903 2953 641 2809 
L 641 3341 
Q 956 3463 1253 3523 
Q 1550 3584 1831 3584 
Q 2591 3584 2966 3190 
Q 3341 2797 3341 1997 
z
" id="DejaVuSans-61" transform="scale(0.015625)"/>
       <path d="M 2834 3397 
L 2834 2853 
Q 2591 2978 2328 3040 
Q 2066 3103 1784 3103 
Q 1356 3103 1142 2972 
Q 928 2841 928 2578 
Q 928 2378 1081 2264 
Q 1234 2150 1697 2047 
L 1894 2003 
Q 2506 1872 2764 1633 
Q 3022 1394 3022 966 
Q 3022 478 2636 193 
Q 2250 -91 1575 -91 
Q 1294 -91 989 -36 
Q 684 19 347 128 
L 347 722 
Q 666 556 975 473 
Q 1284 391 1588 391 
Q 1994 391 2212 530 
Q 2431 669 2431 922 
Q 2431 1156 2273 1281 
Q 2116 1406 1581 1522 
L 1381 1569 
Q 847 1681 609 1914 
Q 372 2147 372 2553 
Q 372 3047 722 3315 
Q 1072 3584 1716 3584 
Q 2034 3584 2315 3537 
Q 2597 3491 2834 3397 
z
" id="DejaVuSans-73" transform="scale(0.015625)"/>
       <path d="M 1625 4666 
L 2156 4666 
L 531 -594 
L 0 -594 
L 1625 4666 
z
" id="DejaVuSans-2f" transform="scale(0.015625)"/>
       <path d="M 1259 4147 
L 1259 519 
L 2022 519 
Q 2988 519 3436 956 
Q 3884 1394 3884 2338 
Q 3884 3275 3436 3711 
Q 2988 4147 2022 4147 
L 1259 4147 
z
M 628 4666 
L 1925 4666 
Q 3281 4666 3915 4102 
Q 4550 3538 4550 2338 
Q 4550 1131 3912 565 
Q 3275 0 1925 0 
L 628 0 
L 628 4666 
z
" id="DejaVuSans-44" transform="scale(0.015625)"/>
       <path d="M 628 4666 
L 1259 4666 
L 1259 0 
L 628 0 
L 628 4666 
z
" id="DejaVuSans-49" transform="scale(0.015625)"/>
       <path d="M 628 4666 
L 1569 4666 
L 2759 1491 
L 3956 4666 
L 4897 4666 
L 4897 0 
L 4281 0 
L 4281 4097 
L 3078 897 
L 2444 897 
L 1241 4097 
L 1241 0 
L 628 0 
L 628 4666 
z
" id="DejaVuSans-4d" transform="scale(0.015625)"/>
      </defs>
      <use xlink:href="#DejaVuSans-6c"/>
      <use x="27.783203" xlink:href="#DejaVuSans-6f"/>
      <use x="88.964844" xlink:href="#DejaVuSans-67"/>
      <use x="152.441406" xlink:href="#DejaVuSans-31"/>
      <use x="216.064453" xlink:href="#DejaVuSans-30"/>
      <use x="279.6875" xlink:href="#DejaVuSans-20"/>
      <use x="311.474609" xlink:href="#DejaVuSans-6f"/>
      <use x="372.65625" xlink:href="#DejaVuSans-66"/>
      <use x="407.861328" xlink:href="#DejaVuSans-20"/>
      <use x="439.648438" xlink:href="#DejaVuSans-46"/>
      <use x="497.167969" xlink:href="#DejaVuSans-45"/>
      <use x="560.351562" xlink:href="#DejaVuSans-76"/>
      <use x="619.53125" xlink:href="#DejaVuSans-61"/>
      <use x="680.810547" xlink:href="#DejaVuSans-6c"/>
      <use x="708.59375" xlink:href="#DejaVuSans-73"/>
      <use x="760.693359" xlink:href="#DejaVuSans-20"/>
      <use x="792.480469" xlink:href="#DejaVuSans-2f"/>
      <use x="826.171875" xlink:href="#DejaVuSans-20"/>
      <use x="857.958984" xlink:href="#DejaVuSans-44"/>
      <use x="934.960938" xlink:href="#DejaVuSans-49"/>
      <use x="964.453125" xlink:href="#DejaVuSans-4d"/>
     </g>
    </g>
   </g>
   <g id="matplotlib.axis_2">
    <g id="ytick_1">
     <g id="line2d_91">
      <path clip-path="url(#pc53e25c925)" d="M 62.208 293.76 
L 460.8 293.76 
" style="fill:none;stroke:#b0b0b0;stroke-linecap:square;stroke-width:0.8;"/>
     </g>
     <g id="line2d_92">
      <defs>
       <path d="M 0 0 
L -3.5 0 
" id="m602b7f1374" style="stroke:#000000;stroke-width:0.8;"/>
      </defs>
      <g>
       <use style="stroke:#000000;stroke-width:0.8;" x="62.208" xlink:href="#m602b7f1374" y="293.76"/>
      </g>
     </g>
     <g id="text_5">
      <!-- 0.0 -->
      <g transform="translate(29.763 299.83875)scale(0.16 -0.16)">
       <defs>
        <path d="M 684 794 
L 1344 794 
L 1344 0 
L 684 0 
L 684 794 
z
" id="DejaVuSans-2e" transform="scale(0.015625)"/>
       </defs>
       <use xlink:href="#DejaVuSans-30"/>
       <use x="63.623047" xlink:href="#DejaVuSans-2e"/>
       <use x="95.410156" xlink:href="#DejaVuSans-30"/>
      </g>
     </g>
    </g>
    <g id="ytick_2">
     <g id="line2d_93">
      <path clip-path="url(#pc53e25c925)" d="M 62.208 236.274059 
L 460.8 236.274059 
" style="fill:none;stroke:#b0b0b0;stroke-linecap:square;stroke-width:0.8;"/>
     </g>
     <g id="line2d_94">
      <g>
       <use style="stroke:#000000;stroke-width:0.8;" x="62.208" xlink:href="#m602b7f1374" y="236.274059"/>
      </g>
     </g>
     <g id="text_6">
      <!-- 0.2 -->
      <g transform="translate(29.763 242.352809)scale(0.16 -0.16)">
       <use xlink:href="#DejaVuSans-30"/>
       <use x="63.623047" xlink:href="#DejaVuSans-2e"/>
       <use x="95.410156" xlink:href="#DejaVuSans-32"/>
      </g>
     </g>
    </g>
    <g id="ytick_3">
     <g id="line2d_95">
      <path clip-path="url(#pc53e25c925)" d="M 62.208 178.788119 
L 460.8 178.788119 
" style="fill:none;stroke:#b0b0b0;stroke-linecap:square;stroke-width:0.8;"/>
     </g>
     <g id="line2d_96">
      <g>
       <use style="stroke:#000000;stroke-width:0.8;" x="62.208" xlink:href="#m602b7f1374" y="178.788119"/>
      </g>
     </g>
     <g id="text_7">
      <!-- 0.4 -->
      <g transform="translate(29.763 184.866869)scale(0.16 -0.16)">
       <use xlink:href="#DejaVuSans-30"/>
       <use x="63.623047" xlink:href="#DejaVuSans-2e"/>
       <use x="95.410156" xlink:href="#DejaVuSans-34"/>
      </g>
     </g>
    </g>
    <g id="ytick_4">
     <g id="line2d_97">
      <path clip-path="url(#pc53e25c925)" d="M 62.208 121.302178 
L 460.8 121.302178 
" style="fill:none;stroke:#b0b0b0;stroke-linecap:square;stroke-width:0.8;"/>
     </g>
     <g id="line2d_98">
      <g>
       <use style="stroke:#000000;stroke-width:0.8;" x="62.208" xlink:href="#m602b7f1374" y="121.302178"/>
      </g>
     </g>
     <g id="text_8">
      <!-- 0.6 -->
      <g transform="translate(29.763 127.380928)scale(0.16 -0.16)">
       <defs>
        <path d="M 2113 2584 
Q 1688 2584 1439 2293 
Q 1191 2003 1191 1497 
Q 1191 994 1439 701 
Q 1688 409 2113 409 
Q 2538 409 2786 701 
Q 3034 994 3034 1497 
Q 3034 2003 2786 2293 
Q 2538 2584 2113 2584 
z
M 3366 4563 
L 3366 3988 
Q 3128 4100 2886 4159 
Q 2644 4219 2406 4219 
Q 1781 4219 1451 3797 
Q 1122 3375 1075 2522 
Q 1259 2794 1537 2939 
Q 1816 3084 2150 3084 
Q 2853 3084 3261 2657 
Q 3669 2231 3669 1497 
Q 3669 778 3244 343 
Q 2819 -91 2113 -91 
Q 1303 -91 875 529 
Q 447 1150 447 2328 
Q 447 3434 972 4092 
Q 1497 4750 2381 4750 
Q 2619 4750 2861 4703 
Q 3103 4656 3366 4563 
z
" id="DejaVuSans-36" transform="scale(0.015625)"/>
       </defs>
       <use xlink:href="#DejaVuSans-30"/>
       <use x="63.623047" xlink:href="#DejaVuSans-2e"/>
       <use x="95.410156" xlink:href="#DejaVuSans-36"/>
      </g>
     </g>
    </g>
    <g id="ytick_5">
     <g id="line2d_99">
      <path clip-path="url(#pc53e25c925)" d="M 62.208 63.816238 
L 460.8 63.816238 
" style="fill:none;stroke:#b0b0b0;stroke-linecap:square;stroke-width:0.8;"/>
     </g>
     <g id="line2d_100">
      <g>
       <use style="stroke:#000000;stroke-width:0.8;" x="62.208" xlink:href="#m602b7f1374" y="63.816238"/>
      </g>
     </g>
     <g id="text_9">
      <!-- 0.8 -->
      <g transform="translate(29.763 69.894988)scale(0.16 -0.16)">
       <defs>
        <path d="M 2034 2216 
Q 1584 2216 1326 1975 
Q 1069 1734 1069 1313 
Q 1069 891 1326 650 
Q 1584 409 2034 409 
Q 2484 409 2743 651 
Q 3003 894 3003 1313 
Q 3003 1734 2745 1975 
Q 2488 2216 2034 2216 
z
M 1403 2484 
Q 997 2584 770 2862 
Q 544 3141 544 3541 
Q 544 4100 942 4425 
Q 1341 4750 2034 4750 
Q 2731 4750 3128 4425 
Q 3525 4100 3525 3541 
Q 3525 3141 3298 2862 
Q 3072 2584 2669 2484 
Q 3125 2378 3379 2068 
Q 3634 1759 3634 1313 
Q 3634 634 3220 271 
Q 2806 -91 2034 -91 
Q 1263 -91 848 271 
Q 434 634 434 1313 
Q 434 1759 690 2068 
Q 947 2378 1403 2484 
z
M 1172 3481 
Q 1172 3119 1398 2916 
Q 1625 2713 2034 2713 
Q 2441 2713 2670 2916 
Q 2900 3119 2900 3481 
Q 2900 3844 2670 4047 
Q 2441 4250 2034 4250 
Q 1625 4250 1398 4047 
Q 1172 3844 1172 3481 
z
" id="DejaVuSans-38" transform="scale(0.015625)"/>
       </defs>
       <use xlink:href="#DejaVuSans-30"/>
       <use x="63.623047" xlink:href="#DejaVuSans-2e"/>
       <use x="95.410156" xlink:href="#DejaVuSans-38"/>
      </g>
     </g>
    </g>
    <g id="ytick_6">
     <g id="line2d_101">
      <path clip-path="url(#pc53e25c925)" d="M 62.208 6.330297 
L 460.8 6.330297 
" style="fill:none;stroke:#b0b0b0;stroke-linecap:square;stroke-width:0.8;"/>
     </g>
     <g id="line2d_102">
      <g>
       <use style="stroke:#000000;stroke-width:0.8;" x="62.208" xlink:href="#m602b7f1374" y="6.330297"/>
      </g>
     </g>
     <g id="text_10">
      <!-- 1.0 -->
      <g transform="translate(29.763 12.409047)scale(0.16 -0.16)">
       <use xlink:href="#DejaVuSans-31"/>
       <use x="63.623047" xlink:href="#DejaVuSans-2e"/>
       <use x="95.410156" xlink:href="#DejaVuSans-30"/>
      </g>
     </g>
    </g>
    <g id="text_11">
     <!-- proportion of trials -->
     <g transform="translate(21.603625 241.61425)rotate(-90)scale(0.2 -0.2)">
      <defs>
       <path d="M 1159 525 
L 1159 -1331 
L 581 -1331 
L 581 3500 
L 1159 3500 
L 1159 2969 
Q 1341 3281 1617 3432 
Q 1894 3584 2278 3584 
Q 2916 3584 3314 3078 
Q 3713 2572 3713 1747 
Q 3713 922 3314 415 
Q 2916 -91 2278 -91 
Q 1894 -91 1617 61 
Q 1341 213 1159 525 
z
M 3116 1747 
Q 3116 2381 2855 2742 
Q 2594 3103 2138 3103 
Q 1681 3103 1420 2742 
Q 1159 2381 1159 1747 
Q 1159 1113 1420 752 
Q 1681 391 2138 391 
Q 2594 391 2855 752 
Q 3116 1113 3116 1747 
z
" id="DejaVuSans-70" transform="scale(0.015625)"/>
       <path d="M 2631 2963 
Q 2534 3019 2420 3045 
Q 2306 3072 2169 3072 
Q 1681 3072 1420 2755 
Q 1159 2438 1159 1844 
L 1159 0 
L 581 0 
L 581 3500 
L 1159 3500 
L 1159 2956 
Q 1341 3275 1631 3429 
Q 1922 3584 2338 3584 
Q 2397 3584 2469 3576 
Q 2541 3569 2628 3553 
L 2631 2963 
z
" id="DejaVuSans-72" transform="scale(0.015625)"/>
       <path d="M 1172 4494 
L 1172 3500 
L 2356 3500 
L 2356 3053 
L 1172 3053 
L 1172 1153 
Q 1172 725 1289 603 
Q 1406 481 1766 481 
L 2356 481 
L 2356 0 
L 1766 0 
Q 1100 0 847 248 
Q 594 497 594 1153 
L 594 3053 
L 172 3053 
L 172 3500 
L 594 3500 
L 594 4494 
L 1172 4494 
z
" id="DejaVuSans-74" transform="scale(0.015625)"/>
       <path d="M 603 3500 
L 1178 3500 
L 1178 0 
L 603 0 
L 603 3500 
z
M 603 4863 
L 1178 4863 
L 1178 4134 
L 603 4134 
L 603 4863 
z
" id="DejaVuSans-69" transform="scale(0.015625)"/>
       <path d="M 3513 2113 
L 3513 0 
L 2938 0 
L 2938 2094 
Q 2938 2591 2744 2837 
Q 2550 3084 2163 3084 
Q 1697 3084 1428 2787 
Q 1159 2491 1159 1978 
L 1159 0 
L 581 0 
L 581 3500 
L 1159 3500 
L 1159 2956 
Q 1366 3272 1645 3428 
Q 1925 3584 2291 3584 
Q 2894 3584 3203 3211 
Q 3513 2838 3513 2113 
z
" id="DejaVuSans-6e" transform="scale(0.015625)"/>
      </defs>
      <use xlink:href="#DejaVuSans-70"/>
      <use x="63.476562" xlink:href="#DejaVuSans-72"/>
      <use x="102.339844" xlink:href="#DejaVuSans-6f"/>
      <use x="163.521484" xlink:href="#DejaVuSans-70"/>
      <use x="226.998047" xlink:href="#DejaVuSans-6f"/>
      <use x="288.179688" xlink:href="#DejaVuSans-72"/>
      <use x="329.292969" xlink:href="#DejaVuSans-74"/>
      <use x="368.501953" xlink:href="#DejaVuSans-69"/>
      <use x="396.285156" xlink:href="#DejaVuSans-6f"/>
      <use x="457.466797" xlink:href="#DejaVuSans-6e"/>
      <use x="520.845703" xlink:href="#DejaVuSans-20"/>
      <use x="552.632812" xlink:href="#DejaVuSans-6f"/>
      <use x="613.814453" xlink:href="#DejaVuSans-66"/>
      <use x="649.019531" xlink:href="#DejaVuSans-20"/>
      <use x="680.806641" xlink:href="#DejaVuSans-74"/>
      <use x="720.015625" xlink:href="#DejaVuSans-72"/>
      <use x="761.128906" xlink:href="#DejaVuSans-69"/>
      <use x="788.912109" xlink:href="#DejaVuSans-61"/>
      <use x="850.191406" xlink:href="#DejaVuSans-6c"/>
      <use x="877.974609" xlink:href="#DejaVuSans-73"/>
     </g>
    </g>
   </g>
   <g id="line2d_103">
    <path clip-path="url(#pc53e25c925)" d="M 171.896017 293.76 
L 171.896017 289.927604 
L 172.820413 289.927604 
L 172.820413 286.095208 
L 173.100721 286.095208 
L 173.100721 282.262812 
L 174.067047 282.262812 
L 174.067047 278.430416 
L 177.281159 278.430416 
L 177.281159 274.59802 
L 178.093415 274.59802 
L 178.093415 270.765624 
L 181.704491 270.765624 
L 181.704491 266.933228 
L 182.601506 266.933228 
L 182.601506 263.100832 
L 184.762159 263.100832 
L 184.762159 259.268436 
L 185.698677 259.268436 
L 185.698677 255.43604 
L 185.903933 255.43604 
L 185.903933 251.603644 
L 186.412644 251.603644 
L 186.412644 247.771248 
L 186.463171 247.771248 
L 186.463171 243.938851 
L 187.312789 243.938851 
L 187.312789 240.106455 
L 188.627177 240.106455 
L 188.627177 236.274059 
L 190.728739 236.274059 
L 190.728739 232.441663 
L 191.940078 232.441663 
L 191.940078 228.609267 
L 192.814952 228.609267 
L 192.814952 224.776871 
L 194.635296 224.776871 
L 194.635296 220.944475 
L 202.182354 220.944475 
L 202.182354 217.112079 
L 204.560549 217.112079 
L 204.560549 213.279683 
L 205.04589 213.279683 
L 205.04589 209.447287 
L 309.032289 209.447287 
L 309.032289 205.614891 
L 310.486497 205.614891 
L 310.486497 201.782495 
L 311.329154 201.782495 
L 311.329154 197.950099 
L 311.806836 197.950099 
L 311.806836 194.117703 
L 318.060002 194.117703 
L 318.060002 190.285307 
L 332.686314 190.285307 
L 332.686314 186.452911 
L 339.8134 186.452911 
L 339.8134 182.620515 
L 346.46654 182.620515 
L 346.46654 178.788119 
L 368.417891 178.788119 
L 368.417891 174.955723 
L 376.009706 174.955723 
L 376.009706 171.123327 
L 386.515248 171.123327 
L 386.515248 167.290931 
L 390.865361 167.290931 
L 390.865361 163.458535 
L 393.628105 163.458535 
L 393.628105 159.626139 
L 401.876671 159.626139 
L 401.876671 155.793743 
L 412.525466 155.793743 
L 412.525466 151.961347 
L 431.269608 151.961347 
L 431.269608 148.12895 
L 432.592771 148.12895 
L 432.592771 144.296554 
L 434.106026 144.296554 
L 434.106026 140.464158 
L 441.157994 140.464158 
L 441.157994 136.631762 
L 441.157994 136.631762 
L 441.157994 136.631762 
L 460.8 136.631762 
" style="fill:none;stroke:#000000;stroke-linecap:square;stroke-width:1.5;"/>
   </g>
   <g id="line2d_104">
    <defs>
     <path d="M 0 14.142136 
L 8.485281 0 
L 0 -14.142136 
L -8.485281 0 
z
" id="m497c5c7dc5" style="stroke:#000000;stroke-linejoin:miter;stroke-width:1.5;"/>
    </defs>
    <g clip-path="url(#pc53e25c925)">
     <use style="fill-opacity:0;stroke:#000000;stroke-linejoin:miter;stroke-width:1.5;" x="190.728739" xlink:href="#m497c5c7dc5" y="236.274059"/>
     <use style="fill-opacity:0;stroke:#000000;stroke-linejoin:miter;stroke-width:1.5;" x="309.032289" xlink:href="#m497c5c7dc5" y="209.447287"/>
     <use style="fill-opacity:0;stroke:#000000;stroke-linejoin:miter;stroke-width:1.5;" x="376.009706" xlink:href="#m497c5c7dc5" y="174.955723"/>
     <use style="fill-opacity:0;stroke:#000000;stroke-linejoin:miter;stroke-width:1.5;" x="441.157994" xlink:href="#m497c5c7dc5" y="140.464158"/>
     <use style="fill-opacity:0;stroke:#000000;stroke-linejoin:miter;stroke-width:1.5;" x="441.157994" xlink:href="#m497c5c7dc5" y="136.631762"/>
    </g>
   </g>
   <g id="line2d_105">
    <path clip-path="url(#pc53e25c925)" style="fill:none;stroke:#000000;stroke-linecap:square;stroke-width:1.5;"/>
    <g clip-path="url(#pc53e25c925)">
     <use style="fill-opacity:0;stroke:#000000;stroke-linejoin:miter;stroke-width:1.5;" x="-1" xlink:href="#m497c5c7dc5" y="581.189703"/>
     <use style="fill-opacity:0;stroke:#000000;stroke-linejoin:miter;stroke-width:1.5;" x="460.8" xlink:href="#m497c5c7dc5" y="581.189703"/>
    </g>
   </g>
   <g id="line2d_106">
    <path clip-path="url(#pc53e25c925)" d="M 179.492391 293.76 
L 179.492391 289.927604 
L 180.027143 289.927604 
L 180.027143 286.095208 
L 181.191204 286.095208 
L 181.191204 282.262812 
L 182.434797 282.262812 
L 182.434797 278.430416 
L 182.877866 278.430416 
L 182.877866 274.59802 
L 186.362054 274.59802 
L 186.362054 270.765624 
L 186.56404 270.765624 
L 186.56404 266.933228 
L 186.56404 266.933228 
L 186.56404 263.100832 
L 187.46092 263.100832 
L 187.46092 259.268436 
L 187.657603 259.268436 
L 187.657603 255.43604 
L 188.096737 255.43604 
L 188.096737 251.603644 
L 188.242081 251.603644 
L 188.242081 247.771248 
L 188.675062 247.771248 
L 188.675062 243.938851 
L 188.913656 243.938851 
L 188.913656 240.106455 
L 189.150876 240.106455 
L 189.150876 236.274059 
L 190.132551 236.274059 
L 190.132551 232.441663 
L 194.759345 232.441663 
L 194.759345 228.609267 
L 195.211024 228.609267 
L 195.211024 224.776871 
L 196.299141 224.776871 
L 196.299141 220.944475 
L 197.860124 220.944475 
L 197.860124 217.112079 
L 203.472238 217.112079 
L 203.472238 213.279683 
L 302.265402 213.279683 
L 302.265402 209.447287 
L 304.813642 209.447287 
L 304.813642 205.614891 
L 325.271817 205.614891 
L 325.271817 201.782495 
L 358.15695 201.782495 
L 358.15695 197.950099 
L 367.636776 197.950099 
L 367.636776 194.117703 
L 371.241822 194.117703 
L 371.241822 190.285307 
L 372.173096 190.285307 
L 372.173096 186.452911 
L 389.98939 186.452911 
L 389.98939 182.620515 
L 393.325493 182.620515 
L 393.325493 178.788119 
L 395.976239 178.788119 
L 395.976239 174.955723 
L 402.004346 174.955723 
L 402.004346 171.123327 
L 413.221274 171.123327 
L 413.221274 167.290931 
L 414.735751 167.290931 
L 414.735751 163.458535 
L 415.229303 163.458535 
L 415.229303 159.626139 
L 417.327451 159.626139 
L 417.327451 155.793743 
L 427.707624 155.793743 
L 427.707624 151.961347 
L 432.774917 151.961347 
L 432.774917 148.12895 
L 432.774917 148.12895 
L 432.774917 148.12895 
L 460.8 148.12895 
" style="fill:none;stroke:#000000;stroke-linecap:square;stroke-width:1.5;"/>
   </g>
   <g id="line2d_107">
    <defs>
     <path d="M 0 7.5 
C 1.989023 7.5 3.896849 6.709753 5.303301 5.303301 
C 6.709753 3.896849 7.5 1.989023 7.5 0 
C 7.5 -1.989023 6.709753 -3.896849 5.303301 -5.303301 
C 3.896849 -6.709753 1.989023 -7.5 0 -7.5 
C -1.989023 -7.5 -3.896849 -6.709753 -5.303301 -5.303301 
C -6.709753 -3.896849 -7.5 -1.989023 -7.5 0 
C -7.5 1.989023 -6.709753 3.896849 -5.303301 5.303301 
C -3.896849 6.709753 -1.989023 7.5 0 7.5 
z
" id="m973c4447df" style="stroke:#000000;stroke-width:1.5;"/>
    </defs>
    <g clip-path="url(#pc53e25c925)">
     <use style="fill-opacity:0;stroke:#000000;stroke-width:1.5;" x="197.860124" xlink:href="#m973c4447df" y="220.944475"/>
     <use style="fill-opacity:0;stroke:#000000;stroke-width:1.5;" x="203.472238" xlink:href="#m973c4447df" y="217.112079"/>
     <use style="fill-opacity:0;stroke:#000000;stroke-width:1.5;" x="367.636776" xlink:href="#m973c4447df" y="197.950099"/>
     <use style="fill-opacity:0;stroke:#000000;stroke-width:1.5;" x="427.707624" xlink:href="#m973c4447df" y="155.793743"/>
     <use style="fill-opacity:0;stroke:#000000;stroke-width:1.5;" x="432.774917" xlink:href="#m973c4447df" y="148.12895"/>
    </g>
   </g>
   <g id="line2d_108">
    <path clip-path="url(#pc53e25c925)" style="fill:none;stroke:#000000;stroke-linecap:square;stroke-width:1.5;"/>
   </g>
   <g id="line2d_109">
    <path clip-path="url(#pc53e25c925)" d="M 218.485294 293.76 
L 218.485294 289.927604 
L 218.531696 289.927604 
L 218.531696 286.095208 
L 222.570527 286.095208 
L 222.570527 282.262812 
L 314.320187 282.262812 
L 314.320187 278.430416 
L 314.76909 278.430416 
L 314.76909 274.59802 
L 315.059724 274.59802 
L 315.059724 270.765624 
L 321.383489 270.765624 
L 321.383489 266.933228 
L 334.494957 266.933228 
L 334.494957 263.100832 
L 347.282773 263.100832 
L 347.282773 259.268436 
L 349.230519 259.268436 
L 349.230519 255.43604 
L 349.555862 255.43604 
L 349.555862 251.603644 
L 359.386927 251.603644 
L 359.386927 247.771248 
L 359.765814 247.771248 
L 359.765814 243.938851 
L 360.745507 243.938851 
L 360.745507 240.106455 
L 362.545585 240.106455 
L 362.545585 236.274059 
L 386.958483 236.274059 
L 386.958483 232.441663 
L 387.468932 232.441663 
L 387.468932 228.609267 
L 387.9036 228.609267 
L 387.9036 224.776871 
L 388.801114 224.776871 
L 388.801114 220.944475 
L 389.085894 220.944475 
L 389.085894 217.112079 
L 390.934316 217.112079 
L 390.934316 213.279683 
L 398.195671 213.279683 
L 398.195671 209.447287 
L 412.482135 209.447287 
L 412.482135 205.614891 
L 413.179287 205.614891 
L 413.179287 201.782495 
L 413.55564 201.782495 
L 413.55564 197.950099 
L 415.202648 197.950099 
L 415.202648 194.117703 
L 441.44293 194.117703 
L 441.44293 190.285307 
L 441.44293 190.285307 
L 441.44293 190.285307 
L 460.8 190.285307 
" style="fill:none;stroke:#00bfbf;stroke-linecap:square;stroke-width:1.5;"/>
   </g>
   <g id="line2d_110">
    <defs>
     <path d="M 0 14.142136 
L 8.485281 0 
L 0 -14.142136 
L -8.485281 0 
z
" id="maa2ef6573b" style="stroke:#00bfbf;stroke-linejoin:miter;stroke-width:1.5;"/>
    </defs>
    <g clip-path="url(#pc53e25c925)">
     <use style="fill-opacity:0;stroke:#00bfbf;stroke-linejoin:miter;stroke-width:1.5;" x="222.570527" xlink:href="#maa2ef6573b" y="286.095208"/>
     <use style="fill-opacity:0;stroke:#00bfbf;stroke-linejoin:miter;stroke-width:1.5;" x="360.745507" xlink:href="#maa2ef6573b" y="243.938851"/>
     <use style="fill-opacity:0;stroke:#00bfbf;stroke-linejoin:miter;stroke-width:1.5;" x="390.934316" xlink:href="#maa2ef6573b" y="217.112079"/>
     <use style="fill-opacity:0;stroke:#00bfbf;stroke-linejoin:miter;stroke-width:1.5;" x="441.44293" xlink:href="#maa2ef6573b" y="194.117703"/>
     <use style="fill-opacity:0;stroke:#00bfbf;stroke-linejoin:miter;stroke-width:1.5;" x="441.44293" xlink:href="#maa2ef6573b" y="190.285307"/>
    </g>
   </g>
   <g id="line2d_111">
    <path clip-path="url(#pc53e25c925)" style="fill:none;stroke:#00bfbf;stroke-linecap:square;stroke-width:1.5;"/>
    <g clip-path="url(#pc53e25c925)">
     <use style="fill-opacity:0;stroke:#00bfbf;stroke-linejoin:miter;stroke-width:1.5;" x="-1" xlink:href="#maa2ef6573b" y="581.189703"/>
     <use style="fill-opacity:0;stroke:#00bfbf;stroke-linejoin:miter;stroke-width:1.5;" x="460.8" xlink:href="#maa2ef6573b" y="581.189703"/>
    </g>
   </g>
   <g id="line2d_112">
    <path clip-path="url(#pc53e25c925)" d="M 210.548054 293.76 
L 210.548054 289.927604 
L 218.508502 289.927604 
L 218.508502 286.095208 
L 245.737482 286.095208 
L 245.737482 282.262812 
L 282.338981 282.262812 
L 282.338981 278.430416 
L 286.765052 278.430416 
L 286.765052 274.59802 
L 304.325119 274.59802 
L 304.325119 270.765624 
L 311.975246 270.765624 
L 311.975246 266.933228 
L 313.079166 266.933228 
L 313.079166 263.100832 
L 315.447752 263.100832 
L 315.447752 259.268436 
L 327.333685 259.268436 
L 327.333685 255.43604 
L 327.396485 255.43604 
L 327.396485 251.603644 
L 330.949438 251.603644 
L 330.949438 247.771248 
L 355.910536 247.771248 
L 355.910536 243.938851 
L 356.560894 243.938851 
L 356.560894 240.106455 
L 359.195024 240.106455 
L 359.195024 236.274059 
L 361.070609 236.274059 
L 361.070609 232.441663 
L 365.158206 232.441663 
L 365.158206 228.609267 
L 369.725372 228.609267 
L 369.725372 224.776871 
L 370.670358 224.776871 
L 370.670358 220.944475 
L 373.959318 220.944475 
L 373.959318 217.112079 
L 386.69147 217.112079 
L 386.69147 213.279683 
L 387.621607 213.279683 
L 387.621607 209.447287 
L 398.317538 209.447287 
L 398.317538 205.614891 
L 400.049235 205.614891 
L 400.049235 201.782495 
L 401.151588 201.782495 
L 401.151588 197.950099 
L 403.833175 197.950099 
L 403.833175 194.117703 
L 411.041657 194.117703 
L 411.041657 190.285307 
L 411.884697 190.285307 
L 411.884697 186.452911 
L 415.861205 186.452911 
L 415.861205 182.620515 
L 417.620976 182.620515 
L 417.620976 178.788119 
L 428.97115 178.788119 
L 428.97115 174.955723 
L 428.97115 174.955723 
L 428.97115 174.955723 
L 460.8 174.955723 
" style="fill:none;stroke:#00bfbf;stroke-linecap:square;stroke-width:1.5;"/>
   </g>
   <g id="line2d_113">
    <defs>
     <path d="M 0 7.5 
C 1.989023 7.5 3.896849 6.709753 5.303301 5.303301 
C 6.709753 3.896849 7.5 1.989023 7.5 0 
C 7.5 -1.989023 6.709753 -3.896849 5.303301 -5.303301 
C 3.896849 -6.709753 1.989023 -7.5 0 -7.5 
C -1.989023 -7.5 -3.896849 -6.709753 -5.303301 -5.303301 
C -6.709753 -3.896849 -7.5 -1.989023 -7.5 0 
C -7.5 1.989023 -6.709753 3.896849 -5.303301 5.303301 
C -3.896849 6.709753 -1.989023 7.5 0 7.5 
z
" id="m6dcc344513" style="stroke:#00bfbf;stroke-width:1.5;"/>
    </defs>
    <g clip-path="url(#pc53e25c925)">
     <use style="fill-opacity:0;stroke:#00bfbf;stroke-width:1.5;" x="218.508502" xlink:href="#m6dcc344513" y="289.927604"/>
     <use style="fill-opacity:0;stroke:#00bfbf;stroke-width:1.5;" x="313.079166" xlink:href="#m6dcc344513" y="266.933228"/>
     <use style="fill-opacity:0;stroke:#00bfbf;stroke-width:1.5;" x="361.070609" xlink:href="#m6dcc344513" y="236.274059"/>
     <use style="fill-opacity:0;stroke:#00bfbf;stroke-width:1.5;" x="411.041657" xlink:href="#m6dcc344513" y="194.117703"/>
     <use style="fill-opacity:0;stroke:#00bfbf;stroke-width:1.5;" x="428.97115" xlink:href="#m6dcc344513" y="174.955723"/>
    </g>
   </g>
   <g id="line2d_114">
    <path clip-path="url(#pc53e25c925)" style="fill:none;stroke:#00bfbf;stroke-linecap:square;stroke-width:1.5;"/>
   </g>
   <g id="line2d_115">
    <path clip-path="url(#pc53e25c925)" d="M 313.188881 293.76 
L 313.188881 289.927604 
L 316.102388 289.927604 
L 316.102388 286.095208 
L 317.40652 286.095208 
L 317.40652 282.262812 
L 317.478009 282.262812 
L 317.478009 278.430416 
L 324.618104 278.430416 
L 324.618104 274.59802 
L 348.596711 274.59802 
L 348.596711 270.765624 
L 349.564541 270.765624 
L 349.564541 266.933228 
L 350.810625 266.933228 
L 350.810625 263.100832 
L 351.324759 263.100832 
L 351.324759 259.268436 
L 352.408036 259.268436 
L 352.408036 255.43604 
L 399.742807 255.43604 
L 399.742807 251.603644 
L 399.742807 251.603644 
L 399.742807 251.603644 
L 460.8 251.603644 
" style="fill:none;stroke:#bf00bf;stroke-linecap:square;stroke-width:1.5;"/>
   </g>
   <g id="line2d_116">
    <defs>
     <path d="M 0 14.142136 
L 8.485281 0 
L 0 -14.142136 
L -8.485281 0 
z
" id="m9096ac0f2c" style="stroke:#bf00bf;stroke-linejoin:miter;stroke-width:1.5;"/>
    </defs>
    <g clip-path="url(#pc53e25c925)">
     <use style="fill-opacity:0;stroke:#bf00bf;stroke-linejoin:miter;stroke-width:1.5;" x="351.324759" xlink:href="#m9096ac0f2c" y="263.100832"/>
     <use style="fill-opacity:0;stroke:#bf00bf;stroke-linejoin:miter;stroke-width:1.5;" x="399.742807" xlink:href="#m9096ac0f2c" y="255.43604"/>
     <use style="fill-opacity:0;stroke:#bf00bf;stroke-linejoin:miter;stroke-width:1.5;" x="399.742807" xlink:href="#m9096ac0f2c" y="251.603644"/>
    </g>
   </g>
   <g id="line2d_117">
    <path clip-path="url(#pc53e25c925)" style="fill:none;stroke:#bf00bf;stroke-linecap:square;stroke-width:1.5;"/>
    <g clip-path="url(#pc53e25c925)">
     <use style="fill-opacity:0;stroke:#bf00bf;stroke-linejoin:miter;stroke-width:1.5;" x="-1" xlink:href="#m9096ac0f2c" y="581.189703"/>
     <use style="fill-opacity:0;stroke:#bf00bf;stroke-linejoin:miter;stroke-width:1.5;" x="460.8" xlink:href="#m9096ac0f2c" y="581.189703"/>
    </g>
   </g>
   <g id="line2d_118">
    <path clip-path="url(#pc53e25c925)" d="M 249.436457 293.76 
L 249.436457 289.927604 
L 264.023579 289.927604 
L 264.023579 286.095208 
L 264.838039 286.095208 
L 264.838039 282.262812 
L 315.321767 282.262812 
L 315.321767 278.430416 
L 318.217123 278.430416 
L 318.217123 274.59802 
L 319.497011 274.59802 
L 319.497011 270.765624 
L 328.819868 270.765624 
L 328.819868 266.933228 
L 352.707534 266.933228 
L 352.707534 263.100832 
L 360.005259 263.100832 
L 360.005259 259.268436 
L 372.167525 259.268436 
L 372.167525 255.43604 
L 375.980258 255.43604 
L 375.980258 251.603644 
L 400.867995 251.603644 
L 400.867995 247.771248 
L 402.027296 247.771248 
L 402.027296 243.938851 
L 403.609611 243.938851 
L 403.609611 240.106455 
L 404.902707 240.106455 
L 404.902707 236.274059 
L 431.758801 236.274059 
L 431.758801 232.441663 
L 431.758801 232.441663 
L 431.758801 232.441663 
L 460.8 232.441663 
" style="fill:none;stroke:#bf00bf;stroke-linecap:square;stroke-width:1.5;"/>
   </g>
   <g id="line2d_119">
    <defs>
     <path d="M 0 7.5 
C 1.989023 7.5 3.896849 6.709753 5.303301 5.303301 
C 6.709753 3.896849 7.5 1.989023 7.5 0 
C 7.5 -1.989023 6.709753 -3.896849 5.303301 -5.303301 
C 3.896849 -6.709753 1.989023 -7.5 0 -7.5 
C -1.989023 -7.5 -3.896849 -6.709753 -5.303301 -5.303301 
C -6.709753 -3.896849 -7.5 -1.989023 -7.5 0 
C -7.5 1.989023 -6.709753 3.896849 -5.303301 5.303301 
C -3.896849 6.709753 -1.989023 7.5 0 7.5 
z
" id="m4f4de41fbe" style="stroke:#bf00bf;stroke-width:1.5;"/>
    </defs>
    <g clip-path="url(#pc53e25c925)">
     <use style="fill-opacity:0;stroke:#bf00bf;stroke-width:1.5;" x="319.497011" xlink:href="#m4f4de41fbe" y="274.59802"/>
     <use style="fill-opacity:0;stroke:#bf00bf;stroke-width:1.5;" x="372.167525" xlink:href="#m4f4de41fbe" y="259.268436"/>
     <use style="fill-opacity:0;stroke:#bf00bf;stroke-width:1.5;" x="431.758801" xlink:href="#m4f4de41fbe" y="236.274059"/>
     <use style="fill-opacity:0;stroke:#bf00bf;stroke-width:1.5;" x="431.758801" xlink:href="#m4f4de41fbe" y="232.441663"/>
    </g>
   </g>
   <g id="line2d_120">
    <path clip-path="url(#pc53e25c925)" style="fill:none;stroke:#bf00bf;stroke-linecap:square;stroke-width:1.5;"/>
   </g>
   <g id="line2d_121">
    <path clip-path="url(#pc53e25c925)" d="M 317.597581 293.76 
L 317.597581 289.927604 
L 321.826323 289.927604 
L 321.826323 286.095208 
L 322.411946 286.095208 
L 322.411946 282.262812 
L 323.165414 282.262812 
L 323.165414 278.430416 
L 328.139469 278.430416 
L 328.139469 274.59802 
L 352.276431 274.59802 
L 352.276431 270.765624 
L 352.921406 270.765624 
L 352.921406 266.933228 
L 354.666039 266.933228 
L 354.666039 263.100832 
L 355.404855 263.100832 
L 355.404855 259.268436 
L 370.493184 259.268436 
L 370.493184 255.43604 
L 403.939737 255.43604 
L 403.939737 251.603644 
L 403.939737 251.603644 
L 403.939737 251.603644 
L 460.8 251.603644 
" style="fill:none;stroke:#ff0000;stroke-linecap:square;stroke-width:3;"/>
   </g>
   <g id="line2d_122">
    <defs>
     <path d="M 0 14.142136 
L 8.485281 0 
L 0 -14.142136 
L -8.485281 0 
z
" id="m4b592d0bca" style="stroke:#ff0000;stroke-linejoin:miter;stroke-width:3;"/>
    </defs>
    <g clip-path="url(#pc53e25c925)">
     <use style="fill-opacity:0;stroke:#ff0000;stroke-linejoin:miter;stroke-width:3;" x="355.404855" xlink:href="#m4b592d0bca" y="263.100832"/>
     <use style="fill-opacity:0;stroke:#ff0000;stroke-linejoin:miter;stroke-width:3;" x="403.939737" xlink:href="#m4b592d0bca" y="255.43604"/>
     <use style="fill-opacity:0;stroke:#ff0000;stroke-linejoin:miter;stroke-width:3;" x="403.939737" xlink:href="#m4b592d0bca" y="251.603644"/>
    </g>
   </g>
   <g id="line2d_123">
    <path clip-path="url(#pc53e25c925)" style="fill:none;stroke:#ff0000;stroke-linecap:square;stroke-width:3;"/>
    <g clip-path="url(#pc53e25c925)">
     <use style="fill-opacity:0;stroke:#ff0000;stroke-linejoin:miter;stroke-width:3;" x="-1" xlink:href="#m4b592d0bca" y="581.189703"/>
     <use style="fill-opacity:0;stroke:#ff0000;stroke-linejoin:miter;stroke-width:3;" x="460.8" xlink:href="#m4b592d0bca" y="581.189703"/>
    </g>
   </g>
   <g id="line2d_124">
    <path clip-path="url(#pc53e25c925)" d="M 254.848159 293.76 
L 254.848159 289.927604 
L 266.282158 289.927604 
L 266.282158 286.095208 
L 268.636967 286.095208 
L 268.636967 282.262812 
L 321.163157 282.262812 
L 321.163157 278.430416 
L 322.344798 278.430416 
L 322.344798 274.59802 
L 322.897371 274.59802 
L 322.897371 270.765624 
L 333.171458 270.765624 
L 333.171458 266.933228 
L 361.173317 266.933228 
L 361.173317 263.100832 
L 375.908582 263.100832 
L 375.908582 259.268436 
L 380.165368 259.268436 
L 380.165368 255.43604 
L 404.274397 255.43604 
L 404.274397 251.603644 
L 404.860646 251.603644 
L 404.860646 247.771248 
L 405.065258 247.771248 
L 405.065258 243.938851 
L 406.229403 243.938851 
L 406.229403 240.106455 
L 406.623859 240.106455 
L 406.623859 236.274059 
L 435.043519 236.274059 
L 435.043519 232.441663 
L 435.043519 232.441663 
L 435.043519 232.441663 
L 460.8 232.441663 
" style="fill:none;stroke:#ff0000;stroke-linecap:square;stroke-width:3;"/>
   </g>
   <g id="line2d_125">
    <defs>
     <path d="M 0 7.5 
C 1.989023 7.5 3.896849 6.709753 5.303301 5.303301 
C 6.709753 3.896849 7.5 1.989023 7.5 0 
C 7.5 -1.989023 6.709753 -3.896849 5.303301 -5.303301 
C 3.896849 -6.709753 1.989023 -7.5 0 -7.5 
C -1.989023 -7.5 -3.896849 -6.709753 -5.303301 -5.303301 
C -6.709753 -3.896849 -7.5 -1.989023 -7.5 0 
C -7.5 1.989023 -6.709753 3.896849 -5.303301 5.303301 
C -3.896849 6.709753 -1.989023 7.5 0 7.5 
z
" id="m78d93056a0" style="stroke:#ff0000;stroke-width:3;"/>
    </defs>
    <g clip-path="url(#pc53e25c925)">
     <use style="fill-opacity:0;stroke:#ff0000;stroke-width:3;" x="322.897371" xlink:href="#m78d93056a0" y="274.59802"/>
     <use style="fill-opacity:0;stroke:#ff0000;stroke-width:3;" x="404.860646" xlink:href="#m78d93056a0" y="251.603644"/>
     <use style="fill-opacity:0;stroke:#ff0000;stroke-width:3;" x="435.043519" xlink:href="#m78d93056a0" y="236.274059"/>
     <use style="fill-opacity:0;stroke:#ff0000;stroke-width:3;" x="435.043519" xlink:href="#m78d93056a0" y="232.441663"/>
    </g>
   </g>
   <g id="line2d_126">
    <path clip-path="url(#pc53e25c925)" style="fill:none;stroke:#ff0000;stroke-linecap:square;stroke-width:3;"/>
   </g>
   <g id="line2d_127">
    <path clip-path="url(#pc53e25c925)" d="M 441.819429 293.76 
L 441.819429 3.456 
" style="fill:none;stroke:#000000;stroke-linecap:square;stroke-width:1.5;"/>
    <defs>
     <path d="M -10 0 
L 10 0 
M 0 10 
L 0 -10 
" id="meed40a0ad9" style="stroke:#000000;stroke-width:3;"/>
    </defs>
    <g clip-path="url(#pc53e25c925)">
     <use style="stroke:#000000;stroke-width:3;" x="441.819429" xlink:href="#meed40a0ad9" y="293.76"/>
     <use style="stroke:#000000;stroke-width:3;" x="441.819429" xlink:href="#meed40a0ad9" y="3.456"/>
    </g>
   </g>
   <g id="line2d_128">
    <path clip-path="url(#pc53e25c925)" d="M 441.818093 293.76 
L 441.818093 3.456 
" style="fill:none;stroke:#000000;stroke-linecap:square;stroke-width:1.5;"/>
    <defs>
     <path d="M 0 7.5 
C 1.989023 7.5 3.896849 6.709753 5.303301 5.303301 
C 6.709753 3.896849 7.5 1.989023 7.5 0 
C 7.5 -1.989023 6.709753 -3.896849 5.303301 -5.303301 
C 3.896849 -6.709753 1.989023 -7.5 0 -7.5 
C -1.989023 -7.5 -3.896849 -6.709753 -5.303301 -5.303301 
C -6.709753 -3.896849 -7.5 -1.989023 -7.5 0 
C -7.5 1.989023 -6.709753 3.896849 -5.303301 5.303301 
C -3.896849 6.709753 -1.989023 7.5 0 7.5 
z
" id="m047e64d6c3" style="stroke:#000000;stroke-width:3;"/>
    </defs>
    <g clip-path="url(#pc53e25c925)">
     <use style="fill-opacity:0;stroke:#000000;stroke-width:3;" x="441.818093" xlink:href="#m047e64d6c3" y="293.76"/>
     <use style="fill-opacity:0;stroke:#000000;stroke-width:3;" x="441.818093" xlink:href="#m047e64d6c3" y="3.456"/>
    </g>
   </g>
   <g id="patch_3">
    <path d="M 62.208 293.76 
L 62.208 3.456 
" style="fill:none;stroke:#000000;stroke-linecap:square;stroke-linejoin:miter;stroke-width:0.8;"/>
   </g>
   <g id="patch_4">
    <path d="M 460.8 293.76 
L 460.8 3.456 
" style="fill:none;stroke:#000000;stroke-linecap:square;stroke-linejoin:miter;stroke-width:0.8;"/>
   </g>
   <g id="patch_5">
    <path d="M 62.208 293.76 
L 460.8 293.76 
" style="fill:none;stroke:#000000;stroke-linecap:square;stroke-linejoin:miter;stroke-width:0.8;"/>
   </g>
   <g id="patch_6">
    <path d="M 62.208 3.456 
L 460.8 3.456 
" style="fill:none;stroke:#000000;stroke-linecap:square;stroke-linejoin:miter;stroke-width:0.8;"/>
   </g>
   <g id="text_12">
    <!-- f20-f24 -->
    <g transform="translate(225.405563 24.458955)scale(0.2 -0.2)">
     <defs>
      <path d="M 313 2009 
L 1997 2009 
L 1997 1497 
L 313 1497 
L 313 2009 
z
" id="DejaVuSans-2d" transform="scale(0.015625)"/>
     </defs>
     <use xlink:href="#DejaVuSans-66"/>
     <use x="35.205078" xlink:href="#DejaVuSans-32"/>
     <use x="98.828125" xlink:href="#DejaVuSans-30"/>
     <use x="162.451172" xlink:href="#DejaVuSans-2d"/>
     <use x="198.535156" xlink:href="#DejaVuSans-66"/>
     <use x="233.740234" xlink:href="#DejaVuSans-32"/>
     <use x="297.363281" xlink:href="#DejaVuSans-34"/>
    </g>
   </g>
   <g id="text_13">
    <!-- absolute targets -->
    <g transform="translate(62.208 603.4176)scale(0.14 -0.14)">
     <defs>
      <path d="M 3116 1747 
Q 3116 2381 2855 2742 
Q 2594 3103 2138 3103 
Q 1681 3103 1420 2742 
Q 1159 2381 1159 1747 
Q 1159 1113 1420 752 
Q 1681 391 2138 391 
Q 2594 391 2855 752 
Q 3116 1113 3116 1747 
z
M 1159 2969 
Q 1341 3281 1617 3432 
Q 1894 3584 2278 3584 
Q 2916 3584 3314 3078 
Q 3713 2572 3713 1747 
Q 3713 922 3314 415 
Q 2916 -91 2278 -91 
Q 1894 -91 1617 61 
Q 1341 213 1159 525 
L 1159 0 
L 581 0 
L 581 4863 
L 1159 4863 
L 1159 2969 
z
" id="DejaVuSans-62" transform="scale(0.015625)"/>
      <path d="M 544 1381 
L 544 3500 
L 1119 3500 
L 1119 1403 
Q 1119 906 1312 657 
Q 1506 409 1894 409 
Q 2359 409 2629 706 
Q 2900 1003 2900 1516 
L 2900 3500 
L 3475 3500 
L 3475 0 
L 2900 0 
L 2900 538 
Q 2691 219 2414 64 
Q 2138 -91 1772 -91 
Q 1169 -91 856 284 
Q 544 659 544 1381 
z
M 1991 3584 
L 1991 3584 
z
" id="DejaVuSans-75" transform="scale(0.015625)"/>
      <path d="M 3597 1894 
L 3597 1613 
L 953 1613 
Q 991 1019 1311 708 
Q 1631 397 2203 397 
Q 2534 397 2845 478 
Q 3156 559 3463 722 
L 3463 178 
Q 3153 47 2828 -22 
Q 2503 -91 2169 -91 
Q 1331 -91 842 396 
Q 353 884 353 1716 
Q 353 2575 817 3079 
Q 1281 3584 2069 3584 
Q 2775 3584 3186 3129 
Q 3597 2675 3597 1894 
z
M 3022 2063 
Q 3016 2534 2758 2815 
Q 2500 3097 2075 3097 
Q 1594 3097 1305 2825 
Q 1016 2553 972 2059 
L 3022 2063 
z
" id="DejaVuSans-65" transform="scale(0.015625)"/>
     </defs>
     <use xlink:href="#DejaVuSans-61"/>
     <use x="61.279297" xlink:href="#DejaVuSans-62"/>
     <use x="124.755859" xlink:href="#DejaVuSans-73"/>
     <use x="176.855469" xlink:href="#DejaVuSans-6f"/>
     <use x="238.037109" xlink:href="#DejaVuSans-6c"/>
     <use x="265.820312" xlink:href="#DejaVuSans-75"/>
     <use x="329.199219" xlink:href="#DejaVuSans-74"/>
     <use x="368.408203" xlink:href="#DejaVuSans-65"/>
     <use x="429.931641" xlink:href="#DejaVuSans-20"/>
     <use x="461.71875" xlink:href="#DejaVuSans-74"/>
     <use x="500.927734" xlink:href="#DejaVuSans-61"/>
     <use x="562.207031" xlink:href="#DejaVuSans-72"/>
     <use x="601.570312" xlink:href="#DejaVuSans-67"/>
     <use x="665.046875" xlink:href="#DejaVuSans-65"/>
     <use x="726.570312" xlink:href="#DejaVuSans-74"/>
     <use x="765.779297" xlink:href="#DejaVuSans-73"/>
    </g>
   </g>
   <g id="text_14">
    <!-- v2.6.3 -->
    <g style="fill:#808080;" transform="translate(245.82275 288.777272)scale(0.1 -0.1)">
     <defs>
      <path d="M 2597 2516 
Q 3050 2419 3304 2112 
Q 3559 1806 3559 1356 
Q 3559 666 3084 287 
Q 2609 -91 1734 -91 
Q 1441 -91 1130 -33 
Q 819 25 488 141 
L 488 750 
Q 750 597 1062 519 
Q 1375 441 1716 441 
Q 2309 441 2620 675 
Q 2931 909 2931 1356 
Q 2931 1769 2642 2001 
Q 2353 2234 1838 2234 
L 1294 2234 
L 1294 2753 
L 1863 2753 
Q 2328 2753 2575 2939 
Q 2822 3125 2822 3475 
Q 2822 3834 2567 4026 
Q 2313 4219 1838 4219 
Q 1578 4219 1281 4162 
Q 984 4106 628 3988 
L 628 4550 
Q 988 4650 1302 4700 
Q 1616 4750 1894 4750 
Q 2613 4750 3031 4423 
Q 3450 4097 3450 3541 
Q 3450 3153 3228 2886 
Q 3006 2619 2597 2516 
z
" id="DejaVuSans-33" transform="scale(0.015625)"/>
     </defs>
     <use xlink:href="#DejaVuSans-76"/>
     <use x="59.179688" xlink:href="#DejaVuSans-32"/>
     <use x="122.802734" xlink:href="#DejaVuSans-2e"/>
     <use x="154.589844" xlink:href="#DejaVuSans-36"/>
     <use x="218.212891" xlink:href="#DejaVuSans-2e"/>
     <use x="250" xlink:href="#DejaVuSans-33"/>
    </g>
   </g>
   <g id="legend_1">
    <g id="patch_7">
     <path d="M 76.208 136.881 
L 160.148625 136.881 
Q 164.148625 136.881 164.148625 132.881 
L 164.148625 17.456 
Q 164.148625 13.456 160.148625 13.456 
L 76.208 13.456 
Q 72.208 13.456 72.208 17.456 
L 72.208 132.881 
Q 72.208 136.881 76.208 136.881 
z
" style="fill:#ffffff;opacity:0.2;stroke:#cccccc;stroke-linejoin:miter;"/>
    </g>
    <g id="line2d_129">
     <path d="M 80.208 29.652875 
L 120.208 29.652875 
" style="fill:none;stroke:#000000;stroke-linecap:square;stroke-width:1.5;"/>
    </g>
    <g id="line2d_130"/>
    <g id="text_15">
     <!-- 1 -->
     <g transform="translate(136.208 36.652875)scale(0.2 -0.2)">
      <use xlink:href="#DejaVuSans-31"/>
     </g>
    </g>
    <g id="line2d_131">
     <path d="M 80.208 59.009125 
L 120.208 59.009125 
" style="fill:none;stroke:#00bfbf;stroke-linecap:square;stroke-width:1.5;"/>
    </g>
    <g id="line2d_132"/>
    <g id="text_16">
     <!-- -1 -->
     <g transform="translate(136.208 66.009125)scale(0.2 -0.2)">
      <use xlink:href="#DejaVuSans-2d"/>
      <use x="36.083984" xlink:href="#DejaVuSans-31"/>
     </g>
    </g>
    <g id="line2d_133">
     <path d="M 80.208 88.365375 
L 120.208 88.365375 
" style="fill:none;stroke:#bf00bf;stroke-linecap:square;stroke-width:1.5;"/>
    </g>
    <g id="line2d_134"/>
    <g id="text_17">
     <!-- -4 -->
     <g transform="translate(136.208 95.365375)scale(0.2 -0.2)">
      <use xlink:href="#DejaVuSans-2d"/>
      <use x="36.083984" xlink:href="#DejaVuSans-34"/>
     </g>
    </g>
    <g id="line2d_135">
     <path d="M 80.208 117.721625 
L 120.208 117.721625 
" style="fill:none;stroke:#ff0000;stroke-linecap:square;stroke-width:3;"/>
    </g>
    <g id="line2d_136"/>
    <g id="text_18">
     <!-- -8 -->
     <g transform="translate(136.208 124.721625)scale(0.2 -0.2)">
      <use xlink:href="#DejaVuSans-2d"/>
      <use x="36.083984" xlink:href="#DejaVuSans-38"/>
     </g>
    </g>
   </g>
  </g>
 </g>
 <defs>
  <clipPath id="pc53e25c925">
   <rect height="290.304" width="398.592" x="62.208" y="3.456"/>
  </clipPath>
 </defs>
</svg>
