<?xml version="1.0" encoding="utf-8" standalone="no"?>
<!DOCTYPE svg PUBLIC "-//W3C//DTD SVG 1.1//EN"
  "http://www.w3.org/Graphics/SVG/1.1/DTD/svg11.dtd">
<svg height="345.6pt" version="1.1" viewBox="0 0 460.8 345.6" width="460.8pt" xmlns="http://www.w3.org/2000/svg" xmlns:xlink="http://www.w3.org/1999/xlink">
 <metadata>
  <rdf:RDF xmlns:cc="http://creativecommons.org/ns#" xmlns:dc="http://purl.org/dc/elements/1.1/" xmlns:rdf="http://www.w3.org/1999/02/22-rdf-syntax-ns#">
   <cc:Work>
    <dc:type rdf:resource="http://purl.org/dc/dcmitype/StillImage"/>
    <dc:date>2023-04-17T19:01:15.632390</dc:date>
    <dc:format>image/svg+xml</dc:format>
    <dc:creator>
     <cc:Agent>
      <dc:title>Matplotlib v3.4.1, https://matplotlib.org/</dc:title>
     </cc:Agent>
    </dc:creator>
   </cc:Work>
  </rdf:RDF>
 </metadata>
 <defs>
  <style type="text/css">*{stroke-linecap:butt;stroke-linejoin:round;}</style>
 </defs>
 <g id="figure_1">
  <g id="patch_1">
   <path d="M 0 345.6 
L 460.8 345.6 
L 460.8 0 
L 0 0 
z
" style="fill:#ffffff;"/>
  </g>
  <g id="axes_1">
   <g id="patch_2">
    <path d="M 57.6 298.944 
L 360.8064 298.944 
L 360.8064 6.912 
L 57.6 6.912 
z
" style="fill:#ffffff;"/>
   </g>
   <g id="matplotlib.axis_1">
    <g id="xtick_1">
     <g id="line2d_1">
      <path clip-path="url(#p93e5543dd8)" d="M 57.6 298.944 
L 57.6 6.912 
" style="fill:none;stroke:#b0b0b0;stroke-linecap:square;stroke-width:0.8;"/>
     </g>
     <g id="line2d_2">
      <defs>
       <path d="M 0 0 
L 0 3.5 
" id="m1c17bcd03e" style="stroke:#000000;stroke-width:0.8;"/>
      </defs>
      <g>
       <use style="stroke:#000000;stroke-width:0.8;" x="57.6" xlink:href="#m1c17bcd03e" y="298.944"/>
      </g>
     </g>
     <g id="line2d_3">
      <defs>
       <path d="M 0 0 
L 0 -3.5 
" id="mdb6527e0c8" style="stroke:#000000;stroke-width:0.8;"/>
      </defs>
      <g>
       <use style="stroke:#000000;stroke-width:0.8;" x="57.6" xlink:href="#mdb6527e0c8" y="6.912"/>
      </g>
     </g>
     <g id="text_1">
      <!-- 0 -->
      <g transform="translate(52.51 318.1015)scale(0.16 -0.16)">
       <defs>
        <path d="M 2034 4250 
Q 1547 4250 1301 3770 
Q 1056 3291 1056 2328 
Q 1056 1369 1301 889 
Q 1547 409 2034 409 
Q 2525 409 2770 889 
Q 3016 1369 3016 2328 
Q 3016 3291 2770 3770 
Q 2525 4250 2034 4250 
z
M 2034 4750 
Q 2819 4750 3233 4129 
Q 3647 3509 3647 2328 
Q 3647 1150 3233 529 
Q 2819 -91 2034 -91 
Q 1250 -91 836 529 
Q 422 1150 422 2328 
Q 422 3509 836 4129 
Q 1250 4750 2034 4750 
z
" id="DejaVuSans-30" transform="scale(0.015625)"/>
       </defs>
       <use xlink:href="#DejaVuSans-30"/>
      </g>
     </g>
    </g>
    <g id="xtick_2">
     <g id="line2d_4">
      <path clip-path="url(#p93e5543dd8)" d="M 100.9152 298.944 
L 100.9152 6.912 
" style="fill:none;stroke:#b0b0b0;stroke-linecap:square;stroke-width:0.8;"/>
     </g>
     <g id="line2d_5">
      <g>
       <use style="stroke:#000000;stroke-width:0.8;" x="100.9152" xlink:href="#m1c17bcd03e" y="298.944"/>
      </g>
     </g>
     <g id="line2d_6">
      <g>
       <use style="stroke:#000000;stroke-width:0.8;" x="100.9152" xlink:href="#mdb6527e0c8" y="6.912"/>
      </g>
     </g>
     <g id="text_2">
      <!-- 1 -->
      <g transform="translate(95.8252 318.1015)scale(0.16 -0.16)">
       <defs>
        <path d="M 794 531 
L 1825 531 
L 1825 4091 
L 703 3866 
L 703 4441 
L 1819 4666 
L 2450 4666 
L 2450 531 
L 3481 531 
L 3481 0 
L 794 0 
L 794 531 
z
" id="DejaVuSans-31" transform="scale(0.015625)"/>
       </defs>
       <use xlink:href="#DejaVuSans-31"/>
      </g>
     </g>
    </g>
    <g id="xtick_3">
     <g id="line2d_7">
      <path clip-path="url(#p93e5543dd8)" d="M 144.2304 298.944 
L 144.2304 6.912 
" style="fill:none;stroke:#b0b0b0;stroke-linecap:square;stroke-width:0.8;"/>
     </g>
     <g id="line2d_8">
      <g>
       <use style="stroke:#000000;stroke-width:0.8;" x="144.2304" xlink:href="#m1c17bcd03e" y="298.944"/>
      </g>
     </g>
     <g id="line2d_9">
      <g>
       <use style="stroke:#000000;stroke-width:0.8;" x="144.2304" xlink:href="#mdb6527e0c8" y="6.912"/>
      </g>
     </g>
     <g id="text_3">
      <!-- 2 -->
      <g transform="translate(139.1404 318.1015)scale(0.16 -0.16)">
       <defs>
        <path d="M 1228 531 
L 3431 531 
L 3431 0 
L 469 0 
L 469 531 
Q 828 903 1448 1529 
Q 2069 2156 2228 2338 
Q 2531 2678 2651 2914 
Q 2772 3150 2772 3378 
Q 2772 3750 2511 3984 
Q 2250 4219 1831 4219 
Q 1534 4219 1204 4116 
Q 875 4013 500 3803 
L 500 4441 
Q 881 4594 1212 4672 
Q 1544 4750 1819 4750 
Q 2544 4750 2975 4387 
Q 3406 4025 3406 3419 
Q 3406 3131 3298 2873 
Q 3191 2616 2906 2266 
Q 2828 2175 2409 1742 
Q 1991 1309 1228 531 
z
" id="DejaVuSans-32" transform="scale(0.015625)"/>
       </defs>
       <use xlink:href="#DejaVuSans-32"/>
      </g>
     </g>
    </g>
    <g id="xtick_4">
     <g id="line2d_10">
      <path clip-path="url(#p93e5543dd8)" d="M 187.5456 298.944 
L 187.5456 6.912 
" style="fill:none;stroke:#b0b0b0;stroke-linecap:square;stroke-width:0.8;"/>
     </g>
     <g id="line2d_11">
      <g>
       <use style="stroke:#000000;stroke-width:0.8;" x="187.5456" xlink:href="#m1c17bcd03e" y="298.944"/>
      </g>
     </g>
     <g id="line2d_12">
      <g>
       <use style="stroke:#000000;stroke-width:0.8;" x="187.5456" xlink:href="#mdb6527e0c8" y="6.912"/>
      </g>
     </g>
     <g id="text_4">
      <!-- 3 -->
      <g transform="translate(182.4556 318.1015)scale(0.16 -0.16)">
       <defs>
        <path d="M 2597 2516 
Q 3050 2419 3304 2112 
Q 3559 1806 3559 1356 
Q 3559 666 3084 287 
Q 2609 -91 1734 -91 
Q 1441 -91 1130 -33 
Q 819 25 488 141 
L 488 750 
Q 750 597 1062 519 
Q 1375 441 1716 441 
Q 2309 441 2620 675 
Q 2931 909 2931 1356 
Q 2931 1769 2642 2001 
Q 2353 2234 1838 2234 
L 1294 2234 
L 1294 2753 
L 1863 2753 
Q 2328 2753 2575 2939 
Q 2822 3125 2822 3475 
Q 2822 3834 2567 4026 
Q 2313 4219 1838 4219 
Q 1578 4219 1281 4162 
Q 984 4106 628 3988 
L 628 4550 
Q 988 4650 1302 4700 
Q 1616 4750 1894 4750 
Q 2613 4750 3031 4423 
Q 3450 4097 3450 3541 
Q 3450 3153 3228 2886 
Q 3006 2619 2597 2516 
z
" id="DejaVuSans-33" transform="scale(0.015625)"/>
       </defs>
       <use xlink:href="#DejaVuSans-33"/>
      </g>
     </g>
    </g>
    <g id="xtick_5">
     <g id="line2d_13">
      <path clip-path="url(#p93e5543dd8)" d="M 230.8608 298.944 
L 230.8608 6.912 
" style="fill:none;stroke:#b0b0b0;stroke-linecap:square;stroke-width:0.8;"/>
     </g>
     <g id="line2d_14">
      <g>
       <use style="stroke:#000000;stroke-width:0.8;" x="230.8608" xlink:href="#m1c17bcd03e" y="298.944"/>
      </g>
     </g>
     <g id="line2d_15">
      <g>
       <use style="stroke:#000000;stroke-width:0.8;" x="230.8608" xlink:href="#mdb6527e0c8" y="6.912"/>
      </g>
     </g>
     <g id="text_5">
      <!-- 4 -->
      <g transform="translate(225.7708 318.1015)scale(0.16 -0.16)">
       <defs>
        <path d="M 2419 4116 
L 825 1625 
L 2419 1625 
L 2419 4116 
z
M 2253 4666 
L 3047 4666 
L 3047 1625 
L 3713 1625 
L 3713 1100 
L 3047 1100 
L 3047 0 
L 2419 0 
L 2419 1100 
L 313 1100 
L 313 1709 
L 2253 4666 
z
" id="DejaVuSans-34" transform="scale(0.015625)"/>
       </defs>
       <use xlink:href="#DejaVuSans-34"/>
      </g>
     </g>
    </g>
    <g id="xtick_6">
     <g id="line2d_16">
      <path clip-path="url(#p93e5543dd8)" d="M 274.176 298.944 
L 274.176 6.912 
" style="fill:none;stroke:#b0b0b0;stroke-linecap:square;stroke-width:0.8;"/>
     </g>
     <g id="line2d_17">
      <g>
       <use style="stroke:#000000;stroke-width:0.8;" x="274.176" xlink:href="#m1c17bcd03e" y="298.944"/>
      </g>
     </g>
     <g id="line2d_18">
      <g>
       <use style="stroke:#000000;stroke-width:0.8;" x="274.176" xlink:href="#mdb6527e0c8" y="6.912"/>
      </g>
     </g>
     <g id="text_6">
      <!-- 5 -->
      <g transform="translate(269.086 318.1015)scale(0.16 -0.16)">
       <defs>
        <path d="M 691 4666 
L 3169 4666 
L 3169 4134 
L 1269 4134 
L 1269 2991 
Q 1406 3038 1543 3061 
Q 1681 3084 1819 3084 
Q 2600 3084 3056 2656 
Q 3513 2228 3513 1497 
Q 3513 744 3044 326 
Q 2575 -91 1722 -91 
Q 1428 -91 1123 -41 
Q 819 9 494 109 
L 494 744 
Q 775 591 1075 516 
Q 1375 441 1709 441 
Q 2250 441 2565 725 
Q 2881 1009 2881 1497 
Q 2881 1984 2565 2268 
Q 2250 2553 1709 2553 
Q 1456 2553 1204 2497 
Q 953 2441 691 2322 
L 691 4666 
z
" id="DejaVuSans-35" transform="scale(0.015625)"/>
       </defs>
       <use xlink:href="#DejaVuSans-35"/>
      </g>
     </g>
    </g>
    <g id="xtick_7">
     <g id="line2d_19">
      <path clip-path="url(#p93e5543dd8)" d="M 317.4912 298.944 
L 317.4912 6.912 
" style="fill:none;stroke:#b0b0b0;stroke-linecap:square;stroke-width:0.8;"/>
     </g>
     <g id="line2d_20">
      <g>
       <use style="stroke:#000000;stroke-width:0.8;" x="317.4912" xlink:href="#m1c17bcd03e" y="298.944"/>
      </g>
     </g>
     <g id="line2d_21">
      <g>
       <use style="stroke:#000000;stroke-width:0.8;" x="317.4912" xlink:href="#mdb6527e0c8" y="6.912"/>
      </g>
     </g>
     <g id="text_7">
      <!-- 6 -->
      <g transform="translate(312.4012 318.1015)scale(0.16 -0.16)">
       <defs>
        <path d="M 2113 2584 
Q 1688 2584 1439 2293 
Q 1191 2003 1191 1497 
Q 1191 994 1439 701 
Q 1688 409 2113 409 
Q 2538 409 2786 701 
Q 3034 994 3034 1497 
Q 3034 2003 2786 2293 
Q 2538 2584 2113 2584 
z
M 3366 4563 
L 3366 3988 
Q 3128 4100 2886 4159 
Q 2644 4219 2406 4219 
Q 1781 4219 1451 3797 
Q 1122 3375 1075 2522 
Q 1259 2794 1537 2939 
Q 1816 3084 2150 3084 
Q 2853 3084 3261 2657 
Q 3669 2231 3669 1497 
Q 3669 778 3244 343 
Q 2819 -91 2113 -91 
Q 1303 -91 875 529 
Q 447 1150 447 2328 
Q 447 3434 972 4092 
Q 1497 4750 2381 4750 
Q 2619 4750 2861 4703 
Q 3103 4656 3366 4563 
z
" id="DejaVuSans-36" transform="scale(0.015625)"/>
       </defs>
       <use xlink:href="#DejaVuSans-36"/>
      </g>
     </g>
    </g>
    <g id="xtick_8">
     <g id="line2d_22">
      <path clip-path="url(#p93e5543dd8)" d="M 360.8064 298.944 
L 360.8064 6.912 
" style="fill:none;stroke:#b0b0b0;stroke-linecap:square;stroke-width:0.8;"/>
     </g>
     <g id="line2d_23">
      <g>
       <use style="stroke:#000000;stroke-width:0.8;" x="360.8064" xlink:href="#m1c17bcd03e" y="298.944"/>
      </g>
     </g>
     <g id="line2d_24">
      <g>
       <use style="stroke:#000000;stroke-width:0.8;" x="360.8064" xlink:href="#mdb6527e0c8" y="6.912"/>
      </g>
     </g>
     <g id="text_8">
      <!-- 7 -->
      <g transform="translate(355.7164 318.1015)scale(0.16 -0.16)">
       <defs>
        <path d="M 525 4666 
L 3525 4666 
L 3525 4397 
L 1831 0 
L 1172 0 
L 2766 4134 
L 525 4134 
L 525 4666 
z
" id="DejaVuSans-37" transform="scale(0.015625)"/>
       </defs>
       <use xlink:href="#DejaVuSans-37"/>
      </g>
     </g>
    </g>
    <g id="xtick_9">
     <g id="line2d_25">
      <path clip-path="url(#p93e5543dd8)" d="M 70.639174 298.944 
L 70.639174 6.912 
" style="fill:none;stroke:#b0b0b0;stroke-linecap:square;stroke-opacity:0.15;stroke-width:0.8;"/>
     </g>
     <g id="line2d_26">
      <defs>
       <path d="M 0 0 
L 0 2 
" id="m75f6900396" style="stroke:#000000;stroke-width:0.6;"/>
      </defs>
      <g>
       <use style="stroke:#000000;stroke-width:0.6;" x="70.639174" xlink:href="#m75f6900396" y="298.944"/>
      </g>
     </g>
     <g id="line2d_27">
      <defs>
       <path d="M 0 0 
L 0 -2 
" id="m70bbf5b45f" style="stroke:#000000;stroke-width:0.6;"/>
      </defs>
      <g>
       <use style="stroke:#000000;stroke-width:0.6;" x="70.639174" xlink:href="#m70bbf5b45f" y="6.912"/>
      </g>
     </g>
    </g>
    <g id="xtick_10">
     <g id="line2d_28">
      <path clip-path="url(#p93e5543dd8)" d="M 78.266603 298.944 
L 78.266603 6.912 
" style="fill:none;stroke:#b0b0b0;stroke-linecap:square;stroke-opacity:0.15;stroke-width:0.8;"/>
     </g>
     <g id="line2d_29">
      <g>
       <use style="stroke:#000000;stroke-width:0.6;" x="78.266603" xlink:href="#m75f6900396" y="298.944"/>
      </g>
     </g>
     <g id="line2d_30">
      <g>
       <use style="stroke:#000000;stroke-width:0.6;" x="78.266603" xlink:href="#m70bbf5b45f" y="6.912"/>
      </g>
     </g>
    </g>
    <g id="xtick_11">
     <g id="line2d_31">
      <path clip-path="url(#p93e5543dd8)" d="M 83.678349 298.944 
L 83.678349 6.912 
" style="fill:none;stroke:#b0b0b0;stroke-linecap:square;stroke-opacity:0.15;stroke-width:0.8;"/>
     </g>
     <g id="line2d_32">
      <g>
       <use style="stroke:#000000;stroke-width:0.6;" x="83.678349" xlink:href="#m75f6900396" y="298.944"/>
      </g>
     </g>
     <g id="line2d_33">
      <g>
       <use style="stroke:#000000;stroke-width:0.6;" x="83.678349" xlink:href="#m70bbf5b45f" y="6.912"/>
      </g>
     </g>
    </g>
    <g id="xtick_12">
     <g id="line2d_34">
      <path clip-path="url(#p93e5543dd8)" d="M 87.876026 298.944 
L 87.876026 6.912 
" style="fill:none;stroke:#b0b0b0;stroke-linecap:square;stroke-opacity:0.15;stroke-width:0.8;"/>
     </g>
     <g id="line2d_35">
      <g>
       <use style="stroke:#000000;stroke-width:0.6;" x="87.876026" xlink:href="#m75f6900396" y="298.944"/>
      </g>
     </g>
     <g id="line2d_36">
      <g>
       <use style="stroke:#000000;stroke-width:0.6;" x="87.876026" xlink:href="#m70bbf5b45f" y="6.912"/>
      </g>
     </g>
    </g>
    <g id="xtick_13">
     <g id="line2d_37">
      <path clip-path="url(#p93e5543dd8)" d="M 91.305777 298.944 
L 91.305777 6.912 
" style="fill:none;stroke:#b0b0b0;stroke-linecap:square;stroke-opacity:0.15;stroke-width:0.8;"/>
     </g>
     <g id="line2d_38">
      <g>
       <use style="stroke:#000000;stroke-width:0.6;" x="91.305777" xlink:href="#m75f6900396" y="298.944"/>
      </g>
     </g>
     <g id="line2d_39">
      <g>
       <use style="stroke:#000000;stroke-width:0.6;" x="91.305777" xlink:href="#m70bbf5b45f" y="6.912"/>
      </g>
     </g>
    </g>
    <g id="xtick_14">
     <g id="line2d_40">
      <path clip-path="url(#p93e5543dd8)" d="M 94.205591 298.944 
L 94.205591 6.912 
" style="fill:none;stroke:#b0b0b0;stroke-linecap:square;stroke-opacity:0.15;stroke-width:0.8;"/>
     </g>
     <g id="line2d_41">
      <g>
       <use style="stroke:#000000;stroke-width:0.6;" x="94.205591" xlink:href="#m75f6900396" y="298.944"/>
      </g>
     </g>
     <g id="line2d_42">
      <g>
       <use style="stroke:#000000;stroke-width:0.6;" x="94.205591" xlink:href="#m70bbf5b45f" y="6.912"/>
      </g>
     </g>
    </g>
    <g id="xtick_15">
     <g id="line2d_43">
      <path clip-path="url(#p93e5543dd8)" d="M 96.717523 298.944 
L 96.717523 6.912 
" style="fill:none;stroke:#b0b0b0;stroke-linecap:square;stroke-opacity:0.15;stroke-width:0.8;"/>
     </g>
     <g id="line2d_44">
      <g>
       <use style="stroke:#000000;stroke-width:0.6;" x="96.717523" xlink:href="#m75f6900396" y="298.944"/>
      </g>
     </g>
     <g id="line2d_45">
      <g>
       <use style="stroke:#000000;stroke-width:0.6;" x="96.717523" xlink:href="#m70bbf5b45f" y="6.912"/>
      </g>
     </g>
    </g>
    <g id="xtick_16">
     <g id="line2d_46">
      <path clip-path="url(#p93e5543dd8)" d="M 98.933205 298.944 
L 98.933205 6.912 
" style="fill:none;stroke:#b0b0b0;stroke-linecap:square;stroke-opacity:0.15;stroke-width:0.8;"/>
     </g>
     <g id="line2d_47">
      <g>
       <use style="stroke:#000000;stroke-width:0.6;" x="98.933205" xlink:href="#m75f6900396" y="298.944"/>
      </g>
     </g>
     <g id="line2d_48">
      <g>
       <use style="stroke:#000000;stroke-width:0.6;" x="98.933205" xlink:href="#m70bbf5b45f" y="6.912"/>
      </g>
     </g>
    </g>
    <g id="xtick_17">
     <g id="line2d_49">
      <path clip-path="url(#p93e5543dd8)" d="M 113.954374 298.944 
L 113.954374 6.912 
" style="fill:none;stroke:#b0b0b0;stroke-linecap:square;stroke-opacity:0.15;stroke-width:0.8;"/>
     </g>
     <g id="line2d_50">
      <g>
       <use style="stroke:#000000;stroke-width:0.6;" x="113.954374" xlink:href="#m75f6900396" y="298.944"/>
      </g>
     </g>
     <g id="line2d_51">
      <g>
       <use style="stroke:#000000;stroke-width:0.6;" x="113.954374" xlink:href="#m70bbf5b45f" y="6.912"/>
      </g>
     </g>
    </g>
    <g id="xtick_18">
     <g id="line2d_52">
      <path clip-path="url(#p93e5543dd8)" d="M 121.581803 298.944 
L 121.581803 6.912 
" style="fill:none;stroke:#b0b0b0;stroke-linecap:square;stroke-opacity:0.15;stroke-width:0.8;"/>
     </g>
     <g id="line2d_53">
      <g>
       <use style="stroke:#000000;stroke-width:0.6;" x="121.581803" xlink:href="#m75f6900396" y="298.944"/>
      </g>
     </g>
     <g id="line2d_54">
      <g>
       <use style="stroke:#000000;stroke-width:0.6;" x="121.581803" xlink:href="#m70bbf5b45f" y="6.912"/>
      </g>
     </g>
    </g>
    <g id="xtick_19">
     <g id="line2d_55">
      <path clip-path="url(#p93e5543dd8)" d="M 126.993549 298.944 
L 126.993549 6.912 
" style="fill:none;stroke:#b0b0b0;stroke-linecap:square;stroke-opacity:0.15;stroke-width:0.8;"/>
     </g>
     <g id="line2d_56">
      <g>
       <use style="stroke:#000000;stroke-width:0.6;" x="126.993549" xlink:href="#m75f6900396" y="298.944"/>
      </g>
     </g>
     <g id="line2d_57">
      <g>
       <use style="stroke:#000000;stroke-width:0.6;" x="126.993549" xlink:href="#m70bbf5b45f" y="6.912"/>
      </g>
     </g>
    </g>
    <g id="xtick_20">
     <g id="line2d_58">
      <path clip-path="url(#p93e5543dd8)" d="M 131.191226 298.944 
L 131.191226 6.912 
" style="fill:none;stroke:#b0b0b0;stroke-linecap:square;stroke-opacity:0.15;stroke-width:0.8;"/>
     </g>
     <g id="line2d_59">
      <g>
       <use style="stroke:#000000;stroke-width:0.6;" x="131.191226" xlink:href="#m75f6900396" y="298.944"/>
      </g>
     </g>
     <g id="line2d_60">
      <g>
       <use style="stroke:#000000;stroke-width:0.6;" x="131.191226" xlink:href="#m70bbf5b45f" y="6.912"/>
      </g>
     </g>
    </g>
    <g id="xtick_21">
     <g id="line2d_61">
      <path clip-path="url(#p93e5543dd8)" d="M 134.620977 298.944 
L 134.620977 6.912 
" style="fill:none;stroke:#b0b0b0;stroke-linecap:square;stroke-opacity:0.15;stroke-width:0.8;"/>
     </g>
     <g id="line2d_62">
      <g>
       <use style="stroke:#000000;stroke-width:0.6;" x="134.620977" xlink:href="#m75f6900396" y="298.944"/>
      </g>
     </g>
     <g id="line2d_63">
      <g>
       <use style="stroke:#000000;stroke-width:0.6;" x="134.620977" xlink:href="#m70bbf5b45f" y="6.912"/>
      </g>
     </g>
    </g>
    <g id="xtick_22">
     <g id="line2d_64">
      <path clip-path="url(#p93e5543dd8)" d="M 137.520791 298.944 
L 137.520791 6.912 
" style="fill:none;stroke:#b0b0b0;stroke-linecap:square;stroke-opacity:0.15;stroke-width:0.8;"/>
     </g>
     <g id="line2d_65">
      <g>
       <use style="stroke:#000000;stroke-width:0.6;" x="137.520791" xlink:href="#m75f6900396" y="298.944"/>
      </g>
     </g>
     <g id="line2d_66">
      <g>
       <use style="stroke:#000000;stroke-width:0.6;" x="137.520791" xlink:href="#m70bbf5b45f" y="6.912"/>
      </g>
     </g>
    </g>
    <g id="xtick_23">
     <g id="line2d_67">
      <path clip-path="url(#p93e5543dd8)" d="M 140.032723 298.944 
L 140.032723 6.912 
" style="fill:none;stroke:#b0b0b0;stroke-linecap:square;stroke-opacity:0.15;stroke-width:0.8;"/>
     </g>
     <g id="line2d_68">
      <g>
       <use style="stroke:#000000;stroke-width:0.6;" x="140.032723" xlink:href="#m75f6900396" y="298.944"/>
      </g>
     </g>
     <g id="line2d_69">
      <g>
       <use style="stroke:#000000;stroke-width:0.6;" x="140.032723" xlink:href="#m70bbf5b45f" y="6.912"/>
      </g>
     </g>
    </g>
    <g id="xtick_24">
     <g id="line2d_70">
      <path clip-path="url(#p93e5543dd8)" d="M 142.248405 298.944 
L 142.248405 6.912 
" style="fill:none;stroke:#b0b0b0;stroke-linecap:square;stroke-opacity:0.15;stroke-width:0.8;"/>
     </g>
     <g id="line2d_71">
      <g>
       <use style="stroke:#000000;stroke-width:0.6;" x="142.248405" xlink:href="#m75f6900396" y="298.944"/>
      </g>
     </g>
     <g id="line2d_72">
      <g>
       <use style="stroke:#000000;stroke-width:0.6;" x="142.248405" xlink:href="#m70bbf5b45f" y="6.912"/>
      </g>
     </g>
    </g>
    <g id="xtick_25">
     <g id="line2d_73">
      <path clip-path="url(#p93e5543dd8)" d="M 157.269574 298.944 
L 157.269574 6.912 
" style="fill:none;stroke:#b0b0b0;stroke-linecap:square;stroke-opacity:0.15;stroke-width:0.8;"/>
     </g>
     <g id="line2d_74">
      <g>
       <use style="stroke:#000000;stroke-width:0.6;" x="157.269574" xlink:href="#m75f6900396" y="298.944"/>
      </g>
     </g>
     <g id="line2d_75">
      <g>
       <use style="stroke:#000000;stroke-width:0.6;" x="157.269574" xlink:href="#m70bbf5b45f" y="6.912"/>
      </g>
     </g>
    </g>
    <g id="xtick_26">
     <g id="line2d_76">
      <path clip-path="url(#p93e5543dd8)" d="M 164.897003 298.944 
L 164.897003 6.912 
" style="fill:none;stroke:#b0b0b0;stroke-linecap:square;stroke-opacity:0.15;stroke-width:0.8;"/>
     </g>
     <g id="line2d_77">
      <g>
       <use style="stroke:#000000;stroke-width:0.6;" x="164.897003" xlink:href="#m75f6900396" y="298.944"/>
      </g>
     </g>
     <g id="line2d_78">
      <g>
       <use style="stroke:#000000;stroke-width:0.6;" x="164.897003" xlink:href="#m70bbf5b45f" y="6.912"/>
      </g>
     </g>
    </g>
    <g id="xtick_27">
     <g id="line2d_79">
      <path clip-path="url(#p93e5543dd8)" d="M 170.308749 298.944 
L 170.308749 6.912 
" style="fill:none;stroke:#b0b0b0;stroke-linecap:square;stroke-opacity:0.15;stroke-width:0.8;"/>
     </g>
     <g id="line2d_80">
      <g>
       <use style="stroke:#000000;stroke-width:0.6;" x="170.308749" xlink:href="#m75f6900396" y="298.944"/>
      </g>
     </g>
     <g id="line2d_81">
      <g>
       <use style="stroke:#000000;stroke-width:0.6;" x="170.308749" xlink:href="#m70bbf5b45f" y="6.912"/>
      </g>
     </g>
    </g>
    <g id="xtick_28">
     <g id="line2d_82">
      <path clip-path="url(#p93e5543dd8)" d="M 174.506426 298.944 
L 174.506426 6.912 
" style="fill:none;stroke:#b0b0b0;stroke-linecap:square;stroke-opacity:0.15;stroke-width:0.8;"/>
     </g>
     <g id="line2d_83">
      <g>
       <use style="stroke:#000000;stroke-width:0.6;" x="174.506426" xlink:href="#m75f6900396" y="298.944"/>
      </g>
     </g>
     <g id="line2d_84">
      <g>
       <use style="stroke:#000000;stroke-width:0.6;" x="174.506426" xlink:href="#m70bbf5b45f" y="6.912"/>
      </g>
     </g>
    </g>
    <g id="xtick_29">
     <g id="line2d_85">
      <path clip-path="url(#p93e5543dd8)" d="M 177.936177 298.944 
L 177.936177 6.912 
" style="fill:none;stroke:#b0b0b0;stroke-linecap:square;stroke-opacity:0.15;stroke-width:0.8;"/>
     </g>
     <g id="line2d_86">
      <g>
       <use style="stroke:#000000;stroke-width:0.6;" x="177.936177" xlink:href="#m75f6900396" y="298.944"/>
      </g>
     </g>
     <g id="line2d_87">
      <g>
       <use style="stroke:#000000;stroke-width:0.6;" x="177.936177" xlink:href="#m70bbf5b45f" y="6.912"/>
      </g>
     </g>
    </g>
    <g id="xtick_30">
     <g id="line2d_88">
      <path clip-path="url(#p93e5543dd8)" d="M 180.835991 298.944 
L 180.835991 6.912 
" style="fill:none;stroke:#b0b0b0;stroke-linecap:square;stroke-opacity:0.15;stroke-width:0.8;"/>
     </g>
     <g id="line2d_89">
      <g>
       <use style="stroke:#000000;stroke-width:0.6;" x="180.835991" xlink:href="#m75f6900396" y="298.944"/>
      </g>
     </g>
     <g id="line2d_90">
      <g>
       <use style="stroke:#000000;stroke-width:0.6;" x="180.835991" xlink:href="#m70bbf5b45f" y="6.912"/>
      </g>
     </g>
    </g>
    <g id="xtick_31">
     <g id="line2d_91">
      <path clip-path="url(#p93e5543dd8)" d="M 183.347923 298.944 
L 183.347923 6.912 
" style="fill:none;stroke:#b0b0b0;stroke-linecap:square;stroke-opacity:0.15;stroke-width:0.8;"/>
     </g>
     <g id="line2d_92">
      <g>
       <use style="stroke:#000000;stroke-width:0.6;" x="183.347923" xlink:href="#m75f6900396" y="298.944"/>
      </g>
     </g>
     <g id="line2d_93">
      <g>
       <use style="stroke:#000000;stroke-width:0.6;" x="183.347923" xlink:href="#m70bbf5b45f" y="6.912"/>
      </g>
     </g>
    </g>
    <g id="xtick_32">
     <g id="line2d_94">
      <path clip-path="url(#p93e5543dd8)" d="M 185.563605 298.944 
L 185.563605 6.912 
" style="fill:none;stroke:#b0b0b0;stroke-linecap:square;stroke-opacity:0.15;stroke-width:0.8;"/>
     </g>
     <g id="line2d_95">
      <g>
       <use style="stroke:#000000;stroke-width:0.6;" x="185.563605" xlink:href="#m75f6900396" y="298.944"/>
      </g>
     </g>
     <g id="line2d_96">
      <g>
       <use style="stroke:#000000;stroke-width:0.6;" x="185.563605" xlink:href="#m70bbf5b45f" y="6.912"/>
      </g>
     </g>
    </g>
    <g id="xtick_33">
     <g id="line2d_97">
      <path clip-path="url(#p93e5543dd8)" d="M 200.584774 298.944 
L 200.584774 6.912 
" style="fill:none;stroke:#b0b0b0;stroke-linecap:square;stroke-opacity:0.15;stroke-width:0.8;"/>
     </g>
     <g id="line2d_98">
      <g>
       <use style="stroke:#000000;stroke-width:0.6;" x="200.584774" xlink:href="#m75f6900396" y="298.944"/>
      </g>
     </g>
     <g id="line2d_99">
      <g>
       <use style="stroke:#000000;stroke-width:0.6;" x="200.584774" xlink:href="#m70bbf5b45f" y="6.912"/>
      </g>
     </g>
    </g>
    <g id="xtick_34">
     <g id="line2d_100">
      <path clip-path="url(#p93e5543dd8)" d="M 208.212203 298.944 
L 208.212203 6.912 
" style="fill:none;stroke:#b0b0b0;stroke-linecap:square;stroke-opacity:0.15;stroke-width:0.8;"/>
     </g>
     <g id="line2d_101">
      <g>
       <use style="stroke:#000000;stroke-width:0.6;" x="208.212203" xlink:href="#m75f6900396" y="298.944"/>
      </g>
     </g>
     <g id="line2d_102">
      <g>
       <use style="stroke:#000000;stroke-width:0.6;" x="208.212203" xlink:href="#m70bbf5b45f" y="6.912"/>
      </g>
     </g>
    </g>
    <g id="xtick_35">
     <g id="line2d_103">
      <path clip-path="url(#p93e5543dd8)" d="M 213.623949 298.944 
L 213.623949 6.912 
" style="fill:none;stroke:#b0b0b0;stroke-linecap:square;stroke-opacity:0.15;stroke-width:0.8;"/>
     </g>
     <g id="line2d_104">
      <g>
       <use style="stroke:#000000;stroke-width:0.6;" x="213.623949" xlink:href="#m75f6900396" y="298.944"/>
      </g>
     </g>
     <g id="line2d_105">
      <g>
       <use style="stroke:#000000;stroke-width:0.6;" x="213.623949" xlink:href="#m70bbf5b45f" y="6.912"/>
      </g>
     </g>
    </g>
    <g id="xtick_36">
     <g id="line2d_106">
      <path clip-path="url(#p93e5543dd8)" d="M 217.821626 298.944 
L 217.821626 6.912 
" style="fill:none;stroke:#b0b0b0;stroke-linecap:square;stroke-opacity:0.15;stroke-width:0.8;"/>
     </g>
     <g id="line2d_107">
      <g>
       <use style="stroke:#000000;stroke-width:0.6;" x="217.821626" xlink:href="#m75f6900396" y="298.944"/>
      </g>
     </g>
     <g id="line2d_108">
      <g>
       <use style="stroke:#000000;stroke-width:0.6;" x="217.821626" xlink:href="#m70bbf5b45f" y="6.912"/>
      </g>
     </g>
    </g>
    <g id="xtick_37">
     <g id="line2d_109">
      <path clip-path="url(#p93e5543dd8)" d="M 221.251377 298.944 
L 221.251377 6.912 
" style="fill:none;stroke:#b0b0b0;stroke-linecap:square;stroke-opacity:0.15;stroke-width:0.8;"/>
     </g>
     <g id="line2d_110">
      <g>
       <use style="stroke:#000000;stroke-width:0.6;" x="221.251377" xlink:href="#m75f6900396" y="298.944"/>
      </g>
     </g>
     <g id="line2d_111">
      <g>
       <use style="stroke:#000000;stroke-width:0.6;" x="221.251377" xlink:href="#m70bbf5b45f" y="6.912"/>
      </g>
     </g>
    </g>
    <g id="xtick_38">
     <g id="line2d_112">
      <path clip-path="url(#p93e5543dd8)" d="M 224.151191 298.944 
L 224.151191 6.912 
" style="fill:none;stroke:#b0b0b0;stroke-linecap:square;stroke-opacity:0.15;stroke-width:0.8;"/>
     </g>
     <g id="line2d_113">
      <g>
       <use style="stroke:#000000;stroke-width:0.6;" x="224.151191" xlink:href="#m75f6900396" y="298.944"/>
      </g>
     </g>
     <g id="line2d_114">
      <g>
       <use style="stroke:#000000;stroke-width:0.6;" x="224.151191" xlink:href="#m70bbf5b45f" y="6.912"/>
      </g>
     </g>
    </g>
    <g id="xtick_39">
     <g id="line2d_115">
      <path clip-path="url(#p93e5543dd8)" d="M 226.663123 298.944 
L 226.663123 6.912 
" style="fill:none;stroke:#b0b0b0;stroke-linecap:square;stroke-opacity:0.15;stroke-width:0.8;"/>
     </g>
     <g id="line2d_116">
      <g>
       <use style="stroke:#000000;stroke-width:0.6;" x="226.663123" xlink:href="#m75f6900396" y="298.944"/>
      </g>
     </g>
     <g id="line2d_117">
      <g>
       <use style="stroke:#000000;stroke-width:0.6;" x="226.663123" xlink:href="#m70bbf5b45f" y="6.912"/>
      </g>
     </g>
    </g>
    <g id="xtick_40">
     <g id="line2d_118">
      <path clip-path="url(#p93e5543dd8)" d="M 228.878805 298.944 
L 228.878805 6.912 
" style="fill:none;stroke:#b0b0b0;stroke-linecap:square;stroke-opacity:0.15;stroke-width:0.8;"/>
     </g>
     <g id="line2d_119">
      <g>
       <use style="stroke:#000000;stroke-width:0.6;" x="228.878805" xlink:href="#m75f6900396" y="298.944"/>
      </g>
     </g>
     <g id="line2d_120">
      <g>
       <use style="stroke:#000000;stroke-width:0.6;" x="228.878805" xlink:href="#m70bbf5b45f" y="6.912"/>
      </g>
     </g>
    </g>
    <g id="xtick_41">
     <g id="line2d_121">
      <path clip-path="url(#p93e5543dd8)" d="M 243.899974 298.944 
L 243.899974 6.912 
" style="fill:none;stroke:#b0b0b0;stroke-linecap:square;stroke-opacity:0.15;stroke-width:0.8;"/>
     </g>
     <g id="line2d_122">
      <g>
       <use style="stroke:#000000;stroke-width:0.6;" x="243.899974" xlink:href="#m75f6900396" y="298.944"/>
      </g>
     </g>
     <g id="line2d_123">
      <g>
       <use style="stroke:#000000;stroke-width:0.6;" x="243.899974" xlink:href="#m70bbf5b45f" y="6.912"/>
      </g>
     </g>
    </g>
    <g id="xtick_42">
     <g id="line2d_124">
      <path clip-path="url(#p93e5543dd8)" d="M 251.527403 298.944 
L 251.527403 6.912 
" style="fill:none;stroke:#b0b0b0;stroke-linecap:square;stroke-opacity:0.15;stroke-width:0.8;"/>
     </g>
     <g id="line2d_125">
      <g>
       <use style="stroke:#000000;stroke-width:0.6;" x="251.527403" xlink:href="#m75f6900396" y="298.944"/>
      </g>
     </g>
     <g id="line2d_126">
      <g>
       <use style="stroke:#000000;stroke-width:0.6;" x="251.527403" xlink:href="#m70bbf5b45f" y="6.912"/>
      </g>
     </g>
    </g>
    <g id="xtick_43">
     <g id="line2d_127">
      <path clip-path="url(#p93e5543dd8)" d="M 256.939149 298.944 
L 256.939149 6.912 
" style="fill:none;stroke:#b0b0b0;stroke-linecap:square;stroke-opacity:0.15;stroke-width:0.8;"/>
     </g>
     <g id="line2d_128">
      <g>
       <use style="stroke:#000000;stroke-width:0.6;" x="256.939149" xlink:href="#m75f6900396" y="298.944"/>
      </g>
     </g>
     <g id="line2d_129">
      <g>
       <use style="stroke:#000000;stroke-width:0.6;" x="256.939149" xlink:href="#m70bbf5b45f" y="6.912"/>
      </g>
     </g>
    </g>
    <g id="xtick_44">
     <g id="line2d_130">
      <path clip-path="url(#p93e5543dd8)" d="M 261.136826 298.944 
L 261.136826 6.912 
" style="fill:none;stroke:#b0b0b0;stroke-linecap:square;stroke-opacity:0.15;stroke-width:0.8;"/>
     </g>
     <g id="line2d_131">
      <g>
       <use style="stroke:#000000;stroke-width:0.6;" x="261.136826" xlink:href="#m75f6900396" y="298.944"/>
      </g>
     </g>
     <g id="line2d_132">
      <g>
       <use style="stroke:#000000;stroke-width:0.6;" x="261.136826" xlink:href="#m70bbf5b45f" y="6.912"/>
      </g>
     </g>
    </g>
    <g id="xtick_45">
     <g id="line2d_133">
      <path clip-path="url(#p93e5543dd8)" d="M 264.566577 298.944 
L 264.566577 6.912 
" style="fill:none;stroke:#b0b0b0;stroke-linecap:square;stroke-opacity:0.15;stroke-width:0.8;"/>
     </g>
     <g id="line2d_134">
      <g>
       <use style="stroke:#000000;stroke-width:0.6;" x="264.566577" xlink:href="#m75f6900396" y="298.944"/>
      </g>
     </g>
     <g id="line2d_135">
      <g>
       <use style="stroke:#000000;stroke-width:0.6;" x="264.566577" xlink:href="#m70bbf5b45f" y="6.912"/>
      </g>
     </g>
    </g>
    <g id="xtick_46">
     <g id="line2d_136">
      <path clip-path="url(#p93e5543dd8)" d="M 267.466391 298.944 
L 267.466391 6.912 
" style="fill:none;stroke:#b0b0b0;stroke-linecap:square;stroke-opacity:0.15;stroke-width:0.8;"/>
     </g>
     <g id="line2d_137">
      <g>
       <use style="stroke:#000000;stroke-width:0.6;" x="267.466391" xlink:href="#m75f6900396" y="298.944"/>
      </g>
     </g>
     <g id="line2d_138">
      <g>
       <use style="stroke:#000000;stroke-width:0.6;" x="267.466391" xlink:href="#m70bbf5b45f" y="6.912"/>
      </g>
     </g>
    </g>
    <g id="xtick_47">
     <g id="line2d_139">
      <path clip-path="url(#p93e5543dd8)" d="M 269.978323 298.944 
L 269.978323 6.912 
" style="fill:none;stroke:#b0b0b0;stroke-linecap:square;stroke-opacity:0.15;stroke-width:0.8;"/>
     </g>
     <g id="line2d_140">
      <g>
       <use style="stroke:#000000;stroke-width:0.6;" x="269.978323" xlink:href="#m75f6900396" y="298.944"/>
      </g>
     </g>
     <g id="line2d_141">
      <g>
       <use style="stroke:#000000;stroke-width:0.6;" x="269.978323" xlink:href="#m70bbf5b45f" y="6.912"/>
      </g>
     </g>
    </g>
    <g id="xtick_48">
     <g id="line2d_142">
      <path clip-path="url(#p93e5543dd8)" d="M 272.194005 298.944 
L 272.194005 6.912 
" style="fill:none;stroke:#b0b0b0;stroke-linecap:square;stroke-opacity:0.15;stroke-width:0.8;"/>
     </g>
     <g id="line2d_143">
      <g>
       <use style="stroke:#000000;stroke-width:0.6;" x="272.194005" xlink:href="#m75f6900396" y="298.944"/>
      </g>
     </g>
     <g id="line2d_144">
      <g>
       <use style="stroke:#000000;stroke-width:0.6;" x="272.194005" xlink:href="#m70bbf5b45f" y="6.912"/>
      </g>
     </g>
    </g>
    <g id="xtick_49">
     <g id="line2d_145">
      <path clip-path="url(#p93e5543dd8)" d="M 287.215174 298.944 
L 287.215174 6.912 
" style="fill:none;stroke:#b0b0b0;stroke-linecap:square;stroke-opacity:0.15;stroke-width:0.8;"/>
     </g>
     <g id="line2d_146">
      <g>
       <use style="stroke:#000000;stroke-width:0.6;" x="287.215174" xlink:href="#m75f6900396" y="298.944"/>
      </g>
     </g>
     <g id="line2d_147">
      <g>
       <use style="stroke:#000000;stroke-width:0.6;" x="287.215174" xlink:href="#m70bbf5b45f" y="6.912"/>
      </g>
     </g>
    </g>
    <g id="xtick_50">
     <g id="line2d_148">
      <path clip-path="url(#p93e5543dd8)" d="M 294.842603 298.944 
L 294.842603 6.912 
" style="fill:none;stroke:#b0b0b0;stroke-linecap:square;stroke-opacity:0.15;stroke-width:0.8;"/>
     </g>
     <g id="line2d_149">
      <g>
       <use style="stroke:#000000;stroke-width:0.6;" x="294.842603" xlink:href="#m75f6900396" y="298.944"/>
      </g>
     </g>
     <g id="line2d_150">
      <g>
       <use style="stroke:#000000;stroke-width:0.6;" x="294.842603" xlink:href="#m70bbf5b45f" y="6.912"/>
      </g>
     </g>
    </g>
    <g id="xtick_51">
     <g id="line2d_151">
      <path clip-path="url(#p93e5543dd8)" d="M 300.254349 298.944 
L 300.254349 6.912 
" style="fill:none;stroke:#b0b0b0;stroke-linecap:square;stroke-opacity:0.15;stroke-width:0.8;"/>
     </g>
     <g id="line2d_152">
      <g>
       <use style="stroke:#000000;stroke-width:0.6;" x="300.254349" xlink:href="#m75f6900396" y="298.944"/>
      </g>
     </g>
     <g id="line2d_153">
      <g>
       <use style="stroke:#000000;stroke-width:0.6;" x="300.254349" xlink:href="#m70bbf5b45f" y="6.912"/>
      </g>
     </g>
    </g>
    <g id="xtick_52">
     <g id="line2d_154">
      <path clip-path="url(#p93e5543dd8)" d="M 304.452026 298.944 
L 304.452026 6.912 
" style="fill:none;stroke:#b0b0b0;stroke-linecap:square;stroke-opacity:0.15;stroke-width:0.8;"/>
     </g>
     <g id="line2d_155">
      <g>
       <use style="stroke:#000000;stroke-width:0.6;" x="304.452026" xlink:href="#m75f6900396" y="298.944"/>
      </g>
     </g>
     <g id="line2d_156">
      <g>
       <use style="stroke:#000000;stroke-width:0.6;" x="304.452026" xlink:href="#m70bbf5b45f" y="6.912"/>
      </g>
     </g>
    </g>
    <g id="xtick_53">
     <g id="line2d_157">
      <path clip-path="url(#p93e5543dd8)" d="M 307.881777 298.944 
L 307.881777 6.912 
" style="fill:none;stroke:#b0b0b0;stroke-linecap:square;stroke-opacity:0.15;stroke-width:0.8;"/>
     </g>
     <g id="line2d_158">
      <g>
       <use style="stroke:#000000;stroke-width:0.6;" x="307.881777" xlink:href="#m75f6900396" y="298.944"/>
      </g>
     </g>
     <g id="line2d_159">
      <g>
       <use style="stroke:#000000;stroke-width:0.6;" x="307.881777" xlink:href="#m70bbf5b45f" y="6.912"/>
      </g>
     </g>
    </g>
    <g id="xtick_54">
     <g id="line2d_160">
      <path clip-path="url(#p93e5543dd8)" d="M 310.781591 298.944 
L 310.781591 6.912 
" style="fill:none;stroke:#b0b0b0;stroke-linecap:square;stroke-opacity:0.15;stroke-width:0.8;"/>
     </g>
     <g id="line2d_161">
      <g>
       <use style="stroke:#000000;stroke-width:0.6;" x="310.781591" xlink:href="#m75f6900396" y="298.944"/>
      </g>
     </g>
     <g id="line2d_162">
      <g>
       <use style="stroke:#000000;stroke-width:0.6;" x="310.781591" xlink:href="#m70bbf5b45f" y="6.912"/>
      </g>
     </g>
    </g>
    <g id="xtick_55">
     <g id="line2d_163">
      <path clip-path="url(#p93e5543dd8)" d="M 313.293523 298.944 
L 313.293523 6.912 
" style="fill:none;stroke:#b0b0b0;stroke-linecap:square;stroke-opacity:0.15;stroke-width:0.8;"/>
     </g>
     <g id="line2d_164">
      <g>
       <use style="stroke:#000000;stroke-width:0.6;" x="313.293523" xlink:href="#m75f6900396" y="298.944"/>
      </g>
     </g>
     <g id="line2d_165">
      <g>
       <use style="stroke:#000000;stroke-width:0.6;" x="313.293523" xlink:href="#m70bbf5b45f" y="6.912"/>
      </g>
     </g>
    </g>
    <g id="xtick_56">
     <g id="line2d_166">
      <path clip-path="url(#p93e5543dd8)" d="M 315.509205 298.944 
L 315.509205 6.912 
" style="fill:none;stroke:#b0b0b0;stroke-linecap:square;stroke-opacity:0.15;stroke-width:0.8;"/>
     </g>
     <g id="line2d_167">
      <g>
       <use style="stroke:#000000;stroke-width:0.6;" x="315.509205" xlink:href="#m75f6900396" y="298.944"/>
      </g>
     </g>
     <g id="line2d_168">
      <g>
       <use style="stroke:#000000;stroke-width:0.6;" x="315.509205" xlink:href="#m70bbf5b45f" y="6.912"/>
      </g>
     </g>
    </g>
    <g id="xtick_57">
     <g id="line2d_169">
      <path clip-path="url(#p93e5543dd8)" d="M 330.530374 298.944 
L 330.530374 6.912 
" style="fill:none;stroke:#b0b0b0;stroke-linecap:square;stroke-opacity:0.15;stroke-width:0.8;"/>
     </g>
     <g id="line2d_170">
      <g>
       <use style="stroke:#000000;stroke-width:0.6;" x="330.530374" xlink:href="#m75f6900396" y="298.944"/>
      </g>
     </g>
     <g id="line2d_171">
      <g>
       <use style="stroke:#000000;stroke-width:0.6;" x="330.530374" xlink:href="#m70bbf5b45f" y="6.912"/>
      </g>
     </g>
    </g>
    <g id="xtick_58">
     <g id="line2d_172">
      <path clip-path="url(#p93e5543dd8)" d="M 338.157803 298.944 
L 338.157803 6.912 
" style="fill:none;stroke:#b0b0b0;stroke-linecap:square;stroke-opacity:0.15;stroke-width:0.8;"/>
     </g>
     <g id="line2d_173">
      <g>
       <use style="stroke:#000000;stroke-width:0.6;" x="338.157803" xlink:href="#m75f6900396" y="298.944"/>
      </g>
     </g>
     <g id="line2d_174">
      <g>
       <use style="stroke:#000000;stroke-width:0.6;" x="338.157803" xlink:href="#m70bbf5b45f" y="6.912"/>
      </g>
     </g>
    </g>
    <g id="xtick_59">
     <g id="line2d_175">
      <path clip-path="url(#p93e5543dd8)" d="M 343.569549 298.944 
L 343.569549 6.912 
" style="fill:none;stroke:#b0b0b0;stroke-linecap:square;stroke-opacity:0.15;stroke-width:0.8;"/>
     </g>
     <g id="line2d_176">
      <g>
       <use style="stroke:#000000;stroke-width:0.6;" x="343.569549" xlink:href="#m75f6900396" y="298.944"/>
      </g>
     </g>
     <g id="line2d_177">
      <g>
       <use style="stroke:#000000;stroke-width:0.6;" x="343.569549" xlink:href="#m70bbf5b45f" y="6.912"/>
      </g>
     </g>
    </g>
    <g id="xtick_60">
     <g id="line2d_178">
      <path clip-path="url(#p93e5543dd8)" d="M 347.767226 298.944 
L 347.767226 6.912 
" style="fill:none;stroke:#b0b0b0;stroke-linecap:square;stroke-opacity:0.15;stroke-width:0.8;"/>
     </g>
     <g id="line2d_179">
      <g>
       <use style="stroke:#000000;stroke-width:0.6;" x="347.767226" xlink:href="#m75f6900396" y="298.944"/>
      </g>
     </g>
     <g id="line2d_180">
      <g>
       <use style="stroke:#000000;stroke-width:0.6;" x="347.767226" xlink:href="#m70bbf5b45f" y="6.912"/>
      </g>
     </g>
    </g>
    <g id="xtick_61">
     <g id="line2d_181">
      <path clip-path="url(#p93e5543dd8)" d="M 351.196977 298.944 
L 351.196977 6.912 
" style="fill:none;stroke:#b0b0b0;stroke-linecap:square;stroke-opacity:0.15;stroke-width:0.8;"/>
     </g>
     <g id="line2d_182">
      <g>
       <use style="stroke:#000000;stroke-width:0.6;" x="351.196977" xlink:href="#m75f6900396" y="298.944"/>
      </g>
     </g>
     <g id="line2d_183">
      <g>
       <use style="stroke:#000000;stroke-width:0.6;" x="351.196977" xlink:href="#m70bbf5b45f" y="6.912"/>
      </g>
     </g>
    </g>
    <g id="xtick_62">
     <g id="line2d_184">
      <path clip-path="url(#p93e5543dd8)" d="M 354.096791 298.944 
L 354.096791 6.912 
" style="fill:none;stroke:#b0b0b0;stroke-linecap:square;stroke-opacity:0.15;stroke-width:0.8;"/>
     </g>
     <g id="line2d_185">
      <g>
       <use style="stroke:#000000;stroke-width:0.6;" x="354.096791" xlink:href="#m75f6900396" y="298.944"/>
      </g>
     </g>
     <g id="line2d_186">
      <g>
       <use style="stroke:#000000;stroke-width:0.6;" x="354.096791" xlink:href="#m70bbf5b45f" y="6.912"/>
      </g>
     </g>
    </g>
    <g id="xtick_63">
     <g id="line2d_187">
      <path clip-path="url(#p93e5543dd8)" d="M 356.608723 298.944 
L 356.608723 6.912 
" style="fill:none;stroke:#b0b0b0;stroke-linecap:square;stroke-opacity:0.15;stroke-width:0.8;"/>
     </g>
     <g id="line2d_188">
      <g>
       <use style="stroke:#000000;stroke-width:0.6;" x="356.608723" xlink:href="#m75f6900396" y="298.944"/>
      </g>
     </g>
     <g id="line2d_189">
      <g>
       <use style="stroke:#000000;stroke-width:0.6;" x="356.608723" xlink:href="#m70bbf5b45f" y="6.912"/>
      </g>
     </g>
    </g>
    <g id="xtick_64">
     <g id="line2d_190">
      <path clip-path="url(#p93e5543dd8)" d="M 358.824405 298.944 
L 358.824405 6.912 
" style="fill:none;stroke:#b0b0b0;stroke-linecap:square;stroke-opacity:0.15;stroke-width:0.8;"/>
     </g>
     <g id="line2d_191">
      <g>
       <use style="stroke:#000000;stroke-width:0.6;" x="358.824405" xlink:href="#m75f6900396" y="298.944"/>
      </g>
     </g>
     <g id="line2d_192">
      <g>
       <use style="stroke:#000000;stroke-width:0.6;" x="358.824405" xlink:href="#m70bbf5b45f" y="6.912"/>
      </g>
     </g>
    </g>
    <g id="text_9">
     <!-- log10(# f-evals / dimension) -->
     <g transform="translate(102.985622 336.826656)scale(0.15 -0.15)">
      <defs>
       <path d="M 603 4863 
L 1178 4863 
L 1178 0 
L 603 0 
L 603 4863 
z
" id="DejaVuSans-6c" transform="scale(0.015625)"/>
       <path d="M 1959 3097 
Q 1497 3097 1228 2736 
Q 959 2375 959 1747 
Q 959 1119 1226 758 
Q 1494 397 1959 397 
Q 2419 397 2687 759 
Q 2956 1122 2956 1747 
Q 2956 2369 2687 2733 
Q 2419 3097 1959 3097 
z
M 1959 3584 
Q 2709 3584 3137 3096 
Q 3566 2609 3566 1747 
Q 3566 888 3137 398 
Q 2709 -91 1959 -91 
Q 1206 -91 779 398 
Q 353 888 353 1747 
Q 353 2609 779 3096 
Q 1206 3584 1959 3584 
z
" id="DejaVuSans-6f" transform="scale(0.015625)"/>
       <path d="M 2906 1791 
Q 2906 2416 2648 2759 
Q 2391 3103 1925 3103 
Q 1463 3103 1205 2759 
Q 947 2416 947 1791 
Q 947 1169 1205 825 
Q 1463 481 1925 481 
Q 2391 481 2648 825 
Q 2906 1169 2906 1791 
z
M 3481 434 
Q 3481 -459 3084 -895 
Q 2688 -1331 1869 -1331 
Q 1566 -1331 1297 -1286 
Q 1028 -1241 775 -1147 
L 775 -588 
Q 1028 -725 1275 -790 
Q 1522 -856 1778 -856 
Q 2344 -856 2625 -561 
Q 2906 -266 2906 331 
L 2906 616 
Q 2728 306 2450 153 
Q 2172 0 1784 0 
Q 1141 0 747 490 
Q 353 981 353 1791 
Q 353 2603 747 3093 
Q 1141 3584 1784 3584 
Q 2172 3584 2450 3431 
Q 2728 3278 2906 2969 
L 2906 3500 
L 3481 3500 
L 3481 434 
z
" id="DejaVuSans-67" transform="scale(0.015625)"/>
       <path d="M 1984 4856 
Q 1566 4138 1362 3434 
Q 1159 2731 1159 2009 
Q 1159 1288 1364 580 
Q 1569 -128 1984 -844 
L 1484 -844 
Q 1016 -109 783 600 
Q 550 1309 550 2009 
Q 550 2706 781 3412 
Q 1013 4119 1484 4856 
L 1984 4856 
z
" id="DejaVuSans-28" transform="scale(0.015625)"/>
       <path d="M 3272 2816 
L 2363 2816 
L 2100 1772 
L 3016 1772 
L 3272 2816 
z
M 2803 4594 
L 2478 3297 
L 3391 3297 
L 3719 4594 
L 4219 4594 
L 3897 3297 
L 4872 3297 
L 4872 2816 
L 3775 2816 
L 3519 1772 
L 4513 1772 
L 4513 1294 
L 3397 1294 
L 3072 0 
L 2572 0 
L 2894 1294 
L 1978 1294 
L 1656 0 
L 1153 0 
L 1478 1294 
L 494 1294 
L 494 1772 
L 1594 1772 
L 1856 2816 
L 850 2816 
L 850 3297 
L 1978 3297 
L 2297 4594 
L 2803 4594 
z
" id="DejaVuSans-23" transform="scale(0.015625)"/>
       <path id="DejaVuSans-20" transform="scale(0.015625)"/>
       <path d="M 2375 4863 
L 2375 4384 
L 1825 4384 
Q 1516 4384 1395 4259 
Q 1275 4134 1275 3809 
L 1275 3500 
L 2222 3500 
L 2222 3053 
L 1275 3053 
L 1275 0 
L 697 0 
L 697 3053 
L 147 3053 
L 147 3500 
L 697 3500 
L 697 3744 
Q 697 4328 969 4595 
Q 1241 4863 1831 4863 
L 2375 4863 
z
" id="DejaVuSans-66" transform="scale(0.015625)"/>
       <path d="M 313 2009 
L 1997 2009 
L 1997 1497 
L 313 1497 
L 313 2009 
z
" id="DejaVuSans-2d" transform="scale(0.015625)"/>
       <path d="M 3597 1894 
L 3597 1613 
L 953 1613 
Q 991 1019 1311 708 
Q 1631 397 2203 397 
Q 2534 397 2845 478 
Q 3156 559 3463 722 
L 3463 178 
Q 3153 47 2828 -22 
Q 2503 -91 2169 -91 
Q 1331 -91 842 396 
Q 353 884 353 1716 
Q 353 2575 817 3079 
Q 1281 3584 2069 3584 
Q 2775 3584 3186 3129 
Q 3597 2675 3597 1894 
z
M 3022 2063 
Q 3016 2534 2758 2815 
Q 2500 3097 2075 3097 
Q 1594 3097 1305 2825 
Q 1016 2553 972 2059 
L 3022 2063 
z
" id="DejaVuSans-65" transform="scale(0.015625)"/>
       <path d="M 191 3500 
L 800 3500 
L 1894 563 
L 2988 3500 
L 3597 3500 
L 2284 0 
L 1503 0 
L 191 3500 
z
" id="DejaVuSans-76" transform="scale(0.015625)"/>
       <path d="M 2194 1759 
Q 1497 1759 1228 1600 
Q 959 1441 959 1056 
Q 959 750 1161 570 
Q 1363 391 1709 391 
Q 2188 391 2477 730 
Q 2766 1069 2766 1631 
L 2766 1759 
L 2194 1759 
z
M 3341 1997 
L 3341 0 
L 2766 0 
L 2766 531 
Q 2569 213 2275 61 
Q 1981 -91 1556 -91 
Q 1019 -91 701 211 
Q 384 513 384 1019 
Q 384 1609 779 1909 
Q 1175 2209 1959 2209 
L 2766 2209 
L 2766 2266 
Q 2766 2663 2505 2880 
Q 2244 3097 1772 3097 
Q 1472 3097 1187 3025 
Q 903 2953 641 2809 
L 641 3341 
Q 956 3463 1253 3523 
Q 1550 3584 1831 3584 
Q 2591 3584 2966 3190 
Q 3341 2797 3341 1997 
z
" id="DejaVuSans-61" transform="scale(0.015625)"/>
       <path d="M 2834 3397 
L 2834 2853 
Q 2591 2978 2328 3040 
Q 2066 3103 1784 3103 
Q 1356 3103 1142 2972 
Q 928 2841 928 2578 
Q 928 2378 1081 2264 
Q 1234 2150 1697 2047 
L 1894 2003 
Q 2506 1872 2764 1633 
Q 3022 1394 3022 966 
Q 3022 478 2636 193 
Q 2250 -91 1575 -91 
Q 1294 -91 989 -36 
Q 684 19 347 128 
L 347 722 
Q 666 556 975 473 
Q 1284 391 1588 391 
Q 1994 391 2212 530 
Q 2431 669 2431 922 
Q 2431 1156 2273 1281 
Q 2116 1406 1581 1522 
L 1381 1569 
Q 847 1681 609 1914 
Q 372 2147 372 2553 
Q 372 3047 722 3315 
Q 1072 3584 1716 3584 
Q 2034 3584 2315 3537 
Q 2597 3491 2834 3397 
z
" id="DejaVuSans-73" transform="scale(0.015625)"/>
       <path d="M 1625 4666 
L 2156 4666 
L 531 -594 
L 0 -594 
L 1625 4666 
z
" id="DejaVuSans-2f" transform="scale(0.015625)"/>
       <path d="M 2906 2969 
L 2906 4863 
L 3481 4863 
L 3481 0 
L 2906 0 
L 2906 525 
Q 2725 213 2448 61 
Q 2172 -91 1784 -91 
Q 1150 -91 751 415 
Q 353 922 353 1747 
Q 353 2572 751 3078 
Q 1150 3584 1784 3584 
Q 2172 3584 2448 3432 
Q 2725 3281 2906 2969 
z
M 947 1747 
Q 947 1113 1208 752 
Q 1469 391 1925 391 
Q 2381 391 2643 752 
Q 2906 1113 2906 1747 
Q 2906 2381 2643 2742 
Q 2381 3103 1925 3103 
Q 1469 3103 1208 2742 
Q 947 2381 947 1747 
z
" id="DejaVuSans-64" transform="scale(0.015625)"/>
       <path d="M 603 3500 
L 1178 3500 
L 1178 0 
L 603 0 
L 603 3500 
z
M 603 4863 
L 1178 4863 
L 1178 4134 
L 603 4134 
L 603 4863 
z
" id="DejaVuSans-69" transform="scale(0.015625)"/>
       <path d="M 3328 2828 
Q 3544 3216 3844 3400 
Q 4144 3584 4550 3584 
Q 5097 3584 5394 3201 
Q 5691 2819 5691 2113 
L 5691 0 
L 5113 0 
L 5113 2094 
Q 5113 2597 4934 2840 
Q 4756 3084 4391 3084 
Q 3944 3084 3684 2787 
Q 3425 2491 3425 1978 
L 3425 0 
L 2847 0 
L 2847 2094 
Q 2847 2600 2669 2842 
Q 2491 3084 2119 3084 
Q 1678 3084 1418 2786 
Q 1159 2488 1159 1978 
L 1159 0 
L 581 0 
L 581 3500 
L 1159 3500 
L 1159 2956 
Q 1356 3278 1631 3431 
Q 1906 3584 2284 3584 
Q 2666 3584 2933 3390 
Q 3200 3197 3328 2828 
z
" id="DejaVuSans-6d" transform="scale(0.015625)"/>
       <path d="M 3513 2113 
L 3513 0 
L 2938 0 
L 2938 2094 
Q 2938 2591 2744 2837 
Q 2550 3084 2163 3084 
Q 1697 3084 1428 2787 
Q 1159 2491 1159 1978 
L 1159 0 
L 581 0 
L 581 3500 
L 1159 3500 
L 1159 2956 
Q 1366 3272 1645 3428 
Q 1925 3584 2291 3584 
Q 2894 3584 3203 3211 
Q 3513 2838 3513 2113 
z
" id="DejaVuSans-6e" transform="scale(0.015625)"/>
       <path d="M 513 4856 
L 1013 4856 
Q 1481 4119 1714 3412 
Q 1947 2706 1947 2009 
Q 1947 1309 1714 600 
Q 1481 -109 1013 -844 
L 513 -844 
Q 928 -128 1133 580 
Q 1338 1288 1338 2009 
Q 1338 2731 1133 3434 
Q 928 4138 513 4856 
z
" id="DejaVuSans-29" transform="scale(0.015625)"/>
      </defs>
      <use xlink:href="#DejaVuSans-6c"/>
      <use x="27.783203" xlink:href="#DejaVuSans-6f"/>
      <use x="88.964844" xlink:href="#DejaVuSans-67"/>
      <use x="152.441406" xlink:href="#DejaVuSans-31"/>
      <use x="216.064453" xlink:href="#DejaVuSans-30"/>
      <use x="279.6875" xlink:href="#DejaVuSans-28"/>
      <use x="318.701172" xlink:href="#DejaVuSans-23"/>
      <use x="402.490234" xlink:href="#DejaVuSans-20"/>
      <use x="434.277344" xlink:href="#DejaVuSans-66"/>
      <use x="463.982422" xlink:href="#DejaVuSans-2d"/>
      <use x="500.066406" xlink:href="#DejaVuSans-65"/>
      <use x="561.589844" xlink:href="#DejaVuSans-76"/>
      <use x="620.769531" xlink:href="#DejaVuSans-61"/>
      <use x="682.048828" xlink:href="#DejaVuSans-6c"/>
      <use x="709.832031" xlink:href="#DejaVuSans-73"/>
      <use x="761.931641" xlink:href="#DejaVuSans-20"/>
      <use x="793.71875" xlink:href="#DejaVuSans-2f"/>
      <use x="827.410156" xlink:href="#DejaVuSans-20"/>
      <use x="859.197266" xlink:href="#DejaVuSans-64"/>
      <use x="922.673828" xlink:href="#DejaVuSans-69"/>
      <use x="950.457031" xlink:href="#DejaVuSans-6d"/>
      <use x="1047.869141" xlink:href="#DejaVuSans-65"/>
      <use x="1109.392578" xlink:href="#DejaVuSans-6e"/>
      <use x="1172.771484" xlink:href="#DejaVuSans-73"/>
      <use x="1224.871094" xlink:href="#DejaVuSans-69"/>
      <use x="1252.654297" xlink:href="#DejaVuSans-6f"/>
      <use x="1313.835938" xlink:href="#DejaVuSans-6e"/>
      <use x="1377.214844" xlink:href="#DejaVuSans-29"/>
     </g>
    </g>
   </g>
   <g id="matplotlib.axis_2">
    <g id="ytick_1">
     <g id="line2d_193">
      <path clip-path="url(#p93e5543dd8)" d="M 57.6 298.944 
L 360.8064 298.944 
" style="fill:none;stroke:#b0b0b0;stroke-linecap:square;stroke-width:0.8;"/>
     </g>
     <g id="line2d_194">
      <defs>
       <path d="M 0 0 
L -3.5 0 
" id="mce6a817148" style="stroke:#000000;stroke-width:0.8;"/>
      </defs>
      <g>
       <use style="stroke:#000000;stroke-width:0.8;" x="57.6" xlink:href="#mce6a817148" y="298.944"/>
      </g>
     </g>
     <g id="line2d_195">
      <defs>
       <path d="M 0 0 
L 3.5 0 
" id="m0d9d27c1a7" style="stroke:#000000;stroke-width:0.8;"/>
      </defs>
      <g>
       <use style="stroke:#000000;stroke-width:0.8;" x="360.8064" xlink:href="#m0d9d27c1a7" y="298.944"/>
      </g>
     </g>
     <g id="text_10">
      <!-- 0.0 -->
      <g transform="translate(28.335625 304.262906)scale(0.14 -0.14)">
       <defs>
        <path d="M 684 794 
L 1344 794 
L 1344 0 
L 684 0 
L 684 794 
z
" id="DejaVuSans-2e" transform="scale(0.015625)"/>
       </defs>
       <use xlink:href="#DejaVuSans-30"/>
       <use x="63.623047" xlink:href="#DejaVuSans-2e"/>
       <use x="95.410156" xlink:href="#DejaVuSans-30"/>
      </g>
     </g>
    </g>
    <g id="ytick_2">
     <g id="line2d_196">
      <path clip-path="url(#p93e5543dd8)" d="M 57.6 240.5376 
L 360.8064 240.5376 
" style="fill:none;stroke:#b0b0b0;stroke-linecap:square;stroke-width:0.8;"/>
     </g>
     <g id="line2d_197">
      <g>
       <use style="stroke:#000000;stroke-width:0.8;" x="57.6" xlink:href="#mce6a817148" y="240.5376"/>
      </g>
     </g>
     <g id="line2d_198">
      <g>
       <use style="stroke:#000000;stroke-width:0.8;" x="360.8064" xlink:href="#m0d9d27c1a7" y="240.5376"/>
      </g>
     </g>
     <g id="text_11">
      <!-- 0.2 -->
      <g transform="translate(28.335625 245.856506)scale(0.14 -0.14)">
       <use xlink:href="#DejaVuSans-30"/>
       <use x="63.623047" xlink:href="#DejaVuSans-2e"/>
       <use x="95.410156" xlink:href="#DejaVuSans-32"/>
      </g>
     </g>
    </g>
    <g id="ytick_3">
     <g id="line2d_199">
      <path clip-path="url(#p93e5543dd8)" d="M 57.6 182.1312 
L 360.8064 182.1312 
" style="fill:none;stroke:#b0b0b0;stroke-linecap:square;stroke-width:0.8;"/>
     </g>
     <g id="line2d_200">
      <g>
       <use style="stroke:#000000;stroke-width:0.8;" x="57.6" xlink:href="#mce6a817148" y="182.1312"/>
      </g>
     </g>
     <g id="line2d_201">
      <g>
       <use style="stroke:#000000;stroke-width:0.8;" x="360.8064" xlink:href="#m0d9d27c1a7" y="182.1312"/>
      </g>
     </g>
     <g id="text_12">
      <!-- 0.4 -->
      <g transform="translate(28.335625 187.450106)scale(0.14 -0.14)">
       <use xlink:href="#DejaVuSans-30"/>
       <use x="63.623047" xlink:href="#DejaVuSans-2e"/>
       <use x="95.410156" xlink:href="#DejaVuSans-34"/>
      </g>
     </g>
    </g>
    <g id="ytick_4">
     <g id="line2d_202">
      <path clip-path="url(#p93e5543dd8)" d="M 57.6 123.7248 
L 360.8064 123.7248 
" style="fill:none;stroke:#b0b0b0;stroke-linecap:square;stroke-width:0.8;"/>
     </g>
     <g id="line2d_203">
      <g>
       <use style="stroke:#000000;stroke-width:0.8;" x="57.6" xlink:href="#mce6a817148" y="123.7248"/>
      </g>
     </g>
     <g id="line2d_204">
      <g>
       <use style="stroke:#000000;stroke-width:0.8;" x="360.8064" xlink:href="#m0d9d27c1a7" y="123.7248"/>
      </g>
     </g>
     <g id="text_13">
      <!-- 0.6 -->
      <g transform="translate(28.335625 129.043706)scale(0.14 -0.14)">
       <use xlink:href="#DejaVuSans-30"/>
       <use x="63.623047" xlink:href="#DejaVuSans-2e"/>
       <use x="95.410156" xlink:href="#DejaVuSans-36"/>
      </g>
     </g>
    </g>
    <g id="ytick_5">
     <g id="line2d_205">
      <path clip-path="url(#p93e5543dd8)" d="M 57.6 65.3184 
L 360.8064 65.3184 
" style="fill:none;stroke:#b0b0b0;stroke-linecap:square;stroke-width:0.8;"/>
     </g>
     <g id="line2d_206">
      <g>
       <use style="stroke:#000000;stroke-width:0.8;" x="57.6" xlink:href="#mce6a817148" y="65.3184"/>
      </g>
     </g>
     <g id="line2d_207">
      <g>
       <use style="stroke:#000000;stroke-width:0.8;" x="360.8064" xlink:href="#m0d9d27c1a7" y="65.3184"/>
      </g>
     </g>
     <g id="text_14">
      <!-- 0.8 -->
      <g transform="translate(28.335625 70.637306)scale(0.14 -0.14)">
       <defs>
        <path d="M 2034 2216 
Q 1584 2216 1326 1975 
Q 1069 1734 1069 1313 
Q 1069 891 1326 650 
Q 1584 409 2034 409 
Q 2484 409 2743 651 
Q 3003 894 3003 1313 
Q 3003 1734 2745 1975 
Q 2488 2216 2034 2216 
z
M 1403 2484 
Q 997 2584 770 2862 
Q 544 3141 544 3541 
Q 544 4100 942 4425 
Q 1341 4750 2034 4750 
Q 2731 4750 3128 4425 
Q 3525 4100 3525 3541 
Q 3525 3141 3298 2862 
Q 3072 2584 2669 2484 
Q 3125 2378 3379 2068 
Q 3634 1759 3634 1313 
Q 3634 634 3220 271 
Q 2806 -91 2034 -91 
Q 1263 -91 848 271 
Q 434 634 434 1313 
Q 434 1759 690 2068 
Q 947 2378 1403 2484 
z
M 1172 3481 
Q 1172 3119 1398 2916 
Q 1625 2713 2034 2713 
Q 2441 2713 2670 2916 
Q 2900 3119 2900 3481 
Q 2900 3844 2670 4047 
Q 2441 4250 2034 4250 
Q 1625 4250 1398 4047 
Q 1172 3844 1172 3481 
z
" id="DejaVuSans-38" transform="scale(0.015625)"/>
       </defs>
       <use xlink:href="#DejaVuSans-30"/>
       <use x="63.623047" xlink:href="#DejaVuSans-2e"/>
       <use x="95.410156" xlink:href="#DejaVuSans-38"/>
      </g>
     </g>
    </g>
    <g id="ytick_6">
     <g id="line2d_208">
      <path clip-path="url(#p93e5543dd8)" d="M 57.6 6.912 
L 360.8064 6.912 
" style="fill:none;stroke:#b0b0b0;stroke-linecap:square;stroke-width:0.8;"/>
     </g>
     <g id="line2d_209">
      <g>
       <use style="stroke:#000000;stroke-width:0.8;" x="57.6" xlink:href="#mce6a817148" y="6.912"/>
      </g>
     </g>
     <g id="line2d_210">
      <g>
       <use style="stroke:#000000;stroke-width:0.8;" x="360.8064" xlink:href="#m0d9d27c1a7" y="6.912"/>
      </g>
     </g>
     <g id="text_15">
      <!-- 1.0 -->
      <g transform="translate(28.335625 12.230906)scale(0.14 -0.14)">
       <use xlink:href="#DejaVuSans-31"/>
       <use x="63.623047" xlink:href="#DejaVuSans-2e"/>
       <use x="95.410156" xlink:href="#DejaVuSans-30"/>
      </g>
     </g>
    </g>
    <g id="ytick_7">
     <g id="line2d_211">
      <path clip-path="url(#p93e5543dd8)" d="M 57.6 284.3424 
L 360.8064 284.3424 
" style="fill:none;stroke:#b0b0b0;stroke-linecap:square;stroke-opacity:0.15;stroke-width:0.8;"/>
     </g>
     <g id="line2d_212">
      <defs>
       <path d="M 0 0 
L -2 0 
" id="m74c5876f7b" style="stroke:#000000;stroke-width:0.6;"/>
      </defs>
      <g>
       <use style="stroke:#000000;stroke-width:0.6;" x="57.6" xlink:href="#m74c5876f7b" y="284.3424"/>
      </g>
     </g>
     <g id="line2d_213">
      <defs>
       <path d="M 0 0 
L 2 0 
" id="md41ab73838" style="stroke:#000000;stroke-width:0.6;"/>
      </defs>
      <g>
       <use style="stroke:#000000;stroke-width:0.6;" x="360.8064" xlink:href="#md41ab73838" y="284.3424"/>
      </g>
     </g>
    </g>
    <g id="ytick_8">
     <g id="line2d_214">
      <path clip-path="url(#p93e5543dd8)" d="M 57.6 269.7408 
L 360.8064 269.7408 
" style="fill:none;stroke:#b0b0b0;stroke-linecap:square;stroke-opacity:0.15;stroke-width:0.8;"/>
     </g>
     <g id="line2d_215">
      <g>
       <use style="stroke:#000000;stroke-width:0.6;" x="57.6" xlink:href="#m74c5876f7b" y="269.7408"/>
      </g>
     </g>
     <g id="line2d_216">
      <g>
       <use style="stroke:#000000;stroke-width:0.6;" x="360.8064" xlink:href="#md41ab73838" y="269.7408"/>
      </g>
     </g>
    </g>
    <g id="ytick_9">
     <g id="line2d_217">
      <path clip-path="url(#p93e5543dd8)" d="M 57.6 255.1392 
L 360.8064 255.1392 
" style="fill:none;stroke:#b0b0b0;stroke-linecap:square;stroke-opacity:0.15;stroke-width:0.8;"/>
     </g>
     <g id="line2d_218">
      <g>
       <use style="stroke:#000000;stroke-width:0.6;" x="57.6" xlink:href="#m74c5876f7b" y="255.1392"/>
      </g>
     </g>
     <g id="line2d_219">
      <g>
       <use style="stroke:#000000;stroke-width:0.6;" x="360.8064" xlink:href="#md41ab73838" y="255.1392"/>
      </g>
     </g>
    </g>
    <g id="ytick_10">
     <g id="line2d_220">
      <path clip-path="url(#p93e5543dd8)" d="M 57.6 225.936 
L 360.8064 225.936 
" style="fill:none;stroke:#b0b0b0;stroke-linecap:square;stroke-opacity:0.15;stroke-width:0.8;"/>
     </g>
     <g id="line2d_221">
      <g>
       <use style="stroke:#000000;stroke-width:0.6;" x="57.6" xlink:href="#m74c5876f7b" y="225.936"/>
      </g>
     </g>
     <g id="line2d_222">
      <g>
       <use style="stroke:#000000;stroke-width:0.6;" x="360.8064" xlink:href="#md41ab73838" y="225.936"/>
      </g>
     </g>
    </g>
    <g id="ytick_11">
     <g id="line2d_223">
      <path clip-path="url(#p93e5543dd8)" d="M 57.6 211.3344 
L 360.8064 211.3344 
" style="fill:none;stroke:#b0b0b0;stroke-linecap:square;stroke-opacity:0.15;stroke-width:0.8;"/>
     </g>
     <g id="line2d_224">
      <g>
       <use style="stroke:#000000;stroke-width:0.6;" x="57.6" xlink:href="#m74c5876f7b" y="211.3344"/>
      </g>
     </g>
     <g id="line2d_225">
      <g>
       <use style="stroke:#000000;stroke-width:0.6;" x="360.8064" xlink:href="#md41ab73838" y="211.3344"/>
      </g>
     </g>
    </g>
    <g id="ytick_12">
     <g id="line2d_226">
      <path clip-path="url(#p93e5543dd8)" d="M 57.6 196.7328 
L 360.8064 196.7328 
" style="fill:none;stroke:#b0b0b0;stroke-linecap:square;stroke-opacity:0.15;stroke-width:0.8;"/>
     </g>
     <g id="line2d_227">
      <g>
       <use style="stroke:#000000;stroke-width:0.6;" x="57.6" xlink:href="#m74c5876f7b" y="196.7328"/>
      </g>
     </g>
     <g id="line2d_228">
      <g>
       <use style="stroke:#000000;stroke-width:0.6;" x="360.8064" xlink:href="#md41ab73838" y="196.7328"/>
      </g>
     </g>
    </g>
    <g id="ytick_13">
     <g id="line2d_229">
      <path clip-path="url(#p93e5543dd8)" d="M 57.6 167.5296 
L 360.8064 167.5296 
" style="fill:none;stroke:#b0b0b0;stroke-linecap:square;stroke-opacity:0.15;stroke-width:0.8;"/>
     </g>
     <g id="line2d_230">
      <g>
       <use style="stroke:#000000;stroke-width:0.6;" x="57.6" xlink:href="#m74c5876f7b" y="167.5296"/>
      </g>
     </g>
     <g id="line2d_231">
      <g>
       <use style="stroke:#000000;stroke-width:0.6;" x="360.8064" xlink:href="#md41ab73838" y="167.5296"/>
      </g>
     </g>
    </g>
    <g id="ytick_14">
     <g id="line2d_232">
      <path clip-path="url(#p93e5543dd8)" d="M 57.6 152.928 
L 360.8064 152.928 
" style="fill:none;stroke:#b0b0b0;stroke-linecap:square;stroke-opacity:0.15;stroke-width:0.8;"/>
     </g>
     <g id="line2d_233">
      <g>
       <use style="stroke:#000000;stroke-width:0.6;" x="57.6" xlink:href="#m74c5876f7b" y="152.928"/>
      </g>
     </g>
     <g id="line2d_234">
      <g>
       <use style="stroke:#000000;stroke-width:0.6;" x="360.8064" xlink:href="#md41ab73838" y="152.928"/>
      </g>
     </g>
    </g>
    <g id="ytick_15">
     <g id="line2d_235">
      <path clip-path="url(#p93e5543dd8)" d="M 57.6 138.3264 
L 360.8064 138.3264 
" style="fill:none;stroke:#b0b0b0;stroke-linecap:square;stroke-opacity:0.15;stroke-width:0.8;"/>
     </g>
     <g id="line2d_236">
      <g>
       <use style="stroke:#000000;stroke-width:0.6;" x="57.6" xlink:href="#m74c5876f7b" y="138.3264"/>
      </g>
     </g>
     <g id="line2d_237">
      <g>
       <use style="stroke:#000000;stroke-width:0.6;" x="360.8064" xlink:href="#md41ab73838" y="138.3264"/>
      </g>
     </g>
    </g>
    <g id="ytick_16">
     <g id="line2d_238">
      <path clip-path="url(#p93e5543dd8)" d="M 57.6 109.1232 
L 360.8064 109.1232 
" style="fill:none;stroke:#b0b0b0;stroke-linecap:square;stroke-opacity:0.15;stroke-width:0.8;"/>
     </g>
     <g id="line2d_239">
      <g>
       <use style="stroke:#000000;stroke-width:0.6;" x="57.6" xlink:href="#m74c5876f7b" y="109.1232"/>
      </g>
     </g>
     <g id="line2d_240">
      <g>
       <use style="stroke:#000000;stroke-width:0.6;" x="360.8064" xlink:href="#md41ab73838" y="109.1232"/>
      </g>
     </g>
    </g>
    <g id="ytick_17">
     <g id="line2d_241">
      <path clip-path="url(#p93e5543dd8)" d="M 57.6 94.5216 
L 360.8064 94.5216 
" style="fill:none;stroke:#b0b0b0;stroke-linecap:square;stroke-opacity:0.15;stroke-width:0.8;"/>
     </g>
     <g id="line2d_242">
      <g>
       <use style="stroke:#000000;stroke-width:0.6;" x="57.6" xlink:href="#m74c5876f7b" y="94.5216"/>
      </g>
     </g>
     <g id="line2d_243">
      <g>
       <use style="stroke:#000000;stroke-width:0.6;" x="360.8064" xlink:href="#md41ab73838" y="94.5216"/>
      </g>
     </g>
    </g>
    <g id="ytick_18">
     <g id="line2d_244">
      <path clip-path="url(#p93e5543dd8)" d="M 57.6 79.92 
L 360.8064 79.92 
" style="fill:none;stroke:#b0b0b0;stroke-linecap:square;stroke-opacity:0.15;stroke-width:0.8;"/>
     </g>
     <g id="line2d_245">
      <g>
       <use style="stroke:#000000;stroke-width:0.6;" x="57.6" xlink:href="#m74c5876f7b" y="79.92"/>
      </g>
     </g>
     <g id="line2d_246">
      <g>
       <use style="stroke:#000000;stroke-width:0.6;" x="360.8064" xlink:href="#md41ab73838" y="79.92"/>
      </g>
     </g>
    </g>
    <g id="ytick_19">
     <g id="line2d_247">
      <path clip-path="url(#p93e5543dd8)" d="M 57.6 50.7168 
L 360.8064 50.7168 
" style="fill:none;stroke:#b0b0b0;stroke-linecap:square;stroke-opacity:0.15;stroke-width:0.8;"/>
     </g>
     <g id="line2d_248">
      <g>
       <use style="stroke:#000000;stroke-width:0.6;" x="57.6" xlink:href="#m74c5876f7b" y="50.7168"/>
      </g>
     </g>
     <g id="line2d_249">
      <g>
       <use style="stroke:#000000;stroke-width:0.6;" x="360.8064" xlink:href="#md41ab73838" y="50.7168"/>
      </g>
     </g>
    </g>
    <g id="ytick_20">
     <g id="line2d_250">
      <path clip-path="url(#p93e5543dd8)" d="M 57.6 36.1152 
L 360.8064 36.1152 
" style="fill:none;stroke:#b0b0b0;stroke-linecap:square;stroke-opacity:0.15;stroke-width:0.8;"/>
     </g>
     <g id="line2d_251">
      <g>
       <use style="stroke:#000000;stroke-width:0.6;" x="57.6" xlink:href="#m74c5876f7b" y="36.1152"/>
      </g>
     </g>
     <g id="line2d_252">
      <g>
       <use style="stroke:#000000;stroke-width:0.6;" x="360.8064" xlink:href="#md41ab73838" y="36.1152"/>
      </g>
     </g>
    </g>
    <g id="ytick_21">
     <g id="line2d_253">
      <path clip-path="url(#p93e5543dd8)" d="M 57.6 21.5136 
L 360.8064 21.5136 
" style="fill:none;stroke:#b0b0b0;stroke-linecap:square;stroke-opacity:0.15;stroke-width:0.8;"/>
     </g>
     <g id="line2d_254">
      <g>
       <use style="stroke:#000000;stroke-width:0.6;" x="57.6" xlink:href="#m74c5876f7b" y="21.5136"/>
      </g>
     </g>
     <g id="line2d_255">
      <g>
       <use style="stroke:#000000;stroke-width:0.6;" x="360.8064" xlink:href="#md41ab73838" y="21.5136"/>
      </g>
     </g>
    </g>
    <g id="text_16">
     <!-- Fraction of function,target pairs -->
     <g transform="translate(21.216094 271.503)rotate(-90)scale(0.15 -0.15)">
      <defs>
       <path d="M 628 4666 
L 3309 4666 
L 3309 4134 
L 1259 4134 
L 1259 2759 
L 3109 2759 
L 3109 2228 
L 1259 2228 
L 1259 0 
L 628 0 
L 628 4666 
z
" id="DejaVuSans-46" transform="scale(0.015625)"/>
       <path d="M 2631 2963 
Q 2534 3019 2420 3045 
Q 2306 3072 2169 3072 
Q 1681 3072 1420 2755 
Q 1159 2438 1159 1844 
L 1159 0 
L 581 0 
L 581 3500 
L 1159 3500 
L 1159 2956 
Q 1341 3275 1631 3429 
Q 1922 3584 2338 3584 
Q 2397 3584 2469 3576 
Q 2541 3569 2628 3553 
L 2631 2963 
z
" id="DejaVuSans-72" transform="scale(0.015625)"/>
       <path d="M 3122 3366 
L 3122 2828 
Q 2878 2963 2633 3030 
Q 2388 3097 2138 3097 
Q 1578 3097 1268 2742 
Q 959 2388 959 1747 
Q 959 1106 1268 751 
Q 1578 397 2138 397 
Q 2388 397 2633 464 
Q 2878 531 3122 666 
L 3122 134 
Q 2881 22 2623 -34 
Q 2366 -91 2075 -91 
Q 1284 -91 818 406 
Q 353 903 353 1747 
Q 353 2603 823 3093 
Q 1294 3584 2113 3584 
Q 2378 3584 2631 3529 
Q 2884 3475 3122 3366 
z
" id="DejaVuSans-63" transform="scale(0.015625)"/>
       <path d="M 1172 4494 
L 1172 3500 
L 2356 3500 
L 2356 3053 
L 1172 3053 
L 1172 1153 
Q 1172 725 1289 603 
Q 1406 481 1766 481 
L 2356 481 
L 2356 0 
L 1766 0 
Q 1100 0 847 248 
Q 594 497 594 1153 
L 594 3053 
L 172 3053 
L 172 3500 
L 594 3500 
L 594 4494 
L 1172 4494 
z
" id="DejaVuSans-74" transform="scale(0.015625)"/>
       <path d="M 544 1381 
L 544 3500 
L 1119 3500 
L 1119 1403 
Q 1119 906 1312 657 
Q 1506 409 1894 409 
Q 2359 409 2629 706 
Q 2900 1003 2900 1516 
L 2900 3500 
L 3475 3500 
L 3475 0 
L 2900 0 
L 2900 538 
Q 2691 219 2414 64 
Q 2138 -91 1772 -91 
Q 1169 -91 856 284 
Q 544 659 544 1381 
z
M 1991 3584 
L 1991 3584 
z
" id="DejaVuSans-75" transform="scale(0.015625)"/>
       <path d="M 750 794 
L 1409 794 
L 1409 256 
L 897 -744 
L 494 -744 
L 750 256 
L 750 794 
z
" id="DejaVuSans-2c" transform="scale(0.015625)"/>
       <path d="M 1159 525 
L 1159 -1331 
L 581 -1331 
L 581 3500 
L 1159 3500 
L 1159 2969 
Q 1341 3281 1617 3432 
Q 1894 3584 2278 3584 
Q 2916 3584 3314 3078 
Q 3713 2572 3713 1747 
Q 3713 922 3314 415 
Q 2916 -91 2278 -91 
Q 1894 -91 1617 61 
Q 1341 213 1159 525 
z
M 3116 1747 
Q 3116 2381 2855 2742 
Q 2594 3103 2138 3103 
Q 1681 3103 1420 2742 
Q 1159 2381 1159 1747 
Q 1159 1113 1420 752 
Q 1681 391 2138 391 
Q 2594 391 2855 752 
Q 3116 1113 3116 1747 
z
" id="DejaVuSans-70" transform="scale(0.015625)"/>
      </defs>
      <use xlink:href="#DejaVuSans-46"/>
      <use x="50.269531" xlink:href="#DejaVuSans-72"/>
      <use x="91.382812" xlink:href="#DejaVuSans-61"/>
      <use x="152.662109" xlink:href="#DejaVuSans-63"/>
      <use x="207.642578" xlink:href="#DejaVuSans-74"/>
      <use x="246.851562" xlink:href="#DejaVuSans-69"/>
      <use x="274.634766" xlink:href="#DejaVuSans-6f"/>
      <use x="335.816406" xlink:href="#DejaVuSans-6e"/>
      <use x="399.195312" xlink:href="#DejaVuSans-20"/>
      <use x="430.982422" xlink:href="#DejaVuSans-6f"/>
      <use x="492.164062" xlink:href="#DejaVuSans-66"/>
      <use x="527.369141" xlink:href="#DejaVuSans-20"/>
      <use x="559.15625" xlink:href="#DejaVuSans-66"/>
      <use x="594.361328" xlink:href="#DejaVuSans-75"/>
      <use x="657.740234" xlink:href="#DejaVuSans-6e"/>
      <use x="721.119141" xlink:href="#DejaVuSans-63"/>
      <use x="776.099609" xlink:href="#DejaVuSans-74"/>
      <use x="815.308594" xlink:href="#DejaVuSans-69"/>
      <use x="843.091797" xlink:href="#DejaVuSans-6f"/>
      <use x="904.273438" xlink:href="#DejaVuSans-6e"/>
      <use x="967.652344" xlink:href="#DejaVuSans-2c"/>
      <use x="999.439453" xlink:href="#DejaVuSans-74"/>
      <use x="1038.648438" xlink:href="#DejaVuSans-61"/>
      <use x="1099.927734" xlink:href="#DejaVuSans-72"/>
      <use x="1139.291016" xlink:href="#DejaVuSans-67"/>
      <use x="1202.767578" xlink:href="#DejaVuSans-65"/>
      <use x="1264.291016" xlink:href="#DejaVuSans-74"/>
      <use x="1303.5" xlink:href="#DejaVuSans-20"/>
      <use x="1335.287109" xlink:href="#DejaVuSans-70"/>
      <use x="1398.763672" xlink:href="#DejaVuSans-61"/>
      <use x="1460.042969" xlink:href="#DejaVuSans-69"/>
      <use x="1487.826172" xlink:href="#DejaVuSans-72"/>
      <use x="1528.939453" xlink:href="#DejaVuSans-73"/>
     </g>
    </g>
   </g>
   <g id="line2d_256">
    <defs>
     <path d="M 0 1 
C 0.265203 1 0.51958 0.894634 0.707107 0.707107 
C 0.894634 0.51958 1 0.265203 1 0 
C 1 -0.265203 0.894634 -0.51958 0.707107 -0.707107 
C 0.51958 -0.894634 0.265203 -1 0 -1 
C -0.265203 -1 -0.51958 -0.894634 -0.707107 -0.707107 
C -0.894634 -0.51958 -1 -0.265203 -1 0 
C -1 0.265203 -0.894634 0.51958 -0.707107 0.707107 
C -0.51958 0.894634 -0.265203 1 0 1 
z
" id="m6e0510e843" style="stroke:#ff7d0b;"/>
    </defs>
    <g>
     <use style="fill:#ff7d0b;stroke:#ff7d0b;" x="311.086277" xlink:href="#m6e0510e843" y="153.500612"/>
    </g>
   </g>
   <g id="line2d_257">
    <path d="M 59.069517 298.944 
L 59.069517 298.867652 
L 64.179833 298.791304 
L 64.179833 298.714955 
L 66.877306 298.638607 
L 66.877306 298.562259 
L 71.046241 298.485911 
L 71.103681 298.333214 
L 71.612897 298.256866 
L 71.612897 298.180518 
L 73.01097 298.104169 
L 73.01097 298.027821 
L 73.871945 297.951473 
L 73.871945 297.875125 
L 75.301357 297.798776 
L 75.301357 297.722428 
L 77.750097 297.64608 
L 77.750097 297.569732 
L 78.422716 297.493384 
L 78.422716 297.417035 
L 78.731109 297.340687 
L 78.731109 297.264339 
L 80.517088 297.187991 
L 80.517088 297.111642 
L 80.861632 297.035294 
L 80.861632 296.958946 
L 82.020141 296.882598 
L 82.020141 296.806249 
L 87.591715 296.729901 
L 87.591715 296.653553 
L 89.518722 296.577205 
L 89.626156 296.424508 
L 90.091707 296.34816 
L 90.112597 296.195464 
L 90.464225 296.119115 
L 90.464225 296.042767 
L 91.325362 295.966419 
L 91.364471 295.813722 
L 91.635983 295.737374 
L 91.635983 295.661026 
L 91.922605 295.584678 
L 91.922605 295.508329 
L 92.316676 295.431981 
L 92.390811 295.279285 
L 92.757162 295.202936 
L 92.757162 295.126588 
L 93.951948 295.05024 
L 94.053816 294.897544 
L 94.356151 294.821195 
L 94.356151 294.744847 
L 94.719192 294.668499 
L 94.719192 294.515802 
L 95.075359 294.439454 
L 95.107406 294.286758 
L 96.180866 294.210409 
L 96.180866 294.134061 
L 96.643897 294.057713 
L 96.717523 293.905016 
L 97.424211 293.828668 
L 97.424211 293.75232 
L 97.802557 293.675972 
L 97.802557 293.599624 
L 98.523812 293.523275 
L 98.523812 293.446927 
L 98.828405 293.370579 
L 98.828405 293.294231 
L 99.295475 293.217882 
L 99.372204 293.065186 
L 100.317958 292.988838 
L 100.378542 292.836141 
L 100.49913 292.759793 
L 100.511146 292.607096 
L 100.891671 292.530748 
L 100.891671 292.4544 
L 101.05576 292.378052 
L 101.05576 292.301704 
L 101.50546 292.225355 
L 101.539611 292.072659 
L 102.055643 291.996311 
L 102.055643 291.919962 
L 102.449846 291.843614 
L 102.503949 291.690918 
L 102.686744 291.614569 
L 102.708132 291.461873 
L 103.193483 291.385525 
L 103.193483 291.309176 
L 104.108325 291.232828 
L 104.108325 291.15648 
L 104.481621 291.080132 
L 104.481621 291.003784 
L 105.028034 290.927435 
L 105.028034 290.851087 
L 105.429985 290.774739 
L 105.429985 290.698391 
L 105.832582 290.622042 
L 105.940903 290.469346 
L 106.359251 290.392998 
L 106.42077 290.163953 
L 106.508306 290.163953 
L 106.508306 290.011256 
L 106.708108 290.011256 
L 106.708108 289.85856 
L 106.863007 289.782212 
L 106.863007 289.705864 
L 106.999632 289.629515 
L 106.999632 289.553167 
L 107.194309 289.476819 
L 107.227962 289.324122 
L 107.470156 289.247774 
L 107.503319 289.095078 
L 107.758366 289.018729 
L 107.758366 288.942381 
L 107.904887 288.866033 
L 107.953475 288.713336 
L 108.503396 288.636988 
L 108.597415 288.407944 
L 108.938186 288.331595 
L 109.030061 288.178899 
L 109.12909 288.102551 
L 109.12909 288.026202 
L 109.385649 287.949854 
L 109.482828 287.644461 
L 109.70519 287.568113 
L 109.70519 287.491765 
L 110.127775 287.415416 
L 110.127775 287.339068 
L 110.378266 287.26272 
L 110.378266 287.186372 
L 110.618446 287.110024 
L 110.618446 287.033675 
L 110.917878 287.033675 
L 110.917878 286.880979 
L 111.40882 286.804631 
L 111.429 286.651934 
L 111.742367 286.575586 
L 111.788595 286.422889 
L 111.913501 286.346541 
L 111.952774 286.193845 
L 112.481441 286.117496 
L 112.532231 285.888452 
L 112.921276 285.812104 
L 113.008023 285.659407 
L 113.411667 285.583059 
L 113.453974 285.430362 
L 113.556326 285.354014 
L 113.664094 285.048621 
L 113.854172 284.972273 
L 113.924958 284.819576 
L 114.024786 284.743228 
L 114.059893 284.437835 
L 114.147375 284.361487 
L 114.147375 284.285139 
L 114.561718 284.208791 
L 114.573098 284.056094 
L 114.703479 283.979746 
L 114.776774 283.827049 
L 115.127985 283.750701 
L 115.20515 283.521656 
L 115.331237 283.445308 
L 115.347621 283.292612 
L 115.53772 283.216264 
L 115.607842 283.063567 
L 115.736615 282.987219 
L 115.821977 282.758174 
L 116.060001 282.681826 
L 116.107246 282.529129 
L 116.34171 282.452781 
L 116.408903 282.300085 
L 116.506679 282.223736 
L 116.557937 282.07104 
L 116.665126 281.994692 
L 116.665126 281.918344 
L 116.842427 281.918344 
L 116.932964 281.612951 
L 116.998082 281.536602 
L 117.087875 281.154861 
L 117.21188 281.078513 
L 117.305581 280.925816 
L 117.501332 280.849468 
L 117.53052 280.696772 
L 117.901132 280.620424 
L 117.901132 280.544075 
L 118.038842 280.467727 
L 118.147348 280.162334 
L 118.245874 280.085986 
L 118.283273 279.856941 
L 118.57062 279.780593 
L 118.579816 279.627896 
L 118.885331 279.551548 
L 118.984577 279.398852 
L 119.110137 279.322504 
L 119.168149 279.169807 
L 119.265918 279.169807 
L 119.265918 279.017111 
L 119.794748 278.940762 
L 119.794748 278.864414 
L 120.085544 278.788066 
L 120.182892 278.559021 
L 120.292336 278.482673 
L 120.325883 278.253628 
L 120.476109 278.253628 
L 120.559052 277.948235 
L 120.846508 277.871887 
L 120.85873 277.719191 
L 121.000735 277.642842 
L 121.037078 277.490146 
L 121.321349 277.413798 
L 121.42043 277.032056 
L 121.503257 276.955708 
L 121.581803 276.726664 
L 121.63659 276.650315 
L 121.671726 276.497619 
L 121.881176 276.421271 
L 121.973522 276.192226 
L 122.042485 276.115878 
L 122.042485 276.039529 
L 122.19863 275.963181 
L 122.19863 275.886833 
L 122.338437 275.810485 
L 122.436062 275.657788 
L 122.559246 275.58144 
L 122.637218 275.123351 
L 122.762776 275.047002 
L 122.84724 274.817958 
L 123.058567 274.741609 
L 123.08753 274.359868 
L 123.30692 274.28352 
L 123.371172 274.054475 
L 123.499021 273.978127 
L 123.562622 273.825431 
L 123.682172 273.749082 
L 123.752143 273.443689 
L 123.963959 273.367341 
L 124.053522 272.909252 
L 124.190483 272.832904 
L 124.261991 272.680207 
L 124.333227 272.603859 
L 124.373813 272.374814 
L 124.505116 272.298466 
L 124.612171 271.993073 
L 124.698707 271.916725 
L 124.77162 271.611332 
L 124.870594 271.534984 
L 124.870594 271.458635 
L 125.119021 271.382287 
L 125.206494 271.153242 
L 125.238789 271.153242 
L 125.274249 270.847849 
L 125.425011 270.771501 
L 125.533325 270.466108 
L 125.59675 270.38976 
L 125.59675 270.313412 
L 125.895128 270.237064 
L 125.972868 270.084367 
L 126.105834 270.008019 
L 126.179641 269.702626 
L 126.26844 269.626278 
L 126.26844 269.549929 
L 126.393272 269.473581 
L 126.393272 269.397233 
L 126.550414 269.320885 
L 126.640479 269.09184 
L 126.706254 269.015492 
L 126.786664 268.633751 
L 126.840081 268.557402 
L 126.937619 268.328358 
L 127.224333 268.252009 
L 127.302563 267.946616 
L 127.495297 267.870268 
L 127.58096 264.739991 
L 127.737003 264.663642 
L 127.846872 264.281901 
L 128.106308 264.205553 
L 128.147819 264.052856 
L 128.630858 263.976508 
L 128.71956 263.823812 
L 128.882432 263.747464 
L 128.943478 263.442071 
L 129.318646 263.365722 
L 129.417095 263.213026 
L 130.376704 263.136678 
L 130.467338 262.983981 
L 130.518586 262.983981 
L 130.552674 262.754936 
L 131.30142 262.678588 
L 131.387717 262.373195 
L 131.998989 262.296847 
L 131.998989 262.220499 
L 132.391328 262.144151 
L 132.391328 262.067802 
L 133.150162 261.991454 
L 133.150162 261.915106 
L 133.377622 261.838758 
L 133.377622 261.762409 
L 134.023735 261.686061 
L 134.110512 261.533365 
L 134.431915 261.457016 
L 134.479359 261.30432 
L 134.771259 261.227972 
L 134.850793 261.075275 
L 135.3437 260.998927 
L 135.3437 260.922579 
L 136.69153 260.846231 
L 136.731859 260.693534 
L 137.326638 260.617186 
L 137.382557 260.464489 
L 138.10291 260.388141 
L 138.10291 260.311793 
L 138.37291 260.235445 
L 138.37291 260.159096 
L 139.932521 260.082748 
L 139.932521 260.0064 
L 140.363411 259.930052 
L 140.426842 259.701007 
L 140.795945 259.624659 
L 140.795945 259.548311 
L 141.500881 259.471962 
L 141.500881 259.395614 
L 142.256242 259.319266 
L 142.256242 259.242918 
L 144.008055 259.166569 
L 144.008055 259.090221 
L 144.526688 259.013873 
L 144.526688 258.937525 
L 145.226437 258.861176 
L 145.226437 258.784828 
L 145.573357 258.70848 
L 145.573357 258.632132 
L 146.021195 258.555784 
L 146.021195 258.479435 
L 146.742627 258.403087 
L 146.852381 258.174042 
L 147.939264 258.097694 
L 147.994208 257.944998 
L 148.276031 257.868649 
L 148.319598 257.715953 
L 148.719271 257.639605 
L 148.719271 254.585675 
L 151.26544 254.509327 
L 151.26544 254.432979 
L 161.299079 254.356631 
L 161.299079 254.280282 
L 161.432889 254.203934 
L 161.432889 251.226353 
L 163.10262 251.150005 
L 163.10262 251.073656 
L 171.041181 251.073656 
L 171.081282 250.768264 
L 171.37685 250.691915 
L 171.46219 250.462871 
L 171.670033 250.386522 
L 171.770109 249.928433 
L 171.802173 249.852085 
L 171.874253 249.699388 
L 171.954947 249.62304 
L 172.037173 249.164951 
L 172.14092 249.088602 
L 172.183802 248.783209 
L 172.252847 248.706861 
L 172.335632 248.172424 
L 172.445361 248.096075 
L 172.553931 247.561638 
L 172.578697 247.485289 
L 172.683653 246.721807 
L 172.747793 246.645459 
L 172.857974 246.187369 
L 172.877728 246.111021 
L 172.974912 245.500235 
L 173.034763 245.423887 
L 173.142017 244.813101 
L 173.206379 244.736753 
L 173.267006 244.43136 
L 173.485496 244.355012 
L 173.584538 243.667878 
L 173.693131 243.591529 
L 173.770071 243.286136 
L 173.805495 243.209788 
L 173.915978 239.850466 
L 174.008682 239.774118 
L 174.105975 239.545073 
L 174.17742 239.468725 
L 174.255506 239.163332 
L 174.320926 239.086984 
L 174.359357 238.781591 
L 174.447312 238.705242 
L 174.527577 238.399849 
L 174.631108 238.323501 
L 174.702452 238.018108 
L 174.777003 237.94176 
L 174.869028 234.735134 
L 174.901062 234.658786 
L 175.006457 231.375812 
L 175.032771 231.299464 
L 175.11946 228.092838 
L 175.248071 228.016489 
L 175.354692 227.787445 
L 175.604772 227.711096 
L 175.682908 227.253007 
L 175.906221 227.176659 
L 175.984639 226.642221 
L 176.108352 226.565873 
L 176.186364 226.336828 
L 176.277327 226.26048 
L 176.327768 225.955087 
L 176.49733 225.878739 
L 176.601958 225.420649 
L 176.673972 225.344301 
L 176.769286 225.115256 
L 176.850423 225.038908 
L 176.926664 224.733515 
L 177.047435 224.657167 
L 177.110602 224.428122 
L 177.187429 224.351774 
L 177.297828 224.046381 
L 177.34945 223.970033 
L 177.444428 223.588292 
L 177.501867 223.511944 
L 177.508484 223.359247 
L 177.662606 223.282899 
L 177.733056 223.053854 
L 177.799099 223.053854 
L 177.906761 222.672113 
L 177.938724 222.595765 
L 178.019469 222.214024 
L 178.070707 222.137675 
L 178.159991 221.603238 
L 178.198678 221.526889 
L 178.280626 221.297845 
L 178.34727 221.221496 
L 178.457567 220.687059 
L 178.522259 220.610711 
L 178.616235 220.152621 
L 178.670399 220.076273 
L 178.737745 219.77088 
L 178.796428 219.694532 
L 178.863138 219.389139 
L 178.921618 219.312791 
L 179.026944 218.702005 
L 179.091369 218.625656 
L 179.191902 218.243915 
L 179.224867 218.167567 
L 179.271834 217.785826 
L 179.374497 217.709478 
L 179.467933 217.251388 
L 179.549761 217.17504 
L 179.656467 216.716951 
L 179.677914 216.640602 
L 179.779989 216.182513 
L 179.827186 216.106165 
L 179.905352 215.724424 
L 179.99479 215.648075 
L 180.085029 215.113638 
L 180.125016 215.037289 
L 180.223311 214.731896 
L 180.276507 214.655548 
L 180.359723 214.197459 
L 180.440687 214.121111 
L 180.543664 213.815718 
L 180.582178 213.739369 
L 180.668632 213.433976 
L 180.704862 213.357628 
L 180.805902 213.052235 
L 180.834479 212.975887 
L 180.931819 212.441449 
L 180.981551 212.365101 
L 181.079628 211.907012 
L 181.184617 211.830664 
L 181.289843 211.525271 
L 181.34289 211.448922 
L 181.423809 211.067181 
L 181.593809 210.990833 
L 181.649706 210.68544 
L 181.802854 210.609092 
L 181.908654 210.227351 
L 181.931802 210.151002 
L 181.974695 209.998306 
L 182.210667 209.921958 
L 182.295252 209.769261 
L 182.602642 209.692913 
L 182.602642 209.616565 
L 182.836653 209.540216 
L 182.836653 209.463868 
L 183.219627 209.38752 
L 183.329691 209.234824 
L 187.317187 209.158475 
L 187.41831 208.929431 
L 187.527838 208.853082 
L 187.587057 208.700386 
L 187.735226 208.624038 
L 187.806671 208.471341 
L 187.934709 208.394993 
L 188.04483 208.242296 
L 188.10975 208.165948 
L 188.172968 208.013252 
L 188.277862 207.936904 
L 188.3806 207.784207 
L 188.451658 207.707859 
L 188.541414 207.478814 
L 188.636404 207.402466 
L 188.636404 207.326118 
L 188.795935 207.249769 
L 188.902564 207.020725 
L 189.044996 206.944376 
L 189.044996 206.868028 
L 189.313826 206.79168 
L 189.334043 206.562635 
L 189.514175 206.486287 
L 189.514175 206.409939 
L 189.650175 206.333591 
L 189.683366 206.180894 
L 189.845224 206.104546 
L 189.851153 205.951849 
L 189.983095 205.875501 
L 190.014054 205.722805 
L 190.188945 205.646456 
L 190.287373 205.417412 
L 190.528103 205.341064 
L 190.610098 205.035671 
L 190.738427 204.959322 
L 190.738427 204.882974 
L 190.865198 204.806626 
L 190.964277 204.653929 
L 191.095965 204.577581 
L 191.125245 204.424885 
L 191.327687 204.348536 
L 191.420252 204.19584 
L 191.542049 204.119492 
L 191.61672 203.890447 
L 191.759354 203.814099 
L 191.794468 203.585054 
L 191.961908 203.508706 
L 192.069447 203.356009 
L 192.240606 203.279661 
L 192.240606 203.203313 
L 192.408769 203.126965 
L 192.446318 202.89792 
L 192.606912 202.821572 
L 192.642723 202.668875 
L 192.751175 202.592527 
L 192.784666 202.439831 
L 192.907518 202.363482 
L 193.006193 202.210786 
L 193.097352 202.134438 
L 193.097352 202.058089 
L 193.253027 201.981741 
L 193.357681 201.752696 
L 193.497948 201.676348 
L 193.583606 201.294607 
L 193.675496 201.218259 
L 193.69806 200.989214 
L 193.921465 200.912866 
L 193.999631 200.607473 
L 194.091841 200.531125 
L 194.188475 200.30208 
L 194.340982 200.225732 
L 194.393015 200.073035 
L 194.506805 199.996687 
L 194.610464 199.614946 
L 194.741004 199.538598 
L 194.741004 199.462249 
L 194.938148 199.385901 
L 195.037648 199.080508 
L 195.214837 199.00416 
L 195.214837 198.927812 
L 195.386809 198.851464 
L 195.458048 198.698767 
L 195.609296 198.622419 
L 195.643422 198.469722 
L 195.758578 198.393374 
L 195.758578 198.317026 
L 196.102861 198.240678 
L 196.212875 198.087981 
L 196.324386 198.011633 
L 196.40311 197.858936 
L 196.758103 197.782588 
L 196.768547 197.629892 
L 197.061627 197.553544 
L 197.061627 197.477195 
L 199.523957 197.400847 
L 199.560121 197.248151 
L 199.695396 197.171802 
L 199.695396 197.095454 
L 200.050839 197.019106 
L 200.119297 196.866409 
L 200.329506 196.790061 
L 200.428935 196.561016 
L 200.542165 196.484668 
L 200.618722 196.331972 
L 200.860624 196.255624 
L 200.891013 196.026579 
L 201.02311 195.950231 
L 201.099969 195.721186 
L 201.213166 195.644838 
L 201.314662 195.415793 
L 201.426297 195.339445 
L 201.520892 195.1104 
L 201.635983 195.034052 
L 201.743191 194.728659 
L 201.820638 194.652311 
L 201.820638 194.575962 
L 201.937964 194.499614 
L 202.049071 194.346918 
L 202.140485 194.270569 
L 202.242764 194.117873 
L 202.326065 194.041525 
L 202.436881 193.81248 
L 202.493957 193.736132 
L 202.583451 193.430739 
L 202.691347 193.354391 
L 202.73686 193.201694 
L 202.827661 193.125346 
L 202.833191 192.972649 
L 203.000567 192.896301 
L 203.011886 192.743605 
L 203.168876 192.667256 
L 203.278824 192.361864 
L 203.379167 192.285515 
L 203.380991 192.132819 
L 203.498473 192.132819 
L 203.609321 191.751078 
L 203.643427 191.674729 
L 203.643427 191.598381 
L 203.76594 191.522033 
L 203.868514 191.21664 
L 203.978387 191.140292 
L 204.08196 190.834899 
L 204.170494 190.758551 
L 204.28065 190.529506 
L 204.490547 190.453158 
L 204.523094 190.300461 
L 204.75944 190.224113 
L 204.851082 190.071416 
L 205.191957 189.995068 
L 205.287519 189.766024 
L 205.514736 189.689675 
L 205.514736 189.613327 
L 205.767111 189.536979 
L 205.866464 189.384282 
L 206.133069 189.307934 
L 206.234736 186.02496 
L 206.627385 185.948612 
L 206.710639 185.719567 
L 207.33028 185.643219 
L 207.342843 185.490522 
L 207.503989 185.414174 
L 207.580664 185.261478 
L 207.800379 185.185129 
L 207.86081 175.946993 
L 209.160714 175.870645 
L 209.160714 175.794296 
L 216.510086 175.717948 
L 216.601159 175.565252 
L 217.220499 175.488904 
L 217.316299 175.259859 
L 217.375288 175.183511 
L 217.423697 171.976885 
L 217.532516 171.900536 
L 217.532516 171.824188 
L 218.203962 171.74784 
L 218.271559 171.518795 
L 221.148357 171.442447 
L 221.148357 171.366099 
L 221.440188 171.289751 
L 221.440188 171.213402 
L 221.729681 171.137054 
L 221.761328 170.984358 
L 222.342865 170.908009 
L 222.342865 170.831661 
L 222.699043 170.755313 
L 222.774732 170.602616 
L 223.032246 170.526268 
L 223.032246 170.44992 
L 223.282553 170.373572 
L 223.282553 170.297224 
L 223.596707 170.220875 
L 223.596707 170.144527 
L 223.84405 170.068179 
L 223.915721 169.915482 
L 224.06061 169.839134 
L 224.06061 169.762786 
L 224.423142 169.686438 
L 224.485286 169.533741 
L 224.971098 169.457393 
L 225.018714 169.304696 
L 225.208792 169.228348 
L 225.208792 169.152 
L 225.574344 169.075652 
L 225.641465 165.945374 
L 225.80412 165.869026 
L 225.825091 165.716329 
L 227.487872 165.639981 
L 227.562555 165.487285 
L 227.790615 165.410936 
L 227.794075 165.25824 
L 228.204121 165.181892 
L 228.275817 164.952847 
L 228.622669 164.876499 
L 228.622669 164.800151 
L 228.953446 164.723802 
L 228.953446 164.647454 
L 229.453069 164.571106 
L 229.453069 164.494758 
L 229.718678 164.418409 
L 229.718678 164.342061 
L 230.296286 164.342061 
L 230.296286 161.288132 
L 230.864856 161.211784 
L 230.938613 160.982739 
L 231.098446 160.982739 
L 231.098446 160.753694 
L 231.324802 160.753694 
L 231.324802 160.524649 
L 231.747621 160.524649 
L 231.80639 159.913864 
L 232.066704 159.837515 
L 232.066704 159.761167 
L 233.355098 159.684819 
L 233.410744 159.532122 
L 235.347634 159.532122 
L 235.347634 159.150381 
L 235.710755 159.074033 
L 235.716032 158.615944 
L 238.340931 158.539595 
L 238.340931 158.310551 
L 241.470939 158.234202 
L 241.470939 158.081506 
L 242.940605 158.005158 
L 242.940605 157.928809 
L 243.338016 157.852461 
L 243.340669 157.699765 
L 243.620008 157.699765 
L 243.703417 157.318024 
L 243.939091 157.241675 
L 244.019342 157.088979 
L 245.177622 157.012631 
L 245.181362 156.783586 
L 248.001089 156.707238 
L 248.014192 156.478193 
L 251.143847 156.401845 
L 251.143847 156.325496 
L 251.397019 156.249148 
L 251.397019 156.1728 
L 253.288025 156.096452 
L 253.288025 156.020104 
L 256.482419 155.943755 
L 256.482419 155.867407 
L 256.649878 155.791059 
L 256.6518 155.638362 
L 260.7595 155.562014 
L 260.866935 155.332969 
L 264.206601 155.256621 
L 264.206601 155.180273 
L 267.310763 155.103925 
L 267.310763 155.027576 
L 270.659965 154.951228 
L 270.659965 154.87488 
L 275.871272 154.798532 
L 275.935752 154.645835 
L 277.575832 154.569487 
L 277.576529 154.416791 
L 279.030654 154.340442 
L 279.030654 154.264094 
L 281.732038 154.187746 
L 281.732038 154.111398 
L 289.128048 154.035049 
L 289.128048 153.958701 
L 289.959786 153.882353 
L 289.959814 153.729656 
L 298.346536 153.653308 
L 298.346536 153.57696 
L 360.8064 153.500612 
L 360.8064 153.500612 
" style="fill:none;stroke:#ff7d0b;stroke-linecap:square;stroke-width:1.8;"/>
   </g>
   <g id="line2d_258">
    <defs>
     <path d="M 0 9.8005 
L 5.8803 0 
L 0 -9.8005 
L -5.8803 0 
z
" id="mde456c8b8b" style="stroke:#ff7d0b;stroke-linejoin:miter;"/>
    </defs>
    <g>
     <use style="fill-opacity:0;stroke:#ff7d0b;stroke-linejoin:miter;" x="174.99363" xlink:href="#mde456c8b8b" y="234.429741"/>
     <use style="fill-opacity:0;stroke:#ff7d0b;stroke-linejoin:miter;" x="209.160714" xlink:href="#mde456c8b8b" y="175.794296"/>
     <use style="fill-opacity:0;stroke:#ff7d0b;stroke-linejoin:miter;" x="311.086277" xlink:href="#mde456c8b8b" y="153.500612"/>
     <use style="fill-opacity:0;stroke:#ff7d0b;stroke-linejoin:miter;" x="311.086277" xlink:href="#mde456c8b8b" y="153.500612"/>
     <use style="fill-opacity:0;stroke:#ff7d0b;stroke-linejoin:miter;" x="360.8064" xlink:href="#mde456c8b8b" y="153.500612"/>
    </g>
   </g>
   <g id="line2d_259">
    <path style="fill:none;stroke:#ff7d0b;stroke-linecap:square;stroke-width:1.8;"/>
    <g/>
   </g>
   <g id="line2d_260">
    <path clip-path="url(#p93e5543dd8)" d="M 230.862305 161.211784 
" style="fill:none;stroke:#ff7d0b;stroke-linecap:square;stroke-width:1.5;"/>
    <defs>
     <path d="M -10.300579 10.300579 
L 10.300579 -10.300579 
M -10.300579 -10.300579 
L 10.300579 10.300579 
" id="m1c096732d9" style="stroke:#ff7d0b;"/>
    </defs>
    <g clip-path="url(#p93e5543dd8)">
     <use style="fill:#ff7d0b;stroke:#ff7d0b;" x="230.862305" xlink:href="#m1c096732d9" y="161.211784"/>
    </g>
   </g>
   <g id="line2d_261">
    <path d="M 360.8064 153.500612 
L 380.514816 293.10336 
" style="fill:none;stroke:#ff7d0b;stroke-linecap:square;stroke-width:1.8;"/>
    <g>
     <use style="fill-opacity:0;stroke:#ff7d0b;stroke-linejoin:miter;" x="360.8064" xlink:href="#mde456c8b8b" y="153.500612"/>
     <use style="fill-opacity:0;stroke:#ff7d0b;stroke-linejoin:miter;" x="380.514816" xlink:href="#mde456c8b8b" y="293.10336"/>
    </g>
   </g>
   <g id="line2d_262">
    <path d="M 360.8064 298.944 
L 360.8064 6.912 
" style="fill:none;stroke:#000000;stroke-linecap:square;stroke-width:1.5;"/>
   </g>
   <g id="patch_3">
    <path d="M 57.6 298.944 
L 360.8064 298.944 
" style="fill:none;stroke:#000000;stroke-linecap:square;stroke-linejoin:miter;stroke-width:0.8;"/>
   </g>
   <g id="patch_4">
    <path d="M 57.6 6.912 
L 360.8064 6.912 
" style="fill:none;stroke:#000000;stroke-linecap:square;stroke-linejoin:miter;stroke-width:0.8;"/>
   </g>
   <g id="text_17">
    <!-- cma-IH -->
    <g transform="translate(386.578944 296.966485)scale(0.14 -0.14)">
     <defs>
      <path d="M 628 4666 
L 1259 4666 
L 1259 0 
L 628 0 
L 628 4666 
z
" id="DejaVuSans-49" transform="scale(0.015625)"/>
      <path d="M 628 4666 
L 1259 4666 
L 1259 2753 
L 3553 2753 
L 3553 4666 
L 4184 4666 
L 4184 0 
L 3553 0 
L 3553 2222 
L 1259 2222 
L 1259 0 
L 628 0 
L 628 4666 
z
" id="DejaVuSans-48" transform="scale(0.015625)"/>
     </defs>
     <use xlink:href="#DejaVuSans-63"/>
     <use x="54.980469" xlink:href="#DejaVuSans-6d"/>
     <use x="152.392578" xlink:href="#DejaVuSans-61"/>
     <use x="213.671875" xlink:href="#DejaVuSans-2d"/>
     <use x="249.755859" xlink:href="#DejaVuSans-49"/>
     <use x="279.248047" xlink:href="#DejaVuSans-48"/>
    </g>
   </g>
   <g id="text_18">
    <!-- bbob-mixint f1-f5, 160-D -->
    <g transform="translate(60.632064 16.670914)scale(0.09 -0.09)">
     <defs>
      <path d="M 3116 1747 
Q 3116 2381 2855 2742 
Q 2594 3103 2138 3103 
Q 1681 3103 1420 2742 
Q 1159 2381 1159 1747 
Q 1159 1113 1420 752 
Q 1681 391 2138 391 
Q 2594 391 2855 752 
Q 3116 1113 3116 1747 
z
M 1159 2969 
Q 1341 3281 1617 3432 
Q 1894 3584 2278 3584 
Q 2916 3584 3314 3078 
Q 3713 2572 3713 1747 
Q 3713 922 3314 415 
Q 2916 -91 2278 -91 
Q 1894 -91 1617 61 
Q 1341 213 1159 525 
L 1159 0 
L 581 0 
L 581 4863 
L 1159 4863 
L 1159 2969 
z
" id="DejaVuSans-62" transform="scale(0.015625)"/>
      <path d="M 3513 3500 
L 2247 1797 
L 3578 0 
L 2900 0 
L 1881 1375 
L 863 0 
L 184 0 
L 1544 1831 
L 300 3500 
L 978 3500 
L 1906 2253 
L 2834 3500 
L 3513 3500 
z
" id="DejaVuSans-78" transform="scale(0.015625)"/>
      <path d="M 1259 4147 
L 1259 519 
L 2022 519 
Q 2988 519 3436 956 
Q 3884 1394 3884 2338 
Q 3884 3275 3436 3711 
Q 2988 4147 2022 4147 
L 1259 4147 
z
M 628 4666 
L 1925 4666 
Q 3281 4666 3915 4102 
Q 4550 3538 4550 2338 
Q 4550 1131 3912 565 
Q 3275 0 1925 0 
L 628 0 
L 628 4666 
z
" id="DejaVuSans-44" transform="scale(0.015625)"/>
     </defs>
     <use xlink:href="#DejaVuSans-62"/>
     <use x="63.476562" xlink:href="#DejaVuSans-62"/>
     <use x="126.953125" xlink:href="#DejaVuSans-6f"/>
     <use x="188.134766" xlink:href="#DejaVuSans-62"/>
     <use x="251.611328" xlink:href="#DejaVuSans-2d"/>
     <use x="287.695312" xlink:href="#DejaVuSans-6d"/>
     <use x="385.107422" xlink:href="#DejaVuSans-69"/>
     <use x="412.890625" xlink:href="#DejaVuSans-78"/>
     <use x="472.070312" xlink:href="#DejaVuSans-69"/>
     <use x="499.853516" xlink:href="#DejaVuSans-6e"/>
     <use x="563.232422" xlink:href="#DejaVuSans-74"/>
     <use x="602.441406" xlink:href="#DejaVuSans-20"/>
     <use x="634.228516" xlink:href="#DejaVuSans-66"/>
     <use x="669.433594" xlink:href="#DejaVuSans-31"/>
     <use x="733.056641" xlink:href="#DejaVuSans-2d"/>
     <use x="769.140625" xlink:href="#DejaVuSans-66"/>
     <use x="804.345703" xlink:href="#DejaVuSans-35"/>
     <use x="867.96875" xlink:href="#DejaVuSans-2c"/>
     <use x="899.755859" xlink:href="#DejaVuSans-20"/>
     <use x="931.542969" xlink:href="#DejaVuSans-31"/>
     <use x="995.166016" xlink:href="#DejaVuSans-36"/>
     <use x="1058.789062" xlink:href="#DejaVuSans-30"/>
     <use x="1122.412109" xlink:href="#DejaVuSans-2d"/>
     <use x="1158.496094" xlink:href="#DejaVuSans-44"/>
    </g>
    <!-- 51 targets: 100..1e-08 -->
    <g transform="translate(60.632064 26.748945)scale(0.09 -0.09)">
     <defs>
      <path d="M 750 794 
L 1409 794 
L 1409 0 
L 750 0 
L 750 794 
z
M 750 3309 
L 1409 3309 
L 1409 2516 
L 750 2516 
L 750 3309 
z
" id="DejaVuSans-3a" transform="scale(0.015625)"/>
     </defs>
     <use xlink:href="#DejaVuSans-35"/>
     <use x="63.623047" xlink:href="#DejaVuSans-31"/>
     <use x="127.246094" xlink:href="#DejaVuSans-20"/>
     <use x="159.033203" xlink:href="#DejaVuSans-74"/>
     <use x="198.242188" xlink:href="#DejaVuSans-61"/>
     <use x="259.521484" xlink:href="#DejaVuSans-72"/>
     <use x="298.884766" xlink:href="#DejaVuSans-67"/>
     <use x="362.361328" xlink:href="#DejaVuSans-65"/>
     <use x="423.884766" xlink:href="#DejaVuSans-74"/>
     <use x="463.09375" xlink:href="#DejaVuSans-73"/>
     <use x="515.193359" xlink:href="#DejaVuSans-3a"/>
     <use x="548.884766" xlink:href="#DejaVuSans-20"/>
     <use x="580.671875" xlink:href="#DejaVuSans-31"/>
     <use x="644.294922" xlink:href="#DejaVuSans-30"/>
     <use x="707.917969" xlink:href="#DejaVuSans-30"/>
     <use x="771.541016" xlink:href="#DejaVuSans-2e"/>
     <use x="803.328125" xlink:href="#DejaVuSans-2e"/>
     <use x="835.115234" xlink:href="#DejaVuSans-31"/>
     <use x="898.738281" xlink:href="#DejaVuSans-65"/>
     <use x="960.261719" xlink:href="#DejaVuSans-2d"/>
     <use x="996.345703" xlink:href="#DejaVuSans-30"/>
     <use x="1059.96875" xlink:href="#DejaVuSans-38"/>
    </g>
    <!-- 15 instances -->
    <g transform="translate(60.632064 36.826976)scale(0.09 -0.09)">
     <use xlink:href="#DejaVuSans-31"/>
     <use x="63.623047" xlink:href="#DejaVuSans-35"/>
     <use x="127.246094" xlink:href="#DejaVuSans-20"/>
     <use x="159.033203" xlink:href="#DejaVuSans-69"/>
     <use x="186.816406" xlink:href="#DejaVuSans-6e"/>
     <use x="250.195312" xlink:href="#DejaVuSans-73"/>
     <use x="302.294922" xlink:href="#DejaVuSans-74"/>
     <use x="341.503906" xlink:href="#DejaVuSans-61"/>
     <use x="402.783203" xlink:href="#DejaVuSans-6e"/>
     <use x="466.162109" xlink:href="#DejaVuSans-63"/>
     <use x="521.142578" xlink:href="#DejaVuSans-65"/>
     <use x="582.666016" xlink:href="#DejaVuSans-73"/>
    </g>
   </g>
   <g id="text_19">
    <!-- v2.6.3 -->
    <g style="fill:#808080;" transform="translate(193.52195 293.943992)scale(0.1 -0.1)">
     <use xlink:href="#DejaVuSans-76"/>
     <use x="59.179688" xlink:href="#DejaVuSans-32"/>
     <use x="122.802734" xlink:href="#DejaVuSans-2e"/>
     <use x="154.589844" xlink:href="#DejaVuSans-36"/>
     <use x="218.212891" xlink:href="#DejaVuSans-2e"/>
     <use x="250" xlink:href="#DejaVuSans-33"/>
    </g>
   </g>
  </g>
 </g>
 <defs>
  <clipPath id="p93e5543dd8">
   <rect height="292.032" width="303.2064" x="57.6" y="6.912"/>
  </clipPath>
 </defs>
</svg>
