<?xml version="1.0" encoding="utf-8" standalone="no"?>
<!DOCTYPE svg PUBLIC "-//W3C//DTD SVG 1.1//EN"
  "http://www.w3.org/Graphics/SVG/1.1/DTD/svg11.dtd">
<svg height="345.6pt" version="1.1" viewBox="0 0 460.8 345.6" width="460.8pt" xmlns="http://www.w3.org/2000/svg" xmlns:xlink="http://www.w3.org/1999/xlink">
 <metadata>
  <rdf:RDF xmlns:cc="http://creativecommons.org/ns#" xmlns:dc="http://purl.org/dc/elements/1.1/" xmlns:rdf="http://www.w3.org/1999/02/22-rdf-syntax-ns#">
   <cc:Work>
    <dc:type rdf:resource="http://purl.org/dc/dcmitype/StillImage"/>
    <dc:date>2023-04-17T19:01:00.740341</dc:date>
    <dc:format>image/svg+xml</dc:format>
    <dc:creator>
     <cc:Agent>
      <dc:title>Matplotlib v3.4.1, https://matplotlib.org/</dc:title>
     </cc:Agent>
    </dc:creator>
   </cc:Work>
  </rdf:RDF>
 </metadata>
 <defs>
  <style type="text/css">*{stroke-linecap:butt;stroke-linejoin:round;}</style>
 </defs>
 <g id="figure_1">
  <g id="patch_1">
   <path d="M 0 345.6 
L 460.8 345.6 
L 460.8 0 
L 0 0 
z
" style="fill:#ffffff;"/>
  </g>
  <g id="axes_1">
   <g id="patch_2">
    <path d="M 62.208 293.76 
L 460.8 293.76 
L 460.8 3.456 
L 62.208 3.456 
z
" style="fill:#ffffff;"/>
   </g>
   <g id="line2d_1"/>
   <g id="line2d_2">
    <path clip-path="url(#p046b22b588)" d="M 351.564286 293.76 
L 351.564286 289.927604 
L 351.790555 289.927604 
L 351.790555 286.095208 
L 357.520363 286.095208 
L 357.520363 282.262812 
L 358.787707 282.262812 
L 358.787707 278.430416 
L 368.154658 278.430416 
L 368.154658 274.59802 
L 368.589006 274.59802 
L 368.589006 270.765624 
L 369.048882 270.765624 
L 369.048882 266.933228 
L 369.253297 266.933228 
L 369.253297 263.100832 
L 369.685745 263.100832 
L 369.685745 259.268436 
L 370.245255 259.268436 
L 370.245255 255.43604 
L 370.311748 255.43604 
L 370.311748 251.603644 
L 370.386862 251.603644 
L 370.386862 247.771248 
L 370.418845 247.771248 
L 370.418845 243.938851 
L 370.773647 243.938851 
L 370.773647 240.106455 
L 370.834115 240.106455 
L 370.834115 236.274059 
L 371.052213 236.274059 
L 371.052213 232.441663 
L 371.203057 232.441663 
L 371.203057 228.609267 
L 371.741345 228.609267 
L 371.741345 224.776871 
L 371.841425 224.776871 
L 371.841425 220.944475 
L 371.84704 220.944475 
L 371.84704 217.112079 
L 372.074378 217.112079 
L 372.074378 213.279683 
L 372.127949 213.279683 
L 372.127949 209.447287 
L 372.228765 209.447287 
L 372.228765 205.614891 
L 372.606435 205.614891 
L 372.606435 201.782495 
L 373.088146 201.782495 
L 373.088146 197.950099 
L 373.284904 197.950099 
L 373.284904 194.117703 
L 374.162057 194.117703 
L 374.162057 190.285307 
L 375.433703 190.285307 
L 375.433703 186.452911 
L 376.643293 186.452911 
L 376.643293 182.620515 
L 376.869577 182.620515 
L 376.869577 178.788119 
L 377.999654 178.788119 
L 377.999654 174.955723 
L 378.013193 174.955723 
L 378.013193 171.123327 
L 378.493352 171.123327 
L 378.493352 167.290931 
L 378.826023 167.290931 
L 378.826023 163.458535 
L 379.60127 163.458535 
L 379.60127 159.626139 
L 382.066351 159.626139 
L 382.066351 155.793743 
L 384.286096 155.793743 
L 384.286096 151.961347 
L 385.579625 151.961347 
L 385.579625 148.12895 
L 388.02587 148.12895 
L 388.02587 144.296554 
L 392.015986 144.296554 
L 392.015986 140.464158 
L 392.047637 140.464158 
L 392.047637 136.631762 
L 392.208268 136.631762 
L 392.208268 132.799366 
L 392.355307 132.799366 
L 392.355307 128.96697 
L 392.528345 128.96697 
L 392.528345 125.134574 
L 392.535822 125.134574 
L 392.535822 121.302178 
L 393.11525 121.302178 
L 393.11525 117.469782 
L 393.192586 117.469782 
L 393.192586 113.637386 
L 393.408758 113.637386 
L 393.408758 109.80499 
L 393.768853 109.80499 
L 393.768853 105.972594 
L 393.93738 105.972594 
L 393.93738 102.140198 
L 394.402831 102.140198 
L 394.402831 98.307802 
L 398.572821 98.307802 
L 398.572821 94.475406 
L 399.03111 94.475406 
L 399.03111 90.64301 
L 399.054906 90.64301 
L 399.054906 86.810614 
L 399.477179 86.810614 
L 399.477179 82.978218 
L 399.715407 82.978218 
L 399.715407 79.145822 
L 400.608987 79.145822 
L 400.608987 75.313426 
L 408.907586 75.313426 
L 408.907586 71.48103 
L 410.68529 71.48103 
L 410.68529 67.648634 
L 425.250372 67.648634 
L 425.250372 63.816238 
L 439.825483 63.816238 
L 439.825483 59.983842 
L 439.825483 59.983842 
L 439.825483 59.983842 
L 460.8 59.983842 
" style="fill:none;stroke:#f5deb3;stroke-linecap:square;stroke-width:1.5;"/>
   </g>
   <g id="line2d_3"/>
   <g id="line2d_4"/>
   <g id="line2d_5">
    <path clip-path="url(#p046b22b588)" d="M 342.177911 293.76 
L 342.177911 289.927604 
L 343.507092 289.927604 
L 343.507092 286.095208 
L 345.072028 286.095208 
L 345.072028 282.262812 
L 345.414709 282.262812 
L 345.414709 278.430416 
L 345.784168 278.430416 
L 345.784168 274.59802 
L 351.964675 274.59802 
L 351.964675 270.765624 
L 352.332369 270.765624 
L 352.332369 266.933228 
L 352.82441 266.933228 
L 352.884948 259.268436 
L 353.0802 259.268436 
L 353.0802 255.43604 
L 353.33705 255.43604 
L 353.33705 251.603644 
L 353.464439 251.603644 
L 353.464439 247.771248 
L 353.721529 247.771248 
L 353.818178 240.106455 
L 354.055786 240.106455 
L 354.080855 232.441663 
L 354.519237 232.441663 
L 354.519237 228.609267 
L 357.087227 228.609267 
L 357.087227 224.776871 
L 358.070756 224.776871 
L 358.070756 220.944475 
L 358.860876 220.944475 
L 358.860876 217.112079 
L 359.679906 217.112079 
L 359.679906 213.279683 
L 360.228435 213.279683 
L 360.246297 205.614891 
L 360.465955 205.614891 
L 360.465955 201.782495 
L 361.429332 201.782495 
L 361.429332 197.950099 
L 362.286519 197.950099 
L 362.286519 194.117703 
L 362.740746 194.117703 
L 362.740746 190.285307 
L 367.388515 190.285307 
L 367.388515 186.452911 
L 369.388217 186.452911 
L 369.388217 182.620515 
L 371.099697 182.620515 
L 371.20705 174.955723 
L 371.576074 174.955723 
L 371.674865 163.458535 
L 371.704738 163.458535 
L 371.704738 159.626139 
L 371.860514 159.626139 
L 371.952466 151.961347 
L 372.183679 151.961347 
L 372.183679 148.12895 
L 372.3199 148.12895 
L 372.3199 144.296554 
L 372.57114 144.296554 
L 372.621867 136.631762 
L 372.846076 136.631762 
L 372.865253 128.96697 
L 373.391586 128.96697 
L 373.391586 125.134574 
L 376.034061 125.134574 
L 376.034061 121.302178 
L 377.219506 121.302178 
L 377.219506 117.469782 
L 377.451479 117.469782 
L 377.548402 109.80499 
L 377.607032 109.80499 
L 377.680691 98.307802 
L 377.783883 98.307802 
L 377.891183 90.64301 
L 377.980789 90.64301 
L 377.980789 86.810614 
L 378.356939 86.810614 
L 378.356939 82.978218 
L 378.742038 82.978218 
L 378.742038 79.145822 
L 379.74105 79.145822 
L 379.74105 75.313426 
L 380.231847 75.313426 
L 380.231847 71.48103 
L 380.485316 71.48103 
L 380.485316 67.648634 
L 381.442977 67.648634 
L 381.442977 63.816238 
L 444.767624 63.816238 
L 444.767624 59.983842 
L 446.28921 59.983842 
L 446.28921 56.151446 
L 446.544276 56.151446 
L 446.544276 52.31905 
L 447.086813 52.31905 
L 447.086813 48.486653 
L 461.8 48.486653 
L 461.8 48.486653 
" style="fill:none;stroke:#f5deb3;stroke-linecap:square;stroke-width:1.5;"/>
   </g>
   <g id="line2d_6">
    <path clip-path="url(#p046b22b588)" style="fill:none;stroke:#f5deb3;stroke-linecap:square;stroke-width:1.5;"/>
   </g>
   <g id="line2d_7"/>
   <g id="line2d_8"/>
   <g id="line2d_9"/>
   <g id="line2d_10"/>
   <g id="line2d_11">
    <path clip-path="url(#p046b22b588)" style="fill:none;stroke:#f5deb3;stroke-linecap:square;stroke-width:1.5;"/>
   </g>
   <g id="line2d_12"/>
   <g id="line2d_13">
    <path clip-path="url(#p046b22b588)" d="M 315.707347 293.76 
L 315.707347 289.927604 
L 316.977088 289.927604 
L 316.977088 286.095208 
L 322.653521 286.095208 
L 322.653521 282.262812 
L 323.275065 282.262812 
L 323.275065 278.430416 
L 325.134226 278.430416 
L 325.134226 274.59802 
L 325.877645 274.59802 
L 325.877645 270.765624 
L 327.07986 270.765624 
L 327.07986 266.933228 
L 329.661508 266.933228 
L 329.661508 263.100832 
L 331.799582 263.100832 
L 331.799582 259.268436 
L 333.178635 259.268436 
L 333.178635 255.43604 
L 334.338978 255.43604 
L 334.338978 251.603644 
L 337.531496 251.603644 
L 337.531496 247.771248 
L 338.484972 247.771248 
L 338.484972 243.938851 
L 342.601401 243.938851 
L 342.601401 240.106455 
L 342.65275 240.106455 
L 342.65275 236.274059 
L 388.330721 236.274059 
L 388.330721 232.441663 
L 392.936252 232.441663 
L 392.936252 228.609267 
L 393.210644 228.609267 
L 393.210644 224.776871 
L 393.848923 224.776871 
L 393.848923 220.944475 
L 396.39459 220.944475 
L 396.39459 217.112079 
L 396.992151 217.112079 
L 396.992151 213.279683 
L 397.778246 213.279683 
L 397.778246 209.447287 
L 397.785727 209.447287 
L 397.785727 205.614891 
L 398.38453 205.614891 
L 398.38453 201.782495 
L 398.477312 201.782495 
L 398.477312 197.950099 
L 400.069903 197.950099 
L 400.069903 194.117703 
L 400.233752 194.117703 
L 400.233752 190.285307 
L 400.383751 190.285307 
L 400.383751 186.452911 
L 400.405656 186.452911 
L 400.405656 182.620515 
L 400.681004 182.620515 
L 400.681004 178.788119 
L 400.789073 178.788119 
L 400.789073 174.955723 
L 402.310286 174.955723 
L 402.310286 171.123327 
L 402.530861 171.123327 
L 402.530861 167.290931 
L 402.559649 167.290931 
L 402.559649 163.458535 
L 403.011218 163.458535 
L 403.011218 159.626139 
L 403.123867 159.626139 
L 403.123867 155.793743 
L 406.492066 155.793743 
L 406.492066 151.961347 
L 407.085543 151.961347 
L 407.085543 148.12895 
L 407.370097 148.12895 
L 407.370097 144.296554 
L 407.702827 144.296554 
L 407.702827 140.464158 
L 408.472675 140.464158 
L 408.472675 136.631762 
L 409.570125 136.631762 
L 409.570125 132.799366 
L 410.193186 132.799366 
L 410.193186 128.96697 
L 410.465494 128.96697 
L 410.465494 125.134574 
L 411.465225 125.134574 
L 411.465225 121.302178 
L 411.465225 121.302178 
L 411.465225 121.302178 
L 460.8 121.302178 
" style="fill:none;stroke:#f5deb3;stroke-linecap:square;stroke-width:1.5;"/>
   </g>
   <g id="line2d_14"/>
   <g id="line2d_15"/>
   <g id="line2d_16"/>
   <g id="line2d_17">
    <path clip-path="url(#p046b22b588)" d="M 381.235606 293.76 
L 381.235606 289.927604 
L 384.869838 289.927604 
L 384.869838 286.095208 
L 387.20831 286.095208 
L 387.20831 282.262812 
L 388.529712 282.262812 
L 388.637815 274.59802 
L 389.998789 274.59802 
L 389.998789 270.765624 
L 390.423444 270.765624 
L 390.515634 263.100832 
L 391.307841 263.100832 
L 391.307841 259.268436 
L 391.434045 259.268436 
L 391.434045 255.43604 
L 391.843544 255.43604 
L 391.857366 247.771248 
L 392.194906 247.771248 
L 392.200731 240.106455 
L 392.698966 240.106455 
L 392.698966 236.274059 
L 392.983007 236.274059 
L 392.983007 232.441663 
L 393.225686 232.441663 
L 393.225686 228.609267 
L 393.446339 228.609267 
L 393.446339 224.776871 
L 393.940337 224.776871 
L 393.940337 220.944475 
L 394.939134 220.944475 
L 394.939134 217.112079 
L 395.918989 217.112079 
L 395.918989 213.279683 
L 396.16899 213.279683 
L 396.16899 209.447287 
L 396.480841 209.447287 
L 396.480841 205.614891 
L 396.98483 205.614891 
L 396.98483 201.782495 
L 397.240292 201.782495 
L 397.240292 197.950099 
L 397.604315 197.950099 
L 397.604315 194.117703 
L 400.136651 194.117703 
L 400.166879 186.452911 
L 400.318527 186.452911 
L 400.385436 178.788119 
L 400.490079 178.788119 
L 400.490079 174.955723 
L 401.352104 174.955723 
L 401.408863 163.458535 
L 402.495382 163.458535 
L 402.495382 159.626139 
L 402.696384 159.626139 
L 402.740712 151.961347 
L 403.249837 151.961347 
L 403.249837 148.12895 
L 404.028286 148.12895 
L 404.028286 144.296554 
L 404.486256 144.296554 
L 404.486256 140.464158 
L 405.686653 140.464158 
L 405.686653 136.631762 
L 407.490606 136.631762 
L 407.490606 132.799366 
L 408.383011 132.799366 
L 408.383011 128.96697 
L 409.944913 128.96697 
L 409.944913 125.134574 
L 412.951317 125.134574 
L 412.951317 121.302178 
L 416.636084 121.302178 
L 416.636084 117.469782 
L 417.78151 117.469782 
L 417.78151 113.637386 
L 418.75896 113.637386 
L 418.75896 109.80499 
L 419.011228 109.80499 
L 419.011228 105.972594 
L 420.429044 105.972594 
L 420.429044 102.140198 
L 421.204556 102.140198 
L 421.204556 98.307802 
L 421.922627 98.307802 
L 422.02277 86.810614 
L 422.885461 86.810614 
L 422.885461 82.978218 
L 424.005785 82.978218 
L 424.005785 79.145822 
L 424.21805 79.145822 
L 424.21805 75.313426 
L 425.00599 75.313426 
L 425.096454 67.648634 
L 427.520634 67.648634 
L 427.520634 63.816238 
L 429.709697 63.816238 
L 429.709697 59.983842 
L 430.967156 59.983842 
L 430.967156 56.151446 
L 433.878252 56.151446 
L 433.878252 52.31905 
L 440.024328 52.31905 
L 440.024328 48.486653 
L 440.526403 48.486653 
L 440.536687 40.821861 
L 442.606543 40.821861 
L 442.606543 36.989465 
L 443.604579 36.989465 
L 443.69315 29.324673 
L 443.915943 29.324673 
L 443.95704 21.659881 
L 444.659952 21.659881 
L 444.661295 13.995089 
L 447.118724 13.995089 
L 447.118724 10.162693 
L 447.574158 10.162693 
L 447.574158 6.330297 
L 447.574158 6.330297 
L 460.8 6.330297 
L 460.8 6.330297 
" style="fill:none;stroke:#f5deb3;stroke-linecap:square;stroke-width:1.5;"/>
   </g>
   <g id="line2d_18">
    <path clip-path="url(#p046b22b588)" d="M 352.628836 293.76 
L 352.628836 289.927604 
L 355.970011 289.927604 
L 355.970011 286.095208 
L 357.512412 286.095208 
L 357.512412 282.262812 
L 360.450409 282.262812 
L 360.450409 278.430416 
L 360.961064 278.430416 
L 360.961064 274.59802 
L 360.969107 274.59802 
L 360.969107 270.765624 
L 363.962783 270.765624 
L 363.962783 266.933228 
L 368.353157 266.933228 
L 368.353157 263.100832 
L 368.392253 263.100832 
L 368.392253 259.268436 
L 376.840738 259.268436 
L 376.840738 255.43604 
L 378.413473 255.43604 
L 378.413473 251.603644 
L 379.535629 251.603644 
L 379.535629 247.771248 
L 380.678818 247.771248 
L 380.678818 243.938851 
L 385.349646 243.938851 
L 385.349646 240.106455 
L 386.786919 240.106455 
L 386.786919 236.274059 
L 421.741853 236.274059 
L 421.741853 232.441663 
L 422.856 232.441663 
L 422.856 228.609267 
L 423.903845 228.609267 
L 423.903845 224.776871 
L 424.116476 224.776871 
L 424.116476 220.944475 
L 424.353303 220.944475 
L 424.353303 217.112079 
L 424.503291 217.112079 
L 424.503291 213.279683 
L 424.618896 213.279683 
L 424.618896 209.447287 
L 424.634493 209.447287 
L 424.634493 205.614891 
L 424.774139 205.614891 
L 424.774139 201.782495 
L 425.949575 201.782495 
L 425.949575 197.950099 
L 426.702715 197.950099 
L 426.702715 194.117703 
L 427.97481 194.117703 
L 427.97481 190.285307 
L 428.420336 190.285307 
L 428.420336 186.452911 
L 428.853073 186.452911 
L 428.853073 182.620515 
L 430.531985 182.620515 
L 430.531985 178.788119 
L 430.531985 178.788119 
L 430.531985 178.788119 
L 460.8 178.788119 
" style="fill:none;stroke:#f5deb3;stroke-linecap:square;stroke-width:1.5;"/>
   </g>
   <g id="line2d_19">
    <path clip-path="url(#p046b22b588)" d="M 356.984269 293.76 
L 356.984269 289.927604 
L 357.257988 289.927604 
L 357.257988 286.095208 
L 357.376224 286.095208 
L 357.46229 278.430416 
L 357.528312 278.430416 
L 357.528312 274.59802 
L 357.75421 274.59802 
L 357.75421 270.765624 
L 357.944272 270.765624 
L 357.971801 263.100832 
L 358.440121 263.100832 
L 358.440121 259.268436 
L 358.561219 259.268436 
L 358.561219 255.43604 
L 358.697416 255.43604 
L 358.783082 247.771248 
L 359.175174 247.771248 
L 359.175174 243.938851 
L 359.666325 243.938851 
L 359.666325 240.106455 
L 360.216523 240.106455 
L 360.216523 236.274059 
L 364.905802 236.274059 
L 364.905802 232.441663 
L 365.162829 232.441663 
L 365.162829 228.609267 
L 365.687122 228.609267 
L 365.687122 224.776871 
L 365.843962 224.776871 
L 365.843962 220.944475 
L 365.963955 220.944475 
L 365.963955 217.112079 
L 367.542763 217.112079 
L 367.552111 209.447287 
L 367.688982 209.447287 
L 367.688982 205.614891 
L 367.807444 205.614891 
L 367.807444 201.782495 
L 368.040887 201.782495 
L 368.040887 197.950099 
L 368.318305 197.950099 
L 368.318305 194.117703 
L 368.442292 194.117703 
L 368.442292 190.285307 
L 368.904403 190.285307 
L 368.904403 186.452911 
L 370.359511 186.452911 
L 370.359511 182.620515 
L 370.632208 182.620515 
L 370.632208 178.788119 
L 370.853676 178.788119 
L 370.853676 174.955723 
L 372.496592 174.955723 
L 372.496592 171.123327 
L 373.540048 171.123327 
L 373.540048 167.290931 
L 374.020617 167.290931 
L 374.020617 163.458535 
L 374.305657 163.458535 
L 374.314119 155.793743 
L 374.654354 155.793743 
L 374.654354 151.961347 
L 375.069244 151.961347 
L 375.069244 148.12895 
L 375.345082 148.12895 
L 375.352302 140.464158 
L 375.574485 140.464158 
L 375.574485 136.631762 
L 375.773022 136.631762 
L 375.773022 132.799366 
L 376.448915 132.799366 
L 376.448915 128.96697 
L 376.812874 128.96697 
L 376.812874 125.134574 
L 377.719662 125.134574 
L 377.719662 121.302178 
L 389.453409 121.302178 
L 389.453409 117.469782 
L 389.709352 117.469782 
L 389.709352 113.637386 
L 392.318426 113.637386 
L 392.318426 109.80499 
L 392.431697 109.80499 
L 392.431697 105.972594 
L 394.479411 105.972594 
L 394.479411 102.140198 
L 394.697984 102.140198 
L 394.697984 98.307802 
L 394.968298 98.307802 
L 395.040957 90.64301 
L 395.303636 90.64301 
L 395.385222 82.978218 
L 395.782896 82.978218 
L 395.782896 79.145822 
L 396.117304 79.145822 
L 396.117304 75.313426 
L 397.834168 75.313426 
L 397.834168 71.48103 
L 398.993355 71.48103 
L 398.993355 67.648634 
L 399.881806 67.648634 
L 399.985181 59.983842 
L 400.170832 59.983842 
L 400.195391 52.31905 
L 400.287567 52.31905 
L 400.287567 48.486653 
L 401.363352 48.486653 
L 401.363352 44.654257 
L 401.938124 44.654257 
L 401.976248 36.989465 
L 402.088524 36.989465 
L 402.166344 29.324673 
L 402.294735 29.324673 
L 402.294735 25.492277 
L 402.758748 25.492277 
L 402.758748 21.659881 
L 403.294621 21.659881 
L 403.393445 13.995089 
L 405.963583 13.995089 
L 405.963583 10.162693 
L 411.669728 10.162693 
L 411.669728 6.330297 
L 411.669728 6.330297 
L 460.8 6.330297 
L 460.8 6.330297 
" style="fill:none;stroke:#f5deb3;stroke-linecap:square;stroke-width:1.5;"/>
   </g>
   <g id="line2d_20"/>
   <g id="matplotlib.axis_1">
    <g id="xtick_1">
     <g id="line2d_21">
      <path clip-path="url(#p046b22b588)" d="M 62.208 293.76 
L 62.208 3.456 
" style="fill:none;stroke:#b0b0b0;stroke-linecap:square;stroke-width:0.8;"/>
     </g>
     <g id="line2d_22">
      <defs>
       <path d="M 0 0 
L 0 3.5 
" id="me7e71beaaa" style="stroke:#000000;stroke-width:0.8;"/>
      </defs>
      <g>
       <use style="stroke:#000000;stroke-width:0.8;" x="62.208" xlink:href="#me7e71beaaa" y="293.76"/>
      </g>
     </g>
     <g id="text_1">
      <!-- 0 -->
      <g transform="translate(55.8455 315.956875)scale(0.2 -0.2)">
       <defs>
        <path d="M 2034 4250 
Q 1547 4250 1301 3770 
Q 1056 3291 1056 2328 
Q 1056 1369 1301 889 
Q 1547 409 2034 409 
Q 2525 409 2770 889 
Q 3016 1369 3016 2328 
Q 3016 3291 2770 3770 
Q 2525 4250 2034 4250 
z
M 2034 4750 
Q 2819 4750 3233 4129 
Q 3647 3509 3647 2328 
Q 3647 1150 3233 529 
Q 2819 -91 2034 -91 
Q 1250 -91 836 529 
Q 422 1150 422 2328 
Q 422 3509 836 4129 
Q 1250 4750 2034 4750 
z
" id="DejaVuSans-30" transform="scale(0.015625)"/>
       </defs>
       <use xlink:href="#DejaVuSans-30"/>
      </g>
     </g>
    </g>
    <g id="xtick_2">
     <g id="line2d_23">
      <path clip-path="url(#p046b22b588)" d="M 251.964122 293.76 
L 251.964122 3.456 
" style="fill:none;stroke:#b0b0b0;stroke-linecap:square;stroke-width:0.8;"/>
     </g>
     <g id="line2d_24">
      <g>
       <use style="stroke:#000000;stroke-width:0.8;" x="251.964122" xlink:href="#me7e71beaaa" y="293.76"/>
      </g>
     </g>
     <g id="text_2">
      <!-- 2 -->
      <g transform="translate(245.601622 315.956875)scale(0.2 -0.2)">
       <defs>
        <path d="M 1228 531 
L 3431 531 
L 3431 0 
L 469 0 
L 469 531 
Q 828 903 1448 1529 
Q 2069 2156 2228 2338 
Q 2531 2678 2651 2914 
Q 2772 3150 2772 3378 
Q 2772 3750 2511 3984 
Q 2250 4219 1831 4219 
Q 1534 4219 1204 4116 
Q 875 4013 500 3803 
L 500 4441 
Q 881 4594 1212 4672 
Q 1544 4750 1819 4750 
Q 2544 4750 2975 4387 
Q 3406 4025 3406 3419 
Q 3406 3131 3298 2873 
Q 3191 2616 2906 2266 
Q 2828 2175 2409 1742 
Q 1991 1309 1228 531 
z
" id="DejaVuSans-32" transform="scale(0.015625)"/>
       </defs>
       <use xlink:href="#DejaVuSans-32"/>
      </g>
     </g>
    </g>
    <g id="xtick_3">
     <g id="line2d_25">
      <path clip-path="url(#p046b22b588)" d="M 441.720244 293.76 
L 441.720244 3.456 
" style="fill:none;stroke:#b0b0b0;stroke-linecap:square;stroke-width:0.8;"/>
     </g>
     <g id="line2d_26">
      <g>
       <use style="stroke:#000000;stroke-width:0.8;" x="441.720244" xlink:href="#me7e71beaaa" y="293.76"/>
      </g>
     </g>
     <g id="text_3">
      <!-- 4 -->
      <g transform="translate(435.357744 315.956875)scale(0.2 -0.2)">
       <defs>
        <path d="M 2419 4116 
L 825 1625 
L 2419 1625 
L 2419 4116 
z
M 2253 4666 
L 3047 4666 
L 3047 1625 
L 3713 1625 
L 3713 1100 
L 3047 1100 
L 3047 0 
L 2419 0 
L 2419 1100 
L 313 1100 
L 313 1709 
L 2253 4666 
z
" id="DejaVuSans-34" transform="scale(0.015625)"/>
       </defs>
       <use xlink:href="#DejaVuSans-34"/>
      </g>
     </g>
    </g>
    <g id="xtick_4">
     <g id="line2d_27">
      <path clip-path="url(#p046b22b588)" d="M 90.769142 293.76 
L 90.769142 3.456 
" style="fill:none;stroke:#b0b0b0;stroke-linecap:square;stroke-width:0.8;"/>
     </g>
     <g id="line2d_28">
      <defs>
       <path d="M 0 0 
L 0 2 
" id="mfd49670b03" style="stroke:#000000;stroke-width:0.6;"/>
      </defs>
      <g>
       <use style="stroke:#000000;stroke-width:0.6;" x="90.769142" xlink:href="#mfd49670b03" y="293.76"/>
      </g>
     </g>
    </g>
    <g id="xtick_5">
     <g id="line2d_29">
      <path clip-path="url(#p046b22b588)" d="M 107.47634 293.76 
L 107.47634 3.456 
" style="fill:none;stroke:#b0b0b0;stroke-linecap:square;stroke-width:0.8;"/>
     </g>
     <g id="line2d_30">
      <g>
       <use style="stroke:#000000;stroke-width:0.6;" x="107.47634" xlink:href="#mfd49670b03" y="293.76"/>
      </g>
     </g>
    </g>
    <g id="xtick_6">
     <g id="line2d_31">
      <path clip-path="url(#p046b22b588)" d="M 119.330285 293.76 
L 119.330285 3.456 
" style="fill:none;stroke:#b0b0b0;stroke-linecap:square;stroke-width:0.8;"/>
     </g>
     <g id="line2d_32">
      <g>
       <use style="stroke:#000000;stroke-width:0.6;" x="119.330285" xlink:href="#mfd49670b03" y="293.76"/>
      </g>
     </g>
    </g>
    <g id="xtick_7">
     <g id="line2d_33">
      <path clip-path="url(#p046b22b588)" d="M 128.524919 293.76 
L 128.524919 3.456 
" style="fill:none;stroke:#b0b0b0;stroke-linecap:square;stroke-width:0.8;"/>
     </g>
     <g id="line2d_34">
      <g>
       <use style="stroke:#000000;stroke-width:0.6;" x="128.524919" xlink:href="#mfd49670b03" y="293.76"/>
      </g>
     </g>
    </g>
    <g id="xtick_8">
     <g id="line2d_35">
      <path clip-path="url(#p046b22b588)" d="M 136.037482 293.76 
L 136.037482 3.456 
" style="fill:none;stroke:#b0b0b0;stroke-linecap:square;stroke-width:0.8;"/>
     </g>
     <g id="line2d_36">
      <g>
       <use style="stroke:#000000;stroke-width:0.6;" x="136.037482" xlink:href="#mfd49670b03" y="293.76"/>
      </g>
     </g>
    </g>
    <g id="xtick_9">
     <g id="line2d_37">
      <path clip-path="url(#p046b22b588)" d="M 142.389263 293.76 
L 142.389263 3.456 
" style="fill:none;stroke:#b0b0b0;stroke-linecap:square;stroke-width:0.8;"/>
     </g>
     <g id="line2d_38">
      <g>
       <use style="stroke:#000000;stroke-width:0.6;" x="142.389263" xlink:href="#mfd49670b03" y="293.76"/>
      </g>
     </g>
    </g>
    <g id="xtick_10">
     <g id="line2d_39">
      <path clip-path="url(#p046b22b588)" d="M 147.891427 293.76 
L 147.891427 3.456 
" style="fill:none;stroke:#b0b0b0;stroke-linecap:square;stroke-width:0.8;"/>
     </g>
     <g id="line2d_40">
      <g>
       <use style="stroke:#000000;stroke-width:0.6;" x="147.891427" xlink:href="#mfd49670b03" y="293.76"/>
      </g>
     </g>
    </g>
    <g id="xtick_11">
     <g id="line2d_41">
      <path clip-path="url(#p046b22b588)" d="M 152.744679 293.76 
L 152.744679 3.456 
" style="fill:none;stroke:#b0b0b0;stroke-linecap:square;stroke-width:0.8;"/>
     </g>
     <g id="line2d_42">
      <g>
       <use style="stroke:#000000;stroke-width:0.6;" x="152.744679" xlink:href="#mfd49670b03" y="293.76"/>
      </g>
     </g>
    </g>
    <g id="xtick_12">
     <g id="line2d_43">
      <path clip-path="url(#p046b22b588)" d="M 185.647203 293.76 
L 185.647203 3.456 
" style="fill:none;stroke:#b0b0b0;stroke-linecap:square;stroke-width:0.8;"/>
     </g>
     <g id="line2d_44">
      <g>
       <use style="stroke:#000000;stroke-width:0.6;" x="185.647203" xlink:href="#mfd49670b03" y="293.76"/>
      </g>
     </g>
    </g>
    <g id="xtick_13">
     <g id="line2d_45">
      <path clip-path="url(#p046b22b588)" d="M 202.3544 293.76 
L 202.3544 3.456 
" style="fill:none;stroke:#b0b0b0;stroke-linecap:square;stroke-width:0.8;"/>
     </g>
     <g id="line2d_46">
      <g>
       <use style="stroke:#000000;stroke-width:0.6;" x="202.3544" xlink:href="#mfd49670b03" y="293.76"/>
      </g>
     </g>
    </g>
    <g id="xtick_14">
     <g id="line2d_47">
      <path clip-path="url(#p046b22b588)" d="M 214.208346 293.76 
L 214.208346 3.456 
" style="fill:none;stroke:#b0b0b0;stroke-linecap:square;stroke-width:0.8;"/>
     </g>
     <g id="line2d_48">
      <g>
       <use style="stroke:#000000;stroke-width:0.6;" x="214.208346" xlink:href="#mfd49670b03" y="293.76"/>
      </g>
     </g>
    </g>
    <g id="xtick_15">
     <g id="line2d_49">
      <path clip-path="url(#p046b22b588)" d="M 223.40298 293.76 
L 223.40298 3.456 
" style="fill:none;stroke:#b0b0b0;stroke-linecap:square;stroke-width:0.8;"/>
     </g>
     <g id="line2d_50">
      <g>
       <use style="stroke:#000000;stroke-width:0.6;" x="223.40298" xlink:href="#mfd49670b03" y="293.76"/>
      </g>
     </g>
    </g>
    <g id="xtick_16">
     <g id="line2d_51">
      <path clip-path="url(#p046b22b588)" d="M 230.915543 293.76 
L 230.915543 3.456 
" style="fill:none;stroke:#b0b0b0;stroke-linecap:square;stroke-width:0.8;"/>
     </g>
     <g id="line2d_52">
      <g>
       <use style="stroke:#000000;stroke-width:0.6;" x="230.915543" xlink:href="#mfd49670b03" y="293.76"/>
      </g>
     </g>
    </g>
    <g id="xtick_17">
     <g id="line2d_53">
      <path clip-path="url(#p046b22b588)" d="M 237.267324 293.76 
L 237.267324 3.456 
" style="fill:none;stroke:#b0b0b0;stroke-linecap:square;stroke-width:0.8;"/>
     </g>
     <g id="line2d_54">
      <g>
       <use style="stroke:#000000;stroke-width:0.6;" x="237.267324" xlink:href="#mfd49670b03" y="293.76"/>
      </g>
     </g>
    </g>
    <g id="xtick_18">
     <g id="line2d_55">
      <path clip-path="url(#p046b22b588)" d="M 242.769488 293.76 
L 242.769488 3.456 
" style="fill:none;stroke:#b0b0b0;stroke-linecap:square;stroke-width:0.8;"/>
     </g>
     <g id="line2d_56">
      <g>
       <use style="stroke:#000000;stroke-width:0.6;" x="242.769488" xlink:href="#mfd49670b03" y="293.76"/>
      </g>
     </g>
    </g>
    <g id="xtick_19">
     <g id="line2d_57">
      <path clip-path="url(#p046b22b588)" d="M 247.62274 293.76 
L 247.62274 3.456 
" style="fill:none;stroke:#b0b0b0;stroke-linecap:square;stroke-width:0.8;"/>
     </g>
     <g id="line2d_58">
      <g>
       <use style="stroke:#000000;stroke-width:0.6;" x="247.62274" xlink:href="#mfd49670b03" y="293.76"/>
      </g>
     </g>
    </g>
    <g id="xtick_20">
     <g id="line2d_59">
      <path clip-path="url(#p046b22b588)" d="M 280.525264 293.76 
L 280.525264 3.456 
" style="fill:none;stroke:#b0b0b0;stroke-linecap:square;stroke-width:0.8;"/>
     </g>
     <g id="line2d_60">
      <g>
       <use style="stroke:#000000;stroke-width:0.6;" x="280.525264" xlink:href="#mfd49670b03" y="293.76"/>
      </g>
     </g>
    </g>
    <g id="xtick_21">
     <g id="line2d_61">
      <path clip-path="url(#p046b22b588)" d="M 297.232461 293.76 
L 297.232461 3.456 
" style="fill:none;stroke:#b0b0b0;stroke-linecap:square;stroke-width:0.8;"/>
     </g>
     <g id="line2d_62">
      <g>
       <use style="stroke:#000000;stroke-width:0.6;" x="297.232461" xlink:href="#mfd49670b03" y="293.76"/>
      </g>
     </g>
    </g>
    <g id="xtick_22">
     <g id="line2d_63">
      <path clip-path="url(#p046b22b588)" d="M 309.086407 293.76 
L 309.086407 3.456 
" style="fill:none;stroke:#b0b0b0;stroke-linecap:square;stroke-width:0.8;"/>
     </g>
     <g id="line2d_64">
      <g>
       <use style="stroke:#000000;stroke-width:0.6;" x="309.086407" xlink:href="#mfd49670b03" y="293.76"/>
      </g>
     </g>
    </g>
    <g id="xtick_23">
     <g id="line2d_65">
      <path clip-path="url(#p046b22b588)" d="M 318.281041 293.76 
L 318.281041 3.456 
" style="fill:none;stroke:#b0b0b0;stroke-linecap:square;stroke-width:0.8;"/>
     </g>
     <g id="line2d_66">
      <g>
       <use style="stroke:#000000;stroke-width:0.6;" x="318.281041" xlink:href="#mfd49670b03" y="293.76"/>
      </g>
     </g>
    </g>
    <g id="xtick_24">
     <g id="line2d_67">
      <path clip-path="url(#p046b22b588)" d="M 325.793604 293.76 
L 325.793604 3.456 
" style="fill:none;stroke:#b0b0b0;stroke-linecap:square;stroke-width:0.8;"/>
     </g>
     <g id="line2d_68">
      <g>
       <use style="stroke:#000000;stroke-width:0.6;" x="325.793604" xlink:href="#mfd49670b03" y="293.76"/>
      </g>
     </g>
    </g>
    <g id="xtick_25">
     <g id="line2d_69">
      <path clip-path="url(#p046b22b588)" d="M 332.145385 293.76 
L 332.145385 3.456 
" style="fill:none;stroke:#b0b0b0;stroke-linecap:square;stroke-width:0.8;"/>
     </g>
     <g id="line2d_70">
      <g>
       <use style="stroke:#000000;stroke-width:0.6;" x="332.145385" xlink:href="#mfd49670b03" y="293.76"/>
      </g>
     </g>
    </g>
    <g id="xtick_26">
     <g id="line2d_71">
      <path clip-path="url(#p046b22b588)" d="M 337.647549 293.76 
L 337.647549 3.456 
" style="fill:none;stroke:#b0b0b0;stroke-linecap:square;stroke-width:0.8;"/>
     </g>
     <g id="line2d_72">
      <g>
       <use style="stroke:#000000;stroke-width:0.6;" x="337.647549" xlink:href="#mfd49670b03" y="293.76"/>
      </g>
     </g>
    </g>
    <g id="xtick_27">
     <g id="line2d_73">
      <path clip-path="url(#p046b22b588)" d="M 342.500801 293.76 
L 342.500801 3.456 
" style="fill:none;stroke:#b0b0b0;stroke-linecap:square;stroke-width:0.8;"/>
     </g>
     <g id="line2d_74">
      <g>
       <use style="stroke:#000000;stroke-width:0.6;" x="342.500801" xlink:href="#mfd49670b03" y="293.76"/>
      </g>
     </g>
    </g>
    <g id="xtick_28">
     <g id="line2d_75">
      <path clip-path="url(#p046b22b588)" d="M 375.403325 293.76 
L 375.403325 3.456 
" style="fill:none;stroke:#b0b0b0;stroke-linecap:square;stroke-width:0.8;"/>
     </g>
     <g id="line2d_76">
      <g>
       <use style="stroke:#000000;stroke-width:0.6;" x="375.403325" xlink:href="#mfd49670b03" y="293.76"/>
      </g>
     </g>
    </g>
    <g id="xtick_29">
     <g id="line2d_77">
      <path clip-path="url(#p046b22b588)" d="M 392.110522 293.76 
L 392.110522 3.456 
" style="fill:none;stroke:#b0b0b0;stroke-linecap:square;stroke-width:0.8;"/>
     </g>
     <g id="line2d_78">
      <g>
       <use style="stroke:#000000;stroke-width:0.6;" x="392.110522" xlink:href="#mfd49670b03" y="293.76"/>
      </g>
     </g>
    </g>
    <g id="xtick_30">
     <g id="line2d_79">
      <path clip-path="url(#p046b22b588)" d="M 403.964468 293.76 
L 403.964468 3.456 
" style="fill:none;stroke:#b0b0b0;stroke-linecap:square;stroke-width:0.8;"/>
     </g>
     <g id="line2d_80">
      <g>
       <use style="stroke:#000000;stroke-width:0.6;" x="403.964468" xlink:href="#mfd49670b03" y="293.76"/>
      </g>
     </g>
    </g>
    <g id="xtick_31">
     <g id="line2d_81">
      <path clip-path="url(#p046b22b588)" d="M 413.159102 293.76 
L 413.159102 3.456 
" style="fill:none;stroke:#b0b0b0;stroke-linecap:square;stroke-width:0.8;"/>
     </g>
     <g id="line2d_82">
      <g>
       <use style="stroke:#000000;stroke-width:0.6;" x="413.159102" xlink:href="#mfd49670b03" y="293.76"/>
      </g>
     </g>
    </g>
    <g id="xtick_32">
     <g id="line2d_83">
      <path clip-path="url(#p046b22b588)" d="M 420.671665 293.76 
L 420.671665 3.456 
" style="fill:none;stroke:#b0b0b0;stroke-linecap:square;stroke-width:0.8;"/>
     </g>
     <g id="line2d_84">
      <g>
       <use style="stroke:#000000;stroke-width:0.6;" x="420.671665" xlink:href="#mfd49670b03" y="293.76"/>
      </g>
     </g>
    </g>
    <g id="xtick_33">
     <g id="line2d_85">
      <path clip-path="url(#p046b22b588)" d="M 427.023446 293.76 
L 427.023446 3.456 
" style="fill:none;stroke:#b0b0b0;stroke-linecap:square;stroke-width:0.8;"/>
     </g>
     <g id="line2d_86">
      <g>
       <use style="stroke:#000000;stroke-width:0.6;" x="427.023446" xlink:href="#mfd49670b03" y="293.76"/>
      </g>
     </g>
    </g>
    <g id="xtick_34">
     <g id="line2d_87">
      <path clip-path="url(#p046b22b588)" d="M 432.52561 293.76 
L 432.52561 3.456 
" style="fill:none;stroke:#b0b0b0;stroke-linecap:square;stroke-width:0.8;"/>
     </g>
     <g id="line2d_88">
      <g>
       <use style="stroke:#000000;stroke-width:0.6;" x="432.52561" xlink:href="#mfd49670b03" y="293.76"/>
      </g>
     </g>
    </g>
    <g id="xtick_35">
     <g id="line2d_89">
      <path clip-path="url(#p046b22b588)" d="M 437.378862 293.76 
L 437.378862 3.456 
" style="fill:none;stroke:#b0b0b0;stroke-linecap:square;stroke-width:0.8;"/>
     </g>
     <g id="line2d_90">
      <g>
       <use style="stroke:#000000;stroke-width:0.6;" x="437.378862" xlink:href="#mfd49670b03" y="293.76"/>
      </g>
     </g>
    </g>
    <g id="text_4">
     <!-- log10 of FEvals / DIM -->
     <g transform="translate(156.430563 339.313125)scale(0.2 -0.2)">
      <defs>
       <path d="M 603 4863 
L 1178 4863 
L 1178 0 
L 603 0 
L 603 4863 
z
" id="DejaVuSans-6c" transform="scale(0.015625)"/>
       <path d="M 1959 3097 
Q 1497 3097 1228 2736 
Q 959 2375 959 1747 
Q 959 1119 1226 758 
Q 1494 397 1959 397 
Q 2419 397 2687 759 
Q 2956 1122 2956 1747 
Q 2956 2369 2687 2733 
Q 2419 3097 1959 3097 
z
M 1959 3584 
Q 2709 3584 3137 3096 
Q 3566 2609 3566 1747 
Q 3566 888 3137 398 
Q 2709 -91 1959 -91 
Q 1206 -91 779 398 
Q 353 888 353 1747 
Q 353 2609 779 3096 
Q 1206 3584 1959 3584 
z
" id="DejaVuSans-6f" transform="scale(0.015625)"/>
       <path d="M 2906 1791 
Q 2906 2416 2648 2759 
Q 2391 3103 1925 3103 
Q 1463 3103 1205 2759 
Q 947 2416 947 1791 
Q 947 1169 1205 825 
Q 1463 481 1925 481 
Q 2391 481 2648 825 
Q 2906 1169 2906 1791 
z
M 3481 434 
Q 3481 -459 3084 -895 
Q 2688 -1331 1869 -1331 
Q 1566 -1331 1297 -1286 
Q 1028 -1241 775 -1147 
L 775 -588 
Q 1028 -725 1275 -790 
Q 1522 -856 1778 -856 
Q 2344 -856 2625 -561 
Q 2906 -266 2906 331 
L 2906 616 
Q 2728 306 2450 153 
Q 2172 0 1784 0 
Q 1141 0 747 490 
Q 353 981 353 1791 
Q 353 2603 747 3093 
Q 1141 3584 1784 3584 
Q 2172 3584 2450 3431 
Q 2728 3278 2906 2969 
L 2906 3500 
L 3481 3500 
L 3481 434 
z
" id="DejaVuSans-67" transform="scale(0.015625)"/>
       <path d="M 794 531 
L 1825 531 
L 1825 4091 
L 703 3866 
L 703 4441 
L 1819 4666 
L 2450 4666 
L 2450 531 
L 3481 531 
L 3481 0 
L 794 0 
L 794 531 
z
" id="DejaVuSans-31" transform="scale(0.015625)"/>
       <path id="DejaVuSans-20" transform="scale(0.015625)"/>
       <path d="M 2375 4863 
L 2375 4384 
L 1825 4384 
Q 1516 4384 1395 4259 
Q 1275 4134 1275 3809 
L 1275 3500 
L 2222 3500 
L 2222 3053 
L 1275 3053 
L 1275 0 
L 697 0 
L 697 3053 
L 147 3053 
L 147 3500 
L 697 3500 
L 697 3744 
Q 697 4328 969 4595 
Q 1241 4863 1831 4863 
L 2375 4863 
z
" id="DejaVuSans-66" transform="scale(0.015625)"/>
       <path d="M 628 4666 
L 3309 4666 
L 3309 4134 
L 1259 4134 
L 1259 2759 
L 3109 2759 
L 3109 2228 
L 1259 2228 
L 1259 0 
L 628 0 
L 628 4666 
z
" id="DejaVuSans-46" transform="scale(0.015625)"/>
       <path d="M 628 4666 
L 3578 4666 
L 3578 4134 
L 1259 4134 
L 1259 2753 
L 3481 2753 
L 3481 2222 
L 1259 2222 
L 1259 531 
L 3634 531 
L 3634 0 
L 628 0 
L 628 4666 
z
" id="DejaVuSans-45" transform="scale(0.015625)"/>
       <path d="M 191 3500 
L 800 3500 
L 1894 563 
L 2988 3500 
L 3597 3500 
L 2284 0 
L 1503 0 
L 191 3500 
z
" id="DejaVuSans-76" transform="scale(0.015625)"/>
       <path d="M 2194 1759 
Q 1497 1759 1228 1600 
Q 959 1441 959 1056 
Q 959 750 1161 570 
Q 1363 391 1709 391 
Q 2188 391 2477 730 
Q 2766 1069 2766 1631 
L 2766 1759 
L 2194 1759 
z
M 3341 1997 
L 3341 0 
L 2766 0 
L 2766 531 
Q 2569 213 2275 61 
Q 1981 -91 1556 -91 
Q 1019 -91 701 211 
Q 384 513 384 1019 
Q 384 1609 779 1909 
Q 1175 2209 1959 2209 
L 2766 2209 
L 2766 2266 
Q 2766 2663 2505 2880 
Q 2244 3097 1772 3097 
Q 1472 3097 1187 3025 
Q 903 2953 641 2809 
L 641 3341 
Q 956 3463 1253 3523 
Q 1550 3584 1831 3584 
Q 2591 3584 2966 3190 
Q 3341 2797 3341 1997 
z
" id="DejaVuSans-61" transform="scale(0.015625)"/>
       <path d="M 2834 3397 
L 2834 2853 
Q 2591 2978 2328 3040 
Q 2066 3103 1784 3103 
Q 1356 3103 1142 2972 
Q 928 2841 928 2578 
Q 928 2378 1081 2264 
Q 1234 2150 1697 2047 
L 1894 2003 
Q 2506 1872 2764 1633 
Q 3022 1394 3022 966 
Q 3022 478 2636 193 
Q 2250 -91 1575 -91 
Q 1294 -91 989 -36 
Q 684 19 347 128 
L 347 722 
Q 666 556 975 473 
Q 1284 391 1588 391 
Q 1994 391 2212 530 
Q 2431 669 2431 922 
Q 2431 1156 2273 1281 
Q 2116 1406 1581 1522 
L 1381 1569 
Q 847 1681 609 1914 
Q 372 2147 372 2553 
Q 372 3047 722 3315 
Q 1072 3584 1716 3584 
Q 2034 3584 2315 3537 
Q 2597 3491 2834 3397 
z
" id="DejaVuSans-73" transform="scale(0.015625)"/>
       <path d="M 1625 4666 
L 2156 4666 
L 531 -594 
L 0 -594 
L 1625 4666 
z
" id="DejaVuSans-2f" transform="scale(0.015625)"/>
       <path d="M 1259 4147 
L 1259 519 
L 2022 519 
Q 2988 519 3436 956 
Q 3884 1394 3884 2338 
Q 3884 3275 3436 3711 
Q 2988 4147 2022 4147 
L 1259 4147 
z
M 628 4666 
L 1925 4666 
Q 3281 4666 3915 4102 
Q 4550 3538 4550 2338 
Q 4550 1131 3912 565 
Q 3275 0 1925 0 
L 628 0 
L 628 4666 
z
" id="DejaVuSans-44" transform="scale(0.015625)"/>
       <path d="M 628 4666 
L 1259 4666 
L 1259 0 
L 628 0 
L 628 4666 
z
" id="DejaVuSans-49" transform="scale(0.015625)"/>
       <path d="M 628 4666 
L 1569 4666 
L 2759 1491 
L 3956 4666 
L 4897 4666 
L 4897 0 
L 4281 0 
L 4281 4097 
L 3078 897 
L 2444 897 
L 1241 4097 
L 1241 0 
L 628 0 
L 628 4666 
z
" id="DejaVuSans-4d" transform="scale(0.015625)"/>
      </defs>
      <use xlink:href="#DejaVuSans-6c"/>
      <use x="27.783203" xlink:href="#DejaVuSans-6f"/>
      <use x="88.964844" xlink:href="#DejaVuSans-67"/>
      <use x="152.441406" xlink:href="#DejaVuSans-31"/>
      <use x="216.064453" xlink:href="#DejaVuSans-30"/>
      <use x="279.6875" xlink:href="#DejaVuSans-20"/>
      <use x="311.474609" xlink:href="#DejaVuSans-6f"/>
      <use x="372.65625" xlink:href="#DejaVuSans-66"/>
      <use x="407.861328" xlink:href="#DejaVuSans-20"/>
      <use x="439.648438" xlink:href="#DejaVuSans-46"/>
      <use x="497.167969" xlink:href="#DejaVuSans-45"/>
      <use x="560.351562" xlink:href="#DejaVuSans-76"/>
      <use x="619.53125" xlink:href="#DejaVuSans-61"/>
      <use x="680.810547" xlink:href="#DejaVuSans-6c"/>
      <use x="708.59375" xlink:href="#DejaVuSans-73"/>
      <use x="760.693359" xlink:href="#DejaVuSans-20"/>
      <use x="792.480469" xlink:href="#DejaVuSans-2f"/>
      <use x="826.171875" xlink:href="#DejaVuSans-20"/>
      <use x="857.958984" xlink:href="#DejaVuSans-44"/>
      <use x="934.960938" xlink:href="#DejaVuSans-49"/>
      <use x="964.453125" xlink:href="#DejaVuSans-4d"/>
     </g>
    </g>
   </g>
   <g id="matplotlib.axis_2">
    <g id="ytick_1">
     <g id="line2d_91">
      <path clip-path="url(#p046b22b588)" d="M 62.208 293.76 
L 460.8 293.76 
" style="fill:none;stroke:#b0b0b0;stroke-linecap:square;stroke-width:0.8;"/>
     </g>
     <g id="line2d_92">
      <defs>
       <path d="M 0 0 
L -3.5 0 
" id="mc68ec74b05" style="stroke:#000000;stroke-width:0.8;"/>
      </defs>
      <g>
       <use style="stroke:#000000;stroke-width:0.8;" x="62.208" xlink:href="#mc68ec74b05" y="293.76"/>
      </g>
     </g>
     <g id="text_5">
      <!-- 0.0 -->
      <g transform="translate(29.763 299.83875)scale(0.16 -0.16)">
       <defs>
        <path d="M 684 794 
L 1344 794 
L 1344 0 
L 684 0 
L 684 794 
z
" id="DejaVuSans-2e" transform="scale(0.015625)"/>
       </defs>
       <use xlink:href="#DejaVuSans-30"/>
       <use x="63.623047" xlink:href="#DejaVuSans-2e"/>
       <use x="95.410156" xlink:href="#DejaVuSans-30"/>
      </g>
     </g>
    </g>
    <g id="ytick_2">
     <g id="line2d_93">
      <path clip-path="url(#p046b22b588)" d="M 62.208 236.274059 
L 460.8 236.274059 
" style="fill:none;stroke:#b0b0b0;stroke-linecap:square;stroke-width:0.8;"/>
     </g>
     <g id="line2d_94">
      <g>
       <use style="stroke:#000000;stroke-width:0.8;" x="62.208" xlink:href="#mc68ec74b05" y="236.274059"/>
      </g>
     </g>
     <g id="text_6">
      <!-- 0.2 -->
      <g transform="translate(29.763 242.352809)scale(0.16 -0.16)">
       <use xlink:href="#DejaVuSans-30"/>
       <use x="63.623047" xlink:href="#DejaVuSans-2e"/>
       <use x="95.410156" xlink:href="#DejaVuSans-32"/>
      </g>
     </g>
    </g>
    <g id="ytick_3">
     <g id="line2d_95">
      <path clip-path="url(#p046b22b588)" d="M 62.208 178.788119 
L 460.8 178.788119 
" style="fill:none;stroke:#b0b0b0;stroke-linecap:square;stroke-width:0.8;"/>
     </g>
     <g id="line2d_96">
      <g>
       <use style="stroke:#000000;stroke-width:0.8;" x="62.208" xlink:href="#mc68ec74b05" y="178.788119"/>
      </g>
     </g>
     <g id="text_7">
      <!-- 0.4 -->
      <g transform="translate(29.763 184.866869)scale(0.16 -0.16)">
       <use xlink:href="#DejaVuSans-30"/>
       <use x="63.623047" xlink:href="#DejaVuSans-2e"/>
       <use x="95.410156" xlink:href="#DejaVuSans-34"/>
      </g>
     </g>
    </g>
    <g id="ytick_4">
     <g id="line2d_97">
      <path clip-path="url(#p046b22b588)" d="M 62.208 121.302178 
L 460.8 121.302178 
" style="fill:none;stroke:#b0b0b0;stroke-linecap:square;stroke-width:0.8;"/>
     </g>
     <g id="line2d_98">
      <g>
       <use style="stroke:#000000;stroke-width:0.8;" x="62.208" xlink:href="#mc68ec74b05" y="121.302178"/>
      </g>
     </g>
     <g id="text_8">
      <!-- 0.6 -->
      <g transform="translate(29.763 127.380928)scale(0.16 -0.16)">
       <defs>
        <path d="M 2113 2584 
Q 1688 2584 1439 2293 
Q 1191 2003 1191 1497 
Q 1191 994 1439 701 
Q 1688 409 2113 409 
Q 2538 409 2786 701 
Q 3034 994 3034 1497 
Q 3034 2003 2786 2293 
Q 2538 2584 2113 2584 
z
M 3366 4563 
L 3366 3988 
Q 3128 4100 2886 4159 
Q 2644 4219 2406 4219 
Q 1781 4219 1451 3797 
Q 1122 3375 1075 2522 
Q 1259 2794 1537 2939 
Q 1816 3084 2150 3084 
Q 2853 3084 3261 2657 
Q 3669 2231 3669 1497 
Q 3669 778 3244 343 
Q 2819 -91 2113 -91 
Q 1303 -91 875 529 
Q 447 1150 447 2328 
Q 447 3434 972 4092 
Q 1497 4750 2381 4750 
Q 2619 4750 2861 4703 
Q 3103 4656 3366 4563 
z
" id="DejaVuSans-36" transform="scale(0.015625)"/>
       </defs>
       <use xlink:href="#DejaVuSans-30"/>
       <use x="63.623047" xlink:href="#DejaVuSans-2e"/>
       <use x="95.410156" xlink:href="#DejaVuSans-36"/>
      </g>
     </g>
    </g>
    <g id="ytick_5">
     <g id="line2d_99">
      <path clip-path="url(#p046b22b588)" d="M 62.208 63.816238 
L 460.8 63.816238 
" style="fill:none;stroke:#b0b0b0;stroke-linecap:square;stroke-width:0.8;"/>
     </g>
     <g id="line2d_100">
      <g>
       <use style="stroke:#000000;stroke-width:0.8;" x="62.208" xlink:href="#mc68ec74b05" y="63.816238"/>
      </g>
     </g>
     <g id="text_9">
      <!-- 0.8 -->
      <g transform="translate(29.763 69.894988)scale(0.16 -0.16)">
       <defs>
        <path d="M 2034 2216 
Q 1584 2216 1326 1975 
Q 1069 1734 1069 1313 
Q 1069 891 1326 650 
Q 1584 409 2034 409 
Q 2484 409 2743 651 
Q 3003 894 3003 1313 
Q 3003 1734 2745 1975 
Q 2488 2216 2034 2216 
z
M 1403 2484 
Q 997 2584 770 2862 
Q 544 3141 544 3541 
Q 544 4100 942 4425 
Q 1341 4750 2034 4750 
Q 2731 4750 3128 4425 
Q 3525 4100 3525 3541 
Q 3525 3141 3298 2862 
Q 3072 2584 2669 2484 
Q 3125 2378 3379 2068 
Q 3634 1759 3634 1313 
Q 3634 634 3220 271 
Q 2806 -91 2034 -91 
Q 1263 -91 848 271 
Q 434 634 434 1313 
Q 434 1759 690 2068 
Q 947 2378 1403 2484 
z
M 1172 3481 
Q 1172 3119 1398 2916 
Q 1625 2713 2034 2713 
Q 2441 2713 2670 2916 
Q 2900 3119 2900 3481 
Q 2900 3844 2670 4047 
Q 2441 4250 2034 4250 
Q 1625 4250 1398 4047 
Q 1172 3844 1172 3481 
z
" id="DejaVuSans-38" transform="scale(0.015625)"/>
       </defs>
       <use xlink:href="#DejaVuSans-30"/>
       <use x="63.623047" xlink:href="#DejaVuSans-2e"/>
       <use x="95.410156" xlink:href="#DejaVuSans-38"/>
      </g>
     </g>
    </g>
    <g id="ytick_6">
     <g id="line2d_101">
      <path clip-path="url(#p046b22b588)" d="M 62.208 6.330297 
L 460.8 6.330297 
" style="fill:none;stroke:#b0b0b0;stroke-linecap:square;stroke-width:0.8;"/>
     </g>
     <g id="line2d_102">
      <g>
       <use style="stroke:#000000;stroke-width:0.8;" x="62.208" xlink:href="#mc68ec74b05" y="6.330297"/>
      </g>
     </g>
     <g id="text_10">
      <!-- 1.0 -->
      <g transform="translate(29.763 12.409047)scale(0.16 -0.16)">
       <use xlink:href="#DejaVuSans-31"/>
       <use x="63.623047" xlink:href="#DejaVuSans-2e"/>
       <use x="95.410156" xlink:href="#DejaVuSans-30"/>
      </g>
     </g>
    </g>
    <g id="text_11">
     <!-- proportion of trials -->
     <g transform="translate(21.603625 241.61425)rotate(-90)scale(0.2 -0.2)">
      <defs>
       <path d="M 1159 525 
L 1159 -1331 
L 581 -1331 
L 581 3500 
L 1159 3500 
L 1159 2969 
Q 1341 3281 1617 3432 
Q 1894 3584 2278 3584 
Q 2916 3584 3314 3078 
Q 3713 2572 3713 1747 
Q 3713 922 3314 415 
Q 2916 -91 2278 -91 
Q 1894 -91 1617 61 
Q 1341 213 1159 525 
z
M 3116 1747 
Q 3116 2381 2855 2742 
Q 2594 3103 2138 3103 
Q 1681 3103 1420 2742 
Q 1159 2381 1159 1747 
Q 1159 1113 1420 752 
Q 1681 391 2138 391 
Q 2594 391 2855 752 
Q 3116 1113 3116 1747 
z
" id="DejaVuSans-70" transform="scale(0.015625)"/>
       <path d="M 2631 2963 
Q 2534 3019 2420 3045 
Q 2306 3072 2169 3072 
Q 1681 3072 1420 2755 
Q 1159 2438 1159 1844 
L 1159 0 
L 581 0 
L 581 3500 
L 1159 3500 
L 1159 2956 
Q 1341 3275 1631 3429 
Q 1922 3584 2338 3584 
Q 2397 3584 2469 3576 
Q 2541 3569 2628 3553 
L 2631 2963 
z
" id="DejaVuSans-72" transform="scale(0.015625)"/>
       <path d="M 1172 4494 
L 1172 3500 
L 2356 3500 
L 2356 3053 
L 1172 3053 
L 1172 1153 
Q 1172 725 1289 603 
Q 1406 481 1766 481 
L 2356 481 
L 2356 0 
L 1766 0 
Q 1100 0 847 248 
Q 594 497 594 1153 
L 594 3053 
L 172 3053 
L 172 3500 
L 594 3500 
L 594 4494 
L 1172 4494 
z
" id="DejaVuSans-74" transform="scale(0.015625)"/>
       <path d="M 603 3500 
L 1178 3500 
L 1178 0 
L 603 0 
L 603 3500 
z
M 603 4863 
L 1178 4863 
L 1178 4134 
L 603 4134 
L 603 4863 
z
" id="DejaVuSans-69" transform="scale(0.015625)"/>
       <path d="M 3513 2113 
L 3513 0 
L 2938 0 
L 2938 2094 
Q 2938 2591 2744 2837 
Q 2550 3084 2163 3084 
Q 1697 3084 1428 2787 
Q 1159 2491 1159 1978 
L 1159 0 
L 581 0 
L 581 3500 
L 1159 3500 
L 1159 2956 
Q 1366 3272 1645 3428 
Q 1925 3584 2291 3584 
Q 2894 3584 3203 3211 
Q 3513 2838 3513 2113 
z
" id="DejaVuSans-6e" transform="scale(0.015625)"/>
      </defs>
      <use xlink:href="#DejaVuSans-70"/>
      <use x="63.476562" xlink:href="#DejaVuSans-72"/>
      <use x="102.339844" xlink:href="#DejaVuSans-6f"/>
      <use x="163.521484" xlink:href="#DejaVuSans-70"/>
      <use x="226.998047" xlink:href="#DejaVuSans-6f"/>
      <use x="288.179688" xlink:href="#DejaVuSans-72"/>
      <use x="329.292969" xlink:href="#DejaVuSans-74"/>
      <use x="368.501953" xlink:href="#DejaVuSans-69"/>
      <use x="396.285156" xlink:href="#DejaVuSans-6f"/>
      <use x="457.466797" xlink:href="#DejaVuSans-6e"/>
      <use x="520.845703" xlink:href="#DejaVuSans-20"/>
      <use x="552.632812" xlink:href="#DejaVuSans-6f"/>
      <use x="613.814453" xlink:href="#DejaVuSans-66"/>
      <use x="649.019531" xlink:href="#DejaVuSans-20"/>
      <use x="680.806641" xlink:href="#DejaVuSans-74"/>
      <use x="720.015625" xlink:href="#DejaVuSans-72"/>
      <use x="761.128906" xlink:href="#DejaVuSans-69"/>
      <use x="788.912109" xlink:href="#DejaVuSans-61"/>
      <use x="850.191406" xlink:href="#DejaVuSans-6c"/>
      <use x="877.974609" xlink:href="#DejaVuSans-73"/>
     </g>
    </g>
   </g>
   <g id="line2d_103">
    <path clip-path="url(#p046b22b588)" d="M 15.89644 293.76 
L 15.89644 289.927604 
L 46.012673 289.927604 
L 46.012673 286.095208 
L 53.013366 286.095208 
L 53.013366 282.262812 
L 61.164779 282.262812 
L 61.164779 278.430416 
L 63.22546 278.430416 
L 63.22546 274.59802 
L 78.915197 274.59802 
L 78.915197 266.933228 
L 79.596287 266.933228 
L 79.596287 263.100832 
L 80.925597 263.100832 
L 80.925597 259.268436 
L 88.109831 259.268436 
L 88.109831 255.43604 
L 91.786602 255.43604 
L 91.786602 251.603644 
L 102.751652 251.603644 
L 102.751652 247.771248 
L 103.134958 247.771248 
L 103.134958 243.938851 
L 108.15743 243.938851 
L 108.15743 240.106455 
L 108.827445 240.106455 
L 108.827445 236.274059 
L 156.253608 236.274059 
L 156.253608 232.441663 
L 159.487032 232.441663 
L 159.487032 228.609267 
L 160.352514 228.609267 
L 160.352514 224.776871 
L 162.213102 224.776871 
L 162.213102 220.944475 
L 168.99148 220.944475 
L 168.99148 217.112079 
L 169.451876 217.112079 
L 169.451876 213.279683 
L 169.680159 213.279683 
L 169.680159 209.447287 
L 173.309707 209.447287 
L 173.309707 205.614891 
L 173.793258 205.614891 
L 173.793258 201.782495 
L 174.474348 201.782495 
L 174.474348 197.950099 
L 177.845191 197.950099 
L 177.907387 190.285307 
L 178.889968 190.285307 
L 178.889968 186.452911 
L 179.849662 186.452911 
L 179.849662 182.620515 
L 188.386914 182.620515 
L 188.386914 178.788119 
L 208.999457 178.788119 
L 208.999457 174.955723 
L 211.904606 174.955723 
L 211.904606 171.123327 
L 215.150361 171.123327 
L 215.150361 167.290931 
L 216.609317 167.290931 
L 216.609317 163.458535 
L 217.020283 163.458535 
L 217.020283 159.626139 
L 217.18832 159.626139 
L 217.18832 155.793743 
L 217.877264 155.793743 
L 217.877264 151.961347 
L 219.44893 151.961347 
L 219.44893 148.12895 
L 219.832655 148.12895 
L 219.832655 144.296554 
L 221.006541 144.296554 
L 221.006541 140.464158 
L 221.2026 140.464158 
L 221.2026 136.631762 
L 222.105406 136.631762 
L 222.105406 132.799366 
L 222.591544 132.799366 
L 222.591544 128.96697 
L 222.884671 128.96697 
L 222.884671 125.134574 
L 223.812983 125.134574 
L 223.85376 117.469782 
L 224.339961 117.469782 
L 224.339961 113.637386 
L 224.660936 113.637386 
L 224.720842 105.972594 
L 310.717352 105.972594 
L 310.717352 102.140198 
L 312.568786 102.140198 
L 312.568786 98.307802 
L 313.82045 98.307802 
L 313.82045 94.475406 
L 314.399495 94.475406 
L 314.399495 90.64301 
L 316.759613 90.64301 
L 316.759613 86.810614 
L 319.412911 86.810614 
L 319.412911 82.978218 
L 319.976295 82.978218 
L 319.976295 79.145822 
L 320.461794 79.145822 
L 320.461794 75.313426 
L 321.014968 75.313426 
L 321.014968 71.48103 
L 322.636842 71.48103 
L 322.636842 67.648634 
L 355.913843 67.648634 
L 355.913843 63.816238 
L 437.275606 63.816238 
L 437.275606 59.983842 
L 437.940894 59.983842 
L 437.940894 56.151446 
L 440.629134 56.151446 
L 440.629134 52.31905 
L 441.077192 52.31905 
L 441.077192 48.486653 
L 441.077192 48.486653 
L 460.8 48.486653 
L 460.8 48.486653 
" style="fill:none;stroke:#000000;stroke-linecap:square;stroke-width:1.5;"/>
   </g>
   <g id="line2d_104">
    <defs>
     <path d="M 0 14.142136 
L 8.485281 0 
L 0 -14.142136 
L -8.485281 0 
z
" id="m7ed99a2faa" style="stroke:#000000;stroke-linejoin:miter;stroke-width:1.5;"/>
    </defs>
    <g clip-path="url(#p046b22b588)">
     <use style="fill-opacity:0;stroke:#000000;stroke-linejoin:miter;stroke-width:1.5;" x="91.786602" xlink:href="#m7ed99a2faa" y="255.43604"/>
     <use style="fill-opacity:0;stroke:#000000;stroke-linejoin:miter;stroke-width:1.5;" x="173.309707" xlink:href="#m7ed99a2faa" y="209.447287"/>
     <use style="fill-opacity:0;stroke:#000000;stroke-linejoin:miter;stroke-width:1.5;" x="211.904606" xlink:href="#m7ed99a2faa" y="174.955723"/>
     <use style="fill-opacity:0;stroke:#000000;stroke-linejoin:miter;stroke-width:1.5;" x="224.660936" xlink:href="#m7ed99a2faa" y="113.637386"/>
     <use style="fill-opacity:0;stroke:#000000;stroke-linejoin:miter;stroke-width:1.5;" x="322.636842" xlink:href="#m7ed99a2faa" y="71.48103"/>
     <use style="fill-opacity:0;stroke:#000000;stroke-linejoin:miter;stroke-width:1.5;" x="440.629134" xlink:href="#m7ed99a2faa" y="56.151446"/>
     <use style="fill-opacity:0;stroke:#000000;stroke-linejoin:miter;stroke-width:1.5;" x="441.077192" xlink:href="#m7ed99a2faa" y="48.486653"/>
    </g>
   </g>
   <g id="line2d_105">
    <path clip-path="url(#p046b22b588)" style="fill:none;stroke:#000000;stroke-linecap:square;stroke-width:1.5;"/>
    <g clip-path="url(#p046b22b588)">
     <use style="fill-opacity:0;stroke:#000000;stroke-linejoin:miter;stroke-width:1.5;" x="-1" xlink:href="#m7ed99a2faa" y="581.189703"/>
     <use style="fill-opacity:0;stroke:#000000;stroke-linejoin:miter;stroke-width:1.5;" x="460.8" xlink:href="#m7ed99a2faa" y="581.189703"/>
    </g>
   </g>
   <g id="line2d_106">
    <path clip-path="url(#p046b22b588)" d="M -1 289.927604 
L 29.305476 289.927604 
L 29.305476 286.095208 
L 47.511202 286.095208 
L 47.511202 282.262812 
L 51.70516 282.262812 
L 51.70516 278.430416 
L 55.511405 278.430416 
L 55.511405 274.59802 
L 66.135258 274.59802 
L 66.135258 270.765624 
L 75.329892 270.765624 
L 75.329892 266.933228 
L 78.915197 266.933228 
L 78.915197 263.100832 
L 81.574508 263.100832 
L 81.574508 259.268436 
L 86.996114 259.268436 
L 86.996114 255.43604 
L 95.622394 255.43604 
L 95.622394 251.603644 
L 100.779744 251.603644 
L 100.779744 247.771248 
L 103.891034 247.771248 
L 103.891034 243.938851 
L 107.818292 243.938851 
L 107.818292 240.106455 
L 108.493799 240.106455 
L 108.493799 236.274059 
L 162.394622 236.274059 
L 162.394622 232.441663 
L 164.684379 232.441663 
L 164.769955 224.776871 
L 170.580851 224.776871 
L 170.580851 220.944475 
L 171.170558 220.944475 
L 171.170558 217.112079 
L 172.039589 217.112079 
L 172.111187 209.447287 
L 172.32524 209.447287 
L 172.32524 205.614891 
L 174.203262 205.614891 
L 174.203262 201.782495 
L 177.907387 201.782495 
L 177.907387 197.950099 
L 178.401606 197.950099 
L 178.401606 194.117703 
L 178.950608 194.117703 
L 178.950608 190.285307 
L 182.043164 190.285307 
L 182.043164 186.452911 
L 182.877866 186.452911 
L 182.877866 182.620515 
L 191.984266 182.620515 
L 191.984266 178.788119 
L 214.362575 178.788119 
L 214.362575 174.955723 
L 215.276025 174.955723 
L 215.276025 171.123327 
L 216.071321 171.123327 
L 216.071321 167.290931 
L 217.522352 167.290931 
L 217.546108 159.626139 
L 217.924355 159.626139 
L 217.947881 151.961347 
L 218.508502 151.961347 
L 218.508502 148.12895 
L 218.832043 148.12895 
L 218.832043 144.296554 
L 219.061598 144.296554 
L 219.061598 140.464158 
L 219.900002 140.464158 
L 219.900002 136.631762 
L 222.253969 136.631762 
L 222.253969 132.799366 
L 222.863802 132.799366 
L 222.863802 128.96697 
L 223.567471 128.96697 
L 223.567471 125.134574 
L 223.710864 125.134574 
L 223.710864 121.302178 
L 223.91485 121.302178 
L 223.955526 113.637386 
L 224.720842 113.637386 
L 224.720842 109.80499 
L 226.55508 109.80499 
L 226.55508 105.972594 
L 229.483092 105.972594 
L 229.483092 102.140198 
L 231.781976 102.140198 
L 231.781976 98.307802 
L 235.829794 98.307802 
L 235.829794 94.475406 
L 238.982346 94.475406 
L 238.982346 90.64301 
L 245.521245 90.64301 
L 245.521245 86.810614 
L 250.506777 86.810614 
L 250.506777 82.978218 
L 264.054317 82.978218 
L 264.054317 79.145822 
L 267.964811 79.145822 
L 267.964811 75.313426 
L 272.190758 75.313426 
L 272.190758 71.48103 
L 284.080943 71.48103 
L 284.080943 67.648634 
L 311.548072 67.648634 
L 311.548072 63.816238 
L 438.092701 63.816238 
L 438.092701 59.983842 
L 439.401142 59.983842 
L 439.508888 52.31905 
L 441.615037 52.31905 
L 441.615037 48.486653 
L 441.615037 48.486653 
L 460.8 48.486653 
L 460.8 48.486653 
" style="fill:none;stroke:#000000;stroke-linecap:square;stroke-width:1.5;"/>
   </g>
   <g id="line2d_107">
    <defs>
     <path d="M 0 7.5 
C 1.989023 7.5 3.896849 6.709753 5.303301 5.303301 
C 6.709753 3.896849 7.5 1.989023 7.5 0 
C 7.5 -1.989023 6.709753 -3.896849 5.303301 -5.303301 
C 3.896849 -6.709753 1.989023 -7.5 0 -7.5 
C -1.989023 -7.5 -3.896849 -6.709753 -5.303301 -5.303301 
C -6.709753 -3.896849 -7.5 -1.989023 -7.5 0 
C -7.5 1.989023 -6.709753 3.896849 -5.303301 5.303301 
C -3.896849 6.709753 -1.989023 7.5 0 7.5 
z
" id="m45eaeb5acb" style="stroke:#000000;stroke-width:1.5;"/>
    </defs>
    <g clip-path="url(#p046b22b588)">
     <use style="fill-opacity:0;stroke:#000000;stroke-width:1.5;" x="81.574508" xlink:href="#m45eaeb5acb" y="263.100832"/>
     <use style="fill-opacity:0;stroke:#000000;stroke-width:1.5;" x="164.684379" xlink:href="#m45eaeb5acb" y="232.441663"/>
     <use style="fill-opacity:0;stroke:#000000;stroke-width:1.5;" x="215.276025" xlink:href="#m45eaeb5acb" y="174.955723"/>
     <use style="fill-opacity:0;stroke:#000000;stroke-width:1.5;" x="272.190758" xlink:href="#m45eaeb5acb" y="75.313426"/>
     <use style="fill-opacity:0;stroke:#000000;stroke-width:1.5;" x="284.080943" xlink:href="#m45eaeb5acb" y="71.48103"/>
     <use style="fill-opacity:0;stroke:#000000;stroke-width:1.5;" x="441.615037" xlink:href="#m45eaeb5acb" y="52.31905"/>
     <use style="fill-opacity:0;stroke:#000000;stroke-width:1.5;" x="441.615037" xlink:href="#m45eaeb5acb" y="48.486653"/>
    </g>
   </g>
   <g id="line2d_108">
    <path clip-path="url(#p046b22b588)" style="fill:none;stroke:#000000;stroke-linecap:square;stroke-width:1.5;"/>
   </g>
   <g id="line2d_109">
    <path clip-path="url(#p046b22b588)" d="M 220.765639 293.76 
L 220.765639 289.927604 
L 224.339961 289.927604 
L 224.339961 286.095208 
L 224.640948 286.095208 
L 224.640948 282.262812 
L 224.900037 282.262812 
L 224.900037 278.430416 
L 226.133051 278.430416 
L 226.133051 274.59802 
L 229.018301 274.59802 
L 229.018301 270.765624 
L 241.381453 270.765624 
L 241.381453 266.933228 
L 242.575885 266.933228 
L 242.575885 263.100832 
L 243.000617 263.100832 
L 243.000617 259.268436 
L 245.4127 259.268436 
L 245.4127 255.43604 
L 245.497149 255.43604 
L 245.497149 251.603644 
L 245.940669 251.603644 
L 245.940669 247.771248 
L 246.273161 247.771248 
L 246.273161 243.938851 
L 246.941841 243.938851 
L 246.941841 240.106455 
L 247.301004 240.106455 
L 247.301004 236.274059 
L 265.444061 236.274059 
L 265.444061 232.441663 
L 269.862612 232.441663 
L 269.862612 228.609267 
L 273.132023 228.609267 
L 273.132023 224.776871 
L 287.680027 224.776871 
L 287.680027 220.944475 
L 311.994449 220.944475 
L 311.994449 217.112079 
L 312.620818 217.112079 
L 312.620818 213.279683 
L 313.398162 213.279683 
L 313.398162 209.447287 
L 313.707802 209.447287 
L 313.707802 205.614891 
L 314.231635 205.614891 
L 314.231635 201.782495 
L 316.624715 201.782495 
L 316.624715 197.950099 
L 318.86813 197.950099 
L 318.86813 194.117703 
L 323.466255 194.117703 
L 323.466255 190.285307 
L 323.511646 190.285307 
L 323.511646 186.452911 
L 323.768522 186.452911 
L 323.768522 182.620515 
L 324.154432 182.620515 
L 324.154432 178.788119 
L 325.18653 178.788119 
L 325.18653 174.955723 
L 326.46456 174.955723 
L 326.46456 171.123327 
L 326.97155 171.123327 
L 326.97155 167.290931 
L 327.718889 167.290931 
L 327.718889 163.458535 
L 328.759202 163.458535 
L 328.759202 159.626139 
L 328.945704 159.626139 
L 328.945704 155.793743 
L 331.48526 155.793743 
L 331.48526 151.961347 
L 331.857418 151.961347 
L 331.857418 148.12895 
L 331.949195 148.12895 
L 331.949195 144.296554 
L 334.603238 144.296554 
L 334.603238 140.464158 
L 349.347977 140.464158 
L 349.347977 136.631762 
L 357.289178 136.631762 
L 357.289178 132.799366 
L 358.606151 132.799366 
L 358.606151 128.96697 
L 358.867801 128.96697 
L 358.867801 125.134574 
L 362.836584 125.134574 
L 362.836584 121.302178 
L 362.836584 121.302178 
L 362.836584 121.302178 
L 460.8 121.302178 
" style="fill:none;stroke:#00bfbf;stroke-linecap:square;stroke-width:1.5;"/>
   </g>
   <g id="line2d_110">
    <defs>
     <path d="M 0 14.142136 
L 8.485281 0 
L 0 -14.142136 
L -8.485281 0 
z
" id="m4401bec3f9" style="stroke:#00bfbf;stroke-linejoin:miter;stroke-width:1.5;"/>
    </defs>
    <g clip-path="url(#p046b22b588)">
     <use style="fill-opacity:0;stroke:#00bfbf;stroke-linejoin:miter;stroke-width:1.5;" x="273.132023" xlink:href="#m4401bec3f9" y="228.609267"/>
     <use style="fill-opacity:0;stroke:#00bfbf;stroke-linejoin:miter;stroke-width:1.5;" x="326.97155" xlink:href="#m4401bec3f9" y="171.123327"/>
     <use style="fill-opacity:0;stroke:#00bfbf;stroke-linejoin:miter;stroke-width:1.5;" x="362.836584" xlink:href="#m4401bec3f9" y="125.134574"/>
     <use style="fill-opacity:0;stroke:#00bfbf;stroke-linejoin:miter;stroke-width:1.5;" x="362.836584" xlink:href="#m4401bec3f9" y="121.302178"/>
    </g>
   </g>
   <g id="line2d_111">
    <path clip-path="url(#p046b22b588)" style="fill:none;stroke:#00bfbf;stroke-linecap:square;stroke-width:1.5;"/>
    <g clip-path="url(#p046b22b588)">
     <use style="fill-opacity:0;stroke:#00bfbf;stroke-linejoin:miter;stroke-width:1.5;" x="-1" xlink:href="#m4401bec3f9" y="581.189703"/>
     <use style="fill-opacity:0;stroke:#00bfbf;stroke-linejoin:miter;stroke-width:1.5;" x="460.8" xlink:href="#m4401bec3f9" y="581.189703"/>
    </g>
   </g>
   <g id="line2d_112">
    <path clip-path="url(#p046b22b588)" d="M 224.700883 293.76 
L 224.700883 289.927604 
L 225.432996 289.927604 
L 225.432996 286.095208 
L 229.287089 286.095208 
L 229.287089 282.262812 
L 230.743497 282.262812 
L 230.743497 278.430416 
L 230.760734 278.430416 
L 230.760734 274.59802 
L 231.865948 274.59802 
L 231.865948 270.765624 
L 239.459521 270.765624 
L 239.459521 266.933228 
L 240.574541 266.933228 
L 240.574541 263.100832 
L 241.937035 263.100832 
L 241.937035 259.268436 
L 243.319493 259.268436 
L 243.319493 255.43604 
L 244.024946 255.43604 
L 244.024946 251.603644 
L 245.460978 251.603644 
L 245.460978 247.771248 
L 245.497149 247.771248 
L 245.497149 243.938851 
L 246.941841 243.938851 
L 246.941841 240.106455 
L 247.896528 240.106455 
L 247.896528 236.274059 
L 248.662527 236.274059 
L 248.662527 232.441663 
L 249.029191 232.441663 
L 249.029191 228.609267 
L 249.63314 228.609267 
L 249.63314 224.776871 
L 249.839736 224.776871 
L 249.839736 220.944475 
L 250.012912 220.944475 
L 250.012912 217.112079 
L 255.030249 217.112079 
L 255.030249 213.279683 
L 255.306634 213.279683 
L 255.306634 209.447287 
L 255.675425 209.447287 
L 255.675425 205.614891 
L 256.068927 205.614891 
L 256.068927 201.782495 
L 257.326983 201.782495 
L 257.326983 197.950099 
L 259.416551 197.950099 
L 259.416551 194.117703 
L 260.460631 194.117703 
L 260.460631 190.285307 
L 260.769597 190.285307 
L 260.769597 186.452911 
L 262.448673 186.452911 
L 262.448673 182.620515 
L 263.520837 182.620515 
L 263.520837 178.788119 
L 264.268847 178.788119 
L 264.268847 174.955723 
L 265.153385 174.955723 
L 265.153385 171.123327 
L 270.79928 171.123327 
L 270.79928 167.290931 
L 270.94901 167.290931 
L 270.94901 163.458535 
L 270.955507 163.458535 
L 270.955507 159.626139 
L 277.772449 159.626139 
L 277.772449 155.793743 
L 286.319973 155.793743 
L 286.319973 151.961347 
L 288.756896 151.961347 
L 288.756896 148.12895 
L 289.259965 148.12895 
L 289.259965 144.296554 
L 292.407528 144.296554 
L 292.407528 140.464158 
L 292.715202 140.464158 
L 292.715202 136.631762 
L 308.941936 136.631762 
L 308.941936 132.799366 
L 314.634257 132.799366 
L 314.634257 128.96697 
L 321.452222 128.96697 
L 321.452222 125.134574 
L 376.569758 125.134574 
L 376.569758 121.302178 
L 376.569758 121.302178 
L 376.569758 121.302178 
L 460.8 121.302178 
" style="fill:none;stroke:#00bfbf;stroke-linecap:square;stroke-width:1.5;"/>
   </g>
   <g id="line2d_113">
    <defs>
     <path d="M 0 7.5 
C 1.989023 7.5 3.896849 6.709753 5.303301 5.303301 
C 6.709753 3.896849 7.5 1.989023 7.5 0 
C 7.5 -1.989023 6.709753 -3.896849 5.303301 -5.303301 
C 3.896849 -6.709753 1.989023 -7.5 0 -7.5 
C -1.989023 -7.5 -3.896849 -6.709753 -5.303301 -5.303301 
C -6.709753 -3.896849 -7.5 -1.989023 -7.5 0 
C -7.5 1.989023 -6.709753 3.896849 -5.303301 5.303301 
C -3.896849 6.709753 -1.989023 7.5 0 7.5 
z
" id="m889a5b98fa" style="stroke:#00bfbf;stroke-width:1.5;"/>
    </defs>
    <g clip-path="url(#p046b22b588)">
     <use style="fill-opacity:0;stroke:#00bfbf;stroke-width:1.5;" x="250.012912" xlink:href="#m889a5b98fa" y="220.944475"/>
     <use style="fill-opacity:0;stroke:#00bfbf;stroke-width:1.5;" x="289.259965" xlink:href="#m889a5b98fa" y="148.12895"/>
     <use style="fill-opacity:0;stroke:#00bfbf;stroke-width:1.5;" x="376.569758" xlink:href="#m889a5b98fa" y="125.134574"/>
     <use style="fill-opacity:0;stroke:#00bfbf;stroke-width:1.5;" x="376.569758" xlink:href="#m889a5b98fa" y="121.302178"/>
    </g>
   </g>
   <g id="line2d_114">
    <path clip-path="url(#p046b22b588)" style="fill:none;stroke:#00bfbf;stroke-linecap:square;stroke-width:1.5;"/>
   </g>
   <g id="line2d_115">
    <path clip-path="url(#p046b22b588)" d="M 272.140285 293.76 
L 272.140285 289.927604 
L 275.146531 289.927604 
L 275.146531 286.095208 
L 275.415616 286.095208 
L 275.415616 282.262812 
L 275.619184 282.262812 
L 275.619184 278.430416 
L 276.881856 278.430416 
L 276.881856 274.59802 
L 276.904357 274.59802 
L 276.904357 270.765624 
L 277.145471 270.765624 
L 277.145471 266.933228 
L 278.29771 266.933228 
L 278.29771 263.100832 
L 279.174502 263.100832 
L 279.174502 259.268436 
L 281.052393 259.268436 
L 281.052393 255.43604 
L 282.506221 255.43604 
L 282.506221 251.603644 
L 282.974798 251.603644 
L 282.974798 247.771248 
L 283.686906 247.771248 
L 283.686906 243.938851 
L 286.086617 243.938851 
L 286.086617 240.106455 
L 300.033172 240.106455 
L 300.033172 236.274059 
L 300.8212 236.274059 
L 300.8212 232.441663 
L 302.745783 232.441663 
L 302.745783 228.609267 
L 304.739301 228.609267 
L 304.739301 224.776871 
L 327.204479 224.776871 
L 327.204479 220.944475 
L 327.277415 220.944475 
L 327.277415 217.112079 
L 327.776197 217.112079 
L 327.776197 213.279683 
L 328.08104 213.279683 
L 328.08104 209.447287 
L 329.540978 209.447287 
L 329.540978 205.614891 
L 329.695881 205.614891 
L 329.695881 201.782495 
L 331.19112 201.782495 
L 331.19112 197.950099 
L 331.808485 197.950099 
L 331.808485 194.117703 
L 332.421123 194.117703 
L 332.421123 190.285307 
L 333.494592 190.285307 
L 333.494592 186.452911 
L 335.004717 186.452911 
L 335.004717 182.620515 
L 336.380528 182.620515 
L 336.380528 178.788119 
L 338.721501 178.788119 
L 338.721501 174.955723 
L 340.275058 174.955723 
L 340.275058 171.123327 
L 341.176051 171.123327 
L 341.176051 167.290931 
L 341.416472 167.290931 
L 341.416472 163.458535 
L 342.837077 163.458535 
L 342.837077 159.626139 
L 343.608611 159.626139 
L 343.608611 155.793743 
L 344.215823 155.793743 
L 344.215823 151.961347 
L 345.472256 151.961347 
L 345.472256 148.12895 
L 345.503128 148.12895 
L 345.503128 144.296554 
L 346.318658 144.296554 
L 346.318658 140.464158 
L 358.756089 140.464158 
L 358.756089 136.631762 
L 365.176034 136.631762 
L 365.176034 132.799366 
L 367.515951 132.799366 
L 367.515951 128.96697 
L 368.354379 128.96697 
L 368.354379 125.134574 
L 405.746874 125.134574 
L 405.746874 121.302178 
L 405.746874 121.302178 
L 405.746874 121.302178 
L 460.8 121.302178 
" style="fill:none;stroke:#bf00bf;stroke-linecap:square;stroke-width:1.5;"/>
   </g>
   <g id="line2d_116">
    <defs>
     <path d="M 0 14.142136 
L 8.485281 0 
L 0 -14.142136 
L -8.485281 0 
z
" id="mec0da41400" style="stroke:#bf00bf;stroke-linejoin:miter;stroke-width:1.5;"/>
    </defs>
    <g clip-path="url(#p046b22b588)">
     <use style="fill-opacity:0;stroke:#bf00bf;stroke-linejoin:miter;stroke-width:1.5;" x="302.745783" xlink:href="#mec0da41400" y="232.441663"/>
     <use style="fill-opacity:0;stroke:#bf00bf;stroke-linejoin:miter;stroke-width:1.5;" x="341.416472" xlink:href="#mec0da41400" y="167.290931"/>
     <use style="fill-opacity:0;stroke:#bf00bf;stroke-linejoin:miter;stroke-width:1.5;" x="368.354379" xlink:href="#mec0da41400" y="128.96697"/>
     <use style="fill-opacity:0;stroke:#bf00bf;stroke-linejoin:miter;stroke-width:1.5;" x="405.746874" xlink:href="#mec0da41400" y="121.302178"/>
    </g>
   </g>
   <g id="line2d_117">
    <path clip-path="url(#p046b22b588)" style="fill:none;stroke:#bf00bf;stroke-linecap:square;stroke-width:1.5;"/>
    <g clip-path="url(#p046b22b588)">
     <use style="fill-opacity:0;stroke:#bf00bf;stroke-linejoin:miter;stroke-width:1.5;" x="-1" xlink:href="#mec0da41400" y="581.189703"/>
     <use style="fill-opacity:0;stroke:#bf00bf;stroke-linejoin:miter;stroke-width:1.5;" x="460.8" xlink:href="#mec0da41400" y="581.189703"/>
    </g>
   </g>
   <g id="line2d_118">
    <path clip-path="url(#p046b22b588)" d="M 259.588131 293.76 
L 259.588131 289.927604 
L 264.920863 289.927604 
L 264.920863 286.095208 
L 265.048538 286.095208 
L 265.048538 282.262812 
L 265.488599 282.262812 
L 265.488599 278.430416 
L 266.289435 278.430416 
L 266.289435 274.59802 
L 268.876831 274.59802 
L 268.876831 270.765624 
L 269.419903 270.765624 
L 269.419903 266.933228 
L 270.121994 266.933228 
L 270.121994 263.100832 
L 270.300614 263.100832 
L 270.300614 259.268436 
L 270.740541 259.268436 
L 270.740541 255.43604 
L 271.000962 255.43604 
L 271.000962 251.603644 
L 271.000962 251.603644 
L 271.000962 247.771248 
L 273.11353 247.771248 
L 273.11353 243.938851 
L 276.086478 243.938851 
L 276.086478 240.106455 
L 278.800249 240.106455 
L 278.800249 236.274059 
L 280.380794 236.274059 
L 280.380794 232.441663 
L 280.509809 232.441663 
L 280.509809 228.609267 
L 281.386654 228.609267 
L 281.386654 224.776871 
L 283.763159 224.776871 
L 283.763159 220.944475 
L 283.786959 220.944475 
L 283.786959 217.112079 
L 285.779453 217.112079 
L 285.779453 213.279683 
L 286.140586 213.279683 
L 286.140586 209.447287 
L 287.410712 209.447287 
L 287.410712 205.614891 
L 288.566651 205.614891 
L 288.566651 201.782495 
L 288.663997 201.782495 
L 288.663997 197.950099 
L 289.122233 197.950099 
L 289.122233 194.117703 
L 289.78166 194.117703 
L 289.78166 190.285307 
L 290.117661 190.285307 
L 290.117661 186.452911 
L 291.101564 186.452911 
L 291.101564 182.620515 
L 291.37559 182.620515 
L 291.37559 178.788119 
L 292.55396 178.788119 
L 292.55396 174.955723 
L 293.778055 174.955723 
L 293.778055 171.123327 
L 295.028459 171.123327 
L 295.028459 167.290931 
L 295.700344 167.290931 
L 295.700344 163.458535 
L 303.953429 163.458535 
L 303.953429 159.626139 
L 322.24574 159.626139 
L 322.24574 155.793743 
L 323.258636 155.793743 
L 323.258636 151.961347 
L 325.661192 151.961347 
L 325.661192 148.12895 
L 326.420619 148.12895 
L 326.420619 144.296554 
L 335.357424 144.296554 
L 335.357424 140.464158 
L 338.473614 140.464158 
L 338.473614 136.631762 
L 348.404751 136.631762 
L 348.404751 132.799366 
L 380.666581 132.799366 
L 380.666581 128.96697 
L 418.783951 128.96697 
L 418.783951 125.134574 
L 439.030815 125.134574 
L 439.030815 121.302178 
L 439.030815 121.302178 
L 439.030815 121.302178 
L 460.8 121.302178 
" style="fill:none;stroke:#bf00bf;stroke-linecap:square;stroke-width:1.5;"/>
   </g>
   <g id="line2d_119">
    <defs>
     <path d="M 0 7.5 
C 1.989023 7.5 3.896849 6.709753 5.303301 5.303301 
C 6.709753 3.896849 7.5 1.989023 7.5 0 
C 7.5 -1.989023 6.709753 -3.896849 5.303301 -5.303301 
C 3.896849 -6.709753 1.989023 -7.5 0 -7.5 
C -1.989023 -7.5 -3.896849 -6.709753 -5.303301 -5.303301 
C -6.709753 -3.896849 -7.5 -1.989023 -7.5 0 
C -7.5 1.989023 -6.709753 3.896849 -5.303301 5.303301 
C -3.896849 6.709753 -1.989023 7.5 0 7.5 
z
" id="m95276dfad6" style="stroke:#bf00bf;stroke-width:1.5;"/>
    </defs>
    <g clip-path="url(#p046b22b588)">
     <use style="fill-opacity:0;stroke:#bf00bf;stroke-width:1.5;" x="288.663997" xlink:href="#m95276dfad6" y="201.782495"/>
     <use style="fill-opacity:0;stroke:#bf00bf;stroke-width:1.5;" x="323.258636" xlink:href="#m95276dfad6" y="155.793743"/>
     <use style="fill-opacity:0;stroke:#bf00bf;stroke-width:1.5;" x="380.666581" xlink:href="#m95276dfad6" y="132.799366"/>
     <use style="fill-opacity:0;stroke:#bf00bf;stroke-width:1.5;" x="439.030815" xlink:href="#m95276dfad6" y="121.302178"/>
    </g>
   </g>
   <g id="line2d_120">
    <path clip-path="url(#p046b22b588)" style="fill:none;stroke:#bf00bf;stroke-linecap:square;stroke-width:1.5;"/>
   </g>
   <g id="line2d_121">
    <path clip-path="url(#p046b22b588)" d="M 295.071905 293.76 
L 295.071905 289.927604 
L 295.29565 289.927604 
L 295.29565 286.095208 
L 295.485957 286.095208 
L 295.485957 282.262812 
L 295.564695 282.262812 
L 295.564695 278.430416 
L 297.12932 278.430416 
L 297.12932 274.59802 
L 298.527037 274.59802 
L 298.527037 270.765624 
L 299.591299 270.765624 
L 299.591299 266.933228 
L 300.27627 266.933228 
L 300.27627 263.100832 
L 302.991355 263.100832 
L 302.991355 259.268436 
L 310.744572 259.268436 
L 310.744572 255.43604 
L 312.047211 255.43604 
L 312.047211 251.603644 
L 314.270258 251.603644 
L 314.270258 247.771248 
L 316.603262 247.771248 
L 316.603262 243.938851 
L 318.898586 243.938851 
L 318.898586 240.106455 
L 324.079329 240.106455 
L 324.079329 236.274059 
L 324.199072 236.274059 
L 324.199072 232.441663 
L 326.295299 232.441663 
L 326.295299 228.609267 
L 329.45781 228.609267 
L 329.45781 224.776871 
L 334.955261 224.776871 
L 334.955261 220.944475 
L 340.577184 220.944475 
L 340.577184 217.112079 
L 342.401102 217.112079 
L 342.401102 213.279683 
L 343.522727 213.279683 
L 343.522727 209.447287 
L 345.887616 209.447287 
L 345.887616 205.614891 
L 346.270638 205.614891 
L 346.270638 201.782495 
L 346.620109 201.782495 
L 346.620109 197.950099 
L 346.901887 197.950099 
L 346.901887 194.117703 
L 347.159269 194.117703 
L 347.159269 190.285307 
L 347.243006 190.285307 
L 347.243006 186.452911 
L 347.484076 186.452911 
L 347.484076 182.620515 
L 348.855526 182.620515 
L 348.855526 178.788119 
L 351.146979 178.788119 
L 351.146979 174.955723 
L 352.462898 174.955723 
L 352.462898 171.123327 
L 354.236972 171.123327 
L 354.236972 167.290931 
L 355.732427 167.290931 
L 355.732427 163.458535 
L 356.20295 163.458535 
L 356.20295 159.626139 
L 356.500638 159.626139 
L 356.500638 155.793743 
L 357.032563 155.793743 
L 357.032563 151.961347 
L 357.68855 151.961347 
L 357.68855 148.12895 
L 359.59533 148.12895 
L 359.59533 144.296554 
L 359.642171 144.296554 
L 359.642171 140.464158 
L 370.729247 140.464158 
L 370.729247 136.631762 
L 371.386865 136.631762 
L 371.386865 132.799366 
L 377.197322 132.799366 
L 377.197322 128.96697 
L 378.9401 128.96697 
L 378.9401 125.134574 
L 415.235377 125.134574 
L 415.235377 121.302178 
L 415.235377 121.302178 
L 415.235377 121.302178 
L 460.8 121.302178 
" style="fill:none;stroke:#ff0000;stroke-linecap:square;stroke-width:3;"/>
   </g>
   <g id="line2d_122">
    <defs>
     <path d="M 0 14.142136 
L 8.485281 0 
L 0 -14.142136 
L -8.485281 0 
z
" id="mdebd9f75d1" style="stroke:#ff0000;stroke-linejoin:miter;stroke-width:3;"/>
    </defs>
    <g clip-path="url(#p046b22b588)">
     <use style="fill-opacity:0;stroke:#ff0000;stroke-linejoin:miter;stroke-width:3;" x="316.603262" xlink:href="#mdebd9f75d1" y="247.771248"/>
     <use style="fill-opacity:0;stroke:#ff0000;stroke-linejoin:miter;stroke-width:3;" x="347.243006" xlink:href="#mdebd9f75d1" y="190.285307"/>
     <use style="fill-opacity:0;stroke:#ff0000;stroke-linejoin:miter;stroke-width:3;" x="378.9401" xlink:href="#mdebd9f75d1" y="128.96697"/>
     <use style="fill-opacity:0;stroke:#ff0000;stroke-linejoin:miter;stroke-width:3;" x="415.235377" xlink:href="#mdebd9f75d1" y="121.302178"/>
    </g>
   </g>
   <g id="line2d_123">
    <path clip-path="url(#p046b22b588)" style="fill:none;stroke:#ff0000;stroke-linecap:square;stroke-width:3;"/>
    <g clip-path="url(#p046b22b588)">
     <use style="fill-opacity:0;stroke:#ff0000;stroke-linejoin:miter;stroke-width:3;" x="-1" xlink:href="#mdebd9f75d1" y="581.189703"/>
     <use style="fill-opacity:0;stroke:#ff0000;stroke-linejoin:miter;stroke-width:3;" x="460.8" xlink:href="#mdebd9f75d1" y="581.189703"/>
    </g>
   </g>
   <g id="line2d_124">
    <path clip-path="url(#p046b22b588)" d="M 279.217059 293.76 
L 279.217059 289.927604 
L 283.834518 289.927604 
L 283.834518 286.095208 
L 284.592755 286.095208 
L 284.592755 282.262812 
L 284.881065 282.262812 
L 284.881065 278.430416 
L 286.458462 278.430416 
L 286.458462 274.59802 
L 286.618706 274.59802 
L 286.618706 270.765624 
L 287.253524 270.765624 
L 287.253524 266.933228 
L 287.323459 266.933228 
L 287.323459 263.100832 
L 287.47603 263.100832 
L 287.47603 259.268436 
L 287.887326 259.268436 
L 287.887326 255.43604 
L 288.511527 255.43604 
L 288.511527 251.603644 
L 289.591964 251.603644 
L 289.591964 247.771248 
L 294.042322 247.771248 
L 294.042322 243.938851 
L 297.427722 243.938851 
L 297.427722 240.106455 
L 297.778231 240.106455 
L 297.778231 236.274059 
L 309.442829 236.274059 
L 309.442829 232.441663 
L 310.620699 232.441663 
L 310.620699 228.609267 
L 310.695067 228.609267 
L 310.695067 224.776871 
L 311.236372 224.776871 
L 311.236372 220.944475 
L 311.635314 220.944475 
L 311.635314 217.112079 
L 311.777896 217.112079 
L 311.777896 213.279683 
L 312.152534 213.279683 
L 312.152534 209.447287 
L 313.081503 209.447287 
L 313.081503 205.614891 
L 313.980843 205.614891 
L 313.980843 201.782495 
L 314.528328 201.782495 
L 314.528328 197.950099 
L 314.787034 197.950099 
L 314.787034 194.117703 
L 318.593015 194.117703 
L 318.593015 190.285307 
L 321.17084 190.285307 
L 321.17084 186.452911 
L 321.358641 186.452911 
L 321.358641 182.620515 
L 324.297109 182.620515 
L 324.297109 178.788119 
L 325.396818 178.788119 
L 325.396818 174.955723 
L 327.401439 174.955723 
L 327.401439 171.123327 
L 329.747386 171.123327 
L 329.747386 167.290931 
L 330.113863 167.290931 
L 330.113863 163.458535 
L 336.071305 163.458535 
L 336.071305 159.626139 
L 336.349975 159.626139 
L 336.349975 155.793743 
L 340.472714 155.793743 
L 340.472714 151.961347 
L 342.732499 151.961347 
L 342.732499 148.12895 
L 347.947988 148.12895 
L 347.947988 144.296554 
L 349.621393 144.296554 
L 349.621393 140.464158 
L 352.702173 140.464158 
L 352.702173 136.631762 
L 358.361528 136.631762 
L 358.361528 132.799366 
L 388.275735 132.799366 
L 388.275735 128.96697 
L 420.763073 128.96697 
L 420.763073 125.134574 
L 440.534461 125.134574 
L 440.534461 121.302178 
L 440.534461 121.302178 
L 440.534461 121.302178 
L 460.8 121.302178 
" style="fill:none;stroke:#ff0000;stroke-linecap:square;stroke-width:3;"/>
   </g>
   <g id="line2d_125">
    <defs>
     <path d="M 0 7.5 
C 1.989023 7.5 3.896849 6.709753 5.303301 5.303301 
C 6.709753 3.896849 7.5 1.989023 7.5 0 
C 7.5 -1.989023 6.709753 -3.896849 5.303301 -5.303301 
C 3.896849 -6.709753 1.989023 -7.5 0 -7.5 
C -1.989023 -7.5 -3.896849 -6.709753 -5.303301 -5.303301 
C -6.709753 -3.896849 -7.5 -1.989023 -7.5 0 
C -7.5 1.989023 -6.709753 3.896849 -5.303301 5.303301 
C -3.896849 6.709753 -1.989023 7.5 0 7.5 
z
" id="mcb8f6a29de" style="stroke:#ff0000;stroke-width:3;"/>
    </defs>
    <g clip-path="url(#p046b22b588)">
     <use style="fill-opacity:0;stroke:#ff0000;stroke-width:3;" x="321.17084" xlink:href="#mcb8f6a29de" y="190.285307"/>
     <use style="fill-opacity:0;stroke:#ff0000;stroke-width:3;" x="352.702173" xlink:href="#mcb8f6a29de" y="140.464158"/>
     <use style="fill-opacity:0;stroke:#ff0000;stroke-width:3;" x="440.534461" xlink:href="#mcb8f6a29de" y="125.134574"/>
     <use style="fill-opacity:0;stroke:#ff0000;stroke-width:3;" x="440.534461" xlink:href="#mcb8f6a29de" y="121.302178"/>
    </g>
   </g>
   <g id="line2d_126">
    <path clip-path="url(#p046b22b588)" style="fill:none;stroke:#ff0000;stroke-linecap:square;stroke-width:3;"/>
   </g>
   <g id="line2d_127">
    <path clip-path="url(#p046b22b588)" d="M 441.762663 293.76 
L 441.762663 3.456 
" style="fill:none;stroke:#000000;stroke-linecap:square;stroke-width:1.5;"/>
    <defs>
     <path d="M -10 0 
L 10 0 
M 0 10 
L 0 -10 
" id="mb841d1ed08" style="stroke:#000000;stroke-width:3;"/>
    </defs>
    <g clip-path="url(#p046b22b588)">
     <use style="stroke:#000000;stroke-width:3;" x="441.762663" xlink:href="#mb841d1ed08" y="293.76"/>
     <use style="stroke:#000000;stroke-width:3;" x="441.762663" xlink:href="#mb841d1ed08" y="3.456"/>
    </g>
   </g>
   <g id="line2d_128">
    <path clip-path="url(#p046b22b588)" d="M 441.769352 293.76 
L 441.769352 3.456 
" style="fill:none;stroke:#000000;stroke-linecap:square;stroke-width:1.5;"/>
    <defs>
     <path d="M 0 7.5 
C 1.989023 7.5 3.896849 6.709753 5.303301 5.303301 
C 6.709753 3.896849 7.5 1.989023 7.5 0 
C 7.5 -1.989023 6.709753 -3.896849 5.303301 -5.303301 
C 3.896849 -6.709753 1.989023 -7.5 0 -7.5 
C -1.989023 -7.5 -3.896849 -6.709753 -5.303301 -5.303301 
C -6.709753 -3.896849 -7.5 -1.989023 -7.5 0 
C -7.5 1.989023 -6.709753 3.896849 -5.303301 5.303301 
C -3.896849 6.709753 -1.989023 7.5 0 7.5 
z
" id="m835ac0d693" style="stroke:#000000;stroke-width:3;"/>
    </defs>
    <g clip-path="url(#p046b22b588)">
     <use style="fill-opacity:0;stroke:#000000;stroke-width:3;" x="441.769352" xlink:href="#m835ac0d693" y="293.76"/>
     <use style="fill-opacity:0;stroke:#000000;stroke-width:3;" x="441.769352" xlink:href="#m835ac0d693" y="3.456"/>
    </g>
   </g>
   <g id="patch_3">
    <path d="M 62.208 293.76 
L 62.208 3.456 
" style="fill:none;stroke:#000000;stroke-linecap:square;stroke-linejoin:miter;stroke-width:0.8;"/>
   </g>
   <g id="patch_4">
    <path d="M 460.8 293.76 
L 460.8 3.456 
" style="fill:none;stroke:#000000;stroke-linecap:square;stroke-linejoin:miter;stroke-width:0.8;"/>
   </g>
   <g id="patch_5">
    <path d="M 62.208 293.76 
L 460.8 293.76 
" style="fill:none;stroke:#000000;stroke-linecap:square;stroke-linejoin:miter;stroke-width:0.8;"/>
   </g>
   <g id="patch_6">
    <path d="M 62.208 3.456 
L 460.8 3.456 
" style="fill:none;stroke:#000000;stroke-linecap:square;stroke-linejoin:miter;stroke-width:0.8;"/>
   </g>
   <g id="text_12">
    <!-- f10-f14 -->
    <g transform="translate(225.405563 24.458955)scale(0.2 -0.2)">
     <defs>
      <path d="M 313 2009 
L 1997 2009 
L 1997 1497 
L 313 1497 
L 313 2009 
z
" id="DejaVuSans-2d" transform="scale(0.015625)"/>
     </defs>
     <use xlink:href="#DejaVuSans-66"/>
     <use x="35.205078" xlink:href="#DejaVuSans-31"/>
     <use x="98.828125" xlink:href="#DejaVuSans-30"/>
     <use x="162.451172" xlink:href="#DejaVuSans-2d"/>
     <use x="198.535156" xlink:href="#DejaVuSans-66"/>
     <use x="233.740234" xlink:href="#DejaVuSans-31"/>
     <use x="297.363281" xlink:href="#DejaVuSans-34"/>
    </g>
   </g>
   <g id="text_13">
    <!-- absolute targets -->
    <g transform="translate(62.208 609.932673)scale(0.14 -0.14)">
     <defs>
      <path d="M 3116 1747 
Q 3116 2381 2855 2742 
Q 2594 3103 2138 3103 
Q 1681 3103 1420 2742 
Q 1159 2381 1159 1747 
Q 1159 1113 1420 752 
Q 1681 391 2138 391 
Q 2594 391 2855 752 
Q 3116 1113 3116 1747 
z
M 1159 2969 
Q 1341 3281 1617 3432 
Q 1894 3584 2278 3584 
Q 2916 3584 3314 3078 
Q 3713 2572 3713 1747 
Q 3713 922 3314 415 
Q 2916 -91 2278 -91 
Q 1894 -91 1617 61 
Q 1341 213 1159 525 
L 1159 0 
L 581 0 
L 581 4863 
L 1159 4863 
L 1159 2969 
z
" id="DejaVuSans-62" transform="scale(0.015625)"/>
      <path d="M 544 1381 
L 544 3500 
L 1119 3500 
L 1119 1403 
Q 1119 906 1312 657 
Q 1506 409 1894 409 
Q 2359 409 2629 706 
Q 2900 1003 2900 1516 
L 2900 3500 
L 3475 3500 
L 3475 0 
L 2900 0 
L 2900 538 
Q 2691 219 2414 64 
Q 2138 -91 1772 -91 
Q 1169 -91 856 284 
Q 544 659 544 1381 
z
M 1991 3584 
L 1991 3584 
z
" id="DejaVuSans-75" transform="scale(0.015625)"/>
      <path d="M 3597 1894 
L 3597 1613 
L 953 1613 
Q 991 1019 1311 708 
Q 1631 397 2203 397 
Q 2534 397 2845 478 
Q 3156 559 3463 722 
L 3463 178 
Q 3153 47 2828 -22 
Q 2503 -91 2169 -91 
Q 1331 -91 842 396 
Q 353 884 353 1716 
Q 353 2575 817 3079 
Q 1281 3584 2069 3584 
Q 2775 3584 3186 3129 
Q 3597 2675 3597 1894 
z
M 3022 2063 
Q 3016 2534 2758 2815 
Q 2500 3097 2075 3097 
Q 1594 3097 1305 2825 
Q 1016 2553 972 2059 
L 3022 2063 
z
" id="DejaVuSans-65" transform="scale(0.015625)"/>
     </defs>
     <use xlink:href="#DejaVuSans-61"/>
     <use x="61.279297" xlink:href="#DejaVuSans-62"/>
     <use x="124.755859" xlink:href="#DejaVuSans-73"/>
     <use x="176.855469" xlink:href="#DejaVuSans-6f"/>
     <use x="238.037109" xlink:href="#DejaVuSans-6c"/>
     <use x="265.820312" xlink:href="#DejaVuSans-75"/>
     <use x="329.199219" xlink:href="#DejaVuSans-74"/>
     <use x="368.408203" xlink:href="#DejaVuSans-65"/>
     <use x="429.931641" xlink:href="#DejaVuSans-20"/>
     <use x="461.71875" xlink:href="#DejaVuSans-74"/>
     <use x="500.927734" xlink:href="#DejaVuSans-61"/>
     <use x="562.207031" xlink:href="#DejaVuSans-72"/>
     <use x="601.570312" xlink:href="#DejaVuSans-67"/>
     <use x="665.046875" xlink:href="#DejaVuSans-65"/>
     <use x="726.570312" xlink:href="#DejaVuSans-74"/>
     <use x="765.779297" xlink:href="#DejaVuSans-73"/>
    </g>
   </g>
   <g id="text_14">
    <!-- v2.6.3 -->
    <g style="fill:#808080;" transform="translate(245.82275 288.777272)scale(0.1 -0.1)">
     <defs>
      <path d="M 2597 2516 
Q 3050 2419 3304 2112 
Q 3559 1806 3559 1356 
Q 3559 666 3084 287 
Q 2609 -91 1734 -91 
Q 1441 -91 1130 -33 
Q 819 25 488 141 
L 488 750 
Q 750 597 1062 519 
Q 1375 441 1716 441 
Q 2309 441 2620 675 
Q 2931 909 2931 1356 
Q 2931 1769 2642 2001 
Q 2353 2234 1838 2234 
L 1294 2234 
L 1294 2753 
L 1863 2753 
Q 2328 2753 2575 2939 
Q 2822 3125 2822 3475 
Q 2822 3834 2567 4026 
Q 2313 4219 1838 4219 
Q 1578 4219 1281 4162 
Q 984 4106 628 3988 
L 628 4550 
Q 988 4650 1302 4700 
Q 1616 4750 1894 4750 
Q 2613 4750 3031 4423 
Q 3450 4097 3450 3541 
Q 3450 3153 3228 2886 
Q 3006 2619 2597 2516 
z
" id="DejaVuSans-33" transform="scale(0.015625)"/>
     </defs>
     <use xlink:href="#DejaVuSans-76"/>
     <use x="59.179688" xlink:href="#DejaVuSans-32"/>
     <use x="122.802734" xlink:href="#DejaVuSans-2e"/>
     <use x="154.589844" xlink:href="#DejaVuSans-36"/>
     <use x="218.212891" xlink:href="#DejaVuSans-2e"/>
     <use x="250" xlink:href="#DejaVuSans-33"/>
    </g>
   </g>
   <g id="legend_1">
    <g id="patch_7">
     <path d="M 76.208 136.881 
L 160.148625 136.881 
Q 164.148625 136.881 164.148625 132.881 
L 164.148625 17.456 
Q 164.148625 13.456 160.148625 13.456 
L 76.208 13.456 
Q 72.208 13.456 72.208 17.456 
L 72.208 132.881 
Q 72.208 136.881 76.208 136.881 
z
" style="fill:#ffffff;opacity:0.2;stroke:#cccccc;stroke-linejoin:miter;"/>
    </g>
    <g id="line2d_129">
     <path d="M 80.208 29.652875 
L 120.208 29.652875 
" style="fill:none;stroke:#000000;stroke-linecap:square;stroke-width:1.5;"/>
    </g>
    <g id="line2d_130"/>
    <g id="text_15">
     <!-- 1 -->
     <g transform="translate(136.208 36.652875)scale(0.2 -0.2)">
      <use xlink:href="#DejaVuSans-31"/>
     </g>
    </g>
    <g id="line2d_131">
     <path d="M 80.208 59.009125 
L 120.208 59.009125 
" style="fill:none;stroke:#00bfbf;stroke-linecap:square;stroke-width:1.5;"/>
    </g>
    <g id="line2d_132"/>
    <g id="text_16">
     <!-- -1 -->
     <g transform="translate(136.208 66.009125)scale(0.2 -0.2)">
      <use xlink:href="#DejaVuSans-2d"/>
      <use x="36.083984" xlink:href="#DejaVuSans-31"/>
     </g>
    </g>
    <g id="line2d_133">
     <path d="M 80.208 88.365375 
L 120.208 88.365375 
" style="fill:none;stroke:#bf00bf;stroke-linecap:square;stroke-width:1.5;"/>
    </g>
    <g id="line2d_134"/>
    <g id="text_17">
     <!-- -4 -->
     <g transform="translate(136.208 95.365375)scale(0.2 -0.2)">
      <use xlink:href="#DejaVuSans-2d"/>
      <use x="36.083984" xlink:href="#DejaVuSans-34"/>
     </g>
    </g>
    <g id="line2d_135">
     <path d="M 80.208 117.721625 
L 120.208 117.721625 
" style="fill:none;stroke:#ff0000;stroke-linecap:square;stroke-width:3;"/>
    </g>
    <g id="line2d_136"/>
    <g id="text_18">
     <!-- -8 -->
     <g transform="translate(136.208 124.721625)scale(0.2 -0.2)">
      <use xlink:href="#DejaVuSans-2d"/>
      <use x="36.083984" xlink:href="#DejaVuSans-38"/>
     </g>
    </g>
   </g>
  </g>
 </g>
 <defs>
  <clipPath id="p046b22b588">
   <rect height="290.304" width="398.592" x="62.208" y="3.456"/>
  </clipPath>
 </defs>
</svg>
