<?xml version="1.0" encoding="utf-8" standalone="no"?>
<!DOCTYPE svg PUBLIC "-//W3C//DTD SVG 1.1//EN"
  "http://www.w3.org/Graphics/SVG/1.1/DTD/svg11.dtd">
<svg height="345.6pt" version="1.1" viewBox="0 0 460.8 345.6" width="460.8pt" xmlns="http://www.w3.org/2000/svg" xmlns:xlink="http://www.w3.org/1999/xlink">
 <metadata>
  <rdf:RDF xmlns:cc="http://creativecommons.org/ns#" xmlns:dc="http://purl.org/dc/elements/1.1/" xmlns:rdf="http://www.w3.org/1999/02/22-rdf-syntax-ns#">
   <cc:Work>
    <dc:type rdf:resource="http://purl.org/dc/dcmitype/StillImage"/>
    <dc:date>2023-04-17T18:18:03.028506</dc:date>
    <dc:format>image/svg+xml</dc:format>
    <dc:creator>
     <cc:Agent>
      <dc:title>Matplotlib v3.4.1, https://matplotlib.org/</dc:title>
     </cc:Agent>
    </dc:creator>
   </cc:Work>
  </rdf:RDF>
 </metadata>
 <defs>
  <style type="text/css">*{stroke-linecap:butt;stroke-linejoin:round;}</style>
 </defs>
 <g id="figure_1">
  <g id="patch_1">
   <path d="M 0 345.6 
L 460.8 345.6 
L 460.8 0 
L 0 0 
z
" style="fill:#ffffff;"/>
  </g>
  <g id="axes_1">
   <g id="patch_2">
    <path d="M 57.6 298.944 
L 360.8064 298.944 
L 360.8064 27.648 
L 57.6 27.648 
z
" style="fill:#ffffff;"/>
   </g>
   <g id="matplotlib.axis_1">
    <g id="xtick_1">
     <g id="line2d_1">
      <path clip-path="url(#p33cfa7b8f0)" d="M 57.6 298.944 
L 57.6 27.648 
" style="fill:none;stroke:#b0b0b0;stroke-linecap:square;stroke-width:0.8;"/>
     </g>
     <g id="line2d_2">
      <defs>
       <path d="M 0 0 
L 0 3.5 
" id="m19e5b0c2c1" style="stroke:#000000;stroke-width:0.8;"/>
      </defs>
      <g>
       <use style="stroke:#000000;stroke-width:0.8;" x="57.6" xlink:href="#m19e5b0c2c1" y="298.944"/>
      </g>
     </g>
     <g id="line2d_3">
      <defs>
       <path d="M 0 0 
L 0 -3.5 
" id="m623b62a3b2" style="stroke:#000000;stroke-width:0.8;"/>
      </defs>
      <g>
       <use style="stroke:#000000;stroke-width:0.8;" x="57.6" xlink:href="#m623b62a3b2" y="27.648"/>
      </g>
     </g>
     <g id="text_1">
      <!-- 0 -->
      <g transform="translate(52.51 318.1015)scale(0.16 -0.16)">
       <defs>
        <path d="M 2034 4250 
Q 1547 4250 1301 3770 
Q 1056 3291 1056 2328 
Q 1056 1369 1301 889 
Q 1547 409 2034 409 
Q 2525 409 2770 889 
Q 3016 1369 3016 2328 
Q 3016 3291 2770 3770 
Q 2525 4250 2034 4250 
z
M 2034 4750 
Q 2819 4750 3233 4129 
Q 3647 3509 3647 2328 
Q 3647 1150 3233 529 
Q 2819 -91 2034 -91 
Q 1250 -91 836 529 
Q 422 1150 422 2328 
Q 422 3509 836 4129 
Q 1250 4750 2034 4750 
z
" id="DejaVuSans-30" transform="scale(0.015625)"/>
       </defs>
       <use xlink:href="#DejaVuSans-30"/>
      </g>
     </g>
    </g>
    <g id="xtick_2">
     <g id="line2d_4">
      <path clip-path="url(#p33cfa7b8f0)" d="M 100.9152 298.944 
L 100.9152 27.648 
" style="fill:none;stroke:#b0b0b0;stroke-linecap:square;stroke-width:0.8;"/>
     </g>
     <g id="line2d_5">
      <g>
       <use style="stroke:#000000;stroke-width:0.8;" x="100.9152" xlink:href="#m19e5b0c2c1" y="298.944"/>
      </g>
     </g>
     <g id="line2d_6">
      <g>
       <use style="stroke:#000000;stroke-width:0.8;" x="100.9152" xlink:href="#m623b62a3b2" y="27.648"/>
      </g>
     </g>
     <g id="text_2">
      <!-- 1 -->
      <g transform="translate(95.8252 318.1015)scale(0.16 -0.16)">
       <defs>
        <path d="M 794 531 
L 1825 531 
L 1825 4091 
L 703 3866 
L 703 4441 
L 1819 4666 
L 2450 4666 
L 2450 531 
L 3481 531 
L 3481 0 
L 794 0 
L 794 531 
z
" id="DejaVuSans-31" transform="scale(0.015625)"/>
       </defs>
       <use xlink:href="#DejaVuSans-31"/>
      </g>
     </g>
    </g>
    <g id="xtick_3">
     <g id="line2d_7">
      <path clip-path="url(#p33cfa7b8f0)" d="M 144.2304 298.944 
L 144.2304 27.648 
" style="fill:none;stroke:#b0b0b0;stroke-linecap:square;stroke-width:0.8;"/>
     </g>
     <g id="line2d_8">
      <g>
       <use style="stroke:#000000;stroke-width:0.8;" x="144.2304" xlink:href="#m19e5b0c2c1" y="298.944"/>
      </g>
     </g>
     <g id="line2d_9">
      <g>
       <use style="stroke:#000000;stroke-width:0.8;" x="144.2304" xlink:href="#m623b62a3b2" y="27.648"/>
      </g>
     </g>
     <g id="text_3">
      <!-- 2 -->
      <g transform="translate(139.1404 318.1015)scale(0.16 -0.16)">
       <defs>
        <path d="M 1228 531 
L 3431 531 
L 3431 0 
L 469 0 
L 469 531 
Q 828 903 1448 1529 
Q 2069 2156 2228 2338 
Q 2531 2678 2651 2914 
Q 2772 3150 2772 3378 
Q 2772 3750 2511 3984 
Q 2250 4219 1831 4219 
Q 1534 4219 1204 4116 
Q 875 4013 500 3803 
L 500 4441 
Q 881 4594 1212 4672 
Q 1544 4750 1819 4750 
Q 2544 4750 2975 4387 
Q 3406 4025 3406 3419 
Q 3406 3131 3298 2873 
Q 3191 2616 2906 2266 
Q 2828 2175 2409 1742 
Q 1991 1309 1228 531 
z
" id="DejaVuSans-32" transform="scale(0.015625)"/>
       </defs>
       <use xlink:href="#DejaVuSans-32"/>
      </g>
     </g>
    </g>
    <g id="xtick_4">
     <g id="line2d_10">
      <path clip-path="url(#p33cfa7b8f0)" d="M 187.5456 298.944 
L 187.5456 27.648 
" style="fill:none;stroke:#b0b0b0;stroke-linecap:square;stroke-width:0.8;"/>
     </g>
     <g id="line2d_11">
      <g>
       <use style="stroke:#000000;stroke-width:0.8;" x="187.5456" xlink:href="#m19e5b0c2c1" y="298.944"/>
      </g>
     </g>
     <g id="line2d_12">
      <g>
       <use style="stroke:#000000;stroke-width:0.8;" x="187.5456" xlink:href="#m623b62a3b2" y="27.648"/>
      </g>
     </g>
     <g id="text_4">
      <!-- 3 -->
      <g transform="translate(182.4556 318.1015)scale(0.16 -0.16)">
       <defs>
        <path d="M 2597 2516 
Q 3050 2419 3304 2112 
Q 3559 1806 3559 1356 
Q 3559 666 3084 287 
Q 2609 -91 1734 -91 
Q 1441 -91 1130 -33 
Q 819 25 488 141 
L 488 750 
Q 750 597 1062 519 
Q 1375 441 1716 441 
Q 2309 441 2620 675 
Q 2931 909 2931 1356 
Q 2931 1769 2642 2001 
Q 2353 2234 1838 2234 
L 1294 2234 
L 1294 2753 
L 1863 2753 
Q 2328 2753 2575 2939 
Q 2822 3125 2822 3475 
Q 2822 3834 2567 4026 
Q 2313 4219 1838 4219 
Q 1578 4219 1281 4162 
Q 984 4106 628 3988 
L 628 4550 
Q 988 4650 1302 4700 
Q 1616 4750 1894 4750 
Q 2613 4750 3031 4423 
Q 3450 4097 3450 3541 
Q 3450 3153 3228 2886 
Q 3006 2619 2597 2516 
z
" id="DejaVuSans-33" transform="scale(0.015625)"/>
       </defs>
       <use xlink:href="#DejaVuSans-33"/>
      </g>
     </g>
    </g>
    <g id="xtick_5">
     <g id="line2d_13">
      <path clip-path="url(#p33cfa7b8f0)" d="M 230.8608 298.944 
L 230.8608 27.648 
" style="fill:none;stroke:#b0b0b0;stroke-linecap:square;stroke-width:0.8;"/>
     </g>
     <g id="line2d_14">
      <g>
       <use style="stroke:#000000;stroke-width:0.8;" x="230.8608" xlink:href="#m19e5b0c2c1" y="298.944"/>
      </g>
     </g>
     <g id="line2d_15">
      <g>
       <use style="stroke:#000000;stroke-width:0.8;" x="230.8608" xlink:href="#m623b62a3b2" y="27.648"/>
      </g>
     </g>
     <g id="text_5">
      <!-- 4 -->
      <g transform="translate(225.7708 318.1015)scale(0.16 -0.16)">
       <defs>
        <path d="M 2419 4116 
L 825 1625 
L 2419 1625 
L 2419 4116 
z
M 2253 4666 
L 3047 4666 
L 3047 1625 
L 3713 1625 
L 3713 1100 
L 3047 1100 
L 3047 0 
L 2419 0 
L 2419 1100 
L 313 1100 
L 313 1709 
L 2253 4666 
z
" id="DejaVuSans-34" transform="scale(0.015625)"/>
       </defs>
       <use xlink:href="#DejaVuSans-34"/>
      </g>
     </g>
    </g>
    <g id="xtick_6">
     <g id="line2d_16">
      <path clip-path="url(#p33cfa7b8f0)" d="M 274.176 298.944 
L 274.176 27.648 
" style="fill:none;stroke:#b0b0b0;stroke-linecap:square;stroke-width:0.8;"/>
     </g>
     <g id="line2d_17">
      <g>
       <use style="stroke:#000000;stroke-width:0.8;" x="274.176" xlink:href="#m19e5b0c2c1" y="298.944"/>
      </g>
     </g>
     <g id="line2d_18">
      <g>
       <use style="stroke:#000000;stroke-width:0.8;" x="274.176" xlink:href="#m623b62a3b2" y="27.648"/>
      </g>
     </g>
     <g id="text_6">
      <!-- 5 -->
      <g transform="translate(269.086 318.1015)scale(0.16 -0.16)">
       <defs>
        <path d="M 691 4666 
L 3169 4666 
L 3169 4134 
L 1269 4134 
L 1269 2991 
Q 1406 3038 1543 3061 
Q 1681 3084 1819 3084 
Q 2600 3084 3056 2656 
Q 3513 2228 3513 1497 
Q 3513 744 3044 326 
Q 2575 -91 1722 -91 
Q 1428 -91 1123 -41 
Q 819 9 494 109 
L 494 744 
Q 775 591 1075 516 
Q 1375 441 1709 441 
Q 2250 441 2565 725 
Q 2881 1009 2881 1497 
Q 2881 1984 2565 2268 
Q 2250 2553 1709 2553 
Q 1456 2553 1204 2497 
Q 953 2441 691 2322 
L 691 4666 
z
" id="DejaVuSans-35" transform="scale(0.015625)"/>
       </defs>
       <use xlink:href="#DejaVuSans-35"/>
      </g>
     </g>
    </g>
    <g id="xtick_7">
     <g id="line2d_19">
      <path clip-path="url(#p33cfa7b8f0)" d="M 317.4912 298.944 
L 317.4912 27.648 
" style="fill:none;stroke:#b0b0b0;stroke-linecap:square;stroke-width:0.8;"/>
     </g>
     <g id="line2d_20">
      <g>
       <use style="stroke:#000000;stroke-width:0.8;" x="317.4912" xlink:href="#m19e5b0c2c1" y="298.944"/>
      </g>
     </g>
     <g id="line2d_21">
      <g>
       <use style="stroke:#000000;stroke-width:0.8;" x="317.4912" xlink:href="#m623b62a3b2" y="27.648"/>
      </g>
     </g>
     <g id="text_7">
      <!-- 6 -->
      <g transform="translate(312.4012 318.1015)scale(0.16 -0.16)">
       <defs>
        <path d="M 2113 2584 
Q 1688 2584 1439 2293 
Q 1191 2003 1191 1497 
Q 1191 994 1439 701 
Q 1688 409 2113 409 
Q 2538 409 2786 701 
Q 3034 994 3034 1497 
Q 3034 2003 2786 2293 
Q 2538 2584 2113 2584 
z
M 3366 4563 
L 3366 3988 
Q 3128 4100 2886 4159 
Q 2644 4219 2406 4219 
Q 1781 4219 1451 3797 
Q 1122 3375 1075 2522 
Q 1259 2794 1537 2939 
Q 1816 3084 2150 3084 
Q 2853 3084 3261 2657 
Q 3669 2231 3669 1497 
Q 3669 778 3244 343 
Q 2819 -91 2113 -91 
Q 1303 -91 875 529 
Q 447 1150 447 2328 
Q 447 3434 972 4092 
Q 1497 4750 2381 4750 
Q 2619 4750 2861 4703 
Q 3103 4656 3366 4563 
z
" id="DejaVuSans-36" transform="scale(0.015625)"/>
       </defs>
       <use xlink:href="#DejaVuSans-36"/>
      </g>
     </g>
    </g>
    <g id="xtick_8">
     <g id="line2d_22">
      <path clip-path="url(#p33cfa7b8f0)" d="M 360.8064 298.944 
L 360.8064 27.648 
" style="fill:none;stroke:#b0b0b0;stroke-linecap:square;stroke-width:0.8;"/>
     </g>
     <g id="line2d_23">
      <g>
       <use style="stroke:#000000;stroke-width:0.8;" x="360.8064" xlink:href="#m19e5b0c2c1" y="298.944"/>
      </g>
     </g>
     <g id="line2d_24">
      <g>
       <use style="stroke:#000000;stroke-width:0.8;" x="360.8064" xlink:href="#m623b62a3b2" y="27.648"/>
      </g>
     </g>
     <g id="text_8">
      <!-- 7 -->
      <g transform="translate(355.7164 318.1015)scale(0.16 -0.16)">
       <defs>
        <path d="M 525 4666 
L 3525 4666 
L 3525 4397 
L 1831 0 
L 1172 0 
L 2766 4134 
L 525 4134 
L 525 4666 
z
" id="DejaVuSans-37" transform="scale(0.015625)"/>
       </defs>
       <use xlink:href="#DejaVuSans-37"/>
      </g>
     </g>
    </g>
    <g id="xtick_9">
     <g id="line2d_25">
      <path clip-path="url(#p33cfa7b8f0)" d="M 70.639174 298.944 
L 70.639174 27.648 
" style="fill:none;stroke:#b0b0b0;stroke-linecap:square;stroke-opacity:0.15;stroke-width:0.8;"/>
     </g>
     <g id="line2d_26">
      <defs>
       <path d="M 0 0 
L 0 2 
" id="m7146e2a56f" style="stroke:#000000;stroke-width:0.6;"/>
      </defs>
      <g>
       <use style="stroke:#000000;stroke-width:0.6;" x="70.639174" xlink:href="#m7146e2a56f" y="298.944"/>
      </g>
     </g>
     <g id="line2d_27">
      <defs>
       <path d="M 0 0 
L 0 -2 
" id="m823976ea0b" style="stroke:#000000;stroke-width:0.6;"/>
      </defs>
      <g>
       <use style="stroke:#000000;stroke-width:0.6;" x="70.639174" xlink:href="#m823976ea0b" y="27.648"/>
      </g>
     </g>
    </g>
    <g id="xtick_10">
     <g id="line2d_28">
      <path clip-path="url(#p33cfa7b8f0)" d="M 78.266603 298.944 
L 78.266603 27.648 
" style="fill:none;stroke:#b0b0b0;stroke-linecap:square;stroke-opacity:0.15;stroke-width:0.8;"/>
     </g>
     <g id="line2d_29">
      <g>
       <use style="stroke:#000000;stroke-width:0.6;" x="78.266603" xlink:href="#m7146e2a56f" y="298.944"/>
      </g>
     </g>
     <g id="line2d_30">
      <g>
       <use style="stroke:#000000;stroke-width:0.6;" x="78.266603" xlink:href="#m823976ea0b" y="27.648"/>
      </g>
     </g>
    </g>
    <g id="xtick_11">
     <g id="line2d_31">
      <path clip-path="url(#p33cfa7b8f0)" d="M 83.678349 298.944 
L 83.678349 27.648 
" style="fill:none;stroke:#b0b0b0;stroke-linecap:square;stroke-opacity:0.15;stroke-width:0.8;"/>
     </g>
     <g id="line2d_32">
      <g>
       <use style="stroke:#000000;stroke-width:0.6;" x="83.678349" xlink:href="#m7146e2a56f" y="298.944"/>
      </g>
     </g>
     <g id="line2d_33">
      <g>
       <use style="stroke:#000000;stroke-width:0.6;" x="83.678349" xlink:href="#m823976ea0b" y="27.648"/>
      </g>
     </g>
    </g>
    <g id="xtick_12">
     <g id="line2d_34">
      <path clip-path="url(#p33cfa7b8f0)" d="M 87.876026 298.944 
L 87.876026 27.648 
" style="fill:none;stroke:#b0b0b0;stroke-linecap:square;stroke-opacity:0.15;stroke-width:0.8;"/>
     </g>
     <g id="line2d_35">
      <g>
       <use style="stroke:#000000;stroke-width:0.6;" x="87.876026" xlink:href="#m7146e2a56f" y="298.944"/>
      </g>
     </g>
     <g id="line2d_36">
      <g>
       <use style="stroke:#000000;stroke-width:0.6;" x="87.876026" xlink:href="#m823976ea0b" y="27.648"/>
      </g>
     </g>
    </g>
    <g id="xtick_13">
     <g id="line2d_37">
      <path clip-path="url(#p33cfa7b8f0)" d="M 91.305777 298.944 
L 91.305777 27.648 
" style="fill:none;stroke:#b0b0b0;stroke-linecap:square;stroke-opacity:0.15;stroke-width:0.8;"/>
     </g>
     <g id="line2d_38">
      <g>
       <use style="stroke:#000000;stroke-width:0.6;" x="91.305777" xlink:href="#m7146e2a56f" y="298.944"/>
      </g>
     </g>
     <g id="line2d_39">
      <g>
       <use style="stroke:#000000;stroke-width:0.6;" x="91.305777" xlink:href="#m823976ea0b" y="27.648"/>
      </g>
     </g>
    </g>
    <g id="xtick_14">
     <g id="line2d_40">
      <path clip-path="url(#p33cfa7b8f0)" d="M 94.205591 298.944 
L 94.205591 27.648 
" style="fill:none;stroke:#b0b0b0;stroke-linecap:square;stroke-opacity:0.15;stroke-width:0.8;"/>
     </g>
     <g id="line2d_41">
      <g>
       <use style="stroke:#000000;stroke-width:0.6;" x="94.205591" xlink:href="#m7146e2a56f" y="298.944"/>
      </g>
     </g>
     <g id="line2d_42">
      <g>
       <use style="stroke:#000000;stroke-width:0.6;" x="94.205591" xlink:href="#m823976ea0b" y="27.648"/>
      </g>
     </g>
    </g>
    <g id="xtick_15">
     <g id="line2d_43">
      <path clip-path="url(#p33cfa7b8f0)" d="M 96.717523 298.944 
L 96.717523 27.648 
" style="fill:none;stroke:#b0b0b0;stroke-linecap:square;stroke-opacity:0.15;stroke-width:0.8;"/>
     </g>
     <g id="line2d_44">
      <g>
       <use style="stroke:#000000;stroke-width:0.6;" x="96.717523" xlink:href="#m7146e2a56f" y="298.944"/>
      </g>
     </g>
     <g id="line2d_45">
      <g>
       <use style="stroke:#000000;stroke-width:0.6;" x="96.717523" xlink:href="#m823976ea0b" y="27.648"/>
      </g>
     </g>
    </g>
    <g id="xtick_16">
     <g id="line2d_46">
      <path clip-path="url(#p33cfa7b8f0)" d="M 98.933205 298.944 
L 98.933205 27.648 
" style="fill:none;stroke:#b0b0b0;stroke-linecap:square;stroke-opacity:0.15;stroke-width:0.8;"/>
     </g>
     <g id="line2d_47">
      <g>
       <use style="stroke:#000000;stroke-width:0.6;" x="98.933205" xlink:href="#m7146e2a56f" y="298.944"/>
      </g>
     </g>
     <g id="line2d_48">
      <g>
       <use style="stroke:#000000;stroke-width:0.6;" x="98.933205" xlink:href="#m823976ea0b" y="27.648"/>
      </g>
     </g>
    </g>
    <g id="xtick_17">
     <g id="line2d_49">
      <path clip-path="url(#p33cfa7b8f0)" d="M 113.954374 298.944 
L 113.954374 27.648 
" style="fill:none;stroke:#b0b0b0;stroke-linecap:square;stroke-opacity:0.15;stroke-width:0.8;"/>
     </g>
     <g id="line2d_50">
      <g>
       <use style="stroke:#000000;stroke-width:0.6;" x="113.954374" xlink:href="#m7146e2a56f" y="298.944"/>
      </g>
     </g>
     <g id="line2d_51">
      <g>
       <use style="stroke:#000000;stroke-width:0.6;" x="113.954374" xlink:href="#m823976ea0b" y="27.648"/>
      </g>
     </g>
    </g>
    <g id="xtick_18">
     <g id="line2d_52">
      <path clip-path="url(#p33cfa7b8f0)" d="M 121.581803 298.944 
L 121.581803 27.648 
" style="fill:none;stroke:#b0b0b0;stroke-linecap:square;stroke-opacity:0.15;stroke-width:0.8;"/>
     </g>
     <g id="line2d_53">
      <g>
       <use style="stroke:#000000;stroke-width:0.6;" x="121.581803" xlink:href="#m7146e2a56f" y="298.944"/>
      </g>
     </g>
     <g id="line2d_54">
      <g>
       <use style="stroke:#000000;stroke-width:0.6;" x="121.581803" xlink:href="#m823976ea0b" y="27.648"/>
      </g>
     </g>
    </g>
    <g id="xtick_19">
     <g id="line2d_55">
      <path clip-path="url(#p33cfa7b8f0)" d="M 126.993549 298.944 
L 126.993549 27.648 
" style="fill:none;stroke:#b0b0b0;stroke-linecap:square;stroke-opacity:0.15;stroke-width:0.8;"/>
     </g>
     <g id="line2d_56">
      <g>
       <use style="stroke:#000000;stroke-width:0.6;" x="126.993549" xlink:href="#m7146e2a56f" y="298.944"/>
      </g>
     </g>
     <g id="line2d_57">
      <g>
       <use style="stroke:#000000;stroke-width:0.6;" x="126.993549" xlink:href="#m823976ea0b" y="27.648"/>
      </g>
     </g>
    </g>
    <g id="xtick_20">
     <g id="line2d_58">
      <path clip-path="url(#p33cfa7b8f0)" d="M 131.191226 298.944 
L 131.191226 27.648 
" style="fill:none;stroke:#b0b0b0;stroke-linecap:square;stroke-opacity:0.15;stroke-width:0.8;"/>
     </g>
     <g id="line2d_59">
      <g>
       <use style="stroke:#000000;stroke-width:0.6;" x="131.191226" xlink:href="#m7146e2a56f" y="298.944"/>
      </g>
     </g>
     <g id="line2d_60">
      <g>
       <use style="stroke:#000000;stroke-width:0.6;" x="131.191226" xlink:href="#m823976ea0b" y="27.648"/>
      </g>
     </g>
    </g>
    <g id="xtick_21">
     <g id="line2d_61">
      <path clip-path="url(#p33cfa7b8f0)" d="M 134.620977 298.944 
L 134.620977 27.648 
" style="fill:none;stroke:#b0b0b0;stroke-linecap:square;stroke-opacity:0.15;stroke-width:0.8;"/>
     </g>
     <g id="line2d_62">
      <g>
       <use style="stroke:#000000;stroke-width:0.6;" x="134.620977" xlink:href="#m7146e2a56f" y="298.944"/>
      </g>
     </g>
     <g id="line2d_63">
      <g>
       <use style="stroke:#000000;stroke-width:0.6;" x="134.620977" xlink:href="#m823976ea0b" y="27.648"/>
      </g>
     </g>
    </g>
    <g id="xtick_22">
     <g id="line2d_64">
      <path clip-path="url(#p33cfa7b8f0)" d="M 137.520791 298.944 
L 137.520791 27.648 
" style="fill:none;stroke:#b0b0b0;stroke-linecap:square;stroke-opacity:0.15;stroke-width:0.8;"/>
     </g>
     <g id="line2d_65">
      <g>
       <use style="stroke:#000000;stroke-width:0.6;" x="137.520791" xlink:href="#m7146e2a56f" y="298.944"/>
      </g>
     </g>
     <g id="line2d_66">
      <g>
       <use style="stroke:#000000;stroke-width:0.6;" x="137.520791" xlink:href="#m823976ea0b" y="27.648"/>
      </g>
     </g>
    </g>
    <g id="xtick_23">
     <g id="line2d_67">
      <path clip-path="url(#p33cfa7b8f0)" d="M 140.032723 298.944 
L 140.032723 27.648 
" style="fill:none;stroke:#b0b0b0;stroke-linecap:square;stroke-opacity:0.15;stroke-width:0.8;"/>
     </g>
     <g id="line2d_68">
      <g>
       <use style="stroke:#000000;stroke-width:0.6;" x="140.032723" xlink:href="#m7146e2a56f" y="298.944"/>
      </g>
     </g>
     <g id="line2d_69">
      <g>
       <use style="stroke:#000000;stroke-width:0.6;" x="140.032723" xlink:href="#m823976ea0b" y="27.648"/>
      </g>
     </g>
    </g>
    <g id="xtick_24">
     <g id="line2d_70">
      <path clip-path="url(#p33cfa7b8f0)" d="M 142.248405 298.944 
L 142.248405 27.648 
" style="fill:none;stroke:#b0b0b0;stroke-linecap:square;stroke-opacity:0.15;stroke-width:0.8;"/>
     </g>
     <g id="line2d_71">
      <g>
       <use style="stroke:#000000;stroke-width:0.6;" x="142.248405" xlink:href="#m7146e2a56f" y="298.944"/>
      </g>
     </g>
     <g id="line2d_72">
      <g>
       <use style="stroke:#000000;stroke-width:0.6;" x="142.248405" xlink:href="#m823976ea0b" y="27.648"/>
      </g>
     </g>
    </g>
    <g id="xtick_25">
     <g id="line2d_73">
      <path clip-path="url(#p33cfa7b8f0)" d="M 157.269574 298.944 
L 157.269574 27.648 
" style="fill:none;stroke:#b0b0b0;stroke-linecap:square;stroke-opacity:0.15;stroke-width:0.8;"/>
     </g>
     <g id="line2d_74">
      <g>
       <use style="stroke:#000000;stroke-width:0.6;" x="157.269574" xlink:href="#m7146e2a56f" y="298.944"/>
      </g>
     </g>
     <g id="line2d_75">
      <g>
       <use style="stroke:#000000;stroke-width:0.6;" x="157.269574" xlink:href="#m823976ea0b" y="27.648"/>
      </g>
     </g>
    </g>
    <g id="xtick_26">
     <g id="line2d_76">
      <path clip-path="url(#p33cfa7b8f0)" d="M 164.897003 298.944 
L 164.897003 27.648 
" style="fill:none;stroke:#b0b0b0;stroke-linecap:square;stroke-opacity:0.15;stroke-width:0.8;"/>
     </g>
     <g id="line2d_77">
      <g>
       <use style="stroke:#000000;stroke-width:0.6;" x="164.897003" xlink:href="#m7146e2a56f" y="298.944"/>
      </g>
     </g>
     <g id="line2d_78">
      <g>
       <use style="stroke:#000000;stroke-width:0.6;" x="164.897003" xlink:href="#m823976ea0b" y="27.648"/>
      </g>
     </g>
    </g>
    <g id="xtick_27">
     <g id="line2d_79">
      <path clip-path="url(#p33cfa7b8f0)" d="M 170.308749 298.944 
L 170.308749 27.648 
" style="fill:none;stroke:#b0b0b0;stroke-linecap:square;stroke-opacity:0.15;stroke-width:0.8;"/>
     </g>
     <g id="line2d_80">
      <g>
       <use style="stroke:#000000;stroke-width:0.6;" x="170.308749" xlink:href="#m7146e2a56f" y="298.944"/>
      </g>
     </g>
     <g id="line2d_81">
      <g>
       <use style="stroke:#000000;stroke-width:0.6;" x="170.308749" xlink:href="#m823976ea0b" y="27.648"/>
      </g>
     </g>
    </g>
    <g id="xtick_28">
     <g id="line2d_82">
      <path clip-path="url(#p33cfa7b8f0)" d="M 174.506426 298.944 
L 174.506426 27.648 
" style="fill:none;stroke:#b0b0b0;stroke-linecap:square;stroke-opacity:0.15;stroke-width:0.8;"/>
     </g>
     <g id="line2d_83">
      <g>
       <use style="stroke:#000000;stroke-width:0.6;" x="174.506426" xlink:href="#m7146e2a56f" y="298.944"/>
      </g>
     </g>
     <g id="line2d_84">
      <g>
       <use style="stroke:#000000;stroke-width:0.6;" x="174.506426" xlink:href="#m823976ea0b" y="27.648"/>
      </g>
     </g>
    </g>
    <g id="xtick_29">
     <g id="line2d_85">
      <path clip-path="url(#p33cfa7b8f0)" d="M 177.936177 298.944 
L 177.936177 27.648 
" style="fill:none;stroke:#b0b0b0;stroke-linecap:square;stroke-opacity:0.15;stroke-width:0.8;"/>
     </g>
     <g id="line2d_86">
      <g>
       <use style="stroke:#000000;stroke-width:0.6;" x="177.936177" xlink:href="#m7146e2a56f" y="298.944"/>
      </g>
     </g>
     <g id="line2d_87">
      <g>
       <use style="stroke:#000000;stroke-width:0.6;" x="177.936177" xlink:href="#m823976ea0b" y="27.648"/>
      </g>
     </g>
    </g>
    <g id="xtick_30">
     <g id="line2d_88">
      <path clip-path="url(#p33cfa7b8f0)" d="M 180.835991 298.944 
L 180.835991 27.648 
" style="fill:none;stroke:#b0b0b0;stroke-linecap:square;stroke-opacity:0.15;stroke-width:0.8;"/>
     </g>
     <g id="line2d_89">
      <g>
       <use style="stroke:#000000;stroke-width:0.6;" x="180.835991" xlink:href="#m7146e2a56f" y="298.944"/>
      </g>
     </g>
     <g id="line2d_90">
      <g>
       <use style="stroke:#000000;stroke-width:0.6;" x="180.835991" xlink:href="#m823976ea0b" y="27.648"/>
      </g>
     </g>
    </g>
    <g id="xtick_31">
     <g id="line2d_91">
      <path clip-path="url(#p33cfa7b8f0)" d="M 183.347923 298.944 
L 183.347923 27.648 
" style="fill:none;stroke:#b0b0b0;stroke-linecap:square;stroke-opacity:0.15;stroke-width:0.8;"/>
     </g>
     <g id="line2d_92">
      <g>
       <use style="stroke:#000000;stroke-width:0.6;" x="183.347923" xlink:href="#m7146e2a56f" y="298.944"/>
      </g>
     </g>
     <g id="line2d_93">
      <g>
       <use style="stroke:#000000;stroke-width:0.6;" x="183.347923" xlink:href="#m823976ea0b" y="27.648"/>
      </g>
     </g>
    </g>
    <g id="xtick_32">
     <g id="line2d_94">
      <path clip-path="url(#p33cfa7b8f0)" d="M 185.563605 298.944 
L 185.563605 27.648 
" style="fill:none;stroke:#b0b0b0;stroke-linecap:square;stroke-opacity:0.15;stroke-width:0.8;"/>
     </g>
     <g id="line2d_95">
      <g>
       <use style="stroke:#000000;stroke-width:0.6;" x="185.563605" xlink:href="#m7146e2a56f" y="298.944"/>
      </g>
     </g>
     <g id="line2d_96">
      <g>
       <use style="stroke:#000000;stroke-width:0.6;" x="185.563605" xlink:href="#m823976ea0b" y="27.648"/>
      </g>
     </g>
    </g>
    <g id="xtick_33">
     <g id="line2d_97">
      <path clip-path="url(#p33cfa7b8f0)" d="M 200.584774 298.944 
L 200.584774 27.648 
" style="fill:none;stroke:#b0b0b0;stroke-linecap:square;stroke-opacity:0.15;stroke-width:0.8;"/>
     </g>
     <g id="line2d_98">
      <g>
       <use style="stroke:#000000;stroke-width:0.6;" x="200.584774" xlink:href="#m7146e2a56f" y="298.944"/>
      </g>
     </g>
     <g id="line2d_99">
      <g>
       <use style="stroke:#000000;stroke-width:0.6;" x="200.584774" xlink:href="#m823976ea0b" y="27.648"/>
      </g>
     </g>
    </g>
    <g id="xtick_34">
     <g id="line2d_100">
      <path clip-path="url(#p33cfa7b8f0)" d="M 208.212203 298.944 
L 208.212203 27.648 
" style="fill:none;stroke:#b0b0b0;stroke-linecap:square;stroke-opacity:0.15;stroke-width:0.8;"/>
     </g>
     <g id="line2d_101">
      <g>
       <use style="stroke:#000000;stroke-width:0.6;" x="208.212203" xlink:href="#m7146e2a56f" y="298.944"/>
      </g>
     </g>
     <g id="line2d_102">
      <g>
       <use style="stroke:#000000;stroke-width:0.6;" x="208.212203" xlink:href="#m823976ea0b" y="27.648"/>
      </g>
     </g>
    </g>
    <g id="xtick_35">
     <g id="line2d_103">
      <path clip-path="url(#p33cfa7b8f0)" d="M 213.623949 298.944 
L 213.623949 27.648 
" style="fill:none;stroke:#b0b0b0;stroke-linecap:square;stroke-opacity:0.15;stroke-width:0.8;"/>
     </g>
     <g id="line2d_104">
      <g>
       <use style="stroke:#000000;stroke-width:0.6;" x="213.623949" xlink:href="#m7146e2a56f" y="298.944"/>
      </g>
     </g>
     <g id="line2d_105">
      <g>
       <use style="stroke:#000000;stroke-width:0.6;" x="213.623949" xlink:href="#m823976ea0b" y="27.648"/>
      </g>
     </g>
    </g>
    <g id="xtick_36">
     <g id="line2d_106">
      <path clip-path="url(#p33cfa7b8f0)" d="M 217.821626 298.944 
L 217.821626 27.648 
" style="fill:none;stroke:#b0b0b0;stroke-linecap:square;stroke-opacity:0.15;stroke-width:0.8;"/>
     </g>
     <g id="line2d_107">
      <g>
       <use style="stroke:#000000;stroke-width:0.6;" x="217.821626" xlink:href="#m7146e2a56f" y="298.944"/>
      </g>
     </g>
     <g id="line2d_108">
      <g>
       <use style="stroke:#000000;stroke-width:0.6;" x="217.821626" xlink:href="#m823976ea0b" y="27.648"/>
      </g>
     </g>
    </g>
    <g id="xtick_37">
     <g id="line2d_109">
      <path clip-path="url(#p33cfa7b8f0)" d="M 221.251377 298.944 
L 221.251377 27.648 
" style="fill:none;stroke:#b0b0b0;stroke-linecap:square;stroke-opacity:0.15;stroke-width:0.8;"/>
     </g>
     <g id="line2d_110">
      <g>
       <use style="stroke:#000000;stroke-width:0.6;" x="221.251377" xlink:href="#m7146e2a56f" y="298.944"/>
      </g>
     </g>
     <g id="line2d_111">
      <g>
       <use style="stroke:#000000;stroke-width:0.6;" x="221.251377" xlink:href="#m823976ea0b" y="27.648"/>
      </g>
     </g>
    </g>
    <g id="xtick_38">
     <g id="line2d_112">
      <path clip-path="url(#p33cfa7b8f0)" d="M 224.151191 298.944 
L 224.151191 27.648 
" style="fill:none;stroke:#b0b0b0;stroke-linecap:square;stroke-opacity:0.15;stroke-width:0.8;"/>
     </g>
     <g id="line2d_113">
      <g>
       <use style="stroke:#000000;stroke-width:0.6;" x="224.151191" xlink:href="#m7146e2a56f" y="298.944"/>
      </g>
     </g>
     <g id="line2d_114">
      <g>
       <use style="stroke:#000000;stroke-width:0.6;" x="224.151191" xlink:href="#m823976ea0b" y="27.648"/>
      </g>
     </g>
    </g>
    <g id="xtick_39">
     <g id="line2d_115">
      <path clip-path="url(#p33cfa7b8f0)" d="M 226.663123 298.944 
L 226.663123 27.648 
" style="fill:none;stroke:#b0b0b0;stroke-linecap:square;stroke-opacity:0.15;stroke-width:0.8;"/>
     </g>
     <g id="line2d_116">
      <g>
       <use style="stroke:#000000;stroke-width:0.6;" x="226.663123" xlink:href="#m7146e2a56f" y="298.944"/>
      </g>
     </g>
     <g id="line2d_117">
      <g>
       <use style="stroke:#000000;stroke-width:0.6;" x="226.663123" xlink:href="#m823976ea0b" y="27.648"/>
      </g>
     </g>
    </g>
    <g id="xtick_40">
     <g id="line2d_118">
      <path clip-path="url(#p33cfa7b8f0)" d="M 228.878805 298.944 
L 228.878805 27.648 
" style="fill:none;stroke:#b0b0b0;stroke-linecap:square;stroke-opacity:0.15;stroke-width:0.8;"/>
     </g>
     <g id="line2d_119">
      <g>
       <use style="stroke:#000000;stroke-width:0.6;" x="228.878805" xlink:href="#m7146e2a56f" y="298.944"/>
      </g>
     </g>
     <g id="line2d_120">
      <g>
       <use style="stroke:#000000;stroke-width:0.6;" x="228.878805" xlink:href="#m823976ea0b" y="27.648"/>
      </g>
     </g>
    </g>
    <g id="xtick_41">
     <g id="line2d_121">
      <path clip-path="url(#p33cfa7b8f0)" d="M 243.899974 298.944 
L 243.899974 27.648 
" style="fill:none;stroke:#b0b0b0;stroke-linecap:square;stroke-opacity:0.15;stroke-width:0.8;"/>
     </g>
     <g id="line2d_122">
      <g>
       <use style="stroke:#000000;stroke-width:0.6;" x="243.899974" xlink:href="#m7146e2a56f" y="298.944"/>
      </g>
     </g>
     <g id="line2d_123">
      <g>
       <use style="stroke:#000000;stroke-width:0.6;" x="243.899974" xlink:href="#m823976ea0b" y="27.648"/>
      </g>
     </g>
    </g>
    <g id="xtick_42">
     <g id="line2d_124">
      <path clip-path="url(#p33cfa7b8f0)" d="M 251.527403 298.944 
L 251.527403 27.648 
" style="fill:none;stroke:#b0b0b0;stroke-linecap:square;stroke-opacity:0.15;stroke-width:0.8;"/>
     </g>
     <g id="line2d_125">
      <g>
       <use style="stroke:#000000;stroke-width:0.6;" x="251.527403" xlink:href="#m7146e2a56f" y="298.944"/>
      </g>
     </g>
     <g id="line2d_126">
      <g>
       <use style="stroke:#000000;stroke-width:0.6;" x="251.527403" xlink:href="#m823976ea0b" y="27.648"/>
      </g>
     </g>
    </g>
    <g id="xtick_43">
     <g id="line2d_127">
      <path clip-path="url(#p33cfa7b8f0)" d="M 256.939149 298.944 
L 256.939149 27.648 
" style="fill:none;stroke:#b0b0b0;stroke-linecap:square;stroke-opacity:0.15;stroke-width:0.8;"/>
     </g>
     <g id="line2d_128">
      <g>
       <use style="stroke:#000000;stroke-width:0.6;" x="256.939149" xlink:href="#m7146e2a56f" y="298.944"/>
      </g>
     </g>
     <g id="line2d_129">
      <g>
       <use style="stroke:#000000;stroke-width:0.6;" x="256.939149" xlink:href="#m823976ea0b" y="27.648"/>
      </g>
     </g>
    </g>
    <g id="xtick_44">
     <g id="line2d_130">
      <path clip-path="url(#p33cfa7b8f0)" d="M 261.136826 298.944 
L 261.136826 27.648 
" style="fill:none;stroke:#b0b0b0;stroke-linecap:square;stroke-opacity:0.15;stroke-width:0.8;"/>
     </g>
     <g id="line2d_131">
      <g>
       <use style="stroke:#000000;stroke-width:0.6;" x="261.136826" xlink:href="#m7146e2a56f" y="298.944"/>
      </g>
     </g>
     <g id="line2d_132">
      <g>
       <use style="stroke:#000000;stroke-width:0.6;" x="261.136826" xlink:href="#m823976ea0b" y="27.648"/>
      </g>
     </g>
    </g>
    <g id="xtick_45">
     <g id="line2d_133">
      <path clip-path="url(#p33cfa7b8f0)" d="M 264.566577 298.944 
L 264.566577 27.648 
" style="fill:none;stroke:#b0b0b0;stroke-linecap:square;stroke-opacity:0.15;stroke-width:0.8;"/>
     </g>
     <g id="line2d_134">
      <g>
       <use style="stroke:#000000;stroke-width:0.6;" x="264.566577" xlink:href="#m7146e2a56f" y="298.944"/>
      </g>
     </g>
     <g id="line2d_135">
      <g>
       <use style="stroke:#000000;stroke-width:0.6;" x="264.566577" xlink:href="#m823976ea0b" y="27.648"/>
      </g>
     </g>
    </g>
    <g id="xtick_46">
     <g id="line2d_136">
      <path clip-path="url(#p33cfa7b8f0)" d="M 267.466391 298.944 
L 267.466391 27.648 
" style="fill:none;stroke:#b0b0b0;stroke-linecap:square;stroke-opacity:0.15;stroke-width:0.8;"/>
     </g>
     <g id="line2d_137">
      <g>
       <use style="stroke:#000000;stroke-width:0.6;" x="267.466391" xlink:href="#m7146e2a56f" y="298.944"/>
      </g>
     </g>
     <g id="line2d_138">
      <g>
       <use style="stroke:#000000;stroke-width:0.6;" x="267.466391" xlink:href="#m823976ea0b" y="27.648"/>
      </g>
     </g>
    </g>
    <g id="xtick_47">
     <g id="line2d_139">
      <path clip-path="url(#p33cfa7b8f0)" d="M 269.978323 298.944 
L 269.978323 27.648 
" style="fill:none;stroke:#b0b0b0;stroke-linecap:square;stroke-opacity:0.15;stroke-width:0.8;"/>
     </g>
     <g id="line2d_140">
      <g>
       <use style="stroke:#000000;stroke-width:0.6;" x="269.978323" xlink:href="#m7146e2a56f" y="298.944"/>
      </g>
     </g>
     <g id="line2d_141">
      <g>
       <use style="stroke:#000000;stroke-width:0.6;" x="269.978323" xlink:href="#m823976ea0b" y="27.648"/>
      </g>
     </g>
    </g>
    <g id="xtick_48">
     <g id="line2d_142">
      <path clip-path="url(#p33cfa7b8f0)" d="M 272.194005 298.944 
L 272.194005 27.648 
" style="fill:none;stroke:#b0b0b0;stroke-linecap:square;stroke-opacity:0.15;stroke-width:0.8;"/>
     </g>
     <g id="line2d_143">
      <g>
       <use style="stroke:#000000;stroke-width:0.6;" x="272.194005" xlink:href="#m7146e2a56f" y="298.944"/>
      </g>
     </g>
     <g id="line2d_144">
      <g>
       <use style="stroke:#000000;stroke-width:0.6;" x="272.194005" xlink:href="#m823976ea0b" y="27.648"/>
      </g>
     </g>
    </g>
    <g id="xtick_49">
     <g id="line2d_145">
      <path clip-path="url(#p33cfa7b8f0)" d="M 287.215174 298.944 
L 287.215174 27.648 
" style="fill:none;stroke:#b0b0b0;stroke-linecap:square;stroke-opacity:0.15;stroke-width:0.8;"/>
     </g>
     <g id="line2d_146">
      <g>
       <use style="stroke:#000000;stroke-width:0.6;" x="287.215174" xlink:href="#m7146e2a56f" y="298.944"/>
      </g>
     </g>
     <g id="line2d_147">
      <g>
       <use style="stroke:#000000;stroke-width:0.6;" x="287.215174" xlink:href="#m823976ea0b" y="27.648"/>
      </g>
     </g>
    </g>
    <g id="xtick_50">
     <g id="line2d_148">
      <path clip-path="url(#p33cfa7b8f0)" d="M 294.842603 298.944 
L 294.842603 27.648 
" style="fill:none;stroke:#b0b0b0;stroke-linecap:square;stroke-opacity:0.15;stroke-width:0.8;"/>
     </g>
     <g id="line2d_149">
      <g>
       <use style="stroke:#000000;stroke-width:0.6;" x="294.842603" xlink:href="#m7146e2a56f" y="298.944"/>
      </g>
     </g>
     <g id="line2d_150">
      <g>
       <use style="stroke:#000000;stroke-width:0.6;" x="294.842603" xlink:href="#m823976ea0b" y="27.648"/>
      </g>
     </g>
    </g>
    <g id="xtick_51">
     <g id="line2d_151">
      <path clip-path="url(#p33cfa7b8f0)" d="M 300.254349 298.944 
L 300.254349 27.648 
" style="fill:none;stroke:#b0b0b0;stroke-linecap:square;stroke-opacity:0.15;stroke-width:0.8;"/>
     </g>
     <g id="line2d_152">
      <g>
       <use style="stroke:#000000;stroke-width:0.6;" x="300.254349" xlink:href="#m7146e2a56f" y="298.944"/>
      </g>
     </g>
     <g id="line2d_153">
      <g>
       <use style="stroke:#000000;stroke-width:0.6;" x="300.254349" xlink:href="#m823976ea0b" y="27.648"/>
      </g>
     </g>
    </g>
    <g id="xtick_52">
     <g id="line2d_154">
      <path clip-path="url(#p33cfa7b8f0)" d="M 304.452026 298.944 
L 304.452026 27.648 
" style="fill:none;stroke:#b0b0b0;stroke-linecap:square;stroke-opacity:0.15;stroke-width:0.8;"/>
     </g>
     <g id="line2d_155">
      <g>
       <use style="stroke:#000000;stroke-width:0.6;" x="304.452026" xlink:href="#m7146e2a56f" y="298.944"/>
      </g>
     </g>
     <g id="line2d_156">
      <g>
       <use style="stroke:#000000;stroke-width:0.6;" x="304.452026" xlink:href="#m823976ea0b" y="27.648"/>
      </g>
     </g>
    </g>
    <g id="xtick_53">
     <g id="line2d_157">
      <path clip-path="url(#p33cfa7b8f0)" d="M 307.881777 298.944 
L 307.881777 27.648 
" style="fill:none;stroke:#b0b0b0;stroke-linecap:square;stroke-opacity:0.15;stroke-width:0.8;"/>
     </g>
     <g id="line2d_158">
      <g>
       <use style="stroke:#000000;stroke-width:0.6;" x="307.881777" xlink:href="#m7146e2a56f" y="298.944"/>
      </g>
     </g>
     <g id="line2d_159">
      <g>
       <use style="stroke:#000000;stroke-width:0.6;" x="307.881777" xlink:href="#m823976ea0b" y="27.648"/>
      </g>
     </g>
    </g>
    <g id="xtick_54">
     <g id="line2d_160">
      <path clip-path="url(#p33cfa7b8f0)" d="M 310.781591 298.944 
L 310.781591 27.648 
" style="fill:none;stroke:#b0b0b0;stroke-linecap:square;stroke-opacity:0.15;stroke-width:0.8;"/>
     </g>
     <g id="line2d_161">
      <g>
       <use style="stroke:#000000;stroke-width:0.6;" x="310.781591" xlink:href="#m7146e2a56f" y="298.944"/>
      </g>
     </g>
     <g id="line2d_162">
      <g>
       <use style="stroke:#000000;stroke-width:0.6;" x="310.781591" xlink:href="#m823976ea0b" y="27.648"/>
      </g>
     </g>
    </g>
    <g id="xtick_55">
     <g id="line2d_163">
      <path clip-path="url(#p33cfa7b8f0)" d="M 313.293523 298.944 
L 313.293523 27.648 
" style="fill:none;stroke:#b0b0b0;stroke-linecap:square;stroke-opacity:0.15;stroke-width:0.8;"/>
     </g>
     <g id="line2d_164">
      <g>
       <use style="stroke:#000000;stroke-width:0.6;" x="313.293523" xlink:href="#m7146e2a56f" y="298.944"/>
      </g>
     </g>
     <g id="line2d_165">
      <g>
       <use style="stroke:#000000;stroke-width:0.6;" x="313.293523" xlink:href="#m823976ea0b" y="27.648"/>
      </g>
     </g>
    </g>
    <g id="xtick_56">
     <g id="line2d_166">
      <path clip-path="url(#p33cfa7b8f0)" d="M 315.509205 298.944 
L 315.509205 27.648 
" style="fill:none;stroke:#b0b0b0;stroke-linecap:square;stroke-opacity:0.15;stroke-width:0.8;"/>
     </g>
     <g id="line2d_167">
      <g>
       <use style="stroke:#000000;stroke-width:0.6;" x="315.509205" xlink:href="#m7146e2a56f" y="298.944"/>
      </g>
     </g>
     <g id="line2d_168">
      <g>
       <use style="stroke:#000000;stroke-width:0.6;" x="315.509205" xlink:href="#m823976ea0b" y="27.648"/>
      </g>
     </g>
    </g>
    <g id="xtick_57">
     <g id="line2d_169">
      <path clip-path="url(#p33cfa7b8f0)" d="M 330.530374 298.944 
L 330.530374 27.648 
" style="fill:none;stroke:#b0b0b0;stroke-linecap:square;stroke-opacity:0.15;stroke-width:0.8;"/>
     </g>
     <g id="line2d_170">
      <g>
       <use style="stroke:#000000;stroke-width:0.6;" x="330.530374" xlink:href="#m7146e2a56f" y="298.944"/>
      </g>
     </g>
     <g id="line2d_171">
      <g>
       <use style="stroke:#000000;stroke-width:0.6;" x="330.530374" xlink:href="#m823976ea0b" y="27.648"/>
      </g>
     </g>
    </g>
    <g id="xtick_58">
     <g id="line2d_172">
      <path clip-path="url(#p33cfa7b8f0)" d="M 338.157803 298.944 
L 338.157803 27.648 
" style="fill:none;stroke:#b0b0b0;stroke-linecap:square;stroke-opacity:0.15;stroke-width:0.8;"/>
     </g>
     <g id="line2d_173">
      <g>
       <use style="stroke:#000000;stroke-width:0.6;" x="338.157803" xlink:href="#m7146e2a56f" y="298.944"/>
      </g>
     </g>
     <g id="line2d_174">
      <g>
       <use style="stroke:#000000;stroke-width:0.6;" x="338.157803" xlink:href="#m823976ea0b" y="27.648"/>
      </g>
     </g>
    </g>
    <g id="xtick_59">
     <g id="line2d_175">
      <path clip-path="url(#p33cfa7b8f0)" d="M 343.569549 298.944 
L 343.569549 27.648 
" style="fill:none;stroke:#b0b0b0;stroke-linecap:square;stroke-opacity:0.15;stroke-width:0.8;"/>
     </g>
     <g id="line2d_176">
      <g>
       <use style="stroke:#000000;stroke-width:0.6;" x="343.569549" xlink:href="#m7146e2a56f" y="298.944"/>
      </g>
     </g>
     <g id="line2d_177">
      <g>
       <use style="stroke:#000000;stroke-width:0.6;" x="343.569549" xlink:href="#m823976ea0b" y="27.648"/>
      </g>
     </g>
    </g>
    <g id="xtick_60">
     <g id="line2d_178">
      <path clip-path="url(#p33cfa7b8f0)" d="M 347.767226 298.944 
L 347.767226 27.648 
" style="fill:none;stroke:#b0b0b0;stroke-linecap:square;stroke-opacity:0.15;stroke-width:0.8;"/>
     </g>
     <g id="line2d_179">
      <g>
       <use style="stroke:#000000;stroke-width:0.6;" x="347.767226" xlink:href="#m7146e2a56f" y="298.944"/>
      </g>
     </g>
     <g id="line2d_180">
      <g>
       <use style="stroke:#000000;stroke-width:0.6;" x="347.767226" xlink:href="#m823976ea0b" y="27.648"/>
      </g>
     </g>
    </g>
    <g id="xtick_61">
     <g id="line2d_181">
      <path clip-path="url(#p33cfa7b8f0)" d="M 351.196977 298.944 
L 351.196977 27.648 
" style="fill:none;stroke:#b0b0b0;stroke-linecap:square;stroke-opacity:0.15;stroke-width:0.8;"/>
     </g>
     <g id="line2d_182">
      <g>
       <use style="stroke:#000000;stroke-width:0.6;" x="351.196977" xlink:href="#m7146e2a56f" y="298.944"/>
      </g>
     </g>
     <g id="line2d_183">
      <g>
       <use style="stroke:#000000;stroke-width:0.6;" x="351.196977" xlink:href="#m823976ea0b" y="27.648"/>
      </g>
     </g>
    </g>
    <g id="xtick_62">
     <g id="line2d_184">
      <path clip-path="url(#p33cfa7b8f0)" d="M 354.096791 298.944 
L 354.096791 27.648 
" style="fill:none;stroke:#b0b0b0;stroke-linecap:square;stroke-opacity:0.15;stroke-width:0.8;"/>
     </g>
     <g id="line2d_185">
      <g>
       <use style="stroke:#000000;stroke-width:0.6;" x="354.096791" xlink:href="#m7146e2a56f" y="298.944"/>
      </g>
     </g>
     <g id="line2d_186">
      <g>
       <use style="stroke:#000000;stroke-width:0.6;" x="354.096791" xlink:href="#m823976ea0b" y="27.648"/>
      </g>
     </g>
    </g>
    <g id="xtick_63">
     <g id="line2d_187">
      <path clip-path="url(#p33cfa7b8f0)" d="M 356.608723 298.944 
L 356.608723 27.648 
" style="fill:none;stroke:#b0b0b0;stroke-linecap:square;stroke-opacity:0.15;stroke-width:0.8;"/>
     </g>
     <g id="line2d_188">
      <g>
       <use style="stroke:#000000;stroke-width:0.6;" x="356.608723" xlink:href="#m7146e2a56f" y="298.944"/>
      </g>
     </g>
     <g id="line2d_189">
      <g>
       <use style="stroke:#000000;stroke-width:0.6;" x="356.608723" xlink:href="#m823976ea0b" y="27.648"/>
      </g>
     </g>
    </g>
    <g id="xtick_64">
     <g id="line2d_190">
      <path clip-path="url(#p33cfa7b8f0)" d="M 358.824405 298.944 
L 358.824405 27.648 
" style="fill:none;stroke:#b0b0b0;stroke-linecap:square;stroke-opacity:0.15;stroke-width:0.8;"/>
     </g>
     <g id="line2d_191">
      <g>
       <use style="stroke:#000000;stroke-width:0.6;" x="358.824405" xlink:href="#m7146e2a56f" y="298.944"/>
      </g>
     </g>
     <g id="line2d_192">
      <g>
       <use style="stroke:#000000;stroke-width:0.6;" x="358.824405" xlink:href="#m823976ea0b" y="27.648"/>
      </g>
     </g>
    </g>
    <g id="text_9">
     <!-- log10(# f-evals / dimension) -->
     <g transform="translate(102.985622 336.826656)scale(0.15 -0.15)">
      <defs>
       <path d="M 603 4863 
L 1178 4863 
L 1178 0 
L 603 0 
L 603 4863 
z
" id="DejaVuSans-6c" transform="scale(0.015625)"/>
       <path d="M 1959 3097 
Q 1497 3097 1228 2736 
Q 959 2375 959 1747 
Q 959 1119 1226 758 
Q 1494 397 1959 397 
Q 2419 397 2687 759 
Q 2956 1122 2956 1747 
Q 2956 2369 2687 2733 
Q 2419 3097 1959 3097 
z
M 1959 3584 
Q 2709 3584 3137 3096 
Q 3566 2609 3566 1747 
Q 3566 888 3137 398 
Q 2709 -91 1959 -91 
Q 1206 -91 779 398 
Q 353 888 353 1747 
Q 353 2609 779 3096 
Q 1206 3584 1959 3584 
z
" id="DejaVuSans-6f" transform="scale(0.015625)"/>
       <path d="M 2906 1791 
Q 2906 2416 2648 2759 
Q 2391 3103 1925 3103 
Q 1463 3103 1205 2759 
Q 947 2416 947 1791 
Q 947 1169 1205 825 
Q 1463 481 1925 481 
Q 2391 481 2648 825 
Q 2906 1169 2906 1791 
z
M 3481 434 
Q 3481 -459 3084 -895 
Q 2688 -1331 1869 -1331 
Q 1566 -1331 1297 -1286 
Q 1028 -1241 775 -1147 
L 775 -588 
Q 1028 -725 1275 -790 
Q 1522 -856 1778 -856 
Q 2344 -856 2625 -561 
Q 2906 -266 2906 331 
L 2906 616 
Q 2728 306 2450 153 
Q 2172 0 1784 0 
Q 1141 0 747 490 
Q 353 981 353 1791 
Q 353 2603 747 3093 
Q 1141 3584 1784 3584 
Q 2172 3584 2450 3431 
Q 2728 3278 2906 2969 
L 2906 3500 
L 3481 3500 
L 3481 434 
z
" id="DejaVuSans-67" transform="scale(0.015625)"/>
       <path d="M 1984 4856 
Q 1566 4138 1362 3434 
Q 1159 2731 1159 2009 
Q 1159 1288 1364 580 
Q 1569 -128 1984 -844 
L 1484 -844 
Q 1016 -109 783 600 
Q 550 1309 550 2009 
Q 550 2706 781 3412 
Q 1013 4119 1484 4856 
L 1984 4856 
z
" id="DejaVuSans-28" transform="scale(0.015625)"/>
       <path d="M 3272 2816 
L 2363 2816 
L 2100 1772 
L 3016 1772 
L 3272 2816 
z
M 2803 4594 
L 2478 3297 
L 3391 3297 
L 3719 4594 
L 4219 4594 
L 3897 3297 
L 4872 3297 
L 4872 2816 
L 3775 2816 
L 3519 1772 
L 4513 1772 
L 4513 1294 
L 3397 1294 
L 3072 0 
L 2572 0 
L 2894 1294 
L 1978 1294 
L 1656 0 
L 1153 0 
L 1478 1294 
L 494 1294 
L 494 1772 
L 1594 1772 
L 1856 2816 
L 850 2816 
L 850 3297 
L 1978 3297 
L 2297 4594 
L 2803 4594 
z
" id="DejaVuSans-23" transform="scale(0.015625)"/>
       <path id="DejaVuSans-20" transform="scale(0.015625)"/>
       <path d="M 2375 4863 
L 2375 4384 
L 1825 4384 
Q 1516 4384 1395 4259 
Q 1275 4134 1275 3809 
L 1275 3500 
L 2222 3500 
L 2222 3053 
L 1275 3053 
L 1275 0 
L 697 0 
L 697 3053 
L 147 3053 
L 147 3500 
L 697 3500 
L 697 3744 
Q 697 4328 969 4595 
Q 1241 4863 1831 4863 
L 2375 4863 
z
" id="DejaVuSans-66" transform="scale(0.015625)"/>
       <path d="M 313 2009 
L 1997 2009 
L 1997 1497 
L 313 1497 
L 313 2009 
z
" id="DejaVuSans-2d" transform="scale(0.015625)"/>
       <path d="M 3597 1894 
L 3597 1613 
L 953 1613 
Q 991 1019 1311 708 
Q 1631 397 2203 397 
Q 2534 397 2845 478 
Q 3156 559 3463 722 
L 3463 178 
Q 3153 47 2828 -22 
Q 2503 -91 2169 -91 
Q 1331 -91 842 396 
Q 353 884 353 1716 
Q 353 2575 817 3079 
Q 1281 3584 2069 3584 
Q 2775 3584 3186 3129 
Q 3597 2675 3597 1894 
z
M 3022 2063 
Q 3016 2534 2758 2815 
Q 2500 3097 2075 3097 
Q 1594 3097 1305 2825 
Q 1016 2553 972 2059 
L 3022 2063 
z
" id="DejaVuSans-65" transform="scale(0.015625)"/>
       <path d="M 191 3500 
L 800 3500 
L 1894 563 
L 2988 3500 
L 3597 3500 
L 2284 0 
L 1503 0 
L 191 3500 
z
" id="DejaVuSans-76" transform="scale(0.015625)"/>
       <path d="M 2194 1759 
Q 1497 1759 1228 1600 
Q 959 1441 959 1056 
Q 959 750 1161 570 
Q 1363 391 1709 391 
Q 2188 391 2477 730 
Q 2766 1069 2766 1631 
L 2766 1759 
L 2194 1759 
z
M 3341 1997 
L 3341 0 
L 2766 0 
L 2766 531 
Q 2569 213 2275 61 
Q 1981 -91 1556 -91 
Q 1019 -91 701 211 
Q 384 513 384 1019 
Q 384 1609 779 1909 
Q 1175 2209 1959 2209 
L 2766 2209 
L 2766 2266 
Q 2766 2663 2505 2880 
Q 2244 3097 1772 3097 
Q 1472 3097 1187 3025 
Q 903 2953 641 2809 
L 641 3341 
Q 956 3463 1253 3523 
Q 1550 3584 1831 3584 
Q 2591 3584 2966 3190 
Q 3341 2797 3341 1997 
z
" id="DejaVuSans-61" transform="scale(0.015625)"/>
       <path d="M 2834 3397 
L 2834 2853 
Q 2591 2978 2328 3040 
Q 2066 3103 1784 3103 
Q 1356 3103 1142 2972 
Q 928 2841 928 2578 
Q 928 2378 1081 2264 
Q 1234 2150 1697 2047 
L 1894 2003 
Q 2506 1872 2764 1633 
Q 3022 1394 3022 966 
Q 3022 478 2636 193 
Q 2250 -91 1575 -91 
Q 1294 -91 989 -36 
Q 684 19 347 128 
L 347 722 
Q 666 556 975 473 
Q 1284 391 1588 391 
Q 1994 391 2212 530 
Q 2431 669 2431 922 
Q 2431 1156 2273 1281 
Q 2116 1406 1581 1522 
L 1381 1569 
Q 847 1681 609 1914 
Q 372 2147 372 2553 
Q 372 3047 722 3315 
Q 1072 3584 1716 3584 
Q 2034 3584 2315 3537 
Q 2597 3491 2834 3397 
z
" id="DejaVuSans-73" transform="scale(0.015625)"/>
       <path d="M 1625 4666 
L 2156 4666 
L 531 -594 
L 0 -594 
L 1625 4666 
z
" id="DejaVuSans-2f" transform="scale(0.015625)"/>
       <path d="M 2906 2969 
L 2906 4863 
L 3481 4863 
L 3481 0 
L 2906 0 
L 2906 525 
Q 2725 213 2448 61 
Q 2172 -91 1784 -91 
Q 1150 -91 751 415 
Q 353 922 353 1747 
Q 353 2572 751 3078 
Q 1150 3584 1784 3584 
Q 2172 3584 2448 3432 
Q 2725 3281 2906 2969 
z
M 947 1747 
Q 947 1113 1208 752 
Q 1469 391 1925 391 
Q 2381 391 2643 752 
Q 2906 1113 2906 1747 
Q 2906 2381 2643 2742 
Q 2381 3103 1925 3103 
Q 1469 3103 1208 2742 
Q 947 2381 947 1747 
z
" id="DejaVuSans-64" transform="scale(0.015625)"/>
       <path d="M 603 3500 
L 1178 3500 
L 1178 0 
L 603 0 
L 603 3500 
z
M 603 4863 
L 1178 4863 
L 1178 4134 
L 603 4134 
L 603 4863 
z
" id="DejaVuSans-69" transform="scale(0.015625)"/>
       <path d="M 3328 2828 
Q 3544 3216 3844 3400 
Q 4144 3584 4550 3584 
Q 5097 3584 5394 3201 
Q 5691 2819 5691 2113 
L 5691 0 
L 5113 0 
L 5113 2094 
Q 5113 2597 4934 2840 
Q 4756 3084 4391 3084 
Q 3944 3084 3684 2787 
Q 3425 2491 3425 1978 
L 3425 0 
L 2847 0 
L 2847 2094 
Q 2847 2600 2669 2842 
Q 2491 3084 2119 3084 
Q 1678 3084 1418 2786 
Q 1159 2488 1159 1978 
L 1159 0 
L 581 0 
L 581 3500 
L 1159 3500 
L 1159 2956 
Q 1356 3278 1631 3431 
Q 1906 3584 2284 3584 
Q 2666 3584 2933 3390 
Q 3200 3197 3328 2828 
z
" id="DejaVuSans-6d" transform="scale(0.015625)"/>
       <path d="M 3513 2113 
L 3513 0 
L 2938 0 
L 2938 2094 
Q 2938 2591 2744 2837 
Q 2550 3084 2163 3084 
Q 1697 3084 1428 2787 
Q 1159 2491 1159 1978 
L 1159 0 
L 581 0 
L 581 3500 
L 1159 3500 
L 1159 2956 
Q 1366 3272 1645 3428 
Q 1925 3584 2291 3584 
Q 2894 3584 3203 3211 
Q 3513 2838 3513 2113 
z
" id="DejaVuSans-6e" transform="scale(0.015625)"/>
       <path d="M 513 4856 
L 1013 4856 
Q 1481 4119 1714 3412 
Q 1947 2706 1947 2009 
Q 1947 1309 1714 600 
Q 1481 -109 1013 -844 
L 513 -844 
Q 928 -128 1133 580 
Q 1338 1288 1338 2009 
Q 1338 2731 1133 3434 
Q 928 4138 513 4856 
z
" id="DejaVuSans-29" transform="scale(0.015625)"/>
      </defs>
      <use xlink:href="#DejaVuSans-6c"/>
      <use x="27.783203" xlink:href="#DejaVuSans-6f"/>
      <use x="88.964844" xlink:href="#DejaVuSans-67"/>
      <use x="152.441406" xlink:href="#DejaVuSans-31"/>
      <use x="216.064453" xlink:href="#DejaVuSans-30"/>
      <use x="279.6875" xlink:href="#DejaVuSans-28"/>
      <use x="318.701172" xlink:href="#DejaVuSans-23"/>
      <use x="402.490234" xlink:href="#DejaVuSans-20"/>
      <use x="434.277344" xlink:href="#DejaVuSans-66"/>
      <use x="463.982422" xlink:href="#DejaVuSans-2d"/>
      <use x="500.066406" xlink:href="#DejaVuSans-65"/>
      <use x="561.589844" xlink:href="#DejaVuSans-76"/>
      <use x="620.769531" xlink:href="#DejaVuSans-61"/>
      <use x="682.048828" xlink:href="#DejaVuSans-6c"/>
      <use x="709.832031" xlink:href="#DejaVuSans-73"/>
      <use x="761.931641" xlink:href="#DejaVuSans-20"/>
      <use x="793.71875" xlink:href="#DejaVuSans-2f"/>
      <use x="827.410156" xlink:href="#DejaVuSans-20"/>
      <use x="859.197266" xlink:href="#DejaVuSans-64"/>
      <use x="922.673828" xlink:href="#DejaVuSans-69"/>
      <use x="950.457031" xlink:href="#DejaVuSans-6d"/>
      <use x="1047.869141" xlink:href="#DejaVuSans-65"/>
      <use x="1109.392578" xlink:href="#DejaVuSans-6e"/>
      <use x="1172.771484" xlink:href="#DejaVuSans-73"/>
      <use x="1224.871094" xlink:href="#DejaVuSans-69"/>
      <use x="1252.654297" xlink:href="#DejaVuSans-6f"/>
      <use x="1313.835938" xlink:href="#DejaVuSans-6e"/>
      <use x="1377.214844" xlink:href="#DejaVuSans-29"/>
     </g>
    </g>
   </g>
   <g id="matplotlib.axis_2">
    <g id="ytick_1">
     <g id="line2d_193">
      <path clip-path="url(#p33cfa7b8f0)" d="M 57.6 298.944 
L 360.8064 298.944 
" style="fill:none;stroke:#b0b0b0;stroke-linecap:square;stroke-width:0.8;"/>
     </g>
     <g id="line2d_194">
      <defs>
       <path d="M 0 0 
L -3.5 0 
" id="mfe867b372c" style="stroke:#000000;stroke-width:0.8;"/>
      </defs>
      <g>
       <use style="stroke:#000000;stroke-width:0.8;" x="57.6" xlink:href="#mfe867b372c" y="298.944"/>
      </g>
     </g>
     <g id="line2d_195">
      <defs>
       <path d="M 0 0 
L 3.5 0 
" id="m1dde403ead" style="stroke:#000000;stroke-width:0.8;"/>
      </defs>
      <g>
       <use style="stroke:#000000;stroke-width:0.8;" x="360.8064" xlink:href="#m1dde403ead" y="298.944"/>
      </g>
     </g>
     <g id="text_10">
      <!-- 0.0 -->
      <g transform="translate(28.335625 304.262906)scale(0.14 -0.14)">
       <defs>
        <path d="M 684 794 
L 1344 794 
L 1344 0 
L 684 0 
L 684 794 
z
" id="DejaVuSans-2e" transform="scale(0.015625)"/>
       </defs>
       <use xlink:href="#DejaVuSans-30"/>
       <use x="63.623047" xlink:href="#DejaVuSans-2e"/>
       <use x="95.410156" xlink:href="#DejaVuSans-30"/>
      </g>
     </g>
    </g>
    <g id="ytick_2">
     <g id="line2d_196">
      <path clip-path="url(#p33cfa7b8f0)" d="M 57.6 244.6848 
L 360.8064 244.6848 
" style="fill:none;stroke:#b0b0b0;stroke-linecap:square;stroke-width:0.8;"/>
     </g>
     <g id="line2d_197">
      <g>
       <use style="stroke:#000000;stroke-width:0.8;" x="57.6" xlink:href="#mfe867b372c" y="244.6848"/>
      </g>
     </g>
     <g id="line2d_198">
      <g>
       <use style="stroke:#000000;stroke-width:0.8;" x="360.8064" xlink:href="#m1dde403ead" y="244.6848"/>
      </g>
     </g>
     <g id="text_11">
      <!-- 0.2 -->
      <g transform="translate(28.335625 250.003706)scale(0.14 -0.14)">
       <use xlink:href="#DejaVuSans-30"/>
       <use x="63.623047" xlink:href="#DejaVuSans-2e"/>
       <use x="95.410156" xlink:href="#DejaVuSans-32"/>
      </g>
     </g>
    </g>
    <g id="ytick_3">
     <g id="line2d_199">
      <path clip-path="url(#p33cfa7b8f0)" d="M 57.6 190.4256 
L 360.8064 190.4256 
" style="fill:none;stroke:#b0b0b0;stroke-linecap:square;stroke-width:0.8;"/>
     </g>
     <g id="line2d_200">
      <g>
       <use style="stroke:#000000;stroke-width:0.8;" x="57.6" xlink:href="#mfe867b372c" y="190.4256"/>
      </g>
     </g>
     <g id="line2d_201">
      <g>
       <use style="stroke:#000000;stroke-width:0.8;" x="360.8064" xlink:href="#m1dde403ead" y="190.4256"/>
      </g>
     </g>
     <g id="text_12">
      <!-- 0.4 -->
      <g transform="translate(28.335625 195.744506)scale(0.14 -0.14)">
       <use xlink:href="#DejaVuSans-30"/>
       <use x="63.623047" xlink:href="#DejaVuSans-2e"/>
       <use x="95.410156" xlink:href="#DejaVuSans-34"/>
      </g>
     </g>
    </g>
    <g id="ytick_4">
     <g id="line2d_202">
      <path clip-path="url(#p33cfa7b8f0)" d="M 57.6 136.1664 
L 360.8064 136.1664 
" style="fill:none;stroke:#b0b0b0;stroke-linecap:square;stroke-width:0.8;"/>
     </g>
     <g id="line2d_203">
      <g>
       <use style="stroke:#000000;stroke-width:0.8;" x="57.6" xlink:href="#mfe867b372c" y="136.1664"/>
      </g>
     </g>
     <g id="line2d_204">
      <g>
       <use style="stroke:#000000;stroke-width:0.8;" x="360.8064" xlink:href="#m1dde403ead" y="136.1664"/>
      </g>
     </g>
     <g id="text_13">
      <!-- 0.6 -->
      <g transform="translate(28.335625 141.485306)scale(0.14 -0.14)">
       <use xlink:href="#DejaVuSans-30"/>
       <use x="63.623047" xlink:href="#DejaVuSans-2e"/>
       <use x="95.410156" xlink:href="#DejaVuSans-36"/>
      </g>
     </g>
    </g>
    <g id="ytick_5">
     <g id="line2d_205">
      <path clip-path="url(#p33cfa7b8f0)" d="M 57.6 81.9072 
L 360.8064 81.9072 
" style="fill:none;stroke:#b0b0b0;stroke-linecap:square;stroke-width:0.8;"/>
     </g>
     <g id="line2d_206">
      <g>
       <use style="stroke:#000000;stroke-width:0.8;" x="57.6" xlink:href="#mfe867b372c" y="81.9072"/>
      </g>
     </g>
     <g id="line2d_207">
      <g>
       <use style="stroke:#000000;stroke-width:0.8;" x="360.8064" xlink:href="#m1dde403ead" y="81.9072"/>
      </g>
     </g>
     <g id="text_14">
      <!-- 0.8 -->
      <g transform="translate(28.335625 87.226106)scale(0.14 -0.14)">
       <defs>
        <path d="M 2034 2216 
Q 1584 2216 1326 1975 
Q 1069 1734 1069 1313 
Q 1069 891 1326 650 
Q 1584 409 2034 409 
Q 2484 409 2743 651 
Q 3003 894 3003 1313 
Q 3003 1734 2745 1975 
Q 2488 2216 2034 2216 
z
M 1403 2484 
Q 997 2584 770 2862 
Q 544 3141 544 3541 
Q 544 4100 942 4425 
Q 1341 4750 2034 4750 
Q 2731 4750 3128 4425 
Q 3525 4100 3525 3541 
Q 3525 3141 3298 2862 
Q 3072 2584 2669 2484 
Q 3125 2378 3379 2068 
Q 3634 1759 3634 1313 
Q 3634 634 3220 271 
Q 2806 -91 2034 -91 
Q 1263 -91 848 271 
Q 434 634 434 1313 
Q 434 1759 690 2068 
Q 947 2378 1403 2484 
z
M 1172 3481 
Q 1172 3119 1398 2916 
Q 1625 2713 2034 2713 
Q 2441 2713 2670 2916 
Q 2900 3119 2900 3481 
Q 2900 3844 2670 4047 
Q 2441 4250 2034 4250 
Q 1625 4250 1398 4047 
Q 1172 3844 1172 3481 
z
" id="DejaVuSans-38" transform="scale(0.015625)"/>
       </defs>
       <use xlink:href="#DejaVuSans-30"/>
       <use x="63.623047" xlink:href="#DejaVuSans-2e"/>
       <use x="95.410156" xlink:href="#DejaVuSans-38"/>
      </g>
     </g>
    </g>
    <g id="ytick_6">
     <g id="line2d_208">
      <path clip-path="url(#p33cfa7b8f0)" d="M 57.6 27.648 
L 360.8064 27.648 
" style="fill:none;stroke:#b0b0b0;stroke-linecap:square;stroke-width:0.8;"/>
     </g>
     <g id="line2d_209">
      <g>
       <use style="stroke:#000000;stroke-width:0.8;" x="57.6" xlink:href="#mfe867b372c" y="27.648"/>
      </g>
     </g>
     <g id="line2d_210">
      <g>
       <use style="stroke:#000000;stroke-width:0.8;" x="360.8064" xlink:href="#m1dde403ead" y="27.648"/>
      </g>
     </g>
     <g id="text_15">
      <!-- 1.0 -->
      <g transform="translate(28.335625 32.966906)scale(0.14 -0.14)">
       <use xlink:href="#DejaVuSans-31"/>
       <use x="63.623047" xlink:href="#DejaVuSans-2e"/>
       <use x="95.410156" xlink:href="#DejaVuSans-30"/>
      </g>
     </g>
    </g>
    <g id="ytick_7">
     <g id="line2d_211">
      <path clip-path="url(#p33cfa7b8f0)" d="M 57.6 285.3792 
L 360.8064 285.3792 
" style="fill:none;stroke:#b0b0b0;stroke-linecap:square;stroke-opacity:0.15;stroke-width:0.8;"/>
     </g>
     <g id="line2d_212">
      <defs>
       <path d="M 0 0 
L -2 0 
" id="mfd9c1408ef" style="stroke:#000000;stroke-width:0.6;"/>
      </defs>
      <g>
       <use style="stroke:#000000;stroke-width:0.6;" x="57.6" xlink:href="#mfd9c1408ef" y="285.3792"/>
      </g>
     </g>
     <g id="line2d_213">
      <defs>
       <path d="M 0 0 
L 2 0 
" id="m9ce5e1c643" style="stroke:#000000;stroke-width:0.6;"/>
      </defs>
      <g>
       <use style="stroke:#000000;stroke-width:0.6;" x="360.8064" xlink:href="#m9ce5e1c643" y="285.3792"/>
      </g>
     </g>
    </g>
    <g id="ytick_8">
     <g id="line2d_214">
      <path clip-path="url(#p33cfa7b8f0)" d="M 57.6 271.8144 
L 360.8064 271.8144 
" style="fill:none;stroke:#b0b0b0;stroke-linecap:square;stroke-opacity:0.15;stroke-width:0.8;"/>
     </g>
     <g id="line2d_215">
      <g>
       <use style="stroke:#000000;stroke-width:0.6;" x="57.6" xlink:href="#mfd9c1408ef" y="271.8144"/>
      </g>
     </g>
     <g id="line2d_216">
      <g>
       <use style="stroke:#000000;stroke-width:0.6;" x="360.8064" xlink:href="#m9ce5e1c643" y="271.8144"/>
      </g>
     </g>
    </g>
    <g id="ytick_9">
     <g id="line2d_217">
      <path clip-path="url(#p33cfa7b8f0)" d="M 57.6 258.2496 
L 360.8064 258.2496 
" style="fill:none;stroke:#b0b0b0;stroke-linecap:square;stroke-opacity:0.15;stroke-width:0.8;"/>
     </g>
     <g id="line2d_218">
      <g>
       <use style="stroke:#000000;stroke-width:0.6;" x="57.6" xlink:href="#mfd9c1408ef" y="258.2496"/>
      </g>
     </g>
     <g id="line2d_219">
      <g>
       <use style="stroke:#000000;stroke-width:0.6;" x="360.8064" xlink:href="#m9ce5e1c643" y="258.2496"/>
      </g>
     </g>
    </g>
    <g id="ytick_10">
     <g id="line2d_220">
      <path clip-path="url(#p33cfa7b8f0)" d="M 57.6 231.12 
L 360.8064 231.12 
" style="fill:none;stroke:#b0b0b0;stroke-linecap:square;stroke-opacity:0.15;stroke-width:0.8;"/>
     </g>
     <g id="line2d_221">
      <g>
       <use style="stroke:#000000;stroke-width:0.6;" x="57.6" xlink:href="#mfd9c1408ef" y="231.12"/>
      </g>
     </g>
     <g id="line2d_222">
      <g>
       <use style="stroke:#000000;stroke-width:0.6;" x="360.8064" xlink:href="#m9ce5e1c643" y="231.12"/>
      </g>
     </g>
    </g>
    <g id="ytick_11">
     <g id="line2d_223">
      <path clip-path="url(#p33cfa7b8f0)" d="M 57.6 217.5552 
L 360.8064 217.5552 
" style="fill:none;stroke:#b0b0b0;stroke-linecap:square;stroke-opacity:0.15;stroke-width:0.8;"/>
     </g>
     <g id="line2d_224">
      <g>
       <use style="stroke:#000000;stroke-width:0.6;" x="57.6" xlink:href="#mfd9c1408ef" y="217.5552"/>
      </g>
     </g>
     <g id="line2d_225">
      <g>
       <use style="stroke:#000000;stroke-width:0.6;" x="360.8064" xlink:href="#m9ce5e1c643" y="217.5552"/>
      </g>
     </g>
    </g>
    <g id="ytick_12">
     <g id="line2d_226">
      <path clip-path="url(#p33cfa7b8f0)" d="M 57.6 203.9904 
L 360.8064 203.9904 
" style="fill:none;stroke:#b0b0b0;stroke-linecap:square;stroke-opacity:0.15;stroke-width:0.8;"/>
     </g>
     <g id="line2d_227">
      <g>
       <use style="stroke:#000000;stroke-width:0.6;" x="57.6" xlink:href="#mfd9c1408ef" y="203.9904"/>
      </g>
     </g>
     <g id="line2d_228">
      <g>
       <use style="stroke:#000000;stroke-width:0.6;" x="360.8064" xlink:href="#m9ce5e1c643" y="203.9904"/>
      </g>
     </g>
    </g>
    <g id="ytick_13">
     <g id="line2d_229">
      <path clip-path="url(#p33cfa7b8f0)" d="M 57.6 176.8608 
L 360.8064 176.8608 
" style="fill:none;stroke:#b0b0b0;stroke-linecap:square;stroke-opacity:0.15;stroke-width:0.8;"/>
     </g>
     <g id="line2d_230">
      <g>
       <use style="stroke:#000000;stroke-width:0.6;" x="57.6" xlink:href="#mfd9c1408ef" y="176.8608"/>
      </g>
     </g>
     <g id="line2d_231">
      <g>
       <use style="stroke:#000000;stroke-width:0.6;" x="360.8064" xlink:href="#m9ce5e1c643" y="176.8608"/>
      </g>
     </g>
    </g>
    <g id="ytick_14">
     <g id="line2d_232">
      <path clip-path="url(#p33cfa7b8f0)" d="M 57.6 163.296 
L 360.8064 163.296 
" style="fill:none;stroke:#b0b0b0;stroke-linecap:square;stroke-opacity:0.15;stroke-width:0.8;"/>
     </g>
     <g id="line2d_233">
      <g>
       <use style="stroke:#000000;stroke-width:0.6;" x="57.6" xlink:href="#mfd9c1408ef" y="163.296"/>
      </g>
     </g>
     <g id="line2d_234">
      <g>
       <use style="stroke:#000000;stroke-width:0.6;" x="360.8064" xlink:href="#m9ce5e1c643" y="163.296"/>
      </g>
     </g>
    </g>
    <g id="ytick_15">
     <g id="line2d_235">
      <path clip-path="url(#p33cfa7b8f0)" d="M 57.6 149.7312 
L 360.8064 149.7312 
" style="fill:none;stroke:#b0b0b0;stroke-linecap:square;stroke-opacity:0.15;stroke-width:0.8;"/>
     </g>
     <g id="line2d_236">
      <g>
       <use style="stroke:#000000;stroke-width:0.6;" x="57.6" xlink:href="#mfd9c1408ef" y="149.7312"/>
      </g>
     </g>
     <g id="line2d_237">
      <g>
       <use style="stroke:#000000;stroke-width:0.6;" x="360.8064" xlink:href="#m9ce5e1c643" y="149.7312"/>
      </g>
     </g>
    </g>
    <g id="ytick_16">
     <g id="line2d_238">
      <path clip-path="url(#p33cfa7b8f0)" d="M 57.6 122.6016 
L 360.8064 122.6016 
" style="fill:none;stroke:#b0b0b0;stroke-linecap:square;stroke-opacity:0.15;stroke-width:0.8;"/>
     </g>
     <g id="line2d_239">
      <g>
       <use style="stroke:#000000;stroke-width:0.6;" x="57.6" xlink:href="#mfd9c1408ef" y="122.6016"/>
      </g>
     </g>
     <g id="line2d_240">
      <g>
       <use style="stroke:#000000;stroke-width:0.6;" x="360.8064" xlink:href="#m9ce5e1c643" y="122.6016"/>
      </g>
     </g>
    </g>
    <g id="ytick_17">
     <g id="line2d_241">
      <path clip-path="url(#p33cfa7b8f0)" d="M 57.6 109.0368 
L 360.8064 109.0368 
" style="fill:none;stroke:#b0b0b0;stroke-linecap:square;stroke-opacity:0.15;stroke-width:0.8;"/>
     </g>
     <g id="line2d_242">
      <g>
       <use style="stroke:#000000;stroke-width:0.6;" x="57.6" xlink:href="#mfd9c1408ef" y="109.0368"/>
      </g>
     </g>
     <g id="line2d_243">
      <g>
       <use style="stroke:#000000;stroke-width:0.6;" x="360.8064" xlink:href="#m9ce5e1c643" y="109.0368"/>
      </g>
     </g>
    </g>
    <g id="ytick_18">
     <g id="line2d_244">
      <path clip-path="url(#p33cfa7b8f0)" d="M 57.6 95.472 
L 360.8064 95.472 
" style="fill:none;stroke:#b0b0b0;stroke-linecap:square;stroke-opacity:0.15;stroke-width:0.8;"/>
     </g>
     <g id="line2d_245">
      <g>
       <use style="stroke:#000000;stroke-width:0.6;" x="57.6" xlink:href="#mfd9c1408ef" y="95.472"/>
      </g>
     </g>
     <g id="line2d_246">
      <g>
       <use style="stroke:#000000;stroke-width:0.6;" x="360.8064" xlink:href="#m9ce5e1c643" y="95.472"/>
      </g>
     </g>
    </g>
    <g id="ytick_19">
     <g id="line2d_247">
      <path clip-path="url(#p33cfa7b8f0)" d="M 57.6 68.3424 
L 360.8064 68.3424 
" style="fill:none;stroke:#b0b0b0;stroke-linecap:square;stroke-opacity:0.15;stroke-width:0.8;"/>
     </g>
     <g id="line2d_248">
      <g>
       <use style="stroke:#000000;stroke-width:0.6;" x="57.6" xlink:href="#mfd9c1408ef" y="68.3424"/>
      </g>
     </g>
     <g id="line2d_249">
      <g>
       <use style="stroke:#000000;stroke-width:0.6;" x="360.8064" xlink:href="#m9ce5e1c643" y="68.3424"/>
      </g>
     </g>
    </g>
    <g id="ytick_20">
     <g id="line2d_250">
      <path clip-path="url(#p33cfa7b8f0)" d="M 57.6 54.7776 
L 360.8064 54.7776 
" style="fill:none;stroke:#b0b0b0;stroke-linecap:square;stroke-opacity:0.15;stroke-width:0.8;"/>
     </g>
     <g id="line2d_251">
      <g>
       <use style="stroke:#000000;stroke-width:0.6;" x="57.6" xlink:href="#mfd9c1408ef" y="54.7776"/>
      </g>
     </g>
     <g id="line2d_252">
      <g>
       <use style="stroke:#000000;stroke-width:0.6;" x="360.8064" xlink:href="#m9ce5e1c643" y="54.7776"/>
      </g>
     </g>
    </g>
    <g id="ytick_21">
     <g id="line2d_253">
      <path clip-path="url(#p33cfa7b8f0)" d="M 57.6 41.2128 
L 360.8064 41.2128 
" style="fill:none;stroke:#b0b0b0;stroke-linecap:square;stroke-opacity:0.15;stroke-width:0.8;"/>
     </g>
     <g id="line2d_254">
      <g>
       <use style="stroke:#000000;stroke-width:0.6;" x="57.6" xlink:href="#mfd9c1408ef" y="41.2128"/>
      </g>
     </g>
     <g id="line2d_255">
      <g>
       <use style="stroke:#000000;stroke-width:0.6;" x="360.8064" xlink:href="#m9ce5e1c643" y="41.2128"/>
      </g>
     </g>
    </g>
    <g id="text_16">
     <!-- Fraction of function,target pairs -->
     <g transform="translate(21.216094 281.871)rotate(-90)scale(0.15 -0.15)">
      <defs>
       <path d="M 628 4666 
L 3309 4666 
L 3309 4134 
L 1259 4134 
L 1259 2759 
L 3109 2759 
L 3109 2228 
L 1259 2228 
L 1259 0 
L 628 0 
L 628 4666 
z
" id="DejaVuSans-46" transform="scale(0.015625)"/>
       <path d="M 2631 2963 
Q 2534 3019 2420 3045 
Q 2306 3072 2169 3072 
Q 1681 3072 1420 2755 
Q 1159 2438 1159 1844 
L 1159 0 
L 581 0 
L 581 3500 
L 1159 3500 
L 1159 2956 
Q 1341 3275 1631 3429 
Q 1922 3584 2338 3584 
Q 2397 3584 2469 3576 
Q 2541 3569 2628 3553 
L 2631 2963 
z
" id="DejaVuSans-72" transform="scale(0.015625)"/>
       <path d="M 3122 3366 
L 3122 2828 
Q 2878 2963 2633 3030 
Q 2388 3097 2138 3097 
Q 1578 3097 1268 2742 
Q 959 2388 959 1747 
Q 959 1106 1268 751 
Q 1578 397 2138 397 
Q 2388 397 2633 464 
Q 2878 531 3122 666 
L 3122 134 
Q 2881 22 2623 -34 
Q 2366 -91 2075 -91 
Q 1284 -91 818 406 
Q 353 903 353 1747 
Q 353 2603 823 3093 
Q 1294 3584 2113 3584 
Q 2378 3584 2631 3529 
Q 2884 3475 3122 3366 
z
" id="DejaVuSans-63" transform="scale(0.015625)"/>
       <path d="M 1172 4494 
L 1172 3500 
L 2356 3500 
L 2356 3053 
L 1172 3053 
L 1172 1153 
Q 1172 725 1289 603 
Q 1406 481 1766 481 
L 2356 481 
L 2356 0 
L 1766 0 
Q 1100 0 847 248 
Q 594 497 594 1153 
L 594 3053 
L 172 3053 
L 172 3500 
L 594 3500 
L 594 4494 
L 1172 4494 
z
" id="DejaVuSans-74" transform="scale(0.015625)"/>
       <path d="M 544 1381 
L 544 3500 
L 1119 3500 
L 1119 1403 
Q 1119 906 1312 657 
Q 1506 409 1894 409 
Q 2359 409 2629 706 
Q 2900 1003 2900 1516 
L 2900 3500 
L 3475 3500 
L 3475 0 
L 2900 0 
L 2900 538 
Q 2691 219 2414 64 
Q 2138 -91 1772 -91 
Q 1169 -91 856 284 
Q 544 659 544 1381 
z
M 1991 3584 
L 1991 3584 
z
" id="DejaVuSans-75" transform="scale(0.015625)"/>
       <path d="M 750 794 
L 1409 794 
L 1409 256 
L 897 -744 
L 494 -744 
L 750 256 
L 750 794 
z
" id="DejaVuSans-2c" transform="scale(0.015625)"/>
       <path d="M 1159 525 
L 1159 -1331 
L 581 -1331 
L 581 3500 
L 1159 3500 
L 1159 2969 
Q 1341 3281 1617 3432 
Q 1894 3584 2278 3584 
Q 2916 3584 3314 3078 
Q 3713 2572 3713 1747 
Q 3713 922 3314 415 
Q 2916 -91 2278 -91 
Q 1894 -91 1617 61 
Q 1341 213 1159 525 
z
M 3116 1747 
Q 3116 2381 2855 2742 
Q 2594 3103 2138 3103 
Q 1681 3103 1420 2742 
Q 1159 2381 1159 1747 
Q 1159 1113 1420 752 
Q 1681 391 2138 391 
Q 2594 391 2855 752 
Q 3116 1113 3116 1747 
z
" id="DejaVuSans-70" transform="scale(0.015625)"/>
      </defs>
      <use xlink:href="#DejaVuSans-46"/>
      <use x="50.269531" xlink:href="#DejaVuSans-72"/>
      <use x="91.382812" xlink:href="#DejaVuSans-61"/>
      <use x="152.662109" xlink:href="#DejaVuSans-63"/>
      <use x="207.642578" xlink:href="#DejaVuSans-74"/>
      <use x="246.851562" xlink:href="#DejaVuSans-69"/>
      <use x="274.634766" xlink:href="#DejaVuSans-6f"/>
      <use x="335.816406" xlink:href="#DejaVuSans-6e"/>
      <use x="399.195312" xlink:href="#DejaVuSans-20"/>
      <use x="430.982422" xlink:href="#DejaVuSans-6f"/>
      <use x="492.164062" xlink:href="#DejaVuSans-66"/>
      <use x="527.369141" xlink:href="#DejaVuSans-20"/>
      <use x="559.15625" xlink:href="#DejaVuSans-66"/>
      <use x="594.361328" xlink:href="#DejaVuSans-75"/>
      <use x="657.740234" xlink:href="#DejaVuSans-6e"/>
      <use x="721.119141" xlink:href="#DejaVuSans-63"/>
      <use x="776.099609" xlink:href="#DejaVuSans-74"/>
      <use x="815.308594" xlink:href="#DejaVuSans-69"/>
      <use x="843.091797" xlink:href="#DejaVuSans-6f"/>
      <use x="904.273438" xlink:href="#DejaVuSans-6e"/>
      <use x="967.652344" xlink:href="#DejaVuSans-2c"/>
      <use x="999.439453" xlink:href="#DejaVuSans-74"/>
      <use x="1038.648438" xlink:href="#DejaVuSans-61"/>
      <use x="1099.927734" xlink:href="#DejaVuSans-72"/>
      <use x="1139.291016" xlink:href="#DejaVuSans-67"/>
      <use x="1202.767578" xlink:href="#DejaVuSans-65"/>
      <use x="1264.291016" xlink:href="#DejaVuSans-74"/>
      <use x="1303.5" xlink:href="#DejaVuSans-20"/>
      <use x="1335.287109" xlink:href="#DejaVuSans-70"/>
      <use x="1398.763672" xlink:href="#DejaVuSans-61"/>
      <use x="1460.042969" xlink:href="#DejaVuSans-69"/>
      <use x="1487.826172" xlink:href="#DejaVuSans-72"/>
      <use x="1528.939453" xlink:href="#DejaVuSans-73"/>
     </g>
    </g>
   </g>
   <g id="line2d_256">
    <defs>
     <path d="M 0 1 
C 0.265203 1 0.51958 0.894634 0.707107 0.707107 
C 0.894634 0.51958 1 0.265203 1 0 
C 1 -0.265203 0.894634 -0.51958 0.707107 -0.707107 
C 0.51958 -0.894634 0.265203 -1 0 -1 
C -0.265203 -1 -0.51958 -0.894634 -0.707107 -0.707107 
C -0.894634 -0.51958 -1 -0.265203 -1 0 
C -1 0.265203 -0.894634 0.51958 -0.707107 0.707107 
C -0.51958 0.894634 -0.265203 1 0 1 
z
" id="m210eab1a4e" style="stroke:#ff7d0b;"/>
    </defs>
    <g>
     <use style="fill:#ff7d0b;stroke:#ff7d0b;" x="212.82397" xlink:href="#m210eab1a4e" y="27.648"/>
    </g>
   </g>
   <g id="line2d_257">
    <path d="M 90.989609 298.944 
L 90.989609 298.589365 
L 102.154971 298.589365 
L 102.154971 298.234729 
L 102.600944 298.234729 
L 102.600944 297.880094 
L 103.369729 297.880094 
L 103.369729 297.525459 
L 103.595388 297.525459 
L 103.595388 297.170824 
L 104.432925 297.170824 
L 104.432925 296.816188 
L 104.761603 296.816188 
L 104.761603 296.461553 
L 105.678053 296.461553 
L 105.769106 295.752282 
L 106.725382 295.752282 
L 106.725382 295.397647 
L 107.067575 295.397647 
L 107.067575 295.043012 
L 107.937293 295.043012 
L 107.937293 294.688376 
L 108.369394 294.688376 
L 108.369394 294.333741 
L 109.40812 294.333741 
L 109.40812 293.979106 
L 110.199685 293.979106 
L 110.199685 293.624471 
L 119.560576 293.624471 
L 119.560576 293.269835 
L 120.136397 293.269835 
L 120.136397 292.9152 
L 121.129637 292.9152 
L 121.129637 292.560565 
L 122.592702 292.560565 
L 122.670535 291.851294 
L 124.221163 291.851294 
L 124.221163 291.496659 
L 124.400822 291.496659 
L 124.400822 291.142024 
L 124.682096 291.142024 
L 124.682096 290.787388 
L 124.9494 290.787388 
L 125.024613 290.078118 
L 125.08652 290.078118 
L 125.08652 289.723482 
L 125.935593 289.723482 
L 125.935593 289.368847 
L 127.160348 289.368847 
L 127.160348 289.014212 
L 127.337228 289.014212 
L 127.337228 288.659576 
L 127.475253 288.659576 
L 127.475253 288.304941 
L 127.801875 288.304941 
L 127.801875 287.950306 
L 129.001685 287.950306 
L 129.001685 287.595671 
L 129.750052 287.595671 
L 129.750052 287.241035 
L 130.024751 287.241035 
L 130.024751 286.8864 
L 130.196593 286.8864 
L 130.196593 286.531765 
L 130.887807 286.531765 
L 130.887807 286.177129 
L 131.002163 286.177129 
L 131.002163 285.822494 
L 131.303758 285.822494 
L 131.303758 285.467859 
L 131.770088 285.467859 
L 131.801984 284.758588 
L 132.322814 284.758588 
L 132.322814 284.403953 
L 132.762679 284.403953 
L 132.762679 284.049318 
L 133.043918 284.049318 
L 133.043918 283.694682 
L 133.74045 283.694682 
L 133.830586 282.985412 
L 135.637447 282.985412 
L 135.637447 282.630776 
L 135.89191 282.630776 
L 135.895573 281.921506 
L 136.408565 281.921506 
L 136.516948 281.212235 
L 137.463597 281.212235 
L 137.463597 280.8576 
L 138.318254 280.8576 
L 138.318254 280.502965 
L 138.43541 280.502965 
L 138.43541 280.148329 
L 140.263507 280.148329 
L 140.263507 279.793694 
L 140.383617 279.793694 
L 140.383617 279.439059 
L 141.255976 279.439059 
L 141.255976 279.084424 
L 142.050104 279.084424 
L 142.050104 278.729788 
L 145.071922 278.729788 
L 145.071922 278.375153 
L 145.264312 278.375153 
L 145.264312 278.020518 
L 148.330947 278.020518 
L 148.330947 277.665882 
L 151.29696 277.665882 
L 151.29696 277.311247 
L 151.488178 277.311247 
L 151.488178 276.956612 
L 152.88432 276.956612 
L 152.88432 276.601976 
L 156.603636 276.601976 
L 156.603636 276.247341 
L 157.467229 276.247341 
L 157.467229 275.892706 
L 158.039004 275.892706 
L 158.039004 275.538071 
L 159.914043 275.538071 
L 159.914043 275.183435 
L 160.640448 275.183435 
L 160.640448 274.8288 
L 161.015086 274.8288 
L 161.015086 274.474165 
L 161.336528 274.474165 
L 161.336528 274.119529 
L 162.184694 274.119529 
L 162.184694 273.764894 
L 162.352345 273.764894 
L 162.352345 273.410259 
L 162.551841 273.410259 
L 162.551841 273.055624 
L 162.677058 273.055624 
L 162.677058 272.700988 
L 163.28966 272.700988 
L 163.28966 272.346353 
L 163.460059 272.346353 
L 163.523827 271.637082 
L 163.576451 271.637082 
L 163.59746 270.927812 
L 163.700064 270.927812 
L 163.700064 270.573176 
L 164.001685 270.573176 
L 164.024277 269.863906 
L 164.201197 269.863906 
L 164.201197 269.509271 
L 164.360748 269.509271 
L 164.409477 268.8 
L 164.577247 268.8 
L 164.621443 268.090729 
L 165.032116 268.090729 
L 165.032116 267.736094 
L 165.274515 267.736094 
L 165.34353 267.026824 
L 165.468263 267.026824 
L 165.57139 265.962918 
L 165.622743 265.962918 
L 165.67057 265.253647 
L 165.781573 265.253647 
L 165.781573 264.899012 
L 165.913101 264.899012 
L 165.913101 264.544376 
L 166.406709 264.544376 
L 166.421532 263.835106 
L 166.546163 263.835106 
L 166.598864 263.125835 
L 166.842161 263.125835 
L 166.842161 262.7712 
L 166.978786 262.7712 
L 166.978786 262.416565 
L 167.192637 262.416565 
L 167.251516 261.707294 
L 167.626746 261.707294 
L 167.673466 260.998024 
L 167.770932 260.998024 
L 167.827695 260.288753 
L 167.902335 260.288753 
L 167.925703 259.579482 
L 168.08682 259.579482 
L 168.08682 259.224847 
L 168.308456 259.224847 
L 168.308456 258.870212 
L 168.507467 258.870212 
L 168.617447 257.806306 
L 168.629021 257.806306 
L 168.629021 257.451671 
L 169.078683 257.451671 
L 169.094366 256.7424 
L 169.504353 256.7424 
L 169.612028 255.323859 
L 169.7109 255.323859 
L 169.731521 254.259953 
L 169.877046 254.259953 
L 169.957176 253.550682 
L 170.238073 253.550682 
L 170.330487 252.841412 
L 170.681843 252.841412 
L 170.686741 252.132141 
L 170.891886 252.132141 
L 170.891886 251.777506 
L 171.007509 251.777506 
L 171.070842 250.7136 
L 171.281634 250.7136 
L 171.368517 250.004329 
L 171.448639 250.004329 
L 171.549621 248.940424 
L 171.571896 248.940424 
L 171.67878 247.876518 
L 171.784789 247.876518 
L 171.830116 246.812612 
L 171.901279 246.812612 
L 171.974327 246.103341 
L 172.08484 246.103341 
L 172.165436 245.394071 
L 172.348032 245.394071 
L 172.348032 245.039435 
L 172.51084 245.039435 
L 172.51084 244.6848 
L 172.638521 244.6848 
L 172.748051 243.620894 
L 172.846163 243.620894 
L 172.907448 242.202353 
L 173.042644 242.202353 
L 173.143028 241.138447 
L 173.243634 241.138447 
L 173.301885 240.074541 
L 173.365203 240.074541 
L 173.365203 239.719906 
L 173.687238 239.719906 
L 173.761756 238.656 
L 173.800857 238.656 
L 173.800857 238.301365 
L 174.019061 238.301365 
L 174.077369 237.592094 
L 174.195597 237.592094 
L 174.306196 236.528188 
L 174.307622 236.528188 
L 174.374992 235.464282 
L 174.53016 235.464282 
L 174.623632 234.400376 
L 174.687087 234.400376 
L 174.687087 234.045741 
L 174.803871 234.045741 
L 174.874102 232.981835 
L 174.938098 232.981835 
L 174.956014 231.563294 
L 175.067266 231.563294 
L 175.171736 229.790118 
L 175.233825 229.790118 
L 175.256659 229.080847 
L 175.350871 229.080847 
L 175.418421 227.662306 
L 175.479478 227.662306 
L 175.561915 226.5984 
L 175.630042 226.5984 
L 175.722185 225.889129 
L 175.742013 225.889129 
L 175.835365 224.470588 
L 175.949609 224.470588 
L 175.956795 223.761318 
L 176.144597 223.761318 
L 176.249055 222.342776 
L 176.256556 222.342776 
L 176.305556 221.633506 
L 176.368279 221.633506 
L 176.478071 219.860329 
L 176.529244 219.860329 
L 176.607426 217.732518 
L 176.741118 217.732518 
L 176.80428 216.668612 
L 176.86412 216.668612 
L 176.939892 215.959341 
L 177.064068 215.959341 
L 177.068993 214.895435 
L 177.189876 214.895435 
L 177.242811 214.186165 
L 177.303301 214.186165 
L 177.402342 213.122259 
L 177.421887 213.122259 
L 177.458503 212.412988 
L 177.576916 212.412988 
L 177.674929 210.994447 
L 177.706495 210.994447 
L 177.72949 209.930541 
L 177.830655 209.930541 
L 177.921475 208.866635 
L 178.088792 208.866635 
L 178.171606 208.157365 
L 178.234394 208.157365 
L 178.319066 206.384188 
L 178.527197 206.384188 
L 178.619448 205.320282 
L 178.640034 205.320282 
L 178.743753 203.901741 
L 178.814951 203.901741 
L 178.90748 202.837835 
L 178.930728 202.837835 
L 179.009554 201.773929 
L 179.128373 201.773929 
L 179.236574 199.646118 
L 179.247543 199.646118 
L 179.311036 198.936847 
L 179.412941 198.936847 
L 179.518442 197.163671 
L 179.557313 197.163671 
L 179.614574 195.390494 
L 179.730535 195.390494 
L 179.806973 193.617318 
L 179.896526 193.617318 
L 179.992682 192.198776 
L 180.131294 192.198776 
L 180.175706 191.134871 
L 180.242736 191.134871 
L 180.335418 189.716329 
L 180.389674 189.716329 
L 180.455089 188.652424 
L 180.57741 188.652424 
L 180.682692 187.943153 
L 180.745748 187.943153 
L 180.776102 186.879247 
L 180.86905 186.879247 
L 180.976551 184.751435 
L 181.000375 184.751435 
L 181.022839 183.332894 
L 181.123183 183.332894 
L 181.224804 181.914353 
L 181.23681 181.914353 
L 181.304265 180.850447 
L 181.352043 180.850447 
L 181.456014 180.141176 
L 181.517669 180.141176 
L 181.562646 179.077271 
L 181.648259 179.077271 
L 181.731081 177.658729 
L 181.773474 177.658729 
L 181.832506 176.594824 
L 181.909764 176.594824 
L 181.976434 175.885553 
L 182.128523 175.885553 
L 182.238593 173.757741 
L 182.24249 173.757741 
L 182.347867 172.3392 
L 182.398326 172.3392 
L 182.489458 170.566024 
L 182.557941 170.566024 
L 182.646017 169.502118 
L 182.677721 169.502118 
L 182.677721 169.147482 
L 182.794927 169.147482 
L 182.889735 167.374306 
L 182.925391 167.374306 
L 182.946122 166.665035 
L 183.084489 166.665035 
L 183.172662 165.246494 
L 183.201566 165.246494 
L 183.291404 163.827953 
L 183.324689 163.827953 
L 183.410427 162.409412 
L 183.437652 162.409412 
L 183.540924 161.345506 
L 183.558953 161.345506 
L 183.608734 159.926965 
L 183.70473 159.926965 
L 183.79536 158.863059 
L 183.826333 158.863059 
L 183.929921 157.444518 
L 184.024438 157.444518 
L 184.107475 156.025976 
L 184.152167 156.025976 
L 184.245856 153.898165 
L 184.329459 153.898165 
L 184.435731 152.479624 
L 184.463037 152.479624 
L 184.545544 151.061082 
L 184.648961 151.061082 
L 184.752221 148.933271 
L 184.834015 148.933271 
L 184.92681 147.160094 
L 184.952198 147.160094 
L 185.045756 145.741553 
L 185.124415 145.741553 
L 185.169292 145.032282 
L 185.236142 145.032282 
L 185.319304 143.968376 
L 185.350776 143.968376 
L 185.416984 142.904471 
L 185.496863 142.904471 
L 185.58045 141.840565 
L 185.664836 141.840565 
L 185.772632 140.422024 
L 185.830937 140.422024 
L 185.935739 139.358118 
L 185.996733 139.358118 
L 186.087409 136.875671 
L 186.19585 136.875671 
L 186.306431 135.102494 
L 186.337173 135.102494 
L 186.337173 134.747859 
L 186.452413 134.747859 
L 186.518711 132.974682 
L 186.607283 132.974682 
L 186.688427 131.556141 
L 186.757456 131.556141 
L 186.764566 130.846871 
L 186.872595 130.846871 
L 186.980371 129.428329 
L 186.991756 129.428329 
L 186.995509 128.719059 
L 187.107881 128.719059 
L 187.208217 127.655153 
L 187.27012 127.655153 
L 187.275607 126.945882 
L 187.416653 126.945882 
L 187.520423 124.818071 
L 187.59386 124.818071 
L 187.656379 124.1088 
L 187.725679 124.1088 
L 187.826489 123.399529 
L 187.85658 123.399529 
L 187.85658 123.044894 
L 187.983936 123.044894 
L 188.039219 122.335624 
L 188.108038 122.335624 
L 188.21545 120.562447 
L 188.355053 120.562447 
L 188.434283 119.498541 
L 188.494074 119.498541 
L 188.519434 118.434635 
L 188.638734 118.434635 
L 188.701197 117.016094 
L 188.850093 117.016094 
L 188.859963 116.306824 
L 189.032615 116.306824 
L 189.110996 114.888282 
L 189.159724 114.888282 
L 189.177627 114.179012 
L 189.288444 114.179012 
L 189.391792 113.115106 
L 189.580768 113.115106 
L 189.618294 112.405835 
L 189.828569 112.405835 
L 189.828569 112.0512 
L 189.952188 112.0512 
L 190.052168 111.341929 
L 190.100779 111.341929 
L 190.100779 110.987294 
L 190.294587 110.987294 
L 190.361617 110.278024 
L 190.625676 110.278024 
L 190.679399 109.568753 
L 190.860861 109.568753 
L 190.871602 108.859482 
L 191.067518 108.859482 
L 191.161272 108.150212 
L 191.235437 108.150212 
L 191.235437 107.795576 
L 191.629121 107.795576 
L 191.629121 107.440941 
L 191.841217 107.440941 
L 191.94256 106.731671 
L 192.350575 106.731671 
L 192.350575 106.377035 
L 192.618497 106.377035 
L 192.717803 105.667765 
L 192.856168 105.667765 
L 192.856168 105.313129 
L 193.056433 105.313129 
L 193.12228 104.603859 
L 193.434007 104.603859 
L 193.450421 103.894588 
L 193.626544 103.894588 
L 193.678551 103.185318 
L 193.871302 103.185318 
L 193.871302 102.830682 
L 194.04962 102.830682 
L 194.101303 102.121412 
L 194.238048 102.121412 
L 194.240354 101.412141 
L 194.434473 101.412141 
L 194.434473 101.057506 
L 194.598589 101.057506 
L 194.598589 100.702871 
L 194.721264 100.702871 
L 194.809373 99.9936 
L 194.992356 99.9936 
L 195.037253 99.284329 
L 195.220311 99.284329 
L 195.316389 98.575059 
L 195.524864 98.575059 
L 195.606156 97.511153 
L 195.82623 97.511153 
L 195.879376 96.801882 
L 196.009978 96.801882 
L 196.016349 96.092612 
L 196.347302 96.092612 
L 196.356725 95.383341 
L 196.700955 95.383341 
L 196.713019 94.674071 
L 196.930442 94.674071 
L 196.936152 93.9648 
L 197.136273 93.9648 
L 197.140933 93.255529 
L 197.308555 93.255529 
L 197.308555 92.900894 
L 197.44249 92.900894 
L 197.501657 92.191624 
L 197.625699 92.191624 
L 197.703763 91.482353 
L 197.769901 91.482353 
L 197.876449 90.773082 
L 198.032017 90.773082 
L 198.137228 90.063812 
L 198.213269 90.063812 
L 198.311106 89.354541 
L 198.407052 89.354541 
L 198.463859 88.645271 
L 198.534595 88.645271 
L 198.57997 87.936 
L 198.765305 87.936 
L 198.865796 86.872094 
L 198.95973 86.872094 
L 199.017579 86.162824 
L 199.203165 86.162824 
L 199.23155 85.453553 
L 199.323868 85.453553 
L 199.371645 84.744282 
L 199.48897 84.744282 
L 199.56912 84.035012 
L 199.763499 84.035012 
L 199.827624 82.971106 
L 199.977699 82.971106 
L 200.012335 82.261835 
L 200.089867 82.261835 
L 200.176516 81.197929 
L 200.23955 81.197929 
L 200.305237 80.134024 
L 200.378068 80.134024 
L 200.41245 79.070118 
L 200.52855 79.070118 
L 200.553769 78.006212 
L 200.673801 78.006212 
L 200.713428 76.942306 
L 200.835639 76.942306 
L 200.876027 75.8784 
L 201.01231 75.8784 
L 201.04234 75.169129 
L 201.145044 75.169129 
L 201.207593 74.459859 
L 201.321333 74.459859 
L 201.39113 73.750588 
L 201.445568 73.750588 
L 201.550066 73.041318 
L 201.61724 73.041318 
L 201.715644 72.332047 
L 201.774451 72.332047 
L 201.867151 71.622776 
L 201.889377 71.622776 
L 201.999244 70.913506 
L 202.074505 70.913506 
L 202.137238 70.204235 
L 202.267616 70.204235 
L 202.333083 69.494965 
L 202.468765 69.494965 
L 202.492204 68.785694 
L 202.609757 68.785694 
L 202.60981 68.076424 
L 202.723223 68.076424 
L 202.822234 67.367153 
L 202.864359 67.367153 
L 202.864359 67.012518 
L 203.015606 67.012518 
L 203.056219 66.303247 
L 203.170976 66.303247 
L 203.223624 65.593976 
L 203.307025 65.593976 
L 203.378103 64.884706 
L 203.444773 64.884706 
L 203.444773 64.530071 
L 203.566625 64.530071 
L 203.641928 63.8208 
L 203.751638 63.8208 
L 203.831549 62.756894 
L 203.941342 62.756894 
L 203.969501 62.047624 
L 204.11907 62.047624 
L 204.11907 61.692988 
L 204.24197 61.692988 
L 204.24197 61.338353 
L 204.363015 61.338353 
L 204.363015 60.983718 
L 204.544205 60.983718 
L 204.544205 60.629082 
L 204.659398 60.629082 
L 204.659398 60.274447 
L 204.898162 60.274447 
L 204.999409 59.565176 
L 205.155522 59.565176 
L 205.24246 58.855906 
L 205.400765 58.855906 
L 205.400765 58.501271 
L 205.573583 58.501271 
L 205.656864 57.792 
L 205.759924 57.792 
L 205.759924 57.437365 
L 205.917759 57.437365 
L 205.917759 57.082729 
L 206.03459 57.082729 
L 206.03459 56.728094 
L 207.039514 56.728094 
L 207.102435 56.018824 
L 207.343582 56.018824 
L 207.343582 55.664188 
L 207.485872 55.664188 
L 207.586377 54.954918 
L 207.639379 54.954918 
L 207.744656 54.245647 
L 207.890055 54.245647 
L 207.890055 53.891012 
L 208.032203 53.891012 
L 208.104276 53.181741 
L 208.16036 53.181741 
L 208.219334 52.472471 
L 208.325825 52.472471 
L 208.414472 51.7632 
L 208.569499 51.7632 
L 208.569499 51.408565 
L 208.682482 51.408565 
L 208.743349 50.699294 
L 208.81169 50.699294 
L 208.918853 49.990024 
L 208.987011 49.990024 
L 209.071218 49.280753 
L 209.215524 49.280753 
L 209.257277 48.571482 
L 209.331609 48.571482 
L 209.43237 47.507576 
L 209.460484 47.507576 
L 209.533362 46.443671 
L 209.599042 46.443671 
L 209.685778 45.379765 
L 209.713299 45.379765 
L 209.812689 44.670494 
L 209.852134 44.670494 
L 209.949044 43.606588 
L 210.070754 43.606588 
L 210.128289 42.897318 
L 210.217979 42.897318 
L 210.312958 41.833412 
L 210.344511 41.833412 
L 210.445712 41.124141 
L 210.462097 41.124141 
L 210.523094 40.414871 
L 210.577536 40.414871 
L 210.627788 39.7056 
L 210.688732 39.7056 
L 210.741156 38.996329 
L 210.825454 38.996329 
L 210.915691 37.932424 
L 210.971007 37.932424 
L 211.053812 36.868518 
L 211.14038 36.868518 
L 211.2375 35.449976 
L 211.333357 35.449976 
L 211.333357 35.095341 
L 211.452694 35.095341 
L 211.554782 33.6768 
L 211.595161 33.6768 
L 211.656612 32.612894 
L 211.766916 32.612894 
L 211.84507 31.548988 
L 211.956204 31.548988 
L 212.028875 30.485082 
L 212.115125 30.485082 
L 212.115125 30.130447 
L 212.25091 30.130447 
L 212.344773 29.421176 
L 212.429402 29.421176 
L 212.429402 29.066541 
L 212.567454 29.066541 
L 212.628232 28.357271 
L 212.736635 28.357271 
L 212.82397 27.648 
L 360.8064 27.648 
L 360.8064 27.648 
" style="fill:none;stroke:#ff7d0b;stroke-linecap:square;stroke-width:1.8;"/>
   </g>
   <g id="line2d_258">
    <defs>
     <path d="M 0 9.8005 
L 5.8803 0 
L 0 -9.8005 
L -5.8803 0 
z
" id="m686d75cd40" style="stroke:#ff7d0b;stroke-linejoin:miter;"/>
    </defs>
    <g>
     <use style="fill-opacity:0;stroke:#ff7d0b;stroke-linejoin:miter;" x="168.08682" xlink:href="#m686d75cd40" y="259.579482"/>
     <use style="fill-opacity:0;stroke:#ff7d0b;stroke-linejoin:miter;" x="183.540924" xlink:href="#m686d75cd40" y="161.345506"/>
     <use style="fill-opacity:0;stroke:#ff7d0b;stroke-linejoin:miter;" x="211.145411" xlink:href="#m686d75cd40" y="36.159247"/>
     <use style="fill-opacity:0;stroke:#ff7d0b;stroke-linejoin:miter;" x="212.82397" xlink:href="#m686d75cd40" y="27.648"/>
     <use style="fill-opacity:0;stroke:#ff7d0b;stroke-linejoin:miter;" x="360.8064" xlink:href="#m686d75cd40" y="27.648"/>
    </g>
   </g>
   <g id="line2d_259">
    <path style="fill:none;stroke:#ff7d0b;stroke-linecap:square;stroke-width:1.8;"/>
    <g/>
   </g>
   <g id="line2d_260">
    <path d="M 360.8064 27.648 
L 380.514816 293.51808 
" style="fill:none;stroke:#ff7d0b;stroke-linecap:square;stroke-width:1.8;"/>
    <g>
     <use style="fill-opacity:0;stroke:#ff7d0b;stroke-linejoin:miter;" x="360.8064" xlink:href="#m686d75cd40" y="27.648"/>
     <use style="fill-opacity:0;stroke:#ff7d0b;stroke-linejoin:miter;" x="380.514816" xlink:href="#m686d75cd40" y="293.51808"/>
    </g>
   </g>
   <g id="line2d_261">
    <path d="M 360.8064 298.944 
L 360.8064 27.648 
" style="fill:none;stroke:#000000;stroke-linecap:square;stroke-width:1.5;"/>
   </g>
   <g id="patch_3">
    <path d="M 57.6 298.944 
L 360.8064 298.944 
" style="fill:none;stroke:#000000;stroke-linecap:square;stroke-linejoin:miter;stroke-width:0.8;"/>
   </g>
   <g id="patch_4">
    <path d="M 57.6 27.648 
L 360.8064 27.648 
" style="fill:none;stroke:#000000;stroke-linecap:square;stroke-linejoin:miter;stroke-width:0.8;"/>
   </g>
   <g id="text_17">
    <!-- CMA-ESwM  -->
    <g transform="translate(386.578944 297.381205)scale(0.14 -0.14)">
     <defs>
      <path d="M 4122 4306 
L 4122 3641 
Q 3803 3938 3442 4084 
Q 3081 4231 2675 4231 
Q 1875 4231 1450 3742 
Q 1025 3253 1025 2328 
Q 1025 1406 1450 917 
Q 1875 428 2675 428 
Q 3081 428 3442 575 
Q 3803 722 4122 1019 
L 4122 359 
Q 3791 134 3420 21 
Q 3050 -91 2638 -91 
Q 1578 -91 968 557 
Q 359 1206 359 2328 
Q 359 3453 968 4101 
Q 1578 4750 2638 4750 
Q 3056 4750 3426 4639 
Q 3797 4528 4122 4306 
z
" id="DejaVuSans-43" transform="scale(0.015625)"/>
      <path d="M 628 4666 
L 1569 4666 
L 2759 1491 
L 3956 4666 
L 4897 4666 
L 4897 0 
L 4281 0 
L 4281 4097 
L 3078 897 
L 2444 897 
L 1241 4097 
L 1241 0 
L 628 0 
L 628 4666 
z
" id="DejaVuSans-4d" transform="scale(0.015625)"/>
      <path d="M 2188 4044 
L 1331 1722 
L 3047 1722 
L 2188 4044 
z
M 1831 4666 
L 2547 4666 
L 4325 0 
L 3669 0 
L 3244 1197 
L 1141 1197 
L 716 0 
L 50 0 
L 1831 4666 
z
" id="DejaVuSans-41" transform="scale(0.015625)"/>
      <path d="M 628 4666 
L 3578 4666 
L 3578 4134 
L 1259 4134 
L 1259 2753 
L 3481 2753 
L 3481 2222 
L 1259 2222 
L 1259 531 
L 3634 531 
L 3634 0 
L 628 0 
L 628 4666 
z
" id="DejaVuSans-45" transform="scale(0.015625)"/>
      <path d="M 3425 4513 
L 3425 3897 
Q 3066 4069 2747 4153 
Q 2428 4238 2131 4238 
Q 1616 4238 1336 4038 
Q 1056 3838 1056 3469 
Q 1056 3159 1242 3001 
Q 1428 2844 1947 2747 
L 2328 2669 
Q 3034 2534 3370 2195 
Q 3706 1856 3706 1288 
Q 3706 609 3251 259 
Q 2797 -91 1919 -91 
Q 1588 -91 1214 -16 
Q 841 59 441 206 
L 441 856 
Q 825 641 1194 531 
Q 1563 422 1919 422 
Q 2459 422 2753 634 
Q 3047 847 3047 1241 
Q 3047 1584 2836 1778 
Q 2625 1972 2144 2069 
L 1759 2144 
Q 1053 2284 737 2584 
Q 422 2884 422 3419 
Q 422 4038 858 4394 
Q 1294 4750 2059 4750 
Q 2388 4750 2728 4690 
Q 3069 4631 3425 4513 
z
" id="DejaVuSans-53" transform="scale(0.015625)"/>
      <path d="M 269 3500 
L 844 3500 
L 1563 769 
L 2278 3500 
L 2956 3500 
L 3675 769 
L 4391 3500 
L 4966 3500 
L 4050 0 
L 3372 0 
L 2619 2869 
L 1863 0 
L 1184 0 
L 269 3500 
z
" id="DejaVuSans-77" transform="scale(0.015625)"/>
     </defs>
     <use xlink:href="#DejaVuSans-43"/>
     <use x="69.824219" xlink:href="#DejaVuSans-4d"/>
     <use x="156.103516" xlink:href="#DejaVuSans-41"/>
     <use x="222.261719" xlink:href="#DejaVuSans-2d"/>
     <use x="258.345703" xlink:href="#DejaVuSans-45"/>
     <use x="321.529297" xlink:href="#DejaVuSans-53"/>
     <use x="385.005859" xlink:href="#DejaVuSans-77"/>
     <use x="466.792969" xlink:href="#DejaVuSans-4d"/>
     <use x="553.072266" xlink:href="#DejaVuSans-20"/>
    </g>
   </g>
   <g id="text_18">
    <!-- bbob-mixint f13, 160-D -->
    <g transform="translate(60.632064 37.199554)scale(0.09 -0.09)">
     <defs>
      <path d="M 3116 1747 
Q 3116 2381 2855 2742 
Q 2594 3103 2138 3103 
Q 1681 3103 1420 2742 
Q 1159 2381 1159 1747 
Q 1159 1113 1420 752 
Q 1681 391 2138 391 
Q 2594 391 2855 752 
Q 3116 1113 3116 1747 
z
M 1159 2969 
Q 1341 3281 1617 3432 
Q 1894 3584 2278 3584 
Q 2916 3584 3314 3078 
Q 3713 2572 3713 1747 
Q 3713 922 3314 415 
Q 2916 -91 2278 -91 
Q 1894 -91 1617 61 
Q 1341 213 1159 525 
L 1159 0 
L 581 0 
L 581 4863 
L 1159 4863 
L 1159 2969 
z
" id="DejaVuSans-62" transform="scale(0.015625)"/>
      <path d="M 3513 3500 
L 2247 1797 
L 3578 0 
L 2900 0 
L 1881 1375 
L 863 0 
L 184 0 
L 1544 1831 
L 300 3500 
L 978 3500 
L 1906 2253 
L 2834 3500 
L 3513 3500 
z
" id="DejaVuSans-78" transform="scale(0.015625)"/>
      <path d="M 1259 4147 
L 1259 519 
L 2022 519 
Q 2988 519 3436 956 
Q 3884 1394 3884 2338 
Q 3884 3275 3436 3711 
Q 2988 4147 2022 4147 
L 1259 4147 
z
M 628 4666 
L 1925 4666 
Q 3281 4666 3915 4102 
Q 4550 3538 4550 2338 
Q 4550 1131 3912 565 
Q 3275 0 1925 0 
L 628 0 
L 628 4666 
z
" id="DejaVuSans-44" transform="scale(0.015625)"/>
     </defs>
     <use xlink:href="#DejaVuSans-62"/>
     <use x="63.476562" xlink:href="#DejaVuSans-62"/>
     <use x="126.953125" xlink:href="#DejaVuSans-6f"/>
     <use x="188.134766" xlink:href="#DejaVuSans-62"/>
     <use x="251.611328" xlink:href="#DejaVuSans-2d"/>
     <use x="287.695312" xlink:href="#DejaVuSans-6d"/>
     <use x="385.107422" xlink:href="#DejaVuSans-69"/>
     <use x="412.890625" xlink:href="#DejaVuSans-78"/>
     <use x="472.070312" xlink:href="#DejaVuSans-69"/>
     <use x="499.853516" xlink:href="#DejaVuSans-6e"/>
     <use x="563.232422" xlink:href="#DejaVuSans-74"/>
     <use x="602.441406" xlink:href="#DejaVuSans-20"/>
     <use x="634.228516" xlink:href="#DejaVuSans-66"/>
     <use x="669.433594" xlink:href="#DejaVuSans-31"/>
     <use x="733.056641" xlink:href="#DejaVuSans-33"/>
     <use x="796.679688" xlink:href="#DejaVuSans-2c"/>
     <use x="828.466797" xlink:href="#DejaVuSans-20"/>
     <use x="860.253906" xlink:href="#DejaVuSans-31"/>
     <use x="923.876953" xlink:href="#DejaVuSans-36"/>
     <use x="987.5" xlink:href="#DejaVuSans-30"/>
     <use x="1051.123047" xlink:href="#DejaVuSans-2d"/>
     <use x="1087.207031" xlink:href="#DejaVuSans-44"/>
    </g>
    <!-- 51 targets: 100..1e-08 -->
    <g transform="translate(60.632064 47.277585)scale(0.09 -0.09)">
     <defs>
      <path d="M 750 794 
L 1409 794 
L 1409 0 
L 750 0 
L 750 794 
z
M 750 3309 
L 1409 3309 
L 1409 2516 
L 750 2516 
L 750 3309 
z
" id="DejaVuSans-3a" transform="scale(0.015625)"/>
     </defs>
     <use xlink:href="#DejaVuSans-35"/>
     <use x="63.623047" xlink:href="#DejaVuSans-31"/>
     <use x="127.246094" xlink:href="#DejaVuSans-20"/>
     <use x="159.033203" xlink:href="#DejaVuSans-74"/>
     <use x="198.242188" xlink:href="#DejaVuSans-61"/>
     <use x="259.521484" xlink:href="#DejaVuSans-72"/>
     <use x="298.884766" xlink:href="#DejaVuSans-67"/>
     <use x="362.361328" xlink:href="#DejaVuSans-65"/>
     <use x="423.884766" xlink:href="#DejaVuSans-74"/>
     <use x="463.09375" xlink:href="#DejaVuSans-73"/>
     <use x="515.193359" xlink:href="#DejaVuSans-3a"/>
     <use x="548.884766" xlink:href="#DejaVuSans-20"/>
     <use x="580.671875" xlink:href="#DejaVuSans-31"/>
     <use x="644.294922" xlink:href="#DejaVuSans-30"/>
     <use x="707.917969" xlink:href="#DejaVuSans-30"/>
     <use x="771.541016" xlink:href="#DejaVuSans-2e"/>
     <use x="803.328125" xlink:href="#DejaVuSans-2e"/>
     <use x="835.115234" xlink:href="#DejaVuSans-31"/>
     <use x="898.738281" xlink:href="#DejaVuSans-65"/>
     <use x="960.261719" xlink:href="#DejaVuSans-2d"/>
     <use x="996.345703" xlink:href="#DejaVuSans-30"/>
     <use x="1059.96875" xlink:href="#DejaVuSans-38"/>
    </g>
    <!-- 15 instances -->
    <g transform="translate(60.632064 57.355616)scale(0.09 -0.09)">
     <use xlink:href="#DejaVuSans-31"/>
     <use x="63.623047" xlink:href="#DejaVuSans-35"/>
     <use x="127.246094" xlink:href="#DejaVuSans-20"/>
     <use x="159.033203" xlink:href="#DejaVuSans-69"/>
     <use x="186.816406" xlink:href="#DejaVuSans-6e"/>
     <use x="250.195312" xlink:href="#DejaVuSans-73"/>
     <use x="302.294922" xlink:href="#DejaVuSans-74"/>
     <use x="341.503906" xlink:href="#DejaVuSans-61"/>
     <use x="402.783203" xlink:href="#DejaVuSans-6e"/>
     <use x="466.162109" xlink:href="#DejaVuSans-63"/>
     <use x="521.142578" xlink:href="#DejaVuSans-65"/>
     <use x="582.666016" xlink:href="#DejaVuSans-73"/>
    </g>
   </g>
   <g id="text_19">
    <!-- v2.6.3 -->
    <g style="fill:#808080;" transform="translate(193.52195 294.151352)scale(0.1 -0.1)">
     <use xlink:href="#DejaVuSans-76"/>
     <use x="59.179688" xlink:href="#DejaVuSans-32"/>
     <use x="122.802734" xlink:href="#DejaVuSans-2e"/>
     <use x="154.589844" xlink:href="#DejaVuSans-36"/>
     <use x="218.212891" xlink:href="#DejaVuSans-2e"/>
     <use x="250" xlink:href="#DejaVuSans-33"/>
    </g>
   </g>
   <g id="text_20">
    <!-- 13 Sharp ridge -->
    <g transform="translate(135.10945 21.648)scale(0.2 -0.2)">
     <defs>
      <path d="M 3513 2113 
L 3513 0 
L 2938 0 
L 2938 2094 
Q 2938 2591 2744 2837 
Q 2550 3084 2163 3084 
Q 1697 3084 1428 2787 
Q 1159 2491 1159 1978 
L 1159 0 
L 581 0 
L 581 4863 
L 1159 4863 
L 1159 2956 
Q 1366 3272 1645 3428 
Q 1925 3584 2291 3584 
Q 2894 3584 3203 3211 
Q 3513 2838 3513 2113 
z
" id="DejaVuSans-68" transform="scale(0.015625)"/>
     </defs>
     <use xlink:href="#DejaVuSans-31"/>
     <use x="63.623047" xlink:href="#DejaVuSans-33"/>
     <use x="127.246094" xlink:href="#DejaVuSans-20"/>
     <use x="159.033203" xlink:href="#DejaVuSans-53"/>
     <use x="222.509766" xlink:href="#DejaVuSans-68"/>
     <use x="285.888672" xlink:href="#DejaVuSans-61"/>
     <use x="347.167969" xlink:href="#DejaVuSans-72"/>
     <use x="388.28125" xlink:href="#DejaVuSans-70"/>
     <use x="451.757812" xlink:href="#DejaVuSans-20"/>
     <use x="483.544922" xlink:href="#DejaVuSans-72"/>
     <use x="524.658203" xlink:href="#DejaVuSans-69"/>
     <use x="552.441406" xlink:href="#DejaVuSans-64"/>
     <use x="615.917969" xlink:href="#DejaVuSans-67"/>
     <use x="679.394531" xlink:href="#DejaVuSans-65"/>
    </g>
   </g>
  </g>
 </g>
 <defs>
  <clipPath id="p33cfa7b8f0">
   <rect height="271.296" width="303.2064" x="57.6" y="27.648"/>
  </clipPath>
 </defs>
</svg>
