<?xml version="1.0" encoding="utf-8" standalone="no"?>
<!DOCTYPE svg PUBLIC "-//W3C//DTD SVG 1.1//EN"
  "http://www.w3.org/Graphics/SVG/1.1/DTD/svg11.dtd">
<svg height="345.6pt" version="1.1" viewBox="0 0 460.8 345.6" width="460.8pt" xmlns="http://www.w3.org/2000/svg" xmlns:xlink="http://www.w3.org/1999/xlink">
 <metadata>
  <rdf:RDF xmlns:cc="http://creativecommons.org/ns#" xmlns:dc="http://purl.org/dc/elements/1.1/" xmlns:rdf="http://www.w3.org/1999/02/22-rdf-syntax-ns#">
   <cc:Work>
    <dc:type rdf:resource="http://purl.org/dc/dcmitype/StillImage"/>
    <dc:date>2023-04-17T18:02:27.957703</dc:date>
    <dc:format>image/svg+xml</dc:format>
    <dc:creator>
     <cc:Agent>
      <dc:title>Matplotlib v3.4.1, https://matplotlib.org/</dc:title>
     </cc:Agent>
    </dc:creator>
   </cc:Work>
  </rdf:RDF>
 </metadata>
 <defs>
  <style type="text/css">*{stroke-linecap:butt;stroke-linejoin:round;}</style>
 </defs>
 <g id="figure_1">
  <g id="patch_1">
   <path d="M 0 345.6 
L 460.8 345.6 
L 460.8 0 
L 0 0 
z
" style="fill:#ffffff;"/>
  </g>
  <g id="axes_1">
   <g id="patch_2">
    <path d="M 34.16 291.28 
L 453.192 291.28 
L 453.192 3 
L 34.16 3 
z
" style="fill:#ffffff;"/>
   </g>
   <g id="matplotlib.axis_1">
    <g id="xtick_1">
     <g id="line2d_1">
      <path clip-path="url(#pa42e9bcf37)" d="M 171.910622 291.28 
L 171.910622 3 
" style="fill:none;stroke:#b0b0b0;stroke-linecap:square;stroke-width:0.8;"/>
     </g>
     <g id="line2d_2">
      <defs>
       <path d="M 0 0 
L 0 3.5 
" id="m6831e76720" style="stroke:#000000;stroke-width:0.8;"/>
      </defs>
      <g>
       <use style="stroke:#000000;stroke-width:0.8;" x="171.910622" xlink:href="#m6831e76720" y="291.28"/>
      </g>
     </g>
     <g id="text_1">
      <!-- -1 -->
      <g transform="translate(161.940309 313.476875)scale(0.2 -0.2)">
       <defs>
        <path d="M 313 2009 
L 1997 2009 
L 1997 1497 
L 313 1497 
L 313 2009 
z
" id="DejaVuSans-2d" transform="scale(0.015625)"/>
        <path d="M 794 531 
L 1825 531 
L 1825 4091 
L 703 3866 
L 703 4441 
L 1819 4666 
L 2450 4666 
L 2450 531 
L 3481 531 
L 3481 0 
L 794 0 
L 794 531 
z
" id="DejaVuSans-31" transform="scale(0.015625)"/>
       </defs>
       <use xlink:href="#DejaVuSans-2d"/>
       <use x="36.083984" xlink:href="#DejaVuSans-31"/>
      </g>
     </g>
    </g>
    <g id="xtick_2">
     <g id="line2d_3">
      <path clip-path="url(#pa42e9bcf37)" d="M 315.441378 291.28 
L 315.441378 3 
" style="fill:none;stroke:#b0b0b0;stroke-linecap:square;stroke-width:0.8;"/>
     </g>
     <g id="line2d_4">
      <g>
       <use style="stroke:#000000;stroke-width:0.8;" x="315.441378" xlink:href="#m6831e76720" y="291.28"/>
      </g>
     </g>
     <g id="text_2">
      <!-- 1 -->
      <g transform="translate(309.078878 313.476875)scale(0.2 -0.2)">
       <use xlink:href="#DejaVuSans-31"/>
      </g>
     </g>
    </g>
    <g id="xtick_3">
     <g id="line2d_5">
      <defs>
       <path d="M 0 0 
L 0 2 
" id="m301923dd0b" style="stroke:#000000;stroke-width:0.6;"/>
      </defs>
      <g>
       <use style="stroke:#000000;stroke-width:0.6;" x="49.983396" xlink:href="#m301923dd0b" y="291.28"/>
      </g>
     </g>
    </g>
    <g id="xtick_4">
     <g id="line2d_6">
      <g>
       <use style="stroke:#000000;stroke-width:0.6;" x="62.620652" xlink:href="#m301923dd0b" y="291.28"/>
      </g>
     </g>
    </g>
    <g id="xtick_5">
     <g id="line2d_7">
      <g>
       <use style="stroke:#000000;stroke-width:0.6;" x="71.586928" xlink:href="#m301923dd0b" y="291.28"/>
      </g>
     </g>
    </g>
    <g id="xtick_6">
     <g id="line2d_8">
      <g>
       <use style="stroke:#000000;stroke-width:0.6;" x="78.541712" xlink:href="#m301923dd0b" y="291.28"/>
      </g>
     </g>
    </g>
    <g id="xtick_7">
     <g id="line2d_9">
      <g>
       <use style="stroke:#000000;stroke-width:0.6;" x="84.224184" xlink:href="#m301923dd0b" y="291.28"/>
      </g>
     </g>
    </g>
    <g id="xtick_8">
     <g id="line2d_10">
      <g>
       <use style="stroke:#000000;stroke-width:0.6;" x="89.028645" xlink:href="#m301923dd0b" y="291.28"/>
      </g>
     </g>
    </g>
    <g id="xtick_9">
     <g id="line2d_11">
      <g>
       <use style="stroke:#000000;stroke-width:0.6;" x="93.190459" xlink:href="#m301923dd0b" y="291.28"/>
      </g>
     </g>
    </g>
    <g id="xtick_10">
     <g id="line2d_12">
      <g>
       <use style="stroke:#000000;stroke-width:0.6;" x="96.86144" xlink:href="#m301923dd0b" y="291.28"/>
      </g>
     </g>
    </g>
    <g id="xtick_11">
     <g id="line2d_13">
      <g>
       <use style="stroke:#000000;stroke-width:0.6;" x="121.748775" xlink:href="#m301923dd0b" y="291.28"/>
      </g>
     </g>
    </g>
    <g id="xtick_12">
     <g id="line2d_14">
      <g>
       <use style="stroke:#000000;stroke-width:0.6;" x="134.386031" xlink:href="#m301923dd0b" y="291.28"/>
      </g>
     </g>
    </g>
    <g id="xtick_13">
     <g id="line2d_15">
      <g>
       <use style="stroke:#000000;stroke-width:0.6;" x="143.352306" xlink:href="#m301923dd0b" y="291.28"/>
      </g>
     </g>
    </g>
    <g id="xtick_14">
     <g id="line2d_16">
      <g>
       <use style="stroke:#000000;stroke-width:0.6;" x="150.30709" xlink:href="#m301923dd0b" y="291.28"/>
      </g>
     </g>
    </g>
    <g id="xtick_15">
     <g id="line2d_17">
      <g>
       <use style="stroke:#000000;stroke-width:0.6;" x="155.989562" xlink:href="#m301923dd0b" y="291.28"/>
      </g>
     </g>
    </g>
    <g id="xtick_16">
     <g id="line2d_18">
      <g>
       <use style="stroke:#000000;stroke-width:0.6;" x="160.794024" xlink:href="#m301923dd0b" y="291.28"/>
      </g>
     </g>
    </g>
    <g id="xtick_17">
     <g id="line2d_19">
      <g>
       <use style="stroke:#000000;stroke-width:0.6;" x="164.955838" xlink:href="#m301923dd0b" y="291.28"/>
      </g>
     </g>
    </g>
    <g id="xtick_18">
     <g id="line2d_20">
      <g>
       <use style="stroke:#000000;stroke-width:0.6;" x="168.626818" xlink:href="#m301923dd0b" y="291.28"/>
      </g>
     </g>
    </g>
    <g id="xtick_19">
     <g id="line2d_21">
      <g>
       <use style="stroke:#000000;stroke-width:0.6;" x="193.514153" xlink:href="#m301923dd0b" y="291.28"/>
      </g>
     </g>
    </g>
    <g id="xtick_20">
     <g id="line2d_22">
      <g>
       <use style="stroke:#000000;stroke-width:0.6;" x="206.151409" xlink:href="#m301923dd0b" y="291.28"/>
      </g>
     </g>
    </g>
    <g id="xtick_21">
     <g id="line2d_23">
      <g>
       <use style="stroke:#000000;stroke-width:0.6;" x="215.117685" xlink:href="#m301923dd0b" y="291.28"/>
      </g>
     </g>
    </g>
    <g id="xtick_22">
     <g id="line2d_24">
      <g>
       <use style="stroke:#000000;stroke-width:0.6;" x="222.072468" xlink:href="#m301923dd0b" y="291.28"/>
      </g>
     </g>
    </g>
    <g id="xtick_23">
     <g id="line2d_25">
      <g>
       <use style="stroke:#000000;stroke-width:0.6;" x="227.754941" xlink:href="#m301923dd0b" y="291.28"/>
      </g>
     </g>
    </g>
    <g id="xtick_24">
     <g id="line2d_26">
      <g>
       <use style="stroke:#000000;stroke-width:0.6;" x="232.559402" xlink:href="#m301923dd0b" y="291.28"/>
      </g>
     </g>
    </g>
    <g id="xtick_25">
     <g id="line2d_27">
      <g>
       <use style="stroke:#000000;stroke-width:0.6;" x="236.721216" xlink:href="#m301923dd0b" y="291.28"/>
      </g>
     </g>
    </g>
    <g id="xtick_26">
     <g id="line2d_28">
      <g>
       <use style="stroke:#000000;stroke-width:0.6;" x="240.392196" xlink:href="#m301923dd0b" y="291.28"/>
      </g>
     </g>
    </g>
    <g id="xtick_27">
     <g id="line2d_29">
      <g>
       <use style="stroke:#000000;stroke-width:0.6;" x="265.279532" xlink:href="#m301923dd0b" y="291.28"/>
      </g>
     </g>
    </g>
    <g id="xtick_28">
     <g id="line2d_30">
      <g>
       <use style="stroke:#000000;stroke-width:0.6;" x="277.916787" xlink:href="#m301923dd0b" y="291.28"/>
      </g>
     </g>
    </g>
    <g id="xtick_29">
     <g id="line2d_31">
      <g>
       <use style="stroke:#000000;stroke-width:0.6;" x="286.883063" xlink:href="#m301923dd0b" y="291.28"/>
      </g>
     </g>
    </g>
    <g id="xtick_30">
     <g id="line2d_32">
      <g>
       <use style="stroke:#000000;stroke-width:0.6;" x="293.837847" xlink:href="#m301923dd0b" y="291.28"/>
      </g>
     </g>
    </g>
    <g id="xtick_31">
     <g id="line2d_33">
      <g>
       <use style="stroke:#000000;stroke-width:0.6;" x="299.520319" xlink:href="#m301923dd0b" y="291.28"/>
      </g>
     </g>
    </g>
    <g id="xtick_32">
     <g id="line2d_34">
      <g>
       <use style="stroke:#000000;stroke-width:0.6;" x="304.324781" xlink:href="#m301923dd0b" y="291.28"/>
      </g>
     </g>
    </g>
    <g id="xtick_33">
     <g id="line2d_35">
      <g>
       <use style="stroke:#000000;stroke-width:0.6;" x="308.486595" xlink:href="#m301923dd0b" y="291.28"/>
      </g>
     </g>
    </g>
    <g id="xtick_34">
     <g id="line2d_36">
      <g>
       <use style="stroke:#000000;stroke-width:0.6;" x="312.157575" xlink:href="#m301923dd0b" y="291.28"/>
      </g>
     </g>
    </g>
    <g id="xtick_35">
     <g id="line2d_37">
      <g>
       <use style="stroke:#000000;stroke-width:0.6;" x="337.04491" xlink:href="#m301923dd0b" y="291.28"/>
      </g>
     </g>
    </g>
    <g id="xtick_36">
     <g id="line2d_38">
      <g>
       <use style="stroke:#000000;stroke-width:0.6;" x="349.682166" xlink:href="#m301923dd0b" y="291.28"/>
      </g>
     </g>
    </g>
    <g id="xtick_37">
     <g id="line2d_39">
      <g>
       <use style="stroke:#000000;stroke-width:0.6;" x="358.648441" xlink:href="#m301923dd0b" y="291.28"/>
      </g>
     </g>
    </g>
    <g id="xtick_38">
     <g id="line2d_40">
      <g>
       <use style="stroke:#000000;stroke-width:0.6;" x="365.603225" xlink:href="#m301923dd0b" y="291.28"/>
      </g>
     </g>
    </g>
    <g id="xtick_39">
     <g id="line2d_41">
      <g>
       <use style="stroke:#000000;stroke-width:0.6;" x="371.285697" xlink:href="#m301923dd0b" y="291.28"/>
      </g>
     </g>
    </g>
    <g id="xtick_40">
     <g id="line2d_42">
      <g>
       <use style="stroke:#000000;stroke-width:0.6;" x="376.090159" xlink:href="#m301923dd0b" y="291.28"/>
      </g>
     </g>
    </g>
    <g id="xtick_41">
     <g id="line2d_43">
      <g>
       <use style="stroke:#000000;stroke-width:0.6;" x="380.251973" xlink:href="#m301923dd0b" y="291.28"/>
      </g>
     </g>
    </g>
    <g id="xtick_42">
     <g id="line2d_44">
      <g>
       <use style="stroke:#000000;stroke-width:0.6;" x="383.922953" xlink:href="#m301923dd0b" y="291.28"/>
      </g>
     </g>
    </g>
    <g id="xtick_43">
     <g id="line2d_45">
      <g>
       <use style="stroke:#000000;stroke-width:0.6;" x="408.810288" xlink:href="#m301923dd0b" y="291.28"/>
      </g>
     </g>
    </g>
    <g id="xtick_44">
     <g id="line2d_46">
      <g>
       <use style="stroke:#000000;stroke-width:0.6;" x="421.447544" xlink:href="#m301923dd0b" y="291.28"/>
      </g>
     </g>
    </g>
    <g id="xtick_45">
     <g id="line2d_47">
      <g>
       <use style="stroke:#000000;stroke-width:0.6;" x="430.41382" xlink:href="#m301923dd0b" y="291.28"/>
      </g>
     </g>
    </g>
    <g id="xtick_46">
     <g id="line2d_48">
      <g>
       <use style="stroke:#000000;stroke-width:0.6;" x="437.368604" xlink:href="#m301923dd0b" y="291.28"/>
      </g>
     </g>
    </g>
    <g id="xtick_47">
     <g id="line2d_49">
      <g>
       <use style="stroke:#000000;stroke-width:0.6;" x="443.051076" xlink:href="#m301923dd0b" y="291.28"/>
      </g>
     </g>
    </g>
    <g id="xtick_48">
     <g id="line2d_50">
      <g>
       <use style="stroke:#000000;stroke-width:0.6;" x="447.855537" xlink:href="#m301923dd0b" y="291.28"/>
      </g>
     </g>
    </g>
    <g id="xtick_49">
     <g id="line2d_51">
      <g>
       <use style="stroke:#000000;stroke-width:0.6;" x="452.017351" xlink:href="#m301923dd0b" y="291.28"/>
      </g>
     </g>
    </g>
    <g id="text_3">
     <!-- log10 of FEvals ratio -->
     <g transform="translate(141.371312 336.833125)scale(0.2 -0.2)">
      <defs>
       <path d="M 603 4863 
L 1178 4863 
L 1178 0 
L 603 0 
L 603 4863 
z
" id="DejaVuSans-6c" transform="scale(0.015625)"/>
       <path d="M 1959 3097 
Q 1497 3097 1228 2736 
Q 959 2375 959 1747 
Q 959 1119 1226 758 
Q 1494 397 1959 397 
Q 2419 397 2687 759 
Q 2956 1122 2956 1747 
Q 2956 2369 2687 2733 
Q 2419 3097 1959 3097 
z
M 1959 3584 
Q 2709 3584 3137 3096 
Q 3566 2609 3566 1747 
Q 3566 888 3137 398 
Q 2709 -91 1959 -91 
Q 1206 -91 779 398 
Q 353 888 353 1747 
Q 353 2609 779 3096 
Q 1206 3584 1959 3584 
z
" id="DejaVuSans-6f" transform="scale(0.015625)"/>
       <path d="M 2906 1791 
Q 2906 2416 2648 2759 
Q 2391 3103 1925 3103 
Q 1463 3103 1205 2759 
Q 947 2416 947 1791 
Q 947 1169 1205 825 
Q 1463 481 1925 481 
Q 2391 481 2648 825 
Q 2906 1169 2906 1791 
z
M 3481 434 
Q 3481 -459 3084 -895 
Q 2688 -1331 1869 -1331 
Q 1566 -1331 1297 -1286 
Q 1028 -1241 775 -1147 
L 775 -588 
Q 1028 -725 1275 -790 
Q 1522 -856 1778 -856 
Q 2344 -856 2625 -561 
Q 2906 -266 2906 331 
L 2906 616 
Q 2728 306 2450 153 
Q 2172 0 1784 0 
Q 1141 0 747 490 
Q 353 981 353 1791 
Q 353 2603 747 3093 
Q 1141 3584 1784 3584 
Q 2172 3584 2450 3431 
Q 2728 3278 2906 2969 
L 2906 3500 
L 3481 3500 
L 3481 434 
z
" id="DejaVuSans-67" transform="scale(0.015625)"/>
       <path d="M 2034 4250 
Q 1547 4250 1301 3770 
Q 1056 3291 1056 2328 
Q 1056 1369 1301 889 
Q 1547 409 2034 409 
Q 2525 409 2770 889 
Q 3016 1369 3016 2328 
Q 3016 3291 2770 3770 
Q 2525 4250 2034 4250 
z
M 2034 4750 
Q 2819 4750 3233 4129 
Q 3647 3509 3647 2328 
Q 3647 1150 3233 529 
Q 2819 -91 2034 -91 
Q 1250 -91 836 529 
Q 422 1150 422 2328 
Q 422 3509 836 4129 
Q 1250 4750 2034 4750 
z
" id="DejaVuSans-30" transform="scale(0.015625)"/>
       <path id="DejaVuSans-20" transform="scale(0.015625)"/>
       <path d="M 2375 4863 
L 2375 4384 
L 1825 4384 
Q 1516 4384 1395 4259 
Q 1275 4134 1275 3809 
L 1275 3500 
L 2222 3500 
L 2222 3053 
L 1275 3053 
L 1275 0 
L 697 0 
L 697 3053 
L 147 3053 
L 147 3500 
L 697 3500 
L 697 3744 
Q 697 4328 969 4595 
Q 1241 4863 1831 4863 
L 2375 4863 
z
" id="DejaVuSans-66" transform="scale(0.015625)"/>
       <path d="M 628 4666 
L 3309 4666 
L 3309 4134 
L 1259 4134 
L 1259 2759 
L 3109 2759 
L 3109 2228 
L 1259 2228 
L 1259 0 
L 628 0 
L 628 4666 
z
" id="DejaVuSans-46" transform="scale(0.015625)"/>
       <path d="M 628 4666 
L 3578 4666 
L 3578 4134 
L 1259 4134 
L 1259 2753 
L 3481 2753 
L 3481 2222 
L 1259 2222 
L 1259 531 
L 3634 531 
L 3634 0 
L 628 0 
L 628 4666 
z
" id="DejaVuSans-45" transform="scale(0.015625)"/>
       <path d="M 191 3500 
L 800 3500 
L 1894 563 
L 2988 3500 
L 3597 3500 
L 2284 0 
L 1503 0 
L 191 3500 
z
" id="DejaVuSans-76" transform="scale(0.015625)"/>
       <path d="M 2194 1759 
Q 1497 1759 1228 1600 
Q 959 1441 959 1056 
Q 959 750 1161 570 
Q 1363 391 1709 391 
Q 2188 391 2477 730 
Q 2766 1069 2766 1631 
L 2766 1759 
L 2194 1759 
z
M 3341 1997 
L 3341 0 
L 2766 0 
L 2766 531 
Q 2569 213 2275 61 
Q 1981 -91 1556 -91 
Q 1019 -91 701 211 
Q 384 513 384 1019 
Q 384 1609 779 1909 
Q 1175 2209 1959 2209 
L 2766 2209 
L 2766 2266 
Q 2766 2663 2505 2880 
Q 2244 3097 1772 3097 
Q 1472 3097 1187 3025 
Q 903 2953 641 2809 
L 641 3341 
Q 956 3463 1253 3523 
Q 1550 3584 1831 3584 
Q 2591 3584 2966 3190 
Q 3341 2797 3341 1997 
z
" id="DejaVuSans-61" transform="scale(0.015625)"/>
       <path d="M 2834 3397 
L 2834 2853 
Q 2591 2978 2328 3040 
Q 2066 3103 1784 3103 
Q 1356 3103 1142 2972 
Q 928 2841 928 2578 
Q 928 2378 1081 2264 
Q 1234 2150 1697 2047 
L 1894 2003 
Q 2506 1872 2764 1633 
Q 3022 1394 3022 966 
Q 3022 478 2636 193 
Q 2250 -91 1575 -91 
Q 1294 -91 989 -36 
Q 684 19 347 128 
L 347 722 
Q 666 556 975 473 
Q 1284 391 1588 391 
Q 1994 391 2212 530 
Q 2431 669 2431 922 
Q 2431 1156 2273 1281 
Q 2116 1406 1581 1522 
L 1381 1569 
Q 847 1681 609 1914 
Q 372 2147 372 2553 
Q 372 3047 722 3315 
Q 1072 3584 1716 3584 
Q 2034 3584 2315 3537 
Q 2597 3491 2834 3397 
z
" id="DejaVuSans-73" transform="scale(0.015625)"/>
       <path d="M 2631 2963 
Q 2534 3019 2420 3045 
Q 2306 3072 2169 3072 
Q 1681 3072 1420 2755 
Q 1159 2438 1159 1844 
L 1159 0 
L 581 0 
L 581 3500 
L 1159 3500 
L 1159 2956 
Q 1341 3275 1631 3429 
Q 1922 3584 2338 3584 
Q 2397 3584 2469 3576 
Q 2541 3569 2628 3553 
L 2631 2963 
z
" id="DejaVuSans-72" transform="scale(0.015625)"/>
       <path d="M 1172 4494 
L 1172 3500 
L 2356 3500 
L 2356 3053 
L 1172 3053 
L 1172 1153 
Q 1172 725 1289 603 
Q 1406 481 1766 481 
L 2356 481 
L 2356 0 
L 1766 0 
Q 1100 0 847 248 
Q 594 497 594 1153 
L 594 3053 
L 172 3053 
L 172 3500 
L 594 3500 
L 594 4494 
L 1172 4494 
z
" id="DejaVuSans-74" transform="scale(0.015625)"/>
       <path d="M 603 3500 
L 1178 3500 
L 1178 0 
L 603 0 
L 603 3500 
z
M 603 4863 
L 1178 4863 
L 1178 4134 
L 603 4134 
L 603 4863 
z
" id="DejaVuSans-69" transform="scale(0.015625)"/>
      </defs>
      <use xlink:href="#DejaVuSans-6c"/>
      <use x="27.783203" xlink:href="#DejaVuSans-6f"/>
      <use x="88.964844" xlink:href="#DejaVuSans-67"/>
      <use x="152.441406" xlink:href="#DejaVuSans-31"/>
      <use x="216.064453" xlink:href="#DejaVuSans-30"/>
      <use x="279.6875" xlink:href="#DejaVuSans-20"/>
      <use x="311.474609" xlink:href="#DejaVuSans-6f"/>
      <use x="372.65625" xlink:href="#DejaVuSans-66"/>
      <use x="407.861328" xlink:href="#DejaVuSans-20"/>
      <use x="439.648438" xlink:href="#DejaVuSans-46"/>
      <use x="497.167969" xlink:href="#DejaVuSans-45"/>
      <use x="560.351562" xlink:href="#DejaVuSans-76"/>
      <use x="619.53125" xlink:href="#DejaVuSans-61"/>
      <use x="680.810547" xlink:href="#DejaVuSans-6c"/>
      <use x="708.59375" xlink:href="#DejaVuSans-73"/>
      <use x="760.693359" xlink:href="#DejaVuSans-20"/>
      <use x="792.480469" xlink:href="#DejaVuSans-72"/>
      <use x="833.59375" xlink:href="#DejaVuSans-61"/>
      <use x="894.873047" xlink:href="#DejaVuSans-74"/>
      <use x="934.082031" xlink:href="#DejaVuSans-69"/>
      <use x="961.865234" xlink:href="#DejaVuSans-6f"/>
     </g>
    </g>
   </g>
   <g id="matplotlib.axis_2">
    <g id="ytick_1">
     <g id="line2d_52">
      <path clip-path="url(#pa42e9bcf37)" d="M 34.16 288.453725 
L 453.192 288.453725 
" style="fill:none;stroke:#b0b0b0;stroke-linecap:square;stroke-width:0.8;"/>
     </g>
     <g id="line2d_53">
      <defs>
       <path d="M 0 0 
L -3.5 0 
" id="m4fd1c07c8f" style="stroke:#000000;stroke-width:0.8;"/>
      </defs>
      <g>
       <use style="stroke:#000000;stroke-width:0.8;" x="34.16" xlink:href="#m4fd1c07c8f" y="288.453725"/>
      </g>
     </g>
    </g>
    <g id="ytick_2">
     <g id="line2d_54">
      <path clip-path="url(#pa42e9bcf37)" d="M 34.16 217.796863 
L 453.192 217.796863 
" style="fill:none;stroke:#b0b0b0;stroke-linecap:square;stroke-width:0.8;"/>
     </g>
     <g id="line2d_55">
      <g>
       <use style="stroke:#000000;stroke-width:0.8;" x="34.16" xlink:href="#m4fd1c07c8f" y="217.796863"/>
      </g>
     </g>
    </g>
    <g id="ytick_3">
     <g id="line2d_56">
      <path clip-path="url(#pa42e9bcf37)" d="M 34.16 147.14 
L 453.192 147.14 
" style="fill:none;stroke:#b0b0b0;stroke-linecap:square;stroke-width:0.8;"/>
     </g>
     <g id="line2d_57">
      <g>
       <use style="stroke:#000000;stroke-width:0.8;" x="34.16" xlink:href="#m4fd1c07c8f" y="147.14"/>
      </g>
     </g>
    </g>
    <g id="ytick_4">
     <g id="line2d_58">
      <path clip-path="url(#pa42e9bcf37)" d="M 34.16 76.483137 
L 453.192 76.483137 
" style="fill:none;stroke:#b0b0b0;stroke-linecap:square;stroke-width:0.8;"/>
     </g>
     <g id="line2d_59">
      <g>
       <use style="stroke:#000000;stroke-width:0.8;" x="34.16" xlink:href="#m4fd1c07c8f" y="76.483137"/>
      </g>
     </g>
    </g>
    <g id="ytick_5">
     <g id="line2d_60">
      <path clip-path="url(#pa42e9bcf37)" d="M 34.16 5.826275 
L 453.192 5.826275 
" style="fill:none;stroke:#b0b0b0;stroke-linecap:square;stroke-width:0.8;"/>
     </g>
     <g id="line2d_61">
      <g>
       <use style="stroke:#000000;stroke-width:0.8;" x="34.16" xlink:href="#m4fd1c07c8f" y="5.826275"/>
      </g>
     </g>
    </g>
    <g id="text_4">
     <!-- proportion of trials -->
     <g transform="translate(19.000625 240.14625)rotate(-90)scale(0.2 -0.2)">
      <defs>
       <path d="M 1159 525 
L 1159 -1331 
L 581 -1331 
L 581 3500 
L 1159 3500 
L 1159 2969 
Q 1341 3281 1617 3432 
Q 1894 3584 2278 3584 
Q 2916 3584 3314 3078 
Q 3713 2572 3713 1747 
Q 3713 922 3314 415 
Q 2916 -91 2278 -91 
Q 1894 -91 1617 61 
Q 1341 213 1159 525 
z
M 3116 1747 
Q 3116 2381 2855 2742 
Q 2594 3103 2138 3103 
Q 1681 3103 1420 2742 
Q 1159 2381 1159 1747 
Q 1159 1113 1420 752 
Q 1681 391 2138 391 
Q 2594 391 2855 752 
Q 3116 1113 3116 1747 
z
" id="DejaVuSans-70" transform="scale(0.015625)"/>
       <path d="M 3513 2113 
L 3513 0 
L 2938 0 
L 2938 2094 
Q 2938 2591 2744 2837 
Q 2550 3084 2163 3084 
Q 1697 3084 1428 2787 
Q 1159 2491 1159 1978 
L 1159 0 
L 581 0 
L 581 3500 
L 1159 3500 
L 1159 2956 
Q 1366 3272 1645 3428 
Q 1925 3584 2291 3584 
Q 2894 3584 3203 3211 
Q 3513 2838 3513 2113 
z
" id="DejaVuSans-6e" transform="scale(0.015625)"/>
      </defs>
      <use xlink:href="#DejaVuSans-70"/>
      <use x="63.476562" xlink:href="#DejaVuSans-72"/>
      <use x="102.339844" xlink:href="#DejaVuSans-6f"/>
      <use x="163.521484" xlink:href="#DejaVuSans-70"/>
      <use x="226.998047" xlink:href="#DejaVuSans-6f"/>
      <use x="288.179688" xlink:href="#DejaVuSans-72"/>
      <use x="329.292969" xlink:href="#DejaVuSans-74"/>
      <use x="368.501953" xlink:href="#DejaVuSans-69"/>
      <use x="396.285156" xlink:href="#DejaVuSans-6f"/>
      <use x="457.466797" xlink:href="#DejaVuSans-6e"/>
      <use x="520.845703" xlink:href="#DejaVuSans-20"/>
      <use x="552.632812" xlink:href="#DejaVuSans-6f"/>
      <use x="613.814453" xlink:href="#DejaVuSans-66"/>
      <use x="649.019531" xlink:href="#DejaVuSans-20"/>
      <use x="680.806641" xlink:href="#DejaVuSans-74"/>
      <use x="720.015625" xlink:href="#DejaVuSans-72"/>
      <use x="761.128906" xlink:href="#DejaVuSans-69"/>
      <use x="788.912109" xlink:href="#DejaVuSans-61"/>
      <use x="850.191406" xlink:href="#DejaVuSans-6c"/>
      <use x="877.974609" xlink:href="#DejaVuSans-73"/>
     </g>
    </g>
   </g>
   <g id="line2d_62">
    <path clip-path="url(#pa42e9bcf37)" d="M 34.16 226.628971 
L 49.746135 226.628971 
L 49.746135 226.301855 
L 58.632963 226.301855 
L 58.632963 225.97474 
L 60.063448 225.97474 
L 60.063448 225.647625 
L 62.322938 225.647625 
L 62.322938 225.32051 
L 64.765598 225.32051 
L 64.765598 224.993395 
L 65.661182 224.993395 
L 65.661182 224.66628 
L 65.998544 224.66628 
L 65.998544 224.339165 
L 66.183409 224.339165 
L 66.183409 224.01205 
L 68.378531 224.01205 
L 68.378531 223.684935 
L 68.735704 223.684935 
L 68.751925 223.030704 
L 70.222999 223.030704 
L 70.222999 222.703589 
L 72.987989 222.703589 
L 72.987989 222.376474 
L 74.222411 222.376474 
L 74.222411 222.049359 
L 74.885372 222.049359 
L 74.885372 221.722244 
L 75.060775 221.722244 
L 75.060775 221.395129 
L 75.308488 221.395129 
L 75.308488 221.068014 
L 75.819568 221.068014 
L 75.819568 220.740899 
L 77.035317 220.740899 
L 77.035317 220.413784 
L 77.228818 220.413784 
L 77.228818 220.086668 
L 77.638753 220.086668 
L 77.638753 219.759553 
L 78.178701 219.759553 
L 78.178701 219.432438 
L 79.109827 219.432438 
L 79.109827 219.105323 
L 80.497907 219.105323 
L 80.497907 218.778208 
L 80.99096 218.778208 
L 81.018007 218.123978 
L 81.352718 218.123978 
L 81.352718 217.796863 
L 81.567935 217.796863 
L 81.567935 217.469748 
L 82.280314 217.469748 
L 82.280314 217.142633 
L 82.435818 217.142633 
L 82.435818 216.815517 
L 83.771388 216.815517 
L 83.771388 216.488402 
L 84.386862 216.488402 
L 84.386862 216.161287 
L 84.988112 216.161287 
L 84.988112 215.834172 
L 85.189199 215.834172 
L 85.242461 215.179942 
L 85.433941 215.179942 
L 85.494479 214.525712 
L 86.112312 214.525712 
L 86.112312 214.198597 
L 86.471441 214.198597 
L 86.471441 213.871481 
L 86.660272 213.871481 
L 86.660272 213.544366 
L 87.111546 213.544366 
L 87.111546 213.217251 
L 87.741493 213.217251 
L 87.74723 212.563021 
L 88.563852 212.563021 
L 88.563852 212.235906 
L 89.212567 212.235906 
L 89.240397 211.581676 
L 91.560896 211.581676 
L 91.560896 211.254561 
L 91.993778 211.254561 
L 91.993778 210.927446 
L 93.464852 210.927446 
L 93.464852 210.60033 
L 94.314277 210.60033 
L 94.314277 210.273215 
L 94.994063 210.273215 
L 94.994063 209.9461 
L 95.521411 209.9461 
L 95.521411 209.618985 
L 95.785351 209.618985 
L 95.832427 208.964755 
L 96.591219 208.964755 
L 96.591219 208.63764 
L 96.721735 208.63764 
L 96.750316 207.98341 
L 97.243368 207.98341 
L 97.243368 207.656294 
L 97.68503 207.656294 
L 97.780901 207.002064 
L 97.806969 207.002064 
L 97.820344 206.347834 
L 98.00047 206.347834 
L 98.00047 206.020719 
L 98.212271 206.020719 
L 98.212271 205.693604 
L 98.950352 205.693604 
L 98.981224 205.039374 
L 99.503697 205.039374 
L 99.503697 204.712259 
L 99.996749 204.712259 
L 99.996749 204.385143 
L 100.573724 204.385143 
L 100.573724 204.058028 
L 100.808003 204.058028 
L 100.808003 203.730913 
L 100.974771 203.730913 
L 100.974771 203.403798 
L 101.119145 203.403798 
L 101.119145 203.076683 
L 101.467823 203.076683 
L 101.467823 202.749568 
L 101.68635 202.749568 
L 101.746888 202.095338 
L 101.915937 202.095338 
L 101.915937 201.768223 
L 102.044798 201.768223 
L 102.12437 201.113992 
L 102.319469 201.113992 
L 102.319469 200.786877 
L 102.754301 200.786877 
L 102.754301 200.459762 
L 103.051966 200.459762 
L 103.124787 199.478417 
L 103.513093 199.478417 
L 103.513093 199.151302 
L 103.836495 199.151302 
L 103.836495 198.824187 
L 104.43973 198.824187 
L 104.500269 198.169956 
L 104.728843 198.169956 
L 104.81626 197.515726 
L 104.922343 197.515726 
L 104.977891 196.861496 
L 105.036818 196.861496 
L 105.036818 196.534381 
L 105.158513 196.534381 
L 105.158513 196.207266 
L 105.287378 196.207266 
L 105.287378 195.880151 
L 105.816255 195.880151 
L 105.910804 194.898805 
L 105.971343 194.898805 
L 105.971343 194.57169 
L 106.125742 194.57169 
L 106.125742 194.244575 
L 106.405737 194.244575 
L 106.405737 193.91746 
L 106.575047 193.91746 
L 106.575047 193.590345 
L 106.883964 193.590345 
L 106.884534 192.936115 
L 107.569641 192.936115 
L 107.569641 192.609 
L 107.790797 192.609 
L 107.883198 191.954769 
L 107.984297 191.954769 
L 107.984297 191.627654 
L 108.100284 191.627654 
L 108.100284 191.300539 
L 108.293785 191.300539 
L 108.293785 190.973424 
L 108.518882 190.973424 
L 108.518882 190.646309 
L 108.93418 190.646309 
L 109.040715 189.992079 
L 109.046243 189.992079 
L 109.123087 189.337849 
L 109.243667 189.337849 
L 109.243667 189.010733 
L 109.973839 189.010733 
L 109.973839 188.683618 
L 112.080387 188.683618 
L 112.108197 188.029388 
L 112.417684 188.029388 
L 112.417684 187.702273 
L 113.035793 187.702273 
L 113.035793 187.375158 
L 113.34528 187.375158 
L 113.34528 187.048043 
L 113.805837 187.048043 
L 113.805837 186.720928 
L 113.937439 186.720928 
L 113.937439 186.393813 
L 114.46468 186.393813 
L 114.46468 186.066698 
L 114.805071 186.066698 
L 114.805071 185.739582 
L 115.142341 185.739582 
L 115.185623 185.085352 
L 115.440755 185.085352 
L 115.451828 184.431122 
L 116.023987 184.431122 
L 116.023987 184.104007 
L 116.69082 184.104007 
L 116.782779 183.449777 
L 116.867791 183.449777 
L 116.867791 183.122662 
L 117.177279 183.122662 
L 117.218061 182.468431 
L 117.867025 182.468431 
L 117.867025 182.141316 
L 117.998529 182.141316 
L 117.998529 181.814201 
L 118.161893 181.814201 
L 118.19203 180.832856 
L 118.502709 180.832856 
L 118.502709 180.505741 
L 118.689134 180.505741 
L 118.689134 180.178626 
L 118.812197 180.178626 
L 118.812197 179.851511 
L 118.968606 179.851511 
L 118.968606 179.524395 
L 119.141912 179.524395 
L 119.141912 179.19728 
L 119.80697 179.19728 
L 119.80697 178.870165 
L 120.565762 178.870165 
L 120.565762 178.54305 
L 121.781512 178.54305 
L 121.781512 178.215935 
L 121.929405 178.215935 
L 121.975013 177.561705 
L 122.315929 177.561705 
L 122.315929 177.23459 
L 122.924895 177.23459 
L 122.924895 176.907475 
L 123.129728 176.907475 
L 123.129728 176.580359 
L 123.243526 176.580359 
L 123.243526 176.253244 
L 123.896438 176.253244 
L 123.896438 175.926129 
L 125.350073 175.926129 
L 125.350073 175.599014 
L 126.098912 175.599014 
L 126.098912 175.271899 
L 127.026508 175.271899 
L 127.075524 174.617669 
L 127.215997 174.617669 
L 127.215997 174.290554 
L 128.074757 174.290554 
L 128.074757 173.963439 
L 128.710442 173.963439 
L 128.710442 173.636324 
L 129.133056 173.636324 
L 129.133056 173.309208 
L 130.818312 173.309208 
L 130.858507 172.654978 
L 131.85774 172.654978 
L 131.85774 172.327863 
L 132.493425 172.327863 
L 132.493425 172.000748 
L 132.652357 172.000748 
L 132.652357 171.673633 
L 133.880266 171.673633 
L 133.880266 171.346518 
L 134.189753 171.346518 
L 134.189753 171.019403 
L 141.615915 171.019403 
L 141.615915 170.692288 
L 142.454279 170.692288 
L 142.454279 170.365172 
L 143.213071 170.365172 
L 143.213071 170.038057 
L 144.087998 170.038057 
L 144.087998 169.710942 
L 144.428821 169.710942 
L 144.428821 169.383827 
L 144.622322 169.383827 
L 144.622322 169.056712 
L 145.572204 169.056712 
L 145.572204 168.729597 
L 146.772932 168.729597 
L 146.772932 168.402482 
L 147.870981 168.402482 
L 147.870981 168.075367 
L 148.746221 168.075367 
L 148.746221 167.748252 
L 149.673817 167.748252 
L 149.673817 167.421137 
L 151.780365 167.421137 
L 151.780365 167.094021 
L 153.424009 167.094021 
L 153.505816 166.439791 
L 153.570702 166.439791 
L 153.570702 166.112676 
L 154.505049 166.112676 
L 154.505049 165.785561 
L 154.973468 165.785561 
L 154.973468 165.458446 
L 155.140734 165.458446 
L 155.140734 165.131331 
L 155.69548 165.131331 
L 155.69548 164.804216 
L 156.484477 164.804216 
L 156.484477 164.477101 
L 156.606842 164.477101 
L 156.606842 164.149985 
L 157.445206 164.149985 
L 157.445206 163.82287 
L 157.976285 163.82287 
L 157.976285 163.495755 
L 158.203998 163.495755 
L 158.305373 162.841525 
L 158.899274 162.841525 
L 158.899274 162.51441 
L 159.275525 162.51441 
L 159.275525 162.187295 
L 159.419748 162.187295 
L 159.419748 161.86018 
L 159.613249 161.86018 
L 159.679266 161.20595 
L 160.345882 161.20595 
L 160.345882 160.878834 
L 160.563131 160.878834 
L 160.563131 160.551719 
L 163.407836 160.551719 
L 163.407836 160.224604 
L 163.717323 160.224604 
L 163.737148 159.570374 
L 164.664744 159.570374 
L 164.664744 159.243259 
L 166.771292 159.243259 
L 166.771292 158.916144 
L 167.544584 158.916144 
L 167.544584 158.589029 
L 168.496742 158.589029 
L 168.496742 158.261914 
L 169.495976 158.261914 
L 169.495976 157.934798 
L 170.13166 157.934798 
L 170.13166 157.607683 
L 170.51829 157.607683 
L 170.51829 157.280568 
L 173.615569 157.280568 
L 173.615569 156.953453 
L 174.466457 156.953453 
L 174.466457 156.626338 
L 177.398551 156.626338 
L 177.398551 156.299223 
L 177.528411 156.299223 
L 177.528411 155.972108 
L 177.837899 155.972108 
L 177.837899 155.644993 
L 184.67015 155.644993 
L 184.67015 155.317878 
L 185.509217 155.317878 
L 185.509217 154.990763 
L 187.736144 154.990763 
L 187.736144 154.663647 
L 189.028665 154.663647 
L 189.028665 154.336532 
L 190.228989 154.336532 
L 190.228989 154.009417 
L 190.431431 154.009417 
L 190.431431 153.682302 
L 191.153443 153.682302 
L 191.153443 153.355187 
L 191.519127 153.355187 
L 191.519127 153.028072 
L 191.631754 153.028072 
L 191.631754 152.700957 
L 191.94244 152.700957 
L 191.94244 152.373842 
L 192.353767 152.373842 
L 192.353767 152.046727 
L 193.142764 152.046727 
L 193.142764 151.719611 
L 193.434249 151.719611 
L 193.434249 151.392496 
L 193.763336 151.392496 
L 193.763336 151.065381 
L 194.315257 151.065381 
L 194.357238 150.411151 
L 194.634572 150.411151 
L 194.733488 149.756921 
L 194.963659 149.756921 
L 194.963659 149.429806 
L 195.13723 149.429806 
L 195.13723 149.102691 
L 195.557561 149.102691 
L 195.557561 148.775576 
L 195.718023 148.775576 
L 195.718023 148.44846 
L 195.933811 148.44846 
L 195.933811 148.121345 
L 196.337553 148.121345 
L 196.440035 147.467115 
L 197.229032 147.467115 
L 197.229032 147.14 
L 198.720841 147.14 
L 198.720841 146.812885 
L 199.049928 146.812885 
L 199.049928 146.48577 
L 199.163635 146.48577 
L 199.163635 146.158655 
L 199.64383 146.158655 
L 199.64383 145.83154 
L 200.02008 145.83154 
L 200.04586 145.177309 
L 200.423822 145.177309 
L 200.423822 144.850194 
L 208.050463 144.850194 
L 208.050463 144.523079 
L 210.076538 144.523079 
L 210.076538 144.195964 
L 210.709288 144.195964 
L 210.709288 143.868849 
L 211.717301 143.868849 
L 211.717301 143.541734 
L 213.983296 143.541734 
L 213.983296 143.214619 
L 214.166436 143.214619 
L 214.183097 142.560389 
L 215.036787 142.560389 
L 215.036787 142.233273 
L 215.600908 142.233273 
L 215.600908 141.906158 
L 217.069143 141.906158 
L 217.069143 141.579043 
L 218.029902 141.579043 
L 218.029902 141.251928 
L 218.153203 141.251928 
L 218.153203 140.924813 
L 218.963366 140.924813 
L 218.963366 140.597698 
L 219.596116 140.597698 
L 219.596116 140.270583 
L 220.128113 140.270583 
L 220.128113 139.943468 
L 220.299675 139.943468 
L 220.299675 139.616353 
L 220.604129 139.616353 
L 220.604129 139.289237 
L 220.828099 139.289237 
L 220.828099 138.962122 
L 220.980955 138.962122 
L 220.980955 138.635007 
L 221.328436 138.635007 
L 221.385654 137.980777 
L 222.397781 137.980777 
L 222.405488 137.326547 
L 222.850562 137.326547 
L 222.870124 136.672317 
L 223.041586 136.672317 
L 223.041586 136.345202 
L 223.936542 136.345202 
L 223.936542 136.018086 
L 224.725987 136.018086 
L 224.725987 135.690971 
L 224.948669 135.690971 
L 224.948669 135.363856 
L 225.096001 135.363856 
L 225.096001 135.036741 
L 225.414705 135.036741 
L 225.414705 134.709626 
L 225.592474 134.709626 
L 225.592474 134.382511 
L 225.72875 134.382511 
L 225.72875 134.055396 
L 225.859365 134.055396 
L 225.955971 133.401166 
L 226.243352 133.401166 
L 226.243352 133.07405 
L 226.513812 133.07405 
L 226.513812 132.746935 
L 226.69773 132.746935 
L 226.736764 132.092705 
L 226.91673 132.092705 
L 226.991054 131.438475 
L 227.146561 131.438475 
L 227.146561 131.11136 
L 227.456522 131.11136 
L 227.456522 130.784245 
L 228.154575 130.784245 
L 228.154575 130.45713 
L 228.52156 130.45713 
L 228.579065 129.802899 
L 228.672272 129.802899 
L 228.672272 129.475784 
L 228.865772 129.475784 
L 228.865772 129.148669 
L 229.002759 129.148669 
L 229.066106 128.167324 
L 229.157363 128.167324 
L 229.250544 127.513094 
L 229.417429 127.513094 
L 229.417429 127.185979 
L 229.698856 127.185979 
L 229.714927 126.531748 
L 229.815655 126.531748 
L 229.915407 125.550403 
L 230.100841 125.550403 
L 230.176221 124.896173 
L 230.408459 124.896173 
L 230.42057 124.241943 
L 230.686681 124.241943 
L 230.70687 123.587712 
L 230.985434 123.587712 
L 231.072448 122.933482 
L 231.391971 122.933482 
L 231.391971 122.606367 
L 231.525045 122.606367 
L 231.616325 121.625022 
L 231.723992 121.625022 
L 231.723992 121.297907 
L 232.088606 121.297907 
L 232.088606 120.970792 
L 232.283838 120.970792 
L 232.283838 120.643676 
L 232.535354 120.643676 
L 232.588788 119.662331 
L 232.972865 119.662331 
L 233.049365 118.680986 
L 233.206413 118.680986 
L 233.206413 118.353871 
L 233.318391 118.353871 
L 233.321149 117.699641 
L 233.499587 117.699641 
L 233.506417 117.04541 
L 233.693088 117.04541 
L 233.693088 116.718295 
L 233.917268 116.718295 
L 233.951141 116.064065 
L 234.044777 116.064065 
L 234.064113 115.409835 
L 234.467176 115.409835 
L 234.536899 114.755605 
L 234.642971 114.755605 
L 234.730399 114.101374 
L 234.803569 114.101374 
L 234.911979 113.120029 
L 234.959155 113.120029 
L 234.959155 112.792914 
L 235.13018 112.792914 
L 235.13018 112.465799 
L 235.306138 112.465799 
L 235.306138 112.138684 
L 235.63889 112.138684 
L 235.709371 111.157338 
L 235.847562 111.157338 
L 235.847562 110.830223 
L 236.000418 110.830223 
L 236.058711 109.521763 
L 236.21282 109.521763 
L 236.27164 108.867533 
L 236.615001 108.867533 
L 236.636968 108.213302 
L 236.73129 108.213302 
L 236.803608 107.559072 
L 236.862139 107.559072 
L 236.862139 107.231957 
L 237.01947 107.231957 
L 237.01947 106.904842 
L 237.162702 106.904842 
L 237.265373 105.923497 
L 237.279654 105.923497 
L 237.279654 105.596382 
L 237.418229 105.596382 
L 237.418229 105.269267 
L 237.749266 105.269267 
L 237.81727 104.287921 
L 237.889588 104.287921 
L 237.981351 103.633691 
L 238.743515 103.633691 
L 238.854299 101.998115 
L 238.901715 101.998115 
L 238.987669 101.343885 
L 239.121628 101.343885 
L 239.121628 101.01677 
L 239.384184 101.01677 
L 239.473201 100.36254 
L 239.545519 100.36254 
L 239.545649 99.70831 
L 239.781895 99.70831 
L 239.817668 99.05408 
L 239.970524 99.05408 
L 239.970524 98.726964 
L 240.310996 98.726964 
L 240.336719 98.072734 
L 240.468966 98.072734 
L 240.468966 97.745619 
L 240.724757 97.745619 
L 240.82831 97.091389 
L 240.851131 97.091389 
L 240.851131 96.764274 
L 241.077284 96.764274 
L 241.096484 96.110044 
L 241.262815 96.110044 
L 241.321362 94.801583 
L 241.46106 94.801583 
L 241.563121 93.820238 
L 241.888443 93.820238 
L 241.954112 92.838893 
L 242.103884 92.838893 
L 242.182464 92.184662 
L 242.321913 92.184662 
L 242.321913 91.857547 
L 242.459873 91.857547 
L 242.531087 90.876202 
L 242.576582 90.876202 
L 242.680626 89.894857 
L 242.962126 89.894857 
L 242.962126 89.567741 
L 243.194591 89.567741 
L 243.194591 89.240626 
L 243.370863 89.240626 
L 243.370863 88.913511 
L 243.537663 88.913511 
L 243.628172 86.950821 
L 243.731163 86.950821 
L 243.838396 86.29659 
L 243.90055 86.29659 
L 243.90055 85.969475 
L 244.069953 85.969475 
L 244.069953 85.64236 
L 244.2115 85.64236 
L 244.222809 84.98813 
L 244.546101 84.98813 
L 244.613127 84.3339 
L 244.681046 84.3339 
L 244.735068 83.67967 
L 244.953175 83.67967 
L 245.025493 82.698324 
L 245.096313 82.698324 
L 245.177222 81.716979 
L 245.228121 81.716979 
L 245.248811 80.735634 
L 245.497052 80.735634 
L 245.56937 80.081403 
L 245.764343 80.081403 
L 245.824882 79.100058 
L 245.998656 79.100058 
L 246.095547 78.445828 
L 246.390452 78.445828 
L 246.457632 77.464483 
L 246.538115 77.464483 
L 246.642461 76.483137 
L 246.731231 76.483137 
L 246.731231 76.156022 
L 247.068398 76.156022 
L 247.102529 75.174677 
L 247.405107 75.174677 
L 247.465646 74.520447 
L 247.62977 74.520447 
L 247.62977 74.193332 
L 247.820915 74.193332 
L 247.855063 73.539101 
L 248.154378 73.539101 
L 248.154378 73.211986 
L 248.313967 73.211986 
L 248.313967 72.884871 
L 248.781674 72.884871 
L 248.890942 71.903526 
L 248.894254 71.903526 
L 248.894254 71.576411 
L 249.090409 71.576411 
L 249.166505 70.92218 
L 249.274726 70.92218 
L 249.31837 70.26795 
L 249.485205 70.26795 
L 249.527004 69.61372 
L 249.671102 69.61372 
L 249.731641 68.95949 
L 249.810309 68.95949 
L 249.862247 67.978145 
L 250.495728 67.978145 
L 250.568047 66.996799 
L 250.889207 66.996799 
L 250.889207 66.669684 
L 251.579871 66.669684 
L 251.579871 66.342569 
L 251.732727 66.342569 
L 251.805704 65.688339 
L 252.072924 65.688339 
L 252.122435 65.034109 
L 252.22578 65.034109 
L 252.22578 64.706993 
L 252.614657 64.706993 
L 252.666312 63.725648 
L 252.756948 63.725648 
L 252.817487 62.417188 
L 253.342694 62.417188 
L 253.399048 61.762958 
L 253.613891 61.762958 
L 253.717708 61.108727 
L 253.778246 61.108727 
L 253.778246 60.781612 
L 254.249575 60.781612 
L 254.249575 60.454497 
L 254.761741 60.454497 
L 254.860923 59.800267 
L 255.290284 59.800267 
L 255.290284 59.473152 
L 255.663193 59.473152 
L 255.663193 59.146037 
L 255.834161 59.146037 
L 255.886859 58.491806 
L 256.515905 58.491806 
L 256.576444 57.837576 
L 256.668761 57.837576 
L 256.7293 57.183346 
L 256.847618 57.183346 
L 256.847618 56.856231 
L 256.995124 56.856231 
L 256.999476 56.202001 
L 257.48144 56.202001 
L 257.581217 54.89354 
L 257.664988 54.89354 
L 257.664988 54.566425 
L 258.015433 54.566425 
L 258.085455 53.58508 
L 258.542674 53.58508 
L 258.648182 52.93085 
L 259.097582 52.93085 
L 259.175423 52.276619 
L 259.589057 52.276619 
L 259.656196 51.295274 
L 259.741387 51.295274 
L 259.798672 50.641044 
L 260.183437 50.641044 
L 260.183437 50.313929 
L 260.626368 50.313929 
L 260.626368 49.986814 
L 260.832837 49.986814 
L 260.852613 49.332584 
L 260.977716 49.332584 
L 261.050034 48.678353 
L 261.345665 48.678353 
L 261.345665 48.351238 
L 261.874094 48.351238 
L 261.931158 47.042778 
L 261.991696 47.042778 
L 261.991696 46.715663 
L 262.108788 46.715663 
L 262.108788 46.388548 
L 262.405927 46.388548 
L 262.449432 45.734317 
L 263.270132 45.734317 
L 263.270132 45.407202 
L 263.491906 45.407202 
L 263.491906 45.080087 
L 264.504033 45.080087 
L 264.504033 44.752972 
L 264.678159 44.752972 
L 264.678159 44.425857 
L 265.008038 44.425857 
L 265.061068 43.771627 
L 265.147838 43.771627 
L 265.221361 43.117397 
L 265.34291 43.117397 
L 265.34291 42.790281 
L 265.535279 42.790281 
L 265.535279 42.463166 
L 265.765238 42.463166 
L 265.849185 41.481821 
L 265.968797 41.481821 
L 265.968797 41.154706 
L 266.496038 41.154706 
L 266.496038 40.827591 
L 267.846008 40.827591 
L 267.846008 40.500476 
L 268.146976 40.500476 
L 268.146976 40.173361 
L 268.766994 40.173361 
L 268.766994 39.846245 
L 268.918557 39.846245 
L 268.91985 39.192015 
L 269.294235 39.192015 
L 269.294235 38.8649 
L 269.447091 38.8649 
L 269.447091 38.537785 
L 269.627132 38.537785 
L 269.627132 38.21067 
L 270.627812 38.21067 
L 270.627812 37.883555 
L 270.763914 37.883555 
L 270.763914 37.55644 
L 271.171689 37.55644 
L 271.171689 37.229325 
L 271.314824 37.229325 
L 271.314824 36.90221 
L 274.182247 36.90221 
L 274.182247 36.575094 
L 274.709488 36.575094 
L 274.709488 36.247979 
L 276.170365 36.247979 
L 276.170365 35.920864 
L 277.777085 35.920864 
L 277.777085 35.593749 
L 278.039736 35.593749 
L 278.039736 35.266634 
L 278.566976 35.266634 
L 278.566976 34.939519 
L 281.245902 34.939519 
L 281.245902 34.612404 
L 283.183536 34.612404 
L 283.183536 34.285289 
L 284.289311 34.285289 
L 284.289311 33.958174 
L 286.652353 33.958174 
L 286.652353 33.631058 
L 287.009011 33.631058 
L 287.009011 33.303943 
L 289.116627 33.303943 
L 289.116627 32.976828 
L 290.153938 32.976828 
L 290.153938 32.649713 
L 291.636358 32.649713 
L 291.636358 32.322598 
L 298.409886 32.322598 
L 298.409886 31.995483 
L 299.154702 31.995483 
L 299.154702 31.668368 
L 301.129586 31.668368 
L 301.129586 31.341253 
L 303.237202 31.341253 
L 303.237202 31.014138 
L 304.274513 31.014138 
L 304.274513 30.687023 
L 305.756934 30.687023 
L 305.756934 30.359907 
L 313.275277 30.359907 
L 313.275277 30.032792 
L 320.498308 30.032792 
L 320.498308 29.705677 
L 321.901074 29.705677 
L 321.901074 29.378562 
L 322.623086 29.378562 
L 322.623086 29.051447 
L 323.412083 29.051447 
L 323.412083 28.724332 
L 324.903892 28.724332 
L 324.903892 28.397217 
L 325.232979 28.397217 
L 325.232979 28.070102 
L 325.82688 28.070102 
L 325.82688 27.742987 
L 326.203131 27.742987 
L 326.203131 27.415871 
L 326.606873 27.415871 
L 326.606873 27.088756 
L 330.369393 27.088756 
L 330.369393 26.761641 
L 331.772158 26.761641 
L 331.772158 26.434526 
L 332.494171 26.434526 
L 332.494171 26.107411 
L 333.283168 26.107411 
L 333.283168 25.780296 
L 334.774976 25.780296 
L 334.774976 25.453181 
L 335.104063 25.453181 
L 335.104063 25.126066 
L 335.697965 25.126066 
L 335.697965 24.798951 
L 336.074215 24.798951 
L 336.074215 24.471836 
L 336.477957 24.471836 
L 336.477957 24.14472 
L 351.597756 24.14472 
L 351.597756 23.817605 
L 361.46884 23.817605 
L 361.46884 23.49049 
L 453.192 23.49049 
L 453.192 23.49049 
" style="fill:none;stroke:#000000;stroke-linecap:square;stroke-width:3;"/>
   </g>
   <g id="line2d_63">
    <path clip-path="url(#pa42e9bcf37)" style="fill:none;stroke:#000000;stroke-linecap:square;stroke-width:3;"/>
   </g>
   <g id="line2d_64">
    <path clip-path="url(#pa42e9bcf37)" d="M 34.16 140.410775 
L 223.502275 140.410775 
L 223.502275 138.1677 
L 223.505356 138.1677 
L 223.505356 135.924625 
L 224.379472 135.924625 
L 224.379472 133.68155 
L 224.9769 133.68155 
L 224.9769 131.438475 
L 224.979981 131.438475 
L 224.979981 129.1954 
L 225.854097 129.1954 
L 225.854097 126.952325 
L 226.360436 126.952325 
L 226.360436 124.70925 
L 227.835061 124.70925 
L 227.835061 122.466175 
L 230.640673 122.466175 
L 230.640673 120.2231 
L 232.115298 120.2231 
L 232.115298 117.980025 
L 235.63199 117.980025 
L 235.63199 115.73695 
L 237.106615 115.73695 
L 237.106615 113.493875 
L 250.032379 113.493875 
L 250.032379 111.2508 
L 250.03546 111.2508 
L 250.03546 109.007725 
L 250.909576 109.007725 
L 250.909576 106.76465 
L 252.89054 106.76465 
L 252.89054 104.521575 
L 257.170777 104.521575 
L 257.170777 102.2785 
L 262.162094 102.2785 
L 262.162094 100.035425 
L 265.323321 100.035425 
L 265.323321 97.79235 
L 265.326402 97.79235 
L 265.326402 95.549275 
L 266.200518 95.549275 
L 266.200518 93.3062 
L 268.181482 93.3062 
L 268.181482 91.063125 
L 272.461719 91.063125 
L 272.461719 88.82005 
L 277.453036 88.82005 
L 277.453036 86.576975 
L 453.192 86.576975 
" style="fill:none;stroke:#00bfbf;stroke-linecap:square;stroke-width:3;"/>
   </g>
   <g id="line2d_65">
    <path clip-path="url(#pa42e9bcf37)" style="fill:none;stroke:#00bfbf;stroke-linecap:square;stroke-width:3;"/>
   </g>
   <g id="line2d_66">
    <path clip-path="url(#pa42e9bcf37)" d="M 34.16 140.410775 
L 223.207925 140.410775 
L 223.207925 138.1677 
L 224.386198 138.1677 
L 224.386198 135.924625 
L 224.392247 135.924625 
L 224.392247 133.68155 
L 224.84224 133.68155 
L 224.84224 131.438475 
L 226.020514 131.438475 
L 226.020514 129.1954 
L 226.026562 129.1954 
L 226.026562 126.952325 
L 226.259063 126.952325 
L 226.259063 124.70925 
L 227.893378 124.70925 
L 227.893378 122.466175 
L 230.81171 122.466175 
L 230.81171 120.2231 
L 232.446025 120.2231 
L 232.446025 117.980025 
L 236.229946 117.980025 
L 236.229946 115.73695 
L 237.864261 115.73695 
L 237.864261 113.493875 
L 250.031044 113.493875 
L 250.031044 111.2508 
L 251.209317 111.2508 
L 251.209317 109.007725 
L 251.215366 109.007725 
L 251.215366 106.76465 
L 253.082181 106.76465 
L 253.082181 104.521575 
L 257.634829 104.521575 
L 257.634829 102.2785 
L 263.053065 102.2785 
L 263.053065 100.035425 
L 265.084626 100.035425 
L 265.084626 97.79235 
L 266.2629 97.79235 
L 266.2629 95.549275 
L 266.268948 95.549275 
L 266.268948 93.3062 
L 268.135764 93.3062 
L 268.135764 91.063125 
L 272.688411 91.063125 
L 272.688411 88.82005 
L 278.106647 88.82005 
L 278.106647 86.576975 
L 453.192 86.576975 
" style="fill:none;stroke:#bf00bf;stroke-linecap:square;stroke-width:3;"/>
   </g>
   <g id="line2d_67">
    <path clip-path="url(#pa42e9bcf37)" style="fill:none;stroke:#bf00bf;stroke-linecap:square;stroke-width:3;"/>
   </g>
   <g id="line2d_68">
    <path clip-path="url(#pa42e9bcf37)" d="M 34.16 140.410775 
L 224.135244 140.410775 
L 224.135244 138.1677 
L 224.166033 138.1677 
L 224.166033 135.924625 
L 225.069253 135.924625 
L 225.069253 133.68155 
L 225.775946 133.68155 
L 225.775946 131.438475 
L 225.806735 131.438475 
L 225.806735 129.1954 
L 226.631717 129.1954 
L 226.631717 126.952325 
L 226.709954 126.952325 
L 226.709954 124.70925 
L 228.272419 124.70925 
L 228.272419 122.466175 
L 230.995409 122.466175 
L 230.995409 120.2231 
L 232.636111 120.2231 
L 232.636111 117.980025 
L 235.94655 117.980025 
L 235.94655 115.73695 
L 237.587252 115.73695 
L 237.587252 113.493875 
L 250.988959 113.493875 
L 250.988959 111.2508 
L 251.019748 111.2508 
L 251.019748 109.007725 
L 251.922967 109.007725 
L 251.922967 106.76465 
L 253.485432 106.76465 
L 253.485432 104.521575 
L 257.849124 104.521575 
L 257.849124 102.2785 
L 262.800265 102.2785 
L 262.800265 100.035425 
L 264.53692 100.035425 
L 264.53692 97.79235 
L 264.567709 97.79235 
L 264.567709 95.549275 
L 265.470928 95.549275 
L 265.470928 93.3062 
L 267.033393 93.3062 
L 267.033393 91.063125 
L 271.397085 91.063125 
L 271.397085 88.82005 
L 276.348226 88.82005 
L 276.348226 86.576975 
L 453.192 86.576975 
" style="fill:none;stroke:#ff0000;stroke-linecap:square;stroke-width:3;"/>
   </g>
   <g id="line2d_69">
    <path clip-path="url(#pa42e9bcf37)" style="fill:none;stroke:#ff0000;stroke-linecap:square;stroke-width:3;"/>
   </g>
   <g id="line2d_70">
    <path clip-path="url(#pa42e9bcf37)" d="M 243.676 291.28 
L 243.676 3 
" style="fill:none;stroke:#000000;stroke-linecap:square;stroke-width:1.5;"/>
   </g>
   <g id="line2d_71">
    <path clip-path="url(#pa42e9bcf37)" d="M 34.16 147.14 
L 453.192 147.14 
" style="fill:none;stroke:#000000;stroke-dasharray:2,3.3;stroke-dashoffset:0;stroke-width:2;"/>
   </g>
   <g id="patch_3">
    <path d="M 34.16 291.28 
L 34.16 3 
" style="fill:none;stroke:#000000;stroke-linecap:square;stroke-linejoin:miter;stroke-width:0.8;"/>
   </g>
   <g id="patch_4">
    <path d="M 453.192 291.28 
L 453.192 3 
" style="fill:none;stroke:#000000;stroke-linecap:square;stroke-linejoin:miter;stroke-width:0.8;"/>
   </g>
   <g id="patch_5">
    <path d="M 34.16 291.28 
L 453.192 291.28 
" style="fill:none;stroke:#000000;stroke-linecap:square;stroke-linejoin:miter;stroke-width:0.8;"/>
   </g>
   <g id="patch_6">
    <path d="M 34.16 3 
L 453.192 3 
" style="fill:none;stroke:#000000;stroke-linecap:square;stroke-linejoin:miter;stroke-width:0.8;"/>
   </g>
   <g id="text_5">
    <!-- f6-f9,40-D -->
    <g transform="translate(343.64261 285.5144)scale(0.2 -0.2)">
     <defs>
      <path d="M 2113 2584 
Q 1688 2584 1439 2293 
Q 1191 2003 1191 1497 
Q 1191 994 1439 701 
Q 1688 409 2113 409 
Q 2538 409 2786 701 
Q 3034 994 3034 1497 
Q 3034 2003 2786 2293 
Q 2538 2584 2113 2584 
z
M 3366 4563 
L 3366 3988 
Q 3128 4100 2886 4159 
Q 2644 4219 2406 4219 
Q 1781 4219 1451 3797 
Q 1122 3375 1075 2522 
Q 1259 2794 1537 2939 
Q 1816 3084 2150 3084 
Q 2853 3084 3261 2657 
Q 3669 2231 3669 1497 
Q 3669 778 3244 343 
Q 2819 -91 2113 -91 
Q 1303 -91 875 529 
Q 447 1150 447 2328 
Q 447 3434 972 4092 
Q 1497 4750 2381 4750 
Q 2619 4750 2861 4703 
Q 3103 4656 3366 4563 
z
" id="DejaVuSans-36" transform="scale(0.015625)"/>
      <path d="M 703 97 
L 703 672 
Q 941 559 1184 500 
Q 1428 441 1663 441 
Q 2288 441 2617 861 
Q 2947 1281 2994 2138 
Q 2813 1869 2534 1725 
Q 2256 1581 1919 1581 
Q 1219 1581 811 2004 
Q 403 2428 403 3163 
Q 403 3881 828 4315 
Q 1253 4750 1959 4750 
Q 2769 4750 3195 4129 
Q 3622 3509 3622 2328 
Q 3622 1225 3098 567 
Q 2575 -91 1691 -91 
Q 1453 -91 1209 -44 
Q 966 3 703 97 
z
M 1959 2075 
Q 2384 2075 2632 2365 
Q 2881 2656 2881 3163 
Q 2881 3666 2632 3958 
Q 2384 4250 1959 4250 
Q 1534 4250 1286 3958 
Q 1038 3666 1038 3163 
Q 1038 2656 1286 2365 
Q 1534 2075 1959 2075 
z
" id="DejaVuSans-39" transform="scale(0.015625)"/>
      <path d="M 750 794 
L 1409 794 
L 1409 256 
L 897 -744 
L 494 -744 
L 750 256 
L 750 794 
z
" id="DejaVuSans-2c" transform="scale(0.015625)"/>
      <path d="M 2419 4116 
L 825 1625 
L 2419 1625 
L 2419 4116 
z
M 2253 4666 
L 3047 4666 
L 3047 1625 
L 3713 1625 
L 3713 1100 
L 3047 1100 
L 3047 0 
L 2419 0 
L 2419 1100 
L 313 1100 
L 313 1709 
L 2253 4666 
z
" id="DejaVuSans-34" transform="scale(0.015625)"/>
      <path d="M 1259 4147 
L 1259 519 
L 2022 519 
Q 2988 519 3436 956 
Q 3884 1394 3884 2338 
Q 3884 3275 3436 3711 
Q 2988 4147 2022 4147 
L 1259 4147 
z
M 628 4666 
L 1925 4666 
Q 3281 4666 3915 4102 
Q 4550 3538 4550 2338 
Q 4550 1131 3912 565 
Q 3275 0 1925 0 
L 628 0 
L 628 4666 
z
" id="DejaVuSans-44" transform="scale(0.015625)"/>
     </defs>
     <use xlink:href="#DejaVuSans-66"/>
     <use x="35.205078" xlink:href="#DejaVuSans-36"/>
     <use x="98.828125" xlink:href="#DejaVuSans-2d"/>
     <use x="134.912109" xlink:href="#DejaVuSans-66"/>
     <use x="170.117188" xlink:href="#DejaVuSans-39"/>
     <use x="233.740234" xlink:href="#DejaVuSans-2c"/>
     <use x="265.527344" xlink:href="#DejaVuSans-34"/>
     <use x="329.150391" xlink:href="#DejaVuSans-30"/>
     <use x="392.773438" xlink:href="#DejaVuSans-2d"/>
     <use x="428.857422" xlink:href="#DejaVuSans-44"/>
    </g>
   </g>
   <g id="text_6">
    <!-- v2.6.3 -->
    <g style="fill:#808080;" transform="translate(227.99475 286.317512)scale(0.1 -0.1)">
     <defs>
      <path d="M 1228 531 
L 3431 531 
L 3431 0 
L 469 0 
L 469 531 
Q 828 903 1448 1529 
Q 2069 2156 2228 2338 
Q 2531 2678 2651 2914 
Q 2772 3150 2772 3378 
Q 2772 3750 2511 3984 
Q 2250 4219 1831 4219 
Q 1534 4219 1204 4116 
Q 875 4013 500 3803 
L 500 4441 
Q 881 4594 1212 4672 
Q 1544 4750 1819 4750 
Q 2544 4750 2975 4387 
Q 3406 4025 3406 3419 
Q 3406 3131 3298 2873 
Q 3191 2616 2906 2266 
Q 2828 2175 2409 1742 
Q 1991 1309 1228 531 
z
" id="DejaVuSans-32" transform="scale(0.015625)"/>
      <path d="M 684 794 
L 1344 794 
L 1344 0 
L 684 0 
L 684 794 
z
" id="DejaVuSans-2e" transform="scale(0.015625)"/>
      <path d="M 2597 2516 
Q 3050 2419 3304 2112 
Q 3559 1806 3559 1356 
Q 3559 666 3084 287 
Q 2609 -91 1734 -91 
Q 1441 -91 1130 -33 
Q 819 25 488 141 
L 488 750 
Q 750 597 1062 519 
Q 1375 441 1716 441 
Q 2309 441 2620 675 
Q 2931 909 2931 1356 
Q 2931 1769 2642 2001 
Q 2353 2234 1838 2234 
L 1294 2234 
L 1294 2753 
L 1863 2753 
Q 2328 2753 2575 2939 
Q 2822 3125 2822 3475 
Q 2822 3834 2567 4026 
Q 2313 4219 1838 4219 
Q 1578 4219 1281 4162 
Q 984 4106 628 3988 
L 628 4550 
Q 988 4650 1302 4700 
Q 1616 4750 1894 4750 
Q 2613 4750 3031 4423 
Q 3450 4097 3450 3541 
Q 3450 3153 3228 2886 
Q 3006 2619 2597 2516 
z
" id="DejaVuSans-33" transform="scale(0.015625)"/>
     </defs>
     <use xlink:href="#DejaVuSans-76"/>
     <use x="59.179688" xlink:href="#DejaVuSans-32"/>
     <use x="122.802734" xlink:href="#DejaVuSans-2e"/>
     <use x="154.589844" xlink:href="#DejaVuSans-36"/>
     <use x="218.212891" xlink:href="#DejaVuSans-2e"/>
     <use x="250" xlink:href="#DejaVuSans-33"/>
    </g>
   </g>
   <g id="legend_1">
    <g id="patch_7">
     <path d="M 48.16 136.425 
L 177.381875 136.425 
Q 181.381875 136.425 181.381875 132.425 
L 181.381875 17 
Q 181.381875 13 177.381875 13 
L 48.16 13 
Q 44.16 13 44.16 17 
L 44.16 132.425 
Q 44.16 136.425 48.16 136.425 
z
" style="fill:#ffffff;opacity:0.2;stroke:#cccccc;stroke-linejoin:miter;"/>
    </g>
    <g id="line2d_72">
     <path d="M 52.16 29.196875 
L 92.16 29.196875 
" style="fill:none;stroke:#000000;stroke-linecap:square;stroke-width:3;"/>
    </g>
    <g id="line2d_73"/>
    <g id="text_7">
     <!-- 1: 4/4 -->
     <g transform="translate(108.16 36.196875)scale(0.2 -0.2)">
      <defs>
       <path d="M 750 794 
L 1409 794 
L 1409 0 
L 750 0 
L 750 794 
z
M 750 3309 
L 1409 3309 
L 1409 2516 
L 750 2516 
L 750 3309 
z
" id="DejaVuSans-3a" transform="scale(0.015625)"/>
       <path d="M 1625 4666 
L 2156 4666 
L 531 -594 
L 0 -594 
L 1625 4666 
z
" id="DejaVuSans-2f" transform="scale(0.015625)"/>
      </defs>
      <use xlink:href="#DejaVuSans-31"/>
      <use x="63.623047" xlink:href="#DejaVuSans-3a"/>
      <use x="97.314453" xlink:href="#DejaVuSans-20"/>
      <use x="129.101562" xlink:href="#DejaVuSans-34"/>
      <use x="192.724609" xlink:href="#DejaVuSans-2f"/>
      <use x="226.416016" xlink:href="#DejaVuSans-34"/>
     </g>
    </g>
    <g id="line2d_74">
     <path d="M 52.16 58.553125 
L 92.16 58.553125 
" style="fill:none;stroke:#00bfbf;stroke-linecap:square;stroke-width:3;"/>
    </g>
    <g id="line2d_75"/>
    <g id="text_8">
     <!-- -1: 1/1 -->
     <g transform="translate(108.16 65.553125)scale(0.2 -0.2)">
      <use xlink:href="#DejaVuSans-2d"/>
      <use x="36.083984" xlink:href="#DejaVuSans-31"/>
      <use x="99.707031" xlink:href="#DejaVuSans-3a"/>
      <use x="133.398438" xlink:href="#DejaVuSans-20"/>
      <use x="165.185547" xlink:href="#DejaVuSans-31"/>
      <use x="228.808594" xlink:href="#DejaVuSans-2f"/>
      <use x="262.5" xlink:href="#DejaVuSans-31"/>
     </g>
    </g>
    <g id="line2d_76">
     <path d="M 52.16 87.909375 
L 92.16 87.909375 
" style="fill:none;stroke:#bf00bf;stroke-linecap:square;stroke-width:3;"/>
    </g>
    <g id="line2d_77"/>
    <g id="text_9">
     <!-- -4: 1/1 -->
     <g transform="translate(108.16 94.909375)scale(0.2 -0.2)">
      <use xlink:href="#DejaVuSans-2d"/>
      <use x="36.083984" xlink:href="#DejaVuSans-34"/>
      <use x="99.707031" xlink:href="#DejaVuSans-3a"/>
      <use x="133.398438" xlink:href="#DejaVuSans-20"/>
      <use x="165.185547" xlink:href="#DejaVuSans-31"/>
      <use x="228.808594" xlink:href="#DejaVuSans-2f"/>
      <use x="262.5" xlink:href="#DejaVuSans-31"/>
     </g>
    </g>
    <g id="line2d_78">
     <path d="M 52.16 117.265625 
L 92.16 117.265625 
" style="fill:none;stroke:#ff0000;stroke-linecap:square;stroke-width:3;"/>
    </g>
    <g id="line2d_79"/>
    <g id="text_10">
     <!-- -8: 1/1 -->
     <g transform="translate(108.16 124.265625)scale(0.2 -0.2)">
      <defs>
       <path d="M 2034 2216 
Q 1584 2216 1326 1975 
Q 1069 1734 1069 1313 
Q 1069 891 1326 650 
Q 1584 409 2034 409 
Q 2484 409 2743 651 
Q 3003 894 3003 1313 
Q 3003 1734 2745 1975 
Q 2488 2216 2034 2216 
z
M 1403 2484 
Q 997 2584 770 2862 
Q 544 3141 544 3541 
Q 544 4100 942 4425 
Q 1341 4750 2034 4750 
Q 2731 4750 3128 4425 
Q 3525 4100 3525 3541 
Q 3525 3141 3298 2862 
Q 3072 2584 2669 2484 
Q 3125 2378 3379 2068 
Q 3634 1759 3634 1313 
Q 3634 634 3220 271 
Q 2806 -91 2034 -91 
Q 1263 -91 848 271 
Q 434 634 434 1313 
Q 434 1759 690 2068 
Q 947 2378 1403 2484 
z
M 1172 3481 
Q 1172 3119 1398 2916 
Q 1625 2713 2034 2713 
Q 2441 2713 2670 2916 
Q 2900 3119 2900 3481 
Q 2900 3844 2670 4047 
Q 2441 4250 2034 4250 
Q 1625 4250 1398 4047 
Q 1172 3844 1172 3481 
z
" id="DejaVuSans-38" transform="scale(0.015625)"/>
      </defs>
      <use xlink:href="#DejaVuSans-2d"/>
      <use x="36.083984" xlink:href="#DejaVuSans-38"/>
      <use x="99.707031" xlink:href="#DejaVuSans-3a"/>
      <use x="133.398438" xlink:href="#DejaVuSans-20"/>
      <use x="165.185547" xlink:href="#DejaVuSans-31"/>
      <use x="228.808594" xlink:href="#DejaVuSans-2f"/>
      <use x="262.5" xlink:href="#DejaVuSans-31"/>
     </g>
    </g>
   </g>
  </g>
 </g>
 <defs>
  <clipPath id="pa42e9bcf37">
   <rect height="288.28" width="419.032" x="34.16" y="3"/>
  </clipPath>
 </defs>
</svg>
