<?xml version="1.0" encoding="utf-8" standalone="no"?>
<!DOCTYPE svg PUBLIC "-//W3C//DTD SVG 1.1//EN"
  "http://www.w3.org/Graphics/SVG/1.1/DTD/svg11.dtd">
<svg height="345.6pt" version="1.1" viewBox="0 0 460.8 345.6" width="460.8pt" xmlns="http://www.w3.org/2000/svg" xmlns:xlink="http://www.w3.org/1999/xlink">
 <metadata>
  <rdf:RDF xmlns:cc="http://creativecommons.org/ns#" xmlns:dc="http://purl.org/dc/elements/1.1/" xmlns:rdf="http://www.w3.org/1999/02/22-rdf-syntax-ns#">
   <cc:Work>
    <dc:type rdf:resource="http://purl.org/dc/dcmitype/StillImage"/>
    <dc:date>2023-04-17T18:02:30.363713</dc:date>
    <dc:format>image/svg+xml</dc:format>
    <dc:creator>
     <cc:Agent>
      <dc:title>Matplotlib v3.4.1, https://matplotlib.org/</dc:title>
     </cc:Agent>
    </dc:creator>
   </cc:Work>
  </rdf:RDF>
 </metadata>
 <defs>
  <style type="text/css">*{stroke-linecap:butt;stroke-linejoin:round;}</style>
 </defs>
 <g id="figure_1">
  <g id="patch_1">
   <path d="M 0 345.6 
L 460.8 345.6 
L 460.8 0 
L 0 0 
z
" style="fill:#ffffff;"/>
  </g>
  <g id="axes_1">
   <g id="patch_2">
    <path d="M 34.16 291.28 
L 453.192 291.28 
L 453.192 3 
L 34.16 3 
z
" style="fill:#ffffff;"/>
   </g>
   <g id="matplotlib.axis_1">
    <g id="xtick_1">
     <g id="line2d_1">
      <path clip-path="url(#p3bb80ab6a9)" d="M 108.161436 291.28 
L 108.161436 3 
" style="fill:none;stroke:#b0b0b0;stroke-linecap:square;stroke-width:0.8;"/>
     </g>
     <g id="line2d_2">
      <defs>
       <path d="M 0 0 
L 0 3.5 
" id="m3ac1a812b8" style="stroke:#000000;stroke-width:0.8;"/>
      </defs>
      <g>
       <use style="stroke:#000000;stroke-width:0.8;" x="108.161436" xlink:href="#m3ac1a812b8" y="291.28"/>
      </g>
     </g>
     <g id="text_1">
      <!-- -2 -->
      <g transform="translate(98.191124 313.476875)scale(0.2 -0.2)">
       <defs>
        <path d="M 313 2009 
L 1997 2009 
L 1997 1497 
L 313 1497 
L 313 2009 
z
" id="DejaVuSans-2d" transform="scale(0.015625)"/>
        <path d="M 1228 531 
L 3431 531 
L 3431 0 
L 469 0 
L 469 531 
Q 828 903 1448 1529 
Q 2069 2156 2228 2338 
Q 2531 2678 2651 2914 
Q 2772 3150 2772 3378 
Q 2772 3750 2511 3984 
Q 2250 4219 1831 4219 
Q 1534 4219 1204 4116 
Q 875 4013 500 3803 
L 500 4441 
Q 881 4594 1212 4672 
Q 1544 4750 1819 4750 
Q 2544 4750 2975 4387 
Q 3406 4025 3406 3419 
Q 3406 3131 3298 2873 
Q 3191 2616 2906 2266 
Q 2828 2175 2409 1742 
Q 1991 1309 1228 531 
z
" id="DejaVuSans-32" transform="scale(0.015625)"/>
       </defs>
       <use xlink:href="#DejaVuSans-2d"/>
       <use x="36.083984" xlink:href="#DejaVuSans-32"/>
      </g>
     </g>
    </g>
    <g id="xtick_2">
     <g id="line2d_3">
      <path clip-path="url(#p3bb80ab6a9)" d="M 243.676 291.28 
L 243.676 3 
" style="fill:none;stroke:#b0b0b0;stroke-linecap:square;stroke-width:0.8;"/>
     </g>
     <g id="line2d_4">
      <g>
       <use style="stroke:#000000;stroke-width:0.8;" x="243.676" xlink:href="#m3ac1a812b8" y="291.28"/>
      </g>
     </g>
     <g id="text_2">
      <!-- 0 -->
      <g transform="translate(237.3135 313.476875)scale(0.2 -0.2)">
       <defs>
        <path d="M 2034 4250 
Q 1547 4250 1301 3770 
Q 1056 3291 1056 2328 
Q 1056 1369 1301 889 
Q 1547 409 2034 409 
Q 2525 409 2770 889 
Q 3016 1369 3016 2328 
Q 3016 3291 2770 3770 
Q 2525 4250 2034 4250 
z
M 2034 4750 
Q 2819 4750 3233 4129 
Q 3647 3509 3647 2328 
Q 3647 1150 3233 529 
Q 2819 -91 2034 -91 
Q 1250 -91 836 529 
Q 422 1150 422 2328 
Q 422 3509 836 4129 
Q 1250 4750 2034 4750 
z
" id="DejaVuSans-30" transform="scale(0.015625)"/>
       </defs>
       <use xlink:href="#DejaVuSans-30"/>
      </g>
     </g>
    </g>
    <g id="xtick_3">
     <g id="line2d_5">
      <path clip-path="url(#p3bb80ab6a9)" d="M 379.190564 291.28 
L 379.190564 3 
" style="fill:none;stroke:#b0b0b0;stroke-linecap:square;stroke-width:0.8;"/>
     </g>
     <g id="line2d_6">
      <g>
       <use style="stroke:#000000;stroke-width:0.8;" x="379.190564" xlink:href="#m3ac1a812b8" y="291.28"/>
      </g>
     </g>
     <g id="text_3">
      <!-- 2 -->
      <g transform="translate(372.828064 313.476875)scale(0.2 -0.2)">
       <use xlink:href="#DejaVuSans-32"/>
      </g>
     </g>
    </g>
    <g id="text_4">
     <!-- log10 of FEvals ratio -->
     <g transform="translate(141.371312 336.833125)scale(0.2 -0.2)">
      <defs>
       <path d="M 603 4863 
L 1178 4863 
L 1178 0 
L 603 0 
L 603 4863 
z
" id="DejaVuSans-6c" transform="scale(0.015625)"/>
       <path d="M 1959 3097 
Q 1497 3097 1228 2736 
Q 959 2375 959 1747 
Q 959 1119 1226 758 
Q 1494 397 1959 397 
Q 2419 397 2687 759 
Q 2956 1122 2956 1747 
Q 2956 2369 2687 2733 
Q 2419 3097 1959 3097 
z
M 1959 3584 
Q 2709 3584 3137 3096 
Q 3566 2609 3566 1747 
Q 3566 888 3137 398 
Q 2709 -91 1959 -91 
Q 1206 -91 779 398 
Q 353 888 353 1747 
Q 353 2609 779 3096 
Q 1206 3584 1959 3584 
z
" id="DejaVuSans-6f" transform="scale(0.015625)"/>
       <path d="M 2906 1791 
Q 2906 2416 2648 2759 
Q 2391 3103 1925 3103 
Q 1463 3103 1205 2759 
Q 947 2416 947 1791 
Q 947 1169 1205 825 
Q 1463 481 1925 481 
Q 2391 481 2648 825 
Q 2906 1169 2906 1791 
z
M 3481 434 
Q 3481 -459 3084 -895 
Q 2688 -1331 1869 -1331 
Q 1566 -1331 1297 -1286 
Q 1028 -1241 775 -1147 
L 775 -588 
Q 1028 -725 1275 -790 
Q 1522 -856 1778 -856 
Q 2344 -856 2625 -561 
Q 2906 -266 2906 331 
L 2906 616 
Q 2728 306 2450 153 
Q 2172 0 1784 0 
Q 1141 0 747 490 
Q 353 981 353 1791 
Q 353 2603 747 3093 
Q 1141 3584 1784 3584 
Q 2172 3584 2450 3431 
Q 2728 3278 2906 2969 
L 2906 3500 
L 3481 3500 
L 3481 434 
z
" id="DejaVuSans-67" transform="scale(0.015625)"/>
       <path d="M 794 531 
L 1825 531 
L 1825 4091 
L 703 3866 
L 703 4441 
L 1819 4666 
L 2450 4666 
L 2450 531 
L 3481 531 
L 3481 0 
L 794 0 
L 794 531 
z
" id="DejaVuSans-31" transform="scale(0.015625)"/>
       <path id="DejaVuSans-20" transform="scale(0.015625)"/>
       <path d="M 2375 4863 
L 2375 4384 
L 1825 4384 
Q 1516 4384 1395 4259 
Q 1275 4134 1275 3809 
L 1275 3500 
L 2222 3500 
L 2222 3053 
L 1275 3053 
L 1275 0 
L 697 0 
L 697 3053 
L 147 3053 
L 147 3500 
L 697 3500 
L 697 3744 
Q 697 4328 969 4595 
Q 1241 4863 1831 4863 
L 2375 4863 
z
" id="DejaVuSans-66" transform="scale(0.015625)"/>
       <path d="M 628 4666 
L 3309 4666 
L 3309 4134 
L 1259 4134 
L 1259 2759 
L 3109 2759 
L 3109 2228 
L 1259 2228 
L 1259 0 
L 628 0 
L 628 4666 
z
" id="DejaVuSans-46" transform="scale(0.015625)"/>
       <path d="M 628 4666 
L 3578 4666 
L 3578 4134 
L 1259 4134 
L 1259 2753 
L 3481 2753 
L 3481 2222 
L 1259 2222 
L 1259 531 
L 3634 531 
L 3634 0 
L 628 0 
L 628 4666 
z
" id="DejaVuSans-45" transform="scale(0.015625)"/>
       <path d="M 191 3500 
L 800 3500 
L 1894 563 
L 2988 3500 
L 3597 3500 
L 2284 0 
L 1503 0 
L 191 3500 
z
" id="DejaVuSans-76" transform="scale(0.015625)"/>
       <path d="M 2194 1759 
Q 1497 1759 1228 1600 
Q 959 1441 959 1056 
Q 959 750 1161 570 
Q 1363 391 1709 391 
Q 2188 391 2477 730 
Q 2766 1069 2766 1631 
L 2766 1759 
L 2194 1759 
z
M 3341 1997 
L 3341 0 
L 2766 0 
L 2766 531 
Q 2569 213 2275 61 
Q 1981 -91 1556 -91 
Q 1019 -91 701 211 
Q 384 513 384 1019 
Q 384 1609 779 1909 
Q 1175 2209 1959 2209 
L 2766 2209 
L 2766 2266 
Q 2766 2663 2505 2880 
Q 2244 3097 1772 3097 
Q 1472 3097 1187 3025 
Q 903 2953 641 2809 
L 641 3341 
Q 956 3463 1253 3523 
Q 1550 3584 1831 3584 
Q 2591 3584 2966 3190 
Q 3341 2797 3341 1997 
z
" id="DejaVuSans-61" transform="scale(0.015625)"/>
       <path d="M 2834 3397 
L 2834 2853 
Q 2591 2978 2328 3040 
Q 2066 3103 1784 3103 
Q 1356 3103 1142 2972 
Q 928 2841 928 2578 
Q 928 2378 1081 2264 
Q 1234 2150 1697 2047 
L 1894 2003 
Q 2506 1872 2764 1633 
Q 3022 1394 3022 966 
Q 3022 478 2636 193 
Q 2250 -91 1575 -91 
Q 1294 -91 989 -36 
Q 684 19 347 128 
L 347 722 
Q 666 556 975 473 
Q 1284 391 1588 391 
Q 1994 391 2212 530 
Q 2431 669 2431 922 
Q 2431 1156 2273 1281 
Q 2116 1406 1581 1522 
L 1381 1569 
Q 847 1681 609 1914 
Q 372 2147 372 2553 
Q 372 3047 722 3315 
Q 1072 3584 1716 3584 
Q 2034 3584 2315 3537 
Q 2597 3491 2834 3397 
z
" id="DejaVuSans-73" transform="scale(0.015625)"/>
       <path d="M 2631 2963 
Q 2534 3019 2420 3045 
Q 2306 3072 2169 3072 
Q 1681 3072 1420 2755 
Q 1159 2438 1159 1844 
L 1159 0 
L 581 0 
L 581 3500 
L 1159 3500 
L 1159 2956 
Q 1341 3275 1631 3429 
Q 1922 3584 2338 3584 
Q 2397 3584 2469 3576 
Q 2541 3569 2628 3553 
L 2631 2963 
z
" id="DejaVuSans-72" transform="scale(0.015625)"/>
       <path d="M 1172 4494 
L 1172 3500 
L 2356 3500 
L 2356 3053 
L 1172 3053 
L 1172 1153 
Q 1172 725 1289 603 
Q 1406 481 1766 481 
L 2356 481 
L 2356 0 
L 1766 0 
Q 1100 0 847 248 
Q 594 497 594 1153 
L 594 3053 
L 172 3053 
L 172 3500 
L 594 3500 
L 594 4494 
L 1172 4494 
z
" id="DejaVuSans-74" transform="scale(0.015625)"/>
       <path d="M 603 3500 
L 1178 3500 
L 1178 0 
L 603 0 
L 603 3500 
z
M 603 4863 
L 1178 4863 
L 1178 4134 
L 603 4134 
L 603 4863 
z
" id="DejaVuSans-69" transform="scale(0.015625)"/>
      </defs>
      <use xlink:href="#DejaVuSans-6c"/>
      <use x="27.783203" xlink:href="#DejaVuSans-6f"/>
      <use x="88.964844" xlink:href="#DejaVuSans-67"/>
      <use x="152.441406" xlink:href="#DejaVuSans-31"/>
      <use x="216.064453" xlink:href="#DejaVuSans-30"/>
      <use x="279.6875" xlink:href="#DejaVuSans-20"/>
      <use x="311.474609" xlink:href="#DejaVuSans-6f"/>
      <use x="372.65625" xlink:href="#DejaVuSans-66"/>
      <use x="407.861328" xlink:href="#DejaVuSans-20"/>
      <use x="439.648438" xlink:href="#DejaVuSans-46"/>
      <use x="497.167969" xlink:href="#DejaVuSans-45"/>
      <use x="560.351562" xlink:href="#DejaVuSans-76"/>
      <use x="619.53125" xlink:href="#DejaVuSans-61"/>
      <use x="680.810547" xlink:href="#DejaVuSans-6c"/>
      <use x="708.59375" xlink:href="#DejaVuSans-73"/>
      <use x="760.693359" xlink:href="#DejaVuSans-20"/>
      <use x="792.480469" xlink:href="#DejaVuSans-72"/>
      <use x="833.59375" xlink:href="#DejaVuSans-61"/>
      <use x="894.873047" xlink:href="#DejaVuSans-74"/>
      <use x="934.082031" xlink:href="#DejaVuSans-69"/>
      <use x="961.865234" xlink:href="#DejaVuSans-6f"/>
     </g>
    </g>
   </g>
   <g id="matplotlib.axis_2">
    <g id="ytick_1">
     <g id="line2d_7">
      <path clip-path="url(#p3bb80ab6a9)" d="M 34.16 288.453725 
L 453.192 288.453725 
" style="fill:none;stroke:#b0b0b0;stroke-linecap:square;stroke-width:0.8;"/>
     </g>
     <g id="line2d_8">
      <defs>
       <path d="M 0 0 
L -3.5 0 
" id="me4278358bc" style="stroke:#000000;stroke-width:0.8;"/>
      </defs>
      <g>
       <use style="stroke:#000000;stroke-width:0.8;" x="34.16" xlink:href="#me4278358bc" y="288.453725"/>
      </g>
     </g>
    </g>
    <g id="ytick_2">
     <g id="line2d_9">
      <path clip-path="url(#p3bb80ab6a9)" d="M 34.16 217.796863 
L 453.192 217.796863 
" style="fill:none;stroke:#b0b0b0;stroke-linecap:square;stroke-width:0.8;"/>
     </g>
     <g id="line2d_10">
      <g>
       <use style="stroke:#000000;stroke-width:0.8;" x="34.16" xlink:href="#me4278358bc" y="217.796863"/>
      </g>
     </g>
    </g>
    <g id="ytick_3">
     <g id="line2d_11">
      <path clip-path="url(#p3bb80ab6a9)" d="M 34.16 147.14 
L 453.192 147.14 
" style="fill:none;stroke:#b0b0b0;stroke-linecap:square;stroke-width:0.8;"/>
     </g>
     <g id="line2d_12">
      <g>
       <use style="stroke:#000000;stroke-width:0.8;" x="34.16" xlink:href="#me4278358bc" y="147.14"/>
      </g>
     </g>
    </g>
    <g id="ytick_4">
     <g id="line2d_13">
      <path clip-path="url(#p3bb80ab6a9)" d="M 34.16 76.483137 
L 453.192 76.483137 
" style="fill:none;stroke:#b0b0b0;stroke-linecap:square;stroke-width:0.8;"/>
     </g>
     <g id="line2d_14">
      <g>
       <use style="stroke:#000000;stroke-width:0.8;" x="34.16" xlink:href="#me4278358bc" y="76.483137"/>
      </g>
     </g>
    </g>
    <g id="ytick_5">
     <g id="line2d_15">
      <path clip-path="url(#p3bb80ab6a9)" d="M 34.16 5.826275 
L 453.192 5.826275 
" style="fill:none;stroke:#b0b0b0;stroke-linecap:square;stroke-width:0.8;"/>
     </g>
     <g id="line2d_16">
      <g>
       <use style="stroke:#000000;stroke-width:0.8;" x="34.16" xlink:href="#me4278358bc" y="5.826275"/>
      </g>
     </g>
    </g>
    <g id="text_5">
     <!-- proportion of trials -->
     <g transform="translate(19.000625 240.14625)rotate(-90)scale(0.2 -0.2)">
      <defs>
       <path d="M 1159 525 
L 1159 -1331 
L 581 -1331 
L 581 3500 
L 1159 3500 
L 1159 2969 
Q 1341 3281 1617 3432 
Q 1894 3584 2278 3584 
Q 2916 3584 3314 3078 
Q 3713 2572 3713 1747 
Q 3713 922 3314 415 
Q 2916 -91 2278 -91 
Q 1894 -91 1617 61 
Q 1341 213 1159 525 
z
M 3116 1747 
Q 3116 2381 2855 2742 
Q 2594 3103 2138 3103 
Q 1681 3103 1420 2742 
Q 1159 2381 1159 1747 
Q 1159 1113 1420 752 
Q 1681 391 2138 391 
Q 2594 391 2855 752 
Q 3116 1113 3116 1747 
z
" id="DejaVuSans-70" transform="scale(0.015625)"/>
       <path d="M 3513 2113 
L 3513 0 
L 2938 0 
L 2938 2094 
Q 2938 2591 2744 2837 
Q 2550 3084 2163 3084 
Q 1697 3084 1428 2787 
Q 1159 2491 1159 1978 
L 1159 0 
L 581 0 
L 581 3500 
L 1159 3500 
L 1159 2956 
Q 1366 3272 1645 3428 
Q 1925 3584 2291 3584 
Q 2894 3584 3203 3211 
Q 3513 2838 3513 2113 
z
" id="DejaVuSans-6e" transform="scale(0.015625)"/>
      </defs>
      <use xlink:href="#DejaVuSans-70"/>
      <use x="63.476562" xlink:href="#DejaVuSans-72"/>
      <use x="102.339844" xlink:href="#DejaVuSans-6f"/>
      <use x="163.521484" xlink:href="#DejaVuSans-70"/>
      <use x="226.998047" xlink:href="#DejaVuSans-6f"/>
      <use x="288.179688" xlink:href="#DejaVuSans-72"/>
      <use x="329.292969" xlink:href="#DejaVuSans-74"/>
      <use x="368.501953" xlink:href="#DejaVuSans-69"/>
      <use x="396.285156" xlink:href="#DejaVuSans-6f"/>
      <use x="457.466797" xlink:href="#DejaVuSans-6e"/>
      <use x="520.845703" xlink:href="#DejaVuSans-20"/>
      <use x="552.632812" xlink:href="#DejaVuSans-6f"/>
      <use x="613.814453" xlink:href="#DejaVuSans-66"/>
      <use x="649.019531" xlink:href="#DejaVuSans-20"/>
      <use x="680.806641" xlink:href="#DejaVuSans-74"/>
      <use x="720.015625" xlink:href="#DejaVuSans-72"/>
      <use x="761.128906" xlink:href="#DejaVuSans-69"/>
      <use x="788.912109" xlink:href="#DejaVuSans-61"/>
      <use x="850.191406" xlink:href="#DejaVuSans-6c"/>
      <use x="877.974609" xlink:href="#DejaVuSans-73"/>
     </g>
    </g>
   </g>
   <g id="line2d_17">
    <path clip-path="url(#p3bb80ab6a9)" d="M 34.16 242.938987 
L 53.079324 242.938987 
L 53.079324 242.666443 
L 59.21609 242.666443 
L 59.21609 242.3939 
L 66.53439 242.3939 
L 66.53439 242.121356 
L 70.047982 242.121356 
L 70.047982 241.848813 
L 73.046705 241.848813 
L 73.046705 241.57627 
L 76.184748 241.57627 
L 76.184748 241.303726 
L 77.08407 241.303726 
L 77.08407 241.031183 
L 83.503048 241.031183 
L 83.503048 240.75864 
L 83.809774 240.75864 
L 83.809774 240.486096 
L 84.97817 240.486096 
L 84.97817 240.213553 
L 89.94654 240.213553 
L 90.015363 239.668466 
L 90.932258 239.668466 
L 90.932258 239.395923 
L 92.737101 239.395923 
L 92.737101 239.12338 
L 93.420495 239.12338 
L 93.420495 238.850836 
L 94.052728 238.850836 
L 94.052728 238.578293 
L 95.225339 238.578293 
L 95.225339 238.30575 
L 97.26484 238.30575 
L 97.26484 238.033206 
L 101.946828 238.033206 
L 101.946828 237.760663 
L 103.035413 237.760663 
L 103.035413 237.48812 
L 103.777155 237.48812 
L 103.777155 237.215576 
L 107.81452 237.215576 
L 107.81452 236.943033 
L 109.172178 236.943033 
L 109.172178 236.67049 
L 112.064018 236.67049 
L 112.064018 236.397946 
L 115.598837 236.397946 
L 115.70862 235.852859 
L 116.490478 235.852859 
L 116.490478 235.580316 
L 118.200784 235.580316 
L 118.200784 235.307773 
L 120.092901 235.307773 
L 120.092901 235.035229 
L 120.537644 235.035229 
L 120.537644 234.490143 
L 123.002794 234.490143 
L 123.002794 234.217599 
L 124.217144 234.217599 
L 124.217144 233.945056 
L 125.048892 233.945056 
L 125.048892 233.672513 
L 125.519083 233.672513 
L 125.519083 233.399969 
L 127.040158 233.399969 
L 127.040158 233.127426 
L 127.593517 233.127426 
L 127.593517 232.854883 
L 128.104321 232.854883 
L 128.104321 232.582339 
L 129.231344 232.582339 
L 129.231344 232.309796 
L 129.909164 232.309796 
L 129.909164 232.037253 
L 131.8776 232.037253 
L 131.8776 231.764709 
L 132.031399 231.764709 
L 132.031399 231.492166 
L 134.934259 231.492166 
L 134.934259 231.219623 
L 135.36811 231.219623 
L 135.36811 230.947079 
L 135.619346 230.947079 
L 135.619346 230.674536 
L 136.068764 230.674536 
L 136.068764 230.401993 
L 137.154996 230.401993 
L 137.154996 230.129449 
L 137.68522 230.129449 
L 137.68522 229.856906 
L 141.185802 229.856906 
L 141.185802 229.584363 
L 142.686409 229.584363 
L 142.686409 229.311819 
L 143.590279 229.311819 
L 143.590279 229.039276 
L 143.919071 229.039276 
L 143.962864 228.494189 
L 146.329615 228.494189 
L 146.329615 228.221646 
L 149.198725 228.221646 
L 149.198725 227.949102 
L 153.236089 227.949102 
L 153.236089 227.676559 
L 154.947594 227.676559 
L 154.947594 227.404016 
L 161.13019 227.404016 
L 161.13019 227.131472 
L 163.02564 227.131472 
L 163.02564 226.858929 
L 163.298907 226.858929 
L 163.298907 226.586386 
L 166.01748 226.586386 
L 166.01748 226.313842 
L 166.642272 226.313842 
L 166.642272 226.041299 
L 166.879931 226.041299 
L 166.879931 225.768756 
L 169.236003 225.768756 
L 169.236003 225.496212 
L 171.136336 225.496212 
L 171.136336 225.223669 
L 171.581079 225.223669 
L 171.581079 224.678582 
L 172.082545 224.678582 
L 172.082545 224.406039 
L 174.019568 224.406039 
L 174.019568 224.133496 
L 174.173232 224.133496 
L 174.173232 223.860952 
L 176.092327 223.860952 
L 176.092327 223.588409 
L 178.636952 223.588409 
L 178.636952 223.315866 
L 179.994298 223.315866 
L 179.994298 223.043322 
L 180.255716 223.043322 
L 180.267565 222.498235 
L 182.921035 222.498235 
L 182.921035 222.225692 
L 183.201838 222.225692 
L 183.201838 221.953149 
L 183.848589 221.953149 
L 183.848589 221.680605 
L 184.514661 221.680605 
L 184.514661 221.408062 
L 184.685095 221.408062 
L 184.74978 220.862975 
L 185.194523 220.862975 
L 185.194523 220.317889 
L 186.20466 220.317889 
L 186.20466 220.045345 
L 186.319504 220.045345 
L 186.414454 219.227715 
L 186.489938 219.227715 
L 186.489938 218.955172 
L 186.662781 218.955172 
L 186.712275 218.410085 
L 188.198431 218.410085 
L 188.198431 218.137542 
L 188.359256 218.137542 
L 188.359256 217.864999 
L 188.537134 217.864999 
L 188.537134 217.592455 
L 188.728655 217.592455 
L 188.728655 217.319912 
L 189.051203 217.319912 
L 189.051203 217.047369 
L 189.335067 217.047369 
L 189.335067 216.774825 
L 189.705771 216.774825 
L 189.705771 216.502282 
L 189.878952 216.502282 
L 189.878952 216.229738 
L 191.336446 216.229738 
L 191.336446 215.957195 
L 191.556115 215.957195 
L 191.556115 215.684652 
L 192.225871 215.684652 
L 192.250396 215.139565 
L 193.75609 215.139565 
L 193.75609 214.867022 
L 193.872852 214.867022 
L 193.872852 214.594478 
L 194.029357 214.594478 
L 194.05073 214.049392 
L 194.274151 214.049392 
L 194.274151 213.776848 
L 194.416542 213.776848 
L 194.416542 213.504305 
L 194.633714 213.504305 
L 194.633714 213.231762 
L 194.962506 213.231762 
L 194.962506 212.959218 
L 196.534479 212.959218 
L 196.534479 212.686675 
L 197.069711 212.686675 
L 197.069711 212.414132 
L 197.37305 212.414132 
L 197.37305 212.141588 
L 197.61038 212.141588 
L 197.61038 211.869045 
L 198.912686 211.869045 
L 198.912686 211.596502 
L 199.787747 211.596502 
L 199.787747 211.323958 
L 199.966452 211.323958 
L 199.966452 211.051415 
L 200.276225 211.051415 
L 200.369163 210.506328 
L 200.553308 210.506328 
L 200.553308 210.233785 
L 201.123171 210.233785 
L 201.123171 209.961242 
L 201.811875 209.961242 
L 201.811875 209.688698 
L 202.342098 209.688698 
L 202.342098 209.416155 
L 202.812995 209.416155 
L 202.882051 208.871068 
L 204.023572 208.871068 
L 204.023572 208.598525 
L 204.426281 208.598525 
L 204.426281 208.325981 
L 206.066411 208.325981 
L 206.066411 208.053438 
L 206.303725 208.053438 
L 206.303725 207.780895 
L 206.811428 207.780895 
L 206.84761 207.235808 
L 207.259937 207.235808 
L 207.259937 206.963265 
L 207.871608 206.963265 
L 207.871608 206.690721 
L 208.100391 206.690721 
L 208.100391 206.145635 
L 208.247157 206.145635 
L 208.305104 205.600548 
L 208.57595 205.600548 
L 208.57595 205.328005 
L 208.93958 205.328005 
L 208.93958 205.055461 
L 209.44841 205.055461 
L 209.537168 204.237831 
L 209.616084 204.237831 
L 209.616084 203.965288 
L 210.986493 203.965288 
L 210.986493 203.692745 
L 211.205745 203.692745 
L 211.205745 203.420201 
L 211.347561 203.420201 
L 211.347561 202.875114 
L 212.301702 202.875114 
L 212.345168 201.512398 
L 212.584155 201.512398 
L 212.584155 201.239854 
L 212.945222 201.239854 
L 212.981728 200.422224 
L 213.254995 200.422224 
L 213.254995 200.149681 
L 213.594959 200.149681 
L 213.594959 199.877138 
L 213.948684 199.877138 
L 213.948684 199.604594 
L 214.126561 199.604594 
L 214.126561 199.332051 
L 214.383923 199.332051 
L 214.383923 199.059508 
L 214.578237 199.059508 
L 214.578237 198.786964 
L 215.684558 198.786964 
L 215.775705 198.241878 
L 216.083196 198.241878 
L 216.083196 197.969334 
L 216.836019 197.969334 
L 216.836019 197.696791 
L 217.060915 197.696791 
L 217.145542 196.879161 
L 217.342511 196.879161 
L 217.439287 196.061531 
L 217.522963 196.061531 
L 217.522963 195.516444 
L 217.88403 195.516444 
L 217.91392 193.881184 
L 218.263943 193.881184 
L 218.263943 193.608641 
L 218.421288 193.608641 
L 218.421288 193.336097 
L 219.192091 193.336097 
L 219.192091 193.063554 
L 219.707787 193.063554 
L 219.707787 192.791011 
L 219.863579 192.791011 
L 219.863579 192.518467 
L 220.065517 192.518467 
L 220.065517 192.245924 
L 220.178623 192.245924 
L 220.178623 191.973381 
L 220.609401 191.973381 
L 220.623366 191.155751 
L 221.090552 191.155751 
L 221.090552 190.883207 
L 221.547549 190.883207 
L 221.547549 190.610664 
L 222.010333 190.610664 
L 222.066896 189.52049 
L 222.283601 189.52049 
L 222.283601 189.247947 
L 222.395277 189.247947 
L 222.438208 188.430317 
L 223.279026 188.430317 
L 223.279026 187.340144 
L 224.502113 187.340144 
L 224.587091 186.24997 
L 224.660811 186.24997 
L 224.660811 185.977427 
L 224.876687 185.977427 
L 224.939902 185.159797 
L 225.063003 185.159797 
L 225.134613 184.069624 
L 225.526424 184.069624 
L 225.526424 183.79708 
L 225.661832 183.79708 
L 225.661832 183.524537 
L 225.864624 183.524537 
L 225.916008 182.97945 
L 226.083682 182.97945 
L 226.083682 182.706907 
L 226.315388 182.706907 
L 226.315388 182.434363 
L 226.505453 182.434363 
L 226.505453 182.16182 
L 226.954723 182.16182 
L 226.954723 181.889277 
L 227.176812 181.889277 
L 227.176812 181.616733 
L 227.466675 181.616733 
L 227.573955 181.071647 
L 227.637996 181.071647 
L 227.679238 180.52656 
L 227.752348 180.52656 
L 227.815158 179.981473 
L 228.014661 179.981473 
L 228.048775 179.436387 
L 228.220696 179.436387 
L 228.220696 179.163843 
L 228.497365 179.163843 
L 228.574974 178.618757 
L 228.812766 178.618757 
L 228.862918 177.801127 
L 229.100367 177.801127 
L 229.100367 177.528583 
L 229.223985 177.528583 
L 229.223985 176.983497 
L 229.370752 176.983497 
L 229.421973 176.43841 
L 229.609025 176.43841 
L 229.613 175.893323 
L 229.815495 175.893323 
L 229.845385 175.075693 
L 230.013058 175.075693 
L 230.053768 174.258063 
L 230.345566 174.258063 
L 230.345566 173.98552 
L 230.615933 173.98552 
L 230.723856 172.895346 
L 230.999518 172.895346 
L 231.067239 172.077716 
L 231.173126 172.077716 
L 231.173126 171.805173 
L 231.302021 171.805173 
L 231.302021 171.53263 
L 231.444261 171.53263 
L 231.448788 170.715 
L 231.670876 170.715 
L 231.744535 170.169913 
L 231.893531 170.169913 
L 231.997125 168.534653 
L 232.115619 168.534653 
L 232.115619 167.989566 
L 232.420777 167.989566 
L 232.420777 167.717023 
L 232.54284 167.717023 
L 232.650041 166.899393 
L 232.742143 166.899393 
L 232.742143 166.354306 
L 232.965731 166.354306 
L 233.022018 164.991589 
L 233.266665 164.991589 
L 233.266665 164.719046 
L 233.67839 164.719046 
L 233.774761 163.901416 
L 233.872687 163.901416 
L 233.872687 163.628873 
L 234.140314 163.628873 
L 234.140314 163.356329 
L 234.326742 163.356329 
L 234.381517 162.811242 
L 234.501381 162.811242 
L 234.565016 161.721069 
L 234.670538 161.721069 
L 234.670538 161.448526 
L 234.870295 161.448526 
L 234.913646 160.630896 
L 235.031605 160.630896 
L 235.091523 159.813266 
L 235.210491 159.813266 
L 235.210491 159.540722 
L 235.325371 159.540722 
L 235.325371 159.268179 
L 235.503248 159.268179 
L 235.558739 158.178006 
L 235.705067 158.178006 
L 235.705067 157.905462 
L 235.893273 157.905462 
L 235.955508 157.360376 
L 236.404778 157.360376 
L 236.404778 157.087832 
L 236.626867 157.087832 
L 236.626867 156.815289 
L 236.871367 156.815289 
L 236.871367 156.542745 
L 237.109641 156.542745 
L 237.182117 155.452572 
L 237.240717 155.452572 
L 237.240717 155.180029 
L 237.49883 155.180029 
L 237.565877 154.634942 
L 237.770941 154.634942 
L 237.770941 154.362399 
L 238.042156 154.362399 
L 238.110504 153.817312 
L 238.310894 153.817312 
L 238.310894 152.999682 
L 238.436918 152.999682 
L 238.522229 152.182052 
L 238.676447 152.182052 
L 238.676447 151.909509 
L 238.949403 151.909509 
L 238.949403 151.636965 
L 239.171492 151.636965 
L 239.177659 151.091879 
L 239.291155 151.091879 
L 239.291155 150.819335 
L 239.450926 150.819335 
L 239.450926 150.546792 
L 239.746623 150.546792 
L 239.83504 149.729162 
L 240.043455 149.729162 
L 240.043455 149.456618 
L 240.194253 149.456618 
L 240.194253 149.184075 
L 240.439046 149.184075 
L 240.439046 148.911532 
L 240.575597 148.911532 
L 240.575597 148.638988 
L 240.828541 148.638988 
L 240.936664 146.458642 
L 241.081795 146.458642 
L 241.15545 145.368468 
L 241.240266 145.368468 
L 241.292534 144.278295 
L 241.393724 144.278295 
L 241.393724 143.733208 
L 242.189685 143.733208 
L 242.189685 143.460665 
L 242.405589 143.460665 
L 242.405589 143.188121 
L 242.695713 143.188121 
L 242.784216 142.370491 
L 242.877038 142.370491 
L 242.930983 141.007775 
L 243.03195 141.007775 
L 243.104591 140.462688 
L 243.233486 140.462688 
L 243.314933 139.645058 
L 243.375726 139.645058 
L 243.455575 138.827428 
L 243.676 138.827428 
L 243.676 137.464711 
L 243.994528 137.464711 
L 244.004792 136.919624 
L 244.327538 136.919624 
L 244.327538 136.647081 
L 244.554472 136.647081 
L 244.640893 135.829451 
L 244.688317 135.829451 
L 244.688317 135.556908 
L 244.897197 135.556908 
L 244.897197 135.284364 
L 245.133061 135.284364 
L 245.13547 134.466734 
L 245.388022 134.466734 
L 245.467075 133.921648 
L 245.638501 133.921648 
L 245.638501 133.376561 
L 245.804152 133.376561 
L 245.8788 132.558931 
L 246.415336 132.558931 
L 246.525962 130.651127 
L 246.67112 130.651127 
L 246.776403 129.833497 
L 246.96307 129.833497 
L 246.975232 129.288411 
L 247.197321 129.288411 
L 247.201344 128.743324 
L 247.478264 128.743324 
L 247.478264 128.198237 
L 247.605377 128.198237 
L 247.605377 127.925694 
L 247.769619 127.925694 
L 247.769619 127.653151 
L 247.886973 127.653151 
L 247.886973 127.380607 
L 248.061612 127.380607 
L 248.069285 126.835521 
L 248.234564 126.835521 
L 248.319761 126.290434 
L 248.510882 126.290434 
L 248.591836 125.472804 
L 248.732971 125.472804 
L 248.732971 125.200261 
L 248.863645 125.200261 
L 248.863645 124.927717 
L 249.041106 124.927717 
L 249.117638 124.382631 
L 249.259892 124.382631 
L 249.263195 123.837544 
L 249.389354 123.837544 
L 249.389354 123.565 
L 249.604935 123.565 
L 249.644308 123.019914 
L 250.073725 123.019914 
L 250.135158 122.474827 
L 250.32114 122.474827 
L 250.431598 121.92974 
L 250.577962 121.92974 
L 250.607912 121.384654 
L 250.767022 121.384654 
L 250.767022 121.11211 
L 250.989687 121.11211 
L 251.016788 120.567024 
L 251.207253 120.567024 
L 251.207253 120.29448 
L 251.642741 120.29448 
L 251.698995 119.749394 
L 252.014396 119.749394 
L 252.031503 118.931764 
L 252.188933 118.931764 
L 252.188933 118.65922 
L 252.431429 118.65922 
L 252.507062 118.114134 
L 252.868129 118.114134 
L 252.947768 117.569047 
L 253.047015 117.569047 
L 253.106403 116.751417 
L 253.196922 116.751417 
L 253.196922 116.478873 
L 253.379523 116.478873 
L 253.435195 115.661243 
L 253.50467 115.661243 
L 253.577239 114.843613 
L 254.337054 114.843613 
L 254.337054 114.57107 
L 254.496895 114.57107 
L 254.496895 114.298527 
L 254.715681 114.298527 
L 254.825687 113.480897 
L 254.919667 113.480897 
L 254.946165 112.390723 
L 255.168254 112.390723 
L 255.278673 111.573093 
L 255.460699 111.573093 
L 255.497046 111.028007 
L 255.607465 111.028007 
L 255.631552 110.48292 
L 255.845739 110.48292 
L 255.943773 109.66529 
L 256.040217 109.66529 
L 256.040217 109.392746 
L 256.276281 109.392746 
L 256.36901 108.575116 
L 256.473016 108.575116 
L 256.572359 107.484943 
L 256.743724 107.484943 
L 256.808718 106.667313 
L 257.236231 106.667313 
L 257.338942 105.849683 
L 257.436395 105.849683 
L 257.506615 105.304596 
L 257.583147 105.304596 
L 257.685501 104.75951 
L 257.90759 104.75951 
L 257.962851 104.214423 
L 258.412121 104.214423 
L 258.457428 103.396793 
L 258.707868 103.396793 
L 258.779553 102.034076 
L 259.073421 102.034076 
L 259.073421 101.761533 
L 259.536842 101.761533 
L 259.634767 101.216446 
L 259.705476 101.216446 
L 259.705476 100.671359 
L 259.993078 100.671359 
L 259.993078 100.398816 
L 260.214762 100.398816 
L 260.311271 99.853729 
L 260.523301 99.853729 
L 260.523301 99.036099 
L 260.83602 99.036099 
L 260.83602 98.763556 
L 261.268318 98.763556 
L 261.320819 97.945926 
L 261.512524 97.945926 
L 261.512524 97.400839 
L 261.750412 97.400839 
L 261.845032 96.855752 
L 262.280636 96.855752 
L 262.280636 96.583209 
L 262.698487 96.583209 
L 262.771544 96.038122 
L 262.948253 96.038122 
L 263.002798 95.220492 
L 263.244001 95.220492 
L 263.244001 94.947949 
L 263.363865 94.947949 
L 263.396471 93.857776 
L 264.072974 93.857776 
L 264.072974 93.312689 
L 264.438527 93.312689 
L 264.438527 92.767602 
L 265.274227 92.767602 
L 265.274227 92.495059 
L 265.487087 92.495059 
L 265.554362 91.949972 
L 266.030971 91.949972 
L 266.103201 91.404886 
L 266.42836 91.404886 
L 266.42836 90.859799 
L 266.757153 90.859799 
L 266.757153 90.587255 
L 266.87763 90.587255 
L 266.87763 90.042169 
L 267.173377 90.042169 
L 267.210138 89.224539 
L 267.488466 89.224539 
L 267.570506 88.679452 
L 268.185695 88.679452 
L 268.185695 88.134365 
L 268.514487 88.134365 
L 268.514487 87.861822 
L 269.167696 87.861822 
L 269.167696 87.589279 
L 269.30153 87.589279 
L 269.37535 87.044192 
L 269.96664 87.044192 
L 269.978033 86.499105 
L 270.402974 86.499105 
L 270.402974 86.226562 
L 270.639333 86.226562 
L 270.639333 85.681475 
L 270.925031 85.681475 
L 271.004886 85.136389 
L 271.365953 85.136389 
L 271.365953 84.591302 
L 271.604227 84.591302 
L 271.604227 84.318758 
L 271.759662 84.318758 
L 271.771483 83.773672 
L 272.242736 83.773672 
L 272.260991 83.228585 
L 273.107681 83.228585 
L 273.107681 82.956042 
L 273.443989 82.956042 
L 273.443989 82.683498 
L 274.105289 82.683498 
L 274.164677 81.865868 
L 274.322461 81.865868 
L 274.322461 81.593325 
L 275.006832 81.593325 
L 275.006832 81.320782 
L 275.175466 81.320782 
L 275.175466 81.048238 
L 275.29533 81.048238 
L 275.29533 80.775695 
L 275.533604 80.775695 
L 275.533604 80.503152 
L 276.004439 80.503152 
L 276.004439 79.412978 
L 276.778869 79.412978 
L 276.778869 79.140435 
L 276.924096 79.140435 
L 276.924096 78.867892 
L 277.373366 78.867892 
L 277.373366 78.595348 
L 277.595455 78.595348 
L 277.595455 78.322805 
L 277.980122 78.322805 
L 277.980122 78.050262 
L 278.269142 78.050262 
L 278.359825 77.505175 
L 278.467418 77.505175 
L 278.467418 77.232631 
L 279.104843 77.232631 
L 279.104843 76.960088 
L 279.470395 76.960088 
L 279.470395 76.687545 
L 280.069736 76.687545 
L 280.069736 76.415001 
L 280.540572 76.415001 
L 280.540572 75.869915 
L 280.708245 75.869915 
L 280.708245 75.597371 
L 281.040753 75.597371 
L 281.040753 75.324828 
L 281.232995 75.324828 
L 281.232995 75.052285 
L 281.573191 75.052285 
L 281.64076 74.507198 
L 281.909498 74.507198 
L 281.909498 73.689568 
L 282.030845 73.689568 
L 282.030845 73.144481 
L 282.242006 73.144481 
L 282.343565 72.599395 
L 283.297418 72.599395 
L 283.297418 72.326851 
L 283.535692 72.326851 
L 283.535692 72.054308 
L 283.736506 72.054308 
L 283.736506 71.781765 
L 284.148231 71.781765 
L 284.148231 71.509221 
L 284.469949 71.509221 
L 284.469949 70.691591 
L 284.802456 70.691591 
L 284.802456 70.146504 
L 284.926184 70.146504 
L 284.926184 69.873961 
L 285.375454 69.873961 
L 285.375454 69.601418 
L 285.597543 69.601418 
L 285.671202 69.056331 
L 286.445631 69.056331 
L 286.469506 68.511244 
L 286.938297 68.511244 
L 286.938297 67.966158 
L 287.935904 67.966158 
L 287.935904 67.693614 
L 288.153076 67.693614 
L 288.231652 66.875984 
L 288.855561 66.875984 
L 288.855561 66.603441 
L 289.603492 66.603441 
L 289.603492 66.330898 
L 290.375008 66.330898 
L 290.375008 66.058354 
L 290.612896 66.058354 
L 290.707515 65.513268 
L 292.001201 65.513268 
L 292.001201 65.240724 
L 292.19044 65.240724 
L 292.19044 64.968181 
L 293.576028 64.968181 
L 293.576028 64.695637 
L 293.840964 64.695637 
L 293.840964 64.423094 
L 294.136711 64.423094 
L 294.136711 64.150551 
L 295.72491 64.150551 
L 295.72491 63.878007 
L 296.857649 63.878007 
L 296.857649 63.605464 
L 298.377096 63.605464 
L 298.377096 63.332921 
L 298.614984 63.332921 
L 298.614984 63.060377 
L 298.775815 63.060377 
L 298.775815 62.787834 
L 299.86737 62.787834 
L 299.86737 62.515291 
L 300.084541 62.515291 
L 300.084541 62.242747 
L 300.559792 62.242747 
L 300.559792 61.970204 
L 300.768912 61.970204 
L 300.768912 61.697661 
L 301.970165 61.697661 
L 301.970165 61.425117 
L 302.306473 61.425117 
L 302.306473 61.152574 
L 302.63898 61.152574 
L 302.63898 60.880031 
L 304.362858 60.880031 
L 304.362858 60.607487 
L 304.530615 60.607487 
L 304.636125 59.789857 
L 306.068176 59.789857 
L 306.068176 59.517314 
L 307.177362 59.517314 
L 307.177362 59.244771 
L 307.347796 59.244771 
L 307.347796 58.972227 
L 308.217148 58.972227 
L 308.217148 58.699684 
L 309.358109 58.699684 
L 309.358109 58.427141 
L 309.528542 58.427141 
L 309.528542 58.154597 
L 310.435674 58.154597 
L 310.435674 57.882054 
L 310.57322 57.882054 
L 310.57322 57.60951 
L 311.069487 57.60951 
L 311.069487 57.336967 
L 311.342754 57.336967 
L 311.342754 57.064424 
L 313.419763 57.064424 
L 313.419763 56.79188 
L 314.923778 56.79188 
L 314.923778 56.519337 
L 317.27985 56.519337 
L 317.27985 56.246794 
L 319.108827 56.246794 
L 319.108827 55.97425 
L 319.279261 55.97425 
L 319.279261 55.701707 
L 320.126392 55.701707 
L 320.126392 55.429164 
L 321.152061 55.429164 
L 321.152061 55.15662 
L 321.425328 55.15662 
L 321.425328 54.884077 
L 322.367139 54.884077 
L 322.367139 54.611534 
L 325.006352 54.611534 
L 325.006352 54.33899 
L 327.362424 54.33899 
L 327.362424 54.066447 
L 330.208966 54.066447 
L 330.208966 53.793904 
L 330.672285 53.793904 
L 330.672285 53.52136 
L 331.21617 53.52136 
L 331.21617 53.248817 
L 332.384523 53.248817 
L 332.384523 52.976274 
L 332.657791 52.976274 
L 332.673664 52.431187 
L 334.533406 52.431187 
L 334.533406 52.158644 
L 334.806673 52.158644 
L 334.806673 51.8861 
L 336.238814 51.8861 
L 336.238814 51.613557 
L 337.378914 51.613557 
L 337.378914 51.341013 
L 337.584311 51.341013 
L 337.584311 51.06847 
L 337.857578 51.06847 
L 337.922799 50.523383 
L 338.387697 50.523383 
L 338.387697 50.25084 
L 338.594886 50.25084 
L 338.594886 49.978297 
L 339.323514 49.978297 
L 339.380293 49.160667 
L 339.641556 49.160667 
L 339.641556 48.888123 
L 340.743769 48.888123 
L 340.743769 48.61558 
L 341.438602 48.61558 
L 341.441429 48.070493 
L 343.222579 48.070493 
L 343.222579 47.79795 
L 343.590311 47.79795 
L 343.590311 47.525407 
L 343.794674 47.525407 
L 343.794674 47.252863 
L 345.578651 47.252863 
L 345.578651 46.98032 
L 346.013832 46.98032 
L 346.013832 46.707777 
L 346.184266 46.707777 
L 346.184266 46.435233 
L 346.641216 46.435233 
L 346.641216 46.16269 
L 347.461488 46.16269 
L 347.461488 45.890147 
L 348.005373 45.890147 
L 348.005373 45.617603 
L 348.324533 45.617603 
L 348.425193 45.072516 
L 349.462867 45.072516 
L 349.462867 44.799973 
L 350.505279 44.799973 
L 350.505279 44.52743 
L 353.278634 44.52743 
L 353.278634 44.254886 
L 355.459381 44.254886 
L 355.459381 43.982343 
L 358.693951 43.982343 
L 358.693951 43.7098 
L 359.237835 43.7098 
L 359.237835 43.437256 
L 360.255998 43.437256 
L 360.255998 43.164713 
L 360.69533 43.164713 
L 360.69533 42.89217 
L 360.842833 42.89217 
L 360.842833 42.619626 
L 361.386718 42.619626 
L 361.386718 42.347083 
L 362.844212 42.347083 
L 362.844212 42.07454 
L 363.744496 42.07454 
L 363.744496 41.801996 
L 363.893738 41.801996 
L 363.893738 41.529453 
L 364.437623 41.529453 
L 364.437623 41.25691 
L 364.852386 41.25691 
L 364.852386 40.984366 
L 365.210099 40.984366 
L 365.210099 40.711823 
L 365.677716 40.711823 
L 365.677716 40.43928 
L 365.895118 40.43928 
L 365.925243 39.894193 
L 366.2216 39.894193 
L 366.2216 39.62165 
L 367.033132 39.62165 
L 367.033132 39.349106 
L 367.679095 39.349106 
L 367.679095 39.076563 
L 375.675961 39.076563 
L 375.675961 38.80402 
L 376.783851 38.80402 
L 376.783851 38.531476 
L 377.601581 38.531476 
L 377.601581 38.258933 
L 378.13201 38.258933 
L 378.13201 37.986389 
L 378.294253 37.986389 
L 378.405278 37.441303 
L 379.782328 37.441303 
L 379.782328 37.168759 
L 380.474999 37.168759 
L 380.474999 36.896216 
L 381.986301 36.896216 
L 381.986301 36.623673 
L 384.342373 36.623673 
L 384.342373 36.351129 
L 387.161003 36.351129 
L 387.188915 35.806043 
L 389.533046 35.806043 
L 389.533046 35.533499 
L 390.225718 35.533499 
L 390.233207 34.988413 
L 392.115104 34.988413 
L 392.115104 34.715869 
L 392.413954 34.715869 
L 392.413954 34.443326 
L 392.629341 34.443326 
L 392.629341 34.170783 
L 394.810088 34.170783 
L 394.810088 33.898239 
L 402.164672 33.898239 
L 402.164672 33.625696 
L 402.580966 33.625696 
L 402.580966 33.353153 
L 403.688856 33.353153 
L 403.688856 33.080609 
L 404.441438 33.080609 
L 404.441438 32.808066 
L 404.560806 32.808066 
L 404.560806 32.535523 
L 404.985322 32.535523 
L 404.985322 32.262979 
L 406.442817 32.262979 
L 406.442817 31.990436 
L 416.438052 31.990436 
L 416.438052 31.717892 
L 417.130723 31.717892 
L 417.130723 31.445349 
L 429.069677 31.445349 
L 429.069677 31.172806 
L 431.465811 31.172806 
L 431.465811 30.900262 
L 453.192 30.900262 
L 453.192 30.900262 
" style="fill:none;stroke:#000000;stroke-linecap:square;stroke-width:3;"/>
   </g>
   <g id="line2d_18">
    <path clip-path="url(#p3bb80ab6a9)" style="fill:none;stroke:#000000;stroke-linecap:square;stroke-width:3;"/>
   </g>
   <g id="line2d_19">
    <path clip-path="url(#p3bb80ab6a9)" d="M 34.16 206.640516 
L 105.91446 206.640516 
L 105.91446 206.268638 
L 118.398925 206.268638 
L 118.398925 205.89676 
L 123.48883 205.89676 
L 123.48883 205.524881 
L 124.581224 205.524881 
L 124.581224 205.153003 
L 125.950367 205.153003 
L 125.950367 204.781125 
L 137.065689 204.781125 
L 137.065689 204.409247 
L 141.411796 204.409247 
L 141.411796 204.037368 
L 142.155594 204.037368 
L 142.155594 203.66549 
L 144.617131 203.66549 
L 144.617131 203.293612 
L 145.889659 203.293612 
L 145.889659 202.921734 
L 147.654394 202.921734 
L 147.654394 202.549856 
L 148.136222 202.549856 
L 148.136222 202.177977 
L 149.531887 202.177977 
L 149.531887 201.806099 
L 152.614084 201.806099 
L 152.614084 201.434221 
L 154.00975 201.434221 
L 154.00975 201.062343 
L 154.308237 201.062343 
L 154.308237 200.690464 
L 155.5958 200.690464 
L 155.5958 200.318586 
L 157.897388 200.318586 
L 157.897388 199.946708 
L 158.206426 199.946708 
L 158.206426 199.57483 
L 160.138859 199.57483 
L 160.138859 199.202951 
L 161.032662 199.202951 
L 161.032662 198.831073 
L 161.897213 198.831073 
L 161.897213 198.459195 
L 162.320225 198.459195 
L 162.428328 197.715439 
L 163.715891 197.715439 
L 163.715891 197.34356 
L 164.621814 197.34356 
L 164.621814 196.971682 
L 165.228764 196.971682 
L 165.228764 196.599804 
L 165.827164 196.599804 
L 165.827164 196.227926 
L 166.01748 196.227926 
L 166.07204 195.484169 
L 167.690301 195.484169 
L 167.690301 195.112291 
L 168.621638 195.112291 
L 168.621638 194.740413 
L 170.017304 194.740413 
L 170.050771 193.996656 
L 170.305026 193.996656 
L 170.305026 193.624778 
L 170.690891 193.624778 
L 170.690891 193.2529 
L 171.017211 193.2529 
L 171.017211 192.881022 
L 175.780796 192.881022 
L 175.780796 192.509143 
L 178.242333 192.509143 
L 178.242333 192.137265 
L 178.723604 192.137265 
L 178.723604 191.765387 
L 179.864692 191.765387 
L 179.864692 191.393509 
L 180.011167 191.393509 
L 180.011167 191.021631 
L 181.921143 191.021631 
L 181.921143 190.649752 
L 182.312756 190.649752 
L 182.312756 190.277874 
L 182.626589 190.277874 
L 182.626589 189.905996 
L 183.116611 189.905996 
L 183.116611 189.534118 
L 183.542369 189.534118 
L 183.542369 189.162239 
L 184.342122 189.162239 
L 184.342122 188.790361 
L 186.31258 188.790361 
L 186.31258 188.418483 
L 186.605319 188.418483 
L 186.605319 188.046605 
L 186.807901 188.046605 
L 186.807901 187.674727 
L 187.571759 187.674727 
L 187.640944 186.93097 
L 188.0277 186.93097 
L 188.0277 186.559092 
L 188.320853 186.559092 
L 188.320853 186.187214 
L 189.161757 186.187214 
L 189.161757 185.815335 
L 189.287293 185.815335 
L 189.287293 185.443457 
L 189.646417 185.443457 
L 189.646417 185.071579 
L 193.140487 185.071579 
L 193.140487 184.699701 
L 193.513253 184.699701 
L 193.513253 184.327822 
L 194.106927 184.327822 
L 194.106927 183.955944 
L 194.752125 183.955944 
L 194.824718 182.84031 
L 196.147791 182.84031 
L 196.147791 182.468431 
L 196.419241 182.468431 
L 196.419241 182.096553 
L 197.400934 182.096553 
L 197.400934 181.724675 
L 198.134774 181.724675 
L 198.134774 181.352797 
L 198.620464 181.352797 
L 198.620464 180.980918 
L 199.233686 180.980918 
L 199.30258 180.237162 
L 199.398491 180.237162 
L 199.398491 179.865284 
L 200.04467 179.865284 
L 200.096917 179.121527 
L 200.388426 179.121527 
L 200.388426 178.749649 
L 200.55173 178.749649 
L 200.587907 178.005893 
L 201.196032 178.005893 
L 201.200807 177.262136 
L 201.783376 177.262136 
L 201.878796 176.146502 
L 202.954409 176.146502 
L 202.954409 175.774623 
L 203.098327 175.774623 
L 203.098327 175.402745 
L 203.362449 175.402745 
L 203.362449 175.030867 
L 204.195493 175.030867 
L 204.195493 174.658989 
L 204.522533 174.658989 
L 204.522533 174.28711 
L 204.866289 174.28711 
L 204.866289 173.915232 
L 205.029593 173.915232 
L 205.077983 173.171476 
L 205.387776 173.171476 
L 205.461719 172.427719 
L 205.673895 172.427719 
L 205.673895 172.055841 
L 205.826348 172.055841 
L 205.911026 171.312085 
L 206.122916 171.312085 
L 206.200965 170.568328 
L 206.395576 170.568328 
L 206.395576 170.19645 
L 206.632085 170.19645 
L 206.632085 169.824572 
L 206.781959 169.824572 
L 206.781959 169.452693 
L 206.914869 169.452693 
L 206.914869 169.080815 
L 207.319756 169.080815 
L 207.319756 168.708937 
L 207.518582 168.708937 
L 207.518582 168.337059 
L 207.652264 168.337059 
L 207.762912 167.221424 
L 207.916499 167.221424 
L 207.925232 166.477668 
L 208.502425 166.477668 
L 208.502425 166.105789 
L 208.916994 166.105789 
L 209.008721 164.990155 
L 209.143617 164.990155 
L 209.143617 164.618277 
L 209.320898 164.618277 
L 209.320898 164.246398 
L 209.897617 164.246398 
L 209.897617 163.87452 
L 210.297374 163.87452 
L 210.297374 163.502642 
L 210.730661 163.502642 
L 210.730661 163.130764 
L 210.873438 163.130764 
L 210.873438 162.758885 
L 211.241415 162.758885 
L 211.31031 162.015129 
L 211.516905 162.015129 
L 211.584937 161.271373 
L 211.741642 161.271373 
L 211.741642 160.899494 
L 212.180017 160.899494 
L 212.186144 160.155738 
L 212.443068 160.155738 
L 212.443068 159.78386 
L 212.708082 159.78386 
L 212.804468 158.668225 
L 212.941111 158.668225 
L 212.941111 158.296347 
L 213.242632 158.296347 
L 213.284867 157.55259 
L 213.432366 157.55259 
L 213.448171 156.808834 
L 213.58181 156.808834 
L 213.58181 156.436956 
L 213.711753 156.436956 
L 213.711753 156.065077 
L 213.886526 156.065077 
L 213.886526 155.693199 
L 214.092473 155.693199 
L 214.092473 155.321321 
L 214.228674 155.321321 
L 214.303795 154.577564 
L 214.57243 154.577564 
L 214.601424 153.833808 
L 214.701465 153.833808 
L 214.735734 153.090052 
L 215.106056 153.090052 
L 215.106056 152.718173 
L 215.24124 152.718173 
L 215.310134 151.974417 
L 215.380036 151.974417 
L 215.380036 151.602539 
L 216.530262 151.602539 
L 216.530262 151.23066 
L 216.874018 151.23066 
L 216.874018 150.858782 
L 217.037322 150.858782 
L 217.037322 150.486904 
L 217.221362 150.486904 
L 217.221362 150.115026 
L 217.681624 150.115026 
L 217.681624 149.743148 
L 217.834281 149.743148 
L 217.88635 148.999391 
L 218.187802 148.999391 
L 218.187802 148.627513 
L 219.008239 148.627513 
L 219.105881 147.883756 
L 219.292016 147.883756 
L 219.292016 147.511878 
L 220.436178 147.511878 
L 220.530087 146.768122 
L 220.579579 146.768122 
L 220.579579 146.396244 
L 220.873843 146.396244 
L 220.873843 146.024365 
L 221.037147 146.024365 
L 221.037147 145.652487 
L 221.38648 145.652487 
L 221.425891 144.908731 
L 221.555564 144.908731 
L 221.555564 144.536852 
L 221.681449 144.536852 
L 221.681449 144.164974 
L 221.831844 144.164974 
L 221.831844 143.793096 
L 222.297992 143.793096 
L 222.380896 143.04934 
L 222.821556 143.04934 
L 222.881168 142.305583 
L 223.336508 142.305583 
L 223.336508 141.933705 
L 223.661077 141.933705 
L 223.661077 141.561827 
L 223.813858 141.561827 
L 223.880172 140.446192 
L 224.054541 140.446192 
L 224.09643 139.702436 
L 224.796757 139.702436 
L 224.885669 138.586801 
L 225.052041 138.586801 
L 225.052041 138.214923 
L 225.23324 138.214923 
L 225.343007 137.471166 
L 225.515034 137.471166 
L 225.616174 135.983653 
L 225.732664 135.983653 
L 225.732664 135.611775 
L 226.775855 135.611775 
L 226.880992 134.868019 
L 227.035284 134.868019 
L 227.12833 134.124262 
L 227.16919 134.124262 
L 227.16919 133.752384 
L 227.514464 133.752384 
L 227.583758 133.008627 
L 227.810381 133.008627 
L 227.810381 132.636749 
L 227.967552 132.636749 
L 227.967552 132.264871 
L 228.110906 132.264871 
L 228.110906 131.892993 
L 228.498772 131.892993 
L 228.498772 131.521115 
L 228.916064 131.521115 
L 228.916064 131.149236 
L 229.321738 131.149236 
L 229.331816 130.40548 
L 229.506571 130.40548 
L 229.506571 130.033602 
L 229.871676 130.033602 
L 229.877087 129.289845 
L 230.288178 129.289845 
L 230.318745 128.546089 
L 230.409473 128.546089 
L 230.409473 128.174211 
L 230.71296 128.174211 
L 230.71296 127.802332 
L 230.858343 127.802332 
L 230.858343 127.430454 
L 231.337289 127.430454 
L 231.337289 127.058576 
L 231.521182 127.058576 
L 231.521182 126.686698 
L 232.445414 126.686698 
L 232.4784 125.942941 
L 232.573877 125.942941 
L 232.573877 125.571063 
L 232.916848 125.571063 
L 232.916848 125.199185 
L 233.141722 125.199185 
L 233.141722 124.827307 
L 233.978492 124.827307 
L 233.978492 124.455428 
L 234.213109 124.455428 
L 234.213109 124.08355 
L 234.811536 124.08355 
L 234.811536 123.711672 
L 235.194433 123.711672 
L 235.253187 122.967915 
L 235.408577 122.967915 
L 235.408651 122.224159 
L 236.457131 122.224159 
L 236.481996 121.480402 
L 236.817009 121.480402 
L 236.817009 121.108524 
L 237.120452 121.108524 
L 237.120452 120.736646 
L 237.393512 120.736646 
L 237.423571 119.99289 
L 237.870188 119.99289 
L 237.870188 119.621011 
L 237.999498 119.621011 
L 238.086892 118.877255 
L 238.127121 118.877255 
L 238.127121 118.505377 
L 238.783584 118.505377 
L 238.783584 118.133498 
L 239.116833 118.133498 
L 239.135659 117.389742 
L 239.449082 117.389742 
L 239.53276 116.645986 
L 240.863992 116.645986 
L 240.863992 116.274107 
L 241.371727 116.274107 
L 241.440621 115.530351 
L 241.832434 115.530351 
L 241.832434 115.158473 
L 242.151555 115.158473 
L 242.151555 114.786594 
L 242.546936 114.786594 
L 242.577853 114.042838 
L 242.783409 114.042838 
L 242.813336 113.299082 
L 243.089404 113.299082 
L 243.089404 112.927203 
L 243.423606 112.927203 
L 243.423606 112.555325 
L 243.552433 112.555325 
L 243.552433 112.183447 
L 244.016837 112.183447 
L 244.016837 111.811569 
L 244.453144 111.811569 
L 244.453144 111.43969 
L 245.068601 111.43969 
L 245.068601 111.067812 
L 245.236368 111.067812 
L 245.236368 110.695934 
L 245.550941 110.695934 
L 245.550941 110.324056 
L 245.801848 110.324056 
L 245.805219 109.580299 
L 246.078867 109.580299 
L 246.078867 109.208421 
L 246.271052 109.208421 
L 246.271052 108.836543 
L 246.660574 108.836543 
L 246.660574 108.464665 
L 246.911911 108.464665 
L 247.00433 107.34903 
L 247.12771 107.34903 
L 247.167634 106.605273 
L 247.51722 106.605273 
L 247.51722 106.233395 
L 247.811936 106.233395 
L 247.811936 105.861517 
L 248.346709 105.861517 
L 248.452968 105.117761 
L 248.472831 105.117761 
L 248.472831 104.745882 
L 248.654802 104.745882 
L 248.654802 104.374004 
L 248.917384 104.374004 
L 249.010628 103.630248 
L 249.047331 103.630248 
L 249.047331 103.258369 
L 249.212124 103.258369 
L 249.212124 102.886491 
L 249.515767 102.886491 
L 249.515767 102.514613 
L 249.948729 102.514613 
L 250.013771 101.770857 
L 250.242359 101.770857 
L 250.242359 101.398978 
L 250.61205 101.398978 
L 250.656928 100.655222 
L 250.88355 100.655222 
L 250.88355 100.283344 
L 251.933546 100.283344 
L 251.933546 99.911465 
L 252.742518 99.911465 
L 252.811412 99.167709 
L 252.996939 99.167709 
L 253.011479 98.423953 
L 253.214261 98.423953 
L 253.214261 98.052074 
L 253.877582 98.052074 
L 253.952551 97.308318 
L 254.047304 97.308318 
L 254.047304 96.93644 
L 254.490348 96.93644 
L 254.544834 96.192683 
L 254.613728 96.192683 
L 254.710626 95.448927 
L 255.387628 95.448927 
L 255.387628 95.077049 
L 255.994667 95.077049 
L 256.052777 94.333292 
L 256.607159 94.333292 
L 256.716098 93.589536 
L 257.023452 93.589536 
L 257.023452 93.217657 
L 257.189944 93.217657 
L 257.189944 92.845779 
L 257.679742 92.845779 
L 257.679742 92.473901 
L 258.031365 92.473901 
L 258.031365 92.102023 
L 258.375121 92.102023 
L 258.409475 91.358266 
L 258.538425 91.358266 
L 258.538425 90.986388 
L 258.805746 90.986388 
L 258.874641 89.870753 
L 259.182727 89.870753 
L 259.206835 89.126997 
L 259.484989 89.126997 
L 259.484989 88.755119 
L 259.833681 88.755119 
L 259.833681 88.38324 
L 260.177437 88.38324 
L 260.177437 88.011362 
L 260.340741 88.011362 
L 260.340741 87.639484 
L 260.794391 87.639484 
L 260.794391 87.267606 
L 260.985043 87.267606 
L 260.985043 86.895728 
L 261.20896 86.895728 
L 261.20896 86.523849 
L 261.435582 86.523849 
L 261.474386 85.408215 
L 262.428807 85.408215 
L 262.538929 84.664458 
L 262.670387 84.664458 
L 262.670387 84.29258 
L 264.094593 84.29258 
L 264.094593 83.920702 
L 264.38227 83.920702 
L 264.438349 83.176945 
L 264.601653 83.176945 
L 264.601653 82.805067 
L 265.097315 82.805067 
L 265.097315 82.433189 
L 265.245955 82.433189 
L 265.245955 82.061311 
L 265.620106 82.061311 
L 265.620106 81.689432 
L 265.804461 81.689432 
L 265.804461 81.317554 
L 266.052926 81.317554 
L 266.052926 80.945676 
L 266.184586 80.945676 
L 266.184586 80.573798 
L 266.590723 80.573798 
L 266.637505 79.458163 
L 267.05578 79.458163 
L 267.124675 78.714407 
L 268.045492 78.714407 
L 268.114387 77.97065 
L 268.642977 77.97065 
L 268.642977 77.598772 
L 268.913896 77.598772 
L 268.913896 77.226894 
L 269.70089 77.226894 
L 269.70089 76.855015 
L 270.445499 76.855015 
L 270.445499 76.483137 
L 270.690603 76.483137 
L 270.690603 76.111259 
L 270.920421 76.111259 
L 270.920421 75.739381 
L 271.910133 75.739381 
L 271.910133 75.367503 
L 272.232708 75.367503 
L 272.232708 74.995624 
L 272.344627 74.995624 
L 272.42116 73.87999 
L 272.688383 73.87999 
L 272.688383 73.508111 
L 272.851687 73.508111 
L 272.896029 72.764355 
L 273.188319 72.764355 
L 273.188319 72.392477 
L 273.334339 72.392477 
L 273.334339 72.020599 
L 273.495989 72.020599 
L 273.574762 71.276842 
L 273.678095 71.276842 
L 273.726116 70.533086 
L 273.841399 70.533086 
L 273.851641 69.789329 
L 274.389437 69.789329 
L 274.485701 68.673695 
L 274.583456 68.673695 
L 274.583456 68.301816 
L 274.730507 68.301816 
L 274.799402 67.55806 
L 274.997376 67.55806 
L 274.997376 67.186182 
L 276.172138 67.186182 
L 276.216907 66.442425 
L 276.746777 66.442425 
L 276.746777 66.070547 
L 277.177635 66.070547 
L 277.177635 65.698669 
L 277.375618 65.698669 
L 277.375618 65.326791 
L 277.492196 65.326791 
L 277.492196 64.954912 
L 277.641113 64.954912 
L 277.641113 64.583034 
L 277.984869 64.583034 
L 277.984869 64.211156 
L 278.140784 64.211156 
L 278.209678 63.095521 
L 278.595148 63.095521 
L 278.695533 62.351765 
L 278.792475 62.351765 
L 278.792475 61.979886 
L 279.685245 61.979886 
L 279.685245 61.608008 
L 280.019354 61.608008 
L 280.019354 61.23613 
L 280.284687 61.23613 
L 280.36311 60.492374 
L 280.526414 60.492374 
L 280.526414 60.120495 
L 280.710155 60.120495 
L 280.785894 59.376739 
L 281.170716 59.376739 
L 281.170716 59.004861 
L 281.373476 59.004861 
L 281.373476 58.632982 
L 282.005425 58.632982 
L 282.087003 57.889226 
L 283.429631 57.889226 
L 283.429631 57.517348 
L 283.773387 57.517348 
L 283.773387 57.14547 
L 283.936691 57.14547 
L 283.992018 56.401713 
L 284.580993 56.401713 
L 284.580993 56.029835 
L 284.822908 56.029835 
L 284.822908 55.657957 
L 285.77852 55.657957 
L 285.77852 55.286078 
L 285.954246 55.286078 
L 285.954246 54.9142 
L 286.316316 54.9142 
L 286.37026 53.798566 
L 287.756562 53.798566 
L 287.756562 53.426687 
L 289.780536 53.426687 
L 289.780536 53.054809 
L 292.017475 53.054809 
L 292.017475 52.682931 
L 293.300355 52.682931 
L 293.300355 52.311053 
L 293.840964 52.311053 
L 293.840964 51.939174 
L 294.597949 51.939174 
L 294.597949 51.567296 
L 295.036432 51.567296 
L 295.036432 51.195418 
L 295.587661 51.195418 
L 295.587661 50.82354 
L 299.894435 50.82354 
L 299.894435 50.451662 
L 300.267509 50.451662 
L 300.267509 50.079783 
L 301.257221 50.079783 
L 301.257221 49.707905 
L 301.521717 49.707905 
L 301.521717 49.336027 
L 302.272676 49.336027 
L 302.272676 48.964149 
L 302.717185 48.964149 
L 302.717185 48.59227 
L 305.433073 48.59227 
L 305.433073 48.220392 
L 305.563994 48.220392 
L 305.563994 47.848514 
L 305.682953 47.848514 
L 305.682953 47.476636 
L 307.942236 47.476636 
L 307.942236 47.104757 
L 311.352512 47.104757 
L 311.352512 46.732879 
L 313.113826 46.732879 
L 313.113826 46.361001 
L 315.455765 46.361001 
L 315.455765 45.989123 
L 316.651233 45.989123 
L 316.651233 45.617245 
L 317.307597 45.617245 
L 317.307597 45.245366 
L 318.834689 45.245366 
L 318.834689 44.873488 
L 320.422246 44.873488 
L 320.422246 44.50161 
L 320.836814 44.50161 
L 320.836814 44.129732 
L 321.063437 44.129732 
L 321.063437 43.757853 
L 324.98835 43.757853 
L 324.98835 43.385975 
L 326.515442 43.385975 
L 326.515442 43.014097 
L 327.047875 43.014097 
L 327.047875 42.642219 
L 328.102999 42.642219 
L 328.102999 42.270341 
L 328.517567 42.270341 
L 328.517567 41.898462 
L 328.74419 41.898462 
L 328.74419 41.526584 
L 335.799992 41.526584 
L 335.799992 41.154706 
L 336.80549 41.154706 
L 336.80549 40.782828 
L 338.922398 40.782828 
L 338.922398 40.410949 
L 340.44949 40.410949 
L 340.44949 40.039071 
L 342.037047 40.039071 
L 342.037047 39.667193 
L 342.451616 39.667193 
L 342.451616 39.295315 
L 342.678238 39.295315 
L 342.678238 38.923437 
L 343.480745 38.923437 
L 343.480745 38.551558 
L 344.486243 38.551558 
L 344.486243 38.17968 
L 357.414793 38.17968 
L 357.414793 37.807802 
L 358.420291 37.807802 
L 358.420291 37.435924 
L 453.192 37.435924 
L 453.192 37.435924 
" style="fill:none;stroke:#00bfbf;stroke-linecap:square;stroke-width:3;"/>
   </g>
   <g id="line2d_20">
    <path clip-path="url(#p3bb80ab6a9)" style="fill:none;stroke:#00bfbf;stroke-linecap:square;stroke-width:3;"/>
   </g>
   <g id="line2d_21">
    <path clip-path="url(#p3bb80ab6a9)" d="M 34.16 182.960471 
L 104.156049 182.960471 
L 104.156049 182.566839 
L 114.175285 182.566839 
L 114.175285 182.173208 
L 118.519078 182.173208 
L 118.519078 181.779576 
L 126.35107 181.779576 
L 126.35107 181.385945 
L 127.292359 181.385945 
L 127.292359 180.992313 
L 130.392763 180.992313 
L 130.392763 180.598682 
L 136.370306 180.598682 
L 136.370306 180.20505 
L 137.311595 180.20505 
L 137.311595 179.811418 
L 140.411998 179.811418 
L 140.411998 179.417787 
L 140.7141 179.417787 
L 140.7141 179.024155 
L 141.655389 179.024155 
L 141.655389 178.630524 
L 144.755792 178.630524 
L 144.755792 178.236892 
L 146.810546 178.236892 
L 146.810546 177.843261 
L 168.269129 177.843261 
L 168.269129 177.449629 
L 169.005567 177.449629 
L 169.005567 177.055998 
L 169.946856 177.055998 
L 169.946856 176.662366 
L 172.922079 176.662366 
L 172.922079 176.268735 
L 173.047259 176.268735 
L 173.047259 175.875103 
L 174.266789 175.875103 
L 174.266789 175.481471 
L 182.221422 175.481471 
L 182.221422 175.08784 
L 182.389921 175.08784 
L 182.389921 174.694208 
L 183.071418 174.694208 
L 183.071418 174.300577 
L 183.289333 174.300577 
L 183.289333 173.906945 
L 185.153913 173.906945 
L 185.153913 173.513314 
L 186.201525 173.513314 
L 186.201525 173.119682 
L 186.434879 173.119682 
L 186.45365 172.332419 
L 187.724367 172.332419 
L 187.724367 171.938787 
L 188.982398 171.938787 
L 189.069077 171.151524 
L 189.422917 171.151524 
L 189.422917 170.757893 
L 189.898356 170.757893 
L 189.898356 170.364261 
L 190.700254 170.364261 
L 190.797546 169.576998 
L 191.1066 169.576998 
L 191.1066 169.183367 
L 192.409157 169.183367 
L 192.451309 168.396104 
L 192.613767 168.396104 
L 192.613767 168.002472 
L 193.308568 168.002472 
L 193.308568 167.60884 
L 195.353203 167.60884 
L 195.353203 167.215209 
L 196.697913 167.215209 
L 196.752951 166.427946 
L 197.02371 166.427946 
L 197.02371 166.034314 
L 197.652362 166.034314 
L 197.652362 165.640683 
L 200.405943 165.640683 
L 200.405943 165.247051 
L 200.527282 165.247051 
L 200.527282 164.85342 
L 201.237168 164.85342 
L 201.237168 164.459788 
L 202.633003 164.459788 
L 202.633003 164.066157 
L 204.225206 164.066157 
L 204.225206 163.672525 
L 204.412564 163.672525 
L 204.412564 163.278893 
L 204.6194 163.278893 
L 204.700645 162.097999 
L 205.460176 162.097999 
L 205.460176 161.704367 
L 205.599834 161.704367 
L 205.599834 161.310736 
L 206.017303 161.310736 
L 206.017303 160.917104 
L 206.140921 160.917104 
L 206.140921 160.523473 
L 206.586486 160.523473 
L 206.586486 160.129841 
L 206.976797 160.129841 
L 207.009068 158.948946 
L 207.607438 158.948946 
L 207.607438 158.555315 
L 208.082877 158.555315 
L 208.082877 158.161683 
L 208.212287 158.161683 
L 208.292014 156.980789 
L 208.406454 156.980789 
L 208.406454 156.587157 
L 208.866004 156.587157 
L 208.866004 156.193526 
L 208.982067 156.193526 
L 208.982067 155.799894 
L 209.45363 155.799894 
L 209.45363 155.406262 
L 211.658389 155.406262 
L 211.658389 155.012631 
L 211.854042 155.012631 
L 211.854042 154.618999 
L 212.279245 154.618999 
L 212.329481 153.831736 
L 213.003098 153.831736 
L 213.108841 153.044473 
L 213.22867 153.044473 
L 213.254287 152.25721 
L 213.835248 152.25721 
L 213.852818 151.469947 
L 214.629128 151.469947 
L 214.721641 150.682684 
L 216.036538 150.682684 
L 216.036538 150.289052 
L 216.160156 150.289052 
L 216.160156 149.895421 
L 217.907237 149.895421 
L 217.907237 149.501789 
L 218.31125 149.501789 
L 218.31125 149.108158 
L 218.42569 149.108158 
L 218.42569 148.714526 
L 218.659661 148.714526 
L 218.659661 148.320895 
L 219.000346 148.320895 
L 219.000346 147.927263 
L 219.251946 147.927263 
L 219.251946 147.533632 
L 219.472865 147.533632 
L 219.472865 147.14 
L 219.700981 147.14 
L 219.785933 145.959105 
L 220.380332 145.959105 
L 220.380332 145.565474 
L 220.50395 145.565474 
L 220.50395 145.171842 
L 220.748593 145.171842 
L 220.748593 144.778211 
L 220.957732 144.778211 
L 220.957732 144.384579 
L 221.388774 144.384579 
L 221.388774 143.990948 
L 221.518164 143.990948 
L 221.601886 142.810053 
L 221.811357 142.810053 
L 221.811357 142.416421 
L 222.488147 142.416421 
L 222.565776 141.629158 
L 222.649498 141.629158 
L 222.655044 140.841895 
L 222.769483 140.841895 
L 222.769483 140.448264 
L 223.014575 140.448264 
L 223.014575 140.054632 
L 223.173909 140.054632 
L 223.173909 139.661001 
L 223.529466 139.661001 
L 223.529466 139.267369 
L 223.816659 139.267369 
L 223.922341 138.480106 
L 224.221521 138.480106 
L 224.221521 138.086474 
L 224.368361 138.086474 
L 224.368361 137.692843 
L 224.771006 137.692843 
L 224.771006 137.299211 
L 225.044418 137.299211 
L 225.044418 136.90558 
L 225.171189 136.90558 
L 225.248068 135.724685 
L 225.34665 135.724685 
L 225.430371 134.937422 
L 225.614033 134.937422 
L 225.614033 134.54379 
L 225.94383 134.54379 
L 225.94383 134.150159 
L 226.396807 134.150159 
L 226.396807 133.756527 
L 227.002395 133.756527 
L 227.002395 133.362896 
L 227.20658 133.362896 
L 227.20658 132.969264 
L 228.159227 132.969264 
L 228.159227 132.575633 
L 228.634666 132.575633 
L 228.634666 132.182001 
L 229.01761 132.182001 
L 229.01761 131.78837 
L 229.179303 131.78837 
L 229.179303 131.394738 
L 229.431416 131.394738 
L 229.533856 130.213843 
L 230.266983 130.213843 
L 230.266983 129.820212 
L 230.643411 129.820212 
L 230.643411 129.42658 
L 231.420037 129.42658 
L 231.420037 129.032949 
L 231.611692 129.032949 
L 231.611692 128.639317 
L 231.845173 128.639317 
L 231.845173 128.245686 
L 232.367492 128.245686 
L 232.367492 127.852054 
L 232.813648 127.852054 
L 232.813648 127.458423 
L 233.093899 127.458423 
L 233.093899 127.064791 
L 233.941576 127.064791 
L 234.03303 126.277528 
L 234.387596 126.277528 
L 234.474266 125.096633 
L 234.798435 125.096633 
L 234.883514 124.30937 
L 235.07435 124.30937 
L 235.07435 123.915739 
L 235.268264 123.915739 
L 235.268264 123.522107 
L 235.415555 123.522107 
L 235.415555 123.128476 
L 235.782704 123.128476 
L 235.782704 122.734844 
L 236.498123 122.734844 
L 236.498123 122.341213 
L 236.891533 122.341213 
L 236.975255 121.553949 
L 237.060252 121.553949 
L 237.060252 121.160318 
L 237.842832 121.160318 
L 237.842832 120.766686 
L 238.166418 120.766686 
L 238.166418 120.373055 
L 238.28537 120.373055 
L 238.28537 119.979423 
L 238.515958 119.979423 
L 238.547278 119.19216 
L 238.73139 119.19216 
L 238.73139 118.798529 
L 239.21403 118.798529 
L 239.21403 118.404897 
L 239.451384 118.404897 
L 239.451384 118.011265 
L 239.566326 118.011265 
L 239.566326 117.617634 
L 239.70705 117.617634 
L 239.70705 117.224002 
L 240.796094 117.224002 
L 240.796094 116.830371 
L 241.195367 116.830371 
L 241.195367 116.436739 
L 241.994903 116.436739 
L 241.994903 116.043108 
L 242.136656 116.043108 
L 242.214574 115.255845 
L 242.945211 115.255845 
L 242.945211 114.862213 
L 243.732319 114.862213 
L 243.779783 114.07495 
L 244.318803 114.07495 
L 244.318803 113.681318 
L 244.45522 113.681318 
L 244.506719 112.894055 
L 244.673608 112.894055 
L 244.673608 112.500424 
L 245.237059 112.500424 
L 245.322795 111.713161 
L 245.745378 111.713161 
L 245.797466 110.925898 
L 246.614589 110.925898 
L 246.614589 110.532266 
L 246.767821 110.532266 
L 246.767821 110.138635 
L 246.948596 110.138635 
L 246.948596 109.745003 
L 247.24326 109.745003 
L 247.340996 108.95774 
L 247.655909 108.95774 
L 247.655909 108.564108 
L 247.774011 108.564108 
L 247.774011 108.170477 
L 248.14245 108.170477 
L 248.14245 107.776845 
L 248.382316 107.776845 
L 248.382316 107.383214 
L 248.656547 107.383214 
L 248.750727 106.202319 
L 248.795417 106.202319 
L 248.795417 105.808688 
L 249.108169 105.808688 
L 249.108169 105.415056 
L 249.473092 105.415056 
L 249.556814 104.234161 
L 250.010923 104.234161 
L 250.010923 103.84053 
L 250.199499 103.84053 
L 250.283221 103.053267 
L 250.452879 103.053267 
L 250.452879 102.659635 
L 250.946511 102.659635 
L 250.946511 102.266004 
L 251.060951 102.266004 
L 251.128837 101.478741 
L 251.571643 101.478741 
L 251.571643 101.085109 
L 251.855244 101.085109 
L 251.855244 100.691477 
L 251.994226 100.691477 
L 251.994226 100.297846 
L 252.108127 100.297846 
L 252.108127 99.904214 
L 252.964184 99.904214 
L 252.998961 99.116951 
L 253.197444 99.116951 
L 253.197444 98.72332 
L 253.365438 98.72332 
L 253.4744 97.936057 
L 253.539787 97.936057 
L 253.539787 97.542425 
L 254.37359 97.542425 
L 254.37359 97.148793 
L 255.952223 97.148793 
L 255.952223 96.755162 
L 256.427662 96.755162 
L 256.427662 96.36153 
L 257.326851 96.36153 
L 257.326851 95.967899 
L 258.407512 95.967899 
L 258.407512 95.574267 
L 258.753816 95.574267 
L 258.753816 95.180636 
L 259.614285 95.180636 
L 259.614285 94.787004 
L 259.795136 94.787004 
L 259.795136 94.393373 
L 261.612319 94.393373 
L 261.696041 93.60611 
L 262.203862 93.60611 
L 262.203862 93.212478 
L 262.620969 93.212478 
L 262.620969 92.818846 
L 263.268064 92.818846 
L 263.268064 92.425215 
L 263.931389 92.425215 
L 263.983032 91.637952 
L 264.353972 91.637952 
L 264.353972 91.24432 
L 265.55719 91.24432 
L 265.609008 90.457057 
L 266.084447 90.457057 
L 266.121346 89.669794 
L 266.576837 89.669794 
L 266.576837 89.276163 
L 266.847753 89.276163 
L 266.847753 88.882531 
L 266.983636 88.882531 
L 267.022857 88.095268 
L 270.16253 88.095268 
L 270.16253 87.701636 
L 270.585112 87.701636 
L 270.585112 87.308005 
L 271.78833 87.308005 
L 271.78833 86.914373 
L 271.974032 86.914373 
L 271.974032 86.520742 
L 273.115791 86.520742 
L 273.115791 86.12711 
L 273.538374 86.12711 
L 273.538374 85.733479 
L 274.510779 85.733479 
L 274.510779 85.339847 
L 274.741592 85.339847 
L 274.741592 84.946216 
L 276.450959 84.946216 
L 276.450959 84.552584 
L 277.018304 84.552584 
L 277.018304 84.158952 
L 277.492279 84.158952 
L 277.492279 83.765321 
L 278.205172 83.765321 
L 278.260573 82.978058 
L 279.122532 82.978058 
L 279.122532 82.584426 
L 279.309462 82.584426 
L 279.393183 81.797163 
L 280.965207 81.797163 
L 280.965207 81.403532 
L 281.158433 81.403532 
L 281.158433 81.0099 
L 282.772576 81.0099 
L 282.772576 80.616269 
L 283.020993 80.616269 
L 283.020993 80.222637 
L 283.195159 80.222637 
L 283.195159 79.829005 
L 284.398377 79.829005 
L 284.398377 79.435374 
L 290.513117 79.435374 
L 290.513117 79.041742 
L 290.815218 79.041742 
L 290.815218 78.648111 
L 291.412529 78.648111 
L 291.412529 78.254479 
L 295.957715 78.254479 
L 295.957715 77.860848 
L 297.234218 77.860848 
L 297.234218 77.467216 
L 298.133629 77.467216 
L 298.133629 77.073585 
L 299.77117 77.073585 
L 299.77117 76.679953 
L 300.670581 76.679953 
L 300.736963 75.89269 
L 302.279644 75.89269 
L 302.279644 75.499058 
L 307.458064 75.499058 
L 307.458064 75.105427 
L 309.995016 75.105427 
L 309.995016 74.711795 
L 314.140499 74.711795 
L 314.140499 74.318164 
L 314.264116 74.318164 
L 314.264116 73.924532 
L 316.41521 73.924532 
L 316.41521 73.530901 
L 316.526741 73.530901 
L 316.52965 72.743638 
L 317.568061 72.743638 
L 317.576826 71.956374 
L 319.385244 71.956374 
L 319.468966 71.169111 
L 320.861599 71.169111 
L 320.861599 70.77548 
L 320.985217 70.77548 
L 321.040989 69.988217 
L 323.136311 69.988217 
L 323.136311 69.594585 
L 323.250751 69.594585 
L 323.250751 69.200954 
L 323.398551 69.200954 
L 323.398551 68.807322 
L 323.522169 68.807322 
L 323.522169 68.413691 
L 324.297926 68.413691 
L 324.297926 68.020059 
L 325.673263 68.020059 
L 325.673263 67.626427 
L 325.787703 67.626427 
L 325.787703 67.232796 
L 326.834878 67.232796 
L 326.834878 66.839164 
L 332.045536 66.839164 
L 332.045536 66.445533 
L 332.491556 66.445533 
L 332.491556 66.051901 
L 336.033498 66.051901 
L 336.033498 65.65827 
L 338.766637 65.65827 
L 338.766637 65.264638 
L 339.212657 65.264638 
L 339.212657 64.871007 
L 341.303589 64.871007 
L 341.303589 64.477375 
L 341.749609 64.477375 
L 341.749609 64.083744 
L 453.192 64.083744 
L 453.192 64.083744 
" style="fill:none;stroke:#bf00bf;stroke-linecap:square;stroke-width:3;"/>
   </g>
   <g id="line2d_22">
    <path clip-path="url(#p3bb80ab6a9)" style="fill:none;stroke:#bf00bf;stroke-linecap:square;stroke-width:3;"/>
   </g>
   <g id="line2d_23">
    <path clip-path="url(#p3bb80ab6a9)" d="M 34.16 182.960471 
L 131.560635 182.960471 
L 131.560635 182.566839 
L 133.115611 182.566839 
L 133.115611 182.173208 
L 134.797589 182.173208 
L 134.797589 181.779576 
L 142.10607 181.779576 
L 142.10607 181.385945 
L 143.661045 181.385945 
L 143.661045 180.992313 
L 144.880376 180.992313 
L 144.880376 180.598682 
L 145.343024 180.598682 
L 145.343024 180.20505 
L 146.435352 180.20505 
L 146.435352 179.811418 
L 147.402462 179.811418 
L 147.402462 179.417787 
L 148.11733 179.417787 
L 148.11733 179.024155 
L 157.947896 179.024155 
L 157.947896 178.630524 
L 160.722203 178.630524 
L 160.722203 178.236892 
L 170.529525 178.236892 
L 170.529525 177.843261 
L 173.172185 177.843261 
L 173.172185 177.449629 
L 174.72716 177.449629 
L 174.72716 177.055998 
L 175.373645 177.055998 
L 175.373645 176.662366 
L 175.967954 176.662366 
L 175.967954 176.268735 
L 176.409139 176.268735 
L 176.409139 175.875103 
L 183.842546 175.875103 
L 183.842546 175.481471 
L 184.187034 175.481471 
L 184.187034 175.08784 
L 184.406267 175.08784 
L 184.406267 174.694208 
L 184.603687 174.694208 
L 184.603687 174.300577 
L 186.2259 174.300577 
L 186.2259 173.906945 
L 187.529336 173.906945 
L 187.529336 173.513314 
L 187.968038 173.513314 
L 187.968038 173.119682 
L 188.174735 173.119682 
L 188.174735 172.726051 
L 188.686665 172.726051 
L 188.686665 172.332419 
L 189.014011 172.332419 
L 189.014011 171.938787 
L 189.280974 171.938787 
L 189.280974 171.545156 
L 190.740682 171.545156 
L 190.740682 171.151524 
L 191.157857 171.151524 
L 191.157857 170.757893 
L 192.361447 170.757893 
L 192.462913 169.97063 
L 192.812157 169.97063 
L 192.830716 169.183367 
L 193.153699 169.183367 
L 193.153699 168.789735 
L 193.406467 168.789735 
L 193.406467 168.396104 
L 194.732468 168.396104 
L 194.732468 168.002472 
L 195.149122 168.002472 
L 195.149122 167.60884 
L 197.307033 167.60884 
L 197.307033 167.215209 
L 197.506775 167.215209 
L 197.506775 166.821577 
L 197.719287 166.821577 
L 197.719287 166.427946 
L 197.901342 166.427946 
L 197.923428 165.640683 
L 201.487756 165.640683 
L 201.487756 165.247051 
L 201.72079 165.247051 
L 201.72079 164.85342 
L 201.844779 164.85342 
L 201.844779 164.459788 
L 203.699134 164.459788 
L 203.699134 164.066157 
L 204.470877 164.066157 
L 204.470877 163.672525 
L 205.433957 163.672525 
L 205.433957 163.278893 
L 205.613248 163.278893 
L 205.674468 162.49163 
L 206.143736 162.49163 
L 206.147705 161.704367 
L 206.339655 161.704367 
L 206.339655 161.310736 
L 206.47344 161.310736 
L 206.47344 160.917104 
L 206.737393 160.917104 
L 206.737393 160.523473 
L 206.989236 160.523473 
L 206.989236 160.129841 
L 207.301531 160.129841 
L 207.301531 159.73621 
L 207.906651 159.73621 
L 207.906651 159.342578 
L 208.113755 159.342578 
L 208.113755 158.948946 
L 208.278801 158.948946 
L 208.278801 158.555315 
L 208.596369 158.555315 
L 208.596369 158.161683 
L 208.828785 158.161683 
L 208.828785 157.768052 
L 209.636562 157.768052 
L 209.636562 157.37442 
L 209.776712 157.37442 
L 209.79996 156.587157 
L 209.948739 156.587157 
L 209.948739 156.193526 
L 210.108123 156.193526 
L 210.108123 155.799894 
L 210.269228 155.799894 
L 210.269228 155.406262 
L 212.957875 155.406262 
L 212.957875 155.012631 
L 213.091245 155.012631 
L 213.142774 154.225368 
L 213.552184 154.225368 
L 213.552184 153.831736 
L 214.137722 153.831736 
L 214.137722 153.438105 
L 214.294835 153.438105 
L 214.294835 153.044473 
L 214.717675 153.044473 
L 214.764104 152.25721 
L 215.029757 152.25721 
L 215.029757 151.863579 
L 215.650161 151.863579 
L 215.650161 151.469947 
L 215.833665 151.469947 
L 215.833665 151.076315 
L 216.69314 151.076315 
L 216.69314 150.682684 
L 217.31182 150.682684 
L 217.31182 150.289052 
L 217.534671 150.289052 
L 217.534671 149.895421 
L 217.986893 149.895421 
L 217.986893 149.501789 
L 218.581203 149.501789 
L 218.645292 148.714526 
L 218.824236 148.714526 
L 218.866795 147.927263 
L 219.37422 147.927263 
L 219.467446 147.14 
L 219.581838 147.14 
L 219.581838 146.746368 
L 220.181996 146.746368 
L 220.200268 145.959105 
L 220.308977 145.959105 
L 220.308977 145.565474 
L 220.48988 145.565474 
L 220.548773 144.778211 
L 220.614552 144.778211 
L 220.614552 144.384579 
L 220.885275 144.384579 
L 220.928847 143.597316 
L 221.219671 143.597316 
L 221.219671 143.203685 
L 221.598543 143.203685 
L 221.598543 142.810053 
L 221.793317 142.810053 
L 221.882246 142.02279 
L 221.990497 142.02279 
L 221.990497 141.629158 
L 222.148526 141.629158 
L 222.148526 141.235527 
L 222.336291 141.235527 
L 222.336291 140.841895 
L 222.489032 140.841895 
L 222.489032 140.448264 
L 222.956303 140.448264 
L 222.956303 140.054632 
L 223.089733 140.054632 
L 223.089733 139.661001 
L 223.389198 139.661001 
L 223.389198 139.267369 
L 223.639727 139.267369 
L 223.639727 138.873738 
L 223.792469 138.873738 
L 223.792469 138.480106 
L 224.096621 138.480106 
L 224.096621 138.086474 
L 224.692634 138.086474 
L 224.762737 136.90558 
L 225.004662 136.90558 
L 225.004662 136.511948 
L 225.152145 136.511948 
L 225.152145 136.118317 
L 225.345164 136.118317 
L 225.345164 135.724685 
L 225.54787 135.724685 
L 225.54787 135.331054 
L 225.758965 135.331054 
L 225.798583 134.54379 
L 226.077456 134.54379 
L 226.077456 134.150159 
L 226.215237 134.150159 
L 226.215237 133.756527 
L 226.851073 133.756527 
L 226.851073 133.362896 
L 227.003814 133.362896 
L 227.019515 132.575633 
L 227.215225 132.575633 
L 227.215225 132.182001 
L 227.90398 132.182001 
L 227.90398 131.78837 
L 228.742087 131.78837 
L 228.742087 131.394738 
L 229.075923 131.394738 
L 229.146685 130.607475 
L 229.234919 130.607475 
L 229.234919 130.213843 
L 229.840039 130.213843 
L 229.945677 129.42658 
L 230.414946 129.42658 
L 230.414946 129.032949 
L 230.787984 129.032949 
L 230.787984 128.639317 
L 230.921575 128.639317 
L 230.921575 128.245686 
L 231.515884 128.245686 
L 231.515884 127.852054 
L 231.638274 127.852054 
L 231.7101 127.064791 
L 231.792649 127.064791 
L 231.792649 126.67116 
L 233.153646 126.67116 
L 233.193249 125.883896 
L 233.272178 125.883896 
L 233.272178 125.490265 
L 233.771105 125.490265 
L 233.771105 125.096633 
L 233.925732 125.096633 
L 233.925732 124.703002 
L 234.487119 124.703002 
L 234.487119 124.30937 
L 234.765248 124.30937 
L 234.875228 123.128476 
L 234.885278 123.128476 
L 234.974696 122.341213 
L 235.076728 122.341213 
L 235.076728 121.947581 
L 235.308171 121.947581 
L 235.308171 121.553949 
L 235.443964 121.553949 
L 235.443964 121.160318 
L 235.69758 121.160318 
L 235.69758 120.766686 
L 235.98477 120.766686 
L 235.98477 120.373055 
L 236.636769 120.373055 
L 236.636769 119.979423 
L 237.231078 119.979423 
L 237.231078 119.585792 
L 237.767053 119.585792 
L 237.83118 118.798529 
L 237.945237 118.798529 
L 237.983922 118.011265 
L 238.082478 118.011265 
L 238.082478 117.617634 
L 238.471886 117.617634 
L 238.471886 117.224002 
L 238.884087 117.224002 
L 238.884087 116.830371 
L 239.248673 116.830371 
L 239.248673 116.436739 
L 239.729398 116.436739 
L 239.729398 116.043108 
L 239.954197 116.043108 
L 239.954197 115.649476 
L 240.323707 115.649476 
L 240.323707 115.255845 
L 240.696411 115.255845 
L 240.696411 114.862213 
L 241.238484 114.862213 
L 241.238484 114.468582 
L 242.203952 114.468582 
L 242.203952 114.07495 
L 242.460019 114.07495 
L 242.460019 113.681318 
L 243.722666 113.681318 
L 243.814234 112.894055 
L 244.221552 112.894055 
L 244.221552 112.500424 
L 244.755927 112.500424 
L 244.755927 112.106792 
L 244.885761 112.106792 
L 244.885761 111.713161 
L 245.490881 111.713161 
L 245.490881 111.319529 
L 245.669391 111.319529 
L 245.669391 110.925898 
L 246.705787 110.925898 
L 246.705787 110.532266 
L 247.360942 110.532266 
L 247.360942 110.138635 
L 247.4801 110.138635 
L 247.4801 109.745003 
L 247.759255 109.745003 
L 247.759255 109.351371 
L 247.909377 109.351371 
L 247.909377 108.95774 
L 248.073613 108.95774 
L 248.073613 108.564108 
L 248.378646 108.564108 
L 248.378646 108.170477 
L 248.600785 108.170477 
L 248.600785 107.776845 
L 248.76202 107.776845 
L 248.76202 107.383214 
L 248.981655 107.383214 
L 249.065672 106.202319 
L 249.291126 106.202319 
L 249.291126 105.808688 
L 249.437859 105.808688 
L 249.437859 105.415056 
L 249.659981 105.415056 
L 249.659981 105.021424 
L 249.890351 105.021424 
L 249.91478 103.84053 
L 250.183161 103.84053 
L 250.183161 103.446898 
L 250.440335 103.446898 
L 250.5199 102.659635 
L 250.828065 102.659635 
L 250.828065 102.266004 
L 250.980807 102.266004 
L 250.980807 101.872372 
L 251.248111 101.872372 
L 251.248111 101.478741 
L 251.760551 101.478741 
L 251.760551 101.085109 
L 251.880972 101.085109 
L 251.913293 100.297846 
L 252.389961 100.297846 
L 252.420981 99.510583 
L 252.530488 99.510583 
L 252.530488 99.116951 
L 252.813458 99.116951 
L 252.813458 98.72332 
L 253.417895 98.72332 
L 253.440127 97.936057 
L 253.624571 97.936057 
L 253.624571 97.542425 
L 254.09384 97.542425 
L 254.09384 97.148793 
L 255.51361 97.148793 
L 255.51361 96.755162 
L 256.7172 96.755162 
L 256.7172 96.36153 
L 257.186469 96.36153 
L 257.186469 95.967899 
L 258.098294 95.967899 
L 258.098294 95.574267 
L 258.446914 95.574267 
L 258.446914 95.180636 
L 258.903808 95.180636 
L 258.903808 94.787004 
L 259.81185 94.787004 
L 259.81185 94.393373 
L 261.412009 94.393373 
L 261.412009 93.999741 
L 261.65826 93.999741 
L 261.65826 93.60611 
L 261.811002 93.60611 
L 261.866762 92.818846 
L 262.711167 92.818846 
L 262.711167 92.425215 
L 262.849462 92.425215 
L 262.849462 92.031583 
L 263.454581 92.031583 
L 263.454581 91.637952 
L 264.229327 91.637952 
L 264.229327 91.24432 
L 264.849884 91.24432 
L 264.849884 90.850689 
L 265.324643 90.850689 
L 265.324643 90.457057 
L 266.053474 90.457057 
L 266.053474 90.063426 
L 266.374286 90.063426 
L 266.437011 89.276163 
L 266.522743 89.276163 
L 266.522743 88.882531 
L 266.763694 88.882531 
L 266.763694 88.488899 
L 267.369497 88.488899 
L 267.369497 88.095268 
L 268.564655 88.095268 
L 268.564655 87.701636 
L 269.169775 87.701636 
L 269.169775 87.308005 
L 269.431822 87.308005 
L 269.431822 86.914373 
L 269.938218 86.914373 
L 269.938218 86.520742 
L 270.354871 86.520742 
L 270.354871 86.12711 
L 271.039836 86.12711 
L 271.039836 85.733479 
L 271.271691 85.733479 
L 271.381595 84.946216 
L 271.657284 84.946216 
L 271.688344 84.158952 
L 272.262404 84.158952 
L 272.262404 83.765321 
L 274.132465 83.765321 
L 274.132465 83.371689 
L 275.55989 83.371689 
L 275.55989 82.978058 
L 275.849814 82.978058 
L 275.849814 82.584426 
L 276.391887 82.584426 
L 276.467932 81.797163 
L 277.096789 81.797163 
L 277.096789 81.403532 
L 277.267207 81.403532 
L 277.267207 81.0099 
L 278.314342 81.0099 
L 278.314342 80.616269 
L 278.467084 80.616269 
L 278.467084 80.222637 
L 278.904883 80.222637 
L 278.967637 79.435374 
L 279.367249 79.435374 
L 279.367249 79.041742 
L 280.189418 79.041742 
L 280.238356 78.254479 
L 280.993559 78.254479 
L 280.993559 77.860848 
L 281.598678 77.860848 
L 281.598678 77.467216 
L 283.468739 77.467216 
L 283.468739 77.073585 
L 284.264672 77.073585 
L 284.264672 76.679953 
L 284.681326 76.679953 
L 284.681326 76.286321 
L 288.639879 76.286321 
L 288.639879 75.89269 
L 289.525692 75.89269 
L 289.525692 75.499058 
L 291.898889 75.499058 
L 291.898889 75.105427 
L 292.74042 75.105427 
L 292.74042 74.711795 
L 293.231338 74.711795 
L 293.232362 73.924532 
L 293.923289 73.924532 
L 294.029986 73.137269 
L 294.073893 73.137269 
L 294.073893 72.743638 
L 294.57997 72.743638 
L 294.57997 72.350006 
L 295.363459 72.350006 
L 295.387746 71.562743 
L 295.913442 71.562743 
L 295.913442 71.169111 
L 296.721219 71.169111 
L 296.721219 70.77548 
L 302.78776 70.77548 
L 302.78776 70.381848 
L 303.695802 70.381848 
L 303.695802 69.988217 
L 305.542212 69.988217 
L 305.542212 69.594585 
L 305.694954 69.594585 
L 305.694954 69.200954 
L 306.225344 69.200954 
L 306.225344 68.807322 
L 306.595119 68.807322 
L 306.595119 68.413691 
L 307.066875 68.413691 
L 307.066875 68.020059 
L 308.35644 68.020059 
L 308.35644 67.626427 
L 308.906424 67.626427 
L 308.906424 67.232796 
L 309.7142 67.232796 
L 309.7142 66.839164 
L 310.513921 66.839164 
L 310.513921 66.445533 
L 310.903329 66.445533 
L 310.903329 66.051901 
L 311.847394 66.051901 
L 311.847394 65.65827 
L 312.236802 65.65827 
L 312.236802 65.264638 
L 321.151158 65.264638 
L 321.151158 64.871007 
L 324.840376 64.871007 
L 324.840376 64.477375 
L 325.229784 64.477375 
L 325.229784 64.083744 
L 453.192 64.083744 
L 453.192 64.083744 
" style="fill:none;stroke:#ff0000;stroke-linecap:square;stroke-width:3;"/>
   </g>
   <g id="line2d_24">
    <path clip-path="url(#p3bb80ab6a9)" style="fill:none;stroke:#ff0000;stroke-linecap:square;stroke-width:3;"/>
   </g>
   <g id="line2d_25">
    <path clip-path="url(#p3bb80ab6a9)" d="M 243.676 291.28 
L 243.676 3 
" style="fill:none;stroke:#000000;stroke-linecap:square;stroke-width:1.5;"/>
   </g>
   <g id="line2d_26">
    <path clip-path="url(#p3bb80ab6a9)" d="M 34.16 147.14 
L 453.192 147.14 
" style="fill:none;stroke:#000000;stroke-dasharray:2,3.3;stroke-dashoffset:0;stroke-width:2;"/>
   </g>
   <g id="patch_3">
    <path d="M 34.16 291.28 
L 34.16 3 
" style="fill:none;stroke:#000000;stroke-linecap:square;stroke-linejoin:miter;stroke-width:0.8;"/>
   </g>
   <g id="patch_4">
    <path d="M 453.192 291.28 
L 453.192 3 
" style="fill:none;stroke:#000000;stroke-linecap:square;stroke-linejoin:miter;stroke-width:0.8;"/>
   </g>
   <g id="patch_5">
    <path d="M 34.16 291.28 
L 453.192 291.28 
" style="fill:none;stroke:#000000;stroke-linecap:square;stroke-linejoin:miter;stroke-width:0.8;"/>
   </g>
   <g id="patch_6">
    <path d="M 34.16 3 
L 453.192 3 
" style="fill:none;stroke:#000000;stroke-linecap:square;stroke-linejoin:miter;stroke-width:0.8;"/>
   </g>
   <g id="text_6">
    <!-- f20-f24,10-D -->
    <g transform="translate(318.19261 285.5144)scale(0.2 -0.2)">
     <defs>
      <path d="M 2419 4116 
L 825 1625 
L 2419 1625 
L 2419 4116 
z
M 2253 4666 
L 3047 4666 
L 3047 1625 
L 3713 1625 
L 3713 1100 
L 3047 1100 
L 3047 0 
L 2419 0 
L 2419 1100 
L 313 1100 
L 313 1709 
L 2253 4666 
z
" id="DejaVuSans-34" transform="scale(0.015625)"/>
      <path d="M 750 794 
L 1409 794 
L 1409 256 
L 897 -744 
L 494 -744 
L 750 256 
L 750 794 
z
" id="DejaVuSans-2c" transform="scale(0.015625)"/>
      <path d="M 1259 4147 
L 1259 519 
L 2022 519 
Q 2988 519 3436 956 
Q 3884 1394 3884 2338 
Q 3884 3275 3436 3711 
Q 2988 4147 2022 4147 
L 1259 4147 
z
M 628 4666 
L 1925 4666 
Q 3281 4666 3915 4102 
Q 4550 3538 4550 2338 
Q 4550 1131 3912 565 
Q 3275 0 1925 0 
L 628 0 
L 628 4666 
z
" id="DejaVuSans-44" transform="scale(0.015625)"/>
     </defs>
     <use xlink:href="#DejaVuSans-66"/>
     <use x="35.205078" xlink:href="#DejaVuSans-32"/>
     <use x="98.828125" xlink:href="#DejaVuSans-30"/>
     <use x="162.451172" xlink:href="#DejaVuSans-2d"/>
     <use x="198.535156" xlink:href="#DejaVuSans-66"/>
     <use x="233.740234" xlink:href="#DejaVuSans-32"/>
     <use x="297.363281" xlink:href="#DejaVuSans-34"/>
     <use x="360.986328" xlink:href="#DejaVuSans-2c"/>
     <use x="392.773438" xlink:href="#DejaVuSans-31"/>
     <use x="456.396484" xlink:href="#DejaVuSans-30"/>
     <use x="520.019531" xlink:href="#DejaVuSans-2d"/>
     <use x="556.103516" xlink:href="#DejaVuSans-44"/>
    </g>
   </g>
   <g id="text_7">
    <!-- v2.6.3 -->
    <g style="fill:#808080;" transform="translate(227.99475 286.317512)scale(0.1 -0.1)">
     <defs>
      <path d="M 684 794 
L 1344 794 
L 1344 0 
L 684 0 
L 684 794 
z
" id="DejaVuSans-2e" transform="scale(0.015625)"/>
      <path d="M 2113 2584 
Q 1688 2584 1439 2293 
Q 1191 2003 1191 1497 
Q 1191 994 1439 701 
Q 1688 409 2113 409 
Q 2538 409 2786 701 
Q 3034 994 3034 1497 
Q 3034 2003 2786 2293 
Q 2538 2584 2113 2584 
z
M 3366 4563 
L 3366 3988 
Q 3128 4100 2886 4159 
Q 2644 4219 2406 4219 
Q 1781 4219 1451 3797 
Q 1122 3375 1075 2522 
Q 1259 2794 1537 2939 
Q 1816 3084 2150 3084 
Q 2853 3084 3261 2657 
Q 3669 2231 3669 1497 
Q 3669 778 3244 343 
Q 2819 -91 2113 -91 
Q 1303 -91 875 529 
Q 447 1150 447 2328 
Q 447 3434 972 4092 
Q 1497 4750 2381 4750 
Q 2619 4750 2861 4703 
Q 3103 4656 3366 4563 
z
" id="DejaVuSans-36" transform="scale(0.015625)"/>
      <path d="M 2597 2516 
Q 3050 2419 3304 2112 
Q 3559 1806 3559 1356 
Q 3559 666 3084 287 
Q 2609 -91 1734 -91 
Q 1441 -91 1130 -33 
Q 819 25 488 141 
L 488 750 
Q 750 597 1062 519 
Q 1375 441 1716 441 
Q 2309 441 2620 675 
Q 2931 909 2931 1356 
Q 2931 1769 2642 2001 
Q 2353 2234 1838 2234 
L 1294 2234 
L 1294 2753 
L 1863 2753 
Q 2328 2753 2575 2939 
Q 2822 3125 2822 3475 
Q 2822 3834 2567 4026 
Q 2313 4219 1838 4219 
Q 1578 4219 1281 4162 
Q 984 4106 628 3988 
L 628 4550 
Q 988 4650 1302 4700 
Q 1616 4750 1894 4750 
Q 2613 4750 3031 4423 
Q 3450 4097 3450 3541 
Q 3450 3153 3228 2886 
Q 3006 2619 2597 2516 
z
" id="DejaVuSans-33" transform="scale(0.015625)"/>
     </defs>
     <use xlink:href="#DejaVuSans-76"/>
     <use x="59.179688" xlink:href="#DejaVuSans-32"/>
     <use x="122.802734" xlink:href="#DejaVuSans-2e"/>
     <use x="154.589844" xlink:href="#DejaVuSans-36"/>
     <use x="218.212891" xlink:href="#DejaVuSans-2e"/>
     <use x="250" xlink:href="#DejaVuSans-33"/>
    </g>
   </g>
   <g id="legend_1">
    <g id="patch_7">
     <path d="M 48.16 136.425 
L 177.381875 136.425 
Q 181.381875 136.425 181.381875 132.425 
L 181.381875 17 
Q 181.381875 13 177.381875 13 
L 48.16 13 
Q 44.16 13 44.16 17 
L 44.16 132.425 
Q 44.16 136.425 48.16 136.425 
z
" style="fill:#ffffff;opacity:0.2;stroke:#cccccc;stroke-linejoin:miter;"/>
    </g>
    <g id="line2d_27">
     <path d="M 52.16 29.196875 
L 92.16 29.196875 
" style="fill:none;stroke:#000000;stroke-linecap:square;stroke-width:3;"/>
    </g>
    <g id="line2d_28"/>
    <g id="text_8">
     <!-- 1: 5/5 -->
     <g transform="translate(108.16 36.196875)scale(0.2 -0.2)">
      <defs>
       <path d="M 750 794 
L 1409 794 
L 1409 0 
L 750 0 
L 750 794 
z
M 750 3309 
L 1409 3309 
L 1409 2516 
L 750 2516 
L 750 3309 
z
" id="DejaVuSans-3a" transform="scale(0.015625)"/>
       <path d="M 691 4666 
L 3169 4666 
L 3169 4134 
L 1269 4134 
L 1269 2991 
Q 1406 3038 1543 3061 
Q 1681 3084 1819 3084 
Q 2600 3084 3056 2656 
Q 3513 2228 3513 1497 
Q 3513 744 3044 326 
Q 2575 -91 1722 -91 
Q 1428 -91 1123 -41 
Q 819 9 494 109 
L 494 744 
Q 775 591 1075 516 
Q 1375 441 1709 441 
Q 2250 441 2565 725 
Q 2881 1009 2881 1497 
Q 2881 1984 2565 2268 
Q 2250 2553 1709 2553 
Q 1456 2553 1204 2497 
Q 953 2441 691 2322 
L 691 4666 
z
" id="DejaVuSans-35" transform="scale(0.015625)"/>
       <path d="M 1625 4666 
L 2156 4666 
L 531 -594 
L 0 -594 
L 1625 4666 
z
" id="DejaVuSans-2f" transform="scale(0.015625)"/>
      </defs>
      <use xlink:href="#DejaVuSans-31"/>
      <use x="63.623047" xlink:href="#DejaVuSans-3a"/>
      <use x="97.314453" xlink:href="#DejaVuSans-20"/>
      <use x="129.101562" xlink:href="#DejaVuSans-35"/>
      <use x="192.724609" xlink:href="#DejaVuSans-2f"/>
      <use x="226.416016" xlink:href="#DejaVuSans-35"/>
     </g>
    </g>
    <g id="line2d_29">
     <path d="M 52.16 58.553125 
L 92.16 58.553125 
" style="fill:none;stroke:#00bfbf;stroke-linecap:square;stroke-width:3;"/>
    </g>
    <g id="line2d_30"/>
    <g id="text_9">
     <!-- -1: 4/4 -->
     <g transform="translate(108.16 65.553125)scale(0.2 -0.2)">
      <use xlink:href="#DejaVuSans-2d"/>
      <use x="36.083984" xlink:href="#DejaVuSans-31"/>
      <use x="99.707031" xlink:href="#DejaVuSans-3a"/>
      <use x="133.398438" xlink:href="#DejaVuSans-20"/>
      <use x="165.185547" xlink:href="#DejaVuSans-34"/>
      <use x="228.808594" xlink:href="#DejaVuSans-2f"/>
      <use x="262.5" xlink:href="#DejaVuSans-34"/>
     </g>
    </g>
    <g id="line2d_31">
     <path d="M 52.16 87.909375 
L 92.16 87.909375 
" style="fill:none;stroke:#bf00bf;stroke-linecap:square;stroke-width:3;"/>
    </g>
    <g id="line2d_32"/>
    <g id="text_10">
     <!-- -4: 4/4 -->
     <g transform="translate(108.16 94.909375)scale(0.2 -0.2)">
      <use xlink:href="#DejaVuSans-2d"/>
      <use x="36.083984" xlink:href="#DejaVuSans-34"/>
      <use x="99.707031" xlink:href="#DejaVuSans-3a"/>
      <use x="133.398438" xlink:href="#DejaVuSans-20"/>
      <use x="165.185547" xlink:href="#DejaVuSans-34"/>
      <use x="228.808594" xlink:href="#DejaVuSans-2f"/>
      <use x="262.5" xlink:href="#DejaVuSans-34"/>
     </g>
    </g>
    <g id="line2d_33">
     <path d="M 52.16 117.265625 
L 92.16 117.265625 
" style="fill:none;stroke:#ff0000;stroke-linecap:square;stroke-width:3;"/>
    </g>
    <g id="line2d_34"/>
    <g id="text_11">
     <!-- -8: 4/4 -->
     <g transform="translate(108.16 124.265625)scale(0.2 -0.2)">
      <defs>
       <path d="M 2034 2216 
Q 1584 2216 1326 1975 
Q 1069 1734 1069 1313 
Q 1069 891 1326 650 
Q 1584 409 2034 409 
Q 2484 409 2743 651 
Q 3003 894 3003 1313 
Q 3003 1734 2745 1975 
Q 2488 2216 2034 2216 
z
M 1403 2484 
Q 997 2584 770 2862 
Q 544 3141 544 3541 
Q 544 4100 942 4425 
Q 1341 4750 2034 4750 
Q 2731 4750 3128 4425 
Q 3525 4100 3525 3541 
Q 3525 3141 3298 2862 
Q 3072 2584 2669 2484 
Q 3125 2378 3379 2068 
Q 3634 1759 3634 1313 
Q 3634 634 3220 271 
Q 2806 -91 2034 -91 
Q 1263 -91 848 271 
Q 434 634 434 1313 
Q 434 1759 690 2068 
Q 947 2378 1403 2484 
z
M 1172 3481 
Q 1172 3119 1398 2916 
Q 1625 2713 2034 2713 
Q 2441 2713 2670 2916 
Q 2900 3119 2900 3481 
Q 2900 3844 2670 4047 
Q 2441 4250 2034 4250 
Q 1625 4250 1398 4047 
Q 1172 3844 1172 3481 
z
" id="DejaVuSans-38" transform="scale(0.015625)"/>
      </defs>
      <use xlink:href="#DejaVuSans-2d"/>
      <use x="36.083984" xlink:href="#DejaVuSans-38"/>
      <use x="99.707031" xlink:href="#DejaVuSans-3a"/>
      <use x="133.398438" xlink:href="#DejaVuSans-20"/>
      <use x="165.185547" xlink:href="#DejaVuSans-34"/>
      <use x="228.808594" xlink:href="#DejaVuSans-2f"/>
      <use x="262.5" xlink:href="#DejaVuSans-34"/>
     </g>
    </g>
   </g>
  </g>
 </g>
 <defs>
  <clipPath id="p3bb80ab6a9">
   <rect height="288.28" width="419.032" x="34.16" y="3"/>
  </clipPath>
 </defs>
</svg>
