<?xml version="1.0" encoding="utf-8" standalone="no"?>
<!DOCTYPE svg PUBLIC "-//W3C//DTD SVG 1.1//EN"
  "http://www.w3.org/Graphics/SVG/1.1/DTD/svg11.dtd">
<svg height="345.6pt" version="1.1" viewBox="0 0 460.8 345.6" width="460.8pt" xmlns="http://www.w3.org/2000/svg" xmlns:xlink="http://www.w3.org/1999/xlink">
 <metadata>
  <rdf:RDF xmlns:cc="http://creativecommons.org/ns#" xmlns:dc="http://purl.org/dc/elements/1.1/" xmlns:rdf="http://www.w3.org/1999/02/22-rdf-syntax-ns#">
   <cc:Work>
    <dc:type rdf:resource="http://purl.org/dc/dcmitype/StillImage"/>
    <dc:date>2023-04-17T18:02:26.747693</dc:date>
    <dc:format>image/svg+xml</dc:format>
    <dc:creator>
     <cc:Agent>
      <dc:title>Matplotlib v3.4.1, https://matplotlib.org/</dc:title>
     </cc:Agent>
    </dc:creator>
   </cc:Work>
  </rdf:RDF>
 </metadata>
 <defs>
  <style type="text/css">*{stroke-linecap:butt;stroke-linejoin:round;}</style>
 </defs>
 <g id="figure_1">
  <g id="patch_1">
   <path d="M 0 345.6 
L 460.8 345.6 
L 460.8 0 
L 0 0 
z
" style="fill:#ffffff;"/>
  </g>
  <g id="axes_1">
   <g id="patch_2">
    <path d="M 34.16 291.28 
L 453.192 291.28 
L 453.192 3 
L 34.16 3 
z
" style="fill:#ffffff;"/>
   </g>
   <g id="matplotlib.axis_1">
    <g id="xtick_1">
     <g id="line2d_1">
      <path clip-path="url(#pea3240545c)" d="M 165.392929 291.28 
L 165.392929 3 
" style="fill:none;stroke:#b0b0b0;stroke-linecap:square;stroke-width:0.8;"/>
     </g>
     <g id="line2d_2">
      <defs>
       <path d="M 0 0 
L 0 3.5 
" id="m36a2f24dd6" style="stroke:#000000;stroke-width:0.8;"/>
      </defs>
      <g>
       <use style="stroke:#000000;stroke-width:0.8;" x="165.392929" xlink:href="#m36a2f24dd6" y="291.28"/>
      </g>
     </g>
     <g id="text_1">
      <!-- -1 -->
      <g transform="translate(155.422617 313.476875)scale(0.2 -0.2)">
       <defs>
        <path d="M 313 2009 
L 1997 2009 
L 1997 1497 
L 313 1497 
L 313 2009 
z
" id="DejaVuSans-2d" transform="scale(0.015625)"/>
        <path d="M 794 531 
L 1825 531 
L 1825 4091 
L 703 3866 
L 703 4441 
L 1819 4666 
L 2450 4666 
L 2450 531 
L 3481 531 
L 3481 0 
L 794 0 
L 794 531 
z
" id="DejaVuSans-31" transform="scale(0.015625)"/>
       </defs>
       <use xlink:href="#DejaVuSans-2d"/>
       <use x="36.083984" xlink:href="#DejaVuSans-31"/>
      </g>
     </g>
    </g>
    <g id="xtick_2">
     <g id="line2d_3">
      <path clip-path="url(#pea3240545c)" d="M 321.959071 291.28 
L 321.959071 3 
" style="fill:none;stroke:#b0b0b0;stroke-linecap:square;stroke-width:0.8;"/>
     </g>
     <g id="line2d_4">
      <g>
       <use style="stroke:#000000;stroke-width:0.8;" x="321.959071" xlink:href="#m36a2f24dd6" y="291.28"/>
      </g>
     </g>
     <g id="text_2">
      <!-- 1 -->
      <g transform="translate(315.596571 313.476875)scale(0.2 -0.2)">
       <use xlink:href="#DejaVuSans-31"/>
      </g>
     </g>
    </g>
    <g id="xtick_3">
     <g id="line2d_5">
      <defs>
       <path d="M 0 0 
L 0 2 
" id="m0fe9046f02" style="stroke:#000000;stroke-width:0.6;"/>
      </defs>
      <g>
       <use style="stroke:#000000;stroke-width:0.6;" x="46.177305" xlink:href="#m0fe9046f02" y="291.28"/>
      </g>
     </g>
    </g>
    <g id="xtick_4">
     <g id="line2d_6">
      <g>
       <use style="stroke:#000000;stroke-width:0.6;" x="55.957893" xlink:href="#m0fe9046f02" y="291.28"/>
      </g>
     </g>
    </g>
    <g id="xtick_5">
     <g id="line2d_7">
      <g>
       <use style="stroke:#000000;stroke-width:0.6;" x="63.544306" xlink:href="#m0fe9046f02" y="291.28"/>
      </g>
     </g>
    </g>
    <g id="xtick_6">
     <g id="line2d_8">
      <g>
       <use style="stroke:#000000;stroke-width:0.6;" x="69.742858" xlink:href="#m0fe9046f02" y="291.28"/>
      </g>
     </g>
    </g>
    <g id="xtick_7">
     <g id="line2d_9">
      <g>
       <use style="stroke:#000000;stroke-width:0.6;" x="74.983658" xlink:href="#m0fe9046f02" y="291.28"/>
      </g>
     </g>
    </g>
    <g id="xtick_8">
     <g id="line2d_10">
      <g>
       <use style="stroke:#000000;stroke-width:0.6;" x="79.523445" xlink:href="#m0fe9046f02" y="291.28"/>
      </g>
     </g>
    </g>
    <g id="xtick_9">
     <g id="line2d_11">
      <g>
       <use style="stroke:#000000;stroke-width:0.6;" x="83.527822" xlink:href="#m0fe9046f02" y="291.28"/>
      </g>
     </g>
    </g>
    <g id="xtick_10">
     <g id="line2d_12">
      <g>
       <use style="stroke:#000000;stroke-width:0.6;" x="110.675411" xlink:href="#m0fe9046f02" y="291.28"/>
      </g>
     </g>
    </g>
    <g id="xtick_11">
     <g id="line2d_13">
      <g>
       <use style="stroke:#000000;stroke-width:0.6;" x="124.460376" xlink:href="#m0fe9046f02" y="291.28"/>
      </g>
     </g>
    </g>
    <g id="xtick_12">
     <g id="line2d_14">
      <g>
       <use style="stroke:#000000;stroke-width:0.6;" x="134.240964" xlink:href="#m0fe9046f02" y="291.28"/>
      </g>
     </g>
    </g>
    <g id="xtick_13">
     <g id="line2d_15">
      <g>
       <use style="stroke:#000000;stroke-width:0.6;" x="141.827377" xlink:href="#m0fe9046f02" y="291.28"/>
      </g>
     </g>
    </g>
    <g id="xtick_14">
     <g id="line2d_16">
      <g>
       <use style="stroke:#000000;stroke-width:0.6;" x="148.025928" xlink:href="#m0fe9046f02" y="291.28"/>
      </g>
     </g>
    </g>
    <g id="xtick_15">
     <g id="line2d_17">
      <g>
       <use style="stroke:#000000;stroke-width:0.6;" x="153.266728" xlink:href="#m0fe9046f02" y="291.28"/>
      </g>
     </g>
    </g>
    <g id="xtick_16">
     <g id="line2d_18">
      <g>
       <use style="stroke:#000000;stroke-width:0.6;" x="157.806516" xlink:href="#m0fe9046f02" y="291.28"/>
      </g>
     </g>
    </g>
    <g id="xtick_17">
     <g id="line2d_19">
      <g>
       <use style="stroke:#000000;stroke-width:0.6;" x="161.810893" xlink:href="#m0fe9046f02" y="291.28"/>
      </g>
     </g>
    </g>
    <g id="xtick_18">
     <g id="line2d_20">
      <g>
       <use style="stroke:#000000;stroke-width:0.6;" x="188.958482" xlink:href="#m0fe9046f02" y="291.28"/>
      </g>
     </g>
    </g>
    <g id="xtick_19">
     <g id="line2d_21">
      <g>
       <use style="stroke:#000000;stroke-width:0.6;" x="202.743446" xlink:href="#m0fe9046f02" y="291.28"/>
      </g>
     </g>
    </g>
    <g id="xtick_20">
     <g id="line2d_22">
      <g>
       <use style="stroke:#000000;stroke-width:0.6;" x="212.524034" xlink:href="#m0fe9046f02" y="291.28"/>
      </g>
     </g>
    </g>
    <g id="xtick_21">
     <g id="line2d_23">
      <g>
       <use style="stroke:#000000;stroke-width:0.6;" x="220.110448" xlink:href="#m0fe9046f02" y="291.28"/>
      </g>
     </g>
    </g>
    <g id="xtick_22">
     <g id="line2d_24">
      <g>
       <use style="stroke:#000000;stroke-width:0.6;" x="226.308999" xlink:href="#m0fe9046f02" y="291.28"/>
      </g>
     </g>
    </g>
    <g id="xtick_23">
     <g id="line2d_25">
      <g>
       <use style="stroke:#000000;stroke-width:0.6;" x="231.549799" xlink:href="#m0fe9046f02" y="291.28"/>
      </g>
     </g>
    </g>
    <g id="xtick_24">
     <g id="line2d_26">
      <g>
       <use style="stroke:#000000;stroke-width:0.6;" x="236.089587" xlink:href="#m0fe9046f02" y="291.28"/>
      </g>
     </g>
    </g>
    <g id="xtick_25">
     <g id="line2d_27">
      <g>
       <use style="stroke:#000000;stroke-width:0.6;" x="240.093963" xlink:href="#m0fe9046f02" y="291.28"/>
      </g>
     </g>
    </g>
    <g id="xtick_26">
     <g id="line2d_28">
      <g>
       <use style="stroke:#000000;stroke-width:0.6;" x="267.241552" xlink:href="#m0fe9046f02" y="291.28"/>
      </g>
     </g>
    </g>
    <g id="xtick_27">
     <g id="line2d_29">
      <g>
       <use style="stroke:#000000;stroke-width:0.6;" x="281.026517" xlink:href="#m0fe9046f02" y="291.28"/>
      </g>
     </g>
    </g>
    <g id="xtick_28">
     <g id="line2d_30">
      <g>
       <use style="stroke:#000000;stroke-width:0.6;" x="290.807105" xlink:href="#m0fe9046f02" y="291.28"/>
      </g>
     </g>
    </g>
    <g id="xtick_29">
     <g id="line2d_31">
      <g>
       <use style="stroke:#000000;stroke-width:0.6;" x="298.393518" xlink:href="#m0fe9046f02" y="291.28"/>
      </g>
     </g>
    </g>
    <g id="xtick_30">
     <g id="line2d_32">
      <g>
       <use style="stroke:#000000;stroke-width:0.6;" x="304.592069" xlink:href="#m0fe9046f02" y="291.28"/>
      </g>
     </g>
    </g>
    <g id="xtick_31">
     <g id="line2d_33">
      <g>
       <use style="stroke:#000000;stroke-width:0.6;" x="309.832869" xlink:href="#m0fe9046f02" y="291.28"/>
      </g>
     </g>
    </g>
    <g id="xtick_32">
     <g id="line2d_34">
      <g>
       <use style="stroke:#000000;stroke-width:0.6;" x="314.372657" xlink:href="#m0fe9046f02" y="291.28"/>
      </g>
     </g>
    </g>
    <g id="xtick_33">
     <g id="line2d_35">
      <g>
       <use style="stroke:#000000;stroke-width:0.6;" x="318.377034" xlink:href="#m0fe9046f02" y="291.28"/>
      </g>
     </g>
    </g>
    <g id="xtick_34">
     <g id="line2d_36">
      <g>
       <use style="stroke:#000000;stroke-width:0.6;" x="345.524623" xlink:href="#m0fe9046f02" y="291.28"/>
      </g>
     </g>
    </g>
    <g id="xtick_35">
     <g id="line2d_37">
      <g>
       <use style="stroke:#000000;stroke-width:0.6;" x="359.309587" xlink:href="#m0fe9046f02" y="291.28"/>
      </g>
     </g>
    </g>
    <g id="xtick_36">
     <g id="line2d_38">
      <g>
       <use style="stroke:#000000;stroke-width:0.6;" x="369.090175" xlink:href="#m0fe9046f02" y="291.28"/>
      </g>
     </g>
    </g>
    <g id="xtick_37">
     <g id="line2d_39">
      <g>
       <use style="stroke:#000000;stroke-width:0.6;" x="376.676589" xlink:href="#m0fe9046f02" y="291.28"/>
      </g>
     </g>
    </g>
    <g id="xtick_38">
     <g id="line2d_40">
      <g>
       <use style="stroke:#000000;stroke-width:0.6;" x="382.87514" xlink:href="#m0fe9046f02" y="291.28"/>
      </g>
     </g>
    </g>
    <g id="xtick_39">
     <g id="line2d_41">
      <g>
       <use style="stroke:#000000;stroke-width:0.6;" x="388.11594" xlink:href="#m0fe9046f02" y="291.28"/>
      </g>
     </g>
    </g>
    <g id="xtick_40">
     <g id="line2d_42">
      <g>
       <use style="stroke:#000000;stroke-width:0.6;" x="392.655728" xlink:href="#m0fe9046f02" y="291.28"/>
      </g>
     </g>
    </g>
    <g id="xtick_41">
     <g id="line2d_43">
      <g>
       <use style="stroke:#000000;stroke-width:0.6;" x="396.660104" xlink:href="#m0fe9046f02" y="291.28"/>
      </g>
     </g>
    </g>
    <g id="xtick_42">
     <g id="line2d_44">
      <g>
       <use style="stroke:#000000;stroke-width:0.6;" x="423.807694" xlink:href="#m0fe9046f02" y="291.28"/>
      </g>
     </g>
    </g>
    <g id="xtick_43">
     <g id="line2d_45">
      <g>
       <use style="stroke:#000000;stroke-width:0.6;" x="437.592658" xlink:href="#m0fe9046f02" y="291.28"/>
      </g>
     </g>
    </g>
    <g id="xtick_44">
     <g id="line2d_46">
      <g>
       <use style="stroke:#000000;stroke-width:0.6;" x="447.373246" xlink:href="#m0fe9046f02" y="291.28"/>
      </g>
     </g>
    </g>
    <g id="text_3">
     <!-- log10 of FEvals ratio -->
     <g transform="translate(141.371312 336.833125)scale(0.2 -0.2)">
      <defs>
       <path d="M 603 4863 
L 1178 4863 
L 1178 0 
L 603 0 
L 603 4863 
z
" id="DejaVuSans-6c" transform="scale(0.015625)"/>
       <path d="M 1959 3097 
Q 1497 3097 1228 2736 
Q 959 2375 959 1747 
Q 959 1119 1226 758 
Q 1494 397 1959 397 
Q 2419 397 2687 759 
Q 2956 1122 2956 1747 
Q 2956 2369 2687 2733 
Q 2419 3097 1959 3097 
z
M 1959 3584 
Q 2709 3584 3137 3096 
Q 3566 2609 3566 1747 
Q 3566 888 3137 398 
Q 2709 -91 1959 -91 
Q 1206 -91 779 398 
Q 353 888 353 1747 
Q 353 2609 779 3096 
Q 1206 3584 1959 3584 
z
" id="DejaVuSans-6f" transform="scale(0.015625)"/>
       <path d="M 2906 1791 
Q 2906 2416 2648 2759 
Q 2391 3103 1925 3103 
Q 1463 3103 1205 2759 
Q 947 2416 947 1791 
Q 947 1169 1205 825 
Q 1463 481 1925 481 
Q 2391 481 2648 825 
Q 2906 1169 2906 1791 
z
M 3481 434 
Q 3481 -459 3084 -895 
Q 2688 -1331 1869 -1331 
Q 1566 -1331 1297 -1286 
Q 1028 -1241 775 -1147 
L 775 -588 
Q 1028 -725 1275 -790 
Q 1522 -856 1778 -856 
Q 2344 -856 2625 -561 
Q 2906 -266 2906 331 
L 2906 616 
Q 2728 306 2450 153 
Q 2172 0 1784 0 
Q 1141 0 747 490 
Q 353 981 353 1791 
Q 353 2603 747 3093 
Q 1141 3584 1784 3584 
Q 2172 3584 2450 3431 
Q 2728 3278 2906 2969 
L 2906 3500 
L 3481 3500 
L 3481 434 
z
" id="DejaVuSans-67" transform="scale(0.015625)"/>
       <path d="M 2034 4250 
Q 1547 4250 1301 3770 
Q 1056 3291 1056 2328 
Q 1056 1369 1301 889 
Q 1547 409 2034 409 
Q 2525 409 2770 889 
Q 3016 1369 3016 2328 
Q 3016 3291 2770 3770 
Q 2525 4250 2034 4250 
z
M 2034 4750 
Q 2819 4750 3233 4129 
Q 3647 3509 3647 2328 
Q 3647 1150 3233 529 
Q 2819 -91 2034 -91 
Q 1250 -91 836 529 
Q 422 1150 422 2328 
Q 422 3509 836 4129 
Q 1250 4750 2034 4750 
z
" id="DejaVuSans-30" transform="scale(0.015625)"/>
       <path id="DejaVuSans-20" transform="scale(0.015625)"/>
       <path d="M 2375 4863 
L 2375 4384 
L 1825 4384 
Q 1516 4384 1395 4259 
Q 1275 4134 1275 3809 
L 1275 3500 
L 2222 3500 
L 2222 3053 
L 1275 3053 
L 1275 0 
L 697 0 
L 697 3053 
L 147 3053 
L 147 3500 
L 697 3500 
L 697 3744 
Q 697 4328 969 4595 
Q 1241 4863 1831 4863 
L 2375 4863 
z
" id="DejaVuSans-66" transform="scale(0.015625)"/>
       <path d="M 628 4666 
L 3309 4666 
L 3309 4134 
L 1259 4134 
L 1259 2759 
L 3109 2759 
L 3109 2228 
L 1259 2228 
L 1259 0 
L 628 0 
L 628 4666 
z
" id="DejaVuSans-46" transform="scale(0.015625)"/>
       <path d="M 628 4666 
L 3578 4666 
L 3578 4134 
L 1259 4134 
L 1259 2753 
L 3481 2753 
L 3481 2222 
L 1259 2222 
L 1259 531 
L 3634 531 
L 3634 0 
L 628 0 
L 628 4666 
z
" id="DejaVuSans-45" transform="scale(0.015625)"/>
       <path d="M 191 3500 
L 800 3500 
L 1894 563 
L 2988 3500 
L 3597 3500 
L 2284 0 
L 1503 0 
L 191 3500 
z
" id="DejaVuSans-76" transform="scale(0.015625)"/>
       <path d="M 2194 1759 
Q 1497 1759 1228 1600 
Q 959 1441 959 1056 
Q 959 750 1161 570 
Q 1363 391 1709 391 
Q 2188 391 2477 730 
Q 2766 1069 2766 1631 
L 2766 1759 
L 2194 1759 
z
M 3341 1997 
L 3341 0 
L 2766 0 
L 2766 531 
Q 2569 213 2275 61 
Q 1981 -91 1556 -91 
Q 1019 -91 701 211 
Q 384 513 384 1019 
Q 384 1609 779 1909 
Q 1175 2209 1959 2209 
L 2766 2209 
L 2766 2266 
Q 2766 2663 2505 2880 
Q 2244 3097 1772 3097 
Q 1472 3097 1187 3025 
Q 903 2953 641 2809 
L 641 3341 
Q 956 3463 1253 3523 
Q 1550 3584 1831 3584 
Q 2591 3584 2966 3190 
Q 3341 2797 3341 1997 
z
" id="DejaVuSans-61" transform="scale(0.015625)"/>
       <path d="M 2834 3397 
L 2834 2853 
Q 2591 2978 2328 3040 
Q 2066 3103 1784 3103 
Q 1356 3103 1142 2972 
Q 928 2841 928 2578 
Q 928 2378 1081 2264 
Q 1234 2150 1697 2047 
L 1894 2003 
Q 2506 1872 2764 1633 
Q 3022 1394 3022 966 
Q 3022 478 2636 193 
Q 2250 -91 1575 -91 
Q 1294 -91 989 -36 
Q 684 19 347 128 
L 347 722 
Q 666 556 975 473 
Q 1284 391 1588 391 
Q 1994 391 2212 530 
Q 2431 669 2431 922 
Q 2431 1156 2273 1281 
Q 2116 1406 1581 1522 
L 1381 1569 
Q 847 1681 609 1914 
Q 372 2147 372 2553 
Q 372 3047 722 3315 
Q 1072 3584 1716 3584 
Q 2034 3584 2315 3537 
Q 2597 3491 2834 3397 
z
" id="DejaVuSans-73" transform="scale(0.015625)"/>
       <path d="M 2631 2963 
Q 2534 3019 2420 3045 
Q 2306 3072 2169 3072 
Q 1681 3072 1420 2755 
Q 1159 2438 1159 1844 
L 1159 0 
L 581 0 
L 581 3500 
L 1159 3500 
L 1159 2956 
Q 1341 3275 1631 3429 
Q 1922 3584 2338 3584 
Q 2397 3584 2469 3576 
Q 2541 3569 2628 3553 
L 2631 2963 
z
" id="DejaVuSans-72" transform="scale(0.015625)"/>
       <path d="M 1172 4494 
L 1172 3500 
L 2356 3500 
L 2356 3053 
L 1172 3053 
L 1172 1153 
Q 1172 725 1289 603 
Q 1406 481 1766 481 
L 2356 481 
L 2356 0 
L 1766 0 
Q 1100 0 847 248 
Q 594 497 594 1153 
L 594 3053 
L 172 3053 
L 172 3500 
L 594 3500 
L 594 4494 
L 1172 4494 
z
" id="DejaVuSans-74" transform="scale(0.015625)"/>
       <path d="M 603 3500 
L 1178 3500 
L 1178 0 
L 603 0 
L 603 3500 
z
M 603 4863 
L 1178 4863 
L 1178 4134 
L 603 4134 
L 603 4863 
z
" id="DejaVuSans-69" transform="scale(0.015625)"/>
      </defs>
      <use xlink:href="#DejaVuSans-6c"/>
      <use x="27.783203" xlink:href="#DejaVuSans-6f"/>
      <use x="88.964844" xlink:href="#DejaVuSans-67"/>
      <use x="152.441406" xlink:href="#DejaVuSans-31"/>
      <use x="216.064453" xlink:href="#DejaVuSans-30"/>
      <use x="279.6875" xlink:href="#DejaVuSans-20"/>
      <use x="311.474609" xlink:href="#DejaVuSans-6f"/>
      <use x="372.65625" xlink:href="#DejaVuSans-66"/>
      <use x="407.861328" xlink:href="#DejaVuSans-20"/>
      <use x="439.648438" xlink:href="#DejaVuSans-46"/>
      <use x="497.167969" xlink:href="#DejaVuSans-45"/>
      <use x="560.351562" xlink:href="#DejaVuSans-76"/>
      <use x="619.53125" xlink:href="#DejaVuSans-61"/>
      <use x="680.810547" xlink:href="#DejaVuSans-6c"/>
      <use x="708.59375" xlink:href="#DejaVuSans-73"/>
      <use x="760.693359" xlink:href="#DejaVuSans-20"/>
      <use x="792.480469" xlink:href="#DejaVuSans-72"/>
      <use x="833.59375" xlink:href="#DejaVuSans-61"/>
      <use x="894.873047" xlink:href="#DejaVuSans-74"/>
      <use x="934.082031" xlink:href="#DejaVuSans-69"/>
      <use x="961.865234" xlink:href="#DejaVuSans-6f"/>
     </g>
    </g>
   </g>
   <g id="matplotlib.axis_2">
    <g id="ytick_1">
     <g id="line2d_47">
      <path clip-path="url(#pea3240545c)" d="M 34.16 288.453725 
L 453.192 288.453725 
" style="fill:none;stroke:#b0b0b0;stroke-linecap:square;stroke-width:0.8;"/>
     </g>
     <g id="line2d_48">
      <defs>
       <path d="M 0 0 
L -3.5 0 
" id="m5dc197eda2" style="stroke:#000000;stroke-width:0.8;"/>
      </defs>
      <g>
       <use style="stroke:#000000;stroke-width:0.8;" x="34.16" xlink:href="#m5dc197eda2" y="288.453725"/>
      </g>
     </g>
    </g>
    <g id="ytick_2">
     <g id="line2d_49">
      <path clip-path="url(#pea3240545c)" d="M 34.16 217.796863 
L 453.192 217.796863 
" style="fill:none;stroke:#b0b0b0;stroke-linecap:square;stroke-width:0.8;"/>
     </g>
     <g id="line2d_50">
      <g>
       <use style="stroke:#000000;stroke-width:0.8;" x="34.16" xlink:href="#m5dc197eda2" y="217.796863"/>
      </g>
     </g>
    </g>
    <g id="ytick_3">
     <g id="line2d_51">
      <path clip-path="url(#pea3240545c)" d="M 34.16 147.14 
L 453.192 147.14 
" style="fill:none;stroke:#b0b0b0;stroke-linecap:square;stroke-width:0.8;"/>
     </g>
     <g id="line2d_52">
      <g>
       <use style="stroke:#000000;stroke-width:0.8;" x="34.16" xlink:href="#m5dc197eda2" y="147.14"/>
      </g>
     </g>
    </g>
    <g id="ytick_4">
     <g id="line2d_53">
      <path clip-path="url(#pea3240545c)" d="M 34.16 76.483137 
L 453.192 76.483137 
" style="fill:none;stroke:#b0b0b0;stroke-linecap:square;stroke-width:0.8;"/>
     </g>
     <g id="line2d_54">
      <g>
       <use style="stroke:#000000;stroke-width:0.8;" x="34.16" xlink:href="#m5dc197eda2" y="76.483137"/>
      </g>
     </g>
    </g>
    <g id="ytick_5">
     <g id="line2d_55">
      <path clip-path="url(#pea3240545c)" d="M 34.16 5.826275 
L 453.192 5.826275 
" style="fill:none;stroke:#b0b0b0;stroke-linecap:square;stroke-width:0.8;"/>
     </g>
     <g id="line2d_56">
      <g>
       <use style="stroke:#000000;stroke-width:0.8;" x="34.16" xlink:href="#m5dc197eda2" y="5.826275"/>
      </g>
     </g>
    </g>
    <g id="text_4">
     <!-- proportion of trials -->
     <g transform="translate(19.000625 240.14625)rotate(-90)scale(0.2 -0.2)">
      <defs>
       <path d="M 1159 525 
L 1159 -1331 
L 581 -1331 
L 581 3500 
L 1159 3500 
L 1159 2969 
Q 1341 3281 1617 3432 
Q 1894 3584 2278 3584 
Q 2916 3584 3314 3078 
Q 3713 2572 3713 1747 
Q 3713 922 3314 415 
Q 2916 -91 2278 -91 
Q 1894 -91 1617 61 
Q 1341 213 1159 525 
z
M 3116 1747 
Q 3116 2381 2855 2742 
Q 2594 3103 2138 3103 
Q 1681 3103 1420 2742 
Q 1159 2381 1159 1747 
Q 1159 1113 1420 752 
Q 1681 391 2138 391 
Q 2594 391 2855 752 
Q 3116 1113 3116 1747 
z
" id="DejaVuSans-70" transform="scale(0.015625)"/>
       <path d="M 3513 2113 
L 3513 0 
L 2938 0 
L 2938 2094 
Q 2938 2591 2744 2837 
Q 2550 3084 2163 3084 
Q 1697 3084 1428 2787 
Q 1159 2491 1159 1978 
L 1159 0 
L 581 0 
L 581 3500 
L 1159 3500 
L 1159 2956 
Q 1366 3272 1645 3428 
Q 1925 3584 2291 3584 
Q 2894 3584 3203 3211 
Q 3513 2838 3513 2113 
z
" id="DejaVuSans-6e" transform="scale(0.015625)"/>
      </defs>
      <use xlink:href="#DejaVuSans-70"/>
      <use x="63.476562" xlink:href="#DejaVuSans-72"/>
      <use x="102.339844" xlink:href="#DejaVuSans-6f"/>
      <use x="163.521484" xlink:href="#DejaVuSans-70"/>
      <use x="226.998047" xlink:href="#DejaVuSans-6f"/>
      <use x="288.179688" xlink:href="#DejaVuSans-72"/>
      <use x="329.292969" xlink:href="#DejaVuSans-74"/>
      <use x="368.501953" xlink:href="#DejaVuSans-69"/>
      <use x="396.285156" xlink:href="#DejaVuSans-6f"/>
      <use x="457.466797" xlink:href="#DejaVuSans-6e"/>
      <use x="520.845703" xlink:href="#DejaVuSans-20"/>
      <use x="552.632812" xlink:href="#DejaVuSans-6f"/>
      <use x="613.814453" xlink:href="#DejaVuSans-66"/>
      <use x="649.019531" xlink:href="#DejaVuSans-20"/>
      <use x="680.806641" xlink:href="#DejaVuSans-74"/>
      <use x="720.015625" xlink:href="#DejaVuSans-72"/>
      <use x="761.128906" xlink:href="#DejaVuSans-69"/>
      <use x="788.912109" xlink:href="#DejaVuSans-61"/>
      <use x="850.191406" xlink:href="#DejaVuSans-6c"/>
      <use x="877.974609" xlink:href="#DejaVuSans-73"/>
     </g>
    </g>
   </g>
   <g id="line2d_57">
    <path clip-path="url(#pea3240545c)" d="M 34.16 223.113464 
L 50.306224 223.113464 
L 50.306224 222.805255 
L 53.122475 222.805255 
L 53.122475 222.497047 
L 53.452783 222.497047 
L 53.452783 222.188838 
L 55.414306 222.188838 
L 55.414306 221.880629 
L 57.498875 221.880629 
L 57.498875 221.57242 
L 59.106977 221.57242 
L 59.106977 221.264212 
L 59.893301 221.264212 
L 59.893301 220.956003 
L 61.983901 220.956003 
L 61.983901 220.647794 
L 62.709551 220.647794 
L 62.709551 220.339585 
L 63.03986 220.339585 
L 63.03986 220.031376 
L 63.151094 220.031376 
L 63.151094 219.723168 
L 63.884514 219.723168 
L 63.884514 219.414959 
L 64.872003 219.414959 
L 64.872003 219.10675 
L 65.001383 219.10675 
L 65.001383 218.798541 
L 66.075449 218.798541 
L 66.075449 218.490332 
L 67.085952 218.490332 
L 67.085952 218.182124 
L 68.694054 218.182124 
L 68.694054 217.873915 
L 71.570977 217.873915 
L 71.570977 217.565706 
L 72.738171 217.565706 
L 72.738171 217.257497 
L 73.47159 217.257497 
L 73.47159 216.949289 
L 74.45908 216.949289 
L 74.45908 216.64108 
L 75.662526 216.64108 
L 75.662526 216.332871 
L 79.258268 216.332871 
L 79.258268 216.024662 
L 80.784482 216.024662 
L 80.885991 215.408245 
L 81.966556 215.408245 
L 82.074519 214.791827 
L 82.404828 214.791827 
L 82.404828 214.483618 
L 83.600732 214.483618 
L 83.702241 213.867201 
L 83.931041 213.867201 
L 84.03255 213.250783 
L 84.366351 213.250783 
L 84.366351 212.942574 
L 84.56138 212.942574 
L 84.56138 212.634366 
L 84.782807 212.634366 
L 84.782807 212.326157 
L 85.113115 212.326157 
L 85.113115 212.017948 
L 85.892564 212.017948 
L 85.994073 211.401531 
L 86.450919 211.401531 
L 86.450919 211.093322 
L 87.074638 211.093322 
L 87.074638 210.785113 
L 87.377631 210.785113 
L 87.377631 210.476904 
L 87.707939 210.476904 
L 87.707939 210.168695 
L 87.977133 210.168695 
L 88.078641 209.244069 
L 89.159207 209.244069 
L 89.159207 208.93586 
L 89.585235 208.93586 
L 89.686744 208.011234 
L 90.767309 208.011234 
L 90.767309 207.703025 
L 90.935945 207.703025 
L 90.935945 207.394816 
L 91.754031 207.394816 
L 91.754031 207.086608 
L 92.103139 207.086608 
L 92.103139 206.778399 
L 92.462159 206.778399 
L 92.563667 206.161981 
L 92.836558 206.161981 
L 92.836558 205.853773 
L 93.362133 205.853773 
L 93.362133 205.545564 
L 93.629352 205.545564 
L 93.730861 204.620937 
L 93.824048 204.620937 
L 93.824048 204.312729 
L 94.362771 204.312729 
L 94.46428 203.696311 
L 94.811426 203.696311 
L 94.811426 203.388102 
L 95.027493 203.388102 
L 95.027493 203.079894 
L 95.350261 203.079894 
L 95.45177 202.463476 
L 95.544846 202.463476 
L 95.544846 202.155267 
L 96.239057 202.155267 
L 96.239057 201.847058 
L 96.532335 201.847058 
L 96.553707 201.230641 
L 96.655215 201.230641 
L 96.655215 200.922432 
L 97.40625 200.922432 
L 97.40625 200.614223 
L 97.735781 200.614223 
L 97.735781 200.306014 
L 98.13967 200.306014 
L 98.13967 199.997806 
L 99.127159 199.997806 
L 99.127159 199.689597 
L 100.330605 199.689597 
L 100.330605 199.381388 
L 122.858323 199.381388 
L 122.858323 199.073179 
L 125.674573 199.073179 
L 125.674573 198.764971 
L 126.004882 198.764971 
L 126.004882 198.456762 
L 127.966405 198.456762 
L 127.966405 198.148553 
L 130.050974 198.148553 
L 130.050974 197.840344 
L 131.659076 197.840344 
L 131.659076 197.532135 
L 134.536 197.532135 
L 134.536 197.223927 
L 135.703193 197.223927 
L 135.703193 196.915718 
L 136.436612 196.915718 
L 136.436612 196.607509 
L 137.424102 196.607509 
L 137.424102 196.2993 
L 138.627548 196.2993 
L 138.666733 195.682883 
L 141.482984 195.682883 
L 141.482984 195.374674 
L 141.813292 195.374674 
L 141.813292 195.066465 
L 143.774816 195.066465 
L 143.774816 194.758256 
L 145.642691 194.758256 
L 145.642691 194.450048 
L 145.859384 194.450048 
L 145.859384 194.141839 
L 147.467487 194.141839 
L 147.467487 193.83363 
L 150.295563 193.83363 
L 150.363504 192.909004 
L 151.511604 192.909004 
L 151.511604 192.600795 
L 152.245023 192.600795 
L 152.245023 192.292586 
L 153.232513 192.292586 
L 153.232513 191.984377 
L 154.435958 191.984377 
L 154.435958 191.676169 
L 155.229768 191.676169 
L 155.229768 191.36796 
L 157.208693 191.36796 
L 157.208693 191.059751 
L 159.882639 191.059751 
L 159.950581 190.443334 
L 161.569534 190.443334 
L 161.569534 190.135125 
L 163.692491 190.135125 
L 163.692491 189.826916 
L 165.217246 189.826916 
L 165.292559 189.210498 
L 166.508742 189.210498 
L 166.508742 188.90229 
L 166.839051 188.90229 
L 166.839051 188.594081 
L 168.800574 188.594081 
L 168.800574 188.285872 
L 169.578087 188.285872 
L 169.578087 187.977663 
L 170.885142 187.977663 
L 170.885142 187.669455 
L 172.269398 187.669455 
L 172.313358 187.053037 
L 172.493245 187.053037 
L 172.510328 186.436619 
L 173.301112 186.436619 
L 173.301112 186.128411 
L 174.594736 186.128411 
L 174.594736 185.820202 
L 175.370168 185.820202 
L 175.370168 185.511993 
L 175.755795 185.511993 
L 175.755795 185.203784 
L 176.120949 185.203784 
L 176.222458 184.587367 
L 176.537362 184.587367 
L 176.537362 184.279158 
L 176.6742 184.279158 
L 176.705971 183.66274 
L 176.87117 183.66274 
L 176.87117 183.354532 
L 177.270781 183.354532 
L 177.303023 182.738114 
L 178.258271 182.738114 
L 178.258271 182.429905 
L 179.247607 182.429905 
L 179.315548 181.813488 
L 179.461716 181.813488 
L 179.461716 181.505279 
L 179.897847 181.505279 
L 179.897847 181.19707 
L 180.277951 181.19707 
L 180.277951 180.888861 
L 180.397225 180.888861 
L 180.397225 180.580653 
L 180.594194 180.580653 
L 180.594194 180.272444 
L 180.77382 180.272444 
L 180.875329 179.347817 
L 180.943271 179.347817 
L 180.943271 179.039609 
L 181.066813 179.039609 
L 181.066813 178.7314 
L 181.955894 178.7314 
L 182.023836 178.114982 
L 184.550718 178.114982 
L 184.61866 177.498565 
L 184.789838 177.498565 
L 184.789838 177.190356 
L 185.342872 177.190356 
L 185.342872 176.882147 
L 187.374063 176.882147 
L 187.374063 176.573938 
L 187.571033 176.573938 
L 187.571033 176.26573 
L 191.766677 176.26573 
L 191.766677 175.957521 
L 194.003673 175.957521 
L 194.003673 175.649312 
L 194.93673 175.649312 
L 194.93673 175.341103 
L 196.028022 175.341103 
L 196.028022 175.032895 
L 202.012226 175.032895 
L 202.012226 174.724686 
L 202.6997 174.724686 
L 202.6997 174.416477 
L 202.923885 174.416477 
L 202.923885 174.108268 
L 203.367279 174.108268 
L 203.367279 173.800059 
L 204.341223 173.800059 
L 204.341223 173.491851 
L 204.70784 173.491851 
L 204.70784 173.183642 
L 206.183529 173.183642 
L 206.234053 172.567224 
L 206.335562 172.567224 
L 206.335562 172.259016 
L 206.513838 172.259016 
L 206.513838 171.950807 
L 207.157473 171.950807 
L 207.157473 171.642598 
L 207.416127 171.642598 
L 207.487782 171.02618 
L 208.475361 171.02618 
L 208.475361 170.717972 
L 208.947834 170.717972 
L 208.947834 170.409763 
L 209.108338 170.409763 
L 209.108338 170.101554 
L 209.305308 170.101554 
L 209.305308 169.793345 
L 209.449305 169.793345 
L 209.449305 169.485137 
L 210.010951 169.485137 
L 210.010951 169.176928 
L 210.559929 169.176928 
L 210.559929 168.868719 
L 210.708253 168.868719 
L 210.708253 168.56051 
L 210.932437 168.56051 
L 210.932437 168.252301 
L 211.533874 168.252301 
L 211.533874 167.944093 
L 211.902483 167.944093 
L 211.902483 167.635884 
L 212.168032 167.635884 
L 212.168032 167.327675 
L 213.141976 167.327675 
L 213.215186 166.711258 
L 213.500952 166.711258 
L 213.500952 166.403049 
L 214.323285 166.403049 
L 214.323285 166.09484 
L 214.978272 166.09484 
L 215.044955 165.478422 
L 215.248107 165.478422 
L 215.248107 165.170214 
L 215.584735 165.170214 
L 215.584735 164.862005 
L 216.0189 164.862005 
L 216.069564 164.245587 
L 216.212149 164.245587 
L 216.212149 163.937378 
L 216.945568 163.937378 
L 216.956387 163.320961 
L 217.186093 163.320961 
L 217.186093 163.012752 
L 217.482106 163.012752 
L 217.482106 162.704543 
L 217.668909 162.704543 
L 217.668909 162.396335 
L 217.804366 162.396335 
L 217.804366 162.088126 
L 217.919512 162.088126 
L 218.02855 160.855291 
L 218.101034 160.855291 
L 218.19479 160.238873 
L 218.22552 160.238873 
L 218.22552 159.930664 
L 218.378085 159.930664 
L 218.378085 159.622456 
L 218.907002 159.622456 
L 218.930358 159.006038 
L 219.136503 159.006038 
L 219.136503 158.697829 
L 219.304625 158.697829 
L 219.304625 158.38962 
L 220.110448 158.38962 
L 220.110448 158.081412 
L 220.341227 158.081412 
L 220.341227 157.773203 
L 220.521836 157.773203 
L 220.521836 157.464994 
L 220.728904 157.464994 
L 220.82773 156.540368 
L 221.223738 156.540368 
L 221.223738 156.232159 
L 221.453907 156.232159 
L 221.453907 155.92395 
L 221.725427 155.92395 
L 221.783286 155.307533 
L 222.060337 155.307533 
L 222.060337 154.999324 
L 222.196979 154.999324 
L 222.196979 154.691115 
L 222.421163 154.691115 
L 222.421163 154.382906 
L 222.559268 154.382906 
L 222.559268 154.074698 
L 222.762029 154.074698 
L 222.847661 153.45828 
L 222.915603 153.45828 
L 222.986877 152.841862 
L 223.240157 152.841862 
L 223.240157 152.533654 
L 223.680657 152.533654 
L 223.680657 152.225445 
L 223.79486 152.225445 
L 223.87471 151.609027 
L 223.957708 151.609027 
L 224.0525 150.376192 
L 224.074528 150.376192 
L 224.074528 150.067983 
L 224.249469 150.067983 
L 224.249469 149.759775 
L 224.884248 149.759775 
L 224.98007 149.143357 
L 225.136159 149.143357 
L 225.136159 148.835148 
L 225.44965 148.835148 
L 225.44965 148.52694 
L 225.660959 148.52694 
L 225.660959 148.218731 
L 225.92085 148.218731 
L 225.92085 147.910522 
L 226.215662 147.910522 
L 226.24152 147.294104 
L 226.426031 147.294104 
L 226.426031 146.985896 
L 226.922409 146.985896 
L 226.927455 146.369478 
L 227.03353 146.369478 
L 227.095846 145.75306 
L 227.204506 145.75306 
L 227.204506 145.444852 
L 227.477112 145.444852 
L 227.477112 145.136643 
L 227.687481 145.136643 
L 227.687481 144.828434 
L 228.131047 144.828434 
L 228.138891 144.212017 
L 228.319851 144.212017 
L 228.319851 143.903808 
L 228.445113 143.903808 
L 228.516821 143.28739 
L 228.795274 143.28739 
L 228.865644 142.362764 
L 228.996845 142.362764 
L 228.996845 142.054555 
L 229.167649 142.054555 
L 229.167649 141.746346 
L 229.374483 141.746346 
L 229.374483 141.438138 
L 229.516648 141.438138 
L 229.584852 140.82172 
L 230.269495 140.82172 
L 230.331619 139.588885 
L 230.523776 139.588885 
L 230.565698 138.972467 
L 230.778098 138.972467 
L 230.790568 138.35605 
L 230.919505 138.35605 
L 230.919505 138.047841 
L 231.378563 138.047841 
L 231.417647 137.123215 
L 231.620115 137.123215 
L 231.689167 135.582171 
L 231.925252 135.582171 
L 231.925252 135.273962 
L 232.066578 135.273962 
L 232.066578 134.965753 
L 232.18607 134.965753 
L 232.211268 134.041127 
L 232.469855 134.041127 
L 232.469855 133.732918 
L 232.621281 133.732918 
L 232.712464 132.191874 
L 232.769443 132.191874 
L 232.851792 131.267248 
L 232.899776 131.267248 
L 232.899776 130.959039 
L 233.150275 130.959039 
L 233.150275 130.65083 
L 233.277362 130.65083 
L 233.381238 130.034413 
L 233.677243 130.034413 
L 233.746838 129.109786 
L 233.884461 129.109786 
L 233.991068 127.568742 
L 234.003201 127.568742 
L 234.066064 126.952325 
L 234.136191 126.952325 
L 234.229519 126.027699 
L 234.47253 126.027699 
L 234.576468 125.103072 
L 234.643064 125.103072 
L 234.683066 124.486655 
L 234.835726 124.486655 
L 234.83813 123.870237 
L 234.952264 123.870237 
L 235.001074 122.945611 
L 235.064195 122.945611 
L 235.064195 122.637402 
L 235.26125 122.637402 
L 235.341246 121.712776 
L 235.408427 121.712776 
L 235.468035 121.096358 
L 235.792793 121.096358 
L 235.849118 120.479941 
L 235.922267 120.479941 
L 236.027587 119.555314 
L 236.043556 119.555314 
L 236.106435 118.938897 
L 236.247722 118.938897 
L 236.352542 117.397853 
L 236.499719 117.397853 
L 236.56115 116.473226 
L 236.787324 116.473226 
L 236.807221 115.5486 
L 236.989119 115.5486 
L 237.02501 114.932183 
L 237.230085 114.932183 
L 237.304388 114.007556 
L 237.342027 114.007556 
L 237.342027 113.699347 
L 237.552396 113.699347 
L 237.647918 112.774721 
L 237.733762 112.774721 
L 237.823267 111.850095 
L 238.095717 111.850095 
L 238.19271 110.61726 
L 238.258357 110.61726 
L 238.258357 110.309051 
L 238.406091 110.309051 
L 238.417068 109.692633 
L 238.532329 109.692633 
L 238.532329 109.384424 
L 238.656072 109.384424 
L 238.724013 108.768007 
L 238.770364 108.768007 
L 238.875784 107.535172 
L 238.881817 107.535172 
L 238.881817 107.226963 
L 239.003906 107.226963 
L 239.095916 106.302337 
L 239.229312 106.302337 
L 239.229312 105.994128 
L 239.475035 105.994128 
L 239.522429 105.37771 
L 239.720258 105.37771 
L 239.720258 105.069502 
L 239.883044 105.069502 
L 239.883044 104.761293 
L 240.050217 104.761293 
L 240.153634 103.528458 
L 240.203318 103.528458 
L 240.284175 102.91204 
L 240.341992 102.91204 
L 240.360063 101.987414 
L 240.48992 101.987414 
L 240.48992 101.679205 
L 240.608564 101.679205 
L 240.643013 101.062787 
L 240.758021 101.062787 
L 240.758021 100.754579 
L 240.96839 100.754579 
L 240.988405 100.138161 
L 241.17154 100.138161 
L 241.17154 99.829952 
L 241.286603 99.829952 
L 241.286603 99.521744 
L 241.447353 99.521744 
L 241.447353 99.213535 
L 241.666586 99.213535 
L 241.669293 98.597117 
L 241.943637 98.597117 
L 242.00876 97.672491 
L 242.128242 97.672491 
L 242.223996 96.747865 
L 242.276901 96.747865 
L 242.323205 96.131447 
L 242.434365 96.131447 
L 242.544012 95.206821 
L 242.597182 95.206821 
L 242.682945 94.590403 
L 242.721833 94.590403 
L 242.726931 93.973986 
L 242.870178 93.973986 
L 242.957789 93.049359 
L 243.132723 93.049359 
L 243.132723 92.74115 
L 243.366843 92.74115 
L 243.435885 92.124733 
L 243.512492 92.124733 
L 243.512492 91.816524 
L 243.722861 91.816524 
L 243.816662 90.891898 
L 243.876659 90.891898 
L 243.90678 90.27548 
L 244.059007 90.27548 
L 244.059007 89.967271 
L 244.331589 89.967271 
L 244.331589 89.659063 
L 244.497794 89.659063 
L 244.541246 88.734436 
L 244.806676 88.734436 
L 244.827952 88.118019 
L 245.01946 88.118019 
L 245.01946 87.80981 
L 245.222135 87.80981 
L 245.267456 87.193392 
L 245.382929 87.193392 
L 245.485284 86.576975 
L 245.524982 86.576975 
L 245.628441 85.960557 
L 245.731785 85.960557 
L 245.825411 85.035931 
L 245.960006 85.035931 
L 245.995145 83.803096 
L 246.124821 83.803096 
L 246.207245 83.186678 
L 246.254946 83.186678 
L 246.254946 82.878469 
L 246.68873 82.878469 
L 246.728565 82.262052 
L 246.805709 82.262052 
L 246.903041 80.721008 
L 247.232656 80.721008 
L 247.261014 80.10459 
L 247.360412 80.10459 
L 247.458391 78.871755 
L 247.570782 78.871755 
L 247.570782 78.563547 
L 247.716054 78.563547 
L 247.716054 78.255338 
L 247.88493 78.255338 
L 247.88493 77.947129 
L 248.05877 77.947129 
L 248.1523 77.330711 
L 248.307894 77.330711 
L 248.307894 77.022503 
L 248.698631 77.022503 
L 248.714477 76.406085 
L 248.9195 76.406085 
L 248.9195 76.097876 
L 249.077824 76.097876 
L 249.15758 75.481459 
L 249.317703 75.481459 
L 249.317703 75.17325 
L 249.514673 75.17325 
L 249.552869 74.556832 
L 249.703769 74.556832 
L 249.703769 74.248624 
L 249.987127 74.248624 
L 250.021055 73.632206 
L 250.552093 73.632206 
L 250.661398 72.70758 
L 250.853498 72.70758 
L 250.858573 72.091162 
L 250.978823 72.091162 
L 251.005227 71.474745 
L 251.282278 71.474745 
L 251.308427 70.858327 
L 252.208818 70.858327 
L 252.251473 70.241909 
L 252.324548 70.241909 
L 252.405796 69.625492 
L 252.562398 69.625492 
L 252.562398 69.317283 
L 252.682847 69.317283 
L 252.783497 68.392657 
L 253.24542 68.392657 
L 253.24542 68.084448 
L 253.609388 68.084448 
L 253.710316 67.159822 
L 253.832586 67.159822 
L 253.897716 66.235195 
L 253.980449 66.235195 
L 253.980449 65.926987 
L 254.177419 65.926987 
L 254.177419 65.618778 
L 254.3581 65.618778 
L 254.3581 65.310569 
L 254.64599 65.310569 
L 254.64599 65.00236 
L 255.154883 65.00236 
L 255.154883 64.694151 
L 255.351852 64.694151 
L 255.351852 64.385943 
L 255.463461 64.385943 
L 255.500139 63.769525 
L 255.75867 63.769525 
L 255.75867 63.461316 
L 255.87739 63.461316 
L 255.939126 62.844899 
L 256.14435 62.844899 
L 256.14435 62.53669 
L 256.699053 62.53669 
L 256.750644 61.920272 
L 256.864031 61.920272 
L 256.909422 61.303855 
L 257.027694 61.303855 
L 257.027694 60.995646 
L 257.460964 60.995646 
L 257.544919 60.379229 
L 257.602905 60.379229 
L 257.602905 60.07102 
L 257.954235 60.07102 
L 257.954235 59.762811 
L 258.099622 59.762811 
L 258.099622 59.454602 
L 258.309991 59.454602 
L 258.373062 58.838185 
L 258.990837 58.838185 
L 259.028959 58.221767 
L 259.547496 58.221767 
L 259.547496 57.913558 
L 260.000039 57.913558 
L 260.103517 57.297141 
L 261.208878 57.297141 
L 261.208878 56.988932 
L 261.400608 56.988932 
L 261.400608 56.680723 
L 261.889767 56.680723 
L 261.901038 56.064306 
L 262.444469 56.064306 
L 262.444469 55.756097 
L 262.654839 55.756097 
L 262.654839 55.447888 
L 263.173688 55.447888 
L 263.173688 55.139679 
L 263.301608 55.139679 
L 263.301608 54.83147 
L 263.508692 54.83147 
L 263.508692 54.523262 
L 263.68183 54.523262 
L 263.749771 53.906844 
L 263.947679 53.906844 
L 263.947679 53.598635 
L 264.116305 53.598635 
L 264.116305 53.290427 
L 264.545614 53.290427 
L 264.574257 52.674009 
L 265.745456 52.674009 
L 265.745456 52.3658 
L 266.799605 52.3658 
L 266.799605 52.057591 
L 267.117204 52.057591 
L 267.117204 51.749383 
L 267.646455 51.749383 
L 267.646455 51.441174 
L 268.200174 51.441174 
L 268.200174 51.132965 
L 268.906455 51.132965 
L 268.995289 50.208339 
L 270.604804 50.208339 
L 270.604804 49.90013 
L 270.801774 49.90013 
L 270.801774 49.591921 
L 271.043791 49.591921 
L 271.043791 49.283712 
L 271.240761 49.283712 
L 271.240761 48.975504 
L 271.438044 48.975504 
L 271.438044 48.667295 
L 272.545022 48.667295 
L 272.62948 47.742669 
L 273.042702 47.742669 
L 273.042702 47.43446 
L 274.442898 47.43446 
L 274.500272 46.818042 
L 274.997418 46.818042 
L 274.997418 46.509833 
L 275.436404 46.509833 
L 275.436404 46.201625 
L 275.566861 46.201625 
L 275.566861 45.893416 
L 275.813232 45.893416 
L 275.813232 45.585207 
L 276.037416 45.585207 
L 276.037416 45.276998 
L 277.691316 45.276998 
L 277.691316 44.96879 
L 277.9155 44.96879 
L 277.9155 44.660581 
L 278.861113 44.660581 
L 278.861113 44.352372 
L 279.33718 44.352372 
L 279.33718 44.044163 
L 279.606319 44.044163 
L 279.606319 43.735954 
L 280.134072 43.735954 
L 280.134072 43.427746 
L 280.358256 43.427746 
L 280.358256 43.119537 
L 281.2838 43.119537 
L 281.2838 42.811328 
L 281.507984 42.811328 
L 281.507984 42.503119 
L 281.73873 42.503119 
L 281.73873 42.194911 
L 281.962914 42.194911 
L 282.061366 41.578493 
L 282.584138 41.578493 
L 282.584138 41.270284 
L 283.138926 41.270284 
L 283.138926 40.962075 
L 283.36311 40.962075 
L 283.36311 40.653867 
L 283.93945 40.653867 
L 283.93945 40.345658 
L 284.262889 40.345658 
L 284.262889 40.037449 
L 284.487073 40.037449 
L 284.487073 39.72924 
L 286.328717 39.72924 
L 286.382206 39.112823 
L 287.531934 39.112823 
L 287.531934 38.804614 
L 287.986864 38.804614 
L 288.033207 38.188196 
L 288.206801 38.188196 
L 288.257391 37.571779 
L 289.142063 37.571779 
L 289.142063 37.26357 
L 289.38706 37.26357 
L 289.38706 36.955361 
L 289.560977 36.955361 
L 289.560977 36.647152 
L 290.511023 36.647152 
L 290.511023 36.338944 
L 290.649557 36.338944 
L 290.649557 36.030735 
L 291.799285 36.030735 
L 291.799285 35.722526 
L 292.254215 35.722526 
L 292.254215 35.414317 
L 293.654411 35.414317 
L 293.654411 35.106109 
L 294.281341 35.106109 
L 294.281341 34.7979 
L 294.778374 34.7979 
L 294.778374 34.489691 
L 298.548692 34.489691 
L 298.548692 34.181482 
L 298.703746 34.181482 
L 298.703746 33.873273 
L 299.67769 33.873273 
L 299.67769 33.565065 
L 301.340594 33.565065 
L 301.340594 33.256856 
L 303.356617 33.256856 
L 303.424559 32.640438 
L 303.637307 32.640438 
L 303.637307 32.33223 
L 304.330561 32.33223 
L 304.398503 31.715812 
L 305.515392 31.715812 
L 305.515392 31.407603 
L 307.326569 31.407603 
L 307.326569 31.099394 
L 307.958147 31.099394 
L 307.958147 30.791186 
L 309.107876 30.791186 
L 309.204653 30.174768 
L 309.562805 30.174768 
L 309.562805 29.866559 
L 310.036621 29.866559 
L 310.036621 29.558351 
L 310.260806 29.558351 
L 310.260806 29.250142 
L 310.963001 29.250142 
L 310.963001 28.941933 
L 311.295252 28.941933 
L 311.295252 28.633724 
L 311.647409 28.633724 
L 311.647409 28.325515 
L 311.989315 28.325515 
L 312.086964 27.709098 
L 312.797137 27.709098 
L 312.797137 27.400889 
L 313.163748 27.400889 
L 313.252067 26.784472 
L 313.867399 26.784472 
L 313.867399 26.476263 
L 314.652263 26.476263 
L 314.652263 26.168054 
L 315.041833 26.168054 
L 315.041833 25.859845 
L 315.776226 25.859845 
L 315.857283 25.243428 
L 316.284755 25.243428 
L 316.310155 24.62701 
L 317.459883 24.62701 
L 317.484589 24.010593 
L 317.914813 24.010593 
L 317.914813 23.702384 
L 318.634317 23.702384 
L 318.634317 23.394175 
L 319.089247 23.394175 
L 319.089247 23.085966 
L 319.315009 23.085966 
L 319.315009 22.777757 
L 319.546544 22.777757 
L 319.546544 22.469549 
L 319.991279 22.469549 
L 319.991279 22.16134 
L 320.215463 22.16134 
L 320.215463 21.853131 
L 320.438972 21.853131 
L 320.489443 21.236713 
L 320.552106 21.236713 
L 320.552106 20.928505 
L 321.613406 20.928505 
L 321.613406 20.620296 
L 324.20929 20.620296 
L 324.20929 20.312087 
L 325.383724 20.312087 
L 325.383724 20.003878 
L 326.239413 20.003878 
L 326.255972 19.387461 
L 327.025634 19.387461 
L 327.025634 19.079252 
L 328.486742 19.079252 
L 328.486742 18.771043 
L 328.61367 18.771043 
L 328.61367 18.462834 
L 328.81685 18.462834 
L 328.81685 18.154626 
L 329.052657 18.154626 
L 329.052657 17.846417 
L 329.790794 17.846417 
L 329.790794 17.538208 
L 330.491755 17.538208 
L 330.506764 16.921791 
L 330.908843 16.921791 
L 330.976785 15.997164 
L 331.678505 15.997164 
L 331.746447 15.380747 
L 332.93451 15.380747 
L 332.93451 15.072538 
L 333.139614 15.072538 
L 333.207555 14.45612 
L 333.373497 14.45612 
L 333.373497 14.147912 
L 334.084239 14.147912 
L 334.084239 13.839703 
L 334.523225 13.839703 
L 334.539168 13.223285 
L 334.978155 13.223285 
L 334.978155 12.915076 
L 335.939364 12.915076 
L 335.939364 12.606868 
L 336.378351 12.606868 
L 336.378351 12.298659 
L 337.063327 12.298659 
L 337.063327 11.99045 
L 337.502314 11.99045 
L 337.502314 11.682241 
L 337.860697 11.682241 
L 337.860697 11.374033 
L 340.833646 11.374033 
L 340.833646 11.065824 
L 341.272632 11.065824 
L 341.272632 10.757615 
L 341.549959 10.757615 
L 341.549959 10.449406 
L 346.212704 10.449406 
L 346.212704 10.141197 
L 347.387138 10.141197 
L 347.387138 9.832989 
L 347.815355 9.832989 
L 347.815355 9.52478 
L 351.504616 9.52478 
L 351.504616 9.216571 
L 356.167362 9.216571 
L 356.167362 8.908362 
L 356.369076 8.908362 
L 356.369076 8.600154 
L 357.138738 8.600154 
L 357.138738 8.291945 
L 357.341796 8.291945 
L 357.341796 7.983736 
L 358.599846 7.983736 
L 358.599846 7.675527 
L 362.83706 7.675527 
L 362.83706 7.367318 
L 363.276047 7.367318 
L 363.276047 7.05911 
L 372.791718 7.05911 
L 372.791718 6.750901 
L 373.230705 6.750901 
L 373.230705 6.442692 
L 453.192 6.442692 
L 453.192 6.442692 
" style="fill:none;stroke:#000000;stroke-linecap:square;stroke-width:3;"/>
   </g>
   <g id="line2d_58">
    <path clip-path="url(#pea3240545c)" style="fill:none;stroke:#000000;stroke-linecap:square;stroke-width:3;"/>
   </g>
   <g id="line2d_59">
    <path clip-path="url(#pea3240545c)" d="M 34.16 174.901781 
L 92.927605 174.901781 
L 92.96217 174.06684 
L 93.142787 174.06684 
L 93.142787 173.649369 
L 93.40721 173.649369 
L 93.482809 172.814429 
L 93.929505 172.814429 
L 93.96407 171.562018 
L 94.144687 171.562018 
L 94.144687 171.144547 
L 94.40911 171.144547 
L 94.484709 170.309606 
L 94.957277 170.309606 
L 94.961172 169.474666 
L 95.746742 169.474666 
L 95.746742 169.057195 
L 95.963072 169.057195 
L 95.990878 168.222254 
L 96.748642 168.222254 
L 96.748642 167.804784 
L 96.907378 167.804784 
L 96.907378 167.387314 
L 97.703331 167.387314 
L 97.703331 166.969843 
L 98.846661 166.969843 
L 98.903265 166.134903 
L 99.763161 166.134903 
L 99.763161 165.717432 
L 100.559114 165.717432 
L 100.559114 165.299962 
L 100.782577 165.299962 
L 100.782577 164.882491 
L 100.987781 164.882491 
L 100.987781 164.465021 
L 101.699077 164.465021 
L 101.759048 163.63008 
L 101.904282 163.63008 
L 101.904282 163.21261 
L 102.49503 163.21261 
L 102.495554 162.377669 
L 102.700235 162.377669 
L 102.711547 161.542728 
L 103.412054 161.542728 
L 103.412054 161.125258 
L 103.562053 161.125258 
L 103.628047 160.290317 
L 103.694964 160.290317 
L 103.694964 159.872847 
L 103.900169 159.872847 
L 103.900169 159.455376 
L 104.208007 159.455376 
L 104.299128 158.620436 
L 104.424 158.620436 
L 104.478554 157.785495 
L 105.215628 157.785495 
L 105.274507 156.950554 
L 105.407941 156.950554 
L 105.407941 156.533084 
L 105.623934 156.533084 
L 105.623934 156.115613 
L 106.011581 156.115613 
L 106.011581 155.698143 
L 106.47444 155.698143 
L 106.47444 155.280673 
L 107.211515 155.280673 
L 107.211515 154.863202 
L 108.537642 154.863202 
L 108.537642 154.445732 
L 109.454142 154.445732 
L 109.454142 154.028261 
L 110.070782 154.028261 
L 110.070782 153.610791 
L 110.250095 153.610791 
L 110.250095 153.193321 
L 110.987282 153.193321 
L 110.987282 152.77585 
L 111.450029 152.77585 
L 111.450029 152.35838 
L 111.783235 152.35838 
L 111.783235 151.940909 
L 112.388198 151.940909 
L 112.388198 151.523439 
L 112.983169 151.523439 
L 112.983169 151.105969 
L 113.160596 151.105969 
L 113.160596 150.688498 
L 113.67861 150.688498 
L 113.67861 150.271028 
L 114.382373 150.271028 
L 114.382373 149.853558 
L 114.868158 149.853558 
L 114.868158 149.436087 
L 115.029972 149.436087 
L 115.029972 149.018617 
L 115.243981 149.018617 
L 115.243981 148.601146 
L 115.410322 148.601146 
L 115.410322 148.183676 
L 115.870057 148.183676 
L 115.870057 147.766206 
L 116.016379 147.766206 
L 116.031872 146.931265 
L 116.534393 146.931265 
L 116.534393 146.513794 
L 117.179897 146.513794 
L 117.238156 145.261383 
L 117.385102 145.261383 
L 117.385102 144.843913 
L 117.952295 144.843913 
L 117.952295 144.426442 
L 118.1575 144.426442 
L 118.266105 143.591502 
L 118.470309 143.591502 
L 118.470309 143.174031 
L 118.675514 143.174031 
L 118.675514 142.756561 
L 118.892874 142.756561 
L 118.892874 142.339091 
L 119.108867 142.339091 
L 119.174072 141.50415 
L 119.379277 141.50415 
L 119.379277 141.086679 
L 119.665272 141.086679 
L 119.665272 140.669209 
L 119.881265 140.669209 
L 119.959373 139.834268 
L 120.078669 139.834268 
L 120.183286 138.999327 
L 120.202021 138.999327 
L 120.202021 138.581857 
L 120.399279 138.581857 
L 120.407226 137.746916 
L 120.696448 137.746916 
L 120.731771 136.911976 
L 120.887049 136.911976 
L 120.887049 136.494505 
L 121.103042 136.494505 
L 121.103042 136.077035 
L 121.249786 136.077035 
L 121.249786 135.659564 
L 121.468846 135.659564 
L 121.468846 135.242094 
L 121.914998 135.242094 
L 122.014585 133.572212 
L 122.130991 133.572212 
L 122.21979 132.737272 
L 122.690623 132.737272 
L 122.690623 132.319801 
L 122.981497 132.319801 
L 122.981497 131.902331 
L 123.718572 131.902331 
L 123.727562 131.06739 
L 123.943555 131.06739 
L 123.943555 130.64992 
L 124.794062 130.64992 
L 124.794062 130.232449 
L 124.934962 130.232449 
L 124.934962 129.814979 
L 125.531136 129.814979 
L 125.531136 129.397509 
L 125.70736 129.397509 
L 125.70736 128.980038 
L 126.225374 128.980038 
L 126.225374 128.562568 
L 126.468102 128.562568 
L 126.468102 128.145097 
L 126.929137 128.145097 
L 126.929137 127.727627 
L 127.2405 127.727627 
L 127.2405 127.310157 
L 127.758514 127.310157 
L 127.758514 126.892686 
L 127.957086 126.892686 
L 127.957086 126.475216 
L 128.462277 126.475216 
L 128.462277 126.057746 
L 129.490226 126.057746 
L 129.490226 125.640275 
L 129.76965 125.640275 
L 129.76965 125.222805 
L 131.30279 125.222805 
L 131.30279 124.805334 
L 156.611722 124.805334 
L 156.646287 123.970394 
L 156.826905 123.970394 
L 156.880472 122.717982 
L 157.06109 122.717982 
L 157.166926 121.465571 
L 157.325512 121.465571 
L 157.401111 120.630631 
L 157.639494 120.630631 
L 157.639494 120.21316 
L 157.873679 120.21316 
L 157.973993 119.378219 
L 158.008558 119.378219 
L 158.008558 118.960749 
L 158.189175 118.960749 
L 158.189175 118.543279 
L 158.453598 118.543279 
L 158.529197 117.708338 
L 158.645289 117.708338 
L 158.645289 117.290867 
L 158.879474 117.290867 
L 158.879474 116.873397 
L 159.001765 116.873397 
L 159.001765 116.455927 
L 159.260315 116.455927 
L 159.29488 115.620986 
L 159.43086 115.620986 
L 159.475498 114.786045 
L 159.665044 114.786045 
L 159.73992 113.951104 
L 159.815519 113.951104 
L 159.815519 113.533634 
L 160.00756 113.533634 
L 160.00756 113.116164 
L 160.170653 113.116164 
L 160.205217 112.281223 
L 160.288087 112.281223 
L 160.385835 111.446282 
L 160.616965 111.446282 
L 160.725857 110.193871 
L 160.79313 110.193871 
L 160.79313 109.7764 
L 160.919902 109.7764 
L 160.954467 108.94146 
L 161.101738 108.94146 
L 161.198425 107.271578 
L 161.293883 107.271578 
L 161.399507 106.019167 
L 161.475106 106.019167 
L 161.581343 104.766756 
L 161.656942 104.766756 
L 161.656942 104.349285 
L 161.892745 104.349285 
L 161.947674 103.096874 
L 162.079453 103.096874 
L 162.12951 101.844463 
L 162.20422 101.844463 
L 162.20422 101.426993 
L 162.329418 101.426993 
L 162.37235 100.592052 
L 162.447949 100.592052 
L 162.447949 100.174582 
L 162.920517 100.174582 
L 162.98979 98.92217 
L 163.135305 98.92217 
L 163.135305 98.5047 
L 163.469821 98.5047 
L 163.529352 97.669759 
L 163.73904 97.669759 
L 163.73904 97.252289 
L 163.920875 97.252289 
L 163.926312 96.417348 
L 164.386321 96.417348 
L 164.431652 95.582407 
L 164.518741 95.582407 
L 164.518741 95.164937 
L 164.711883 95.164937 
L 164.711883 94.747467 
L 165.182274 94.747467 
L 165.182274 94.329996 
L 165.435242 94.329996 
L 165.435242 93.912526 
L 166.231195 93.912526 
L 166.231195 93.495055 
L 166.382208 93.495055 
L 166.382208 93.077585 
L 167.287435 93.077585 
L 167.349043 92.242644 
L 167.431128 92.242644 
L 167.431128 91.825174 
L 169.223352 91.825174 
L 169.223352 91.407704 
L 169.428556 91.407704 
L 169.428556 90.990233 
L 170.204826 90.990233 
L 170.204826 90.572763 
L 170.936328 90.572763 
L 170.936328 90.155292 
L 171.152322 90.155292 
L 171.152322 89.737822 
L 172.002828 89.737822 
L 172.002828 89.320352 
L 172.140742 89.320352 
L 172.140742 88.902881 
L 172.345947 88.902881 
L 172.345947 88.485411 
L 172.739903 88.485411 
L 172.739903 88.06794 
L 173.853719 88.06794 
L 173.853719 87.65047 
L 174.069712 87.65047 
L 174.069712 87.233 
L 174.261092 87.233 
L 174.261092 86.815529 
L 174.553471 86.815529 
L 174.553471 86.398059 
L 174.920218 86.398059 
L 174.920218 85.980589 
L 175.657293 85.980589 
L 175.657293 85.563118 
L 176.978417 85.563118 
L 177.014285 84.728177 
L 177.116875 84.728177 
L 177.116875 84.310707 
L 177.409254 84.310707 
L 177.409254 83.893237 
L 177.786683 83.893237 
L 177.786683 83.475766 
L 178.304697 83.475766 
L 178.304697 83.058296 
L 178.511556 83.058296 
L 178.552275 82.223355 
L 178.71409 82.223355 
L 178.78646 81.388414 
L 178.948275 81.388414 
L 179.052792 80.136003 
L 179.257996 80.136003 
L 179.34517 79.301062 
L 179.550375 79.301062 
L 179.550375 78.883592 
L 179.867141 78.883592 
L 179.914545 77.631181 
L 180.036409 77.631181 
L 180.07636 76.79624 
L 180.639539 76.79624 
L 180.639539 76.37877 
L 180.765768 76.37877 
L 180.765768 75.961299 
L 180.916061 75.961299 
L 180.981761 75.126359 
L 181.058147 75.126359 
L 181.157553 74.291418 
L 181.200868 74.291418 
L 181.27414 73.456477 
L 181.362683 73.456477 
L 181.428947 72.621536 
L 181.688459 72.621536 
L 181.688459 72.204066 
L 181.832268 72.204066 
L 181.861316 70.951655 
L 182.111205 70.951655 
L 182.206474 69.699243 
L 182.27302 69.699243 
L 182.27302 69.281773 
L 182.569342 69.281773 
L 182.569342 68.864303 
L 182.860455 68.864303 
L 182.910237 67.194421 
L 183.02227 67.194421 
L 183.04229 66.35948 
L 183.204105 66.35948 
L 183.204105 65.94201 
L 183.833298 65.94201 
L 183.938185 65.107069 
L 183.995113 65.107069 
L 183.995113 64.689599 
L 184.114677 64.689599 
L 184.149242 63.854658 
L 184.32986 63.854658 
L 184.32986 63.437188 
L 184.594282 63.437188 
L 184.701829 62.184777 
L 185.14245 62.184777 
L 185.14245 61.767306 
L 185.75075 61.767306 
L 185.75075 61.349836 
L 186.148245 61.349836 
L 186.148245 60.932365 
L 186.676468 60.932365 
L 186.711033 60.097425 
L 186.807857 60.097425 
L 186.89165 59.262484 
L 186.933815 59.262484 
L 186.933815 58.845013 
L 187.100235 58.845013 
L 187.20882 57.592602 
L 187.231672 57.592602 
L 187.243385 56.757662 
L 187.424003 56.757662 
L 187.525597 55.922721 
L 187.688425 55.922721 
L 187.764024 54.67031 
L 187.937385 54.67031 
L 187.937385 54.252839 
L 188.236592 54.252839 
L 188.340996 53.417898 
L 188.527497 53.417898 
L 188.633375 52.582958 
L 188.710035 52.582958 
L 188.710035 52.165487 
L 188.853886 52.165487 
L 188.853886 51.748017 
L 189.242387 51.748017 
L 189.242387 51.330547 
L 189.495605 51.330547 
L 189.495605 50.913076 
L 189.649839 50.913076 
L 189.649839 50.495606 
L 189.88559 50.495606 
L 189.88559 50.078135 
L 190.027957 50.078135 
L 190.027957 49.660665 
L 190.802091 49.660665 
L 190.849772 48.825724 
L 191.598044 48.825724 
L 191.598044 48.408254 
L 192.797977 48.408254 
L 192.797977 47.990783 
L 195.910915 47.990783 
L 195.910915 47.573313 
L 197.038205 47.573313 
L 197.038205 47.155843 
L 197.949749 47.155843 
L 197.984313 46.320902 
L 198.164931 46.320902 
L 198.164931 45.903432 
L 198.429354 45.903432 
L 198.504953 45.068491 
L 198.977521 45.068491 
L 198.977521 44.65102 
L 199.983316 44.65102 
L 199.983316 44.23355 
L 200.768886 44.23355 
L 200.768886 43.81608 
L 204.334706 43.81608 
L 204.334706 43.398609 
L 205.107103 43.398609 
L 205.107103 42.981139 
L 205.625118 42.981139 
L 205.625118 42.563668 
L 206.05523 42.563668 
L 206.05523 42.146198 
L 206.217045 42.146198 
L 206.282911 41.311257 
L 206.328881 41.311257 
L 206.328881 40.893787 
L 207.055308 40.893787 
L 207.055308 40.476317 
L 207.35683 40.476317 
L 207.35683 40.058846 
L 207.573323 40.058846 
L 207.573323 39.641376 
L 208.277086 39.641376 
L 208.277086 39.223905 
L 208.61702 39.223905 
L 208.61702 38.806435 
L 208.778835 38.806435 
L 208.778835 38.388965 
L 209.149373 38.388965 
L 209.169394 37.554024 
L 209.305035 37.554024 
L 209.311187 36.719083 
L 211.117599 36.719083 
L 211.117599 36.301613 
L 215.747498 36.301613 
L 215.747498 35.884142 
L 216.874789 35.884142 
L 216.874789 35.466672 
L 219.890301 35.466672 
L 219.890301 35.049201 
L 220.052116 35.049201 
L 220.052116 34.631731 
L 228.565463 34.631731 
L 228.600027 33.79679 
L 228.780645 33.79679 
L 228.780645 33.37932 
L 229.045068 33.37932 
L 229.120667 32.126909 
L 229.593235 32.126909 
L 229.593235 31.709438 
L 230.59903 31.709438 
L 230.650667 30.874498 
L 231.3846 30.874498 
L 231.3846 30.457027 
L 231.777958 30.457027 
L 231.777958 30.039557 
L 231.910595 30.039557 
L 231.97513 29.204616 
L 232.360258 29.204616 
L 232.43941 28.369675 
L 232.683837 28.369675 
L 232.683837 27.952205 
L 232.959516 27.952205 
L 232.959516 27.534735 
L 233.263298 27.534735 
L 233.263298 27.117264 
L 233.487549 27.117264 
L 233.566701 26.282323 
L 233.634497 26.282323 
L 233.634497 25.864853 
L 233.809785 25.864853 
L 233.811128 25.029912 
L 234.390589 25.029912 
L 234.490036 24.194971 
L 234.761788 24.194971 
L 234.827986 23.360031 
L 234.937076 23.360031 
L 234.937076 22.94256 
L 235.617327 22.94256 
L 235.652736 22.10762 
L 235.859483 22.10762 
L 235.961813 20.855208 
L 236.780027 20.855208 
L 236.780027 20.437738 
L 236.986774 20.437738 
L 237.089104 19.185327 
L 238.177465 19.185327 
L 238.177465 18.767856 
L 238.887179 18.767856 
L 238.887179 18.350386 
L 239.179558 18.350386 
L 239.179558 17.932916 
L 241.740035 17.932916 
L 241.740035 17.515445 
L 242.032414 17.515445 
L 242.032414 17.097975 
L 242.788956 17.097975 
L 242.788956 16.680505 
L 243.081334 16.680505 
L 243.081334 16.263034 
L 250.506015 16.263034 
L 250.506015 15.845564 
L 250.66783 15.845564 
L 250.66783 15.428093 
L 251.209714 15.428093 
L 251.209714 15.010623 
L 251.443899 15.010623 
L 251.443899 14.593153 
L 252.571985 14.593153 
L 252.571985 14.175682 
L 253.858307 14.175682 
L 253.858307 13.758212 
L 254.768645 13.758212 
L 254.768645 13.340741 
L 255.517894 13.340741 
L 255.517894 12.923271 
L 255.69973 12.923271 
L 255.69973 12.505801 
L 256.37816 12.505801 
L 256.37816 12.08833 
L 256.490737 12.08833 
L 256.490737 11.67086 
L 258.326365 11.67086 
L 258.326365 11.25339 
L 259.295551 11.25339 
L 259.295551 10.835919 
L 261.243756 10.835919 
L 261.243756 10.418449 
L 266.2076 10.418449 
L 266.2076 10.000978 
L 266.499979 10.000978 
L 266.499979 9.583508 
L 268.155805 9.583508 
L 268.155805 9.166038 
L 268.448184 9.166038 
L 268.448184 8.748567 
L 278.71267 8.748567 
L 278.71267 8.331097 
L 281.27446 8.331097 
L 281.27446 7.913626 
L 281.806812 7.913626 
L 281.806812 7.496156 
L 292.547741 7.496156 
L 292.547741 7.078686 
L 323.163455 7.078686 
L 323.163455 6.661215 
L 453.192 6.661215 
L 453.192 6.661215 
" style="fill:none;stroke:#00bfbf;stroke-linecap:square;stroke-width:3;"/>
   </g>
   <g id="line2d_60">
    <path clip-path="url(#pea3240545c)" style="fill:none;stroke:#00bfbf;stroke-linecap:square;stroke-width:3;"/>
   </g>
   <g id="line2d_61">
    <path clip-path="url(#pea3240545c)" d="M 34.16 174.901781 
L 118.806537 174.901781 
L 118.806537 174.48431 
L 118.969139 174.48431 
L 118.969139 174.06684 
L 119.500698 174.06684 
L 119.579979 173.231899 
L 119.665219 173.231899 
L 119.665219 172.814429 
L 119.920956 172.814429 
L 119.920956 172.396958 
L 120.669051 172.396958 
L 120.669051 171.979488 
L 121.421626 171.979488 
L 121.492109 171.144547 
L 121.654711 171.144547 
L 121.654711 170.727077 
L 122.18627 170.727077 
L 122.265551 169.892136 
L 122.350791 169.892136 
L 122.350791 169.474666 
L 122.606528 169.474666 
L 122.606528 169.057195 
L 123.354623 169.057195 
L 123.354623 168.639725 
L 124.107198 168.639725 
L 124.107198 168.222254 
L 125.282406 168.222254 
L 125.282406 167.804784 
L 126.057891 167.804784 
L 126.160567 166.969843 
L 127.652306 166.969843 
L 127.652306 166.552373 
L 128.343107 166.552373 
L 128.343107 166.134903 
L 129.118592 166.134903 
L 129.221267 165.299962 
L 129.29692 165.299962 
L 129.29692 164.882491 
L 129.525881 164.882491 
L 129.525881 164.465021 
L 130.072405 164.465021 
L 130.17508 163.63008 
L 130.287763 163.63008 
L 130.355948 162.377669 
L 130.404041 162.377669 
L 130.404041 161.960199 
L 130.713006 161.960199 
L 130.713006 161.542728 
L 130.868181 161.542728 
L 130.868181 161.125258 
L 131.063248 161.125258 
L 131.165924 159.872847 
L 131.234108 159.872847 
L 131.234108 159.455376 
L 131.643667 159.455376 
L 131.746342 158.202965 
L 131.89578 158.202965 
L 131.89578 157.785495 
L 132.657662 157.785495 
L 132.725847 156.950554 
L 133.170411 156.950554 
L 133.251697 155.698143 
L 133.3052 155.698143 
L 133.3052 155.280673 
L 133.945897 155.280673 
L 134.048572 154.445732 
L 134.080685 154.445732 
L 134.18336 153.610791 
L 134.269089 153.610791 
L 134.269089 153.193321 
L 135.044574 153.193321 
L 135.14725 152.35838 
L 135.271301 152.35838 
L 135.271301 151.940909 
L 135.540311 151.940909 
L 135.540311 151.523439 
L 135.675099 151.523439 
L 135.675099 151.105969 
L 135.937269 151.105969 
L 135.937269 150.688498 
L 136.638988 150.688498 
L 136.638988 150.271028 
L 137.453145 150.271028 
L 137.453145 149.853558 
L 137.956873 149.853558 
L 137.956873 149.436087 
L 138.069374 149.436087 
L 138.175882 148.601146 
L 138.399528 148.601146 
L 138.399528 148.183676 
L 139.72214 148.183676 
L 139.72214 147.766206 
L 140.513846 147.766206 
L 140.513846 147.348735 
L 140.859489 147.348735 
L 140.859489 146.931265 
L 141.130075 146.931265 
L 141.236583 146.096324 
L 141.460229 146.096324 
L 141.467659 145.261383 
L 141.69662 145.261383 
L 141.69662 144.843913 
L 142.083887 144.843913 
L 142.190396 144.008972 
L 142.312849 144.008972 
L 142.419357 142.756561 
L 142.458502 142.756561 
L 142.526687 141.92162 
L 142.643003 141.92162 
L 142.643003 141.50415 
L 142.782841 141.50415 
L 142.782841 141.086679 
L 143.038921 141.086679 
L 143.142915 139.834268 
L 143.181239 139.834268 
L 143.249424 138.999327 
L 143.404885 138.999327 
L 143.47307 138.164387 
L 143.655149 138.164387 
L 143.761658 136.911976 
L 143.92019 136.911976 
L 143.985304 135.659564 
L 144.727497 135.659564 
L 144.795681 134.824624 
L 144.874003 134.824624 
L 144.874003 134.407153 
L 145.102964 134.407153 
L 145.102964 133.989683 
L 145.307915 133.989683 
L 145.341151 133.154742 
L 145.475939 133.154742 
L 145.475939 132.737272 
L 145.864846 132.737272 
L 145.957379 131.484861 
L 146.063888 131.484861 
L 146.092168 130.64992 
L 146.198676 130.64992 
L 146.287534 129.814979 
L 146.422322 129.814979 
L 146.445265 128.562568 
L 147.056057 128.562568 
L 147.162565 127.727627 
L 147.386211 127.727627 
L 147.386211 127.310157 
L 147.610145 127.310157 
L 147.610145 126.892686 
L 147.744934 126.892686 
L 147.744934 126.475216 
L 148.708823 126.475216 
L 148.747495 125.640275 
L 148.882283 125.640275 
L 148.882283 125.222805 
L 149.846172 125.222805 
L 149.846172 124.805334 
L 162.419002 124.805334 
L 162.419002 124.387864 
L 162.80893 124.387864 
L 162.899699 123.552923 
L 163.062301 123.552923 
L 163.062301 123.135453 
L 163.309941 123.135453 
L 163.309941 122.717982 
L 163.472543 122.717982 
L 163.472543 122.300512 
L 163.59386 122.300512 
L 163.673141 121.465571 
L 163.758381 121.465571 
L 163.758381 121.048101 
L 164.004102 121.048101 
L 164.083383 119.378219 
L 164.168623 119.378219 
L 164.26549 118.125808 
L 164.42436 118.125808 
L 164.42436 117.708338 
L 164.605536 117.708338 
L 164.605536 117.290867 
L 164.735049 117.290867 
L 164.81433 115.620986 
L 164.89957 115.620986 
L 164.90759 114.786045 
L 165.070192 114.786045 
L 165.172455 113.116164 
L 165.299697 113.116164 
L 165.378978 112.281223 
L 165.464218 112.281223 
L 165.514788 111.446282 
L 165.601751 111.446282 
L 165.681032 110.611341 
L 165.719955 110.611341 
L 165.766272 109.7764 
L 165.86963 109.7764 
L 165.942836 108.106519 
L 166.022009 108.106519 
L 166.105438 106.854108 
L 166.223815 106.854108 
L 166.223815 106.436637 
L 166.46805 106.436637 
L 166.566598 105.601697 
L 166.636997 105.601697 
L 166.716278 104.349285 
L 166.755374 104.349285 
L 166.834655 102.261934 
L 166.886085 102.261934 
L 166.919895 101.009522 
L 167.033531 101.009522 
L 167.057255 99.339641 
L 167.175632 99.339641 
L 167.220625 98.5047 
L 167.326191 98.5047 
L 167.326191 98.08723 
L 167.522679 98.08723 
L 167.580246 97.252289 
L 167.659527 97.252289 
L 167.744767 96.417348 
L 167.80535 96.417348 
L 167.911692 94.329996 
L 167.923727 94.329996 
L 168.000504 93.495055 
L 168.280003 93.495055 
L 168.280003 93.077585 
L 168.394705 93.077585 
L 168.394705 92.660115 
L 168.508964 92.660115 
L 168.557925 91.825174 
L 168.676302 91.825174 
L 168.748599 90.990233 
L 168.995152 90.990233 
L 168.995152 90.572763 
L 169.270847 90.572763 
L 169.339031 89.737822 
L 169.40343 89.737822 
L 169.501174 88.485411 
L 169.627299 88.485411 
L 169.627299 88.06794 
L 169.770637 88.06794 
L 169.873312 86.815529 
L 169.962353 86.815529 
L 169.962353 86.398059 
L 170.215027 86.398059 
L 170.317703 85.563118 
L 170.581112 85.563118 
L 170.581112 85.145648 
L 170.696935 85.145648 
L 170.696935 84.728177 
L 170.810073 84.728177 
L 170.916166 83.475766 
L 171.145127 83.475766 
L 171.145127 83.058296 
L 171.365051 83.058296 
L 171.365051 82.640825 
L 171.571955 82.640825 
L 171.64014 81.805885 
L 171.795613 81.805885 
L 171.809442 80.970944 
L 171.907009 80.970944 
L 171.975194 80.136003 
L 172.152374 80.136003 
L 172.153495 79.301062 
L 172.288284 79.301062 
L 172.288284 78.883592 
L 172.487428 78.883592 
L 172.487428 78.466122 
L 173.252173 78.466122 
L 173.252173 78.048651 
L 174.454604 78.048651 
L 174.454604 77.631181 
L 174.589392 77.631181 
L 174.589392 77.21371 
L 174.789658 77.21371 
L 174.789658 76.79624 
L 174.924446 76.79624 
L 174.924446 76.37877 
L 175.553281 76.37877 
L 175.553281 75.961299 
L 175.888335 75.961299 
L 175.888335 75.543829 
L 177.344859 75.543829 
L 177.344859 75.126359 
L 177.7551 75.126359 
L 177.7551 74.708888 
L 178.486048 74.708888 
L 178.486048 74.291418 
L 179.050695 74.291418 
L 179.050695 73.873947 
L 179.20427 73.873947 
L 179.20427 73.456477 
L 179.352749 73.456477 
L 179.364463 72.621536 
L 179.774705 72.621536 
L 179.820499 71.786595 
L 179.927007 71.786595 
L 179.927007 71.369125 
L 180.150653 71.369125 
L 180.150653 70.951655 
L 180.387995 70.951655 
L 180.387995 70.534184 
L 180.505652 70.534184 
L 180.506372 69.699243 
L 181.0703 69.699243 
L 181.165891 68.864303 
L 181.331245 68.864303 
L 181.372354 68.029362 
L 181.473265 68.029362 
L 181.473265 67.611892 
L 181.610281 67.611892 
L 181.610281 67.194421 
L 181.782119 67.194421 
L 181.888628 66.35948 
L 182.112274 66.35948 
L 182.112274 65.94201 
L 182.22651 65.94201 
L 182.333018 65.107069 
L 182.4076 65.107069 
L 182.4076 64.689599 
L 182.525977 64.689599 
L 182.610614 63.437188 
L 183.350849 63.437188 
L 183.434885 62.602247 
L 183.879276 62.602247 
L 183.879276 62.184777 
L 184.572235 62.184777 
L 184.572235 61.767306 
L 185.016625 61.767306 
L 185.016625 61.349836 
L 187.685072 61.349836 
L 187.685072 60.932365 
L 187.847674 60.932365 
L 187.847674 60.514895 
L 188.379233 60.514895 
L 188.458514 59.679954 
L 188.543754 59.679954 
L 188.580499 58.845013 
L 188.743101 58.845013 
L 188.79949 58.010073 
L 188.94502 58.010073 
L 188.94502 57.592602 
L 189.107622 57.592602 
L 189.107622 57.175132 
L 189.27466 57.175132 
L 189.353941 56.340191 
L 189.439181 56.340191 
L 189.547586 55.50525 
L 189.639181 55.50525 
L 189.718462 54.252839 
L 189.803702 54.252839 
L 189.803702 53.835369 
L 190.059439 53.835369 
L 190.059439 53.417898 
L 190.300161 53.417898 
L 190.300161 53.000428 
L 190.443013 53.000428 
L 190.443013 52.582958 
L 190.62802 52.582958 
L 190.62802 52.165487 
L 190.807534 52.165487 
L 190.807534 51.748017 
L 191.114022 51.748017 
L 191.195588 50.913076 
L 191.403505 50.913076 
L 191.506181 50.078135 
L 191.560109 50.078135 
L 191.560109 49.660665 
L 191.889507 49.660665 
L 191.992183 48.825724 
L 192.99792 48.825724 
L 192.99792 48.408254 
L 193.483922 48.408254 
L 193.483922 47.990783 
L 195.777141 47.990783 
L 195.777141 47.573313 
L 196.709076 47.573313 
L 196.788048 46.738372 
L 196.950651 46.738372 
L 196.950651 46.320902 
L 197.482209 46.320902 
L 197.56149 45.485961 
L 197.64673 45.485961 
L 197.64673 45.068491 
L 197.902467 45.068491 
L 197.902467 44.65102 
L 198.650562 44.65102 
L 198.650562 44.23355 
L 199.403138 44.23355 
L 199.403138 43.81608 
L 202.130231 43.81608 
L 202.130231 43.398609 
L 202.798759 43.398609 
L 202.798759 42.981139 
L 203.025658 42.981139 
L 203.025658 42.563668 
L 203.284761 42.563668 
L 203.390179 41.728728 
L 203.414988 41.728728 
L 203.521496 40.893787 
L 203.745142 40.893787 
L 203.745142 40.476317 
L 203.90099 40.476317 
L 204.007498 39.641376 
L 204.149836 39.641376 
L 204.231144 38.806435 
L 204.560055 38.806435 
L 204.560055 38.388965 
L 205.045263 38.388965 
L 205.067754 37.554024 
L 205.409784 37.554024 
L 205.409784 37.136553 
L 205.553756 37.136553 
L 205.553756 36.719083 
L 206.016615 36.719083 
L 206.016615 36.301613 
L 206.205103 36.301613 
L 206.205103 35.884142 
L 206.512164 35.884142 
L 206.521675 35.049201 
L 206.691105 35.049201 
L 206.691105 34.631731 
L 206.922405 34.631731 
L 206.966066 33.79679 
L 207.653352 33.79679 
L 207.653352 33.37932 
L 207.978235 33.37932 
L 207.978235 32.96185 
L 208.218 32.96185 
L 208.317723 32.126909 
L 208.422626 32.126909 
L 208.520054 31.291968 
L 208.652777 31.291968 
L 208.652777 30.874498 
L 209.5553 30.874498 
L 209.5553 30.457027 
L 209.673677 30.457027 
L 209.673677 30.039557 
L 210.279344 30.039557 
L 210.279344 29.622086 
L 210.49855 29.622086 
L 210.49855 29.204616 
L 210.614398 29.204616 
L 210.723735 28.369675 
L 211.058789 28.369675 
L 211.058789 27.952205 
L 211.233208 27.952205 
L 211.233208 27.534735 
L 213.252812 27.534735 
L 213.252812 27.117264 
L 215.930901 27.117264 
L 215.930901 26.699794 
L 216.862837 26.699794 
L 216.862837 26.282323 
L 228.154544 26.282323 
L 228.154544 25.864853 
L 228.640546 25.864853 
L 228.640546 25.447383 
L 229.611104 25.447383 
L 229.611104 25.029912 
L 229.734443 25.029912 
L 229.734443 24.612442 
L 229.897046 24.612442 
L 229.897046 24.194971 
L 230.097106 24.194971 
L 230.097106 23.777501 
L 230.428604 23.777501 
L 230.507885 22.94256 
L 230.593125 22.94256 
L 230.593125 22.52509 
L 230.848862 22.52509 
L 230.848862 22.10762 
L 231.297536 22.10762 
L 231.297536 21.690149 
L 231.596957 21.690149 
L 231.626086 20.855208 
L 231.912213 20.855208 
L 231.912213 20.437738 
L 232.192963 20.437738 
L 232.247267 19.602797 
L 232.349532 19.602797 
L 232.398214 18.767856 
L 232.557484 18.767856 
L 232.599551 17.515445 
L 232.733269 17.515445 
L 232.733269 17.097975 
L 232.853179 17.097975 
L 232.943803 16.263034 
L 233.105219 16.263034 
L 233.105219 15.845564 
L 233.531486 15.845564 
L 233.608186 15.010623 
L 233.679882 15.010623 
L 233.785115 13.758212 
L 233.875738 13.758212 
L 233.875738 13.340741 
L 234.037154 13.340741 
L 234.037154 12.923271 
L 234.540121 12.923271 
L 234.611817 12.08833 
L 234.656924 12.08833 
L 234.656924 11.67086 
L 235.515753 11.67086 
L 235.515753 11.25339 
L 235.800684 11.25339 
L 235.800684 10.835919 
L 236.035451 10.835919 
L 236.035451 10.418449 
L 236.447689 10.418449 
L 236.447689 10.000978 
L 236.732619 10.000978 
L 236.732619 9.583508 
L 236.967386 9.583508 
L 236.967386 9.166038 
L 237.462122 9.166038 
L 237.462122 8.748567 
L 238.394058 8.748567 
L 238.394058 8.331097 
L 240.400513 8.331097 
L 240.400513 7.913626 
L 244.179603 7.913626 
L 244.179603 7.496156 
L 246.199207 7.496156 
L 246.199207 7.078686 
L 273.346908 7.078686 
L 273.346908 6.661215 
L 453.192 6.661215 
L 453.192 6.661215 
" style="fill:none;stroke:#bf00bf;stroke-linecap:square;stroke-width:3;"/>
   </g>
   <g id="line2d_62">
    <path clip-path="url(#pea3240545c)" style="fill:none;stroke:#bf00bf;stroke-linecap:square;stroke-width:3;"/>
   </g>
   <g id="line2d_63">
    <path clip-path="url(#pea3240545c)" d="M 34.16 18.634165 
L 196.07554 18.634165 
L 196.07554 18.207235 
L 196.952408 18.207235 
L 196.952408 17.780306 
L 215.914443 17.780306 
L 215.914443 17.353376 
L 216.791311 17.353376 
L 216.791311 16.926446 
L 231.882435 16.926446 
L 231.882435 16.499517 
L 232.759303 16.499517 
L 232.759303 16.072587 
L 232.78298 16.072587 
L 232.78298 15.645657 
L 232.796483 15.645657 
L 232.796483 15.218728 
L 233.051369 15.218728 
L 233.051369 14.791798 
L 233.100464 14.791798 
L 233.100464 14.364868 
L 233.352699 14.364868 
L 233.352699 13.937939 
L 233.659848 13.937939 
L 233.659848 13.511009 
L 233.673351 13.511009 
L 233.673351 13.084079 
L 233.928237 13.084079 
L 233.928237 12.657149 
L 233.977333 12.657149 
L 233.977333 12.23022 
L 233.991833 12.23022 
L 233.991833 11.80329 
L 234.148262 11.80329 
L 234.148262 11.37636 
L 234.229567 11.37636 
L 234.229567 10.949431 
L 234.489591 10.949431 
L 234.489591 10.522501 
L 234.868701 10.522501 
L 234.868701 10.095571 
L 235.02513 10.095571 
L 235.02513 9.668642 
L 235.366459 9.668642 
L 235.366459 9.241712 
L 235.70483 9.241712 
L 235.70483 8.814782 
L 236.408181 8.814782 
L 236.408181 8.387853 
L 236.581699 8.387853 
L 236.581699 7.960923 
L 236.897137 7.960923 
L 236.897137 7.533993 
L 237.285049 7.533993 
L 237.285049 7.107064 
L 237.774005 7.107064 
L 237.774005 6.680134 
L 453.192 6.680134 
" style="fill:none;stroke:#ff0000;stroke-linecap:square;stroke-width:3;"/>
   </g>
   <g id="line2d_64">
    <path clip-path="url(#pea3240545c)" style="fill:none;stroke:#ff0000;stroke-linecap:square;stroke-width:3;"/>
   </g>
   <g id="line2d_65">
    <path clip-path="url(#pea3240545c)" d="M 243.676 291.28 
L 243.676 3 
" style="fill:none;stroke:#000000;stroke-linecap:square;stroke-width:1.5;"/>
   </g>
   <g id="line2d_66">
    <path clip-path="url(#pea3240545c)" d="M 34.16 147.14 
L 453.192 147.14 
" style="fill:none;stroke:#000000;stroke-dasharray:2,3.3;stroke-dashoffset:0;stroke-width:2;"/>
   </g>
   <g id="patch_3">
    <path d="M 34.16 291.28 
L 34.16 3 
" style="fill:none;stroke:#000000;stroke-linecap:square;stroke-linejoin:miter;stroke-width:0.8;"/>
   </g>
   <g id="patch_4">
    <path d="M 453.192 291.28 
L 453.192 3 
" style="fill:none;stroke:#000000;stroke-linecap:square;stroke-linejoin:miter;stroke-width:0.8;"/>
   </g>
   <g id="patch_5">
    <path d="M 34.16 291.28 
L 453.192 291.28 
" style="fill:none;stroke:#000000;stroke-linecap:square;stroke-linejoin:miter;stroke-width:0.8;"/>
   </g>
   <g id="patch_6">
    <path d="M 34.16 3 
L 453.192 3 
" style="fill:none;stroke:#000000;stroke-linecap:square;stroke-linejoin:miter;stroke-width:0.8;"/>
   </g>
   <g id="text_5">
    <!-- f15-f19,40-D -->
    <g transform="translate(318.19261 285.5144)scale(0.2 -0.2)">
     <defs>
      <path d="M 691 4666 
L 3169 4666 
L 3169 4134 
L 1269 4134 
L 1269 2991 
Q 1406 3038 1543 3061 
Q 1681 3084 1819 3084 
Q 2600 3084 3056 2656 
Q 3513 2228 3513 1497 
Q 3513 744 3044 326 
Q 2575 -91 1722 -91 
Q 1428 -91 1123 -41 
Q 819 9 494 109 
L 494 744 
Q 775 591 1075 516 
Q 1375 441 1709 441 
Q 2250 441 2565 725 
Q 2881 1009 2881 1497 
Q 2881 1984 2565 2268 
Q 2250 2553 1709 2553 
Q 1456 2553 1204 2497 
Q 953 2441 691 2322 
L 691 4666 
z
" id="DejaVuSans-35" transform="scale(0.015625)"/>
      <path d="M 703 97 
L 703 672 
Q 941 559 1184 500 
Q 1428 441 1663 441 
Q 2288 441 2617 861 
Q 2947 1281 2994 2138 
Q 2813 1869 2534 1725 
Q 2256 1581 1919 1581 
Q 1219 1581 811 2004 
Q 403 2428 403 3163 
Q 403 3881 828 4315 
Q 1253 4750 1959 4750 
Q 2769 4750 3195 4129 
Q 3622 3509 3622 2328 
Q 3622 1225 3098 567 
Q 2575 -91 1691 -91 
Q 1453 -91 1209 -44 
Q 966 3 703 97 
z
M 1959 2075 
Q 2384 2075 2632 2365 
Q 2881 2656 2881 3163 
Q 2881 3666 2632 3958 
Q 2384 4250 1959 4250 
Q 1534 4250 1286 3958 
Q 1038 3666 1038 3163 
Q 1038 2656 1286 2365 
Q 1534 2075 1959 2075 
z
" id="DejaVuSans-39" transform="scale(0.015625)"/>
      <path d="M 750 794 
L 1409 794 
L 1409 256 
L 897 -744 
L 494 -744 
L 750 256 
L 750 794 
z
" id="DejaVuSans-2c" transform="scale(0.015625)"/>
      <path d="M 2419 4116 
L 825 1625 
L 2419 1625 
L 2419 4116 
z
M 2253 4666 
L 3047 4666 
L 3047 1625 
L 3713 1625 
L 3713 1100 
L 3047 1100 
L 3047 0 
L 2419 0 
L 2419 1100 
L 313 1100 
L 313 1709 
L 2253 4666 
z
" id="DejaVuSans-34" transform="scale(0.015625)"/>
      <path d="M 1259 4147 
L 1259 519 
L 2022 519 
Q 2988 519 3436 956 
Q 3884 1394 3884 2338 
Q 3884 3275 3436 3711 
Q 2988 4147 2022 4147 
L 1259 4147 
z
M 628 4666 
L 1925 4666 
Q 3281 4666 3915 4102 
Q 4550 3538 4550 2338 
Q 4550 1131 3912 565 
Q 3275 0 1925 0 
L 628 0 
L 628 4666 
z
" id="DejaVuSans-44" transform="scale(0.015625)"/>
     </defs>
     <use xlink:href="#DejaVuSans-66"/>
     <use x="35.205078" xlink:href="#DejaVuSans-31"/>
     <use x="98.828125" xlink:href="#DejaVuSans-35"/>
     <use x="162.451172" xlink:href="#DejaVuSans-2d"/>
     <use x="198.535156" xlink:href="#DejaVuSans-66"/>
     <use x="233.740234" xlink:href="#DejaVuSans-31"/>
     <use x="297.363281" xlink:href="#DejaVuSans-39"/>
     <use x="360.986328" xlink:href="#DejaVuSans-2c"/>
     <use x="392.773438" xlink:href="#DejaVuSans-34"/>
     <use x="456.396484" xlink:href="#DejaVuSans-30"/>
     <use x="520.019531" xlink:href="#DejaVuSans-2d"/>
     <use x="556.103516" xlink:href="#DejaVuSans-44"/>
    </g>
   </g>
   <g id="text_6">
    <!-- v2.6.3 -->
    <g style="fill:#808080;" transform="translate(227.99475 286.317512)scale(0.1 -0.1)">
     <defs>
      <path d="M 1228 531 
L 3431 531 
L 3431 0 
L 469 0 
L 469 531 
Q 828 903 1448 1529 
Q 2069 2156 2228 2338 
Q 2531 2678 2651 2914 
Q 2772 3150 2772 3378 
Q 2772 3750 2511 3984 
Q 2250 4219 1831 4219 
Q 1534 4219 1204 4116 
Q 875 4013 500 3803 
L 500 4441 
Q 881 4594 1212 4672 
Q 1544 4750 1819 4750 
Q 2544 4750 2975 4387 
Q 3406 4025 3406 3419 
Q 3406 3131 3298 2873 
Q 3191 2616 2906 2266 
Q 2828 2175 2409 1742 
Q 1991 1309 1228 531 
z
" id="DejaVuSans-32" transform="scale(0.015625)"/>
      <path d="M 684 794 
L 1344 794 
L 1344 0 
L 684 0 
L 684 794 
z
" id="DejaVuSans-2e" transform="scale(0.015625)"/>
      <path d="M 2113 2584 
Q 1688 2584 1439 2293 
Q 1191 2003 1191 1497 
Q 1191 994 1439 701 
Q 1688 409 2113 409 
Q 2538 409 2786 701 
Q 3034 994 3034 1497 
Q 3034 2003 2786 2293 
Q 2538 2584 2113 2584 
z
M 3366 4563 
L 3366 3988 
Q 3128 4100 2886 4159 
Q 2644 4219 2406 4219 
Q 1781 4219 1451 3797 
Q 1122 3375 1075 2522 
Q 1259 2794 1537 2939 
Q 1816 3084 2150 3084 
Q 2853 3084 3261 2657 
Q 3669 2231 3669 1497 
Q 3669 778 3244 343 
Q 2819 -91 2113 -91 
Q 1303 -91 875 529 
Q 447 1150 447 2328 
Q 447 3434 972 4092 
Q 1497 4750 2381 4750 
Q 2619 4750 2861 4703 
Q 3103 4656 3366 4563 
z
" id="DejaVuSans-36" transform="scale(0.015625)"/>
      <path d="M 2597 2516 
Q 3050 2419 3304 2112 
Q 3559 1806 3559 1356 
Q 3559 666 3084 287 
Q 2609 -91 1734 -91 
Q 1441 -91 1130 -33 
Q 819 25 488 141 
L 488 750 
Q 750 597 1062 519 
Q 1375 441 1716 441 
Q 2309 441 2620 675 
Q 2931 909 2931 1356 
Q 2931 1769 2642 2001 
Q 2353 2234 1838 2234 
L 1294 2234 
L 1294 2753 
L 1863 2753 
Q 2328 2753 2575 2939 
Q 2822 3125 2822 3475 
Q 2822 3834 2567 4026 
Q 2313 4219 1838 4219 
Q 1578 4219 1281 4162 
Q 984 4106 628 3988 
L 628 4550 
Q 988 4650 1302 4700 
Q 1616 4750 1894 4750 
Q 2613 4750 3031 4423 
Q 3450 4097 3450 3541 
Q 3450 3153 3228 2886 
Q 3006 2619 2597 2516 
z
" id="DejaVuSans-33" transform="scale(0.015625)"/>
     </defs>
     <use xlink:href="#DejaVuSans-76"/>
     <use x="59.179688" xlink:href="#DejaVuSans-32"/>
     <use x="122.802734" xlink:href="#DejaVuSans-2e"/>
     <use x="154.589844" xlink:href="#DejaVuSans-36"/>
     <use x="218.212891" xlink:href="#DejaVuSans-2e"/>
     <use x="250" xlink:href="#DejaVuSans-33"/>
    </g>
   </g>
   <g id="legend_1">
    <g id="patch_7">
     <path d="M 309.970125 281.28 
L 439.192 281.28 
Q 443.192 281.28 443.192 277.28 
L 443.192 161.855 
Q 443.192 157.855 439.192 157.855 
L 309.970125 157.855 
Q 305.970125 157.855 305.970125 161.855 
L 305.970125 277.28 
Q 305.970125 281.28 309.970125 281.28 
z
" style="fill:#ffffff;opacity:0.2;stroke:#cccccc;stroke-linejoin:miter;"/>
    </g>
    <g id="line2d_67">
     <path d="M 313.970125 174.051875 
L 353.970125 174.051875 
" style="fill:none;stroke:#000000;stroke-linecap:square;stroke-width:3;"/>
    </g>
    <g id="line2d_68"/>
    <g id="text_7">
     <!-- 1: 5/4 -->
     <g transform="translate(369.970125 181.051875)scale(0.2 -0.2)">
      <defs>
       <path d="M 750 794 
L 1409 794 
L 1409 0 
L 750 0 
L 750 794 
z
M 750 3309 
L 1409 3309 
L 1409 2516 
L 750 2516 
L 750 3309 
z
" id="DejaVuSans-3a" transform="scale(0.015625)"/>
       <path d="M 1625 4666 
L 2156 4666 
L 531 -594 
L 0 -594 
L 1625 4666 
z
" id="DejaVuSans-2f" transform="scale(0.015625)"/>
      </defs>
      <use xlink:href="#DejaVuSans-31"/>
      <use x="63.623047" xlink:href="#DejaVuSans-3a"/>
      <use x="97.314453" xlink:href="#DejaVuSans-20"/>
      <use x="129.101562" xlink:href="#DejaVuSans-35"/>
      <use x="192.724609" xlink:href="#DejaVuSans-2f"/>
      <use x="226.416016" xlink:href="#DejaVuSans-34"/>
     </g>
    </g>
    <g id="line2d_69">
     <path d="M 313.970125 203.408125 
L 353.970125 203.408125 
" style="fill:none;stroke:#00bfbf;stroke-linecap:square;stroke-width:3;"/>
    </g>
    <g id="line2d_70"/>
    <g id="text_8">
     <!-- -1: 4/3 -->
     <g transform="translate(369.970125 210.408125)scale(0.2 -0.2)">
      <use xlink:href="#DejaVuSans-2d"/>
      <use x="36.083984" xlink:href="#DejaVuSans-31"/>
      <use x="99.707031" xlink:href="#DejaVuSans-3a"/>
      <use x="133.398438" xlink:href="#DejaVuSans-20"/>
      <use x="165.185547" xlink:href="#DejaVuSans-34"/>
      <use x="228.808594" xlink:href="#DejaVuSans-2f"/>
      <use x="262.5" xlink:href="#DejaVuSans-33"/>
     </g>
    </g>
    <g id="line2d_71">
     <path d="M 313.970125 232.764375 
L 353.970125 232.764375 
" style="fill:none;stroke:#bf00bf;stroke-linecap:square;stroke-width:3;"/>
    </g>
    <g id="line2d_72"/>
    <g id="text_9">
     <!-- -4: 4/3 -->
     <g transform="translate(369.970125 239.764375)scale(0.2 -0.2)">
      <use xlink:href="#DejaVuSans-2d"/>
      <use x="36.083984" xlink:href="#DejaVuSans-34"/>
      <use x="99.707031" xlink:href="#DejaVuSans-3a"/>
      <use x="133.398438" xlink:href="#DejaVuSans-20"/>
      <use x="165.185547" xlink:href="#DejaVuSans-34"/>
      <use x="228.808594" xlink:href="#DejaVuSans-2f"/>
      <use x="262.5" xlink:href="#DejaVuSans-33"/>
     </g>
    </g>
    <g id="line2d_73">
     <path d="M 313.970125 262.120625 
L 353.970125 262.120625 
" style="fill:none;stroke:#ff0000;stroke-linecap:square;stroke-width:3;"/>
    </g>
    <g id="line2d_74"/>
    <g id="text_10">
     <!-- -8: 3/1 -->
     <g transform="translate(369.970125 269.120625)scale(0.2 -0.2)">
      <defs>
       <path d="M 2034 2216 
Q 1584 2216 1326 1975 
Q 1069 1734 1069 1313 
Q 1069 891 1326 650 
Q 1584 409 2034 409 
Q 2484 409 2743 651 
Q 3003 894 3003 1313 
Q 3003 1734 2745 1975 
Q 2488 2216 2034 2216 
z
M 1403 2484 
Q 997 2584 770 2862 
Q 544 3141 544 3541 
Q 544 4100 942 4425 
Q 1341 4750 2034 4750 
Q 2731 4750 3128 4425 
Q 3525 4100 3525 3541 
Q 3525 3141 3298 2862 
Q 3072 2584 2669 2484 
Q 3125 2378 3379 2068 
Q 3634 1759 3634 1313 
Q 3634 634 3220 271 
Q 2806 -91 2034 -91 
Q 1263 -91 848 271 
Q 434 634 434 1313 
Q 434 1759 690 2068 
Q 947 2378 1403 2484 
z
M 1172 3481 
Q 1172 3119 1398 2916 
Q 1625 2713 2034 2713 
Q 2441 2713 2670 2916 
Q 2900 3119 2900 3481 
Q 2900 3844 2670 4047 
Q 2441 4250 2034 4250 
Q 1625 4250 1398 4047 
Q 1172 3844 1172 3481 
z
" id="DejaVuSans-38" transform="scale(0.015625)"/>
      </defs>
      <use xlink:href="#DejaVuSans-2d"/>
      <use x="36.083984" xlink:href="#DejaVuSans-38"/>
      <use x="99.707031" xlink:href="#DejaVuSans-3a"/>
      <use x="133.398438" xlink:href="#DejaVuSans-20"/>
      <use x="165.185547" xlink:href="#DejaVuSans-33"/>
      <use x="228.808594" xlink:href="#DejaVuSans-2f"/>
      <use x="262.5" xlink:href="#DejaVuSans-31"/>
     </g>
    </g>
   </g>
  </g>
 </g>
 <defs>
  <clipPath id="pea3240545c">
   <rect height="288.28" width="419.032" x="34.16" y="3"/>
  </clipPath>
 </defs>
</svg>
