<?xml version="1.0" encoding="utf-8" standalone="no"?>
<!DOCTYPE svg PUBLIC "-//W3C//DTD SVG 1.1//EN"
  "http://www.w3.org/Graphics/SVG/1.1/DTD/svg11.dtd">
<svg height="345.6pt" version="1.1" viewBox="0 0 460.8 345.6" width="460.8pt" xmlns="http://www.w3.org/2000/svg" xmlns:xlink="http://www.w3.org/1999/xlink">
 <metadata>
  <rdf:RDF xmlns:cc="http://creativecommons.org/ns#" xmlns:dc="http://purl.org/dc/elements/1.1/" xmlns:rdf="http://www.w3.org/1999/02/22-rdf-syntax-ns#">
   <cc:Work>
    <dc:type rdf:resource="http://purl.org/dc/dcmitype/StillImage"/>
    <dc:date>2023-04-17T18:02:27.558693</dc:date>
    <dc:format>image/svg+xml</dc:format>
    <dc:creator>
     <cc:Agent>
      <dc:title>Matplotlib v3.4.1, https://matplotlib.org/</dc:title>
     </cc:Agent>
    </dc:creator>
   </cc:Work>
  </rdf:RDF>
 </metadata>
 <defs>
  <style type="text/css">*{stroke-linecap:butt;stroke-linejoin:round;}</style>
 </defs>
 <g id="figure_1">
  <g id="patch_1">
   <path d="M 0 345.6 
L 460.8 345.6 
L 460.8 0 
L 0 0 
z
" style="fill:#ffffff;"/>
  </g>
  <g id="axes_1">
   <g id="patch_2">
    <path d="M 34.16 291.28 
L 453.192 291.28 
L 453.192 3 
L 34.16 3 
z
" style="fill:#ffffff;"/>
   </g>
   <g id="matplotlib.axis_1">
    <g id="xtick_1">
     <g id="line2d_1">
      <path clip-path="url(#p1fdd1879d1)" d="M 164.504544 291.28 
L 164.504544 3 
" style="fill:none;stroke:#b0b0b0;stroke-linecap:square;stroke-width:0.8;"/>
     </g>
     <g id="line2d_2">
      <defs>
       <path d="M 0 0 
L 0 3.5 
" id="m956bb08858" style="stroke:#000000;stroke-width:0.8;"/>
      </defs>
      <g>
       <use style="stroke:#000000;stroke-width:0.8;" x="164.504544" xlink:href="#m956bb08858" y="291.28"/>
      </g>
     </g>
     <g id="text_1">
      <!-- -1 -->
      <g transform="translate(154.534231 313.476875)scale(0.2 -0.2)">
       <defs>
        <path d="M 313 2009 
L 1997 2009 
L 1997 1497 
L 313 1497 
L 313 2009 
z
" id="DejaVuSans-2d" transform="scale(0.015625)"/>
        <path d="M 794 531 
L 1825 531 
L 1825 4091 
L 703 3866 
L 703 4441 
L 1819 4666 
L 2450 4666 
L 2450 531 
L 3481 531 
L 3481 0 
L 794 0 
L 794 531 
z
" id="DejaVuSans-31" transform="scale(0.015625)"/>
       </defs>
       <use xlink:href="#DejaVuSans-2d"/>
       <use x="36.083984" xlink:href="#DejaVuSans-31"/>
      </g>
     </g>
    </g>
    <g id="xtick_2">
     <g id="line2d_3">
      <path clip-path="url(#p1fdd1879d1)" d="M 322.847456 291.28 
L 322.847456 3 
" style="fill:none;stroke:#b0b0b0;stroke-linecap:square;stroke-width:0.8;"/>
     </g>
     <g id="line2d_4">
      <g>
       <use style="stroke:#000000;stroke-width:0.8;" x="322.847456" xlink:href="#m956bb08858" y="291.28"/>
      </g>
     </g>
     <g id="text_2">
      <!-- 1 -->
      <g transform="translate(316.484956 313.476875)scale(0.2 -0.2)">
       <use xlink:href="#DejaVuSans-31"/>
      </g>
     </g>
    </g>
    <g id="xtick_3">
     <g id="line2d_5">
      <defs>
       <path d="M 0 0 
L 0 2 
" id="m8b3cf5bfe9" style="stroke:#000000;stroke-width:0.6;"/>
      </defs>
      <g>
       <use style="stroke:#000000;stroke-width:0.6;" x="43.936016" xlink:href="#m8b3cf5bfe9" y="291.28"/>
      </g>
     </g>
    </g>
    <g id="xtick_4">
     <g id="line2d_6">
      <g>
       <use style="stroke:#000000;stroke-width:0.6;" x="53.827598" xlink:href="#m8b3cf5bfe9" y="291.28"/>
      </g>
     </g>
    </g>
    <g id="xtick_5">
     <g id="line2d_7">
      <g>
       <use style="stroke:#000000;stroke-width:0.6;" x="61.500105" xlink:href="#m8b3cf5bfe9" y="291.28"/>
      </g>
     </g>
    </g>
    <g id="xtick_6">
     <g id="line2d_8">
      <g>
       <use style="stroke:#000000;stroke-width:0.6;" x="67.768999" xlink:href="#m8b3cf5bfe9" y="291.28"/>
      </g>
     </g>
    </g>
    <g id="xtick_7">
     <g id="line2d_9">
      <g>
       <use style="stroke:#000000;stroke-width:0.6;" x="73.069274" xlink:href="#m8b3cf5bfe9" y="291.28"/>
      </g>
     </g>
    </g>
    <g id="xtick_8">
     <g id="line2d_10">
      <g>
       <use style="stroke:#000000;stroke-width:0.6;" x="77.660581" xlink:href="#m8b3cf5bfe9" y="291.28"/>
      </g>
     </g>
    </g>
    <g id="xtick_9">
     <g id="line2d_11">
      <g>
       <use style="stroke:#000000;stroke-width:0.6;" x="81.710401" xlink:href="#m8b3cf5bfe9" y="291.28"/>
      </g>
     </g>
    </g>
    <g id="xtick_10">
     <g id="line2d_12">
      <g>
       <use style="stroke:#000000;stroke-width:0.6;" x="109.166071" xlink:href="#m8b3cf5bfe9" y="291.28"/>
      </g>
     </g>
    </g>
    <g id="xtick_11">
     <g id="line2d_13">
      <g>
       <use style="stroke:#000000;stroke-width:0.6;" x="123.107472" xlink:href="#m8b3cf5bfe9" y="291.28"/>
      </g>
     </g>
    </g>
    <g id="xtick_12">
     <g id="line2d_14">
      <g>
       <use style="stroke:#000000;stroke-width:0.6;" x="132.999054" xlink:href="#m8b3cf5bfe9" y="291.28"/>
      </g>
     </g>
    </g>
    <g id="xtick_13">
     <g id="line2d_15">
      <g>
       <use style="stroke:#000000;stroke-width:0.6;" x="140.671561" xlink:href="#m8b3cf5bfe9" y="291.28"/>
      </g>
     </g>
    </g>
    <g id="xtick_14">
     <g id="line2d_16">
      <g>
       <use style="stroke:#000000;stroke-width:0.6;" x="146.940455" xlink:href="#m8b3cf5bfe9" y="291.28"/>
      </g>
     </g>
    </g>
    <g id="xtick_15">
     <g id="line2d_17">
      <g>
       <use style="stroke:#000000;stroke-width:0.6;" x="152.24073" xlink:href="#m8b3cf5bfe9" y="291.28"/>
      </g>
     </g>
    </g>
    <g id="xtick_16">
     <g id="line2d_18">
      <g>
       <use style="stroke:#000000;stroke-width:0.6;" x="156.832037" xlink:href="#m8b3cf5bfe9" y="291.28"/>
      </g>
     </g>
    </g>
    <g id="xtick_17">
     <g id="line2d_19">
      <g>
       <use style="stroke:#000000;stroke-width:0.6;" x="160.881857" xlink:href="#m8b3cf5bfe9" y="291.28"/>
      </g>
     </g>
    </g>
    <g id="xtick_18">
     <g id="line2d_20">
      <g>
       <use style="stroke:#000000;stroke-width:0.6;" x="188.337527" xlink:href="#m8b3cf5bfe9" y="291.28"/>
      </g>
     </g>
    </g>
    <g id="xtick_19">
     <g id="line2d_21">
      <g>
       <use style="stroke:#000000;stroke-width:0.6;" x="202.278928" xlink:href="#m8b3cf5bfe9" y="291.28"/>
      </g>
     </g>
    </g>
    <g id="xtick_20">
     <g id="line2d_22">
      <g>
       <use style="stroke:#000000;stroke-width:0.6;" x="212.17051" xlink:href="#m8b3cf5bfe9" y="291.28"/>
      </g>
     </g>
    </g>
    <g id="xtick_21">
     <g id="line2d_23">
      <g>
       <use style="stroke:#000000;stroke-width:0.6;" x="219.843017" xlink:href="#m8b3cf5bfe9" y="291.28"/>
      </g>
     </g>
    </g>
    <g id="xtick_22">
     <g id="line2d_24">
      <g>
       <use style="stroke:#000000;stroke-width:0.6;" x="226.111911" xlink:href="#m8b3cf5bfe9" y="291.28"/>
      </g>
     </g>
    </g>
    <g id="xtick_23">
     <g id="line2d_25">
      <g>
       <use style="stroke:#000000;stroke-width:0.6;" x="231.412186" xlink:href="#m8b3cf5bfe9" y="291.28"/>
      </g>
     </g>
    </g>
    <g id="xtick_24">
     <g id="line2d_26">
      <g>
       <use style="stroke:#000000;stroke-width:0.6;" x="236.003493" xlink:href="#m8b3cf5bfe9" y="291.28"/>
      </g>
     </g>
    </g>
    <g id="xtick_25">
     <g id="line2d_27">
      <g>
       <use style="stroke:#000000;stroke-width:0.6;" x="240.053313" xlink:href="#m8b3cf5bfe9" y="291.28"/>
      </g>
     </g>
    </g>
    <g id="xtick_26">
     <g id="line2d_28">
      <g>
       <use style="stroke:#000000;stroke-width:0.6;" x="267.508983" xlink:href="#m8b3cf5bfe9" y="291.28"/>
      </g>
     </g>
    </g>
    <g id="xtick_27">
     <g id="line2d_29">
      <g>
       <use style="stroke:#000000;stroke-width:0.6;" x="281.450384" xlink:href="#m8b3cf5bfe9" y="291.28"/>
      </g>
     </g>
    </g>
    <g id="xtick_28">
     <g id="line2d_30">
      <g>
       <use style="stroke:#000000;stroke-width:0.6;" x="291.341966" xlink:href="#m8b3cf5bfe9" y="291.28"/>
      </g>
     </g>
    </g>
    <g id="xtick_29">
     <g id="line2d_31">
      <g>
       <use style="stroke:#000000;stroke-width:0.6;" x="299.014473" xlink:href="#m8b3cf5bfe9" y="291.28"/>
      </g>
     </g>
    </g>
    <g id="xtick_30">
     <g id="line2d_32">
      <g>
       <use style="stroke:#000000;stroke-width:0.6;" x="305.283368" xlink:href="#m8b3cf5bfe9" y="291.28"/>
      </g>
     </g>
    </g>
    <g id="xtick_31">
     <g id="line2d_33">
      <g>
       <use style="stroke:#000000;stroke-width:0.6;" x="310.583642" xlink:href="#m8b3cf5bfe9" y="291.28"/>
      </g>
     </g>
    </g>
    <g id="xtick_32">
     <g id="line2d_34">
      <g>
       <use style="stroke:#000000;stroke-width:0.6;" x="315.174949" xlink:href="#m8b3cf5bfe9" y="291.28"/>
      </g>
     </g>
    </g>
    <g id="xtick_33">
     <g id="line2d_35">
      <g>
       <use style="stroke:#000000;stroke-width:0.6;" x="319.224769" xlink:href="#m8b3cf5bfe9" y="291.28"/>
      </g>
     </g>
    </g>
    <g id="xtick_34">
     <g id="line2d_36">
      <g>
       <use style="stroke:#000000;stroke-width:0.6;" x="346.680439" xlink:href="#m8b3cf5bfe9" y="291.28"/>
      </g>
     </g>
    </g>
    <g id="xtick_35">
     <g id="line2d_37">
      <g>
       <use style="stroke:#000000;stroke-width:0.6;" x="360.621841" xlink:href="#m8b3cf5bfe9" y="291.28"/>
      </g>
     </g>
    </g>
    <g id="xtick_36">
     <g id="line2d_38">
      <g>
       <use style="stroke:#000000;stroke-width:0.6;" x="370.513422" xlink:href="#m8b3cf5bfe9" y="291.28"/>
      </g>
     </g>
    </g>
    <g id="xtick_37">
     <g id="line2d_39">
      <g>
       <use style="stroke:#000000;stroke-width:0.6;" x="378.185929" xlink:href="#m8b3cf5bfe9" y="291.28"/>
      </g>
     </g>
    </g>
    <g id="xtick_38">
     <g id="line2d_40">
      <g>
       <use style="stroke:#000000;stroke-width:0.6;" x="384.454824" xlink:href="#m8b3cf5bfe9" y="291.28"/>
      </g>
     </g>
    </g>
    <g id="xtick_39">
     <g id="line2d_41">
      <g>
       <use style="stroke:#000000;stroke-width:0.6;" x="389.755098" xlink:href="#m8b3cf5bfe9" y="291.28"/>
      </g>
     </g>
    </g>
    <g id="xtick_40">
     <g id="line2d_42">
      <g>
       <use style="stroke:#000000;stroke-width:0.6;" x="394.346405" xlink:href="#m8b3cf5bfe9" y="291.28"/>
      </g>
     </g>
    </g>
    <g id="xtick_41">
     <g id="line2d_43">
      <g>
       <use style="stroke:#000000;stroke-width:0.6;" x="398.396225" xlink:href="#m8b3cf5bfe9" y="291.28"/>
      </g>
     </g>
    </g>
    <g id="xtick_42">
     <g id="line2d_44">
      <g>
       <use style="stroke:#000000;stroke-width:0.6;" x="425.851895" xlink:href="#m8b3cf5bfe9" y="291.28"/>
      </g>
     </g>
    </g>
    <g id="xtick_43">
     <g id="line2d_45">
      <g>
       <use style="stroke:#000000;stroke-width:0.6;" x="439.793297" xlink:href="#m8b3cf5bfe9" y="291.28"/>
      </g>
     </g>
    </g>
    <g id="xtick_44">
     <g id="line2d_46">
      <g>
       <use style="stroke:#000000;stroke-width:0.6;" x="449.684878" xlink:href="#m8b3cf5bfe9" y="291.28"/>
      </g>
     </g>
    </g>
    <g id="text_3">
     <!-- log10 of FEvals ratio -->
     <g transform="translate(141.371312 336.833125)scale(0.2 -0.2)">
      <defs>
       <path d="M 603 4863 
L 1178 4863 
L 1178 0 
L 603 0 
L 603 4863 
z
" id="DejaVuSans-6c" transform="scale(0.015625)"/>
       <path d="M 1959 3097 
Q 1497 3097 1228 2736 
Q 959 2375 959 1747 
Q 959 1119 1226 758 
Q 1494 397 1959 397 
Q 2419 397 2687 759 
Q 2956 1122 2956 1747 
Q 2956 2369 2687 2733 
Q 2419 3097 1959 3097 
z
M 1959 3584 
Q 2709 3584 3137 3096 
Q 3566 2609 3566 1747 
Q 3566 888 3137 398 
Q 2709 -91 1959 -91 
Q 1206 -91 779 398 
Q 353 888 353 1747 
Q 353 2609 779 3096 
Q 1206 3584 1959 3584 
z
" id="DejaVuSans-6f" transform="scale(0.015625)"/>
       <path d="M 2906 1791 
Q 2906 2416 2648 2759 
Q 2391 3103 1925 3103 
Q 1463 3103 1205 2759 
Q 947 2416 947 1791 
Q 947 1169 1205 825 
Q 1463 481 1925 481 
Q 2391 481 2648 825 
Q 2906 1169 2906 1791 
z
M 3481 434 
Q 3481 -459 3084 -895 
Q 2688 -1331 1869 -1331 
Q 1566 -1331 1297 -1286 
Q 1028 -1241 775 -1147 
L 775 -588 
Q 1028 -725 1275 -790 
Q 1522 -856 1778 -856 
Q 2344 -856 2625 -561 
Q 2906 -266 2906 331 
L 2906 616 
Q 2728 306 2450 153 
Q 2172 0 1784 0 
Q 1141 0 747 490 
Q 353 981 353 1791 
Q 353 2603 747 3093 
Q 1141 3584 1784 3584 
Q 2172 3584 2450 3431 
Q 2728 3278 2906 2969 
L 2906 3500 
L 3481 3500 
L 3481 434 
z
" id="DejaVuSans-67" transform="scale(0.015625)"/>
       <path d="M 2034 4250 
Q 1547 4250 1301 3770 
Q 1056 3291 1056 2328 
Q 1056 1369 1301 889 
Q 1547 409 2034 409 
Q 2525 409 2770 889 
Q 3016 1369 3016 2328 
Q 3016 3291 2770 3770 
Q 2525 4250 2034 4250 
z
M 2034 4750 
Q 2819 4750 3233 4129 
Q 3647 3509 3647 2328 
Q 3647 1150 3233 529 
Q 2819 -91 2034 -91 
Q 1250 -91 836 529 
Q 422 1150 422 2328 
Q 422 3509 836 4129 
Q 1250 4750 2034 4750 
z
" id="DejaVuSans-30" transform="scale(0.015625)"/>
       <path id="DejaVuSans-20" transform="scale(0.015625)"/>
       <path d="M 2375 4863 
L 2375 4384 
L 1825 4384 
Q 1516 4384 1395 4259 
Q 1275 4134 1275 3809 
L 1275 3500 
L 2222 3500 
L 2222 3053 
L 1275 3053 
L 1275 0 
L 697 0 
L 697 3053 
L 147 3053 
L 147 3500 
L 697 3500 
L 697 3744 
Q 697 4328 969 4595 
Q 1241 4863 1831 4863 
L 2375 4863 
z
" id="DejaVuSans-66" transform="scale(0.015625)"/>
       <path d="M 628 4666 
L 3309 4666 
L 3309 4134 
L 1259 4134 
L 1259 2759 
L 3109 2759 
L 3109 2228 
L 1259 2228 
L 1259 0 
L 628 0 
L 628 4666 
z
" id="DejaVuSans-46" transform="scale(0.015625)"/>
       <path d="M 628 4666 
L 3578 4666 
L 3578 4134 
L 1259 4134 
L 1259 2753 
L 3481 2753 
L 3481 2222 
L 1259 2222 
L 1259 531 
L 3634 531 
L 3634 0 
L 628 0 
L 628 4666 
z
" id="DejaVuSans-45" transform="scale(0.015625)"/>
       <path d="M 191 3500 
L 800 3500 
L 1894 563 
L 2988 3500 
L 3597 3500 
L 2284 0 
L 1503 0 
L 191 3500 
z
" id="DejaVuSans-76" transform="scale(0.015625)"/>
       <path d="M 2194 1759 
Q 1497 1759 1228 1600 
Q 959 1441 959 1056 
Q 959 750 1161 570 
Q 1363 391 1709 391 
Q 2188 391 2477 730 
Q 2766 1069 2766 1631 
L 2766 1759 
L 2194 1759 
z
M 3341 1997 
L 3341 0 
L 2766 0 
L 2766 531 
Q 2569 213 2275 61 
Q 1981 -91 1556 -91 
Q 1019 -91 701 211 
Q 384 513 384 1019 
Q 384 1609 779 1909 
Q 1175 2209 1959 2209 
L 2766 2209 
L 2766 2266 
Q 2766 2663 2505 2880 
Q 2244 3097 1772 3097 
Q 1472 3097 1187 3025 
Q 903 2953 641 2809 
L 641 3341 
Q 956 3463 1253 3523 
Q 1550 3584 1831 3584 
Q 2591 3584 2966 3190 
Q 3341 2797 3341 1997 
z
" id="DejaVuSans-61" transform="scale(0.015625)"/>
       <path d="M 2834 3397 
L 2834 2853 
Q 2591 2978 2328 3040 
Q 2066 3103 1784 3103 
Q 1356 3103 1142 2972 
Q 928 2841 928 2578 
Q 928 2378 1081 2264 
Q 1234 2150 1697 2047 
L 1894 2003 
Q 2506 1872 2764 1633 
Q 3022 1394 3022 966 
Q 3022 478 2636 193 
Q 2250 -91 1575 -91 
Q 1294 -91 989 -36 
Q 684 19 347 128 
L 347 722 
Q 666 556 975 473 
Q 1284 391 1588 391 
Q 1994 391 2212 530 
Q 2431 669 2431 922 
Q 2431 1156 2273 1281 
Q 2116 1406 1581 1522 
L 1381 1569 
Q 847 1681 609 1914 
Q 372 2147 372 2553 
Q 372 3047 722 3315 
Q 1072 3584 1716 3584 
Q 2034 3584 2315 3537 
Q 2597 3491 2834 3397 
z
" id="DejaVuSans-73" transform="scale(0.015625)"/>
       <path d="M 2631 2963 
Q 2534 3019 2420 3045 
Q 2306 3072 2169 3072 
Q 1681 3072 1420 2755 
Q 1159 2438 1159 1844 
L 1159 0 
L 581 0 
L 581 3500 
L 1159 3500 
L 1159 2956 
Q 1341 3275 1631 3429 
Q 1922 3584 2338 3584 
Q 2397 3584 2469 3576 
Q 2541 3569 2628 3553 
L 2631 2963 
z
" id="DejaVuSans-72" transform="scale(0.015625)"/>
       <path d="M 1172 4494 
L 1172 3500 
L 2356 3500 
L 2356 3053 
L 1172 3053 
L 1172 1153 
Q 1172 725 1289 603 
Q 1406 481 1766 481 
L 2356 481 
L 2356 0 
L 1766 0 
Q 1100 0 847 248 
Q 594 497 594 1153 
L 594 3053 
L 172 3053 
L 172 3500 
L 594 3500 
L 594 4494 
L 1172 4494 
z
" id="DejaVuSans-74" transform="scale(0.015625)"/>
       <path d="M 603 3500 
L 1178 3500 
L 1178 0 
L 603 0 
L 603 3500 
z
M 603 4863 
L 1178 4863 
L 1178 4134 
L 603 4134 
L 603 4863 
z
" id="DejaVuSans-69" transform="scale(0.015625)"/>
      </defs>
      <use xlink:href="#DejaVuSans-6c"/>
      <use x="27.783203" xlink:href="#DejaVuSans-6f"/>
      <use x="88.964844" xlink:href="#DejaVuSans-67"/>
      <use x="152.441406" xlink:href="#DejaVuSans-31"/>
      <use x="216.064453" xlink:href="#DejaVuSans-30"/>
      <use x="279.6875" xlink:href="#DejaVuSans-20"/>
      <use x="311.474609" xlink:href="#DejaVuSans-6f"/>
      <use x="372.65625" xlink:href="#DejaVuSans-66"/>
      <use x="407.861328" xlink:href="#DejaVuSans-20"/>
      <use x="439.648438" xlink:href="#DejaVuSans-46"/>
      <use x="497.167969" xlink:href="#DejaVuSans-45"/>
      <use x="560.351562" xlink:href="#DejaVuSans-76"/>
      <use x="619.53125" xlink:href="#DejaVuSans-61"/>
      <use x="680.810547" xlink:href="#DejaVuSans-6c"/>
      <use x="708.59375" xlink:href="#DejaVuSans-73"/>
      <use x="760.693359" xlink:href="#DejaVuSans-20"/>
      <use x="792.480469" xlink:href="#DejaVuSans-72"/>
      <use x="833.59375" xlink:href="#DejaVuSans-61"/>
      <use x="894.873047" xlink:href="#DejaVuSans-74"/>
      <use x="934.082031" xlink:href="#DejaVuSans-69"/>
      <use x="961.865234" xlink:href="#DejaVuSans-6f"/>
     </g>
    </g>
   </g>
   <g id="matplotlib.axis_2">
    <g id="ytick_1">
     <g id="line2d_47">
      <path clip-path="url(#p1fdd1879d1)" d="M 34.16 288.453725 
L 453.192 288.453725 
" style="fill:none;stroke:#b0b0b0;stroke-linecap:square;stroke-width:0.8;"/>
     </g>
     <g id="line2d_48">
      <defs>
       <path d="M 0 0 
L -3.5 0 
" id="m5c4f78028d" style="stroke:#000000;stroke-width:0.8;"/>
      </defs>
      <g>
       <use style="stroke:#000000;stroke-width:0.8;" x="34.16" xlink:href="#m5c4f78028d" y="288.453725"/>
      </g>
     </g>
    </g>
    <g id="ytick_2">
     <g id="line2d_49">
      <path clip-path="url(#p1fdd1879d1)" d="M 34.16 217.796863 
L 453.192 217.796863 
" style="fill:none;stroke:#b0b0b0;stroke-linecap:square;stroke-width:0.8;"/>
     </g>
     <g id="line2d_50">
      <g>
       <use style="stroke:#000000;stroke-width:0.8;" x="34.16" xlink:href="#m5c4f78028d" y="217.796863"/>
      </g>
     </g>
    </g>
    <g id="ytick_3">
     <g id="line2d_51">
      <path clip-path="url(#p1fdd1879d1)" d="M 34.16 147.14 
L 453.192 147.14 
" style="fill:none;stroke:#b0b0b0;stroke-linecap:square;stroke-width:0.8;"/>
     </g>
     <g id="line2d_52">
      <g>
       <use style="stroke:#000000;stroke-width:0.8;" x="34.16" xlink:href="#m5c4f78028d" y="147.14"/>
      </g>
     </g>
    </g>
    <g id="ytick_4">
     <g id="line2d_53">
      <path clip-path="url(#p1fdd1879d1)" d="M 34.16 76.483137 
L 453.192 76.483137 
" style="fill:none;stroke:#b0b0b0;stroke-linecap:square;stroke-width:0.8;"/>
     </g>
     <g id="line2d_54">
      <g>
       <use style="stroke:#000000;stroke-width:0.8;" x="34.16" xlink:href="#m5c4f78028d" y="76.483137"/>
      </g>
     </g>
    </g>
    <g id="ytick_5">
     <g id="line2d_55">
      <path clip-path="url(#p1fdd1879d1)" d="M 34.16 5.826275 
L 453.192 5.826275 
" style="fill:none;stroke:#b0b0b0;stroke-linecap:square;stroke-width:0.8;"/>
     </g>
     <g id="line2d_56">
      <g>
       <use style="stroke:#000000;stroke-width:0.8;" x="34.16" xlink:href="#m5c4f78028d" y="5.826275"/>
      </g>
     </g>
    </g>
    <g id="text_4">
     <!-- proportion of trials -->
     <g transform="translate(19.000625 240.14625)rotate(-90)scale(0.2 -0.2)">
      <defs>
       <path d="M 1159 525 
L 1159 -1331 
L 581 -1331 
L 581 3500 
L 1159 3500 
L 1159 2969 
Q 1341 3281 1617 3432 
Q 1894 3584 2278 3584 
Q 2916 3584 3314 3078 
Q 3713 2572 3713 1747 
Q 3713 922 3314 415 
Q 2916 -91 2278 -91 
Q 1894 -91 1617 61 
Q 1341 213 1159 525 
z
M 3116 1747 
Q 3116 2381 2855 2742 
Q 2594 3103 2138 3103 
Q 1681 3103 1420 2742 
Q 1159 2381 1159 1747 
Q 1159 1113 1420 752 
Q 1681 391 2138 391 
Q 2594 391 2855 752 
Q 3116 1113 3116 1747 
z
" id="DejaVuSans-70" transform="scale(0.015625)"/>
       <path d="M 3513 2113 
L 3513 0 
L 2938 0 
L 2938 2094 
Q 2938 2591 2744 2837 
Q 2550 3084 2163 3084 
Q 1697 3084 1428 2787 
Q 1159 2491 1159 1978 
L 1159 0 
L 581 0 
L 581 3500 
L 1159 3500 
L 1159 2956 
Q 1366 3272 1645 3428 
Q 1925 3584 2291 3584 
Q 2894 3584 3203 3211 
Q 3513 2838 3513 2113 
z
" id="DejaVuSans-6e" transform="scale(0.015625)"/>
      </defs>
      <use xlink:href="#DejaVuSans-70"/>
      <use x="63.476562" xlink:href="#DejaVuSans-72"/>
      <use x="102.339844" xlink:href="#DejaVuSans-6f"/>
      <use x="163.521484" xlink:href="#DejaVuSans-70"/>
      <use x="226.998047" xlink:href="#DejaVuSans-6f"/>
      <use x="288.179688" xlink:href="#DejaVuSans-72"/>
      <use x="329.292969" xlink:href="#DejaVuSans-74"/>
      <use x="368.501953" xlink:href="#DejaVuSans-69"/>
      <use x="396.285156" xlink:href="#DejaVuSans-6f"/>
      <use x="457.466797" xlink:href="#DejaVuSans-6e"/>
      <use x="520.845703" xlink:href="#DejaVuSans-20"/>
      <use x="552.632812" xlink:href="#DejaVuSans-6f"/>
      <use x="613.814453" xlink:href="#DejaVuSans-66"/>
      <use x="649.019531" xlink:href="#DejaVuSans-20"/>
      <use x="680.806641" xlink:href="#DejaVuSans-74"/>
      <use x="720.015625" xlink:href="#DejaVuSans-72"/>
      <use x="761.128906" xlink:href="#DejaVuSans-69"/>
      <use x="788.912109" xlink:href="#DejaVuSans-61"/>
      <use x="850.191406" xlink:href="#DejaVuSans-6c"/>
      <use x="877.974609" xlink:href="#DejaVuSans-73"/>
     </g>
    </g>
   </g>
   <g id="line2d_57">
    <path clip-path="url(#p1fdd1879d1)" d="M 34.16 188.384676 
L 52.161335 188.384676 
L 52.161335 187.933914 
L 56.473824 187.933914 
L 56.473824 187.483153 
L 60.089311 187.483153 
L 60.089311 187.032391 
L 61.213123 187.032391 
L 61.213123 186.58163 
L 61.892279 186.58163 
L 61.892279 186.130868 
L 62.012669 186.130868 
L 62.077799 185.229345 
L 62.67376 185.229345 
L 62.67376 184.778584 
L 62.845037 184.778584 
L 62.845037 184.327822 
L 63.311696 184.327822 
L 63.311696 183.877061 
L 64.020664 183.877061 
L 64.020664 183.4263 
L 64.4018 183.4263 
L 64.4018 182.975538 
L 66.204768 182.975538 
L 66.204768 182.524777 
L 66.98625 182.524777 
L 66.98625 182.074015 
L 67.157527 182.074015 
L 67.157527 181.623254 
L 67.624185 181.623254 
L 67.624185 181.172492 
L 68.333153 181.172492 
L 68.333153 180.721731 
L 69.1411 180.721731 
L 69.1411 180.270969 
L 69.940645 180.270969 
L 70.005775 179.369446 
L 70.944067 179.369446 
L 70.944067 178.918685 
L 71.725549 178.918685 
L 71.808742 177.5664 
L 71.896826 177.5664 
L 71.896826 177.115639 
L 72.363485 177.115639 
L 72.363485 176.664877 
L 72.525095 176.664877 
L 72.590224 175.763354 
L 72.696371 175.763354 
L 72.761501 174.861831 
L 73.072453 174.861831 
L 73.16303 173.960308 
L 73.22816 173.960308 
L 73.22816 173.509547 
L 73.871998 173.509547 
L 73.937128 172.608024 
L 165.590089 172.608024 
L 165.590089 172.157262 
L 166.803559 172.157262 
L 166.803559 171.706501 
L 167.506719 171.706501 
L 167.506719 171.255739 
L 167.905322 171.255739 
L 167.905322 170.804978 
L 169.902578 170.804978 
L 169.902578 170.354216 
L 171.116048 170.354216 
L 171.116048 169.903455 
L 171.819208 169.903455 
L 171.819208 169.452693 
L 172.217812 169.452693 
L 172.217812 169.001932 
L 173.123307 169.001932 
L 173.123307 168.551171 
L 174.641877 168.551171 
L 174.641877 168.100409 
L 175.441423 168.100409 
L 175.506553 167.198886 
L 175.855348 167.198886 
L 175.855348 166.748125 
L 176.558507 166.748125 
L 176.654893 165.846602 
L 176.720023 165.846602 
L 176.720023 165.39584 
L 176.957111 165.39584 
L 176.957111 164.945079 
L 177.358053 164.945079 
L 177.435796 163.592794 
L 177.756656 163.592794 
L 177.821786 162.691271 
L 182.175096 162.691271 
L 182.175096 162.24051 
L 182.974641 162.24051 
L 183.039771 161.338987 
L 196.82728 161.338987 
L 196.82728 160.888225 
L 201.139769 160.888225 
L 201.139769 160.437464 
L 205.879069 160.437464 
L 205.879069 159.986702 
L 206.678614 159.986702 
L 206.743744 159.085179 
L 206.88689 159.085179 
L 206.88689 158.634418 
L 210.576277 158.634418 
L 210.576277 158.183656 
L 211.75301 158.183656 
L 211.75301 157.732895 
L 212.524377 157.732895 
L 212.524377 157.282133 
L 213.564636 157.282133 
L 213.564636 156.831372 
L 214.082923 156.831372 
L 214.082923 156.38061 
L 214.814866 156.38061 
L 214.85429 155.479087 
L 215.894549 155.479087 
L 215.894549 155.028326 
L 216.246667 155.028326 
L 216.246667 154.577564 
L 216.446094 154.577564 
L 216.446094 154.126803 
L 216.617834 154.126803 
L 216.617834 153.676042 
L 216.924458 153.676042 
L 216.994053 152.774519 
L 217.104701 152.774519 
L 217.104701 152.323757 
L 217.217461 152.323757 
L 217.217461 151.872996 
L 217.399316 151.872996 
L 217.399316 151.422234 
L 217.570593 151.422234 
L 217.570593 150.971473 
L 217.76542 150.971473 
L 217.876068 150.06995 
L 218.037251 150.06995 
L 218.037251 149.619188 
L 218.25772 149.619188 
L 218.25772 149.168427 
L 218.504253 149.168427 
L 218.576581 148.266904 
L 218.746219 148.266904 
L 218.805679 147.365381 
L 218.916327 147.365381 
L 218.916327 146.914619 
L 219.254372 146.914619 
L 219.254372 146.463858 
L 219.937738 146.463858 
L 219.96324 145.562335 
L 220.307221 145.562335 
L 220.307221 145.111573 
L 220.734607 145.111573 
L 220.734607 144.660812 
L 220.939752 144.660812 
L 220.939752 144.21005 
L 221.088703 144.21005 
L 221.088703 143.759289 
L 221.25998 143.759289 
L 221.25998 143.308527 
L 221.479717 143.308527 
L 221.487711 142.407004 
L 221.598359 142.407004 
L 221.617542 141.505481 
L 221.726638 141.505481 
L 221.774866 140.603958 
L 222.165502 140.603958 
L 222.276149 139.251674 
L 222.435606 139.251674 
L 222.435606 138.800913 
L 223.866479 138.800913 
L 223.866479 138.350151 
L 224.456898 138.350151 
L 224.456898 137.89939 
L 224.630822 137.89939 
L 224.630822 137.448628 
L 224.988235 137.448628 
L 224.988235 136.997867 
L 225.134688 136.997867 
L 225.178782 136.096344 
L 225.289429 136.096344 
L 225.289429 135.645582 
L 225.714407 135.645582 
L 225.792206 134.744059 
L 226.196392 134.744059 
L 226.196392 134.293298 
L 227.060992 134.293298 
L 227.060992 133.842536 
L 227.468065 133.842536 
L 227.468065 133.391775 
L 227.832359 133.391775 
L 227.832359 132.941013 
L 228.044321 132.941013 
L 228.151436 131.137967 
L 228.478874 131.137967 
L 228.559563 130.236444 
L 228.872618 130.236444 
L 228.922803 128.88416 
L 229.107522 128.88416 
L 229.21817 127.531875 
L 229.594868 127.531875 
L 229.594868 127.081114 
L 229.797979 127.081114 
L 229.797979 126.630352 
L 229.92488 126.630352 
L 229.963063 125.728829 
L 230.366235 125.728829 
L 230.407491 124.376545 
L 230.531506 124.376545 
L 230.531506 123.925784 
L 230.72791 123.925784 
L 230.808787 123.024261 
L 230.955451 123.024261 
L 231.066099 122.122738 
L 231.122027 122.122738 
L 231.226668 120.770453 
L 231.331051 120.770453 
L 231.406494 119.418169 
L 231.53883 119.418169 
L 231.55465 118.516646 
L 231.998035 118.516646 
L 232.076709 117.615123 
L 232.161149 117.615123 
L 232.23244 115.812077 
L 232.606911 115.812077 
L 232.709109 114.459792 
L 232.819756 114.459792 
L 232.916212 113.558269 
L 233.038294 113.558269 
L 233.057824 112.656746 
L 233.171958 112.656746 
L 233.171958 112.205985 
L 233.284702 112.205985 
L 233.322885 111.304462 
L 233.719917 111.304462 
L 233.830565 110.402939 
L 233.902001 110.402939 
L 233.924638 109.501416 
L 234.088526 109.501416 
L 234.088526 109.050655 
L 234.44996 109.050655 
L 234.560608 108.149132 
L 234.719179 108.149132 
L 234.766316 107.247609 
L 234.894746 107.247609 
L 234.894746 106.796847 
L 235.24572 106.796847 
L 235.24572 106.346086 
L 235.420995 106.346086 
L 235.500661 105.444563 
L 235.572537 105.444563 
L 235.678295 104.092278 
L 235.720325 104.092278 
L 235.720325 103.641517 
L 235.968954 103.641517 
L 236.079602 102.739994 
L 236.138596 102.739994 
L 236.138596 102.289232 
L 236.297982 102.289232 
L 236.398116 100.936948 
L 236.596644 100.936948 
L 236.689104 100.035425 
L 236.847564 100.035425 
L 236.847564 99.584663 
L 237.02559 99.584663 
L 237.02559 99.133902 
L 237.368011 99.133902 
L 237.419147 98.232379 
L 237.601915 98.232379 
L 237.601915 97.781617 
L 237.779596 97.781617 
L 237.779596 97.330856 
L 238.40827 97.330856 
L 238.40827 96.880094 
L 238.585817 96.880094 
L 238.585817 96.429333 
L 238.938141 96.429333 
L 239.010086 95.52781 
L 239.050003 95.52781 
L 239.050003 95.077049 
L 239.174461 95.077049 
L 239.174461 94.626287 
L 239.355504 94.626287 
L 239.415082 93.274003 
L 240.159915 93.274003 
L 240.264906 91.921718 
L 240.85297 91.921718 
L 240.85297 91.470957 
L 241.02239 91.470957 
L 241.090302 90.569434 
L 241.243814 90.569434 
L 241.34 89.667911 
L 241.634452 89.667911 
L 241.744995 87.864865 
L 241.768092 87.864865 
L 241.805729 86.963342 
L 241.962882 86.963342 
L 242.015181 86.061819 
L 242.074651 86.061819 
L 242.112834 85.160296 
L 242.266634 85.160296 
L 242.377281 83.808011 
L 242.514557 83.808011 
L 242.514557 83.35725 
L 242.744364 83.35725 
L 242.776047 82.455727 
L 242.869645 82.455727 
L 242.915641 81.554204 
L 242.981356 81.554204 
L 243.05544 80.652681 
L 243.340137 80.652681 
L 243.3823 79.751158 
L 243.556265 79.751158 
L 243.556265 79.300397 
L 243.70317 79.300397 
L 243.786856 78.398874 
L 243.828309 78.398874 
L 243.866492 77.497351 
L 244.091267 77.497351 
L 244.108166 76.595828 
L 244.25113 76.595828 
L 244.361777 75.694305 
L 244.362486 75.694305 
L 244.362486 75.243543 
L 244.516899 75.243543 
L 244.516899 74.792782 
L 244.656125 74.792782 
L 244.766773 73.891259 
L 244.781372 73.891259 
L 244.8773 72.538974 
L 245.188065 72.538974 
L 245.23582 71.637451 
L 245.309923 71.637451 
L 245.309923 71.18669 
L 245.529891 71.18669 
L 245.607343 69.834405 
L 245.737472 69.834405 
L 245.737472 69.383644 
L 246.035893 69.383644 
L 246.116144 68.482121 
L 246.320732 68.482121 
L 246.415262 67.580598 
L 246.941723 67.580598 
L 247.050775 66.679075 
L 247.088154 66.679075 
L 247.126952 65.326791 
L 247.220316 65.326791 
L 247.220316 64.876029 
L 247.332859 64.876029 
L 247.332859 64.425268 
L 247.625312 64.425268 
L 247.625312 63.974506 
L 247.856995 63.974506 
L 247.952531 63.072983 
L 248.114341 63.072983 
L 248.114341 62.622222 
L 248.285617 62.622222 
L 248.285617 62.17146 
L 248.569769 62.17146 
L 248.569769 61.720699 
L 248.682574 61.720699 
L 248.752276 60.368414 
L 249.375989 60.368414 
L 249.461244 59.01613 
L 250.201568 59.01613 
L 250.201568 58.565368 
L 250.558042 58.565368 
L 250.558042 58.114607 
L 250.797621 58.114607 
L 250.797621 57.663845 
L 252.311699 57.663845 
L 252.333572 56.762322 
L 252.600588 56.762322 
L 252.600588 56.311561 
L 253.322508 56.311561 
L 253.424017 54.057753 
L 253.553347 54.057753 
L 253.553347 53.606992 
L 254.020006 53.606992 
L 254.052551 52.705469 
L 254.318068 52.705469 
L 254.318068 52.254707 
L 254.723064 52.254707 
L 254.768438 50.902423 
L 254.867448 50.902423 
L 254.867448 50.451662 
L 255.205212 50.451662 
L 255.205212 50.0009 
L 255.37033 50.0009 
L 255.408513 49.099377 
L 255.539805 49.099377 
L 255.571545 48.197854 
L 255.673669 48.197854 
L 255.775325 47.296331 
L 255.813508 47.296331 
L 255.813508 46.84557 
L 256.499248 46.84557 
L 256.580064 45.944047 
L 256.851944 45.944047 
L 256.958869 45.042524 
L 257.25694 45.042524 
L 257.25694 44.591762 
L 257.658165 44.591762 
L 257.658165 44.141001 
L 257.969678 44.141001 
L 258.06316 43.239478 
L 258.483744 43.239478 
L 258.483744 42.788716 
L 258.699721 42.788716 
L 258.699721 42.337955 
L 258.888739 42.337955 
L 258.888739 41.887193 
L 259.262095 41.887193 
L 259.262095 41.436432 
L 259.939886 41.436432 
L 259.939886 40.98567 
L 260.218715 40.98567 
L 260.218715 40.534909 
L 261.869224 40.534909 
L 261.869224 40.084147 
L 262.953166 40.084147 
L 262.953166 39.633386 
L 263.85372 39.633386 
L 263.85372 39.182624 
L 264.258716 39.182624 
L 264.258716 38.731863 
L 266.516394 38.731863 
L 266.516394 38.281101 
L 266.881907 38.281101 
L 266.881907 37.83034 
L 268.50089 37.83034 
L 268.50089 37.379578 
L 268.729835 37.379578 
L 268.729835 36.928817 
L 268.905886 36.928817 
L 268.905886 36.478055 
L 270.483493 36.478055 
L 270.483493 36.027294 
L 271.494302 36.027294 
L 271.494302 35.576533 
L 272.224344 35.576533 
L 272.224344 35.125771 
L 273.743338 35.125771 
L 273.743338 34.67501 
L 280.041018 34.67501 
L 280.041018 34.224248 
L 282.025514 34.224248 
L 282.025514 33.773487 
L 282.43051 33.773487 
L 282.43051 33.322725 
L 320.315644 33.322725 
L 320.315644 32.871964 
L 321.529114 32.871964 
L 321.529114 32.421202 
L 322.232274 32.421202 
L 322.232274 31.970441 
L 322.630878 31.970441 
L 322.630878 31.519679 
L 324.005031 31.519679 
L 324.005031 31.068918 
L 325.218501 31.068918 
L 325.218501 30.618156 
L 325.921661 30.618156 
L 325.921661 30.167395 
L 326.320265 30.167395 
L 326.320265 29.716633 
L 327.848862 29.716633 
L 327.848862 29.265872 
L 331.538249 29.265872 
L 331.538249 28.81511 
L 338.416989 28.81511 
L 338.416989 28.364349 
L 339.630459 28.364349 
L 339.630459 27.913587 
L 340.333619 27.913587 
L 340.333619 27.462826 
L 340.732223 27.462826 
L 340.732223 27.012064 
L 344.55078 27.012064 
L 344.55078 26.561303 
L 345.660692 26.561303 
L 345.764251 25.65978 
L 345.950207 25.65978 
L 345.950207 25.209018 
L 346.467411 25.209018 
L 346.467411 24.758257 
L 346.866014 24.758257 
L 346.874163 23.856734 
L 347.577322 23.856734 
L 347.577322 23.405972 
L 347.975926 23.405972 
L 347.975926 22.955211 
L 351.030669 22.955211 
L 351.030669 22.504449 
L 351.552835 22.504449 
L 351.552835 22.053688 
L 352.083999 22.053688 
L 352.083999 21.602926 
L 352.244139 21.602926 
L 352.244139 21.152165 
L 352.947299 21.152165 
L 352.947299 20.701404 
L 353.193911 20.701404 
L 353.193911 20.250642 
L 353.345902 20.250642 
L 353.345902 19.799881 
L 355.242222 19.799881 
L 355.242222 19.349119 
L 356.298398 19.349119 
L 356.298398 18.898358 
L 357.511869 18.898358 
L 357.511869 18.447596 
L 358.215028 18.447596 
L 358.215028 17.996835 
L 358.563887 17.996835 
L 358.613632 17.095312 
L 363.831617 17.095312 
L 363.831617 16.64455 
L 369.654181 16.64455 
L 369.654181 16.193789 
L 375.787972 16.193789 
L 375.787972 15.743027 
L 376.205272 15.743027 
L 376.205272 15.292266 
L 376.897884 15.292266 
L 376.897884 14.841504 
L 379.894659 14.841504 
L 379.894659 14.390743 
L 382.26786 14.390743 
L 382.26786 13.939981 
L 387.53559 13.939981 
L 387.53559 13.48922 
L 394.306618 13.48922 
L 394.306618 13.038458 
L 400.440409 13.038458 
L 400.440409 12.587697 
L 401.550321 12.587697 
L 401.550321 12.136935 
L 406.920297 12.136935 
L 406.920297 11.686174 
L 412.188027 11.686174 
L 412.188027 11.235412 
L 453.192 11.235412 
L 453.192 11.235412 
" style="fill:none;stroke:#000000;stroke-linecap:square;stroke-width:3;"/>
   </g>
   <g id="line2d_58">
    <path clip-path="url(#p1fdd1879d1)" style="fill:none;stroke:#000000;stroke-linecap:square;stroke-width:3;"/>
   </g>
   <g id="line2d_59">
    <path clip-path="url(#p1fdd1879d1)" d="M 34.16 166.182275 
L 75.130077 166.182275 
L 75.168798 164.845975 
L 78.539019 164.845975 
L 78.539019 164.177825 
L 79.162319 164.177825 
L 79.201039 162.841525 
L 82.571261 162.841525 
L 82.571261 162.173375 
L 89.725394 162.173375 
L 89.764114 160.837075 
L 93.134336 160.837075 
L 93.134336 160.168925 
L 103.784092 160.168925 
L 103.822812 158.832625 
L 107.193034 158.832625 
L 107.193034 158.164475 
L 113.195363 158.164475 
L 113.234084 156.828175 
L 116.604305 156.828175 
L 116.604305 156.160025 
L 125.69345 156.160025 
L 125.73217 154.823725 
L 129.102391 154.823725 
L 129.102391 154.155575 
L 155.099966 154.155575 
L 155.099966 153.487425 
L 155.474555 153.487425 
L 155.474555 152.819275 
L 155.717076 152.819275 
L 155.717076 152.151125 
L 159.132208 152.151125 
L 159.132208 151.482975 
L 159.506797 151.482975 
L 159.506797 150.814825 
L 159.749318 150.814825 
L 159.749318 150.146675 
L 160.993973 150.146675 
L 160.993973 149.478525 
L 165.026214 149.478525 
L 165.026214 148.810375 
L 169.695283 148.810375 
L 169.695283 148.142225 
L 170.069872 148.142225 
L 170.069872 147.474075 
L 170.312393 147.474075 
L 170.312393 146.805925 
L 171.934901 146.805925 
L 171.934901 146.137775 
L 175.58929 146.137775 
L 175.58929 145.469625 
L 175.967142 145.469625 
L 175.967142 144.801475 
L 176.240613 144.801475 
L 176.240613 144.133325 
L 176.556777 144.133325 
L 176.556777 143.465175 
L 177.121844 143.465175 
L 177.121844 142.797025 
L 177.374286 142.797025 
L 177.438009 141.460725 
L 178.126923 141.460725 
L 178.126923 140.792575 
L 178.255518 140.792575 
L 178.255518 140.124425 
L 178.376943 140.124425 
L 178.443087 138.788125 
L 178.541332 138.788125 
L 178.541332 138.119975 
L 178.693107 138.119975 
L 178.693107 137.451825 
L 178.857497 137.451825 
L 178.87637 136.115525 
L 179.260596 136.115525 
L 179.260596 135.447375 
L 179.510616 135.447375 
L 179.510616 134.779225 
L 179.675006 134.779225 
L 179.757601 133.442925 
L 180.76268 133.442925 
L 180.76268 132.774775 
L 181.0127 132.774775 
L 181.0127 132.106625 
L 181.177089 132.106625 
L 181.177089 131.438475 
L 182.605755 131.438475 
L 182.605755 130.770325 
L 183.753981 130.770325 
L 183.753981 130.102175 
L 184.12857 130.102175 
L 184.231061 128.765875 
L 184.371091 128.765875 
L 184.371091 128.097725 
L 184.502545 128.097725 
L 184.502545 127.429575 
L 186.530217 127.429575 
L 186.637997 126.093275 
L 188.263303 126.093275 
L 188.263303 125.425125 
L 188.534786 125.425125 
L 188.534786 124.756975 
L 189.647988 124.756975 
L 189.647988 124.088825 
L 193.165252 124.088825 
L 193.165252 123.420675 
L 193.539841 123.420675 
L 193.539841 122.752525 
L 193.782362 122.752525 
L 193.782362 122.084375 
L 195.426524 122.084375 
L 195.426524 121.416225 
L 195.742689 121.416225 
L 195.742689 120.748075 
L 196.560198 120.748075 
L 196.560198 120.079925 
L 197.201072 120.079925 
L 197.201072 119.411775 
L 198.062281 119.411775 
L 198.062281 118.743625 
L 198.826378 118.743625 
L 198.826378 118.075475 
L 199.059259 118.075475 
L 199.097862 116.739175 
L 199.247831 116.739175 
L 199.247831 116.071025 
L 199.673777 116.071025 
L 199.673777 115.402875 
L 200.036488 115.402875 
L 200.129063 114.066575 
L 200.555008 114.066575 
L 200.588915 112.730275 
L 200.785423 112.730275 
L 200.785423 112.062125 
L 200.91772 112.062125 
L 201.023059 110.725825 
L 201.134141 110.725825 
L 201.134141 110.057675 
L 201.384161 110.057675 
L 201.384161 109.389525 
L 201.548551 109.389525 
L 201.560087 108.053225 
L 201.666655 108.053225 
L 201.666655 107.385075 
L 201.810107 107.385075 
L 201.90429 106.048775 
L 201.922798 106.048775 
L 201.974497 104.712475 
L 202.172818 104.712475 
L 202.172818 104.044325 
L 202.337208 104.044325 
L 202.337208 103.376175 
L 202.565483 103.376175 
L 202.671733 102.039875 
L 202.909369 102.039875 
L 202.921753 100.703575 
L 203.086143 100.703575 
L 203.159389 99.367275 
L 203.323779 99.367275 
L 203.323779 98.699125 
L 203.446715 98.699125 
L 203.446715 98.030975 
L 204.451793 98.030975 
L 204.451793 97.362825 
L 204.701813 97.362825 
L 204.701813 96.694675 
L 204.866203 96.694675 
L 204.866203 96.026525 
L 205.663339 96.026525 
L 205.663339 95.358375 
L 206.037928 95.358375 
L 206.037928 94.690225 
L 206.280448 94.690225 
L 206.280448 94.022075 
L 210.000187 94.022075 
L 210.000187 93.353925 
L 211.25977 93.353925 
L 211.25977 92.685775 
L 211.557345 92.685775 
L 211.557345 92.017625 
L 212.885076 92.017625 
L 212.885076 91.349475 
L 213.156559 91.349475 
L 213.156559 90.681325 
L 218.433742 90.681325 
L 218.433742 90.013175 
L 218.859688 90.013175 
L 218.859688 89.345025 
L 219.2224 89.345025 
L 219.2224 88.676875 
L 219.971335 88.676875 
L 219.971335 88.008725 
L 220.20897 88.008725 
L 220.20897 87.340575 
L 220.546165 87.340575 
L 220.546165 86.672425 
L 220.671041 86.672425 
L 220.671041 86.004275 
L 221.127907 86.004275 
L 221.127907 85.336125 
L 221.333978 85.336125 
L 221.441957 83.331675 
L 221.650142 83.331675 
L 221.751395 81.995375 
L 222.009139 81.995375 
L 222.009139 81.327225 
L 222.296347 81.327225 
L 222.323188 79.990925 
L 222.432476 79.990925 
L 222.498273 77.986475 
L 222.567831 77.986475 
L 222.567831 77.318325 
L 222.682495 77.318325 
L 222.682495 76.650175 
L 222.81631 76.650175 
L 222.846885 75.313875 
L 223.014217 75.313875 
L 223.014217 74.645725 
L 223.264237 74.645725 
L 223.328267 73.309425 
L 223.393225 73.309425 
L 223.428627 71.973125 
L 223.578287 71.973125 
L 223.578287 71.304975 
L 223.697542 71.304975 
L 223.742676 69.300525 
L 223.969735 69.300525 
L 223.969735 68.632375 
L 224.526899 68.632375 
L 224.526899 67.964225 
L 224.702621 67.964225 
L 224.702621 67.296075 
L 224.952641 67.296075 
L 224.952641 66.627925 
L 225.090269 66.627925 
L 225.11703 65.291625 
L 226.028982 65.291625 
L 226.028982 64.623475 
L 227.873597 64.623475 
L 227.873597 63.955325 
L 228.189762 63.955325 
L 228.189762 63.287175 
L 229.007271 63.287175 
L 229.007271 62.619025 
L 229.12251 62.619025 
L 229.12251 61.950875 
L 230.509354 61.950875 
L 230.509354 61.282725 
L 233.169127 61.282725 
L 233.169127 60.614575 
L 234.794433 60.614575 
L 234.794433 59.946425 
L 235.065917 59.946425 
L 235.065917 59.278275 
L 236.456203 59.278275 
L 236.456203 58.610125 
L 236.772368 58.610125 
L 236.772368 57.941975 
L 237.589877 57.941975 
L 237.589877 57.273825 
L 239.09196 57.273825 
L 239.09196 56.605675 
L 239.685585 56.605675 
L 239.732077 55.269375 
L 240.313819 55.269375 
L 240.313819 54.601225 
L 240.627868 54.601225 
L 240.627868 53.933075 
L 242.002222 53.933075 
L 242.002222 53.264925 
L 244.341196 53.264925 
L 244.341196 52.596775 
L 244.71264 52.596775 
L 244.767142 51.260475 
L 245.129853 51.260475 
L 245.129853 50.592325 
L 245.593872 50.592325 
L 245.593872 49.924175 
L 245.878788 49.924175 
L 245.878788 49.256025 
L 246.116424 49.256025 
L 246.116424 48.587875 
L 246.400444 48.587875 
L 246.400444 47.919725 
L 246.598951 47.919725 
L 246.598951 47.251575 
L 246.82639 47.251575 
L 246.848971 45.915275 
L 247.01336 45.915275 
L 247.01336 45.247125 
L 247.189101 45.247125 
L 247.189101 44.578975 
L 247.658848 44.578975 
L 247.658848 43.910825 
L 247.938036 43.910825 
L 247.938036 43.242675 
L 248.175672 43.242675 
L 248.175672 42.574525 
L 249.718096 42.574525 
L 249.718096 41.906375 
L 250.880816 41.906375 
L 250.880816 41.238225 
L 251.306762 41.238225 
L 251.306762 40.570075 
L 251.669473 40.570075 
L 251.669473 39.901925 
L 252.418408 39.901925 
L 252.418408 39.233775 
L 252.656044 39.233775 
L 252.656044 38.565625 
L 253.744283 38.565625 
L 253.744283 37.897475 
L 254.198468 37.897475 
L 254.198468 37.229325 
L 259.463422 37.229325 
L 259.463422 36.561175 
L 259.889368 36.561175 
L 259.889368 35.893025 
L 260.252079 35.893025 
L 260.252079 35.224875 
L 261.001014 35.224875 
L 261.001014 34.556725 
L 261.23865 34.556725 
L 261.23865 33.888575 
L 262.781074 33.888575 
L 262.781074 33.220425 
L 263.155555 33.220425 
L 263.155555 32.552275 
L 263.898552 32.552275 
L 263.898552 31.884125 
L 265.639531 31.884125 
L 265.639531 31.215975 
L 266.221272 31.215975 
L 266.221272 30.547825 
L 266.535322 30.547825 
L 266.535322 29.879675 
L 267.698778 29.879675 
L 267.698778 29.211525 
L 267.909676 29.211525 
L 267.909676 28.543375 
L 268.28052 28.543375 
L 268.28052 27.875225 
L 268.594569 27.875225 
L 268.594569 27.207075 
L 269.968923 27.207075 
L 269.968923 26.538925 
L 272.17915 26.538925 
L 272.17915 25.870775 
L 272.760892 25.870775 
L 272.760892 25.202625 
L 273.074941 25.202625 
L 273.074941 24.534475 
L 274.449295 24.534475 
L 274.449295 23.866325 
L 275.653641 23.866325 
L 275.653641 23.198175 
L 280.761756 23.198175 
L 280.761756 22.530025 
L 281.343498 22.530025 
L 281.343498 21.861875 
L 281.657547 21.861875 
L 281.657547 21.193725 
L 283.031901 21.193725 
L 283.031901 20.525575 
L 289.806006 20.525575 
L 289.806006 19.857425 
L 291.865253 19.857425 
L 291.865253 19.189275 
L 296.345625 19.189275 
L 296.345625 18.521125 
L 304.928231 18.521125 
L 304.928231 17.852975 
L 453.192 17.852975 
L 453.192 17.852975 
" style="fill:none;stroke:#00bfbf;stroke-linecap:square;stroke-width:3;"/>
   </g>
   <g id="line2d_60">
    <path clip-path="url(#p1fdd1879d1)" style="fill:none;stroke:#00bfbf;stroke-linecap:square;stroke-width:3;"/>
   </g>
   <g id="line2d_61">
    <path clip-path="url(#p1fdd1879d1)" d="M 34.16 140.410775 
L 153.840508 140.410775 
L 153.840508 138.915392 
L 156.271698 138.915392 
L 156.271698 137.420008 
L 157.359938 137.420008 
L 157.419592 134.429242 
L 157.855501 134.429242 
L 157.855501 132.933858 
L 160.286691 132.933858 
L 160.286691 131.438475 
L 161.374931 131.438475 
L 161.434585 128.447708 
L 163.377678 128.447708 
L 163.377678 126.952325 
L 167.392671 126.952325 
L 167.392671 125.456942 
L 168.504526 125.456942 
L 168.504526 123.961558 
L 170.935716 123.961558 
L 170.935716 122.466175 
L 172.023956 122.466175 
L 172.08361 119.475408 
L 178.041696 119.475408 
L 178.041696 117.980025 
L 178.274891 117.980025 
L 178.274891 116.484642 
L 180.70608 116.484642 
L 180.70608 114.989258 
L 181.79432 114.989258 
L 181.853975 111.998492 
L 183.386743 111.998492 
L 183.386743 110.503108 
L 184.194353 110.503108 
L 184.194353 109.007725 
L 185.234154 109.007725 
L 185.234154 107.512342 
L 185.663176 107.512342 
L 185.663176 106.016958 
L 186.567122 106.016958 
L 186.567122 104.521575 
L 187.401736 104.521575 
L 187.421525 101.530808 
L 187.812061 101.530808 
L 187.812061 100.035425 
L 188.209346 100.035425 
L 188.209346 98.540041 
L 189.249147 98.540041 
L 189.249147 97.044658 
L 189.678169 97.044658 
L 189.678169 95.549275 
L 189.852715 95.549275 
L 189.852715 94.053891 
L 190.582115 94.053891 
L 190.582115 92.558508 
L 190.940955 92.558508 
L 191.00061 89.567741 
L 196.958696 89.567741 
L 196.958696 88.072358 
L 198.050761 88.072358 
L 198.050761 86.576975 
L 198.858371 86.576975 
L 198.858371 85.081591 
L 199.898173 85.081591 
L 199.898173 83.586208 
L 200.327194 83.586208 
L 200.327194 82.090825 
L 201.23114 82.090825 
L 201.23114 80.595441 
L 202.572954 80.595441 
L 202.572954 79.100058 
L 205.004144 79.100058 
L 205.004144 77.604675 
L 206.092384 77.604675 
L 206.152038 74.613908 
L 207.821126 74.613908 
L 207.821126 73.118525 
L 208.628736 73.118525 
L 208.628736 71.623141 
L 209.668537 71.623141 
L 209.668537 70.127758 
L 210.097558 70.127758 
L 210.097558 68.632375 
L 211.001504 68.632375 
L 211.001504 67.136991 
L 212.110124 67.136991 
L 212.110124 65.641608 
L 216.96776 65.641608 
L 216.96776 64.146225 
L 217.775371 64.146225 
L 217.775371 62.650841 
L 218.815172 62.650841 
L 218.815172 61.155458 
L 219.244193 61.155458 
L 219.244193 59.660075 
L 220.148139 59.660075 
L 220.148139 58.164691 
L 226.065849 58.164691 
L 226.065849 56.669308 
L 230.080842 56.669308 
L 230.080842 55.173925 
L 232.119189 55.173925 
L 232.119189 53.678541 
L 232.926799 53.678541 
L 232.926799 52.183158 
L 233.9666 52.183158 
L 233.9666 50.687775 
L 234.395622 50.687775 
L 234.395622 49.192391 
L 235.299568 49.192391 
L 235.299568 47.697008 
L 240.729868 47.697008 
L 240.729868 46.201625 
L 250.500232 46.201625 
L 250.500232 44.706241 
L 259.646867 44.706241 
L 259.646867 43.210858 
L 274.798296 43.210858 
L 274.798296 41.715475 
L 453.192 41.715475 
L 453.192 41.715475 
" style="fill:none;stroke:#bf00bf;stroke-linecap:square;stroke-width:3;"/>
   </g>
   <g id="line2d_62">
    <path clip-path="url(#p1fdd1879d1)" style="fill:none;stroke:#bf00bf;stroke-linecap:square;stroke-width:3;"/>
   </g>
   <g id="line2d_63">
    <path clip-path="url(#p1fdd1879d1)" d="M 34.16 140.410775 
L 155.975468 140.410775 
L 155.975468 138.915392 
L 159.504162 138.915392 
L 159.504162 137.420008 
L 159.862715 137.420008 
L 159.862715 135.924625 
L 159.992838 135.924625 
L 159.992838 134.429242 
L 160.621573 134.429242 
L 160.621573 132.933858 
L 163.391409 132.933858 
L 163.391409 131.438475 
L 163.880085 131.438475 
L 163.880085 129.943092 
L 164.50882 129.943092 
L 164.50882 128.447708 
L 164.772197 128.447708 
L 164.772197 126.952325 
L 168.659444 126.952325 
L 168.706377 123.961558 
L 172.235071 123.961558 
L 172.235071 122.466175 
L 172.723747 122.466175 
L 172.723747 120.970792 
L 173.352481 120.970792 
L 173.352481 119.475408 
L 177.503106 119.475408 
L 177.503106 117.980025 
L 178.833543 117.980025 
L 178.833543 116.484642 
L 182.362237 116.484642 
L 182.362237 114.989258 
L 182.850913 114.989258 
L 182.850913 113.493875 
L 183.479647 113.493875 
L 183.479647 111.998492 
L 184.913402 111.998492 
L 184.913402 110.503108 
L 185.451604 110.503108 
L 185.451604 109.007725 
L 186.907421 109.007725 
L 186.907421 107.512342 
L 187.52393 107.512342 
L 187.630272 104.521575 
L 188.800649 104.521575 
L 188.800649 103.026192 
L 189.338851 103.026192 
L 189.338851 101.530808 
L 189.769482 101.530808 
L 189.769482 100.035425 
L 190.794668 100.035425 
L 190.794668 98.540041 
L 191.411177 98.540041 
L 191.411177 97.044658 
L 193.298177 97.044658 
L 193.298177 95.549275 
L 193.786853 95.549275 
L 193.786853 94.053891 
L 194.415587 94.053891 
L 194.415587 92.558508 
L 197.64431 92.558508 
L 197.64431 91.063125 
L 198.182513 91.063125 
L 198.182513 89.567741 
L 198.566211 89.567741 
L 198.566211 88.072358 
L 199.63833 88.072358 
L 199.63833 86.576975 
L 200.114459 86.576975 
L 200.114459 85.081591 
L 200.254839 85.081591 
L 200.254839 83.586208 
L 204.001706 83.586208 
L 204.001706 82.090825 
L 205.47544 82.090825 
L 205.47544 80.595441 
L 207.771476 80.595441 
L 207.771476 79.100058 
L 208.309679 79.100058 
L 208.309679 77.604675 
L 209.004134 77.604675 
L 209.004134 76.109291 
L 209.49281 76.109291 
L 209.49281 74.613908 
L 209.765496 74.613908 
L 209.765496 73.118525 
L 210.121545 73.118525 
L 210.121545 71.623141 
L 210.382005 71.623141 
L 210.382005 70.127758 
L 212.845368 70.127758 
L 212.845368 68.632375 
L 214.272169 68.632375 
L 214.272169 67.136991 
L 218.707416 67.136991 
L 218.707416 65.641608 
L 219.245619 65.641608 
L 219.245619 64.146225 
L 220.701435 64.146225 
L 220.701435 62.650841 
L 221.317945 62.650841 
L 221.317945 61.155458 
L 222.972534 61.155458 
L 222.972534 59.660075 
L 228.024097 59.660075 
L 228.024097 58.164691 
L 231.911344 58.164691 
L 231.911344 56.669308 
L 233.908473 56.669308 
L 233.908473 55.173925 
L 234.413373 55.173925 
L 234.413373 53.678541 
L 234.951576 53.678541 
L 234.951576 52.183158 
L 236.407393 52.183158 
L 236.407393 50.687775 
L 237.023902 50.687775 
L 237.023902 49.192391 
L 240.755006 49.192391 
L 240.755006 47.697008 
L 249.614431 47.697008 
L 249.614431 46.201625 
L 250.882171 46.201625 
L 250.882171 44.706241 
L 261.818111 44.706241 
L 261.818111 43.210858 
L 277.524069 43.210858 
L 277.524069 41.715475 
L 453.192 41.715475 
L 453.192 41.715475 
" style="fill:none;stroke:#ff0000;stroke-linecap:square;stroke-width:3;"/>
   </g>
   <g id="line2d_64">
    <path clip-path="url(#p1fdd1879d1)" style="fill:none;stroke:#ff0000;stroke-linecap:square;stroke-width:3;"/>
   </g>
   <g id="line2d_65">
    <path clip-path="url(#p1fdd1879d1)" d="M 243.676 291.28 
L 243.676 3 
" style="fill:none;stroke:#000000;stroke-linecap:square;stroke-width:1.5;"/>
   </g>
   <g id="line2d_66">
    <path clip-path="url(#p1fdd1879d1)" d="M 34.16 147.14 
L 453.192 147.14 
" style="fill:none;stroke:#000000;stroke-dasharray:2,3.3;stroke-dashoffset:0;stroke-width:2;"/>
   </g>
   <g id="patch_3">
    <path d="M 34.16 291.28 
L 34.16 3 
" style="fill:none;stroke:#000000;stroke-linecap:square;stroke-linejoin:miter;stroke-width:0.8;"/>
   </g>
   <g id="patch_4">
    <path d="M 453.192 291.28 
L 453.192 3 
" style="fill:none;stroke:#000000;stroke-linecap:square;stroke-linejoin:miter;stroke-width:0.8;"/>
   </g>
   <g id="patch_5">
    <path d="M 34.16 291.28 
L 453.192 291.28 
" style="fill:none;stroke:#000000;stroke-linecap:square;stroke-linejoin:miter;stroke-width:0.8;"/>
   </g>
   <g id="patch_6">
    <path d="M 34.16 3 
L 453.192 3 
" style="fill:none;stroke:#000000;stroke-linecap:square;stroke-linejoin:miter;stroke-width:0.8;"/>
   </g>
   <g id="text_5">
    <!-- f20-f24,40-D -->
    <g transform="translate(318.19261 285.5144)scale(0.2 -0.2)">
     <defs>
      <path d="M 1228 531 
L 3431 531 
L 3431 0 
L 469 0 
L 469 531 
Q 828 903 1448 1529 
Q 2069 2156 2228 2338 
Q 2531 2678 2651 2914 
Q 2772 3150 2772 3378 
Q 2772 3750 2511 3984 
Q 2250 4219 1831 4219 
Q 1534 4219 1204 4116 
Q 875 4013 500 3803 
L 500 4441 
Q 881 4594 1212 4672 
Q 1544 4750 1819 4750 
Q 2544 4750 2975 4387 
Q 3406 4025 3406 3419 
Q 3406 3131 3298 2873 
Q 3191 2616 2906 2266 
Q 2828 2175 2409 1742 
Q 1991 1309 1228 531 
z
" id="DejaVuSans-32" transform="scale(0.015625)"/>
      <path d="M 2419 4116 
L 825 1625 
L 2419 1625 
L 2419 4116 
z
M 2253 4666 
L 3047 4666 
L 3047 1625 
L 3713 1625 
L 3713 1100 
L 3047 1100 
L 3047 0 
L 2419 0 
L 2419 1100 
L 313 1100 
L 313 1709 
L 2253 4666 
z
" id="DejaVuSans-34" transform="scale(0.015625)"/>
      <path d="M 750 794 
L 1409 794 
L 1409 256 
L 897 -744 
L 494 -744 
L 750 256 
L 750 794 
z
" id="DejaVuSans-2c" transform="scale(0.015625)"/>
      <path d="M 1259 4147 
L 1259 519 
L 2022 519 
Q 2988 519 3436 956 
Q 3884 1394 3884 2338 
Q 3884 3275 3436 3711 
Q 2988 4147 2022 4147 
L 1259 4147 
z
M 628 4666 
L 1925 4666 
Q 3281 4666 3915 4102 
Q 4550 3538 4550 2338 
Q 4550 1131 3912 565 
Q 3275 0 1925 0 
L 628 0 
L 628 4666 
z
" id="DejaVuSans-44" transform="scale(0.015625)"/>
     </defs>
     <use xlink:href="#DejaVuSans-66"/>
     <use x="35.205078" xlink:href="#DejaVuSans-32"/>
     <use x="98.828125" xlink:href="#DejaVuSans-30"/>
     <use x="162.451172" xlink:href="#DejaVuSans-2d"/>
     <use x="198.535156" xlink:href="#DejaVuSans-66"/>
     <use x="233.740234" xlink:href="#DejaVuSans-32"/>
     <use x="297.363281" xlink:href="#DejaVuSans-34"/>
     <use x="360.986328" xlink:href="#DejaVuSans-2c"/>
     <use x="392.773438" xlink:href="#DejaVuSans-34"/>
     <use x="456.396484" xlink:href="#DejaVuSans-30"/>
     <use x="520.019531" xlink:href="#DejaVuSans-2d"/>
     <use x="556.103516" xlink:href="#DejaVuSans-44"/>
    </g>
   </g>
   <g id="text_6">
    <!-- v2.6.3 -->
    <g style="fill:#808080;" transform="translate(227.99475 286.317512)scale(0.1 -0.1)">
     <defs>
      <path d="M 684 794 
L 1344 794 
L 1344 0 
L 684 0 
L 684 794 
z
" id="DejaVuSans-2e" transform="scale(0.015625)"/>
      <path d="M 2113 2584 
Q 1688 2584 1439 2293 
Q 1191 2003 1191 1497 
Q 1191 994 1439 701 
Q 1688 409 2113 409 
Q 2538 409 2786 701 
Q 3034 994 3034 1497 
Q 3034 2003 2786 2293 
Q 2538 2584 2113 2584 
z
M 3366 4563 
L 3366 3988 
Q 3128 4100 2886 4159 
Q 2644 4219 2406 4219 
Q 1781 4219 1451 3797 
Q 1122 3375 1075 2522 
Q 1259 2794 1537 2939 
Q 1816 3084 2150 3084 
Q 2853 3084 3261 2657 
Q 3669 2231 3669 1497 
Q 3669 778 3244 343 
Q 2819 -91 2113 -91 
Q 1303 -91 875 529 
Q 447 1150 447 2328 
Q 447 3434 972 4092 
Q 1497 4750 2381 4750 
Q 2619 4750 2861 4703 
Q 3103 4656 3366 4563 
z
" id="DejaVuSans-36" transform="scale(0.015625)"/>
      <path d="M 2597 2516 
Q 3050 2419 3304 2112 
Q 3559 1806 3559 1356 
Q 3559 666 3084 287 
Q 2609 -91 1734 -91 
Q 1441 -91 1130 -33 
Q 819 25 488 141 
L 488 750 
Q 750 597 1062 519 
Q 1375 441 1716 441 
Q 2309 441 2620 675 
Q 2931 909 2931 1356 
Q 2931 1769 2642 2001 
Q 2353 2234 1838 2234 
L 1294 2234 
L 1294 2753 
L 1863 2753 
Q 2328 2753 2575 2939 
Q 2822 3125 2822 3475 
Q 2822 3834 2567 4026 
Q 2313 4219 1838 4219 
Q 1578 4219 1281 4162 
Q 984 4106 628 3988 
L 628 4550 
Q 988 4650 1302 4700 
Q 1616 4750 1894 4750 
Q 2613 4750 3031 4423 
Q 3450 4097 3450 3541 
Q 3450 3153 3228 2886 
Q 3006 2619 2597 2516 
z
" id="DejaVuSans-33" transform="scale(0.015625)"/>
     </defs>
     <use xlink:href="#DejaVuSans-76"/>
     <use x="59.179688" xlink:href="#DejaVuSans-32"/>
     <use x="122.802734" xlink:href="#DejaVuSans-2e"/>
     <use x="154.589844" xlink:href="#DejaVuSans-36"/>
     <use x="218.212891" xlink:href="#DejaVuSans-2e"/>
     <use x="250" xlink:href="#DejaVuSans-33"/>
    </g>
   </g>
   <g id="legend_1">
    <g id="patch_7">
     <path d="M 309.970125 281.28 
L 439.192 281.28 
Q 443.192 281.28 443.192 277.28 
L 443.192 161.855 
Q 443.192 157.855 439.192 157.855 
L 309.970125 157.855 
Q 305.970125 157.855 305.970125 161.855 
L 305.970125 277.28 
Q 305.970125 281.28 309.970125 281.28 
z
" style="fill:#ffffff;opacity:0.2;stroke:#cccccc;stroke-linejoin:miter;"/>
    </g>
    <g id="line2d_67">
     <path d="M 313.970125 174.051875 
L 353.970125 174.051875 
" style="fill:none;stroke:#000000;stroke-linecap:square;stroke-width:3;"/>
    </g>
    <g id="line2d_68"/>
    <g id="text_7">
     <!-- 1: 3/2 -->
     <g transform="translate(369.970125 181.051875)scale(0.2 -0.2)">
      <defs>
       <path d="M 750 794 
L 1409 794 
L 1409 0 
L 750 0 
L 750 794 
z
M 750 3309 
L 1409 3309 
L 1409 2516 
L 750 2516 
L 750 3309 
z
" id="DejaVuSans-3a" transform="scale(0.015625)"/>
       <path d="M 1625 4666 
L 2156 4666 
L 531 -594 
L 0 -594 
L 1625 4666 
z
" id="DejaVuSans-2f" transform="scale(0.015625)"/>
      </defs>
      <use xlink:href="#DejaVuSans-31"/>
      <use x="63.623047" xlink:href="#DejaVuSans-3a"/>
      <use x="97.314453" xlink:href="#DejaVuSans-20"/>
      <use x="129.101562" xlink:href="#DejaVuSans-33"/>
      <use x="192.724609" xlink:href="#DejaVuSans-2f"/>
      <use x="226.416016" xlink:href="#DejaVuSans-32"/>
     </g>
    </g>
    <g id="line2d_69">
     <path d="M 313.970125 203.408125 
L 353.970125 203.408125 
" style="fill:none;stroke:#00bfbf;stroke-linecap:square;stroke-width:3;"/>
    </g>
    <g id="line2d_70"/>
    <g id="text_8">
     <!-- -1: 2/2 -->
     <g transform="translate(369.970125 210.408125)scale(0.2 -0.2)">
      <use xlink:href="#DejaVuSans-2d"/>
      <use x="36.083984" xlink:href="#DejaVuSans-31"/>
      <use x="99.707031" xlink:href="#DejaVuSans-3a"/>
      <use x="133.398438" xlink:href="#DejaVuSans-20"/>
      <use x="165.185547" xlink:href="#DejaVuSans-32"/>
      <use x="228.808594" xlink:href="#DejaVuSans-2f"/>
      <use x="262.5" xlink:href="#DejaVuSans-32"/>
     </g>
    </g>
    <g id="line2d_71">
     <path d="M 313.970125 232.764375 
L 353.970125 232.764375 
" style="fill:none;stroke:#bf00bf;stroke-linecap:square;stroke-width:3;"/>
    </g>
    <g id="line2d_72"/>
    <g id="text_9">
     <!-- -4: 1/1 -->
     <g transform="translate(369.970125 239.764375)scale(0.2 -0.2)">
      <use xlink:href="#DejaVuSans-2d"/>
      <use x="36.083984" xlink:href="#DejaVuSans-34"/>
      <use x="99.707031" xlink:href="#DejaVuSans-3a"/>
      <use x="133.398438" xlink:href="#DejaVuSans-20"/>
      <use x="165.185547" xlink:href="#DejaVuSans-31"/>
      <use x="228.808594" xlink:href="#DejaVuSans-2f"/>
      <use x="262.5" xlink:href="#DejaVuSans-31"/>
     </g>
    </g>
    <g id="line2d_73">
     <path d="M 313.970125 262.120625 
L 353.970125 262.120625 
" style="fill:none;stroke:#ff0000;stroke-linecap:square;stroke-width:3;"/>
    </g>
    <g id="line2d_74"/>
    <g id="text_10">
     <!-- -8: 1/1 -->
     <g transform="translate(369.970125 269.120625)scale(0.2 -0.2)">
      <defs>
       <path d="M 2034 2216 
Q 1584 2216 1326 1975 
Q 1069 1734 1069 1313 
Q 1069 891 1326 650 
Q 1584 409 2034 409 
Q 2484 409 2743 651 
Q 3003 894 3003 1313 
Q 3003 1734 2745 1975 
Q 2488 2216 2034 2216 
z
M 1403 2484 
Q 997 2584 770 2862 
Q 544 3141 544 3541 
Q 544 4100 942 4425 
Q 1341 4750 2034 4750 
Q 2731 4750 3128 4425 
Q 3525 4100 3525 3541 
Q 3525 3141 3298 2862 
Q 3072 2584 2669 2484 
Q 3125 2378 3379 2068 
Q 3634 1759 3634 1313 
Q 3634 634 3220 271 
Q 2806 -91 2034 -91 
Q 1263 -91 848 271 
Q 434 634 434 1313 
Q 434 1759 690 2068 
Q 947 2378 1403 2484 
z
M 1172 3481 
Q 1172 3119 1398 2916 
Q 1625 2713 2034 2713 
Q 2441 2713 2670 2916 
Q 2900 3119 2900 3481 
Q 2900 3844 2670 4047 
Q 2441 4250 2034 4250 
Q 1625 4250 1398 4047 
Q 1172 3844 1172 3481 
z
" id="DejaVuSans-38" transform="scale(0.015625)"/>
      </defs>
      <use xlink:href="#DejaVuSans-2d"/>
      <use x="36.083984" xlink:href="#DejaVuSans-38"/>
      <use x="99.707031" xlink:href="#DejaVuSans-3a"/>
      <use x="133.398438" xlink:href="#DejaVuSans-20"/>
      <use x="165.185547" xlink:href="#DejaVuSans-31"/>
      <use x="228.808594" xlink:href="#DejaVuSans-2f"/>
      <use x="262.5" xlink:href="#DejaVuSans-31"/>
     </g>
    </g>
   </g>
  </g>
 </g>
 <defs>
  <clipPath id="p1fdd1879d1">
   <rect height="288.28" width="419.032" x="34.16" y="3"/>
  </clipPath>
 </defs>
</svg>
