<?xml version="1.0" encoding="utf-8" standalone="no"?>
<!DOCTYPE svg PUBLIC "-//W3C//DTD SVG 1.1//EN"
  "http://www.w3.org/Graphics/SVG/1.1/DTD/svg11.dtd">
<svg height="345.6pt" version="1.1" viewBox="0 0 460.8 345.6" width="460.8pt" xmlns="http://www.w3.org/2000/svg" xmlns:xlink="http://www.w3.org/1999/xlink">
 <metadata>
  <rdf:RDF xmlns:cc="http://creativecommons.org/ns#" xmlns:dc="http://purl.org/dc/elements/1.1/" xmlns:rdf="http://www.w3.org/1999/02/22-rdf-syntax-ns#">
   <cc:Work>
    <dc:type rdf:resource="http://purl.org/dc/dcmitype/StillImage"/>
    <dc:date>2023-04-17T18:02:33.670693</dc:date>
    <dc:format>image/svg+xml</dc:format>
    <dc:creator>
     <cc:Agent>
      <dc:title>Matplotlib v3.4.1, https://matplotlib.org/</dc:title>
     </cc:Agent>
    </dc:creator>
   </cc:Work>
  </rdf:RDF>
 </metadata>
 <defs>
  <style type="text/css">*{stroke-linecap:butt;stroke-linejoin:round;}</style>
 </defs>
 <g id="figure_1">
  <g id="patch_1">
   <path d="M 0 345.6 
L 460.8 345.6 
L 460.8 0 
L 0 0 
z
" style="fill:#ffffff;"/>
  </g>
  <g id="axes_1">
   <g id="patch_2">
    <path d="M 62.208 293.76 
L 460.8 293.76 
L 460.8 3.456 
L 62.208 3.456 
z
" style="fill:#ffffff;"/>
   </g>
   <g id="line2d_1"/>
   <g id="line2d_2">
    <path clip-path="url(#p0a45ca4242)" d="M 370.321655 293.76 
L 370.321655 288.969505 
L 372.549618 288.969505 
L 372.549618 284.17901 
L 377.837811 284.17901 
L 377.837811 279.388515 
L 378.702596 279.388515 
L 378.702596 274.59802 
L 380.961978 274.59802 
L 380.961978 269.807525 
L 382.097886 269.807525 
L 382.097886 265.01703 
L 382.638972 265.01703 
L 382.638972 260.226535 
L 382.661436 260.226535 
L 382.661436 255.43604 
L 382.769695 255.43604 
L 382.769695 250.645545 
L 383.101322 250.645545 
L 383.101322 245.85505 
L 383.168779 245.85505 
L 383.168779 241.064554 
L 383.353506 241.064554 
L 383.353506 236.274059 
L 383.356478 236.274059 
L 383.356478 231.483564 
L 383.422671 231.483564 
L 383.422671 226.693069 
L 383.481561 226.693069 
L 383.481561 221.902574 
L 383.750367 221.902574 
L 383.750367 217.112079 
L 383.924134 217.112079 
L 383.924134 212.321584 
L 384.495644 212.321584 
L 384.495644 207.531089 
L 385.166359 207.531089 
L 385.166359 202.740594 
L 385.226463 202.740594 
L 385.226463 197.950099 
L 387.866315 197.950099 
L 387.866315 193.159604 
L 389.596728 193.159604 
L 389.596728 188.369109 
L 404.724599 188.369109 
L 404.724599 183.578614 
L 409.314439 183.578614 
L 409.314439 178.788119 
L 410.59988 178.788119 
L 410.59988 173.997624 
L 411.520359 173.997624 
L 411.520359 169.207129 
L 412.459929 169.207129 
L 412.459929 164.416634 
L 412.695002 164.416634 
L 412.695002 159.626139 
L 425.151777 159.626139 
L 425.151777 154.835644 
L 429.158114 154.835644 
L 429.158114 150.045149 
L 429.158114 150.045149 
L 429.158114 150.045149 
L 460.8 150.045149 
" style="fill:none;stroke:#f5deb3;stroke-linecap:square;stroke-width:1.5;"/>
   </g>
   <g id="line2d_3"/>
   <g id="line2d_4"/>
   <g id="line2d_5">
    <path clip-path="url(#p0a45ca4242)" d="M 328.832628 293.76 
L 328.832628 288.969505 
L 329.761422 288.969505 
L 329.761422 284.17901 
L 330.302042 284.17901 
L 330.302042 279.388515 
L 330.532238 279.388515 
L 330.532238 274.59802 
L 330.85996 274.59802 
L 330.85996 269.807525 
L 330.928224 269.807525 
L 330.928224 265.01703 
L 333.411905 265.01703 
L 333.411905 260.226535 
L 333.589903 260.226535 
L 333.589903 255.43604 
L 333.81945 255.43604 
L 333.81945 250.645545 
L 335.114407 250.645545 
L 335.114407 245.85505 
L 335.188283 245.85505 
L 335.188283 241.064554 
L 336.096717 241.064554 
L 336.096717 236.274059 
L 338.274987 236.274059 
L 338.274987 231.483564 
L 338.495065 231.483564 
L 338.495065 226.693069 
L 338.846763 226.693069 
L 338.846763 221.902574 
L 371.780169 221.902574 
L 371.780169 217.112079 
L 372.470607 217.112079 
L 372.470607 212.321584 
L 372.65987 212.321584 
L 372.65987 207.531089 
L 372.758296 207.531089 
L 372.758296 202.740594 
L 373.2887 202.740594 
L 373.2887 197.950099 
L 373.408349 197.950099 
L 373.408349 193.159604 
L 373.605202 193.159604 
L 373.605202 188.369109 
L 373.785587 188.369109 
L 373.785587 183.578614 
L 374.247429 183.578614 
L 374.247429 178.788119 
L 374.777953 178.788119 
L 374.777953 173.997624 
L 374.812975 173.997624 
L 374.812975 169.207129 
L 374.819244 169.207129 
L 374.819244 164.416634 
L 374.98816 164.416634 
L 374.98816 159.626139 
L 375.394568 159.626139 
L 375.394568 154.835644 
L 376.045218 154.835644 
L 376.045218 150.045149 
L 376.192521 150.045149 
L 376.192521 145.254653 
L 376.201615 145.254653 
L 376.201615 140.464158 
L 376.252102 140.464158 
L 376.252102 135.673663 
L 376.402188 135.673663 
L 376.402188 130.883168 
L 376.653288 130.883168 
L 376.653288 126.092673 
L 376.707716 126.092673 
L 376.707716 121.302178 
L 377.556713 121.302178 
L 377.556713 116.511683 
L 378.592148 116.511683 
L 378.592148 111.721188 
L 378.649789 111.721188 
L 378.649789 106.930693 
L 379.400292 106.930693 
L 379.400292 102.140198 
L 379.510462 102.140198 
L 379.510462 97.349703 
L 401.039768 97.349703 
L 401.039768 92.559208 
L 402.012718 92.559208 
L 402.012718 87.768713 
L 402.148854 87.768713 
L 402.148854 82.978218 
L 402.661312 82.978218 
L 402.661312 78.187723 
L 402.887688 78.187723 
L 402.887688 73.397228 
L 403.5441 73.397228 
L 403.5441 68.606733 
L 404.181765 68.606733 
L 404.181765 63.816238 
L 404.765536 63.816238 
L 404.765536 59.025743 
L 405.052468 59.025743 
L 405.052468 54.235248 
L 405.725905 54.235248 
L 405.725905 49.444752 
L 405.91989 49.444752 
L 405.91989 44.654257 
L 406.228916 44.654257 
L 406.228916 39.863762 
L 408.358944 39.863762 
L 408.358944 35.073267 
L 408.836944 35.073267 
L 408.836944 30.282772 
L 409.137872 30.282772 
L 409.137872 25.492277 
L 409.619321 25.492277 
L 409.619321 20.701782 
L 409.859069 20.701782 
L 409.859069 15.911287 
L 409.891198 15.911287 
L 409.891198 11.120792 
L 432.209309 11.120792 
L 432.209309 6.330297 
L 432.209309 6.330297 
L 432.209309 6.330297 
L 460.8 6.330297 
" style="fill:none;stroke:#f5deb3;stroke-linecap:square;stroke-width:1.5;"/>
   </g>
   <g id="line2d_6">
    <path clip-path="url(#p0a45ca4242)" d="M 377.841209 293.76 
L 377.841209 288.969505 
L 380.332965 288.969505 
L 380.332965 284.17901 
L 383.135918 284.17901 
L 383.135918 279.388515 
L 387.920329 279.388515 
L 387.920329 274.59802 
L 389.122461 274.59802 
L 389.122461 269.807525 
L 399.013398 269.807525 
L 399.013398 265.01703 
L 404.426709 265.01703 
L 404.426709 260.226535 
L 407.544472 260.226535 
L 407.544472 255.43604 
L 409.436618 255.43604 
L 409.436618 250.645545 
L 413.83445 250.645545 
L 413.83445 245.85505 
L 415.404679 245.85505 
L 415.404679 241.064554 
L 418.987626 241.064554 
L 418.987626 236.274059 
L 431.693814 236.274059 
L 431.693814 231.483564 
L 432.985814 231.483564 
L 432.985814 226.693069 
L 450.542354 226.693069 
L 450.542354 221.902574 
L 461.8 221.902574 
" style="fill:none;stroke:#f5deb3;stroke-linecap:square;stroke-width:1.5;"/>
   </g>
   <g id="line2d_7">
    <path clip-path="url(#p0a45ca4242)" d="M 311.324276 293.76 
L 311.324276 291.364752 
L 313.181886 291.364752 
L 313.181886 288.969505 
L 313.37264 288.969505 
L 313.37264 286.574257 
L 313.467687 286.574257 
L 313.467687 284.17901 
L 314.313382 284.17901 
L 314.313382 281.783762 
L 314.498981 281.783762 
L 314.498981 279.388515 
L 315.050812 279.388515 
L 315.050812 276.993267 
L 315.142069 276.993267 
L 315.142069 274.59802 
L 315.233125 274.59802 
L 315.233125 272.202772 
L 315.32398 272.202772 
L 315.32398 269.807525 
L 315.414636 269.807525 
L 315.414636 267.412277 
L 315.505092 267.412277 
L 315.505092 265.01703 
L 315.59535 265.01703 
L 315.59535 262.621782 
L 315.864944 262.621782 
L 315.864944 260.226535 
L 315.954418 260.226535 
L 315.954418 257.831287 
L 316.132786 257.831287 
L 316.132786 255.43604 
L 316.221681 255.43604 
L 316.221681 253.040792 
L 316.310385 253.040792 
L 316.310385 250.645545 
L 316.398898 250.645545 
L 316.398898 248.250297 
L 316.663302 248.250297 
L 316.663302 245.85505 
L 316.751061 245.85505 
L 316.751061 243.459802 
L 316.838634 243.459802 
L 316.838634 241.064554 
L 316.926021 241.064554 
L 316.926021 238.669307 
L 317.013223 238.669307 
L 317.013223 236.274059 
L 317.013223 236.274059 
L 317.013223 233.878812 
L 317.10024 233.878812 
L 317.10024 231.483564 
L 317.187075 231.483564 
L 317.187075 229.088317 
L 317.273727 229.088317 
L 317.273727 226.693069 
L 317.446485 226.693069 
L 317.446485 224.297822 
L 317.446485 224.297822 
L 317.446485 221.902574 
L 317.446485 221.902574 
L 317.446485 219.507327 
L 317.532594 219.507327 
L 317.532594 217.112079 
L 317.532594 217.112079 
L 317.532594 214.716832 
L 317.618523 214.716832 
L 317.618523 212.321584 
L 317.618523 212.321584 
L 317.618523 209.926337 
L 317.87524 209.926337 
L 317.87524 207.531089 
L 317.87524 207.531089 
L 317.87524 205.135842 
L 317.87524 205.135842 
L 317.87524 202.740594 
L 318.0455 202.740594 
L 318.0455 200.345347 
L 318.0455 200.345347 
L 318.0455 197.950099 
L 318.468098 197.950099 
L 318.468098 195.554851 
L 318.5521 195.554851 
L 318.5521 193.159604 
L 318.635931 193.159604 
L 318.635931 190.764356 
L 318.886406 190.764356 
L 318.886406 188.369109 
L 319.135368 188.369109 
L 319.135368 185.973861 
L 319.218022 185.973861 
L 319.218022 183.578614 
L 319.710494 183.578614 
L 319.710494 181.183366 
L 319.710494 181.183366 
L 319.710494 178.788119 
L 319.792003 178.788119 
L 319.792003 176.392871 
L 340.725627 176.392871 
L 340.725627 173.997624 
L 343.793158 173.997624 
L 343.793158 171.602376 
L 343.884016 171.602376 
L 343.884016 169.207129 
L 344.469757 169.207129 
L 344.469757 166.811881 
L 345.003148 166.811881 
L 345.003148 164.416634 
L 346.135675 164.416634 
L 346.135675 162.021386 
L 347.154157 162.021386 
L 347.154157 159.626139 
L 347.363209 159.626139 
L 347.363209 157.230891 
L 347.778157 157.230891 
L 347.778157 154.835644 
L 361.900918 154.835644 
L 361.900918 152.440396 
L 383.588956 152.440396 
L 383.588956 150.045149 
L 383.588956 150.045149 
L 383.588956 150.045149 
L 460.8 150.045149 
" style="fill:none;stroke:#f5deb3;stroke-linecap:square;stroke-width:1.5;"/>
   </g>
   <g id="line2d_8"/>
   <g id="line2d_9"/>
   <g id="line2d_10"/>
   <g id="line2d_11">
    <path clip-path="url(#p0a45ca4242)" d="M 453.607912 293.76 
L 453.607912 288.969505 
L 461.8 288.969505 
" style="fill:none;stroke:#f5deb3;stroke-linecap:square;stroke-width:1.5;"/>
   </g>
   <g id="line2d_12"/>
   <g id="line2d_13">
    <path clip-path="url(#p0a45ca4242)" d="M 272.636019 293.76 
L 272.636019 288.969505 
L 275.345589 288.969505 
L 275.345589 284.17901 
L 281.29576 284.17901 
L 281.29576 279.388515 
L 282.343909 279.388515 
L 282.343909 274.59802 
L 282.643441 274.59802 
L 282.643441 269.807525 
L 283.008757 269.807525 
L 283.008757 265.01703 
L 284.899597 265.01703 
L 284.899597 260.226535 
L 284.99213 260.226535 
L 284.99213 255.43604 
L 285.158168 255.43604 
L 285.158168 250.645545 
L 285.259307 250.645545 
L 285.259307 245.85505 
L 286.574256 245.85505 
L 286.574256 241.064554 
L 287.043003 241.064554 
L 287.043003 236.274059 
L 287.593343 236.274059 
L 287.593343 231.483564 
L 288.625933 231.483564 
L 288.625933 226.693069 
L 290.378015 226.693069 
L 290.378015 221.902574 
L 291.093594 221.902574 
L 291.093594 217.112079 
L 292.795587 217.112079 
L 292.795587 212.321584 
L 294.238492 212.321584 
L 294.238492 207.531089 
L 296.171628 207.531089 
L 296.171628 202.740594 
L 296.189241 202.740594 
L 296.189241 197.950099 
L 309.962925 197.950099 
L 309.962925 193.159604 
L 314.541866 193.159604 
L 314.541866 188.369109 
L 314.943716 188.369109 
L 314.943716 183.578614 
L 315.577754 183.578614 
L 315.577754 178.788119 
L 315.639307 178.788119 
L 315.639307 173.997624 
L 316.381642 173.997624 
L 316.381642 169.207129 
L 316.480765 169.207129 
L 316.480765 164.416634 
L 316.601116 164.416634 
L 316.601116 159.626139 
L 317.072669 159.626139 
L 317.072669 154.835644 
L 317.564052 154.835644 
L 317.564052 150.045149 
L 318.210933 150.045149 
L 318.210933 145.254653 
L 318.303697 145.254653 
L 318.303697 140.464158 
L 318.52958 140.464158 
L 318.52958 135.673663 
L 319.742322 135.673663 
L 319.742322 130.883168 
L 319.831706 130.883168 
L 319.831706 126.092673 
L 320.604193 126.092673 
L 320.604193 121.302178 
L 321.172761 121.302178 
L 321.172761 116.511683 
L 321.90187 116.511683 
L 321.90187 111.721188 
L 323.613141 111.721188 
L 323.613141 106.930693 
L 324.099012 106.930693 
L 324.099012 102.140198 
L 324.150859 102.140198 
L 324.150859 97.349703 
L 324.158005 97.349703 
L 324.158005 92.559208 
L 324.172294 92.559208 
L 324.172294 87.768713 
L 330.337422 87.768713 
L 330.337422 82.978218 
L 330.665165 82.978218 
L 330.665165 78.187723 
L 330.665165 78.187723 
L 330.665165 78.187723 
L 460.8 78.187723 
" style="fill:none;stroke:#f5deb3;stroke-linecap:square;stroke-width:1.5;"/>
   </g>
   <g id="line2d_14"/>
   <g id="line2d_15"/>
   <g id="line2d_16">
    <path clip-path="url(#p0a45ca4242)" d="M 425.435695 293.76 
L 425.435695 288.969505 
L 439.876362 288.969505 
L 439.876362 284.17901 
L 442.795049 284.17901 
L 442.795049 279.388515 
L 442.795049 279.388515 
L 442.795049 279.388515 
L 460.8 279.388515 
" style="fill:none;stroke:#f5deb3;stroke-linecap:square;stroke-width:1.5;"/>
   </g>
   <g id="line2d_17">
    <path clip-path="url(#p0a45ca4242)" d="M 363.340768 293.76 
L 363.340768 288.969505 
L 364.280426 288.969505 
L 364.280426 284.17901 
L 365.310489 284.17901 
L 365.310489 279.388515 
L 365.471389 279.388515 
L 365.471389 274.59802 
L 366.415484 274.59802 
L 366.415484 269.807525 
L 366.893159 269.807525 
L 366.893159 265.01703 
L 369.526262 265.01703 
L 369.526262 260.226535 
L 370.670935 260.226535 
L 370.670935 255.43604 
L 371.464013 255.43604 
L 371.464013 250.645545 
L 371.716568 250.645545 
L 371.716568 245.85505 
L 372.791784 245.85505 
L 372.791784 241.064554 
L 375.43782 241.064554 
L 375.43782 236.274059 
L 375.631381 236.274059 
L 375.631381 231.483564 
L 376.27934 231.483564 
L 376.27934 226.693069 
L 376.660782 226.693069 
L 376.660782 221.902574 
L 451.098736 221.902574 
L 451.098736 217.112079 
L 452.174913 217.112079 
L 452.174913 212.321584 
L 452.206792 212.321584 
L 452.206792 207.531089 
L 452.300767 207.531089 
L 452.300767 202.740594 
L 452.32363 202.740594 
L 452.32363 197.950099 
L 452.357622 197.950099 
L 452.357622 193.159604 
L 452.713135 193.159604 
L 452.713135 188.369109 
L 452.792817 188.369109 
L 452.792817 183.578614 
L 452.855681 183.578614 
L 452.855681 178.788119 
L 452.921903 178.788119 
L 452.921903 173.997624 
L 453.281005 173.997624 
L 453.281005 169.207129 
L 453.357345 169.207129 
L 453.357345 164.416634 
L 453.526389 164.416634 
L 453.526389 159.626139 
L 453.690275 159.626139 
L 453.690275 154.835644 
L 453.715229 154.835644 
L 453.715229 150.045149 
L 453.71546 150.045149 
L 453.71546 145.254653 
L 453.920985 145.254653 
L 453.920985 140.464158 
L 453.928875 140.464158 
L 453.928875 135.673663 
L 453.989725 135.673663 
L 453.989725 130.883168 
L 454.074154 130.883168 
L 454.074154 126.092673 
L 454.749583 126.092673 
L 454.749583 121.302178 
L 454.763246 121.302178 
L 454.763246 116.511683 
L 454.897089 116.511683 
L 454.897089 111.721188 
L 454.929473 111.721188 
L 454.929473 106.930693 
L 455.106943 106.930693 
L 455.106943 102.140198 
L 455.194612 102.140198 
L 455.194612 97.349703 
L 455.41338 97.349703 
L 455.41338 92.559208 
L 455.442259 92.559208 
L 455.442259 87.768713 
L 455.689308 87.768713 
L 455.689308 82.978218 
L 455.820546 82.978218 
L 455.820546 78.187723 
L 461.8 78.187723 
" style="fill:none;stroke:#f5deb3;stroke-linecap:square;stroke-width:1.5;"/>
   </g>
   <g id="line2d_18">
    <path clip-path="url(#p0a45ca4242)" d="M 340.080092 293.76 
L 340.080092 288.969505 
L 340.196456 288.969505 
L 340.196456 284.17901 
L 340.831843 284.17901 
L 340.831843 279.388515 
L 341.427047 279.388515 
L 341.427047 274.59802 
L 341.587681 274.59802 
L 341.587681 269.807525 
L 341.872233 269.807525 
L 341.872233 265.01703 
L 342.880195 265.01703 
L 342.880195 260.226535 
L 343.212277 260.226535 
L 343.212277 255.43604 
L 343.450087 255.43604 
L 343.450087 250.645545 
L 343.916101 250.645545 
L 343.916101 245.85505 
L 344.341891 245.85505 
L 344.341891 241.064554 
L 344.843422 241.064554 
L 344.843422 236.274059 
L 345.924499 236.274059 
L 345.924499 231.483564 
L 346.191179 231.483564 
L 346.191179 226.693069 
L 349.928387 226.693069 
L 349.928387 221.902574 
L 360.725654 221.902574 
L 360.725654 217.112079 
L 369.05369 217.112079 
L 369.05369 212.321584 
L 377.116865 212.321584 
L 377.116865 207.531089 
L 377.580659 207.531089 
L 377.580659 202.740594 
L 377.910573 202.740594 
L 377.910573 197.950099 
L 378.075993 197.950099 
L 378.075993 193.159604 
L 378.8246 193.159604 
L 378.8246 188.369109 
L 378.875763 188.369109 
L 378.875763 183.578614 
L 379.523047 183.578614 
L 379.523047 178.788119 
L 379.752175 178.788119 
L 379.752175 173.997624 
L 379.90807 173.997624 
L 379.90807 169.207129 
L 380.065217 169.207129 
L 380.065217 164.416634 
L 380.957927 164.416634 
L 380.957927 159.626139 
L 381.14654 159.626139 
L 381.14654 154.835644 
L 381.155948 154.835644 
L 381.155948 150.045149 
L 381.422509 150.045149 
L 381.422509 145.254653 
L 381.449649 145.254653 
L 381.449649 140.464158 
L 381.703274 140.464158 
L 381.703274 135.673663 
L 382.630329 135.673663 
L 382.630329 130.883168 
L 382.670936 130.883168 
L 382.670936 126.092673 
L 382.850165 126.092673 
L 382.850165 121.302178 
L 383.218234 121.302178 
L 383.218234 116.511683 
L 383.604155 116.511683 
L 383.604155 111.721188 
L 384.701665 111.721188 
L 384.701665 106.930693 
L 385.461568 106.930693 
L 385.461568 102.140198 
L 408.064377 102.140198 
L 408.064377 97.349703 
L 410.820052 97.349703 
L 410.820052 92.559208 
L 412.558718 92.559208 
L 412.558718 87.768713 
L 422.5763 87.768713 
L 422.5763 82.978218 
L 434.030614 82.978218 
L 434.030614 78.187723 
L 434.030614 78.187723 
L 434.030614 78.187723 
L 460.8 78.187723 
" style="fill:none;stroke:#f5deb3;stroke-linecap:square;stroke-width:1.5;"/>
   </g>
   <g id="line2d_19">
    <path clip-path="url(#p0a45ca4242)" d="M 330.553658 293.76 
L 330.553658 288.969505 
L 330.643804 288.969505 
L 330.643804 284.17901 
L 330.802226 284.17901 
L 330.802226 279.388515 
L 331.944759 279.388515 
L 331.944759 274.59802 
L 332.394802 274.59802 
L 332.394802 269.807525 
L 332.78496 269.807525 
L 332.78496 265.01703 
L 372.009552 265.01703 
L 372.009552 260.226535 
L 372.322675 260.226535 
L 372.322675 255.43604 
L 372.49217 255.43604 
L 372.49217 250.645545 
L 374.574026 250.645545 
L 374.574026 245.85505 
L 374.970988 245.85505 
L 374.970988 241.064554 
L 406.772315 241.064554 
L 406.772315 236.274059 
L 407.72681 236.274059 
L 407.72681 231.483564 
L 410.927632 231.483564 
L 410.927632 226.693069 
L 411.161855 226.693069 
L 411.161855 221.902574 
L 411.347848 221.902574 
L 411.347848 217.112079 
L 411.60367 217.112079 
L 411.60367 212.321584 
L 411.677203 212.321584 
L 411.677203 207.531089 
L 411.678271 207.531089 
L 411.678271 202.740594 
L 411.718402 202.740594 
L 411.718402 197.950099 
L 411.984661 197.950099 
L 411.984661 193.159604 
L 412.157276 193.159604 
L 412.157276 188.369109 
L 412.282477 188.369109 
L 412.282477 183.578614 
L 412.720205 183.578614 
L 412.720205 178.788119 
L 412.793853 178.788119 
L 412.793853 173.997624 
L 412.95256 173.997624 
L 412.95256 169.207129 
L 413.027241 169.207129 
L 413.027241 164.416634 
L 413.166724 164.416634 
L 413.166724 159.626139 
L 413.197816 159.626139 
L 413.197816 154.835644 
L 413.204814 154.835644 
L 413.204814 150.045149 
L 413.257053 150.045149 
L 413.257053 145.254653 
L 413.508273 145.254653 
L 413.508273 140.464158 
L 413.61029 140.464158 
L 413.61029 135.673663 
L 413.982542 135.673663 
L 413.982542 130.883168 
L 414.14459 130.883168 
L 414.14459 126.092673 
L 414.25608 126.092673 
L 414.25608 121.302178 
L 414.303197 121.302178 
L 414.303197 116.511683 
L 414.306804 116.511683 
L 414.306804 111.721188 
L 414.48654 111.721188 
L 414.48654 106.930693 
L 414.688134 106.930693 
L 414.688134 102.140198 
L 414.895264 102.140198 
L 414.895264 97.349703 
L 414.977944 97.349703 
L 414.977944 92.559208 
L 415.005927 92.559208 
L 415.005927 87.768713 
L 415.247717 87.768713 
L 415.247717 82.978218 
L 415.645504 82.978218 
L 415.645504 78.187723 
L 415.676914 78.187723 
L 415.676914 73.397228 
L 416.001625 73.397228 
L 416.001625 68.606733 
L 416.310439 68.606733 
L 416.310439 63.816238 
L 416.734431 63.816238 
L 416.734431 59.025743 
L 418.06616 59.025743 
L 418.06616 54.235248 
L 418.834784 54.235248 
L 418.834784 49.444752 
L 421.995513 49.444752 
L 421.995513 44.654257 
L 423.278309 44.654257 
L 423.278309 39.863762 
L 423.559864 39.863762 
L 423.559864 35.073267 
L 424.793251 35.073267 
L 424.793251 30.282772 
L 425.11665 30.282772 
L 425.11665 25.492277 
L 431.67226 25.492277 
L 431.67226 20.701782 
L 435.074275 20.701782 
L 435.074275 15.911287 
L 437.447023 15.911287 
L 437.447023 11.120792 
L 453.091176 11.120792 
L 453.091176 6.330297 
L 453.091176 6.330297 
L 453.091176 6.330297 
L 460.8 6.330297 
" style="fill:none;stroke:#f5deb3;stroke-linecap:square;stroke-width:1.5;"/>
   </g>
   <g id="line2d_20"/>
   <g id="matplotlib.axis_1">
    <g id="xtick_1">
     <g id="line2d_21">
      <path clip-path="url(#p0a45ca4242)" d="M 62.208 293.76 
L 62.208 3.456 
" style="fill:none;stroke:#b0b0b0;stroke-linecap:square;stroke-width:0.8;"/>
     </g>
     <g id="line2d_22">
      <defs>
       <path d="M 0 0 
L 0 3.5 
" id="m3f68916055" style="stroke:#000000;stroke-width:0.8;"/>
      </defs>
      <g>
       <use style="stroke:#000000;stroke-width:0.8;" x="62.208" xlink:href="#m3f68916055" y="293.76"/>
      </g>
     </g>
     <g id="text_1">
      <!-- 0 -->
      <g transform="translate(55.8455 315.956875)scale(0.2 -0.2)">
       <defs>
        <path d="M 2034 4250 
Q 1547 4250 1301 3770 
Q 1056 3291 1056 2328 
Q 1056 1369 1301 889 
Q 1547 409 2034 409 
Q 2525 409 2770 889 
Q 3016 1369 3016 2328 
Q 3016 3291 2770 3770 
Q 2525 4250 2034 4250 
z
M 2034 4750 
Q 2819 4750 3233 4129 
Q 3647 3509 3647 2328 
Q 3647 1150 3233 529 
Q 2819 -91 2034 -91 
Q 1250 -91 836 529 
Q 422 1150 422 2328 
Q 422 3509 836 4129 
Q 1250 4750 2034 4750 
z
" id="DejaVuSans-30" transform="scale(0.015625)"/>
       </defs>
       <use xlink:href="#DejaVuSans-30"/>
      </g>
     </g>
    </g>
    <g id="xtick_2">
     <g id="line2d_23">
      <path clip-path="url(#p0a45ca4242)" d="M 251.964122 293.76 
L 251.964122 3.456 
" style="fill:none;stroke:#b0b0b0;stroke-linecap:square;stroke-width:0.8;"/>
     </g>
     <g id="line2d_24">
      <g>
       <use style="stroke:#000000;stroke-width:0.8;" x="251.964122" xlink:href="#m3f68916055" y="293.76"/>
      </g>
     </g>
     <g id="text_2">
      <!-- 2 -->
      <g transform="translate(245.601622 315.956875)scale(0.2 -0.2)">
       <defs>
        <path d="M 1228 531 
L 3431 531 
L 3431 0 
L 469 0 
L 469 531 
Q 828 903 1448 1529 
Q 2069 2156 2228 2338 
Q 2531 2678 2651 2914 
Q 2772 3150 2772 3378 
Q 2772 3750 2511 3984 
Q 2250 4219 1831 4219 
Q 1534 4219 1204 4116 
Q 875 4013 500 3803 
L 500 4441 
Q 881 4594 1212 4672 
Q 1544 4750 1819 4750 
Q 2544 4750 2975 4387 
Q 3406 4025 3406 3419 
Q 3406 3131 3298 2873 
Q 3191 2616 2906 2266 
Q 2828 2175 2409 1742 
Q 1991 1309 1228 531 
z
" id="DejaVuSans-32" transform="scale(0.015625)"/>
       </defs>
       <use xlink:href="#DejaVuSans-32"/>
      </g>
     </g>
    </g>
    <g id="xtick_3">
     <g id="line2d_25">
      <path clip-path="url(#p0a45ca4242)" d="M 441.720244 293.76 
L 441.720244 3.456 
" style="fill:none;stroke:#b0b0b0;stroke-linecap:square;stroke-width:0.8;"/>
     </g>
     <g id="line2d_26">
      <g>
       <use style="stroke:#000000;stroke-width:0.8;" x="441.720244" xlink:href="#m3f68916055" y="293.76"/>
      </g>
     </g>
     <g id="text_3">
      <!-- 4 -->
      <g transform="translate(435.357744 315.956875)scale(0.2 -0.2)">
       <defs>
        <path d="M 2419 4116 
L 825 1625 
L 2419 1625 
L 2419 4116 
z
M 2253 4666 
L 3047 4666 
L 3047 1625 
L 3713 1625 
L 3713 1100 
L 3047 1100 
L 3047 0 
L 2419 0 
L 2419 1100 
L 313 1100 
L 313 1709 
L 2253 4666 
z
" id="DejaVuSans-34" transform="scale(0.015625)"/>
       </defs>
       <use xlink:href="#DejaVuSans-34"/>
      </g>
     </g>
    </g>
    <g id="xtick_4">
     <g id="line2d_27">
      <path clip-path="url(#p0a45ca4242)" d="M 90.769142 293.76 
L 90.769142 3.456 
" style="fill:none;stroke:#b0b0b0;stroke-linecap:square;stroke-width:0.8;"/>
     </g>
     <g id="line2d_28">
      <defs>
       <path d="M 0 0 
L 0 2 
" id="m2bdc4ea1d3" style="stroke:#000000;stroke-width:0.6;"/>
      </defs>
      <g>
       <use style="stroke:#000000;stroke-width:0.6;" x="90.769142" xlink:href="#m2bdc4ea1d3" y="293.76"/>
      </g>
     </g>
    </g>
    <g id="xtick_5">
     <g id="line2d_29">
      <path clip-path="url(#p0a45ca4242)" d="M 107.47634 293.76 
L 107.47634 3.456 
" style="fill:none;stroke:#b0b0b0;stroke-linecap:square;stroke-width:0.8;"/>
     </g>
     <g id="line2d_30">
      <g>
       <use style="stroke:#000000;stroke-width:0.6;" x="107.47634" xlink:href="#m2bdc4ea1d3" y="293.76"/>
      </g>
     </g>
    </g>
    <g id="xtick_6">
     <g id="line2d_31">
      <path clip-path="url(#p0a45ca4242)" d="M 119.330285 293.76 
L 119.330285 3.456 
" style="fill:none;stroke:#b0b0b0;stroke-linecap:square;stroke-width:0.8;"/>
     </g>
     <g id="line2d_32">
      <g>
       <use style="stroke:#000000;stroke-width:0.6;" x="119.330285" xlink:href="#m2bdc4ea1d3" y="293.76"/>
      </g>
     </g>
    </g>
    <g id="xtick_7">
     <g id="line2d_33">
      <path clip-path="url(#p0a45ca4242)" d="M 128.524919 293.76 
L 128.524919 3.456 
" style="fill:none;stroke:#b0b0b0;stroke-linecap:square;stroke-width:0.8;"/>
     </g>
     <g id="line2d_34">
      <g>
       <use style="stroke:#000000;stroke-width:0.6;" x="128.524919" xlink:href="#m2bdc4ea1d3" y="293.76"/>
      </g>
     </g>
    </g>
    <g id="xtick_8">
     <g id="line2d_35">
      <path clip-path="url(#p0a45ca4242)" d="M 136.037482 293.76 
L 136.037482 3.456 
" style="fill:none;stroke:#b0b0b0;stroke-linecap:square;stroke-width:0.8;"/>
     </g>
     <g id="line2d_36">
      <g>
       <use style="stroke:#000000;stroke-width:0.6;" x="136.037482" xlink:href="#m2bdc4ea1d3" y="293.76"/>
      </g>
     </g>
    </g>
    <g id="xtick_9">
     <g id="line2d_37">
      <path clip-path="url(#p0a45ca4242)" d="M 142.389263 293.76 
L 142.389263 3.456 
" style="fill:none;stroke:#b0b0b0;stroke-linecap:square;stroke-width:0.8;"/>
     </g>
     <g id="line2d_38">
      <g>
       <use style="stroke:#000000;stroke-width:0.6;" x="142.389263" xlink:href="#m2bdc4ea1d3" y="293.76"/>
      </g>
     </g>
    </g>
    <g id="xtick_10">
     <g id="line2d_39">
      <path clip-path="url(#p0a45ca4242)" d="M 147.891427 293.76 
L 147.891427 3.456 
" style="fill:none;stroke:#b0b0b0;stroke-linecap:square;stroke-width:0.8;"/>
     </g>
     <g id="line2d_40">
      <g>
       <use style="stroke:#000000;stroke-width:0.6;" x="147.891427" xlink:href="#m2bdc4ea1d3" y="293.76"/>
      </g>
     </g>
    </g>
    <g id="xtick_11">
     <g id="line2d_41">
      <path clip-path="url(#p0a45ca4242)" d="M 152.744679 293.76 
L 152.744679 3.456 
" style="fill:none;stroke:#b0b0b0;stroke-linecap:square;stroke-width:0.8;"/>
     </g>
     <g id="line2d_42">
      <g>
       <use style="stroke:#000000;stroke-width:0.6;" x="152.744679" xlink:href="#m2bdc4ea1d3" y="293.76"/>
      </g>
     </g>
    </g>
    <g id="xtick_12">
     <g id="line2d_43">
      <path clip-path="url(#p0a45ca4242)" d="M 185.647203 293.76 
L 185.647203 3.456 
" style="fill:none;stroke:#b0b0b0;stroke-linecap:square;stroke-width:0.8;"/>
     </g>
     <g id="line2d_44">
      <g>
       <use style="stroke:#000000;stroke-width:0.6;" x="185.647203" xlink:href="#m2bdc4ea1d3" y="293.76"/>
      </g>
     </g>
    </g>
    <g id="xtick_13">
     <g id="line2d_45">
      <path clip-path="url(#p0a45ca4242)" d="M 202.3544 293.76 
L 202.3544 3.456 
" style="fill:none;stroke:#b0b0b0;stroke-linecap:square;stroke-width:0.8;"/>
     </g>
     <g id="line2d_46">
      <g>
       <use style="stroke:#000000;stroke-width:0.6;" x="202.3544" xlink:href="#m2bdc4ea1d3" y="293.76"/>
      </g>
     </g>
    </g>
    <g id="xtick_14">
     <g id="line2d_47">
      <path clip-path="url(#p0a45ca4242)" d="M 214.208346 293.76 
L 214.208346 3.456 
" style="fill:none;stroke:#b0b0b0;stroke-linecap:square;stroke-width:0.8;"/>
     </g>
     <g id="line2d_48">
      <g>
       <use style="stroke:#000000;stroke-width:0.6;" x="214.208346" xlink:href="#m2bdc4ea1d3" y="293.76"/>
      </g>
     </g>
    </g>
    <g id="xtick_15">
     <g id="line2d_49">
      <path clip-path="url(#p0a45ca4242)" d="M 223.40298 293.76 
L 223.40298 3.456 
" style="fill:none;stroke:#b0b0b0;stroke-linecap:square;stroke-width:0.8;"/>
     </g>
     <g id="line2d_50">
      <g>
       <use style="stroke:#000000;stroke-width:0.6;" x="223.40298" xlink:href="#m2bdc4ea1d3" y="293.76"/>
      </g>
     </g>
    </g>
    <g id="xtick_16">
     <g id="line2d_51">
      <path clip-path="url(#p0a45ca4242)" d="M 230.915543 293.76 
L 230.915543 3.456 
" style="fill:none;stroke:#b0b0b0;stroke-linecap:square;stroke-width:0.8;"/>
     </g>
     <g id="line2d_52">
      <g>
       <use style="stroke:#000000;stroke-width:0.6;" x="230.915543" xlink:href="#m2bdc4ea1d3" y="293.76"/>
      </g>
     </g>
    </g>
    <g id="xtick_17">
     <g id="line2d_53">
      <path clip-path="url(#p0a45ca4242)" d="M 237.267324 293.76 
L 237.267324 3.456 
" style="fill:none;stroke:#b0b0b0;stroke-linecap:square;stroke-width:0.8;"/>
     </g>
     <g id="line2d_54">
      <g>
       <use style="stroke:#000000;stroke-width:0.6;" x="237.267324" xlink:href="#m2bdc4ea1d3" y="293.76"/>
      </g>
     </g>
    </g>
    <g id="xtick_18">
     <g id="line2d_55">
      <path clip-path="url(#p0a45ca4242)" d="M 242.769488 293.76 
L 242.769488 3.456 
" style="fill:none;stroke:#b0b0b0;stroke-linecap:square;stroke-width:0.8;"/>
     </g>
     <g id="line2d_56">
      <g>
       <use style="stroke:#000000;stroke-width:0.6;" x="242.769488" xlink:href="#m2bdc4ea1d3" y="293.76"/>
      </g>
     </g>
    </g>
    <g id="xtick_19">
     <g id="line2d_57">
      <path clip-path="url(#p0a45ca4242)" d="M 247.62274 293.76 
L 247.62274 3.456 
" style="fill:none;stroke:#b0b0b0;stroke-linecap:square;stroke-width:0.8;"/>
     </g>
     <g id="line2d_58">
      <g>
       <use style="stroke:#000000;stroke-width:0.6;" x="247.62274" xlink:href="#m2bdc4ea1d3" y="293.76"/>
      </g>
     </g>
    </g>
    <g id="xtick_20">
     <g id="line2d_59">
      <path clip-path="url(#p0a45ca4242)" d="M 280.525264 293.76 
L 280.525264 3.456 
" style="fill:none;stroke:#b0b0b0;stroke-linecap:square;stroke-width:0.8;"/>
     </g>
     <g id="line2d_60">
      <g>
       <use style="stroke:#000000;stroke-width:0.6;" x="280.525264" xlink:href="#m2bdc4ea1d3" y="293.76"/>
      </g>
     </g>
    </g>
    <g id="xtick_21">
     <g id="line2d_61">
      <path clip-path="url(#p0a45ca4242)" d="M 297.232461 293.76 
L 297.232461 3.456 
" style="fill:none;stroke:#b0b0b0;stroke-linecap:square;stroke-width:0.8;"/>
     </g>
     <g id="line2d_62">
      <g>
       <use style="stroke:#000000;stroke-width:0.6;" x="297.232461" xlink:href="#m2bdc4ea1d3" y="293.76"/>
      </g>
     </g>
    </g>
    <g id="xtick_22">
     <g id="line2d_63">
      <path clip-path="url(#p0a45ca4242)" d="M 309.086407 293.76 
L 309.086407 3.456 
" style="fill:none;stroke:#b0b0b0;stroke-linecap:square;stroke-width:0.8;"/>
     </g>
     <g id="line2d_64">
      <g>
       <use style="stroke:#000000;stroke-width:0.6;" x="309.086407" xlink:href="#m2bdc4ea1d3" y="293.76"/>
      </g>
     </g>
    </g>
    <g id="xtick_23">
     <g id="line2d_65">
      <path clip-path="url(#p0a45ca4242)" d="M 318.281041 293.76 
L 318.281041 3.456 
" style="fill:none;stroke:#b0b0b0;stroke-linecap:square;stroke-width:0.8;"/>
     </g>
     <g id="line2d_66">
      <g>
       <use style="stroke:#000000;stroke-width:0.6;" x="318.281041" xlink:href="#m2bdc4ea1d3" y="293.76"/>
      </g>
     </g>
    </g>
    <g id="xtick_24">
     <g id="line2d_67">
      <path clip-path="url(#p0a45ca4242)" d="M 325.793604 293.76 
L 325.793604 3.456 
" style="fill:none;stroke:#b0b0b0;stroke-linecap:square;stroke-width:0.8;"/>
     </g>
     <g id="line2d_68">
      <g>
       <use style="stroke:#000000;stroke-width:0.6;" x="325.793604" xlink:href="#m2bdc4ea1d3" y="293.76"/>
      </g>
     </g>
    </g>
    <g id="xtick_25">
     <g id="line2d_69">
      <path clip-path="url(#p0a45ca4242)" d="M 332.145385 293.76 
L 332.145385 3.456 
" style="fill:none;stroke:#b0b0b0;stroke-linecap:square;stroke-width:0.8;"/>
     </g>
     <g id="line2d_70">
      <g>
       <use style="stroke:#000000;stroke-width:0.6;" x="332.145385" xlink:href="#m2bdc4ea1d3" y="293.76"/>
      </g>
     </g>
    </g>
    <g id="xtick_26">
     <g id="line2d_71">
      <path clip-path="url(#p0a45ca4242)" d="M 337.647549 293.76 
L 337.647549 3.456 
" style="fill:none;stroke:#b0b0b0;stroke-linecap:square;stroke-width:0.8;"/>
     </g>
     <g id="line2d_72">
      <g>
       <use style="stroke:#000000;stroke-width:0.6;" x="337.647549" xlink:href="#m2bdc4ea1d3" y="293.76"/>
      </g>
     </g>
    </g>
    <g id="xtick_27">
     <g id="line2d_73">
      <path clip-path="url(#p0a45ca4242)" d="M 342.500801 293.76 
L 342.500801 3.456 
" style="fill:none;stroke:#b0b0b0;stroke-linecap:square;stroke-width:0.8;"/>
     </g>
     <g id="line2d_74">
      <g>
       <use style="stroke:#000000;stroke-width:0.6;" x="342.500801" xlink:href="#m2bdc4ea1d3" y="293.76"/>
      </g>
     </g>
    </g>
    <g id="xtick_28">
     <g id="line2d_75">
      <path clip-path="url(#p0a45ca4242)" d="M 375.403325 293.76 
L 375.403325 3.456 
" style="fill:none;stroke:#b0b0b0;stroke-linecap:square;stroke-width:0.8;"/>
     </g>
     <g id="line2d_76">
      <g>
       <use style="stroke:#000000;stroke-width:0.6;" x="375.403325" xlink:href="#m2bdc4ea1d3" y="293.76"/>
      </g>
     </g>
    </g>
    <g id="xtick_29">
     <g id="line2d_77">
      <path clip-path="url(#p0a45ca4242)" d="M 392.110522 293.76 
L 392.110522 3.456 
" style="fill:none;stroke:#b0b0b0;stroke-linecap:square;stroke-width:0.8;"/>
     </g>
     <g id="line2d_78">
      <g>
       <use style="stroke:#000000;stroke-width:0.6;" x="392.110522" xlink:href="#m2bdc4ea1d3" y="293.76"/>
      </g>
     </g>
    </g>
    <g id="xtick_30">
     <g id="line2d_79">
      <path clip-path="url(#p0a45ca4242)" d="M 403.964468 293.76 
L 403.964468 3.456 
" style="fill:none;stroke:#b0b0b0;stroke-linecap:square;stroke-width:0.8;"/>
     </g>
     <g id="line2d_80">
      <g>
       <use style="stroke:#000000;stroke-width:0.6;" x="403.964468" xlink:href="#m2bdc4ea1d3" y="293.76"/>
      </g>
     </g>
    </g>
    <g id="xtick_31">
     <g id="line2d_81">
      <path clip-path="url(#p0a45ca4242)" d="M 413.159102 293.76 
L 413.159102 3.456 
" style="fill:none;stroke:#b0b0b0;stroke-linecap:square;stroke-width:0.8;"/>
     </g>
     <g id="line2d_82">
      <g>
       <use style="stroke:#000000;stroke-width:0.6;" x="413.159102" xlink:href="#m2bdc4ea1d3" y="293.76"/>
      </g>
     </g>
    </g>
    <g id="xtick_32">
     <g id="line2d_83">
      <path clip-path="url(#p0a45ca4242)" d="M 420.671665 293.76 
L 420.671665 3.456 
" style="fill:none;stroke:#b0b0b0;stroke-linecap:square;stroke-width:0.8;"/>
     </g>
     <g id="line2d_84">
      <g>
       <use style="stroke:#000000;stroke-width:0.6;" x="420.671665" xlink:href="#m2bdc4ea1d3" y="293.76"/>
      </g>
     </g>
    </g>
    <g id="xtick_33">
     <g id="line2d_85">
      <path clip-path="url(#p0a45ca4242)" d="M 427.023446 293.76 
L 427.023446 3.456 
" style="fill:none;stroke:#b0b0b0;stroke-linecap:square;stroke-width:0.8;"/>
     </g>
     <g id="line2d_86">
      <g>
       <use style="stroke:#000000;stroke-width:0.6;" x="427.023446" xlink:href="#m2bdc4ea1d3" y="293.76"/>
      </g>
     </g>
    </g>
    <g id="xtick_34">
     <g id="line2d_87">
      <path clip-path="url(#p0a45ca4242)" d="M 432.52561 293.76 
L 432.52561 3.456 
" style="fill:none;stroke:#b0b0b0;stroke-linecap:square;stroke-width:0.8;"/>
     </g>
     <g id="line2d_88">
      <g>
       <use style="stroke:#000000;stroke-width:0.6;" x="432.52561" xlink:href="#m2bdc4ea1d3" y="293.76"/>
      </g>
     </g>
    </g>
    <g id="xtick_35">
     <g id="line2d_89">
      <path clip-path="url(#p0a45ca4242)" d="M 437.378862 293.76 
L 437.378862 3.456 
" style="fill:none;stroke:#b0b0b0;stroke-linecap:square;stroke-width:0.8;"/>
     </g>
     <g id="line2d_90">
      <g>
       <use style="stroke:#000000;stroke-width:0.6;" x="437.378862" xlink:href="#m2bdc4ea1d3" y="293.76"/>
      </g>
     </g>
    </g>
    <g id="text_4">
     <!-- log10 of FEvals / DIM -->
     <g transform="translate(156.430563 339.313125)scale(0.2 -0.2)">
      <defs>
       <path d="M 603 4863 
L 1178 4863 
L 1178 0 
L 603 0 
L 603 4863 
z
" id="DejaVuSans-6c" transform="scale(0.015625)"/>
       <path d="M 1959 3097 
Q 1497 3097 1228 2736 
Q 959 2375 959 1747 
Q 959 1119 1226 758 
Q 1494 397 1959 397 
Q 2419 397 2687 759 
Q 2956 1122 2956 1747 
Q 2956 2369 2687 2733 
Q 2419 3097 1959 3097 
z
M 1959 3584 
Q 2709 3584 3137 3096 
Q 3566 2609 3566 1747 
Q 3566 888 3137 398 
Q 2709 -91 1959 -91 
Q 1206 -91 779 398 
Q 353 888 353 1747 
Q 353 2609 779 3096 
Q 1206 3584 1959 3584 
z
" id="DejaVuSans-6f" transform="scale(0.015625)"/>
       <path d="M 2906 1791 
Q 2906 2416 2648 2759 
Q 2391 3103 1925 3103 
Q 1463 3103 1205 2759 
Q 947 2416 947 1791 
Q 947 1169 1205 825 
Q 1463 481 1925 481 
Q 2391 481 2648 825 
Q 2906 1169 2906 1791 
z
M 3481 434 
Q 3481 -459 3084 -895 
Q 2688 -1331 1869 -1331 
Q 1566 -1331 1297 -1286 
Q 1028 -1241 775 -1147 
L 775 -588 
Q 1028 -725 1275 -790 
Q 1522 -856 1778 -856 
Q 2344 -856 2625 -561 
Q 2906 -266 2906 331 
L 2906 616 
Q 2728 306 2450 153 
Q 2172 0 1784 0 
Q 1141 0 747 490 
Q 353 981 353 1791 
Q 353 2603 747 3093 
Q 1141 3584 1784 3584 
Q 2172 3584 2450 3431 
Q 2728 3278 2906 2969 
L 2906 3500 
L 3481 3500 
L 3481 434 
z
" id="DejaVuSans-67" transform="scale(0.015625)"/>
       <path d="M 794 531 
L 1825 531 
L 1825 4091 
L 703 3866 
L 703 4441 
L 1819 4666 
L 2450 4666 
L 2450 531 
L 3481 531 
L 3481 0 
L 794 0 
L 794 531 
z
" id="DejaVuSans-31" transform="scale(0.015625)"/>
       <path id="DejaVuSans-20" transform="scale(0.015625)"/>
       <path d="M 2375 4863 
L 2375 4384 
L 1825 4384 
Q 1516 4384 1395 4259 
Q 1275 4134 1275 3809 
L 1275 3500 
L 2222 3500 
L 2222 3053 
L 1275 3053 
L 1275 0 
L 697 0 
L 697 3053 
L 147 3053 
L 147 3500 
L 697 3500 
L 697 3744 
Q 697 4328 969 4595 
Q 1241 4863 1831 4863 
L 2375 4863 
z
" id="DejaVuSans-66" transform="scale(0.015625)"/>
       <path d="M 628 4666 
L 3309 4666 
L 3309 4134 
L 1259 4134 
L 1259 2759 
L 3109 2759 
L 3109 2228 
L 1259 2228 
L 1259 0 
L 628 0 
L 628 4666 
z
" id="DejaVuSans-46" transform="scale(0.015625)"/>
       <path d="M 628 4666 
L 3578 4666 
L 3578 4134 
L 1259 4134 
L 1259 2753 
L 3481 2753 
L 3481 2222 
L 1259 2222 
L 1259 531 
L 3634 531 
L 3634 0 
L 628 0 
L 628 4666 
z
" id="DejaVuSans-45" transform="scale(0.015625)"/>
       <path d="M 191 3500 
L 800 3500 
L 1894 563 
L 2988 3500 
L 3597 3500 
L 2284 0 
L 1503 0 
L 191 3500 
z
" id="DejaVuSans-76" transform="scale(0.015625)"/>
       <path d="M 2194 1759 
Q 1497 1759 1228 1600 
Q 959 1441 959 1056 
Q 959 750 1161 570 
Q 1363 391 1709 391 
Q 2188 391 2477 730 
Q 2766 1069 2766 1631 
L 2766 1759 
L 2194 1759 
z
M 3341 1997 
L 3341 0 
L 2766 0 
L 2766 531 
Q 2569 213 2275 61 
Q 1981 -91 1556 -91 
Q 1019 -91 701 211 
Q 384 513 384 1019 
Q 384 1609 779 1909 
Q 1175 2209 1959 2209 
L 2766 2209 
L 2766 2266 
Q 2766 2663 2505 2880 
Q 2244 3097 1772 3097 
Q 1472 3097 1187 3025 
Q 903 2953 641 2809 
L 641 3341 
Q 956 3463 1253 3523 
Q 1550 3584 1831 3584 
Q 2591 3584 2966 3190 
Q 3341 2797 3341 1997 
z
" id="DejaVuSans-61" transform="scale(0.015625)"/>
       <path d="M 2834 3397 
L 2834 2853 
Q 2591 2978 2328 3040 
Q 2066 3103 1784 3103 
Q 1356 3103 1142 2972 
Q 928 2841 928 2578 
Q 928 2378 1081 2264 
Q 1234 2150 1697 2047 
L 1894 2003 
Q 2506 1872 2764 1633 
Q 3022 1394 3022 966 
Q 3022 478 2636 193 
Q 2250 -91 1575 -91 
Q 1294 -91 989 -36 
Q 684 19 347 128 
L 347 722 
Q 666 556 975 473 
Q 1284 391 1588 391 
Q 1994 391 2212 530 
Q 2431 669 2431 922 
Q 2431 1156 2273 1281 
Q 2116 1406 1581 1522 
L 1381 1569 
Q 847 1681 609 1914 
Q 372 2147 372 2553 
Q 372 3047 722 3315 
Q 1072 3584 1716 3584 
Q 2034 3584 2315 3537 
Q 2597 3491 2834 3397 
z
" id="DejaVuSans-73" transform="scale(0.015625)"/>
       <path d="M 1625 4666 
L 2156 4666 
L 531 -594 
L 0 -594 
L 1625 4666 
z
" id="DejaVuSans-2f" transform="scale(0.015625)"/>
       <path d="M 1259 4147 
L 1259 519 
L 2022 519 
Q 2988 519 3436 956 
Q 3884 1394 3884 2338 
Q 3884 3275 3436 3711 
Q 2988 4147 2022 4147 
L 1259 4147 
z
M 628 4666 
L 1925 4666 
Q 3281 4666 3915 4102 
Q 4550 3538 4550 2338 
Q 4550 1131 3912 565 
Q 3275 0 1925 0 
L 628 0 
L 628 4666 
z
" id="DejaVuSans-44" transform="scale(0.015625)"/>
       <path d="M 628 4666 
L 1259 4666 
L 1259 0 
L 628 0 
L 628 4666 
z
" id="DejaVuSans-49" transform="scale(0.015625)"/>
       <path d="M 628 4666 
L 1569 4666 
L 2759 1491 
L 3956 4666 
L 4897 4666 
L 4897 0 
L 4281 0 
L 4281 4097 
L 3078 897 
L 2444 897 
L 1241 4097 
L 1241 0 
L 628 0 
L 628 4666 
z
" id="DejaVuSans-4d" transform="scale(0.015625)"/>
      </defs>
      <use xlink:href="#DejaVuSans-6c"/>
      <use x="27.783203" xlink:href="#DejaVuSans-6f"/>
      <use x="88.964844" xlink:href="#DejaVuSans-67"/>
      <use x="152.441406" xlink:href="#DejaVuSans-31"/>
      <use x="216.064453" xlink:href="#DejaVuSans-30"/>
      <use x="279.6875" xlink:href="#DejaVuSans-20"/>
      <use x="311.474609" xlink:href="#DejaVuSans-6f"/>
      <use x="372.65625" xlink:href="#DejaVuSans-66"/>
      <use x="407.861328" xlink:href="#DejaVuSans-20"/>
      <use x="439.648438" xlink:href="#DejaVuSans-46"/>
      <use x="497.167969" xlink:href="#DejaVuSans-45"/>
      <use x="560.351562" xlink:href="#DejaVuSans-76"/>
      <use x="619.53125" xlink:href="#DejaVuSans-61"/>
      <use x="680.810547" xlink:href="#DejaVuSans-6c"/>
      <use x="708.59375" xlink:href="#DejaVuSans-73"/>
      <use x="760.693359" xlink:href="#DejaVuSans-20"/>
      <use x="792.480469" xlink:href="#DejaVuSans-2f"/>
      <use x="826.171875" xlink:href="#DejaVuSans-20"/>
      <use x="857.958984" xlink:href="#DejaVuSans-44"/>
      <use x="934.960938" xlink:href="#DejaVuSans-49"/>
      <use x="964.453125" xlink:href="#DejaVuSans-4d"/>
     </g>
    </g>
   </g>
   <g id="matplotlib.axis_2">
    <g id="ytick_1">
     <g id="line2d_91">
      <path clip-path="url(#p0a45ca4242)" d="M 62.208 293.76 
L 460.8 293.76 
" style="fill:none;stroke:#b0b0b0;stroke-linecap:square;stroke-width:0.8;"/>
     </g>
     <g id="line2d_92">
      <defs>
       <path d="M 0 0 
L -3.5 0 
" id="m1f1093f73e" style="stroke:#000000;stroke-width:0.8;"/>
      </defs>
      <g>
       <use style="stroke:#000000;stroke-width:0.8;" x="62.208" xlink:href="#m1f1093f73e" y="293.76"/>
      </g>
     </g>
     <g id="text_5">
      <!-- 0.0 -->
      <g transform="translate(29.763 299.83875)scale(0.16 -0.16)">
       <defs>
        <path d="M 684 794 
L 1344 794 
L 1344 0 
L 684 0 
L 684 794 
z
" id="DejaVuSans-2e" transform="scale(0.015625)"/>
       </defs>
       <use xlink:href="#DejaVuSans-30"/>
       <use x="63.623047" xlink:href="#DejaVuSans-2e"/>
       <use x="95.410156" xlink:href="#DejaVuSans-30"/>
      </g>
     </g>
    </g>
    <g id="ytick_2">
     <g id="line2d_93">
      <path clip-path="url(#p0a45ca4242)" d="M 62.208 236.274059 
L 460.8 236.274059 
" style="fill:none;stroke:#b0b0b0;stroke-linecap:square;stroke-width:0.8;"/>
     </g>
     <g id="line2d_94">
      <g>
       <use style="stroke:#000000;stroke-width:0.8;" x="62.208" xlink:href="#m1f1093f73e" y="236.274059"/>
      </g>
     </g>
     <g id="text_6">
      <!-- 0.2 -->
      <g transform="translate(29.763 242.352809)scale(0.16 -0.16)">
       <use xlink:href="#DejaVuSans-30"/>
       <use x="63.623047" xlink:href="#DejaVuSans-2e"/>
       <use x="95.410156" xlink:href="#DejaVuSans-32"/>
      </g>
     </g>
    </g>
    <g id="ytick_3">
     <g id="line2d_95">
      <path clip-path="url(#p0a45ca4242)" d="M 62.208 178.788119 
L 460.8 178.788119 
" style="fill:none;stroke:#b0b0b0;stroke-linecap:square;stroke-width:0.8;"/>
     </g>
     <g id="line2d_96">
      <g>
       <use style="stroke:#000000;stroke-width:0.8;" x="62.208" xlink:href="#m1f1093f73e" y="178.788119"/>
      </g>
     </g>
     <g id="text_7">
      <!-- 0.4 -->
      <g transform="translate(29.763 184.866869)scale(0.16 -0.16)">
       <use xlink:href="#DejaVuSans-30"/>
       <use x="63.623047" xlink:href="#DejaVuSans-2e"/>
       <use x="95.410156" xlink:href="#DejaVuSans-34"/>
      </g>
     </g>
    </g>
    <g id="ytick_4">
     <g id="line2d_97">
      <path clip-path="url(#p0a45ca4242)" d="M 62.208 121.302178 
L 460.8 121.302178 
" style="fill:none;stroke:#b0b0b0;stroke-linecap:square;stroke-width:0.8;"/>
     </g>
     <g id="line2d_98">
      <g>
       <use style="stroke:#000000;stroke-width:0.8;" x="62.208" xlink:href="#m1f1093f73e" y="121.302178"/>
      </g>
     </g>
     <g id="text_8">
      <!-- 0.6 -->
      <g transform="translate(29.763 127.380928)scale(0.16 -0.16)">
       <defs>
        <path d="M 2113 2584 
Q 1688 2584 1439 2293 
Q 1191 2003 1191 1497 
Q 1191 994 1439 701 
Q 1688 409 2113 409 
Q 2538 409 2786 701 
Q 3034 994 3034 1497 
Q 3034 2003 2786 2293 
Q 2538 2584 2113 2584 
z
M 3366 4563 
L 3366 3988 
Q 3128 4100 2886 4159 
Q 2644 4219 2406 4219 
Q 1781 4219 1451 3797 
Q 1122 3375 1075 2522 
Q 1259 2794 1537 2939 
Q 1816 3084 2150 3084 
Q 2853 3084 3261 2657 
Q 3669 2231 3669 1497 
Q 3669 778 3244 343 
Q 2819 -91 2113 -91 
Q 1303 -91 875 529 
Q 447 1150 447 2328 
Q 447 3434 972 4092 
Q 1497 4750 2381 4750 
Q 2619 4750 2861 4703 
Q 3103 4656 3366 4563 
z
" id="DejaVuSans-36" transform="scale(0.015625)"/>
       </defs>
       <use xlink:href="#DejaVuSans-30"/>
       <use x="63.623047" xlink:href="#DejaVuSans-2e"/>
       <use x="95.410156" xlink:href="#DejaVuSans-36"/>
      </g>
     </g>
    </g>
    <g id="ytick_5">
     <g id="line2d_99">
      <path clip-path="url(#p0a45ca4242)" d="M 62.208 63.816238 
L 460.8 63.816238 
" style="fill:none;stroke:#b0b0b0;stroke-linecap:square;stroke-width:0.8;"/>
     </g>
     <g id="line2d_100">
      <g>
       <use style="stroke:#000000;stroke-width:0.8;" x="62.208" xlink:href="#m1f1093f73e" y="63.816238"/>
      </g>
     </g>
     <g id="text_9">
      <!-- 0.8 -->
      <g transform="translate(29.763 69.894988)scale(0.16 -0.16)">
       <defs>
        <path d="M 2034 2216 
Q 1584 2216 1326 1975 
Q 1069 1734 1069 1313 
Q 1069 891 1326 650 
Q 1584 409 2034 409 
Q 2484 409 2743 651 
Q 3003 894 3003 1313 
Q 3003 1734 2745 1975 
Q 2488 2216 2034 2216 
z
M 1403 2484 
Q 997 2584 770 2862 
Q 544 3141 544 3541 
Q 544 4100 942 4425 
Q 1341 4750 2034 4750 
Q 2731 4750 3128 4425 
Q 3525 4100 3525 3541 
Q 3525 3141 3298 2862 
Q 3072 2584 2669 2484 
Q 3125 2378 3379 2068 
Q 3634 1759 3634 1313 
Q 3634 634 3220 271 
Q 2806 -91 2034 -91 
Q 1263 -91 848 271 
Q 434 634 434 1313 
Q 434 1759 690 2068 
Q 947 2378 1403 2484 
z
M 1172 3481 
Q 1172 3119 1398 2916 
Q 1625 2713 2034 2713 
Q 2441 2713 2670 2916 
Q 2900 3119 2900 3481 
Q 2900 3844 2670 4047 
Q 2441 4250 2034 4250 
Q 1625 4250 1398 4047 
Q 1172 3844 1172 3481 
z
" id="DejaVuSans-38" transform="scale(0.015625)"/>
       </defs>
       <use xlink:href="#DejaVuSans-30"/>
       <use x="63.623047" xlink:href="#DejaVuSans-2e"/>
       <use x="95.410156" xlink:href="#DejaVuSans-38"/>
      </g>
     </g>
    </g>
    <g id="ytick_6">
     <g id="line2d_101">
      <path clip-path="url(#p0a45ca4242)" d="M 62.208 6.330297 
L 460.8 6.330297 
" style="fill:none;stroke:#b0b0b0;stroke-linecap:square;stroke-width:0.8;"/>
     </g>
     <g id="line2d_102">
      <g>
       <use style="stroke:#000000;stroke-width:0.8;" x="62.208" xlink:href="#m1f1093f73e" y="6.330297"/>
      </g>
     </g>
     <g id="text_10">
      <!-- 1.0 -->
      <g transform="translate(29.763 12.409047)scale(0.16 -0.16)">
       <use xlink:href="#DejaVuSans-31"/>
       <use x="63.623047" xlink:href="#DejaVuSans-2e"/>
       <use x="95.410156" xlink:href="#DejaVuSans-30"/>
      </g>
     </g>
    </g>
    <g id="text_11">
     <!-- proportion of trials -->
     <g transform="translate(21.603625 241.61425)rotate(-90)scale(0.2 -0.2)">
      <defs>
       <path d="M 1159 525 
L 1159 -1331 
L 581 -1331 
L 581 3500 
L 1159 3500 
L 1159 2969 
Q 1341 3281 1617 3432 
Q 1894 3584 2278 3584 
Q 2916 3584 3314 3078 
Q 3713 2572 3713 1747 
Q 3713 922 3314 415 
Q 2916 -91 2278 -91 
Q 1894 -91 1617 61 
Q 1341 213 1159 525 
z
M 3116 1747 
Q 3116 2381 2855 2742 
Q 2594 3103 2138 3103 
Q 1681 3103 1420 2742 
Q 1159 2381 1159 1747 
Q 1159 1113 1420 752 
Q 1681 391 2138 391 
Q 2594 391 2855 752 
Q 3116 1113 3116 1747 
z
" id="DejaVuSans-70" transform="scale(0.015625)"/>
       <path d="M 2631 2963 
Q 2534 3019 2420 3045 
Q 2306 3072 2169 3072 
Q 1681 3072 1420 2755 
Q 1159 2438 1159 1844 
L 1159 0 
L 581 0 
L 581 3500 
L 1159 3500 
L 1159 2956 
Q 1341 3275 1631 3429 
Q 1922 3584 2338 3584 
Q 2397 3584 2469 3576 
Q 2541 3569 2628 3553 
L 2631 2963 
z
" id="DejaVuSans-72" transform="scale(0.015625)"/>
       <path d="M 1172 4494 
L 1172 3500 
L 2356 3500 
L 2356 3053 
L 1172 3053 
L 1172 1153 
Q 1172 725 1289 603 
Q 1406 481 1766 481 
L 2356 481 
L 2356 0 
L 1766 0 
Q 1100 0 847 248 
Q 594 497 594 1153 
L 594 3053 
L 172 3053 
L 172 3500 
L 594 3500 
L 594 4494 
L 1172 4494 
z
" id="DejaVuSans-74" transform="scale(0.015625)"/>
       <path d="M 603 3500 
L 1178 3500 
L 1178 0 
L 603 0 
L 603 3500 
z
M 603 4863 
L 1178 4863 
L 1178 4134 
L 603 4134 
L 603 4863 
z
" id="DejaVuSans-69" transform="scale(0.015625)"/>
       <path d="M 3513 2113 
L 3513 0 
L 2938 0 
L 2938 2094 
Q 2938 2591 2744 2837 
Q 2550 3084 2163 3084 
Q 1697 3084 1428 2787 
Q 1159 2491 1159 1978 
L 1159 0 
L 581 0 
L 581 3500 
L 1159 3500 
L 1159 2956 
Q 1366 3272 1645 3428 
Q 1925 3584 2291 3584 
Q 2894 3584 3203 3211 
Q 3513 2838 3513 2113 
z
" id="DejaVuSans-6e" transform="scale(0.015625)"/>
      </defs>
      <use xlink:href="#DejaVuSans-70"/>
      <use x="63.476562" xlink:href="#DejaVuSans-72"/>
      <use x="102.339844" xlink:href="#DejaVuSans-6f"/>
      <use x="163.521484" xlink:href="#DejaVuSans-70"/>
      <use x="226.998047" xlink:href="#DejaVuSans-6f"/>
      <use x="288.179688" xlink:href="#DejaVuSans-72"/>
      <use x="329.292969" xlink:href="#DejaVuSans-74"/>
      <use x="368.501953" xlink:href="#DejaVuSans-69"/>
      <use x="396.285156" xlink:href="#DejaVuSans-6f"/>
      <use x="457.466797" xlink:href="#DejaVuSans-6e"/>
      <use x="520.845703" xlink:href="#DejaVuSans-20"/>
      <use x="552.632812" xlink:href="#DejaVuSans-6f"/>
      <use x="613.814453" xlink:href="#DejaVuSans-66"/>
      <use x="649.019531" xlink:href="#DejaVuSans-20"/>
      <use x="680.806641" xlink:href="#DejaVuSans-74"/>
      <use x="720.015625" xlink:href="#DejaVuSans-72"/>
      <use x="761.128906" xlink:href="#DejaVuSans-69"/>
      <use x="788.912109" xlink:href="#DejaVuSans-61"/>
      <use x="850.191406" xlink:href="#DejaVuSans-6c"/>
      <use x="877.974609" xlink:href="#DejaVuSans-73"/>
     </g>
    </g>
   </g>
   <g id="line2d_103">
    <path clip-path="url(#p0a45ca4242)" d="M 183.479409 293.76 
L 183.479409 288.969505 
L 188.579237 288.969505 
L 188.579237 284.17901 
L 194.552388 284.17901 
L 194.552388 279.388515 
L 195.536435 279.388515 
L 195.536435 274.59802 
L 195.73852 274.59802 
L 195.73852 269.807525 
L 199.437902 269.807525 
L 199.437902 265.01703 
L 199.841336 265.01703 
L 199.841336 260.226535 
L 200.708082 260.226535 
L 200.708082 255.43604 
L 204.787753 255.43604 
L 204.787753 250.645545 
L 207.602543 250.645545 
L 207.602543 245.85505 
L 207.783532 245.85505 
L 207.783532 241.064554 
L 209.116186 241.064554 
L 209.116186 236.274059 
L 209.78103 236.274059 
L 209.78103 231.483564 
L 209.952718 231.483564 
L 209.952718 226.693069 
L 211.740877 226.693069 
L 211.740877 221.902574 
L 213.112264 221.902574 
L 213.112264 217.112079 
L 215.898657 217.112079 
L 215.898657 212.321584 
L 219.49426 212.321584 
L 219.49426 207.531089 
L 224.38022 207.531089 
L 224.38022 202.740594 
L 311.050179 202.740594 
L 311.050179 197.950099 
L 330.869068 197.950099 
L 330.869068 193.159604 
L 360.810146 193.159604 
L 360.810146 188.369109 
L 365.811472 188.369109 
L 365.811472 183.578614 
L 374.423976 183.578614 
L 374.423976 178.788119 
L 378.897536 178.788119 
L 378.897536 173.997624 
L 379.306696 173.997624 
L 379.306696 169.207129 
L 379.826264 169.207129 
L 379.826264 164.416634 
L 381.413162 164.416634 
L 381.413162 159.626139 
L 383.35478 159.626139 
L 383.35478 154.835644 
L 383.794088 154.835644 
L 383.794088 150.045149 
L 390.941735 150.045149 
L 390.941735 145.254653 
L 392.505904 145.254653 
L 392.505904 140.464158 
L 394.847342 140.464158 
L 394.847342 135.673663 
L 396.792188 135.673663 
L 396.792188 130.883168 
L 400.43232 130.883168 
L 400.43232 126.092673 
L 404.071205 126.092673 
L 404.071205 121.302178 
L 408.259287 121.302178 
L 408.259287 116.511683 
L 411.966427 116.511683 
L 411.966427 111.721188 
L 417.641862 111.721188 
L 417.641862 106.930693 
L 417.737471 106.930693 
L 417.737471 102.140198 
L 419.967253 102.140198 
L 419.967253 97.349703 
L 421.918962 97.349703 
L 421.918962 92.559208 
L 428.29068 92.559208 
L 428.29068 87.768713 
L 436.088611 87.768713 
L 436.088611 82.978218 
L 439.461035 82.978218 
L 439.461035 78.187723 
L 439.461035 78.187723 
L 439.461035 78.187723 
L 460.8 78.187723 
" style="fill:none;stroke:#000000;stroke-linecap:square;stroke-width:1.5;"/>
   </g>
   <g id="line2d_104">
    <defs>
     <path d="M 0 14.142136 
L 8.485281 0 
L 0 -14.142136 
L -8.485281 0 
z
" id="m6fe8f37a3e" style="stroke:#000000;stroke-linejoin:miter;stroke-width:1.5;"/>
    </defs>
    <g clip-path="url(#p0a45ca4242)">
     <use style="fill-opacity:0;stroke:#000000;stroke-linejoin:miter;stroke-width:1.5;" x="207.602543" xlink:href="#m6fe8f37a3e" y="250.645545"/>
     <use style="fill-opacity:0;stroke:#000000;stroke-linejoin:miter;stroke-width:1.5;" x="219.49426" xlink:href="#m6fe8f37a3e" y="212.321584"/>
     <use style="fill-opacity:0;stroke:#000000;stroke-linejoin:miter;stroke-width:1.5;" x="379.826264" xlink:href="#m6fe8f37a3e" y="169.207129"/>
     <use style="fill-opacity:0;stroke:#000000;stroke-linejoin:miter;stroke-width:1.5;" x="417.737471" xlink:href="#m6fe8f37a3e" y="106.930693"/>
     <use style="fill-opacity:0;stroke:#000000;stroke-linejoin:miter;stroke-width:1.5;" x="439.461035" xlink:href="#m6fe8f37a3e" y="78.187723"/>
    </g>
   </g>
   <g id="line2d_105">
    <path clip-path="url(#p0a45ca4242)" style="fill:none;stroke:#000000;stroke-linecap:square;stroke-width:1.5;"/>
    <g clip-path="url(#p0a45ca4242)">
     <use style="fill-opacity:0;stroke:#000000;stroke-linejoin:miter;stroke-width:1.5;" x="-1" xlink:href="#m6fe8f37a3e" y="581.189703"/>
     <use style="fill-opacity:0;stroke:#000000;stroke-linejoin:miter;stroke-width:1.5;" x="460.8" xlink:href="#m6fe8f37a3e" y="581.189703"/>
    </g>
   </g>
   <g id="line2d_106">
    <path clip-path="url(#p0a45ca4242)" d="M 165.532248 293.76 
L 165.532248 288.969505 
L 177.281159 288.969505 
L 177.281159 284.17901 
L 185.388864 284.17901 
L 185.388864 279.388515 
L 185.544062 279.388515 
L 185.544062 274.59802 
L 187.263293 274.59802 
L 187.263293 269.807525 
L 188.53124 269.807525 
L 188.53124 265.01703 
L 190.637577 265.01703 
L 190.637577 260.226535 
L 192.944596 260.226535 
L 192.944596 255.43604 
L 195.939619 255.43604 
L 195.939619 250.645545 
L 196.259349 250.645545 
L 196.259349 245.85505 
L 196.537092 245.85505 
L 196.537092 241.064554 
L 197.047986 241.064554 
L 197.047986 236.274059 
L 198.051154 236.274059 
L 198.051154 231.483564 
L 199.327185 231.483564 
L 199.327185 226.693069 
L 199.658447 226.693069 
L 199.658447 221.902574 
L 199.914266 221.902574 
L 199.914266 217.112079 
L 201.170067 217.112079 
L 201.170067 212.321584 
L 205.366304 212.321584 
L 205.366304 207.531089 
L 206.187904 207.531089 
L 206.187904 202.740594 
L 206.592641 202.740594 
L 206.592641 197.950099 
L 206.839748 197.950099 
L 206.839748 193.159604 
L 207.602543 193.159604 
L 207.602543 188.369109 
L 209.377621 188.369109 
L 209.377621 183.578614 
L 211.658768 183.578614 
L 211.658768 178.788119 
L 212.713631 178.788119 
L 212.713631 173.997624 
L 212.793667 173.997624 
L 212.793667 169.207129 
L 212.979814 169.207129 
L 212.979814 164.416634 
L 213.820226 164.416634 
L 213.820226 159.626139 
L 216.851558 159.626139 
L 216.851558 154.835644 
L 220.456986 154.835644 
L 220.456986 150.045149 
L 228.910293 150.045149 
L 228.910293 145.254653 
L 229.607337 145.254653 
L 229.607337 140.464158 
L 234.150263 140.464158 
L 234.150263 135.673663 
L 273.187451 135.673663 
L 273.187451 130.883168 
L 291.855684 130.883168 
L 291.855684 126.092673 
L 309.166164 126.092673 
L 309.166164 121.302178 
L 311.020703 121.302178 
L 311.020703 116.511683 
L 311.975246 116.511683 
L 311.975246 111.721188 
L 313.018346 111.721188 
L 313.018346 106.930693 
L 314.990605 106.930693 
L 314.990605 102.140198 
L 315.425678 102.140198 
L 315.425678 97.349703 
L 316.21085 97.349703 
L 316.21085 92.559208 
L 316.708275 92.559208 
L 316.708275 87.768713 
L 317.242046 87.768713 
L 317.242046 82.978218 
L 350.281467 82.978218 
L 350.281467 78.187723 
L 408.556155 78.187723 
L 408.556155 73.397228 
L 409.991884 73.397228 
L 409.991884 68.606733 
L 411.329976 68.606733 
L 411.329976 63.816238 
L 412.181123 63.816238 
L 412.181123 59.025743 
L 419.425972 59.025743 
L 419.425972 54.235248 
L 420.14501 54.235248 
L 420.14501 49.444752 
L 426.753554 49.444752 
L 426.753554 44.654257 
L 436.02538 44.654257 
L 436.02538 39.863762 
L 440.61136 39.863762 
L 440.61136 35.073267 
L 440.61136 35.073267 
L 440.61136 35.073267 
L 460.8 35.073267 
" style="fill:none;stroke:#000000;stroke-linecap:square;stroke-width:1.5;"/>
   </g>
   <g id="line2d_107">
    <defs>
     <path d="M 0 7.5 
C 1.989023 7.5 3.896849 6.709753 5.303301 5.303301 
C 6.709753 3.896849 7.5 1.989023 7.5 0 
C 7.5 -1.989023 6.709753 -3.896849 5.303301 -5.303301 
C 3.896849 -6.709753 1.989023 -7.5 0 -7.5 
C -1.989023 -7.5 -3.896849 -6.709753 -5.303301 -5.303301 
C -6.709753 -3.896849 -7.5 -1.989023 -7.5 0 
C -7.5 1.989023 -6.709753 3.896849 -5.303301 5.303301 
C -3.896849 6.709753 -1.989023 7.5 0 7.5 
z
" id="m8314d9c2c8" style="stroke:#000000;stroke-width:1.5;"/>
    </defs>
    <g clip-path="url(#p0a45ca4242)">
     <use style="fill-opacity:0;stroke:#000000;stroke-width:1.5;" x="220.456986" xlink:href="#m8314d9c2c8" y="154.835644"/>
     <use style="fill-opacity:0;stroke:#000000;stroke-width:1.5;" x="315.425678" xlink:href="#m8314d9c2c8" y="102.140198"/>
     <use style="fill-opacity:0;stroke:#000000;stroke-width:1.5;" x="350.281467" xlink:href="#m8314d9c2c8" y="82.978218"/>
     <use style="fill-opacity:0;stroke:#000000;stroke-width:1.5;" x="440.61136" xlink:href="#m8314d9c2c8" y="39.863762"/>
     <use style="fill-opacity:0;stroke:#000000;stroke-width:1.5;" x="440.61136" xlink:href="#m8314d9c2c8" y="35.073267"/>
    </g>
   </g>
   <g id="line2d_108">
    <path clip-path="url(#p0a45ca4242)" style="fill:none;stroke:#000000;stroke-linecap:square;stroke-width:1.5;"/>
   </g>
   <g id="line2d_109">
    <path clip-path="url(#p0a45ca4242)" d="M 385.007147 293.76 
L 385.007147 288.969505 
L 405.222674 288.969505 
L 405.222674 284.17901 
L 438.347494 284.17901 
L 438.347494 279.388515 
L 440.297036 279.388515 
L 440.297036 274.59802 
L 440.297036 274.59802 
L 440.297036 274.59802 
L 460.8 274.59802 
" style="fill:none;stroke:#00bfbf;stroke-linecap:square;stroke-width:1.5;"/>
   </g>
   <g id="line2d_110">
    <defs>
     <path d="M 0 14.142136 
L 8.485281 0 
L 0 -14.142136 
L -8.485281 0 
z
" id="mf16b3d4178" style="stroke:#00bfbf;stroke-linejoin:miter;stroke-width:1.5;"/>
    </defs>
    <g clip-path="url(#p0a45ca4242)">
     <use style="fill-opacity:0;stroke:#00bfbf;stroke-linejoin:miter;stroke-width:1.5;" x="385.007147" xlink:href="#mf16b3d4178" y="293.76"/>
     <use style="fill-opacity:0;stroke:#00bfbf;stroke-linejoin:miter;stroke-width:1.5;" x="405.222674" xlink:href="#mf16b3d4178" y="288.969505"/>
     <use style="fill-opacity:0;stroke:#00bfbf;stroke-linejoin:miter;stroke-width:1.5;" x="440.297036" xlink:href="#mf16b3d4178" y="274.59802"/>
    </g>
   </g>
   <g id="line2d_111">
    <path clip-path="url(#p0a45ca4242)" style="fill:none;stroke:#00bfbf;stroke-linecap:square;stroke-width:1.5;"/>
    <g clip-path="url(#p0a45ca4242)">
     <use style="fill-opacity:0;stroke:#00bfbf;stroke-linejoin:miter;stroke-width:1.5;" x="-1" xlink:href="#mf16b3d4178" y="581.189703"/>
     <use style="fill-opacity:0;stroke:#00bfbf;stroke-linejoin:miter;stroke-width:1.5;" x="460.8" xlink:href="#mf16b3d4178" y="581.189703"/>
    </g>
   </g>
   <g id="line2d_112">
    <path clip-path="url(#p0a45ca4242)" d="M 413.626182 293.76 
L 413.626182 288.969505 
L 413.630255 288.969505 
L 413.630255 284.17901 
L 414.785888 284.17901 
L 414.785888 279.388515 
L 417.404839 279.388515 
L 417.404839 274.59802 
L 423.063565 274.59802 
L 423.063565 269.807525 
L 429.66238 269.807525 
L 429.66238 265.01703 
L 429.66238 265.01703 
L 429.66238 265.01703 
L 460.8 265.01703 
" style="fill:none;stroke:#00bfbf;stroke-linecap:square;stroke-width:1.5;"/>
   </g>
   <g id="line2d_113">
    <defs>
     <path d="M 0 7.5 
C 1.989023 7.5 3.896849 6.709753 5.303301 5.303301 
C 6.709753 3.896849 7.5 1.989023 7.5 0 
C 7.5 -1.989023 6.709753 -3.896849 5.303301 -5.303301 
C 3.896849 -6.709753 1.989023 -7.5 0 -7.5 
C -1.989023 -7.5 -3.896849 -6.709753 -5.303301 -5.303301 
C -6.709753 -3.896849 -7.5 -1.989023 -7.5 0 
C -7.5 1.989023 -6.709753 3.896849 -5.303301 5.303301 
C -3.896849 6.709753 -1.989023 7.5 0 7.5 
z
" id="mb45ac67566" style="stroke:#00bfbf;stroke-width:1.5;"/>
    </defs>
    <g clip-path="url(#p0a45ca4242)">
     <use style="fill-opacity:0;stroke:#00bfbf;stroke-width:1.5;" x="414.785888" xlink:href="#mb45ac67566" y="284.17901"/>
     <use style="fill-opacity:0;stroke:#00bfbf;stroke-width:1.5;" x="423.063565" xlink:href="#mb45ac67566" y="274.59802"/>
     <use style="fill-opacity:0;stroke:#00bfbf;stroke-width:1.5;" x="429.66238" xlink:href="#mb45ac67566" y="265.01703"/>
    </g>
   </g>
   <g id="line2d_114">
    <path clip-path="url(#p0a45ca4242)" style="fill:none;stroke:#00bfbf;stroke-linecap:square;stroke-width:1.5;"/>
   </g>
   <g id="line2d_115">
    <path clip-path="url(#p0a45ca4242)" d="M 385.551854 293.76 
L 385.551854 288.969505 
L 405.453578 288.969505 
L 405.453578 284.17901 
L 438.754661 284.17901 
L 438.754661 279.388515 
L 440.915322 279.388515 
L 440.915322 274.59802 
L 440.915322 274.59802 
L 440.915322 274.59802 
L 460.8 274.59802 
" style="fill:none;stroke:#bf00bf;stroke-linecap:square;stroke-width:1.5;"/>
   </g>
   <g id="line2d_116">
    <defs>
     <path d="M 0 14.142136 
L 8.485281 0 
L 0 -14.142136 
L -8.485281 0 
z
" id="ma6c72d0696" style="stroke:#bf00bf;stroke-linejoin:miter;stroke-width:1.5;"/>
    </defs>
    <g clip-path="url(#p0a45ca4242)">
     <use style="fill-opacity:0;stroke:#bf00bf;stroke-linejoin:miter;stroke-width:1.5;" x="405.453578" xlink:href="#ma6c72d0696" y="288.969505"/>
     <use style="fill-opacity:0;stroke:#bf00bf;stroke-linejoin:miter;stroke-width:1.5;" x="440.915322" xlink:href="#ma6c72d0696" y="279.388515"/>
     <use style="fill-opacity:0;stroke:#bf00bf;stroke-linejoin:miter;stroke-width:1.5;" x="440.915322" xlink:href="#ma6c72d0696" y="274.59802"/>
    </g>
   </g>
   <g id="line2d_117">
    <path clip-path="url(#p0a45ca4242)" style="fill:none;stroke:#bf00bf;stroke-linecap:square;stroke-width:1.5;"/>
    <g clip-path="url(#p0a45ca4242)">
     <use style="fill-opacity:0;stroke:#bf00bf;stroke-linejoin:miter;stroke-width:1.5;" x="-1" xlink:href="#ma6c72d0696" y="581.189703"/>
     <use style="fill-opacity:0;stroke:#bf00bf;stroke-linejoin:miter;stroke-width:1.5;" x="460.8" xlink:href="#ma6c72d0696" y="581.189703"/>
    </g>
   </g>
   <g id="line2d_118">
    <path clip-path="url(#p0a45ca4242)" d="M 413.85532 293.76 
L 413.85532 288.969505 
L 415.413067 288.969505 
L 415.413067 284.17901 
L 415.421063 284.17901 
L 415.421063 279.388515 
L 417.889104 279.388515 
L 417.889104 274.59802 
L 423.907972 274.59802 
L 423.907972 269.807525 
L 431.0712 269.807525 
L 431.0712 265.01703 
L 431.0712 265.01703 
L 431.0712 265.01703 
L 460.8 265.01703 
" style="fill:none;stroke:#bf00bf;stroke-linecap:square;stroke-width:1.5;"/>
   </g>
   <g id="line2d_119">
    <defs>
     <path d="M 0 7.5 
C 1.989023 7.5 3.896849 6.709753 5.303301 5.303301 
C 6.709753 3.896849 7.5 1.989023 7.5 0 
C 7.5 -1.989023 6.709753 -3.896849 5.303301 -5.303301 
C 3.896849 -6.709753 1.989023 -7.5 0 -7.5 
C -1.989023 -7.5 -3.896849 -6.709753 -5.303301 -5.303301 
C -6.709753 -3.896849 -7.5 -1.989023 -7.5 0 
C -7.5 1.989023 -6.709753 3.896849 -5.303301 5.303301 
C -3.896849 6.709753 -1.989023 7.5 0 7.5 
z
" id="m48824d13f5" style="stroke:#bf00bf;stroke-width:1.5;"/>
    </defs>
    <g clip-path="url(#p0a45ca4242)">
     <use style="fill-opacity:0;stroke:#bf00bf;stroke-width:1.5;" x="415.421063" xlink:href="#m48824d13f5" y="284.17901"/>
     <use style="fill-opacity:0;stroke:#bf00bf;stroke-width:1.5;" x="423.907972" xlink:href="#m48824d13f5" y="274.59802"/>
     <use style="fill-opacity:0;stroke:#bf00bf;stroke-width:1.5;" x="431.0712" xlink:href="#m48824d13f5" y="265.01703"/>
    </g>
   </g>
   <g id="line2d_120">
    <path clip-path="url(#p0a45ca4242)" style="fill:none;stroke:#bf00bf;stroke-linecap:square;stroke-width:1.5;"/>
   </g>
   <g id="line2d_121">
    <path clip-path="url(#p0a45ca4242)" d="M 387.876591 293.76 
L 387.876591 288.969505 
L 405.787794 288.969505 
L 405.787794 284.17901 
L 439.120884 284.17901 
L 439.120884 279.388515 
L 441.289988 279.388515 
L 441.289988 274.59802 
L 441.289988 274.59802 
L 441.289988 274.59802 
L 460.8 274.59802 
" style="fill:none;stroke:#ff0000;stroke-linecap:square;stroke-width:3;"/>
   </g>
   <g id="line2d_122">
    <defs>
     <path d="M 0 14.142136 
L 8.485281 0 
L 0 -14.142136 
L -8.485281 0 
z
" id="me6334ee968" style="stroke:#ff0000;stroke-linejoin:miter;stroke-width:3;"/>
    </defs>
    <g clip-path="url(#p0a45ca4242)">
     <use style="fill-opacity:0;stroke:#ff0000;stroke-linejoin:miter;stroke-width:3;" x="405.787794" xlink:href="#me6334ee968" y="288.969505"/>
     <use style="fill-opacity:0;stroke:#ff0000;stroke-linejoin:miter;stroke-width:3;" x="441.289988" xlink:href="#me6334ee968" y="279.388515"/>
     <use style="fill-opacity:0;stroke:#ff0000;stroke-linejoin:miter;stroke-width:3;" x="441.289988" xlink:href="#me6334ee968" y="274.59802"/>
    </g>
   </g>
   <g id="line2d_123">
    <path clip-path="url(#p0a45ca4242)" style="fill:none;stroke:#ff0000;stroke-linecap:square;stroke-width:3;"/>
    <g clip-path="url(#p0a45ca4242)">
     <use style="fill-opacity:0;stroke:#ff0000;stroke-linejoin:miter;stroke-width:3;" x="-1" xlink:href="#me6334ee968" y="581.189703"/>
     <use style="fill-opacity:0;stroke:#ff0000;stroke-linejoin:miter;stroke-width:3;" x="460.8" xlink:href="#me6334ee968" y="581.189703"/>
    </g>
   </g>
   <g id="line2d_124">
    <path clip-path="url(#p0a45ca4242)" d="M 415.455957 293.76 
L 415.455957 288.969505 
L 415.496662 288.969505 
L 415.496662 284.17901 
L 416.690771 284.17901 
L 416.690771 279.388515 
L 418.756442 279.388515 
L 418.756442 274.59802 
L 424.5255 274.59802 
L 424.5255 269.807525 
L 431.0712 269.807525 
L 431.0712 265.01703 
L 431.0712 265.01703 
L 431.0712 265.01703 
L 460.8 265.01703 
" style="fill:none;stroke:#ff0000;stroke-linecap:square;stroke-width:3;"/>
   </g>
   <g id="line2d_125">
    <defs>
     <path d="M 0 7.5 
C 1.989023 7.5 3.896849 6.709753 5.303301 5.303301 
C 6.709753 3.896849 7.5 1.989023 7.5 0 
C 7.5 -1.989023 6.709753 -3.896849 5.303301 -5.303301 
C 3.896849 -6.709753 1.989023 -7.5 0 -7.5 
C -1.989023 -7.5 -3.896849 -6.709753 -5.303301 -5.303301 
C -6.709753 -3.896849 -7.5 -1.989023 -7.5 0 
C -7.5 1.989023 -6.709753 3.896849 -5.303301 5.303301 
C -3.896849 6.709753 -1.989023 7.5 0 7.5 
z
" id="m526157b541" style="stroke:#ff0000;stroke-width:3;"/>
    </defs>
    <g clip-path="url(#p0a45ca4242)">
     <use style="fill-opacity:0;stroke:#ff0000;stroke-width:3;" x="418.756442" xlink:href="#m526157b541" y="279.388515"/>
     <use style="fill-opacity:0;stroke:#ff0000;stroke-width:3;" x="431.0712" xlink:href="#m526157b541" y="269.807525"/>
     <use style="fill-opacity:0;stroke:#ff0000;stroke-width:3;" x="431.0712" xlink:href="#m526157b541" y="265.01703"/>
    </g>
   </g>
   <g id="line2d_126">
    <path clip-path="url(#p0a45ca4242)" style="fill:none;stroke:#ff0000;stroke-linecap:square;stroke-width:3;"/>
   </g>
   <g id="line2d_127">
    <path clip-path="url(#p0a45ca4242)" d="M 441.767705 293.76 
L 441.767705 3.456 
" style="fill:none;stroke:#000000;stroke-linecap:square;stroke-width:1.5;"/>
    <defs>
     <path d="M -10 0 
L 10 0 
M 0 10 
L 0 -10 
" id="m9451bd822c" style="stroke:#000000;stroke-width:3;"/>
    </defs>
    <g clip-path="url(#p0a45ca4242)">
     <use style="stroke:#000000;stroke-width:3;" x="441.767705" xlink:href="#m9451bd822c" y="293.76"/>
     <use style="stroke:#000000;stroke-width:3;" x="441.767705" xlink:href="#m9451bd822c" y="3.456"/>
    </g>
   </g>
   <g id="line2d_128">
    <path clip-path="url(#p0a45ca4242)" d="M 441.812029 293.76 
L 441.812029 3.456 
" style="fill:none;stroke:#000000;stroke-linecap:square;stroke-width:1.5;"/>
    <defs>
     <path d="M 0 7.5 
C 1.989023 7.5 3.896849 6.709753 5.303301 5.303301 
C 6.709753 3.896849 7.5 1.989023 7.5 0 
C 7.5 -1.989023 6.709753 -3.896849 5.303301 -5.303301 
C 3.896849 -6.709753 1.989023 -7.5 0 -7.5 
C -1.989023 -7.5 -3.896849 -6.709753 -5.303301 -5.303301 
C -6.709753 -3.896849 -7.5 -1.989023 -7.5 0 
C -7.5 1.989023 -6.709753 3.896849 -5.303301 5.303301 
C -3.896849 6.709753 -1.989023 7.5 0 7.5 
z
" id="m98c0056d5e" style="stroke:#000000;stroke-width:3;"/>
    </defs>
    <g clip-path="url(#p0a45ca4242)">
     <use style="fill-opacity:0;stroke:#000000;stroke-width:3;" x="441.812029" xlink:href="#m98c0056d5e" y="293.76"/>
     <use style="fill-opacity:0;stroke:#000000;stroke-width:3;" x="441.812029" xlink:href="#m98c0056d5e" y="3.456"/>
    </g>
   </g>
   <g id="patch_3">
    <path d="M 62.208 293.76 
L 62.208 3.456 
" style="fill:none;stroke:#000000;stroke-linecap:square;stroke-linejoin:miter;stroke-width:0.8;"/>
   </g>
   <g id="patch_4">
    <path d="M 460.8 293.76 
L 460.8 3.456 
" style="fill:none;stroke:#000000;stroke-linecap:square;stroke-linejoin:miter;stroke-width:0.8;"/>
   </g>
   <g id="patch_5">
    <path d="M 62.208 293.76 
L 460.8 293.76 
" style="fill:none;stroke:#000000;stroke-linecap:square;stroke-linejoin:miter;stroke-width:0.8;"/>
   </g>
   <g id="patch_6">
    <path d="M 62.208 3.456 
L 460.8 3.456 
" style="fill:none;stroke:#000000;stroke-linecap:square;stroke-linejoin:miter;stroke-width:0.8;"/>
   </g>
   <g id="text_12">
    <!-- f6-f9 -->
    <g transform="translate(238.130563 24.458955)scale(0.2 -0.2)">
     <defs>
      <path d="M 313 2009 
L 1997 2009 
L 1997 1497 
L 313 1497 
L 313 2009 
z
" id="DejaVuSans-2d" transform="scale(0.015625)"/>
      <path d="M 703 97 
L 703 672 
Q 941 559 1184 500 
Q 1428 441 1663 441 
Q 2288 441 2617 861 
Q 2947 1281 2994 2138 
Q 2813 1869 2534 1725 
Q 2256 1581 1919 1581 
Q 1219 1581 811 2004 
Q 403 2428 403 3163 
Q 403 3881 828 4315 
Q 1253 4750 1959 4750 
Q 2769 4750 3195 4129 
Q 3622 3509 3622 2328 
Q 3622 1225 3098 567 
Q 2575 -91 1691 -91 
Q 1453 -91 1209 -44 
Q 966 3 703 97 
z
M 1959 2075 
Q 2384 2075 2632 2365 
Q 2881 2656 2881 3163 
Q 2881 3666 2632 3958 
Q 2384 4250 1959 4250 
Q 1534 4250 1286 3958 
Q 1038 3666 1038 3163 
Q 1038 2656 1286 2365 
Q 1534 2075 1959 2075 
z
" id="DejaVuSans-39" transform="scale(0.015625)"/>
     </defs>
     <use xlink:href="#DejaVuSans-66"/>
     <use x="35.205078" xlink:href="#DejaVuSans-36"/>
     <use x="98.828125" xlink:href="#DejaVuSans-2d"/>
     <use x="134.912109" xlink:href="#DejaVuSans-66"/>
     <use x="170.117188" xlink:href="#DejaVuSans-39"/>
    </g>
   </g>
   <g id="text_13">
    <!-- absolute targets -->
    <g transform="translate(62.208 609.932673)scale(0.14 -0.14)">
     <defs>
      <path d="M 3116 1747 
Q 3116 2381 2855 2742 
Q 2594 3103 2138 3103 
Q 1681 3103 1420 2742 
Q 1159 2381 1159 1747 
Q 1159 1113 1420 752 
Q 1681 391 2138 391 
Q 2594 391 2855 752 
Q 3116 1113 3116 1747 
z
M 1159 2969 
Q 1341 3281 1617 3432 
Q 1894 3584 2278 3584 
Q 2916 3584 3314 3078 
Q 3713 2572 3713 1747 
Q 3713 922 3314 415 
Q 2916 -91 2278 -91 
Q 1894 -91 1617 61 
Q 1341 213 1159 525 
L 1159 0 
L 581 0 
L 581 4863 
L 1159 4863 
L 1159 2969 
z
" id="DejaVuSans-62" transform="scale(0.015625)"/>
      <path d="M 544 1381 
L 544 3500 
L 1119 3500 
L 1119 1403 
Q 1119 906 1312 657 
Q 1506 409 1894 409 
Q 2359 409 2629 706 
Q 2900 1003 2900 1516 
L 2900 3500 
L 3475 3500 
L 3475 0 
L 2900 0 
L 2900 538 
Q 2691 219 2414 64 
Q 2138 -91 1772 -91 
Q 1169 -91 856 284 
Q 544 659 544 1381 
z
M 1991 3584 
L 1991 3584 
z
" id="DejaVuSans-75" transform="scale(0.015625)"/>
      <path d="M 3597 1894 
L 3597 1613 
L 953 1613 
Q 991 1019 1311 708 
Q 1631 397 2203 397 
Q 2534 397 2845 478 
Q 3156 559 3463 722 
L 3463 178 
Q 3153 47 2828 -22 
Q 2503 -91 2169 -91 
Q 1331 -91 842 396 
Q 353 884 353 1716 
Q 353 2575 817 3079 
Q 1281 3584 2069 3584 
Q 2775 3584 3186 3129 
Q 3597 2675 3597 1894 
z
M 3022 2063 
Q 3016 2534 2758 2815 
Q 2500 3097 2075 3097 
Q 1594 3097 1305 2825 
Q 1016 2553 972 2059 
L 3022 2063 
z
" id="DejaVuSans-65" transform="scale(0.015625)"/>
     </defs>
     <use xlink:href="#DejaVuSans-61"/>
     <use x="61.279297" xlink:href="#DejaVuSans-62"/>
     <use x="124.755859" xlink:href="#DejaVuSans-73"/>
     <use x="176.855469" xlink:href="#DejaVuSans-6f"/>
     <use x="238.037109" xlink:href="#DejaVuSans-6c"/>
     <use x="265.820312" xlink:href="#DejaVuSans-75"/>
     <use x="329.199219" xlink:href="#DejaVuSans-74"/>
     <use x="368.408203" xlink:href="#DejaVuSans-65"/>
     <use x="429.931641" xlink:href="#DejaVuSans-20"/>
     <use x="461.71875" xlink:href="#DejaVuSans-74"/>
     <use x="500.927734" xlink:href="#DejaVuSans-61"/>
     <use x="562.207031" xlink:href="#DejaVuSans-72"/>
     <use x="601.570312" xlink:href="#DejaVuSans-67"/>
     <use x="665.046875" xlink:href="#DejaVuSans-65"/>
     <use x="726.570312" xlink:href="#DejaVuSans-74"/>
     <use x="765.779297" xlink:href="#DejaVuSans-73"/>
    </g>
   </g>
   <g id="text_14">
    <!-- v2.6.3 -->
    <g style="fill:#808080;" transform="translate(245.82275 288.777272)scale(0.1 -0.1)">
     <defs>
      <path d="M 2597 2516 
Q 3050 2419 3304 2112 
Q 3559 1806 3559 1356 
Q 3559 666 3084 287 
Q 2609 -91 1734 -91 
Q 1441 -91 1130 -33 
Q 819 25 488 141 
L 488 750 
Q 750 597 1062 519 
Q 1375 441 1716 441 
Q 2309 441 2620 675 
Q 2931 909 2931 1356 
Q 2931 1769 2642 2001 
Q 2353 2234 1838 2234 
L 1294 2234 
L 1294 2753 
L 1863 2753 
Q 2328 2753 2575 2939 
Q 2822 3125 2822 3475 
Q 2822 3834 2567 4026 
Q 2313 4219 1838 4219 
Q 1578 4219 1281 4162 
Q 984 4106 628 3988 
L 628 4550 
Q 988 4650 1302 4700 
Q 1616 4750 1894 4750 
Q 2613 4750 3031 4423 
Q 3450 4097 3450 3541 
Q 3450 3153 3228 2886 
Q 3006 2619 2597 2516 
z
" id="DejaVuSans-33" transform="scale(0.015625)"/>
     </defs>
     <use xlink:href="#DejaVuSans-76"/>
     <use x="59.179688" xlink:href="#DejaVuSans-32"/>
     <use x="122.802734" xlink:href="#DejaVuSans-2e"/>
     <use x="154.589844" xlink:href="#DejaVuSans-36"/>
     <use x="218.212891" xlink:href="#DejaVuSans-2e"/>
     <use x="250" xlink:href="#DejaVuSans-33"/>
    </g>
   </g>
   <g id="legend_1">
    <g id="patch_7">
     <path d="M 76.208 136.881 
L 160.148625 136.881 
Q 164.148625 136.881 164.148625 132.881 
L 164.148625 17.456 
Q 164.148625 13.456 160.148625 13.456 
L 76.208 13.456 
Q 72.208 13.456 72.208 17.456 
L 72.208 132.881 
Q 72.208 136.881 76.208 136.881 
z
" style="fill:#ffffff;opacity:0.2;stroke:#cccccc;stroke-linejoin:miter;"/>
    </g>
    <g id="line2d_129">
     <path d="M 80.208 29.652875 
L 120.208 29.652875 
" style="fill:none;stroke:#000000;stroke-linecap:square;stroke-width:1.5;"/>
    </g>
    <g id="line2d_130"/>
    <g id="text_15">
     <!-- 1 -->
     <g transform="translate(136.208 36.652875)scale(0.2 -0.2)">
      <use xlink:href="#DejaVuSans-31"/>
     </g>
    </g>
    <g id="line2d_131">
     <path d="M 80.208 59.009125 
L 120.208 59.009125 
" style="fill:none;stroke:#00bfbf;stroke-linecap:square;stroke-width:1.5;"/>
    </g>
    <g id="line2d_132"/>
    <g id="text_16">
     <!-- -1 -->
     <g transform="translate(136.208 66.009125)scale(0.2 -0.2)">
      <use xlink:href="#DejaVuSans-2d"/>
      <use x="36.083984" xlink:href="#DejaVuSans-31"/>
     </g>
    </g>
    <g id="line2d_133">
     <path d="M 80.208 88.365375 
L 120.208 88.365375 
" style="fill:none;stroke:#bf00bf;stroke-linecap:square;stroke-width:1.5;"/>
    </g>
    <g id="line2d_134"/>
    <g id="text_17">
     <!-- -4 -->
     <g transform="translate(136.208 95.365375)scale(0.2 -0.2)">
      <use xlink:href="#DejaVuSans-2d"/>
      <use x="36.083984" xlink:href="#DejaVuSans-34"/>
     </g>
    </g>
    <g id="line2d_135">
     <path d="M 80.208 117.721625 
L 120.208 117.721625 
" style="fill:none;stroke:#ff0000;stroke-linecap:square;stroke-width:3;"/>
    </g>
    <g id="line2d_136"/>
    <g id="text_18">
     <!-- -8 -->
     <g transform="translate(136.208 124.721625)scale(0.2 -0.2)">
      <use xlink:href="#DejaVuSans-2d"/>
      <use x="36.083984" xlink:href="#DejaVuSans-38"/>
     </g>
    </g>
   </g>
  </g>
 </g>
 <defs>
  <clipPath id="p0a45ca4242">
   <rect height="290.304" width="398.592" x="62.208" y="3.456"/>
  </clipPath>
 </defs>
</svg>
