<?xml version="1.0" encoding="utf-8" standalone="no"?>
<!DOCTYPE svg PUBLIC "-//W3C//DTD SVG 1.1//EN"
  "http://www.w3.org/Graphics/SVG/1.1/DTD/svg11.dtd">
<svg height="345.6pt" version="1.1" viewBox="0 0 460.8 345.6" width="460.8pt" xmlns="http://www.w3.org/2000/svg" xmlns:xlink="http://www.w3.org/1999/xlink">
 <metadata>
  <rdf:RDF xmlns:cc="http://creativecommons.org/ns#" xmlns:dc="http://purl.org/dc/elements/1.1/" xmlns:rdf="http://www.w3.org/1999/02/22-rdf-syntax-ns#">
   <cc:Work>
    <dc:type rdf:resource="http://purl.org/dc/dcmitype/StillImage"/>
    <dc:date>2023-04-17T18:02:35.761691</dc:date>
    <dc:format>image/svg+xml</dc:format>
    <dc:creator>
     <cc:Agent>
      <dc:title>Matplotlib v3.4.1, https://matplotlib.org/</dc:title>
     </cc:Agent>
    </dc:creator>
   </cc:Work>
  </rdf:RDF>
 </metadata>
 <defs>
  <style type="text/css">*{stroke-linecap:butt;stroke-linejoin:round;}</style>
 </defs>
 <g id="figure_1">
  <g id="patch_1">
   <path d="M 0 345.6 
L 460.8 345.6 
L 460.8 0 
L 0 0 
z
" style="fill:#ffffff;"/>
  </g>
  <g id="axes_1">
   <g id="patch_2">
    <path d="M 62.208 293.76 
L 460.8 293.76 
L 460.8 3.456 
L 62.208 3.456 
z
" style="fill:#ffffff;"/>
   </g>
   <g id="line2d_1"/>
   <g id="line2d_2"/>
   <g id="line2d_3"/>
   <g id="line2d_4"/>
   <g id="line2d_5"/>
   <g id="line2d_6"/>
   <g id="line2d_7">
    <path clip-path="url(#pb6fc69d452)" style="fill:none;stroke:#f5deb3;stroke-linecap:square;stroke-width:1.5;"/>
   </g>
   <g id="line2d_8">
    <path clip-path="url(#pb6fc69d452)" d="M 443.925307 293.76 
L 443.925307 289.927604 
L 444.253096 289.927604 
L 444.253096 286.095208 
L 461.8 286.095208 
" style="fill:none;stroke:#f5deb3;stroke-linecap:square;stroke-width:1.5;"/>
   </g>
   <g id="line2d_9">
    <path clip-path="url(#pb6fc69d452)" d="M 350.700551 293.76 
L 350.700551 289.927604 
L 352.638762 289.927604 
L 352.638762 286.095208 
L 355.790919 286.095208 
L 355.790919 282.262812 
L 377.091895 282.262812 
L 377.091895 278.430416 
L 377.848207 278.430416 
L 377.848207 274.59802 
L 378.137343 274.59802 
L 378.137343 270.765624 
L 380.806115 270.765624 
L 380.806115 266.933228 
L 381.758891 266.933228 
L 381.758891 263.100832 
L 382.341858 263.100832 
L 382.448533 255.43604 
L 382.570354 255.43604 
L 382.570354 251.603644 
L 383.082839 251.603644 
L 383.082839 247.771248 
L 383.495318 247.771248 
L 383.495318 243.938851 
L 383.825674 243.938851 
L 383.825674 240.106455 
L 384.373722 240.106455 
L 384.373722 236.274059 
L 384.887045 236.274059 
L 384.887045 232.441663 
L 385.909095 232.441663 
L 385.909095 228.609267 
L 389.635591 228.609267 
L 389.635591 224.776871 
L 402.123912 224.776871 
L 402.123912 220.944475 
L 405.280886 220.944475 
L 405.280886 217.112079 
L 408.104288 217.112079 
L 408.104288 213.279683 
L 412.841658 213.279683 
L 412.841658 209.447287 
L 413.497376 209.447287 
L 413.497376 205.614891 
L 413.641772 205.614891 
L 413.641772 201.782495 
L 415.81937 201.782495 
L 415.914731 194.117703 
L 417.252175 194.117703 
L 417.252913 186.452911 
L 417.434704 186.452911 
L 417.434704 182.620515 
L 417.750008 182.620515 
L 417.753652 174.955723 
L 419.382438 174.955723 
L 419.472695 167.290931 
L 420.145787 167.290931 
L 420.145787 163.458535 
L 421.18654 163.458535 
L 421.18654 159.626139 
L 421.686285 159.626139 
L 421.686285 155.793743 
L 422.394118 155.793743 
L 422.491653 144.296554 
L 423.822096 144.296554 
L 423.822096 140.464158 
L 424.760186 140.464158 
L 424.760186 136.631762 
L 429.106336 136.631762 
L 429.106336 132.799366 
L 430.501507 132.799366 
L 430.501507 128.96697 
L 431.469426 128.96697 
L 431.469426 125.134574 
L 432.228928 125.134574 
L 432.228928 121.302178 
L 433.619508 121.302178 
L 433.619508 117.469782 
L 433.880846 117.469782 
L 433.880846 113.637386 
L 434.960796 113.637386 
L 434.960796 109.80499 
L 435.641591 109.80499 
L 435.641591 105.972594 
L 446.330186 105.972594 
L 446.330186 102.140198 
L 448.129148 102.140198 
L 448.129148 98.307802 
L 454.1355 98.307802 
L 454.208289 90.64301 
L 455.316848 90.64301 
L 455.37502 82.978218 
L 455.724943 82.978218 
L 455.724943 79.145822 
L 456.310468 79.145822 
L 456.328454 71.48103 
L 458.936465 71.48103 
L 458.936465 67.648634 
L 461.8 67.648634 
L 461.8 67.648634 
" style="fill:none;stroke:#f5deb3;stroke-linecap:square;stroke-width:1.5;"/>
   </g>
   <g id="line2d_10"/>
   <g id="line2d_11"/>
   <g id="line2d_12"/>
   <g id="line2d_13"/>
   <g id="line2d_14"/>
   <g id="line2d_15"/>
   <g id="line2d_16"/>
   <g id="line2d_17">
    <path clip-path="url(#pb6fc69d452)" d="M 444.16727 293.76 
L 444.16727 289.927604 
L 449.731649 289.927604 
L 449.731649 286.095208 
L 450.870647 286.095208 
L 450.870647 282.262812 
L 452.304438 282.262812 
L 452.304438 278.430416 
L 453.217686 278.430416 
L 453.217686 274.59802 
L 453.746826 274.59802 
L 453.746826 270.765624 
L 453.975031 270.765624 
L 453.975031 266.933228 
L 455.792374 266.933228 
L 455.792374 263.100832 
L 456.187785 263.100832 
L 456.187785 259.268436 
L 457.977826 259.268436 
L 457.977826 255.43604 
L 458.151311 255.43604 
L 458.151311 251.603644 
L 458.93191 251.603644 
L 458.93191 247.771248 
L 459.378262 247.771248 
L 459.378262 243.938851 
L 459.945494 243.938851 
L 459.945494 240.106455 
L 460.290414 240.106455 
L 460.290414 236.274059 
L 460.364229 236.274059 
L 460.364229 232.441663 
L 461.8 232.441663 
" style="fill:none;stroke:#f5deb3;stroke-linecap:square;stroke-width:1.5;"/>
   </g>
   <g id="line2d_18"/>
   <g id="line2d_19"/>
   <g id="line2d_20"/>
   <g id="line2d_21"/>
   <g id="line2d_22"/>
   <g id="line2d_23"/>
   <g id="line2d_24">
    <path clip-path="url(#pb6fc69d452)" d="M 371.958189 293.76 
L 371.958189 289.927604 
L 419.356514 289.927604 
L 419.356514 286.095208 
L 420.266619 286.095208 
L 420.266619 282.262812 
L 423.968973 282.262812 
L 423.968973 278.430416 
L 425.111482 278.430416 
L 425.111482 274.59802 
L 425.293293 274.59802 
L 425.293293 270.765624 
L 429.490556 270.765624 
L 429.490556 266.933228 
L 432.474766 266.933228 
L 432.507875 259.268436 
L 433.955141 259.268436 
L 433.955141 255.43604 
L 436.525682 255.43604 
L 436.525682 251.603644 
L 436.924591 251.603644 
L 436.924591 247.771248 
L 439.419133 247.771248 
L 439.419133 243.938851 
L 440.72778 243.938851 
L 440.72778 240.106455 
L 440.954825 240.106455 
L 440.954825 236.274059 
L 441.827549 236.274059 
L 441.857176 228.609267 
L 442.415663 228.609267 
L 442.415663 224.776871 
L 442.771523 224.776871 
L 442.771523 220.944475 
L 443.325651 220.944475 
L 443.325651 217.112079 
L 443.861212 217.112079 
L 443.938808 209.447287 
L 444.017798 209.447287 
L 444.017798 205.614891 
L 444.19526 205.614891 
L 444.19526 201.782495 
L 445.12002 201.782495 
L 445.12002 197.950099 
L 445.410566 197.950099 
L 445.518716 190.285307 
L 445.719764 190.285307 
L 445.719764 186.452911 
L 446.077218 186.452911 
L 446.077218 182.620515 
L 446.539993 182.620515 
L 446.539993 178.788119 
L 447.282011 178.788119 
L 447.304763 171.123327 
L 447.554205 171.123327 
L 447.554205 167.290931 
L 447.793366 167.290931 
L 447.793366 163.458535 
L 449.797265 163.458535 
L 449.808303 155.793743 
L 450.358415 155.793743 
L 450.358415 151.961347 
L 452.294051 151.961347 
L 452.309159 144.296554 
L 461.8 144.296554 
L 461.8 144.296554 
" style="fill:none;stroke:#f5deb3;stroke-linecap:square;stroke-width:1.5;"/>
   </g>
   <g id="line2d_25">
    <path clip-path="url(#pb6fc69d452)" d="M 458.184338 293.76 
L 458.184338 289.927604 
L 461.8 289.927604 
" style="fill:none;stroke:#f5deb3;stroke-linecap:square;stroke-width:1.5;"/>
   </g>
   <g id="line2d_26">
    <path clip-path="url(#pb6fc69d452)" style="fill:none;stroke:#f5deb3;stroke-linecap:square;stroke-width:1.5;"/>
   </g>
   <g id="line2d_27"/>
   <g id="line2d_28">
    <path clip-path="url(#pb6fc69d452)" d="M 406.498972 293.76 
L 406.498972 289.927604 
L 423.493812 289.927604 
L 423.493812 286.095208 
L 431.075919 286.095208 
L 431.075919 282.262812 
L 449.227681 282.262812 
L 449.227681 278.430416 
L 452.810878 278.430416 
L 452.810878 274.59802 
L 461.8 274.59802 
" style="fill:none;stroke:#f5deb3;stroke-linecap:square;stroke-width:1.5;"/>
   </g>
   <g id="line2d_29"/>
   <g id="line2d_30"/>
   <g id="matplotlib.axis_1">
    <g id="xtick_1">
     <g id="line2d_31">
      <path clip-path="url(#pb6fc69d452)" d="M 62.208 293.76 
L 62.208 3.456 
" style="fill:none;stroke:#b0b0b0;stroke-linecap:square;stroke-width:0.8;"/>
     </g>
     <g id="line2d_32">
      <defs>
       <path d="M 0 0 
L 0 3.5 
" id="m0b735dac55" style="stroke:#000000;stroke-width:0.8;"/>
      </defs>
      <g>
       <use style="stroke:#000000;stroke-width:0.8;" x="62.208" xlink:href="#m0b735dac55" y="293.76"/>
      </g>
     </g>
     <g id="text_1">
      <!-- 0 -->
      <g transform="translate(55.8455 315.956875)scale(0.2 -0.2)">
       <defs>
        <path d="M 2034 4250 
Q 1547 4250 1301 3770 
Q 1056 3291 1056 2328 
Q 1056 1369 1301 889 
Q 1547 409 2034 409 
Q 2525 409 2770 889 
Q 3016 1369 3016 2328 
Q 3016 3291 2770 3770 
Q 2525 4250 2034 4250 
z
M 2034 4750 
Q 2819 4750 3233 4129 
Q 3647 3509 3647 2328 
Q 3647 1150 3233 529 
Q 2819 -91 2034 -91 
Q 1250 -91 836 529 
Q 422 1150 422 2328 
Q 422 3509 836 4129 
Q 1250 4750 2034 4750 
z
" id="DejaVuSans-30" transform="scale(0.015625)"/>
       </defs>
       <use xlink:href="#DejaVuSans-30"/>
      </g>
     </g>
    </g>
    <g id="xtick_2">
     <g id="line2d_33">
      <path clip-path="url(#pb6fc69d452)" d="M 251.737365 293.76 
L 251.737365 3.456 
" style="fill:none;stroke:#b0b0b0;stroke-linecap:square;stroke-width:0.8;"/>
     </g>
     <g id="line2d_34">
      <g>
       <use style="stroke:#000000;stroke-width:0.8;" x="251.737365" xlink:href="#m0b735dac55" y="293.76"/>
      </g>
     </g>
     <g id="text_2">
      <!-- 2 -->
      <g transform="translate(245.374865 315.956875)scale(0.2 -0.2)">
       <defs>
        <path d="M 1228 531 
L 3431 531 
L 3431 0 
L 469 0 
L 469 531 
Q 828 903 1448 1529 
Q 2069 2156 2228 2338 
Q 2531 2678 2651 2914 
Q 2772 3150 2772 3378 
Q 2772 3750 2511 3984 
Q 2250 4219 1831 4219 
Q 1534 4219 1204 4116 
Q 875 4013 500 3803 
L 500 4441 
Q 881 4594 1212 4672 
Q 1544 4750 1819 4750 
Q 2544 4750 2975 4387 
Q 3406 4025 3406 3419 
Q 3406 3131 3298 2873 
Q 3191 2616 2906 2266 
Q 2828 2175 2409 1742 
Q 1991 1309 1228 531 
z
" id="DejaVuSans-32" transform="scale(0.015625)"/>
       </defs>
       <use xlink:href="#DejaVuSans-32"/>
      </g>
     </g>
    </g>
    <g id="xtick_3">
     <g id="line2d_35">
      <path clip-path="url(#pb6fc69d452)" d="M 441.26673 293.76 
L 441.26673 3.456 
" style="fill:none;stroke:#b0b0b0;stroke-linecap:square;stroke-width:0.8;"/>
     </g>
     <g id="line2d_36">
      <g>
       <use style="stroke:#000000;stroke-width:0.8;" x="441.26673" xlink:href="#m0b735dac55" y="293.76"/>
      </g>
     </g>
     <g id="text_3">
      <!-- 4 -->
      <g transform="translate(434.90423 315.956875)scale(0.2 -0.2)">
       <defs>
        <path d="M 2419 4116 
L 825 1625 
L 2419 1625 
L 2419 4116 
z
M 2253 4666 
L 3047 4666 
L 3047 1625 
L 3713 1625 
L 3713 1100 
L 3047 1100 
L 3047 0 
L 2419 0 
L 2419 1100 
L 313 1100 
L 313 1709 
L 2253 4666 
z
" id="DejaVuSans-34" transform="scale(0.015625)"/>
       </defs>
       <use xlink:href="#DejaVuSans-34"/>
      </g>
     </g>
    </g>
    <g id="xtick_4">
     <g id="line2d_37">
      <path clip-path="url(#pb6fc69d452)" d="M 90.735012 293.76 
L 90.735012 3.456 
" style="fill:none;stroke:#b0b0b0;stroke-linecap:square;stroke-width:0.8;"/>
     </g>
     <g id="line2d_38">
      <defs>
       <path d="M 0 0 
L 0 2 
" id="m7a88eda4e9" style="stroke:#000000;stroke-width:0.6;"/>
      </defs>
      <g>
       <use style="stroke:#000000;stroke-width:0.6;" x="90.735012" xlink:href="#m7a88eda4e9" y="293.76"/>
      </g>
     </g>
    </g>
    <g id="xtick_5">
     <g id="line2d_39">
      <path clip-path="url(#pb6fc69d452)" d="M 107.422244 293.76 
L 107.422244 3.456 
" style="fill:none;stroke:#b0b0b0;stroke-linecap:square;stroke-width:0.8;"/>
     </g>
     <g id="line2d_40">
      <g>
       <use style="stroke:#000000;stroke-width:0.6;" x="107.422244" xlink:href="#m7a88eda4e9" y="293.76"/>
      </g>
     </g>
    </g>
    <g id="xtick_6">
     <g id="line2d_41">
      <path clip-path="url(#pb6fc69d452)" d="M 119.262024 293.76 
L 119.262024 3.456 
" style="fill:none;stroke:#b0b0b0;stroke-linecap:square;stroke-width:0.8;"/>
     </g>
     <g id="line2d_42">
      <g>
       <use style="stroke:#000000;stroke-width:0.6;" x="119.262024" xlink:href="#m7a88eda4e9" y="293.76"/>
      </g>
     </g>
    </g>
    <g id="xtick_7">
     <g id="line2d_43">
      <path clip-path="url(#pb6fc69d452)" d="M 128.445671 293.76 
L 128.445671 3.456 
" style="fill:none;stroke:#b0b0b0;stroke-linecap:square;stroke-width:0.8;"/>
     </g>
     <g id="line2d_44">
      <g>
       <use style="stroke:#000000;stroke-width:0.6;" x="128.445671" xlink:href="#m7a88eda4e9" y="293.76"/>
      </g>
     </g>
    </g>
    <g id="xtick_8">
     <g id="line2d_45">
      <path clip-path="url(#pb6fc69d452)" d="M 135.949256 293.76 
L 135.949256 3.456 
" style="fill:none;stroke:#b0b0b0;stroke-linecap:square;stroke-width:0.8;"/>
     </g>
     <g id="line2d_46">
      <g>
       <use style="stroke:#000000;stroke-width:0.6;" x="135.949256" xlink:href="#m7a88eda4e9" y="293.76"/>
      </g>
     </g>
    </g>
    <g id="xtick_9">
     <g id="line2d_47">
      <path clip-path="url(#pb6fc69d452)" d="M 142.293448 293.76 
L 142.293448 3.456 
" style="fill:none;stroke:#b0b0b0;stroke-linecap:square;stroke-width:0.8;"/>
     </g>
     <g id="line2d_48">
      <g>
       <use style="stroke:#000000;stroke-width:0.6;" x="142.293448" xlink:href="#m7a88eda4e9" y="293.76"/>
      </g>
     </g>
    </g>
    <g id="xtick_10">
     <g id="line2d_49">
      <path clip-path="url(#pb6fc69d452)" d="M 147.789036 293.76 
L 147.789036 3.456 
" style="fill:none;stroke:#b0b0b0;stroke-linecap:square;stroke-width:0.8;"/>
     </g>
     <g id="line2d_50">
      <g>
       <use style="stroke:#000000;stroke-width:0.6;" x="147.789036" xlink:href="#m7a88eda4e9" y="293.76"/>
      </g>
     </g>
    </g>
    <g id="xtick_11">
     <g id="line2d_51">
      <path clip-path="url(#pb6fc69d452)" d="M 152.636489 293.76 
L 152.636489 3.456 
" style="fill:none;stroke:#b0b0b0;stroke-linecap:square;stroke-width:0.8;"/>
     </g>
     <g id="line2d_52">
      <g>
       <use style="stroke:#000000;stroke-width:0.6;" x="152.636489" xlink:href="#m7a88eda4e9" y="293.76"/>
      </g>
     </g>
    </g>
    <g id="xtick_12">
     <g id="line2d_53">
      <path clip-path="url(#pb6fc69d452)" d="M 185.499695 293.76 
L 185.499695 3.456 
" style="fill:none;stroke:#b0b0b0;stroke-linecap:square;stroke-width:0.8;"/>
     </g>
     <g id="line2d_54">
      <g>
       <use style="stroke:#000000;stroke-width:0.6;" x="185.499695" xlink:href="#m7a88eda4e9" y="293.76"/>
      </g>
     </g>
    </g>
    <g id="xtick_13">
     <g id="line2d_55">
      <path clip-path="url(#pb6fc69d452)" d="M 202.186927 293.76 
L 202.186927 3.456 
" style="fill:none;stroke:#b0b0b0;stroke-linecap:square;stroke-width:0.8;"/>
     </g>
     <g id="line2d_56">
      <g>
       <use style="stroke:#000000;stroke-width:0.6;" x="202.186927" xlink:href="#m7a88eda4e9" y="293.76"/>
      </g>
     </g>
    </g>
    <g id="xtick_14">
     <g id="line2d_57">
      <path clip-path="url(#pb6fc69d452)" d="M 214.026707 293.76 
L 214.026707 3.456 
" style="fill:none;stroke:#b0b0b0;stroke-linecap:square;stroke-width:0.8;"/>
     </g>
     <g id="line2d_58">
      <g>
       <use style="stroke:#000000;stroke-width:0.6;" x="214.026707" xlink:href="#m7a88eda4e9" y="293.76"/>
      </g>
     </g>
    </g>
    <g id="xtick_15">
     <g id="line2d_59">
      <path clip-path="url(#pb6fc69d452)" d="M 223.210353 293.76 
L 223.210353 3.456 
" style="fill:none;stroke:#b0b0b0;stroke-linecap:square;stroke-width:0.8;"/>
     </g>
     <g id="line2d_60">
      <g>
       <use style="stroke:#000000;stroke-width:0.6;" x="223.210353" xlink:href="#m7a88eda4e9" y="293.76"/>
      </g>
     </g>
    </g>
    <g id="xtick_16">
     <g id="line2d_61">
      <path clip-path="url(#pb6fc69d452)" d="M 230.713939 293.76 
L 230.713939 3.456 
" style="fill:none;stroke:#b0b0b0;stroke-linecap:square;stroke-width:0.8;"/>
     </g>
     <g id="line2d_62">
      <g>
       <use style="stroke:#000000;stroke-width:0.6;" x="230.713939" xlink:href="#m7a88eda4e9" y="293.76"/>
      </g>
     </g>
    </g>
    <g id="xtick_17">
     <g id="line2d_63">
      <path clip-path="url(#pb6fc69d452)" d="M 237.05813 293.76 
L 237.05813 3.456 
" style="fill:none;stroke:#b0b0b0;stroke-linecap:square;stroke-width:0.8;"/>
     </g>
     <g id="line2d_64">
      <g>
       <use style="stroke:#000000;stroke-width:0.6;" x="237.05813" xlink:href="#m7a88eda4e9" y="293.76"/>
      </g>
     </g>
    </g>
    <g id="xtick_18">
     <g id="line2d_65">
      <path clip-path="url(#pb6fc69d452)" d="M 242.553719 293.76 
L 242.553719 3.456 
" style="fill:none;stroke:#b0b0b0;stroke-linecap:square;stroke-width:0.8;"/>
     </g>
     <g id="line2d_66">
      <g>
       <use style="stroke:#000000;stroke-width:0.6;" x="242.553719" xlink:href="#m7a88eda4e9" y="293.76"/>
      </g>
     </g>
    </g>
    <g id="xtick_19">
     <g id="line2d_67">
      <path clip-path="url(#pb6fc69d452)" d="M 247.401171 293.76 
L 247.401171 3.456 
" style="fill:none;stroke:#b0b0b0;stroke-linecap:square;stroke-width:0.8;"/>
     </g>
     <g id="line2d_68">
      <g>
       <use style="stroke:#000000;stroke-width:0.6;" x="247.401171" xlink:href="#m7a88eda4e9" y="293.76"/>
      </g>
     </g>
    </g>
    <g id="xtick_20">
     <g id="line2d_69">
      <path clip-path="url(#pb6fc69d452)" d="M 280.264377 293.76 
L 280.264377 3.456 
" style="fill:none;stroke:#b0b0b0;stroke-linecap:square;stroke-width:0.8;"/>
     </g>
     <g id="line2d_70">
      <g>
       <use style="stroke:#000000;stroke-width:0.6;" x="280.264377" xlink:href="#m7a88eda4e9" y="293.76"/>
      </g>
     </g>
    </g>
    <g id="xtick_21">
     <g id="line2d_71">
      <path clip-path="url(#pb6fc69d452)" d="M 296.951609 293.76 
L 296.951609 3.456 
" style="fill:none;stroke:#b0b0b0;stroke-linecap:square;stroke-width:0.8;"/>
     </g>
     <g id="line2d_72">
      <g>
       <use style="stroke:#000000;stroke-width:0.6;" x="296.951609" xlink:href="#m7a88eda4e9" y="293.76"/>
      </g>
     </g>
    </g>
    <g id="xtick_22">
     <g id="line2d_73">
      <path clip-path="url(#pb6fc69d452)" d="M 308.791389 293.76 
L 308.791389 3.456 
" style="fill:none;stroke:#b0b0b0;stroke-linecap:square;stroke-width:0.8;"/>
     </g>
     <g id="line2d_74">
      <g>
       <use style="stroke:#000000;stroke-width:0.6;" x="308.791389" xlink:href="#m7a88eda4e9" y="293.76"/>
      </g>
     </g>
    </g>
    <g id="xtick_23">
     <g id="line2d_75">
      <path clip-path="url(#pb6fc69d452)" d="M 317.975036 293.76 
L 317.975036 3.456 
" style="fill:none;stroke:#b0b0b0;stroke-linecap:square;stroke-width:0.8;"/>
     </g>
     <g id="line2d_76">
      <g>
       <use style="stroke:#000000;stroke-width:0.6;" x="317.975036" xlink:href="#m7a88eda4e9" y="293.76"/>
      </g>
     </g>
    </g>
    <g id="xtick_24">
     <g id="line2d_77">
      <path clip-path="url(#pb6fc69d452)" d="M 325.478621 293.76 
L 325.478621 3.456 
" style="fill:none;stroke:#b0b0b0;stroke-linecap:square;stroke-width:0.8;"/>
     </g>
     <g id="line2d_78">
      <g>
       <use style="stroke:#000000;stroke-width:0.6;" x="325.478621" xlink:href="#m7a88eda4e9" y="293.76"/>
      </g>
     </g>
    </g>
    <g id="xtick_25">
     <g id="line2d_79">
      <path clip-path="url(#pb6fc69d452)" d="M 331.822813 293.76 
L 331.822813 3.456 
" style="fill:none;stroke:#b0b0b0;stroke-linecap:square;stroke-width:0.8;"/>
     </g>
     <g id="line2d_80">
      <g>
       <use style="stroke:#000000;stroke-width:0.6;" x="331.822813" xlink:href="#m7a88eda4e9" y="293.76"/>
      </g>
     </g>
    </g>
    <g id="xtick_26">
     <g id="line2d_81">
      <path clip-path="url(#pb6fc69d452)" d="M 337.318401 293.76 
L 337.318401 3.456 
" style="fill:none;stroke:#b0b0b0;stroke-linecap:square;stroke-width:0.8;"/>
     </g>
     <g id="line2d_82">
      <g>
       <use style="stroke:#000000;stroke-width:0.6;" x="337.318401" xlink:href="#m7a88eda4e9" y="293.76"/>
      </g>
     </g>
    </g>
    <g id="xtick_27">
     <g id="line2d_83">
      <path clip-path="url(#pb6fc69d452)" d="M 342.165854 293.76 
L 342.165854 3.456 
" style="fill:none;stroke:#b0b0b0;stroke-linecap:square;stroke-width:0.8;"/>
     </g>
     <g id="line2d_84">
      <g>
       <use style="stroke:#000000;stroke-width:0.6;" x="342.165854" xlink:href="#m7a88eda4e9" y="293.76"/>
      </g>
     </g>
    </g>
    <g id="xtick_28">
     <g id="line2d_85">
      <path clip-path="url(#pb6fc69d452)" d="M 375.02906 293.76 
L 375.02906 3.456 
" style="fill:none;stroke:#b0b0b0;stroke-linecap:square;stroke-width:0.8;"/>
     </g>
     <g id="line2d_86">
      <g>
       <use style="stroke:#000000;stroke-width:0.6;" x="375.02906" xlink:href="#m7a88eda4e9" y="293.76"/>
      </g>
     </g>
    </g>
    <g id="xtick_29">
     <g id="line2d_87">
      <path clip-path="url(#pb6fc69d452)" d="M 391.716292 293.76 
L 391.716292 3.456 
" style="fill:none;stroke:#b0b0b0;stroke-linecap:square;stroke-width:0.8;"/>
     </g>
     <g id="line2d_88">
      <g>
       <use style="stroke:#000000;stroke-width:0.6;" x="391.716292" xlink:href="#m7a88eda4e9" y="293.76"/>
      </g>
     </g>
    </g>
    <g id="xtick_30">
     <g id="line2d_89">
      <path clip-path="url(#pb6fc69d452)" d="M 403.556072 293.76 
L 403.556072 3.456 
" style="fill:none;stroke:#b0b0b0;stroke-linecap:square;stroke-width:0.8;"/>
     </g>
     <g id="line2d_90">
      <g>
       <use style="stroke:#000000;stroke-width:0.6;" x="403.556072" xlink:href="#m7a88eda4e9" y="293.76"/>
      </g>
     </g>
    </g>
    <g id="xtick_31">
     <g id="line2d_91">
      <path clip-path="url(#pb6fc69d452)" d="M 412.739718 293.76 
L 412.739718 3.456 
" style="fill:none;stroke:#b0b0b0;stroke-linecap:square;stroke-width:0.8;"/>
     </g>
     <g id="line2d_92">
      <g>
       <use style="stroke:#000000;stroke-width:0.6;" x="412.739718" xlink:href="#m7a88eda4e9" y="293.76"/>
      </g>
     </g>
    </g>
    <g id="xtick_32">
     <g id="line2d_93">
      <path clip-path="url(#pb6fc69d452)" d="M 420.243304 293.76 
L 420.243304 3.456 
" style="fill:none;stroke:#b0b0b0;stroke-linecap:square;stroke-width:0.8;"/>
     </g>
     <g id="line2d_94">
      <g>
       <use style="stroke:#000000;stroke-width:0.6;" x="420.243304" xlink:href="#m7a88eda4e9" y="293.76"/>
      </g>
     </g>
    </g>
    <g id="xtick_33">
     <g id="line2d_95">
      <path clip-path="url(#pb6fc69d452)" d="M 426.587495 293.76 
L 426.587495 3.456 
" style="fill:none;stroke:#b0b0b0;stroke-linecap:square;stroke-width:0.8;"/>
     </g>
     <g id="line2d_96">
      <g>
       <use style="stroke:#000000;stroke-width:0.6;" x="426.587495" xlink:href="#m7a88eda4e9" y="293.76"/>
      </g>
     </g>
    </g>
    <g id="xtick_34">
     <g id="line2d_97">
      <path clip-path="url(#pb6fc69d452)" d="M 432.083084 293.76 
L 432.083084 3.456 
" style="fill:none;stroke:#b0b0b0;stroke-linecap:square;stroke-width:0.8;"/>
     </g>
     <g id="line2d_98">
      <g>
       <use style="stroke:#000000;stroke-width:0.6;" x="432.083084" xlink:href="#m7a88eda4e9" y="293.76"/>
      </g>
     </g>
    </g>
    <g id="xtick_35">
     <g id="line2d_99">
      <path clip-path="url(#pb6fc69d452)" d="M 436.930536 293.76 
L 436.930536 3.456 
" style="fill:none;stroke:#b0b0b0;stroke-linecap:square;stroke-width:0.8;"/>
     </g>
     <g id="line2d_100">
      <g>
       <use style="stroke:#000000;stroke-width:0.6;" x="436.930536" xlink:href="#m7a88eda4e9" y="293.76"/>
      </g>
     </g>
    </g>
    <g id="text_4">
     <!-- log10 of FEvals / DIM -->
     <g transform="translate(156.430563 339.313125)scale(0.2 -0.2)">
      <defs>
       <path d="M 603 4863 
L 1178 4863 
L 1178 0 
L 603 0 
L 603 4863 
z
" id="DejaVuSans-6c" transform="scale(0.015625)"/>
       <path d="M 1959 3097 
Q 1497 3097 1228 2736 
Q 959 2375 959 1747 
Q 959 1119 1226 758 
Q 1494 397 1959 397 
Q 2419 397 2687 759 
Q 2956 1122 2956 1747 
Q 2956 2369 2687 2733 
Q 2419 3097 1959 3097 
z
M 1959 3584 
Q 2709 3584 3137 3096 
Q 3566 2609 3566 1747 
Q 3566 888 3137 398 
Q 2709 -91 1959 -91 
Q 1206 -91 779 398 
Q 353 888 353 1747 
Q 353 2609 779 3096 
Q 1206 3584 1959 3584 
z
" id="DejaVuSans-6f" transform="scale(0.015625)"/>
       <path d="M 2906 1791 
Q 2906 2416 2648 2759 
Q 2391 3103 1925 3103 
Q 1463 3103 1205 2759 
Q 947 2416 947 1791 
Q 947 1169 1205 825 
Q 1463 481 1925 481 
Q 2391 481 2648 825 
Q 2906 1169 2906 1791 
z
M 3481 434 
Q 3481 -459 3084 -895 
Q 2688 -1331 1869 -1331 
Q 1566 -1331 1297 -1286 
Q 1028 -1241 775 -1147 
L 775 -588 
Q 1028 -725 1275 -790 
Q 1522 -856 1778 -856 
Q 2344 -856 2625 -561 
Q 2906 -266 2906 331 
L 2906 616 
Q 2728 306 2450 153 
Q 2172 0 1784 0 
Q 1141 0 747 490 
Q 353 981 353 1791 
Q 353 2603 747 3093 
Q 1141 3584 1784 3584 
Q 2172 3584 2450 3431 
Q 2728 3278 2906 2969 
L 2906 3500 
L 3481 3500 
L 3481 434 
z
" id="DejaVuSans-67" transform="scale(0.015625)"/>
       <path d="M 794 531 
L 1825 531 
L 1825 4091 
L 703 3866 
L 703 4441 
L 1819 4666 
L 2450 4666 
L 2450 531 
L 3481 531 
L 3481 0 
L 794 0 
L 794 531 
z
" id="DejaVuSans-31" transform="scale(0.015625)"/>
       <path id="DejaVuSans-20" transform="scale(0.015625)"/>
       <path d="M 2375 4863 
L 2375 4384 
L 1825 4384 
Q 1516 4384 1395 4259 
Q 1275 4134 1275 3809 
L 1275 3500 
L 2222 3500 
L 2222 3053 
L 1275 3053 
L 1275 0 
L 697 0 
L 697 3053 
L 147 3053 
L 147 3500 
L 697 3500 
L 697 3744 
Q 697 4328 969 4595 
Q 1241 4863 1831 4863 
L 2375 4863 
z
" id="DejaVuSans-66" transform="scale(0.015625)"/>
       <path d="M 628 4666 
L 3309 4666 
L 3309 4134 
L 1259 4134 
L 1259 2759 
L 3109 2759 
L 3109 2228 
L 1259 2228 
L 1259 0 
L 628 0 
L 628 4666 
z
" id="DejaVuSans-46" transform="scale(0.015625)"/>
       <path d="M 628 4666 
L 3578 4666 
L 3578 4134 
L 1259 4134 
L 1259 2753 
L 3481 2753 
L 3481 2222 
L 1259 2222 
L 1259 531 
L 3634 531 
L 3634 0 
L 628 0 
L 628 4666 
z
" id="DejaVuSans-45" transform="scale(0.015625)"/>
       <path d="M 191 3500 
L 800 3500 
L 1894 563 
L 2988 3500 
L 3597 3500 
L 2284 0 
L 1503 0 
L 191 3500 
z
" id="DejaVuSans-76" transform="scale(0.015625)"/>
       <path d="M 2194 1759 
Q 1497 1759 1228 1600 
Q 959 1441 959 1056 
Q 959 750 1161 570 
Q 1363 391 1709 391 
Q 2188 391 2477 730 
Q 2766 1069 2766 1631 
L 2766 1759 
L 2194 1759 
z
M 3341 1997 
L 3341 0 
L 2766 0 
L 2766 531 
Q 2569 213 2275 61 
Q 1981 -91 1556 -91 
Q 1019 -91 701 211 
Q 384 513 384 1019 
Q 384 1609 779 1909 
Q 1175 2209 1959 2209 
L 2766 2209 
L 2766 2266 
Q 2766 2663 2505 2880 
Q 2244 3097 1772 3097 
Q 1472 3097 1187 3025 
Q 903 2953 641 2809 
L 641 3341 
Q 956 3463 1253 3523 
Q 1550 3584 1831 3584 
Q 2591 3584 2966 3190 
Q 3341 2797 3341 1997 
z
" id="DejaVuSans-61" transform="scale(0.015625)"/>
       <path d="M 2834 3397 
L 2834 2853 
Q 2591 2978 2328 3040 
Q 2066 3103 1784 3103 
Q 1356 3103 1142 2972 
Q 928 2841 928 2578 
Q 928 2378 1081 2264 
Q 1234 2150 1697 2047 
L 1894 2003 
Q 2506 1872 2764 1633 
Q 3022 1394 3022 966 
Q 3022 478 2636 193 
Q 2250 -91 1575 -91 
Q 1294 -91 989 -36 
Q 684 19 347 128 
L 347 722 
Q 666 556 975 473 
Q 1284 391 1588 391 
Q 1994 391 2212 530 
Q 2431 669 2431 922 
Q 2431 1156 2273 1281 
Q 2116 1406 1581 1522 
L 1381 1569 
Q 847 1681 609 1914 
Q 372 2147 372 2553 
Q 372 3047 722 3315 
Q 1072 3584 1716 3584 
Q 2034 3584 2315 3537 
Q 2597 3491 2834 3397 
z
" id="DejaVuSans-73" transform="scale(0.015625)"/>
       <path d="M 1625 4666 
L 2156 4666 
L 531 -594 
L 0 -594 
L 1625 4666 
z
" id="DejaVuSans-2f" transform="scale(0.015625)"/>
       <path d="M 1259 4147 
L 1259 519 
L 2022 519 
Q 2988 519 3436 956 
Q 3884 1394 3884 2338 
Q 3884 3275 3436 3711 
Q 2988 4147 2022 4147 
L 1259 4147 
z
M 628 4666 
L 1925 4666 
Q 3281 4666 3915 4102 
Q 4550 3538 4550 2338 
Q 4550 1131 3912 565 
Q 3275 0 1925 0 
L 628 0 
L 628 4666 
z
" id="DejaVuSans-44" transform="scale(0.015625)"/>
       <path d="M 628 4666 
L 1259 4666 
L 1259 0 
L 628 0 
L 628 4666 
z
" id="DejaVuSans-49" transform="scale(0.015625)"/>
       <path d="M 628 4666 
L 1569 4666 
L 2759 1491 
L 3956 4666 
L 4897 4666 
L 4897 0 
L 4281 0 
L 4281 4097 
L 3078 897 
L 2444 897 
L 1241 4097 
L 1241 0 
L 628 0 
L 628 4666 
z
" id="DejaVuSans-4d" transform="scale(0.015625)"/>
      </defs>
      <use xlink:href="#DejaVuSans-6c"/>
      <use x="27.783203" xlink:href="#DejaVuSans-6f"/>
      <use x="88.964844" xlink:href="#DejaVuSans-67"/>
      <use x="152.441406" xlink:href="#DejaVuSans-31"/>
      <use x="216.064453" xlink:href="#DejaVuSans-30"/>
      <use x="279.6875" xlink:href="#DejaVuSans-20"/>
      <use x="311.474609" xlink:href="#DejaVuSans-6f"/>
      <use x="372.65625" xlink:href="#DejaVuSans-66"/>
      <use x="407.861328" xlink:href="#DejaVuSans-20"/>
      <use x="439.648438" xlink:href="#DejaVuSans-46"/>
      <use x="497.167969" xlink:href="#DejaVuSans-45"/>
      <use x="560.351562" xlink:href="#DejaVuSans-76"/>
      <use x="619.53125" xlink:href="#DejaVuSans-61"/>
      <use x="680.810547" xlink:href="#DejaVuSans-6c"/>
      <use x="708.59375" xlink:href="#DejaVuSans-73"/>
      <use x="760.693359" xlink:href="#DejaVuSans-20"/>
      <use x="792.480469" xlink:href="#DejaVuSans-2f"/>
      <use x="826.171875" xlink:href="#DejaVuSans-20"/>
      <use x="857.958984" xlink:href="#DejaVuSans-44"/>
      <use x="934.960938" xlink:href="#DejaVuSans-49"/>
      <use x="964.453125" xlink:href="#DejaVuSans-4d"/>
     </g>
    </g>
   </g>
   <g id="matplotlib.axis_2">
    <g id="ytick_1">
     <g id="line2d_101">
      <path clip-path="url(#pb6fc69d452)" d="M 62.208 293.76 
L 460.8 293.76 
" style="fill:none;stroke:#b0b0b0;stroke-linecap:square;stroke-width:0.8;"/>
     </g>
     <g id="line2d_102">
      <defs>
       <path d="M 0 0 
L -3.5 0 
" id="m38afda0daa" style="stroke:#000000;stroke-width:0.8;"/>
      </defs>
      <g>
       <use style="stroke:#000000;stroke-width:0.8;" x="62.208" xlink:href="#m38afda0daa" y="293.76"/>
      </g>
     </g>
     <g id="text_5">
      <!-- 0.0 -->
      <g transform="translate(29.763 299.83875)scale(0.16 -0.16)">
       <defs>
        <path d="M 684 794 
L 1344 794 
L 1344 0 
L 684 0 
L 684 794 
z
" id="DejaVuSans-2e" transform="scale(0.015625)"/>
       </defs>
       <use xlink:href="#DejaVuSans-30"/>
       <use x="63.623047" xlink:href="#DejaVuSans-2e"/>
       <use x="95.410156" xlink:href="#DejaVuSans-30"/>
      </g>
     </g>
    </g>
    <g id="ytick_2">
     <g id="line2d_103">
      <path clip-path="url(#pb6fc69d452)" d="M 62.208 236.274059 
L 460.8 236.274059 
" style="fill:none;stroke:#b0b0b0;stroke-linecap:square;stroke-width:0.8;"/>
     </g>
     <g id="line2d_104">
      <g>
       <use style="stroke:#000000;stroke-width:0.8;" x="62.208" xlink:href="#m38afda0daa" y="236.274059"/>
      </g>
     </g>
     <g id="text_6">
      <!-- 0.2 -->
      <g transform="translate(29.763 242.352809)scale(0.16 -0.16)">
       <use xlink:href="#DejaVuSans-30"/>
       <use x="63.623047" xlink:href="#DejaVuSans-2e"/>
       <use x="95.410156" xlink:href="#DejaVuSans-32"/>
      </g>
     </g>
    </g>
    <g id="ytick_3">
     <g id="line2d_105">
      <path clip-path="url(#pb6fc69d452)" d="M 62.208 178.788119 
L 460.8 178.788119 
" style="fill:none;stroke:#b0b0b0;stroke-linecap:square;stroke-width:0.8;"/>
     </g>
     <g id="line2d_106">
      <g>
       <use style="stroke:#000000;stroke-width:0.8;" x="62.208" xlink:href="#m38afda0daa" y="178.788119"/>
      </g>
     </g>
     <g id="text_7">
      <!-- 0.4 -->
      <g transform="translate(29.763 184.866869)scale(0.16 -0.16)">
       <use xlink:href="#DejaVuSans-30"/>
       <use x="63.623047" xlink:href="#DejaVuSans-2e"/>
       <use x="95.410156" xlink:href="#DejaVuSans-34"/>
      </g>
     </g>
    </g>
    <g id="ytick_4">
     <g id="line2d_107">
      <path clip-path="url(#pb6fc69d452)" d="M 62.208 121.302178 
L 460.8 121.302178 
" style="fill:none;stroke:#b0b0b0;stroke-linecap:square;stroke-width:0.8;"/>
     </g>
     <g id="line2d_108">
      <g>
       <use style="stroke:#000000;stroke-width:0.8;" x="62.208" xlink:href="#m38afda0daa" y="121.302178"/>
      </g>
     </g>
     <g id="text_8">
      <!-- 0.6 -->
      <g transform="translate(29.763 127.380928)scale(0.16 -0.16)">
       <defs>
        <path d="M 2113 2584 
Q 1688 2584 1439 2293 
Q 1191 2003 1191 1497 
Q 1191 994 1439 701 
Q 1688 409 2113 409 
Q 2538 409 2786 701 
Q 3034 994 3034 1497 
Q 3034 2003 2786 2293 
Q 2538 2584 2113 2584 
z
M 3366 4563 
L 3366 3988 
Q 3128 4100 2886 4159 
Q 2644 4219 2406 4219 
Q 1781 4219 1451 3797 
Q 1122 3375 1075 2522 
Q 1259 2794 1537 2939 
Q 1816 3084 2150 3084 
Q 2853 3084 3261 2657 
Q 3669 2231 3669 1497 
Q 3669 778 3244 343 
Q 2819 -91 2113 -91 
Q 1303 -91 875 529 
Q 447 1150 447 2328 
Q 447 3434 972 4092 
Q 1497 4750 2381 4750 
Q 2619 4750 2861 4703 
Q 3103 4656 3366 4563 
z
" id="DejaVuSans-36" transform="scale(0.015625)"/>
       </defs>
       <use xlink:href="#DejaVuSans-30"/>
       <use x="63.623047" xlink:href="#DejaVuSans-2e"/>
       <use x="95.410156" xlink:href="#DejaVuSans-36"/>
      </g>
     </g>
    </g>
    <g id="ytick_5">
     <g id="line2d_109">
      <path clip-path="url(#pb6fc69d452)" d="M 62.208 63.816238 
L 460.8 63.816238 
" style="fill:none;stroke:#b0b0b0;stroke-linecap:square;stroke-width:0.8;"/>
     </g>
     <g id="line2d_110">
      <g>
       <use style="stroke:#000000;stroke-width:0.8;" x="62.208" xlink:href="#m38afda0daa" y="63.816238"/>
      </g>
     </g>
     <g id="text_9">
      <!-- 0.8 -->
      <g transform="translate(29.763 69.894988)scale(0.16 -0.16)">
       <defs>
        <path d="M 2034 2216 
Q 1584 2216 1326 1975 
Q 1069 1734 1069 1313 
Q 1069 891 1326 650 
Q 1584 409 2034 409 
Q 2484 409 2743 651 
Q 3003 894 3003 1313 
Q 3003 1734 2745 1975 
Q 2488 2216 2034 2216 
z
M 1403 2484 
Q 997 2584 770 2862 
Q 544 3141 544 3541 
Q 544 4100 942 4425 
Q 1341 4750 2034 4750 
Q 2731 4750 3128 4425 
Q 3525 4100 3525 3541 
Q 3525 3141 3298 2862 
Q 3072 2584 2669 2484 
Q 3125 2378 3379 2068 
Q 3634 1759 3634 1313 
Q 3634 634 3220 271 
Q 2806 -91 2034 -91 
Q 1263 -91 848 271 
Q 434 634 434 1313 
Q 434 1759 690 2068 
Q 947 2378 1403 2484 
z
M 1172 3481 
Q 1172 3119 1398 2916 
Q 1625 2713 2034 2713 
Q 2441 2713 2670 2916 
Q 2900 3119 2900 3481 
Q 2900 3844 2670 4047 
Q 2441 4250 2034 4250 
Q 1625 4250 1398 4047 
Q 1172 3844 1172 3481 
z
" id="DejaVuSans-38" transform="scale(0.015625)"/>
       </defs>
       <use xlink:href="#DejaVuSans-30"/>
       <use x="63.623047" xlink:href="#DejaVuSans-2e"/>
       <use x="95.410156" xlink:href="#DejaVuSans-38"/>
      </g>
     </g>
    </g>
    <g id="ytick_6">
     <g id="line2d_111">
      <path clip-path="url(#pb6fc69d452)" d="M 62.208 6.330297 
L 460.8 6.330297 
" style="fill:none;stroke:#b0b0b0;stroke-linecap:square;stroke-width:0.8;"/>
     </g>
     <g id="line2d_112">
      <g>
       <use style="stroke:#000000;stroke-width:0.8;" x="62.208" xlink:href="#m38afda0daa" y="6.330297"/>
      </g>
     </g>
     <g id="text_10">
      <!-- 1.0 -->
      <g transform="translate(29.763 12.409047)scale(0.16 -0.16)">
       <use xlink:href="#DejaVuSans-31"/>
       <use x="63.623047" xlink:href="#DejaVuSans-2e"/>
       <use x="95.410156" xlink:href="#DejaVuSans-30"/>
      </g>
     </g>
    </g>
    <g id="text_11">
     <!-- proportion of trials -->
     <g transform="translate(21.603625 241.61425)rotate(-90)scale(0.2 -0.2)">
      <defs>
       <path d="M 1159 525 
L 1159 -1331 
L 581 -1331 
L 581 3500 
L 1159 3500 
L 1159 2969 
Q 1341 3281 1617 3432 
Q 1894 3584 2278 3584 
Q 2916 3584 3314 3078 
Q 3713 2572 3713 1747 
Q 3713 922 3314 415 
Q 2916 -91 2278 -91 
Q 1894 -91 1617 61 
Q 1341 213 1159 525 
z
M 3116 1747 
Q 3116 2381 2855 2742 
Q 2594 3103 2138 3103 
Q 1681 3103 1420 2742 
Q 1159 2381 1159 1747 
Q 1159 1113 1420 752 
Q 1681 391 2138 391 
Q 2594 391 2855 752 
Q 3116 1113 3116 1747 
z
" id="DejaVuSans-70" transform="scale(0.015625)"/>
       <path d="M 2631 2963 
Q 2534 3019 2420 3045 
Q 2306 3072 2169 3072 
Q 1681 3072 1420 2755 
Q 1159 2438 1159 1844 
L 1159 0 
L 581 0 
L 581 3500 
L 1159 3500 
L 1159 2956 
Q 1341 3275 1631 3429 
Q 1922 3584 2338 3584 
Q 2397 3584 2469 3576 
Q 2541 3569 2628 3553 
L 2631 2963 
z
" id="DejaVuSans-72" transform="scale(0.015625)"/>
       <path d="M 1172 4494 
L 1172 3500 
L 2356 3500 
L 2356 3053 
L 1172 3053 
L 1172 1153 
Q 1172 725 1289 603 
Q 1406 481 1766 481 
L 2356 481 
L 2356 0 
L 1766 0 
Q 1100 0 847 248 
Q 594 497 594 1153 
L 594 3053 
L 172 3053 
L 172 3500 
L 594 3500 
L 594 4494 
L 1172 4494 
z
" id="DejaVuSans-74" transform="scale(0.015625)"/>
       <path d="M 603 3500 
L 1178 3500 
L 1178 0 
L 603 0 
L 603 3500 
z
M 603 4863 
L 1178 4863 
L 1178 4134 
L 603 4134 
L 603 4863 
z
" id="DejaVuSans-69" transform="scale(0.015625)"/>
       <path d="M 3513 2113 
L 3513 0 
L 2938 0 
L 2938 2094 
Q 2938 2591 2744 2837 
Q 2550 3084 2163 3084 
Q 1697 3084 1428 2787 
Q 1159 2491 1159 1978 
L 1159 0 
L 581 0 
L 581 3500 
L 1159 3500 
L 1159 2956 
Q 1366 3272 1645 3428 
Q 1925 3584 2291 3584 
Q 2894 3584 3203 3211 
Q 3513 2838 3513 2113 
z
" id="DejaVuSans-6e" transform="scale(0.015625)"/>
      </defs>
      <use xlink:href="#DejaVuSans-70"/>
      <use x="63.476562" xlink:href="#DejaVuSans-72"/>
      <use x="102.339844" xlink:href="#DejaVuSans-6f"/>
      <use x="163.521484" xlink:href="#DejaVuSans-70"/>
      <use x="226.998047" xlink:href="#DejaVuSans-6f"/>
      <use x="288.179688" xlink:href="#DejaVuSans-72"/>
      <use x="329.292969" xlink:href="#DejaVuSans-74"/>
      <use x="368.501953" xlink:href="#DejaVuSans-69"/>
      <use x="396.285156" xlink:href="#DejaVuSans-6f"/>
      <use x="457.466797" xlink:href="#DejaVuSans-6e"/>
      <use x="520.845703" xlink:href="#DejaVuSans-20"/>
      <use x="552.632812" xlink:href="#DejaVuSans-6f"/>
      <use x="613.814453" xlink:href="#DejaVuSans-66"/>
      <use x="649.019531" xlink:href="#DejaVuSans-20"/>
      <use x="680.806641" xlink:href="#DejaVuSans-74"/>
      <use x="720.015625" xlink:href="#DejaVuSans-72"/>
      <use x="761.128906" xlink:href="#DejaVuSans-69"/>
      <use x="788.912109" xlink:href="#DejaVuSans-61"/>
      <use x="850.191406" xlink:href="#DejaVuSans-6c"/>
      <use x="877.974609" xlink:href="#DejaVuSans-73"/>
     </g>
    </g>
   </g>
   <g id="line2d_113">
    <path clip-path="url(#pb6fc69d452)" d="M 131.613062 293.76 
L 131.613062 289.927604 
L 136.629533 289.927604 
L 136.629533 286.095208 
L 137.298747 286.095208 
L 137.298747 282.262812 
L 137.957253 282.262812 
L 137.957253 278.430416 
L 141.100443 278.430416 
L 141.100443 274.59802 
L 148.80528 274.59802 
L 148.80528 270.765624 
L 156.141224 270.765624 
L 156.141224 266.933228 
L 167.132401 266.933228 
L 167.132401 263.100832 
L 171.113384 263.100832 
L 171.113384 255.43604 
L 177.58248 255.43604 
L 177.58248 251.603644 
L 179.292461 251.603644 
L 179.292461 247.771248 
L 182.512991 247.771248 
L 182.512991 243.938851 
L 183.60472 243.938851 
L 183.60472 240.106455 
L 186.112447 240.106455 
L 186.112447 232.441663 
L 187.311244 232.441663 
L 187.311244 228.609267 
L 187.507692 228.609267 
L 187.507692 224.776871 
L 190.163825 224.776871 
L 190.163825 220.944475 
L 190.347147 220.944475 
L 190.347147 217.112079 
L 193.344824 217.112079 
L 193.344824 209.447287 
L 198.00288 209.447287 
L 198.00288 205.614891 
L 198.455976 205.614891 
L 198.455976 201.782495 
L 202.186927 201.782495 
L 202.186927 197.950099 
L 204.194924 197.950099 
L 204.194924 194.117703 
L 205.227098 194.117703 
L 205.227098 190.285307 
L 205.984588 190.285307 
L 205.984588 186.452911 
L 206.851057 186.452911 
L 206.851057 182.620515 
L 207.095306 182.620515 
L 207.095306 178.788119 
L 209.918523 178.788119 
L 209.918523 174.955723 
L 210.258187 174.955723 
L 210.258187 171.123327 
L 210.818139 171.123327 
L 210.818139 167.290931 
L 211.589488 167.290931 
L 211.589488 163.458535 
L 214.129468 163.458535 
L 214.129468 159.626139 
L 216.907297 159.626139 
L 216.907297 155.793743 
L 218.042701 155.793743 
L 218.042701 151.961347 
L 219.86809 151.961347 
L 219.86809 148.12895 
L 220.751295 148.12895 
L 220.751295 144.296554 
L 223.210353 144.296554 
L 223.210353 140.464158 
L 223.619867 140.464158 
L 223.619867 136.631762 
L 225.452857 136.631762 
L 225.452857 132.799366 
L 229.105267 132.799366 
L 229.105267 128.96697 
L 229.389591 128.96697 
L 229.389591 125.134574 
L 231.055483 125.134574 
L 231.055483 121.302178 
L 235.378069 121.302178 
L 235.378069 117.469782 
L 238.217524 117.469782 
L 238.217524 113.637386 
L 238.953986 113.637386 
L 238.953986 109.80499 
L 245.673449 109.80499 
L 245.673449 105.972594 
L 274.768789 105.972594 
L 274.768789 102.140198 
L 280.181983 102.140198 
L 280.181983 98.307802 
L 289.100855 98.307802 
L 289.100855 94.475406 
L 308.096191 94.475406 
L 308.096191 90.64301 
L 320.388666 90.64301 
L 320.388666 86.810614 
L 321.347693 86.810614 
L 321.347693 82.978218 
L 341.325062 82.978218 
L 341.325062 79.145822 
L 361.423388 79.145822 
L 361.423388 75.313426 
L 369.660271 75.313426 
L 369.660271 71.48103 
L 374.444633 71.48103 
L 374.444633 67.648634 
L 376.345347 67.648634 
L 376.345347 63.816238 
L 379.344465 63.816238 
L 379.344465 59.983842 
L 392.180101 59.983842 
L 392.180101 56.151446 
L 395.56396 56.151446 
L 395.56396 52.31905 
L 403.103971 52.31905 
L 403.103971 48.486653 
L 406.932521 48.486653 
L 406.932521 44.654257 
L 414.012136 44.654257 
L 414.012136 40.821861 
L 431.062737 40.821861 
L 431.062737 36.989465 
L 431.062737 36.989465 
L 460.8 36.989465 
L 460.8 36.989465 
" style="fill:none;stroke:#000000;stroke-linecap:square;stroke-width:1.5;"/>
   </g>
   <g id="line2d_114">
    <defs>
     <path d="M 0 14.142136 
L 8.485281 0 
L 0 -14.142136 
L -8.485281 0 
z
" id="m7ca1ff95b2" style="stroke:#000000;stroke-linejoin:miter;stroke-width:1.5;"/>
    </defs>
    <g clip-path="url(#pb6fc69d452)">
     <use style="fill-opacity:0;stroke:#000000;stroke-linejoin:miter;stroke-width:1.5;" x="156.141224" xlink:href="#m7ca1ff95b2" y="270.765624"/>
     <use style="fill-opacity:0;stroke:#000000;stroke-linejoin:miter;stroke-width:1.5;" x="198.455976" xlink:href="#m7ca1ff95b2" y="205.614891"/>
     <use style="fill-opacity:0;stroke:#000000;stroke-linejoin:miter;stroke-width:1.5;" x="231.055483" xlink:href="#m7ca1ff95b2" y="125.134574"/>
     <use style="fill-opacity:0;stroke:#000000;stroke-linejoin:miter;stroke-width:1.5;" x="280.181983" xlink:href="#m7ca1ff95b2" y="102.140198"/>
     <use style="fill-opacity:0;stroke:#000000;stroke-linejoin:miter;stroke-width:1.5;" x="395.56396" xlink:href="#m7ca1ff95b2" y="56.151446"/>
     <use style="fill-opacity:0;stroke:#000000;stroke-linejoin:miter;stroke-width:1.5;" x="431.062737" xlink:href="#m7ca1ff95b2" y="36.989465"/>
    </g>
   </g>
   <g id="line2d_115">
    <path clip-path="url(#pb6fc69d452)" style="fill:none;stroke:#000000;stroke-linecap:square;stroke-width:1.5;"/>
    <g clip-path="url(#pb6fc69d452)">
     <use style="fill-opacity:0;stroke:#000000;stroke-linejoin:miter;stroke-width:1.5;" x="-1" xlink:href="#m7ca1ff95b2" y="581.189703"/>
     <use style="fill-opacity:0;stroke:#000000;stroke-linejoin:miter;stroke-width:1.5;" x="460.8" xlink:href="#m7ca1ff95b2" y="581.189703"/>
    </g>
   </g>
   <g id="line2d_116">
    <path clip-path="url(#pb6fc69d452)" d="M 130.05983 293.76 
L 130.05983 289.927604 
L 130.843773 289.927604 
L 130.843773 286.095208 
L 147.271346 286.095208 
L 147.271346 282.262812 
L 155.292622 282.262812 
L 155.292622 278.430416 
L 156.559053 278.430416 
L 156.559053 270.765624 
L 157.787675 270.765624 
L 157.787675 266.933228 
L 162.365253 266.933228 
L 162.365253 263.100832 
L 164.476268 263.100832 
L 164.476268 259.268436 
L 167.132401 259.268436 
L 167.132401 255.43604 
L 168.08586 255.43604 
L 168.08586 251.603644 
L 174.205032 251.603644 
L 174.205032 247.771248 
L 175.274074 247.771248 
L 175.274074 243.938851 
L 180.93422 243.938851 
L 180.93422 240.106455 
L 181.843777 240.106455 
L 181.843777 236.274059 
L 182.512991 236.274059 
L 182.512991 232.441663 
L 182.733666 232.441663 
L 182.733666 220.944475 
L 188.284239 220.944475 
L 188.284239 217.112079 
L 189.422259 217.112079 
L 189.422259 213.279683 
L 190.71136 213.279683 
L 190.71136 209.447287 
L 191.608035 209.447287 
L 191.608035 205.614891 
L 194.019524 205.614891 
L 194.019524 194.117703 
L 194.186485 194.117703 
L 194.186485 190.285307 
L 195.659413 190.285307 
L 195.659413 186.452911 
L 200.220065 186.452911 
L 200.220065 182.620515 
L 202.049512 182.620515 
L 202.049512 178.788119 
L 204.585029 178.788119 
L 204.585029 174.955723 
L 205.227098 174.955723 
L 205.227098 171.123327 
L 205.984588 171.123327 
L 205.984588 167.290931 
L 207.938938 167.290931 
L 207.938938 163.458535 
L 208.882379 163.458535 
L 208.882379 159.626139 
L 212.879069 159.626139 
L 212.879069 155.793743 
L 213.716875 155.793743 
L 213.716875 151.961347 
L 216.132577 151.961347 
L 216.132577 148.12895 
L 217.573417 148.12895 
L 217.573417 144.296554 
L 221.18589 144.296554 
L 221.18589 140.464158 
L 222.879783 140.464158 
L 222.879783 136.631762 
L 228.385742 136.631762 
L 228.385742 132.799366 
L 232.525488 132.799366 
L 232.525488 128.96697 
L 234.134598 128.96697 
L 234.134598 125.134574 
L 236.881369 125.134574 
L 236.881369 121.302178 
L 243.318244 121.302178 
L 243.368711 113.637386 
L 253.666896 113.637386 
L 253.666896 109.80499 
L 258.02272 109.80499 
L 258.02272 105.972594 
L 266.715946 105.972594 
L 266.715946 102.140198 
L 269.480974 102.140198 
L 269.480974 98.307802 
L 276.877452 98.307802 
L 276.877452 94.475406 
L 294.782791 94.475406 
L 294.782791 90.64301 
L 306.343252 90.64301 
L 306.343252 86.810614 
L 308.304945 86.810614 
L 308.304945 82.978218 
L 308.945435 82.978218 
L 308.945435 79.145822 
L 324.436647 79.145822 
L 324.436647 75.313426 
L 327.519269 75.313426 
L 327.519269 71.48103 
L 345.069888 71.48103 
L 345.069888 67.648634 
L 366.101836 67.648634 
L 366.101836 63.816238 
L 368.726004 63.816238 
L 368.726004 59.983842 
L 372.670366 59.983842 
L 372.670366 56.151446 
L 373.528663 56.151446 
L 373.528663 52.31905 
L 374.706786 52.31905 
L 374.706786 48.486653 
L 379.033854 48.486653 
L 379.033854 44.654257 
L 395.120536 44.654257 
L 395.120536 40.821861 
L 401.236584 40.821861 
L 401.236584 36.989465 
L 401.922071 36.989465 
L 401.922071 33.157069 
L 405.71665 33.157069 
L 405.71665 29.324673 
L 406.898384 29.324673 
L 406.898384 25.492277 
L 410.712662 25.492277 
L 410.712662 21.659881 
L 431.030555 21.659881 
L 431.030555 17.827485 
L 439.520166 17.827485 
L 439.520166 13.995089 
L 439.520166 13.995089 
L 460.8 13.995089 
L 460.8 13.995089 
" style="fill:none;stroke:#000000;stroke-linecap:square;stroke-width:1.5;"/>
   </g>
   <g id="line2d_117">
    <defs>
     <path d="M 0 7.5 
C 1.989023 7.5 3.896849 6.709753 5.303301 5.303301 
C 6.709753 3.896849 7.5 1.989023 7.5 0 
C 7.5 -1.989023 6.709753 -3.896849 5.303301 -5.303301 
C 3.896849 -6.709753 1.989023 -7.5 0 -7.5 
C -1.989023 -7.5 -3.896849 -6.709753 -5.303301 -5.303301 
C -6.709753 -3.896849 -7.5 -1.989023 -7.5 0 
C -7.5 1.989023 -6.709753 3.896849 -5.303301 5.303301 
C -3.896849 6.709753 -1.989023 7.5 0 7.5 
z
" id="mb1cb7d1744" style="stroke:#000000;stroke-width:1.5;"/>
    </defs>
    <g clip-path="url(#pb6fc69d452)">
     <use style="fill-opacity:0;stroke:#000000;stroke-width:1.5;" x="155.292622" xlink:href="#mb1cb7d1744" y="282.262812"/>
     <use style="fill-opacity:0;stroke:#000000;stroke-width:1.5;" x="202.049512" xlink:href="#mb1cb7d1744" y="182.620515"/>
     <use style="fill-opacity:0;stroke:#000000;stroke-width:1.5;" x="253.666896" xlink:href="#mb1cb7d1744" y="113.637386"/>
     <use style="fill-opacity:0;stroke:#000000;stroke-width:1.5;" x="327.519269" xlink:href="#mb1cb7d1744" y="75.313426"/>
     <use style="fill-opacity:0;stroke:#000000;stroke-width:1.5;" x="406.898384" xlink:href="#mb1cb7d1744" y="29.324673"/>
     <use style="fill-opacity:0;stroke:#000000;stroke-width:1.5;" x="439.520166" xlink:href="#mb1cb7d1744" y="13.995089"/>
    </g>
   </g>
   <g id="line2d_118">
    <path clip-path="url(#pb6fc69d452)" style="fill:none;stroke:#000000;stroke-linecap:square;stroke-width:1.5;"/>
   </g>
   <g id="line2d_119">
    <path clip-path="url(#pb6fc69d452)" d="M 228.890727 293.76 
L 228.890727 289.927604 
L 246.382641 289.927604 
L 246.382641 286.095208 
L 248.439715 286.095208 
L 248.439715 282.262812 
L 257.810212 282.262812 
L 257.810212 278.430416 
L 257.916603 278.430416 
L 257.916603 274.59802 
L 262.408342 274.59802 
L 262.408342 270.765624 
L 265.437894 270.765624 
L 265.437894 266.933228 
L 266.572696 266.933228 
L 266.572696 263.100832 
L 267.677045 263.100832 
L 267.677045 259.268436 
L 269.774088 259.268436 
L 269.774088 255.43604 
L 271.337154 255.43604 
L 271.337154 251.603644 
L 271.617386 251.603644 
L 271.617386 247.771248 
L 272.222258 247.771248 
L 272.222258 243.938851 
L 272.471688 243.938851 
L 272.471688 240.106455 
L 281.099539 240.106455 
L 281.099539 236.274059 
L 281.220349 236.274059 
L 281.220349 232.441663 
L 281.898318 232.441663 
L 281.898318 228.609267 
L 284.392208 228.609267 
L 284.392208 224.776871 
L 287.44085 224.776871 
L 287.44085 220.944475 
L 294.038596 220.944475 
L 294.038596 217.112079 
L 295.937766 217.112079 
L 295.937766 213.279683 
L 307.928422 213.279683 
L 307.928422 209.447287 
L 338.823591 209.447287 
L 338.823591 205.614891 
L 344.321659 205.614891 
L 344.321659 201.782495 
L 345.422066 201.782495 
L 345.422066 197.950099 
L 346.44851 197.950099 
L 346.44851 194.117703 
L 349.00872 194.117703 
L 349.00872 190.285307 
L 351.688323 190.285307 
L 351.688323 186.452911 
L 355.632981 186.452911 
L 355.632981 182.620515 
L 366.916829 182.620515 
L 366.916829 178.788119 
L 373.515855 178.788119 
L 373.515855 174.955723 
L 374.6279 174.955723 
L 374.6279 171.123327 
L 377.093852 171.123327 
L 377.093852 167.290931 
L 377.28715 167.290931 
L 377.28715 163.458535 
L 377.477605 163.458535 
L 377.477605 159.626139 
L 378.33151 159.626139 
L 378.33151 155.793743 
L 378.543663 155.793743 
L 378.543663 151.961347 
L 382.556646 151.961347 
L 382.556646 148.12895 
L 388.655767 148.12895 
L 388.655767 144.296554 
L 392.562207 144.296554 
L 392.562207 140.464158 
L 393.63273 140.464158 
L 393.63273 136.631762 
L 394.053522 136.631762 
L 394.053522 132.799366 
L 396.055778 132.799366 
L 396.055778 128.96697 
L 396.621018 128.96697 
L 396.621018 125.134574 
L 407.390619 125.134574 
L 407.390619 121.302178 
L 412.131908 121.302178 
L 412.131908 117.469782 
L 429.375886 117.469782 
L 429.375886 113.637386 
L 429.375886 113.637386 
L 429.375886 113.637386 
L 460.8 113.637386 
" style="fill:none;stroke:#00bfbf;stroke-linecap:square;stroke-width:1.5;"/>
   </g>
   <g id="line2d_120">
    <defs>
     <path d="M 0 14.142136 
L 8.485281 0 
L 0 -14.142136 
L -8.485281 0 
z
" id="me7b437c6f0" style="stroke:#00bfbf;stroke-linejoin:miter;stroke-width:1.5;"/>
    </defs>
    <g clip-path="url(#pb6fc69d452)">
     <use style="fill-opacity:0;stroke:#00bfbf;stroke-linejoin:miter;stroke-width:1.5;" x="281.898318" xlink:href="#me7b437c6f0" y="232.441663"/>
     <use style="fill-opacity:0;stroke:#00bfbf;stroke-linejoin:miter;stroke-width:1.5;" x="345.422066" xlink:href="#me7b437c6f0" y="201.782495"/>
     <use style="fill-opacity:0;stroke:#00bfbf;stroke-linejoin:miter;stroke-width:1.5;" x="382.556646" xlink:href="#me7b437c6f0" y="151.961347"/>
     <use style="fill-opacity:0;stroke:#00bfbf;stroke-linejoin:miter;stroke-width:1.5;" x="412.131908" xlink:href="#me7b437c6f0" y="121.302178"/>
     <use style="fill-opacity:0;stroke:#00bfbf;stroke-linejoin:miter;stroke-width:1.5;" x="429.375886" xlink:href="#me7b437c6f0" y="113.637386"/>
    </g>
   </g>
   <g id="line2d_121">
    <path clip-path="url(#pb6fc69d452)" style="fill:none;stroke:#00bfbf;stroke-linecap:square;stroke-width:1.5;"/>
    <g clip-path="url(#pb6fc69d452)">
     <use style="fill-opacity:0;stroke:#00bfbf;stroke-linejoin:miter;stroke-width:1.5;" x="-1" xlink:href="#me7b437c6f0" y="581.189703"/>
     <use style="fill-opacity:0;stroke:#00bfbf;stroke-linejoin:miter;stroke-width:1.5;" x="460.8" xlink:href="#me7b437c6f0" y="581.189703"/>
    </g>
   </g>
   <g id="line2d_122">
    <path clip-path="url(#pb6fc69d452)" d="M 206.109492 293.76 
L 206.109492 289.927604 
L 226.071752 289.927604 
L 226.071752 286.095208 
L 226.071752 286.095208 
L 226.071752 282.262812 
L 229.53102 282.262812 
L 229.53102 278.430416 
L 230.850897 278.430416 
L 230.850897 274.59802 
L 234.823151 274.59802 
L 234.823151 270.765624 
L 235.500375 270.765624 
L 235.500375 266.933228 
L 236.226672 266.933228 
L 236.226672 263.100832 
L 236.58507 263.100832 
L 236.58507 259.268436 
L 237.05813 259.268436 
L 237.05813 255.43604 
L 237.699835 255.43604 
L 237.699835 251.603644 
L 237.873123 251.603644 
L 237.873123 247.771248 
L 238.331688 247.771248 
L 238.331688 243.938851 
L 238.445535 243.938851 
L 238.445535 240.106455 
L 239.066127 240.106455 
L 239.066127 236.274059 
L 239.289497 236.274059 
L 239.289497 232.441663 
L 239.622295 232.441663 
L 239.622295 228.609267 
L 240.06188 228.609267 
L 240.06188 224.776871 
L 246.895057 224.776871 
L 246.895057 220.944475 
L 248.216164 220.944475 
L 248.216164 217.112079 
L 248.883209 217.112079 
L 248.883209 213.279683 
L 249.103176 213.279683 
L 249.103176 209.447287 
L 249.885464 209.447287 
L 249.885464 205.614891 
L 252.913904 205.614891 
L 252.913904 201.782495 
L 254.675476 201.782495 
L 254.675476 197.950099 
L 262.944684 197.950099 
L 262.944684 194.117703 
L 313.030753 194.117703 
L 313.030753 190.285307 
L 313.556448 190.285307 
L 313.556448 186.452911 
L 314.147842 186.452911 
L 314.147842 182.620515 
L 314.846477 182.620515 
L 314.846477 178.788119 
L 315.733849 178.788119 
L 315.733849 174.955723 
L 316.619508 174.955723 
L 316.619508 171.123327 
L 318.854536 171.123327 
L 318.854536 167.290931 
L 318.991279 167.290931 
L 318.991279 163.458535 
L 319.271388 163.458535 
L 319.271388 159.626139 
L 319.54168 159.626139 
L 319.54168 155.793743 
L 343.324613 155.793743 
L 343.324613 151.961347 
L 346.944147 151.961347 
L 346.944147 148.12895 
L 347.224133 148.12895 
L 347.224133 144.296554 
L 348.278136 144.296554 
L 348.278136 140.464158 
L 348.376562 140.464158 
L 348.376562 136.631762 
L 350.488168 136.631762 
L 350.488168 132.799366 
L 372.670366 132.799366 
L 372.670366 128.96697 
L 376.349333 128.96697 
L 376.349333 125.134574 
L 396.621018 125.134574 
L 396.621018 121.302178 
L 398.299666 121.302178 
L 398.299666 117.469782 
L 400.570475 117.469782 
L 400.570475 113.637386 
L 401.236584 113.637386 
L 401.236584 109.80499 
L 411.537876 109.80499 
L 411.537876 105.972594 
L 423.412601 105.972594 
L 423.412601 102.140198 
L 423.412601 102.140198 
L 423.412601 102.140198 
L 460.8 102.140198 
" style="fill:none;stroke:#00bfbf;stroke-linecap:square;stroke-width:1.5;"/>
   </g>
   <g id="line2d_123">
    <defs>
     <path d="M 0 7.5 
C 1.989023 7.5 3.896849 6.709753 5.303301 5.303301 
C 6.709753 3.896849 7.5 1.989023 7.5 0 
C 7.5 -1.989023 6.709753 -3.896849 5.303301 -5.303301 
C 3.896849 -6.709753 1.989023 -7.5 0 -7.5 
C -1.989023 -7.5 -3.896849 -6.709753 -5.303301 -5.303301 
C -6.709753 -3.896849 -7.5 -1.989023 -7.5 0 
C -7.5 1.989023 -6.709753 3.896849 -5.303301 5.303301 
C -3.896849 6.709753 -1.989023 7.5 0 7.5 
z
" id="m3335a1911d" style="stroke:#00bfbf;stroke-width:1.5;"/>
    </defs>
    <g clip-path="url(#pb6fc69d452)">
     <use style="fill-opacity:0;stroke:#00bfbf;stroke-width:1.5;" x="254.675476" xlink:href="#m3335a1911d" y="201.782495"/>
     <use style="fill-opacity:0;stroke:#00bfbf;stroke-width:1.5;" x="314.846477" xlink:href="#m3335a1911d" y="182.620515"/>
     <use style="fill-opacity:0;stroke:#00bfbf;stroke-width:1.5;" x="372.670366" xlink:href="#m3335a1911d" y="132.799366"/>
     <use style="fill-opacity:0;stroke:#00bfbf;stroke-width:1.5;" x="423.412601" xlink:href="#m3335a1911d" y="105.972594"/>
     <use style="fill-opacity:0;stroke:#00bfbf;stroke-width:1.5;" x="423.412601" xlink:href="#m3335a1911d" y="102.140198"/>
    </g>
   </g>
   <g id="line2d_124">
    <path clip-path="url(#pb6fc69d452)" style="fill:none;stroke:#00bfbf;stroke-linecap:square;stroke-width:1.5;"/>
   </g>
   <g id="line2d_125">
    <path clip-path="url(#pb6fc69d452)" d="M 299.88972 293.76 
L 299.88972 289.927604 
L 308.708995 289.927604 
L 308.708995 286.095208 
L 312.338099 286.095208 
L 312.338099 282.262812 
L 316.933062 282.262812 
L 316.933062 278.430416 
L 317.051083 278.430416 
L 317.051083 274.59802 
L 317.669351 274.59802 
L 317.669351 270.765624 
L 318.465965 270.765624 
L 318.465965 266.933228 
L 318.999309 266.933228 
L 318.999309 263.100832 
L 319.119566 263.100832 
L 319.119566 259.268436 
L 320.006544 259.268436 
L 320.006544 255.43604 
L 321.867658 255.43604 
L 321.867658 251.603644 
L 323.554907 251.603644 
L 323.554907 247.771248 
L 325.272326 247.771248 
L 325.272326 243.938851 
L 325.519757 243.938851 
L 325.519757 240.106455 
L 325.98988 240.106455 
L 325.98988 236.274059 
L 328.031736 236.274059 
L 328.031736 232.441663 
L 330.313878 232.441663 
L 330.313878 228.609267 
L 332.290497 228.609267 
L 332.290497 224.776871 
L 333.176096 224.776871 
L 333.176096 220.944475 
L 334.037469 220.944475 
L 334.037469 217.112079 
L 334.749973 217.112079 
L 334.749973 213.279683 
L 347.474101 213.279683 
L 347.474101 209.447287 
L 351.356816 209.447287 
L 351.356816 205.614891 
L 352.482465 205.614891 
L 352.482465 201.782495 
L 355.484363 201.782495 
L 355.484363 197.950099 
L 355.619792 197.950099 
L 355.619792 194.117703 
L 357.09674 194.117703 
L 357.09674 190.285307 
L 364.133187 190.285307 
L 364.133187 186.452911 
L 371.793787 186.452911 
L 371.793787 182.620515 
L 378.626711 182.620515 
L 378.626711 178.788119 
L 378.816712 178.788119 
L 378.816712 174.955723 
L 379.483202 174.955723 
L 379.483202 171.123327 
L 380.459519 171.123327 
L 380.459519 167.290931 
L 381.60308 167.290931 
L 381.60308 163.458535 
L 383.629115 163.458535 
L 383.629115 159.626139 
L 384.610809 159.626139 
L 384.610809 155.793743 
L 384.721526 155.793743 
L 384.721526 151.961347 
L 391.795783 151.961347 
L 391.795783 148.12895 
L 393.938005 148.12895 
L 393.938005 144.296554 
L 395.699921 144.296554 
L 395.699921 140.464158 
L 395.972979 140.464158 
L 395.972979 136.631762 
L 396.285999 136.631762 
L 396.285999 132.799366 
L 400.886767 132.799366 
L 400.886767 128.96697 
L 410.557594 128.96697 
L 410.557594 125.134574 
L 413.35166 125.134574 
L 413.35166 121.302178 
L 414.611087 121.302178 
L 414.611087 117.469782 
L 430.521817 117.469782 
L 430.521817 113.637386 
L 430.521817 113.637386 
L 430.521817 113.637386 
L 460.8 113.637386 
" style="fill:none;stroke:#bf00bf;stroke-linecap:square;stroke-width:1.5;"/>
   </g>
   <g id="line2d_126">
    <defs>
     <path d="M 0 14.142136 
L 8.485281 0 
L 0 -14.142136 
L -8.485281 0 
z
" id="mc30b5bf997" style="stroke:#bf00bf;stroke-linejoin:miter;stroke-width:1.5;"/>
    </defs>
    <g clip-path="url(#pb6fc69d452)">
     <use style="fill-opacity:0;stroke:#bf00bf;stroke-linejoin:miter;stroke-width:1.5;" x="328.031736" xlink:href="#mc30b5bf997" y="236.274059"/>
     <use style="fill-opacity:0;stroke:#bf00bf;stroke-linejoin:miter;stroke-width:1.5;" x="364.133187" xlink:href="#mc30b5bf997" y="190.285307"/>
     <use style="fill-opacity:0;stroke:#bf00bf;stroke-linejoin:miter;stroke-width:1.5;" x="400.886767" xlink:href="#mc30b5bf997" y="132.799366"/>
     <use style="fill-opacity:0;stroke:#bf00bf;stroke-linejoin:miter;stroke-width:1.5;" x="430.521817" xlink:href="#mc30b5bf997" y="113.637386"/>
    </g>
   </g>
   <g id="line2d_127">
    <path clip-path="url(#pb6fc69d452)" style="fill:none;stroke:#bf00bf;stroke-linecap:square;stroke-width:1.5;"/>
    <g clip-path="url(#pb6fc69d452)">
     <use style="fill-opacity:0;stroke:#bf00bf;stroke-linejoin:miter;stroke-width:1.5;" x="-1" xlink:href="#mc30b5bf997" y="581.189703"/>
     <use style="fill-opacity:0;stroke:#bf00bf;stroke-linejoin:miter;stroke-width:1.5;" x="460.8" xlink:href="#mc30b5bf997" y="581.189703"/>
    </g>
   </g>
   <g id="line2d_128">
    <path clip-path="url(#pb6fc69d452)" d="M 261.379394 293.76 
L 261.379394 289.927604 
L 267.114415 289.927604 
L 267.114415 286.095208 
L 272.197232 286.095208 
L 272.197232 282.262812 
L 272.595838 282.262812 
L 272.595838 278.430416 
L 273.039704 278.430416 
L 273.039704 274.59802 
L 273.865275 274.59802 
L 273.865275 270.765624 
L 274.580217 270.765624 
L 274.580217 266.933228 
L 274.674611 266.933228 
L 274.674611 263.100832 
L 275.213215 263.100832 
L 275.213215 259.268436 
L 276.110692 259.268436 
L 276.110692 255.43604 
L 277.366086 255.43604 
L 277.366086 251.603644 
L 277.520351 251.603644 
L 277.520351 247.771248 
L 278.92586 247.771248 
L 278.92586 243.938851 
L 280.714619 243.938851 
L 280.714619 240.106455 
L 281.480893 240.106455 
L 281.480893 236.274059 
L 281.719939 236.274059 
L 281.719939 232.441663 
L 282.291968 232.441663 
L 282.291968 228.609267 
L 282.584754 228.609267 
L 282.584754 224.776871 
L 283.125776 224.776871 
L 283.125776 220.944475 
L 283.980647 220.944475 
L 283.980647 217.112079 
L 284.762816 217.112079 
L 284.762816 213.279683 
L 285.76511 213.279683 
L 285.76511 209.447287 
L 287.302336 209.447287 
L 287.302336 205.614891 
L 288.211419 205.614891 
L 288.211419 201.782495 
L 288.951167 201.782495 
L 288.951167 197.950099 
L 289.743284 197.950099 
L 289.743284 194.117703 
L 319.007337 194.117703 
L 319.007337 190.285307 
L 319.723523 190.285307 
L 319.723523 186.452911 
L 321.043229 186.452911 
L 321.043229 182.620515 
L 322.188402 182.620515 
L 322.188402 178.788119 
L 324.394415 178.788119 
L 324.394415 174.955723 
L 326.293614 174.955723 
L 326.293614 171.123327 
L 326.568411 171.123327 
L 326.568411 167.290931 
L 329.668453 167.290931 
L 329.668453 163.458535 
L 330.338266 163.458535 
L 330.338266 159.626139 
L 331.687364 159.626139 
L 331.687364 155.793743 
L 347.256473 155.793743 
L 347.256473 151.961347 
L 350.499373 151.961347 
L 350.499373 148.12895 
L 350.681965 148.12895 
L 350.681965 144.296554 
L 351.557496 144.296554 
L 351.557496 140.464158 
L 353.345301 140.464158 
L 353.345301 136.631762 
L 353.352271 136.631762 
L 353.352271 132.799366 
L 374.683966 132.799366 
L 374.683966 128.96697 
L 379.218271 128.96697 
L 379.218271 125.134574 
L 397.570767 125.134574 
L 397.570767 121.302178 
L 400.977787 121.302178 
L 400.977787 117.469782 
L 404.561272 117.469782 
L 404.561272 113.637386 
L 405.604225 113.637386 
L 405.604225 109.80499 
L 412.114362 109.80499 
L 412.114362 105.972594 
L 424.430657 105.972594 
L 424.430657 102.140198 
L 424.430657 102.140198 
L 424.430657 102.140198 
L 460.8 102.140198 
" style="fill:none;stroke:#bf00bf;stroke-linecap:square;stroke-width:1.5;"/>
   </g>
   <g id="line2d_129">
    <defs>
     <path d="M 0 7.5 
C 1.989023 7.5 3.896849 6.709753 5.303301 5.303301 
C 6.709753 3.896849 7.5 1.989023 7.5 0 
C 7.5 -1.989023 6.709753 -3.896849 5.303301 -5.303301 
C 3.896849 -6.709753 1.989023 -7.5 0 -7.5 
C -1.989023 -7.5 -3.896849 -6.709753 -5.303301 -5.303301 
C -6.709753 -3.896849 -7.5 -1.989023 -7.5 0 
C -7.5 1.989023 -6.709753 3.896849 -5.303301 5.303301 
C -3.896849 6.709753 -1.989023 7.5 0 7.5 
z
" id="m5bbe887f81" style="stroke:#bf00bf;stroke-width:1.5;"/>
    </defs>
    <g clip-path="url(#pb6fc69d452)">
     <use style="fill-opacity:0;stroke:#bf00bf;stroke-width:1.5;" x="277.366086" xlink:href="#m5bbe887f81" y="255.43604"/>
     <use style="fill-opacity:0;stroke:#bf00bf;stroke-width:1.5;" x="347.256473" xlink:href="#m5bbe887f81" y="155.793743"/>
     <use style="fill-opacity:0;stroke:#bf00bf;stroke-width:1.5;" x="379.218271" xlink:href="#m5bbe887f81" y="128.96697"/>
     <use style="fill-opacity:0;stroke:#bf00bf;stroke-width:1.5;" x="424.430657" xlink:href="#m5bbe887f81" y="102.140198"/>
    </g>
   </g>
   <g id="line2d_130">
    <path clip-path="url(#pb6fc69d452)" style="fill:none;stroke:#bf00bf;stroke-linecap:square;stroke-width:1.5;"/>
   </g>
   <g id="line2d_131">
    <path clip-path="url(#pb6fc69d452)" d="M 323.962571 293.76 
L 323.962571 289.927604 
L 352.450422 289.927604 
L 352.450422 286.095208 
L 358.822589 286.095208 
L 358.822589 282.262812 
L 360.563865 282.262812 
L 360.563865 278.430416 
L 365.343349 278.430416 
L 365.343349 274.59802 
L 374.233282 274.59802 
L 374.233282 270.765624 
L 381.066381 270.765624 
L 381.066381 266.933228 
L 382.597757 266.933228 
L 382.597757 263.100832 
L 382.94895 263.100832 
L 382.94895 259.268436 
L 387.953786 259.268436 
L 387.953786 255.43604 
L 393.912001 255.43604 
L 393.912001 251.603644 
L 396.720751 251.603644 
L 396.720751 247.771248 
L 398.688293 247.771248 
L 398.688293 243.938851 
L 398.928472 243.938851 
L 398.928472 240.106455 
L 399.162677 240.106455 
L 399.162677 236.274059 
L 414.853409 236.274059 
L 414.853409 232.441663 
L 415.319127 232.441663 
L 415.319127 228.609267 
L 415.97945 228.609267 
L 415.97945 224.776871 
L 416.239582 224.776871 
L 416.239582 220.944475 
L 429.643681 220.944475 
L 429.643681 217.112079 
L 431.752513 217.112079 
L 431.752513 213.279683 
L 431.752513 213.279683 
L 431.752513 213.279683 
L 460.8 213.279683 
" style="fill:none;stroke:#ff0000;stroke-linecap:square;stroke-width:3;"/>
   </g>
   <g id="line2d_132">
    <defs>
     <path d="M 0 14.142136 
L 8.485281 0 
L 0 -14.142136 
L -8.485281 0 
z
" id="m8caf445e01" style="stroke:#ff0000;stroke-linejoin:miter;stroke-width:3;"/>
    </defs>
    <g clip-path="url(#pb6fc69d452)">
     <use style="fill-opacity:0;stroke:#ff0000;stroke-linejoin:miter;stroke-width:3;" x="382.597757" xlink:href="#m8caf445e01" y="266.933228"/>
     <use style="fill-opacity:0;stroke:#ff0000;stroke-linejoin:miter;stroke-width:3;" x="399.162677" xlink:href="#m8caf445e01" y="240.106455"/>
     <use style="fill-opacity:0;stroke:#ff0000;stroke-linejoin:miter;stroke-width:3;" x="431.752513" xlink:href="#m8caf445e01" y="217.112079"/>
     <use style="fill-opacity:0;stroke:#ff0000;stroke-linejoin:miter;stroke-width:3;" x="431.752513" xlink:href="#m8caf445e01" y="213.279683"/>
    </g>
   </g>
   <g id="line2d_133">
    <path clip-path="url(#pb6fc69d452)" style="fill:none;stroke:#ff0000;stroke-linecap:square;stroke-width:3;"/>
    <g clip-path="url(#pb6fc69d452)">
     <use style="fill-opacity:0;stroke:#ff0000;stroke-linejoin:miter;stroke-width:3;" x="-1" xlink:href="#m8caf445e01" y="581.189703"/>
     <use style="fill-opacity:0;stroke:#ff0000;stroke-linejoin:miter;stroke-width:3;" x="460.8" xlink:href="#m8caf445e01" y="581.189703"/>
    </g>
   </g>
   <g id="line2d_134">
    <path clip-path="url(#pb6fc69d452)" d="M 283.526927 293.76 
L 283.526927 289.927604 
L 288.616566 289.927604 
L 288.616566 286.095208 
L 299.233068 286.095208 
L 299.233068 282.262812 
L 300.245829 282.262812 
L 300.245829 278.430416 
L 300.49832 278.430416 
L 300.49832 274.59802 
L 301.370033 274.59802 
L 301.370033 270.765624 
L 301.884334 270.765624 
L 301.884334 266.933228 
L 302.727473 266.933228 
L 302.727473 263.100832 
L 303.130847 263.100832 
L 303.130847 259.268436 
L 303.635401 259.268436 
L 303.635401 255.43604 
L 304.168394 255.43604 
L 304.168394 251.603644 
L 304.386545 251.603644 
L 304.386545 247.771248 
L 304.557956 247.771248 
L 304.557956 243.938851 
L 304.649084 243.938851 
L 304.649084 240.106455 
L 305.449126 240.106455 
L 305.449126 236.274059 
L 305.815748 236.274059 
L 305.815748 232.441663 
L 306.452303 232.441663 
L 306.452303 228.609267 
L 306.73449 228.609267 
L 306.73449 224.776871 
L 306.756117 224.776871 
L 306.756117 220.944475 
L 307.046972 220.944475 
L 307.046972 217.112079 
L 307.229054 217.112079 
L 307.229054 213.279683 
L 308.481557 213.279683 
L 308.481557 209.447287 
L 309.088692 209.447287 
L 309.088692 205.614891 
L 309.231453 205.614891 
L 309.231453 201.782495 
L 310.464865 201.782495 
L 310.464865 197.950099 
L 310.504362 197.950099 
L 310.504362 194.117703 
L 327.322977 194.117703 
L 327.322977 190.285307 
L 327.375413 190.285307 
L 327.375413 186.452911 
L 327.551893 186.452911 
L 327.551893 182.620515 
L 328.993855 182.620515 
L 328.993855 178.788119 
L 338.744158 178.788119 
L 338.744158 174.955723 
L 339.648501 174.955723 
L 339.648501 171.123327 
L 340.509603 171.123327 
L 340.509603 167.290931 
L 340.633194 167.290931 
L 340.633194 163.458535 
L 340.675889 163.458535 
L 340.675889 159.626139 
L 341.020567 159.626139 
L 341.020567 155.793743 
L 352.157319 155.793743 
L 352.157319 151.961347 
L 354.625143 151.961347 
L 354.625143 148.12895 
L 355.108781 148.12895 
L 355.108781 144.296554 
L 356.098468 144.296554 
L 356.098468 140.464158 
L 356.449008 140.464158 
L 356.449008 136.631762 
L 358.685072 136.631762 
L 358.685072 132.799366 
L 377.380544 132.799366 
L 377.380544 128.96697 
L 382.587483 128.96697 
L 382.587483 125.134574 
L 399.940615 125.134574 
L 399.940615 121.302178 
L 403.129969 121.302178 
L 403.129969 117.469782 
L 406.446255 117.469782 
L 406.446255 113.637386 
L 408.459275 113.637386 
L 408.459275 109.80499 
L 413.804116 109.80499 
L 413.804116 105.972594 
L 425.717023 105.972594 
L 425.717023 102.140198 
L 425.717023 102.140198 
L 425.717023 102.140198 
L 460.8 102.140198 
" style="fill:none;stroke:#ff0000;stroke-linecap:square;stroke-width:3;"/>
   </g>
   <g id="line2d_135">
    <defs>
     <path d="M 0 7.5 
C 1.989023 7.5 3.896849 6.709753 5.303301 5.303301 
C 6.709753 3.896849 7.5 1.989023 7.5 0 
C 7.5 -1.989023 6.709753 -3.896849 5.303301 -5.303301 
C 3.896849 -6.709753 1.989023 -7.5 0 -7.5 
C -1.989023 -7.5 -3.896849 -6.709753 -5.303301 -5.303301 
C -6.709753 -3.896849 -7.5 -1.989023 -7.5 0 
C -7.5 1.989023 -6.709753 3.896849 -5.303301 5.303301 
C -3.896849 6.709753 -1.989023 7.5 0 7.5 
z
" id="m18a6dbb5eb" style="stroke:#ff0000;stroke-width:3;"/>
    </defs>
    <g clip-path="url(#pb6fc69d452)">
     <use style="fill-opacity:0;stroke:#ff0000;stroke-width:3;" x="327.322977" xlink:href="#m18a6dbb5eb" y="194.117703"/>
     <use style="fill-opacity:0;stroke:#ff0000;stroke-width:3;" x="358.685072" xlink:href="#m18a6dbb5eb" y="136.631762"/>
     <use style="fill-opacity:0;stroke:#ff0000;stroke-width:3;" x="425.717023" xlink:href="#m18a6dbb5eb" y="105.972594"/>
     <use style="fill-opacity:0;stroke:#ff0000;stroke-width:3;" x="425.717023" xlink:href="#m18a6dbb5eb" y="102.140198"/>
    </g>
   </g>
   <g id="line2d_136">
    <path clip-path="url(#pb6fc69d452)" style="fill:none;stroke:#ff0000;stroke-linecap:square;stroke-width:3;"/>
   </g>
   <g id="line2d_137">
    <path clip-path="url(#pb6fc69d452)" d="M 441.663202 293.76 
L 441.663202 3.456 
" style="fill:none;stroke:#000000;stroke-linecap:square;stroke-width:1.5;"/>
    <defs>
     <path d="M -10 0 
L 10 0 
M 0 10 
L 0 -10 
" id="mf1ce44c12a" style="stroke:#000000;stroke-width:3;"/>
    </defs>
    <g clip-path="url(#pb6fc69d452)">
     <use style="stroke:#000000;stroke-width:3;" x="441.663202" xlink:href="#mf1ce44c12a" y="293.76"/>
     <use style="stroke:#000000;stroke-width:3;" x="441.663202" xlink:href="#mf1ce44c12a" y="3.456"/>
    </g>
   </g>
   <g id="line2d_138">
    <path clip-path="url(#pb6fc69d452)" d="M 441.541963 293.76 
L 441.541963 3.456 
" style="fill:none;stroke:#000000;stroke-linecap:square;stroke-width:1.5;"/>
    <defs>
     <path d="M 0 7.5 
C 1.989023 7.5 3.896849 6.709753 5.303301 5.303301 
C 6.709753 3.896849 7.5 1.989023 7.5 0 
C 7.5 -1.989023 6.709753 -3.896849 5.303301 -5.303301 
C 3.896849 -6.709753 1.989023 -7.5 0 -7.5 
C -1.989023 -7.5 -3.896849 -6.709753 -5.303301 -5.303301 
C -6.709753 -3.896849 -7.5 -1.989023 -7.5 0 
C -7.5 1.989023 -6.709753 3.896849 -5.303301 5.303301 
C -3.896849 6.709753 -1.989023 7.5 0 7.5 
z
" id="m20a4595156" style="stroke:#000000;stroke-width:3;"/>
    </defs>
    <g clip-path="url(#pb6fc69d452)">
     <use style="fill-opacity:0;stroke:#000000;stroke-width:3;" x="441.541963" xlink:href="#m20a4595156" y="293.76"/>
     <use style="fill-opacity:0;stroke:#000000;stroke-width:3;" x="441.541963" xlink:href="#m20a4595156" y="3.456"/>
    </g>
   </g>
   <g id="patch_3">
    <path d="M 62.208 293.76 
L 62.208 3.456 
" style="fill:none;stroke:#000000;stroke-linecap:square;stroke-linejoin:miter;stroke-width:0.8;"/>
   </g>
   <g id="patch_4">
    <path d="M 460.8 293.76 
L 460.8 3.456 
" style="fill:none;stroke:#000000;stroke-linecap:square;stroke-linejoin:miter;stroke-width:0.8;"/>
   </g>
   <g id="patch_5">
    <path d="M 62.208 293.76 
L 460.8 293.76 
" style="fill:none;stroke:#000000;stroke-linecap:square;stroke-linejoin:miter;stroke-width:0.8;"/>
   </g>
   <g id="patch_6">
    <path d="M 62.208 3.456 
L 460.8 3.456 
" style="fill:none;stroke:#000000;stroke-linecap:square;stroke-linejoin:miter;stroke-width:0.8;"/>
   </g>
   <g id="text_12">
    <!-- f15-f19 -->
    <g transform="translate(225.405563 24.458955)scale(0.2 -0.2)">
     <defs>
      <path d="M 691 4666 
L 3169 4666 
L 3169 4134 
L 1269 4134 
L 1269 2991 
Q 1406 3038 1543 3061 
Q 1681 3084 1819 3084 
Q 2600 3084 3056 2656 
Q 3513 2228 3513 1497 
Q 3513 744 3044 326 
Q 2575 -91 1722 -91 
Q 1428 -91 1123 -41 
Q 819 9 494 109 
L 494 744 
Q 775 591 1075 516 
Q 1375 441 1709 441 
Q 2250 441 2565 725 
Q 2881 1009 2881 1497 
Q 2881 1984 2565 2268 
Q 2250 2553 1709 2553 
Q 1456 2553 1204 2497 
Q 953 2441 691 2322 
L 691 4666 
z
" id="DejaVuSans-35" transform="scale(0.015625)"/>
      <path d="M 313 2009 
L 1997 2009 
L 1997 1497 
L 313 1497 
L 313 2009 
z
" id="DejaVuSans-2d" transform="scale(0.015625)"/>
      <path d="M 703 97 
L 703 672 
Q 941 559 1184 500 
Q 1428 441 1663 441 
Q 2288 441 2617 861 
Q 2947 1281 2994 2138 
Q 2813 1869 2534 1725 
Q 2256 1581 1919 1581 
Q 1219 1581 811 2004 
Q 403 2428 403 3163 
Q 403 3881 828 4315 
Q 1253 4750 1959 4750 
Q 2769 4750 3195 4129 
Q 3622 3509 3622 2328 
Q 3622 1225 3098 567 
Q 2575 -91 1691 -91 
Q 1453 -91 1209 -44 
Q 966 3 703 97 
z
M 1959 2075 
Q 2384 2075 2632 2365 
Q 2881 2656 2881 3163 
Q 2881 3666 2632 3958 
Q 2384 4250 1959 4250 
Q 1534 4250 1286 3958 
Q 1038 3666 1038 3163 
Q 1038 2656 1286 2365 
Q 1534 2075 1959 2075 
z
" id="DejaVuSans-39" transform="scale(0.015625)"/>
     </defs>
     <use xlink:href="#DejaVuSans-66"/>
     <use x="35.205078" xlink:href="#DejaVuSans-31"/>
     <use x="98.828125" xlink:href="#DejaVuSans-35"/>
     <use x="162.451172" xlink:href="#DejaVuSans-2d"/>
     <use x="198.535156" xlink:href="#DejaVuSans-66"/>
     <use x="233.740234" xlink:href="#DejaVuSans-31"/>
     <use x="297.363281" xlink:href="#DejaVuSans-39"/>
    </g>
   </g>
   <g id="text_13">
    <!-- absolute targets -->
    <g transform="translate(62.208 609.932673)scale(0.14 -0.14)">
     <defs>
      <path d="M 3116 1747 
Q 3116 2381 2855 2742 
Q 2594 3103 2138 3103 
Q 1681 3103 1420 2742 
Q 1159 2381 1159 1747 
Q 1159 1113 1420 752 
Q 1681 391 2138 391 
Q 2594 391 2855 752 
Q 3116 1113 3116 1747 
z
M 1159 2969 
Q 1341 3281 1617 3432 
Q 1894 3584 2278 3584 
Q 2916 3584 3314 3078 
Q 3713 2572 3713 1747 
Q 3713 922 3314 415 
Q 2916 -91 2278 -91 
Q 1894 -91 1617 61 
Q 1341 213 1159 525 
L 1159 0 
L 581 0 
L 581 4863 
L 1159 4863 
L 1159 2969 
z
" id="DejaVuSans-62" transform="scale(0.015625)"/>
      <path d="M 544 1381 
L 544 3500 
L 1119 3500 
L 1119 1403 
Q 1119 906 1312 657 
Q 1506 409 1894 409 
Q 2359 409 2629 706 
Q 2900 1003 2900 1516 
L 2900 3500 
L 3475 3500 
L 3475 0 
L 2900 0 
L 2900 538 
Q 2691 219 2414 64 
Q 2138 -91 1772 -91 
Q 1169 -91 856 284 
Q 544 659 544 1381 
z
M 1991 3584 
L 1991 3584 
z
" id="DejaVuSans-75" transform="scale(0.015625)"/>
      <path d="M 3597 1894 
L 3597 1613 
L 953 1613 
Q 991 1019 1311 708 
Q 1631 397 2203 397 
Q 2534 397 2845 478 
Q 3156 559 3463 722 
L 3463 178 
Q 3153 47 2828 -22 
Q 2503 -91 2169 -91 
Q 1331 -91 842 396 
Q 353 884 353 1716 
Q 353 2575 817 3079 
Q 1281 3584 2069 3584 
Q 2775 3584 3186 3129 
Q 3597 2675 3597 1894 
z
M 3022 2063 
Q 3016 2534 2758 2815 
Q 2500 3097 2075 3097 
Q 1594 3097 1305 2825 
Q 1016 2553 972 2059 
L 3022 2063 
z
" id="DejaVuSans-65" transform="scale(0.015625)"/>
     </defs>
     <use xlink:href="#DejaVuSans-61"/>
     <use x="61.279297" xlink:href="#DejaVuSans-62"/>
     <use x="124.755859" xlink:href="#DejaVuSans-73"/>
     <use x="176.855469" xlink:href="#DejaVuSans-6f"/>
     <use x="238.037109" xlink:href="#DejaVuSans-6c"/>
     <use x="265.820312" xlink:href="#DejaVuSans-75"/>
     <use x="329.199219" xlink:href="#DejaVuSans-74"/>
     <use x="368.408203" xlink:href="#DejaVuSans-65"/>
     <use x="429.931641" xlink:href="#DejaVuSans-20"/>
     <use x="461.71875" xlink:href="#DejaVuSans-74"/>
     <use x="500.927734" xlink:href="#DejaVuSans-61"/>
     <use x="562.207031" xlink:href="#DejaVuSans-72"/>
     <use x="601.570312" xlink:href="#DejaVuSans-67"/>
     <use x="665.046875" xlink:href="#DejaVuSans-65"/>
     <use x="726.570312" xlink:href="#DejaVuSans-74"/>
     <use x="765.779297" xlink:href="#DejaVuSans-73"/>
    </g>
   </g>
   <g id="text_14">
    <!-- v2.6.3 -->
    <g style="fill:#808080;" transform="translate(245.82275 288.777272)scale(0.1 -0.1)">
     <defs>
      <path d="M 2597 2516 
Q 3050 2419 3304 2112 
Q 3559 1806 3559 1356 
Q 3559 666 3084 287 
Q 2609 -91 1734 -91 
Q 1441 -91 1130 -33 
Q 819 25 488 141 
L 488 750 
Q 750 597 1062 519 
Q 1375 441 1716 441 
Q 2309 441 2620 675 
Q 2931 909 2931 1356 
Q 2931 1769 2642 2001 
Q 2353 2234 1838 2234 
L 1294 2234 
L 1294 2753 
L 1863 2753 
Q 2328 2753 2575 2939 
Q 2822 3125 2822 3475 
Q 2822 3834 2567 4026 
Q 2313 4219 1838 4219 
Q 1578 4219 1281 4162 
Q 984 4106 628 3988 
L 628 4550 
Q 988 4650 1302 4700 
Q 1616 4750 1894 4750 
Q 2613 4750 3031 4423 
Q 3450 4097 3450 3541 
Q 3450 3153 3228 2886 
Q 3006 2619 2597 2516 
z
" id="DejaVuSans-33" transform="scale(0.015625)"/>
     </defs>
     <use xlink:href="#DejaVuSans-76"/>
     <use x="59.179688" xlink:href="#DejaVuSans-32"/>
     <use x="122.802734" xlink:href="#DejaVuSans-2e"/>
     <use x="154.589844" xlink:href="#DejaVuSans-36"/>
     <use x="218.212891" xlink:href="#DejaVuSans-2e"/>
     <use x="250" xlink:href="#DejaVuSans-33"/>
    </g>
   </g>
   <g id="legend_1">
    <g id="patch_7">
     <path d="M 76.208 136.881 
L 160.148625 136.881 
Q 164.148625 136.881 164.148625 132.881 
L 164.148625 17.456 
Q 164.148625 13.456 160.148625 13.456 
L 76.208 13.456 
Q 72.208 13.456 72.208 17.456 
L 72.208 132.881 
Q 72.208 136.881 76.208 136.881 
z
" style="fill:#ffffff;opacity:0.2;stroke:#cccccc;stroke-linejoin:miter;"/>
    </g>
    <g id="line2d_139">
     <path d="M 80.208 29.652875 
L 120.208 29.652875 
" style="fill:none;stroke:#000000;stroke-linecap:square;stroke-width:1.5;"/>
    </g>
    <g id="line2d_140"/>
    <g id="text_15">
     <!-- 1 -->
     <g transform="translate(136.208 36.652875)scale(0.2 -0.2)">
      <use xlink:href="#DejaVuSans-31"/>
     </g>
    </g>
    <g id="line2d_141">
     <path d="M 80.208 59.009125 
L 120.208 59.009125 
" style="fill:none;stroke:#00bfbf;stroke-linecap:square;stroke-width:1.5;"/>
    </g>
    <g id="line2d_142"/>
    <g id="text_16">
     <!-- -1 -->
     <g transform="translate(136.208 66.009125)scale(0.2 -0.2)">
      <use xlink:href="#DejaVuSans-2d"/>
      <use x="36.083984" xlink:href="#DejaVuSans-31"/>
     </g>
    </g>
    <g id="line2d_143">
     <path d="M 80.208 88.365375 
L 120.208 88.365375 
" style="fill:none;stroke:#bf00bf;stroke-linecap:square;stroke-width:1.5;"/>
    </g>
    <g id="line2d_144"/>
    <g id="text_17">
     <!-- -4 -->
     <g transform="translate(136.208 95.365375)scale(0.2 -0.2)">
      <use xlink:href="#DejaVuSans-2d"/>
      <use x="36.083984" xlink:href="#DejaVuSans-34"/>
     </g>
    </g>
    <g id="line2d_145">
     <path d="M 80.208 117.721625 
L 120.208 117.721625 
" style="fill:none;stroke:#ff0000;stroke-linecap:square;stroke-width:3;"/>
    </g>
    <g id="line2d_146"/>
    <g id="text_18">
     <!-- -8 -->
     <g transform="translate(136.208 124.721625)scale(0.2 -0.2)">
      <use xlink:href="#DejaVuSans-2d"/>
      <use x="36.083984" xlink:href="#DejaVuSans-38"/>
     </g>
    </g>
   </g>
  </g>
 </g>
 <defs>
  <clipPath id="pb6fc69d452">
   <rect height="290.304" width="398.592" x="62.208" y="3.456"/>
  </clipPath>
 </defs>
</svg>
