<?xml version="1.0" encoding="utf-8" standalone="no"?>
<!DOCTYPE svg PUBLIC "-//W3C//DTD SVG 1.1//EN"
  "http://www.w3.org/Graphics/SVG/1.1/DTD/svg11.dtd">
<svg height="345.6pt" version="1.1" viewBox="0 0 460.8 345.6" width="460.8pt" xmlns="http://www.w3.org/2000/svg" xmlns:xlink="http://www.w3.org/1999/xlink">
 <metadata>
  <rdf:RDF xmlns:cc="http://creativecommons.org/ns#" xmlns:dc="http://purl.org/dc/elements/1.1/" xmlns:rdf="http://www.w3.org/1999/02/22-rdf-syntax-ns#">
   <cc:Work>
    <dc:type rdf:resource="http://purl.org/dc/dcmitype/StillImage"/>
    <dc:date>2023-04-17T18:02:36.697692</dc:date>
    <dc:format>image/svg+xml</dc:format>
    <dc:creator>
     <cc:Agent>
      <dc:title>Matplotlib v3.4.1, https://matplotlib.org/</dc:title>
     </cc:Agent>
    </dc:creator>
   </cc:Work>
  </rdf:RDF>
 </metadata>
 <defs>
  <style type="text/css">*{stroke-linecap:butt;stroke-linejoin:round;}</style>
 </defs>
 <g id="figure_1">
  <g id="patch_1">
   <path d="M 0 345.6 
L 460.8 345.6 
L 460.8 0 
L 0 0 
z
" style="fill:#ffffff;"/>
  </g>
  <g id="axes_1">
   <g id="patch_2">
    <path d="M 62.208 293.76 
L 460.8 293.76 
L 460.8 3.456 
L 62.208 3.456 
z
" style="fill:#ffffff;"/>
   </g>
   <g id="line2d_1">
    <path clip-path="url(#p89cbfa8d01)" d="M 272.990621 293.76 
L 272.990621 289.927604 
L 276.360328 289.927604 
L 276.360328 286.095208 
L 284.466597 286.095208 
L 284.466597 282.262812 
L 296.634866 282.262812 
L 296.634866 278.430416 
L 318.482229 278.430416 
L 318.482229 274.59802 
L 328.070398 274.59802 
L 328.070398 270.765624 
L 328.070398 270.765624 
L 328.070398 270.765624 
L 460.8 270.765624 
" style="fill:none;stroke:#f5deb3;stroke-linecap:square;stroke-width:1.5;"/>
   </g>
   <g id="line2d_2">
    <path clip-path="url(#p89cbfa8d01)" d="M 408.376993 293.76 
L 408.376993 282.262812 
L 408.376993 282.262812 
L 408.376993 282.262812 
L 460.8 282.262812 
" style="fill:none;stroke:#f5deb3;stroke-linecap:square;stroke-width:1.5;"/>
   </g>
   <g id="line2d_3">
    <path clip-path="url(#p89cbfa8d01)" d="M 218.598869 293.76 
L 218.598869 289.927604 
L 225.296668 289.927604 
L 225.296668 286.095208 
L 284.836539 286.095208 
L 284.836539 282.262812 
L 288.160494 282.262812 
L 288.160494 278.430416 
L 298.433647 278.430416 
L 298.433647 274.59802 
L 301.246627 274.59802 
L 301.246627 270.765624 
L 304.455195 270.765624 
L 304.455195 266.933228 
L 315.959218 266.933228 
L 315.959218 263.100832 
L 317.227483 263.100832 
L 317.227483 259.268436 
L 317.644465 259.268436 
L 317.644465 255.43604 
L 318.270296 255.43604 
L 318.270296 251.603644 
L 321.95742 251.603644 
L 321.95742 247.771248 
L 328.848751 247.771248 
L 328.848751 243.938851 
L 333.970558 243.938851 
L 333.970558 240.106455 
L 334.524853 240.106455 
L 334.524853 236.274059 
L 343.306825 236.274059 
L 343.306825 232.441663 
L 344.551012 232.441663 
L 344.551012 228.609267 
L 348.135988 228.609267 
L 348.135988 224.776871 
L 372.535035 224.776871 
L 372.535035 220.944475 
L 373.951191 220.944475 
L 373.951191 217.112079 
L 376.674865 217.112079 
L 376.674865 213.279683 
L 379.437008 213.279683 
L 379.437008 209.447287 
L 380.506381 209.447287 
L 380.506381 205.614891 
L 386.870897 205.614891 
L 386.870897 201.782495 
L 387.366377 201.782495 
L 387.366377 197.950099 
L 403.818629 197.950099 
L 403.818629 194.117703 
L 405.614992 194.117703 
L 405.614992 190.285307 
L 407.76851 190.285307 
L 407.76851 186.452911 
L 414.708501 186.452911 
L 414.708501 182.620515 
L 426.772866 182.620515 
L 426.772866 178.788119 
L 426.772866 178.788119 
L 426.772866 178.788119 
L 460.8 178.788119 
" style="fill:none;stroke:#f5deb3;stroke-linecap:square;stroke-width:1.5;"/>
   </g>
   <g id="line2d_4">
    <path clip-path="url(#p89cbfa8d01)" d="M 233.176701 293.76 
L 233.176701 289.927604 
L 237.292637 289.927604 
L 237.292637 286.095208 
L 265.614529 286.095208 
L 265.614529 282.262812 
L 286.84892 282.262812 
L 286.84892 278.430416 
L 288.599764 278.430416 
L 288.599764 274.59802 
L 297.496727 274.59802 
L 297.496727 270.765624 
L 302.34418 270.765624 
L 302.34418 266.933228 
L 320.194149 266.933228 
L 320.194149 263.100832 
L 320.798026 263.100832 
L 320.798026 259.268436 
L 337.508308 259.268436 
L 337.508308 255.43604 
L 339.001754 255.43604 
L 339.001754 251.603644 
L 344.299956 251.603644 
L 344.299956 247.771248 
L 350.312216 247.771248 
L 350.312216 243.938851 
L 350.904449 243.938851 
L 350.904449 240.106455 
L 357.261846 240.106455 
L 357.261846 236.274059 
L 364.652787 236.274059 
L 364.652787 232.441663 
L 380.822207 232.441663 
L 380.822207 228.609267 
L 382.136334 228.609267 
L 382.136334 224.776871 
L 382.937065 224.776871 
L 382.937065 220.944475 
L 383.609073 220.944475 
L 383.609073 217.112079 
L 386.830753 217.112079 
L 386.830753 213.279683 
L 390.232965 213.279683 
L 390.232965 209.447287 
L 397.43847 209.447287 
L 397.43847 205.614891 
L 400.184784 205.614891 
L 400.184784 201.782495 
L 400.221619 201.782495 
L 400.221619 197.950099 
L 408.719664 197.950099 
L 408.719664 194.117703 
L 416.565641 194.117703 
L 416.565641 190.285307 
L 424.387264 190.285307 
L 424.387264 186.452911 
L 430.328468 186.452911 
L 430.328468 182.620515 
L 431.485088 182.620515 
L 431.485088 178.788119 
L 431.485088 178.788119 
L 431.485088 178.788119 
L 460.8 178.788119 
" style="fill:none;stroke:#f5deb3;stroke-linecap:square;stroke-width:1.5;"/>
   </g>
   <g id="line2d_5"/>
   <g id="line2d_6"/>
   <g id="line2d_7">
    <path clip-path="url(#p89cbfa8d01)" d="M 264.33157 293.76 
L 264.33157 289.927604 
L 372.993788 289.927604 
L 372.993788 286.095208 
L 376.191598 286.095208 
L 376.191598 282.262812 
L 378.658753 282.262812 
L 378.658753 278.430416 
L 401.570498 278.430416 
L 401.570498 274.59802 
L 405.201877 274.59802 
L 405.201877 270.765624 
L 406.794852 270.765624 
L 406.794852 266.933228 
L 411.967851 266.933228 
L 411.967851 263.100832 
L 436.172738 263.100832 
L 436.172738 259.268436 
L 445.102402 259.268436 
L 445.102402 255.43604 
L 446.241295 255.43604 
L 446.241295 251.603644 
L 451.997366 251.603644 
L 451.997366 247.771248 
L 452.059787 247.771248 
L 452.059787 243.938851 
L 461.8 243.938851 
" style="fill:none;stroke:#f5deb3;stroke-linecap:square;stroke-width:1.5;"/>
   </g>
   <g id="line2d_8">
    <path clip-path="url(#p89cbfa8d01)" d="M 406.653859 293.76 
L 406.653859 289.927604 
L 410.973827 289.927604 
L 410.973827 286.095208 
L 441.103017 286.095208 
L 441.103017 282.262812 
L 442.510008 282.262812 
L 442.510008 278.430416 
L 461.8 278.430416 
" style="fill:none;stroke:#f5deb3;stroke-linecap:square;stroke-width:1.5;"/>
   </g>
   <g id="line2d_9">
    <path clip-path="url(#p89cbfa8d01)" d="M 253.509512 293.76 
L 253.509512 289.927604 
L 258.058032 289.927604 
L 258.058032 286.095208 
L 359.66509 286.095208 
L 359.66509 282.262812 
L 370.017429 282.262812 
L 370.017429 278.430416 
L 381.379718 278.430416 
L 381.379718 274.59802 
L 383.185925 274.59802 
L 383.185925 270.765624 
L 383.75582 270.765624 
L 383.75582 266.933228 
L 397.206221 266.933228 
L 397.206221 263.100832 
L 397.927394 263.100832 
L 397.927394 259.268436 
L 397.994581 259.268436 
L 397.994581 255.43604 
L 398.790078 255.43604 
L 398.790078 251.603644 
L 402.522539 251.603644 
L 402.522539 247.771248 
L 412.486243 247.771248 
L 412.486243 243.938851 
L 417.356051 243.938851 
L 417.356051 240.106455 
L 427.142282 240.106455 
L 427.142282 236.274059 
L 437.627901 236.274059 
L 437.627901 232.441663 
L 440.981357 232.441663 
L 440.981357 228.609267 
L 443.462439 228.609267 
L 443.462439 224.776871 
L 443.769143 224.776871 
L 443.769143 220.944475 
L 453.982586 220.944475 
L 453.982586 217.112079 
L 455.926618 217.112079 
L 455.926618 213.279683 
L 456.013282 213.279683 
L 456.013282 209.447287 
L 459.458226 209.447287 
L 459.458226 205.614891 
L 461.8 205.614891 
" style="fill:none;stroke:#f5deb3;stroke-linecap:square;stroke-width:1.5;"/>
   </g>
   <g id="line2d_10">
    <path clip-path="url(#p89cbfa8d01)" d="M 432.770275 293.76 
L 432.770275 289.927604 
L 441.621197 289.927604 
L 441.621197 286.095208 
L 461.8 286.095208 
" style="fill:none;stroke:#f5deb3;stroke-linecap:square;stroke-width:1.5;"/>
   </g>
   <g id="line2d_11">
    <path clip-path="url(#p89cbfa8d01)" d="M 234.5116 293.76 
L 234.5116 289.927604 
L 235.622318 289.927604 
L 235.622318 286.095208 
L 279.954545 286.095208 
L 279.954545 282.262812 
L 336.930746 282.262812 
L 336.930746 278.430416 
L 365.144983 278.430416 
L 365.144983 274.59802 
L 378.4093 274.59802 
L 378.4093 270.765624 
L 379.29626 270.765624 
L 379.29626 266.933228 
L 381.891477 266.933228 
L 381.891477 263.100832 
L 382.488036 263.100832 
L 382.488036 259.268436 
L 390.201664 259.268436 
L 390.201664 255.43604 
L 395.768356 255.43604 
L 395.768356 251.603644 
L 402.019377 251.603644 
L 402.019377 247.771248 
L 415.38093 247.771248 
L 415.38093 243.938851 
L 416.210844 243.938851 
L 416.210844 240.106455 
L 417.63324 240.106455 
L 417.63324 236.274059 
L 424.13031 236.274059 
L 424.13031 232.441663 
L 426.574559 232.441663 
L 426.574559 228.609267 
L 440.167309 228.609267 
L 440.167309 224.776871 
L 440.236152 224.776871 
L 440.236152 220.944475 
L 440.836885 220.944475 
L 440.836885 217.112079 
L 444.345618 217.112079 
L 444.345618 213.279683 
L 449.442833 213.279683 
L 449.442833 209.447287 
L 455.915375 209.447287 
L 455.915375 205.614891 
L 456.376663 205.614891 
L 456.376663 201.782495 
L 460.560937 201.782495 
L 460.560937 197.950099 
L 461.8 197.950099 
" style="fill:none;stroke:#f5deb3;stroke-linecap:square;stroke-width:1.5;"/>
   </g>
   <g id="line2d_12">
    <path clip-path="url(#p89cbfa8d01)" d="M 294.361273 293.76 
L 294.361273 289.927604 
L 323.439746 289.927604 
L 323.439746 286.095208 
L 335.03917 286.095208 
L 335.03917 282.262812 
L 367.956171 282.262812 
L 367.956171 278.430416 
L 381.525832 278.430416 
L 381.525832 274.59802 
L 382.744736 274.59802 
L 382.744736 270.765624 
L 385.921731 270.765624 
L 385.921731 266.933228 
L 388.725163 266.933228 
L 388.725163 263.100832 
L 390.519252 263.100832 
L 390.519252 259.268436 
L 392.238388 259.268436 
L 392.238388 255.43604 
L 397.43847 255.43604 
L 397.43847 251.603644 
L 406.087907 251.603644 
L 406.087907 247.771248 
L 410.865425 247.771248 
L 410.865425 243.938851 
L 410.865425 243.938851 
L 410.865425 243.938851 
L 460.8 243.938851 
" style="fill:none;stroke:#f5deb3;stroke-linecap:square;stroke-width:1.5;"/>
   </g>
   <g id="line2d_13">
    <path clip-path="url(#p89cbfa8d01)" d="M 332.993638 293.76 
L 332.993638 289.927604 
L 354.432122 289.927604 
L 354.432122 286.095208 
L 358.359315 286.095208 
L 358.359315 282.262812 
L 358.359315 282.262812 
L 358.359315 282.262812 
L 460.8 282.262812 
" style="fill:none;stroke:#f5deb3;stroke-linecap:square;stroke-width:1.5;"/>
   </g>
   <g id="line2d_14">
    <path clip-path="url(#p89cbfa8d01)" d="M 266.658706 293.76 
L 266.658706 289.927604 
L 269.185756 289.927604 
L 269.185756 286.095208 
L 326.887811 286.095208 
L 326.887811 282.262812 
L 341.27369 282.262812 
L 341.27369 278.430416 
L 346.370138 278.430416 
L 346.370138 274.59802 
L 365.932776 274.59802 
L 365.932776 270.765624 
L 371.244752 270.765624 
L 371.244752 266.933228 
L 372.88554 266.933228 
L 372.88554 263.100832 
L 374.163991 263.100832 
L 374.163991 259.268436 
L 377.144705 259.268436 
L 377.144705 255.43604 
L 378.812958 255.43604 
L 378.812958 251.603644 
L 380.117254 251.603644 
L 380.117254 247.771248 
L 396.649016 247.771248 
L 396.649016 243.938851 
L 397.494539 243.938851 
L 397.494539 240.106455 
L 399.24045 240.106455 
L 399.24045 236.274059 
L 399.368228 236.274059 
L 399.368228 232.441663 
L 399.732265 232.441663 
L 399.732265 228.609267 
L 406.371375 228.609267 
L 406.371375 224.776871 
L 406.68057 224.776871 
L 406.68057 220.944475 
L 411.470869 220.944475 
L 411.470869 217.112079 
L 413.271296 217.112079 
L 413.271296 213.279683 
L 418.481708 213.279683 
L 418.481708 209.447287 
L 422.087004 209.447287 
L 422.087004 205.614891 
L 427.537148 205.614891 
L 427.537148 201.782495 
L 440.319622 201.782495 
L 440.319622 197.950099 
L 440.319622 197.950099 
L 440.319622 197.950099 
L 460.8 197.950099 
" style="fill:none;stroke:#f5deb3;stroke-linecap:square;stroke-width:1.5;"/>
   </g>
   <g id="line2d_15">
    <path clip-path="url(#p89cbfa8d01)" style="fill:none;stroke:#f5deb3;stroke-linecap:square;stroke-width:1.5;"/>
   </g>
   <g id="line2d_16">
    <path clip-path="url(#p89cbfa8d01)" d="M 385.707975 293.76 
L 385.707975 289.927604 
L 419.553687 289.927604 
L 419.553687 286.095208 
L 455.536244 286.095208 
L 455.536244 282.262812 
L 461.8 282.262812 
" style="fill:none;stroke:#f5deb3;stroke-linecap:square;stroke-width:1.5;"/>
   </g>
   <g id="line2d_17">
    <path clip-path="url(#p89cbfa8d01)" d="M 379.562534 293.76 
L 379.562534 289.927604 
L 387.476016 289.927604 
L 387.476016 286.095208 
L 395.344729 286.095208 
L 395.344729 282.262812 
L 400.954776 282.262812 
L 400.954776 278.430416 
L 400.954776 278.430416 
L 400.954776 278.430416 
L 460.8 278.430416 
" style="fill:none;stroke:#f5deb3;stroke-linecap:square;stroke-width:1.5;"/>
   </g>
   <g id="line2d_18">
    <path clip-path="url(#p89cbfa8d01)" d="M 224.665916 293.76 
L 224.665916 289.927604 
L 229.812428 289.927604 
L 229.812428 286.095208 
L 229.812428 286.095208 
L 229.812428 282.262812 
L 232.721936 282.262812 
L 232.721936 278.430416 
L 282.89478 278.430416 
L 282.89478 274.59802 
L 292.416779 274.59802 
L 292.416779 270.765624 
L 294.258877 270.765624 
L 294.258877 266.933228 
L 295.712177 266.933228 
L 295.712177 263.100832 
L 300.9987 263.100832 
L 300.9987 259.268436 
L 307.474125 259.268436 
L 307.474125 255.43604 
L 309.42441 255.43604 
L 309.42441 251.603644 
L 313.197489 251.603644 
L 313.197489 247.771248 
L 315.646839 247.771248 
L 315.646839 243.938851 
L 326.421187 243.938851 
L 326.421187 240.106455 
L 333.819609 240.106455 
L 333.819609 236.274059 
L 342.616095 236.274059 
L 342.616095 232.441663 
L 343.346836 232.441663 
L 343.346836 228.609267 
L 344.813412 228.609267 
L 344.813412 224.776871 
L 348.977729 224.776871 
L 348.977729 220.944475 
L 365.587382 220.944475 
L 365.587382 217.112079 
L 374.748245 217.112079 
L 374.748245 213.279683 
L 378.045652 213.279683 
L 378.045652 209.447287 
L 384.092356 209.447287 
L 384.092356 205.614891 
L 399.550082 205.614891 
L 399.550082 201.782495 
L 405.552308 201.782495 
L 405.552308 197.950099 
L 407.100894 197.950099 
L 407.100894 194.117703 
L 410.181803 194.117703 
L 410.181803 190.285307 
L 410.181803 190.285307 
L 410.181803 190.285307 
L 460.8 190.285307 
" style="fill:none;stroke:#f5deb3;stroke-linecap:square;stroke-width:1.5;"/>
   </g>
   <g id="line2d_19">
    <path clip-path="url(#p89cbfa8d01)" d="M 392.900829 293.76 
L 392.900829 290.338218 
L 394.184222 290.338218 
L 394.184222 286.916436 
L 396.95454 286.916436 
L 396.95454 283.494653 
L 403.713192 283.494653 
L 403.713192 280.072871 
L 405.616949 280.072871 
L 405.616949 276.651089 
L 406.500888 276.651089 
L 406.500888 273.229307 
L 408.600599 273.229307 
L 408.600599 269.807525 
L 408.60697 269.807525 
L 408.60697 266.385743 
L 411.674099 266.385743 
L 411.674099 262.96396 
L 415.308302 262.96396 
L 415.308302 259.542178 
L 426.263444 259.542178 
L 426.263444 256.120396 
L 432.574522 256.120396 
L 432.574522 252.698614 
L 436.568146 252.698614 
L 436.568146 249.276832 
L 436.729296 249.276832 
L 436.729296 245.85505 
L 454.3427 245.85505 
L 454.3427 242.433267 
L 461.8 242.433267 
" style="fill:none;stroke:#f5deb3;stroke-linecap:square;stroke-width:1.5;"/>
   </g>
   <g id="line2d_20">
    <path clip-path="url(#p89cbfa8d01)" d="M 246.895057 293.76 
L 246.895057 289.927604 
L 292.523856 289.927604 
L 292.523856 286.095208 
L 294.855032 286.095208 
L 294.855032 282.262812 
L 307.314461 282.262812 
L 307.314461 278.430416 
L 310.445102 278.430416 
L 310.445102 274.59802 
L 315.881345 274.59802 
L 315.881345 270.765624 
L 323.504564 270.765624 
L 323.504564 266.933228 
L 323.969687 266.933228 
L 323.969687 263.100832 
L 333.527325 263.100832 
L 333.527325 259.268436 
L 333.572427 259.268436 
L 333.572427 255.43604 
L 348.282078 255.43604 
L 348.282078 251.603644 
L 353.012876 251.603644 
L 353.012876 247.771248 
L 353.188171 247.771248 
L 353.188171 243.938851 
L 355.441328 243.938851 
L 355.441328 240.106455 
L 358.721788 240.106455 
L 358.721788 236.274059 
L 362.419369 236.274059 
L 362.419369 232.441663 
L 368.005015 232.441663 
L 368.005015 228.609267 
L 370.371514 228.609267 
L 370.371514 224.776871 
L 372.203566 224.776871 
L 372.203566 220.944475 
L 375.560637 220.944475 
L 375.560637 217.112079 
L 382.809513 217.112079 
L 382.809513 213.279683 
L 383.747496 213.279683 
L 383.747496 209.447287 
L 384.802746 209.447287 
L 384.802746 205.614891 
L 385.601475 205.614891 
L 385.601475 201.782495 
L 393.720369 201.782495 
L 393.720369 197.950099 
L 394.00943 197.950099 
L 394.00943 194.117703 
L 402.279157 194.117703 
L 402.279157 190.285307 
L 424.344446 190.285307 
L 424.344446 186.452911 
L 432.227903 186.452911 
L 432.227903 182.620515 
L 432.227903 182.620515 
L 432.227903 182.620515 
L 460.8 182.620515 
" style="fill:none;stroke:#f5deb3;stroke-linecap:square;stroke-width:1.5;"/>
   </g>
   <g id="line2d_21"/>
   <g id="line2d_22">
    <path clip-path="url(#p89cbfa8d01)" d="M 246.147599 293.76 
L 246.147599 289.927604 
L 262.344781 289.927604 
L 262.344781 286.095208 
L 265.496856 286.095208 
L 265.496856 282.262812 
L 267.677045 282.262812 
L 267.677045 278.430416 
L 272.546223 278.430416 
L 272.546223 274.59802 
L 312.695242 274.59802 
L 312.695242 270.765624 
L 325.196425 270.765624 
L 325.196425 266.933228 
L 334.766397 266.933228 
L 334.766397 263.100832 
L 355.692279 263.100832 
L 355.692279 259.268436 
L 365.914805 259.268436 
L 365.914805 255.43604 
L 366.501225 255.43604 
L 366.501225 251.603644 
L 367.848511 251.603644 
L 367.848511 247.771248 
L 379.626994 247.771248 
L 379.626994 243.938851 
L 382.862283 243.938851 
L 382.862283 240.106455 
L 390.493822 240.106455 
L 390.493822 236.274059 
L 408.01206 236.274059 
L 408.01206 232.441663 
L 410.5411 232.441663 
L 410.5411 228.609267 
L 424.085349 228.609267 
L 424.085349 224.776871 
L 426.463842 224.776871 
L 426.463842 220.944475 
L 427.732025 220.944475 
L 427.732025 217.112079 
L 435.844451 217.112079 
L 435.844451 213.279683 
L 438.915445 213.279683 
L 438.915445 209.447287 
L 441.553408 209.447287 
L 441.553408 205.614891 
L 445.301012 205.614891 
L 445.301012 201.782495 
L 456.382649 201.782495 
L 456.382649 197.950099 
L 459.393102 197.950099 
L 459.393102 194.117703 
L 461.8 194.117703 
" style="fill:none;stroke:#f5deb3;stroke-linecap:square;stroke-width:1.5;"/>
   </g>
   <g id="line2d_23">
    <path clip-path="url(#p89cbfa8d01)" d="M 337.039658 293.76 
L 337.039658 289.927604 
L 340.380864 289.927604 
L 340.380864 286.095208 
L 342.325594 286.095208 
L 342.325594 282.262812 
L 346.62533 282.262812 
L 346.62533 278.430416 
L 347.033625 278.430416 
L 347.033625 274.59802 
L 350.297207 274.59802 
L 350.297207 270.765624 
L 461.8 270.765624 
" style="fill:none;stroke:#f5deb3;stroke-linecap:square;stroke-width:1.5;"/>
   </g>
   <g id="line2d_24">
    <path clip-path="url(#p89cbfa8d01)" d="M 310.858138 293.76 
L 310.858138 289.927604 
L 315.13852 289.927604 
L 315.13852 286.095208 
L 317.785282 286.095208 
L 317.785282 282.262812 
L 322.953977 282.262812 
L 322.953977 278.430416 
L 384.031221 278.430416 
L 384.031221 274.59802 
L 389.149325 274.59802 
L 389.149325 270.765624 
L 389.629818 270.765624 
L 389.629818 266.933228 
L 390.452818 266.933228 
L 390.452818 263.100832 
L 398.90083 263.100832 
L 398.90083 259.268436 
L 404.205301 259.268436 
L 404.205301 255.43604 
L 411.30415 255.43604 
L 411.30415 251.603644 
L 412.317774 251.603644 
L 412.317774 247.771248 
L 412.46719 247.771248 
L 412.46719 243.938851 
L 446.289043 243.938851 
L 446.289043 240.106455 
L 446.771423 240.106455 
L 446.771423 236.274059 
L 446.932762 236.274059 
L 446.932762 232.441663 
L 449.919849 232.441663 
L 449.919849 228.609267 
L 452.20833 228.609267 
L 452.20833 224.776871 
L 452.272637 224.776871 
L 452.272637 220.944475 
L 453.502982 220.944475 
L 453.502982 217.112079 
L 456.830299 217.112079 
L 456.830299 213.279683 
L 461.8 213.279683 
" style="fill:none;stroke:#f5deb3;stroke-linecap:square;stroke-width:1.5;"/>
   </g>
   <g id="line2d_25">
    <path clip-path="url(#p89cbfa8d01)" d="M 431.850412 293.76 
L 431.850412 289.927604 
L 433.347021 289.927604 
L 433.347021 286.095208 
L 434.113123 286.095208 
L 434.113123 282.262812 
L 461.8 282.262812 
" style="fill:none;stroke:#f5deb3;stroke-linecap:square;stroke-width:1.5;"/>
   </g>
   <g id="line2d_26">
    <path clip-path="url(#p89cbfa8d01)" d="M 303.213407 293.76 
L 303.213407 289.927604 
L 324.005248 289.927604 
L 324.005248 286.095208 
L 330.350455 286.095208 
L 330.350455 282.262812 
L 334.90301 282.262812 
L 334.90301 278.430416 
L 341.779929 278.430416 
L 341.779929 274.59802 
L 391.039925 274.59802 
L 391.039925 270.765624 
L 431.783617 270.765624 
L 431.783617 266.933228 
L 432.429899 266.933228 
L 432.429899 263.100832 
L 432.870327 263.100832 
L 432.870327 259.268436 
L 439.74584 259.268436 
L 439.74584 255.43604 
L 450.526363 255.43604 
L 450.526363 251.603644 
L 450.95074 251.603644 
L 450.95074 247.771248 
L 461.8 247.771248 
" style="fill:none;stroke:#f5deb3;stroke-linecap:square;stroke-width:1.5;"/>
   </g>
   <g id="line2d_27">
    <path clip-path="url(#p89cbfa8d01)" d="M 247.538129 293.76 
L 247.538129 289.927604 
L 297.672347 289.927604 
L 297.672347 286.095208 
L 300.05544 286.095208 
L 300.05544 282.262812 
L 305.560569 282.262812 
L 305.560569 278.430416 
L 307.100609 278.430416 
L 307.100609 274.59802 
L 326.003427 274.59802 
L 326.003427 270.765624 
L 335.104367 270.765624 
L 335.104367 266.933228 
L 335.385702 266.933228 
L 335.385702 263.100832 
L 349.927756 263.100832 
L 349.927756 259.268436 
L 354.111815 259.268436 
L 354.111815 255.43604 
L 354.146009 255.43604 
L 354.146009 251.603644 
L 369.54993 251.603644 
L 369.54993 247.771248 
L 377.384431 247.771248 
L 377.384431 243.938851 
L 380.186298 243.938851 
L 380.186298 240.106455 
L 386.719379 240.106455 
L 386.719379 236.274059 
L 386.835387 236.274059 
L 386.835387 232.441663 
L 387.051064 232.441663 
L 387.051064 228.609267 
L 390.348003 228.609267 
L 390.348003 224.776871 
L 392.39252 224.776871 
L 392.39252 220.944475 
L 404.59339 220.944475 
L 404.59339 217.112079 
L 407.121656 217.112079 
L 407.121656 213.279683 
L 408.333042 213.279683 
L 408.333042 209.447287 
L 410.062508 209.447287 
L 410.062508 205.614891 
L 413.702123 205.614891 
L 413.702123 201.782495 
L 417.766766 201.782495 
L 417.766766 197.950099 
L 440.640538 197.950099 
L 440.640538 194.117703 
L 444.669332 194.117703 
L 444.669332 190.285307 
L 447.086325 190.285307 
L 447.086325 186.452911 
L 453.395845 186.452911 
L 453.395845 182.620515 
L 461.428871 182.620515 
L 461.428871 178.788119 
L 461.428871 178.788119 
" style="fill:none;stroke:#f5deb3;stroke-linecap:square;stroke-width:1.5;"/>
   </g>
   <g id="line2d_28">
    <path clip-path="url(#p89cbfa8d01)" d="M 280.998593 293.76 
L 280.998593 289.927604 
L 281.119699 289.927604 
L 281.119699 286.095208 
L 284.14951 286.095208 
L 284.14951 282.262812 
L 285.5485 282.262812 
L 285.5485 278.430416 
L 306.069354 278.430416 
L 306.069354 274.59802 
L 364.948284 274.59802 
L 364.948284 270.765624 
L 366.718366 270.765624 
L 366.718366 266.933228 
L 369.323631 266.933228 
L 369.323631 263.100832 
L 388.885655 263.100832 
L 388.885655 259.268436 
L 410.387997 259.268436 
L 410.387997 255.43604 
L 411.022772 255.43604 
L 411.022772 251.603644 
L 411.233345 251.603644 
L 411.233345 247.771248 
L 411.969528 247.771248 
L 411.969528 243.938851 
L 443.516638 243.938851 
L 443.516638 240.106455 
L 454.629253 240.106455 
L 454.629253 236.274059 
L 455.813189 236.274059 
L 455.813189 232.441663 
L 456.036285 232.441663 
L 456.036285 228.609267 
L 461.8 228.609267 
" style="fill:none;stroke:#f5deb3;stroke-linecap:square;stroke-width:1.5;"/>
   </g>
   <g id="line2d_29">
    <path clip-path="url(#p89cbfa8d01)" d="M 336.170764 293.76 
L 336.170764 289.927604 
L 336.170764 289.927604 
L 336.170764 286.095208 
L 336.170764 286.095208 
L 336.170764 282.262812 
L 343.876633 282.262812 
L 343.876633 278.430416 
L 343.876633 278.430416 
L 343.876633 274.59802 
L 343.876633 274.59802 
L 343.876633 270.765624 
L 351.771689 270.765624 
L 351.771689 266.933228 
L 351.771689 266.933228 
L 351.771689 263.100832 
L 351.771689 263.100832 
L 351.771689 259.268436 
L 351.771689 259.268436 
L 351.771689 259.268436 
L 460.8 259.268436 
" style="fill:none;stroke:#f5deb3;stroke-linecap:square;stroke-width:1.5;"/>
   </g>
   <g id="line2d_30">
    <path clip-path="url(#p89cbfa8d01)" d="M 427.903213 293.76 
L 427.903213 289.927604 
L 439.702685 289.927604 
L 439.702685 286.095208 
L 440.244169 286.095208 
L 440.244169 282.262812 
L 440.244169 282.262812 
L 440.244169 282.262812 
L 460.8 282.262812 
" style="fill:none;stroke:#f5deb3;stroke-linecap:square;stroke-width:1.5;"/>
   </g>
   <g id="matplotlib.axis_1">
    <g id="xtick_1">
     <g id="line2d_31">
      <path clip-path="url(#p89cbfa8d01)" d="M 156.972683 293.76 
L 156.972683 3.456 
" style="fill:none;stroke:#b0b0b0;stroke-linecap:square;stroke-width:0.8;"/>
     </g>
     <g id="line2d_32">
      <defs>
       <path d="M 0 0 
L 0 3.5 
" id="m85a11497d8" style="stroke:#000000;stroke-width:0.8;"/>
      </defs>
      <g>
       <use style="stroke:#000000;stroke-width:0.8;" x="156.972683" xlink:href="#m85a11497d8" y="293.76"/>
      </g>
     </g>
     <g id="text_1">
      <!-- 1 -->
      <g transform="translate(150.610183 315.956875)scale(0.2 -0.2)">
       <defs>
        <path d="M 794 531 
L 1825 531 
L 1825 4091 
L 703 3866 
L 703 4441 
L 1819 4666 
L 2450 4666 
L 2450 531 
L 3481 531 
L 3481 0 
L 794 0 
L 794 531 
z
" id="DejaVuSans-31" transform="scale(0.015625)"/>
       </defs>
       <use xlink:href="#DejaVuSans-31"/>
      </g>
     </g>
    </g>
    <g id="xtick_2">
     <g id="line2d_33">
      <path clip-path="url(#p89cbfa8d01)" d="M 346.502048 293.76 
L 346.502048 3.456 
" style="fill:none;stroke:#b0b0b0;stroke-linecap:square;stroke-width:0.8;"/>
     </g>
     <g id="line2d_34">
      <g>
       <use style="stroke:#000000;stroke-width:0.8;" x="346.502048" xlink:href="#m85a11497d8" y="293.76"/>
      </g>
     </g>
     <g id="text_2">
      <!-- 3 -->
      <g transform="translate(340.139548 315.956875)scale(0.2 -0.2)">
       <defs>
        <path d="M 2597 2516 
Q 3050 2419 3304 2112 
Q 3559 1806 3559 1356 
Q 3559 666 3084 287 
Q 2609 -91 1734 -91 
Q 1441 -91 1130 -33 
Q 819 25 488 141 
L 488 750 
Q 750 597 1062 519 
Q 1375 441 1716 441 
Q 2309 441 2620 675 
Q 2931 909 2931 1356 
Q 2931 1769 2642 2001 
Q 2353 2234 1838 2234 
L 1294 2234 
L 1294 2753 
L 1863 2753 
Q 2328 2753 2575 2939 
Q 2822 3125 2822 3475 
Q 2822 3834 2567 4026 
Q 2313 4219 1838 4219 
Q 1578 4219 1281 4162 
Q 984 4106 628 3988 
L 628 4550 
Q 988 4650 1302 4700 
Q 1616 4750 1894 4750 
Q 2613 4750 3031 4423 
Q 3450 4097 3450 3541 
Q 3450 3153 3228 2886 
Q 3006 2619 2597 2516 
z
" id="DejaVuSans-33" transform="scale(0.015625)"/>
       </defs>
       <use xlink:href="#DejaVuSans-33"/>
      </g>
     </g>
    </g>
    <g id="xtick_3">
     <g id="line2d_35">
      <path clip-path="url(#p89cbfa8d01)" d="M 90.735012 293.76 
L 90.735012 3.456 
" style="fill:none;stroke:#b0b0b0;stroke-linecap:square;stroke-width:0.8;"/>
     </g>
     <g id="line2d_36">
      <defs>
       <path d="M 0 0 
L 0 2 
" id="m9b7d43cdad" style="stroke:#000000;stroke-width:0.6;"/>
      </defs>
      <g>
       <use style="stroke:#000000;stroke-width:0.6;" x="90.735012" xlink:href="#m9b7d43cdad" y="293.76"/>
      </g>
     </g>
    </g>
    <g id="xtick_4">
     <g id="line2d_37">
      <path clip-path="url(#p89cbfa8d01)" d="M 107.422244 293.76 
L 107.422244 3.456 
" style="fill:none;stroke:#b0b0b0;stroke-linecap:square;stroke-width:0.8;"/>
     </g>
     <g id="line2d_38">
      <g>
       <use style="stroke:#000000;stroke-width:0.6;" x="107.422244" xlink:href="#m9b7d43cdad" y="293.76"/>
      </g>
     </g>
    </g>
    <g id="xtick_5">
     <g id="line2d_39">
      <path clip-path="url(#p89cbfa8d01)" d="M 119.262024 293.76 
L 119.262024 3.456 
" style="fill:none;stroke:#b0b0b0;stroke-linecap:square;stroke-width:0.8;"/>
     </g>
     <g id="line2d_40">
      <g>
       <use style="stroke:#000000;stroke-width:0.6;" x="119.262024" xlink:href="#m9b7d43cdad" y="293.76"/>
      </g>
     </g>
    </g>
    <g id="xtick_6">
     <g id="line2d_41">
      <path clip-path="url(#p89cbfa8d01)" d="M 128.445671 293.76 
L 128.445671 3.456 
" style="fill:none;stroke:#b0b0b0;stroke-linecap:square;stroke-width:0.8;"/>
     </g>
     <g id="line2d_42">
      <g>
       <use style="stroke:#000000;stroke-width:0.6;" x="128.445671" xlink:href="#m9b7d43cdad" y="293.76"/>
      </g>
     </g>
    </g>
    <g id="xtick_7">
     <g id="line2d_43">
      <path clip-path="url(#p89cbfa8d01)" d="M 135.949256 293.76 
L 135.949256 3.456 
" style="fill:none;stroke:#b0b0b0;stroke-linecap:square;stroke-width:0.8;"/>
     </g>
     <g id="line2d_44">
      <g>
       <use style="stroke:#000000;stroke-width:0.6;" x="135.949256" xlink:href="#m9b7d43cdad" y="293.76"/>
      </g>
     </g>
    </g>
    <g id="xtick_8">
     <g id="line2d_45">
      <path clip-path="url(#p89cbfa8d01)" d="M 142.293448 293.76 
L 142.293448 3.456 
" style="fill:none;stroke:#b0b0b0;stroke-linecap:square;stroke-width:0.8;"/>
     </g>
     <g id="line2d_46">
      <g>
       <use style="stroke:#000000;stroke-width:0.6;" x="142.293448" xlink:href="#m9b7d43cdad" y="293.76"/>
      </g>
     </g>
    </g>
    <g id="xtick_9">
     <g id="line2d_47">
      <path clip-path="url(#p89cbfa8d01)" d="M 147.789036 293.76 
L 147.789036 3.456 
" style="fill:none;stroke:#b0b0b0;stroke-linecap:square;stroke-width:0.8;"/>
     </g>
     <g id="line2d_48">
      <g>
       <use style="stroke:#000000;stroke-width:0.6;" x="147.789036" xlink:href="#m9b7d43cdad" y="293.76"/>
      </g>
     </g>
    </g>
    <g id="xtick_10">
     <g id="line2d_49">
      <path clip-path="url(#p89cbfa8d01)" d="M 152.636489 293.76 
L 152.636489 3.456 
" style="fill:none;stroke:#b0b0b0;stroke-linecap:square;stroke-width:0.8;"/>
     </g>
     <g id="line2d_50">
      <g>
       <use style="stroke:#000000;stroke-width:0.6;" x="152.636489" xlink:href="#m9b7d43cdad" y="293.76"/>
      </g>
     </g>
    </g>
    <g id="xtick_11">
     <g id="line2d_51">
      <path clip-path="url(#p89cbfa8d01)" d="M 185.499695 293.76 
L 185.499695 3.456 
" style="fill:none;stroke:#b0b0b0;stroke-linecap:square;stroke-width:0.8;"/>
     </g>
     <g id="line2d_52">
      <g>
       <use style="stroke:#000000;stroke-width:0.6;" x="185.499695" xlink:href="#m9b7d43cdad" y="293.76"/>
      </g>
     </g>
    </g>
    <g id="xtick_12">
     <g id="line2d_53">
      <path clip-path="url(#p89cbfa8d01)" d="M 202.186927 293.76 
L 202.186927 3.456 
" style="fill:none;stroke:#b0b0b0;stroke-linecap:square;stroke-width:0.8;"/>
     </g>
     <g id="line2d_54">
      <g>
       <use style="stroke:#000000;stroke-width:0.6;" x="202.186927" xlink:href="#m9b7d43cdad" y="293.76"/>
      </g>
     </g>
    </g>
    <g id="xtick_13">
     <g id="line2d_55">
      <path clip-path="url(#p89cbfa8d01)" d="M 214.026707 293.76 
L 214.026707 3.456 
" style="fill:none;stroke:#b0b0b0;stroke-linecap:square;stroke-width:0.8;"/>
     </g>
     <g id="line2d_56">
      <g>
       <use style="stroke:#000000;stroke-width:0.6;" x="214.026707" xlink:href="#m9b7d43cdad" y="293.76"/>
      </g>
     </g>
    </g>
    <g id="xtick_14">
     <g id="line2d_57">
      <path clip-path="url(#p89cbfa8d01)" d="M 223.210353 293.76 
L 223.210353 3.456 
" style="fill:none;stroke:#b0b0b0;stroke-linecap:square;stroke-width:0.8;"/>
     </g>
     <g id="line2d_58">
      <g>
       <use style="stroke:#000000;stroke-width:0.6;" x="223.210353" xlink:href="#m9b7d43cdad" y="293.76"/>
      </g>
     </g>
    </g>
    <g id="xtick_15">
     <g id="line2d_59">
      <path clip-path="url(#p89cbfa8d01)" d="M 230.713939 293.76 
L 230.713939 3.456 
" style="fill:none;stroke:#b0b0b0;stroke-linecap:square;stroke-width:0.8;"/>
     </g>
     <g id="line2d_60">
      <g>
       <use style="stroke:#000000;stroke-width:0.6;" x="230.713939" xlink:href="#m9b7d43cdad" y="293.76"/>
      </g>
     </g>
    </g>
    <g id="xtick_16">
     <g id="line2d_61">
      <path clip-path="url(#p89cbfa8d01)" d="M 237.05813 293.76 
L 237.05813 3.456 
" style="fill:none;stroke:#b0b0b0;stroke-linecap:square;stroke-width:0.8;"/>
     </g>
     <g id="line2d_62">
      <g>
       <use style="stroke:#000000;stroke-width:0.6;" x="237.05813" xlink:href="#m9b7d43cdad" y="293.76"/>
      </g>
     </g>
    </g>
    <g id="xtick_17">
     <g id="line2d_63">
      <path clip-path="url(#p89cbfa8d01)" d="M 242.553719 293.76 
L 242.553719 3.456 
" style="fill:none;stroke:#b0b0b0;stroke-linecap:square;stroke-width:0.8;"/>
     </g>
     <g id="line2d_64">
      <g>
       <use style="stroke:#000000;stroke-width:0.6;" x="242.553719" xlink:href="#m9b7d43cdad" y="293.76"/>
      </g>
     </g>
    </g>
    <g id="xtick_18">
     <g id="line2d_65">
      <path clip-path="url(#p89cbfa8d01)" d="M 247.401171 293.76 
L 247.401171 3.456 
" style="fill:none;stroke:#b0b0b0;stroke-linecap:square;stroke-width:0.8;"/>
     </g>
     <g id="line2d_66">
      <g>
       <use style="stroke:#000000;stroke-width:0.6;" x="247.401171" xlink:href="#m9b7d43cdad" y="293.76"/>
      </g>
     </g>
    </g>
    <g id="xtick_19">
     <g id="line2d_67">
      <path clip-path="url(#p89cbfa8d01)" d="M 280.264377 293.76 
L 280.264377 3.456 
" style="fill:none;stroke:#b0b0b0;stroke-linecap:square;stroke-width:0.8;"/>
     </g>
     <g id="line2d_68">
      <g>
       <use style="stroke:#000000;stroke-width:0.6;" x="280.264377" xlink:href="#m9b7d43cdad" y="293.76"/>
      </g>
     </g>
    </g>
    <g id="xtick_20">
     <g id="line2d_69">
      <path clip-path="url(#p89cbfa8d01)" d="M 296.951609 293.76 
L 296.951609 3.456 
" style="fill:none;stroke:#b0b0b0;stroke-linecap:square;stroke-width:0.8;"/>
     </g>
     <g id="line2d_70">
      <g>
       <use style="stroke:#000000;stroke-width:0.6;" x="296.951609" xlink:href="#m9b7d43cdad" y="293.76"/>
      </g>
     </g>
    </g>
    <g id="xtick_21">
     <g id="line2d_71">
      <path clip-path="url(#p89cbfa8d01)" d="M 308.791389 293.76 
L 308.791389 3.456 
" style="fill:none;stroke:#b0b0b0;stroke-linecap:square;stroke-width:0.8;"/>
     </g>
     <g id="line2d_72">
      <g>
       <use style="stroke:#000000;stroke-width:0.6;" x="308.791389" xlink:href="#m9b7d43cdad" y="293.76"/>
      </g>
     </g>
    </g>
    <g id="xtick_22">
     <g id="line2d_73">
      <path clip-path="url(#p89cbfa8d01)" d="M 317.975036 293.76 
L 317.975036 3.456 
" style="fill:none;stroke:#b0b0b0;stroke-linecap:square;stroke-width:0.8;"/>
     </g>
     <g id="line2d_74">
      <g>
       <use style="stroke:#000000;stroke-width:0.6;" x="317.975036" xlink:href="#m9b7d43cdad" y="293.76"/>
      </g>
     </g>
    </g>
    <g id="xtick_23">
     <g id="line2d_75">
      <path clip-path="url(#p89cbfa8d01)" d="M 325.478621 293.76 
L 325.478621 3.456 
" style="fill:none;stroke:#b0b0b0;stroke-linecap:square;stroke-width:0.8;"/>
     </g>
     <g id="line2d_76">
      <g>
       <use style="stroke:#000000;stroke-width:0.6;" x="325.478621" xlink:href="#m9b7d43cdad" y="293.76"/>
      </g>
     </g>
    </g>
    <g id="xtick_24">
     <g id="line2d_77">
      <path clip-path="url(#p89cbfa8d01)" d="M 331.822813 293.76 
L 331.822813 3.456 
" style="fill:none;stroke:#b0b0b0;stroke-linecap:square;stroke-width:0.8;"/>
     </g>
     <g id="line2d_78">
      <g>
       <use style="stroke:#000000;stroke-width:0.6;" x="331.822813" xlink:href="#m9b7d43cdad" y="293.76"/>
      </g>
     </g>
    </g>
    <g id="xtick_25">
     <g id="line2d_79">
      <path clip-path="url(#p89cbfa8d01)" d="M 337.318401 293.76 
L 337.318401 3.456 
" style="fill:none;stroke:#b0b0b0;stroke-linecap:square;stroke-width:0.8;"/>
     </g>
     <g id="line2d_80">
      <g>
       <use style="stroke:#000000;stroke-width:0.6;" x="337.318401" xlink:href="#m9b7d43cdad" y="293.76"/>
      </g>
     </g>
    </g>
    <g id="xtick_26">
     <g id="line2d_81">
      <path clip-path="url(#p89cbfa8d01)" d="M 342.165854 293.76 
L 342.165854 3.456 
" style="fill:none;stroke:#b0b0b0;stroke-linecap:square;stroke-width:0.8;"/>
     </g>
     <g id="line2d_82">
      <g>
       <use style="stroke:#000000;stroke-width:0.6;" x="342.165854" xlink:href="#m9b7d43cdad" y="293.76"/>
      </g>
     </g>
    </g>
    <g id="xtick_27">
     <g id="line2d_83">
      <path clip-path="url(#p89cbfa8d01)" d="M 375.02906 293.76 
L 375.02906 3.456 
" style="fill:none;stroke:#b0b0b0;stroke-linecap:square;stroke-width:0.8;"/>
     </g>
     <g id="line2d_84">
      <g>
       <use style="stroke:#000000;stroke-width:0.6;" x="375.02906" xlink:href="#m9b7d43cdad" y="293.76"/>
      </g>
     </g>
    </g>
    <g id="xtick_28">
     <g id="line2d_85">
      <path clip-path="url(#p89cbfa8d01)" d="M 391.716292 293.76 
L 391.716292 3.456 
" style="fill:none;stroke:#b0b0b0;stroke-linecap:square;stroke-width:0.8;"/>
     </g>
     <g id="line2d_86">
      <g>
       <use style="stroke:#000000;stroke-width:0.6;" x="391.716292" xlink:href="#m9b7d43cdad" y="293.76"/>
      </g>
     </g>
    </g>
    <g id="xtick_29">
     <g id="line2d_87">
      <path clip-path="url(#p89cbfa8d01)" d="M 403.556072 293.76 
L 403.556072 3.456 
" style="fill:none;stroke:#b0b0b0;stroke-linecap:square;stroke-width:0.8;"/>
     </g>
     <g id="line2d_88">
      <g>
       <use style="stroke:#000000;stroke-width:0.6;" x="403.556072" xlink:href="#m9b7d43cdad" y="293.76"/>
      </g>
     </g>
    </g>
    <g id="xtick_30">
     <g id="line2d_89">
      <path clip-path="url(#p89cbfa8d01)" d="M 412.739718 293.76 
L 412.739718 3.456 
" style="fill:none;stroke:#b0b0b0;stroke-linecap:square;stroke-width:0.8;"/>
     </g>
     <g id="line2d_90">
      <g>
       <use style="stroke:#000000;stroke-width:0.6;" x="412.739718" xlink:href="#m9b7d43cdad" y="293.76"/>
      </g>
     </g>
    </g>
    <g id="xtick_31">
     <g id="line2d_91">
      <path clip-path="url(#p89cbfa8d01)" d="M 420.243304 293.76 
L 420.243304 3.456 
" style="fill:none;stroke:#b0b0b0;stroke-linecap:square;stroke-width:0.8;"/>
     </g>
     <g id="line2d_92">
      <g>
       <use style="stroke:#000000;stroke-width:0.6;" x="420.243304" xlink:href="#m9b7d43cdad" y="293.76"/>
      </g>
     </g>
    </g>
    <g id="xtick_32">
     <g id="line2d_93">
      <path clip-path="url(#p89cbfa8d01)" d="M 426.587495 293.76 
L 426.587495 3.456 
" style="fill:none;stroke:#b0b0b0;stroke-linecap:square;stroke-width:0.8;"/>
     </g>
     <g id="line2d_94">
      <g>
       <use style="stroke:#000000;stroke-width:0.6;" x="426.587495" xlink:href="#m9b7d43cdad" y="293.76"/>
      </g>
     </g>
    </g>
    <g id="xtick_33">
     <g id="line2d_95">
      <path clip-path="url(#p89cbfa8d01)" d="M 432.083084 293.76 
L 432.083084 3.456 
" style="fill:none;stroke:#b0b0b0;stroke-linecap:square;stroke-width:0.8;"/>
     </g>
     <g id="line2d_96">
      <g>
       <use style="stroke:#000000;stroke-width:0.6;" x="432.083084" xlink:href="#m9b7d43cdad" y="293.76"/>
      </g>
     </g>
    </g>
    <g id="xtick_34">
     <g id="line2d_97">
      <path clip-path="url(#p89cbfa8d01)" d="M 436.930536 293.76 
L 436.930536 3.456 
" style="fill:none;stroke:#b0b0b0;stroke-linecap:square;stroke-width:0.8;"/>
     </g>
     <g id="line2d_98">
      <g>
       <use style="stroke:#000000;stroke-width:0.6;" x="436.930536" xlink:href="#m9b7d43cdad" y="293.76"/>
      </g>
     </g>
    </g>
    <g id="text_3">
     <!-- log10 of FEvals / DIM -->
     <g transform="translate(156.430563 339.313125)scale(0.2 -0.2)">
      <defs>
       <path d="M 603 4863 
L 1178 4863 
L 1178 0 
L 603 0 
L 603 4863 
z
" id="DejaVuSans-6c" transform="scale(0.015625)"/>
       <path d="M 1959 3097 
Q 1497 3097 1228 2736 
Q 959 2375 959 1747 
Q 959 1119 1226 758 
Q 1494 397 1959 397 
Q 2419 397 2687 759 
Q 2956 1122 2956 1747 
Q 2956 2369 2687 2733 
Q 2419 3097 1959 3097 
z
M 1959 3584 
Q 2709 3584 3137 3096 
Q 3566 2609 3566 1747 
Q 3566 888 3137 398 
Q 2709 -91 1959 -91 
Q 1206 -91 779 398 
Q 353 888 353 1747 
Q 353 2609 779 3096 
Q 1206 3584 1959 3584 
z
" id="DejaVuSans-6f" transform="scale(0.015625)"/>
       <path d="M 2906 1791 
Q 2906 2416 2648 2759 
Q 2391 3103 1925 3103 
Q 1463 3103 1205 2759 
Q 947 2416 947 1791 
Q 947 1169 1205 825 
Q 1463 481 1925 481 
Q 2391 481 2648 825 
Q 2906 1169 2906 1791 
z
M 3481 434 
Q 3481 -459 3084 -895 
Q 2688 -1331 1869 -1331 
Q 1566 -1331 1297 -1286 
Q 1028 -1241 775 -1147 
L 775 -588 
Q 1028 -725 1275 -790 
Q 1522 -856 1778 -856 
Q 2344 -856 2625 -561 
Q 2906 -266 2906 331 
L 2906 616 
Q 2728 306 2450 153 
Q 2172 0 1784 0 
Q 1141 0 747 490 
Q 353 981 353 1791 
Q 353 2603 747 3093 
Q 1141 3584 1784 3584 
Q 2172 3584 2450 3431 
Q 2728 3278 2906 2969 
L 2906 3500 
L 3481 3500 
L 3481 434 
z
" id="DejaVuSans-67" transform="scale(0.015625)"/>
       <path d="M 2034 4250 
Q 1547 4250 1301 3770 
Q 1056 3291 1056 2328 
Q 1056 1369 1301 889 
Q 1547 409 2034 409 
Q 2525 409 2770 889 
Q 3016 1369 3016 2328 
Q 3016 3291 2770 3770 
Q 2525 4250 2034 4250 
z
M 2034 4750 
Q 2819 4750 3233 4129 
Q 3647 3509 3647 2328 
Q 3647 1150 3233 529 
Q 2819 -91 2034 -91 
Q 1250 -91 836 529 
Q 422 1150 422 2328 
Q 422 3509 836 4129 
Q 1250 4750 2034 4750 
z
" id="DejaVuSans-30" transform="scale(0.015625)"/>
       <path id="DejaVuSans-20" transform="scale(0.015625)"/>
       <path d="M 2375 4863 
L 2375 4384 
L 1825 4384 
Q 1516 4384 1395 4259 
Q 1275 4134 1275 3809 
L 1275 3500 
L 2222 3500 
L 2222 3053 
L 1275 3053 
L 1275 0 
L 697 0 
L 697 3053 
L 147 3053 
L 147 3500 
L 697 3500 
L 697 3744 
Q 697 4328 969 4595 
Q 1241 4863 1831 4863 
L 2375 4863 
z
" id="DejaVuSans-66" transform="scale(0.015625)"/>
       <path d="M 628 4666 
L 3309 4666 
L 3309 4134 
L 1259 4134 
L 1259 2759 
L 3109 2759 
L 3109 2228 
L 1259 2228 
L 1259 0 
L 628 0 
L 628 4666 
z
" id="DejaVuSans-46" transform="scale(0.015625)"/>
       <path d="M 628 4666 
L 3578 4666 
L 3578 4134 
L 1259 4134 
L 1259 2753 
L 3481 2753 
L 3481 2222 
L 1259 2222 
L 1259 531 
L 3634 531 
L 3634 0 
L 628 0 
L 628 4666 
z
" id="DejaVuSans-45" transform="scale(0.015625)"/>
       <path d="M 191 3500 
L 800 3500 
L 1894 563 
L 2988 3500 
L 3597 3500 
L 2284 0 
L 1503 0 
L 191 3500 
z
" id="DejaVuSans-76" transform="scale(0.015625)"/>
       <path d="M 2194 1759 
Q 1497 1759 1228 1600 
Q 959 1441 959 1056 
Q 959 750 1161 570 
Q 1363 391 1709 391 
Q 2188 391 2477 730 
Q 2766 1069 2766 1631 
L 2766 1759 
L 2194 1759 
z
M 3341 1997 
L 3341 0 
L 2766 0 
L 2766 531 
Q 2569 213 2275 61 
Q 1981 -91 1556 -91 
Q 1019 -91 701 211 
Q 384 513 384 1019 
Q 384 1609 779 1909 
Q 1175 2209 1959 2209 
L 2766 2209 
L 2766 2266 
Q 2766 2663 2505 2880 
Q 2244 3097 1772 3097 
Q 1472 3097 1187 3025 
Q 903 2953 641 2809 
L 641 3341 
Q 956 3463 1253 3523 
Q 1550 3584 1831 3584 
Q 2591 3584 2966 3190 
Q 3341 2797 3341 1997 
z
" id="DejaVuSans-61" transform="scale(0.015625)"/>
       <path d="M 2834 3397 
L 2834 2853 
Q 2591 2978 2328 3040 
Q 2066 3103 1784 3103 
Q 1356 3103 1142 2972 
Q 928 2841 928 2578 
Q 928 2378 1081 2264 
Q 1234 2150 1697 2047 
L 1894 2003 
Q 2506 1872 2764 1633 
Q 3022 1394 3022 966 
Q 3022 478 2636 193 
Q 2250 -91 1575 -91 
Q 1294 -91 989 -36 
Q 684 19 347 128 
L 347 722 
Q 666 556 975 473 
Q 1284 391 1588 391 
Q 1994 391 2212 530 
Q 2431 669 2431 922 
Q 2431 1156 2273 1281 
Q 2116 1406 1581 1522 
L 1381 1569 
Q 847 1681 609 1914 
Q 372 2147 372 2553 
Q 372 3047 722 3315 
Q 1072 3584 1716 3584 
Q 2034 3584 2315 3537 
Q 2597 3491 2834 3397 
z
" id="DejaVuSans-73" transform="scale(0.015625)"/>
       <path d="M 1625 4666 
L 2156 4666 
L 531 -594 
L 0 -594 
L 1625 4666 
z
" id="DejaVuSans-2f" transform="scale(0.015625)"/>
       <path d="M 1259 4147 
L 1259 519 
L 2022 519 
Q 2988 519 3436 956 
Q 3884 1394 3884 2338 
Q 3884 3275 3436 3711 
Q 2988 4147 2022 4147 
L 1259 4147 
z
M 628 4666 
L 1925 4666 
Q 3281 4666 3915 4102 
Q 4550 3538 4550 2338 
Q 4550 1131 3912 565 
Q 3275 0 1925 0 
L 628 0 
L 628 4666 
z
" id="DejaVuSans-44" transform="scale(0.015625)"/>
       <path d="M 628 4666 
L 1259 4666 
L 1259 0 
L 628 0 
L 628 4666 
z
" id="DejaVuSans-49" transform="scale(0.015625)"/>
       <path d="M 628 4666 
L 1569 4666 
L 2759 1491 
L 3956 4666 
L 4897 4666 
L 4897 0 
L 4281 0 
L 4281 4097 
L 3078 897 
L 2444 897 
L 1241 4097 
L 1241 0 
L 628 0 
L 628 4666 
z
" id="DejaVuSans-4d" transform="scale(0.015625)"/>
      </defs>
      <use xlink:href="#DejaVuSans-6c"/>
      <use x="27.783203" xlink:href="#DejaVuSans-6f"/>
      <use x="88.964844" xlink:href="#DejaVuSans-67"/>
      <use x="152.441406" xlink:href="#DejaVuSans-31"/>
      <use x="216.064453" xlink:href="#DejaVuSans-30"/>
      <use x="279.6875" xlink:href="#DejaVuSans-20"/>
      <use x="311.474609" xlink:href="#DejaVuSans-6f"/>
      <use x="372.65625" xlink:href="#DejaVuSans-66"/>
      <use x="407.861328" xlink:href="#DejaVuSans-20"/>
      <use x="439.648438" xlink:href="#DejaVuSans-46"/>
      <use x="497.167969" xlink:href="#DejaVuSans-45"/>
      <use x="560.351562" xlink:href="#DejaVuSans-76"/>
      <use x="619.53125" xlink:href="#DejaVuSans-61"/>
      <use x="680.810547" xlink:href="#DejaVuSans-6c"/>
      <use x="708.59375" xlink:href="#DejaVuSans-73"/>
      <use x="760.693359" xlink:href="#DejaVuSans-20"/>
      <use x="792.480469" xlink:href="#DejaVuSans-2f"/>
      <use x="826.171875" xlink:href="#DejaVuSans-20"/>
      <use x="857.958984" xlink:href="#DejaVuSans-44"/>
      <use x="934.960938" xlink:href="#DejaVuSans-49"/>
      <use x="964.453125" xlink:href="#DejaVuSans-4d"/>
     </g>
    </g>
   </g>
   <g id="matplotlib.axis_2">
    <g id="ytick_1">
     <g id="line2d_99">
      <path clip-path="url(#p89cbfa8d01)" d="M 62.208 293.76 
L 460.8 293.76 
" style="fill:none;stroke:#b0b0b0;stroke-linecap:square;stroke-width:0.8;"/>
     </g>
     <g id="line2d_100">
      <defs>
       <path d="M 0 0 
L -3.5 0 
" id="m0965b0b45c" style="stroke:#000000;stroke-width:0.8;"/>
      </defs>
      <g>
       <use style="stroke:#000000;stroke-width:0.8;" x="62.208" xlink:href="#m0965b0b45c" y="293.76"/>
      </g>
     </g>
     <g id="text_4">
      <!-- 0.0 -->
      <g transform="translate(29.763 299.83875)scale(0.16 -0.16)">
       <defs>
        <path d="M 684 794 
L 1344 794 
L 1344 0 
L 684 0 
L 684 794 
z
" id="DejaVuSans-2e" transform="scale(0.015625)"/>
       </defs>
       <use xlink:href="#DejaVuSans-30"/>
       <use x="63.623047" xlink:href="#DejaVuSans-2e"/>
       <use x="95.410156" xlink:href="#DejaVuSans-30"/>
      </g>
     </g>
    </g>
    <g id="ytick_2">
     <g id="line2d_101">
      <path clip-path="url(#p89cbfa8d01)" d="M 62.208 236.274059 
L 460.8 236.274059 
" style="fill:none;stroke:#b0b0b0;stroke-linecap:square;stroke-width:0.8;"/>
     </g>
     <g id="line2d_102">
      <g>
       <use style="stroke:#000000;stroke-width:0.8;" x="62.208" xlink:href="#m0965b0b45c" y="236.274059"/>
      </g>
     </g>
     <g id="text_5">
      <!-- 0.2 -->
      <g transform="translate(29.763 242.352809)scale(0.16 -0.16)">
       <defs>
        <path d="M 1228 531 
L 3431 531 
L 3431 0 
L 469 0 
L 469 531 
Q 828 903 1448 1529 
Q 2069 2156 2228 2338 
Q 2531 2678 2651 2914 
Q 2772 3150 2772 3378 
Q 2772 3750 2511 3984 
Q 2250 4219 1831 4219 
Q 1534 4219 1204 4116 
Q 875 4013 500 3803 
L 500 4441 
Q 881 4594 1212 4672 
Q 1544 4750 1819 4750 
Q 2544 4750 2975 4387 
Q 3406 4025 3406 3419 
Q 3406 3131 3298 2873 
Q 3191 2616 2906 2266 
Q 2828 2175 2409 1742 
Q 1991 1309 1228 531 
z
" id="DejaVuSans-32" transform="scale(0.015625)"/>
       </defs>
       <use xlink:href="#DejaVuSans-30"/>
       <use x="63.623047" xlink:href="#DejaVuSans-2e"/>
       <use x="95.410156" xlink:href="#DejaVuSans-32"/>
      </g>
     </g>
    </g>
    <g id="ytick_3">
     <g id="line2d_103">
      <path clip-path="url(#p89cbfa8d01)" d="M 62.208 178.788119 
L 460.8 178.788119 
" style="fill:none;stroke:#b0b0b0;stroke-linecap:square;stroke-width:0.8;"/>
     </g>
     <g id="line2d_104">
      <g>
       <use style="stroke:#000000;stroke-width:0.8;" x="62.208" xlink:href="#m0965b0b45c" y="178.788119"/>
      </g>
     </g>
     <g id="text_6">
      <!-- 0.4 -->
      <g transform="translate(29.763 184.866869)scale(0.16 -0.16)">
       <defs>
        <path d="M 2419 4116 
L 825 1625 
L 2419 1625 
L 2419 4116 
z
M 2253 4666 
L 3047 4666 
L 3047 1625 
L 3713 1625 
L 3713 1100 
L 3047 1100 
L 3047 0 
L 2419 0 
L 2419 1100 
L 313 1100 
L 313 1709 
L 2253 4666 
z
" id="DejaVuSans-34" transform="scale(0.015625)"/>
       </defs>
       <use xlink:href="#DejaVuSans-30"/>
       <use x="63.623047" xlink:href="#DejaVuSans-2e"/>
       <use x="95.410156" xlink:href="#DejaVuSans-34"/>
      </g>
     </g>
    </g>
    <g id="ytick_4">
     <g id="line2d_105">
      <path clip-path="url(#p89cbfa8d01)" d="M 62.208 121.302178 
L 460.8 121.302178 
" style="fill:none;stroke:#b0b0b0;stroke-linecap:square;stroke-width:0.8;"/>
     </g>
     <g id="line2d_106">
      <g>
       <use style="stroke:#000000;stroke-width:0.8;" x="62.208" xlink:href="#m0965b0b45c" y="121.302178"/>
      </g>
     </g>
     <g id="text_7">
      <!-- 0.6 -->
      <g transform="translate(29.763 127.380928)scale(0.16 -0.16)">
       <defs>
        <path d="M 2113 2584 
Q 1688 2584 1439 2293 
Q 1191 2003 1191 1497 
Q 1191 994 1439 701 
Q 1688 409 2113 409 
Q 2538 409 2786 701 
Q 3034 994 3034 1497 
Q 3034 2003 2786 2293 
Q 2538 2584 2113 2584 
z
M 3366 4563 
L 3366 3988 
Q 3128 4100 2886 4159 
Q 2644 4219 2406 4219 
Q 1781 4219 1451 3797 
Q 1122 3375 1075 2522 
Q 1259 2794 1537 2939 
Q 1816 3084 2150 3084 
Q 2853 3084 3261 2657 
Q 3669 2231 3669 1497 
Q 3669 778 3244 343 
Q 2819 -91 2113 -91 
Q 1303 -91 875 529 
Q 447 1150 447 2328 
Q 447 3434 972 4092 
Q 1497 4750 2381 4750 
Q 2619 4750 2861 4703 
Q 3103 4656 3366 4563 
z
" id="DejaVuSans-36" transform="scale(0.015625)"/>
       </defs>
       <use xlink:href="#DejaVuSans-30"/>
       <use x="63.623047" xlink:href="#DejaVuSans-2e"/>
       <use x="95.410156" xlink:href="#DejaVuSans-36"/>
      </g>
     </g>
    </g>
    <g id="ytick_5">
     <g id="line2d_107">
      <path clip-path="url(#p89cbfa8d01)" d="M 62.208 63.816238 
L 460.8 63.816238 
" style="fill:none;stroke:#b0b0b0;stroke-linecap:square;stroke-width:0.8;"/>
     </g>
     <g id="line2d_108">
      <g>
       <use style="stroke:#000000;stroke-width:0.8;" x="62.208" xlink:href="#m0965b0b45c" y="63.816238"/>
      </g>
     </g>
     <g id="text_8">
      <!-- 0.8 -->
      <g transform="translate(29.763 69.894988)scale(0.16 -0.16)">
       <defs>
        <path d="M 2034 2216 
Q 1584 2216 1326 1975 
Q 1069 1734 1069 1313 
Q 1069 891 1326 650 
Q 1584 409 2034 409 
Q 2484 409 2743 651 
Q 3003 894 3003 1313 
Q 3003 1734 2745 1975 
Q 2488 2216 2034 2216 
z
M 1403 2484 
Q 997 2584 770 2862 
Q 544 3141 544 3541 
Q 544 4100 942 4425 
Q 1341 4750 2034 4750 
Q 2731 4750 3128 4425 
Q 3525 4100 3525 3541 
Q 3525 3141 3298 2862 
Q 3072 2584 2669 2484 
Q 3125 2378 3379 2068 
Q 3634 1759 3634 1313 
Q 3634 634 3220 271 
Q 2806 -91 2034 -91 
Q 1263 -91 848 271 
Q 434 634 434 1313 
Q 434 1759 690 2068 
Q 947 2378 1403 2484 
z
M 1172 3481 
Q 1172 3119 1398 2916 
Q 1625 2713 2034 2713 
Q 2441 2713 2670 2916 
Q 2900 3119 2900 3481 
Q 2900 3844 2670 4047 
Q 2441 4250 2034 4250 
Q 1625 4250 1398 4047 
Q 1172 3844 1172 3481 
z
" id="DejaVuSans-38" transform="scale(0.015625)"/>
       </defs>
       <use xlink:href="#DejaVuSans-30"/>
       <use x="63.623047" xlink:href="#DejaVuSans-2e"/>
       <use x="95.410156" xlink:href="#DejaVuSans-38"/>
      </g>
     </g>
    </g>
    <g id="ytick_6">
     <g id="line2d_109">
      <path clip-path="url(#p89cbfa8d01)" d="M 62.208 6.330297 
L 460.8 6.330297 
" style="fill:none;stroke:#b0b0b0;stroke-linecap:square;stroke-width:0.8;"/>
     </g>
     <g id="line2d_110">
      <g>
       <use style="stroke:#000000;stroke-width:0.8;" x="62.208" xlink:href="#m0965b0b45c" y="6.330297"/>
      </g>
     </g>
     <g id="text_9">
      <!-- 1.0 -->
      <g transform="translate(29.763 12.409047)scale(0.16 -0.16)">
       <use xlink:href="#DejaVuSans-31"/>
       <use x="63.623047" xlink:href="#DejaVuSans-2e"/>
       <use x="95.410156" xlink:href="#DejaVuSans-30"/>
      </g>
     </g>
    </g>
    <g id="text_10">
     <!-- proportion of trials -->
     <g transform="translate(21.603625 241.61425)rotate(-90)scale(0.2 -0.2)">
      <defs>
       <path d="M 1159 525 
L 1159 -1331 
L 581 -1331 
L 581 3500 
L 1159 3500 
L 1159 2969 
Q 1341 3281 1617 3432 
Q 1894 3584 2278 3584 
Q 2916 3584 3314 3078 
Q 3713 2572 3713 1747 
Q 3713 922 3314 415 
Q 2916 -91 2278 -91 
Q 1894 -91 1617 61 
Q 1341 213 1159 525 
z
M 3116 1747 
Q 3116 2381 2855 2742 
Q 2594 3103 2138 3103 
Q 1681 3103 1420 2742 
Q 1159 2381 1159 1747 
Q 1159 1113 1420 752 
Q 1681 391 2138 391 
Q 2594 391 2855 752 
Q 3116 1113 3116 1747 
z
" id="DejaVuSans-70" transform="scale(0.015625)"/>
       <path d="M 2631 2963 
Q 2534 3019 2420 3045 
Q 2306 3072 2169 3072 
Q 1681 3072 1420 2755 
Q 1159 2438 1159 1844 
L 1159 0 
L 581 0 
L 581 3500 
L 1159 3500 
L 1159 2956 
Q 1341 3275 1631 3429 
Q 1922 3584 2338 3584 
Q 2397 3584 2469 3576 
Q 2541 3569 2628 3553 
L 2631 2963 
z
" id="DejaVuSans-72" transform="scale(0.015625)"/>
       <path d="M 1172 4494 
L 1172 3500 
L 2356 3500 
L 2356 3053 
L 1172 3053 
L 1172 1153 
Q 1172 725 1289 603 
Q 1406 481 1766 481 
L 2356 481 
L 2356 0 
L 1766 0 
Q 1100 0 847 248 
Q 594 497 594 1153 
L 594 3053 
L 172 3053 
L 172 3500 
L 594 3500 
L 594 4494 
L 1172 4494 
z
" id="DejaVuSans-74" transform="scale(0.015625)"/>
       <path d="M 603 3500 
L 1178 3500 
L 1178 0 
L 603 0 
L 603 3500 
z
M 603 4863 
L 1178 4863 
L 1178 4134 
L 603 4134 
L 603 4863 
z
" id="DejaVuSans-69" transform="scale(0.015625)"/>
       <path d="M 3513 2113 
L 3513 0 
L 2938 0 
L 2938 2094 
Q 2938 2591 2744 2837 
Q 2550 3084 2163 3084 
Q 1697 3084 1428 2787 
Q 1159 2491 1159 1978 
L 1159 0 
L 581 0 
L 581 3500 
L 1159 3500 
L 1159 2956 
Q 1366 3272 1645 3428 
Q 1925 3584 2291 3584 
Q 2894 3584 3203 3211 
Q 3513 2838 3513 2113 
z
" id="DejaVuSans-6e" transform="scale(0.015625)"/>
      </defs>
      <use xlink:href="#DejaVuSans-70"/>
      <use x="63.476562" xlink:href="#DejaVuSans-72"/>
      <use x="102.339844" xlink:href="#DejaVuSans-6f"/>
      <use x="163.521484" xlink:href="#DejaVuSans-70"/>
      <use x="226.998047" xlink:href="#DejaVuSans-6f"/>
      <use x="288.179688" xlink:href="#DejaVuSans-72"/>
      <use x="329.292969" xlink:href="#DejaVuSans-74"/>
      <use x="368.501953" xlink:href="#DejaVuSans-69"/>
      <use x="396.285156" xlink:href="#DejaVuSans-6f"/>
      <use x="457.466797" xlink:href="#DejaVuSans-6e"/>
      <use x="520.845703" xlink:href="#DejaVuSans-20"/>
      <use x="552.632812" xlink:href="#DejaVuSans-6f"/>
      <use x="613.814453" xlink:href="#DejaVuSans-66"/>
      <use x="649.019531" xlink:href="#DejaVuSans-20"/>
      <use x="680.806641" xlink:href="#DejaVuSans-74"/>
      <use x="720.015625" xlink:href="#DejaVuSans-72"/>
      <use x="761.128906" xlink:href="#DejaVuSans-69"/>
      <use x="788.912109" xlink:href="#DejaVuSans-61"/>
      <use x="850.191406" xlink:href="#DejaVuSans-6c"/>
      <use x="877.974609" xlink:href="#DejaVuSans-73"/>
     </g>
    </g>
   </g>
   <g id="line2d_111">
    <path clip-path="url(#p89cbfa8d01)" d="M 69.711586 293.76 
L 69.711586 289.927604 
L 86.398818 289.927604 
L 86.398818 286.095208 
L 94.657577 286.095208 
L 94.657577 282.262812 
L 94.657577 282.262812 
L 94.657577 278.430416 
L 98.238598 278.430416 
L 98.238598 274.59802 
L 99.918659 274.59802 
L 99.918659 270.765624 
L 107.422244 270.765624 
L 107.422244 266.933228 
L 110.078377 266.933228 
L 110.078377 263.100832 
L 119.262024 263.100832 
L 119.262024 259.268436 
L 119.262024 259.268436 
L 119.262024 255.43604 
L 121.270021 255.43604 
L 121.270021 251.603644 
L 126.76561 251.603644 
L 126.76561 247.771248 
L 134.554011 247.771248 
L 134.554011 243.938851 
L 134.554011 243.938851 
L 134.554011 240.106455 
L 135.949256 240.106455 
L 135.949256 236.274059 
L 138.605389 236.274059 
L 138.605389 232.441663 
L 140.490716 232.441663 
L 140.490716 228.609267 
L 148.80528 228.609267 
L 148.80528 224.776871 
L 152.176643 224.776871 
L 152.176643 220.944475 
L 152.636489 220.944475 
L 152.636489 217.112079 
L 157.382196 217.112079 
L 157.382196 213.279683 
L 160.895247 213.279683 
L 160.895247 209.447287 
L 161.636813 209.447287 
L 161.636813 205.614891 
L 161.636813 205.614891 
L 161.636813 201.782495 
L 163.784558 201.782495 
L 163.784558 197.950099 
L 164.131866 197.950099 
L 164.131866 194.117703 
L 168.398833 194.117703 
L 168.398833 190.285307 
L 169.017728 190.285307 
L 169.017728 186.452911 
L 170.820459 186.452911 
L 170.820459 182.620515 
L 171.404239 182.620515 
L 171.404239 178.788119 
L 175.009406 178.788119 
L 175.009406 174.955723 
L 178.568294 174.955723 
L 178.568294 171.123327 
L 184.877681 171.123327 
L 184.877681 167.290931 
L 184.877681 167.290931 
L 184.877681 163.458535 
L 185.499695 163.458535 
L 185.499695 159.626139 
L 187.113854 159.626139 
L 187.113854 155.793743 
L 191.78505 155.793743 
L 191.78505 151.961347 
L 195.011277 151.961347 
L 195.011277 148.12895 
L 201.215244 148.12895 
L 201.215244 144.296554 
L 208.648538 144.296554 
L 208.648538 140.464158 
L 210.595072 140.464158 
L 210.595072 136.631762 
L 211.69851 136.631762 
L 211.69851 132.799366 
L 301.762463 132.799366 
L 301.762463 128.96697 
L 325.772519 128.96697 
L 325.772519 125.134574 
L 338.39984 125.134574 
L 338.39984 121.302178 
L 365.288633 121.302178 
L 365.288633 117.469782 
L 369.145964 117.469782 
L 369.145964 113.637386 
L 380.729146 113.637386 
L 380.729146 109.80499 
L 383.253383 109.80499 
L 383.253383 105.972594 
L 384.535743 105.972594 
L 384.535743 102.140198 
L 408.267944 102.140198 
L 408.267944 98.307802 
L 415.521186 98.307802 
L 415.521186 94.475406 
L 422.669222 94.475406 
L 422.669222 90.64301 
L 429.156632 90.64301 
L 429.156632 86.810614 
L 432.958051 86.810614 
L 432.958051 82.978218 
L 437.180369 82.978218 
L 437.180369 79.145822 
L 437.429147 79.145822 
L 437.429147 75.313426 
L 439.732599 75.313426 
L 439.732599 71.48103 
L 439.732599 71.48103 
L 439.732599 71.48103 
L 460.8 71.48103 
" style="fill:none;stroke:#000000;stroke-linecap:square;stroke-width:1.5;"/>
   </g>
   <g id="line2d_112">
    <defs>
     <path d="M 0 14.142136 
L 8.485281 0 
L 0 -14.142136 
L -8.485281 0 
z
" id="mcb9dccbd5f" style="stroke:#000000;stroke-linejoin:miter;stroke-width:1.5;"/>
    </defs>
    <g clip-path="url(#p89cbfa8d01)">
     <use style="fill-opacity:0;stroke:#000000;stroke-linejoin:miter;stroke-width:1.5;" x="126.76561" xlink:href="#mcb9dccbd5f" y="251.603644"/>
     <use style="fill-opacity:0;stroke:#000000;stroke-linejoin:miter;stroke-width:1.5;" x="168.398833" xlink:href="#mcb9dccbd5f" y="194.117703"/>
     <use style="fill-opacity:0;stroke:#000000;stroke-linejoin:miter;stroke-width:1.5;" x="210.595072" xlink:href="#mcb9dccbd5f" y="140.464158"/>
     <use style="fill-opacity:0;stroke:#000000;stroke-linejoin:miter;stroke-width:1.5;" x="325.772519" xlink:href="#mcb9dccbd5f" y="128.96697"/>
     <use style="fill-opacity:0;stroke:#000000;stroke-linejoin:miter;stroke-width:1.5;" x="429.156632" xlink:href="#mcb9dccbd5f" y="90.64301"/>
     <use style="fill-opacity:0;stroke:#000000;stroke-linejoin:miter;stroke-width:1.5;" x="439.732599" xlink:href="#mcb9dccbd5f" y="71.48103"/>
    </g>
   </g>
   <g id="line2d_113">
    <path clip-path="url(#p89cbfa8d01)" style="fill:none;stroke:#000000;stroke-linecap:square;stroke-width:1.5;"/>
    <g clip-path="url(#p89cbfa8d01)">
     <use style="fill-opacity:0;stroke:#000000;stroke-linejoin:miter;stroke-width:1.5;" x="-1" xlink:href="#mcb9dccbd5f" y="581.189703"/>
     <use style="fill-opacity:0;stroke:#000000;stroke-linejoin:miter;stroke-width:1.5;" x="460.8" xlink:href="#mcb9dccbd5f" y="581.189703"/>
    </g>
   </g>
   <g id="line2d_114">
    <path clip-path="url(#p89cbfa8d01)" d="M 12.657562 293.76 
L 12.657562 289.927604 
L 84.046419 289.927604 
L 84.046419 286.095208 
L 90.735012 286.095208 
L 90.735012 278.430416 
L 103.08605 278.430416 
L 103.08605 274.59802 
L 113.766436 274.59802 
L 113.766436 270.765624 
L 118.22005 270.765624 
L 118.22005 266.933228 
L 119.262024 266.933228 
L 119.262024 263.100832 
L 122.238437 263.100832 
L 122.238437 259.268436 
L 123.184589 259.268436 
L 123.184589 255.43604 
L 137.298747 255.43604 
L 137.298747 251.603644 
L 139.871821 251.603644 
L 139.871821 247.771248 
L 141.701268 247.771248 
L 141.701268 243.938851 
L 146.216012 243.938851 
L 146.216012 240.106455 
L 148.300294 240.106455 
L 148.300294 232.441663 
L 148.80528 232.441663 
L 148.80528 224.776871 
L 150.284089 224.776871 
L 150.284089 220.944475 
L 151.711601 220.944475 
L 151.711601 217.112079 
L 152.176643 217.112079 
L 152.176643 213.279683 
L 152.636489 213.279683 
L 152.636489 209.447287 
L 156.972683 209.447287 
L 156.972683 205.614891 
L 160.519393 205.614891 
L 160.519393 201.782495 
L 165.492512 201.782495 
L 165.492512 197.950099 
L 165.825759 197.950099 
L 165.825759 194.117703 
L 167.770488 194.117703 
L 167.770488 190.285307 
L 168.398833 190.285307 
L 168.398833 186.452911 
L 168.709444 186.452911 
L 168.709444 182.620515 
L 169.627455 182.620515 
L 169.627455 174.955723 
L 169.928964 174.955723 
L 169.928964 171.123327 
L 173.10748 171.123327 
L 173.10748 167.290931 
L 175.274074 167.290931 
L 175.274074 163.458535 
L 179.768256 163.458535 
L 179.768256 159.626139 
L 184.45772 159.626139 
L 184.45772 155.793743 
L 186.314687 155.793743 
L 186.314687 151.961347 
L 186.915512 151.961347 
L 186.915512 148.12895 
L 221.615944 148.12895 
L 221.615944 144.296554 
L 241.193938 144.296554 
L 241.193938 140.464158 
L 295.471127 140.464158 
L 295.471127 136.631762 
L 295.853315 136.631762 
L 295.853315 132.799366 
L 300.510904 132.799366 
L 300.510904 128.96697 
L 300.74927 128.96697 
L 300.74927 125.134574 
L 300.861701 125.134574 
L 300.861701 121.302178 
L 304.15688 121.302178 
L 304.15688 117.469782 
L 308.138027 117.469782 
L 308.138027 113.637386 
L 332.267239 113.637386 
L 332.267239 109.80499 
L 333.02791 109.80499 
L 333.02791 105.972594 
L 335.066348 105.972594 
L 335.066348 102.140198 
L 358.05894 102.140198 
L 358.05894 98.307802 
L 360.063681 98.307802 
L 360.063681 94.475406 
L 364.987699 94.475406 
L 364.987699 90.64301 
L 367.774944 90.64301 
L 367.774944 86.810614 
L 379.625153 86.810614 
L 379.625153 82.978218 
L 381.174637 82.978218 
L 381.174637 79.145822 
L 395.852808 79.145822 
L 395.852808 75.313426 
L 399.005539 75.313426 
L 399.005539 71.48103 
L 399.974302 71.48103 
L 399.974302 67.648634 
L 416.67201 67.648634 
L 416.67201 63.816238 
L 420.023219 63.816238 
L 420.023219 59.983842 
L 425.174203 59.983842 
L 425.174203 56.151446 
L 425.750037 56.151446 
L 425.750037 52.31905 
L 425.750037 52.31905 
L 460.8 52.31905 
L 460.8 52.31905 
" style="fill:none;stroke:#000000;stroke-linecap:square;stroke-width:1.5;"/>
   </g>
   <g id="line2d_115">
    <defs>
     <path d="M 0 7.5 
C 1.989023 7.5 3.896849 6.709753 5.303301 5.303301 
C 6.709753 3.896849 7.5 1.989023 7.5 0 
C 7.5 -1.989023 6.709753 -3.896849 5.303301 -5.303301 
C 3.896849 -6.709753 1.989023 -7.5 0 -7.5 
C -1.989023 -7.5 -3.896849 -6.709753 -5.303301 -5.303301 
C -6.709753 -3.896849 -7.5 -1.989023 -7.5 0 
C -7.5 1.989023 -6.709753 3.896849 -5.303301 5.303301 
C -3.896849 6.709753 -1.989023 7.5 0 7.5 
z
" id="m8c0b50a37c" style="stroke:#000000;stroke-width:1.5;"/>
    </defs>
    <g clip-path="url(#p89cbfa8d01)">
     <use style="fill-opacity:0;stroke:#000000;stroke-width:1.5;" x="90.735012" xlink:href="#m8c0b50a37c" y="282.262812"/>
     <use style="fill-opacity:0;stroke:#000000;stroke-width:1.5;" x="148.80528" xlink:href="#m8c0b50a37c" y="232.441663"/>
     <use style="fill-opacity:0;stroke:#000000;stroke-width:1.5;" x="186.314687" xlink:href="#m8c0b50a37c" y="155.793743"/>
     <use style="fill-opacity:0;stroke:#000000;stroke-width:1.5;" x="300.74927" xlink:href="#m8c0b50a37c" y="128.96697"/>
     <use style="fill-opacity:0;stroke:#000000;stroke-width:1.5;" x="364.987699" xlink:href="#m8c0b50a37c" y="94.475406"/>
     <use style="fill-opacity:0;stroke:#000000;stroke-width:1.5;" x="420.023219" xlink:href="#m8c0b50a37c" y="63.816238"/>
     <use style="fill-opacity:0;stroke:#000000;stroke-width:1.5;" x="425.750037" xlink:href="#m8c0b50a37c" y="52.31905"/>
    </g>
   </g>
   <g id="line2d_116">
    <path clip-path="url(#p89cbfa8d01)" style="fill:none;stroke:#000000;stroke-linecap:square;stroke-width:1.5;"/>
   </g>
   <g id="line2d_117">
    <path clip-path="url(#p89cbfa8d01)" d="M 199.931251 293.76 
L 199.931251 289.927604 
L 219.419277 289.927604 
L 219.419277 286.095208 
L 230.161504 286.095208 
L 230.161504 282.262812 
L 254.057742 282.262812 
L 254.057742 278.430416 
L 258.827321 278.430416 
L 258.827321 274.59802 
L 262.153507 274.59802 
L 262.153507 270.765624 
L 268.176919 270.765624 
L 268.176919 266.933228 
L 269.561121 266.933228 
L 269.561121 263.100832 
L 281.099539 263.100832 
L 281.099539 259.268436 
L 287.05881 259.268436 
L 287.05881 255.43604 
L 289.579512 255.43604 
L 289.579512 251.603644 
L 305.482591 251.603644 
L 305.482591 247.771248 
L 313.556448 247.771248 
L 313.556448 243.938851 
L 328.314418 243.938851 
L 328.314418 240.106455 
L 342.028439 240.106455 
L 342.028439 236.274059 
L 347.622554 236.274059 
L 347.622554 232.441663 
L 350.841534 232.441663 
L 350.841534 228.609267 
L 352.642307 228.609267 
L 352.642307 224.776871 
L 360.584331 224.776871 
L 360.584331 220.944475 
L 364.416449 220.944475 
L 364.416449 217.112079 
L 367.447204 217.112079 
L 367.447204 213.279683 
L 370.679145 213.279683 
L 370.679145 209.447287 
L 377.215013 209.447287 
L 377.215013 205.614891 
L 377.834753 205.614891 
L 377.834753 201.782495 
L 377.967171 201.782495 
L 377.967171 197.950099 
L 379.30368 197.950099 
L 379.30368 194.117703 
L 386.691488 194.117703 
L 386.691488 190.285307 
L 401.932775 190.285307 
L 401.932775 186.452911 
L 404.73761 186.452911 
L 404.73761 182.620515 
L 405.902697 182.620515 
L 405.902697 178.788119 
L 410.469839 178.788119 
L 410.469839 174.955723 
L 415.613401 174.955723 
L 415.613401 171.123327 
L 426.665617 171.123327 
L 426.665617 167.290931 
L 427.987404 167.290931 
L 427.987404 163.458535 
L 429.339058 163.458535 
L 429.339058 159.626139 
L 434.903672 159.626139 
L 434.903672 155.793743 
L 434.903672 155.793743 
L 434.903672 155.793743 
L 460.8 155.793743 
" style="fill:none;stroke:#00bfbf;stroke-linecap:square;stroke-width:1.5;"/>
   </g>
   <g id="line2d_118">
    <defs>
     <path d="M 0 14.142136 
L 8.485281 0 
L 0 -14.142136 
L -8.485281 0 
z
" id="mf19e33fff7" style="stroke:#00bfbf;stroke-linejoin:miter;stroke-width:1.5;"/>
    </defs>
    <g clip-path="url(#p89cbfa8d01)">
     <use style="fill-opacity:0;stroke:#00bfbf;stroke-linejoin:miter;stroke-width:1.5;" x="219.419277" xlink:href="#mf19e33fff7" y="289.927604"/>
     <use style="fill-opacity:0;stroke:#00bfbf;stroke-linejoin:miter;stroke-width:1.5;" x="289.579512" xlink:href="#mf19e33fff7" y="255.43604"/>
     <use style="fill-opacity:0;stroke:#00bfbf;stroke-linejoin:miter;stroke-width:1.5;" x="370.679145" xlink:href="#mf19e33fff7" y="213.279683"/>
     <use style="fill-opacity:0;stroke:#00bfbf;stroke-linejoin:miter;stroke-width:1.5;" x="426.665617" xlink:href="#mf19e33fff7" y="171.123327"/>
     <use style="fill-opacity:0;stroke:#00bfbf;stroke-linejoin:miter;stroke-width:1.5;" x="434.903672" xlink:href="#mf19e33fff7" y="155.793743"/>
    </g>
   </g>
   <g id="line2d_119">
    <path clip-path="url(#p89cbfa8d01)" style="fill:none;stroke:#00bfbf;stroke-linecap:square;stroke-width:1.5;"/>
    <g clip-path="url(#p89cbfa8d01)">
     <use style="fill-opacity:0;stroke:#00bfbf;stroke-linejoin:miter;stroke-width:1.5;" x="-1" xlink:href="#mf19e33fff7" y="581.189703"/>
     <use style="fill-opacity:0;stroke:#00bfbf;stroke-linejoin:miter;stroke-width:1.5;" x="460.8" xlink:href="#mf19e33fff7" y="581.189703"/>
    </g>
   </g>
   <g id="line2d_120">
    <path clip-path="url(#p89cbfa8d01)" d="M 194.019524 293.76 
L 194.019524 289.927604 
L 211.480176 289.927604 
L 211.480176 286.095208 
L 218.598869 286.095208 
L 218.598869 282.262812 
L 222.041551 282.262812 
L 222.041551 278.430416 
L 227.653413 278.430416 
L 227.653413 274.59802 
L 237.05813 274.59802 
L 237.05813 270.765624 
L 239.010095 270.765624 
L 239.010095 266.933228 
L 261.800512 266.933228 
L 261.800512 263.100832 
L 300.321739 263.100832 
L 300.321739 259.268436 
L 301.99371 259.268436 
L 301.99371 255.43604 
L 302.259856 255.43604 
L 302.259856 251.603644 
L 302.356212 251.603644 
L 302.356212 247.771248 
L 305.959282 247.771248 
L 305.959282 243.938851 
L 307.664906 243.938851 
L 307.664906 240.106455 
L 309.656787 240.106455 
L 309.656787 236.274059 
L 310.137561 236.274059 
L 310.137561 232.441663 
L 310.365956 232.441663 
L 310.365956 228.609267 
L 311.267071 228.609267 
L 311.267071 224.776871 
L 316.534353 224.776871 
L 316.534353 220.944475 
L 318.539102 220.944475 
L 318.539102 217.112079 
L 326.36752 217.112079 
L 326.36752 213.279683 
L 333.141947 213.279683 
L 333.141947 209.447287 
L 335.277724 209.447287 
L 335.277724 205.614891 
L 337.498065 205.614891 
L 337.498065 201.782495 
L 338.077877 201.782495 
L 338.077877 197.950099 
L 338.394829 197.950099 
L 338.394829 194.117703 
L 340.780069 194.117703 
L 340.780069 190.285307 
L 348.709461 190.285307 
L 348.709461 186.452911 
L 349.520552 186.452911 
L 349.520552 182.620515 
L 351.919881 182.620515 
L 351.919881 178.788119 
L 358.660576 178.788119 
L 358.660576 174.955723 
L 359.005233 174.955723 
L 359.005233 171.123327 
L 360.411512 171.123327 
L 360.411512 167.290931 
L 384.367162 167.290931 
L 384.367162 163.458535 
L 384.675973 163.458535 
L 384.675973 159.626139 
L 386.002195 159.626139 
L 386.002195 155.793743 
L 392.339856 155.793743 
L 392.339856 151.961347 
L 404.062249 151.961347 
L 404.062249 148.12895 
L 409.263324 148.12895 
L 409.263324 144.296554 
L 419.242816 144.296554 
L 419.242816 140.464158 
L 420.170531 140.464158 
L 420.170531 136.631762 
L 420.870921 136.631762 
L 420.870921 132.799366 
L 424.087223 132.799366 
L 424.087223 128.96697 
L 425.12976 128.96697 
L 425.12976 125.134574 
L 436.85135 125.134574 
L 436.85135 121.302178 
L 436.85135 121.302178 
L 436.85135 121.302178 
L 460.8 121.302178 
" style="fill:none;stroke:#00bfbf;stroke-linecap:square;stroke-width:1.5;"/>
   </g>
   <g id="line2d_121">
    <defs>
     <path d="M 0 7.5 
C 1.989023 7.5 3.896849 6.709753 5.303301 5.303301 
C 6.709753 3.896849 7.5 1.989023 7.5 0 
C 7.5 -1.989023 6.709753 -3.896849 5.303301 -5.303301 
C 3.896849 -6.709753 1.989023 -7.5 0 -7.5 
C -1.989023 -7.5 -3.896849 -6.709753 -5.303301 -5.303301 
C -6.709753 -3.896849 -7.5 -1.989023 -7.5 0 
C -7.5 1.989023 -6.709753 3.896849 -5.303301 5.303301 
C -3.896849 6.709753 -1.989023 7.5 0 7.5 
z
" id="m32aa3080d5" style="stroke:#00bfbf;stroke-width:1.5;"/>
    </defs>
    <g clip-path="url(#p89cbfa8d01)">
     <use style="fill-opacity:0;stroke:#00bfbf;stroke-width:1.5;" x="227.653413" xlink:href="#m32aa3080d5" y="278.430416"/>
     <use style="fill-opacity:0;stroke:#00bfbf;stroke-width:1.5;" x="307.664906" xlink:href="#m32aa3080d5" y="243.938851"/>
     <use style="fill-opacity:0;stroke:#00bfbf;stroke-width:1.5;" x="338.394829" xlink:href="#m32aa3080d5" y="197.950099"/>
     <use style="fill-opacity:0;stroke:#00bfbf;stroke-width:1.5;" x="409.263324" xlink:href="#m32aa3080d5" y="148.12895"/>
     <use style="fill-opacity:0;stroke:#00bfbf;stroke-width:1.5;" x="436.85135" xlink:href="#m32aa3080d5" y="121.302178"/>
    </g>
   </g>
   <g id="line2d_122">
    <path clip-path="url(#p89cbfa8d01)" style="fill:none;stroke:#00bfbf;stroke-linecap:square;stroke-width:1.5;"/>
   </g>
   <g id="line2d_123">
    <path clip-path="url(#p89cbfa8d01)" d="M 224.9825 293.76 
L 224.9825 289.927604 
L 228.530657 289.927604 
L 228.530657 286.095208 
L 237.930723 286.095208 
L 237.930723 282.262812 
L 295.456903 282.262812 
L 295.456903 278.430416 
L 329.494616 278.430416 
L 329.494616 274.59802 
L 351.506507 274.59802 
L 351.506507 270.765624 
L 369.06279 270.765624 
L 369.06279 266.933228 
L 372.447488 266.933228 
L 372.447488 263.100832 
L 375.137978 263.100832 
L 375.137978 259.268436 
L 376.257561 259.268436 
L 376.257561 255.43604 
L 379.171779 255.43604 
L 379.171779 251.603644 
L 381.422021 251.603644 
L 381.422021 247.771248 
L 383.10483 247.771248 
L 383.10483 243.938851 
L 383.69585 243.938851 
L 383.69585 240.106455 
L 389.150785 240.106455 
L 389.150785 236.274059 
L 392.21942 236.274059 
L 392.21942 232.441663 
L 393.235366 232.441663 
L 393.235366 228.609267 
L 405.778109 228.609267 
L 405.778109 224.776871 
L 407.035708 224.776871 
L 407.035708 220.944475 
L 407.700652 220.944475 
L 407.700652 217.112079 
L 410.831814 217.112079 
L 410.831814 213.279683 
L 411.879693 213.279683 
L 411.879693 209.447287 
L 417.772594 209.447287 
L 417.772594 205.614891 
L 426.978377 205.614891 
L 426.978377 201.782495 
L 427.84794 201.782495 
L 427.84794 197.950099 
L 428.897868 197.950099 
L 428.897868 194.117703 
L 430.778565 194.117703 
L 430.778565 190.285307 
L 430.867679 190.285307 
L 430.867679 186.452911 
L 432.33286 186.452911 
L 432.33286 182.620515 
L 437.286136 182.620515 
L 437.286136 178.788119 
L 437.286136 178.788119 
L 437.286136 178.788119 
L 460.8 178.788119 
" style="fill:none;stroke:#bf00bf;stroke-linecap:square;stroke-width:1.5;"/>
   </g>
   <g id="line2d_124">
    <defs>
     <path d="M 0 14.142136 
L 8.485281 0 
L 0 -14.142136 
L -8.485281 0 
z
" id="m1ba77efb2f" style="stroke:#bf00bf;stroke-linejoin:miter;stroke-width:1.5;"/>
    </defs>
    <g clip-path="url(#p89cbfa8d01)">
     <use style="fill-opacity:0;stroke:#bf00bf;stroke-linejoin:miter;stroke-width:1.5;" x="237.930723" xlink:href="#m1ba77efb2f" y="286.095208"/>
     <use style="fill-opacity:0;stroke:#bf00bf;stroke-linejoin:miter;stroke-width:1.5;" x="329.494616" xlink:href="#m1ba77efb2f" y="278.430416"/>
     <use style="fill-opacity:0;stroke:#bf00bf;stroke-linejoin:miter;stroke-width:1.5;" x="392.21942" xlink:href="#m1ba77efb2f" y="236.274059"/>
     <use style="fill-opacity:0;stroke:#bf00bf;stroke-linejoin:miter;stroke-width:1.5;" x="437.286136" xlink:href="#m1ba77efb2f" y="182.620515"/>
     <use style="fill-opacity:0;stroke:#bf00bf;stroke-linejoin:miter;stroke-width:1.5;" x="437.286136" xlink:href="#m1ba77efb2f" y="178.788119"/>
    </g>
   </g>
   <g id="line2d_125">
    <path clip-path="url(#p89cbfa8d01)" style="fill:none;stroke:#bf00bf;stroke-linecap:square;stroke-width:1.5;"/>
    <g clip-path="url(#p89cbfa8d01)">
     <use style="fill-opacity:0;stroke:#bf00bf;stroke-linejoin:miter;stroke-width:1.5;" x="-1" xlink:href="#m1ba77efb2f" y="581.189703"/>
     <use style="fill-opacity:0;stroke:#bf00bf;stroke-linejoin:miter;stroke-width:1.5;" x="460.8" xlink:href="#m1ba77efb2f" y="581.189703"/>
    </g>
   </g>
   <g id="line2d_126">
    <path clip-path="url(#p89cbfa8d01)" d="M 194.019524 293.76 
L 194.019524 289.927604 
L 225.061267 289.927604 
L 225.061267 286.095208 
L 226.377745 286.095208 
L 226.377745 282.262812 
L 230.713939 282.262812 
L 230.713939 278.430416 
L 303.436665 278.430416 
L 303.436665 274.59802 
L 304.694573 274.59802 
L 304.694573 270.765624 
L 317.735637 270.765624 
L 317.735637 266.933228 
L 331.822813 266.933228 
L 331.822813 263.100832 
L 336.481693 263.100832 
L 336.481693 259.268436 
L 336.654584 259.268436 
L 336.654584 255.43604 
L 339.663083 255.43604 
L 339.663083 251.603644 
L 339.823137 251.603644 
L 339.823137 247.771248 
L 341.287707 247.771248 
L 341.287707 243.938851 
L 350.484432 243.938851 
L 350.484432 240.106455 
L 352.525151 240.106455 
L 352.525151 236.274059 
L 357.255508 236.274059 
L 357.255508 232.441663 
L 361.523507 232.441663 
L 361.523507 228.609267 
L 362.147306 228.609267 
L 362.147306 224.776871 
L 363.194767 224.776871 
L 363.194767 220.944475 
L 377.419396 220.944475 
L 377.419396 217.112079 
L 385.999042 217.112079 
L 385.999042 213.279683 
L 386.137524 213.279683 
L 386.137524 209.447287 
L 387.352652 209.447287 
L 387.352652 205.614891 
L 394.738621 205.614891 
L 394.738621 201.782495 
L 397.345249 201.782495 
L 397.345249 197.950099 
L 398.801629 197.950099 
L 398.801629 194.117703 
L 401.343124 194.117703 
L 401.343124 190.285307 
L 401.460216 190.285307 
L 401.460216 186.452911 
L 403.658833 186.452911 
L 403.658833 182.620515 
L 407.572999 182.620515 
L 407.572999 178.788119 
L 412.024843 178.788119 
L 412.024843 174.955723 
L 420.739656 174.955723 
L 420.739656 171.123327 
L 422.297004 171.123327 
L 422.297004 167.290931 
L 424.627211 167.290931 
L 424.627211 163.458535 
L 424.870059 163.458535 
L 424.870059 159.626139 
L 425.804004 159.626139 
L 425.804004 155.793743 
L 428.746958 155.793743 
L 428.746958 151.961347 
L 438.375945 151.961347 
L 438.375945 148.12895 
L 438.375945 148.12895 
L 438.375945 148.12895 
L 460.8 148.12895 
" style="fill:none;stroke:#bf00bf;stroke-linecap:square;stroke-width:1.5;"/>
   </g>
   <g id="line2d_127">
    <defs>
     <path d="M 0 7.5 
C 1.989023 7.5 3.896849 6.709753 5.303301 5.303301 
C 6.709753 3.896849 7.5 1.989023 7.5 0 
C 7.5 -1.989023 6.709753 -3.896849 5.303301 -5.303301 
C 3.896849 -6.709753 1.989023 -7.5 0 -7.5 
C -1.989023 -7.5 -3.896849 -6.709753 -5.303301 -5.303301 
C -6.709753 -3.896849 -7.5 -1.989023 -7.5 0 
C -7.5 1.989023 -6.709753 3.896849 -5.303301 5.303301 
C -3.896849 6.709753 -1.989023 7.5 0 7.5 
z
" id="me205796ad3" style="stroke:#bf00bf;stroke-width:1.5;"/>
    </defs>
    <g clip-path="url(#p89cbfa8d01)">
     <use style="fill-opacity:0;stroke:#bf00bf;stroke-width:1.5;" x="230.713939" xlink:href="#me205796ad3" y="282.262812"/>
     <use style="fill-opacity:0;stroke:#bf00bf;stroke-width:1.5;" x="352.525151" xlink:href="#me205796ad3" y="240.106455"/>
     <use style="fill-opacity:0;stroke:#bf00bf;stroke-width:1.5;" x="403.658833" xlink:href="#me205796ad3" y="186.452911"/>
     <use style="fill-opacity:0;stroke:#bf00bf;stroke-width:1.5;" x="438.375945" xlink:href="#me205796ad3" y="151.961347"/>
     <use style="fill-opacity:0;stroke:#bf00bf;stroke-width:1.5;" x="438.375945" xlink:href="#me205796ad3" y="148.12895"/>
    </g>
   </g>
   <g id="line2d_128">
    <path clip-path="url(#p89cbfa8d01)" style="fill:none;stroke:#bf00bf;stroke-linecap:square;stroke-width:1.5;"/>
   </g>
   <g id="line2d_129">
    <path clip-path="url(#p89cbfa8d01)" d="M 250.5262 293.76 
L 250.5262 289.927604 
L 268.698059 289.927604 
L 268.698059 286.095208 
L 270.563041 286.095208 
L 270.563041 282.262812 
L 318.741581 282.262812 
L 318.741581 278.430416 
L 332.29631 278.430416 
L 332.29631 274.59802 
L 356.822218 274.59802 
L 356.822218 270.765624 
L 371.86496 270.765624 
L 371.86496 266.933228 
L 375.405962 266.933228 
L 375.405962 263.100832 
L 375.745079 263.100832 
L 375.745079 259.268436 
L 380.117254 259.268436 
L 380.117254 255.43604 
L 380.938236 255.43604 
L 380.938236 251.603644 
L 383.877157 251.603644 
L 383.877157 247.771248 
L 386.492607 247.771248 
L 386.492607 243.938851 
L 387.338922 243.938851 
L 387.338922 240.106455 
L 390.493822 240.106455 
L 390.493822 236.274059 
L 393.960095 236.274059 
L 393.960095 232.441663 
L 395.264261 232.441663 
L 395.264261 228.609267 
L 407.577665 228.609267 
L 407.577665 224.776871 
L 408.23398 224.776871 
L 408.23398 220.944475 
L 409.91731 220.944475 
L 409.91731 217.112079 
L 413.441579 217.112079 
L 413.441579 213.279683 
L 414.089475 213.279683 
L 414.089475 209.447287 
L 419.360019 209.447287 
L 419.360019 205.614891 
L 428.798251 205.614891 
L 428.798251 201.782495 
L 430.103448 201.782495 
L 430.103448 197.950099 
L 431.161762 197.950099 
L 431.161762 194.117703 
L 431.992957 194.117703 
L 431.992957 190.285307 
L 433.289609 190.285307 
L 433.289609 186.452911 
L 435.112582 186.452911 
L 435.112582 182.620515 
L 438.767895 182.620515 
L 438.767895 178.788119 
L 438.767895 178.788119 
L 438.767895 178.788119 
L 460.8 178.788119 
" style="fill:none;stroke:#ff0000;stroke-linecap:square;stroke-width:3;"/>
   </g>
   <g id="line2d_130">
    <defs>
     <path d="M 0 14.142136 
L 8.485281 0 
L 0 -14.142136 
L -8.485281 0 
z
" id="ma62ed5ab88" style="stroke:#ff0000;stroke-linejoin:miter;stroke-width:3;"/>
    </defs>
    <g clip-path="url(#p89cbfa8d01)">
     <use style="fill-opacity:0;stroke:#ff0000;stroke-linejoin:miter;stroke-width:3;" x="318.741581" xlink:href="#ma62ed5ab88" y="282.262812"/>
     <use style="fill-opacity:0;stroke:#ff0000;stroke-linejoin:miter;stroke-width:3;" x="387.338922" xlink:href="#ma62ed5ab88" y="243.938851"/>
     <use style="fill-opacity:0;stroke:#ff0000;stroke-linejoin:miter;stroke-width:3;" x="435.112582" xlink:href="#ma62ed5ab88" y="186.452911"/>
     <use style="fill-opacity:0;stroke:#ff0000;stroke-linejoin:miter;stroke-width:3;" x="438.767895" xlink:href="#ma62ed5ab88" y="178.788119"/>
    </g>
   </g>
   <g id="line2d_131">
    <path clip-path="url(#p89cbfa8d01)" style="fill:none;stroke:#ff0000;stroke-linecap:square;stroke-width:3;"/>
    <g clip-path="url(#p89cbfa8d01)">
     <use style="fill-opacity:0;stroke:#ff0000;stroke-linejoin:miter;stroke-width:3;" x="-1" xlink:href="#ma62ed5ab88" y="581.189703"/>
     <use style="fill-opacity:0;stroke:#ff0000;stroke-linejoin:miter;stroke-width:3;" x="460.8" xlink:href="#ma62ed5ab88" y="581.189703"/>
    </g>
   </g>
   <g id="line2d_132">
    <path clip-path="url(#p89cbfa8d01)" d="M 233.690352 293.76 
L 233.690352 289.927604 
L 235.865125 289.927604 
L 235.865125 286.095208 
L 238.217524 286.095208 
L 238.217524 282.262812 
L 255.846578 282.262812 
L 255.846578 278.430416 
L 307.293126 278.430416 
L 307.293126 274.59802 
L 307.875854 274.59802 
L 307.875854 270.765624 
L 319.833818 270.765624 
L 319.833818 266.933228 
L 336.46594 266.933228 
L 336.46594 263.100832 
L 338.00711 263.100832 
L 338.00711 259.268436 
L 339.184067 259.268436 
L 339.184067 255.43604 
L 340.987641 255.43604 
L 340.987641 251.603644 
L 341.756843 251.603644 
L 341.756843 247.771248 
L 342.886591 247.771248 
L 342.886591 243.938851 
L 354.763425 243.938851 
L 354.763425 240.106455 
L 355.085402 240.106455 
L 355.085402 236.274059 
L 360.855276 236.274059 
L 360.855276 232.441663 
L 364.041914 232.441663 
L 364.041914 228.609267 
L 364.586537 228.609267 
L 364.586537 224.776871 
L 367.141765 224.776871 
L 367.141765 220.944475 
L 381.627629 220.944475 
L 381.627629 217.112079 
L 388.791497 217.112079 
L 388.791497 213.279683 
L 389.030882 213.279683 
L 389.030882 209.447287 
L 390.039089 209.447287 
L 390.039089 205.614891 
L 396.06442 205.614891 
L 396.06442 201.782495 
L 401.41472 201.782495 
L 401.41472 197.950099 
L 402.684698 197.950099 
L 402.684698 194.117703 
L 405.26707 194.117703 
L 405.26707 190.285307 
L 405.480693 190.285307 
L 405.480693 186.452911 
L 406.739656 186.452911 
L 406.739656 182.620515 
L 409.683921 182.620515 
L 409.683921 178.788119 
L 414.154741 178.788119 
L 414.154741 174.955723 
L 422.147955 174.955723 
L 422.147955 171.123327 
L 425.936224 171.123327 
L 425.936224 167.290931 
L 426.473277 167.290931 
L 426.473277 163.458535 
L 426.694361 163.458535 
L 426.694361 159.626139 
L 427.097592 159.626139 
L 427.097592 155.793743 
L 430.296781 155.793743 
L 430.296781 151.961347 
L 439.5309 151.961347 
L 439.5309 148.12895 
L 439.5309 148.12895 
L 439.5309 148.12895 
L 460.8 148.12895 
" style="fill:none;stroke:#ff0000;stroke-linecap:square;stroke-width:3;"/>
   </g>
   <g id="line2d_133">
    <defs>
     <path d="M 0 7.5 
C 1.989023 7.5 3.896849 6.709753 5.303301 5.303301 
C 6.709753 3.896849 7.5 1.989023 7.5 0 
C 7.5 -1.989023 6.709753 -3.896849 5.303301 -5.303301 
C 3.896849 -6.709753 1.989023 -7.5 0 -7.5 
C -1.989023 -7.5 -3.896849 -6.709753 -5.303301 -5.303301 
C -6.709753 -3.896849 -7.5 -1.989023 -7.5 0 
C -7.5 1.989023 -6.709753 3.896849 -5.303301 5.303301 
C -3.896849 6.709753 -1.989023 7.5 0 7.5 
z
" id="m40b1066bcf" style="stroke:#ff0000;stroke-width:3;"/>
    </defs>
    <g clip-path="url(#p89cbfa8d01)">
     <use style="fill-opacity:0;stroke:#ff0000;stroke-width:3;" x="307.875854" xlink:href="#m40b1066bcf" y="274.59802"/>
     <use style="fill-opacity:0;stroke:#ff0000;stroke-width:3;" x="364.586537" xlink:href="#m40b1066bcf" y="228.609267"/>
     <use style="fill-opacity:0;stroke:#ff0000;stroke-width:3;" x="405.480693" xlink:href="#m40b1066bcf" y="190.285307"/>
     <use style="fill-opacity:0;stroke:#ff0000;stroke-width:3;" x="439.5309" xlink:href="#m40b1066bcf" y="151.961347"/>
     <use style="fill-opacity:0;stroke:#ff0000;stroke-width:3;" x="439.5309" xlink:href="#m40b1066bcf" y="148.12895"/>
    </g>
   </g>
   <g id="line2d_134">
    <path clip-path="url(#p89cbfa8d01)" style="fill:none;stroke:#ff0000;stroke-linecap:square;stroke-width:3;"/>
   </g>
   <g id="line2d_135">
    <path clip-path="url(#p89cbfa8d01)" d="M 441.777176 293.76 
L 441.777176 3.456 
" style="fill:none;stroke:#000000;stroke-linecap:square;stroke-width:1.5;"/>
    <defs>
     <path d="M -10 0 
L 10 0 
M 0 10 
L 0 -10 
" id="mbe7a59dd1c" style="stroke:#000000;stroke-width:3;"/>
    </defs>
    <g clip-path="url(#p89cbfa8d01)">
     <use style="stroke:#000000;stroke-width:3;" x="441.777176" xlink:href="#mbe7a59dd1c" y="293.76"/>
     <use style="stroke:#000000;stroke-width:3;" x="441.777176" xlink:href="#mbe7a59dd1c" y="3.456"/>
    </g>
   </g>
   <g id="line2d_136">
    <path clip-path="url(#p89cbfa8d01)" d="M 441.762133 293.76 
L 441.762133 3.456 
" style="fill:none;stroke:#000000;stroke-linecap:square;stroke-width:1.5;"/>
    <defs>
     <path d="M 0 7.5 
C 1.989023 7.5 3.896849 6.709753 5.303301 5.303301 
C 6.709753 3.896849 7.5 1.989023 7.5 0 
C 7.5 -1.989023 6.709753 -3.896849 5.303301 -5.303301 
C 3.896849 -6.709753 1.989023 -7.5 0 -7.5 
C -1.989023 -7.5 -3.896849 -6.709753 -5.303301 -5.303301 
C -6.709753 -3.896849 -7.5 -1.989023 -7.5 0 
C -7.5 1.989023 -6.709753 3.896849 -5.303301 5.303301 
C -3.896849 6.709753 -1.989023 7.5 0 7.5 
z
" id="m21e5b254fc" style="stroke:#000000;stroke-width:3;"/>
    </defs>
    <g clip-path="url(#p89cbfa8d01)">
     <use style="fill-opacity:0;stroke:#000000;stroke-width:3;" x="441.762133" xlink:href="#m21e5b254fc" y="293.76"/>
     <use style="fill-opacity:0;stroke:#000000;stroke-width:3;" x="441.762133" xlink:href="#m21e5b254fc" y="3.456"/>
    </g>
   </g>
   <g id="patch_3">
    <path d="M 62.208 293.76 
L 62.208 3.456 
" style="fill:none;stroke:#000000;stroke-linecap:square;stroke-linejoin:miter;stroke-width:0.8;"/>
   </g>
   <g id="patch_4">
    <path d="M 460.8 293.76 
L 460.8 3.456 
" style="fill:none;stroke:#000000;stroke-linecap:square;stroke-linejoin:miter;stroke-width:0.8;"/>
   </g>
   <g id="patch_5">
    <path d="M 62.208 293.76 
L 460.8 293.76 
" style="fill:none;stroke:#000000;stroke-linecap:square;stroke-linejoin:miter;stroke-width:0.8;"/>
   </g>
   <g id="patch_6">
    <path d="M 62.208 3.456 
L 460.8 3.456 
" style="fill:none;stroke:#000000;stroke-linecap:square;stroke-linejoin:miter;stroke-width:0.8;"/>
   </g>
   <g id="text_11">
    <!-- f20-f24 -->
    <g transform="translate(225.405563 24.458955)scale(0.2 -0.2)">
     <defs>
      <path d="M 313 2009 
L 1997 2009 
L 1997 1497 
L 313 1497 
L 313 2009 
z
" id="DejaVuSans-2d" transform="scale(0.015625)"/>
     </defs>
     <use xlink:href="#DejaVuSans-66"/>
     <use x="35.205078" xlink:href="#DejaVuSans-32"/>
     <use x="98.828125" xlink:href="#DejaVuSans-30"/>
     <use x="162.451172" xlink:href="#DejaVuSans-2d"/>
     <use x="198.535156" xlink:href="#DejaVuSans-66"/>
     <use x="233.740234" xlink:href="#DejaVuSans-32"/>
     <use x="297.363281" xlink:href="#DejaVuSans-34"/>
    </g>
   </g>
   <g id="text_12">
    <!-- absolute targets -->
    <g transform="translate(62.208 607.633236)scale(0.14 -0.14)">
     <defs>
      <path d="M 3116 1747 
Q 3116 2381 2855 2742 
Q 2594 3103 2138 3103 
Q 1681 3103 1420 2742 
Q 1159 2381 1159 1747 
Q 1159 1113 1420 752 
Q 1681 391 2138 391 
Q 2594 391 2855 752 
Q 3116 1113 3116 1747 
z
M 1159 2969 
Q 1341 3281 1617 3432 
Q 1894 3584 2278 3584 
Q 2916 3584 3314 3078 
Q 3713 2572 3713 1747 
Q 3713 922 3314 415 
Q 2916 -91 2278 -91 
Q 1894 -91 1617 61 
Q 1341 213 1159 525 
L 1159 0 
L 581 0 
L 581 4863 
L 1159 4863 
L 1159 2969 
z
" id="DejaVuSans-62" transform="scale(0.015625)"/>
      <path d="M 544 1381 
L 544 3500 
L 1119 3500 
L 1119 1403 
Q 1119 906 1312 657 
Q 1506 409 1894 409 
Q 2359 409 2629 706 
Q 2900 1003 2900 1516 
L 2900 3500 
L 3475 3500 
L 3475 0 
L 2900 0 
L 2900 538 
Q 2691 219 2414 64 
Q 2138 -91 1772 -91 
Q 1169 -91 856 284 
Q 544 659 544 1381 
z
M 1991 3584 
L 1991 3584 
z
" id="DejaVuSans-75" transform="scale(0.015625)"/>
      <path d="M 3597 1894 
L 3597 1613 
L 953 1613 
Q 991 1019 1311 708 
Q 1631 397 2203 397 
Q 2534 397 2845 478 
Q 3156 559 3463 722 
L 3463 178 
Q 3153 47 2828 -22 
Q 2503 -91 2169 -91 
Q 1331 -91 842 396 
Q 353 884 353 1716 
Q 353 2575 817 3079 
Q 1281 3584 2069 3584 
Q 2775 3584 3186 3129 
Q 3597 2675 3597 1894 
z
M 3022 2063 
Q 3016 2534 2758 2815 
Q 2500 3097 2075 3097 
Q 1594 3097 1305 2825 
Q 1016 2553 972 2059 
L 3022 2063 
z
" id="DejaVuSans-65" transform="scale(0.015625)"/>
     </defs>
     <use xlink:href="#DejaVuSans-61"/>
     <use x="61.279297" xlink:href="#DejaVuSans-62"/>
     <use x="124.755859" xlink:href="#DejaVuSans-73"/>
     <use x="176.855469" xlink:href="#DejaVuSans-6f"/>
     <use x="238.037109" xlink:href="#DejaVuSans-6c"/>
     <use x="265.820312" xlink:href="#DejaVuSans-75"/>
     <use x="329.199219" xlink:href="#DejaVuSans-74"/>
     <use x="368.408203" xlink:href="#DejaVuSans-65"/>
     <use x="429.931641" xlink:href="#DejaVuSans-20"/>
     <use x="461.71875" xlink:href="#DejaVuSans-74"/>
     <use x="500.927734" xlink:href="#DejaVuSans-61"/>
     <use x="562.207031" xlink:href="#DejaVuSans-72"/>
     <use x="601.570312" xlink:href="#DejaVuSans-67"/>
     <use x="665.046875" xlink:href="#DejaVuSans-65"/>
     <use x="726.570312" xlink:href="#DejaVuSans-74"/>
     <use x="765.779297" xlink:href="#DejaVuSans-73"/>
    </g>
   </g>
   <g id="text_13">
    <!-- v2.6.3 -->
    <g style="fill:#808080;" transform="translate(245.82275 288.777272)scale(0.1 -0.1)">
     <use xlink:href="#DejaVuSans-76"/>
     <use x="59.179688" xlink:href="#DejaVuSans-32"/>
     <use x="122.802734" xlink:href="#DejaVuSans-2e"/>
     <use x="154.589844" xlink:href="#DejaVuSans-36"/>
     <use x="218.212891" xlink:href="#DejaVuSans-2e"/>
     <use x="250" xlink:href="#DejaVuSans-33"/>
    </g>
   </g>
   <g id="legend_1">
    <g id="patch_7">
     <path d="M 76.208 136.881 
L 160.148625 136.881 
Q 164.148625 136.881 164.148625 132.881 
L 164.148625 17.456 
Q 164.148625 13.456 160.148625 13.456 
L 76.208 13.456 
Q 72.208 13.456 72.208 17.456 
L 72.208 132.881 
Q 72.208 136.881 76.208 136.881 
z
" style="fill:#ffffff;opacity:0.2;stroke:#cccccc;stroke-linejoin:miter;"/>
    </g>
    <g id="line2d_137">
     <path d="M 80.208 29.652875 
L 120.208 29.652875 
" style="fill:none;stroke:#000000;stroke-linecap:square;stroke-width:1.5;"/>
    </g>
    <g id="line2d_138"/>
    <g id="text_14">
     <!-- 1 -->
     <g transform="translate(136.208 36.652875)scale(0.2 -0.2)">
      <use xlink:href="#DejaVuSans-31"/>
     </g>
    </g>
    <g id="line2d_139">
     <path d="M 80.208 59.009125 
L 120.208 59.009125 
" style="fill:none;stroke:#00bfbf;stroke-linecap:square;stroke-width:1.5;"/>
    </g>
    <g id="line2d_140"/>
    <g id="text_15">
     <!-- -1 -->
     <g transform="translate(136.208 66.009125)scale(0.2 -0.2)">
      <use xlink:href="#DejaVuSans-2d"/>
      <use x="36.083984" xlink:href="#DejaVuSans-31"/>
     </g>
    </g>
    <g id="line2d_141">
     <path d="M 80.208 88.365375 
L 120.208 88.365375 
" style="fill:none;stroke:#bf00bf;stroke-linecap:square;stroke-width:1.5;"/>
    </g>
    <g id="line2d_142"/>
    <g id="text_16">
     <!-- -4 -->
     <g transform="translate(136.208 95.365375)scale(0.2 -0.2)">
      <use xlink:href="#DejaVuSans-2d"/>
      <use x="36.083984" xlink:href="#DejaVuSans-34"/>
     </g>
    </g>
    <g id="line2d_143">
     <path d="M 80.208 117.721625 
L 120.208 117.721625 
" style="fill:none;stroke:#ff0000;stroke-linecap:square;stroke-width:3;"/>
    </g>
    <g id="line2d_144"/>
    <g id="text_17">
     <!-- -8 -->
     <g transform="translate(136.208 124.721625)scale(0.2 -0.2)">
      <use xlink:href="#DejaVuSans-2d"/>
      <use x="36.083984" xlink:href="#DejaVuSans-38"/>
     </g>
    </g>
   </g>
  </g>
 </g>
 <defs>
  <clipPath id="p89cbfa8d01">
   <rect height="290.304" width="398.592" x="62.208" y="3.456"/>
  </clipPath>
 </defs>
</svg>
