<?xml version="1.0" encoding="utf-8" standalone="no"?>
<!DOCTYPE svg PUBLIC "-//W3C//DTD SVG 1.1//EN"
  "http://www.w3.org/Graphics/SVG/1.1/DTD/svg11.dtd">
<svg height="353.782812pt" version="1.1" viewBox="0 0 328.469062 353.782812" width="328.469062pt" xmlns="http://www.w3.org/2000/svg" xmlns:xlink="http://www.w3.org/1999/xlink">
 <metadata>
  <rdf:RDF xmlns:cc="http://creativecommons.org/ns#" xmlns:dc="http://purl.org/dc/elements/1.1/" xmlns:rdf="http://www.w3.org/1999/02/22-rdf-syntax-ns#">
   <cc:Work>
    <dc:type rdf:resource="http://purl.org/dc/dcmitype/StillImage"/>
    <dc:date>2023-04-17T18:04:40.091022</dc:date>
    <dc:format>image/svg+xml</dc:format>
    <dc:creator>
     <cc:Agent>
      <dc:title>Matplotlib v3.4.1, https://matplotlib.org/</dc:title>
     </cc:Agent>
    </dc:creator>
   </cc:Work>
  </rdf:RDF>
 </metadata>
 <defs>
  <style type="text/css">*{stroke-linecap:butt;stroke-linejoin:round;}</style>
 </defs>
 <g id="figure_1">
  <g id="patch_1">
   <path d="M 0 353.782812 
L 328.469062 353.782812 
L 328.469062 0 
L 0 0 
z
" style="fill:#ffffff;"/>
  </g>
  <g id="axes_1">
   <g id="patch_2">
    <path d="M 45.469063 302.677187 
L 321.269063 302.677187 
L 321.269063 26.877187 
L 45.469063 26.877187 
z
" style="fill:#ffffff;"/>
   </g>
   <g id="line2d_1">
    <path clip-path="url(#pf828893ede)" d="M 187.799269 202.957011 
L 187.799269 164.019921 
" style="fill:none;stroke:#00bfbf;stroke-linecap:square;stroke-width:1.5;"/>
   </g>
   <g id="line2d_2">
    <path clip-path="url(#pf828893ede)" d="M 148.862179 164.019921 
L 187.799269 164.019921 
" style="fill:none;stroke:#00bfbf;stroke-linecap:square;stroke-width:1.5;"/>
   </g>
   <g id="line2d_3">
    <path clip-path="url(#pf828893ede)" d="M 217.832899 196.625737 
L 217.832899 157.688648 
" style="fill:none;stroke:#008000;stroke-linecap:square;stroke-width:1.5;"/>
   </g>
   <g id="line2d_4">
    <path clip-path="url(#pf828893ede)" d="M 178.895809 157.688648 
L 217.832899 157.688648 
" style="fill:none;stroke:#008000;stroke-linecap:square;stroke-width:1.5;"/>
   </g>
   <g id="line2d_5">
    <path clip-path="url(#pf828893ede)" d="M 246.142081 158.713513 
L 246.142081 119.776423 
" style="fill:none;stroke:#0000ff;stroke-linecap:square;stroke-width:1.5;"/>
   </g>
   <g id="line2d_6">
    <path clip-path="url(#pf828893ede)" d="M 207.204991 119.776423 
L 246.142081 119.776423 
" style="fill:none;stroke:#0000ff;stroke-linecap:square;stroke-width:1.5;"/>
   </g>
   <g id="line2d_7">
    <path clip-path="url(#pf828893ede)" d="M 274.060951 124.417115 
L 274.060951 85.480026 
" style="fill:none;stroke:#000000;stroke-linecap:square;stroke-width:1.5;"/>
   </g>
   <g id="line2d_8">
    <path clip-path="url(#pf828893ede)" d="M 235.123861 85.480026 
L 274.060951 85.480026 
" style="fill:none;stroke:#000000;stroke-linecap:square;stroke-width:1.5;"/>
   </g>
   <g id="line2d_9">
    <path clip-path="url(#pf828893ede)" d="M 286.342264 100.719715 
L 286.342264 61.782626 
" style="fill:none;stroke:#ff0000;stroke-linecap:square;stroke-width:1.5;"/>
   </g>
   <g id="line2d_10">
    <path clip-path="url(#pf828893ede)" d="M 247.405174 61.782626 
L 286.342264 61.782626 
" style="fill:none;stroke:#ff0000;stroke-linecap:square;stroke-width:1.5;"/>
   </g>
   <g id="matplotlib.axis_1">
    <g id="xtick_1">
     <g id="line2d_11">
      <path clip-path="url(#pf828893ede)" d="M 127.077436 302.677187 
L 127.077436 26.877187 
" style="fill:none;stroke:#b0b0b0;stroke-linecap:square;stroke-width:0.8;"/>
     </g>
     <g id="line2d_12">
      <defs>
       <path d="M 0 0 
L 0 3.5 
" id="m35136bbba4" style="stroke:#000000;stroke-width:0.8;"/>
      </defs>
      <g>
       <use style="stroke:#000000;stroke-width:0.8;" x="127.077436" xlink:href="#m35136bbba4" y="302.677187"/>
      </g>
     </g>
     <g id="text_1">
      <!-- 2 -->
      <g transform="translate(121.669311 322.594531)scale(0.17 -0.17)">
       <defs>
        <path d="M 1228 531 
L 3431 531 
L 3431 0 
L 469 0 
L 469 531 
Q 828 903 1448 1529 
Q 2069 2156 2228 2338 
Q 2531 2678 2651 2914 
Q 2772 3150 2772 3378 
Q 2772 3750 2511 3984 
Q 2250 4219 1831 4219 
Q 1534 4219 1204 4116 
Q 875 4013 500 3803 
L 500 4441 
Q 881 4594 1212 4672 
Q 1544 4750 1819 4750 
Q 2544 4750 2975 4387 
Q 3406 4025 3406 3419 
Q 3406 3131 3298 2873 
Q 3191 2616 2906 2266 
Q 2828 2175 2409 1742 
Q 1991 1309 1228 531 
z
" id="DejaVuSans-32" transform="scale(0.015625)"/>
       </defs>
       <use xlink:href="#DejaVuSans-32"/>
      </g>
     </g>
    </g>
    <g id="xtick_2">
     <g id="line2d_13">
      <path clip-path="url(#pf828893ede)" d="M 208.68581 302.677187 
L 208.68581 26.877187 
" style="fill:none;stroke:#b0b0b0;stroke-linecap:square;stroke-width:0.8;"/>
     </g>
     <g id="line2d_14">
      <g>
       <use style="stroke:#000000;stroke-width:0.8;" x="208.68581" xlink:href="#m35136bbba4" y="302.677187"/>
      </g>
     </g>
     <g id="text_2">
      <!-- 4 -->
      <g transform="translate(203.277685 322.594531)scale(0.17 -0.17)">
       <defs>
        <path d="M 2419 4116 
L 825 1625 
L 2419 1625 
L 2419 4116 
z
M 2253 4666 
L 3047 4666 
L 3047 1625 
L 3713 1625 
L 3713 1100 
L 3047 1100 
L 3047 0 
L 2419 0 
L 2419 1100 
L 313 1100 
L 313 1709 
L 2253 4666 
z
" id="DejaVuSans-34" transform="scale(0.015625)"/>
       </defs>
       <use xlink:href="#DejaVuSans-34"/>
      </g>
     </g>
    </g>
    <g id="xtick_3">
     <g id="line2d_15">
      <path clip-path="url(#pf828893ede)" d="M 290.294184 302.677187 
L 290.294184 26.877187 
" style="fill:none;stroke:#b0b0b0;stroke-linecap:square;stroke-width:0.8;"/>
     </g>
     <g id="line2d_16">
      <g>
       <use style="stroke:#000000;stroke-width:0.8;" x="290.294184" xlink:href="#m35136bbba4" y="302.677187"/>
      </g>
     </g>
     <g id="text_3">
      <!-- 6 -->
      <g transform="translate(284.886059 322.594531)scale(0.17 -0.17)">
       <defs>
        <path d="M 2113 2584 
Q 1688 2584 1439 2293 
Q 1191 2003 1191 1497 
Q 1191 994 1439 701 
Q 1688 409 2113 409 
Q 2538 409 2786 701 
Q 3034 994 3034 1497 
Q 3034 2003 2786 2293 
Q 2538 2584 2113 2584 
z
M 3366 4563 
L 3366 3988 
Q 3128 4100 2886 4159 
Q 2644 4219 2406 4219 
Q 1781 4219 1451 3797 
Q 1122 3375 1075 2522 
Q 1259 2794 1537 2939 
Q 1816 3084 2150 3084 
Q 2853 3084 3261 2657 
Q 3669 2231 3669 1497 
Q 3669 778 3244 343 
Q 2819 -91 2113 -91 
Q 1303 -91 875 529 
Q 447 1150 447 2328 
Q 447 3434 972 4092 
Q 1497 4750 2381 4750 
Q 2619 4750 2861 4703 
Q 3103 4656 3366 4563 
z
" id="DejaVuSans-36" transform="scale(0.015625)"/>
       </defs>
       <use xlink:href="#DejaVuSans-36"/>
      </g>
     </g>
    </g>
    <g id="text_4">
     <!-- log10(ERT of CMA-ES-pycma) -->
     <g transform="translate(59.130938 343.047344)scale(0.17 -0.17)">
      <defs>
       <path d="M 603 4863 
L 1178 4863 
L 1178 0 
L 603 0 
L 603 4863 
z
" id="DejaVuSans-6c" transform="scale(0.015625)"/>
       <path d="M 1959 3097 
Q 1497 3097 1228 2736 
Q 959 2375 959 1747 
Q 959 1119 1226 758 
Q 1494 397 1959 397 
Q 2419 397 2687 759 
Q 2956 1122 2956 1747 
Q 2956 2369 2687 2733 
Q 2419 3097 1959 3097 
z
M 1959 3584 
Q 2709 3584 3137 3096 
Q 3566 2609 3566 1747 
Q 3566 888 3137 398 
Q 2709 -91 1959 -91 
Q 1206 -91 779 398 
Q 353 888 353 1747 
Q 353 2609 779 3096 
Q 1206 3584 1959 3584 
z
" id="DejaVuSans-6f" transform="scale(0.015625)"/>
       <path d="M 2906 1791 
Q 2906 2416 2648 2759 
Q 2391 3103 1925 3103 
Q 1463 3103 1205 2759 
Q 947 2416 947 1791 
Q 947 1169 1205 825 
Q 1463 481 1925 481 
Q 2391 481 2648 825 
Q 2906 1169 2906 1791 
z
M 3481 434 
Q 3481 -459 3084 -895 
Q 2688 -1331 1869 -1331 
Q 1566 -1331 1297 -1286 
Q 1028 -1241 775 -1147 
L 775 -588 
Q 1028 -725 1275 -790 
Q 1522 -856 1778 -856 
Q 2344 -856 2625 -561 
Q 2906 -266 2906 331 
L 2906 616 
Q 2728 306 2450 153 
Q 2172 0 1784 0 
Q 1141 0 747 490 
Q 353 981 353 1791 
Q 353 2603 747 3093 
Q 1141 3584 1784 3584 
Q 2172 3584 2450 3431 
Q 2728 3278 2906 2969 
L 2906 3500 
L 3481 3500 
L 3481 434 
z
" id="DejaVuSans-67" transform="scale(0.015625)"/>
       <path d="M 794 531 
L 1825 531 
L 1825 4091 
L 703 3866 
L 703 4441 
L 1819 4666 
L 2450 4666 
L 2450 531 
L 3481 531 
L 3481 0 
L 794 0 
L 794 531 
z
" id="DejaVuSans-31" transform="scale(0.015625)"/>
       <path d="M 2034 4250 
Q 1547 4250 1301 3770 
Q 1056 3291 1056 2328 
Q 1056 1369 1301 889 
Q 1547 409 2034 409 
Q 2525 409 2770 889 
Q 3016 1369 3016 2328 
Q 3016 3291 2770 3770 
Q 2525 4250 2034 4250 
z
M 2034 4750 
Q 2819 4750 3233 4129 
Q 3647 3509 3647 2328 
Q 3647 1150 3233 529 
Q 2819 -91 2034 -91 
Q 1250 -91 836 529 
Q 422 1150 422 2328 
Q 422 3509 836 4129 
Q 1250 4750 2034 4750 
z
" id="DejaVuSans-30" transform="scale(0.015625)"/>
       <path d="M 1984 4856 
Q 1566 4138 1362 3434 
Q 1159 2731 1159 2009 
Q 1159 1288 1364 580 
Q 1569 -128 1984 -844 
L 1484 -844 
Q 1016 -109 783 600 
Q 550 1309 550 2009 
Q 550 2706 781 3412 
Q 1013 4119 1484 4856 
L 1984 4856 
z
" id="DejaVuSans-28" transform="scale(0.015625)"/>
       <path d="M 628 4666 
L 3578 4666 
L 3578 4134 
L 1259 4134 
L 1259 2753 
L 3481 2753 
L 3481 2222 
L 1259 2222 
L 1259 531 
L 3634 531 
L 3634 0 
L 628 0 
L 628 4666 
z
" id="DejaVuSans-45" transform="scale(0.015625)"/>
       <path d="M 2841 2188 
Q 3044 2119 3236 1894 
Q 3428 1669 3622 1275 
L 4263 0 
L 3584 0 
L 2988 1197 
Q 2756 1666 2539 1819 
Q 2322 1972 1947 1972 
L 1259 1972 
L 1259 0 
L 628 0 
L 628 4666 
L 2053 4666 
Q 2853 4666 3247 4331 
Q 3641 3997 3641 3322 
Q 3641 2881 3436 2590 
Q 3231 2300 2841 2188 
z
M 1259 4147 
L 1259 2491 
L 2053 2491 
Q 2509 2491 2742 2702 
Q 2975 2913 2975 3322 
Q 2975 3731 2742 3939 
Q 2509 4147 2053 4147 
L 1259 4147 
z
" id="DejaVuSans-52" transform="scale(0.015625)"/>
       <path d="M -19 4666 
L 3928 4666 
L 3928 4134 
L 2272 4134 
L 2272 0 
L 1638 0 
L 1638 4134 
L -19 4134 
L -19 4666 
z
" id="DejaVuSans-54" transform="scale(0.015625)"/>
       <path id="DejaVuSans-20" transform="scale(0.015625)"/>
       <path d="M 2375 4863 
L 2375 4384 
L 1825 4384 
Q 1516 4384 1395 4259 
Q 1275 4134 1275 3809 
L 1275 3500 
L 2222 3500 
L 2222 3053 
L 1275 3053 
L 1275 0 
L 697 0 
L 697 3053 
L 147 3053 
L 147 3500 
L 697 3500 
L 697 3744 
Q 697 4328 969 4595 
Q 1241 4863 1831 4863 
L 2375 4863 
z
" id="DejaVuSans-66" transform="scale(0.015625)"/>
       <path d="M 4122 4306 
L 4122 3641 
Q 3803 3938 3442 4084 
Q 3081 4231 2675 4231 
Q 1875 4231 1450 3742 
Q 1025 3253 1025 2328 
Q 1025 1406 1450 917 
Q 1875 428 2675 428 
Q 3081 428 3442 575 
Q 3803 722 4122 1019 
L 4122 359 
Q 3791 134 3420 21 
Q 3050 -91 2638 -91 
Q 1578 -91 968 557 
Q 359 1206 359 2328 
Q 359 3453 968 4101 
Q 1578 4750 2638 4750 
Q 3056 4750 3426 4639 
Q 3797 4528 4122 4306 
z
" id="DejaVuSans-43" transform="scale(0.015625)"/>
       <path d="M 628 4666 
L 1569 4666 
L 2759 1491 
L 3956 4666 
L 4897 4666 
L 4897 0 
L 4281 0 
L 4281 4097 
L 3078 897 
L 2444 897 
L 1241 4097 
L 1241 0 
L 628 0 
L 628 4666 
z
" id="DejaVuSans-4d" transform="scale(0.015625)"/>
       <path d="M 2188 4044 
L 1331 1722 
L 3047 1722 
L 2188 4044 
z
M 1831 4666 
L 2547 4666 
L 4325 0 
L 3669 0 
L 3244 1197 
L 1141 1197 
L 716 0 
L 50 0 
L 1831 4666 
z
" id="DejaVuSans-41" transform="scale(0.015625)"/>
       <path d="M 313 2009 
L 1997 2009 
L 1997 1497 
L 313 1497 
L 313 2009 
z
" id="DejaVuSans-2d" transform="scale(0.015625)"/>
       <path d="M 3425 4513 
L 3425 3897 
Q 3066 4069 2747 4153 
Q 2428 4238 2131 4238 
Q 1616 4238 1336 4038 
Q 1056 3838 1056 3469 
Q 1056 3159 1242 3001 
Q 1428 2844 1947 2747 
L 2328 2669 
Q 3034 2534 3370 2195 
Q 3706 1856 3706 1288 
Q 3706 609 3251 259 
Q 2797 -91 1919 -91 
Q 1588 -91 1214 -16 
Q 841 59 441 206 
L 441 856 
Q 825 641 1194 531 
Q 1563 422 1919 422 
Q 2459 422 2753 634 
Q 3047 847 3047 1241 
Q 3047 1584 2836 1778 
Q 2625 1972 2144 2069 
L 1759 2144 
Q 1053 2284 737 2584 
Q 422 2884 422 3419 
Q 422 4038 858 4394 
Q 1294 4750 2059 4750 
Q 2388 4750 2728 4690 
Q 3069 4631 3425 4513 
z
" id="DejaVuSans-53" transform="scale(0.015625)"/>
       <path d="M 1159 525 
L 1159 -1331 
L 581 -1331 
L 581 3500 
L 1159 3500 
L 1159 2969 
Q 1341 3281 1617 3432 
Q 1894 3584 2278 3584 
Q 2916 3584 3314 3078 
Q 3713 2572 3713 1747 
Q 3713 922 3314 415 
Q 2916 -91 2278 -91 
Q 1894 -91 1617 61 
Q 1341 213 1159 525 
z
M 3116 1747 
Q 3116 2381 2855 2742 
Q 2594 3103 2138 3103 
Q 1681 3103 1420 2742 
Q 1159 2381 1159 1747 
Q 1159 1113 1420 752 
Q 1681 391 2138 391 
Q 2594 391 2855 752 
Q 3116 1113 3116 1747 
z
" id="DejaVuSans-70" transform="scale(0.015625)"/>
       <path d="M 2059 -325 
Q 1816 -950 1584 -1140 
Q 1353 -1331 966 -1331 
L 506 -1331 
L 506 -850 
L 844 -850 
Q 1081 -850 1212 -737 
Q 1344 -625 1503 -206 
L 1606 56 
L 191 3500 
L 800 3500 
L 1894 763 
L 2988 3500 
L 3597 3500 
L 2059 -325 
z
" id="DejaVuSans-79" transform="scale(0.015625)"/>
       <path d="M 3122 3366 
L 3122 2828 
Q 2878 2963 2633 3030 
Q 2388 3097 2138 3097 
Q 1578 3097 1268 2742 
Q 959 2388 959 1747 
Q 959 1106 1268 751 
Q 1578 397 2138 397 
Q 2388 397 2633 464 
Q 2878 531 3122 666 
L 3122 134 
Q 2881 22 2623 -34 
Q 2366 -91 2075 -91 
Q 1284 -91 818 406 
Q 353 903 353 1747 
Q 353 2603 823 3093 
Q 1294 3584 2113 3584 
Q 2378 3584 2631 3529 
Q 2884 3475 3122 3366 
z
" id="DejaVuSans-63" transform="scale(0.015625)"/>
       <path d="M 3328 2828 
Q 3544 3216 3844 3400 
Q 4144 3584 4550 3584 
Q 5097 3584 5394 3201 
Q 5691 2819 5691 2113 
L 5691 0 
L 5113 0 
L 5113 2094 
Q 5113 2597 4934 2840 
Q 4756 3084 4391 3084 
Q 3944 3084 3684 2787 
Q 3425 2491 3425 1978 
L 3425 0 
L 2847 0 
L 2847 2094 
Q 2847 2600 2669 2842 
Q 2491 3084 2119 3084 
Q 1678 3084 1418 2786 
Q 1159 2488 1159 1978 
L 1159 0 
L 581 0 
L 581 3500 
L 1159 3500 
L 1159 2956 
Q 1356 3278 1631 3431 
Q 1906 3584 2284 3584 
Q 2666 3584 2933 3390 
Q 3200 3197 3328 2828 
z
" id="DejaVuSans-6d" transform="scale(0.015625)"/>
       <path d="M 2194 1759 
Q 1497 1759 1228 1600 
Q 959 1441 959 1056 
Q 959 750 1161 570 
Q 1363 391 1709 391 
Q 2188 391 2477 730 
Q 2766 1069 2766 1631 
L 2766 1759 
L 2194 1759 
z
M 3341 1997 
L 3341 0 
L 2766 0 
L 2766 531 
Q 2569 213 2275 61 
Q 1981 -91 1556 -91 
Q 1019 -91 701 211 
Q 384 513 384 1019 
Q 384 1609 779 1909 
Q 1175 2209 1959 2209 
L 2766 2209 
L 2766 2266 
Q 2766 2663 2505 2880 
Q 2244 3097 1772 3097 
Q 1472 3097 1187 3025 
Q 903 2953 641 2809 
L 641 3341 
Q 956 3463 1253 3523 
Q 1550 3584 1831 3584 
Q 2591 3584 2966 3190 
Q 3341 2797 3341 1997 
z
" id="DejaVuSans-61" transform="scale(0.015625)"/>
       <path d="M 513 4856 
L 1013 4856 
Q 1481 4119 1714 3412 
Q 1947 2706 1947 2009 
Q 1947 1309 1714 600 
Q 1481 -109 1013 -844 
L 513 -844 
Q 928 -128 1133 580 
Q 1338 1288 1338 2009 
Q 1338 2731 1133 3434 
Q 928 4138 513 4856 
z
" id="DejaVuSans-29" transform="scale(0.015625)"/>
      </defs>
      <use xlink:href="#DejaVuSans-6c"/>
      <use x="27.783203" xlink:href="#DejaVuSans-6f"/>
      <use x="88.964844" xlink:href="#DejaVuSans-67"/>
      <use x="152.441406" xlink:href="#DejaVuSans-31"/>
      <use x="216.064453" xlink:href="#DejaVuSans-30"/>
      <use x="279.6875" xlink:href="#DejaVuSans-28"/>
      <use x="318.701172" xlink:href="#DejaVuSans-45"/>
      <use x="381.884766" xlink:href="#DejaVuSans-52"/>
      <use x="444.117188" xlink:href="#DejaVuSans-54"/>
      <use x="505.201172" xlink:href="#DejaVuSans-20"/>
      <use x="536.988281" xlink:href="#DejaVuSans-6f"/>
      <use x="598.169922" xlink:href="#DejaVuSans-66"/>
      <use x="633.375" xlink:href="#DejaVuSans-20"/>
      <use x="665.162109" xlink:href="#DejaVuSans-43"/>
      <use x="734.986328" xlink:href="#DejaVuSans-4d"/>
      <use x="821.265625" xlink:href="#DejaVuSans-41"/>
      <use x="887.423828" xlink:href="#DejaVuSans-2d"/>
      <use x="923.507812" xlink:href="#DejaVuSans-45"/>
      <use x="986.691406" xlink:href="#DejaVuSans-53"/>
      <use x="1050.167969" xlink:href="#DejaVuSans-2d"/>
      <use x="1086.251953" xlink:href="#DejaVuSans-70"/>
      <use x="1149.728516" xlink:href="#DejaVuSans-79"/>
      <use x="1208.908203" xlink:href="#DejaVuSans-63"/>
      <use x="1263.888672" xlink:href="#DejaVuSans-6d"/>
      <use x="1361.300781" xlink:href="#DejaVuSans-61"/>
      <use x="1422.580078" xlink:href="#DejaVuSans-29"/>
     </g>
    </g>
   </g>
   <g id="matplotlib.axis_2">
    <g id="ytick_1">
     <g id="line2d_17">
      <path clip-path="url(#pf828893ede)" d="M 45.469063 221.068814 
L 321.269063 221.068814 
" style="fill:none;stroke:#b0b0b0;stroke-linecap:square;stroke-width:0.8;"/>
     </g>
     <g id="line2d_18">
      <defs>
       <path d="M 0 0 
L -3.5 0 
" id="m6a0be1e658" style="stroke:#000000;stroke-width:0.8;"/>
      </defs>
      <g>
       <use style="stroke:#000000;stroke-width:0.8;" x="45.469063" xlink:href="#m6a0be1e658" y="221.068814"/>
      </g>
     </g>
     <g id="text_5">
      <!-- 2 -->
      <g transform="translate(27.652813 227.527486)scale(0.17 -0.17)">
       <use xlink:href="#DejaVuSans-32"/>
      </g>
     </g>
    </g>
    <g id="ytick_2">
     <g id="line2d_19">
      <path clip-path="url(#pf828893ede)" d="M 45.469063 139.46044 
L 321.269063 139.46044 
" style="fill:none;stroke:#b0b0b0;stroke-linecap:square;stroke-width:0.8;"/>
     </g>
     <g id="line2d_20">
      <g>
       <use style="stroke:#000000;stroke-width:0.8;" x="45.469063" xlink:href="#m6a0be1e658" y="139.46044"/>
      </g>
     </g>
     <g id="text_6">
      <!-- 4 -->
      <g transform="translate(27.652813 145.919112)scale(0.17 -0.17)">
       <use xlink:href="#DejaVuSans-34"/>
      </g>
     </g>
    </g>
    <g id="ytick_3">
     <g id="line2d_21">
      <path clip-path="url(#pf828893ede)" d="M 45.469063 57.852066 
L 321.269063 57.852066 
" style="fill:none;stroke:#b0b0b0;stroke-linecap:square;stroke-width:0.8;"/>
     </g>
     <g id="line2d_22">
      <g>
       <use style="stroke:#000000;stroke-width:0.8;" x="45.469063" xlink:href="#m6a0be1e658" y="57.852066"/>
      </g>
     </g>
     <g id="text_7">
      <!-- 6 -->
      <g transform="translate(27.652813 64.310738)scale(0.17 -0.17)">
       <use xlink:href="#DejaVuSans-36"/>
      </g>
     </g>
    </g>
    <g id="text_8">
     <!-- log10(ERT of cma-IH) -->
     <g transform="translate(20.117344 254.761641)rotate(-90)scale(0.17 -0.17)">
      <defs>
       <path d="M 628 4666 
L 1259 4666 
L 1259 0 
L 628 0 
L 628 4666 
z
" id="DejaVuSans-49" transform="scale(0.015625)"/>
       <path d="M 628 4666 
L 1259 4666 
L 1259 2753 
L 3553 2753 
L 3553 4666 
L 4184 4666 
L 4184 0 
L 3553 0 
L 3553 2222 
L 1259 2222 
L 1259 0 
L 628 0 
L 628 4666 
z
" id="DejaVuSans-48" transform="scale(0.015625)"/>
      </defs>
      <use xlink:href="#DejaVuSans-6c"/>
      <use x="27.783203" xlink:href="#DejaVuSans-6f"/>
      <use x="88.964844" xlink:href="#DejaVuSans-67"/>
      <use x="152.441406" xlink:href="#DejaVuSans-31"/>
      <use x="216.064453" xlink:href="#DejaVuSans-30"/>
      <use x="279.6875" xlink:href="#DejaVuSans-28"/>
      <use x="318.701172" xlink:href="#DejaVuSans-45"/>
      <use x="381.884766" xlink:href="#DejaVuSans-52"/>
      <use x="444.117188" xlink:href="#DejaVuSans-54"/>
      <use x="505.201172" xlink:href="#DejaVuSans-20"/>
      <use x="536.988281" xlink:href="#DejaVuSans-6f"/>
      <use x="598.169922" xlink:href="#DejaVuSans-66"/>
      <use x="633.375" xlink:href="#DejaVuSans-20"/>
      <use x="665.162109" xlink:href="#DejaVuSans-63"/>
      <use x="720.142578" xlink:href="#DejaVuSans-6d"/>
      <use x="817.554688" xlink:href="#DejaVuSans-61"/>
      <use x="878.833984" xlink:href="#DejaVuSans-2d"/>
      <use x="914.917969" xlink:href="#DejaVuSans-49"/>
      <use x="944.410156" xlink:href="#DejaVuSans-48"/>
      <use x="1019.605469" xlink:href="#DejaVuSans-29"/>
     </g>
    </g>
   </g>
   <g id="line2d_23">
    <defs>
     <path d="M -7 0 
L 7 0 
M 0 7 
L 0 -7 
" id="mda374eda43" style="stroke:#00bfbf;stroke-width:3;"/>
    </defs>
    <g>
     <use style="fill-opacity:0;stroke:#00bfbf;stroke-width:3;" x="45.469063" xlink:href="#mda374eda43" y="302.677187"/>
     <use style="fill-opacity:0;stroke:#00bfbf;stroke-width:3;" x="45.469063" xlink:href="#mda374eda43" y="297.579164"/>
     <use style="fill-opacity:0;stroke:#00bfbf;stroke-width:3;" x="48.699989" xlink:href="#mda374eda43" y="284.014283"/>
     <use style="fill-opacity:0;stroke:#00bfbf;stroke-width:3;" x="74.684997" xlink:href="#mda374eda43" y="276.421624"/>
     <use style="fill-opacity:0;stroke:#00bfbf;stroke-width:3;" x="120.015791" xlink:href="#mda374eda43" y="236.498167"/>
     <use style="fill-opacity:0;stroke:#00bfbf;stroke-width:3;" x="135.183477" xlink:href="#mda374eda43" y="228.557922"/>
     <use style="fill-opacity:0;stroke:#00bfbf;stroke-width:3;" x="138.495222" xlink:href="#mda374eda43" y="220.013952"/>
     <use style="fill-opacity:0;stroke:#00bfbf;stroke-width:3;" x="144.748755" xlink:href="#mda374eda43" y="216.328803"/>
     <use style="fill-opacity:0;stroke:#00bfbf;stroke-width:3;" x="150.494014" xlink:href="#mda374eda43" y="211.239823"/>
     <use style="fill-opacity:0;stroke:#00bfbf;stroke-width:3;" x="151.925297" xlink:href="#mda374eda43" y="209.669645"/>
     <use style="fill-opacity:0;stroke:#00bfbf;stroke-width:3;" x="154.612099" xlink:href="#mda374eda43" y="201.00777"/>
     <use style="fill-opacity:0;stroke:#00bfbf;stroke-width:3;" x="157.214151" xlink:href="#mda374eda43" y="197.54854"/>
     <use style="fill-opacity:0;stroke:#00bfbf;stroke-width:3;" x="162.125704" xlink:href="#mda374eda43" y="194.867032"/>
     <use style="fill-opacity:0;stroke:#00bfbf;stroke-width:3;" x="164.908252" xlink:href="#mda374eda43" y="193.332957"/>
     <use style="fill-opacity:0;stroke:#00bfbf;stroke-width:3;" x="167.670076" xlink:href="#mda374eda43" y="190.562831"/>
     <use style="fill-opacity:0;stroke:#00bfbf;stroke-width:3;" x="169.823346" xlink:href="#mda374eda43" y="188.5106"/>
     <use style="fill-opacity:0;stroke:#00bfbf;stroke-width:3;" x="172.73519" xlink:href="#mda374eda43" y="186.303983"/>
     <use style="fill-opacity:0;stroke:#00bfbf;stroke-width:3;" x="174.745" xlink:href="#mda374eda43" y="184.857965"/>
     <use style="fill-opacity:0;stroke:#00bfbf;stroke-width:3;" x="177.18385" xlink:href="#mda374eda43" y="182.915398"/>
     <use style="fill-opacity:0;stroke:#00bfbf;stroke-width:3;" x="178.025983" xlink:href="#mda374eda43" y="181.70119"/>
     <use style="fill-opacity:0;stroke:#00bfbf;stroke-width:3;" x="179.9414" xlink:href="#mda374eda43" y="180.726618"/>
     <use style="fill-opacity:0;stroke:#00bfbf;stroke-width:3;" x="181.477798" xlink:href="#mda374eda43" y="179.544622"/>
    </g>
   </g>
   <g id="line2d_24">
    <defs>
     <path d="M -0 7 
L 7 -7 
L -7 -7 
z
" id="m6bef5acd5c" style="stroke:#008000;stroke-linejoin:miter;stroke-width:3;"/>
    </defs>
    <g>
     <use style="fill-opacity:0;stroke:#008000;stroke-linejoin:miter;stroke-width:3;" x="45.469063" xlink:href="#m6bef5acd5c" y="302.677187"/>
     <use style="fill-opacity:0;stroke:#008000;stroke-linejoin:miter;stroke-width:3;" x="47.687083" xlink:href="#m6bef5acd5c" y="296.714552"/>
     <use style="fill-opacity:0;stroke:#008000;stroke-linejoin:miter;stroke-width:3;" x="68.813006" xlink:href="#m6bef5acd5c" y="270.535869"/>
     <use style="fill-opacity:0;stroke:#008000;stroke-linejoin:miter;stroke-width:3;" x="101.539609" xlink:href="#m6bef5acd5c" y="239.504773"/>
     <use style="fill-opacity:0;stroke:#008000;stroke-linejoin:miter;stroke-width:3;" x="156.905194" xlink:href="#m6bef5acd5c" y="213.401847"/>
     <use style="fill-opacity:0;stroke:#008000;stroke-linejoin:miter;stroke-width:3;" x="172.582714" xlink:href="#m6bef5acd5c" y="208.342189"/>
     <use style="fill-opacity:0;stroke:#008000;stroke-linejoin:miter;stroke-width:3;" x="174.436758" xlink:href="#m6bef5acd5c" y="200.657071"/>
     <use style="fill-opacity:0;stroke:#008000;stroke-linejoin:miter;stroke-width:3;" x="177.733666" xlink:href="#m6bef5acd5c" y="195.002205"/>
     <use style="fill-opacity:0;stroke:#008000;stroke-linejoin:miter;stroke-width:3;" x="180.983893" xlink:href="#m6bef5acd5c" y="192.711699"/>
     <use style="fill-opacity:0;stroke:#008000;stroke-linejoin:miter;stroke-width:3;" x="183.314426" xlink:href="#m6bef5acd5c" y="190.07735"/>
     <use style="fill-opacity:0;stroke:#008000;stroke-linejoin:miter;stroke-width:3;" x="186.789276" xlink:href="#m6bef5acd5c" y="186.434028"/>
     <use style="fill-opacity:0;stroke:#008000;stroke-linejoin:miter;stroke-width:3;" x="188.644948" xlink:href="#m6bef5acd5c" y="184.26628"/>
     <use style="fill-opacity:0;stroke:#008000;stroke-linejoin:miter;stroke-width:3;" x="191.843143" xlink:href="#m6bef5acd5c" y="180.04507"/>
     <use style="fill-opacity:0;stroke:#008000;stroke-linejoin:miter;stroke-width:3;" x="193.655176" xlink:href="#m6bef5acd5c" y="176.90422"/>
     <use style="fill-opacity:0;stroke:#008000;stroke-linejoin:miter;stroke-width:3;" x="196.297306" xlink:href="#m6bef5acd5c" y="173.283741"/>
     <use style="fill-opacity:0;stroke:#008000;stroke-linejoin:miter;stroke-width:3;" x="197.47341" xlink:href="#m6bef5acd5c" y="171.879649"/>
     <use style="fill-opacity:0;stroke:#008000;stroke-linejoin:miter;stroke-width:3;" x="199.465292" xlink:href="#m6bef5acd5c" y="169.309977"/>
     <use style="fill-opacity:0;stroke:#008000;stroke-linejoin:miter;stroke-width:3;" x="200.52692" xlink:href="#m6bef5acd5c" y="167.733221"/>
     <use style="fill-opacity:0;stroke:#008000;stroke-linejoin:miter;stroke-width:3;" x="202.637481" xlink:href="#m6bef5acd5c" y="166.240335"/>
     <use style="fill-opacity:0;stroke:#008000;stroke-linejoin:miter;stroke-width:3;" x="203.430516" xlink:href="#m6bef5acd5c" y="165.487161"/>
     <use style="fill-opacity:0;stroke:#008000;stroke-linejoin:miter;stroke-width:3;" x="205.278213" xlink:href="#m6bef5acd5c" y="163.438623"/>
     <use style="fill-opacity:0;stroke:#008000;stroke-linejoin:miter;stroke-width:3;" x="206.080942" xlink:href="#m6bef5acd5c" y="162.768065"/>
    </g>
   </g>
   <g id="line2d_25">
    <defs>
     <path d="M 0 -7 
L -1.571598 -2.163119 
L -6.657396 -2.163119 
L -2.542899 0.826238 
L -4.114497 5.663119 
L -0 2.673762 
L 4.114497 5.663119 
L 2.542899 0.826238 
L 6.657396 -2.163119 
L 1.571598 -2.163119 
z
" id="m656d5c1e39" style="stroke:#0000ff;stroke-linejoin:bevel;stroke-width:3;"/>
    </defs>
    <g>
     <use style="fill-opacity:0;stroke:#0000ff;stroke-linejoin:bevel;stroke-width:3;" x="45.469063" xlink:href="#m656d5c1e39" y="302.677187"/>
     <use style="fill-opacity:0;stroke:#0000ff;stroke-linejoin:bevel;stroke-width:3;" x="52.256081" xlink:href="#m656d5c1e39" y="293.62483"/>
     <use style="fill-opacity:0;stroke:#0000ff;stroke-linejoin:bevel;stroke-width:3;" x="97.709634" xlink:href="#m656d5c1e39" y="253.76696"/>
     <use style="fill-opacity:0;stroke:#0000ff;stroke-linejoin:bevel;stroke-width:3;" x="129.232801" xlink:href="#m656d5c1e39" y="218.448845"/>
     <use style="fill-opacity:0;stroke:#0000ff;stroke-linejoin:bevel;stroke-width:3;" x="176.217217" xlink:href="#m656d5c1e39" y="194.575882"/>
     <use style="fill-opacity:0;stroke:#0000ff;stroke-linejoin:bevel;stroke-width:3;" x="198.324332" xlink:href="#m656d5c1e39" y="189.715227"/>
     <use style="fill-opacity:0;stroke:#0000ff;stroke-linejoin:bevel;stroke-width:3;" x="199.115796" xlink:href="#m656d5c1e39" y="184.531825"/>
     <use style="fill-opacity:0;stroke:#0000ff;stroke-linejoin:bevel;stroke-width:3;" x="202.087563" xlink:href="#m656d5c1e39" y="160.292162"/>
     <use style="fill-opacity:0;stroke:#0000ff;stroke-linejoin:bevel;stroke-width:3;" x="204.6425" xlink:href="#m656d5c1e39" y="157.003469"/>
     <use style="fill-opacity:0;stroke:#0000ff;stroke-linejoin:bevel;stroke-width:3;" x="207.811254" xlink:href="#m656d5c1e39" y="156.041611"/>
     <use style="fill-opacity:0;stroke:#0000ff;stroke-linejoin:bevel;stroke-width:3;" x="211.363159" xlink:href="#m656d5c1e39" y="153.936181"/>
     <use style="fill-opacity:0;stroke:#0000ff;stroke-linejoin:bevel;stroke-width:3;" x="213.716366" xlink:href="#m656d5c1e39" y="152.34425"/>
     <use style="fill-opacity:0;stroke:#0000ff;stroke-linejoin:bevel;stroke-width:3;" x="216.296043" xlink:href="#m656d5c1e39" y="150.012678"/>
     <use style="fill-opacity:0;stroke:#0000ff;stroke-linejoin:bevel;stroke-width:3;" x="218.299104" xlink:href="#m656d5c1e39" y="148.811638"/>
     <use style="fill-opacity:0;stroke:#0000ff;stroke-linejoin:bevel;stroke-width:3;" x="220.50874" xlink:href="#m656d5c1e39" y="146.834367"/>
     <use style="fill-opacity:0;stroke:#0000ff;stroke-linejoin:bevel;stroke-width:3;" x="221.673609" xlink:href="#m656d5c1e39" y="145.501125"/>
     <use style="fill-opacity:0;stroke:#0000ff;stroke-linejoin:bevel;stroke-width:3;" x="223.50428" xlink:href="#m656d5c1e39" y="144.088258"/>
     <use style="fill-opacity:0;stroke:#0000ff;stroke-linejoin:bevel;stroke-width:3;" x="224.918466" xlink:href="#m656d5c1e39" y="143.051983"/>
     <use style="fill-opacity:0;stroke:#0000ff;stroke-linejoin:bevel;stroke-width:3;" x="226.584219" xlink:href="#m656d5c1e39" y="141.890597"/>
     <use style="fill-opacity:0;stroke:#0000ff;stroke-linejoin:bevel;stroke-width:3;" x="227.734996" xlink:href="#m656d5c1e39" y="140.859889"/>
     <use style="fill-opacity:0;stroke:#0000ff;stroke-linejoin:bevel;stroke-width:3;" x="229.200792" xlink:href="#m656d5c1e39" y="139.792192"/>
     <use style="fill-opacity:0;stroke:#0000ff;stroke-linejoin:bevel;stroke-width:3;" x="231.248004" xlink:href="#m656d5c1e39" y="138.990733"/>
    </g>
   </g>
   <g id="line2d_26">
    <defs>
     <path d="M 0 7 
C 1.856422 7 3.637059 6.262436 4.949747 4.949747 
C 6.262436 3.637059 7 1.856422 7 0 
C 7 -1.856422 6.262436 -3.637059 4.949747 -4.949747 
C 3.637059 -6.262436 1.856422 -7 0 -7 
C -1.856422 -7 -3.637059 -6.262436 -4.949747 -4.949747 
C -6.262436 -3.637059 -7 -1.856422 -7 0 
C -7 1.856422 -6.262436 3.637059 -4.949747 4.949747 
C -3.637059 6.262436 -1.856422 7 0 7 
z
" id="mc5d56dee60" style="stroke:#000000;stroke-width:3;"/>
    </defs>
    <g>
     <use style="fill-opacity:0;stroke:#000000;stroke-width:3;" x="45.469063" xlink:href="#mc5d56dee60" y="302.677187"/>
     <use style="fill-opacity:0;stroke:#000000;stroke-width:3;" x="69.43486" xlink:href="#mc5d56dee60" y="273.012596"/>
     <use style="fill-opacity:0;stroke:#000000;stroke-width:3;" x="127.647069" xlink:href="#mc5d56dee60" y="215.08088"/>
     <use style="fill-opacity:0;stroke:#000000;stroke-width:3;" x="158.465224" xlink:href="#mc5d56dee60" y="189.966708"/>
     <use style="fill-opacity:0;stroke:#000000;stroke-width:3;" x="215.269404" xlink:href="#mc5d56dee60" y="159.621039"/>
     <use style="fill-opacity:0;stroke:#000000;stroke-width:3;" x="240.954722" xlink:href="#mc5d56dee60" y="145.299765"/>
     <use style="fill-opacity:0;stroke:#000000;stroke-width:3;" x="241.094803" xlink:href="#mc5d56dee60" y="139.631741"/>
     <use style="fill-opacity:0;stroke:#000000;stroke-width:3;" x="242.63252" xlink:href="#mc5d56dee60" y="131.801983"/>
     <use style="fill-opacity:0;stroke:#000000;stroke-width:3;" x="250.26251" xlink:href="#mc5d56dee60" y="127.220389"/>
     <use style="fill-opacity:0;stroke:#000000;stroke-width:3;" x="251.026257" xlink:href="#mc5d56dee60" y="124.695551"/>
     <use style="fill-opacity:0;stroke:#000000;stroke-width:3;" x="252.312336" xlink:href="#mc5d56dee60" y="122.125267"/>
     <use style="fill-opacity:0;stroke:#000000;stroke-width:3;" x="253.236336" xlink:href="#mc5d56dee60" y="121.446062"/>
     <use style="fill-opacity:0;stroke:#000000;stroke-width:3;" x="254.332883" xlink:href="#mc5d56dee60" y="120.315263"/>
     <use style="fill-opacity:0;stroke:#000000;stroke-width:3;" x="255.166647" xlink:href="#mc5d56dee60" y="119.624725"/>
     <use style="fill-opacity:0;stroke:#000000;stroke-width:3;" x="256.514255" xlink:href="#mc5d56dee60" y="117.453262"/>
     <use style="fill-opacity:0;stroke:#000000;stroke-width:3;" x="257.191384" xlink:href="#mc5d56dee60" y="116.677222"/>
     <use style="fill-opacity:0;stroke:#000000;stroke-width:3;" x="258.3808" xlink:href="#mc5d56dee60" y="115.954145"/>
     <use style="fill-opacity:0;stroke:#000000;stroke-width:3;" x="259.094457" xlink:href="#mc5d56dee60" y="115.389788"/>
     <use style="fill-opacity:0;stroke:#000000;stroke-width:3;" x="260.224958" xlink:href="#mc5d56dee60" y="114.525149"/>
     <use style="fill-opacity:0;stroke:#000000;stroke-width:3;" x="260.961159" xlink:href="#mc5d56dee60" y="114.059129"/>
     <use style="fill-opacity:0;stroke:#000000;stroke-width:3;" x="261.897915" xlink:href="#mc5d56dee60" y="113.285691"/>
     <use style="fill-opacity:0;stroke:#000000;stroke-width:3;" x="273.73505" xlink:href="#mc5d56dee60" y="112.630434"/>
    </g>
   </g>
   <g id="line2d_27">
    <defs>
     <path d="M -7 7 
L 7 7 
L 7 -7 
L -7 -7 
z
" id="mbfbf991471" style="stroke:#ff0000;stroke-linejoin:miter;stroke-width:3;"/>
    </defs>
    <g>
     <use style="fill-opacity:0;stroke:#ff0000;stroke-linejoin:miter;stroke-width:3;" x="45.469063" xlink:href="#mbfbf991471" y="302.677187"/>
     <use style="fill-opacity:0;stroke:#ff0000;stroke-linejoin:miter;stroke-width:3;" x="60.484056" xlink:href="#mbfbf991471" y="287.162977"/>
     <use style="fill-opacity:0;stroke:#ff0000;stroke-linejoin:miter;stroke-width:3;" x="139.729009" xlink:href="#mbfbf991471" y="206.771955"/>
     <use style="fill-opacity:0;stroke:#ff0000;stroke-linejoin:miter;stroke-width:3;" x="168.733854" xlink:href="#mbfbf991471" y="179.948485"/>
     <use style="fill-opacity:0;stroke:#ff0000;stroke-linejoin:miter;stroke-width:3;" x="252.72865" xlink:href="#mbfbf991471" y="166.189008"/>
    </g>
   </g>
   <g id="line2d_28">
    <defs>
     <path d="M -4 4 
L 4 4 
L 4 -4 
L -4 -4 
z
" id="med81074b4c" style="stroke:#ff0000;stroke-linejoin:miter;"/>
    </defs>
    <g>
     <use style="fill-opacity:0;stroke:#ff0000;stroke-linejoin:miter;" x="286.724677" xlink:href="#med81074b4c" y="126.353546"/>
     <use style="fill-opacity:0;stroke:#ff0000;stroke-linejoin:miter;" x="286.810712" xlink:href="#med81074b4c" y="113.207589"/>
     <use style="fill-opacity:0;stroke:#ff0000;stroke-linejoin:miter;" x="287.155761" xlink:href="#med81074b4c" y="86.719625"/>
     <use style="fill-opacity:0;stroke:#ff0000;stroke-linejoin:miter;" x="290.694395" xlink:href="#med81074b4c" y="77.592237"/>
     <use style="fill-opacity:0;stroke:#ff0000;stroke-linejoin:miter;" x="301.824175" xlink:href="#med81074b4c" y="71.145935"/>
     <use style="fill-opacity:0;stroke:#ff0000;stroke-linejoin:miter;" x="301.996085" xlink:href="#med81074b4c" y="70.693199"/>
     <use style="fill-opacity:0;stroke:#ff0000;stroke-linejoin:miter;" x="302.12588" xlink:href="#med81074b4c" y="70.39915"/>
     <use style="fill-opacity:0;stroke:#ff0000;stroke-linejoin:miter;" x="306.182348" xlink:href="#med81074b4c" y="69.974531"/>
     <use style="fill-opacity:0;stroke:#ff0000;stroke-linejoin:miter;" x="306.261667" xlink:href="#med81074b4c" y="69.66064"/>
     <use style="fill-opacity:0;stroke:#ff0000;stroke-linejoin:miter;" x="306.514286" xlink:href="#med81074b4c" y="69.161347"/>
     <use style="fill-opacity:0;stroke:#ff0000;stroke-linejoin:miter;" x="306.659144" xlink:href="#med81074b4c" y="68.875824"/>
     <use style="fill-opacity:0;stroke:#ff0000;stroke-linejoin:miter;" x="306.888691" xlink:href="#med81074b4c" y="68.477539"/>
     <use style="fill-opacity:0;stroke:#ff0000;stroke-linejoin:miter;" x="307.153993" xlink:href="#med81074b4c" y="66.664509"/>
     <use style="fill-opacity:0;stroke:#ff0000;stroke-linejoin:miter;" x="307.471485" xlink:href="#med81074b4c" y="66.279467"/>
     <use style="fill-opacity:0;stroke:#ff0000;stroke-linejoin:miter;" x="307.681128" xlink:href="#med81074b4c" y="64.40367"/>
     <use style="fill-opacity:0;stroke:#ff0000;stroke-linejoin:miter;" x="307.940835" xlink:href="#med81074b4c" y="62.269223"/>
     <use style="fill-opacity:0;stroke:#ff0000;stroke-linejoin:miter;" x="308.135729" xlink:href="#med81074b4c" y="62.07984"/>
    </g>
   </g>
   <g id="line2d_29">
    <path clip-path="url(#pf828893ede)" d="M 45.469063 302.677187 
L 321.269063 26.877187 
" style="fill:none;stroke:#000000;stroke-linecap:square;stroke-width:1.5;"/>
   </g>
   <g id="line2d_30">
    <path clip-path="url(#pf828893ede)" d="M 86.273249 302.677187 
L 329.469062 59.481374 
" style="fill:none;stroke:#d3d3d3;stroke-linecap:square;"/>
   </g>
   <g id="line2d_31">
    <path clip-path="url(#pf828893ede)" d="M 127.077436 302.677187 
L 329.469062 100.285561 
" style="fill:none;stroke:#d3d3d3;stroke-linecap:square;"/>
   </g>
   <g id="line2d_32">
    <path clip-path="url(#pf828893ede)" d="M 45.469063 261.873001 
L 308.342063 -1 
" style="fill:none;stroke:#d3d3d3;stroke-linecap:square;"/>
   </g>
   <g id="line2d_33">
    <path clip-path="url(#pf828893ede)" d="M 45.469063 221.068814 
L 267.537876 -1 
" style="fill:none;stroke:#d3d3d3;stroke-linecap:square;"/>
   </g>
   <g id="patch_3">
    <path d="M 45.469063 302.677187 
L 45.469063 26.877187 
" style="fill:none;stroke:#000000;stroke-linecap:square;stroke-linejoin:miter;stroke-width:0.8;"/>
   </g>
   <g id="patch_4">
    <path d="M 321.269063 302.677187 
L 321.269063 26.877187 
" style="fill:none;stroke:#000000;stroke-linecap:square;stroke-linejoin:miter;stroke-width:0.8;"/>
   </g>
   <g id="patch_5">
    <path d="M 45.469063 302.677187 
L 321.269063 302.677187 
" style="fill:none;stroke:#000000;stroke-linecap:square;stroke-linejoin:miter;stroke-width:0.8;"/>
   </g>
   <g id="patch_6">
    <path d="M 45.469063 26.877187 
L 321.269063 26.877187 
" style="fill:none;stroke:#000000;stroke-linecap:square;stroke-linejoin:miter;stroke-width:0.8;"/>
   </g>
   <g id="text_9">
    <!-- 22 targets: 3e21..1e-8 -->
    <g transform="translate(48.227063 40.143594)scale(0.102 -0.102)">
     <defs>
      <path d="M 1172 4494 
L 1172 3500 
L 2356 3500 
L 2356 3053 
L 1172 3053 
L 1172 1153 
Q 1172 725 1289 603 
Q 1406 481 1766 481 
L 2356 481 
L 2356 0 
L 1766 0 
Q 1100 0 847 248 
Q 594 497 594 1153 
L 594 3053 
L 172 3053 
L 172 3500 
L 594 3500 
L 594 4494 
L 1172 4494 
z
" id="DejaVuSans-74" transform="scale(0.015625)"/>
      <path d="M 2631 2963 
Q 2534 3019 2420 3045 
Q 2306 3072 2169 3072 
Q 1681 3072 1420 2755 
Q 1159 2438 1159 1844 
L 1159 0 
L 581 0 
L 581 3500 
L 1159 3500 
L 1159 2956 
Q 1341 3275 1631 3429 
Q 1922 3584 2338 3584 
Q 2397 3584 2469 3576 
Q 2541 3569 2628 3553 
L 2631 2963 
z
" id="DejaVuSans-72" transform="scale(0.015625)"/>
      <path d="M 3597 1894 
L 3597 1613 
L 953 1613 
Q 991 1019 1311 708 
Q 1631 397 2203 397 
Q 2534 397 2845 478 
Q 3156 559 3463 722 
L 3463 178 
Q 3153 47 2828 -22 
Q 2503 -91 2169 -91 
Q 1331 -91 842 396 
Q 353 884 353 1716 
Q 353 2575 817 3079 
Q 1281 3584 2069 3584 
Q 2775 3584 3186 3129 
Q 3597 2675 3597 1894 
z
M 3022 2063 
Q 3016 2534 2758 2815 
Q 2500 3097 2075 3097 
Q 1594 3097 1305 2825 
Q 1016 2553 972 2059 
L 3022 2063 
z
" id="DejaVuSans-65" transform="scale(0.015625)"/>
      <path d="M 2834 3397 
L 2834 2853 
Q 2591 2978 2328 3040 
Q 2066 3103 1784 3103 
Q 1356 3103 1142 2972 
Q 928 2841 928 2578 
Q 928 2378 1081 2264 
Q 1234 2150 1697 2047 
L 1894 2003 
Q 2506 1872 2764 1633 
Q 3022 1394 3022 966 
Q 3022 478 2636 193 
Q 2250 -91 1575 -91 
Q 1294 -91 989 -36 
Q 684 19 347 128 
L 347 722 
Q 666 556 975 473 
Q 1284 391 1588 391 
Q 1994 391 2212 530 
Q 2431 669 2431 922 
Q 2431 1156 2273 1281 
Q 2116 1406 1581 1522 
L 1381 1569 
Q 847 1681 609 1914 
Q 372 2147 372 2553 
Q 372 3047 722 3315 
Q 1072 3584 1716 3584 
Q 2034 3584 2315 3537 
Q 2597 3491 2834 3397 
z
" id="DejaVuSans-73" transform="scale(0.015625)"/>
      <path d="M 750 794 
L 1409 794 
L 1409 0 
L 750 0 
L 750 794 
z
M 750 3309 
L 1409 3309 
L 1409 2516 
L 750 2516 
L 750 3309 
z
" id="DejaVuSans-3a" transform="scale(0.015625)"/>
      <path d="M 2597 2516 
Q 3050 2419 3304 2112 
Q 3559 1806 3559 1356 
Q 3559 666 3084 287 
Q 2609 -91 1734 -91 
Q 1441 -91 1130 -33 
Q 819 25 488 141 
L 488 750 
Q 750 597 1062 519 
Q 1375 441 1716 441 
Q 2309 441 2620 675 
Q 2931 909 2931 1356 
Q 2931 1769 2642 2001 
Q 2353 2234 1838 2234 
L 1294 2234 
L 1294 2753 
L 1863 2753 
Q 2328 2753 2575 2939 
Q 2822 3125 2822 3475 
Q 2822 3834 2567 4026 
Q 2313 4219 1838 4219 
Q 1578 4219 1281 4162 
Q 984 4106 628 3988 
L 628 4550 
Q 988 4650 1302 4700 
Q 1616 4750 1894 4750 
Q 2613 4750 3031 4423 
Q 3450 4097 3450 3541 
Q 3450 3153 3228 2886 
Q 3006 2619 2597 2516 
z
" id="DejaVuSans-33" transform="scale(0.015625)"/>
      <path d="M 684 794 
L 1344 794 
L 1344 0 
L 684 0 
L 684 794 
z
" id="DejaVuSans-2e" transform="scale(0.015625)"/>
      <path d="M 2034 2216 
Q 1584 2216 1326 1975 
Q 1069 1734 1069 1313 
Q 1069 891 1326 650 
Q 1584 409 2034 409 
Q 2484 409 2743 651 
Q 3003 894 3003 1313 
Q 3003 1734 2745 1975 
Q 2488 2216 2034 2216 
z
M 1403 2484 
Q 997 2584 770 2862 
Q 544 3141 544 3541 
Q 544 4100 942 4425 
Q 1341 4750 2034 4750 
Q 2731 4750 3128 4425 
Q 3525 4100 3525 3541 
Q 3525 3141 3298 2862 
Q 3072 2584 2669 2484 
Q 3125 2378 3379 2068 
Q 3634 1759 3634 1313 
Q 3634 634 3220 271 
Q 2806 -91 2034 -91 
Q 1263 -91 848 271 
Q 434 634 434 1313 
Q 434 1759 690 2068 
Q 947 2378 1403 2484 
z
M 1172 3481 
Q 1172 3119 1398 2916 
Q 1625 2713 2034 2713 
Q 2441 2713 2670 2916 
Q 2900 3119 2900 3481 
Q 2900 3844 2670 4047 
Q 2441 4250 2034 4250 
Q 1625 4250 1398 4047 
Q 1172 3844 1172 3481 
z
" id="DejaVuSans-38" transform="scale(0.015625)"/>
     </defs>
     <use xlink:href="#DejaVuSans-32"/>
     <use x="63.623047" xlink:href="#DejaVuSans-32"/>
     <use x="127.246094" xlink:href="#DejaVuSans-20"/>
     <use x="159.033203" xlink:href="#DejaVuSans-74"/>
     <use x="198.242188" xlink:href="#DejaVuSans-61"/>
     <use x="259.521484" xlink:href="#DejaVuSans-72"/>
     <use x="298.884766" xlink:href="#DejaVuSans-67"/>
     <use x="362.361328" xlink:href="#DejaVuSans-65"/>
     <use x="423.884766" xlink:href="#DejaVuSans-74"/>
     <use x="463.09375" xlink:href="#DejaVuSans-73"/>
     <use x="515.193359" xlink:href="#DejaVuSans-3a"/>
     <use x="548.884766" xlink:href="#DejaVuSans-20"/>
     <use x="580.671875" xlink:href="#DejaVuSans-33"/>
     <use x="644.294922" xlink:href="#DejaVuSans-65"/>
     <use x="705.818359" xlink:href="#DejaVuSans-32"/>
     <use x="769.441406" xlink:href="#DejaVuSans-31"/>
     <use x="833.064453" xlink:href="#DejaVuSans-2e"/>
     <use x="864.851562" xlink:href="#DejaVuSans-2e"/>
     <use x="896.638672" xlink:href="#DejaVuSans-31"/>
     <use x="960.261719" xlink:href="#DejaVuSans-65"/>
     <use x="1021.785156" xlink:href="#DejaVuSans-2d"/>
     <use x="1057.869141" xlink:href="#DejaVuSans-38"/>
    </g>
    <!-- 15 and 15 instances -->
    <g transform="translate(48.227063 51.565362)scale(0.102 -0.102)">
     <defs>
      <path d="M 691 4666 
L 3169 4666 
L 3169 4134 
L 1269 4134 
L 1269 2991 
Q 1406 3038 1543 3061 
Q 1681 3084 1819 3084 
Q 2600 3084 3056 2656 
Q 3513 2228 3513 1497 
Q 3513 744 3044 326 
Q 2575 -91 1722 -91 
Q 1428 -91 1123 -41 
Q 819 9 494 109 
L 494 744 
Q 775 591 1075 516 
Q 1375 441 1709 441 
Q 2250 441 2565 725 
Q 2881 1009 2881 1497 
Q 2881 1984 2565 2268 
Q 2250 2553 1709 2553 
Q 1456 2553 1204 2497 
Q 953 2441 691 2322 
L 691 4666 
z
" id="DejaVuSans-35" transform="scale(0.015625)"/>
      <path d="M 3513 2113 
L 3513 0 
L 2938 0 
L 2938 2094 
Q 2938 2591 2744 2837 
Q 2550 3084 2163 3084 
Q 1697 3084 1428 2787 
Q 1159 2491 1159 1978 
L 1159 0 
L 581 0 
L 581 3500 
L 1159 3500 
L 1159 2956 
Q 1366 3272 1645 3428 
Q 1925 3584 2291 3584 
Q 2894 3584 3203 3211 
Q 3513 2838 3513 2113 
z
" id="DejaVuSans-6e" transform="scale(0.015625)"/>
      <path d="M 2906 2969 
L 2906 4863 
L 3481 4863 
L 3481 0 
L 2906 0 
L 2906 525 
Q 2725 213 2448 61 
Q 2172 -91 1784 -91 
Q 1150 -91 751 415 
Q 353 922 353 1747 
Q 353 2572 751 3078 
Q 1150 3584 1784 3584 
Q 2172 3584 2448 3432 
Q 2725 3281 2906 2969 
z
M 947 1747 
Q 947 1113 1208 752 
Q 1469 391 1925 391 
Q 2381 391 2643 752 
Q 2906 1113 2906 1747 
Q 2906 2381 2643 2742 
Q 2381 3103 1925 3103 
Q 1469 3103 1208 2742 
Q 947 2381 947 1747 
z
" id="DejaVuSans-64" transform="scale(0.015625)"/>
      <path d="M 603 3500 
L 1178 3500 
L 1178 0 
L 603 0 
L 603 3500 
z
M 603 4863 
L 1178 4863 
L 1178 4134 
L 603 4134 
L 603 4863 
z
" id="DejaVuSans-69" transform="scale(0.015625)"/>
     </defs>
     <use xlink:href="#DejaVuSans-31"/>
     <use x="63.623047" xlink:href="#DejaVuSans-35"/>
     <use x="127.246094" xlink:href="#DejaVuSans-20"/>
     <use x="159.033203" xlink:href="#DejaVuSans-61"/>
     <use x="220.3125" xlink:href="#DejaVuSans-6e"/>
     <use x="283.691406" xlink:href="#DejaVuSans-64"/>
     <use x="347.167969" xlink:href="#DejaVuSans-20"/>
     <use x="378.955078" xlink:href="#DejaVuSans-31"/>
     <use x="442.578125" xlink:href="#DejaVuSans-35"/>
     <use x="506.201172" xlink:href="#DejaVuSans-20"/>
     <use x="537.988281" xlink:href="#DejaVuSans-69"/>
     <use x="565.771484" xlink:href="#DejaVuSans-6e"/>
     <use x="629.150391" xlink:href="#DejaVuSans-73"/>
     <use x="681.25" xlink:href="#DejaVuSans-74"/>
     <use x="720.458984" xlink:href="#DejaVuSans-61"/>
     <use x="781.738281" xlink:href="#DejaVuSans-6e"/>
     <use x="845.117188" xlink:href="#DejaVuSans-63"/>
     <use x="900.097656" xlink:href="#DejaVuSans-65"/>
     <use x="961.621094" xlink:href="#DejaVuSans-73"/>
    </g>
   </g>
   <g id="text_10">
    <!-- v2.6.3 -->
    <g style="fill:#808080;" transform="translate(167.687813 297.8395)scale(0.1 -0.1)">
     <defs>
      <path d="M 191 3500 
L 800 3500 
L 1894 563 
L 2988 3500 
L 3597 3500 
L 2284 0 
L 1503 0 
L 191 3500 
z
" id="DejaVuSans-76" transform="scale(0.015625)"/>
     </defs>
     <use xlink:href="#DejaVuSans-76"/>
     <use x="59.179688" xlink:href="#DejaVuSans-32"/>
     <use x="122.802734" xlink:href="#DejaVuSans-2e"/>
     <use x="154.589844" xlink:href="#DejaVuSans-36"/>
     <use x="218.212891" xlink:href="#DejaVuSans-2e"/>
     <use x="250" xlink:href="#DejaVuSans-33"/>
    </g>
   </g>
   <g id="text_11">
    <!-- 14 Sum of different powers -->
    <g transform="translate(60.753906 20.877187)scale(0.18 -0.18)">
     <defs>
      <path d="M 544 1381 
L 544 3500 
L 1119 3500 
L 1119 1403 
Q 1119 906 1312 657 
Q 1506 409 1894 409 
Q 2359 409 2629 706 
Q 2900 1003 2900 1516 
L 2900 3500 
L 3475 3500 
L 3475 0 
L 2900 0 
L 2900 538 
Q 2691 219 2414 64 
Q 2138 -91 1772 -91 
Q 1169 -91 856 284 
Q 544 659 544 1381 
z
M 1991 3584 
L 1991 3584 
z
" id="DejaVuSans-75" transform="scale(0.015625)"/>
      <path d="M 269 3500 
L 844 3500 
L 1563 769 
L 2278 3500 
L 2956 3500 
L 3675 769 
L 4391 3500 
L 4966 3500 
L 4050 0 
L 3372 0 
L 2619 2869 
L 1863 0 
L 1184 0 
L 269 3500 
z
" id="DejaVuSans-77" transform="scale(0.015625)"/>
     </defs>
     <use xlink:href="#DejaVuSans-31"/>
     <use x="63.623047" xlink:href="#DejaVuSans-34"/>
     <use x="127.246094" xlink:href="#DejaVuSans-20"/>
     <use x="159.033203" xlink:href="#DejaVuSans-53"/>
     <use x="222.509766" xlink:href="#DejaVuSans-75"/>
     <use x="285.888672" xlink:href="#DejaVuSans-6d"/>
     <use x="383.300781" xlink:href="#DejaVuSans-20"/>
     <use x="415.087891" xlink:href="#DejaVuSans-6f"/>
     <use x="476.269531" xlink:href="#DejaVuSans-66"/>
     <use x="511.474609" xlink:href="#DejaVuSans-20"/>
     <use x="543.261719" xlink:href="#DejaVuSans-64"/>
     <use x="606.738281" xlink:href="#DejaVuSans-69"/>
     <use x="634.521484" xlink:href="#DejaVuSans-66"/>
     <use x="669.726562" xlink:href="#DejaVuSans-66"/>
     <use x="704.931641" xlink:href="#DejaVuSans-65"/>
     <use x="766.455078" xlink:href="#DejaVuSans-72"/>
     <use x="805.318359" xlink:href="#DejaVuSans-65"/>
     <use x="866.841797" xlink:href="#DejaVuSans-6e"/>
     <use x="930.220703" xlink:href="#DejaVuSans-74"/>
     <use x="969.429688" xlink:href="#DejaVuSans-20"/>
     <use x="1001.216797" xlink:href="#DejaVuSans-70"/>
     <use x="1064.693359" xlink:href="#DejaVuSans-6f"/>
     <use x="1125.875" xlink:href="#DejaVuSans-77"/>
     <use x="1207.662109" xlink:href="#DejaVuSans-65"/>
     <use x="1269.185547" xlink:href="#DejaVuSans-72"/>
     <use x="1310.298828" xlink:href="#DejaVuSans-73"/>
    </g>
   </g>
  </g>
 </g>
 <defs>
  <clipPath id="pf828893ede">
   <rect height="275.8" width="275.8" x="45.469063" y="26.877187"/>
  </clipPath>
 </defs>
</svg>
