<?xml version="1.0" encoding="utf-8" standalone="no"?>
<!DOCTYPE svg PUBLIC "-//W3C//DTD SVG 1.1//EN"
  "http://www.w3.org/Graphics/SVG/1.1/DTD/svg11.dtd">
<svg height="345.6pt" version="1.1" viewBox="0 0 460.8 345.6" width="460.8pt" xmlns="http://www.w3.org/2000/svg" xmlns:xlink="http://www.w3.org/1999/xlink">
 <metadata>
  <rdf:RDF xmlns:cc="http://creativecommons.org/ns#" xmlns:dc="http://purl.org/dc/elements/1.1/" xmlns:rdf="http://www.w3.org/1999/02/22-rdf-syntax-ns#">
   <cc:Work>
    <dc:type rdf:resource="http://purl.org/dc/dcmitype/StillImage"/>
    <dc:date>2023-04-17T17:54:08.602310</dc:date>
    <dc:format>image/svg+xml</dc:format>
    <dc:creator>
     <cc:Agent>
      <dc:title>Matplotlib v3.4.1, https://matplotlib.org/</dc:title>
     </cc:Agent>
    </dc:creator>
   </cc:Work>
  </rdf:RDF>
 </metadata>
 <defs>
  <style type="text/css">*{stroke-linecap:butt;stroke-linejoin:round;}</style>
 </defs>
 <g id="figure_1">
  <g id="patch_1">
   <path d="M 0 345.6 
L 460.8 345.6 
L 460.8 0 
L 0 0 
z
" style="fill:#ffffff;"/>
  </g>
  <g id="axes_1">
   <g id="patch_2">
    <path d="M 57.6 298.944 
L 360.8064 298.944 
L 360.8064 27.648 
L 57.6 27.648 
z
" style="fill:#ffffff;"/>
   </g>
   <g id="matplotlib.axis_1">
    <g id="xtick_1">
     <g id="line2d_1">
      <path clip-path="url(#p84d6736419)" d="M 57.6 298.944 
L 57.6 27.648 
" style="fill:none;stroke:#b0b0b0;stroke-linecap:square;stroke-width:0.8;"/>
     </g>
     <g id="line2d_2">
      <defs>
       <path d="M 0 0 
L 0 3.5 
" id="me5bba5d3f7" style="stroke:#000000;stroke-width:0.8;"/>
      </defs>
      <g>
       <use style="stroke:#000000;stroke-width:0.8;" x="57.6" xlink:href="#me5bba5d3f7" y="298.944"/>
      </g>
     </g>
     <g id="line2d_3">
      <defs>
       <path d="M 0 0 
L 0 -3.5 
" id="m16cfa95cca" style="stroke:#000000;stroke-width:0.8;"/>
      </defs>
      <g>
       <use style="stroke:#000000;stroke-width:0.8;" x="57.6" xlink:href="#m16cfa95cca" y="27.648"/>
      </g>
     </g>
     <g id="text_1">
      <!-- 0 -->
      <g transform="translate(52.51 318.1015)scale(0.16 -0.16)">
       <defs>
        <path d="M 2034 4250 
Q 1547 4250 1301 3770 
Q 1056 3291 1056 2328 
Q 1056 1369 1301 889 
Q 1547 409 2034 409 
Q 2525 409 2770 889 
Q 3016 1369 3016 2328 
Q 3016 3291 2770 3770 
Q 2525 4250 2034 4250 
z
M 2034 4750 
Q 2819 4750 3233 4129 
Q 3647 3509 3647 2328 
Q 3647 1150 3233 529 
Q 2819 -91 2034 -91 
Q 1250 -91 836 529 
Q 422 1150 422 2328 
Q 422 3509 836 4129 
Q 1250 4750 2034 4750 
z
" id="DejaVuSans-30" transform="scale(0.015625)"/>
       </defs>
       <use xlink:href="#DejaVuSans-30"/>
      </g>
     </g>
    </g>
    <g id="xtick_2">
     <g id="line2d_4">
      <path clip-path="url(#p84d6736419)" d="M 100.9152 298.944 
L 100.9152 27.648 
" style="fill:none;stroke:#b0b0b0;stroke-linecap:square;stroke-width:0.8;"/>
     </g>
     <g id="line2d_5">
      <g>
       <use style="stroke:#000000;stroke-width:0.8;" x="100.9152" xlink:href="#me5bba5d3f7" y="298.944"/>
      </g>
     </g>
     <g id="line2d_6">
      <g>
       <use style="stroke:#000000;stroke-width:0.8;" x="100.9152" xlink:href="#m16cfa95cca" y="27.648"/>
      </g>
     </g>
     <g id="text_2">
      <!-- 1 -->
      <g transform="translate(95.8252 318.1015)scale(0.16 -0.16)">
       <defs>
        <path d="M 794 531 
L 1825 531 
L 1825 4091 
L 703 3866 
L 703 4441 
L 1819 4666 
L 2450 4666 
L 2450 531 
L 3481 531 
L 3481 0 
L 794 0 
L 794 531 
z
" id="DejaVuSans-31" transform="scale(0.015625)"/>
       </defs>
       <use xlink:href="#DejaVuSans-31"/>
      </g>
     </g>
    </g>
    <g id="xtick_3">
     <g id="line2d_7">
      <path clip-path="url(#p84d6736419)" d="M 144.2304 298.944 
L 144.2304 27.648 
" style="fill:none;stroke:#b0b0b0;stroke-linecap:square;stroke-width:0.8;"/>
     </g>
     <g id="line2d_8">
      <g>
       <use style="stroke:#000000;stroke-width:0.8;" x="144.2304" xlink:href="#me5bba5d3f7" y="298.944"/>
      </g>
     </g>
     <g id="line2d_9">
      <g>
       <use style="stroke:#000000;stroke-width:0.8;" x="144.2304" xlink:href="#m16cfa95cca" y="27.648"/>
      </g>
     </g>
     <g id="text_3">
      <!-- 2 -->
      <g transform="translate(139.1404 318.1015)scale(0.16 -0.16)">
       <defs>
        <path d="M 1228 531 
L 3431 531 
L 3431 0 
L 469 0 
L 469 531 
Q 828 903 1448 1529 
Q 2069 2156 2228 2338 
Q 2531 2678 2651 2914 
Q 2772 3150 2772 3378 
Q 2772 3750 2511 3984 
Q 2250 4219 1831 4219 
Q 1534 4219 1204 4116 
Q 875 4013 500 3803 
L 500 4441 
Q 881 4594 1212 4672 
Q 1544 4750 1819 4750 
Q 2544 4750 2975 4387 
Q 3406 4025 3406 3419 
Q 3406 3131 3298 2873 
Q 3191 2616 2906 2266 
Q 2828 2175 2409 1742 
Q 1991 1309 1228 531 
z
" id="DejaVuSans-32" transform="scale(0.015625)"/>
       </defs>
       <use xlink:href="#DejaVuSans-32"/>
      </g>
     </g>
    </g>
    <g id="xtick_4">
     <g id="line2d_10">
      <path clip-path="url(#p84d6736419)" d="M 187.5456 298.944 
L 187.5456 27.648 
" style="fill:none;stroke:#b0b0b0;stroke-linecap:square;stroke-width:0.8;"/>
     </g>
     <g id="line2d_11">
      <g>
       <use style="stroke:#000000;stroke-width:0.8;" x="187.5456" xlink:href="#me5bba5d3f7" y="298.944"/>
      </g>
     </g>
     <g id="line2d_12">
      <g>
       <use style="stroke:#000000;stroke-width:0.8;" x="187.5456" xlink:href="#m16cfa95cca" y="27.648"/>
      </g>
     </g>
     <g id="text_4">
      <!-- 3 -->
      <g transform="translate(182.4556 318.1015)scale(0.16 -0.16)">
       <defs>
        <path d="M 2597 2516 
Q 3050 2419 3304 2112 
Q 3559 1806 3559 1356 
Q 3559 666 3084 287 
Q 2609 -91 1734 -91 
Q 1441 -91 1130 -33 
Q 819 25 488 141 
L 488 750 
Q 750 597 1062 519 
Q 1375 441 1716 441 
Q 2309 441 2620 675 
Q 2931 909 2931 1356 
Q 2931 1769 2642 2001 
Q 2353 2234 1838 2234 
L 1294 2234 
L 1294 2753 
L 1863 2753 
Q 2328 2753 2575 2939 
Q 2822 3125 2822 3475 
Q 2822 3834 2567 4026 
Q 2313 4219 1838 4219 
Q 1578 4219 1281 4162 
Q 984 4106 628 3988 
L 628 4550 
Q 988 4650 1302 4700 
Q 1616 4750 1894 4750 
Q 2613 4750 3031 4423 
Q 3450 4097 3450 3541 
Q 3450 3153 3228 2886 
Q 3006 2619 2597 2516 
z
" id="DejaVuSans-33" transform="scale(0.015625)"/>
       </defs>
       <use xlink:href="#DejaVuSans-33"/>
      </g>
     </g>
    </g>
    <g id="xtick_5">
     <g id="line2d_13">
      <path clip-path="url(#p84d6736419)" d="M 230.8608 298.944 
L 230.8608 27.648 
" style="fill:none;stroke:#b0b0b0;stroke-linecap:square;stroke-width:0.8;"/>
     </g>
     <g id="line2d_14">
      <g>
       <use style="stroke:#000000;stroke-width:0.8;" x="230.8608" xlink:href="#me5bba5d3f7" y="298.944"/>
      </g>
     </g>
     <g id="line2d_15">
      <g>
       <use style="stroke:#000000;stroke-width:0.8;" x="230.8608" xlink:href="#m16cfa95cca" y="27.648"/>
      </g>
     </g>
     <g id="text_5">
      <!-- 4 -->
      <g transform="translate(225.7708 318.1015)scale(0.16 -0.16)">
       <defs>
        <path d="M 2419 4116 
L 825 1625 
L 2419 1625 
L 2419 4116 
z
M 2253 4666 
L 3047 4666 
L 3047 1625 
L 3713 1625 
L 3713 1100 
L 3047 1100 
L 3047 0 
L 2419 0 
L 2419 1100 
L 313 1100 
L 313 1709 
L 2253 4666 
z
" id="DejaVuSans-34" transform="scale(0.015625)"/>
       </defs>
       <use xlink:href="#DejaVuSans-34"/>
      </g>
     </g>
    </g>
    <g id="xtick_6">
     <g id="line2d_16">
      <path clip-path="url(#p84d6736419)" d="M 274.176 298.944 
L 274.176 27.648 
" style="fill:none;stroke:#b0b0b0;stroke-linecap:square;stroke-width:0.8;"/>
     </g>
     <g id="line2d_17">
      <g>
       <use style="stroke:#000000;stroke-width:0.8;" x="274.176" xlink:href="#me5bba5d3f7" y="298.944"/>
      </g>
     </g>
     <g id="line2d_18">
      <g>
       <use style="stroke:#000000;stroke-width:0.8;" x="274.176" xlink:href="#m16cfa95cca" y="27.648"/>
      </g>
     </g>
     <g id="text_6">
      <!-- 5 -->
      <g transform="translate(269.086 318.1015)scale(0.16 -0.16)">
       <defs>
        <path d="M 691 4666 
L 3169 4666 
L 3169 4134 
L 1269 4134 
L 1269 2991 
Q 1406 3038 1543 3061 
Q 1681 3084 1819 3084 
Q 2600 3084 3056 2656 
Q 3513 2228 3513 1497 
Q 3513 744 3044 326 
Q 2575 -91 1722 -91 
Q 1428 -91 1123 -41 
Q 819 9 494 109 
L 494 744 
Q 775 591 1075 516 
Q 1375 441 1709 441 
Q 2250 441 2565 725 
Q 2881 1009 2881 1497 
Q 2881 1984 2565 2268 
Q 2250 2553 1709 2553 
Q 1456 2553 1204 2497 
Q 953 2441 691 2322 
L 691 4666 
z
" id="DejaVuSans-35" transform="scale(0.015625)"/>
       </defs>
       <use xlink:href="#DejaVuSans-35"/>
      </g>
     </g>
    </g>
    <g id="xtick_7">
     <g id="line2d_19">
      <path clip-path="url(#p84d6736419)" d="M 317.4912 298.944 
L 317.4912 27.648 
" style="fill:none;stroke:#b0b0b0;stroke-linecap:square;stroke-width:0.8;"/>
     </g>
     <g id="line2d_20">
      <g>
       <use style="stroke:#000000;stroke-width:0.8;" x="317.4912" xlink:href="#me5bba5d3f7" y="298.944"/>
      </g>
     </g>
     <g id="line2d_21">
      <g>
       <use style="stroke:#000000;stroke-width:0.8;" x="317.4912" xlink:href="#m16cfa95cca" y="27.648"/>
      </g>
     </g>
     <g id="text_7">
      <!-- 6 -->
      <g transform="translate(312.4012 318.1015)scale(0.16 -0.16)">
       <defs>
        <path d="M 2113 2584 
Q 1688 2584 1439 2293 
Q 1191 2003 1191 1497 
Q 1191 994 1439 701 
Q 1688 409 2113 409 
Q 2538 409 2786 701 
Q 3034 994 3034 1497 
Q 3034 2003 2786 2293 
Q 2538 2584 2113 2584 
z
M 3366 4563 
L 3366 3988 
Q 3128 4100 2886 4159 
Q 2644 4219 2406 4219 
Q 1781 4219 1451 3797 
Q 1122 3375 1075 2522 
Q 1259 2794 1537 2939 
Q 1816 3084 2150 3084 
Q 2853 3084 3261 2657 
Q 3669 2231 3669 1497 
Q 3669 778 3244 343 
Q 2819 -91 2113 -91 
Q 1303 -91 875 529 
Q 447 1150 447 2328 
Q 447 3434 972 4092 
Q 1497 4750 2381 4750 
Q 2619 4750 2861 4703 
Q 3103 4656 3366 4563 
z
" id="DejaVuSans-36" transform="scale(0.015625)"/>
       </defs>
       <use xlink:href="#DejaVuSans-36"/>
      </g>
     </g>
    </g>
    <g id="xtick_8">
     <g id="line2d_22">
      <path clip-path="url(#p84d6736419)" d="M 360.8064 298.944 
L 360.8064 27.648 
" style="fill:none;stroke:#b0b0b0;stroke-linecap:square;stroke-width:0.8;"/>
     </g>
     <g id="line2d_23">
      <g>
       <use style="stroke:#000000;stroke-width:0.8;" x="360.8064" xlink:href="#me5bba5d3f7" y="298.944"/>
      </g>
     </g>
     <g id="line2d_24">
      <g>
       <use style="stroke:#000000;stroke-width:0.8;" x="360.8064" xlink:href="#m16cfa95cca" y="27.648"/>
      </g>
     </g>
     <g id="text_8">
      <!-- 7 -->
      <g transform="translate(355.7164 318.1015)scale(0.16 -0.16)">
       <defs>
        <path d="M 525 4666 
L 3525 4666 
L 3525 4397 
L 1831 0 
L 1172 0 
L 2766 4134 
L 525 4134 
L 525 4666 
z
" id="DejaVuSans-37" transform="scale(0.015625)"/>
       </defs>
       <use xlink:href="#DejaVuSans-37"/>
      </g>
     </g>
    </g>
    <g id="xtick_9">
     <g id="line2d_25">
      <path clip-path="url(#p84d6736419)" d="M 70.639174 298.944 
L 70.639174 27.648 
" style="fill:none;stroke:#b0b0b0;stroke-linecap:square;stroke-opacity:0.15;stroke-width:0.8;"/>
     </g>
     <g id="line2d_26">
      <defs>
       <path d="M 0 0 
L 0 2 
" id="m655076b1c3" style="stroke:#000000;stroke-width:0.6;"/>
      </defs>
      <g>
       <use style="stroke:#000000;stroke-width:0.6;" x="70.639174" xlink:href="#m655076b1c3" y="298.944"/>
      </g>
     </g>
     <g id="line2d_27">
      <defs>
       <path d="M 0 0 
L 0 -2 
" id="m749c01e64c" style="stroke:#000000;stroke-width:0.6;"/>
      </defs>
      <g>
       <use style="stroke:#000000;stroke-width:0.6;" x="70.639174" xlink:href="#m749c01e64c" y="27.648"/>
      </g>
     </g>
    </g>
    <g id="xtick_10">
     <g id="line2d_28">
      <path clip-path="url(#p84d6736419)" d="M 78.266603 298.944 
L 78.266603 27.648 
" style="fill:none;stroke:#b0b0b0;stroke-linecap:square;stroke-opacity:0.15;stroke-width:0.8;"/>
     </g>
     <g id="line2d_29">
      <g>
       <use style="stroke:#000000;stroke-width:0.6;" x="78.266603" xlink:href="#m655076b1c3" y="298.944"/>
      </g>
     </g>
     <g id="line2d_30">
      <g>
       <use style="stroke:#000000;stroke-width:0.6;" x="78.266603" xlink:href="#m749c01e64c" y="27.648"/>
      </g>
     </g>
    </g>
    <g id="xtick_11">
     <g id="line2d_31">
      <path clip-path="url(#p84d6736419)" d="M 83.678349 298.944 
L 83.678349 27.648 
" style="fill:none;stroke:#b0b0b0;stroke-linecap:square;stroke-opacity:0.15;stroke-width:0.8;"/>
     </g>
     <g id="line2d_32">
      <g>
       <use style="stroke:#000000;stroke-width:0.6;" x="83.678349" xlink:href="#m655076b1c3" y="298.944"/>
      </g>
     </g>
     <g id="line2d_33">
      <g>
       <use style="stroke:#000000;stroke-width:0.6;" x="83.678349" xlink:href="#m749c01e64c" y="27.648"/>
      </g>
     </g>
    </g>
    <g id="xtick_12">
     <g id="line2d_34">
      <path clip-path="url(#p84d6736419)" d="M 87.876026 298.944 
L 87.876026 27.648 
" style="fill:none;stroke:#b0b0b0;stroke-linecap:square;stroke-opacity:0.15;stroke-width:0.8;"/>
     </g>
     <g id="line2d_35">
      <g>
       <use style="stroke:#000000;stroke-width:0.6;" x="87.876026" xlink:href="#m655076b1c3" y="298.944"/>
      </g>
     </g>
     <g id="line2d_36">
      <g>
       <use style="stroke:#000000;stroke-width:0.6;" x="87.876026" xlink:href="#m749c01e64c" y="27.648"/>
      </g>
     </g>
    </g>
    <g id="xtick_13">
     <g id="line2d_37">
      <path clip-path="url(#p84d6736419)" d="M 91.305777 298.944 
L 91.305777 27.648 
" style="fill:none;stroke:#b0b0b0;stroke-linecap:square;stroke-opacity:0.15;stroke-width:0.8;"/>
     </g>
     <g id="line2d_38">
      <g>
       <use style="stroke:#000000;stroke-width:0.6;" x="91.305777" xlink:href="#m655076b1c3" y="298.944"/>
      </g>
     </g>
     <g id="line2d_39">
      <g>
       <use style="stroke:#000000;stroke-width:0.6;" x="91.305777" xlink:href="#m749c01e64c" y="27.648"/>
      </g>
     </g>
    </g>
    <g id="xtick_14">
     <g id="line2d_40">
      <path clip-path="url(#p84d6736419)" d="M 94.205591 298.944 
L 94.205591 27.648 
" style="fill:none;stroke:#b0b0b0;stroke-linecap:square;stroke-opacity:0.15;stroke-width:0.8;"/>
     </g>
     <g id="line2d_41">
      <g>
       <use style="stroke:#000000;stroke-width:0.6;" x="94.205591" xlink:href="#m655076b1c3" y="298.944"/>
      </g>
     </g>
     <g id="line2d_42">
      <g>
       <use style="stroke:#000000;stroke-width:0.6;" x="94.205591" xlink:href="#m749c01e64c" y="27.648"/>
      </g>
     </g>
    </g>
    <g id="xtick_15">
     <g id="line2d_43">
      <path clip-path="url(#p84d6736419)" d="M 96.717523 298.944 
L 96.717523 27.648 
" style="fill:none;stroke:#b0b0b0;stroke-linecap:square;stroke-opacity:0.15;stroke-width:0.8;"/>
     </g>
     <g id="line2d_44">
      <g>
       <use style="stroke:#000000;stroke-width:0.6;" x="96.717523" xlink:href="#m655076b1c3" y="298.944"/>
      </g>
     </g>
     <g id="line2d_45">
      <g>
       <use style="stroke:#000000;stroke-width:0.6;" x="96.717523" xlink:href="#m749c01e64c" y="27.648"/>
      </g>
     </g>
    </g>
    <g id="xtick_16">
     <g id="line2d_46">
      <path clip-path="url(#p84d6736419)" d="M 98.933205 298.944 
L 98.933205 27.648 
" style="fill:none;stroke:#b0b0b0;stroke-linecap:square;stroke-opacity:0.15;stroke-width:0.8;"/>
     </g>
     <g id="line2d_47">
      <g>
       <use style="stroke:#000000;stroke-width:0.6;" x="98.933205" xlink:href="#m655076b1c3" y="298.944"/>
      </g>
     </g>
     <g id="line2d_48">
      <g>
       <use style="stroke:#000000;stroke-width:0.6;" x="98.933205" xlink:href="#m749c01e64c" y="27.648"/>
      </g>
     </g>
    </g>
    <g id="xtick_17">
     <g id="line2d_49">
      <path clip-path="url(#p84d6736419)" d="M 113.954374 298.944 
L 113.954374 27.648 
" style="fill:none;stroke:#b0b0b0;stroke-linecap:square;stroke-opacity:0.15;stroke-width:0.8;"/>
     </g>
     <g id="line2d_50">
      <g>
       <use style="stroke:#000000;stroke-width:0.6;" x="113.954374" xlink:href="#m655076b1c3" y="298.944"/>
      </g>
     </g>
     <g id="line2d_51">
      <g>
       <use style="stroke:#000000;stroke-width:0.6;" x="113.954374" xlink:href="#m749c01e64c" y="27.648"/>
      </g>
     </g>
    </g>
    <g id="xtick_18">
     <g id="line2d_52">
      <path clip-path="url(#p84d6736419)" d="M 121.581803 298.944 
L 121.581803 27.648 
" style="fill:none;stroke:#b0b0b0;stroke-linecap:square;stroke-opacity:0.15;stroke-width:0.8;"/>
     </g>
     <g id="line2d_53">
      <g>
       <use style="stroke:#000000;stroke-width:0.6;" x="121.581803" xlink:href="#m655076b1c3" y="298.944"/>
      </g>
     </g>
     <g id="line2d_54">
      <g>
       <use style="stroke:#000000;stroke-width:0.6;" x="121.581803" xlink:href="#m749c01e64c" y="27.648"/>
      </g>
     </g>
    </g>
    <g id="xtick_19">
     <g id="line2d_55">
      <path clip-path="url(#p84d6736419)" d="M 126.993549 298.944 
L 126.993549 27.648 
" style="fill:none;stroke:#b0b0b0;stroke-linecap:square;stroke-opacity:0.15;stroke-width:0.8;"/>
     </g>
     <g id="line2d_56">
      <g>
       <use style="stroke:#000000;stroke-width:0.6;" x="126.993549" xlink:href="#m655076b1c3" y="298.944"/>
      </g>
     </g>
     <g id="line2d_57">
      <g>
       <use style="stroke:#000000;stroke-width:0.6;" x="126.993549" xlink:href="#m749c01e64c" y="27.648"/>
      </g>
     </g>
    </g>
    <g id="xtick_20">
     <g id="line2d_58">
      <path clip-path="url(#p84d6736419)" d="M 131.191226 298.944 
L 131.191226 27.648 
" style="fill:none;stroke:#b0b0b0;stroke-linecap:square;stroke-opacity:0.15;stroke-width:0.8;"/>
     </g>
     <g id="line2d_59">
      <g>
       <use style="stroke:#000000;stroke-width:0.6;" x="131.191226" xlink:href="#m655076b1c3" y="298.944"/>
      </g>
     </g>
     <g id="line2d_60">
      <g>
       <use style="stroke:#000000;stroke-width:0.6;" x="131.191226" xlink:href="#m749c01e64c" y="27.648"/>
      </g>
     </g>
    </g>
    <g id="xtick_21">
     <g id="line2d_61">
      <path clip-path="url(#p84d6736419)" d="M 134.620977 298.944 
L 134.620977 27.648 
" style="fill:none;stroke:#b0b0b0;stroke-linecap:square;stroke-opacity:0.15;stroke-width:0.8;"/>
     </g>
     <g id="line2d_62">
      <g>
       <use style="stroke:#000000;stroke-width:0.6;" x="134.620977" xlink:href="#m655076b1c3" y="298.944"/>
      </g>
     </g>
     <g id="line2d_63">
      <g>
       <use style="stroke:#000000;stroke-width:0.6;" x="134.620977" xlink:href="#m749c01e64c" y="27.648"/>
      </g>
     </g>
    </g>
    <g id="xtick_22">
     <g id="line2d_64">
      <path clip-path="url(#p84d6736419)" d="M 137.520791 298.944 
L 137.520791 27.648 
" style="fill:none;stroke:#b0b0b0;stroke-linecap:square;stroke-opacity:0.15;stroke-width:0.8;"/>
     </g>
     <g id="line2d_65">
      <g>
       <use style="stroke:#000000;stroke-width:0.6;" x="137.520791" xlink:href="#m655076b1c3" y="298.944"/>
      </g>
     </g>
     <g id="line2d_66">
      <g>
       <use style="stroke:#000000;stroke-width:0.6;" x="137.520791" xlink:href="#m749c01e64c" y="27.648"/>
      </g>
     </g>
    </g>
    <g id="xtick_23">
     <g id="line2d_67">
      <path clip-path="url(#p84d6736419)" d="M 140.032723 298.944 
L 140.032723 27.648 
" style="fill:none;stroke:#b0b0b0;stroke-linecap:square;stroke-opacity:0.15;stroke-width:0.8;"/>
     </g>
     <g id="line2d_68">
      <g>
       <use style="stroke:#000000;stroke-width:0.6;" x="140.032723" xlink:href="#m655076b1c3" y="298.944"/>
      </g>
     </g>
     <g id="line2d_69">
      <g>
       <use style="stroke:#000000;stroke-width:0.6;" x="140.032723" xlink:href="#m749c01e64c" y="27.648"/>
      </g>
     </g>
    </g>
    <g id="xtick_24">
     <g id="line2d_70">
      <path clip-path="url(#p84d6736419)" d="M 142.248405 298.944 
L 142.248405 27.648 
" style="fill:none;stroke:#b0b0b0;stroke-linecap:square;stroke-opacity:0.15;stroke-width:0.8;"/>
     </g>
     <g id="line2d_71">
      <g>
       <use style="stroke:#000000;stroke-width:0.6;" x="142.248405" xlink:href="#m655076b1c3" y="298.944"/>
      </g>
     </g>
     <g id="line2d_72">
      <g>
       <use style="stroke:#000000;stroke-width:0.6;" x="142.248405" xlink:href="#m749c01e64c" y="27.648"/>
      </g>
     </g>
    </g>
    <g id="xtick_25">
     <g id="line2d_73">
      <path clip-path="url(#p84d6736419)" d="M 157.269574 298.944 
L 157.269574 27.648 
" style="fill:none;stroke:#b0b0b0;stroke-linecap:square;stroke-opacity:0.15;stroke-width:0.8;"/>
     </g>
     <g id="line2d_74">
      <g>
       <use style="stroke:#000000;stroke-width:0.6;" x="157.269574" xlink:href="#m655076b1c3" y="298.944"/>
      </g>
     </g>
     <g id="line2d_75">
      <g>
       <use style="stroke:#000000;stroke-width:0.6;" x="157.269574" xlink:href="#m749c01e64c" y="27.648"/>
      </g>
     </g>
    </g>
    <g id="xtick_26">
     <g id="line2d_76">
      <path clip-path="url(#p84d6736419)" d="M 164.897003 298.944 
L 164.897003 27.648 
" style="fill:none;stroke:#b0b0b0;stroke-linecap:square;stroke-opacity:0.15;stroke-width:0.8;"/>
     </g>
     <g id="line2d_77">
      <g>
       <use style="stroke:#000000;stroke-width:0.6;" x="164.897003" xlink:href="#m655076b1c3" y="298.944"/>
      </g>
     </g>
     <g id="line2d_78">
      <g>
       <use style="stroke:#000000;stroke-width:0.6;" x="164.897003" xlink:href="#m749c01e64c" y="27.648"/>
      </g>
     </g>
    </g>
    <g id="xtick_27">
     <g id="line2d_79">
      <path clip-path="url(#p84d6736419)" d="M 170.308749 298.944 
L 170.308749 27.648 
" style="fill:none;stroke:#b0b0b0;stroke-linecap:square;stroke-opacity:0.15;stroke-width:0.8;"/>
     </g>
     <g id="line2d_80">
      <g>
       <use style="stroke:#000000;stroke-width:0.6;" x="170.308749" xlink:href="#m655076b1c3" y="298.944"/>
      </g>
     </g>
     <g id="line2d_81">
      <g>
       <use style="stroke:#000000;stroke-width:0.6;" x="170.308749" xlink:href="#m749c01e64c" y="27.648"/>
      </g>
     </g>
    </g>
    <g id="xtick_28">
     <g id="line2d_82">
      <path clip-path="url(#p84d6736419)" d="M 174.506426 298.944 
L 174.506426 27.648 
" style="fill:none;stroke:#b0b0b0;stroke-linecap:square;stroke-opacity:0.15;stroke-width:0.8;"/>
     </g>
     <g id="line2d_83">
      <g>
       <use style="stroke:#000000;stroke-width:0.6;" x="174.506426" xlink:href="#m655076b1c3" y="298.944"/>
      </g>
     </g>
     <g id="line2d_84">
      <g>
       <use style="stroke:#000000;stroke-width:0.6;" x="174.506426" xlink:href="#m749c01e64c" y="27.648"/>
      </g>
     </g>
    </g>
    <g id="xtick_29">
     <g id="line2d_85">
      <path clip-path="url(#p84d6736419)" d="M 177.936177 298.944 
L 177.936177 27.648 
" style="fill:none;stroke:#b0b0b0;stroke-linecap:square;stroke-opacity:0.15;stroke-width:0.8;"/>
     </g>
     <g id="line2d_86">
      <g>
       <use style="stroke:#000000;stroke-width:0.6;" x="177.936177" xlink:href="#m655076b1c3" y="298.944"/>
      </g>
     </g>
     <g id="line2d_87">
      <g>
       <use style="stroke:#000000;stroke-width:0.6;" x="177.936177" xlink:href="#m749c01e64c" y="27.648"/>
      </g>
     </g>
    </g>
    <g id="xtick_30">
     <g id="line2d_88">
      <path clip-path="url(#p84d6736419)" d="M 180.835991 298.944 
L 180.835991 27.648 
" style="fill:none;stroke:#b0b0b0;stroke-linecap:square;stroke-opacity:0.15;stroke-width:0.8;"/>
     </g>
     <g id="line2d_89">
      <g>
       <use style="stroke:#000000;stroke-width:0.6;" x="180.835991" xlink:href="#m655076b1c3" y="298.944"/>
      </g>
     </g>
     <g id="line2d_90">
      <g>
       <use style="stroke:#000000;stroke-width:0.6;" x="180.835991" xlink:href="#m749c01e64c" y="27.648"/>
      </g>
     </g>
    </g>
    <g id="xtick_31">
     <g id="line2d_91">
      <path clip-path="url(#p84d6736419)" d="M 183.347923 298.944 
L 183.347923 27.648 
" style="fill:none;stroke:#b0b0b0;stroke-linecap:square;stroke-opacity:0.15;stroke-width:0.8;"/>
     </g>
     <g id="line2d_92">
      <g>
       <use style="stroke:#000000;stroke-width:0.6;" x="183.347923" xlink:href="#m655076b1c3" y="298.944"/>
      </g>
     </g>
     <g id="line2d_93">
      <g>
       <use style="stroke:#000000;stroke-width:0.6;" x="183.347923" xlink:href="#m749c01e64c" y="27.648"/>
      </g>
     </g>
    </g>
    <g id="xtick_32">
     <g id="line2d_94">
      <path clip-path="url(#p84d6736419)" d="M 185.563605 298.944 
L 185.563605 27.648 
" style="fill:none;stroke:#b0b0b0;stroke-linecap:square;stroke-opacity:0.15;stroke-width:0.8;"/>
     </g>
     <g id="line2d_95">
      <g>
       <use style="stroke:#000000;stroke-width:0.6;" x="185.563605" xlink:href="#m655076b1c3" y="298.944"/>
      </g>
     </g>
     <g id="line2d_96">
      <g>
       <use style="stroke:#000000;stroke-width:0.6;" x="185.563605" xlink:href="#m749c01e64c" y="27.648"/>
      </g>
     </g>
    </g>
    <g id="xtick_33">
     <g id="line2d_97">
      <path clip-path="url(#p84d6736419)" d="M 200.584774 298.944 
L 200.584774 27.648 
" style="fill:none;stroke:#b0b0b0;stroke-linecap:square;stroke-opacity:0.15;stroke-width:0.8;"/>
     </g>
     <g id="line2d_98">
      <g>
       <use style="stroke:#000000;stroke-width:0.6;" x="200.584774" xlink:href="#m655076b1c3" y="298.944"/>
      </g>
     </g>
     <g id="line2d_99">
      <g>
       <use style="stroke:#000000;stroke-width:0.6;" x="200.584774" xlink:href="#m749c01e64c" y="27.648"/>
      </g>
     </g>
    </g>
    <g id="xtick_34">
     <g id="line2d_100">
      <path clip-path="url(#p84d6736419)" d="M 208.212203 298.944 
L 208.212203 27.648 
" style="fill:none;stroke:#b0b0b0;stroke-linecap:square;stroke-opacity:0.15;stroke-width:0.8;"/>
     </g>
     <g id="line2d_101">
      <g>
       <use style="stroke:#000000;stroke-width:0.6;" x="208.212203" xlink:href="#m655076b1c3" y="298.944"/>
      </g>
     </g>
     <g id="line2d_102">
      <g>
       <use style="stroke:#000000;stroke-width:0.6;" x="208.212203" xlink:href="#m749c01e64c" y="27.648"/>
      </g>
     </g>
    </g>
    <g id="xtick_35">
     <g id="line2d_103">
      <path clip-path="url(#p84d6736419)" d="M 213.623949 298.944 
L 213.623949 27.648 
" style="fill:none;stroke:#b0b0b0;stroke-linecap:square;stroke-opacity:0.15;stroke-width:0.8;"/>
     </g>
     <g id="line2d_104">
      <g>
       <use style="stroke:#000000;stroke-width:0.6;" x="213.623949" xlink:href="#m655076b1c3" y="298.944"/>
      </g>
     </g>
     <g id="line2d_105">
      <g>
       <use style="stroke:#000000;stroke-width:0.6;" x="213.623949" xlink:href="#m749c01e64c" y="27.648"/>
      </g>
     </g>
    </g>
    <g id="xtick_36">
     <g id="line2d_106">
      <path clip-path="url(#p84d6736419)" d="M 217.821626 298.944 
L 217.821626 27.648 
" style="fill:none;stroke:#b0b0b0;stroke-linecap:square;stroke-opacity:0.15;stroke-width:0.8;"/>
     </g>
     <g id="line2d_107">
      <g>
       <use style="stroke:#000000;stroke-width:0.6;" x="217.821626" xlink:href="#m655076b1c3" y="298.944"/>
      </g>
     </g>
     <g id="line2d_108">
      <g>
       <use style="stroke:#000000;stroke-width:0.6;" x="217.821626" xlink:href="#m749c01e64c" y="27.648"/>
      </g>
     </g>
    </g>
    <g id="xtick_37">
     <g id="line2d_109">
      <path clip-path="url(#p84d6736419)" d="M 221.251377 298.944 
L 221.251377 27.648 
" style="fill:none;stroke:#b0b0b0;stroke-linecap:square;stroke-opacity:0.15;stroke-width:0.8;"/>
     </g>
     <g id="line2d_110">
      <g>
       <use style="stroke:#000000;stroke-width:0.6;" x="221.251377" xlink:href="#m655076b1c3" y="298.944"/>
      </g>
     </g>
     <g id="line2d_111">
      <g>
       <use style="stroke:#000000;stroke-width:0.6;" x="221.251377" xlink:href="#m749c01e64c" y="27.648"/>
      </g>
     </g>
    </g>
    <g id="xtick_38">
     <g id="line2d_112">
      <path clip-path="url(#p84d6736419)" d="M 224.151191 298.944 
L 224.151191 27.648 
" style="fill:none;stroke:#b0b0b0;stroke-linecap:square;stroke-opacity:0.15;stroke-width:0.8;"/>
     </g>
     <g id="line2d_113">
      <g>
       <use style="stroke:#000000;stroke-width:0.6;" x="224.151191" xlink:href="#m655076b1c3" y="298.944"/>
      </g>
     </g>
     <g id="line2d_114">
      <g>
       <use style="stroke:#000000;stroke-width:0.6;" x="224.151191" xlink:href="#m749c01e64c" y="27.648"/>
      </g>
     </g>
    </g>
    <g id="xtick_39">
     <g id="line2d_115">
      <path clip-path="url(#p84d6736419)" d="M 226.663123 298.944 
L 226.663123 27.648 
" style="fill:none;stroke:#b0b0b0;stroke-linecap:square;stroke-opacity:0.15;stroke-width:0.8;"/>
     </g>
     <g id="line2d_116">
      <g>
       <use style="stroke:#000000;stroke-width:0.6;" x="226.663123" xlink:href="#m655076b1c3" y="298.944"/>
      </g>
     </g>
     <g id="line2d_117">
      <g>
       <use style="stroke:#000000;stroke-width:0.6;" x="226.663123" xlink:href="#m749c01e64c" y="27.648"/>
      </g>
     </g>
    </g>
    <g id="xtick_40">
     <g id="line2d_118">
      <path clip-path="url(#p84d6736419)" d="M 228.878805 298.944 
L 228.878805 27.648 
" style="fill:none;stroke:#b0b0b0;stroke-linecap:square;stroke-opacity:0.15;stroke-width:0.8;"/>
     </g>
     <g id="line2d_119">
      <g>
       <use style="stroke:#000000;stroke-width:0.6;" x="228.878805" xlink:href="#m655076b1c3" y="298.944"/>
      </g>
     </g>
     <g id="line2d_120">
      <g>
       <use style="stroke:#000000;stroke-width:0.6;" x="228.878805" xlink:href="#m749c01e64c" y="27.648"/>
      </g>
     </g>
    </g>
    <g id="xtick_41">
     <g id="line2d_121">
      <path clip-path="url(#p84d6736419)" d="M 243.899974 298.944 
L 243.899974 27.648 
" style="fill:none;stroke:#b0b0b0;stroke-linecap:square;stroke-opacity:0.15;stroke-width:0.8;"/>
     </g>
     <g id="line2d_122">
      <g>
       <use style="stroke:#000000;stroke-width:0.6;" x="243.899974" xlink:href="#m655076b1c3" y="298.944"/>
      </g>
     </g>
     <g id="line2d_123">
      <g>
       <use style="stroke:#000000;stroke-width:0.6;" x="243.899974" xlink:href="#m749c01e64c" y="27.648"/>
      </g>
     </g>
    </g>
    <g id="xtick_42">
     <g id="line2d_124">
      <path clip-path="url(#p84d6736419)" d="M 251.527403 298.944 
L 251.527403 27.648 
" style="fill:none;stroke:#b0b0b0;stroke-linecap:square;stroke-opacity:0.15;stroke-width:0.8;"/>
     </g>
     <g id="line2d_125">
      <g>
       <use style="stroke:#000000;stroke-width:0.6;" x="251.527403" xlink:href="#m655076b1c3" y="298.944"/>
      </g>
     </g>
     <g id="line2d_126">
      <g>
       <use style="stroke:#000000;stroke-width:0.6;" x="251.527403" xlink:href="#m749c01e64c" y="27.648"/>
      </g>
     </g>
    </g>
    <g id="xtick_43">
     <g id="line2d_127">
      <path clip-path="url(#p84d6736419)" d="M 256.939149 298.944 
L 256.939149 27.648 
" style="fill:none;stroke:#b0b0b0;stroke-linecap:square;stroke-opacity:0.15;stroke-width:0.8;"/>
     </g>
     <g id="line2d_128">
      <g>
       <use style="stroke:#000000;stroke-width:0.6;" x="256.939149" xlink:href="#m655076b1c3" y="298.944"/>
      </g>
     </g>
     <g id="line2d_129">
      <g>
       <use style="stroke:#000000;stroke-width:0.6;" x="256.939149" xlink:href="#m749c01e64c" y="27.648"/>
      </g>
     </g>
    </g>
    <g id="xtick_44">
     <g id="line2d_130">
      <path clip-path="url(#p84d6736419)" d="M 261.136826 298.944 
L 261.136826 27.648 
" style="fill:none;stroke:#b0b0b0;stroke-linecap:square;stroke-opacity:0.15;stroke-width:0.8;"/>
     </g>
     <g id="line2d_131">
      <g>
       <use style="stroke:#000000;stroke-width:0.6;" x="261.136826" xlink:href="#m655076b1c3" y="298.944"/>
      </g>
     </g>
     <g id="line2d_132">
      <g>
       <use style="stroke:#000000;stroke-width:0.6;" x="261.136826" xlink:href="#m749c01e64c" y="27.648"/>
      </g>
     </g>
    </g>
    <g id="xtick_45">
     <g id="line2d_133">
      <path clip-path="url(#p84d6736419)" d="M 264.566577 298.944 
L 264.566577 27.648 
" style="fill:none;stroke:#b0b0b0;stroke-linecap:square;stroke-opacity:0.15;stroke-width:0.8;"/>
     </g>
     <g id="line2d_134">
      <g>
       <use style="stroke:#000000;stroke-width:0.6;" x="264.566577" xlink:href="#m655076b1c3" y="298.944"/>
      </g>
     </g>
     <g id="line2d_135">
      <g>
       <use style="stroke:#000000;stroke-width:0.6;" x="264.566577" xlink:href="#m749c01e64c" y="27.648"/>
      </g>
     </g>
    </g>
    <g id="xtick_46">
     <g id="line2d_136">
      <path clip-path="url(#p84d6736419)" d="M 267.466391 298.944 
L 267.466391 27.648 
" style="fill:none;stroke:#b0b0b0;stroke-linecap:square;stroke-opacity:0.15;stroke-width:0.8;"/>
     </g>
     <g id="line2d_137">
      <g>
       <use style="stroke:#000000;stroke-width:0.6;" x="267.466391" xlink:href="#m655076b1c3" y="298.944"/>
      </g>
     </g>
     <g id="line2d_138">
      <g>
       <use style="stroke:#000000;stroke-width:0.6;" x="267.466391" xlink:href="#m749c01e64c" y="27.648"/>
      </g>
     </g>
    </g>
    <g id="xtick_47">
     <g id="line2d_139">
      <path clip-path="url(#p84d6736419)" d="M 269.978323 298.944 
L 269.978323 27.648 
" style="fill:none;stroke:#b0b0b0;stroke-linecap:square;stroke-opacity:0.15;stroke-width:0.8;"/>
     </g>
     <g id="line2d_140">
      <g>
       <use style="stroke:#000000;stroke-width:0.6;" x="269.978323" xlink:href="#m655076b1c3" y="298.944"/>
      </g>
     </g>
     <g id="line2d_141">
      <g>
       <use style="stroke:#000000;stroke-width:0.6;" x="269.978323" xlink:href="#m749c01e64c" y="27.648"/>
      </g>
     </g>
    </g>
    <g id="xtick_48">
     <g id="line2d_142">
      <path clip-path="url(#p84d6736419)" d="M 272.194005 298.944 
L 272.194005 27.648 
" style="fill:none;stroke:#b0b0b0;stroke-linecap:square;stroke-opacity:0.15;stroke-width:0.8;"/>
     </g>
     <g id="line2d_143">
      <g>
       <use style="stroke:#000000;stroke-width:0.6;" x="272.194005" xlink:href="#m655076b1c3" y="298.944"/>
      </g>
     </g>
     <g id="line2d_144">
      <g>
       <use style="stroke:#000000;stroke-width:0.6;" x="272.194005" xlink:href="#m749c01e64c" y="27.648"/>
      </g>
     </g>
    </g>
    <g id="xtick_49">
     <g id="line2d_145">
      <path clip-path="url(#p84d6736419)" d="M 287.215174 298.944 
L 287.215174 27.648 
" style="fill:none;stroke:#b0b0b0;stroke-linecap:square;stroke-opacity:0.15;stroke-width:0.8;"/>
     </g>
     <g id="line2d_146">
      <g>
       <use style="stroke:#000000;stroke-width:0.6;" x="287.215174" xlink:href="#m655076b1c3" y="298.944"/>
      </g>
     </g>
     <g id="line2d_147">
      <g>
       <use style="stroke:#000000;stroke-width:0.6;" x="287.215174" xlink:href="#m749c01e64c" y="27.648"/>
      </g>
     </g>
    </g>
    <g id="xtick_50">
     <g id="line2d_148">
      <path clip-path="url(#p84d6736419)" d="M 294.842603 298.944 
L 294.842603 27.648 
" style="fill:none;stroke:#b0b0b0;stroke-linecap:square;stroke-opacity:0.15;stroke-width:0.8;"/>
     </g>
     <g id="line2d_149">
      <g>
       <use style="stroke:#000000;stroke-width:0.6;" x="294.842603" xlink:href="#m655076b1c3" y="298.944"/>
      </g>
     </g>
     <g id="line2d_150">
      <g>
       <use style="stroke:#000000;stroke-width:0.6;" x="294.842603" xlink:href="#m749c01e64c" y="27.648"/>
      </g>
     </g>
    </g>
    <g id="xtick_51">
     <g id="line2d_151">
      <path clip-path="url(#p84d6736419)" d="M 300.254349 298.944 
L 300.254349 27.648 
" style="fill:none;stroke:#b0b0b0;stroke-linecap:square;stroke-opacity:0.15;stroke-width:0.8;"/>
     </g>
     <g id="line2d_152">
      <g>
       <use style="stroke:#000000;stroke-width:0.6;" x="300.254349" xlink:href="#m655076b1c3" y="298.944"/>
      </g>
     </g>
     <g id="line2d_153">
      <g>
       <use style="stroke:#000000;stroke-width:0.6;" x="300.254349" xlink:href="#m749c01e64c" y="27.648"/>
      </g>
     </g>
    </g>
    <g id="xtick_52">
     <g id="line2d_154">
      <path clip-path="url(#p84d6736419)" d="M 304.452026 298.944 
L 304.452026 27.648 
" style="fill:none;stroke:#b0b0b0;stroke-linecap:square;stroke-opacity:0.15;stroke-width:0.8;"/>
     </g>
     <g id="line2d_155">
      <g>
       <use style="stroke:#000000;stroke-width:0.6;" x="304.452026" xlink:href="#m655076b1c3" y="298.944"/>
      </g>
     </g>
     <g id="line2d_156">
      <g>
       <use style="stroke:#000000;stroke-width:0.6;" x="304.452026" xlink:href="#m749c01e64c" y="27.648"/>
      </g>
     </g>
    </g>
    <g id="xtick_53">
     <g id="line2d_157">
      <path clip-path="url(#p84d6736419)" d="M 307.881777 298.944 
L 307.881777 27.648 
" style="fill:none;stroke:#b0b0b0;stroke-linecap:square;stroke-opacity:0.15;stroke-width:0.8;"/>
     </g>
     <g id="line2d_158">
      <g>
       <use style="stroke:#000000;stroke-width:0.6;" x="307.881777" xlink:href="#m655076b1c3" y="298.944"/>
      </g>
     </g>
     <g id="line2d_159">
      <g>
       <use style="stroke:#000000;stroke-width:0.6;" x="307.881777" xlink:href="#m749c01e64c" y="27.648"/>
      </g>
     </g>
    </g>
    <g id="xtick_54">
     <g id="line2d_160">
      <path clip-path="url(#p84d6736419)" d="M 310.781591 298.944 
L 310.781591 27.648 
" style="fill:none;stroke:#b0b0b0;stroke-linecap:square;stroke-opacity:0.15;stroke-width:0.8;"/>
     </g>
     <g id="line2d_161">
      <g>
       <use style="stroke:#000000;stroke-width:0.6;" x="310.781591" xlink:href="#m655076b1c3" y="298.944"/>
      </g>
     </g>
     <g id="line2d_162">
      <g>
       <use style="stroke:#000000;stroke-width:0.6;" x="310.781591" xlink:href="#m749c01e64c" y="27.648"/>
      </g>
     </g>
    </g>
    <g id="xtick_55">
     <g id="line2d_163">
      <path clip-path="url(#p84d6736419)" d="M 313.293523 298.944 
L 313.293523 27.648 
" style="fill:none;stroke:#b0b0b0;stroke-linecap:square;stroke-opacity:0.15;stroke-width:0.8;"/>
     </g>
     <g id="line2d_164">
      <g>
       <use style="stroke:#000000;stroke-width:0.6;" x="313.293523" xlink:href="#m655076b1c3" y="298.944"/>
      </g>
     </g>
     <g id="line2d_165">
      <g>
       <use style="stroke:#000000;stroke-width:0.6;" x="313.293523" xlink:href="#m749c01e64c" y="27.648"/>
      </g>
     </g>
    </g>
    <g id="xtick_56">
     <g id="line2d_166">
      <path clip-path="url(#p84d6736419)" d="M 315.509205 298.944 
L 315.509205 27.648 
" style="fill:none;stroke:#b0b0b0;stroke-linecap:square;stroke-opacity:0.15;stroke-width:0.8;"/>
     </g>
     <g id="line2d_167">
      <g>
       <use style="stroke:#000000;stroke-width:0.6;" x="315.509205" xlink:href="#m655076b1c3" y="298.944"/>
      </g>
     </g>
     <g id="line2d_168">
      <g>
       <use style="stroke:#000000;stroke-width:0.6;" x="315.509205" xlink:href="#m749c01e64c" y="27.648"/>
      </g>
     </g>
    </g>
    <g id="xtick_57">
     <g id="line2d_169">
      <path clip-path="url(#p84d6736419)" d="M 330.530374 298.944 
L 330.530374 27.648 
" style="fill:none;stroke:#b0b0b0;stroke-linecap:square;stroke-opacity:0.15;stroke-width:0.8;"/>
     </g>
     <g id="line2d_170">
      <g>
       <use style="stroke:#000000;stroke-width:0.6;" x="330.530374" xlink:href="#m655076b1c3" y="298.944"/>
      </g>
     </g>
     <g id="line2d_171">
      <g>
       <use style="stroke:#000000;stroke-width:0.6;" x="330.530374" xlink:href="#m749c01e64c" y="27.648"/>
      </g>
     </g>
    </g>
    <g id="xtick_58">
     <g id="line2d_172">
      <path clip-path="url(#p84d6736419)" d="M 338.157803 298.944 
L 338.157803 27.648 
" style="fill:none;stroke:#b0b0b0;stroke-linecap:square;stroke-opacity:0.15;stroke-width:0.8;"/>
     </g>
     <g id="line2d_173">
      <g>
       <use style="stroke:#000000;stroke-width:0.6;" x="338.157803" xlink:href="#m655076b1c3" y="298.944"/>
      </g>
     </g>
     <g id="line2d_174">
      <g>
       <use style="stroke:#000000;stroke-width:0.6;" x="338.157803" xlink:href="#m749c01e64c" y="27.648"/>
      </g>
     </g>
    </g>
    <g id="xtick_59">
     <g id="line2d_175">
      <path clip-path="url(#p84d6736419)" d="M 343.569549 298.944 
L 343.569549 27.648 
" style="fill:none;stroke:#b0b0b0;stroke-linecap:square;stroke-opacity:0.15;stroke-width:0.8;"/>
     </g>
     <g id="line2d_176">
      <g>
       <use style="stroke:#000000;stroke-width:0.6;" x="343.569549" xlink:href="#m655076b1c3" y="298.944"/>
      </g>
     </g>
     <g id="line2d_177">
      <g>
       <use style="stroke:#000000;stroke-width:0.6;" x="343.569549" xlink:href="#m749c01e64c" y="27.648"/>
      </g>
     </g>
    </g>
    <g id="xtick_60">
     <g id="line2d_178">
      <path clip-path="url(#p84d6736419)" d="M 347.767226 298.944 
L 347.767226 27.648 
" style="fill:none;stroke:#b0b0b0;stroke-linecap:square;stroke-opacity:0.15;stroke-width:0.8;"/>
     </g>
     <g id="line2d_179">
      <g>
       <use style="stroke:#000000;stroke-width:0.6;" x="347.767226" xlink:href="#m655076b1c3" y="298.944"/>
      </g>
     </g>
     <g id="line2d_180">
      <g>
       <use style="stroke:#000000;stroke-width:0.6;" x="347.767226" xlink:href="#m749c01e64c" y="27.648"/>
      </g>
     </g>
    </g>
    <g id="xtick_61">
     <g id="line2d_181">
      <path clip-path="url(#p84d6736419)" d="M 351.196977 298.944 
L 351.196977 27.648 
" style="fill:none;stroke:#b0b0b0;stroke-linecap:square;stroke-opacity:0.15;stroke-width:0.8;"/>
     </g>
     <g id="line2d_182">
      <g>
       <use style="stroke:#000000;stroke-width:0.6;" x="351.196977" xlink:href="#m655076b1c3" y="298.944"/>
      </g>
     </g>
     <g id="line2d_183">
      <g>
       <use style="stroke:#000000;stroke-width:0.6;" x="351.196977" xlink:href="#m749c01e64c" y="27.648"/>
      </g>
     </g>
    </g>
    <g id="xtick_62">
     <g id="line2d_184">
      <path clip-path="url(#p84d6736419)" d="M 354.096791 298.944 
L 354.096791 27.648 
" style="fill:none;stroke:#b0b0b0;stroke-linecap:square;stroke-opacity:0.15;stroke-width:0.8;"/>
     </g>
     <g id="line2d_185">
      <g>
       <use style="stroke:#000000;stroke-width:0.6;" x="354.096791" xlink:href="#m655076b1c3" y="298.944"/>
      </g>
     </g>
     <g id="line2d_186">
      <g>
       <use style="stroke:#000000;stroke-width:0.6;" x="354.096791" xlink:href="#m749c01e64c" y="27.648"/>
      </g>
     </g>
    </g>
    <g id="xtick_63">
     <g id="line2d_187">
      <path clip-path="url(#p84d6736419)" d="M 356.608723 298.944 
L 356.608723 27.648 
" style="fill:none;stroke:#b0b0b0;stroke-linecap:square;stroke-opacity:0.15;stroke-width:0.8;"/>
     </g>
     <g id="line2d_188">
      <g>
       <use style="stroke:#000000;stroke-width:0.6;" x="356.608723" xlink:href="#m655076b1c3" y="298.944"/>
      </g>
     </g>
     <g id="line2d_189">
      <g>
       <use style="stroke:#000000;stroke-width:0.6;" x="356.608723" xlink:href="#m749c01e64c" y="27.648"/>
      </g>
     </g>
    </g>
    <g id="xtick_64">
     <g id="line2d_190">
      <path clip-path="url(#p84d6736419)" d="M 358.824405 298.944 
L 358.824405 27.648 
" style="fill:none;stroke:#b0b0b0;stroke-linecap:square;stroke-opacity:0.15;stroke-width:0.8;"/>
     </g>
     <g id="line2d_191">
      <g>
       <use style="stroke:#000000;stroke-width:0.6;" x="358.824405" xlink:href="#m655076b1c3" y="298.944"/>
      </g>
     </g>
     <g id="line2d_192">
      <g>
       <use style="stroke:#000000;stroke-width:0.6;" x="358.824405" xlink:href="#m749c01e64c" y="27.648"/>
      </g>
     </g>
    </g>
    <g id="text_9">
     <!-- log10(# f-evals / dimension) -->
     <g transform="translate(102.985622 336.826656)scale(0.15 -0.15)">
      <defs>
       <path d="M 603 4863 
L 1178 4863 
L 1178 0 
L 603 0 
L 603 4863 
z
" id="DejaVuSans-6c" transform="scale(0.015625)"/>
       <path d="M 1959 3097 
Q 1497 3097 1228 2736 
Q 959 2375 959 1747 
Q 959 1119 1226 758 
Q 1494 397 1959 397 
Q 2419 397 2687 759 
Q 2956 1122 2956 1747 
Q 2956 2369 2687 2733 
Q 2419 3097 1959 3097 
z
M 1959 3584 
Q 2709 3584 3137 3096 
Q 3566 2609 3566 1747 
Q 3566 888 3137 398 
Q 2709 -91 1959 -91 
Q 1206 -91 779 398 
Q 353 888 353 1747 
Q 353 2609 779 3096 
Q 1206 3584 1959 3584 
z
" id="DejaVuSans-6f" transform="scale(0.015625)"/>
       <path d="M 2906 1791 
Q 2906 2416 2648 2759 
Q 2391 3103 1925 3103 
Q 1463 3103 1205 2759 
Q 947 2416 947 1791 
Q 947 1169 1205 825 
Q 1463 481 1925 481 
Q 2391 481 2648 825 
Q 2906 1169 2906 1791 
z
M 3481 434 
Q 3481 -459 3084 -895 
Q 2688 -1331 1869 -1331 
Q 1566 -1331 1297 -1286 
Q 1028 -1241 775 -1147 
L 775 -588 
Q 1028 -725 1275 -790 
Q 1522 -856 1778 -856 
Q 2344 -856 2625 -561 
Q 2906 -266 2906 331 
L 2906 616 
Q 2728 306 2450 153 
Q 2172 0 1784 0 
Q 1141 0 747 490 
Q 353 981 353 1791 
Q 353 2603 747 3093 
Q 1141 3584 1784 3584 
Q 2172 3584 2450 3431 
Q 2728 3278 2906 2969 
L 2906 3500 
L 3481 3500 
L 3481 434 
z
" id="DejaVuSans-67" transform="scale(0.015625)"/>
       <path d="M 1984 4856 
Q 1566 4138 1362 3434 
Q 1159 2731 1159 2009 
Q 1159 1288 1364 580 
Q 1569 -128 1984 -844 
L 1484 -844 
Q 1016 -109 783 600 
Q 550 1309 550 2009 
Q 550 2706 781 3412 
Q 1013 4119 1484 4856 
L 1984 4856 
z
" id="DejaVuSans-28" transform="scale(0.015625)"/>
       <path d="M 3272 2816 
L 2363 2816 
L 2100 1772 
L 3016 1772 
L 3272 2816 
z
M 2803 4594 
L 2478 3297 
L 3391 3297 
L 3719 4594 
L 4219 4594 
L 3897 3297 
L 4872 3297 
L 4872 2816 
L 3775 2816 
L 3519 1772 
L 4513 1772 
L 4513 1294 
L 3397 1294 
L 3072 0 
L 2572 0 
L 2894 1294 
L 1978 1294 
L 1656 0 
L 1153 0 
L 1478 1294 
L 494 1294 
L 494 1772 
L 1594 1772 
L 1856 2816 
L 850 2816 
L 850 3297 
L 1978 3297 
L 2297 4594 
L 2803 4594 
z
" id="DejaVuSans-23" transform="scale(0.015625)"/>
       <path id="DejaVuSans-20" transform="scale(0.015625)"/>
       <path d="M 2375 4863 
L 2375 4384 
L 1825 4384 
Q 1516 4384 1395 4259 
Q 1275 4134 1275 3809 
L 1275 3500 
L 2222 3500 
L 2222 3053 
L 1275 3053 
L 1275 0 
L 697 0 
L 697 3053 
L 147 3053 
L 147 3500 
L 697 3500 
L 697 3744 
Q 697 4328 969 4595 
Q 1241 4863 1831 4863 
L 2375 4863 
z
" id="DejaVuSans-66" transform="scale(0.015625)"/>
       <path d="M 313 2009 
L 1997 2009 
L 1997 1497 
L 313 1497 
L 313 2009 
z
" id="DejaVuSans-2d" transform="scale(0.015625)"/>
       <path d="M 3597 1894 
L 3597 1613 
L 953 1613 
Q 991 1019 1311 708 
Q 1631 397 2203 397 
Q 2534 397 2845 478 
Q 3156 559 3463 722 
L 3463 178 
Q 3153 47 2828 -22 
Q 2503 -91 2169 -91 
Q 1331 -91 842 396 
Q 353 884 353 1716 
Q 353 2575 817 3079 
Q 1281 3584 2069 3584 
Q 2775 3584 3186 3129 
Q 3597 2675 3597 1894 
z
M 3022 2063 
Q 3016 2534 2758 2815 
Q 2500 3097 2075 3097 
Q 1594 3097 1305 2825 
Q 1016 2553 972 2059 
L 3022 2063 
z
" id="DejaVuSans-65" transform="scale(0.015625)"/>
       <path d="M 191 3500 
L 800 3500 
L 1894 563 
L 2988 3500 
L 3597 3500 
L 2284 0 
L 1503 0 
L 191 3500 
z
" id="DejaVuSans-76" transform="scale(0.015625)"/>
       <path d="M 2194 1759 
Q 1497 1759 1228 1600 
Q 959 1441 959 1056 
Q 959 750 1161 570 
Q 1363 391 1709 391 
Q 2188 391 2477 730 
Q 2766 1069 2766 1631 
L 2766 1759 
L 2194 1759 
z
M 3341 1997 
L 3341 0 
L 2766 0 
L 2766 531 
Q 2569 213 2275 61 
Q 1981 -91 1556 -91 
Q 1019 -91 701 211 
Q 384 513 384 1019 
Q 384 1609 779 1909 
Q 1175 2209 1959 2209 
L 2766 2209 
L 2766 2266 
Q 2766 2663 2505 2880 
Q 2244 3097 1772 3097 
Q 1472 3097 1187 3025 
Q 903 2953 641 2809 
L 641 3341 
Q 956 3463 1253 3523 
Q 1550 3584 1831 3584 
Q 2591 3584 2966 3190 
Q 3341 2797 3341 1997 
z
" id="DejaVuSans-61" transform="scale(0.015625)"/>
       <path d="M 2834 3397 
L 2834 2853 
Q 2591 2978 2328 3040 
Q 2066 3103 1784 3103 
Q 1356 3103 1142 2972 
Q 928 2841 928 2578 
Q 928 2378 1081 2264 
Q 1234 2150 1697 2047 
L 1894 2003 
Q 2506 1872 2764 1633 
Q 3022 1394 3022 966 
Q 3022 478 2636 193 
Q 2250 -91 1575 -91 
Q 1294 -91 989 -36 
Q 684 19 347 128 
L 347 722 
Q 666 556 975 473 
Q 1284 391 1588 391 
Q 1994 391 2212 530 
Q 2431 669 2431 922 
Q 2431 1156 2273 1281 
Q 2116 1406 1581 1522 
L 1381 1569 
Q 847 1681 609 1914 
Q 372 2147 372 2553 
Q 372 3047 722 3315 
Q 1072 3584 1716 3584 
Q 2034 3584 2315 3537 
Q 2597 3491 2834 3397 
z
" id="DejaVuSans-73" transform="scale(0.015625)"/>
       <path d="M 1625 4666 
L 2156 4666 
L 531 -594 
L 0 -594 
L 1625 4666 
z
" id="DejaVuSans-2f" transform="scale(0.015625)"/>
       <path d="M 2906 2969 
L 2906 4863 
L 3481 4863 
L 3481 0 
L 2906 0 
L 2906 525 
Q 2725 213 2448 61 
Q 2172 -91 1784 -91 
Q 1150 -91 751 415 
Q 353 922 353 1747 
Q 353 2572 751 3078 
Q 1150 3584 1784 3584 
Q 2172 3584 2448 3432 
Q 2725 3281 2906 2969 
z
M 947 1747 
Q 947 1113 1208 752 
Q 1469 391 1925 391 
Q 2381 391 2643 752 
Q 2906 1113 2906 1747 
Q 2906 2381 2643 2742 
Q 2381 3103 1925 3103 
Q 1469 3103 1208 2742 
Q 947 2381 947 1747 
z
" id="DejaVuSans-64" transform="scale(0.015625)"/>
       <path d="M 603 3500 
L 1178 3500 
L 1178 0 
L 603 0 
L 603 3500 
z
M 603 4863 
L 1178 4863 
L 1178 4134 
L 603 4134 
L 603 4863 
z
" id="DejaVuSans-69" transform="scale(0.015625)"/>
       <path d="M 3328 2828 
Q 3544 3216 3844 3400 
Q 4144 3584 4550 3584 
Q 5097 3584 5394 3201 
Q 5691 2819 5691 2113 
L 5691 0 
L 5113 0 
L 5113 2094 
Q 5113 2597 4934 2840 
Q 4756 3084 4391 3084 
Q 3944 3084 3684 2787 
Q 3425 2491 3425 1978 
L 3425 0 
L 2847 0 
L 2847 2094 
Q 2847 2600 2669 2842 
Q 2491 3084 2119 3084 
Q 1678 3084 1418 2786 
Q 1159 2488 1159 1978 
L 1159 0 
L 581 0 
L 581 3500 
L 1159 3500 
L 1159 2956 
Q 1356 3278 1631 3431 
Q 1906 3584 2284 3584 
Q 2666 3584 2933 3390 
Q 3200 3197 3328 2828 
z
" id="DejaVuSans-6d" transform="scale(0.015625)"/>
       <path d="M 3513 2113 
L 3513 0 
L 2938 0 
L 2938 2094 
Q 2938 2591 2744 2837 
Q 2550 3084 2163 3084 
Q 1697 3084 1428 2787 
Q 1159 2491 1159 1978 
L 1159 0 
L 581 0 
L 581 3500 
L 1159 3500 
L 1159 2956 
Q 1366 3272 1645 3428 
Q 1925 3584 2291 3584 
Q 2894 3584 3203 3211 
Q 3513 2838 3513 2113 
z
" id="DejaVuSans-6e" transform="scale(0.015625)"/>
       <path d="M 513 4856 
L 1013 4856 
Q 1481 4119 1714 3412 
Q 1947 2706 1947 2009 
Q 1947 1309 1714 600 
Q 1481 -109 1013 -844 
L 513 -844 
Q 928 -128 1133 580 
Q 1338 1288 1338 2009 
Q 1338 2731 1133 3434 
Q 928 4138 513 4856 
z
" id="DejaVuSans-29" transform="scale(0.015625)"/>
      </defs>
      <use xlink:href="#DejaVuSans-6c"/>
      <use x="27.783203" xlink:href="#DejaVuSans-6f"/>
      <use x="88.964844" xlink:href="#DejaVuSans-67"/>
      <use x="152.441406" xlink:href="#DejaVuSans-31"/>
      <use x="216.064453" xlink:href="#DejaVuSans-30"/>
      <use x="279.6875" xlink:href="#DejaVuSans-28"/>
      <use x="318.701172" xlink:href="#DejaVuSans-23"/>
      <use x="402.490234" xlink:href="#DejaVuSans-20"/>
      <use x="434.277344" xlink:href="#DejaVuSans-66"/>
      <use x="463.982422" xlink:href="#DejaVuSans-2d"/>
      <use x="500.066406" xlink:href="#DejaVuSans-65"/>
      <use x="561.589844" xlink:href="#DejaVuSans-76"/>
      <use x="620.769531" xlink:href="#DejaVuSans-61"/>
      <use x="682.048828" xlink:href="#DejaVuSans-6c"/>
      <use x="709.832031" xlink:href="#DejaVuSans-73"/>
      <use x="761.931641" xlink:href="#DejaVuSans-20"/>
      <use x="793.71875" xlink:href="#DejaVuSans-2f"/>
      <use x="827.410156" xlink:href="#DejaVuSans-20"/>
      <use x="859.197266" xlink:href="#DejaVuSans-64"/>
      <use x="922.673828" xlink:href="#DejaVuSans-69"/>
      <use x="950.457031" xlink:href="#DejaVuSans-6d"/>
      <use x="1047.869141" xlink:href="#DejaVuSans-65"/>
      <use x="1109.392578" xlink:href="#DejaVuSans-6e"/>
      <use x="1172.771484" xlink:href="#DejaVuSans-73"/>
      <use x="1224.871094" xlink:href="#DejaVuSans-69"/>
      <use x="1252.654297" xlink:href="#DejaVuSans-6f"/>
      <use x="1313.835938" xlink:href="#DejaVuSans-6e"/>
      <use x="1377.214844" xlink:href="#DejaVuSans-29"/>
     </g>
    </g>
   </g>
   <g id="matplotlib.axis_2">
    <g id="ytick_1">
     <g id="line2d_193">
      <path clip-path="url(#p84d6736419)" d="M 57.6 298.944 
L 360.8064 298.944 
" style="fill:none;stroke:#b0b0b0;stroke-linecap:square;stroke-width:0.8;"/>
     </g>
     <g id="line2d_194">
      <defs>
       <path d="M 0 0 
L -3.5 0 
" id="m18d8ba7711" style="stroke:#000000;stroke-width:0.8;"/>
      </defs>
      <g>
       <use style="stroke:#000000;stroke-width:0.8;" x="57.6" xlink:href="#m18d8ba7711" y="298.944"/>
      </g>
     </g>
     <g id="line2d_195">
      <defs>
       <path d="M 0 0 
L 3.5 0 
" id="m80836e9857" style="stroke:#000000;stroke-width:0.8;"/>
      </defs>
      <g>
       <use style="stroke:#000000;stroke-width:0.8;" x="360.8064" xlink:href="#m80836e9857" y="298.944"/>
      </g>
     </g>
     <g id="text_10">
      <!-- 0.0 -->
      <g transform="translate(28.335625 304.262906)scale(0.14 -0.14)">
       <defs>
        <path d="M 684 794 
L 1344 794 
L 1344 0 
L 684 0 
L 684 794 
z
" id="DejaVuSans-2e" transform="scale(0.015625)"/>
       </defs>
       <use xlink:href="#DejaVuSans-30"/>
       <use x="63.623047" xlink:href="#DejaVuSans-2e"/>
       <use x="95.410156" xlink:href="#DejaVuSans-30"/>
      </g>
     </g>
    </g>
    <g id="ytick_2">
     <g id="line2d_196">
      <path clip-path="url(#p84d6736419)" d="M 57.6 244.6848 
L 360.8064 244.6848 
" style="fill:none;stroke:#b0b0b0;stroke-linecap:square;stroke-width:0.8;"/>
     </g>
     <g id="line2d_197">
      <g>
       <use style="stroke:#000000;stroke-width:0.8;" x="57.6" xlink:href="#m18d8ba7711" y="244.6848"/>
      </g>
     </g>
     <g id="line2d_198">
      <g>
       <use style="stroke:#000000;stroke-width:0.8;" x="360.8064" xlink:href="#m80836e9857" y="244.6848"/>
      </g>
     </g>
     <g id="text_11">
      <!-- 0.2 -->
      <g transform="translate(28.335625 250.003706)scale(0.14 -0.14)">
       <use xlink:href="#DejaVuSans-30"/>
       <use x="63.623047" xlink:href="#DejaVuSans-2e"/>
       <use x="95.410156" xlink:href="#DejaVuSans-32"/>
      </g>
     </g>
    </g>
    <g id="ytick_3">
     <g id="line2d_199">
      <path clip-path="url(#p84d6736419)" d="M 57.6 190.4256 
L 360.8064 190.4256 
" style="fill:none;stroke:#b0b0b0;stroke-linecap:square;stroke-width:0.8;"/>
     </g>
     <g id="line2d_200">
      <g>
       <use style="stroke:#000000;stroke-width:0.8;" x="57.6" xlink:href="#m18d8ba7711" y="190.4256"/>
      </g>
     </g>
     <g id="line2d_201">
      <g>
       <use style="stroke:#000000;stroke-width:0.8;" x="360.8064" xlink:href="#m80836e9857" y="190.4256"/>
      </g>
     </g>
     <g id="text_12">
      <!-- 0.4 -->
      <g transform="translate(28.335625 195.744506)scale(0.14 -0.14)">
       <use xlink:href="#DejaVuSans-30"/>
       <use x="63.623047" xlink:href="#DejaVuSans-2e"/>
       <use x="95.410156" xlink:href="#DejaVuSans-34"/>
      </g>
     </g>
    </g>
    <g id="ytick_4">
     <g id="line2d_202">
      <path clip-path="url(#p84d6736419)" d="M 57.6 136.1664 
L 360.8064 136.1664 
" style="fill:none;stroke:#b0b0b0;stroke-linecap:square;stroke-width:0.8;"/>
     </g>
     <g id="line2d_203">
      <g>
       <use style="stroke:#000000;stroke-width:0.8;" x="57.6" xlink:href="#m18d8ba7711" y="136.1664"/>
      </g>
     </g>
     <g id="line2d_204">
      <g>
       <use style="stroke:#000000;stroke-width:0.8;" x="360.8064" xlink:href="#m80836e9857" y="136.1664"/>
      </g>
     </g>
     <g id="text_13">
      <!-- 0.6 -->
      <g transform="translate(28.335625 141.485306)scale(0.14 -0.14)">
       <use xlink:href="#DejaVuSans-30"/>
       <use x="63.623047" xlink:href="#DejaVuSans-2e"/>
       <use x="95.410156" xlink:href="#DejaVuSans-36"/>
      </g>
     </g>
    </g>
    <g id="ytick_5">
     <g id="line2d_205">
      <path clip-path="url(#p84d6736419)" d="M 57.6 81.9072 
L 360.8064 81.9072 
" style="fill:none;stroke:#b0b0b0;stroke-linecap:square;stroke-width:0.8;"/>
     </g>
     <g id="line2d_206">
      <g>
       <use style="stroke:#000000;stroke-width:0.8;" x="57.6" xlink:href="#m18d8ba7711" y="81.9072"/>
      </g>
     </g>
     <g id="line2d_207">
      <g>
       <use style="stroke:#000000;stroke-width:0.8;" x="360.8064" xlink:href="#m80836e9857" y="81.9072"/>
      </g>
     </g>
     <g id="text_14">
      <!-- 0.8 -->
      <g transform="translate(28.335625 87.226106)scale(0.14 -0.14)">
       <defs>
        <path d="M 2034 2216 
Q 1584 2216 1326 1975 
Q 1069 1734 1069 1313 
Q 1069 891 1326 650 
Q 1584 409 2034 409 
Q 2484 409 2743 651 
Q 3003 894 3003 1313 
Q 3003 1734 2745 1975 
Q 2488 2216 2034 2216 
z
M 1403 2484 
Q 997 2584 770 2862 
Q 544 3141 544 3541 
Q 544 4100 942 4425 
Q 1341 4750 2034 4750 
Q 2731 4750 3128 4425 
Q 3525 4100 3525 3541 
Q 3525 3141 3298 2862 
Q 3072 2584 2669 2484 
Q 3125 2378 3379 2068 
Q 3634 1759 3634 1313 
Q 3634 634 3220 271 
Q 2806 -91 2034 -91 
Q 1263 -91 848 271 
Q 434 634 434 1313 
Q 434 1759 690 2068 
Q 947 2378 1403 2484 
z
M 1172 3481 
Q 1172 3119 1398 2916 
Q 1625 2713 2034 2713 
Q 2441 2713 2670 2916 
Q 2900 3119 2900 3481 
Q 2900 3844 2670 4047 
Q 2441 4250 2034 4250 
Q 1625 4250 1398 4047 
Q 1172 3844 1172 3481 
z
" id="DejaVuSans-38" transform="scale(0.015625)"/>
       </defs>
       <use xlink:href="#DejaVuSans-30"/>
       <use x="63.623047" xlink:href="#DejaVuSans-2e"/>
       <use x="95.410156" xlink:href="#DejaVuSans-38"/>
      </g>
     </g>
    </g>
    <g id="ytick_6">
     <g id="line2d_208">
      <path clip-path="url(#p84d6736419)" d="M 57.6 27.648 
L 360.8064 27.648 
" style="fill:none;stroke:#b0b0b0;stroke-linecap:square;stroke-width:0.8;"/>
     </g>
     <g id="line2d_209">
      <g>
       <use style="stroke:#000000;stroke-width:0.8;" x="57.6" xlink:href="#m18d8ba7711" y="27.648"/>
      </g>
     </g>
     <g id="line2d_210">
      <g>
       <use style="stroke:#000000;stroke-width:0.8;" x="360.8064" xlink:href="#m80836e9857" y="27.648"/>
      </g>
     </g>
     <g id="text_15">
      <!-- 1.0 -->
      <g transform="translate(28.335625 32.966906)scale(0.14 -0.14)">
       <use xlink:href="#DejaVuSans-31"/>
       <use x="63.623047" xlink:href="#DejaVuSans-2e"/>
       <use x="95.410156" xlink:href="#DejaVuSans-30"/>
      </g>
     </g>
    </g>
    <g id="ytick_7">
     <g id="line2d_211">
      <path clip-path="url(#p84d6736419)" d="M 57.6 285.3792 
L 360.8064 285.3792 
" style="fill:none;stroke:#b0b0b0;stroke-linecap:square;stroke-opacity:0.15;stroke-width:0.8;"/>
     </g>
     <g id="line2d_212">
      <defs>
       <path d="M 0 0 
L -2 0 
" id="mfd2df2cc4d" style="stroke:#000000;stroke-width:0.6;"/>
      </defs>
      <g>
       <use style="stroke:#000000;stroke-width:0.6;" x="57.6" xlink:href="#mfd2df2cc4d" y="285.3792"/>
      </g>
     </g>
     <g id="line2d_213">
      <defs>
       <path d="M 0 0 
L 2 0 
" id="m24385e264a" style="stroke:#000000;stroke-width:0.6;"/>
      </defs>
      <g>
       <use style="stroke:#000000;stroke-width:0.6;" x="360.8064" xlink:href="#m24385e264a" y="285.3792"/>
      </g>
     </g>
    </g>
    <g id="ytick_8">
     <g id="line2d_214">
      <path clip-path="url(#p84d6736419)" d="M 57.6 271.8144 
L 360.8064 271.8144 
" style="fill:none;stroke:#b0b0b0;stroke-linecap:square;stroke-opacity:0.15;stroke-width:0.8;"/>
     </g>
     <g id="line2d_215">
      <g>
       <use style="stroke:#000000;stroke-width:0.6;" x="57.6" xlink:href="#mfd2df2cc4d" y="271.8144"/>
      </g>
     </g>
     <g id="line2d_216">
      <g>
       <use style="stroke:#000000;stroke-width:0.6;" x="360.8064" xlink:href="#m24385e264a" y="271.8144"/>
      </g>
     </g>
    </g>
    <g id="ytick_9">
     <g id="line2d_217">
      <path clip-path="url(#p84d6736419)" d="M 57.6 258.2496 
L 360.8064 258.2496 
" style="fill:none;stroke:#b0b0b0;stroke-linecap:square;stroke-opacity:0.15;stroke-width:0.8;"/>
     </g>
     <g id="line2d_218">
      <g>
       <use style="stroke:#000000;stroke-width:0.6;" x="57.6" xlink:href="#mfd2df2cc4d" y="258.2496"/>
      </g>
     </g>
     <g id="line2d_219">
      <g>
       <use style="stroke:#000000;stroke-width:0.6;" x="360.8064" xlink:href="#m24385e264a" y="258.2496"/>
      </g>
     </g>
    </g>
    <g id="ytick_10">
     <g id="line2d_220">
      <path clip-path="url(#p84d6736419)" d="M 57.6 231.12 
L 360.8064 231.12 
" style="fill:none;stroke:#b0b0b0;stroke-linecap:square;stroke-opacity:0.15;stroke-width:0.8;"/>
     </g>
     <g id="line2d_221">
      <g>
       <use style="stroke:#000000;stroke-width:0.6;" x="57.6" xlink:href="#mfd2df2cc4d" y="231.12"/>
      </g>
     </g>
     <g id="line2d_222">
      <g>
       <use style="stroke:#000000;stroke-width:0.6;" x="360.8064" xlink:href="#m24385e264a" y="231.12"/>
      </g>
     </g>
    </g>
    <g id="ytick_11">
     <g id="line2d_223">
      <path clip-path="url(#p84d6736419)" d="M 57.6 217.5552 
L 360.8064 217.5552 
" style="fill:none;stroke:#b0b0b0;stroke-linecap:square;stroke-opacity:0.15;stroke-width:0.8;"/>
     </g>
     <g id="line2d_224">
      <g>
       <use style="stroke:#000000;stroke-width:0.6;" x="57.6" xlink:href="#mfd2df2cc4d" y="217.5552"/>
      </g>
     </g>
     <g id="line2d_225">
      <g>
       <use style="stroke:#000000;stroke-width:0.6;" x="360.8064" xlink:href="#m24385e264a" y="217.5552"/>
      </g>
     </g>
    </g>
    <g id="ytick_12">
     <g id="line2d_226">
      <path clip-path="url(#p84d6736419)" d="M 57.6 203.9904 
L 360.8064 203.9904 
" style="fill:none;stroke:#b0b0b0;stroke-linecap:square;stroke-opacity:0.15;stroke-width:0.8;"/>
     </g>
     <g id="line2d_227">
      <g>
       <use style="stroke:#000000;stroke-width:0.6;" x="57.6" xlink:href="#mfd2df2cc4d" y="203.9904"/>
      </g>
     </g>
     <g id="line2d_228">
      <g>
       <use style="stroke:#000000;stroke-width:0.6;" x="360.8064" xlink:href="#m24385e264a" y="203.9904"/>
      </g>
     </g>
    </g>
    <g id="ytick_13">
     <g id="line2d_229">
      <path clip-path="url(#p84d6736419)" d="M 57.6 176.8608 
L 360.8064 176.8608 
" style="fill:none;stroke:#b0b0b0;stroke-linecap:square;stroke-opacity:0.15;stroke-width:0.8;"/>
     </g>
     <g id="line2d_230">
      <g>
       <use style="stroke:#000000;stroke-width:0.6;" x="57.6" xlink:href="#mfd2df2cc4d" y="176.8608"/>
      </g>
     </g>
     <g id="line2d_231">
      <g>
       <use style="stroke:#000000;stroke-width:0.6;" x="360.8064" xlink:href="#m24385e264a" y="176.8608"/>
      </g>
     </g>
    </g>
    <g id="ytick_14">
     <g id="line2d_232">
      <path clip-path="url(#p84d6736419)" d="M 57.6 163.296 
L 360.8064 163.296 
" style="fill:none;stroke:#b0b0b0;stroke-linecap:square;stroke-opacity:0.15;stroke-width:0.8;"/>
     </g>
     <g id="line2d_233">
      <g>
       <use style="stroke:#000000;stroke-width:0.6;" x="57.6" xlink:href="#mfd2df2cc4d" y="163.296"/>
      </g>
     </g>
     <g id="line2d_234">
      <g>
       <use style="stroke:#000000;stroke-width:0.6;" x="360.8064" xlink:href="#m24385e264a" y="163.296"/>
      </g>
     </g>
    </g>
    <g id="ytick_15">
     <g id="line2d_235">
      <path clip-path="url(#p84d6736419)" d="M 57.6 149.7312 
L 360.8064 149.7312 
" style="fill:none;stroke:#b0b0b0;stroke-linecap:square;stroke-opacity:0.15;stroke-width:0.8;"/>
     </g>
     <g id="line2d_236">
      <g>
       <use style="stroke:#000000;stroke-width:0.6;" x="57.6" xlink:href="#mfd2df2cc4d" y="149.7312"/>
      </g>
     </g>
     <g id="line2d_237">
      <g>
       <use style="stroke:#000000;stroke-width:0.6;" x="360.8064" xlink:href="#m24385e264a" y="149.7312"/>
      </g>
     </g>
    </g>
    <g id="ytick_16">
     <g id="line2d_238">
      <path clip-path="url(#p84d6736419)" d="M 57.6 122.6016 
L 360.8064 122.6016 
" style="fill:none;stroke:#b0b0b0;stroke-linecap:square;stroke-opacity:0.15;stroke-width:0.8;"/>
     </g>
     <g id="line2d_239">
      <g>
       <use style="stroke:#000000;stroke-width:0.6;" x="57.6" xlink:href="#mfd2df2cc4d" y="122.6016"/>
      </g>
     </g>
     <g id="line2d_240">
      <g>
       <use style="stroke:#000000;stroke-width:0.6;" x="360.8064" xlink:href="#m24385e264a" y="122.6016"/>
      </g>
     </g>
    </g>
    <g id="ytick_17">
     <g id="line2d_241">
      <path clip-path="url(#p84d6736419)" d="M 57.6 109.0368 
L 360.8064 109.0368 
" style="fill:none;stroke:#b0b0b0;stroke-linecap:square;stroke-opacity:0.15;stroke-width:0.8;"/>
     </g>
     <g id="line2d_242">
      <g>
       <use style="stroke:#000000;stroke-width:0.6;" x="57.6" xlink:href="#mfd2df2cc4d" y="109.0368"/>
      </g>
     </g>
     <g id="line2d_243">
      <g>
       <use style="stroke:#000000;stroke-width:0.6;" x="360.8064" xlink:href="#m24385e264a" y="109.0368"/>
      </g>
     </g>
    </g>
    <g id="ytick_18">
     <g id="line2d_244">
      <path clip-path="url(#p84d6736419)" d="M 57.6 95.472 
L 360.8064 95.472 
" style="fill:none;stroke:#b0b0b0;stroke-linecap:square;stroke-opacity:0.15;stroke-width:0.8;"/>
     </g>
     <g id="line2d_245">
      <g>
       <use style="stroke:#000000;stroke-width:0.6;" x="57.6" xlink:href="#mfd2df2cc4d" y="95.472"/>
      </g>
     </g>
     <g id="line2d_246">
      <g>
       <use style="stroke:#000000;stroke-width:0.6;" x="360.8064" xlink:href="#m24385e264a" y="95.472"/>
      </g>
     </g>
    </g>
    <g id="ytick_19">
     <g id="line2d_247">
      <path clip-path="url(#p84d6736419)" d="M 57.6 68.3424 
L 360.8064 68.3424 
" style="fill:none;stroke:#b0b0b0;stroke-linecap:square;stroke-opacity:0.15;stroke-width:0.8;"/>
     </g>
     <g id="line2d_248">
      <g>
       <use style="stroke:#000000;stroke-width:0.6;" x="57.6" xlink:href="#mfd2df2cc4d" y="68.3424"/>
      </g>
     </g>
     <g id="line2d_249">
      <g>
       <use style="stroke:#000000;stroke-width:0.6;" x="360.8064" xlink:href="#m24385e264a" y="68.3424"/>
      </g>
     </g>
    </g>
    <g id="ytick_20">
     <g id="line2d_250">
      <path clip-path="url(#p84d6736419)" d="M 57.6 54.7776 
L 360.8064 54.7776 
" style="fill:none;stroke:#b0b0b0;stroke-linecap:square;stroke-opacity:0.15;stroke-width:0.8;"/>
     </g>
     <g id="line2d_251">
      <g>
       <use style="stroke:#000000;stroke-width:0.6;" x="57.6" xlink:href="#mfd2df2cc4d" y="54.7776"/>
      </g>
     </g>
     <g id="line2d_252">
      <g>
       <use style="stroke:#000000;stroke-width:0.6;" x="360.8064" xlink:href="#m24385e264a" y="54.7776"/>
      </g>
     </g>
    </g>
    <g id="ytick_21">
     <g id="line2d_253">
      <path clip-path="url(#p84d6736419)" d="M 57.6 41.2128 
L 360.8064 41.2128 
" style="fill:none;stroke:#b0b0b0;stroke-linecap:square;stroke-opacity:0.15;stroke-width:0.8;"/>
     </g>
     <g id="line2d_254">
      <g>
       <use style="stroke:#000000;stroke-width:0.6;" x="57.6" xlink:href="#mfd2df2cc4d" y="41.2128"/>
      </g>
     </g>
     <g id="line2d_255">
      <g>
       <use style="stroke:#000000;stroke-width:0.6;" x="360.8064" xlink:href="#m24385e264a" y="41.2128"/>
      </g>
     </g>
    </g>
    <g id="text_16">
     <!-- Fraction of function,target pairs -->
     <g transform="translate(21.216094 281.871)rotate(-90)scale(0.15 -0.15)">
      <defs>
       <path d="M 628 4666 
L 3309 4666 
L 3309 4134 
L 1259 4134 
L 1259 2759 
L 3109 2759 
L 3109 2228 
L 1259 2228 
L 1259 0 
L 628 0 
L 628 4666 
z
" id="DejaVuSans-46" transform="scale(0.015625)"/>
       <path d="M 2631 2963 
Q 2534 3019 2420 3045 
Q 2306 3072 2169 3072 
Q 1681 3072 1420 2755 
Q 1159 2438 1159 1844 
L 1159 0 
L 581 0 
L 581 3500 
L 1159 3500 
L 1159 2956 
Q 1341 3275 1631 3429 
Q 1922 3584 2338 3584 
Q 2397 3584 2469 3576 
Q 2541 3569 2628 3553 
L 2631 2963 
z
" id="DejaVuSans-72" transform="scale(0.015625)"/>
       <path d="M 3122 3366 
L 3122 2828 
Q 2878 2963 2633 3030 
Q 2388 3097 2138 3097 
Q 1578 3097 1268 2742 
Q 959 2388 959 1747 
Q 959 1106 1268 751 
Q 1578 397 2138 397 
Q 2388 397 2633 464 
Q 2878 531 3122 666 
L 3122 134 
Q 2881 22 2623 -34 
Q 2366 -91 2075 -91 
Q 1284 -91 818 406 
Q 353 903 353 1747 
Q 353 2603 823 3093 
Q 1294 3584 2113 3584 
Q 2378 3584 2631 3529 
Q 2884 3475 3122 3366 
z
" id="DejaVuSans-63" transform="scale(0.015625)"/>
       <path d="M 1172 4494 
L 1172 3500 
L 2356 3500 
L 2356 3053 
L 1172 3053 
L 1172 1153 
Q 1172 725 1289 603 
Q 1406 481 1766 481 
L 2356 481 
L 2356 0 
L 1766 0 
Q 1100 0 847 248 
Q 594 497 594 1153 
L 594 3053 
L 172 3053 
L 172 3500 
L 594 3500 
L 594 4494 
L 1172 4494 
z
" id="DejaVuSans-74" transform="scale(0.015625)"/>
       <path d="M 544 1381 
L 544 3500 
L 1119 3500 
L 1119 1403 
Q 1119 906 1312 657 
Q 1506 409 1894 409 
Q 2359 409 2629 706 
Q 2900 1003 2900 1516 
L 2900 3500 
L 3475 3500 
L 3475 0 
L 2900 0 
L 2900 538 
Q 2691 219 2414 64 
Q 2138 -91 1772 -91 
Q 1169 -91 856 284 
Q 544 659 544 1381 
z
M 1991 3584 
L 1991 3584 
z
" id="DejaVuSans-75" transform="scale(0.015625)"/>
       <path d="M 750 794 
L 1409 794 
L 1409 256 
L 897 -744 
L 494 -744 
L 750 256 
L 750 794 
z
" id="DejaVuSans-2c" transform="scale(0.015625)"/>
       <path d="M 1159 525 
L 1159 -1331 
L 581 -1331 
L 581 3500 
L 1159 3500 
L 1159 2969 
Q 1341 3281 1617 3432 
Q 1894 3584 2278 3584 
Q 2916 3584 3314 3078 
Q 3713 2572 3713 1747 
Q 3713 922 3314 415 
Q 2916 -91 2278 -91 
Q 1894 -91 1617 61 
Q 1341 213 1159 525 
z
M 3116 1747 
Q 3116 2381 2855 2742 
Q 2594 3103 2138 3103 
Q 1681 3103 1420 2742 
Q 1159 2381 1159 1747 
Q 1159 1113 1420 752 
Q 1681 391 2138 391 
Q 2594 391 2855 752 
Q 3116 1113 3116 1747 
z
" id="DejaVuSans-70" transform="scale(0.015625)"/>
      </defs>
      <use xlink:href="#DejaVuSans-46"/>
      <use x="50.269531" xlink:href="#DejaVuSans-72"/>
      <use x="91.382812" xlink:href="#DejaVuSans-61"/>
      <use x="152.662109" xlink:href="#DejaVuSans-63"/>
      <use x="207.642578" xlink:href="#DejaVuSans-74"/>
      <use x="246.851562" xlink:href="#DejaVuSans-69"/>
      <use x="274.634766" xlink:href="#DejaVuSans-6f"/>
      <use x="335.816406" xlink:href="#DejaVuSans-6e"/>
      <use x="399.195312" xlink:href="#DejaVuSans-20"/>
      <use x="430.982422" xlink:href="#DejaVuSans-6f"/>
      <use x="492.164062" xlink:href="#DejaVuSans-66"/>
      <use x="527.369141" xlink:href="#DejaVuSans-20"/>
      <use x="559.15625" xlink:href="#DejaVuSans-66"/>
      <use x="594.361328" xlink:href="#DejaVuSans-75"/>
      <use x="657.740234" xlink:href="#DejaVuSans-6e"/>
      <use x="721.119141" xlink:href="#DejaVuSans-63"/>
      <use x="776.099609" xlink:href="#DejaVuSans-74"/>
      <use x="815.308594" xlink:href="#DejaVuSans-69"/>
      <use x="843.091797" xlink:href="#DejaVuSans-6f"/>
      <use x="904.273438" xlink:href="#DejaVuSans-6e"/>
      <use x="967.652344" xlink:href="#DejaVuSans-2c"/>
      <use x="999.439453" xlink:href="#DejaVuSans-74"/>
      <use x="1038.648438" xlink:href="#DejaVuSans-61"/>
      <use x="1099.927734" xlink:href="#DejaVuSans-72"/>
      <use x="1139.291016" xlink:href="#DejaVuSans-67"/>
      <use x="1202.767578" xlink:href="#DejaVuSans-65"/>
      <use x="1264.291016" xlink:href="#DejaVuSans-74"/>
      <use x="1303.5" xlink:href="#DejaVuSans-20"/>
      <use x="1335.287109" xlink:href="#DejaVuSans-70"/>
      <use x="1398.763672" xlink:href="#DejaVuSans-61"/>
      <use x="1460.042969" xlink:href="#DejaVuSans-69"/>
      <use x="1487.826172" xlink:href="#DejaVuSans-72"/>
      <use x="1528.939453" xlink:href="#DejaVuSans-73"/>
     </g>
    </g>
   </g>
   <g id="line2d_256">
    <defs>
     <path d="M 0 1 
C 0.265203 1 0.51958 0.894634 0.707107 0.707107 
C 0.894634 0.51958 1 0.265203 1 0 
C 1 -0.265203 0.894634 -0.51958 0.707107 -0.707107 
C 0.51958 -0.894634 0.265203 -1 0 -1 
C -0.265203 -1 -0.51958 -0.894634 -0.707107 -0.707107 
C -0.894634 -0.51958 -1 -0.265203 -1 0 
C -1 0.265203 -0.894634 0.51958 -0.707107 0.707107 
C -0.51958 0.894634 -0.265203 1 0 1 
z
" id="mc1e7de1321" style="stroke:#1874b4;"/>
    </defs>
    <g>
     <use style="fill:#1874b4;stroke:#1874b4;" x="294.664504" xlink:href="#mc1e7de1321" y="27.648"/>
    </g>
   </g>
   <g id="line2d_257">
    <path d="M 75.392898 298.944 
L 75.392898 298.589365 
L 83.411934 298.589365 
L 83.411934 298.234729 
L 87.922996 298.234729 
L 87.922996 297.880094 
L 91.578131 297.880094 
L 91.578131 297.525459 
L 92.991521 297.525459 
L 92.991521 297.170824 
L 94.372806 297.170824 
L 94.372806 296.816188 
L 95.155375 296.816188 
L 95.187286 296.106918 
L 96.391389 296.106918 
L 96.391389 295.752282 
L 98.200627 295.752282 
L 98.200627 295.397647 
L 99.166892 295.397647 
L 99.166892 295.043012 
L 99.613138 295.043012 
L 99.613138 294.688376 
L 99.738716 294.688376 
L 99.738716 294.333741 
L 100.390636 294.333741 
L 100.390636 293.979106 
L 107.684676 293.979106 
L 107.684676 293.624471 
L 108.393111 293.624471 
L 108.448334 292.9152 
L 110.917878 292.9152 
L 110.917878 292.560565 
L 112.544907 292.560565 
L 112.544907 291.851294 
L 113.014204 291.851294 
L 113.014204 291.496659 
L 113.137397 291.496659 
L 113.137397 291.142024 
L 113.405616 291.142024 
L 113.405616 290.787388 
L 114.928097 290.787388 
L 114.928097 290.432753 
L 116.320987 290.432753 
L 116.398581 289.723482 
L 117.018073 289.723482 
L 117.018073 289.368847 
L 117.738385 289.368847 
L 117.738385 289.014212 
L 118.071932 289.014212 
L 118.086095 288.304941 
L 118.222462 288.304941 
L 118.222462 287.950306 
L 120.136397 287.950306 
L 120.136397 287.595671 
L 120.463636 287.595671 
L 120.463636 287.241035 
L 121.644403 287.241035 
L 121.741802 286.531765 
L 121.850293 286.531765 
L 121.850293 286.177129 
L 122.141654 286.177129 
L 122.141654 285.822494 
L 123.346211 285.822494 
L 123.346211 285.467859 
L 123.706691 285.467859 
L 123.706691 285.113224 
L 124.682096 285.113224 
L 124.682096 284.758588 
L 125.034401 284.758588 
L 125.096276 284.049318 
L 126.402374 284.049318 
L 126.402374 283.694682 
L 126.55944 283.694682 
L 126.55944 283.340047 
L 127.586657 283.340047 
L 127.586657 282.985412 
L 128.935527 282.985412 
L 128.935527 282.630776 
L 129.668638 282.630776 
L 129.668638 282.276141 
L 130.15937 282.276141 
L 130.15937 281.921506 
L 130.381614 281.921506 
L 130.381614 281.566871 
L 130.724603 281.566871 
L 130.734242 280.8576 
L 133.260023 280.8576 
L 133.260023 280.502965 
L 133.758922 280.502965 
L 133.758922 280.148329 
L 133.983236 280.148329 
L 133.983236 279.793694 
L 134.364497 279.793694 
L 134.364497 279.439059 
L 135.536929 279.439059 
L 135.536929 279.084424 
L 136.812258 279.084424 
L 136.812258 278.729788 
L 137.115021 278.729788 
L 137.115021 278.375153 
L 137.83889 278.375153 
L 137.83889 278.020518 
L 138.287641 278.020518 
L 138.385748 276.956612 
L 140.530178 276.956612 
L 140.530178 276.601976 
L 140.648603 276.601976 
L 140.648603 276.247341 
L 141.064966 276.247341 
L 141.064966 275.892706 
L 143.01633 275.892706 
L 143.01633 275.538071 
L 143.1712 275.538071 
L 143.1712 275.183435 
L 147.79293 275.183435 
L 147.79293 274.8288 
L 148.513475 274.8288 
L 148.513475 274.474165 
L 178.438879 274.474165 
L 178.438879 274.119529 
L 178.952647 274.119529 
L 178.952647 273.764894 
L 179.072378 273.764894 
L 179.072378 273.410259 
L 179.346702 273.410259 
L 179.347611 272.700988 
L 179.919289 272.700988 
L 179.919289 272.346353 
L 180.070865 272.346353 
L 180.095863 271.637082 
L 180.248455 271.637082 
L 180.248455 271.282447 
L 180.436398 271.282447 
L 180.436398 270.927812 
L 180.740009 270.927812 
L 180.740009 270.573176 
L 181.091728 270.573176 
L 181.187255 269.863906 
L 181.501626 269.863906 
L 181.501626 269.509271 
L 182.206764 269.509271 
L 182.206764 269.154635 
L 182.7393 269.154635 
L 182.748254 268.445365 
L 191.193259 268.445365 
L 191.193259 268.090729 
L 192.194289 268.090729 
L 192.194289 267.736094 
L 194.181618 267.736094 
L 194.181618 267.381459 
L 194.309825 267.381459 
L 194.309825 267.026824 
L 194.482752 267.026824 
L 194.535774 265.962918 
L 194.658295 265.962918 
L 194.750065 264.899012 
L 194.783624 264.899012 
L 194.783624 264.544376 
L 194.89882 264.544376 
L 194.966777 263.835106 
L 195.067703 263.835106 
L 195.078813 263.125835 
L 195.353922 263.125835 
L 195.353922 262.7712 
L 195.481811 262.7712 
L 195.562444 261.707294 
L 195.617029 261.707294 
L 195.718266 260.998024 
L 196.038445 260.998024 
L 196.055654 260.288753 
L 196.257618 260.288753 
L 196.257618 259.934118 
L 196.385334 259.934118 
L 196.438319 258.870212 
L 196.731499 258.870212 
L 196.731499 258.515576 
L 196.844864 258.515576 
L 196.844864 258.160941 
L 196.977216 258.160941 
L 197.054607 256.7424 
L 197.246249 256.7424 
L 197.311984 256.033129 
L 197.481424 256.033129 
L 197.481424 255.678494 
L 197.686832 255.678494 
L 197.686832 255.323859 
L 197.818654 255.323859 
L 197.818654 254.969224 
L 198.133612 254.969224 
L 198.186576 254.259953 
L 198.395961 254.259953 
L 198.395961 253.905318 
L 198.508092 253.905318 
L 198.559228 253.196047 
L 198.682559 253.196047 
L 198.682559 252.841412 
L 198.814132 252.841412 
L 198.846463 252.132141 
L 198.968188 252.132141 
L 198.968188 251.777506 
L 199.178665 251.777506 
L 199.182402 251.068235 
L 199.363179 251.068235 
L 199.363179 250.7136 
L 199.503982 250.7136 
L 199.55 250.004329 
L 199.746419 250.004329 
L 199.766631 249.295059 
L 200.045818 249.295059 
L 200.111702 248.585788 
L 200.225474 248.585788 
L 200.225474 248.231153 
L 200.38609 248.231153 
L 200.412272 247.521882 
L 200.524894 247.521882 
L 200.524894 247.167247 
L 200.723409 247.167247 
L 200.723409 246.812612 
L 200.836335 246.812612 
L 200.866995 246.103341 
L 200.995292 246.103341 
L 201.09751 245.039435 
L 201.212541 245.039435 
L 201.212541 244.6848 
L 201.352004 244.6848 
L 201.352004 244.330165 
L 201.584547 244.330165 
L 201.665535 243.620894 
L 201.740372 243.620894 
L 201.831589 242.556988 
L 201.943488 242.556988 
L 201.966444 241.847718 
L 202.241203 241.847718 
L 202.267239 241.138447 
L 202.596345 241.138447 
L 202.703694 240.429176 
L 202.797739 240.429176 
L 202.797739 240.074541 
L 202.936555 240.074541 
L 202.936555 239.719906 
L 203.054775 239.719906 
L 203.086093 239.010635 
L 203.332034 239.010635 
L 203.354727 238.301365 
L 203.459966 238.301365 
L 203.510654 237.592094 
L 203.730116 237.592094 
L 203.733149 236.882824 
L 203.86486 236.882824 
L 203.902056 236.173553 
L 204.057733 236.173553 
L 204.113174 235.464282 
L 204.186568 235.464282 
L 204.203987 234.755012 
L 204.401207 234.755012 
L 204.403367 234.045741 
L 204.522379 234.045741 
L 204.530436 233.336471 
L 204.735505 233.336471 
L 204.820412 232.272565 
L 204.955565 232.272565 
L 204.955565 231.917929 
L 205.10201 231.917929 
L 205.10201 231.563294 
L 205.768539 231.563294 
L 205.850252 230.854024 
L 206.028737 230.854024 
L 206.028737 230.499388 
L 206.61715 230.499388 
L 206.61715 230.144753 
L 207.878012 230.144753 
L 207.878012 229.790118 
L 220.31376 229.790118 
L 220.31376 229.435482 
L 221.718789 229.435482 
L 221.800955 228.016941 
L 221.840327 228.016941 
L 221.941223 226.953035 
L 221.989914 226.953035 
L 222.07959 226.243765 
L 222.180464 226.243765 
L 222.239254 225.534494 
L 222.315294 225.534494 
L 222.360589 224.825224 
L 222.449623 224.825224 
L 222.513645 224.115953 
L 222.610419 224.115953 
L 222.654156 223.406682 
L 222.756888 223.406682 
L 222.809072 222.697412 
L 222.869799 222.697412 
L 222.869799 222.342776 
L 223.006577 222.342776 
L 223.067863 221.633506 
L 223.139852 221.633506 
L 223.207594 220.924235 
L 223.304914 220.924235 
L 223.395089 220.214965 
L 223.430969 220.214965 
L 223.526344 218.796424 
L 223.603521 218.796424 
L 223.651135 218.087153 
L 223.796597 218.087153 
L 223.796597 217.732518 
L 223.919105 217.732518 
L 223.919105 217.377882 
L 224.034585 217.377882 
L 224.135194 216.668612 
L 224.228344 216.668612 
L 224.283263 215.959341 
L 224.340267 215.959341 
L 224.434594 215.250071 
L 224.480814 215.250071 
L 224.533553 214.5408 
L 224.592135 214.5408 
L 224.651418 213.831529 
L 224.717508 213.831529 
L 224.785169 213.122259 
L 227.850137 213.122259 
L 227.944443 212.412988 
L 228.036352 212.412988 
L 228.036352 212.058353 
L 228.15728 212.058353 
L 228.15728 211.703718 
L 228.425917 211.703718 
L 228.449294 210.994447 
L 228.572837 210.994447 
L 228.658642 210.285176 
L 228.834729 210.285176 
L 228.84405 209.575906 
L 229.031913 209.575906 
L 229.134606 208.512 
L 229.389964 208.512 
L 229.437718 207.802729 
L 229.614924 207.802729 
L 229.661347 207.093459 
L 229.773842 207.093459 
L 229.843817 206.384188 
L 230.032006 206.384188 
L 230.03423 205.674918 
L 230.217382 205.674918 
L 230.275824 204.965647 
L 230.396069 204.965647 
L 230.465621 204.256376 
L 230.511455 204.256376 
L 230.511455 203.901741 
L 230.727022 203.901741 
L 230.736078 203.192471 
L 230.864844 203.192471 
L 230.866889 200.000753 
L 232.075281 200.000753 
L 232.096025 198.936847 
L 233.408475 198.936847 
L 233.4778 197.163671 
L 233.60554 197.163671 
L 233.701004 195.745129 
L 233.71693 195.745129 
L 233.746735 193.262682 
L 233.856984 193.262682 
L 233.947931 191.844141 
L 233.969291 191.844141 
L 234.063686 190.4256 
L 234.093342 190.4256 
L 234.2025 188.297788 
L 234.206673 188.297788 
L 234.314032 185.460706 
L 234.338831 185.460706 
L 234.420917 182.978259 
L 234.465729 182.978259 
L 234.528931 181.914353 
L 234.577366 181.914353 
L 234.682693 180.495812 
L 234.70499 180.495812 
L 234.801609 178.368 
L 234.852961 178.368 
L 234.944491 176.594824 
L 234.983523 176.594824 
L 235.055203 174.467012 
L 235.123115 174.467012 
L 235.123499 173.757741 
L 239.910501 173.757741 
L 239.964949 172.693835 
L 240.078944 172.693835 
L 240.186738 170.920659 
L 240.223733 170.920659 
L 240.301735 169.502118 
L 240.435302 169.502118 
L 240.537495 168.792847 
L 240.588177 168.792847 
L 240.697757 167.728941 
L 240.699938 167.728941 
L 240.795487 166.665035 
L 240.839739 166.665035 
L 240.921322 165.246494 
L 240.96025 165.246494 
L 241.027916 163.473318 
L 241.078211 163.473318 
L 241.078293 162.764047 
L 242.596935 162.764047 
L 242.596935 162.409412 
L 242.722095 162.409412 
L 242.831549 160.2816 
L 242.914277 160.2816 
L 242.914395 159.572329 
L 243.042032 159.572329 
L 243.042032 159.217694 
L 243.179117 159.217694 
L 243.204913 158.153788 
L 243.364932 158.153788 
L 243.398614 156.735247 
L 243.491415 156.735247 
L 243.491487 156.025976 
L 243.609945 156.025976 
L 243.612721 154.962071 
L 243.727033 154.962071 
L 243.8379 154.2528 
L 243.838289 154.2528 
L 243.905934 152.479624 
L 245.201719 152.479624 
L 245.28627 150.706447 
L 245.348656 150.706447 
L 245.459165 148.224 
L 245.528714 148.224 
L 245.62023 146.450824 
L 245.660857 146.450824 
L 245.765411 143.613741 
L 245.794652 143.613741 
L 245.853311 141.131294 
L 245.922059 141.131294 
L 246.016903 136.875671 
L 246.03868 136.875671 
L 246.135842 133.683953 
L 246.154243 133.683953 
L 246.258664 132.974682 
L 248.958501 132.974682 
L 249.068404 131.910776 
L 249.169406 131.910776 
L 249.270961 130.1376 
L 249.308151 130.1376 
L 249.407435 127.300518 
L 249.419345 127.300518 
L 249.516153 125.172706 
L 249.581907 125.172706 
L 249.677235 122.690259 
L 250.822367 122.690259 
L 250.822367 122.335624 
L 250.937562 122.335624 
L 250.938064 121.626353 
L 251.050126 121.626353 
L 251.121459 120.207812 
L 251.172947 120.207812 
L 251.172947 119.853176 
L 251.316028 119.853176 
L 251.41234 118.434635 
L 251.529413 118.434635 
L 251.530863 117.370729 
L 252.421232 117.370729 
L 252.505147 116.661459 
L 252.536029 116.661459 
L 252.621457 114.533647 
L 252.679778 114.533647 
L 252.77458 111.341929 
L 252.82423 111.341929 
L 252.911752 108.150212 
L 252.939015 108.150212 
L 253.033409 105.313129 
L 253.0612 105.313129 
L 253.0612 104.958494 
L 255.050516 104.958494 
L 255.09845 104.249224 
L 255.237483 104.249224 
L 255.339749 101.766776 
L 255.452745 101.766776 
L 255.498918 100.348235 
L 255.595654 100.348235 
L 255.595654 99.9936 
L 256.230791 99.9936 
L 256.230791 99.638965 
L 256.365037 99.638965 
L 256.365037 99.284329 
L 256.583045 99.284329 
L 256.673715 98.575059 
L 256.780877 98.575059 
L 256.824659 97.865788 
L 256.906686 97.865788 
L 256.9418 95.737976 
L 257.64875 95.737976 
L 257.734572 94.319435 
L 257.763698 94.319435 
L 257.854818 91.482353 
L 257.883336 91.482353 
L 257.985682 88.645271 
L 257.998948 88.645271 
L 258.084665 85.453553 
L 259.680007 85.453553 
L 259.738547 84.389647 
L 259.837968 84.389647 
L 259.899762 82.616471 
L 259.956841 82.616471 
L 260.060147 80.843294 
L 260.716976 80.843294 
L 260.786015 79.779388 
L 261.010407 79.779388 
L 261.010407 79.424753 
L 261.139659 79.424753 
L 261.139659 79.070118 
L 261.675286 79.070118 
L 261.771925 78.006212 
L 261.845029 78.006212 
L 261.92593 73.395953 
L 261.9625 73.395953 
L 262.046291 70.913506 
L 263.402063 70.913506 
L 263.511688 69.140329 
L 263.536362 69.140329 
L 263.587932 67.721788 
L 263.664693 67.721788 
L 263.672733 67.012518 
L 264.205339 67.012518 
L 264.205339 66.657882 
L 264.337331 66.657882 
L 264.401819 65.948612 
L 264.509379 65.948612 
L 264.509379 65.593976 
L 265.063412 65.593976 
L 265.140721 63.466165 
L 265.179828 63.466165 
L 265.266024 61.338353 
L 265.295486 61.338353 
L 265.342744 57.792 
L 266.424062 57.792 
L 266.474067 57.082729 
L 266.557367 57.082729 
L 266.632457 55.664188 
L 266.675944 55.664188 
L 266.696473 54.954918 
L 267.192495 54.954918 
L 267.192495 54.600282 
L 267.468396 54.600282 
L 267.468396 54.245647 
L 267.88453 54.245647 
L 267.992902 52.827106 
L 267.996753 52.827106 
L 268.080184 51.408565 
L 268.127483 51.408565 
L 268.135534 50.344659 
L 269.070069 50.344659 
L 269.171162 49.280753 
L 269.296363 49.280753 
L 269.319039 48.216847 
L 269.801627 48.216847 
L 269.801627 47.862212 
L 269.980581 47.862212 
L 269.980581 47.507576 
L 270.364942 47.507576 
L 270.475152 45.7344 
L 270.568307 45.7344 
L 270.568307 45.379765 
L 271.564058 45.379765 
L 271.584531 44.315859 
L 272.600801 44.315859 
L 272.704529 42.188047 
L 273.456258 42.188047 
L 273.551797 41.478776 
L 273.629639 41.478776 
L 273.636438 40.769506 
L 274.137636 40.769506 
L 274.137636 40.414871 
L 274.508389 40.414871 
L 274.56129 39.350965 
L 274.640939 39.350965 
L 274.640939 38.996329 
L 275.389554 38.996329 
L 275.448878 37.577788 
L 276.320865 37.577788 
L 276.381315 36.159247 
L 277.921931 36.159247 
L 277.97079 35.095341 
L 278.637935 35.095341 
L 278.701425 34.031435 
L 279.436299 34.031435 
L 279.470984 33.322165 
L 280.063077 33.322165 
L 280.063439 32.612894 
L 280.721012 32.612894 
L 280.777827 31.903624 
L 281.391707 31.903624 
L 281.401614 31.194353 
L 283.224039 31.194353 
L 283.224039 30.839718 
L 283.783672 30.839718 
L 283.828897 30.130447 
L 284.939161 30.130447 
L 284.939161 29.775812 
L 285.48636 29.775812 
L 285.48636 29.421176 
L 287.421278 29.421176 
L 287.421278 29.066541 
L 288.743388 29.066541 
L 288.750484 28.357271 
L 294.656964 28.357271 
L 294.664504 27.648 
L 360.8064 27.648 
L 360.8064 27.648 
" style="fill:none;stroke:#1874b4;stroke-linecap:square;stroke-width:1.8;"/>
   </g>
   <g id="line2d_258">
    <defs>
     <path d="M 0 6.93 
C 1.837857 6.93 3.600689 6.199811 4.90025 4.90025 
C 6.199811 3.600689 6.93 1.837857 6.93 0 
C 6.93 -1.837857 6.199811 -3.600689 4.90025 -4.90025 
C 3.600689 -6.199811 1.837857 -6.93 0 -6.93 
C -1.837857 -6.93 -3.600689 -6.199811 -4.90025 -4.90025 
C -6.199811 -3.600689 -6.93 -1.837857 -6.93 0 
C -6.93 1.837857 -6.199811 3.600689 -4.90025 4.90025 
C -3.600689 6.199811 -1.837857 6.93 0 6.93 
z
" id="m9ec14ca868" style="stroke:#1874b4;"/>
    </defs>
    <g>
     <use style="fill-opacity:0;stroke:#1874b4;" x="197.481424" xlink:href="#m9ec14ca868" y="256.033129"/>
     <use style="fill-opacity:0;stroke:#1874b4;" x="234.732151" xlink:href="#m9ec14ca868" y="178.722635"/>
     <use style="fill-opacity:0;stroke:#1874b4;" x="270.568307" xlink:href="#m9ec14ca868" y="45.7344"/>
     <use style="fill-opacity:0;stroke:#1874b4;" x="294.664504" xlink:href="#m9ec14ca868" y="27.648"/>
     <use style="fill-opacity:0;stroke:#1874b4;" x="360.8064" xlink:href="#m9ec14ca868" y="27.648"/>
    </g>
   </g>
   <g id="line2d_259">
    <path style="fill:none;stroke:#1874b4;stroke-linecap:square;stroke-width:1.8;"/>
    <g/>
   </g>
   <g id="line2d_260">
    <path clip-path="url(#p84d6736419)" d="M 230.861647 203.192471 
" style="fill:none;stroke:#1874b4;stroke-linecap:square;stroke-width:1.5;"/>
    <defs>
     <path d="M -10.300579 10.300579 
L 10.300579 -10.300579 
M -10.300579 -10.300579 
L 10.300579 10.300579 
" id="m5b7d55c7d3" style="stroke:#1874b4;"/>
    </defs>
    <g clip-path="url(#p84d6736419)">
     <use style="fill:#1874b4;stroke:#1874b4;" x="230.861647" xlink:href="#m5b7d55c7d3" y="203.192471"/>
    </g>
   </g>
   <g id="line2d_261">
    <path d="M 360.8064 27.648 
L 380.514816 293.51808 
" style="fill:none;stroke:#1874b4;stroke-linecap:square;stroke-width:1.8;"/>
    <g>
     <use style="fill-opacity:0;stroke:#1874b4;" x="360.8064" xlink:href="#m9ec14ca868" y="27.648"/>
     <use style="fill-opacity:0;stroke:#1874b4;" x="380.514816" xlink:href="#m9ec14ca868" y="293.51808"/>
    </g>
   </g>
   <g id="line2d_262">
    <path d="M 360.8064 298.944 
L 360.8064 27.648 
" style="fill:none;stroke:#000000;stroke-linecap:square;stroke-width:1.5;"/>
   </g>
   <g id="patch_3">
    <path d="M 57.6 298.944 
L 360.8064 298.944 
" style="fill:none;stroke:#000000;stroke-linecap:square;stroke-linejoin:miter;stroke-width:0.8;"/>
   </g>
   <g id="patch_4">
    <path d="M 57.6 27.648 
L 360.8064 27.648 
" style="fill:none;stroke:#000000;stroke-linecap:square;stroke-linejoin:miter;stroke-width:0.8;"/>
   </g>
   <g id="text_17">
    <!-- cma-IH -->
    <g transform="translate(386.578944 297.381205)scale(0.14 -0.14)">
     <defs>
      <path d="M 628 4666 
L 1259 4666 
L 1259 0 
L 628 0 
L 628 4666 
z
" id="DejaVuSans-49" transform="scale(0.015625)"/>
      <path d="M 628 4666 
L 1259 4666 
L 1259 2753 
L 3553 2753 
L 3553 4666 
L 4184 4666 
L 4184 0 
L 3553 0 
L 3553 2222 
L 1259 2222 
L 1259 0 
L 628 0 
L 628 4666 
z
" id="DejaVuSans-48" transform="scale(0.015625)"/>
     </defs>
     <use xlink:href="#DejaVuSans-63"/>
     <use x="54.980469" xlink:href="#DejaVuSans-6d"/>
     <use x="152.392578" xlink:href="#DejaVuSans-61"/>
     <use x="213.671875" xlink:href="#DejaVuSans-2d"/>
     <use x="249.755859" xlink:href="#DejaVuSans-49"/>
     <use x="279.248047" xlink:href="#DejaVuSans-48"/>
    </g>
   </g>
   <g id="text_18">
    <!-- bbob-mixint f17, 160-D -->
    <g transform="translate(60.632064 37.199554)scale(0.09 -0.09)">
     <defs>
      <path d="M 3116 1747 
Q 3116 2381 2855 2742 
Q 2594 3103 2138 3103 
Q 1681 3103 1420 2742 
Q 1159 2381 1159 1747 
Q 1159 1113 1420 752 
Q 1681 391 2138 391 
Q 2594 391 2855 752 
Q 3116 1113 3116 1747 
z
M 1159 2969 
Q 1341 3281 1617 3432 
Q 1894 3584 2278 3584 
Q 2916 3584 3314 3078 
Q 3713 2572 3713 1747 
Q 3713 922 3314 415 
Q 2916 -91 2278 -91 
Q 1894 -91 1617 61 
Q 1341 213 1159 525 
L 1159 0 
L 581 0 
L 581 4863 
L 1159 4863 
L 1159 2969 
z
" id="DejaVuSans-62" transform="scale(0.015625)"/>
      <path d="M 3513 3500 
L 2247 1797 
L 3578 0 
L 2900 0 
L 1881 1375 
L 863 0 
L 184 0 
L 1544 1831 
L 300 3500 
L 978 3500 
L 1906 2253 
L 2834 3500 
L 3513 3500 
z
" id="DejaVuSans-78" transform="scale(0.015625)"/>
      <path d="M 1259 4147 
L 1259 519 
L 2022 519 
Q 2988 519 3436 956 
Q 3884 1394 3884 2338 
Q 3884 3275 3436 3711 
Q 2988 4147 2022 4147 
L 1259 4147 
z
M 628 4666 
L 1925 4666 
Q 3281 4666 3915 4102 
Q 4550 3538 4550 2338 
Q 4550 1131 3912 565 
Q 3275 0 1925 0 
L 628 0 
L 628 4666 
z
" id="DejaVuSans-44" transform="scale(0.015625)"/>
     </defs>
     <use xlink:href="#DejaVuSans-62"/>
     <use x="63.476562" xlink:href="#DejaVuSans-62"/>
     <use x="126.953125" xlink:href="#DejaVuSans-6f"/>
     <use x="188.134766" xlink:href="#DejaVuSans-62"/>
     <use x="251.611328" xlink:href="#DejaVuSans-2d"/>
     <use x="287.695312" xlink:href="#DejaVuSans-6d"/>
     <use x="385.107422" xlink:href="#DejaVuSans-69"/>
     <use x="412.890625" xlink:href="#DejaVuSans-78"/>
     <use x="472.070312" xlink:href="#DejaVuSans-69"/>
     <use x="499.853516" xlink:href="#DejaVuSans-6e"/>
     <use x="563.232422" xlink:href="#DejaVuSans-74"/>
     <use x="602.441406" xlink:href="#DejaVuSans-20"/>
     <use x="634.228516" xlink:href="#DejaVuSans-66"/>
     <use x="669.433594" xlink:href="#DejaVuSans-31"/>
     <use x="733.056641" xlink:href="#DejaVuSans-37"/>
     <use x="796.679688" xlink:href="#DejaVuSans-2c"/>
     <use x="828.466797" xlink:href="#DejaVuSans-20"/>
     <use x="860.253906" xlink:href="#DejaVuSans-31"/>
     <use x="923.876953" xlink:href="#DejaVuSans-36"/>
     <use x="987.5" xlink:href="#DejaVuSans-30"/>
     <use x="1051.123047" xlink:href="#DejaVuSans-2d"/>
     <use x="1087.207031" xlink:href="#DejaVuSans-44"/>
    </g>
    <!-- 51 targets: 100..1e-08 -->
    <g transform="translate(60.632064 47.277585)scale(0.09 -0.09)">
     <defs>
      <path d="M 750 794 
L 1409 794 
L 1409 0 
L 750 0 
L 750 794 
z
M 750 3309 
L 1409 3309 
L 1409 2516 
L 750 2516 
L 750 3309 
z
" id="DejaVuSans-3a" transform="scale(0.015625)"/>
     </defs>
     <use xlink:href="#DejaVuSans-35"/>
     <use x="63.623047" xlink:href="#DejaVuSans-31"/>
     <use x="127.246094" xlink:href="#DejaVuSans-20"/>
     <use x="159.033203" xlink:href="#DejaVuSans-74"/>
     <use x="198.242188" xlink:href="#DejaVuSans-61"/>
     <use x="259.521484" xlink:href="#DejaVuSans-72"/>
     <use x="298.884766" xlink:href="#DejaVuSans-67"/>
     <use x="362.361328" xlink:href="#DejaVuSans-65"/>
     <use x="423.884766" xlink:href="#DejaVuSans-74"/>
     <use x="463.09375" xlink:href="#DejaVuSans-73"/>
     <use x="515.193359" xlink:href="#DejaVuSans-3a"/>
     <use x="548.884766" xlink:href="#DejaVuSans-20"/>
     <use x="580.671875" xlink:href="#DejaVuSans-31"/>
     <use x="644.294922" xlink:href="#DejaVuSans-30"/>
     <use x="707.917969" xlink:href="#DejaVuSans-30"/>
     <use x="771.541016" xlink:href="#DejaVuSans-2e"/>
     <use x="803.328125" xlink:href="#DejaVuSans-2e"/>
     <use x="835.115234" xlink:href="#DejaVuSans-31"/>
     <use x="898.738281" xlink:href="#DejaVuSans-65"/>
     <use x="960.261719" xlink:href="#DejaVuSans-2d"/>
     <use x="996.345703" xlink:href="#DejaVuSans-30"/>
     <use x="1059.96875" xlink:href="#DejaVuSans-38"/>
    </g>
    <!-- 15 instances -->
    <g transform="translate(60.632064 57.355616)scale(0.09 -0.09)">
     <use xlink:href="#DejaVuSans-31"/>
     <use x="63.623047" xlink:href="#DejaVuSans-35"/>
     <use x="127.246094" xlink:href="#DejaVuSans-20"/>
     <use x="159.033203" xlink:href="#DejaVuSans-69"/>
     <use x="186.816406" xlink:href="#DejaVuSans-6e"/>
     <use x="250.195312" xlink:href="#DejaVuSans-73"/>
     <use x="302.294922" xlink:href="#DejaVuSans-74"/>
     <use x="341.503906" xlink:href="#DejaVuSans-61"/>
     <use x="402.783203" xlink:href="#DejaVuSans-6e"/>
     <use x="466.162109" xlink:href="#DejaVuSans-63"/>
     <use x="521.142578" xlink:href="#DejaVuSans-65"/>
     <use x="582.666016" xlink:href="#DejaVuSans-73"/>
    </g>
   </g>
   <g id="text_19">
    <!-- v2.6.3 -->
    <g style="fill:#808080;" transform="translate(193.52195 294.151352)scale(0.1 -0.1)">
     <use xlink:href="#DejaVuSans-76"/>
     <use x="59.179688" xlink:href="#DejaVuSans-32"/>
     <use x="122.802734" xlink:href="#DejaVuSans-2e"/>
     <use x="154.589844" xlink:href="#DejaVuSans-36"/>
     <use x="218.212891" xlink:href="#DejaVuSans-2e"/>
     <use x="250" xlink:href="#DejaVuSans-33"/>
    </g>
   </g>
   <g id="text_20">
    <!-- 17 Schaffer F7, condition 10 -->
    <g transform="translate(67.895387 21.648)scale(0.2 -0.2)">
     <defs>
      <path d="M 3425 4513 
L 3425 3897 
Q 3066 4069 2747 4153 
Q 2428 4238 2131 4238 
Q 1616 4238 1336 4038 
Q 1056 3838 1056 3469 
Q 1056 3159 1242 3001 
Q 1428 2844 1947 2747 
L 2328 2669 
Q 3034 2534 3370 2195 
Q 3706 1856 3706 1288 
Q 3706 609 3251 259 
Q 2797 -91 1919 -91 
Q 1588 -91 1214 -16 
Q 841 59 441 206 
L 441 856 
Q 825 641 1194 531 
Q 1563 422 1919 422 
Q 2459 422 2753 634 
Q 3047 847 3047 1241 
Q 3047 1584 2836 1778 
Q 2625 1972 2144 2069 
L 1759 2144 
Q 1053 2284 737 2584 
Q 422 2884 422 3419 
Q 422 4038 858 4394 
Q 1294 4750 2059 4750 
Q 2388 4750 2728 4690 
Q 3069 4631 3425 4513 
z
" id="DejaVuSans-53" transform="scale(0.015625)"/>
      <path d="M 3513 2113 
L 3513 0 
L 2938 0 
L 2938 2094 
Q 2938 2591 2744 2837 
Q 2550 3084 2163 3084 
Q 1697 3084 1428 2787 
Q 1159 2491 1159 1978 
L 1159 0 
L 581 0 
L 581 4863 
L 1159 4863 
L 1159 2956 
Q 1366 3272 1645 3428 
Q 1925 3584 2291 3584 
Q 2894 3584 3203 3211 
Q 3513 2838 3513 2113 
z
" id="DejaVuSans-68" transform="scale(0.015625)"/>
     </defs>
     <use xlink:href="#DejaVuSans-31"/>
     <use x="63.623047" xlink:href="#DejaVuSans-37"/>
     <use x="127.246094" xlink:href="#DejaVuSans-20"/>
     <use x="159.033203" xlink:href="#DejaVuSans-53"/>
     <use x="222.509766" xlink:href="#DejaVuSans-63"/>
     <use x="277.490234" xlink:href="#DejaVuSans-68"/>
     <use x="340.869141" xlink:href="#DejaVuSans-61"/>
     <use x="402.148438" xlink:href="#DejaVuSans-66"/>
     <use x="437.353516" xlink:href="#DejaVuSans-66"/>
     <use x="472.558594" xlink:href="#DejaVuSans-65"/>
     <use x="534.082031" xlink:href="#DejaVuSans-72"/>
     <use x="575.195312" xlink:href="#DejaVuSans-20"/>
     <use x="606.982422" xlink:href="#DejaVuSans-46"/>
     <use x="664.501953" xlink:href="#DejaVuSans-37"/>
     <use x="728.125" xlink:href="#DejaVuSans-2c"/>
     <use x="759.912109" xlink:href="#DejaVuSans-20"/>
     <use x="791.699219" xlink:href="#DejaVuSans-63"/>
     <use x="846.679688" xlink:href="#DejaVuSans-6f"/>
     <use x="907.861328" xlink:href="#DejaVuSans-6e"/>
     <use x="971.240234" xlink:href="#DejaVuSans-64"/>
     <use x="1034.716797" xlink:href="#DejaVuSans-69"/>
     <use x="1062.5" xlink:href="#DejaVuSans-74"/>
     <use x="1101.708984" xlink:href="#DejaVuSans-69"/>
     <use x="1129.492188" xlink:href="#DejaVuSans-6f"/>
     <use x="1190.673828" xlink:href="#DejaVuSans-6e"/>
     <use x="1254.052734" xlink:href="#DejaVuSans-20"/>
     <use x="1285.839844" xlink:href="#DejaVuSans-31"/>
     <use x="1349.462891" xlink:href="#DejaVuSans-30"/>
    </g>
   </g>
  </g>
 </g>
 <defs>
  <clipPath id="p84d6736419">
   <rect height="271.296" width="303.2064" x="57.6" y="27.648"/>
  </clipPath>
 </defs>
</svg>
