<?xml version="1.0" encoding="utf-8" standalone="no"?>
<!DOCTYPE svg PUBLIC "-//W3C//DTD SVG 1.1//EN"
  "http://www.w3.org/Graphics/SVG/1.1/DTD/svg11.dtd">
<svg height="345.6pt" version="1.1" viewBox="0 0 460.8 345.6" width="460.8pt" xmlns="http://www.w3.org/2000/svg" xmlns:xlink="http://www.w3.org/1999/xlink">
 <metadata>
  <rdf:RDF xmlns:cc="http://creativecommons.org/ns#" xmlns:dc="http://purl.org/dc/elements/1.1/" xmlns:rdf="http://www.w3.org/1999/02/22-rdf-syntax-ns#">
   <cc:Work>
    <dc:type rdf:resource="http://purl.org/dc/dcmitype/StillImage"/>
    <dc:date>2023-04-17T17:53:07.897322</dc:date>
    <dc:format>image/svg+xml</dc:format>
    <dc:creator>
     <cc:Agent>
      <dc:title>Matplotlib v3.4.1, https://matplotlib.org/</dc:title>
     </cc:Agent>
    </dc:creator>
   </cc:Work>
  </rdf:RDF>
 </metadata>
 <defs>
  <style type="text/css">*{stroke-linecap:butt;stroke-linejoin:round;}</style>
 </defs>
 <g id="figure_1">
  <g id="patch_1">
   <path d="M 0 345.6 
L 460.8 345.6 
L 460.8 0 
L 0 0 
z
" style="fill:#ffffff;"/>
  </g>
  <g id="axes_1">
   <g id="patch_2">
    <path d="M 57.6 298.944 
L 360.8064 298.944 
L 360.8064 27.648 
L 57.6 27.648 
z
" style="fill:#ffffff;"/>
   </g>
   <g id="matplotlib.axis_1">
    <g id="xtick_1">
     <g id="line2d_1">
      <path clip-path="url(#pecd5248baf)" d="M 57.6 298.944 
L 57.6 27.648 
" style="fill:none;stroke:#b0b0b0;stroke-linecap:square;stroke-width:0.8;"/>
     </g>
     <g id="line2d_2">
      <defs>
       <path d="M 0 0 
L 0 3.5 
" id="m4a4187ad54" style="stroke:#000000;stroke-width:0.8;"/>
      </defs>
      <g>
       <use style="stroke:#000000;stroke-width:0.8;" x="57.6" xlink:href="#m4a4187ad54" y="298.944"/>
      </g>
     </g>
     <g id="line2d_3">
      <defs>
       <path d="M 0 0 
L 0 -3.5 
" id="m6efed03140" style="stroke:#000000;stroke-width:0.8;"/>
      </defs>
      <g>
       <use style="stroke:#000000;stroke-width:0.8;" x="57.6" xlink:href="#m6efed03140" y="27.648"/>
      </g>
     </g>
     <g id="text_1">
      <!-- 0 -->
      <g transform="translate(52.51 318.1015)scale(0.16 -0.16)">
       <defs>
        <path d="M 2034 4250 
Q 1547 4250 1301 3770 
Q 1056 3291 1056 2328 
Q 1056 1369 1301 889 
Q 1547 409 2034 409 
Q 2525 409 2770 889 
Q 3016 1369 3016 2328 
Q 3016 3291 2770 3770 
Q 2525 4250 2034 4250 
z
M 2034 4750 
Q 2819 4750 3233 4129 
Q 3647 3509 3647 2328 
Q 3647 1150 3233 529 
Q 2819 -91 2034 -91 
Q 1250 -91 836 529 
Q 422 1150 422 2328 
Q 422 3509 836 4129 
Q 1250 4750 2034 4750 
z
" id="DejaVuSans-30" transform="scale(0.015625)"/>
       </defs>
       <use xlink:href="#DejaVuSans-30"/>
      </g>
     </g>
    </g>
    <g id="xtick_2">
     <g id="line2d_4">
      <path clip-path="url(#pecd5248baf)" d="M 100.9152 298.944 
L 100.9152 27.648 
" style="fill:none;stroke:#b0b0b0;stroke-linecap:square;stroke-width:0.8;"/>
     </g>
     <g id="line2d_5">
      <g>
       <use style="stroke:#000000;stroke-width:0.8;" x="100.9152" xlink:href="#m4a4187ad54" y="298.944"/>
      </g>
     </g>
     <g id="line2d_6">
      <g>
       <use style="stroke:#000000;stroke-width:0.8;" x="100.9152" xlink:href="#m6efed03140" y="27.648"/>
      </g>
     </g>
     <g id="text_2">
      <!-- 1 -->
      <g transform="translate(95.8252 318.1015)scale(0.16 -0.16)">
       <defs>
        <path d="M 794 531 
L 1825 531 
L 1825 4091 
L 703 3866 
L 703 4441 
L 1819 4666 
L 2450 4666 
L 2450 531 
L 3481 531 
L 3481 0 
L 794 0 
L 794 531 
z
" id="DejaVuSans-31" transform="scale(0.015625)"/>
       </defs>
       <use xlink:href="#DejaVuSans-31"/>
      </g>
     </g>
    </g>
    <g id="xtick_3">
     <g id="line2d_7">
      <path clip-path="url(#pecd5248baf)" d="M 144.2304 298.944 
L 144.2304 27.648 
" style="fill:none;stroke:#b0b0b0;stroke-linecap:square;stroke-width:0.8;"/>
     </g>
     <g id="line2d_8">
      <g>
       <use style="stroke:#000000;stroke-width:0.8;" x="144.2304" xlink:href="#m4a4187ad54" y="298.944"/>
      </g>
     </g>
     <g id="line2d_9">
      <g>
       <use style="stroke:#000000;stroke-width:0.8;" x="144.2304" xlink:href="#m6efed03140" y="27.648"/>
      </g>
     </g>
     <g id="text_3">
      <!-- 2 -->
      <g transform="translate(139.1404 318.1015)scale(0.16 -0.16)">
       <defs>
        <path d="M 1228 531 
L 3431 531 
L 3431 0 
L 469 0 
L 469 531 
Q 828 903 1448 1529 
Q 2069 2156 2228 2338 
Q 2531 2678 2651 2914 
Q 2772 3150 2772 3378 
Q 2772 3750 2511 3984 
Q 2250 4219 1831 4219 
Q 1534 4219 1204 4116 
Q 875 4013 500 3803 
L 500 4441 
Q 881 4594 1212 4672 
Q 1544 4750 1819 4750 
Q 2544 4750 2975 4387 
Q 3406 4025 3406 3419 
Q 3406 3131 3298 2873 
Q 3191 2616 2906 2266 
Q 2828 2175 2409 1742 
Q 1991 1309 1228 531 
z
" id="DejaVuSans-32" transform="scale(0.015625)"/>
       </defs>
       <use xlink:href="#DejaVuSans-32"/>
      </g>
     </g>
    </g>
    <g id="xtick_4">
     <g id="line2d_10">
      <path clip-path="url(#pecd5248baf)" d="M 187.5456 298.944 
L 187.5456 27.648 
" style="fill:none;stroke:#b0b0b0;stroke-linecap:square;stroke-width:0.8;"/>
     </g>
     <g id="line2d_11">
      <g>
       <use style="stroke:#000000;stroke-width:0.8;" x="187.5456" xlink:href="#m4a4187ad54" y="298.944"/>
      </g>
     </g>
     <g id="line2d_12">
      <g>
       <use style="stroke:#000000;stroke-width:0.8;" x="187.5456" xlink:href="#m6efed03140" y="27.648"/>
      </g>
     </g>
     <g id="text_4">
      <!-- 3 -->
      <g transform="translate(182.4556 318.1015)scale(0.16 -0.16)">
       <defs>
        <path d="M 2597 2516 
Q 3050 2419 3304 2112 
Q 3559 1806 3559 1356 
Q 3559 666 3084 287 
Q 2609 -91 1734 -91 
Q 1441 -91 1130 -33 
Q 819 25 488 141 
L 488 750 
Q 750 597 1062 519 
Q 1375 441 1716 441 
Q 2309 441 2620 675 
Q 2931 909 2931 1356 
Q 2931 1769 2642 2001 
Q 2353 2234 1838 2234 
L 1294 2234 
L 1294 2753 
L 1863 2753 
Q 2328 2753 2575 2939 
Q 2822 3125 2822 3475 
Q 2822 3834 2567 4026 
Q 2313 4219 1838 4219 
Q 1578 4219 1281 4162 
Q 984 4106 628 3988 
L 628 4550 
Q 988 4650 1302 4700 
Q 1616 4750 1894 4750 
Q 2613 4750 3031 4423 
Q 3450 4097 3450 3541 
Q 3450 3153 3228 2886 
Q 3006 2619 2597 2516 
z
" id="DejaVuSans-33" transform="scale(0.015625)"/>
       </defs>
       <use xlink:href="#DejaVuSans-33"/>
      </g>
     </g>
    </g>
    <g id="xtick_5">
     <g id="line2d_13">
      <path clip-path="url(#pecd5248baf)" d="M 230.8608 298.944 
L 230.8608 27.648 
" style="fill:none;stroke:#b0b0b0;stroke-linecap:square;stroke-width:0.8;"/>
     </g>
     <g id="line2d_14">
      <g>
       <use style="stroke:#000000;stroke-width:0.8;" x="230.8608" xlink:href="#m4a4187ad54" y="298.944"/>
      </g>
     </g>
     <g id="line2d_15">
      <g>
       <use style="stroke:#000000;stroke-width:0.8;" x="230.8608" xlink:href="#m6efed03140" y="27.648"/>
      </g>
     </g>
     <g id="text_5">
      <!-- 4 -->
      <g transform="translate(225.7708 318.1015)scale(0.16 -0.16)">
       <defs>
        <path d="M 2419 4116 
L 825 1625 
L 2419 1625 
L 2419 4116 
z
M 2253 4666 
L 3047 4666 
L 3047 1625 
L 3713 1625 
L 3713 1100 
L 3047 1100 
L 3047 0 
L 2419 0 
L 2419 1100 
L 313 1100 
L 313 1709 
L 2253 4666 
z
" id="DejaVuSans-34" transform="scale(0.015625)"/>
       </defs>
       <use xlink:href="#DejaVuSans-34"/>
      </g>
     </g>
    </g>
    <g id="xtick_6">
     <g id="line2d_16">
      <path clip-path="url(#pecd5248baf)" d="M 274.176 298.944 
L 274.176 27.648 
" style="fill:none;stroke:#b0b0b0;stroke-linecap:square;stroke-width:0.8;"/>
     </g>
     <g id="line2d_17">
      <g>
       <use style="stroke:#000000;stroke-width:0.8;" x="274.176" xlink:href="#m4a4187ad54" y="298.944"/>
      </g>
     </g>
     <g id="line2d_18">
      <g>
       <use style="stroke:#000000;stroke-width:0.8;" x="274.176" xlink:href="#m6efed03140" y="27.648"/>
      </g>
     </g>
     <g id="text_6">
      <!-- 5 -->
      <g transform="translate(269.086 318.1015)scale(0.16 -0.16)">
       <defs>
        <path d="M 691 4666 
L 3169 4666 
L 3169 4134 
L 1269 4134 
L 1269 2991 
Q 1406 3038 1543 3061 
Q 1681 3084 1819 3084 
Q 2600 3084 3056 2656 
Q 3513 2228 3513 1497 
Q 3513 744 3044 326 
Q 2575 -91 1722 -91 
Q 1428 -91 1123 -41 
Q 819 9 494 109 
L 494 744 
Q 775 591 1075 516 
Q 1375 441 1709 441 
Q 2250 441 2565 725 
Q 2881 1009 2881 1497 
Q 2881 1984 2565 2268 
Q 2250 2553 1709 2553 
Q 1456 2553 1204 2497 
Q 953 2441 691 2322 
L 691 4666 
z
" id="DejaVuSans-35" transform="scale(0.015625)"/>
       </defs>
       <use xlink:href="#DejaVuSans-35"/>
      </g>
     </g>
    </g>
    <g id="xtick_7">
     <g id="line2d_19">
      <path clip-path="url(#pecd5248baf)" d="M 317.4912 298.944 
L 317.4912 27.648 
" style="fill:none;stroke:#b0b0b0;stroke-linecap:square;stroke-width:0.8;"/>
     </g>
     <g id="line2d_20">
      <g>
       <use style="stroke:#000000;stroke-width:0.8;" x="317.4912" xlink:href="#m4a4187ad54" y="298.944"/>
      </g>
     </g>
     <g id="line2d_21">
      <g>
       <use style="stroke:#000000;stroke-width:0.8;" x="317.4912" xlink:href="#m6efed03140" y="27.648"/>
      </g>
     </g>
     <g id="text_7">
      <!-- 6 -->
      <g transform="translate(312.4012 318.1015)scale(0.16 -0.16)">
       <defs>
        <path d="M 2113 2584 
Q 1688 2584 1439 2293 
Q 1191 2003 1191 1497 
Q 1191 994 1439 701 
Q 1688 409 2113 409 
Q 2538 409 2786 701 
Q 3034 994 3034 1497 
Q 3034 2003 2786 2293 
Q 2538 2584 2113 2584 
z
M 3366 4563 
L 3366 3988 
Q 3128 4100 2886 4159 
Q 2644 4219 2406 4219 
Q 1781 4219 1451 3797 
Q 1122 3375 1075 2522 
Q 1259 2794 1537 2939 
Q 1816 3084 2150 3084 
Q 2853 3084 3261 2657 
Q 3669 2231 3669 1497 
Q 3669 778 3244 343 
Q 2819 -91 2113 -91 
Q 1303 -91 875 529 
Q 447 1150 447 2328 
Q 447 3434 972 4092 
Q 1497 4750 2381 4750 
Q 2619 4750 2861 4703 
Q 3103 4656 3366 4563 
z
" id="DejaVuSans-36" transform="scale(0.015625)"/>
       </defs>
       <use xlink:href="#DejaVuSans-36"/>
      </g>
     </g>
    </g>
    <g id="xtick_8">
     <g id="line2d_22">
      <path clip-path="url(#pecd5248baf)" d="M 360.8064 298.944 
L 360.8064 27.648 
" style="fill:none;stroke:#b0b0b0;stroke-linecap:square;stroke-width:0.8;"/>
     </g>
     <g id="line2d_23">
      <g>
       <use style="stroke:#000000;stroke-width:0.8;" x="360.8064" xlink:href="#m4a4187ad54" y="298.944"/>
      </g>
     </g>
     <g id="line2d_24">
      <g>
       <use style="stroke:#000000;stroke-width:0.8;" x="360.8064" xlink:href="#m6efed03140" y="27.648"/>
      </g>
     </g>
     <g id="text_8">
      <!-- 7 -->
      <g transform="translate(355.7164 318.1015)scale(0.16 -0.16)">
       <defs>
        <path d="M 525 4666 
L 3525 4666 
L 3525 4397 
L 1831 0 
L 1172 0 
L 2766 4134 
L 525 4134 
L 525 4666 
z
" id="DejaVuSans-37" transform="scale(0.015625)"/>
       </defs>
       <use xlink:href="#DejaVuSans-37"/>
      </g>
     </g>
    </g>
    <g id="xtick_9">
     <g id="line2d_25">
      <path clip-path="url(#pecd5248baf)" d="M 70.639174 298.944 
L 70.639174 27.648 
" style="fill:none;stroke:#b0b0b0;stroke-linecap:square;stroke-opacity:0.15;stroke-width:0.8;"/>
     </g>
     <g id="line2d_26">
      <defs>
       <path d="M 0 0 
L 0 2 
" id="m3148a79bc5" style="stroke:#000000;stroke-width:0.6;"/>
      </defs>
      <g>
       <use style="stroke:#000000;stroke-width:0.6;" x="70.639174" xlink:href="#m3148a79bc5" y="298.944"/>
      </g>
     </g>
     <g id="line2d_27">
      <defs>
       <path d="M 0 0 
L 0 -2 
" id="mf70955776b" style="stroke:#000000;stroke-width:0.6;"/>
      </defs>
      <g>
       <use style="stroke:#000000;stroke-width:0.6;" x="70.639174" xlink:href="#mf70955776b" y="27.648"/>
      </g>
     </g>
    </g>
    <g id="xtick_10">
     <g id="line2d_28">
      <path clip-path="url(#pecd5248baf)" d="M 78.266603 298.944 
L 78.266603 27.648 
" style="fill:none;stroke:#b0b0b0;stroke-linecap:square;stroke-opacity:0.15;stroke-width:0.8;"/>
     </g>
     <g id="line2d_29">
      <g>
       <use style="stroke:#000000;stroke-width:0.6;" x="78.266603" xlink:href="#m3148a79bc5" y="298.944"/>
      </g>
     </g>
     <g id="line2d_30">
      <g>
       <use style="stroke:#000000;stroke-width:0.6;" x="78.266603" xlink:href="#mf70955776b" y="27.648"/>
      </g>
     </g>
    </g>
    <g id="xtick_11">
     <g id="line2d_31">
      <path clip-path="url(#pecd5248baf)" d="M 83.678349 298.944 
L 83.678349 27.648 
" style="fill:none;stroke:#b0b0b0;stroke-linecap:square;stroke-opacity:0.15;stroke-width:0.8;"/>
     </g>
     <g id="line2d_32">
      <g>
       <use style="stroke:#000000;stroke-width:0.6;" x="83.678349" xlink:href="#m3148a79bc5" y="298.944"/>
      </g>
     </g>
     <g id="line2d_33">
      <g>
       <use style="stroke:#000000;stroke-width:0.6;" x="83.678349" xlink:href="#mf70955776b" y="27.648"/>
      </g>
     </g>
    </g>
    <g id="xtick_12">
     <g id="line2d_34">
      <path clip-path="url(#pecd5248baf)" d="M 87.876026 298.944 
L 87.876026 27.648 
" style="fill:none;stroke:#b0b0b0;stroke-linecap:square;stroke-opacity:0.15;stroke-width:0.8;"/>
     </g>
     <g id="line2d_35">
      <g>
       <use style="stroke:#000000;stroke-width:0.6;" x="87.876026" xlink:href="#m3148a79bc5" y="298.944"/>
      </g>
     </g>
     <g id="line2d_36">
      <g>
       <use style="stroke:#000000;stroke-width:0.6;" x="87.876026" xlink:href="#mf70955776b" y="27.648"/>
      </g>
     </g>
    </g>
    <g id="xtick_13">
     <g id="line2d_37">
      <path clip-path="url(#pecd5248baf)" d="M 91.305777 298.944 
L 91.305777 27.648 
" style="fill:none;stroke:#b0b0b0;stroke-linecap:square;stroke-opacity:0.15;stroke-width:0.8;"/>
     </g>
     <g id="line2d_38">
      <g>
       <use style="stroke:#000000;stroke-width:0.6;" x="91.305777" xlink:href="#m3148a79bc5" y="298.944"/>
      </g>
     </g>
     <g id="line2d_39">
      <g>
       <use style="stroke:#000000;stroke-width:0.6;" x="91.305777" xlink:href="#mf70955776b" y="27.648"/>
      </g>
     </g>
    </g>
    <g id="xtick_14">
     <g id="line2d_40">
      <path clip-path="url(#pecd5248baf)" d="M 94.205591 298.944 
L 94.205591 27.648 
" style="fill:none;stroke:#b0b0b0;stroke-linecap:square;stroke-opacity:0.15;stroke-width:0.8;"/>
     </g>
     <g id="line2d_41">
      <g>
       <use style="stroke:#000000;stroke-width:0.6;" x="94.205591" xlink:href="#m3148a79bc5" y="298.944"/>
      </g>
     </g>
     <g id="line2d_42">
      <g>
       <use style="stroke:#000000;stroke-width:0.6;" x="94.205591" xlink:href="#mf70955776b" y="27.648"/>
      </g>
     </g>
    </g>
    <g id="xtick_15">
     <g id="line2d_43">
      <path clip-path="url(#pecd5248baf)" d="M 96.717523 298.944 
L 96.717523 27.648 
" style="fill:none;stroke:#b0b0b0;stroke-linecap:square;stroke-opacity:0.15;stroke-width:0.8;"/>
     </g>
     <g id="line2d_44">
      <g>
       <use style="stroke:#000000;stroke-width:0.6;" x="96.717523" xlink:href="#m3148a79bc5" y="298.944"/>
      </g>
     </g>
     <g id="line2d_45">
      <g>
       <use style="stroke:#000000;stroke-width:0.6;" x="96.717523" xlink:href="#mf70955776b" y="27.648"/>
      </g>
     </g>
    </g>
    <g id="xtick_16">
     <g id="line2d_46">
      <path clip-path="url(#pecd5248baf)" d="M 98.933205 298.944 
L 98.933205 27.648 
" style="fill:none;stroke:#b0b0b0;stroke-linecap:square;stroke-opacity:0.15;stroke-width:0.8;"/>
     </g>
     <g id="line2d_47">
      <g>
       <use style="stroke:#000000;stroke-width:0.6;" x="98.933205" xlink:href="#m3148a79bc5" y="298.944"/>
      </g>
     </g>
     <g id="line2d_48">
      <g>
       <use style="stroke:#000000;stroke-width:0.6;" x="98.933205" xlink:href="#mf70955776b" y="27.648"/>
      </g>
     </g>
    </g>
    <g id="xtick_17">
     <g id="line2d_49">
      <path clip-path="url(#pecd5248baf)" d="M 113.954374 298.944 
L 113.954374 27.648 
" style="fill:none;stroke:#b0b0b0;stroke-linecap:square;stroke-opacity:0.15;stroke-width:0.8;"/>
     </g>
     <g id="line2d_50">
      <g>
       <use style="stroke:#000000;stroke-width:0.6;" x="113.954374" xlink:href="#m3148a79bc5" y="298.944"/>
      </g>
     </g>
     <g id="line2d_51">
      <g>
       <use style="stroke:#000000;stroke-width:0.6;" x="113.954374" xlink:href="#mf70955776b" y="27.648"/>
      </g>
     </g>
    </g>
    <g id="xtick_18">
     <g id="line2d_52">
      <path clip-path="url(#pecd5248baf)" d="M 121.581803 298.944 
L 121.581803 27.648 
" style="fill:none;stroke:#b0b0b0;stroke-linecap:square;stroke-opacity:0.15;stroke-width:0.8;"/>
     </g>
     <g id="line2d_53">
      <g>
       <use style="stroke:#000000;stroke-width:0.6;" x="121.581803" xlink:href="#m3148a79bc5" y="298.944"/>
      </g>
     </g>
     <g id="line2d_54">
      <g>
       <use style="stroke:#000000;stroke-width:0.6;" x="121.581803" xlink:href="#mf70955776b" y="27.648"/>
      </g>
     </g>
    </g>
    <g id="xtick_19">
     <g id="line2d_55">
      <path clip-path="url(#pecd5248baf)" d="M 126.993549 298.944 
L 126.993549 27.648 
" style="fill:none;stroke:#b0b0b0;stroke-linecap:square;stroke-opacity:0.15;stroke-width:0.8;"/>
     </g>
     <g id="line2d_56">
      <g>
       <use style="stroke:#000000;stroke-width:0.6;" x="126.993549" xlink:href="#m3148a79bc5" y="298.944"/>
      </g>
     </g>
     <g id="line2d_57">
      <g>
       <use style="stroke:#000000;stroke-width:0.6;" x="126.993549" xlink:href="#mf70955776b" y="27.648"/>
      </g>
     </g>
    </g>
    <g id="xtick_20">
     <g id="line2d_58">
      <path clip-path="url(#pecd5248baf)" d="M 131.191226 298.944 
L 131.191226 27.648 
" style="fill:none;stroke:#b0b0b0;stroke-linecap:square;stroke-opacity:0.15;stroke-width:0.8;"/>
     </g>
     <g id="line2d_59">
      <g>
       <use style="stroke:#000000;stroke-width:0.6;" x="131.191226" xlink:href="#m3148a79bc5" y="298.944"/>
      </g>
     </g>
     <g id="line2d_60">
      <g>
       <use style="stroke:#000000;stroke-width:0.6;" x="131.191226" xlink:href="#mf70955776b" y="27.648"/>
      </g>
     </g>
    </g>
    <g id="xtick_21">
     <g id="line2d_61">
      <path clip-path="url(#pecd5248baf)" d="M 134.620977 298.944 
L 134.620977 27.648 
" style="fill:none;stroke:#b0b0b0;stroke-linecap:square;stroke-opacity:0.15;stroke-width:0.8;"/>
     </g>
     <g id="line2d_62">
      <g>
       <use style="stroke:#000000;stroke-width:0.6;" x="134.620977" xlink:href="#m3148a79bc5" y="298.944"/>
      </g>
     </g>
     <g id="line2d_63">
      <g>
       <use style="stroke:#000000;stroke-width:0.6;" x="134.620977" xlink:href="#mf70955776b" y="27.648"/>
      </g>
     </g>
    </g>
    <g id="xtick_22">
     <g id="line2d_64">
      <path clip-path="url(#pecd5248baf)" d="M 137.520791 298.944 
L 137.520791 27.648 
" style="fill:none;stroke:#b0b0b0;stroke-linecap:square;stroke-opacity:0.15;stroke-width:0.8;"/>
     </g>
     <g id="line2d_65">
      <g>
       <use style="stroke:#000000;stroke-width:0.6;" x="137.520791" xlink:href="#m3148a79bc5" y="298.944"/>
      </g>
     </g>
     <g id="line2d_66">
      <g>
       <use style="stroke:#000000;stroke-width:0.6;" x="137.520791" xlink:href="#mf70955776b" y="27.648"/>
      </g>
     </g>
    </g>
    <g id="xtick_23">
     <g id="line2d_67">
      <path clip-path="url(#pecd5248baf)" d="M 140.032723 298.944 
L 140.032723 27.648 
" style="fill:none;stroke:#b0b0b0;stroke-linecap:square;stroke-opacity:0.15;stroke-width:0.8;"/>
     </g>
     <g id="line2d_68">
      <g>
       <use style="stroke:#000000;stroke-width:0.6;" x="140.032723" xlink:href="#m3148a79bc5" y="298.944"/>
      </g>
     </g>
     <g id="line2d_69">
      <g>
       <use style="stroke:#000000;stroke-width:0.6;" x="140.032723" xlink:href="#mf70955776b" y="27.648"/>
      </g>
     </g>
    </g>
    <g id="xtick_24">
     <g id="line2d_70">
      <path clip-path="url(#pecd5248baf)" d="M 142.248405 298.944 
L 142.248405 27.648 
" style="fill:none;stroke:#b0b0b0;stroke-linecap:square;stroke-opacity:0.15;stroke-width:0.8;"/>
     </g>
     <g id="line2d_71">
      <g>
       <use style="stroke:#000000;stroke-width:0.6;" x="142.248405" xlink:href="#m3148a79bc5" y="298.944"/>
      </g>
     </g>
     <g id="line2d_72">
      <g>
       <use style="stroke:#000000;stroke-width:0.6;" x="142.248405" xlink:href="#mf70955776b" y="27.648"/>
      </g>
     </g>
    </g>
    <g id="xtick_25">
     <g id="line2d_73">
      <path clip-path="url(#pecd5248baf)" d="M 157.269574 298.944 
L 157.269574 27.648 
" style="fill:none;stroke:#b0b0b0;stroke-linecap:square;stroke-opacity:0.15;stroke-width:0.8;"/>
     </g>
     <g id="line2d_74">
      <g>
       <use style="stroke:#000000;stroke-width:0.6;" x="157.269574" xlink:href="#m3148a79bc5" y="298.944"/>
      </g>
     </g>
     <g id="line2d_75">
      <g>
       <use style="stroke:#000000;stroke-width:0.6;" x="157.269574" xlink:href="#mf70955776b" y="27.648"/>
      </g>
     </g>
    </g>
    <g id="xtick_26">
     <g id="line2d_76">
      <path clip-path="url(#pecd5248baf)" d="M 164.897003 298.944 
L 164.897003 27.648 
" style="fill:none;stroke:#b0b0b0;stroke-linecap:square;stroke-opacity:0.15;stroke-width:0.8;"/>
     </g>
     <g id="line2d_77">
      <g>
       <use style="stroke:#000000;stroke-width:0.6;" x="164.897003" xlink:href="#m3148a79bc5" y="298.944"/>
      </g>
     </g>
     <g id="line2d_78">
      <g>
       <use style="stroke:#000000;stroke-width:0.6;" x="164.897003" xlink:href="#mf70955776b" y="27.648"/>
      </g>
     </g>
    </g>
    <g id="xtick_27">
     <g id="line2d_79">
      <path clip-path="url(#pecd5248baf)" d="M 170.308749 298.944 
L 170.308749 27.648 
" style="fill:none;stroke:#b0b0b0;stroke-linecap:square;stroke-opacity:0.15;stroke-width:0.8;"/>
     </g>
     <g id="line2d_80">
      <g>
       <use style="stroke:#000000;stroke-width:0.6;" x="170.308749" xlink:href="#m3148a79bc5" y="298.944"/>
      </g>
     </g>
     <g id="line2d_81">
      <g>
       <use style="stroke:#000000;stroke-width:0.6;" x="170.308749" xlink:href="#mf70955776b" y="27.648"/>
      </g>
     </g>
    </g>
    <g id="xtick_28">
     <g id="line2d_82">
      <path clip-path="url(#pecd5248baf)" d="M 174.506426 298.944 
L 174.506426 27.648 
" style="fill:none;stroke:#b0b0b0;stroke-linecap:square;stroke-opacity:0.15;stroke-width:0.8;"/>
     </g>
     <g id="line2d_83">
      <g>
       <use style="stroke:#000000;stroke-width:0.6;" x="174.506426" xlink:href="#m3148a79bc5" y="298.944"/>
      </g>
     </g>
     <g id="line2d_84">
      <g>
       <use style="stroke:#000000;stroke-width:0.6;" x="174.506426" xlink:href="#mf70955776b" y="27.648"/>
      </g>
     </g>
    </g>
    <g id="xtick_29">
     <g id="line2d_85">
      <path clip-path="url(#pecd5248baf)" d="M 177.936177 298.944 
L 177.936177 27.648 
" style="fill:none;stroke:#b0b0b0;stroke-linecap:square;stroke-opacity:0.15;stroke-width:0.8;"/>
     </g>
     <g id="line2d_86">
      <g>
       <use style="stroke:#000000;stroke-width:0.6;" x="177.936177" xlink:href="#m3148a79bc5" y="298.944"/>
      </g>
     </g>
     <g id="line2d_87">
      <g>
       <use style="stroke:#000000;stroke-width:0.6;" x="177.936177" xlink:href="#mf70955776b" y="27.648"/>
      </g>
     </g>
    </g>
    <g id="xtick_30">
     <g id="line2d_88">
      <path clip-path="url(#pecd5248baf)" d="M 180.835991 298.944 
L 180.835991 27.648 
" style="fill:none;stroke:#b0b0b0;stroke-linecap:square;stroke-opacity:0.15;stroke-width:0.8;"/>
     </g>
     <g id="line2d_89">
      <g>
       <use style="stroke:#000000;stroke-width:0.6;" x="180.835991" xlink:href="#m3148a79bc5" y="298.944"/>
      </g>
     </g>
     <g id="line2d_90">
      <g>
       <use style="stroke:#000000;stroke-width:0.6;" x="180.835991" xlink:href="#mf70955776b" y="27.648"/>
      </g>
     </g>
    </g>
    <g id="xtick_31">
     <g id="line2d_91">
      <path clip-path="url(#pecd5248baf)" d="M 183.347923 298.944 
L 183.347923 27.648 
" style="fill:none;stroke:#b0b0b0;stroke-linecap:square;stroke-opacity:0.15;stroke-width:0.8;"/>
     </g>
     <g id="line2d_92">
      <g>
       <use style="stroke:#000000;stroke-width:0.6;" x="183.347923" xlink:href="#m3148a79bc5" y="298.944"/>
      </g>
     </g>
     <g id="line2d_93">
      <g>
       <use style="stroke:#000000;stroke-width:0.6;" x="183.347923" xlink:href="#mf70955776b" y="27.648"/>
      </g>
     </g>
    </g>
    <g id="xtick_32">
     <g id="line2d_94">
      <path clip-path="url(#pecd5248baf)" d="M 185.563605 298.944 
L 185.563605 27.648 
" style="fill:none;stroke:#b0b0b0;stroke-linecap:square;stroke-opacity:0.15;stroke-width:0.8;"/>
     </g>
     <g id="line2d_95">
      <g>
       <use style="stroke:#000000;stroke-width:0.6;" x="185.563605" xlink:href="#m3148a79bc5" y="298.944"/>
      </g>
     </g>
     <g id="line2d_96">
      <g>
       <use style="stroke:#000000;stroke-width:0.6;" x="185.563605" xlink:href="#mf70955776b" y="27.648"/>
      </g>
     </g>
    </g>
    <g id="xtick_33">
     <g id="line2d_97">
      <path clip-path="url(#pecd5248baf)" d="M 200.584774 298.944 
L 200.584774 27.648 
" style="fill:none;stroke:#b0b0b0;stroke-linecap:square;stroke-opacity:0.15;stroke-width:0.8;"/>
     </g>
     <g id="line2d_98">
      <g>
       <use style="stroke:#000000;stroke-width:0.6;" x="200.584774" xlink:href="#m3148a79bc5" y="298.944"/>
      </g>
     </g>
     <g id="line2d_99">
      <g>
       <use style="stroke:#000000;stroke-width:0.6;" x="200.584774" xlink:href="#mf70955776b" y="27.648"/>
      </g>
     </g>
    </g>
    <g id="xtick_34">
     <g id="line2d_100">
      <path clip-path="url(#pecd5248baf)" d="M 208.212203 298.944 
L 208.212203 27.648 
" style="fill:none;stroke:#b0b0b0;stroke-linecap:square;stroke-opacity:0.15;stroke-width:0.8;"/>
     </g>
     <g id="line2d_101">
      <g>
       <use style="stroke:#000000;stroke-width:0.6;" x="208.212203" xlink:href="#m3148a79bc5" y="298.944"/>
      </g>
     </g>
     <g id="line2d_102">
      <g>
       <use style="stroke:#000000;stroke-width:0.6;" x="208.212203" xlink:href="#mf70955776b" y="27.648"/>
      </g>
     </g>
    </g>
    <g id="xtick_35">
     <g id="line2d_103">
      <path clip-path="url(#pecd5248baf)" d="M 213.623949 298.944 
L 213.623949 27.648 
" style="fill:none;stroke:#b0b0b0;stroke-linecap:square;stroke-opacity:0.15;stroke-width:0.8;"/>
     </g>
     <g id="line2d_104">
      <g>
       <use style="stroke:#000000;stroke-width:0.6;" x="213.623949" xlink:href="#m3148a79bc5" y="298.944"/>
      </g>
     </g>
     <g id="line2d_105">
      <g>
       <use style="stroke:#000000;stroke-width:0.6;" x="213.623949" xlink:href="#mf70955776b" y="27.648"/>
      </g>
     </g>
    </g>
    <g id="xtick_36">
     <g id="line2d_106">
      <path clip-path="url(#pecd5248baf)" d="M 217.821626 298.944 
L 217.821626 27.648 
" style="fill:none;stroke:#b0b0b0;stroke-linecap:square;stroke-opacity:0.15;stroke-width:0.8;"/>
     </g>
     <g id="line2d_107">
      <g>
       <use style="stroke:#000000;stroke-width:0.6;" x="217.821626" xlink:href="#m3148a79bc5" y="298.944"/>
      </g>
     </g>
     <g id="line2d_108">
      <g>
       <use style="stroke:#000000;stroke-width:0.6;" x="217.821626" xlink:href="#mf70955776b" y="27.648"/>
      </g>
     </g>
    </g>
    <g id="xtick_37">
     <g id="line2d_109">
      <path clip-path="url(#pecd5248baf)" d="M 221.251377 298.944 
L 221.251377 27.648 
" style="fill:none;stroke:#b0b0b0;stroke-linecap:square;stroke-opacity:0.15;stroke-width:0.8;"/>
     </g>
     <g id="line2d_110">
      <g>
       <use style="stroke:#000000;stroke-width:0.6;" x="221.251377" xlink:href="#m3148a79bc5" y="298.944"/>
      </g>
     </g>
     <g id="line2d_111">
      <g>
       <use style="stroke:#000000;stroke-width:0.6;" x="221.251377" xlink:href="#mf70955776b" y="27.648"/>
      </g>
     </g>
    </g>
    <g id="xtick_38">
     <g id="line2d_112">
      <path clip-path="url(#pecd5248baf)" d="M 224.151191 298.944 
L 224.151191 27.648 
" style="fill:none;stroke:#b0b0b0;stroke-linecap:square;stroke-opacity:0.15;stroke-width:0.8;"/>
     </g>
     <g id="line2d_113">
      <g>
       <use style="stroke:#000000;stroke-width:0.6;" x="224.151191" xlink:href="#m3148a79bc5" y="298.944"/>
      </g>
     </g>
     <g id="line2d_114">
      <g>
       <use style="stroke:#000000;stroke-width:0.6;" x="224.151191" xlink:href="#mf70955776b" y="27.648"/>
      </g>
     </g>
    </g>
    <g id="xtick_39">
     <g id="line2d_115">
      <path clip-path="url(#pecd5248baf)" d="M 226.663123 298.944 
L 226.663123 27.648 
" style="fill:none;stroke:#b0b0b0;stroke-linecap:square;stroke-opacity:0.15;stroke-width:0.8;"/>
     </g>
     <g id="line2d_116">
      <g>
       <use style="stroke:#000000;stroke-width:0.6;" x="226.663123" xlink:href="#m3148a79bc5" y="298.944"/>
      </g>
     </g>
     <g id="line2d_117">
      <g>
       <use style="stroke:#000000;stroke-width:0.6;" x="226.663123" xlink:href="#mf70955776b" y="27.648"/>
      </g>
     </g>
    </g>
    <g id="xtick_40">
     <g id="line2d_118">
      <path clip-path="url(#pecd5248baf)" d="M 228.878805 298.944 
L 228.878805 27.648 
" style="fill:none;stroke:#b0b0b0;stroke-linecap:square;stroke-opacity:0.15;stroke-width:0.8;"/>
     </g>
     <g id="line2d_119">
      <g>
       <use style="stroke:#000000;stroke-width:0.6;" x="228.878805" xlink:href="#m3148a79bc5" y="298.944"/>
      </g>
     </g>
     <g id="line2d_120">
      <g>
       <use style="stroke:#000000;stroke-width:0.6;" x="228.878805" xlink:href="#mf70955776b" y="27.648"/>
      </g>
     </g>
    </g>
    <g id="xtick_41">
     <g id="line2d_121">
      <path clip-path="url(#pecd5248baf)" d="M 243.899974 298.944 
L 243.899974 27.648 
" style="fill:none;stroke:#b0b0b0;stroke-linecap:square;stroke-opacity:0.15;stroke-width:0.8;"/>
     </g>
     <g id="line2d_122">
      <g>
       <use style="stroke:#000000;stroke-width:0.6;" x="243.899974" xlink:href="#m3148a79bc5" y="298.944"/>
      </g>
     </g>
     <g id="line2d_123">
      <g>
       <use style="stroke:#000000;stroke-width:0.6;" x="243.899974" xlink:href="#mf70955776b" y="27.648"/>
      </g>
     </g>
    </g>
    <g id="xtick_42">
     <g id="line2d_124">
      <path clip-path="url(#pecd5248baf)" d="M 251.527403 298.944 
L 251.527403 27.648 
" style="fill:none;stroke:#b0b0b0;stroke-linecap:square;stroke-opacity:0.15;stroke-width:0.8;"/>
     </g>
     <g id="line2d_125">
      <g>
       <use style="stroke:#000000;stroke-width:0.6;" x="251.527403" xlink:href="#m3148a79bc5" y="298.944"/>
      </g>
     </g>
     <g id="line2d_126">
      <g>
       <use style="stroke:#000000;stroke-width:0.6;" x="251.527403" xlink:href="#mf70955776b" y="27.648"/>
      </g>
     </g>
    </g>
    <g id="xtick_43">
     <g id="line2d_127">
      <path clip-path="url(#pecd5248baf)" d="M 256.939149 298.944 
L 256.939149 27.648 
" style="fill:none;stroke:#b0b0b0;stroke-linecap:square;stroke-opacity:0.15;stroke-width:0.8;"/>
     </g>
     <g id="line2d_128">
      <g>
       <use style="stroke:#000000;stroke-width:0.6;" x="256.939149" xlink:href="#m3148a79bc5" y="298.944"/>
      </g>
     </g>
     <g id="line2d_129">
      <g>
       <use style="stroke:#000000;stroke-width:0.6;" x="256.939149" xlink:href="#mf70955776b" y="27.648"/>
      </g>
     </g>
    </g>
    <g id="xtick_44">
     <g id="line2d_130">
      <path clip-path="url(#pecd5248baf)" d="M 261.136826 298.944 
L 261.136826 27.648 
" style="fill:none;stroke:#b0b0b0;stroke-linecap:square;stroke-opacity:0.15;stroke-width:0.8;"/>
     </g>
     <g id="line2d_131">
      <g>
       <use style="stroke:#000000;stroke-width:0.6;" x="261.136826" xlink:href="#m3148a79bc5" y="298.944"/>
      </g>
     </g>
     <g id="line2d_132">
      <g>
       <use style="stroke:#000000;stroke-width:0.6;" x="261.136826" xlink:href="#mf70955776b" y="27.648"/>
      </g>
     </g>
    </g>
    <g id="xtick_45">
     <g id="line2d_133">
      <path clip-path="url(#pecd5248baf)" d="M 264.566577 298.944 
L 264.566577 27.648 
" style="fill:none;stroke:#b0b0b0;stroke-linecap:square;stroke-opacity:0.15;stroke-width:0.8;"/>
     </g>
     <g id="line2d_134">
      <g>
       <use style="stroke:#000000;stroke-width:0.6;" x="264.566577" xlink:href="#m3148a79bc5" y="298.944"/>
      </g>
     </g>
     <g id="line2d_135">
      <g>
       <use style="stroke:#000000;stroke-width:0.6;" x="264.566577" xlink:href="#mf70955776b" y="27.648"/>
      </g>
     </g>
    </g>
    <g id="xtick_46">
     <g id="line2d_136">
      <path clip-path="url(#pecd5248baf)" d="M 267.466391 298.944 
L 267.466391 27.648 
" style="fill:none;stroke:#b0b0b0;stroke-linecap:square;stroke-opacity:0.15;stroke-width:0.8;"/>
     </g>
     <g id="line2d_137">
      <g>
       <use style="stroke:#000000;stroke-width:0.6;" x="267.466391" xlink:href="#m3148a79bc5" y="298.944"/>
      </g>
     </g>
     <g id="line2d_138">
      <g>
       <use style="stroke:#000000;stroke-width:0.6;" x="267.466391" xlink:href="#mf70955776b" y="27.648"/>
      </g>
     </g>
    </g>
    <g id="xtick_47">
     <g id="line2d_139">
      <path clip-path="url(#pecd5248baf)" d="M 269.978323 298.944 
L 269.978323 27.648 
" style="fill:none;stroke:#b0b0b0;stroke-linecap:square;stroke-opacity:0.15;stroke-width:0.8;"/>
     </g>
     <g id="line2d_140">
      <g>
       <use style="stroke:#000000;stroke-width:0.6;" x="269.978323" xlink:href="#m3148a79bc5" y="298.944"/>
      </g>
     </g>
     <g id="line2d_141">
      <g>
       <use style="stroke:#000000;stroke-width:0.6;" x="269.978323" xlink:href="#mf70955776b" y="27.648"/>
      </g>
     </g>
    </g>
    <g id="xtick_48">
     <g id="line2d_142">
      <path clip-path="url(#pecd5248baf)" d="M 272.194005 298.944 
L 272.194005 27.648 
" style="fill:none;stroke:#b0b0b0;stroke-linecap:square;stroke-opacity:0.15;stroke-width:0.8;"/>
     </g>
     <g id="line2d_143">
      <g>
       <use style="stroke:#000000;stroke-width:0.6;" x="272.194005" xlink:href="#m3148a79bc5" y="298.944"/>
      </g>
     </g>
     <g id="line2d_144">
      <g>
       <use style="stroke:#000000;stroke-width:0.6;" x="272.194005" xlink:href="#mf70955776b" y="27.648"/>
      </g>
     </g>
    </g>
    <g id="xtick_49">
     <g id="line2d_145">
      <path clip-path="url(#pecd5248baf)" d="M 287.215174 298.944 
L 287.215174 27.648 
" style="fill:none;stroke:#b0b0b0;stroke-linecap:square;stroke-opacity:0.15;stroke-width:0.8;"/>
     </g>
     <g id="line2d_146">
      <g>
       <use style="stroke:#000000;stroke-width:0.6;" x="287.215174" xlink:href="#m3148a79bc5" y="298.944"/>
      </g>
     </g>
     <g id="line2d_147">
      <g>
       <use style="stroke:#000000;stroke-width:0.6;" x="287.215174" xlink:href="#mf70955776b" y="27.648"/>
      </g>
     </g>
    </g>
    <g id="xtick_50">
     <g id="line2d_148">
      <path clip-path="url(#pecd5248baf)" d="M 294.842603 298.944 
L 294.842603 27.648 
" style="fill:none;stroke:#b0b0b0;stroke-linecap:square;stroke-opacity:0.15;stroke-width:0.8;"/>
     </g>
     <g id="line2d_149">
      <g>
       <use style="stroke:#000000;stroke-width:0.6;" x="294.842603" xlink:href="#m3148a79bc5" y="298.944"/>
      </g>
     </g>
     <g id="line2d_150">
      <g>
       <use style="stroke:#000000;stroke-width:0.6;" x="294.842603" xlink:href="#mf70955776b" y="27.648"/>
      </g>
     </g>
    </g>
    <g id="xtick_51">
     <g id="line2d_151">
      <path clip-path="url(#pecd5248baf)" d="M 300.254349 298.944 
L 300.254349 27.648 
" style="fill:none;stroke:#b0b0b0;stroke-linecap:square;stroke-opacity:0.15;stroke-width:0.8;"/>
     </g>
     <g id="line2d_152">
      <g>
       <use style="stroke:#000000;stroke-width:0.6;" x="300.254349" xlink:href="#m3148a79bc5" y="298.944"/>
      </g>
     </g>
     <g id="line2d_153">
      <g>
       <use style="stroke:#000000;stroke-width:0.6;" x="300.254349" xlink:href="#mf70955776b" y="27.648"/>
      </g>
     </g>
    </g>
    <g id="xtick_52">
     <g id="line2d_154">
      <path clip-path="url(#pecd5248baf)" d="M 304.452026 298.944 
L 304.452026 27.648 
" style="fill:none;stroke:#b0b0b0;stroke-linecap:square;stroke-opacity:0.15;stroke-width:0.8;"/>
     </g>
     <g id="line2d_155">
      <g>
       <use style="stroke:#000000;stroke-width:0.6;" x="304.452026" xlink:href="#m3148a79bc5" y="298.944"/>
      </g>
     </g>
     <g id="line2d_156">
      <g>
       <use style="stroke:#000000;stroke-width:0.6;" x="304.452026" xlink:href="#mf70955776b" y="27.648"/>
      </g>
     </g>
    </g>
    <g id="xtick_53">
     <g id="line2d_157">
      <path clip-path="url(#pecd5248baf)" d="M 307.881777 298.944 
L 307.881777 27.648 
" style="fill:none;stroke:#b0b0b0;stroke-linecap:square;stroke-opacity:0.15;stroke-width:0.8;"/>
     </g>
     <g id="line2d_158">
      <g>
       <use style="stroke:#000000;stroke-width:0.6;" x="307.881777" xlink:href="#m3148a79bc5" y="298.944"/>
      </g>
     </g>
     <g id="line2d_159">
      <g>
       <use style="stroke:#000000;stroke-width:0.6;" x="307.881777" xlink:href="#mf70955776b" y="27.648"/>
      </g>
     </g>
    </g>
    <g id="xtick_54">
     <g id="line2d_160">
      <path clip-path="url(#pecd5248baf)" d="M 310.781591 298.944 
L 310.781591 27.648 
" style="fill:none;stroke:#b0b0b0;stroke-linecap:square;stroke-opacity:0.15;stroke-width:0.8;"/>
     </g>
     <g id="line2d_161">
      <g>
       <use style="stroke:#000000;stroke-width:0.6;" x="310.781591" xlink:href="#m3148a79bc5" y="298.944"/>
      </g>
     </g>
     <g id="line2d_162">
      <g>
       <use style="stroke:#000000;stroke-width:0.6;" x="310.781591" xlink:href="#mf70955776b" y="27.648"/>
      </g>
     </g>
    </g>
    <g id="xtick_55">
     <g id="line2d_163">
      <path clip-path="url(#pecd5248baf)" d="M 313.293523 298.944 
L 313.293523 27.648 
" style="fill:none;stroke:#b0b0b0;stroke-linecap:square;stroke-opacity:0.15;stroke-width:0.8;"/>
     </g>
     <g id="line2d_164">
      <g>
       <use style="stroke:#000000;stroke-width:0.6;" x="313.293523" xlink:href="#m3148a79bc5" y="298.944"/>
      </g>
     </g>
     <g id="line2d_165">
      <g>
       <use style="stroke:#000000;stroke-width:0.6;" x="313.293523" xlink:href="#mf70955776b" y="27.648"/>
      </g>
     </g>
    </g>
    <g id="xtick_56">
     <g id="line2d_166">
      <path clip-path="url(#pecd5248baf)" d="M 315.509205 298.944 
L 315.509205 27.648 
" style="fill:none;stroke:#b0b0b0;stroke-linecap:square;stroke-opacity:0.15;stroke-width:0.8;"/>
     </g>
     <g id="line2d_167">
      <g>
       <use style="stroke:#000000;stroke-width:0.6;" x="315.509205" xlink:href="#m3148a79bc5" y="298.944"/>
      </g>
     </g>
     <g id="line2d_168">
      <g>
       <use style="stroke:#000000;stroke-width:0.6;" x="315.509205" xlink:href="#mf70955776b" y="27.648"/>
      </g>
     </g>
    </g>
    <g id="xtick_57">
     <g id="line2d_169">
      <path clip-path="url(#pecd5248baf)" d="M 330.530374 298.944 
L 330.530374 27.648 
" style="fill:none;stroke:#b0b0b0;stroke-linecap:square;stroke-opacity:0.15;stroke-width:0.8;"/>
     </g>
     <g id="line2d_170">
      <g>
       <use style="stroke:#000000;stroke-width:0.6;" x="330.530374" xlink:href="#m3148a79bc5" y="298.944"/>
      </g>
     </g>
     <g id="line2d_171">
      <g>
       <use style="stroke:#000000;stroke-width:0.6;" x="330.530374" xlink:href="#mf70955776b" y="27.648"/>
      </g>
     </g>
    </g>
    <g id="xtick_58">
     <g id="line2d_172">
      <path clip-path="url(#pecd5248baf)" d="M 338.157803 298.944 
L 338.157803 27.648 
" style="fill:none;stroke:#b0b0b0;stroke-linecap:square;stroke-opacity:0.15;stroke-width:0.8;"/>
     </g>
     <g id="line2d_173">
      <g>
       <use style="stroke:#000000;stroke-width:0.6;" x="338.157803" xlink:href="#m3148a79bc5" y="298.944"/>
      </g>
     </g>
     <g id="line2d_174">
      <g>
       <use style="stroke:#000000;stroke-width:0.6;" x="338.157803" xlink:href="#mf70955776b" y="27.648"/>
      </g>
     </g>
    </g>
    <g id="xtick_59">
     <g id="line2d_175">
      <path clip-path="url(#pecd5248baf)" d="M 343.569549 298.944 
L 343.569549 27.648 
" style="fill:none;stroke:#b0b0b0;stroke-linecap:square;stroke-opacity:0.15;stroke-width:0.8;"/>
     </g>
     <g id="line2d_176">
      <g>
       <use style="stroke:#000000;stroke-width:0.6;" x="343.569549" xlink:href="#m3148a79bc5" y="298.944"/>
      </g>
     </g>
     <g id="line2d_177">
      <g>
       <use style="stroke:#000000;stroke-width:0.6;" x="343.569549" xlink:href="#mf70955776b" y="27.648"/>
      </g>
     </g>
    </g>
    <g id="xtick_60">
     <g id="line2d_178">
      <path clip-path="url(#pecd5248baf)" d="M 347.767226 298.944 
L 347.767226 27.648 
" style="fill:none;stroke:#b0b0b0;stroke-linecap:square;stroke-opacity:0.15;stroke-width:0.8;"/>
     </g>
     <g id="line2d_179">
      <g>
       <use style="stroke:#000000;stroke-width:0.6;" x="347.767226" xlink:href="#m3148a79bc5" y="298.944"/>
      </g>
     </g>
     <g id="line2d_180">
      <g>
       <use style="stroke:#000000;stroke-width:0.6;" x="347.767226" xlink:href="#mf70955776b" y="27.648"/>
      </g>
     </g>
    </g>
    <g id="xtick_61">
     <g id="line2d_181">
      <path clip-path="url(#pecd5248baf)" d="M 351.196977 298.944 
L 351.196977 27.648 
" style="fill:none;stroke:#b0b0b0;stroke-linecap:square;stroke-opacity:0.15;stroke-width:0.8;"/>
     </g>
     <g id="line2d_182">
      <g>
       <use style="stroke:#000000;stroke-width:0.6;" x="351.196977" xlink:href="#m3148a79bc5" y="298.944"/>
      </g>
     </g>
     <g id="line2d_183">
      <g>
       <use style="stroke:#000000;stroke-width:0.6;" x="351.196977" xlink:href="#mf70955776b" y="27.648"/>
      </g>
     </g>
    </g>
    <g id="xtick_62">
     <g id="line2d_184">
      <path clip-path="url(#pecd5248baf)" d="M 354.096791 298.944 
L 354.096791 27.648 
" style="fill:none;stroke:#b0b0b0;stroke-linecap:square;stroke-opacity:0.15;stroke-width:0.8;"/>
     </g>
     <g id="line2d_185">
      <g>
       <use style="stroke:#000000;stroke-width:0.6;" x="354.096791" xlink:href="#m3148a79bc5" y="298.944"/>
      </g>
     </g>
     <g id="line2d_186">
      <g>
       <use style="stroke:#000000;stroke-width:0.6;" x="354.096791" xlink:href="#mf70955776b" y="27.648"/>
      </g>
     </g>
    </g>
    <g id="xtick_63">
     <g id="line2d_187">
      <path clip-path="url(#pecd5248baf)" d="M 356.608723 298.944 
L 356.608723 27.648 
" style="fill:none;stroke:#b0b0b0;stroke-linecap:square;stroke-opacity:0.15;stroke-width:0.8;"/>
     </g>
     <g id="line2d_188">
      <g>
       <use style="stroke:#000000;stroke-width:0.6;" x="356.608723" xlink:href="#m3148a79bc5" y="298.944"/>
      </g>
     </g>
     <g id="line2d_189">
      <g>
       <use style="stroke:#000000;stroke-width:0.6;" x="356.608723" xlink:href="#mf70955776b" y="27.648"/>
      </g>
     </g>
    </g>
    <g id="xtick_64">
     <g id="line2d_190">
      <path clip-path="url(#pecd5248baf)" d="M 358.824405 298.944 
L 358.824405 27.648 
" style="fill:none;stroke:#b0b0b0;stroke-linecap:square;stroke-opacity:0.15;stroke-width:0.8;"/>
     </g>
     <g id="line2d_191">
      <g>
       <use style="stroke:#000000;stroke-width:0.6;" x="358.824405" xlink:href="#m3148a79bc5" y="298.944"/>
      </g>
     </g>
     <g id="line2d_192">
      <g>
       <use style="stroke:#000000;stroke-width:0.6;" x="358.824405" xlink:href="#mf70955776b" y="27.648"/>
      </g>
     </g>
    </g>
    <g id="text_9">
     <!-- log10(# f-evals / dimension) -->
     <g transform="translate(102.985622 336.826656)scale(0.15 -0.15)">
      <defs>
       <path d="M 603 4863 
L 1178 4863 
L 1178 0 
L 603 0 
L 603 4863 
z
" id="DejaVuSans-6c" transform="scale(0.015625)"/>
       <path d="M 1959 3097 
Q 1497 3097 1228 2736 
Q 959 2375 959 1747 
Q 959 1119 1226 758 
Q 1494 397 1959 397 
Q 2419 397 2687 759 
Q 2956 1122 2956 1747 
Q 2956 2369 2687 2733 
Q 2419 3097 1959 3097 
z
M 1959 3584 
Q 2709 3584 3137 3096 
Q 3566 2609 3566 1747 
Q 3566 888 3137 398 
Q 2709 -91 1959 -91 
Q 1206 -91 779 398 
Q 353 888 353 1747 
Q 353 2609 779 3096 
Q 1206 3584 1959 3584 
z
" id="DejaVuSans-6f" transform="scale(0.015625)"/>
       <path d="M 2906 1791 
Q 2906 2416 2648 2759 
Q 2391 3103 1925 3103 
Q 1463 3103 1205 2759 
Q 947 2416 947 1791 
Q 947 1169 1205 825 
Q 1463 481 1925 481 
Q 2391 481 2648 825 
Q 2906 1169 2906 1791 
z
M 3481 434 
Q 3481 -459 3084 -895 
Q 2688 -1331 1869 -1331 
Q 1566 -1331 1297 -1286 
Q 1028 -1241 775 -1147 
L 775 -588 
Q 1028 -725 1275 -790 
Q 1522 -856 1778 -856 
Q 2344 -856 2625 -561 
Q 2906 -266 2906 331 
L 2906 616 
Q 2728 306 2450 153 
Q 2172 0 1784 0 
Q 1141 0 747 490 
Q 353 981 353 1791 
Q 353 2603 747 3093 
Q 1141 3584 1784 3584 
Q 2172 3584 2450 3431 
Q 2728 3278 2906 2969 
L 2906 3500 
L 3481 3500 
L 3481 434 
z
" id="DejaVuSans-67" transform="scale(0.015625)"/>
       <path d="M 1984 4856 
Q 1566 4138 1362 3434 
Q 1159 2731 1159 2009 
Q 1159 1288 1364 580 
Q 1569 -128 1984 -844 
L 1484 -844 
Q 1016 -109 783 600 
Q 550 1309 550 2009 
Q 550 2706 781 3412 
Q 1013 4119 1484 4856 
L 1984 4856 
z
" id="DejaVuSans-28" transform="scale(0.015625)"/>
       <path d="M 3272 2816 
L 2363 2816 
L 2100 1772 
L 3016 1772 
L 3272 2816 
z
M 2803 4594 
L 2478 3297 
L 3391 3297 
L 3719 4594 
L 4219 4594 
L 3897 3297 
L 4872 3297 
L 4872 2816 
L 3775 2816 
L 3519 1772 
L 4513 1772 
L 4513 1294 
L 3397 1294 
L 3072 0 
L 2572 0 
L 2894 1294 
L 1978 1294 
L 1656 0 
L 1153 0 
L 1478 1294 
L 494 1294 
L 494 1772 
L 1594 1772 
L 1856 2816 
L 850 2816 
L 850 3297 
L 1978 3297 
L 2297 4594 
L 2803 4594 
z
" id="DejaVuSans-23" transform="scale(0.015625)"/>
       <path id="DejaVuSans-20" transform="scale(0.015625)"/>
       <path d="M 2375 4863 
L 2375 4384 
L 1825 4384 
Q 1516 4384 1395 4259 
Q 1275 4134 1275 3809 
L 1275 3500 
L 2222 3500 
L 2222 3053 
L 1275 3053 
L 1275 0 
L 697 0 
L 697 3053 
L 147 3053 
L 147 3500 
L 697 3500 
L 697 3744 
Q 697 4328 969 4595 
Q 1241 4863 1831 4863 
L 2375 4863 
z
" id="DejaVuSans-66" transform="scale(0.015625)"/>
       <path d="M 313 2009 
L 1997 2009 
L 1997 1497 
L 313 1497 
L 313 2009 
z
" id="DejaVuSans-2d" transform="scale(0.015625)"/>
       <path d="M 3597 1894 
L 3597 1613 
L 953 1613 
Q 991 1019 1311 708 
Q 1631 397 2203 397 
Q 2534 397 2845 478 
Q 3156 559 3463 722 
L 3463 178 
Q 3153 47 2828 -22 
Q 2503 -91 2169 -91 
Q 1331 -91 842 396 
Q 353 884 353 1716 
Q 353 2575 817 3079 
Q 1281 3584 2069 3584 
Q 2775 3584 3186 3129 
Q 3597 2675 3597 1894 
z
M 3022 2063 
Q 3016 2534 2758 2815 
Q 2500 3097 2075 3097 
Q 1594 3097 1305 2825 
Q 1016 2553 972 2059 
L 3022 2063 
z
" id="DejaVuSans-65" transform="scale(0.015625)"/>
       <path d="M 191 3500 
L 800 3500 
L 1894 563 
L 2988 3500 
L 3597 3500 
L 2284 0 
L 1503 0 
L 191 3500 
z
" id="DejaVuSans-76" transform="scale(0.015625)"/>
       <path d="M 2194 1759 
Q 1497 1759 1228 1600 
Q 959 1441 959 1056 
Q 959 750 1161 570 
Q 1363 391 1709 391 
Q 2188 391 2477 730 
Q 2766 1069 2766 1631 
L 2766 1759 
L 2194 1759 
z
M 3341 1997 
L 3341 0 
L 2766 0 
L 2766 531 
Q 2569 213 2275 61 
Q 1981 -91 1556 -91 
Q 1019 -91 701 211 
Q 384 513 384 1019 
Q 384 1609 779 1909 
Q 1175 2209 1959 2209 
L 2766 2209 
L 2766 2266 
Q 2766 2663 2505 2880 
Q 2244 3097 1772 3097 
Q 1472 3097 1187 3025 
Q 903 2953 641 2809 
L 641 3341 
Q 956 3463 1253 3523 
Q 1550 3584 1831 3584 
Q 2591 3584 2966 3190 
Q 3341 2797 3341 1997 
z
" id="DejaVuSans-61" transform="scale(0.015625)"/>
       <path d="M 2834 3397 
L 2834 2853 
Q 2591 2978 2328 3040 
Q 2066 3103 1784 3103 
Q 1356 3103 1142 2972 
Q 928 2841 928 2578 
Q 928 2378 1081 2264 
Q 1234 2150 1697 2047 
L 1894 2003 
Q 2506 1872 2764 1633 
Q 3022 1394 3022 966 
Q 3022 478 2636 193 
Q 2250 -91 1575 -91 
Q 1294 -91 989 -36 
Q 684 19 347 128 
L 347 722 
Q 666 556 975 473 
Q 1284 391 1588 391 
Q 1994 391 2212 530 
Q 2431 669 2431 922 
Q 2431 1156 2273 1281 
Q 2116 1406 1581 1522 
L 1381 1569 
Q 847 1681 609 1914 
Q 372 2147 372 2553 
Q 372 3047 722 3315 
Q 1072 3584 1716 3584 
Q 2034 3584 2315 3537 
Q 2597 3491 2834 3397 
z
" id="DejaVuSans-73" transform="scale(0.015625)"/>
       <path d="M 1625 4666 
L 2156 4666 
L 531 -594 
L 0 -594 
L 1625 4666 
z
" id="DejaVuSans-2f" transform="scale(0.015625)"/>
       <path d="M 2906 2969 
L 2906 4863 
L 3481 4863 
L 3481 0 
L 2906 0 
L 2906 525 
Q 2725 213 2448 61 
Q 2172 -91 1784 -91 
Q 1150 -91 751 415 
Q 353 922 353 1747 
Q 353 2572 751 3078 
Q 1150 3584 1784 3584 
Q 2172 3584 2448 3432 
Q 2725 3281 2906 2969 
z
M 947 1747 
Q 947 1113 1208 752 
Q 1469 391 1925 391 
Q 2381 391 2643 752 
Q 2906 1113 2906 1747 
Q 2906 2381 2643 2742 
Q 2381 3103 1925 3103 
Q 1469 3103 1208 2742 
Q 947 2381 947 1747 
z
" id="DejaVuSans-64" transform="scale(0.015625)"/>
       <path d="M 603 3500 
L 1178 3500 
L 1178 0 
L 603 0 
L 603 3500 
z
M 603 4863 
L 1178 4863 
L 1178 4134 
L 603 4134 
L 603 4863 
z
" id="DejaVuSans-69" transform="scale(0.015625)"/>
       <path d="M 3328 2828 
Q 3544 3216 3844 3400 
Q 4144 3584 4550 3584 
Q 5097 3584 5394 3201 
Q 5691 2819 5691 2113 
L 5691 0 
L 5113 0 
L 5113 2094 
Q 5113 2597 4934 2840 
Q 4756 3084 4391 3084 
Q 3944 3084 3684 2787 
Q 3425 2491 3425 1978 
L 3425 0 
L 2847 0 
L 2847 2094 
Q 2847 2600 2669 2842 
Q 2491 3084 2119 3084 
Q 1678 3084 1418 2786 
Q 1159 2488 1159 1978 
L 1159 0 
L 581 0 
L 581 3500 
L 1159 3500 
L 1159 2956 
Q 1356 3278 1631 3431 
Q 1906 3584 2284 3584 
Q 2666 3584 2933 3390 
Q 3200 3197 3328 2828 
z
" id="DejaVuSans-6d" transform="scale(0.015625)"/>
       <path d="M 3513 2113 
L 3513 0 
L 2938 0 
L 2938 2094 
Q 2938 2591 2744 2837 
Q 2550 3084 2163 3084 
Q 1697 3084 1428 2787 
Q 1159 2491 1159 1978 
L 1159 0 
L 581 0 
L 581 3500 
L 1159 3500 
L 1159 2956 
Q 1366 3272 1645 3428 
Q 1925 3584 2291 3584 
Q 2894 3584 3203 3211 
Q 3513 2838 3513 2113 
z
" id="DejaVuSans-6e" transform="scale(0.015625)"/>
       <path d="M 513 4856 
L 1013 4856 
Q 1481 4119 1714 3412 
Q 1947 2706 1947 2009 
Q 1947 1309 1714 600 
Q 1481 -109 1013 -844 
L 513 -844 
Q 928 -128 1133 580 
Q 1338 1288 1338 2009 
Q 1338 2731 1133 3434 
Q 928 4138 513 4856 
z
" id="DejaVuSans-29" transform="scale(0.015625)"/>
      </defs>
      <use xlink:href="#DejaVuSans-6c"/>
      <use x="27.783203" xlink:href="#DejaVuSans-6f"/>
      <use x="88.964844" xlink:href="#DejaVuSans-67"/>
      <use x="152.441406" xlink:href="#DejaVuSans-31"/>
      <use x="216.064453" xlink:href="#DejaVuSans-30"/>
      <use x="279.6875" xlink:href="#DejaVuSans-28"/>
      <use x="318.701172" xlink:href="#DejaVuSans-23"/>
      <use x="402.490234" xlink:href="#DejaVuSans-20"/>
      <use x="434.277344" xlink:href="#DejaVuSans-66"/>
      <use x="463.982422" xlink:href="#DejaVuSans-2d"/>
      <use x="500.066406" xlink:href="#DejaVuSans-65"/>
      <use x="561.589844" xlink:href="#DejaVuSans-76"/>
      <use x="620.769531" xlink:href="#DejaVuSans-61"/>
      <use x="682.048828" xlink:href="#DejaVuSans-6c"/>
      <use x="709.832031" xlink:href="#DejaVuSans-73"/>
      <use x="761.931641" xlink:href="#DejaVuSans-20"/>
      <use x="793.71875" xlink:href="#DejaVuSans-2f"/>
      <use x="827.410156" xlink:href="#DejaVuSans-20"/>
      <use x="859.197266" xlink:href="#DejaVuSans-64"/>
      <use x="922.673828" xlink:href="#DejaVuSans-69"/>
      <use x="950.457031" xlink:href="#DejaVuSans-6d"/>
      <use x="1047.869141" xlink:href="#DejaVuSans-65"/>
      <use x="1109.392578" xlink:href="#DejaVuSans-6e"/>
      <use x="1172.771484" xlink:href="#DejaVuSans-73"/>
      <use x="1224.871094" xlink:href="#DejaVuSans-69"/>
      <use x="1252.654297" xlink:href="#DejaVuSans-6f"/>
      <use x="1313.835938" xlink:href="#DejaVuSans-6e"/>
      <use x="1377.214844" xlink:href="#DejaVuSans-29"/>
     </g>
    </g>
   </g>
   <g id="matplotlib.axis_2">
    <g id="ytick_1">
     <g id="line2d_193">
      <path clip-path="url(#pecd5248baf)" d="M 57.6 298.944 
L 360.8064 298.944 
" style="fill:none;stroke:#b0b0b0;stroke-linecap:square;stroke-width:0.8;"/>
     </g>
     <g id="line2d_194">
      <defs>
       <path d="M 0 0 
L -3.5 0 
" id="md8608e78e5" style="stroke:#000000;stroke-width:0.8;"/>
      </defs>
      <g>
       <use style="stroke:#000000;stroke-width:0.8;" x="57.6" xlink:href="#md8608e78e5" y="298.944"/>
      </g>
     </g>
     <g id="line2d_195">
      <defs>
       <path d="M 0 0 
L 3.5 0 
" id="m58fec5a778" style="stroke:#000000;stroke-width:0.8;"/>
      </defs>
      <g>
       <use style="stroke:#000000;stroke-width:0.8;" x="360.8064" xlink:href="#m58fec5a778" y="298.944"/>
      </g>
     </g>
     <g id="text_10">
      <!-- 0.0 -->
      <g transform="translate(28.335625 304.262906)scale(0.14 -0.14)">
       <defs>
        <path d="M 684 794 
L 1344 794 
L 1344 0 
L 684 0 
L 684 794 
z
" id="DejaVuSans-2e" transform="scale(0.015625)"/>
       </defs>
       <use xlink:href="#DejaVuSans-30"/>
       <use x="63.623047" xlink:href="#DejaVuSans-2e"/>
       <use x="95.410156" xlink:href="#DejaVuSans-30"/>
      </g>
     </g>
    </g>
    <g id="ytick_2">
     <g id="line2d_196">
      <path clip-path="url(#pecd5248baf)" d="M 57.6 244.6848 
L 360.8064 244.6848 
" style="fill:none;stroke:#b0b0b0;stroke-linecap:square;stroke-width:0.8;"/>
     </g>
     <g id="line2d_197">
      <g>
       <use style="stroke:#000000;stroke-width:0.8;" x="57.6" xlink:href="#md8608e78e5" y="244.6848"/>
      </g>
     </g>
     <g id="line2d_198">
      <g>
       <use style="stroke:#000000;stroke-width:0.8;" x="360.8064" xlink:href="#m58fec5a778" y="244.6848"/>
      </g>
     </g>
     <g id="text_11">
      <!-- 0.2 -->
      <g transform="translate(28.335625 250.003706)scale(0.14 -0.14)">
       <use xlink:href="#DejaVuSans-30"/>
       <use x="63.623047" xlink:href="#DejaVuSans-2e"/>
       <use x="95.410156" xlink:href="#DejaVuSans-32"/>
      </g>
     </g>
    </g>
    <g id="ytick_3">
     <g id="line2d_199">
      <path clip-path="url(#pecd5248baf)" d="M 57.6 190.4256 
L 360.8064 190.4256 
" style="fill:none;stroke:#b0b0b0;stroke-linecap:square;stroke-width:0.8;"/>
     </g>
     <g id="line2d_200">
      <g>
       <use style="stroke:#000000;stroke-width:0.8;" x="57.6" xlink:href="#md8608e78e5" y="190.4256"/>
      </g>
     </g>
     <g id="line2d_201">
      <g>
       <use style="stroke:#000000;stroke-width:0.8;" x="360.8064" xlink:href="#m58fec5a778" y="190.4256"/>
      </g>
     </g>
     <g id="text_12">
      <!-- 0.4 -->
      <g transform="translate(28.335625 195.744506)scale(0.14 -0.14)">
       <use xlink:href="#DejaVuSans-30"/>
       <use x="63.623047" xlink:href="#DejaVuSans-2e"/>
       <use x="95.410156" xlink:href="#DejaVuSans-34"/>
      </g>
     </g>
    </g>
    <g id="ytick_4">
     <g id="line2d_202">
      <path clip-path="url(#pecd5248baf)" d="M 57.6 136.1664 
L 360.8064 136.1664 
" style="fill:none;stroke:#b0b0b0;stroke-linecap:square;stroke-width:0.8;"/>
     </g>
     <g id="line2d_203">
      <g>
       <use style="stroke:#000000;stroke-width:0.8;" x="57.6" xlink:href="#md8608e78e5" y="136.1664"/>
      </g>
     </g>
     <g id="line2d_204">
      <g>
       <use style="stroke:#000000;stroke-width:0.8;" x="360.8064" xlink:href="#m58fec5a778" y="136.1664"/>
      </g>
     </g>
     <g id="text_13">
      <!-- 0.6 -->
      <g transform="translate(28.335625 141.485306)scale(0.14 -0.14)">
       <use xlink:href="#DejaVuSans-30"/>
       <use x="63.623047" xlink:href="#DejaVuSans-2e"/>
       <use x="95.410156" xlink:href="#DejaVuSans-36"/>
      </g>
     </g>
    </g>
    <g id="ytick_5">
     <g id="line2d_205">
      <path clip-path="url(#pecd5248baf)" d="M 57.6 81.9072 
L 360.8064 81.9072 
" style="fill:none;stroke:#b0b0b0;stroke-linecap:square;stroke-width:0.8;"/>
     </g>
     <g id="line2d_206">
      <g>
       <use style="stroke:#000000;stroke-width:0.8;" x="57.6" xlink:href="#md8608e78e5" y="81.9072"/>
      </g>
     </g>
     <g id="line2d_207">
      <g>
       <use style="stroke:#000000;stroke-width:0.8;" x="360.8064" xlink:href="#m58fec5a778" y="81.9072"/>
      </g>
     </g>
     <g id="text_14">
      <!-- 0.8 -->
      <g transform="translate(28.335625 87.226106)scale(0.14 -0.14)">
       <defs>
        <path d="M 2034 2216 
Q 1584 2216 1326 1975 
Q 1069 1734 1069 1313 
Q 1069 891 1326 650 
Q 1584 409 2034 409 
Q 2484 409 2743 651 
Q 3003 894 3003 1313 
Q 3003 1734 2745 1975 
Q 2488 2216 2034 2216 
z
M 1403 2484 
Q 997 2584 770 2862 
Q 544 3141 544 3541 
Q 544 4100 942 4425 
Q 1341 4750 2034 4750 
Q 2731 4750 3128 4425 
Q 3525 4100 3525 3541 
Q 3525 3141 3298 2862 
Q 3072 2584 2669 2484 
Q 3125 2378 3379 2068 
Q 3634 1759 3634 1313 
Q 3634 634 3220 271 
Q 2806 -91 2034 -91 
Q 1263 -91 848 271 
Q 434 634 434 1313 
Q 434 1759 690 2068 
Q 947 2378 1403 2484 
z
M 1172 3481 
Q 1172 3119 1398 2916 
Q 1625 2713 2034 2713 
Q 2441 2713 2670 2916 
Q 2900 3119 2900 3481 
Q 2900 3844 2670 4047 
Q 2441 4250 2034 4250 
Q 1625 4250 1398 4047 
Q 1172 3844 1172 3481 
z
" id="DejaVuSans-38" transform="scale(0.015625)"/>
       </defs>
       <use xlink:href="#DejaVuSans-30"/>
       <use x="63.623047" xlink:href="#DejaVuSans-2e"/>
       <use x="95.410156" xlink:href="#DejaVuSans-38"/>
      </g>
     </g>
    </g>
    <g id="ytick_6">
     <g id="line2d_208">
      <path clip-path="url(#pecd5248baf)" d="M 57.6 27.648 
L 360.8064 27.648 
" style="fill:none;stroke:#b0b0b0;stroke-linecap:square;stroke-width:0.8;"/>
     </g>
     <g id="line2d_209">
      <g>
       <use style="stroke:#000000;stroke-width:0.8;" x="57.6" xlink:href="#md8608e78e5" y="27.648"/>
      </g>
     </g>
     <g id="line2d_210">
      <g>
       <use style="stroke:#000000;stroke-width:0.8;" x="360.8064" xlink:href="#m58fec5a778" y="27.648"/>
      </g>
     </g>
     <g id="text_15">
      <!-- 1.0 -->
      <g transform="translate(28.335625 32.966906)scale(0.14 -0.14)">
       <use xlink:href="#DejaVuSans-31"/>
       <use x="63.623047" xlink:href="#DejaVuSans-2e"/>
       <use x="95.410156" xlink:href="#DejaVuSans-30"/>
      </g>
     </g>
    </g>
    <g id="ytick_7">
     <g id="line2d_211">
      <path clip-path="url(#pecd5248baf)" d="M 57.6 285.3792 
L 360.8064 285.3792 
" style="fill:none;stroke:#b0b0b0;stroke-linecap:square;stroke-opacity:0.15;stroke-width:0.8;"/>
     </g>
     <g id="line2d_212">
      <defs>
       <path d="M 0 0 
L -2 0 
" id="m817f39e1a0" style="stroke:#000000;stroke-width:0.6;"/>
      </defs>
      <g>
       <use style="stroke:#000000;stroke-width:0.6;" x="57.6" xlink:href="#m817f39e1a0" y="285.3792"/>
      </g>
     </g>
     <g id="line2d_213">
      <defs>
       <path d="M 0 0 
L 2 0 
" id="m79f93bd306" style="stroke:#000000;stroke-width:0.6;"/>
      </defs>
      <g>
       <use style="stroke:#000000;stroke-width:0.6;" x="360.8064" xlink:href="#m79f93bd306" y="285.3792"/>
      </g>
     </g>
    </g>
    <g id="ytick_8">
     <g id="line2d_214">
      <path clip-path="url(#pecd5248baf)" d="M 57.6 271.8144 
L 360.8064 271.8144 
" style="fill:none;stroke:#b0b0b0;stroke-linecap:square;stroke-opacity:0.15;stroke-width:0.8;"/>
     </g>
     <g id="line2d_215">
      <g>
       <use style="stroke:#000000;stroke-width:0.6;" x="57.6" xlink:href="#m817f39e1a0" y="271.8144"/>
      </g>
     </g>
     <g id="line2d_216">
      <g>
       <use style="stroke:#000000;stroke-width:0.6;" x="360.8064" xlink:href="#m79f93bd306" y="271.8144"/>
      </g>
     </g>
    </g>
    <g id="ytick_9">
     <g id="line2d_217">
      <path clip-path="url(#pecd5248baf)" d="M 57.6 258.2496 
L 360.8064 258.2496 
" style="fill:none;stroke:#b0b0b0;stroke-linecap:square;stroke-opacity:0.15;stroke-width:0.8;"/>
     </g>
     <g id="line2d_218">
      <g>
       <use style="stroke:#000000;stroke-width:0.6;" x="57.6" xlink:href="#m817f39e1a0" y="258.2496"/>
      </g>
     </g>
     <g id="line2d_219">
      <g>
       <use style="stroke:#000000;stroke-width:0.6;" x="360.8064" xlink:href="#m79f93bd306" y="258.2496"/>
      </g>
     </g>
    </g>
    <g id="ytick_10">
     <g id="line2d_220">
      <path clip-path="url(#pecd5248baf)" d="M 57.6 231.12 
L 360.8064 231.12 
" style="fill:none;stroke:#b0b0b0;stroke-linecap:square;stroke-opacity:0.15;stroke-width:0.8;"/>
     </g>
     <g id="line2d_221">
      <g>
       <use style="stroke:#000000;stroke-width:0.6;" x="57.6" xlink:href="#m817f39e1a0" y="231.12"/>
      </g>
     </g>
     <g id="line2d_222">
      <g>
       <use style="stroke:#000000;stroke-width:0.6;" x="360.8064" xlink:href="#m79f93bd306" y="231.12"/>
      </g>
     </g>
    </g>
    <g id="ytick_11">
     <g id="line2d_223">
      <path clip-path="url(#pecd5248baf)" d="M 57.6 217.5552 
L 360.8064 217.5552 
" style="fill:none;stroke:#b0b0b0;stroke-linecap:square;stroke-opacity:0.15;stroke-width:0.8;"/>
     </g>
     <g id="line2d_224">
      <g>
       <use style="stroke:#000000;stroke-width:0.6;" x="57.6" xlink:href="#m817f39e1a0" y="217.5552"/>
      </g>
     </g>
     <g id="line2d_225">
      <g>
       <use style="stroke:#000000;stroke-width:0.6;" x="360.8064" xlink:href="#m79f93bd306" y="217.5552"/>
      </g>
     </g>
    </g>
    <g id="ytick_12">
     <g id="line2d_226">
      <path clip-path="url(#pecd5248baf)" d="M 57.6 203.9904 
L 360.8064 203.9904 
" style="fill:none;stroke:#b0b0b0;stroke-linecap:square;stroke-opacity:0.15;stroke-width:0.8;"/>
     </g>
     <g id="line2d_227">
      <g>
       <use style="stroke:#000000;stroke-width:0.6;" x="57.6" xlink:href="#m817f39e1a0" y="203.9904"/>
      </g>
     </g>
     <g id="line2d_228">
      <g>
       <use style="stroke:#000000;stroke-width:0.6;" x="360.8064" xlink:href="#m79f93bd306" y="203.9904"/>
      </g>
     </g>
    </g>
    <g id="ytick_13">
     <g id="line2d_229">
      <path clip-path="url(#pecd5248baf)" d="M 57.6 176.8608 
L 360.8064 176.8608 
" style="fill:none;stroke:#b0b0b0;stroke-linecap:square;stroke-opacity:0.15;stroke-width:0.8;"/>
     </g>
     <g id="line2d_230">
      <g>
       <use style="stroke:#000000;stroke-width:0.6;" x="57.6" xlink:href="#m817f39e1a0" y="176.8608"/>
      </g>
     </g>
     <g id="line2d_231">
      <g>
       <use style="stroke:#000000;stroke-width:0.6;" x="360.8064" xlink:href="#m79f93bd306" y="176.8608"/>
      </g>
     </g>
    </g>
    <g id="ytick_14">
     <g id="line2d_232">
      <path clip-path="url(#pecd5248baf)" d="M 57.6 163.296 
L 360.8064 163.296 
" style="fill:none;stroke:#b0b0b0;stroke-linecap:square;stroke-opacity:0.15;stroke-width:0.8;"/>
     </g>
     <g id="line2d_233">
      <g>
       <use style="stroke:#000000;stroke-width:0.6;" x="57.6" xlink:href="#m817f39e1a0" y="163.296"/>
      </g>
     </g>
     <g id="line2d_234">
      <g>
       <use style="stroke:#000000;stroke-width:0.6;" x="360.8064" xlink:href="#m79f93bd306" y="163.296"/>
      </g>
     </g>
    </g>
    <g id="ytick_15">
     <g id="line2d_235">
      <path clip-path="url(#pecd5248baf)" d="M 57.6 149.7312 
L 360.8064 149.7312 
" style="fill:none;stroke:#b0b0b0;stroke-linecap:square;stroke-opacity:0.15;stroke-width:0.8;"/>
     </g>
     <g id="line2d_236">
      <g>
       <use style="stroke:#000000;stroke-width:0.6;" x="57.6" xlink:href="#m817f39e1a0" y="149.7312"/>
      </g>
     </g>
     <g id="line2d_237">
      <g>
       <use style="stroke:#000000;stroke-width:0.6;" x="360.8064" xlink:href="#m79f93bd306" y="149.7312"/>
      </g>
     </g>
    </g>
    <g id="ytick_16">
     <g id="line2d_238">
      <path clip-path="url(#pecd5248baf)" d="M 57.6 122.6016 
L 360.8064 122.6016 
" style="fill:none;stroke:#b0b0b0;stroke-linecap:square;stroke-opacity:0.15;stroke-width:0.8;"/>
     </g>
     <g id="line2d_239">
      <g>
       <use style="stroke:#000000;stroke-width:0.6;" x="57.6" xlink:href="#m817f39e1a0" y="122.6016"/>
      </g>
     </g>
     <g id="line2d_240">
      <g>
       <use style="stroke:#000000;stroke-width:0.6;" x="360.8064" xlink:href="#m79f93bd306" y="122.6016"/>
      </g>
     </g>
    </g>
    <g id="ytick_17">
     <g id="line2d_241">
      <path clip-path="url(#pecd5248baf)" d="M 57.6 109.0368 
L 360.8064 109.0368 
" style="fill:none;stroke:#b0b0b0;stroke-linecap:square;stroke-opacity:0.15;stroke-width:0.8;"/>
     </g>
     <g id="line2d_242">
      <g>
       <use style="stroke:#000000;stroke-width:0.6;" x="57.6" xlink:href="#m817f39e1a0" y="109.0368"/>
      </g>
     </g>
     <g id="line2d_243">
      <g>
       <use style="stroke:#000000;stroke-width:0.6;" x="360.8064" xlink:href="#m79f93bd306" y="109.0368"/>
      </g>
     </g>
    </g>
    <g id="ytick_18">
     <g id="line2d_244">
      <path clip-path="url(#pecd5248baf)" d="M 57.6 95.472 
L 360.8064 95.472 
" style="fill:none;stroke:#b0b0b0;stroke-linecap:square;stroke-opacity:0.15;stroke-width:0.8;"/>
     </g>
     <g id="line2d_245">
      <g>
       <use style="stroke:#000000;stroke-width:0.6;" x="57.6" xlink:href="#m817f39e1a0" y="95.472"/>
      </g>
     </g>
     <g id="line2d_246">
      <g>
       <use style="stroke:#000000;stroke-width:0.6;" x="360.8064" xlink:href="#m79f93bd306" y="95.472"/>
      </g>
     </g>
    </g>
    <g id="ytick_19">
     <g id="line2d_247">
      <path clip-path="url(#pecd5248baf)" d="M 57.6 68.3424 
L 360.8064 68.3424 
" style="fill:none;stroke:#b0b0b0;stroke-linecap:square;stroke-opacity:0.15;stroke-width:0.8;"/>
     </g>
     <g id="line2d_248">
      <g>
       <use style="stroke:#000000;stroke-width:0.6;" x="57.6" xlink:href="#m817f39e1a0" y="68.3424"/>
      </g>
     </g>
     <g id="line2d_249">
      <g>
       <use style="stroke:#000000;stroke-width:0.6;" x="360.8064" xlink:href="#m79f93bd306" y="68.3424"/>
      </g>
     </g>
    </g>
    <g id="ytick_20">
     <g id="line2d_250">
      <path clip-path="url(#pecd5248baf)" d="M 57.6 54.7776 
L 360.8064 54.7776 
" style="fill:none;stroke:#b0b0b0;stroke-linecap:square;stroke-opacity:0.15;stroke-width:0.8;"/>
     </g>
     <g id="line2d_251">
      <g>
       <use style="stroke:#000000;stroke-width:0.6;" x="57.6" xlink:href="#m817f39e1a0" y="54.7776"/>
      </g>
     </g>
     <g id="line2d_252">
      <g>
       <use style="stroke:#000000;stroke-width:0.6;" x="360.8064" xlink:href="#m79f93bd306" y="54.7776"/>
      </g>
     </g>
    </g>
    <g id="ytick_21">
     <g id="line2d_253">
      <path clip-path="url(#pecd5248baf)" d="M 57.6 41.2128 
L 360.8064 41.2128 
" style="fill:none;stroke:#b0b0b0;stroke-linecap:square;stroke-opacity:0.15;stroke-width:0.8;"/>
     </g>
     <g id="line2d_254">
      <g>
       <use style="stroke:#000000;stroke-width:0.6;" x="57.6" xlink:href="#m817f39e1a0" y="41.2128"/>
      </g>
     </g>
     <g id="line2d_255">
      <g>
       <use style="stroke:#000000;stroke-width:0.6;" x="360.8064" xlink:href="#m79f93bd306" y="41.2128"/>
      </g>
     </g>
    </g>
    <g id="text_16">
     <!-- Fraction of function,target pairs -->
     <g transform="translate(21.216094 281.871)rotate(-90)scale(0.15 -0.15)">
      <defs>
       <path d="M 628 4666 
L 3309 4666 
L 3309 4134 
L 1259 4134 
L 1259 2759 
L 3109 2759 
L 3109 2228 
L 1259 2228 
L 1259 0 
L 628 0 
L 628 4666 
z
" id="DejaVuSans-46" transform="scale(0.015625)"/>
       <path d="M 2631 2963 
Q 2534 3019 2420 3045 
Q 2306 3072 2169 3072 
Q 1681 3072 1420 2755 
Q 1159 2438 1159 1844 
L 1159 0 
L 581 0 
L 581 3500 
L 1159 3500 
L 1159 2956 
Q 1341 3275 1631 3429 
Q 1922 3584 2338 3584 
Q 2397 3584 2469 3576 
Q 2541 3569 2628 3553 
L 2631 2963 
z
" id="DejaVuSans-72" transform="scale(0.015625)"/>
       <path d="M 3122 3366 
L 3122 2828 
Q 2878 2963 2633 3030 
Q 2388 3097 2138 3097 
Q 1578 3097 1268 2742 
Q 959 2388 959 1747 
Q 959 1106 1268 751 
Q 1578 397 2138 397 
Q 2388 397 2633 464 
Q 2878 531 3122 666 
L 3122 134 
Q 2881 22 2623 -34 
Q 2366 -91 2075 -91 
Q 1284 -91 818 406 
Q 353 903 353 1747 
Q 353 2603 823 3093 
Q 1294 3584 2113 3584 
Q 2378 3584 2631 3529 
Q 2884 3475 3122 3366 
z
" id="DejaVuSans-63" transform="scale(0.015625)"/>
       <path d="M 1172 4494 
L 1172 3500 
L 2356 3500 
L 2356 3053 
L 1172 3053 
L 1172 1153 
Q 1172 725 1289 603 
Q 1406 481 1766 481 
L 2356 481 
L 2356 0 
L 1766 0 
Q 1100 0 847 248 
Q 594 497 594 1153 
L 594 3053 
L 172 3053 
L 172 3500 
L 594 3500 
L 594 4494 
L 1172 4494 
z
" id="DejaVuSans-74" transform="scale(0.015625)"/>
       <path d="M 544 1381 
L 544 3500 
L 1119 3500 
L 1119 1403 
Q 1119 906 1312 657 
Q 1506 409 1894 409 
Q 2359 409 2629 706 
Q 2900 1003 2900 1516 
L 2900 3500 
L 3475 3500 
L 3475 0 
L 2900 0 
L 2900 538 
Q 2691 219 2414 64 
Q 2138 -91 1772 -91 
Q 1169 -91 856 284 
Q 544 659 544 1381 
z
M 1991 3584 
L 1991 3584 
z
" id="DejaVuSans-75" transform="scale(0.015625)"/>
       <path d="M 750 794 
L 1409 794 
L 1409 256 
L 897 -744 
L 494 -744 
L 750 256 
L 750 794 
z
" id="DejaVuSans-2c" transform="scale(0.015625)"/>
       <path d="M 1159 525 
L 1159 -1331 
L 581 -1331 
L 581 3500 
L 1159 3500 
L 1159 2969 
Q 1341 3281 1617 3432 
Q 1894 3584 2278 3584 
Q 2916 3584 3314 3078 
Q 3713 2572 3713 1747 
Q 3713 922 3314 415 
Q 2916 -91 2278 -91 
Q 1894 -91 1617 61 
Q 1341 213 1159 525 
z
M 3116 1747 
Q 3116 2381 2855 2742 
Q 2594 3103 2138 3103 
Q 1681 3103 1420 2742 
Q 1159 2381 1159 1747 
Q 1159 1113 1420 752 
Q 1681 391 2138 391 
Q 2594 391 2855 752 
Q 3116 1113 3116 1747 
z
" id="DejaVuSans-70" transform="scale(0.015625)"/>
      </defs>
      <use xlink:href="#DejaVuSans-46"/>
      <use x="50.269531" xlink:href="#DejaVuSans-72"/>
      <use x="91.382812" xlink:href="#DejaVuSans-61"/>
      <use x="152.662109" xlink:href="#DejaVuSans-63"/>
      <use x="207.642578" xlink:href="#DejaVuSans-74"/>
      <use x="246.851562" xlink:href="#DejaVuSans-69"/>
      <use x="274.634766" xlink:href="#DejaVuSans-6f"/>
      <use x="335.816406" xlink:href="#DejaVuSans-6e"/>
      <use x="399.195312" xlink:href="#DejaVuSans-20"/>
      <use x="430.982422" xlink:href="#DejaVuSans-6f"/>
      <use x="492.164062" xlink:href="#DejaVuSans-66"/>
      <use x="527.369141" xlink:href="#DejaVuSans-20"/>
      <use x="559.15625" xlink:href="#DejaVuSans-66"/>
      <use x="594.361328" xlink:href="#DejaVuSans-75"/>
      <use x="657.740234" xlink:href="#DejaVuSans-6e"/>
      <use x="721.119141" xlink:href="#DejaVuSans-63"/>
      <use x="776.099609" xlink:href="#DejaVuSans-74"/>
      <use x="815.308594" xlink:href="#DejaVuSans-69"/>
      <use x="843.091797" xlink:href="#DejaVuSans-6f"/>
      <use x="904.273438" xlink:href="#DejaVuSans-6e"/>
      <use x="967.652344" xlink:href="#DejaVuSans-2c"/>
      <use x="999.439453" xlink:href="#DejaVuSans-74"/>
      <use x="1038.648438" xlink:href="#DejaVuSans-61"/>
      <use x="1099.927734" xlink:href="#DejaVuSans-72"/>
      <use x="1139.291016" xlink:href="#DejaVuSans-67"/>
      <use x="1202.767578" xlink:href="#DejaVuSans-65"/>
      <use x="1264.291016" xlink:href="#DejaVuSans-74"/>
      <use x="1303.5" xlink:href="#DejaVuSans-20"/>
      <use x="1335.287109" xlink:href="#DejaVuSans-70"/>
      <use x="1398.763672" xlink:href="#DejaVuSans-61"/>
      <use x="1460.042969" xlink:href="#DejaVuSans-69"/>
      <use x="1487.826172" xlink:href="#DejaVuSans-72"/>
      <use x="1528.939453" xlink:href="#DejaVuSans-73"/>
     </g>
    </g>
   </g>
   <g id="line2d_256">
    <defs>
     <path d="M 0 1 
C 0.265203 1 0.51958 0.894634 0.707107 0.707107 
C 0.894634 0.51958 1 0.265203 1 0 
C 1 -0.265203 0.894634 -0.51958 0.707107 -0.707107 
C 0.51958 -0.894634 0.265203 -1 0 -1 
C -0.265203 -1 -0.51958 -0.894634 -0.707107 -0.707107 
C -0.894634 -0.51958 -1 -0.265203 -1 0 
C -1 0.265203 -0.894634 0.51958 -0.707107 0.707107 
C -0.51958 0.894634 -0.265203 1 0 1 
z
" id="md9bdede89a" style="stroke:#1874b4;"/>
    </defs>
    <g>
     <use style="fill:#1874b4;stroke:#1874b4;" x="226.035424" xlink:href="#md9bdede89a" y="27.648"/>
    </g>
   </g>
   <g id="line2d_257">
    <path d="M 74.312287 298.944 
L 74.312287 298.589365 
L 75.301357 298.589365 
L 75.301357 298.234729 
L 77.750097 298.234729 
L 77.750097 297.880094 
L 77.870555 297.880094 
L 77.870555 297.525459 
L 78.422716 297.525459 
L 78.422716 297.170824 
L 78.577544 297.170824 
L 78.577544 296.816188 
L 78.731109 296.816188 
L 78.731109 296.461553 
L 80.272097 296.461553 
L 80.272097 296.106918 
L 80.517088 296.106918 
L 80.517088 295.752282 
L 80.75893 295.752282 
L 80.861632 295.043012 
L 81.266923 295.043012 
L 81.266923 294.688376 
L 82.020141 294.688376 
L 82.020141 294.333741 
L 83.912036 294.333741 
L 83.912036 293.979106 
L 89.518722 293.979106 
L 89.518722 293.624471 
L 90.112597 293.624471 
L 90.112597 293.269835 
L 90.278888 293.269835 
L 90.278888 292.9152 
L 90.464225 292.9152 
L 90.464225 292.560565 
L 91.325362 292.560565 
L 91.364471 291.851294 
L 92.316676 291.851294 
L 92.390811 291.142024 
L 92.757162 291.142024 
L 92.757162 290.787388 
L 93.951948 290.787388 
L 93.951948 290.432753 
L 94.356151 290.432753 
L 94.356151 290.078118 
L 94.538547 290.078118 
L 94.538547 289.723482 
L 94.719192 289.723482 
L 94.719192 289.368847 
L 96.180866 289.368847 
L 96.180866 289.014212 
L 96.555163 289.014212 
L 96.555163 288.659576 
L 97.009181 288.659576 
L 97.009181 288.304941 
L 98.523812 288.304941 
L 98.523812 287.950306 
L 100.317958 287.950306 
L 100.378542 287.241035 
L 100.450988 287.241035 
L 100.511146 286.177129 
L 100.832719 286.177129 
L 100.891671 285.467859 
L 101.020718 285.467859 
L 101.05576 284.758588 
L 101.50546 284.758588 
L 101.539611 284.049318 
L 102.503949 284.049318 
L 102.503949 283.694682 
L 102.686744 283.694682 
L 102.686744 283.340047 
L 103.026082 283.340047 
L 103.026082 282.985412 
L 103.828446 282.985412 
L 103.828446 282.630776 
L 104.481621 282.630776 
L 104.481621 282.276141 
L 104.923814 282.276141 
L 104.923814 281.921506 
L 105.272099 281.921506 
L 105.272099 281.566871 
L 105.687178 281.566871 
L 105.687178 281.212235 
L 106.368052 281.212235 
L 106.42077 280.502965 
L 106.508306 280.502965 
L 106.508306 280.148329 
L 106.863007 280.148329 
L 106.863007 279.793694 
L 106.982608 279.793694 
L 106.999632 279.084424 
L 107.152159 279.084424 
L 107.227962 278.020518 
L 107.420302 278.020518 
L 107.470156 277.311247 
L 107.758366 277.311247 
L 107.758366 276.956612 
L 109.083449 276.956612 
L 109.12909 276.247341 
L 109.385649 276.247341 
L 109.385649 275.892706 
L 110.03388 275.892706 
L 110.03388 275.538071 
L 110.378266 275.538071 
L 110.378266 275.183435 
L 110.917878 275.183435 
L 110.917878 274.474165 
L 111.233009 274.474165 
L 111.233009 274.119529 
L 111.40882 274.119529 
L 111.429 273.410259 
L 111.689395 273.410259 
L 111.788595 272.346353 
L 111.952774 272.346353 
L 111.952774 271.991718 
L 112.532231 271.991718 
L 112.532231 271.637082 
L 113.008023 271.637082 
L 113.008023 271.282447 
L 113.296352 271.282447 
L 113.296352 270.927812 
L 113.453974 270.927812 
L 113.556326 270.218541 
L 113.604299 270.218541 
L 113.604299 269.863906 
L 113.854172 269.863906 
L 113.924958 269.154635 
L 114.018928 269.154635 
L 114.054046 268.445365 
L 114.332655 268.445365 
L 114.332655 268.090729 
L 114.561718 268.090729 
L 114.573098 267.381459 
L 114.944836 267.381459 
L 114.944836 267.026824 
L 115.532315 267.026824 
L 115.607842 266.317553 
L 115.661605 266.317553 
L 115.741962 265.608282 
L 116.107246 265.608282 
L 116.107246 265.253647 
L 116.486137 265.253647 
L 116.486137 264.899012 
L 116.665126 264.899012 
L 116.665126 264.544376 
L 116.842427 264.544376 
L 116.842427 264.189741 
L 116.998082 264.189741 
L 117.087875 263.125835 
L 117.21188 263.125835 
L 117.21188 262.7712 
L 117.501332 262.7712 
L 117.501332 262.416565 
L 118.038842 262.416565 
L 118.147348 261.352659 
L 118.222462 261.352659 
L 118.245874 260.643388 
L 118.492267 260.643388 
L 118.579816 259.934118 
L 118.771912 259.934118 
L 118.771912 259.579482 
L 118.885331 259.579482 
L 118.885331 259.224847 
L 119.047462 259.224847 
L 119.047462 258.870212 
L 119.906466 258.870212 
L 119.906466 258.515576 
L 120.182892 258.515576 
L 120.220849 257.806306 
L 120.31331 257.806306 
L 120.31331 257.451671 
L 120.789367 257.451671 
L 120.85873 256.7424 
L 120.996693 256.7424 
L 121.000735 256.033129 
L 121.416477 256.033129 
L 121.503257 255.323859 
L 121.530786 255.323859 
L 121.620953 254.614588 
L 121.881176 254.614588 
L 121.942791 253.905318 
L 122.042485 253.905318 
L 122.042485 253.550682 
L 122.19863 253.550682 
L 122.19863 253.196047 
L 122.338437 253.196047 
L 122.338437 252.841412 
L 122.592702 252.841412 
L 122.592702 252.132141 
L 122.714867 252.132141 
L 122.714867 251.777506 
L 122.84724 251.777506 
L 122.84724 251.422871 
L 123.263963 251.422871 
L 123.30692 250.7136 
L 123.682172 250.7136 
L 123.696187 250.004329 
L 124.190483 250.004329 
L 124.261991 249.295059 
L 124.333227 249.295059 
L 124.356913 248.585788 
L 124.572097 248.585788 
L 124.612171 247.876518 
L 124.698707 247.876518 
L 124.698707 247.521882 
L 124.867303 247.521882 
L 124.870594 246.812612 
L 125.425011 246.812612 
L 125.425011 246.457976 
L 125.59675 246.457976 
L 125.59675 246.103341 
L 125.972868 246.103341 
L 125.972868 245.748706 
L 126.26844 245.748706 
L 126.26844 245.394071 
L 126.538373 245.394071 
L 126.640479 244.330165 
L 126.68535 244.330165 
L 126.742034 243.620894 
L 126.937619 243.620894 
L 126.937619 243.266259 
L 127.279418 243.266259 
L 127.285207 242.556988 
L 127.495297 242.556988 
L 127.495297 242.202353 
L 127.807506 242.202353 
L 127.807506 241.847718 
L 128.71956 241.847718 
L 128.71956 241.493082 
L 128.882432 241.493082 
L 128.922267 240.783812 
L 129.417095 240.783812 
L 129.417095 240.429176 
L 130.376704 240.429176 
L 130.376704 240.074541 
L 130.552674 240.074541 
L 130.552674 239.719906 
L 131.30142 239.719906 
L 131.359772 238.656 
L 132.294008 238.656 
L 132.294008 238.301365 
L 132.977744 238.301365 
L 132.977744 237.946729 
L 134.431915 237.946729 
L 134.431915 237.592094 
L 134.987731 237.592094 
L 134.987731 237.237459 
L 137.326638 237.237459 
L 137.326638 236.882824 
L 171.041181 236.882824 
L 171.081282 235.464282 
L 171.321227 235.464282 
L 171.424001 234.400376 
L 171.46219 234.400376 
L 171.46219 234.045741 
L 171.585359 234.045741 
L 171.682879 232.6272 
L 171.720546 232.6272 
L 171.802173 230.854024 
L 171.874253 230.854024 
L 171.967062 229.435482 
L 171.995568 229.435482 
L 172.096871 227.662306 
L 172.14092 227.662306 
L 172.183802 226.243765 
L 172.252052 226.243765 
L 172.335632 223.406682 
L 172.414638 223.406682 
L 172.487817 221.633506 
L 172.550801 221.633506 
L 172.658766 218.087153 
L 172.663176 218.087153 
L 172.771015 215.604706 
L 172.780039 215.604706 
L 172.877728 213.476894 
L 172.894131 213.476894 
L 172.974912 210.994447 
L 173.026116 210.994447 
L 173.137212 208.157365 
L 173.142017 208.157365 
L 173.231559 206.384188 
L 173.267006 206.384188 
L 173.267006 206.029553 
L 173.422332 206.029553 
L 173.531616 204.611012 
L 173.545231 204.611012 
L 173.584538 202.4832 
L 173.693131 202.4832 
L 173.770071 201.064659 
L 173.804763 201.064659 
L 173.889026 200.000753 
L 173.940227 200.000753 
L 174.039803 198.936847 
L 174.105975 198.936847 
L 174.209458 197.518306 
L 174.240964 197.518306 
L 174.346081 195.390494 
L 174.359357 195.390494 
L 174.447312 194.326588 
L 174.527577 194.326588 
L 174.631108 193.262682 
L 174.650486 193.262682 
L 174.702452 192.553412 
L 174.766569 192.553412 
L 174.869028 191.134871 
L 174.893001 191.134871 
L 174.99363 190.070965 
L 175.006457 190.070965 
L 175.108987 189.007059 
L 175.11946 189.007059 
L 175.168559 188.297788 
L 175.248071 188.297788 
L 175.354692 187.233882 
L 175.436557 187.233882 
L 175.436557 186.879247 
L 175.604772 186.879247 
L 175.682908 184.751435 
L 175.827256 184.751435 
L 175.919096 183.332894 
L 175.958754 183.332894 
L 176.048439 181.559718 
L 176.108352 181.559718 
L 176.186364 180.495812 
L 176.241981 180.495812 
L 176.327768 178.722635 
L 176.398498 178.722635 
L 176.49733 178.013365 
L 176.509806 178.013365 
L 176.601958 176.240188 
L 176.651117 176.240188 
L 176.731093 175.176282 
L 176.769286 175.176282 
L 176.87594 173.757741 
L 176.920667 173.757741 
L 177.006715 172.693835 
L 177.104664 172.693835 
L 177.209846 170.920659 
L 177.220637 170.920659 
L 177.314444 169.856753 
L 177.34945 169.856753 
L 177.429336 168.438212 
L 177.460915 168.438212 
L 177.508484 167.374306 
L 177.616621 167.374306 
L 177.684861 166.3104 
L 177.733056 166.3104 
L 177.818039 164.891859 
L 177.890661 164.891859 
L 177.989987 162.764047 
L 178.019469 162.764047 
L 178.113655 161.345506 
L 178.137516 161.345506 
L 178.198678 159.572329 
L 178.280626 159.572329 
L 178.359344 158.508424 
L 178.393991 158.508424 
L 178.4829 157.089882 
L 178.567601 157.089882 
L 178.63607 154.962071 
L 178.709557 154.962071 
L 178.810275 153.543529 
L 178.920874 153.543529 
L 179.026944 151.415718 
L 179.078833 151.415718 
L 179.146572 149.997176 
L 179.191902 149.997176 
L 179.25814 148.224 
L 179.363238 148.224 
L 179.467933 145.741553 
L 179.538248 145.741553 
L 179.607403 144.677647 
L 179.674698 144.677647 
L 179.779633 142.904471 
L 179.796859 142.904471 
L 179.905352 140.776659 
L 179.939029 140.776659 
L 180.039701 139.358118 
L 180.05774 139.358118 
L 180.125016 138.648847 
L 180.173271 138.648847 
L 180.276507 136.875671 
L 180.34042 136.875671 
L 180.440687 135.811765 
L 180.483006 135.811765 
L 180.582178 134.038588 
L 180.622821 134.038588 
L 180.704862 132.620047 
L 180.740684 132.620047 
L 180.843715 130.846871 
L 180.900712 130.846871 
L 180.981551 129.073694 
L 181.032815 129.073694 
L 181.140709 127.655153 
L 181.184617 127.655153 
L 181.289843 126.236612 
L 181.337657 126.236612 
L 181.423809 124.1088 
L 181.516373 124.1088 
L 181.593809 123.399529 
L 181.630878 123.399529 
L 181.735405 121.980988 
L 181.802854 121.980988 
L 181.873082 120.562447 
L 181.928316 120.562447 
L 181.974695 119.853176 
L 182.165963 119.853176 
L 182.210667 119.143906 
L 182.295252 119.143906 
L 182.295252 118.789271 
L 182.50837 118.789271 
L 182.602642 118.08 
L 182.73429 118.08 
L 182.836653 117.370729 
L 182.987814 117.370729 
L 182.987814 117.016094 
L 187.295872 117.016094 
L 187.317187 116.306824 
L 187.409667 116.306824 
L 187.494976 115.242918 
L 187.527838 115.242918 
L 187.587057 114.533647 
L 187.689661 114.533647 
L 187.735226 113.824376 
L 187.806671 113.824376 
L 187.888818 113.115106 
L 187.934709 113.115106 
L 188.04483 112.405835 
L 188.052957 112.405835 
L 188.10975 111.696565 
L 188.172968 111.696565 
L 188.277862 110.632659 
L 188.3806 110.632659 
L 188.451658 109.568753 
L 188.518876 109.568753 
L 188.623529 108.504847 
L 188.636404 108.504847 
L 188.636404 108.150212 
L 188.768743 108.150212 
L 188.795935 107.440941 
L 188.882535 107.440941 
L 188.986279 106.377035 
L 189.044996 106.377035 
L 189.044996 106.0224 
L 189.210048 106.0224 
L 189.31404 104.958494 
L 189.334043 104.958494 
L 189.334043 104.603859 
L 189.499557 104.603859 
L 189.514175 103.894588 
L 189.627033 103.894588 
L 189.683366 102.830682 
L 189.774132 102.830682 
L 189.851153 101.766776 
L 189.980203 101.766776 
L 190.014054 100.702871 
L 190.167172 100.702871 
L 190.209672 99.638965 
L 190.287373 99.638965 
L 190.302611 98.929694 
L 190.528103 98.929694 
L 190.610098 97.511153 
L 190.700289 97.511153 
L 190.738427 96.801882 
L 190.855044 96.801882 
L 190.964277 95.737976 
L 191.020758 95.737976 
L 191.125245 94.674071 
L 191.288702 94.674071 
L 191.327687 93.9648 
L 191.420252 93.9648 
L 191.482346 93.255529 
L 191.542049 93.255529 
L 191.61672 92.191624 
L 191.702034 92.191624 
L 191.794468 90.773082 
L 191.875713 90.773082 
L 191.961908 90.063812 
L 192.069447 90.063812 
L 192.069447 89.709176 
L 192.209893 89.709176 
L 192.240606 88.999906 
L 192.385149 88.999906 
L 192.446318 87.581365 
L 192.526245 87.581365 
L 192.606912 86.872094 
L 192.642723 86.872094 
L 192.751175 85.808188 
L 192.784666 85.808188 
L 192.886287 85.098918 
L 192.907518 85.098918 
L 193.006193 84.389647 
L 193.037916 84.389647 
L 193.097352 83.680376 
L 193.21549 83.680376 
L 193.320266 82.616471 
L 193.357681 82.616471 
L 193.382612 81.9072 
L 193.497948 81.9072 
L 193.583606 80.843294 
L 193.675496 80.843294 
L 193.69806 80.134024 
L 193.795214 80.134024 
L 193.795214 79.779388 
L 193.921465 79.779388 
L 193.999631 78.715482 
L 194.188475 78.715482 
L 194.188475 78.360847 
L 194.340982 78.360847 
L 194.393015 77.651576 
L 194.459402 77.651576 
L 194.459402 77.296941 
L 199.329148 77.296941 
L 199.329148 76.942306 
L 199.523957 76.942306 
L 199.560121 76.233035 
L 199.647137 76.233035 
L 199.695396 75.523765 
L 200.016455 75.523765 
L 200.119297 74.459859 
L 200.185405 74.459859 
L 200.185405 74.105224 
L 200.329506 74.105224 
L 200.428935 73.041318 
L 200.523478 73.041318 
L 200.618722 71.977412 
L 200.702507 71.977412 
L 200.702507 71.622776 
L 200.860624 71.622776 
L 200.891013 70.558871 
L 200.984476 70.558871 
L 201.02311 69.8496 
L 201.09688 69.8496 
L 201.200028 68.785694 
L 201.213166 68.785694 
L 201.314662 67.721788 
L 201.416175 67.721788 
L 201.520892 66.303247 
L 201.577801 66.303247 
L 201.64821 65.239341 
L 201.721898 65.239341 
L 201.820638 63.8208 
L 201.937089 63.8208 
L 201.937964 63.111529 
L 202.049071 63.111529 
L 202.140485 62.047624 
L 202.242764 62.047624 
L 202.326065 60.983718 
L 202.400833 60.983718 
L 202.493957 59.565176 
L 202.524048 59.565176 
L 202.621103 58.146635 
L 202.691347 58.146635 
L 202.73686 57.437365 
L 202.821033 57.437365 
L 202.833191 56.373459 
L 202.964393 56.373459 
L 203.011886 55.309553 
L 203.129019 55.309553 
L 203.180811 54.245647 
L 203.244968 54.245647 
L 203.287228 53.181741 
L 203.379167 53.181741 
L 203.380991 52.472471 
L 203.498473 52.472471 
L 203.609321 50.699294 
L 203.628432 50.699294 
L 203.643427 49.990024 
L 203.760876 49.990024 
L 203.868514 48.216847 
L 203.877448 48.216847 
L 203.981871 47.152941 
L 204.048151 47.152941 
L 204.149348 46.089035 
L 204.170494 46.089035 
L 204.28065 45.025129 
L 204.456699 45.025129 
L 204.523094 43.961224 
L 204.659445 43.961224 
L 204.75944 43.251953 
L 204.851082 43.251953 
L 204.851082 42.897318 
L 205.066884 42.897318 
L 205.066884 42.542682 
L 205.264293 42.542682 
L 205.355886 41.833412 
L 205.514736 41.833412 
L 205.514736 41.478776 
L 205.674767 41.478776 
L 205.767111 40.769506 
L 205.866464 40.769506 
L 205.866464 40.414871 
L 221.148357 40.414871 
L 221.148357 40.060235 
L 221.326532 40.060235 
L 221.326532 39.7056 
L 221.440188 39.7056 
L 221.440188 39.350965 
L 221.595018 39.350965 
L 221.595018 38.996329 
L 221.729681 38.996329 
L 221.761328 38.287059 
L 222.012548 38.287059 
L 222.012548 37.932424 
L 222.342865 37.932424 
L 222.342865 37.577788 
L 222.54358 37.577788 
L 222.54358 37.223153 
L 222.699043 37.223153 
L 222.774732 36.513882 
L 222.904342 36.513882 
L 222.904342 36.159247 
L 223.032246 36.159247 
L 223.032246 35.804612 
L 223.174665 35.804612 
L 223.282553 35.095341 
L 223.443094 35.095341 
L 223.443094 34.740706 
L 223.596707 34.740706 
L 223.596707 34.386071 
L 223.761546 34.386071 
L 223.84405 33.6768 
L 223.915721 33.6768 
L 223.978171 32.967529 
L 224.06061 32.967529 
L 224.06061 32.612894 
L 224.244429 32.612894 
L 224.244429 32.258259 
L 224.423142 32.258259 
L 224.485286 31.548988 
L 224.696994 31.548988 
L 224.696994 31.194353 
L 224.971098 31.194353 
L 225.018714 30.485082 
L 225.126316 30.485082 
L 225.208792 29.775812 
L 225.409115 29.775812 
L 225.409115 29.421176 
L 225.574344 29.421176 
L 225.574344 29.066541 
L 225.700584 29.066541 
L 225.80412 28.357271 
L 225.825091 28.357271 
L 225.825091 28.002635 
L 226.035424 28.002635 
L 226.035424 27.648 
L 360.8064 27.648 
L 360.8064 27.648 
" style="fill:none;stroke:#1874b4;stroke-linecap:square;stroke-width:1.8;"/>
   </g>
   <g id="line2d_258">
    <defs>
     <path d="M 0 6.93 
C 1.837857 6.93 3.600689 6.199811 4.90025 4.90025 
C 6.199811 3.600689 6.93 1.837857 6.93 0 
C 6.93 -1.837857 6.199811 -3.600689 4.90025 -4.90025 
C 3.600689 -6.199811 1.837857 -6.93 0 -6.93 
C -1.837857 -6.93 -3.600689 -6.199811 -4.90025 -4.90025 
C -6.199811 -3.600689 -6.93 -1.837857 -6.93 0 
C -6.93 1.837857 -6.199811 3.600689 -4.90025 4.90025 
C -3.600689 6.199811 -1.837857 6.93 0 6.93 
z
" id="m29e62d5366" style="stroke:#1874b4;"/>
    </defs>
    <g>
     <use style="fill-opacity:0;stroke:#1874b4;" x="137.326638" xlink:href="#m29e62d5366" y="236.882824"/>
     <use style="fill-opacity:0;stroke:#1874b4;" x="188.518876" xlink:href="#m29e62d5366" y="109.214118"/>
     <use style="fill-opacity:0;stroke:#1874b4;" x="226.035424" xlink:href="#m29e62d5366" y="27.648"/>
     <use style="fill-opacity:0;stroke:#1874b4;" x="226.035424" xlink:href="#m29e62d5366" y="27.648"/>
     <use style="fill-opacity:0;stroke:#1874b4;" x="360.8064" xlink:href="#m29e62d5366" y="27.648"/>
    </g>
   </g>
   <g id="line2d_259">
    <path style="fill:none;stroke:#1874b4;stroke-linecap:square;stroke-width:1.8;"/>
    <g/>
   </g>
   <g id="line2d_260">
    <path d="M 360.8064 27.648 
L 380.514816 293.51808 
" style="fill:none;stroke:#1874b4;stroke-linecap:square;stroke-width:1.8;"/>
    <g>
     <use style="fill-opacity:0;stroke:#1874b4;" x="360.8064" xlink:href="#m29e62d5366" y="27.648"/>
     <use style="fill-opacity:0;stroke:#1874b4;" x="380.514816" xlink:href="#m29e62d5366" y="293.51808"/>
    </g>
   </g>
   <g id="line2d_261">
    <path d="M 360.8064 298.944 
L 360.8064 27.648 
" style="fill:none;stroke:#000000;stroke-linecap:square;stroke-width:1.5;"/>
   </g>
   <g id="patch_3">
    <path d="M 57.6 298.944 
L 360.8064 298.944 
" style="fill:none;stroke:#000000;stroke-linecap:square;stroke-linejoin:miter;stroke-width:0.8;"/>
   </g>
   <g id="patch_4">
    <path d="M 57.6 27.648 
L 360.8064 27.648 
" style="fill:none;stroke:#000000;stroke-linecap:square;stroke-linejoin:miter;stroke-width:0.8;"/>
   </g>
   <g id="text_17">
    <!-- cma-IH -->
    <g transform="translate(386.578944 297.381205)scale(0.14 -0.14)">
     <defs>
      <path d="M 628 4666 
L 1259 4666 
L 1259 0 
L 628 0 
L 628 4666 
z
" id="DejaVuSans-49" transform="scale(0.015625)"/>
      <path d="M 628 4666 
L 1259 4666 
L 1259 2753 
L 3553 2753 
L 3553 4666 
L 4184 4666 
L 4184 0 
L 3553 0 
L 3553 2222 
L 1259 2222 
L 1259 0 
L 628 0 
L 628 4666 
z
" id="DejaVuSans-48" transform="scale(0.015625)"/>
     </defs>
     <use xlink:href="#DejaVuSans-63"/>
     <use x="54.980469" xlink:href="#DejaVuSans-6d"/>
     <use x="152.392578" xlink:href="#DejaVuSans-61"/>
     <use x="213.671875" xlink:href="#DejaVuSans-2d"/>
     <use x="249.755859" xlink:href="#DejaVuSans-49"/>
     <use x="279.248047" xlink:href="#DejaVuSans-48"/>
    </g>
   </g>
   <g id="text_18">
    <!-- bbob-mixint f1, 160-D -->
    <g transform="translate(60.632064 37.199554)scale(0.09 -0.09)">
     <defs>
      <path d="M 3116 1747 
Q 3116 2381 2855 2742 
Q 2594 3103 2138 3103 
Q 1681 3103 1420 2742 
Q 1159 2381 1159 1747 
Q 1159 1113 1420 752 
Q 1681 391 2138 391 
Q 2594 391 2855 752 
Q 3116 1113 3116 1747 
z
M 1159 2969 
Q 1341 3281 1617 3432 
Q 1894 3584 2278 3584 
Q 2916 3584 3314 3078 
Q 3713 2572 3713 1747 
Q 3713 922 3314 415 
Q 2916 -91 2278 -91 
Q 1894 -91 1617 61 
Q 1341 213 1159 525 
L 1159 0 
L 581 0 
L 581 4863 
L 1159 4863 
L 1159 2969 
z
" id="DejaVuSans-62" transform="scale(0.015625)"/>
      <path d="M 3513 3500 
L 2247 1797 
L 3578 0 
L 2900 0 
L 1881 1375 
L 863 0 
L 184 0 
L 1544 1831 
L 300 3500 
L 978 3500 
L 1906 2253 
L 2834 3500 
L 3513 3500 
z
" id="DejaVuSans-78" transform="scale(0.015625)"/>
      <path d="M 1259 4147 
L 1259 519 
L 2022 519 
Q 2988 519 3436 956 
Q 3884 1394 3884 2338 
Q 3884 3275 3436 3711 
Q 2988 4147 2022 4147 
L 1259 4147 
z
M 628 4666 
L 1925 4666 
Q 3281 4666 3915 4102 
Q 4550 3538 4550 2338 
Q 4550 1131 3912 565 
Q 3275 0 1925 0 
L 628 0 
L 628 4666 
z
" id="DejaVuSans-44" transform="scale(0.015625)"/>
     </defs>
     <use xlink:href="#DejaVuSans-62"/>
     <use x="63.476562" xlink:href="#DejaVuSans-62"/>
     <use x="126.953125" xlink:href="#DejaVuSans-6f"/>
     <use x="188.134766" xlink:href="#DejaVuSans-62"/>
     <use x="251.611328" xlink:href="#DejaVuSans-2d"/>
     <use x="287.695312" xlink:href="#DejaVuSans-6d"/>
     <use x="385.107422" xlink:href="#DejaVuSans-69"/>
     <use x="412.890625" xlink:href="#DejaVuSans-78"/>
     <use x="472.070312" xlink:href="#DejaVuSans-69"/>
     <use x="499.853516" xlink:href="#DejaVuSans-6e"/>
     <use x="563.232422" xlink:href="#DejaVuSans-74"/>
     <use x="602.441406" xlink:href="#DejaVuSans-20"/>
     <use x="634.228516" xlink:href="#DejaVuSans-66"/>
     <use x="669.433594" xlink:href="#DejaVuSans-31"/>
     <use x="733.056641" xlink:href="#DejaVuSans-2c"/>
     <use x="764.84375" xlink:href="#DejaVuSans-20"/>
     <use x="796.630859" xlink:href="#DejaVuSans-31"/>
     <use x="860.253906" xlink:href="#DejaVuSans-36"/>
     <use x="923.876953" xlink:href="#DejaVuSans-30"/>
     <use x="987.5" xlink:href="#DejaVuSans-2d"/>
     <use x="1023.583984" xlink:href="#DejaVuSans-44"/>
    </g>
    <!-- 51 targets: 100..1e-08 -->
    <g transform="translate(60.632064 47.277585)scale(0.09 -0.09)">
     <defs>
      <path d="M 750 794 
L 1409 794 
L 1409 0 
L 750 0 
L 750 794 
z
M 750 3309 
L 1409 3309 
L 1409 2516 
L 750 2516 
L 750 3309 
z
" id="DejaVuSans-3a" transform="scale(0.015625)"/>
     </defs>
     <use xlink:href="#DejaVuSans-35"/>
     <use x="63.623047" xlink:href="#DejaVuSans-31"/>
     <use x="127.246094" xlink:href="#DejaVuSans-20"/>
     <use x="159.033203" xlink:href="#DejaVuSans-74"/>
     <use x="198.242188" xlink:href="#DejaVuSans-61"/>
     <use x="259.521484" xlink:href="#DejaVuSans-72"/>
     <use x="298.884766" xlink:href="#DejaVuSans-67"/>
     <use x="362.361328" xlink:href="#DejaVuSans-65"/>
     <use x="423.884766" xlink:href="#DejaVuSans-74"/>
     <use x="463.09375" xlink:href="#DejaVuSans-73"/>
     <use x="515.193359" xlink:href="#DejaVuSans-3a"/>
     <use x="548.884766" xlink:href="#DejaVuSans-20"/>
     <use x="580.671875" xlink:href="#DejaVuSans-31"/>
     <use x="644.294922" xlink:href="#DejaVuSans-30"/>
     <use x="707.917969" xlink:href="#DejaVuSans-30"/>
     <use x="771.541016" xlink:href="#DejaVuSans-2e"/>
     <use x="803.328125" xlink:href="#DejaVuSans-2e"/>
     <use x="835.115234" xlink:href="#DejaVuSans-31"/>
     <use x="898.738281" xlink:href="#DejaVuSans-65"/>
     <use x="960.261719" xlink:href="#DejaVuSans-2d"/>
     <use x="996.345703" xlink:href="#DejaVuSans-30"/>
     <use x="1059.96875" xlink:href="#DejaVuSans-38"/>
    </g>
    <!-- 15 instances -->
    <g transform="translate(60.632064 57.355616)scale(0.09 -0.09)">
     <use xlink:href="#DejaVuSans-31"/>
     <use x="63.623047" xlink:href="#DejaVuSans-35"/>
     <use x="127.246094" xlink:href="#DejaVuSans-20"/>
     <use x="159.033203" xlink:href="#DejaVuSans-69"/>
     <use x="186.816406" xlink:href="#DejaVuSans-6e"/>
     <use x="250.195312" xlink:href="#DejaVuSans-73"/>
     <use x="302.294922" xlink:href="#DejaVuSans-74"/>
     <use x="341.503906" xlink:href="#DejaVuSans-61"/>
     <use x="402.783203" xlink:href="#DejaVuSans-6e"/>
     <use x="466.162109" xlink:href="#DejaVuSans-63"/>
     <use x="521.142578" xlink:href="#DejaVuSans-65"/>
     <use x="582.666016" xlink:href="#DejaVuSans-73"/>
    </g>
   </g>
   <g id="text_19">
    <!-- v2.6.3 -->
    <g style="fill:#808080;" transform="translate(193.52195 294.151352)scale(0.1 -0.1)">
     <use xlink:href="#DejaVuSans-76"/>
     <use x="59.179688" xlink:href="#DejaVuSans-32"/>
     <use x="122.802734" xlink:href="#DejaVuSans-2e"/>
     <use x="154.589844" xlink:href="#DejaVuSans-36"/>
     <use x="218.212891" xlink:href="#DejaVuSans-2e"/>
     <use x="250" xlink:href="#DejaVuSans-33"/>
    </g>
   </g>
   <g id="text_20">
    <!-- 1 Sphere -->
    <g transform="translate(164.436012 21.648)scale(0.2 -0.2)">
     <defs>
      <path d="M 3425 4513 
L 3425 3897 
Q 3066 4069 2747 4153 
Q 2428 4238 2131 4238 
Q 1616 4238 1336 4038 
Q 1056 3838 1056 3469 
Q 1056 3159 1242 3001 
Q 1428 2844 1947 2747 
L 2328 2669 
Q 3034 2534 3370 2195 
Q 3706 1856 3706 1288 
Q 3706 609 3251 259 
Q 2797 -91 1919 -91 
Q 1588 -91 1214 -16 
Q 841 59 441 206 
L 441 856 
Q 825 641 1194 531 
Q 1563 422 1919 422 
Q 2459 422 2753 634 
Q 3047 847 3047 1241 
Q 3047 1584 2836 1778 
Q 2625 1972 2144 2069 
L 1759 2144 
Q 1053 2284 737 2584 
Q 422 2884 422 3419 
Q 422 4038 858 4394 
Q 1294 4750 2059 4750 
Q 2388 4750 2728 4690 
Q 3069 4631 3425 4513 
z
" id="DejaVuSans-53" transform="scale(0.015625)"/>
      <path d="M 3513 2113 
L 3513 0 
L 2938 0 
L 2938 2094 
Q 2938 2591 2744 2837 
Q 2550 3084 2163 3084 
Q 1697 3084 1428 2787 
Q 1159 2491 1159 1978 
L 1159 0 
L 581 0 
L 581 4863 
L 1159 4863 
L 1159 2956 
Q 1366 3272 1645 3428 
Q 1925 3584 2291 3584 
Q 2894 3584 3203 3211 
Q 3513 2838 3513 2113 
z
" id="DejaVuSans-68" transform="scale(0.015625)"/>
     </defs>
     <use xlink:href="#DejaVuSans-31"/>
     <use x="63.623047" xlink:href="#DejaVuSans-20"/>
     <use x="95.410156" xlink:href="#DejaVuSans-53"/>
     <use x="158.886719" xlink:href="#DejaVuSans-70"/>
     <use x="222.363281" xlink:href="#DejaVuSans-68"/>
     <use x="285.742188" xlink:href="#DejaVuSans-65"/>
     <use x="347.265625" xlink:href="#DejaVuSans-72"/>
     <use x="386.128906" xlink:href="#DejaVuSans-65"/>
    </g>
   </g>
  </g>
 </g>
 <defs>
  <clipPath id="pecd5248baf">
   <rect height="271.296" width="303.2064" x="57.6" y="27.648"/>
  </clipPath>
 </defs>
</svg>
