<?xml version="1.0" encoding="utf-8" standalone="no"?>
<!DOCTYPE svg PUBLIC "-//W3C//DTD SVG 1.1//EN"
  "http://www.w3.org/Graphics/SVG/1.1/DTD/svg11.dtd">
<svg height="345.6pt" version="1.1" viewBox="0 0 460.8 345.6" width="460.8pt" xmlns="http://www.w3.org/2000/svg" xmlns:xlink="http://www.w3.org/1999/xlink">
 <metadata>
  <rdf:RDF xmlns:cc="http://creativecommons.org/ns#" xmlns:dc="http://purl.org/dc/elements/1.1/" xmlns:rdf="http://www.w3.org/1999/02/22-rdf-syntax-ns#">
   <cc:Work>
    <dc:type rdf:resource="http://purl.org/dc/dcmitype/StillImage"/>
    <dc:date>2023-04-17T18:16:38.177388</dc:date>
    <dc:format>image/svg+xml</dc:format>
    <dc:creator>
     <cc:Agent>
      <dc:title>Matplotlib v3.4.1, https://matplotlib.org/</dc:title>
     </cc:Agent>
    </dc:creator>
   </cc:Work>
  </rdf:RDF>
 </metadata>
 <defs>
  <style type="text/css">*{stroke-linecap:butt;stroke-linejoin:round;}</style>
 </defs>
 <g id="figure_1">
  <g id="patch_1">
   <path d="M 0 345.6 
L 460.8 345.6 
L 460.8 0 
L 0 0 
z
" style="fill:#ffffff;"/>
  </g>
  <g id="axes_1">
   <g id="patch_2">
    <path d="M 34.16 291.28 
L 453.192 291.28 
L 453.192 3 
L 34.16 3 
z
" style="fill:#ffffff;"/>
   </g>
   <g id="matplotlib.axis_1">
    <g id="xtick_1">
     <g id="line2d_1">
      <path clip-path="url(#p270ab89ffc)" d="M 142.192443 291.28 
L 142.192443 3 
" style="fill:none;stroke:#b0b0b0;stroke-linecap:square;stroke-width:0.8;"/>
     </g>
     <g id="line2d_2">
      <defs>
       <path d="M 0 0 
L 0 3.5 
" id="m27a6ca8733" style="stroke:#000000;stroke-width:0.8;"/>
      </defs>
      <g>
       <use style="stroke:#000000;stroke-width:0.8;" x="142.192443" xlink:href="#m27a6ca8733" y="291.28"/>
      </g>
     </g>
     <g id="text_1">
      <!-- -1 -->
      <g transform="translate(132.222131 313.476875)scale(0.2 -0.2)">
       <defs>
        <path d="M 313 2009 
L 1997 2009 
L 1997 1497 
L 313 1497 
L 313 2009 
z
" id="DejaVuSans-2d" transform="scale(0.015625)"/>
        <path d="M 794 531 
L 1825 531 
L 1825 4091 
L 703 3866 
L 703 4441 
L 1819 4666 
L 2450 4666 
L 2450 531 
L 3481 531 
L 3481 0 
L 794 0 
L 794 531 
z
" id="DejaVuSans-31" transform="scale(0.015625)"/>
       </defs>
       <use xlink:href="#DejaVuSans-2d"/>
       <use x="36.083984" xlink:href="#DejaVuSans-31"/>
      </g>
     </g>
    </g>
    <g id="xtick_2">
     <g id="line2d_3">
      <path clip-path="url(#p270ab89ffc)" d="M 345.159557 291.28 
L 345.159557 3 
" style="fill:none;stroke:#b0b0b0;stroke-linecap:square;stroke-width:0.8;"/>
     </g>
     <g id="line2d_4">
      <g>
       <use style="stroke:#000000;stroke-width:0.8;" x="345.159557" xlink:href="#m27a6ca8733" y="291.28"/>
      </g>
     </g>
     <g id="text_2">
      <!-- 1 -->
      <g transform="translate(338.797057 313.476875)scale(0.2 -0.2)">
       <use xlink:href="#DejaVuSans-31"/>
      </g>
     </g>
    </g>
    <g id="xtick_3">
     <g id="line2d_5">
      <defs>
       <path d="M 0 0 
L 0 2 
" id="m7da8aa1d41" style="stroke:#000000;stroke-width:0.6;"/>
      </defs>
      <g>
       <use style="stroke:#000000;stroke-width:0.6;" x="36.065254" xlink:href="#m7da8aa1d41" y="291.28"/>
      </g>
     </g>
    </g>
    <g id="xtick_4">
     <g id="line2d_6">
      <g>
       <use style="stroke:#000000;stroke-width:0.6;" x="71.258481" xlink:href="#m7da8aa1d41" y="291.28"/>
      </g>
     </g>
    </g>
    <g id="xtick_5">
     <g id="line2d_7">
      <g>
       <use style="stroke:#000000;stroke-width:0.6;" x="89.128848" xlink:href="#m7da8aa1d41" y="291.28"/>
      </g>
     </g>
    </g>
    <g id="xtick_6">
     <g id="line2d_8">
      <g>
       <use style="stroke:#000000;stroke-width:0.6;" x="101.808076" xlink:href="#m7da8aa1d41" y="291.28"/>
      </g>
     </g>
    </g>
    <g id="xtick_7">
     <g id="line2d_9">
      <g>
       <use style="stroke:#000000;stroke-width:0.6;" x="111.642849" xlink:href="#m7da8aa1d41" y="291.28"/>
      </g>
     </g>
    </g>
    <g id="xtick_8">
     <g id="line2d_10">
      <g>
       <use style="stroke:#000000;stroke-width:0.6;" x="119.678443" xlink:href="#m7da8aa1d41" y="291.28"/>
      </g>
     </g>
    </g>
    <g id="xtick_9">
     <g id="line2d_11">
      <g>
       <use style="stroke:#000000;stroke-width:0.6;" x="126.472441" xlink:href="#m7da8aa1d41" y="291.28"/>
      </g>
     </g>
    </g>
    <g id="xtick_10">
     <g id="line2d_12">
      <g>
       <use style="stroke:#000000;stroke-width:0.6;" x="132.35767" xlink:href="#m7da8aa1d41" y="291.28"/>
      </g>
     </g>
    </g>
    <g id="xtick_11">
     <g id="line2d_13">
      <g>
       <use style="stroke:#000000;stroke-width:0.6;" x="137.54881" xlink:href="#m7da8aa1d41" y="291.28"/>
      </g>
     </g>
    </g>
    <g id="xtick_12">
     <g id="line2d_14">
      <g>
       <use style="stroke:#000000;stroke-width:0.6;" x="172.742038" xlink:href="#m7da8aa1d41" y="291.28"/>
      </g>
     </g>
    </g>
    <g id="xtick_13">
     <g id="line2d_15">
      <g>
       <use style="stroke:#000000;stroke-width:0.6;" x="190.612405" xlink:href="#m7da8aa1d41" y="291.28"/>
      </g>
     </g>
    </g>
    <g id="xtick_14">
     <g id="line2d_16">
      <g>
       <use style="stroke:#000000;stroke-width:0.6;" x="203.291633" xlink:href="#m7da8aa1d41" y="291.28"/>
      </g>
     </g>
    </g>
    <g id="xtick_15">
     <g id="line2d_17">
      <g>
       <use style="stroke:#000000;stroke-width:0.6;" x="213.126405" xlink:href="#m7da8aa1d41" y="291.28"/>
      </g>
     </g>
    </g>
    <g id="xtick_16">
     <g id="line2d_18">
      <g>
       <use style="stroke:#000000;stroke-width:0.6;" x="221.162" xlink:href="#m7da8aa1d41" y="291.28"/>
      </g>
     </g>
    </g>
    <g id="xtick_17">
     <g id="line2d_19">
      <g>
       <use style="stroke:#000000;stroke-width:0.6;" x="227.955998" xlink:href="#m7da8aa1d41" y="291.28"/>
      </g>
     </g>
    </g>
    <g id="xtick_18">
     <g id="line2d_20">
      <g>
       <use style="stroke:#000000;stroke-width:0.6;" x="233.841227" xlink:href="#m7da8aa1d41" y="291.28"/>
      </g>
     </g>
    </g>
    <g id="xtick_19">
     <g id="line2d_21">
      <g>
       <use style="stroke:#000000;stroke-width:0.6;" x="239.032367" xlink:href="#m7da8aa1d41" y="291.28"/>
      </g>
     </g>
    </g>
    <g id="xtick_20">
     <g id="line2d_22">
      <g>
       <use style="stroke:#000000;stroke-width:0.6;" x="274.225595" xlink:href="#m7da8aa1d41" y="291.28"/>
      </g>
     </g>
    </g>
    <g id="xtick_21">
     <g id="line2d_23">
      <g>
       <use style="stroke:#000000;stroke-width:0.6;" x="292.095962" xlink:href="#m7da8aa1d41" y="291.28"/>
      </g>
     </g>
    </g>
    <g id="xtick_22">
     <g id="line2d_24">
      <g>
       <use style="stroke:#000000;stroke-width:0.6;" x="304.775189" xlink:href="#m7da8aa1d41" y="291.28"/>
      </g>
     </g>
    </g>
    <g id="xtick_23">
     <g id="line2d_25">
      <g>
       <use style="stroke:#000000;stroke-width:0.6;" x="314.609962" xlink:href="#m7da8aa1d41" y="291.28"/>
      </g>
     </g>
    </g>
    <g id="xtick_24">
     <g id="line2d_26">
      <g>
       <use style="stroke:#000000;stroke-width:0.6;" x="322.645557" xlink:href="#m7da8aa1d41" y="291.28"/>
      </g>
     </g>
    </g>
    <g id="xtick_25">
     <g id="line2d_27">
      <g>
       <use style="stroke:#000000;stroke-width:0.6;" x="329.439555" xlink:href="#m7da8aa1d41" y="291.28"/>
      </g>
     </g>
    </g>
    <g id="xtick_26">
     <g id="line2d_28">
      <g>
       <use style="stroke:#000000;stroke-width:0.6;" x="335.324784" xlink:href="#m7da8aa1d41" y="291.28"/>
      </g>
     </g>
    </g>
    <g id="xtick_27">
     <g id="line2d_29">
      <g>
       <use style="stroke:#000000;stroke-width:0.6;" x="340.515924" xlink:href="#m7da8aa1d41" y="291.28"/>
      </g>
     </g>
    </g>
    <g id="xtick_28">
     <g id="line2d_30">
      <g>
       <use style="stroke:#000000;stroke-width:0.6;" x="375.709151" xlink:href="#m7da8aa1d41" y="291.28"/>
      </g>
     </g>
    </g>
    <g id="xtick_29">
     <g id="line2d_31">
      <g>
       <use style="stroke:#000000;stroke-width:0.6;" x="393.579519" xlink:href="#m7da8aa1d41" y="291.28"/>
      </g>
     </g>
    </g>
    <g id="xtick_30">
     <g id="line2d_32">
      <g>
       <use style="stroke:#000000;stroke-width:0.6;" x="406.258746" xlink:href="#m7da8aa1d41" y="291.28"/>
      </g>
     </g>
    </g>
    <g id="xtick_31">
     <g id="line2d_33">
      <g>
       <use style="stroke:#000000;stroke-width:0.6;" x="416.093519" xlink:href="#m7da8aa1d41" y="291.28"/>
      </g>
     </g>
    </g>
    <g id="xtick_32">
     <g id="line2d_34">
      <g>
       <use style="stroke:#000000;stroke-width:0.6;" x="424.129113" xlink:href="#m7da8aa1d41" y="291.28"/>
      </g>
     </g>
    </g>
    <g id="xtick_33">
     <g id="line2d_35">
      <g>
       <use style="stroke:#000000;stroke-width:0.6;" x="430.923112" xlink:href="#m7da8aa1d41" y="291.28"/>
      </g>
     </g>
    </g>
    <g id="xtick_34">
     <g id="line2d_36">
      <g>
       <use style="stroke:#000000;stroke-width:0.6;" x="436.808341" xlink:href="#m7da8aa1d41" y="291.28"/>
      </g>
     </g>
    </g>
    <g id="xtick_35">
     <g id="line2d_37">
      <g>
       <use style="stroke:#000000;stroke-width:0.6;" x="441.999481" xlink:href="#m7da8aa1d41" y="291.28"/>
      </g>
     </g>
    </g>
    <g id="text_3">
     <!-- log10 of FEvals ratio -->
     <g transform="translate(141.371312 336.833125)scale(0.2 -0.2)">
      <defs>
       <path d="M 603 4863 
L 1178 4863 
L 1178 0 
L 603 0 
L 603 4863 
z
" id="DejaVuSans-6c" transform="scale(0.015625)"/>
       <path d="M 1959 3097 
Q 1497 3097 1228 2736 
Q 959 2375 959 1747 
Q 959 1119 1226 758 
Q 1494 397 1959 397 
Q 2419 397 2687 759 
Q 2956 1122 2956 1747 
Q 2956 2369 2687 2733 
Q 2419 3097 1959 3097 
z
M 1959 3584 
Q 2709 3584 3137 3096 
Q 3566 2609 3566 1747 
Q 3566 888 3137 398 
Q 2709 -91 1959 -91 
Q 1206 -91 779 398 
Q 353 888 353 1747 
Q 353 2609 779 3096 
Q 1206 3584 1959 3584 
z
" id="DejaVuSans-6f" transform="scale(0.015625)"/>
       <path d="M 2906 1791 
Q 2906 2416 2648 2759 
Q 2391 3103 1925 3103 
Q 1463 3103 1205 2759 
Q 947 2416 947 1791 
Q 947 1169 1205 825 
Q 1463 481 1925 481 
Q 2391 481 2648 825 
Q 2906 1169 2906 1791 
z
M 3481 434 
Q 3481 -459 3084 -895 
Q 2688 -1331 1869 -1331 
Q 1566 -1331 1297 -1286 
Q 1028 -1241 775 -1147 
L 775 -588 
Q 1028 -725 1275 -790 
Q 1522 -856 1778 -856 
Q 2344 -856 2625 -561 
Q 2906 -266 2906 331 
L 2906 616 
Q 2728 306 2450 153 
Q 2172 0 1784 0 
Q 1141 0 747 490 
Q 353 981 353 1791 
Q 353 2603 747 3093 
Q 1141 3584 1784 3584 
Q 2172 3584 2450 3431 
Q 2728 3278 2906 2969 
L 2906 3500 
L 3481 3500 
L 3481 434 
z
" id="DejaVuSans-67" transform="scale(0.015625)"/>
       <path d="M 2034 4250 
Q 1547 4250 1301 3770 
Q 1056 3291 1056 2328 
Q 1056 1369 1301 889 
Q 1547 409 2034 409 
Q 2525 409 2770 889 
Q 3016 1369 3016 2328 
Q 3016 3291 2770 3770 
Q 2525 4250 2034 4250 
z
M 2034 4750 
Q 2819 4750 3233 4129 
Q 3647 3509 3647 2328 
Q 3647 1150 3233 529 
Q 2819 -91 2034 -91 
Q 1250 -91 836 529 
Q 422 1150 422 2328 
Q 422 3509 836 4129 
Q 1250 4750 2034 4750 
z
" id="DejaVuSans-30" transform="scale(0.015625)"/>
       <path id="DejaVuSans-20" transform="scale(0.015625)"/>
       <path d="M 2375 4863 
L 2375 4384 
L 1825 4384 
Q 1516 4384 1395 4259 
Q 1275 4134 1275 3809 
L 1275 3500 
L 2222 3500 
L 2222 3053 
L 1275 3053 
L 1275 0 
L 697 0 
L 697 3053 
L 147 3053 
L 147 3500 
L 697 3500 
L 697 3744 
Q 697 4328 969 4595 
Q 1241 4863 1831 4863 
L 2375 4863 
z
" id="DejaVuSans-66" transform="scale(0.015625)"/>
       <path d="M 628 4666 
L 3309 4666 
L 3309 4134 
L 1259 4134 
L 1259 2759 
L 3109 2759 
L 3109 2228 
L 1259 2228 
L 1259 0 
L 628 0 
L 628 4666 
z
" id="DejaVuSans-46" transform="scale(0.015625)"/>
       <path d="M 628 4666 
L 3578 4666 
L 3578 4134 
L 1259 4134 
L 1259 2753 
L 3481 2753 
L 3481 2222 
L 1259 2222 
L 1259 531 
L 3634 531 
L 3634 0 
L 628 0 
L 628 4666 
z
" id="DejaVuSans-45" transform="scale(0.015625)"/>
       <path d="M 191 3500 
L 800 3500 
L 1894 563 
L 2988 3500 
L 3597 3500 
L 2284 0 
L 1503 0 
L 191 3500 
z
" id="DejaVuSans-76" transform="scale(0.015625)"/>
       <path d="M 2194 1759 
Q 1497 1759 1228 1600 
Q 959 1441 959 1056 
Q 959 750 1161 570 
Q 1363 391 1709 391 
Q 2188 391 2477 730 
Q 2766 1069 2766 1631 
L 2766 1759 
L 2194 1759 
z
M 3341 1997 
L 3341 0 
L 2766 0 
L 2766 531 
Q 2569 213 2275 61 
Q 1981 -91 1556 -91 
Q 1019 -91 701 211 
Q 384 513 384 1019 
Q 384 1609 779 1909 
Q 1175 2209 1959 2209 
L 2766 2209 
L 2766 2266 
Q 2766 2663 2505 2880 
Q 2244 3097 1772 3097 
Q 1472 3097 1187 3025 
Q 903 2953 641 2809 
L 641 3341 
Q 956 3463 1253 3523 
Q 1550 3584 1831 3584 
Q 2591 3584 2966 3190 
Q 3341 2797 3341 1997 
z
" id="DejaVuSans-61" transform="scale(0.015625)"/>
       <path d="M 2834 3397 
L 2834 2853 
Q 2591 2978 2328 3040 
Q 2066 3103 1784 3103 
Q 1356 3103 1142 2972 
Q 928 2841 928 2578 
Q 928 2378 1081 2264 
Q 1234 2150 1697 2047 
L 1894 2003 
Q 2506 1872 2764 1633 
Q 3022 1394 3022 966 
Q 3022 478 2636 193 
Q 2250 -91 1575 -91 
Q 1294 -91 989 -36 
Q 684 19 347 128 
L 347 722 
Q 666 556 975 473 
Q 1284 391 1588 391 
Q 1994 391 2212 530 
Q 2431 669 2431 922 
Q 2431 1156 2273 1281 
Q 2116 1406 1581 1522 
L 1381 1569 
Q 847 1681 609 1914 
Q 372 2147 372 2553 
Q 372 3047 722 3315 
Q 1072 3584 1716 3584 
Q 2034 3584 2315 3537 
Q 2597 3491 2834 3397 
z
" id="DejaVuSans-73" transform="scale(0.015625)"/>
       <path d="M 2631 2963 
Q 2534 3019 2420 3045 
Q 2306 3072 2169 3072 
Q 1681 3072 1420 2755 
Q 1159 2438 1159 1844 
L 1159 0 
L 581 0 
L 581 3500 
L 1159 3500 
L 1159 2956 
Q 1341 3275 1631 3429 
Q 1922 3584 2338 3584 
Q 2397 3584 2469 3576 
Q 2541 3569 2628 3553 
L 2631 2963 
z
" id="DejaVuSans-72" transform="scale(0.015625)"/>
       <path d="M 1172 4494 
L 1172 3500 
L 2356 3500 
L 2356 3053 
L 1172 3053 
L 1172 1153 
Q 1172 725 1289 603 
Q 1406 481 1766 481 
L 2356 481 
L 2356 0 
L 1766 0 
Q 1100 0 847 248 
Q 594 497 594 1153 
L 594 3053 
L 172 3053 
L 172 3500 
L 594 3500 
L 594 4494 
L 1172 4494 
z
" id="DejaVuSans-74" transform="scale(0.015625)"/>
       <path d="M 603 3500 
L 1178 3500 
L 1178 0 
L 603 0 
L 603 3500 
z
M 603 4863 
L 1178 4863 
L 1178 4134 
L 603 4134 
L 603 4863 
z
" id="DejaVuSans-69" transform="scale(0.015625)"/>
      </defs>
      <use xlink:href="#DejaVuSans-6c"/>
      <use x="27.783203" xlink:href="#DejaVuSans-6f"/>
      <use x="88.964844" xlink:href="#DejaVuSans-67"/>
      <use x="152.441406" xlink:href="#DejaVuSans-31"/>
      <use x="216.064453" xlink:href="#DejaVuSans-30"/>
      <use x="279.6875" xlink:href="#DejaVuSans-20"/>
      <use x="311.474609" xlink:href="#DejaVuSans-6f"/>
      <use x="372.65625" xlink:href="#DejaVuSans-66"/>
      <use x="407.861328" xlink:href="#DejaVuSans-20"/>
      <use x="439.648438" xlink:href="#DejaVuSans-46"/>
      <use x="497.167969" xlink:href="#DejaVuSans-45"/>
      <use x="560.351562" xlink:href="#DejaVuSans-76"/>
      <use x="619.53125" xlink:href="#DejaVuSans-61"/>
      <use x="680.810547" xlink:href="#DejaVuSans-6c"/>
      <use x="708.59375" xlink:href="#DejaVuSans-73"/>
      <use x="760.693359" xlink:href="#DejaVuSans-20"/>
      <use x="792.480469" xlink:href="#DejaVuSans-72"/>
      <use x="833.59375" xlink:href="#DejaVuSans-61"/>
      <use x="894.873047" xlink:href="#DejaVuSans-74"/>
      <use x="934.082031" xlink:href="#DejaVuSans-69"/>
      <use x="961.865234" xlink:href="#DejaVuSans-6f"/>
     </g>
    </g>
   </g>
   <g id="matplotlib.axis_2">
    <g id="ytick_1">
     <g id="line2d_38">
      <path clip-path="url(#p270ab89ffc)" d="M 34.16 288.453725 
L 453.192 288.453725 
" style="fill:none;stroke:#b0b0b0;stroke-linecap:square;stroke-width:0.8;"/>
     </g>
     <g id="line2d_39">
      <defs>
       <path d="M 0 0 
L -3.5 0 
" id="m5cee866aac" style="stroke:#000000;stroke-width:0.8;"/>
      </defs>
      <g>
       <use style="stroke:#000000;stroke-width:0.8;" x="34.16" xlink:href="#m5cee866aac" y="288.453725"/>
      </g>
     </g>
    </g>
    <g id="ytick_2">
     <g id="line2d_40">
      <path clip-path="url(#p270ab89ffc)" d="M 34.16 217.796863 
L 453.192 217.796863 
" style="fill:none;stroke:#b0b0b0;stroke-linecap:square;stroke-width:0.8;"/>
     </g>
     <g id="line2d_41">
      <g>
       <use style="stroke:#000000;stroke-width:0.8;" x="34.16" xlink:href="#m5cee866aac" y="217.796863"/>
      </g>
     </g>
    </g>
    <g id="ytick_3">
     <g id="line2d_42">
      <path clip-path="url(#p270ab89ffc)" d="M 34.16 147.14 
L 453.192 147.14 
" style="fill:none;stroke:#b0b0b0;stroke-linecap:square;stroke-width:0.8;"/>
     </g>
     <g id="line2d_43">
      <g>
       <use style="stroke:#000000;stroke-width:0.8;" x="34.16" xlink:href="#m5cee866aac" y="147.14"/>
      </g>
     </g>
    </g>
    <g id="ytick_4">
     <g id="line2d_44">
      <path clip-path="url(#p270ab89ffc)" d="M 34.16 76.483137 
L 453.192 76.483137 
" style="fill:none;stroke:#b0b0b0;stroke-linecap:square;stroke-width:0.8;"/>
     </g>
     <g id="line2d_45">
      <g>
       <use style="stroke:#000000;stroke-width:0.8;" x="34.16" xlink:href="#m5cee866aac" y="76.483137"/>
      </g>
     </g>
    </g>
    <g id="ytick_5">
     <g id="line2d_46">
      <path clip-path="url(#p270ab89ffc)" d="M 34.16 5.826275 
L 453.192 5.826275 
" style="fill:none;stroke:#b0b0b0;stroke-linecap:square;stroke-width:0.8;"/>
     </g>
     <g id="line2d_47">
      <g>
       <use style="stroke:#000000;stroke-width:0.8;" x="34.16" xlink:href="#m5cee866aac" y="5.826275"/>
      </g>
     </g>
    </g>
    <g id="text_4">
     <!-- proportion of trials -->
     <g transform="translate(19.000625 240.14625)rotate(-90)scale(0.2 -0.2)">
      <defs>
       <path d="M 1159 525 
L 1159 -1331 
L 581 -1331 
L 581 3500 
L 1159 3500 
L 1159 2969 
Q 1341 3281 1617 3432 
Q 1894 3584 2278 3584 
Q 2916 3584 3314 3078 
Q 3713 2572 3713 1747 
Q 3713 922 3314 415 
Q 2916 -91 2278 -91 
Q 1894 -91 1617 61 
Q 1341 213 1159 525 
z
M 3116 1747 
Q 3116 2381 2855 2742 
Q 2594 3103 2138 3103 
Q 1681 3103 1420 2742 
Q 1159 2381 1159 1747 
Q 1159 1113 1420 752 
Q 1681 391 2138 391 
Q 2594 391 2855 752 
Q 3116 1113 3116 1747 
z
" id="DejaVuSans-70" transform="scale(0.015625)"/>
       <path d="M 3513 2113 
L 3513 0 
L 2938 0 
L 2938 2094 
Q 2938 2591 2744 2837 
Q 2550 3084 2163 3084 
Q 1697 3084 1428 2787 
Q 1159 2491 1159 1978 
L 1159 0 
L 581 0 
L 581 3500 
L 1159 3500 
L 1159 2956 
Q 1366 3272 1645 3428 
Q 1925 3584 2291 3584 
Q 2894 3584 3203 3211 
Q 3513 2838 3513 2113 
z
" id="DejaVuSans-6e" transform="scale(0.015625)"/>
      </defs>
      <use xlink:href="#DejaVuSans-70"/>
      <use x="63.476562" xlink:href="#DejaVuSans-72"/>
      <use x="102.339844" xlink:href="#DejaVuSans-6f"/>
      <use x="163.521484" xlink:href="#DejaVuSans-70"/>
      <use x="226.998047" xlink:href="#DejaVuSans-6f"/>
      <use x="288.179688" xlink:href="#DejaVuSans-72"/>
      <use x="329.292969" xlink:href="#DejaVuSans-74"/>
      <use x="368.501953" xlink:href="#DejaVuSans-69"/>
      <use x="396.285156" xlink:href="#DejaVuSans-6f"/>
      <use x="457.466797" xlink:href="#DejaVuSans-6e"/>
      <use x="520.845703" xlink:href="#DejaVuSans-20"/>
      <use x="552.632812" xlink:href="#DejaVuSans-6f"/>
      <use x="613.814453" xlink:href="#DejaVuSans-66"/>
      <use x="649.019531" xlink:href="#DejaVuSans-20"/>
      <use x="680.806641" xlink:href="#DejaVuSans-74"/>
      <use x="720.015625" xlink:href="#DejaVuSans-72"/>
      <use x="761.128906" xlink:href="#DejaVuSans-69"/>
      <use x="788.912109" xlink:href="#DejaVuSans-61"/>
      <use x="850.191406" xlink:href="#DejaVuSans-6c"/>
      <use x="877.974609" xlink:href="#DejaVuSans-73"/>
     </g>
    </g>
   </g>
   <g id="line2d_48">
    <path clip-path="url(#p270ab89ffc)" d="M 34.16 175.402745 
L 51.560295 175.402745 
L 51.560295 175.088715 
L 52.639966 175.088715 
L 52.639966 174.774684 
L 55.145364 174.774684 
L 55.145364 174.460654 
L 59.348736 174.460654 
L 59.348736 174.146623 
L 61.632317 174.146623 
L 61.632317 173.832593 
L 62.367954 173.832593 
L 62.367954 173.518562 
L 62.58403 173.518562 
L 62.693778 172.890501 
L 63.007562 172.890501 
L 63.007562 172.576471 
L 65.09906 172.576471 
L 65.09906 172.26244 
L 66.518289 172.26244 
L 66.564057 171.634379 
L 68.565031 171.634379 
L 68.619566 171.006318 
L 69.262165 171.006318 
L 69.262165 170.692288 
L 76.003696 170.692288 
L 76.003696 170.378257 
L 76.250678 170.378257 
L 76.250678 170.064227 
L 76.427229 170.064227 
L 76.427229 169.750196 
L 77.305846 169.750196 
L 77.330348 169.122135 
L 77.862471 169.122135 
L 77.862471 168.808105 
L 78.385516 168.808105 
L 78.385516 168.494074 
L 78.942142 168.494074 
L 78.942142 168.180044 
L 81.875929 168.180044 
L 81.875929 167.866013 
L 82.681832 167.866013 
L 82.681832 167.551983 
L 82.952246 167.551983 
L 82.952246 167.237952 
L 84.031917 167.237952 
L 84.039119 166.609891 
L 84.955359 166.609891 
L 84.955359 166.295861 
L 85.094287 166.295861 
L 85.094287 165.98183 
L 85.650913 165.98183 
L 85.650913 165.6678 
L 86.035029 165.6678 
L 86.035029 165.353769 
L 86.3227 165.353769 
L 86.3227 165.039739 
L 87.058336 165.039739 
L 87.058336 164.725708 
L 87.276019 164.725708 
L 87.38416 163.783617 
L 87.934493 163.783617 
L 87.934493 163.469586 
L 88.113504 163.469586 
L 88.113504 163.155556 
L 88.439328 163.155556 
L 88.439328 162.841525 
L 88.67013 162.841525 
L 88.67013 162.527495 
L 88.995954 162.527495 
L 88.995954 162.213464 
L 89.789442 162.213464 
L 89.789442 161.899434 
L 90.740688 161.899434 
L 90.84461 161.271373 
L 91.208672 161.271373 
L 91.254439 160.643312 
L 91.401236 160.643312 
L 91.401236 160.329281 
L 92.182369 160.329281 
L 92.26384 159.70122 
L 92.309607 159.70122 
L 92.309607 159.38719 
L 92.7438 159.38719 
L 92.820465 158.759129 
L 92.866233 158.759129 
L 92.866233 158.445098 
L 93.024268 158.445098 
L 93.024268 158.131068 
L 93.262039 158.131068 
L 93.309949 157.503007 
L 93.411481 157.503007 
L 93.411481 157.188976 
L 93.759905 157.188976 
L 93.759905 156.874946 
L 94.085729 156.874946 
L 94.085729 156.560915 
L 94.280677 156.560915 
L 94.365117 155.932854 
L 94.921742 155.932854 
L 95.027381 155.304793 
L 95.295595 155.304793 
L 95.295595 154.990763 
L 95.763017 154.990763 
L 95.763017 154.676732 
L 96.088841 154.676732 
L 96.088841 154.362702 
L 96.491011 154.362702 
L 96.491011 154.048671 
L 97.910241 154.048671 
L 97.956008 153.42061 
L 98.494123 153.42061 
L 98.494123 153.10658 
L 99.913353 153.10658 
L 100.011517 151.850458 
L 100.850147 151.850458 
L 100.850147 151.536427 
L 101.273679 151.536427 
L 101.273679 151.222397 
L 101.719343 151.222397 
L 101.719343 150.908366 
L 102.014629 150.908366 
L 102.014629 150.594336 
L 102.142875 150.594336 
L 102.142875 150.280305 
L 102.254391 150.280305 
L 102.254391 149.966275 
L 102.990027 149.966275 
L 102.990027 149.652244 
L 103.315851 149.652244 
L 103.315851 149.338214 
L 104.500993 149.338214 
L 104.500993 149.024183 
L 105.721133 149.024183 
L 105.721133 148.710153 
L 107.140363 148.710153 
L 107.18613 148.082092 
L 107.528282 148.082092 
L 107.528282 147.768061 
L 108.397478 147.768061 
L 108.397478 147.454031 
L 109.241639 147.454031 
L 109.241639 147.14 
L 111.966402 147.14 
L 111.966402 146.825969 
L 113.02157 146.825969 
L 113.02157 146.511939 
L 113.578195 146.511939 
L 113.578195 146.197908 
L 117.920659 146.197908 
L 117.920659 145.883878 
L 118.667971 145.883878 
L 118.667971 145.569847 
L 120.142046 145.569847 
L 120.142046 145.255817 
L 120.671083 145.255817 
L 120.671083 144.941786 
L 121.011242 144.941786 
L 121.011242 144.627756 
L 127.898093 144.627756 
L 127.898093 144.313725 
L 129.710472 144.313725 
L 129.710472 143.999695 
L 133.488595 143.999695 
L 133.488595 143.685664 
L 135.575472 143.685664 
L 135.575472 143.371634 
L 136.540118 143.371634 
L 136.540118 143.057603 
L 137.027038 143.057603 
L 137.027038 142.743573 
L 137.149138 142.743573 
L 137.236681 142.115512 
L 137.57267 142.115512 
L 137.57267 141.801481 
L 137.692872 141.801481 
L 137.692872 141.487451 
L 140.020364 141.487451 
L 140.020364 141.17342 
L 140.927261 141.17342 
L 140.927261 140.85939 
L 141.350794 140.85939 
L 141.350794 140.545359 
L 142.76711 140.545359 
L 142.76711 140.231329 
L 143.014138 140.231329 
L 143.014138 139.917298 
L 143.43767 139.917298 
L 143.43767 139.603268 
L 143.636305 139.603268 
L 143.636305 139.289237 
L 143.827273 139.289237 
L 143.827273 138.975207 
L 143.978784 138.975207 
L 143.978784 138.661176 
L 144.402316 138.661176 
L 144.465704 138.033115 
L 144.675347 138.033115 
L 144.783957 137.405054 
L 144.889237 137.405054 
L 144.889237 137.091024 
L 145.098879 137.091024 
L 145.166494 136.148932 
L 145.555071 136.148932 
L 145.555071 135.834902 
L 145.792489 135.834902 
L 145.792489 135.520871 
L 147.45903 135.520871 
L 147.45903 135.206841 
L 147.605397 135.206841 
L 147.605397 134.89281 
L 147.882562 134.89281 
L 147.882562 134.57878 
L 149.692273 134.57878 
L 149.692273 134.264749 
L 150.656919 134.264749 
L 150.656919 133.950719 
L 151.143839 133.950719 
L 151.143839 133.636688 
L 151.353482 133.636688 
L 151.353482 133.322658 
L 151.809674 133.322658 
L 151.809674 133.008627 
L 152.222623 133.008627 
L 152.222623 132.694597 
L 152.60516 132.694597 
L 152.646155 132.066536 
L 153.028692 132.066536 
L 153.028692 131.752505 
L 153.231155 131.752505 
L 153.231155 131.438475 
L 153.654687 131.438475 
L 153.654687 131.124444 
L 154.137165 131.124444 
L 154.137165 130.810414 
L 156.441037 130.810414 
L 156.441037 130.496383 
L 158.900758 130.496383 
L 158.900758 130.182353 
L 159.283295 130.182353 
L 159.283295 129.868322 
L 159.90929 129.868322 
L 159.90929 129.554292 
L 160.21916 129.554292 
L 160.21916 129.240261 
L 162.306037 129.240261 
L 162.306037 128.926231 
L 163.270682 128.926231 
L 163.270682 128.6122 
L 163.757603 128.6122 
L 163.757603 128.29817 
L 163.967246 128.29817 
L 163.967246 127.984139 
L 164.423437 127.984139 
L 164.423437 127.670109 
L 165.953933 127.670109 
L 165.953933 127.356078 
L 166.750929 127.356078 
L 166.769015 126.728017 
L 167.675526 126.728017 
L 167.675526 126.413987 
L 170.621784 126.413987 
L 170.621784 126.099956 
L 171.280391 126.099956 
L 171.280391 125.785926 
L 171.514522 125.785926 
L 171.514522 125.471895 
L 171.897059 125.471895 
L 171.897059 125.157865 
L 172.523054 125.157865 
L 172.523054 124.843834 
L 173.455077 124.843834 
L 173.455077 124.529804 
L 177.154069 124.529804 
L 177.154069 124.215773 
L 179.066101 124.215773 
L 179.066101 123.901743 
L 179.246267 123.901743 
L 179.328754 123.273682 
L 181.696486 123.273682 
L 181.696486 122.959651 
L 182.68143 122.959651 
L 182.68143 122.645621 
L 182.844224 122.645621 
L 182.844224 122.33159 
L 183.708326 122.33159 
L 183.708326 122.01756 
L 184.121867 122.01756 
L 184.121867 121.703529 
L 184.787996 121.703529 
L 184.856116 121.075468 
L 184.9311 121.075468 
L 185.015053 120.447407 
L 185.119945 120.447407 
L 185.119945 120.133377 
L 185.895746 120.133377 
L 185.895746 119.819346 
L 186.255704 119.819346 
L 186.255704 119.505316 
L 186.382667 119.505316 
L 186.382667 119.191285 
L 186.59231 119.191285 
L 186.59231 118.877255 
L 186.781572 118.877255 
L 186.781572 118.249194 
L 187.048501 118.249194 
L 187.048501 117.935163 
L 187.570164 117.935163 
L 187.570164 117.621133 
L 189.326324 117.621133 
L 189.375992 116.993072 
L 189.995545 116.993072 
L 189.995545 116.679041 
L 190.50745 116.679041 
L 190.50745 116.365011 
L 190.644316 116.365011 
L 190.647306 115.73695 
L 190.888731 115.73695 
L 190.888731 115.422919 
L 191.459398 115.422919 
L 191.50101 114.480828 
L 191.699484 114.480828 
L 191.699484 114.166797 
L 191.904179 114.166797 
L 191.904179 113.852767 
L 192.129382 113.852767 
L 192.129382 113.538736 
L 192.256109 113.538736 
L 192.365908 112.910675 
L 192.514566 112.910675 
L 192.514566 112.596645 
L 192.65525 112.596645 
L 192.65525 111.968584 
L 192.98385 111.968584 
L 193.081352 111.026492 
L 193.097525 111.026492 
L 193.101629 110.398431 
L 193.421076 110.398431 
L 193.421076 110.084401 
L 193.780348 110.084401 
L 193.780348 109.77037 
L 193.977702 109.77037 
L 193.977702 109.45634 
L 194.139585 109.45634 
L 194.139585 109.142309 
L 194.515984 109.142309 
L 194.522122 108.514248 
L 194.787051 108.514248 
L 194.841808 107.886187 
L 195.039838 107.886187 
L 195.148118 107.258126 
L 195.256038 107.258126 
L 195.312166 106.630065 
L 195.522906 106.630065 
L 195.578334 106.002004 
L 195.866721 106.002004 
L 195.866721 105.687974 
L 196.210628 105.687974 
L 196.210628 105.373943 
L 196.367334 105.373943 
L 196.416092 104.431852 
L 196.92396 104.431852 
L 196.92396 104.117821 
L 197.214524 104.117821 
L 197.2922 103.17573 
L 197.345884 103.17573 
L 197.445897 102.233638 
L 197.656743 102.233638 
L 197.656743 101.919608 
L 197.969617 101.919608 
L 197.969617 101.605577 
L 198.160966 101.605577 
L 198.182611 100.663486 
L 198.385314 100.663486 
L 198.385314 100.349455 
L 198.66632 100.349455 
L 198.712087 99.721394 
L 198.975307 99.721394 
L 199.067477 99.093333 
L 199.348997 99.093333 
L 199.348997 98.779303 
L 199.620583 98.779303 
L 199.692621 98.151242 
L 199.742419 98.151242 
L 199.742419 97.837211 
L 200.144302 97.837211 
L 200.164078 97.20915 
L 200.767596 97.20915 
L 200.843716 96.581089 
L 201.047228 96.581089 
L 201.070589 95.953028 
L 201.452012 95.953028 
L 201.452012 95.638998 
L 201.908489 95.638998 
L 202.013735 94.696906 
L 202.167801 94.696906 
L 202.167801 94.382876 
L 202.318747 94.382876 
L 202.318747 94.068845 
L 202.575492 94.068845 
L 202.575492 93.754815 
L 202.711838 93.754815 
L 202.711838 93.440784 
L 202.92667 93.440784 
L 203.037662 92.184662 
L 203.060986 92.184662 
L 203.171048 91.556601 
L 203.286499 91.556601 
L 203.286499 91.242571 
L 203.398417 91.242571 
L 203.497448 90.300479 
L 204.006341 90.300479 
L 204.016847 89.672418 
L 204.176504 89.672418 
L 204.176504 89.358388 
L 204.301637 89.358388 
L 204.301637 89.044357 
L 204.502668 89.044357 
L 204.519428 88.416296 
L 204.827505 88.416296 
L 204.859073 87.474205 
L 205.345733 87.474205 
L 205.455934 86.218083 
L 205.594709 86.218083 
L 205.594709 85.904052 
L 205.920533 85.904052 
L 205.935493 84.961961 
L 206.576007 84.961961 
L 206.626724 84.3339 
L 206.816014 84.3339 
L 206.907941 83.391808 
L 206.953991 83.391808 
L 206.979373 82.763747 
L 207.391088 82.763747 
L 207.391088 82.449717 
L 207.861992 82.449717 
L 207.881315 81.821656 
L 208.056666 81.821656 
L 208.056666 81.507625 
L 208.297599 81.507625 
L 208.385712 80.565534 
L 208.553383 80.565534 
L 208.582533 79.623442 
L 208.7745 79.623442 
L 208.81386 78.681351 
L 208.96345 78.681351 
L 209.052105 78.05329 
L 209.324397 78.05329 
L 209.324397 77.739259 
L 209.745045 77.739259 
L 209.790812 77.111198 
L 209.94529 77.111198 
L 210.015152 76.483137 
L 210.107188 76.483137 
L 210.107188 76.169107 
L 210.287374 76.169107 
L 210.287374 75.855076 
L 210.541019 75.855076 
L 210.541019 75.227015 
L 210.715111 75.227015 
L 210.811093 74.284924 
L 211.136924 74.284924 
L 211.243857 72.400741 
L 211.259811 72.400741 
L 211.259811 72.08671 
L 211.499082 72.08671 
L 211.599691 71.144619 
L 211.704278 71.144619 
L 211.765312 69.888497 
L 211.846321 69.888497 
L 211.846321 69.574466 
L 212.308411 69.574466 
L 212.390769 68.946405 
L 212.42121 68.946405 
L 212.42121 68.632375 
L 212.642845 68.632375 
L 212.642845 68.318344 
L 212.827669 68.318344 
L 212.905926 67.376253 
L 212.94493 67.376253 
L 212.998692 66.120131 
L 213.126405 66.120131 
L 213.126405 65.8061 
L 213.429319 65.8061 
L 213.51178 64.235948 
L 213.587143 64.235948 
L 213.685193 63.293856 
L 213.734329 63.293856 
L 213.734329 62.979826 
L 214.060153 62.979826 
L 214.060153 62.665795 
L 214.247417 62.665795 
L 214.266897 62.037734 
L 214.573241 62.037734 
L 214.578378 61.409673 
L 214.90259 61.409673 
L 214.90259 61.095643 
L 215.437687 61.095643 
L 215.458754 60.467582 
L 215.604005 60.467582 
L 215.604005 60.153551 
L 215.819029 60.153551 
L 215.857511 59.52549 
L 216.012524 59.52549 
L 216.012524 59.21146 
L 216.344897 59.21146 
L 216.344897 58.583399 
L 216.465435 58.583399 
L 216.465435 58.269368 
L 216.672956 58.269368 
L 216.672956 57.955338 
L 216.861076 57.955338 
L 216.905709 57.327277 
L 216.978522 57.327277 
L 216.978522 57.013246 
L 217.196675 57.013246 
L 217.290273 56.071155 
L 217.322508 56.071155 
L 217.379295 55.443094 
L 217.473369 55.443094 
L 217.473369 55.129063 
L 217.884664 55.129063 
L 217.930432 54.501002 
L 218.031866 54.501002 
L 218.031866 54.186972 
L 218.146361 54.186972 
L 218.146361 53.872941 
L 218.35503 53.872941 
L 218.443519 52.93085 
L 218.672228 52.93085 
L 218.697116 51.988758 
L 219.213783 51.988758 
L 219.267135 51.360697 
L 219.337781 51.360697 
L 219.42405 50.104575 
L 219.553754 50.104575 
L 219.553754 49.790545 
L 219.740492 49.790545 
L 219.790855 49.162484 
L 219.985941 49.162484 
L 220.070775 48.534423 
L 220.499029 48.534423 
L 220.508571 47.906362 
L 221.147335 47.906362 
L 221.172269 47.278301 
L 221.395195 47.278301 
L 221.395195 46.96427 
L 221.635197 46.96427 
L 221.74384 46.336209 
L 221.837335 46.336209 
L 221.837335 46.022179 
L 222.165873 46.022179 
L 222.267559 45.394118 
L 222.343059 45.394118 
L 222.398106 44.452026 
L 222.572971 44.452026 
L 222.664954 43.823965 
L 222.696657 43.823965 
L 222.696657 43.509935 
L 222.898795 43.509935 
L 223.00073 42.881874 
L 223.059058 42.881874 
L 223.059058 42.567843 
L 223.572717 42.567843 
L 223.578327 41.939782 
L 223.845414 41.939782 
L 223.845414 41.625752 
L 224.102047 41.625752 
L 224.102047 41.311721 
L 224.29971 41.311721 
L 224.29971 40.997691 
L 224.465902 40.997691 
L 224.465902 40.68366 
L 224.825577 40.68366 
L 224.825577 40.055599 
L 224.992286 40.055599 
L 225.101939 39.113508 
L 225.141659 39.113508 
L 225.141659 38.799477 
L 225.304077 38.799477 
L 225.304077 38.485447 
L 225.706553 38.485447 
L 225.706553 38.171416 
L 226.232421 38.171416 
L 226.270795 37.229325 
L 226.521169 37.229325 
L 226.566936 36.601264 
L 226.723307 36.601264 
L 226.769074 35.973203 
L 226.976146 35.973203 
L 226.976146 35.659172 
L 227.163981 35.659172 
L 227.163981 35.345142 
L 227.46899 35.345142 
L 227.46899 35.031111 
L 227.619904 35.031111 
L 227.619904 34.717081 
L 228.404632 34.717081 
L 228.404632 34.40305 
L 228.551455 34.40305 
L 228.622445 33.774989 
L 228.754953 33.774989 
L 228.824583 33.146928 
L 228.9305 33.146928 
L 228.9305 32.518867 
L 229.303478 32.518867 
L 229.303478 32.204837 
L 229.645624 32.204837 
L 229.645624 31.890806 
L 229.958299 31.890806 
L 229.958299 31.576776 
L 230.502775 31.576776 
L 230.502775 31.262745 
L 230.713439 31.262745 
L 230.713439 30.948715 
L 230.903986 30.948715 
L 230.903986 30.634684 
L 231.145635 30.634684 
L 231.145635 30.320654 
L 231.884229 30.320654 
L 231.884229 30.006623 
L 232.552478 30.006623 
L 232.656378 29.378562 
L 233.078671 29.378562 
L 233.119497 28.750501 
L 233.400653 28.750501 
L 233.400653 28.436471 
L 233.622339 28.436471 
L 233.643217 27.80841 
L 235.029183 27.80841 
L 235.029183 27.494379 
L 235.250557 27.494379 
L 235.359139 26.866318 
L 235.456827 26.866318 
L 235.456827 26.552288 
L 236.517316 26.552288 
L 236.529929 25.924227 
L 236.86367 25.924227 
L 236.86367 25.610196 
L 237.727262 25.610196 
L 237.765197 24.982135 
L 238.034471 24.982135 
L 238.034471 24.668105 
L 238.288917 24.668105 
L 238.288917 24.354074 
L 238.642394 24.354074 
L 238.642394 24.040044 
L 238.844648 24.040044 
L 238.869862 23.411983 
L 239.155482 23.411983 
L 239.155482 23.097952 
L 239.561749 23.097952 
L 239.561749 22.783922 
L 241.163016 22.783922 
L 241.163016 22.469891 
L 241.320081 22.469891 
L 241.320081 22.155861 
L 243.490348 22.155861 
L 243.490348 21.84183 
L 243.745462 21.84183 
L 243.745462 21.5278 
L 244.638647 21.5278 
L 244.638647 21.213769 
L 244.997997 21.213769 
L 244.997997 20.899739 
L 245.879299 20.899739 
L 245.879299 20.585708 
L 246.40484 20.585708 
L 246.405166 19.643617 
L 247.278899 19.643617 
L 247.278899 19.329586 
L 247.481037 19.329586 
L 247.481037 19.015556 
L 249.102919 19.015556 
L 249.102919 18.701525 
L 249.643697 18.701525 
L 249.643697 18.387495 
L 250.131045 18.387495 
L 250.131045 18.073464 
L 251.05054 18.073464 
L 251.05054 17.759434 
L 252.725224 17.759434 
L 252.725224 17.445403 
L 253.748619 17.445403 
L 253.748619 17.131373 
L 255.201929 17.131373 
L 255.201929 16.817342 
L 257.036416 16.817342 
L 257.036416 16.503312 
L 266.577586 16.503312 
L 266.577586 16.189281 
L 271.223286 16.189281 
L 271.223286 15.875251 
L 298.101964 15.875251 
L 298.101964 15.56122 
L 298.917045 15.56122 
L 298.917045 15.24719 
L 299.823556 15.24719 
L 299.823556 14.933159 
L 302.769814 14.933159 
L 302.769814 14.619129 
L 306.297817 14.619129 
L 306.297817 14.305098 
L 307.112899 14.305098 
L 307.112899 13.991068 
L 308.01941 13.991068 
L 308.01941 13.677037 
L 309.180689 13.677037 
L 309.180689 13.363007 
L 309.99577 13.363007 
L 309.99577 13.048976 
L 310.902281 13.048976 
L 310.965668 12.420915 
L 313.848539 12.420915 
L 313.848539 12.106885 
L 316.712385 12.106885 
L 316.712385 11.792854 
L 317.320308 11.792854 
L 317.320308 11.478824 
L 317.527466 11.478824 
L 317.527466 11.164793 
L 317.833396 11.164793 
L 317.833396 10.850763 
L 318.13539 10.850763 
L 318.13539 10.536732 
L 318.433977 10.536732 
L 318.433977 10.222702 
L 318.648478 10.222702 
L 318.648478 9.908671 
L 319.041901 9.908671 
L 319.041901 9.594641 
L 319.554989 9.594641 
L 319.554989 9.28061 
L 321.380235 9.28061 
L 321.380235 8.96658 
L 321.988159 8.96658 
L 321.988159 8.652549 
L 322.501247 8.652549 
L 322.501247 8.338519 
L 325.956813 8.338519 
L 325.956813 8.024488 
L 326.158951 8.024488 
L 326.158951 7.710458 
L 326.771894 7.710458 
L 326.771894 7.396427 
L 326.974032 7.396427 
L 326.974032 7.082397 
L 327.678405 7.082397 
L 327.678405 6.768366 
L 327.880543 6.768366 
L 327.880543 6.454336 
L 330.624663 6.454336 
L 330.624663 6.140305 
L 330.826801 6.140305 
L 330.826801 5.826275 
L 453.192 5.826275 
L 453.192 5.826275 
" style="fill:none;stroke:#000000;stroke-linecap:square;stroke-width:3;"/>
   </g>
   <g id="line2d_49">
    <path clip-path="url(#p270ab89ffc)" style="fill:none;stroke:#000000;stroke-linecap:square;stroke-width:3;"/>
   </g>
   <g id="line2d_50">
    <path clip-path="url(#p270ab89ffc)" d="M 34.16 118.877255 
L 92.320296 118.877255 
L 92.352907 118.03984 
L 93.362683 118.03984 
L 93.362683 117.621133 
L 93.616833 117.621133 
L 93.616833 117.202426 
L 94.968576 117.202426 
L 94.968576 116.783718 
L 95.207443 116.783718 
L 95.240054 115.946304 
L 96.249831 115.946304 
L 96.249831 115.527596 
L 96.503981 115.527596 
L 96.503981 115.108889 
L 97.855723 115.108889 
L 97.855723 114.690182 
L 104.852474 114.690182 
L 104.852474 114.271474 
L 106.018149 114.271474 
L 106.05076 113.43406 
L 107.060537 113.43406 
L 107.060537 113.015352 
L 107.314687 113.015352 
L 107.314687 112.596645 
L 107.739622 112.596645 
L 107.739622 112.177938 
L 108.666429 112.177938 
L 108.666429 111.75923 
L 118.550328 111.75923 
L 118.550328 111.340523 
L 120.905016 111.340523 
L 120.937627 110.503108 
L 121.947404 110.503108 
L 121.947404 110.084401 
L 122.201554 110.084401 
L 122.304375 108.828279 
L 123.314152 108.828279 
L 123.314152 108.409572 
L 123.553297 108.409572 
L 123.568302 107.572157 
L 124.920045 107.572157 
L 124.920045 107.15345 
L 129.184948 107.15345 
L 129.217559 106.316035 
L 130.227336 106.316035 
L 130.227336 105.897328 
L 130.481486 105.897328 
L 130.481486 105.47862 
L 131.833229 105.47862 
L 131.833229 105.059913 
L 132.466401 105.059913 
L 132.562432 103.803791 
L 133.437195 103.803791 
L 133.437195 103.385084 
L 133.572209 103.385084 
L 133.572209 102.966376 
L 133.826359 102.966376 
L 133.826359 102.547669 
L 134.136916 102.547669 
L 134.136916 102.128962 
L 134.803943 102.128962 
L 134.803943 101.710254 
L 135.178101 101.710254 
L 135.178101 101.291547 
L 137.128354 101.291547 
L 137.160965 100.454132 
L 138.170741 100.454132 
L 138.170741 100.035425 
L 138.424891 100.035425 
L 138.424891 99.616718 
L 139.776634 99.616718 
L 139.776634 99.19801 
L 141.717127 99.19801 
L 141.717127 98.779303 
L 144.234254 98.779303 
L 144.234254 98.360595 
L 145.062 98.360595 
L 145.062 97.941888 
L 145.904769 97.941888 
L 145.904769 97.523181 
L 149.660532 97.523181 
L 149.660532 97.104473 
L 168.187284 97.104473 
L 168.187284 96.685766 
L 169.076643 96.685766 
L 169.076643 96.267059 
L 170.188777 96.267059 
L 170.188777 95.848351 
L 170.376061 95.848351 
L 170.376061 95.429644 
L 170.645389 95.429644 
L 170.645389 95.010937 
L 171.074431 95.010937 
L 171.074431 94.592229 
L 171.96379 94.592229 
L 171.96379 94.173522 
L 172.411819 94.173522 
L 172.411819 93.754815 
L 173.075924 93.754815 
L 173.075924 93.336107 
L 173.263208 93.336107 
L 173.263208 92.9174 
L 173.532536 92.9174 
L 173.532536 92.498693 
L 174.915395 92.498693 
L 174.915395 92.079985 
L 175.298967 92.079985 
L 175.298967 91.661278 
L 177.802542 91.661278 
L 177.802542 91.242571 
L 181.885137 91.242571 
L 181.885137 90.823863 
L 182.774496 90.823863 
L 182.774496 90.405156 
L 183.88663 90.405156 
L 183.88663 89.986449 
L 184.073914 89.986449 
L 184.073914 89.567741 
L 184.343242 89.567741 
L 184.343242 89.149034 
L 186.109673 89.149034 
L 186.109673 88.730327 
L 188.613249 88.730327 
L 188.613249 88.311619 
L 191.112388 88.311619 
L 191.112388 87.892912 
L 193.999535 87.892912 
L 193.999535 87.474205 
L 196.772005 87.474205 
L 196.772005 87.055497 
L 197.661363 87.055497 
L 197.661363 86.63679 
L 198.138752 86.63679 
L 198.138752 86.218083 
L 198.773498 86.218083 
L 198.773498 85.799375 
L 198.960782 85.799375 
L 199.028111 84.961961 
L 199.23011 84.961961 
L 199.23011 84.543253 
L 199.950126 84.543253 
L 199.950126 84.124546 
L 200.140246 84.124546 
L 200.140246 83.705839 
L 200.32753 83.705839 
L 200.32753 83.287131 
L 200.596858 83.287131 
L 200.596858 82.868424 
L 200.868075 82.868424 
L 200.868075 82.449717 
L 200.99654 82.449717 
L 200.99654 82.031009 
L 201.742456 82.031009 
L 201.742456 81.612302 
L 202.230913 81.612302 
L 202.230913 81.193595 
L 202.363288 81.193595 
L 202.363288 80.774887 
L 203.346953 80.774887 
L 203.346953 80.35618 
L 203.500116 80.35618 
L 203.500116 79.937473 
L 204.810241 79.937473 
L 204.866864 79.100058 
L 205.051937 79.100058 
L 205.051937 78.681351 
L 205.941296 78.681351 
L 205.941296 78.262643 
L 207.05343 78.262643 
L 207.05343 77.843936 
L 207.240714 77.843936 
L 207.240714 77.425229 
L 207.510042 77.425229 
L 207.510042 77.006521 
L 208.396809 77.006521 
L 208.396809 76.587814 
L 209.276472 76.587814 
L 209.286168 75.750399 
L 210.398302 75.750399 
L 210.398302 75.331692 
L 210.585586 75.331692 
L 210.585586 74.912985 
L 210.854914 74.912985 
L 210.854914 74.494277 
L 211.717978 74.494277 
L 211.780048 73.656863 
L 212.621345 73.656863 
L 212.635927 72.819448 
L 212.995342 72.819448 
L 212.995342 72.400741 
L 213.510309 72.400741 
L 213.510309 71.982033 
L 213.701039 71.982033 
L 213.73365 71.144619 
L 213.884701 71.144619 
L 213.884701 70.725911 
L 213.998766 70.725911 
L 213.998766 70.307204 
L 214.743426 70.307204 
L 214.743426 69.888497 
L 214.996835 69.888497 
L 214.997576 69.051082 
L 215.114805 69.051082 
L 215.184119 67.79496 
L 215.453447 67.79496 
L 215.453447 67.376253 
L 216.349319 67.376253 
L 216.349319 66.957545 
L 217.219877 66.957545 
L 217.219877 66.538838 
L 219.697109 66.538838 
L 219.723453 65.701423 
L 219.819026 65.701423 
L 219.851637 64.864009 
L 220.630203 64.864009 
L 220.662814 64.026594 
L 220.861414 64.026594 
L 220.861414 63.607887 
L 221.063857 63.607887 
L 221.115564 62.770472 
L 221.672591 62.770472 
L 221.672591 62.351765 
L 221.926741 62.351765 
L 221.926741 61.933057 
L 222.467307 61.933057 
L 222.467307 61.51435 
L 223.278483 61.51435 
L 223.278483 61.095643 
L 225.867297 61.095643 
L 225.899908 60.258228 
L 226.199107 60.258228 
L 226.233217 59.420813 
L 226.909685 59.420813 
L 226.909685 59.002106 
L 227.163835 59.002106 
L 227.163835 58.583399 
L 227.57703 58.583399 
L 227.609641 57.745984 
L 227.977041 57.745984 
L 227.977041 57.327277 
L 228.515577 57.327277 
L 228.619417 56.489862 
L 228.873568 56.489862 
L 228.873568 56.071155 
L 230.22531 56.071155 
L 230.22531 55.652447 
L 231.321913 55.652447 
L 231.321913 55.23374 
L 231.997381 55.23374 
L 231.997381 54.815033 
L 232.351205 54.815033 
L 232.351205 54.396325 
L 233.162382 54.396325 
L 233.162382 53.977618 
L 233.667896 53.977618 
L 233.667896 53.558911 
L 235.920446 53.558911 
L 235.920446 53.140203 
L 237.771682 53.140203 
L 237.771682 52.721496 
L 237.966959 52.721496 
L 237.966959 52.302789 
L 238.397589 52.302789 
L 238.399476 51.465374 
L 239.841284 51.465374 
L 239.841284 51.046667 
L 240.109208 51.046667 
L 240.109208 50.627959 
L 242.272115 50.627959 
L 242.272115 50.209252 
L 243.805032 50.209252 
L 243.805032 49.790545 
L 243.94263 49.790545 
L 243.94263 49.371837 
L 245.475548 49.371837 
L 245.475548 48.95313 
L 247.217236 48.95313 
L 247.217236 48.534423 
L 249.539535 48.534423 
L 249.539535 48.115715 
L 250.165442 48.115715 
L 250.165442 47.697008 
L 251.609136 47.697008 
L 251.609136 47.278301 
L 258.985088 47.278301 
L 258.985088 46.859593 
L 264.309465 46.859593 
L 264.309465 46.440886 
L 267.196613 46.440886 
L 267.196613 46.022179 
L 270.723361 46.022179 
L 270.723361 45.603471 
L 278.007319 45.603471 
L 278.007319 45.184764 
L 278.277737 45.184764 
L 278.277737 44.766057 
L 282.491213 44.766057 
L 282.491213 44.347349 
L 283.465473 44.347349 
L 283.465473 43.928642 
L 289.568027 43.928642 
L 289.568027 43.509935 
L 290.045589 43.509935 
L 290.045589 43.091227 
L 290.457386 43.091227 
L 290.457386 42.67252 
L 291.56952 42.67252 
L 291.56952 42.253813 
L 291.756804 42.253813 
L 291.756804 41.835105 
L 292.026132 41.835105 
L 292.026132 41.416398 
L 292.894186 41.416398 
L 292.894186 40.997691 
L 293.792562 40.997691 
L 293.792562 40.578983 
L 294.260934 40.578983 
L 294.260934 40.160276 
L 295.233325 40.160276 
L 295.233325 39.741569 
L 295.686014 39.741569 
L 295.686014 39.322861 
L 296.296138 39.322861 
L 296.296138 38.904154 
L 296.497191 38.904154 
L 296.575373 38.066739 
L 297.38655 38.066739 
L 297.38655 37.648032 
L 297.687508 37.648032 
L 297.687508 37.229325 
L 297.874792 37.229325 
L 297.874792 36.810617 
L 298.14412 36.810617 
L 298.14412 36.39191 
L 298.498684 36.39191 
L 298.498684 35.973203 
L 298.685968 35.973203 
L 298.685968 35.554495 
L 298.955296 35.554495 
L 298.955296 35.135788 
L 299.481106 35.135788 
L 299.481106 34.717081 
L 299.91055 34.717081 
L 299.91055 34.298373 
L 300.399055 34.298373 
L 300.399055 33.879666 
L 300.721727 33.879666 
L 300.721727 33.460959 
L 301.174118 33.460959 
L 301.273436 32.623544 
L 301.734285 32.623544 
L 301.761893 31.786129 
L 302.414126 31.786129 
L 302.414126 31.367422 
L 302.623644 31.367422 
L 302.623644 30.948715 
L 302.877933 30.948715 
L 302.877933 30.530007 
L 303.225302 30.530007 
L 303.225302 30.1113 
L 303.444018 30.1113 
L 303.444018 29.692593 
L 303.735779 29.692593 
L 303.735779 29.273885 
L 303.923062 29.273885 
L 303.923062 28.855178 
L 304.19239 28.855178 
L 304.19239 28.436471 
L 304.333377 28.436471 
L 304.333377 28.017763 
L 304.51899 28.017763 
L 304.51899 27.599056 
L 305.445511 27.599056 
L 305.445511 27.180349 
L 305.632795 27.180349 
L 305.632795 26.761641 
L 305.902123 26.761641 
L 305.958821 25.924227 
L 307.668554 25.924227 
L 307.668554 25.505519 
L 308.462397 25.505519 
L 308.462397 25.086812 
L 309.117523 25.086812 
L 309.117523 24.668105 
L 309.755839 24.668105 
L 309.755839 24.249397 
L 310.172129 24.249397 
L 310.172129 23.83069 
L 310.673788 23.83069 
L 310.673788 23.411983 
L 311.288757 23.411983 
L 311.288757 22.993275 
L 311.54817 22.993275 
L 311.54817 22.574568 
L 312.036626 22.574568 
L 312.036626 22.155861 
L 312.206706 22.155861 
L 312.206706 21.737153 
L 312.493131 21.737153 
L 312.493131 21.318446 
L 313.081088 21.318446 
L 313.152666 20.481031 
L 313.569544 20.481031 
L 313.569544 20.062324 
L 314.685584 20.062324 
L 314.685584 19.643617 
L 318.611119 19.643617 
L 318.611119 19.224909 
L 319.422295 19.224909 
L 319.422295 18.806202 
L 324.659389 18.806202 
L 324.659389 18.387495 
L 325.730087 18.387495 
L 325.730087 17.968787 
L 326.369122 17.968787 
L 326.369122 17.55008 
L 336.00482 17.55008 
L 336.00482 17.131373 
L 337.302662 17.131373 
L 337.302662 16.712665 
L 337.537738 16.712665 
L 337.537738 16.293958 
L 337.928569 16.293958 
L 337.928569 15.875251 
L 339.372264 15.875251 
L 339.372264 15.456543 
L 346.748216 15.456543 
L 346.748216 15.037836 
L 347.577396 15.037836 
L 347.577396 14.619129 
L 348.203303 14.619129 
L 348.203303 14.200421 
L 349.110314 14.200421 
L 349.110314 13.781714 
L 349.646997 13.781714 
L 349.736221 12.944299 
L 351.179915 12.944299 
L 351.179915 12.525592 
L 357.022949 12.525592 
L 357.022949 12.106885 
L 358.555867 12.106885 
L 358.555867 11.688177 
L 370.254341 11.688177 
L 370.254341 11.26947 
L 377.808717 11.26947 
L 377.808717 10.850763 
L 380.529074 10.850763 
L 380.529074 10.432055 
L 382.061992 10.432055 
L 382.061992 10.013348 
L 382.996453 10.013348 
L 382.996453 9.594641 
L 385.690208 9.594641 
L 385.690208 9.175933 
L 388.08345 9.175933 
L 388.08345 8.757226 
L 389.616368 8.757226 
L 389.616368 8.338519 
L 391.808196 8.338519 
L 391.808196 7.919811 
L 392.619373 7.919811 
L 392.619373 7.501104 
L 393.271186 7.501104 
L 393.271186 7.082397 
L 394.804104 7.082397 
L 394.804104 6.663689 
L 397.856467 6.663689 
L 397.856467 6.244982 
L 399.566199 6.244982 
L 399.566199 5.826275 
L 453.192 5.826275 
L 453.192 5.826275 
" style="fill:none;stroke:#00bfbf;stroke-linecap:square;stroke-width:3;"/>
   </g>
   <g id="line2d_51">
    <path clip-path="url(#p270ab89ffc)" style="fill:none;stroke:#00bfbf;stroke-linecap:square;stroke-width:3;"/>
   </g>
   <g id="line2d_52">
    <path clip-path="url(#p270ab89ffc)" d="M 34.16 118.877255 
L 123.272617 118.877255 
L 123.272617 118.458548 
L 123.695022 118.458548 
L 123.695022 118.03984 
L 124.349383 118.03984 
L 124.35409 117.202426 
L 125.299245 117.202426 
L 125.299245 116.783718 
L 125.637983 116.783718 
L 125.637983 116.365011 
L 126.060388 116.365011 
L 126.060388 115.946304 
L 126.714749 115.946304 
L 126.719456 115.108889 
L 127.664611 115.108889 
L 127.664611 114.690182 
L 129.659599 114.690182 
L 129.659599 114.271474 
L 132.024965 114.271474 
L 132.024965 113.852767 
L 135.433185 113.852767 
L 135.433185 113.43406 
L 135.85559 113.43406 
L 135.85559 113.015352 
L 136.509951 113.015352 
L 136.514658 112.177938 
L 137.459813 112.177938 
L 137.459813 111.75923 
L 141.820167 111.75923 
L 141.820167 111.340523 
L 150.531781 111.340523 
L 150.531781 110.921816 
L 150.954186 110.921816 
L 150.954186 110.503108 
L 151.081255 110.503108 
L 151.081255 110.084401 
L 151.50366 110.084401 
L 151.613254 108.828279 
L 152.158021 108.828279 
L 152.162728 107.990864 
L 152.558409 107.990864 
L 152.558409 107.572157 
L 153.107883 107.572157 
L 153.107883 107.15345 
L 155.849896 107.15345 
L 155.849896 106.734742 
L 156.918763 106.734742 
L 156.918763 106.316035 
L 157.468237 106.316035 
L 157.468237 105.897328 
L 157.717197 105.897328 
L 157.717197 105.47862 
L 158.139602 105.47862 
L 158.139602 105.059913 
L 158.793963 105.059913 
L 158.798669 104.222498 
L 159.743825 104.222498 
L 159.743825 103.803791 
L 160.311758 103.803791 
L 160.311758 103.385084 
L 161.183856 103.385084 
L 161.183856 102.966376 
L 161.60626 102.966376 
L 161.60626 102.547669 
L 162.260622 102.547669 
L 162.265328 101.710254 
L 163.210484 101.710254 
L 163.210484 101.291547 
L 163.525468 101.291547 
L 163.525468 100.87284 
L 163.947873 100.87284 
L 163.947873 100.454132 
L 164.104179 100.454132 
L 164.104179 100.035425 
L 164.602234 100.035425 
L 164.606941 99.19801 
L 164.900549 99.19801 
L 164.900549 98.779303 
L 165.552096 98.779303 
L 165.552096 98.360595 
L 167.570838 98.360595 
L 167.570838 97.941888 
L 169.362411 97.941888 
L 169.362411 97.523181 
L 169.91245 97.523181 
L 169.91245 97.104473 
L 178.377578 97.104473 
L 178.377578 96.685766 
L 178.523769 96.685766 
L 178.523769 96.267059 
L 179.164838 96.267059 
L 179.164838 95.848351 
L 180.087369 95.848351 
L 180.087369 95.429644 
L 180.742944 95.429644 
L 180.742944 95.010937 
L 180.889135 95.010937 
L 180.889135 94.592229 
L 181.082025 94.592229 
L 181.082025 94.173522 
L 181.530204 94.173522 
L 181.530204 93.754815 
L 181.693597 93.754815 
L 181.693597 93.336107 
L 182.452735 93.336107 
L 182.452735 92.9174 
L 183.447391 92.9174 
L 183.447391 92.498693 
L 184.058963 92.498693 
L 184.128776 91.661278 
L 186.494142 91.661278 
L 186.494142 91.242571 
L 190.538146 91.242571 
L 190.538146 90.823863 
L 190.684337 90.823863 
L 190.684337 90.405156 
L 191.325406 90.405156 
L 191.325406 89.986449 
L 192.247937 89.986449 
L 192.247937 89.567741 
L 193.242593 89.567741 
L 193.242593 89.149034 
L 193.854165 89.149034 
L 193.854165 88.730327 
L 194.975394 88.730327 
L 194.975394 88.311619 
L 196.289343 88.311619 
L 196.289343 87.892912 
L 197.34076 87.892912 
L 197.34076 87.474205 
L 205.636742 87.474205 
L 205.636742 87.055497 
L 205.782933 87.055497 
L 205.782933 86.63679 
L 206.186216 86.63679 
L 206.186216 86.218083 
L 206.332407 86.218083 
L 206.424002 85.380668 
L 206.973476 85.380668 
L 206.973476 84.961961 
L 207.135962 84.961961 
L 207.135962 84.543253 
L 207.346533 84.543253 
L 207.346533 84.124546 
L 207.896007 84.124546 
L 207.896007 83.705839 
L 208.341189 83.705839 
L 208.341189 83.287131 
L 208.869537 83.287131 
L 208.952761 82.031009 
L 209.502235 82.031009 
L 209.502235 81.612302 
L 210.461856 81.612302 
L 210.502884 80.774887 
L 210.843308 80.774887 
L 210.843308 80.35618 
L 211.261814 80.35618 
L 211.261814 79.937473 
L 211.38794 79.937473 
L 211.38794 79.518765 
L 211.937414 79.518765 
L 211.937414 79.100058 
L 212.822158 79.100058 
L 212.822158 78.681351 
L 212.968349 78.681351 
L 212.968349 78.262643 
L 213.609418 78.262643 
L 213.609418 77.843936 
L 214.531949 77.843936 
L 214.531949 77.425229 
L 215.526605 77.425229 
L 215.526605 77.006521 
L 216.138176 77.006521 
L 216.138176 76.587814 
L 216.288816 76.587814 
L 216.288816 76.169107 
L 216.435007 76.169107 
L 216.435007 75.750399 
L 217.076076 75.750399 
L 217.076076 75.331692 
L 217.92019 75.331692 
L 217.999465 74.07557 
L 218.42187 74.07557 
L 218.42187 73.656863 
L 218.573355 73.656863 
L 218.630429 72.819448 
L 218.77662 72.819448 
L 218.77662 72.400741 
L 218.993263 72.400741 
L 219.080938 70.725911 
L 219.162097 70.725911 
L 219.162097 70.307204 
L 219.417689 70.307204 
L 219.512509 69.051082 
L 219.553537 69.051082 
L 219.604835 67.79496 
L 219.893961 67.79496 
L 219.893961 67.376253 
L 220.026093 67.376253 
L 220.026093 66.957545 
L 220.155976 66.957545 
L 220.243569 65.282716 
L 220.312467 65.282716 
L 220.34022 64.445301 
L 221.105838 64.445301 
L 221.188725 63.607887 
L 221.334876 63.607887 
L 221.334876 63.189179 
L 221.946448 63.189179 
L 222.040014 62.351765 
L 222.234558 62.351765 
L 222.234558 61.933057 
L 222.784032 61.933057 
L 222.784032 61.51435 
L 223.561507 61.51435 
L 223.561507 61.095643 
L 223.983912 61.095643 
L 223.983912 60.676935 
L 224.381627 60.676935 
L 224.386447 59.839521 
L 224.638274 59.839521 
L 224.64298 59.002106 
L 225.466192 59.002106 
L 225.549079 58.164691 
L 225.588135 58.164691 
L 225.588135 57.745984 
L 225.833985 57.745984 
L 225.833985 57.327277 
L 226.112161 57.327277 
L 226.112161 56.908569 
L 226.534566 56.908569 
L 226.534566 56.489862 
L 227.188927 56.489862 
L 227.193633 55.652447 
L 227.769799 55.652447 
L 227.769799 55.23374 
L 228.138789 55.23374 
L 228.138789 54.815033 
L 228.951132 54.815033 
L 228.951132 54.396325 
L 229.419973 54.396325 
L 229.419973 53.977618 
L 229.881786 53.977618 
L 229.948489 53.140203 
L 230.295847 53.140203 
L 230.295847 52.721496 
L 232.231661 52.721496 
L 232.231661 52.302789 
L 232.499143 52.302789 
L 232.499143 51.884081 
L 232.886632 51.884081 
L 232.886632 51.465374 
L 233.412993 51.465374 
L 233.412993 51.046667 
L 235.228245 51.046667 
L 235.228245 50.627959 
L 238.932439 50.627959 
L 238.932439 50.209252 
L 242.818947 50.209252 
L 242.818947 49.790545 
L 243.987232 49.790545 
L 243.987232 49.371837 
L 244.343879 49.371837 
L 244.343879 48.95313 
L 247.261851 48.95313 
L 247.261851 48.534423 
L 251.8696 48.534423 
L 251.8696 48.115715 
L 253.037885 48.115715 
L 253.037885 47.697008 
L 253.394532 47.697008 
L 253.394532 47.278301 
L 256.312504 47.278301 
L 256.312504 46.859593 
L 261.349484 46.859593 
L 261.349484 46.440886 
L 263.71485 46.440886 
L 263.71485 46.022179 
L 273.104426 46.022179 
L 273.104426 45.603471 
L 273.250617 45.603471 
L 273.250617 45.184764 
L 273.404314 45.184764 
L 273.510052 44.347349 
L 273.891686 44.347349 
L 273.891686 43.928642 
L 274.184171 43.928642 
L 274.267058 43.091227 
L 274.330362 43.091227 
L 274.413249 42.253813 
L 274.814217 42.253813 
L 274.814217 41.835105 
L 274.971431 41.835105 
L 275.054318 40.997691 
L 275.808873 40.997691 
L 275.893962 40.160276 
L 275.976849 40.160276 
L 275.976849 39.741569 
L 276.420445 39.741569 
L 276.420445 39.322861 
L 276.888618 39.322861 
L 276.971505 38.485447 
L 277.50019 38.485447 
L 277.583076 37.648032 
L 278.616189 37.648032 
L 278.666468 36.810617 
L 278.812659 36.810617 
L 278.855623 35.554495 
L 279.453728 35.554495 
L 279.453728 35.135788 
L 279.935368 35.135788 
L 280.018255 34.298373 
L 280.376259 34.298373 
L 280.486973 33.042251 
L 280.78944 33.042251 
L 280.827397 32.204837 
L 281.217122 32.204837 
L 281.245903 31.367422 
L 281.363313 31.367422 
L 281.370915 30.530007 
L 281.970772 30.530007 
L 282.004382 29.273885 
L 282.381759 29.273885 
L 282.454967 28.017763 
L 282.763211 28.017763 
L 282.763211 27.599056 
L 282.926913 27.599056 
L 282.926913 27.180349 
L 283.181717 27.180349 
L 283.196091 26.342934 
L 283.563092 26.342934 
L 283.60412 25.505519 
L 283.921569 25.505519 
L 283.944543 24.668105 
L 284.363049 24.668105 
L 284.417666 23.83069 
L 284.533141 23.83069 
L 284.533141 23.411983 
L 286.968319 23.411983 
L 286.968319 22.993275 
L 287.666842 22.993275 
L 287.666842 22.574568 
L 288.608648 22.574568 
L 288.608648 22.155861 
L 289.158122 22.155861 
L 289.158122 21.737153 
L 289.702242 21.737153 
L 289.702242 21.318446 
L 290.781986 21.318446 
L 290.864873 20.481031 
L 292.246744 20.481031 
L 292.246744 20.062324 
L 295.264284 20.062324 
L 295.264284 19.643617 
L 295.794064 19.643617 
L 295.794064 19.224909 
L 297.814938 19.224909 
L 297.814938 18.806202 
L 299.260722 18.806202 
L 299.260722 18.387495 
L 299.865875 18.387495 
L 299.865875 17.968787 
L 301.602335 17.968787 
L 301.602335 17.55008 
L 301.801689 17.55008 
L 301.801689 17.131373 
L 302.983022 17.131373 
L 302.983022 16.712665 
L 312.803036 16.712665 
L 312.803036 16.293958 
L 313.971321 16.293958 
L 313.971321 15.875251 
L 314.327968 15.875251 
L 314.327968 15.456543 
L 314.73885 15.456543 
L 314.73885 15.037836 
L 315.907134 15.037836 
L 315.920183 14.200421 
L 316.263782 14.200421 
L 316.263782 13.781714 
L 317.088467 13.781714 
L 317.088467 13.363007 
L 317.24594 13.363007 
L 317.24594 12.944299 
L 317.445115 12.944299 
L 317.445115 12.525592 
L 319.181754 12.525592 
L 319.181754 12.106885 
L 320.363087 12.106885 
L 320.363087 11.688177 
L 343.388403 11.688177 
L 343.388403 11.26947 
L 345.324217 11.26947 
L 345.324217 10.850763 
L 346.505549 10.850763 
L 346.505549 10.432055 
L 348.600278 10.432055 
L 348.600278 10.013348 
L 350.536092 10.013348 
L 350.536092 9.594641 
L 351.717424 9.594641 
L 351.717424 9.175933 
L 353.18018 9.175933 
L 353.18018 8.757226 
L 355.115994 8.757226 
L 355.115994 8.338519 
L 356.076332 8.338519 
L 356.076332 7.919811 
L 356.297327 7.919811 
L 356.297327 7.501104 
L 357.156077 7.501104 
L 357.238964 6.663689 
L 361.638374 6.663689 
L 361.638374 6.244982 
L 364.189028 6.244982 
L 364.189028 5.826275 
L 453.192 5.826275 
L 453.192 5.826275 
" style="fill:none;stroke:#bf00bf;stroke-linecap:square;stroke-width:3;"/>
   </g>
   <g id="line2d_53">
    <path clip-path="url(#p270ab89ffc)" style="fill:none;stroke:#bf00bf;stroke-linecap:square;stroke-width:3;"/>
   </g>
   <g id="line2d_54">
    <path clip-path="url(#p270ab89ffc)" d="M 34.16 118.877255 
L 140.213968 118.877255 
L 140.213968 118.458548 
L 141.245799 118.458548 
L 141.245799 118.03984 
L 141.874709 118.03984 
L 141.874709 117.621133 
L 142.404401 117.621133 
L 142.404401 117.202426 
L 142.90654 117.202426 
L 142.90654 116.783718 
L 143.07424 116.783718 
L 143.07424 116.365011 
L 143.436232 116.365011 
L 143.436232 115.946304 
L 143.70143 115.946304 
L 143.70143 115.527596 
L 144.106071 115.527596 
L 144.106071 115.108889 
L 144.733262 115.108889 
L 144.733262 114.690182 
L 147.657423 114.690182 
L 147.657423 114.271474 
L 148.689254 114.271474 
L 148.689254 113.852767 
L 150.819839 113.852767 
L 150.819839 113.43406 
L 152.480581 113.43406 
L 152.480581 113.015352 
L 153.010272 113.015352 
L 153.010272 112.596645 
L 153.680112 112.596645 
L 153.680112 112.177938 
L 154.307302 112.177938 
L 154.307302 111.75923 
L 158.263294 111.75923 
L 158.263294 111.340523 
L 164.992877 111.340523 
L 164.992877 110.921816 
L 166.230665 110.921816 
L 166.230665 110.503108 
L 166.653619 110.503108 
L 166.653619 110.084401 
L 167.18331 110.084401 
L 167.18331 109.665694 
L 167.853149 109.665694 
L 167.891406 108.828279 
L 168.421097 108.828279 
L 168.48034 107.990864 
L 169.090937 107.990864 
L 169.090937 107.572157 
L 169.718127 107.572157 
L 169.718127 107.15345 
L 172.255548 107.15345 
L 172.255548 106.734742 
L 172.436332 106.734742 
L 172.436332 106.316035 
L 172.600396 106.316035 
L 172.604391 105.47862 
L 173.674119 105.47862 
L 173.674119 105.059913 
L 173.916289 105.059913 
L 173.916289 104.641206 
L 174.038655 104.641206 
L 174.038655 104.222498 
L 174.261137 104.222498 
L 174.261137 103.803791 
L 174.445981 103.803791 
L 174.445981 103.385084 
L 174.790829 103.385084 
L 174.790829 102.966376 
L 175.11582 102.966376 
L 175.11582 102.547669 
L 175.460668 102.547669 
L 175.460668 102.128962 
L 175.74301 102.128962 
L 175.74301 101.710254 
L 176.087859 101.710254 
L 176.087859 101.291547 
L 177.169701 101.291547 
L 177.169701 100.87284 
L 178.830442 100.87284 
L 178.830442 100.454132 
L 179.360134 100.454132 
L 179.360134 100.035425 
L 179.699002 100.035425 
L 179.699002 99.616718 
L 180.029973 99.616718 
L 180.043851 98.779303 
L 180.657163 98.779303 
L 180.657163 98.360595 
L 181.440744 98.360595 
L 181.440744 97.941888 
L 182.875008 97.941888 
L 182.875008 97.523181 
L 184.613156 97.523181 
L 184.613156 97.104473 
L 186.906111 97.104473 
L 186.906111 96.685766 
L 187.172633 96.685766 
L 187.172633 96.267059 
L 187.408309 96.267059 
L 187.408309 95.848351 
L 187.937942 95.848351 
L 187.937942 95.429644 
L 188.101909 95.429644 
L 188.204465 94.592229 
L 188.222893 94.592229 
L 188.222893 94.173522 
L 188.44014 94.173522 
L 188.44014 93.754815 
L 189.133741 93.754815 
L 189.133741 93.336107 
L 189.254724 93.336107 
L 189.254724 92.9174 
L 189.397455 92.9174 
L 189.397455 92.498693 
L 190.429286 92.498693 
L 190.429286 92.079985 
L 191.678629 92.079985 
L 191.678629 91.661278 
L 192.71046 91.661278 
L 192.71046 91.242571 
L 197.511982 91.242571 
L 197.511982 90.823863 
L 197.778505 90.823863 
L 197.778505 90.405156 
L 198.01418 90.405156 
L 198.01418 89.986449 
L 198.707781 89.986449 
L 198.707781 89.567741 
L 198.828765 89.567741 
L 198.828765 89.149034 
L 199.036046 89.149034 
L 199.036046 88.730327 
L 200.003326 88.730327 
L 200.067877 87.892912 
L 202.2845 87.892912 
L 202.2845 87.474205 
L 209.641917 87.474205 
L 209.641917 87.055497 
L 211.68502 87.055497 
L 211.68502 86.63679 
L 211.951543 86.63679 
L 211.951543 86.218083 
L 212.187218 86.218083 
L 212.187218 85.799375 
L 212.880819 85.799375 
L 212.922808 84.961961 
L 213.001803 84.961961 
L 213.001803 84.543253 
L 213.18933 84.543253 
L 213.18933 84.124546 
L 213.425006 84.124546 
L 213.425006 83.705839 
L 214.118606 83.705839 
L 214.176364 82.868424 
L 214.23959 82.868424 
L 214.23959 82.449717 
L 214.774412 82.449717 
L 214.774412 82.031009 
L 215.00107 82.031009 
L 215.00107 81.612302 
L 215.414152 81.612302 
L 215.414152 81.193595 
L 216.09456 81.193595 
L 216.116214 80.35618 
L 216.457538 80.35618 
L 216.457538 79.937473 
L 216.986327 79.937473 
L 216.986327 79.518765 
L 217.695325 79.518765 
L 217.695325 79.100058 
L 218.832873 79.100058 
L 218.832873 78.681351 
L 218.947691 78.681351 
L 218.947691 78.262643 
L 219.180992 78.262643 
L 219.214213 77.425229 
L 219.292539 77.425229 
L 219.292539 77.006521 
L 219.449889 77.006521 
L 219.559062 75.750399 
L 219.794737 75.750399 
L 219.794737 75.331692 
L 220.024771 75.331692 
L 220.024771 74.912985 
L 220.143489 74.912985 
L 220.143489 74.494277 
L 220.264473 74.494277 
L 220.264473 74.07557 
L 220.488338 74.07557 
L 220.493615 73.238155 
L 220.609321 73.238155 
L 220.609321 72.819448 
L 220.841733 72.819448 
L 220.841733 72.400741 
L 221.023306 72.400741 
L 221.023306 71.982033 
L 221.216456 71.982033 
L 221.216456 71.563326 
L 221.371425 71.563326 
L 221.439035 70.725911 
L 221.685512 70.725911 
L 221.783883 69.051082 
L 222.041264 69.051082 
L 222.041264 68.632375 
L 222.215204 68.632375 
L 222.320336 67.79496 
L 222.415987 67.79496 
L 222.415987 67.376253 
L 222.668454 67.376253 
L 222.668454 66.957545 
L 222.885043 66.957545 
L 222.885043 66.538838 
L 223.043177 66.538838 
L 223.149956 65.701423 
L 223.512233 65.701423 
L 223.610766 64.864009 
L 223.720208 64.864009 
L 223.814955 64.026594 
L 223.837424 64.026594 
L 223.861844 63.189179 
L 224.065057 63.189179 
L 224.128366 62.351765 
L 224.364042 62.351765 
L 224.364042 61.933057 
L 224.810698 61.933057 
L 224.810698 61.51435 
L 224.930913 61.51435 
L 224.952568 60.676935 
L 225.052742 60.676935 
L 225.057642 59.839521 
L 225.178626 59.839521 
L 225.178626 59.420813 
L 225.340389 59.420813 
L 225.340389 59.002106 
L 225.822681 59.002106 
L 225.822681 58.583399 
L 225.97145 58.583399 
L 226.010229 57.745984 
L 226.276328 57.745984 
L 226.353188 56.908569 
L 226.624447 56.908569 
L 226.637419 56.071155 
L 226.999169 56.071155 
L 226.999169 55.652447 
L 227.405714 55.652447 
L 227.468226 54.815033 
L 227.861814 54.815033 
L 227.861814 54.396325 
L 228.634362 54.396325 
L 228.698004 53.558911 
L 229.296078 53.558911 
L 229.296078 53.140203 
L 230.132268 53.140203 
L 230.132268 52.721496 
L 230.563749 52.721496 
L 230.593411 51.884081 
L 231.077625 51.884081 
L 231.077625 51.465374 
L 231.422474 51.465374 
L 231.422474 51.046667 
L 235.991779 51.046667 
L 235.991779 50.627959 
L 239.400103 50.627959 
L 239.400103 50.209252 
L 244.779435 50.209252 
L 244.779435 49.790545 
L 245.817313 49.790545 
L 245.817313 49.371837 
L 246.071387 49.371837 
L 246.071387 48.95313 
L 246.485852 48.95313 
L 246.485852 48.534423 
L 253.615789 48.534423 
L 253.615789 48.115715 
L 254.653666 48.115715 
L 254.653666 47.697008 
L 254.90774 47.697008 
L 254.90774 47.278301 
L 255.322206 47.278301 
L 255.322206 46.859593 
L 258.748946 46.859593 
L 258.748946 46.440886 
L 259.780778 46.440886 
L 259.780778 46.022179 
L 265.525016 46.022179 
L 265.525016 45.603471 
L 265.791539 45.603471 
L 265.873135 44.766057 
L 266.027215 44.766057 
L 266.027215 44.347349 
L 266.139657 44.347349 
L 266.247858 43.509935 
L 266.375333 43.509935 
L 266.375333 43.091227 
L 266.51438 43.091227 
L 266.51438 42.67252 
L 266.716914 42.67252 
L 266.750056 41.416398 
L 266.841799 41.416398 
L 266.841799 40.997691 
L 266.983436 40.997691 
L 267.068933 40.160276 
L 267.189917 40.160276 
L 267.219112 39.322861 
L 267.443656 39.322861 
L 267.443656 38.904154 
L 267.56464 38.904154 
L 267.56464 38.485447 
L 267.912712 38.485447 
L 268.01636 37.648032 
L 268.033696 37.648032 
L 268.141471 36.810617 
L 268.364479 36.810617 
L 268.368129 35.973203 
L 268.739202 35.973203 
L 268.739202 35.554495 
L 269.208258 35.554495 
L 269.208258 35.135788 
L 269.354818 35.135788 
L 269.461619 34.298373 
L 269.483273 34.298373 
L 269.483273 33.879666 
L 269.842099 33.879666 
L 269.842099 33.460959 
L 270.031835 33.460959 
L 270.108622 32.623544 
L 270.258493 32.623544 
L 270.353387 30.948715 
L 270.645653 30.948715 
L 270.645653 30.530007 
L 270.868026 30.530007 
L 270.868026 30.1113 
L 271.020375 30.1113 
L 271.094684 28.855178 
L 271.158882 28.855178 
L 271.158882 28.436471 
L 271.351983 28.436471 
L 271.373637 27.599056 
L 271.489432 27.599056 
L 271.489432 27.180349 
L 272.188174 27.180349 
L 272.243751 25.924227 
L 272.333443 25.924227 
L 272.333443 25.505519 
L 272.976972 25.505519 
L 273.079941 24.668105 
L 274.614617 24.668105 
L 274.614617 24.249397 
L 277.654951 24.249397 
L 277.710786 23.411983 
L 278.00307 23.411983 
L 278.00307 22.993275 
L 278.377792 22.993275 
L 278.377792 22.574568 
L 278.846849 22.574568 
L 278.846849 22.155861 
L 281.702936 22.155861 
L 281.813326 21.318446 
L 281.972034 21.318446 
L 281.972034 20.899739 
L 283.527856 20.899739 
L 283.527856 20.481031 
L 283.930808 20.481031 
L 283.930808 20.062324 
L 284.765643 20.062324 
L 284.765643 19.643617 
L 285.821172 19.643617 
L 285.821172 19.224909 
L 286.547139 19.224909 
L 286.657363 18.387495 
L 290.539289 18.387495 
L 290.539289 17.968787 
L 290.790526 17.968787 
L 290.790526 17.55008 
L 291.135375 17.55008 
L 291.135375 17.131373 
L 295.704679 17.131373 
L 295.704679 16.712665 
L 298.146494 16.712665 
L 298.146494 16.293958 
L 299.184372 16.293958 
L 299.184372 15.875251 
L 299.438446 15.875251 
L 299.438446 15.456543 
L 299.852912 15.456543 
L 299.852912 15.037836 
L 300.036858 15.037836 
L 300.036858 14.619129 
L 300.873049 14.619129 
L 300.873049 14.200421 
L 301.074736 14.200421 
L 301.074736 13.781714 
L 301.32881 13.781714 
L 301.32881 13.363007 
L 301.743276 13.363007 
L 301.743276 12.944299 
L 301.910926 12.944299 
L 301.910926 12.525592 
L 302.165001 12.525592 
L 302.165001 12.106885 
L 302.579466 12.106885 
L 302.579466 11.688177 
L 326.344031 11.688177 
L 326.344031 11.26947 
L 328.234395 11.26947 
L 328.234395 10.850763 
L 329.070586 10.850763 
L 329.070586 10.432055 
L 331.077845 10.432055 
L 331.077845 10.013348 
L 332.968209 10.013348 
L 332.968209 9.594641 
L 333.8044 9.594641 
L 333.8044 9.175933 
L 335.069995 9.175933 
L 335.069995 8.757226 
L 336.960359 8.757226 
L 336.960359 8.338519 
L 337.367852 8.338519 
L 337.367852 7.919811 
L 337.71597 7.919811 
L 337.796549 7.082397 
L 338.090693 7.082397 
L 338.090693 6.663689 
L 338.559749 6.663689 
L 338.559749 6.244982 
L 341.684935 6.244982 
L 341.684935 5.826275 
L 453.192 5.826275 
L 453.192 5.826275 
" style="fill:none;stroke:#ff0000;stroke-linecap:square;stroke-width:3;"/>
   </g>
   <g id="line2d_55">
    <path clip-path="url(#p270ab89ffc)" style="fill:none;stroke:#ff0000;stroke-linecap:square;stroke-width:3;"/>
   </g>
   <g id="line2d_56">
    <path clip-path="url(#p270ab89ffc)" d="M 243.676 291.28 
L 243.676 3 
" style="fill:none;stroke:#000000;stroke-linecap:square;stroke-width:1.5;"/>
   </g>
   <g id="line2d_57">
    <path clip-path="url(#p270ab89ffc)" d="M 34.16 147.14 
L 453.192 147.14 
" style="fill:none;stroke:#000000;stroke-dasharray:2,3.3;stroke-dashoffset:0;stroke-width:2;"/>
   </g>
   <g id="patch_3">
    <path d="M 34.16 291.28 
L 34.16 3 
" style="fill:none;stroke:#000000;stroke-linecap:square;stroke-linejoin:miter;stroke-width:0.8;"/>
   </g>
   <g id="patch_4">
    <path d="M 453.192 291.28 
L 453.192 3 
" style="fill:none;stroke:#000000;stroke-linecap:square;stroke-linejoin:miter;stroke-width:0.8;"/>
   </g>
   <g id="patch_5">
    <path d="M 34.16 291.28 
L 453.192 291.28 
" style="fill:none;stroke:#000000;stroke-linecap:square;stroke-linejoin:miter;stroke-width:0.8;"/>
   </g>
   <g id="patch_6">
    <path d="M 34.16 3 
L 453.192 3 
" style="fill:none;stroke:#000000;stroke-linecap:square;stroke-linejoin:miter;stroke-width:0.8;"/>
   </g>
   <g id="text_5">
    <!-- f15-f19,40-D -->
    <g transform="translate(318.19261 285.5144)scale(0.2 -0.2)">
     <defs>
      <path d="M 691 4666 
L 3169 4666 
L 3169 4134 
L 1269 4134 
L 1269 2991 
Q 1406 3038 1543 3061 
Q 1681 3084 1819 3084 
Q 2600 3084 3056 2656 
Q 3513 2228 3513 1497 
Q 3513 744 3044 326 
Q 2575 -91 1722 -91 
Q 1428 -91 1123 -41 
Q 819 9 494 109 
L 494 744 
Q 775 591 1075 516 
Q 1375 441 1709 441 
Q 2250 441 2565 725 
Q 2881 1009 2881 1497 
Q 2881 1984 2565 2268 
Q 2250 2553 1709 2553 
Q 1456 2553 1204 2497 
Q 953 2441 691 2322 
L 691 4666 
z
" id="DejaVuSans-35" transform="scale(0.015625)"/>
      <path d="M 703 97 
L 703 672 
Q 941 559 1184 500 
Q 1428 441 1663 441 
Q 2288 441 2617 861 
Q 2947 1281 2994 2138 
Q 2813 1869 2534 1725 
Q 2256 1581 1919 1581 
Q 1219 1581 811 2004 
Q 403 2428 403 3163 
Q 403 3881 828 4315 
Q 1253 4750 1959 4750 
Q 2769 4750 3195 4129 
Q 3622 3509 3622 2328 
Q 3622 1225 3098 567 
Q 2575 -91 1691 -91 
Q 1453 -91 1209 -44 
Q 966 3 703 97 
z
M 1959 2075 
Q 2384 2075 2632 2365 
Q 2881 2656 2881 3163 
Q 2881 3666 2632 3958 
Q 2384 4250 1959 4250 
Q 1534 4250 1286 3958 
Q 1038 3666 1038 3163 
Q 1038 2656 1286 2365 
Q 1534 2075 1959 2075 
z
" id="DejaVuSans-39" transform="scale(0.015625)"/>
      <path d="M 750 794 
L 1409 794 
L 1409 256 
L 897 -744 
L 494 -744 
L 750 256 
L 750 794 
z
" id="DejaVuSans-2c" transform="scale(0.015625)"/>
      <path d="M 2419 4116 
L 825 1625 
L 2419 1625 
L 2419 4116 
z
M 2253 4666 
L 3047 4666 
L 3047 1625 
L 3713 1625 
L 3713 1100 
L 3047 1100 
L 3047 0 
L 2419 0 
L 2419 1100 
L 313 1100 
L 313 1709 
L 2253 4666 
z
" id="DejaVuSans-34" transform="scale(0.015625)"/>
      <path d="M 1259 4147 
L 1259 519 
L 2022 519 
Q 2988 519 3436 956 
Q 3884 1394 3884 2338 
Q 3884 3275 3436 3711 
Q 2988 4147 2022 4147 
L 1259 4147 
z
M 628 4666 
L 1925 4666 
Q 3281 4666 3915 4102 
Q 4550 3538 4550 2338 
Q 4550 1131 3912 565 
Q 3275 0 1925 0 
L 628 0 
L 628 4666 
z
" id="DejaVuSans-44" transform="scale(0.015625)"/>
     </defs>
     <use xlink:href="#DejaVuSans-66"/>
     <use x="35.205078" xlink:href="#DejaVuSans-31"/>
     <use x="98.828125" xlink:href="#DejaVuSans-35"/>
     <use x="162.451172" xlink:href="#DejaVuSans-2d"/>
     <use x="198.535156" xlink:href="#DejaVuSans-66"/>
     <use x="233.740234" xlink:href="#DejaVuSans-31"/>
     <use x="297.363281" xlink:href="#DejaVuSans-39"/>
     <use x="360.986328" xlink:href="#DejaVuSans-2c"/>
     <use x="392.773438" xlink:href="#DejaVuSans-34"/>
     <use x="456.396484" xlink:href="#DejaVuSans-30"/>
     <use x="520.019531" xlink:href="#DejaVuSans-2d"/>
     <use x="556.103516" xlink:href="#DejaVuSans-44"/>
    </g>
   </g>
   <g id="text_6">
    <!-- v2.6.3 -->
    <g style="fill:#808080;" transform="translate(227.99475 286.317512)scale(0.1 -0.1)">
     <defs>
      <path d="M 1228 531 
L 3431 531 
L 3431 0 
L 469 0 
L 469 531 
Q 828 903 1448 1529 
Q 2069 2156 2228 2338 
Q 2531 2678 2651 2914 
Q 2772 3150 2772 3378 
Q 2772 3750 2511 3984 
Q 2250 4219 1831 4219 
Q 1534 4219 1204 4116 
Q 875 4013 500 3803 
L 500 4441 
Q 881 4594 1212 4672 
Q 1544 4750 1819 4750 
Q 2544 4750 2975 4387 
Q 3406 4025 3406 3419 
Q 3406 3131 3298 2873 
Q 3191 2616 2906 2266 
Q 2828 2175 2409 1742 
Q 1991 1309 1228 531 
z
" id="DejaVuSans-32" transform="scale(0.015625)"/>
      <path d="M 684 794 
L 1344 794 
L 1344 0 
L 684 0 
L 684 794 
z
" id="DejaVuSans-2e" transform="scale(0.015625)"/>
      <path d="M 2113 2584 
Q 1688 2584 1439 2293 
Q 1191 2003 1191 1497 
Q 1191 994 1439 701 
Q 1688 409 2113 409 
Q 2538 409 2786 701 
Q 3034 994 3034 1497 
Q 3034 2003 2786 2293 
Q 2538 2584 2113 2584 
z
M 3366 4563 
L 3366 3988 
Q 3128 4100 2886 4159 
Q 2644 4219 2406 4219 
Q 1781 4219 1451 3797 
Q 1122 3375 1075 2522 
Q 1259 2794 1537 2939 
Q 1816 3084 2150 3084 
Q 2853 3084 3261 2657 
Q 3669 2231 3669 1497 
Q 3669 778 3244 343 
Q 2819 -91 2113 -91 
Q 1303 -91 875 529 
Q 447 1150 447 2328 
Q 447 3434 972 4092 
Q 1497 4750 2381 4750 
Q 2619 4750 2861 4703 
Q 3103 4656 3366 4563 
z
" id="DejaVuSans-36" transform="scale(0.015625)"/>
      <path d="M 2597 2516 
Q 3050 2419 3304 2112 
Q 3559 1806 3559 1356 
Q 3559 666 3084 287 
Q 2609 -91 1734 -91 
Q 1441 -91 1130 -33 
Q 819 25 488 141 
L 488 750 
Q 750 597 1062 519 
Q 1375 441 1716 441 
Q 2309 441 2620 675 
Q 2931 909 2931 1356 
Q 2931 1769 2642 2001 
Q 2353 2234 1838 2234 
L 1294 2234 
L 1294 2753 
L 1863 2753 
Q 2328 2753 2575 2939 
Q 2822 3125 2822 3475 
Q 2822 3834 2567 4026 
Q 2313 4219 1838 4219 
Q 1578 4219 1281 4162 
Q 984 4106 628 3988 
L 628 4550 
Q 988 4650 1302 4700 
Q 1616 4750 1894 4750 
Q 2613 4750 3031 4423 
Q 3450 4097 3450 3541 
Q 3450 3153 3228 2886 
Q 3006 2619 2597 2516 
z
" id="DejaVuSans-33" transform="scale(0.015625)"/>
     </defs>
     <use xlink:href="#DejaVuSans-76"/>
     <use x="59.179688" xlink:href="#DejaVuSans-32"/>
     <use x="122.802734" xlink:href="#DejaVuSans-2e"/>
     <use x="154.589844" xlink:href="#DejaVuSans-36"/>
     <use x="218.212891" xlink:href="#DejaVuSans-2e"/>
     <use x="250" xlink:href="#DejaVuSans-33"/>
    </g>
   </g>
   <g id="legend_1">
    <g id="patch_7">
     <path d="M 309.970125 281.28 
L 439.192 281.28 
Q 443.192 281.28 443.192 277.28 
L 443.192 161.855 
Q 443.192 157.855 439.192 157.855 
L 309.970125 157.855 
Q 305.970125 157.855 305.970125 161.855 
L 305.970125 277.28 
Q 305.970125 281.28 309.970125 281.28 
z
" style="fill:#ffffff;opacity:0.2;stroke:#cccccc;stroke-linejoin:miter;"/>
    </g>
    <g id="line2d_58">
     <path d="M 313.970125 174.051875 
L 353.970125 174.051875 
" style="fill:none;stroke:#000000;stroke-linecap:square;stroke-width:3;"/>
    </g>
    <g id="line2d_59"/>
    <g id="text_7">
     <!-- 1: 4/3 -->
     <g transform="translate(369.970125 181.051875)scale(0.2 -0.2)">
      <defs>
       <path d="M 750 794 
L 1409 794 
L 1409 0 
L 750 0 
L 750 794 
z
M 750 3309 
L 1409 3309 
L 1409 2516 
L 750 2516 
L 750 3309 
z
" id="DejaVuSans-3a" transform="scale(0.015625)"/>
       <path d="M 1625 4666 
L 2156 4666 
L 531 -594 
L 0 -594 
L 1625 4666 
z
" id="DejaVuSans-2f" transform="scale(0.015625)"/>
      </defs>
      <use xlink:href="#DejaVuSans-31"/>
      <use x="63.623047" xlink:href="#DejaVuSans-3a"/>
      <use x="97.314453" xlink:href="#DejaVuSans-20"/>
      <use x="129.101562" xlink:href="#DejaVuSans-34"/>
      <use x="192.724609" xlink:href="#DejaVuSans-2f"/>
      <use x="226.416016" xlink:href="#DejaVuSans-33"/>
     </g>
    </g>
    <g id="line2d_60">
     <path d="M 313.970125 203.408125 
L 353.970125 203.408125 
" style="fill:none;stroke:#00bfbf;stroke-linecap:square;stroke-width:3;"/>
    </g>
    <g id="line2d_61"/>
    <g id="text_8">
     <!-- -1: 3/2 -->
     <g transform="translate(369.970125 210.408125)scale(0.2 -0.2)">
      <use xlink:href="#DejaVuSans-2d"/>
      <use x="36.083984" xlink:href="#DejaVuSans-31"/>
      <use x="99.707031" xlink:href="#DejaVuSans-3a"/>
      <use x="133.398438" xlink:href="#DejaVuSans-20"/>
      <use x="165.185547" xlink:href="#DejaVuSans-33"/>
      <use x="228.808594" xlink:href="#DejaVuSans-2f"/>
      <use x="262.5" xlink:href="#DejaVuSans-32"/>
     </g>
    </g>
    <g id="line2d_62">
     <path d="M 313.970125 232.764375 
L 353.970125 232.764375 
" style="fill:none;stroke:#bf00bf;stroke-linecap:square;stroke-width:3;"/>
    </g>
    <g id="line2d_63"/>
    <g id="text_9">
     <!-- -4: 3/2 -->
     <g transform="translate(369.970125 239.764375)scale(0.2 -0.2)">
      <use xlink:href="#DejaVuSans-2d"/>
      <use x="36.083984" xlink:href="#DejaVuSans-34"/>
      <use x="99.707031" xlink:href="#DejaVuSans-3a"/>
      <use x="133.398438" xlink:href="#DejaVuSans-20"/>
      <use x="165.185547" xlink:href="#DejaVuSans-33"/>
      <use x="228.808594" xlink:href="#DejaVuSans-2f"/>
      <use x="262.5" xlink:href="#DejaVuSans-32"/>
     </g>
    </g>
    <g id="line2d_64">
     <path d="M 313.970125 262.120625 
L 353.970125 262.120625 
" style="fill:none;stroke:#ff0000;stroke-linecap:square;stroke-width:3;"/>
    </g>
    <g id="line2d_65"/>
    <g id="text_10">
     <!-- -8: 3/2 -->
     <g transform="translate(369.970125 269.120625)scale(0.2 -0.2)">
      <defs>
       <path d="M 2034 2216 
Q 1584 2216 1326 1975 
Q 1069 1734 1069 1313 
Q 1069 891 1326 650 
Q 1584 409 2034 409 
Q 2484 409 2743 651 
Q 3003 894 3003 1313 
Q 3003 1734 2745 1975 
Q 2488 2216 2034 2216 
z
M 1403 2484 
Q 997 2584 770 2862 
Q 544 3141 544 3541 
Q 544 4100 942 4425 
Q 1341 4750 2034 4750 
Q 2731 4750 3128 4425 
Q 3525 4100 3525 3541 
Q 3525 3141 3298 2862 
Q 3072 2584 2669 2484 
Q 3125 2378 3379 2068 
Q 3634 1759 3634 1313 
Q 3634 634 3220 271 
Q 2806 -91 2034 -91 
Q 1263 -91 848 271 
Q 434 634 434 1313 
Q 434 1759 690 2068 
Q 947 2378 1403 2484 
z
M 1172 3481 
Q 1172 3119 1398 2916 
Q 1625 2713 2034 2713 
Q 2441 2713 2670 2916 
Q 2900 3119 2900 3481 
Q 2900 3844 2670 4047 
Q 2441 4250 2034 4250 
Q 1625 4250 1398 4047 
Q 1172 3844 1172 3481 
z
" id="DejaVuSans-38" transform="scale(0.015625)"/>
      </defs>
      <use xlink:href="#DejaVuSans-2d"/>
      <use x="36.083984" xlink:href="#DejaVuSans-38"/>
      <use x="99.707031" xlink:href="#DejaVuSans-3a"/>
      <use x="133.398438" xlink:href="#DejaVuSans-20"/>
      <use x="165.185547" xlink:href="#DejaVuSans-33"/>
      <use x="228.808594" xlink:href="#DejaVuSans-2f"/>
      <use x="262.5" xlink:href="#DejaVuSans-32"/>
     </g>
    </g>
   </g>
  </g>
 </g>
 <defs>
  <clipPath id="p270ab89ffc">
   <rect height="288.28" width="419.032" x="34.16" y="3"/>
  </clipPath>
 </defs>
</svg>
