<?xml version="1.0" encoding="utf-8" standalone="no"?>
<!DOCTYPE svg PUBLIC "-//W3C//DTD SVG 1.1//EN"
  "http://www.w3.org/Graphics/SVG/1.1/DTD/svg11.dtd">
<svg height="345.6pt" version="1.1" viewBox="0 0 460.8 345.6" width="460.8pt" xmlns="http://www.w3.org/2000/svg" xmlns:xlink="http://www.w3.org/1999/xlink">
 <metadata>
  <rdf:RDF xmlns:cc="http://creativecommons.org/ns#" xmlns:dc="http://purl.org/dc/elements/1.1/" xmlns:rdf="http://www.w3.org/1999/02/22-rdf-syntax-ns#">
   <cc:Work>
    <dc:type rdf:resource="http://purl.org/dc/dcmitype/StillImage"/>
    <dc:date>2023-04-17T18:16:42.177385</dc:date>
    <dc:format>image/svg+xml</dc:format>
    <dc:creator>
     <cc:Agent>
      <dc:title>Matplotlib v3.4.1, https://matplotlib.org/</dc:title>
     </cc:Agent>
    </dc:creator>
   </cc:Work>
  </rdf:RDF>
 </metadata>
 <defs>
  <style type="text/css">*{stroke-linecap:butt;stroke-linejoin:round;}</style>
 </defs>
 <g id="figure_1">
  <g id="patch_1">
   <path d="M 0 345.6 
L 460.8 345.6 
L 460.8 0 
L 0 0 
z
" style="fill:#ffffff;"/>
  </g>
  <g id="axes_1">
   <g id="patch_2">
    <path d="M 34.16 291.28 
L 453.192 291.28 
L 453.192 3 
L 34.16 3 
z
" style="fill:#ffffff;"/>
   </g>
   <g id="matplotlib.axis_1">
    <g id="xtick_1">
     <g id="line2d_1">
      <path clip-path="url(#p245570c29b)" d="M 166.567749 291.28 
L 166.567749 3 
" style="fill:none;stroke:#b0b0b0;stroke-linecap:square;stroke-width:0.8;"/>
     </g>
     <g id="line2d_2">
      <defs>
       <path d="M 0 0 
L 0 3.5 
" id="m9765f1a5bc" style="stroke:#000000;stroke-width:0.8;"/>
      </defs>
      <g>
       <use style="stroke:#000000;stroke-width:0.8;" x="166.567749" xlink:href="#m9765f1a5bc" y="291.28"/>
      </g>
     </g>
     <g id="text_1">
      <!-- -1 -->
      <g transform="translate(156.597436 313.476875)scale(0.2 -0.2)">
       <defs>
        <path d="M 313 2009 
L 1997 2009 
L 1997 1497 
L 313 1497 
L 313 2009 
z
" id="DejaVuSans-2d" transform="scale(0.015625)"/>
        <path d="M 794 531 
L 1825 531 
L 1825 4091 
L 703 3866 
L 703 4441 
L 1819 4666 
L 2450 4666 
L 2450 531 
L 3481 531 
L 3481 0 
L 794 0 
L 794 531 
z
" id="DejaVuSans-31" transform="scale(0.015625)"/>
       </defs>
       <use xlink:href="#DejaVuSans-2d"/>
       <use x="36.083984" xlink:href="#DejaVuSans-31"/>
      </g>
     </g>
    </g>
    <g id="xtick_2">
     <g id="line2d_3">
      <path clip-path="url(#p245570c29b)" d="M 320.784251 291.28 
L 320.784251 3 
" style="fill:none;stroke:#b0b0b0;stroke-linecap:square;stroke-width:0.8;"/>
     </g>
     <g id="line2d_4">
      <g>
       <use style="stroke:#000000;stroke-width:0.8;" x="320.784251" xlink:href="#m9765f1a5bc" y="291.28"/>
      </g>
     </g>
     <g id="text_2">
      <!-- 1 -->
      <g transform="translate(314.421751 313.476875)scale(0.2 -0.2)">
       <use xlink:href="#DejaVuSans-31"/>
      </g>
     </g>
    </g>
    <g id="xtick_3">
     <g id="line2d_5">
      <defs>
       <path d="M 0 0 
L 0 2 
" id="mc0f27a21f2" style="stroke:#000000;stroke-width:0.6;"/>
      </defs>
      <g>
       <use style="stroke:#000000;stroke-width:0.6;" x="35.563143" xlink:href="#mc0f27a21f2" y="291.28"/>
      </g>
     </g>
    </g>
    <g id="xtick_4">
     <g id="line2d_6">
      <g>
       <use style="stroke:#000000;stroke-width:0.6;" x="49.141232" xlink:href="#mc0f27a21f2" y="291.28"/>
      </g>
     </g>
    </g>
    <g id="xtick_5">
     <g id="line2d_7">
      <g>
       <use style="stroke:#000000;stroke-width:0.6;" x="58.77504" xlink:href="#mc0f27a21f2" y="291.28"/>
      </g>
     </g>
    </g>
    <g id="xtick_6">
     <g id="line2d_8">
      <g>
       <use style="stroke:#000000;stroke-width:0.6;" x="66.247601" xlink:href="#mc0f27a21f2" y="291.28"/>
      </g>
     </g>
    </g>
    <g id="xtick_7">
     <g id="line2d_9">
      <g>
       <use style="stroke:#000000;stroke-width:0.6;" x="72.353129" xlink:href="#mc0f27a21f2" y="291.28"/>
      </g>
     </g>
    </g>
    <g id="xtick_8">
     <g id="line2d_10">
      <g>
       <use style="stroke:#000000;stroke-width:0.6;" x="77.515279" xlink:href="#mc0f27a21f2" y="291.28"/>
      </g>
     </g>
    </g>
    <g id="xtick_9">
     <g id="line2d_11">
      <g>
       <use style="stroke:#000000;stroke-width:0.6;" x="81.986936" xlink:href="#mc0f27a21f2" y="291.28"/>
      </g>
     </g>
    </g>
    <g id="xtick_10">
     <g id="line2d_12">
      <g>
       <use style="stroke:#000000;stroke-width:0.6;" x="85.931218" xlink:href="#mc0f27a21f2" y="291.28"/>
      </g>
     </g>
    </g>
    <g id="xtick_11">
     <g id="line2d_13">
      <g>
       <use style="stroke:#000000;stroke-width:0.6;" x="112.671394" xlink:href="#mc0f27a21f2" y="291.28"/>
      </g>
     </g>
    </g>
    <g id="xtick_12">
     <g id="line2d_14">
      <g>
       <use style="stroke:#000000;stroke-width:0.6;" x="126.249483" xlink:href="#mc0f27a21f2" y="291.28"/>
      </g>
     </g>
    </g>
    <g id="xtick_13">
     <g id="line2d_15">
      <g>
       <use style="stroke:#000000;stroke-width:0.6;" x="135.883291" xlink:href="#mc0f27a21f2" y="291.28"/>
      </g>
     </g>
    </g>
    <g id="xtick_14">
     <g id="line2d_16">
      <g>
       <use style="stroke:#000000;stroke-width:0.6;" x="143.355852" xlink:href="#mc0f27a21f2" y="291.28"/>
      </g>
     </g>
    </g>
    <g id="xtick_15">
     <g id="line2d_17">
      <g>
       <use style="stroke:#000000;stroke-width:0.6;" x="149.46138" xlink:href="#mc0f27a21f2" y="291.28"/>
      </g>
     </g>
    </g>
    <g id="xtick_16">
     <g id="line2d_18">
      <g>
       <use style="stroke:#000000;stroke-width:0.6;" x="154.62353" xlink:href="#mc0f27a21f2" y="291.28"/>
      </g>
     </g>
    </g>
    <g id="xtick_17">
     <g id="line2d_19">
      <g>
       <use style="stroke:#000000;stroke-width:0.6;" x="159.095187" xlink:href="#mc0f27a21f2" y="291.28"/>
      </g>
     </g>
    </g>
    <g id="xtick_18">
     <g id="line2d_20">
      <g>
       <use style="stroke:#000000;stroke-width:0.6;" x="163.039469" xlink:href="#mc0f27a21f2" y="291.28"/>
      </g>
     </g>
    </g>
    <g id="xtick_19">
     <g id="line2d_21">
      <g>
       <use style="stroke:#000000;stroke-width:0.6;" x="189.779645" xlink:href="#mc0f27a21f2" y="291.28"/>
      </g>
     </g>
    </g>
    <g id="xtick_20">
     <g id="line2d_22">
      <g>
       <use style="stroke:#000000;stroke-width:0.6;" x="203.357734" xlink:href="#mc0f27a21f2" y="291.28"/>
      </g>
     </g>
    </g>
    <g id="xtick_21">
     <g id="line2d_23">
      <g>
       <use style="stroke:#000000;stroke-width:0.6;" x="212.991542" xlink:href="#mc0f27a21f2" y="291.28"/>
      </g>
     </g>
    </g>
    <g id="xtick_22">
     <g id="line2d_24">
      <g>
       <use style="stroke:#000000;stroke-width:0.6;" x="220.464104" xlink:href="#mc0f27a21f2" y="291.28"/>
      </g>
     </g>
    </g>
    <g id="xtick_23">
     <g id="line2d_25">
      <g>
       <use style="stroke:#000000;stroke-width:0.6;" x="226.569631" xlink:href="#mc0f27a21f2" y="291.28"/>
      </g>
     </g>
    </g>
    <g id="xtick_24">
     <g id="line2d_26">
      <g>
       <use style="stroke:#000000;stroke-width:0.6;" x="231.731781" xlink:href="#mc0f27a21f2" y="291.28"/>
      </g>
     </g>
    </g>
    <g id="xtick_25">
     <g id="line2d_27">
      <g>
       <use style="stroke:#000000;stroke-width:0.6;" x="236.203438" xlink:href="#mc0f27a21f2" y="291.28"/>
      </g>
     </g>
    </g>
    <g id="xtick_26">
     <g id="line2d_28">
      <g>
       <use style="stroke:#000000;stroke-width:0.6;" x="240.14772" xlink:href="#mc0f27a21f2" y="291.28"/>
      </g>
     </g>
    </g>
    <g id="xtick_27">
     <g id="line2d_29">
      <g>
       <use style="stroke:#000000;stroke-width:0.6;" x="266.887896" xlink:href="#mc0f27a21f2" y="291.28"/>
      </g>
     </g>
    </g>
    <g id="xtick_28">
     <g id="line2d_30">
      <g>
       <use style="stroke:#000000;stroke-width:0.6;" x="280.465986" xlink:href="#mc0f27a21f2" y="291.28"/>
      </g>
     </g>
    </g>
    <g id="xtick_29">
     <g id="line2d_31">
      <g>
       <use style="stroke:#000000;stroke-width:0.6;" x="290.099793" xlink:href="#mc0f27a21f2" y="291.28"/>
      </g>
     </g>
    </g>
    <g id="xtick_30">
     <g id="line2d_32">
      <g>
       <use style="stroke:#000000;stroke-width:0.6;" x="297.572355" xlink:href="#mc0f27a21f2" y="291.28"/>
      </g>
     </g>
    </g>
    <g id="xtick_31">
     <g id="line2d_33">
      <g>
       <use style="stroke:#000000;stroke-width:0.6;" x="303.677882" xlink:href="#mc0f27a21f2" y="291.28"/>
      </g>
     </g>
    </g>
    <g id="xtick_32">
     <g id="line2d_34">
      <g>
       <use style="stroke:#000000;stroke-width:0.6;" x="308.840032" xlink:href="#mc0f27a21f2" y="291.28"/>
      </g>
     </g>
    </g>
    <g id="xtick_33">
     <g id="line2d_35">
      <g>
       <use style="stroke:#000000;stroke-width:0.6;" x="313.311689" xlink:href="#mc0f27a21f2" y="291.28"/>
      </g>
     </g>
    </g>
    <g id="xtick_34">
     <g id="line2d_36">
      <g>
       <use style="stroke:#000000;stroke-width:0.6;" x="317.255971" xlink:href="#mc0f27a21f2" y="291.28"/>
      </g>
     </g>
    </g>
    <g id="xtick_35">
     <g id="line2d_37">
      <g>
       <use style="stroke:#000000;stroke-width:0.6;" x="343.996148" xlink:href="#mc0f27a21f2" y="291.28"/>
      </g>
     </g>
    </g>
    <g id="xtick_36">
     <g id="line2d_38">
      <g>
       <use style="stroke:#000000;stroke-width:0.6;" x="357.574237" xlink:href="#mc0f27a21f2" y="291.28"/>
      </g>
     </g>
    </g>
    <g id="xtick_37">
     <g id="line2d_39">
      <g>
       <use style="stroke:#000000;stroke-width:0.6;" x="367.208044" xlink:href="#mc0f27a21f2" y="291.28"/>
      </g>
     </g>
    </g>
    <g id="xtick_38">
     <g id="line2d_40">
      <g>
       <use style="stroke:#000000;stroke-width:0.6;" x="374.680606" xlink:href="#mc0f27a21f2" y="291.28"/>
      </g>
     </g>
    </g>
    <g id="xtick_39">
     <g id="line2d_41">
      <g>
       <use style="stroke:#000000;stroke-width:0.6;" x="380.786133" xlink:href="#mc0f27a21f2" y="291.28"/>
      </g>
     </g>
    </g>
    <g id="xtick_40">
     <g id="line2d_42">
      <g>
       <use style="stroke:#000000;stroke-width:0.6;" x="385.948283" xlink:href="#mc0f27a21f2" y="291.28"/>
      </g>
     </g>
    </g>
    <g id="xtick_41">
     <g id="line2d_43">
      <g>
       <use style="stroke:#000000;stroke-width:0.6;" x="390.419941" xlink:href="#mc0f27a21f2" y="291.28"/>
      </g>
     </g>
    </g>
    <g id="xtick_42">
     <g id="line2d_44">
      <g>
       <use style="stroke:#000000;stroke-width:0.6;" x="394.364222" xlink:href="#mc0f27a21f2" y="291.28"/>
      </g>
     </g>
    </g>
    <g id="xtick_43">
     <g id="line2d_45">
      <g>
       <use style="stroke:#000000;stroke-width:0.6;" x="421.104399" xlink:href="#mc0f27a21f2" y="291.28"/>
      </g>
     </g>
    </g>
    <g id="xtick_44">
     <g id="line2d_46">
      <g>
       <use style="stroke:#000000;stroke-width:0.6;" x="434.682488" xlink:href="#mc0f27a21f2" y="291.28"/>
      </g>
     </g>
    </g>
    <g id="xtick_45">
     <g id="line2d_47">
      <g>
       <use style="stroke:#000000;stroke-width:0.6;" x="444.316295" xlink:href="#mc0f27a21f2" y="291.28"/>
      </g>
     </g>
    </g>
    <g id="xtick_46">
     <g id="line2d_48">
      <g>
       <use style="stroke:#000000;stroke-width:0.6;" x="451.788857" xlink:href="#mc0f27a21f2" y="291.28"/>
      </g>
     </g>
    </g>
    <g id="text_3">
     <!-- log10 of FEvals ratio -->
     <g transform="translate(141.371312 336.833125)scale(0.2 -0.2)">
      <defs>
       <path d="M 603 4863 
L 1178 4863 
L 1178 0 
L 603 0 
L 603 4863 
z
" id="DejaVuSans-6c" transform="scale(0.015625)"/>
       <path d="M 1959 3097 
Q 1497 3097 1228 2736 
Q 959 2375 959 1747 
Q 959 1119 1226 758 
Q 1494 397 1959 397 
Q 2419 397 2687 759 
Q 2956 1122 2956 1747 
Q 2956 2369 2687 2733 
Q 2419 3097 1959 3097 
z
M 1959 3584 
Q 2709 3584 3137 3096 
Q 3566 2609 3566 1747 
Q 3566 888 3137 398 
Q 2709 -91 1959 -91 
Q 1206 -91 779 398 
Q 353 888 353 1747 
Q 353 2609 779 3096 
Q 1206 3584 1959 3584 
z
" id="DejaVuSans-6f" transform="scale(0.015625)"/>
       <path d="M 2906 1791 
Q 2906 2416 2648 2759 
Q 2391 3103 1925 3103 
Q 1463 3103 1205 2759 
Q 947 2416 947 1791 
Q 947 1169 1205 825 
Q 1463 481 1925 481 
Q 2391 481 2648 825 
Q 2906 1169 2906 1791 
z
M 3481 434 
Q 3481 -459 3084 -895 
Q 2688 -1331 1869 -1331 
Q 1566 -1331 1297 -1286 
Q 1028 -1241 775 -1147 
L 775 -588 
Q 1028 -725 1275 -790 
Q 1522 -856 1778 -856 
Q 2344 -856 2625 -561 
Q 2906 -266 2906 331 
L 2906 616 
Q 2728 306 2450 153 
Q 2172 0 1784 0 
Q 1141 0 747 490 
Q 353 981 353 1791 
Q 353 2603 747 3093 
Q 1141 3584 1784 3584 
Q 2172 3584 2450 3431 
Q 2728 3278 2906 2969 
L 2906 3500 
L 3481 3500 
L 3481 434 
z
" id="DejaVuSans-67" transform="scale(0.015625)"/>
       <path d="M 2034 4250 
Q 1547 4250 1301 3770 
Q 1056 3291 1056 2328 
Q 1056 1369 1301 889 
Q 1547 409 2034 409 
Q 2525 409 2770 889 
Q 3016 1369 3016 2328 
Q 3016 3291 2770 3770 
Q 2525 4250 2034 4250 
z
M 2034 4750 
Q 2819 4750 3233 4129 
Q 3647 3509 3647 2328 
Q 3647 1150 3233 529 
Q 2819 -91 2034 -91 
Q 1250 -91 836 529 
Q 422 1150 422 2328 
Q 422 3509 836 4129 
Q 1250 4750 2034 4750 
z
" id="DejaVuSans-30" transform="scale(0.015625)"/>
       <path id="DejaVuSans-20" transform="scale(0.015625)"/>
       <path d="M 2375 4863 
L 2375 4384 
L 1825 4384 
Q 1516 4384 1395 4259 
Q 1275 4134 1275 3809 
L 1275 3500 
L 2222 3500 
L 2222 3053 
L 1275 3053 
L 1275 0 
L 697 0 
L 697 3053 
L 147 3053 
L 147 3500 
L 697 3500 
L 697 3744 
Q 697 4328 969 4595 
Q 1241 4863 1831 4863 
L 2375 4863 
z
" id="DejaVuSans-66" transform="scale(0.015625)"/>
       <path d="M 628 4666 
L 3309 4666 
L 3309 4134 
L 1259 4134 
L 1259 2759 
L 3109 2759 
L 3109 2228 
L 1259 2228 
L 1259 0 
L 628 0 
L 628 4666 
z
" id="DejaVuSans-46" transform="scale(0.015625)"/>
       <path d="M 628 4666 
L 3578 4666 
L 3578 4134 
L 1259 4134 
L 1259 2753 
L 3481 2753 
L 3481 2222 
L 1259 2222 
L 1259 531 
L 3634 531 
L 3634 0 
L 628 0 
L 628 4666 
z
" id="DejaVuSans-45" transform="scale(0.015625)"/>
       <path d="M 191 3500 
L 800 3500 
L 1894 563 
L 2988 3500 
L 3597 3500 
L 2284 0 
L 1503 0 
L 191 3500 
z
" id="DejaVuSans-76" transform="scale(0.015625)"/>
       <path d="M 2194 1759 
Q 1497 1759 1228 1600 
Q 959 1441 959 1056 
Q 959 750 1161 570 
Q 1363 391 1709 391 
Q 2188 391 2477 730 
Q 2766 1069 2766 1631 
L 2766 1759 
L 2194 1759 
z
M 3341 1997 
L 3341 0 
L 2766 0 
L 2766 531 
Q 2569 213 2275 61 
Q 1981 -91 1556 -91 
Q 1019 -91 701 211 
Q 384 513 384 1019 
Q 384 1609 779 1909 
Q 1175 2209 1959 2209 
L 2766 2209 
L 2766 2266 
Q 2766 2663 2505 2880 
Q 2244 3097 1772 3097 
Q 1472 3097 1187 3025 
Q 903 2953 641 2809 
L 641 3341 
Q 956 3463 1253 3523 
Q 1550 3584 1831 3584 
Q 2591 3584 2966 3190 
Q 3341 2797 3341 1997 
z
" id="DejaVuSans-61" transform="scale(0.015625)"/>
       <path d="M 2834 3397 
L 2834 2853 
Q 2591 2978 2328 3040 
Q 2066 3103 1784 3103 
Q 1356 3103 1142 2972 
Q 928 2841 928 2578 
Q 928 2378 1081 2264 
Q 1234 2150 1697 2047 
L 1894 2003 
Q 2506 1872 2764 1633 
Q 3022 1394 3022 966 
Q 3022 478 2636 193 
Q 2250 -91 1575 -91 
Q 1294 -91 989 -36 
Q 684 19 347 128 
L 347 722 
Q 666 556 975 473 
Q 1284 391 1588 391 
Q 1994 391 2212 530 
Q 2431 669 2431 922 
Q 2431 1156 2273 1281 
Q 2116 1406 1581 1522 
L 1381 1569 
Q 847 1681 609 1914 
Q 372 2147 372 2553 
Q 372 3047 722 3315 
Q 1072 3584 1716 3584 
Q 2034 3584 2315 3537 
Q 2597 3491 2834 3397 
z
" id="DejaVuSans-73" transform="scale(0.015625)"/>
       <path d="M 2631 2963 
Q 2534 3019 2420 3045 
Q 2306 3072 2169 3072 
Q 1681 3072 1420 2755 
Q 1159 2438 1159 1844 
L 1159 0 
L 581 0 
L 581 3500 
L 1159 3500 
L 1159 2956 
Q 1341 3275 1631 3429 
Q 1922 3584 2338 3584 
Q 2397 3584 2469 3576 
Q 2541 3569 2628 3553 
L 2631 2963 
z
" id="DejaVuSans-72" transform="scale(0.015625)"/>
       <path d="M 1172 4494 
L 1172 3500 
L 2356 3500 
L 2356 3053 
L 1172 3053 
L 1172 1153 
Q 1172 725 1289 603 
Q 1406 481 1766 481 
L 2356 481 
L 2356 0 
L 1766 0 
Q 1100 0 847 248 
Q 594 497 594 1153 
L 594 3053 
L 172 3053 
L 172 3500 
L 594 3500 
L 594 4494 
L 1172 4494 
z
" id="DejaVuSans-74" transform="scale(0.015625)"/>
       <path d="M 603 3500 
L 1178 3500 
L 1178 0 
L 603 0 
L 603 3500 
z
M 603 4863 
L 1178 4863 
L 1178 4134 
L 603 4134 
L 603 4863 
z
" id="DejaVuSans-69" transform="scale(0.015625)"/>
      </defs>
      <use xlink:href="#DejaVuSans-6c"/>
      <use x="27.783203" xlink:href="#DejaVuSans-6f"/>
      <use x="88.964844" xlink:href="#DejaVuSans-67"/>
      <use x="152.441406" xlink:href="#DejaVuSans-31"/>
      <use x="216.064453" xlink:href="#DejaVuSans-30"/>
      <use x="279.6875" xlink:href="#DejaVuSans-20"/>
      <use x="311.474609" xlink:href="#DejaVuSans-6f"/>
      <use x="372.65625" xlink:href="#DejaVuSans-66"/>
      <use x="407.861328" xlink:href="#DejaVuSans-20"/>
      <use x="439.648438" xlink:href="#DejaVuSans-46"/>
      <use x="497.167969" xlink:href="#DejaVuSans-45"/>
      <use x="560.351562" xlink:href="#DejaVuSans-76"/>
      <use x="619.53125" xlink:href="#DejaVuSans-61"/>
      <use x="680.810547" xlink:href="#DejaVuSans-6c"/>
      <use x="708.59375" xlink:href="#DejaVuSans-73"/>
      <use x="760.693359" xlink:href="#DejaVuSans-20"/>
      <use x="792.480469" xlink:href="#DejaVuSans-72"/>
      <use x="833.59375" xlink:href="#DejaVuSans-61"/>
      <use x="894.873047" xlink:href="#DejaVuSans-74"/>
      <use x="934.082031" xlink:href="#DejaVuSans-69"/>
      <use x="961.865234" xlink:href="#DejaVuSans-6f"/>
     </g>
    </g>
   </g>
   <g id="matplotlib.axis_2">
    <g id="ytick_1">
     <g id="line2d_49">
      <path clip-path="url(#p245570c29b)" d="M 34.16 288.453725 
L 453.192 288.453725 
" style="fill:none;stroke:#b0b0b0;stroke-linecap:square;stroke-width:0.8;"/>
     </g>
     <g id="line2d_50">
      <defs>
       <path d="M 0 0 
L -3.5 0 
" id="mfe4cc137ed" style="stroke:#000000;stroke-width:0.8;"/>
      </defs>
      <g>
       <use style="stroke:#000000;stroke-width:0.8;" x="34.16" xlink:href="#mfe4cc137ed" y="288.453725"/>
      </g>
     </g>
    </g>
    <g id="ytick_2">
     <g id="line2d_51">
      <path clip-path="url(#p245570c29b)" d="M 34.16 217.796863 
L 453.192 217.796863 
" style="fill:none;stroke:#b0b0b0;stroke-linecap:square;stroke-width:0.8;"/>
     </g>
     <g id="line2d_52">
      <g>
       <use style="stroke:#000000;stroke-width:0.8;" x="34.16" xlink:href="#mfe4cc137ed" y="217.796863"/>
      </g>
     </g>
    </g>
    <g id="ytick_3">
     <g id="line2d_53">
      <path clip-path="url(#p245570c29b)" d="M 34.16 147.14 
L 453.192 147.14 
" style="fill:none;stroke:#b0b0b0;stroke-linecap:square;stroke-width:0.8;"/>
     </g>
     <g id="line2d_54">
      <g>
       <use style="stroke:#000000;stroke-width:0.8;" x="34.16" xlink:href="#mfe4cc137ed" y="147.14"/>
      </g>
     </g>
    </g>
    <g id="ytick_4">
     <g id="line2d_55">
      <path clip-path="url(#p245570c29b)" d="M 34.16 76.483137 
L 453.192 76.483137 
" style="fill:none;stroke:#b0b0b0;stroke-linecap:square;stroke-width:0.8;"/>
     </g>
     <g id="line2d_56">
      <g>
       <use style="stroke:#000000;stroke-width:0.8;" x="34.16" xlink:href="#mfe4cc137ed" y="76.483137"/>
      </g>
     </g>
    </g>
    <g id="ytick_5">
     <g id="line2d_57">
      <path clip-path="url(#p245570c29b)" d="M 34.16 5.826275 
L 453.192 5.826275 
" style="fill:none;stroke:#b0b0b0;stroke-linecap:square;stroke-width:0.8;"/>
     </g>
     <g id="line2d_58">
      <g>
       <use style="stroke:#000000;stroke-width:0.8;" x="34.16" xlink:href="#mfe4cc137ed" y="5.826275"/>
      </g>
     </g>
    </g>
    <g id="text_4">
     <!-- proportion of trials -->
     <g transform="translate(19.000625 240.14625)rotate(-90)scale(0.2 -0.2)">
      <defs>
       <path d="M 1159 525 
L 1159 -1331 
L 581 -1331 
L 581 3500 
L 1159 3500 
L 1159 2969 
Q 1341 3281 1617 3432 
Q 1894 3584 2278 3584 
Q 2916 3584 3314 3078 
Q 3713 2572 3713 1747 
Q 3713 922 3314 415 
Q 2916 -91 2278 -91 
Q 1894 -91 1617 61 
Q 1341 213 1159 525 
z
M 3116 1747 
Q 3116 2381 2855 2742 
Q 2594 3103 2138 3103 
Q 1681 3103 1420 2742 
Q 1159 2381 1159 1747 
Q 1159 1113 1420 752 
Q 1681 391 2138 391 
Q 2594 391 2855 752 
Q 3116 1113 3116 1747 
z
" id="DejaVuSans-70" transform="scale(0.015625)"/>
       <path d="M 3513 2113 
L 3513 0 
L 2938 0 
L 2938 2094 
Q 2938 2591 2744 2837 
Q 2550 3084 2163 3084 
Q 1697 3084 1428 2787 
Q 1159 2491 1159 1978 
L 1159 0 
L 581 0 
L 581 3500 
L 1159 3500 
L 1159 2956 
Q 1366 3272 1645 3428 
Q 1925 3584 2291 3584 
Q 2894 3584 3203 3211 
Q 3513 2838 3513 2113 
z
" id="DejaVuSans-6e" transform="scale(0.015625)"/>
      </defs>
      <use xlink:href="#DejaVuSans-70"/>
      <use x="63.476562" xlink:href="#DejaVuSans-72"/>
      <use x="102.339844" xlink:href="#DejaVuSans-6f"/>
      <use x="163.521484" xlink:href="#DejaVuSans-70"/>
      <use x="226.998047" xlink:href="#DejaVuSans-6f"/>
      <use x="288.179688" xlink:href="#DejaVuSans-72"/>
      <use x="329.292969" xlink:href="#DejaVuSans-74"/>
      <use x="368.501953" xlink:href="#DejaVuSans-69"/>
      <use x="396.285156" xlink:href="#DejaVuSans-6f"/>
      <use x="457.466797" xlink:href="#DejaVuSans-6e"/>
      <use x="520.845703" xlink:href="#DejaVuSans-20"/>
      <use x="552.632812" xlink:href="#DejaVuSans-6f"/>
      <use x="613.814453" xlink:href="#DejaVuSans-66"/>
      <use x="649.019531" xlink:href="#DejaVuSans-20"/>
      <use x="680.806641" xlink:href="#DejaVuSans-74"/>
      <use x="720.015625" xlink:href="#DejaVuSans-72"/>
      <use x="761.128906" xlink:href="#DejaVuSans-69"/>
      <use x="788.912109" xlink:href="#DejaVuSans-61"/>
      <use x="850.191406" xlink:href="#DejaVuSans-6c"/>
      <use x="877.974609" xlink:href="#DejaVuSans-73"/>
     </g>
    </g>
   </g>
   <g id="line2d_59">
    <path clip-path="url(#p245570c29b)" d="M 34.16 288.453725 
L 49.644146 288.453725 
L 49.644146 288.035018 
L 57.825248 288.035018 
L 57.825248 287.616311 
L 61.419448 287.616311 
L 61.419448 287.197603 
L 63.985718 287.197603 
L 63.985718 286.778896 
L 64.122682 286.778896 
L 64.122682 286.360189 
L 68.112494 286.360189 
L 68.112494 285.941481 
L 69.06935 285.941481 
L 69.06935 285.522774 
L 81.690583 285.522774 
L 81.690583 285.104067 
L 81.85197 285.104067 
L 81.85197 284.685359 
L 84.183841 284.685359 
L 84.183841 284.266652 
L 120.545622 284.266652 
L 120.545622 283.847945 
L 125.090082 283.847945 
L 125.090082 283.429237 
L 127.170998 283.429237 
L 127.170998 283.01053 
L 127.419671 283.01053 
L 127.419671 282.591823 
L 145.564872 282.591823 
L 145.564872 282.173115 
L 146.304144 282.173115 
L 146.304144 281.754408 
L 152.377487 281.754408 
L 152.377487 281.335701 
L 152.515638 281.335701 
L 152.515638 280.916993 
L 152.653097 280.916993 
L 152.653097 280.498286 
L 153.652804 280.498286 
L 153.745973 279.660871 
L 154.485246 279.660871 
L 154.485246 279.242164 
L 156.650146 279.242164 
L 156.650146 278.823457 
L 156.78207 278.823457 
L 156.78207 278.404749 
L 157.340174 278.404749 
L 157.340174 277.986042 
L 157.781776 277.986042 
L 157.781776 277.567335 
L 158.079447 277.567335 
L 158.079447 277.148627 
L 159.906444 277.148627 
L 159.906444 276.72992 
L 160.043408 276.72992 
L 160.043408 276.311213 
L 160.225558 276.311213 
L 160.225558 275.892505 
L 160.558589 275.892505 
L 160.645716 275.055091 
L 160.673501 275.055091 
L 160.78268 273.798969 
L 161.40453 273.798969 
L 161.40453 273.380261 
L 163.192033 273.380261 
L 163.192033 272.961554 
L 164.03322 272.961554 
L 164.03322 272.542847 
L 164.15279 272.542847 
L 164.248914 270.868017 
L 164.29094 270.868017 
L 164.29094 270.44931 
L 164.772492 270.44931 
L 164.772492 270.030603 
L 164.899968 270.030603 
L 164.990076 269.193188 
L 165.216477 269.193188 
L 165.216477 268.774481 
L 165.584811 268.774481 
L 165.584811 268.355773 
L 165.729349 268.355773 
L 165.729349 267.937066 
L 166.719059 267.937066 
L 166.719059 267.518359 
L 166.856023 267.518359 
L 166.85721 266.680944 
L 166.994174 266.680944 
L 166.994174 266.262237 
L 168.923323 266.262237 
L 168.923323 265.843529 
L 169.608166 265.843529 
L 169.608166 265.424822 
L 169.759466 265.424822 
L 169.759466 265.006115 
L 170.307308 265.006115 
L 170.307308 264.587407 
L 170.845836 264.587407 
L 170.845836 264.1687 
L 170.983986 264.1687 
L 170.983986 263.749993 
L 171.802692 263.749993 
L 171.802692 263.331285 
L 171.940842 263.331285 
L 171.940842 262.912578 
L 173.771332 262.912578 
L 173.771332 262.493871 
L 173.888439 262.493871 
L 173.888439 262.075163 
L 174.307146 262.075163 
L 174.307146 261.656456 
L 176.095415 261.656456 
L 176.095415 261.237749 
L 176.491723 261.237749 
L 176.491723 260.819041 
L 177.611309 260.819041 
L 177.611309 260.400334 
L 177.772696 260.400334 
L 177.772696 259.981627 
L 177.900304 259.981627 
L 177.900304 259.562919 
L 178.350581 259.562919 
L 178.436118 258.725505 
L 178.48841 258.725505 
L 178.511968 257.88809 
L 179.141849 257.88809 
L 179.141849 257.469383 
L 179.670827 257.469383 
L 179.756236 256.631968 
L 179.968184 256.631968 
L 180.067136 255.794553 
L 180.104567 255.794553 
L 180.145838 254.957139 
L 180.298402 254.957139 
L 180.298402 254.538431 
L 180.843839 254.538431 
L 180.843839 254.119724 
L 181.32314 254.119724 
L 181.32314 253.701017 
L 182.05156 253.701017 
L 182.082611 252.863602 
L 182.717262 252.863602 
L 182.717262 252.444895 
L 183.744396 252.444895 
L 183.779591 251.60748 
L 183.991539 251.60748 
L 183.991539 251.188773 
L 184.27481 251.188773 
L 184.345236 249.932651 
L 184.423925 249.932651 
L 184.423925 249.513943 
L 184.562075 249.513943 
L 184.64888 248.257821 
L 184.723462 248.257821 
L 184.785845 247.001699 
L 184.846081 247.001699 
L 184.846081 246.582992 
L 185.03008 246.582992 
L 185.125824 245.745577 
L 185.335005 245.745577 
L 185.426389 244.908163 
L 185.729222 244.908163 
L 185.729222 244.489455 
L 185.870819 244.489455 
L 185.870819 244.070748 
L 186.074915 244.070748 
L 186.074915 243.652041 
L 186.39417 243.652041 
L 186.39417 243.233333 
L 186.917183 243.233333 
L 186.917183 242.814626 
L 187.055333 242.814626 
L 187.055333 242.395919 
L 187.391671 242.395919 
L 187.391671 241.977211 
L 187.841801 241.977211 
L 187.841801 241.558504 
L 188.061952 241.558504 
L 188.076515 240.721089 
L 188.701237 240.721089 
L 188.775657 239.883675 
L 189.137689 239.883675 
L 189.137689 239.464967 
L 189.304635 239.464967 
L 189.304635 239.04626 
L 189.732513 239.04626 
L 189.732513 238.627553 
L 190.417525 238.627553 
L 190.417525 238.208845 
L 190.684773 238.208845 
L 190.684773 237.790138 
L 190.976691 237.790138 
L 190.976691 237.371431 
L 191.709511 237.371431 
L 191.734935 236.534016 
L 191.865156 236.534016 
L 191.925498 235.696601 
L 192.190924 235.696601 
L 192.190924 235.277894 
L 192.713102 235.277894 
L 192.713102 234.859187 
L 192.961728 234.859187 
L 192.961728 234.440479 
L 193.375646 234.440479 
L 193.375646 234.021772 
L 193.866732 234.021772 
L 193.866732 233.603065 
L 193.979044 233.603065 
L 194.060489 232.76565 
L 194.167479 232.76565 
L 194.167479 232.346943 
L 194.338397 232.346943 
L 194.376911 231.509528 
L 194.552104 231.509528 
L 194.552104 231.090821 
L 194.663888 231.090821 
L 194.681558 230.253406 
L 195.037338 230.253406 
L 195.037338 229.834699 
L 195.310348 229.834699 
L 195.338104 228.997284 
L 195.519699 228.997284 
L 195.519699 228.578577 
L 195.686264 228.578577 
L 195.686264 228.159869 
L 196.53714 228.159869 
L 196.53714 227.741162 
L 197.387511 227.741162 
L 197.387511 227.322455 
L 197.783769 227.322455 
L 197.890087 226.48504 
L 197.952324 226.48504 
L 197.952324 226.066333 
L 198.072355 226.066333 
L 198.085968 225.228918 
L 198.222933 225.228918 
L 198.296451 224.391503 
L 198.600887 224.391503 
L 198.704913 223.554089 
L 199.16631 223.554089 
L 199.271254 221.879259 
L 199.31531 221.879259 
L 199.413453 221.041845 
L 199.597813 221.041845 
L 199.625625 220.20443 
L 199.709619 220.20443 
L 199.809761 219.367015 
L 199.911356 219.367015 
L 199.984757 218.110893 
L 200.166017 218.110893 
L 200.166017 217.692186 
L 200.443925 217.692186 
L 200.443925 217.273479 
L 200.669601 217.273479 
L 200.669601 216.854771 
L 200.865159 216.854771 
L 200.865159 216.436064 
L 201.165724 216.436064 
L 201.211549 215.598649 
L 201.443631 215.598649 
L 201.496829 214.761235 
L 201.869148 214.761235 
L 201.912741 213.086405 
L 202.212745 213.086405 
L 202.300468 211.830283 
L 202.353746 211.830283 
L 202.459887 210.574161 
L 202.515132 210.574161 
L 202.515132 210.155454 
L 202.626733 210.155454 
L 202.626733 209.736747 
L 202.868854 209.736747 
L 202.868854 209.318039 
L 203.169601 209.318039 
L 203.169601 208.899332 
L 203.29461 208.899332 
L 203.311576 208.061917 
L 203.456373 208.061917 
L 203.456373 207.64321 
L 204.384257 207.64321 
L 204.440572 206.805795 
L 204.543263 206.805795 
L 204.543263 206.387088 
L 204.706414 206.387088 
L 204.706414 205.968381 
L 204.847004 205.968381 
L 204.847004 205.549673 
L 204.975812 205.549673 
L 204.975812 205.130966 
L 205.097746 205.130966 
L 205.097746 204.712259 
L 205.559596 204.712259 
L 205.576273 203.874844 
L 205.731152 203.874844 
L 205.839439 203.037429 
L 206.180984 203.037429 
L 206.235748 202.200015 
L 206.549452 202.200015 
L 206.620027 200.525185 
L 207.287069 200.525185 
L 207.287069 200.106478 
L 207.496412 200.106478 
L 207.496412 199.687771 
L 207.683378 199.687771 
L 207.683378 199.269063 
L 208.118142 199.269063 
L 208.118142 198.850356 
L 208.231914 198.850356 
L 208.322704 198.012941 
L 208.443862 198.012941 
L 208.443862 197.594234 
L 208.762971 197.594234 
L 208.835312 196.756819 
L 208.885874 196.756819 
L 208.941119 195.919405 
L 209.04726 195.919405 
L 209.114981 195.08199 
L 209.226718 195.08199 
L 209.226718 194.663282 
L 209.347442 194.663282 
L 209.347442 194.244575 
L 209.799824 194.244575 
L 209.799824 193.825868 
L 210.195439 193.825868 
L 210.20434 192.988453 
L 210.333504 192.988453 
L 210.333504 192.569746 
L 210.48157 192.569746 
L 210.527238 191.732331 
L 210.678424 191.732331 
L 210.678424 191.313624 
L 211.090613 191.313624 
L 211.130636 190.476209 
L 211.444766 190.476209 
L 211.444766 190.057502 
L 211.712343 190.057502 
L 211.712343 189.638794 
L 212.243779 189.638794 
L 212.315 188.80138 
L 212.455727 188.80138 
L 212.565359 187.545258 
L 213.156914 187.545258 
L 213.156914 187.12655 
L 213.312001 187.12655 
L 213.312001 186.707843 
L 213.656882 186.707843 
L 213.708309 185.870428 
L 213.793846 185.870428 
L 213.793846 185.451721 
L 214.07577 185.451721 
L 214.126826 184.195599 
L 214.278612 184.195599 
L 214.294729 183.358184 
L 214.415576 183.358184 
L 214.523135 182.52077 
L 214.539103 182.52077 
L 214.539103 182.102062 
L 214.841025 182.102062 
L 214.869848 180.84594 
L 215.052973 180.84594 
L 215.131532 180.008526 
L 215.456631 180.008526 
L 215.554692 178.333696 
L 215.636681 178.333696 
L 215.636681 177.914989 
L 215.790834 177.914989 
L 215.790834 177.496282 
L 215.95222 177.496282 
L 215.992446 176.658867 
L 216.067818 176.658867 
L 216.15956 175.821452 
L 216.279766 175.821452 
L 216.378105 173.727916 
L 216.443972 173.727916 
L 216.466347 172.890501 
L 216.64204 172.890501 
L 216.751114 171.634379 
L 216.779004 171.634379 
L 216.779004 171.215672 
L 216.920877 171.215672 
L 216.944073 170.378257 
L 217.088387 170.378257 
L 217.19094 168.703428 
L 217.20562 168.703428 
L 217.272386 167.866013 
L 217.483001 167.866013 
L 217.550294 167.028598 
L 217.694949 167.028598 
L 217.783658 166.191184 
L 217.875784 166.191184 
L 217.875784 165.772476 
L 218.113125 165.772476 
L 218.177967 164.935062 
L 218.284092 164.935062 
L 218.363142 164.097647 
L 218.405388 164.097647 
L 218.405388 163.67894 
L 218.716523 163.67894 
L 218.740514 162.422818 
L 218.862793 162.422818 
L 218.881714 161.585403 
L 218.975517 161.585403 
L 218.975517 161.166696 
L 219.112832 161.166696 
L 219.112832 160.747988 
L 219.317384 160.747988 
L 219.362245 159.910574 
L 219.454348 159.910574 
L 219.563035 159.073159 
L 219.778325 159.073159 
L 219.778325 158.654452 
L 220.329344 158.654452 
L 220.329344 158.235744 
L 220.538273 158.235744 
L 220.538273 157.817037 
L 220.720715 157.817037 
L 220.768816 156.979622 
L 221.010808 156.979622 
L 221.010808 156.560915 
L 221.284251 156.560915 
L 221.284251 156.142208 
L 221.47896 156.142208 
L 221.562159 155.304793 
L 221.725672 155.304793 
L 221.831138 153.211256 
L 222.021951 153.211256 
L 222.097973 152.373842 
L 222.168346 152.373842 
L 222.168346 151.955134 
L 222.34241 151.955134 
L 222.34241 151.536427 
L 222.665965 151.536427 
L 222.705752 150.699012 
L 222.852606 150.699012 
L 222.945808 149.024183 
L 222.987382 149.024183 
L 223.091724 147.768061 
L 223.104543 147.768061 
L 223.157236 146.930646 
L 223.241507 146.930646 
L 223.340396 145.674524 
L 223.417114 145.674524 
L 223.523196 144.418402 
L 223.5749 144.418402 
L 223.5749 143.999695 
L 223.760634 143.999695 
L 223.830997 142.743573 
L 223.878673 142.743573 
L 223.971249 141.906158 
L 224.079669 141.906158 
L 224.183197 139.393914 
L 224.259219 139.393914 
L 224.259219 138.975207 
L 224.401016 138.975207 
L 224.490969 138.137792 
L 224.616107 138.137792 
L 224.616107 137.719085 
L 224.76534 137.719085 
L 224.76534 137.300378 
L 225.568566 137.300378 
L 225.626253 136.462963 
L 226.022562 136.462963 
L 226.022562 136.044256 
L 226.266573 136.044256 
L 226.354275 135.206841 
L 226.67783 135.206841 
L 226.67783 134.788134 
L 227.169101 134.788134 
L 227.231319 133.532012 
L 227.658757 133.532012 
L 227.746933 132.694597 
L 227.823424 132.694597 
L 227.823424 132.27589 
L 227.936665 132.27589 
L 227.961574 131.438475 
L 228.08517 131.438475 
L 228.193277 129.763646 
L 228.350331 129.763646 
L 228.388191 128.926231 
L 228.672688 128.926231 
L 228.74508 128.088816 
L 228.951521 128.088816 
L 229.008103 127.251402 
L 229.361888 127.251402 
L 229.361888 126.832694 
L 229.726117 126.832694 
L 229.766347 125.576572 
L 229.90434 125.576572 
L 230.012809 123.901743 
L 230.042491 123.901743 
L 230.153012 123.064328 
L 230.178314 123.064328 
L 230.178314 122.645621 
L 230.291163 122.645621 
L 230.291163 122.226914 
L 230.609183 122.226914 
L 230.651439 121.389499 
L 230.771053 121.389499 
L 230.788403 120.552084 
L 230.993139 120.552084 
L 230.993139 120.133377 
L 231.361747 120.133377 
L 231.361747 119.71467 
L 231.523134 119.71467 
L 231.593497 118.877255 
L 231.758798 118.877255 
L 231.758798 118.458548 
L 231.983478 118.458548 
L 232.056814 116.365011 
L 232.144864 116.365011 
L 232.144864 115.946304 
L 232.259157 115.946304 
L 232.259157 115.527596 
L 232.408323 115.527596 
L 232.408323 115.108889 
L 233.052337 115.108889 
L 233.052337 114.690182 
L 233.413029 114.690182 
L 233.413029 114.271474 
L 233.5978 114.271474 
L 233.5978 113.852767 
L 233.855005 113.852767 
L 233.855005 113.43406 
L 234.342533 113.43406 
L 234.356044 112.177938 
L 234.476736 112.177938 
L 234.508292 111.340523 
L 234.656663 111.340523 
L 234.656663 110.921816 
L 234.778215 110.921816 
L 234.798154 110.084401 
L 235.155043 110.084401 
L 235.260061 109.246986 
L 235.574871 109.246986 
L 235.60004 107.572157 
L 235.735071 107.572157 
L 235.822892 106.734742 
L 235.852779 106.734742 
L 235.852779 105.897328 
L 236.179781 105.897328 
L 236.179781 105.47862 
L 236.364051 105.47862 
L 236.430695 104.222498 
L 236.592081 104.222498 
L 236.599747 102.966376 
L 236.722638 102.966376 
L 236.722638 102.547669 
L 236.840163 102.547669 
L 236.840163 102.128962 
L 236.99802 102.128962 
L 237.022249 101.291547 
L 237.183636 101.291547 
L 237.278002 100.454132 
L 237.406718 100.454132 
L 237.406718 100.035425 
L 237.811681 100.035425 
L 237.86552 99.19801 
L 238.081745 99.19801 
L 238.081745 98.779303 
L 238.668528 98.779303 
L 238.685143 97.941888 
L 238.896571 97.941888 
L 238.923953 97.104473 
L 239.12832 97.104473 
L 239.12832 96.685766 
L 239.469069 96.685766 
L 239.515507 95.848351 
L 239.901277 95.848351 
L 239.901277 95.429644 
L 240.132773 95.429644 
L 240.132773 95.010937 
L 240.50753 95.010937 
L 240.50753 94.592229 
L 240.809408 94.592229 
L 240.809408 94.173522 
L 240.96845 94.173522 
L 240.970795 93.336107 
L 241.208784 93.336107 
L 241.265774 92.498693 
L 241.680398 92.498693 
L 241.680398 92.079985 
L 241.958306 92.079985 
L 241.958306 91.661278 
L 242.492566 91.661278 
L 242.550257 90.823863 
L 242.828165 90.823863 
L 242.828165 90.405156 
L 243.140186 90.405156 
L 243.140186 89.986449 
L 243.302666 89.986449 
L 243.383529 89.149034 
L 243.486268 89.149034 
L 243.486268 88.730327 
L 243.676 88.730327 
L 243.676 88.311619 
L 243.836613 88.311619 
L 243.90775 87.474205 
L 243.971048 87.474205 
L 243.971048 87.055497 
L 244.0999 87.055497 
L 244.0999 86.63679 
L 244.253388 86.63679 
L 244.253388 86.218083 
L 244.651439 86.218083 
L 244.651439 85.799375 
L 244.840907 85.799375 
L 244.840907 85.380668 
L 245.296688 85.380668 
L 245.296688 84.961961 
L 245.574596 84.961961 
L 245.656145 84.124546 
L 245.753245 84.124546 
L 245.753245 83.705839 
L 246.157705 83.705839 
L 246.157705 83.287131 
L 246.654646 83.287131 
L 246.654646 82.868424 
L 246.783046 82.868424 
L 246.783046 82.449717 
L 246.97253 82.449717 
L 247.073978 81.193595 
L 247.587337 81.193595 
L 247.587337 80.774887 
L 247.834161 80.774887 
L 247.943837 79.937473 
L 247.977236 79.937473 
L 248.082833 79.100058 
L 248.234752 79.100058 
L 248.234752 78.681351 
L 248.356304 78.681351 
L 248.356304 78.262643 
L 248.517691 78.262643 
L 248.517691 77.843936 
L 249.241135 77.843936 
L 249.241135 77.425229 
L 249.514692 77.425229 
L 249.514692 77.006521 
L 250.395998 77.006521 
L 250.395998 76.587814 
L 250.678001 76.587814 
L 250.690267 75.750399 
L 250.849562 75.750399 
L 250.849562 75.331692 
L 251.562227 75.331692 
L 251.562227 74.912985 
L 252.281002 74.912985 
L 252.281002 74.494277 
L 252.610665 74.494277 
L 252.706409 73.238155 
L 252.888573 73.238155 
L 252.888573 72.819448 
L 253.513381 72.819448 
L 253.513381 72.400741 
L 254.0003 72.400741 
L 254.062371 71.563326 
L 254.313796 71.563326 
L 254.340279 70.725911 
L 254.645872 70.725911 
L 254.645872 70.307204 
L 254.901315 70.307204 
L 254.901315 69.888497 
L 255.765502 69.888497 
L 255.875203 69.051082 
L 256.150865 69.051082 
L 256.150865 68.632375 
L 256.353021 68.632375 
L 256.353021 68.213667 
L 256.718275 68.213667 
L 256.718275 67.376253 
L 257.254089 67.376253 
L 257.325256 66.120131 
L 257.430805 66.120131 
L 257.525246 65.282716 
L 258.004245 65.282716 
L 258.064528 64.026594 
L 258.441472 64.026594 
L 258.471957 63.189179 
L 258.578437 63.189179 
L 258.578437 62.770472 
L 259.190333 62.770472 
L 259.190333 62.351765 
L 259.455951 62.351765 
L 259.455951 61.933057 
L 259.827919 61.933057 
L 259.827919 61.51435 
L 260.105827 61.51435 
L 260.105827 61.095643 
L 261.271249 61.095643 
L 261.271249 60.676935 
L 261.519921 60.676935 
L 261.53105 59.839521 
L 262.118569 59.839521 
L 262.1635 59.002106 
L 262.568249 59.002106 
L 262.568249 58.583399 
L 263.092781 58.583399 
L 263.163207 57.327277 
L 263.525105 57.327277 
L 263.536333 56.489862 
L 263.899752 56.489862 
L 263.899752 56.071155 
L 264.137872 56.071155 
L 264.137872 55.652447 
L 264.276022 55.652447 
L 264.276022 55.23374 
L 264.406192 55.23374 
L 264.406192 54.815033 
L 265.221499 54.815033 
L 265.221499 54.396325 
L 265.944519 54.396325 
L 265.944519 53.977618 
L 266.099915 53.977618 
L 266.099915 53.558911 
L 266.301407 53.558911 
L 266.301407 53.140203 
L 266.496223 53.140203 
L 266.496223 52.721496 
L 267.152623 52.721496 
L 267.152623 52.302789 
L 269.146349 52.302789 
L 269.146349 51.884081 
L 270.216786 51.884081 
L 270.216786 51.465374 
L 270.838516 51.465374 
L 270.838516 51.046667 
L 271.008894 51.046667 
L 271.008894 50.209252 
L 271.772139 50.209252 
L 271.815866 49.371837 
L 272.050046 49.371837 
L 272.129027 48.534423 
L 272.406935 48.534423 
L 272.406935 48.115715 
L 273.201944 48.115715 
L 273.201944 47.697008 
L 273.475269 47.697008 
L 273.475269 47.278301 
L 273.832158 47.278301 
L 273.832158 46.859593 
L 274.062788 46.859593 
L 274.062788 46.440886 
L 274.419676 46.440886 
L 274.4666 45.603471 
L 274.761246 45.603471 
L 274.761246 45.184764 
L 275.130324 45.184764 
L 275.130324 44.766057 
L 275.285733 44.766057 
L 275.382977 43.928642 
L 275.733722 43.928642 
L 275.733722 43.509935 
L 275.877288 43.509935 
L 275.918306 42.67252 
L 276.146338 42.67252 
L 276.146338 42.253813 
L 276.307724 42.253813 
L 276.307724 41.835105 
L 276.842163 41.835105 
L 276.842163 41.416398 
L 277.090835 41.416398 
L 277.165718 39.741569 
L 277.463893 39.741569 
L 277.522606 38.904154 
L 277.712565 38.904154 
L 277.746404 38.066739 
L 277.921393 38.066739 
L 277.984281 36.810617 
L 278.639596 36.810617 
L 278.639596 36.39191 
L 278.791252 36.39191 
L 278.791252 35.973203 
L 279.142189 35.973203 
L 279.142189 35.554495 
L 279.26987 35.554495 
L 279.26987 35.135788 
L 279.664447 35.135788 
L 279.664447 34.717081 
L 279.827321 34.717081 
L 279.830194 33.879666 
L 280.075993 33.879666 
L 280.075993 33.460959 
L 280.421748 33.460959 
L 280.421748 33.042251 
L 280.730712 33.042251 
L 280.730712 32.204837 
L 280.981191 32.204837 
L 280.981191 31.786129 
L 281.537683 31.786129 
L 281.537683 31.367422 
L 281.683854 31.367422 
L 281.739435 30.530007 
L 281.91111 30.530007 
L 281.91111 30.1113 
L 282.067693 30.1113 
L 282.159782 29.273885 
L 282.502665 29.273885 
L 282.502665 28.855178 
L 282.751337 28.855178 
L 282.751337 28.436471 
L 282.966227 28.436471 
L 282.966227 28.017763 
L 283.281735 28.017763 
L 283.281735 27.599056 
L 283.817549 27.599056 
L 283.817549 27.180349 
L 284.208907 27.180349 
L 284.208907 26.761641 
L 284.381411 26.761641 
L 284.381411 26.342934 
L 286.289824 26.342934 
L 286.289824 25.924227 
L 286.538496 25.924227 
L 286.538496 25.505519 
L 287.211343 25.505519 
L 287.211343 25.086812 
L 288.044689 25.086812 
L 288.044689 24.249397 
L 288.85166 24.249397 
L 288.85166 23.83069 
L 289.496395 23.83069 
L 289.496395 22.993275 
L 289.656241 22.993275 
L 289.656241 22.574568 
L 290.303366 22.574568 
L 290.303366 22.155861 
L 290.869659 22.155861 
L 290.869659 21.737153 
L 291.755803 21.737153 
L 291.755803 21.318446 
L 293.628073 21.318446 
L 293.628073 20.899739 
L 293.83672 20.899739 
L 293.83672 20.481031 
L 293.984961 20.481031 
L 294.085392 19.643617 
L 295.261943 19.643617 
L 295.261943 18.806202 
L 295.504781 18.806202 
L 295.504781 18.387495 
L 296.068914 18.387495 
L 296.068914 17.968787 
L 296.624527 17.968787 
L 296.624527 17.55008 
L 297.572355 17.55008 
L 297.572355 17.131373 
L 298.945619 17.131373 
L 298.945619 16.712665 
L 303.677882 16.712665 
L 303.677882 16.293958 
L 304.547741 16.293958 
L 304.547741 15.875251 
L 307.206162 15.875251 
L 307.294172 14.619129 
L 307.56305 14.619129 
L 307.56305 13.781714 
L 308.013133 13.781714 
L 308.013133 13.363007 
L 308.370022 13.363007 
L 308.370022 12.944299 
L 311.075694 12.944299 
L 311.075694 12.525592 
L 311.697424 12.525592 
L 311.697424 12.106885 
L 314.060852 12.106885 
L 314.060852 11.688177 
L 314.608149 11.688177 
L 314.608149 11.26947 
L 315.001376 11.26947 
L 315.001376 10.850763 
L 316.059855 10.850763 
L 316.144642 10.013348 
L 316.736196 10.013348 
L 316.736196 9.594641 
L 319.545837 9.594641 
L 319.545837 9.175933 
L 320.523355 9.175933 
L 320.523355 8.757226 
L 321.626753 8.757226 
L 321.626753 8.338519 
L 321.825403 8.338519 
L 321.875425 7.501104 
L 328.070251 7.501104 
L 328.070251 7.082397 
L 333.769622 7.082397 
L 333.769622 6.663689 
L 334.12651 6.663689 
L 334.12651 6.244982 
L 355.860285 6.244982 
L 355.860285 5.826275 
L 453.192 5.826275 
L 453.192 5.826275 
" style="fill:none;stroke:#000000;stroke-linecap:square;stroke-width:3;"/>
   </g>
   <g id="line2d_60">
    <path clip-path="url(#p245570c29b)" style="fill:none;stroke:#000000;stroke-linecap:square;stroke-width:3;"/>
   </g>
   <g id="line2d_61">
    <path clip-path="url(#p245570c29b)" d="M 34.16 158.873631 
L 66.356527 158.873631 
L 66.356527 158.363473 
L 70.861788 158.363473 
L 70.861788 157.853315 
L 71.370392 157.853315 
L 71.370392 157.343157 
L 72.192599 157.343157 
L 72.192599 156.832999 
L 77.426344 156.832999 
L 77.426344 156.322841 
L 83.055125 156.322841 
L 83.055125 155.812684 
L 84.385937 155.812684 
L 84.385937 155.302526 
L 95.941395 155.302526 
L 95.941395 154.792368 
L 112.909298 154.792368 
L 112.909298 154.28221 
L 117.923163 154.28221 
L 117.923163 153.772052 
L 123.158297 153.772052 
L 123.163249 152.751736 
L 123.979115 152.751736 
L 123.979115 152.241579 
L 124.489109 152.241579 
L 124.494061 151.221263 
L 128.566373 151.221263 
L 128.566373 150.711105 
L 129.990099 150.711105 
L 130.053434 149.690789 
L 131.384245 149.690789 
L 131.384245 149.180631 
L 134.37129 149.180631 
L 134.37129 148.670474 
L 136.006598 148.670474 
L 136.006598 148.160316 
L 142.494166 148.160316 
L 142.494166 147.650158 
L 143.510069 147.650158 
L 143.510069 147.14 
L 144.840881 147.14 
L 144.840881 146.629842 
L 145.371649 146.629842 
L 145.371649 146.119684 
L 148.898328 146.119684 
L 148.977464 145.099369 
L 149.599063 145.099369 
L 149.599063 144.589211 
L 150.385514 144.589211 
L 150.385514 144.079053 
L 150.8227 144.079053 
L 150.8227 143.568895 
L 152.532081 143.568895 
L 152.532081 143.058737 
L 153.96224 143.058737 
L 153.96224 142.548579 
L 154.520119 142.548579 
L 154.520119 142.038421 
L 155.760436 142.038421 
L 155.760436 141.528264 
L 156.441467 141.528264 
L 156.441467 141.018106 
L 158.110604 141.018106 
L 158.110604 140.507948 
L 159.441416 140.507948 
L 159.533984 139.487632 
L 161.091666 139.487632 
L 161.170802 138.467316 
L 162.274939 138.467316 
L 162.274939 137.957159 
L 162.764414 137.957159 
L 162.764414 137.447001 
L 163.016038 137.447001 
L 163.016038 136.936843 
L 164.725419 136.936843 
L 164.725419 136.426685 
L 165.110058 136.426685 
L 165.110058 135.916527 
L 165.589937 135.916527 
L 165.589937 135.406369 
L 166.155578 135.406369 
L 166.155578 134.896212 
L 167.288804 134.896212 
L 167.288804 134.386054 
L 167.778279 134.386054 
L 167.778279 133.875896 
L 171.738431 133.875896 
L 171.738431 133.365738 
L 171.862821 133.365738 
L 171.862821 132.85558 
L 173.344756 132.85558 
L 173.344756 132.345422 
L 173.834232 132.345422 
L 173.834232 131.835264 
L 174.956518 131.835264 
L 174.956518 131.325107 
L 175.119144 131.325107 
L 175.182485 130.304791 
L 175.28273 130.304791 
L 175.28273 129.794633 
L 176.024446 129.794633 
L 176.024446 129.284475 
L 176.54287 129.284475 
L 176.54287 128.774317 
L 177.287462 128.774317 
L 177.287462 128.264159 
L 177.572849 128.264159 
L 177.572849 127.754002 
L 178.643901 127.754002 
L 178.643901 127.243844 
L 180.924061 127.243844 
L 180.924061 126.733686 
L 182.559369 126.733686 
L 182.559369 126.223528 
L 183.229573 126.223528 
L 183.229573 125.71337 
L 183.931768 125.71337 
L 183.931768 125.203212 
L 184.056159 125.203212 
L 184.104988 124.182897 
L 187.375823 124.182897 
L 187.476067 123.162581 
L 189.4808 123.162581 
L 189.4808 122.652423 
L 189.766187 122.652423 
L 189.766187 122.142265 
L 191.859807 122.142265 
L 191.859807 121.632107 
L 192.349283 121.632107 
L 192.349283 121.121949 
L 195.046772 121.121949 
L 195.046772 120.611792 
L 195.589551 120.611792 
L 195.589551 120.101634 
L 196.151834 120.101634 
L 196.151834 119.591476 
L 197.827032 119.591476 
L 197.827032 119.081318 
L 198.526641 119.081318 
L 198.526641 118.57116 
L 201.194838 118.57116 
L 201.278926 116.530529 
L 202.313207 116.530529 
L 202.313207 116.020371 
L 202.674288 116.020371 
L 202.674288 115.510213 
L 203.005847 115.510213 
L 203.005847 115.000055 
L 203.11921 115.000055 
L 203.124162 113.97974 
L 204.828591 113.97974 
L 204.833543 112.959424 
L 206.25875 112.959424 
L 206.263702 111.939108 
L 207.581495 111.939108 
L 207.688153 110.918792 
L 207.782889 110.918792 
L 207.782889 110.408635 
L 208.089974 110.408635 
L 208.16911 109.388319 
L 209.005222 109.388319 
L 209.005222 108.878161 
L 209.725274 108.878161 
L 209.725274 108.368003 
L 210.014346 108.368003 
L 210.014346 107.857845 
L 210.719979 107.857845 
L 210.719979 107.347687 
L 211.662829 107.347687 
L 211.723728 106.327372 
L 212.621508 106.327372 
L 212.621508 105.817214 
L 213.153887 105.817214 
L 213.153887 105.307056 
L 213.386413 105.307056 
L 213.386413 104.796898 
L 213.744106 104.796898 
L 213.744106 104.28674 
L 215.02172 104.28674 
L 215.02172 103.776582 
L 215.351309 103.776582 
L 215.401768 102.756267 
L 215.515933 102.756267 
L 215.515933 102.246109 
L 216.729965 102.246109 
L 216.782313 101.225793 
L 218.113125 101.225793 
L 218.153692 100.205477 
L 218.296193 100.205477 
L 218.296193 99.69532 
L 218.628702 99.69532 
L 218.628702 99.185162 
L 220.365174 99.185162 
L 220.365174 98.675004 
L 220.580583 98.675004 
L 220.580583 98.164846 
L 221.54661 98.164846 
L 221.625746 97.14453 
L 222.534883 97.14453 
L 222.577217 96.124215 
L 223.470982 96.124215 
L 223.475007 95.103899 
L 224.03494 95.103899 
L 224.039892 94.083583 
L 224.159331 94.083583 
L 224.17019 92.55311 
L 224.484785 92.55311 
L 224.484785 92.042952 
L 224.97426 92.042952 
L 224.97426 91.532794 
L 225.180363 91.532794 
L 225.196672 90.512478 
L 225.908511 90.512478 
L 225.908511 90.00232 
L 226.397987 90.00232 
L 226.421127 88.982005 
L 226.610522 88.982005 
L 226.610522 88.471847 
L 227.478995 88.471847 
L 227.584191 86.431215 
L 228.614185 86.431215 
L 228.614185 85.921058 
L 229.583972 85.921058 
L 229.588924 84.900742 
L 229.782344 84.900742 
L 229.874311 83.370268 
L 230.289702 83.370268 
L 230.289702 82.86011 
L 230.779178 82.86011 
L 230.779178 82.349953 
L 230.930077 82.349953 
L 230.930077 81.839795 
L 231.054467 81.839795 
L 231.054467 81.329637 
L 231.92501 81.329637 
L 231.92501 80.819479 
L 232.259157 80.819479 
L 232.259157 80.309321 
L 232.414486 80.309321 
L 232.414486 79.799163 
L 234.374131 79.799163 
L 234.474376 78.778848 
L 234.775558 78.778848 
L 234.775558 78.26869 
L 236.147145 78.26869 
L 236.226281 76.738216 
L 236.479109 76.738216 
L 236.479109 76.228058 
L 236.764495 76.228058 
L 236.764495 75.7179 
L 237.762655 75.7179 
L 237.762655 75.207743 
L 238.071517 75.207743 
L 238.071517 74.697585 
L 239.097863 74.697585 
L 239.097863 74.187427 
L 239.780898 74.187427 
L 239.780898 73.677269 
L 241.211057 73.677269 
L 241.211057 73.167111 
L 243.924028 73.167111 
L 243.924028 72.656953 
L 244.12518 72.656953 
L 244.12518 72.146795 
L 244.386712 72.146795 
L 244.386712 71.636638 
L 244.511103 71.636638 
L 244.511103 71.12648 
L 244.936177 71.12648 
L 244.936177 70.616322 
L 245.517475 70.616322 
L 245.517475 70.106164 
L 246.00695 70.106164 
L 246.00695 69.596006 
L 247.830767 69.596006 
L 247.931011 67.555375 
L 249.935744 67.555375 
L 249.935744 67.045217 
L 250.221131 67.045217 
L 250.221131 66.535059 
L 250.823151 66.535059 
L 250.828103 65.514743 
L 251.678848 65.514743 
L 251.678848 65.004586 
L 252.168324 65.004586 
L 252.168324 64.494428 
L 253.27365 64.494428 
L 253.27365 63.98427 
L 254.781197 63.98427 
L 254.781197 63.474112 
L 255.039568 63.474112 
L 255.039568 62.963954 
L 256.278045 62.963954 
L 256.278045 62.453796 
L 257.659024 62.453796 
L 257.718287 61.433481 
L 258.987247 61.433481 
L 258.987247 60.923323 
L 259.111638 60.923323 
L 259.111638 60.413165 
L 261.02847 60.413165 
L 261.02847 59.903007 
L 261.517945 59.903007 
L 261.517945 59.392849 
L 262.244695 59.392849 
L 262.244695 58.882691 
L 262.431301 58.882691 
L 262.531546 57.862376 
L 264.188038 57.862376 
L 264.188038 57.352218 
L 264.536279 57.352218 
L 264.536279 56.84206 
L 264.821666 56.84206 
L 264.884134 55.821744 
L 266.307861 55.821744 
L 266.307861 55.311586 
L 266.807494 55.311586 
L 266.807494 54.801428 
L 268.237832 54.801428 
L 268.237832 54.291271 
L 270.689052 54.291271 
L 270.689052 53.781113 
L 271.174923 53.781113 
L 271.174923 53.270955 
L 271.393165 53.270955 
L 271.393165 52.760797 
L 271.942858 52.760797 
L 271.942858 52.250639 
L 272.32436 52.250639 
L 272.432333 51.230323 
L 274.562313 51.230323 
L 274.562313 50.720166 
L 275.051789 50.720166 
L 275.051789 50.210008 
L 277.561155 50.210008 
L 277.561155 49.69985 
L 278.984882 49.69985 
L 278.984882 49.189692 
L 279.147985 49.189692 
L 279.147985 48.679534 
L 279.637461 48.679534 
L 279.637461 48.169376 
L 282.838367 48.169376 
L 282.838367 47.659219 
L 283.366073 47.659219 
L 283.366073 47.149061 
L 285.00138 47.149061 
L 285.00138 46.638903 
L 285.775458 46.638903 
L 285.775458 46.128745 
L 285.916824 46.128745 
L 285.916824 45.618587 
L 288.740397 45.618587 
L 288.740397 45.108429 
L 292.078198 45.108429 
L 292.078198 44.598271 
L 294.818854 44.598271 
L 294.89799 43.577956 
L 296.743226 43.577956 
L 296.743226 43.067798 
L 297.888867 43.067798 
L 297.888867 42.55764 
L 298.452607 42.55764 
L 298.452607 42.047482 
L 298.593845 42.047482 
L 298.593845 41.537324 
L 299.882766 41.537324 
L 299.882766 41.027166 
L 301.427819 41.027166 
L 301.427819 40.517009 
L 304.755218 40.517009 
L 304.755218 40.006851 
L 305.643686 40.006851 
L 305.643686 39.496693 
L 306.133162 39.496693 
L 306.133162 38.986535 
L 312.342207 38.986535 
L 312.342207 38.476377 
L 314.10484 38.476377 
L 314.10484 37.966219 
L 314.961663 37.966219 
L 314.961663 37.456061 
L 317.658956 37.456061 
L 317.658956 36.945904 
L 317.783347 36.945904 
L 317.783347 36.435746 
L 319.547335 36.435746 
L 319.627387 35.41543 
L 321.103011 35.41543 
L 321.203256 34.395114 
L 322.407647 34.395114 
L 322.407647 33.884956 
L 323.207988 33.884956 
L 323.207988 33.374799 
L 323.493375 33.374799 
L 323.493375 32.864641 
L 325.019228 32.864641 
L 325.019228 32.354483 
L 327.586461 32.354483 
L 327.638684 31.334167 
L 332.224355 31.334167 
L 332.224355 30.824009 
L 341.510077 30.824009 
L 341.510077 30.313851 
L 343.209317 30.313851 
L 343.209317 29.803694 
L 344.447167 29.803694 
L 344.447167 29.293536 
L 346.043036 29.293536 
L 346.043036 28.783378 
L 358.720056 28.783378 
L 358.720056 28.27322 
L 453.192 28.27322 
L 453.192 28.27322 
" style="fill:none;stroke:#00bfbf;stroke-linecap:square;stroke-width:3;"/>
   </g>
   <g id="line2d_62">
    <path clip-path="url(#p245570c29b)" style="fill:none;stroke:#00bfbf;stroke-linecap:square;stroke-width:3;"/>
   </g>
   <g id="line2d_63">
    <path clip-path="url(#p245570c29b)" d="M 34.16 156.560915 
L 73.623659 156.560915 
L 73.623659 155.932854 
L 77.014412 155.932854 
L 77.014412 155.304793 
L 88.988179 155.304793 
L 88.988179 154.676732 
L 91.003399 154.676732 
L 91.003399 154.048671 
L 91.421315 154.048671 
L 91.421315 153.42061 
L 102.588527 153.42061 
L 102.588527 152.792549 
L 103.977099 152.792549 
L 103.977099 152.164488 
L 105.021664 152.164488 
L 105.021664 151.536427 
L 120.588362 151.536427 
L 120.588362 150.908366 
L 123.979115 150.908366 
L 123.979115 150.280305 
L 129.371026 150.280305 
L 129.371026 149.652244 
L 130.494766 149.652244 
L 130.494766 149.024183 
L 137.030073 149.024183 
L 137.030073 148.396122 
L 137.968101 148.396122 
L 137.968101 147.768061 
L 141.341209 147.768061 
L 141.341209 147.14 
L 142.096151 147.14 
L 142.096151 146.511939 
L 142.628535 146.511939 
L 142.628535 145.883878 
L 144.529287 145.883878 
L 144.529287 145.255817 
L 145.061672 145.255817 
L 145.061672 144.627756 
L 147.955326 144.627756 
L 147.955326 143.999695 
L 148.641584 143.999695 
L 148.641584 143.371634 
L 150.181919 143.371634 
L 150.181919 142.743573 
L 150.388462 142.743573 
L 150.388462 142.115512 
L 150.941802 142.115512 
L 150.941802 141.487451 
L 151.074721 141.487451 
L 151.074721 140.85939 
L 151.490826 140.85939 
L 151.490826 140.231329 
L 152.409321 140.231329 
L 152.409321 139.603268 
L 152.808279 139.603268 
L 152.808279 138.975207 
L 153.050713 138.975207 
L 153.050713 138.347146 
L 153.789726 138.347146 
L 153.789726 137.719085 
L 154.089753 137.719085 
L 154.089753 137.091024 
L 155.642153 137.091024 
L 155.642153 136.462963 
L 156.441467 136.462963 
L 156.441467 135.834902 
L 161.389918 135.834902 
L 161.389918 135.206841 
L 162.19269 135.206841 
L 162.19269 134.57878 
L 163.782268 134.57878 
L 163.782268 133.950719 
L 164.625826 133.950719 
L 164.625826 133.322658 
L 164.780671 133.322658 
L 164.780671 132.694597 
L 165.046022 132.694597 
L 165.091175 131.438475 
L 166.408628 131.438475 
L 166.408628 130.810414 
L 167.390075 130.810414 
L 167.390075 130.182353 
L 167.690102 130.182353 
L 167.690102 129.554292 
L 168.809609 129.554292 
L 168.809609 128.926231 
L 169.954003 128.926231 
L 169.954003 128.29817 
L 170.430453 128.29817 
L 170.430453 127.670109 
L 172.200362 127.670109 
L 172.200362 127.042048 
L 173.154883 127.042048 
L 173.154883 126.413987 
L 173.344756 126.413987 
L 173.344756 125.785926 
L 173.646554 125.785926 
L 173.646554 125.157865 
L 175.86102 125.157865 
L 175.86102 124.529804 
L 176.335729 124.529804 
L 176.335729 123.901743 
L 177.252991 123.901743 
L 177.252991 123.273682 
L 177.459468 123.273682 
L 177.459468 122.645621 
L 177.8357 122.645621 
L 177.8357 122.01756 
L 178.23197 122.01756 
L 178.23197 121.389499 
L 178.428614 121.389499 
L 178.428614 120.761438 
L 178.549274 120.761438 
L 178.549274 120.133377 
L 178.769657 120.133377 
L 178.769657 119.505316 
L 183.404153 119.505316 
L 183.404153 118.877255 
L 183.594765 118.877255 
L 183.594765 118.249194 
L 183.994775 118.249194 
L 183.994775 117.621133 
L 186.189348 117.621133 
L 186.189348 116.993072 
L 186.755231 116.993072 
L 186.755231 116.365011 
L 187.246903 116.365011 
L 187.333742 115.108889 
L 188.305911 115.108889 
L 188.305911 114.480828 
L 189.461369 114.480828 
L 189.461369 113.852767 
L 190.853339 113.852767 
L 190.853339 113.224706 
L 191.436048 113.224706 
L 191.436048 112.596645 
L 191.743358 112.596645 
L 191.743358 111.968584 
L 192.149623 111.968584 
L 192.149623 111.340523 
L 197.769801 111.340523 
L 197.769801 110.712462 
L 198.974877 110.712462 
L 198.974877 110.084401 
L 199.163049 110.084401 
L 199.163049 109.45634 
L 199.374024 109.45634 
L 199.374024 108.828279 
L 200.307443 108.828279 
L 200.307443 108.200218 
L 202.606856 108.200218 
L 202.606856 107.572157 
L 203.289891 107.572157 
L 203.289891 106.944096 
L 203.822276 106.944096 
L 203.822276 106.316035 
L 204.598798 106.316035 
L 204.598798 105.687974 
L 205.131183 105.687974 
L 205.131183 105.059913 
L 205.916251 105.059913 
L 205.916251 104.431852 
L 206.448636 104.431852 
L 206.448636 103.803791 
L 206.897698 103.803791 
L 206.897698 103.17573 
L 207.197725 103.17573 
L 207.197725 102.547669 
L 207.430082 102.547669 
L 207.430082 101.919608 
L 207.730109 101.919608 
L 207.730109 101.291547 
L 208.798081 101.291547 
L 208.798081 100.663486 
L 209.149066 100.663486 
L 209.222578 99.407364 
L 209.835325 99.407364 
L 209.92182 97.523181 
L 210.457973 97.523181 
L 210.457973 96.89512 
L 211.144232 96.89512 
L 211.144232 96.267059 
L 211.37015 96.267059 
L 211.37015 95.638998 
L 211.775426 95.638998 
L 211.775426 95.010937 
L 212.010725 95.010937 
L 212.010725 94.382876 
L 212.461685 94.382876 
L 212.461685 93.754815 
L 212.575226 93.754815 
L 212.613332 92.498693 
L 212.756873 92.498693 
L 212.756873 91.870632 
L 213.0569 91.870632 
L 213.0569 91.242571 
L 213.443132 91.242571 
L 213.443132 90.61451 
L 213.743159 90.61451 
L 213.743159 89.986449 
L 216.457127 89.986449 
L 216.457127 89.358388 
L 217.137285 89.358388 
L 217.137285 88.730327 
L 218.261024 88.730327 
L 218.261024 88.102266 
L 220.768263 88.102266 
L 220.768263 87.474205 
L 223.030373 87.474205 
L 223.030373 86.846144 
L 223.38643 86.846144 
L 223.38643 86.218083 
L 224.556976 86.218083 
L 224.556976 85.590022 
L 224.695337 85.590022 
L 224.796331 84.3339 
L 225.196672 84.3339 
L 225.196672 83.705839 
L 225.393317 83.705839 
L 225.393317 83.077778 
L 225.680715 83.077778 
L 225.70137 81.821656 
L 226.01279 81.821656 
L 226.01279 81.193595 
L 226.262855 81.193595 
L 226.262855 80.565534 
L 226.421127 80.565534 
L 226.421127 79.937473 
L 226.602318 79.937473 
L 226.602318 79.309412 
L 226.754526 79.309412 
L 226.825109 77.425229 
L 226.994237 77.425229 
L 226.994237 76.797168 
L 227.28691 76.797168 
L 227.294264 75.541046 
L 228.968992 75.541046 
L 228.968992 74.912985 
L 229.107467 74.912985 
L 229.107467 74.284924 
L 229.501377 74.284924 
L 229.501377 73.656863 
L 230.360963 73.656863 
L 230.360963 73.028802 
L 230.559468 73.028802 
L 230.559468 72.400741 
L 230.893347 72.400741 
L 230.943672 71.144619 
L 231.476056 71.144619 
L 231.476056 70.516558 
L 231.657246 70.516558 
L 231.657246 69.888497 
L 231.836375 69.888497 
L 231.836375 69.260436 
L 232.12203 69.260436 
L 232.216022 67.376253 
L 232.613701 67.376253 
L 232.613701 66.748192 
L 232.808288 66.748192 
L 232.808288 66.120131 
L 233.29996 66.120131 
L 233.360416 64.864009 
L 234.828167 64.864009 
L 234.828167 64.235948 
L 235.069207 64.235948 
L 235.069207 63.607887 
L 235.514426 63.607887 
L 235.514426 62.979826 
L 236.184031 62.979826 
L 236.220138 61.723704 
L 236.527158 61.723704 
L 236.527158 61.095643 
L 236.802847 61.095643 
L 236.906396 59.839521 
L 237.489105 59.839521 
L 237.516421 58.583399 
L 237.671552 58.583399 
L 237.671552 57.955338 
L 238.20268 57.955338 
L 238.20268 57.327277 
L 238.617167 57.327277 
L 238.617167 56.699216 
L 239.576019 56.699216 
L 239.576019 56.071155 
L 240.17558 56.071155 
L 240.17558 55.443094 
L 240.410113 55.443094 
L 240.410113 54.815033 
L 243.408412 54.815033 
L 243.408412 54.186972 
L 244.473076 54.186972 
L 244.473076 53.558911 
L 246.359394 53.558911 
L 246.359394 52.93085 
L 246.851065 52.93085 
L 246.851065 52.302789 
L 247.595271 52.302789 
L 247.595271 51.674728 
L 248.739665 51.674728 
L 248.739665 51.046667 
L 249.065531 51.046667 
L 249.065531 50.418606 
L 250.457502 50.418606 
L 250.457502 49.790545 
L 250.828103 49.790545 
L 250.877773 48.534423 
L 251.040211 48.534423 
L 251.040211 47.906362 
L 251.410158 47.906362 
L 251.410158 47.278301 
L 251.753785 47.278301 
L 251.753785 46.65024 
L 251.972497 46.65024 
L 252.082849 45.394118 
L 252.615234 45.394118 
L 252.615234 44.766057 
L 252.81228 44.766057 
L 252.81228 44.137996 
L 253.383813 44.137996 
L 253.383813 43.509935 
L 256.736949 43.509935 
L 256.736949 42.881874 
L 256.885051 42.881874 
L 256.885051 42.253813 
L 257.423207 42.253813 
L 257.423207 41.625752 
L 257.659024 41.625752 
L 257.659024 40.997691 
L 257.855668 40.997691 
L 257.942025 39.741569 
L 258.628283 39.741569 
L 258.628283 39.113508 
L 260.231971 39.113508 
L 260.231971 38.485447 
L 261.376366 38.485447 
L 261.376366 37.857386 
L 263.021819 37.857386 
L 263.021819 37.229325 
L 264.969946 37.229325 
L 264.969946 36.601264 
L 265.998228 36.601264 
L 266.093685 35.345142 
L 266.194873 35.345142 
L 266.194873 34.717081 
L 270.974312 34.717081 
L 270.974312 34.08902 
L 271.361024 34.08902 
L 271.361024 33.460959 
L 272.179388 33.460959 
L 272.179388 32.832898 
L 272.628992 32.832898 
L 272.628992 32.204837 
L 273.417919 32.204837 
L 273.417919 31.576776 
L 273.614564 31.576776 
L 273.614564 30.948715 
L 274.562313 30.948715 
L 274.562313 30.320654 
L 274.758958 30.320654 
L 274.758958 29.692593 
L 276.940128 29.692593 
L 276.940128 29.064532 
L 278.777741 29.064532 
L 278.780715 27.80841 
L 279.90148 27.80841 
L 279.925109 26.552288 
L 286.436787 26.552288 
L 286.436787 25.924227 
L 288.008241 25.924227 
L 288.008241 25.296166 
L 289.347403 25.296166 
L 289.347403 24.668105 
L 290.747923 24.668105 
L 290.747923 24.040044 
L 291.241073 24.040044 
L 291.241073 23.411983 
L 297.377771 23.411983 
L 297.377771 22.783922 
L 297.686607 22.783922 
L 297.686607 22.155861 
L 298.686679 22.155861 
L 298.686679 21.5278 
L 300.004131 21.5278 
L 300.004131 20.899739 
L 300.644941 20.899739 
L 300.644941 20.271678 
L 300.985578 20.271678 
L 300.985578 19.643617 
L 301.285605 19.643617 
L 301.285605 19.015556 
L 301.816035 19.015556 
L 301.816035 18.387495 
L 305.048867 18.387495 
L 305.106298 17.131373 
L 306.250692 17.131373 
L 306.250692 16.503312 
L 313.830889 16.503312 
L 313.830889 15.875251 
L 314.027534 15.875251 
L 314.027534 15.24719 
L 314.452736 15.24719 
L 314.452736 14.619129 
L 319.193685 14.619129 
L 319.193685 13.991068 
L 320.350735 13.991068 
L 320.350735 13.363007 
L 320.842406 13.363007 
L 320.842406 12.734946 
L 323.056872 12.734946 
L 323.056872 12.106885 
L 324.448843 12.106885 
L 324.448843 11.478824 
L 325.031552 11.478824 
L 325.031552 10.850763 
L 325.745126 10.850763 
L 325.745126 10.222702 
L 327.638684 10.222702 
L 327.638684 9.594641 
L 327.835328 9.594641 
L 327.835328 8.96658 
L 333.001479 8.96658 
L 333.001479 8.338519 
L 344.965654 8.338519 
L 344.965654 7.710458 
L 345.519268 7.710458 
L 345.519268 7.082397 
L 346.17073 7.082397 
L 346.17073 6.454336 
L 359.327063 6.454336 
L 359.327063 5.826275 
L 453.192 5.826275 
L 453.192 5.826275 
" style="fill:none;stroke:#bf00bf;stroke-linecap:square;stroke-width:3;"/>
   </g>
   <g id="line2d_64">
    <path clip-path="url(#p245570c29b)" style="fill:none;stroke:#bf00bf;stroke-linecap:square;stroke-width:3;"/>
   </g>
   <g id="line2d_65">
    <path clip-path="url(#p245570c29b)" d="M 34.16 156.560915 
L 90.1765 156.560915 
L 90.1765 155.932854 
L 95.050375 155.932854 
L 95.050375 155.304793 
L 98.660585 155.304793 
L 98.660585 154.676732 
L 108.564065 154.676732 
L 108.564065 154.048671 
L 113.409662 154.048671 
L 113.409662 153.42061 
L 121.218786 153.42061 
L 121.218786 152.792549 
L 126.568283 152.792549 
L 126.568283 152.164488 
L 131.968789 152.164488 
L 131.968789 151.536427 
L 134.377408 151.536427 
L 134.377408 150.908366 
L 134.582762 150.908366 
L 134.582762 150.280305 
L 136.474478 150.280305 
L 136.474478 149.652244 
L 137.112622 149.652244 
L 137.112622 149.024183 
L 139.456637 149.024183 
L 139.456637 148.396122 
L 141.341209 148.396122 
L 141.341209 147.768061 
L 143.066848 147.768061 
L 143.066848 147.14 
L 152.409321 147.14 
L 152.409321 146.511939 
L 152.970327 146.511939 
L 152.970327 145.883878 
L 155.691981 145.883878 
L 155.691981 145.255817 
L 156.654138 145.255817 
L 156.654138 144.627756 
L 158.246064 144.627756 
L 158.246064 143.999695 
L 158.715662 143.999695 
L 158.715662 143.371634 
L 159.385092 143.371634 
L 159.385092 142.743573 
L 160.207513 142.743573 
L 160.207513 142.115512 
L 164.256736 142.115512 
L 164.256736 141.487451 
L 164.892026 141.487451 
L 164.892026 140.85939 
L 168.166057 140.85939 
L 168.166057 140.231329 
L 168.850602 140.231329 
L 168.850602 139.603268 
L 169.601085 139.603268 
L 169.603554 138.347146 
L 169.812759 138.347146 
L 169.812759 137.719085 
L 170.506957 137.719085 
L 170.506957 137.091024 
L 171.404685 137.091024 
L 171.404685 136.462963 
L 171.874283 136.462963 
L 171.874283 135.834902 
L 172.06586 135.834902 
L 172.06586 135.206841 
L 172.543713 135.206841 
L 172.543713 134.57878 
L 172.70115 134.57878 
L 172.70115 133.950719 
L 174.477429 133.950719 
L 174.477429 133.322658 
L 175.097276 133.322658 
L 175.097276 132.694597 
L 176.008629 132.694597 
L 176.008629 132.066536 
L 176.375051 132.066536 
L 176.375051 131.438475 
L 177.410209 131.438475 
L 177.410209 130.810414 
L 178.08764 130.810414 
L 178.15878 129.554292 
L 178.316081 129.554292 
L 178.316081 128.926231 
L 178.468604 128.926231 
L 178.468604 128.29817 
L 180.361383 128.29817 
L 180.361383 127.670109 
L 180.562346 127.670109 
L 180.562346 127.042048 
L 180.88074 127.042048 
L 180.882504 125.785926 
L 180.993673 125.785926 
L 180.993673 125.157865 
L 181.244473 125.157865 
L 181.244473 124.529804 
L 181.518885 124.529804 
L 181.595223 123.273682 
L 181.913418 123.273682 
L 181.913418 122.645621 
L 183.562678 122.645621 
L 183.562678 122.01756 
L 183.674118 122.01756 
L 183.674118 121.389499 
L 184.492714 121.389499 
L 184.492714 120.761438 
L 185.423216 120.761438 
L 185.423216 120.133377 
L 185.747471 120.133377 
L 185.747471 119.505316 
L 187.991119 119.505316 
L 187.991119 118.877255 
L 188.255897 118.877255 
L 188.255897 118.249194 
L 188.436553 118.249194 
L 188.436553 117.621133 
L 188.547993 117.621133 
L 188.547993 116.993072 
L 189.722542 116.993072 
L 189.722542 116.365011 
L 191.317401 116.365011 
L 191.317401 115.73695 
L 192.046763 115.73695 
L 192.046763 115.108889 
L 192.158203 115.108889 
L 192.158203 114.480828 
L 193.520004 114.480828 
L 193.520004 113.852767 
L 193.720967 113.852767 
L 193.720967 113.224706 
L 194.152294 113.224706 
L 194.152294 112.596645 
L 194.396194 112.596645 
L 194.403095 111.340523 
L 196.815583 111.340523 
L 196.815583 110.712462 
L 200.493306 110.712462 
L 200.493306 110.084401 
L 200.881125 110.084401 
L 200.881125 109.45634 
L 201.950243 109.45634 
L 201.950243 108.828279 
L 202.061683 108.828279 
L 202.061683 108.200218 
L 204.613775 108.200218 
L 204.613775 107.572157 
L 206.539054 107.572157 
L 206.539054 106.944096 
L 207.174344 106.944096 
L 207.174344 106.316035 
L 207.501212 106.316035 
L 207.501212 105.687974 
L 208.136502 105.687974 
L 208.136502 105.059913 
L 209.093137 105.059913 
L 209.093137 104.431852 
L 209.562736 104.431852 
L 209.562736 103.803791 
L 209.728427 103.803791 
L 209.728427 103.17573 
L 210.198026 103.17573 
L 210.232166 101.919608 
L 210.867455 101.919608 
L 210.867455 101.291547 
L 211.395843 101.291547 
L 211.395843 100.663486 
L 211.883404 100.663486 
L 211.883404 100.035425 
L 212.165178 100.035425 
L 212.165178 99.407364 
L 212.572319 99.407364 
L 212.572319 98.779303 
L 212.789276 98.779303 
L 212.845561 97.523181 
L 213.651927 97.523181 
L 213.751433 96.267059 
L 214.039746 96.267059 
L 214.039746 95.638998 
L 214.437487 95.638998 
L 214.437487 95.010937 
L 214.907085 95.010937 
L 214.907085 94.382876 
L 215.343359 94.382876 
L 215.343359 93.754815 
L 215.576515 93.754815 
L 215.576515 93.126754 
L 215.812957 93.126754 
L 215.901532 91.870632 
L 216.482387 91.870632 
L 216.539676 90.61451 
L 217.800918 90.61451 
L 217.800918 89.986449 
L 219.043532 89.986449 
L 219.043532 89.358388 
L 220.768263 89.358388 
L 220.768263 88.730327 
L 221.055326 88.730327 
L 221.055326 88.102266 
L 222.306607 88.102266 
L 222.306607 87.474205 
L 222.874866 87.474205 
L 222.944751 86.218083 
L 223.917407 86.218083 
L 223.917407 85.590022 
L 224.195736 85.590022 
L 224.195736 84.961961 
L 225.157894 84.961961 
L 225.157894 84.3339 
L 225.354967 84.3339 
L 225.354967 83.705839 
L 225.466407 83.705839 
L 225.466407 83.077778 
L 225.929202 83.077778 
L 226.001485 81.193595 
L 226.579639 81.193595 
L 226.579639 80.565534 
L 226.749819 80.565534 
L 226.749819 79.937473 
L 227.173337 79.937473 
L 227.219418 78.681351 
L 227.527617 78.681351 
L 227.527617 78.05329 
L 227.888847 78.05329 
L 227.888847 77.425229 
L 229.005853 77.425229 
L 229.005853 76.797168 
L 229.539412 76.797168 
L 229.641143 75.541046 
L 229.829478 75.541046 
L 229.860656 74.284924 
L 229.972096 74.284924 
L 229.972096 73.656863 
L 230.4988 73.656863 
L 230.4988 73.028802 
L 230.61024 73.028802 
L 230.61024 72.400741 
L 231.208456 72.400741 
L 231.288699 71.144619 
L 231.40942 71.144619 
L 231.40942 70.516558 
L 231.836375 70.516558 
L 231.843746 68.632375 
L 232.044709 68.632375 
L 232.091547 67.376253 
L 232.194571 67.376253 
L 232.194571 66.748192 
L 232.476036 66.748192 
L 232.476036 66.120131 
L 232.726837 66.120131 
L 232.726837 65.49207 
L 234.350203 65.49207 
L 234.350203 64.864009 
L 234.727387 64.864009 
L 234.727387 64.235948 
L 234.838827 64.235948 
L 234.838827 63.607887 
L 235.256075 63.607887 
L 235.256075 62.979826 
L 236.552806 62.979826 
L 236.552806 62.351765 
L 236.753769 62.351765 
L 236.753769 61.723704 
L 237.185096 61.723704 
L 237.185096 61.095643 
L 237.431097 61.095643 
L 237.458677 59.21146 
L 237.659641 59.21146 
L 237.659641 58.583399 
L 238.090968 58.583399 
L 238.090968 57.955338 
L 238.24145 57.955338 
L 238.341768 56.699216 
L 238.990794 56.699216 
L 238.990794 56.071155 
L 239.442891 56.071155 
L 239.442891 55.443094 
L 239.634567 55.443094 
L 239.634567 54.815033 
L 243.601032 54.815033 
L 243.601032 54.186972 
L 245.795499 54.186972 
L 245.795499 53.558911 
L 245.906939 53.558911 
L 245.906939 52.93085 
L 246.039642 52.93085 
L 246.039642 52.302789 
L 246.662535 52.302789 
L 246.662535 51.674728 
L 246.799918 51.674728 
L 246.799918 51.046667 
L 247.593111 51.046667 
L 247.593111 50.418606 
L 248.865138 50.418606 
L 248.865138 49.790545 
L 249.066101 49.790545 
L 249.066101 49.162484 
L 249.497428 49.162484 
L 249.497428 48.534423 
L 249.748229 48.534423 
L 249.748229 47.906362 
L 251.34038 47.906362 
L 251.34038 47.278301 
L 251.728198 47.278301 
L 251.728198 46.65024 
L 251.975669 46.65024 
L 251.975669 46.022179 
L 252.363488 46.022179 
L 252.363488 45.394118 
L 253.593691 45.394118 
L 253.593691 44.766057 
L 253.705131 44.766057 
L 253.705131 44.137996 
L 253.998186 44.137996 
L 253.998186 43.509935 
L 256.57144 43.509935 
L 256.57144 42.881874 
L 256.684729 42.881874 
L 256.684729 42.253813 
L 257.072548 42.253813 
L 257.072548 41.625752 
L 257.590601 41.625752 
L 257.590601 40.997691 
L 257.895658 40.997691 
L 257.97842 39.741569 
L 260.835821 39.741569 
L 260.835821 39.113508 
L 261.022277 39.113508 
L 261.022277 38.485447 
L 261.552235 38.485447 
L 261.552235 37.857386 
L 261.663675 37.857386 
L 261.663675 37.229325 
L 262.847616 37.229325 
L 262.847616 36.601264 
L 264.300733 36.601264 
L 264.300733 35.973203 
L 264.85027 35.973203 
L 264.85027 35.345142 
L 265.34151 35.345142 
L 265.34151 34.717081 
L 265.979654 34.717081 
L 265.979654 34.08902 
L 267.353305 34.08902 
L 267.427351 32.832898 
L 267.991449 32.832898 
L 267.991449 32.204837 
L 268.997062 32.204837 
L 268.997062 31.576776 
L 269.38488 31.576776 
L 269.38488 30.948715 
L 270.20824 30.948715 
L 270.20824 30.320654 
L 271.255344 30.320654 
L 271.255344 29.692593 
L 271.854782 29.692593 
L 271.854782 29.064532 
L 271.966222 29.064532 
L 271.966222 28.436471 
L 272.220035 28.436471 
L 272.220035 27.80841 
L 274.981401 27.80841 
L 274.981401 27.180349 
L 275.092841 27.180349 
L 275.092841 26.552288 
L 278.809393 26.552288 
L 278.809393 25.924227 
L 278.920833 25.924227 
L 278.920833 25.296166 
L 281.273112 25.296166 
L 281.276353 24.040044 
L 282.23527 24.040044 
L 282.23527 23.411983 
L 283.288148 23.411983 
L 283.288148 22.783922 
L 283.827195 22.783922 
L 283.827195 22.155861 
L 284.296794 22.155861 
L 284.296794 21.5278 
L 284.966224 21.5278 
L 284.966224 20.899739 
L 289.074545 20.899739 
L 289.074545 20.271678 
L 291.08634 20.271678 
L 291.08634 19.643617 
L 291.592232 19.643617 
L 291.592232 19.015556 
L 297.033089 19.015556 
L 297.033089 18.387495 
L 297.997307 18.387495 
L 297.997307 17.759434 
L 299.044883 17.759434 
L 299.044883 17.131373 
L 300.678408 17.131373 
L 300.678408 16.503312 
L 303.739911 16.503312 
L 303.739911 15.875251 
L 305.551356 15.875251 
L 305.551356 15.24719 
L 305.662796 15.24719 
L 305.662796 14.619129 
L 305.942514 14.619129 
L 305.942514 13.991068 
L 306.143478 13.991068 
L 306.143478 13.363007 
L 306.574804 13.363007 
L 306.574804 12.734946 
L 306.825605 12.734946 
L 306.825605 12.106885 
L 307.335636 12.106885 
L 307.335636 11.478824 
L 309.347431 11.478824 
L 309.347431 10.850763 
L 310.462255 10.850763 
L 310.462255 10.222702 
L 312.474049 10.222702 
L 312.474049 9.594641 
L 314.290247 9.594641 
L 314.290247 8.96658 
L 316.302042 8.96658 
L 316.302042 8.338519 
L 326.074438 8.338519 
L 326.074438 7.710458 
L 326.462256 7.710458 
L 326.462256 7.082397 
L 341.03221 7.082397 
L 341.03221 6.454336 
L 343.044004 6.454336 
L 343.044004 5.826275 
L 453.192 5.826275 
L 453.192 5.826275 
" style="fill:none;stroke:#ff0000;stroke-linecap:square;stroke-width:3;"/>
   </g>
   <g id="line2d_66">
    <path clip-path="url(#p245570c29b)" style="fill:none;stroke:#ff0000;stroke-linecap:square;stroke-width:3;"/>
   </g>
   <g id="line2d_67">
    <path clip-path="url(#p245570c29b)" d="M 243.676 291.28 
L 243.676 3 
" style="fill:none;stroke:#000000;stroke-linecap:square;stroke-width:1.5;"/>
   </g>
   <g id="line2d_68">
    <path clip-path="url(#p245570c29b)" d="M 34.16 147.14 
L 453.192 147.14 
" style="fill:none;stroke:#000000;stroke-dasharray:2,3.3;stroke-dashoffset:0;stroke-width:2;"/>
   </g>
   <g id="patch_3">
    <path d="M 34.16 291.28 
L 34.16 3 
" style="fill:none;stroke:#000000;stroke-linecap:square;stroke-linejoin:miter;stroke-width:0.8;"/>
   </g>
   <g id="patch_4">
    <path d="M 453.192 291.28 
L 453.192 3 
" style="fill:none;stroke:#000000;stroke-linecap:square;stroke-linejoin:miter;stroke-width:0.8;"/>
   </g>
   <g id="patch_5">
    <path d="M 34.16 291.28 
L 453.192 291.28 
" style="fill:none;stroke:#000000;stroke-linecap:square;stroke-linejoin:miter;stroke-width:0.8;"/>
   </g>
   <g id="patch_6">
    <path d="M 34.16 3 
L 453.192 3 
" style="fill:none;stroke:#000000;stroke-linecap:square;stroke-linejoin:miter;stroke-width:0.8;"/>
   </g>
   <g id="text_5">
    <!-- f6-f8,10-D -->
    <g transform="translate(343.64261 285.5144)scale(0.2 -0.2)">
     <defs>
      <path d="M 2113 2584 
Q 1688 2584 1439 2293 
Q 1191 2003 1191 1497 
Q 1191 994 1439 701 
Q 1688 409 2113 409 
Q 2538 409 2786 701 
Q 3034 994 3034 1497 
Q 3034 2003 2786 2293 
Q 2538 2584 2113 2584 
z
M 3366 4563 
L 3366 3988 
Q 3128 4100 2886 4159 
Q 2644 4219 2406 4219 
Q 1781 4219 1451 3797 
Q 1122 3375 1075 2522 
Q 1259 2794 1537 2939 
Q 1816 3084 2150 3084 
Q 2853 3084 3261 2657 
Q 3669 2231 3669 1497 
Q 3669 778 3244 343 
Q 2819 -91 2113 -91 
Q 1303 -91 875 529 
Q 447 1150 447 2328 
Q 447 3434 972 4092 
Q 1497 4750 2381 4750 
Q 2619 4750 2861 4703 
Q 3103 4656 3366 4563 
z
" id="DejaVuSans-36" transform="scale(0.015625)"/>
      <path d="M 2034 2216 
Q 1584 2216 1326 1975 
Q 1069 1734 1069 1313 
Q 1069 891 1326 650 
Q 1584 409 2034 409 
Q 2484 409 2743 651 
Q 3003 894 3003 1313 
Q 3003 1734 2745 1975 
Q 2488 2216 2034 2216 
z
M 1403 2484 
Q 997 2584 770 2862 
Q 544 3141 544 3541 
Q 544 4100 942 4425 
Q 1341 4750 2034 4750 
Q 2731 4750 3128 4425 
Q 3525 4100 3525 3541 
Q 3525 3141 3298 2862 
Q 3072 2584 2669 2484 
Q 3125 2378 3379 2068 
Q 3634 1759 3634 1313 
Q 3634 634 3220 271 
Q 2806 -91 2034 -91 
Q 1263 -91 848 271 
Q 434 634 434 1313 
Q 434 1759 690 2068 
Q 947 2378 1403 2484 
z
M 1172 3481 
Q 1172 3119 1398 2916 
Q 1625 2713 2034 2713 
Q 2441 2713 2670 2916 
Q 2900 3119 2900 3481 
Q 2900 3844 2670 4047 
Q 2441 4250 2034 4250 
Q 1625 4250 1398 4047 
Q 1172 3844 1172 3481 
z
" id="DejaVuSans-38" transform="scale(0.015625)"/>
      <path d="M 750 794 
L 1409 794 
L 1409 256 
L 897 -744 
L 494 -744 
L 750 256 
L 750 794 
z
" id="DejaVuSans-2c" transform="scale(0.015625)"/>
      <path d="M 1259 4147 
L 1259 519 
L 2022 519 
Q 2988 519 3436 956 
Q 3884 1394 3884 2338 
Q 3884 3275 3436 3711 
Q 2988 4147 2022 4147 
L 1259 4147 
z
M 628 4666 
L 1925 4666 
Q 3281 4666 3915 4102 
Q 4550 3538 4550 2338 
Q 4550 1131 3912 565 
Q 3275 0 1925 0 
L 628 0 
L 628 4666 
z
" id="DejaVuSans-44" transform="scale(0.015625)"/>
     </defs>
     <use xlink:href="#DejaVuSans-66"/>
     <use x="35.205078" xlink:href="#DejaVuSans-36"/>
     <use x="98.828125" xlink:href="#DejaVuSans-2d"/>
     <use x="134.912109" xlink:href="#DejaVuSans-66"/>
     <use x="170.117188" xlink:href="#DejaVuSans-38"/>
     <use x="233.740234" xlink:href="#DejaVuSans-2c"/>
     <use x="265.527344" xlink:href="#DejaVuSans-31"/>
     <use x="329.150391" xlink:href="#DejaVuSans-30"/>
     <use x="392.773438" xlink:href="#DejaVuSans-2d"/>
     <use x="428.857422" xlink:href="#DejaVuSans-44"/>
    </g>
   </g>
   <g id="text_6">
    <!-- v2.6.3 -->
    <g style="fill:#808080;" transform="translate(227.99475 286.317512)scale(0.1 -0.1)">
     <defs>
      <path d="M 1228 531 
L 3431 531 
L 3431 0 
L 469 0 
L 469 531 
Q 828 903 1448 1529 
Q 2069 2156 2228 2338 
Q 2531 2678 2651 2914 
Q 2772 3150 2772 3378 
Q 2772 3750 2511 3984 
Q 2250 4219 1831 4219 
Q 1534 4219 1204 4116 
Q 875 4013 500 3803 
L 500 4441 
Q 881 4594 1212 4672 
Q 1544 4750 1819 4750 
Q 2544 4750 2975 4387 
Q 3406 4025 3406 3419 
Q 3406 3131 3298 2873 
Q 3191 2616 2906 2266 
Q 2828 2175 2409 1742 
Q 1991 1309 1228 531 
z
" id="DejaVuSans-32" transform="scale(0.015625)"/>
      <path d="M 684 794 
L 1344 794 
L 1344 0 
L 684 0 
L 684 794 
z
" id="DejaVuSans-2e" transform="scale(0.015625)"/>
      <path d="M 2597 2516 
Q 3050 2419 3304 2112 
Q 3559 1806 3559 1356 
Q 3559 666 3084 287 
Q 2609 -91 1734 -91 
Q 1441 -91 1130 -33 
Q 819 25 488 141 
L 488 750 
Q 750 597 1062 519 
Q 1375 441 1716 441 
Q 2309 441 2620 675 
Q 2931 909 2931 1356 
Q 2931 1769 2642 2001 
Q 2353 2234 1838 2234 
L 1294 2234 
L 1294 2753 
L 1863 2753 
Q 2328 2753 2575 2939 
Q 2822 3125 2822 3475 
Q 2822 3834 2567 4026 
Q 2313 4219 1838 4219 
Q 1578 4219 1281 4162 
Q 984 4106 628 3988 
L 628 4550 
Q 988 4650 1302 4700 
Q 1616 4750 1894 4750 
Q 2613 4750 3031 4423 
Q 3450 4097 3450 3541 
Q 3450 3153 3228 2886 
Q 3006 2619 2597 2516 
z
" id="DejaVuSans-33" transform="scale(0.015625)"/>
     </defs>
     <use xlink:href="#DejaVuSans-76"/>
     <use x="59.179688" xlink:href="#DejaVuSans-32"/>
     <use x="122.802734" xlink:href="#DejaVuSans-2e"/>
     <use x="154.589844" xlink:href="#DejaVuSans-36"/>
     <use x="218.212891" xlink:href="#DejaVuSans-2e"/>
     <use x="250" xlink:href="#DejaVuSans-33"/>
    </g>
   </g>
   <g id="legend_1">
    <g id="patch_7">
     <path d="M 309.970125 281.28 
L 439.192 281.28 
Q 443.192 281.28 443.192 277.28 
L 443.192 161.855 
Q 443.192 157.855 439.192 157.855 
L 309.970125 157.855 
Q 305.970125 157.855 305.970125 161.855 
L 305.970125 277.28 
Q 305.970125 281.28 309.970125 281.28 
z
" style="fill:#ffffff;opacity:0.2;stroke:#cccccc;stroke-linejoin:miter;"/>
    </g>
    <g id="line2d_69">
     <path d="M 313.970125 174.051875 
L 353.970125 174.051875 
" style="fill:none;stroke:#000000;stroke-linecap:square;stroke-width:3;"/>
    </g>
    <g id="line2d_70"/>
    <g id="text_7">
     <!-- 1: 3/3 -->
     <g transform="translate(369.970125 181.051875)scale(0.2 -0.2)">
      <defs>
       <path d="M 750 794 
L 1409 794 
L 1409 0 
L 750 0 
L 750 794 
z
M 750 3309 
L 1409 3309 
L 1409 2516 
L 750 2516 
L 750 3309 
z
" id="DejaVuSans-3a" transform="scale(0.015625)"/>
       <path d="M 1625 4666 
L 2156 4666 
L 531 -594 
L 0 -594 
L 1625 4666 
z
" id="DejaVuSans-2f" transform="scale(0.015625)"/>
      </defs>
      <use xlink:href="#DejaVuSans-31"/>
      <use x="63.623047" xlink:href="#DejaVuSans-3a"/>
      <use x="97.314453" xlink:href="#DejaVuSans-20"/>
      <use x="129.101562" xlink:href="#DejaVuSans-33"/>
      <use x="192.724609" xlink:href="#DejaVuSans-2f"/>
      <use x="226.416016" xlink:href="#DejaVuSans-33"/>
     </g>
    </g>
    <g id="line2d_71">
     <path d="M 313.970125 203.408125 
L 353.970125 203.408125 
" style="fill:none;stroke:#00bfbf;stroke-linecap:square;stroke-width:3;"/>
    </g>
    <g id="line2d_72"/>
    <g id="text_8">
     <!-- -1: 3/3 -->
     <g transform="translate(369.970125 210.408125)scale(0.2 -0.2)">
      <use xlink:href="#DejaVuSans-2d"/>
      <use x="36.083984" xlink:href="#DejaVuSans-31"/>
      <use x="99.707031" xlink:href="#DejaVuSans-3a"/>
      <use x="133.398438" xlink:href="#DejaVuSans-20"/>
      <use x="165.185547" xlink:href="#DejaVuSans-33"/>
      <use x="228.808594" xlink:href="#DejaVuSans-2f"/>
      <use x="262.5" xlink:href="#DejaVuSans-33"/>
     </g>
    </g>
    <g id="line2d_73">
     <path d="M 313.970125 232.764375 
L 353.970125 232.764375 
" style="fill:none;stroke:#bf00bf;stroke-linecap:square;stroke-width:3;"/>
    </g>
    <g id="line2d_74"/>
    <g id="text_9">
     <!-- -4: 2/2 -->
     <g transform="translate(369.970125 239.764375)scale(0.2 -0.2)">
      <defs>
       <path d="M 2419 4116 
L 825 1625 
L 2419 1625 
L 2419 4116 
z
M 2253 4666 
L 3047 4666 
L 3047 1625 
L 3713 1625 
L 3713 1100 
L 3047 1100 
L 3047 0 
L 2419 0 
L 2419 1100 
L 313 1100 
L 313 1709 
L 2253 4666 
z
" id="DejaVuSans-34" transform="scale(0.015625)"/>
      </defs>
      <use xlink:href="#DejaVuSans-2d"/>
      <use x="36.083984" xlink:href="#DejaVuSans-34"/>
      <use x="99.707031" xlink:href="#DejaVuSans-3a"/>
      <use x="133.398438" xlink:href="#DejaVuSans-20"/>
      <use x="165.185547" xlink:href="#DejaVuSans-32"/>
      <use x="228.808594" xlink:href="#DejaVuSans-2f"/>
      <use x="262.5" xlink:href="#DejaVuSans-32"/>
     </g>
    </g>
    <g id="line2d_75">
     <path d="M 313.970125 262.120625 
L 353.970125 262.120625 
" style="fill:none;stroke:#ff0000;stroke-linecap:square;stroke-width:3;"/>
    </g>
    <g id="line2d_76"/>
    <g id="text_10">
     <!-- -8: 2/2 -->
     <g transform="translate(369.970125 269.120625)scale(0.2 -0.2)">
      <use xlink:href="#DejaVuSans-2d"/>
      <use x="36.083984" xlink:href="#DejaVuSans-38"/>
      <use x="99.707031" xlink:href="#DejaVuSans-3a"/>
      <use x="133.398438" xlink:href="#DejaVuSans-20"/>
      <use x="165.185547" xlink:href="#DejaVuSans-32"/>
      <use x="228.808594" xlink:href="#DejaVuSans-2f"/>
      <use x="262.5" xlink:href="#DejaVuSans-32"/>
     </g>
    </g>
   </g>
  </g>
 </g>
 <defs>
  <clipPath id="p245570c29b">
   <rect height="288.28" width="419.032" x="34.16" y="3"/>
  </clipPath>
 </defs>
</svg>
