<?xml version="1.0" encoding="utf-8" standalone="no"?>
<!DOCTYPE svg PUBLIC "-//W3C//DTD SVG 1.1//EN"
  "http://www.w3.org/Graphics/SVG/1.1/DTD/svg11.dtd">
<svg height="345.6pt" version="1.1" viewBox="0 0 460.8 345.6" width="460.8pt" xmlns="http://www.w3.org/2000/svg" xmlns:xlink="http://www.w3.org/1999/xlink">
 <metadata>
  <rdf:RDF xmlns:cc="http://creativecommons.org/ns#" xmlns:dc="http://purl.org/dc/elements/1.1/" xmlns:rdf="http://www.w3.org/1999/02/22-rdf-syntax-ns#">
   <cc:Work>
    <dc:type rdf:resource="http://purl.org/dc/dcmitype/StillImage"/>
    <dc:date>2023-04-17T18:16:39.421386</dc:date>
    <dc:format>image/svg+xml</dc:format>
    <dc:creator>
     <cc:Agent>
      <dc:title>Matplotlib v3.4.1, https://matplotlib.org/</dc:title>
     </cc:Agent>
    </dc:creator>
   </cc:Work>
  </rdf:RDF>
 </metadata>
 <defs>
  <style type="text/css">*{stroke-linecap:butt;stroke-linejoin:round;}</style>
 </defs>
 <g id="figure_1">
  <g id="patch_1">
   <path d="M 0 345.6 
L 460.8 345.6 
L 460.8 0 
L 0 0 
z
" style="fill:#ffffff;"/>
  </g>
  <g id="axes_1">
   <g id="patch_2">
    <path d="M 34.16 291.28 
L 453.192 291.28 
L 453.192 3 
L 34.16 3 
z
" style="fill:#ffffff;"/>
   </g>
   <g id="matplotlib.axis_1">
    <g id="xtick_1">
     <g id="line2d_1">
      <path clip-path="url(#pea22b4a735)" d="M 168.517702 291.28 
L 168.517702 3 
" style="fill:none;stroke:#b0b0b0;stroke-linecap:square;stroke-width:0.8;"/>
     </g>
     <g id="line2d_2">
      <defs>
       <path d="M 0 0 
L 0 3.5 
" id="m3abf0cab84" style="stroke:#000000;stroke-width:0.8;"/>
      </defs>
      <g>
       <use style="stroke:#000000;stroke-width:0.8;" x="168.517702" xlink:href="#m3abf0cab84" y="291.28"/>
      </g>
     </g>
     <g id="text_1">
      <!-- -1 -->
      <g transform="translate(158.54739 313.476875)scale(0.2 -0.2)">
       <defs>
        <path d="M 313 2009 
L 1997 2009 
L 1997 1497 
L 313 1497 
L 313 2009 
z
" id="DejaVuSans-2d" transform="scale(0.015625)"/>
        <path d="M 794 531 
L 1825 531 
L 1825 4091 
L 703 3866 
L 703 4441 
L 1819 4666 
L 2450 4666 
L 2450 531 
L 3481 531 
L 3481 0 
L 794 0 
L 794 531 
z
" id="DejaVuSans-31" transform="scale(0.015625)"/>
       </defs>
       <use xlink:href="#DejaVuSans-2d"/>
       <use x="36.083984" xlink:href="#DejaVuSans-31"/>
      </g>
     </g>
    </g>
    <g id="xtick_2">
     <g id="line2d_3">
      <path clip-path="url(#pea22b4a735)" d="M 318.834298 291.28 
L 318.834298 3 
" style="fill:none;stroke:#b0b0b0;stroke-linecap:square;stroke-width:0.8;"/>
     </g>
     <g id="line2d_4">
      <g>
       <use style="stroke:#000000;stroke-width:0.8;" x="318.834298" xlink:href="#m3abf0cab84" y="291.28"/>
      </g>
     </g>
     <g id="text_2">
      <!-- 1 -->
      <g transform="translate(312.471798 313.476875)scale(0.2 -0.2)">
       <use xlink:href="#DejaVuSans-31"/>
      </g>
     </g>
    </g>
    <g id="xtick_3">
     <g id="line2d_5">
      <defs>
       <path d="M 0 0 
L 0 2 
" id="md58bcd443d" style="stroke:#000000;stroke-width:0.6;"/>
      </defs>
      <g>
       <use style="stroke:#000000;stroke-width:0.6;" x="40.826009" xlink:href="#md58bcd443d" y="291.28"/>
      </g>
     </g>
    </g>
    <g id="xtick_4">
     <g id="line2d_6">
      <g>
       <use style="stroke:#000000;stroke-width:0.6;" x="54.060728" xlink:href="#md58bcd443d" y="291.28"/>
      </g>
     </g>
    </g>
    <g id="xtick_5">
     <g id="line2d_7">
      <g>
       <use style="stroke:#000000;stroke-width:0.6;" x="63.450911" xlink:href="#md58bcd443d" y="291.28"/>
      </g>
     </g>
    </g>
    <g id="xtick_6">
     <g id="line2d_8">
      <g>
       <use style="stroke:#000000;stroke-width:0.6;" x="70.734502" xlink:href="#md58bcd443d" y="291.28"/>
      </g>
     </g>
    </g>
    <g id="xtick_7">
     <g id="line2d_9">
      <g>
       <use style="stroke:#000000;stroke-width:0.6;" x="76.68563" xlink:href="#md58bcd443d" y="291.28"/>
      </g>
     </g>
    </g>
    <g id="xtick_8">
     <g id="line2d_10">
      <g>
       <use style="stroke:#000000;stroke-width:0.6;" x="81.717237" xlink:href="#md58bcd443d" y="291.28"/>
      </g>
     </g>
    </g>
    <g id="xtick_9">
     <g id="line2d_11">
      <g>
       <use style="stroke:#000000;stroke-width:0.6;" x="86.075813" xlink:href="#md58bcd443d" y="291.28"/>
      </g>
     </g>
    </g>
    <g id="xtick_10">
     <g id="line2d_12">
      <g>
       <use style="stroke:#000000;stroke-width:0.6;" x="89.920349" xlink:href="#md58bcd443d" y="291.28"/>
      </g>
     </g>
    </g>
    <g id="xtick_11">
     <g id="line2d_13">
      <g>
       <use style="stroke:#000000;stroke-width:0.6;" x="115.984307" xlink:href="#md58bcd443d" y="291.28"/>
      </g>
     </g>
    </g>
    <g id="xtick_12">
     <g id="line2d_14">
      <g>
       <use style="stroke:#000000;stroke-width:0.6;" x="129.219026" xlink:href="#md58bcd443d" y="291.28"/>
      </g>
     </g>
    </g>
    <g id="xtick_13">
     <g id="line2d_15">
      <g>
       <use style="stroke:#000000;stroke-width:0.6;" x="138.609209" xlink:href="#md58bcd443d" y="291.28"/>
      </g>
     </g>
    </g>
    <g id="xtick_14">
     <g id="line2d_16">
      <g>
       <use style="stroke:#000000;stroke-width:0.6;" x="145.8928" xlink:href="#md58bcd443d" y="291.28"/>
      </g>
     </g>
    </g>
    <g id="xtick_15">
     <g id="line2d_17">
      <g>
       <use style="stroke:#000000;stroke-width:0.6;" x="151.843928" xlink:href="#md58bcd443d" y="291.28"/>
      </g>
     </g>
    </g>
    <g id="xtick_16">
     <g id="line2d_18">
      <g>
       <use style="stroke:#000000;stroke-width:0.6;" x="156.875535" xlink:href="#md58bcd443d" y="291.28"/>
      </g>
     </g>
    </g>
    <g id="xtick_17">
     <g id="line2d_19">
      <g>
       <use style="stroke:#000000;stroke-width:0.6;" x="161.234111" xlink:href="#md58bcd443d" y="291.28"/>
      </g>
     </g>
    </g>
    <g id="xtick_18">
     <g id="line2d_20">
      <g>
       <use style="stroke:#000000;stroke-width:0.6;" x="165.078647" xlink:href="#md58bcd443d" y="291.28"/>
      </g>
     </g>
    </g>
    <g id="xtick_19">
     <g id="line2d_21">
      <g>
       <use style="stroke:#000000;stroke-width:0.6;" x="191.142604" xlink:href="#md58bcd443d" y="291.28"/>
      </g>
     </g>
    </g>
    <g id="xtick_20">
     <g id="line2d_22">
      <g>
       <use style="stroke:#000000;stroke-width:0.6;" x="204.377324" xlink:href="#md58bcd443d" y="291.28"/>
      </g>
     </g>
    </g>
    <g id="xtick_21">
     <g id="line2d_23">
      <g>
       <use style="stroke:#000000;stroke-width:0.6;" x="213.767506" xlink:href="#md58bcd443d" y="291.28"/>
      </g>
     </g>
    </g>
    <g id="xtick_22">
     <g id="line2d_24">
      <g>
       <use style="stroke:#000000;stroke-width:0.6;" x="221.051098" xlink:href="#md58bcd443d" y="291.28"/>
      </g>
     </g>
    </g>
    <g id="xtick_23">
     <g id="line2d_25">
      <g>
       <use style="stroke:#000000;stroke-width:0.6;" x="227.002226" xlink:href="#md58bcd443d" y="291.28"/>
      </g>
     </g>
    </g>
    <g id="xtick_24">
     <g id="line2d_26">
      <g>
       <use style="stroke:#000000;stroke-width:0.6;" x="232.033832" xlink:href="#md58bcd443d" y="291.28"/>
      </g>
     </g>
    </g>
    <g id="xtick_25">
     <g id="line2d_27">
      <g>
       <use style="stroke:#000000;stroke-width:0.6;" x="236.392408" xlink:href="#md58bcd443d" y="291.28"/>
      </g>
     </g>
    </g>
    <g id="xtick_26">
     <g id="line2d_28">
      <g>
       <use style="stroke:#000000;stroke-width:0.6;" x="240.236945" xlink:href="#md58bcd443d" y="291.28"/>
      </g>
     </g>
    </g>
    <g id="xtick_27">
     <g id="line2d_29">
      <g>
       <use style="stroke:#000000;stroke-width:0.6;" x="266.300902" xlink:href="#md58bcd443d" y="291.28"/>
      </g>
     </g>
    </g>
    <g id="xtick_28">
     <g id="line2d_30">
      <g>
       <use style="stroke:#000000;stroke-width:0.6;" x="279.535621" xlink:href="#md58bcd443d" y="291.28"/>
      </g>
     </g>
    </g>
    <g id="xtick_29">
     <g id="line2d_31">
      <g>
       <use style="stroke:#000000;stroke-width:0.6;" x="288.925804" xlink:href="#md58bcd443d" y="291.28"/>
      </g>
     </g>
    </g>
    <g id="xtick_30">
     <g id="line2d_32">
      <g>
       <use style="stroke:#000000;stroke-width:0.6;" x="296.209396" xlink:href="#md58bcd443d" y="291.28"/>
      </g>
     </g>
    </g>
    <g id="xtick_31">
     <g id="line2d_33">
      <g>
       <use style="stroke:#000000;stroke-width:0.6;" x="302.160523" xlink:href="#md58bcd443d" y="291.28"/>
      </g>
     </g>
    </g>
    <g id="xtick_32">
     <g id="line2d_34">
      <g>
       <use style="stroke:#000000;stroke-width:0.6;" x="307.19213" xlink:href="#md58bcd443d" y="291.28"/>
      </g>
     </g>
    </g>
    <g id="xtick_33">
     <g id="line2d_35">
      <g>
       <use style="stroke:#000000;stroke-width:0.6;" x="311.550706" xlink:href="#md58bcd443d" y="291.28"/>
      </g>
     </g>
    </g>
    <g id="xtick_34">
     <g id="line2d_36">
      <g>
       <use style="stroke:#000000;stroke-width:0.6;" x="315.395243" xlink:href="#md58bcd443d" y="291.28"/>
      </g>
     </g>
    </g>
    <g id="xtick_35">
     <g id="line2d_37">
      <g>
       <use style="stroke:#000000;stroke-width:0.6;" x="341.4592" xlink:href="#md58bcd443d" y="291.28"/>
      </g>
     </g>
    </g>
    <g id="xtick_36">
     <g id="line2d_38">
      <g>
       <use style="stroke:#000000;stroke-width:0.6;" x="354.693919" xlink:href="#md58bcd443d" y="291.28"/>
      </g>
     </g>
    </g>
    <g id="xtick_37">
     <g id="line2d_39">
      <g>
       <use style="stroke:#000000;stroke-width:0.6;" x="364.084102" xlink:href="#md58bcd443d" y="291.28"/>
      </g>
     </g>
    </g>
    <g id="xtick_38">
     <g id="line2d_40">
      <g>
       <use style="stroke:#000000;stroke-width:0.6;" x="371.367693" xlink:href="#md58bcd443d" y="291.28"/>
      </g>
     </g>
    </g>
    <g id="xtick_39">
     <g id="line2d_41">
      <g>
       <use style="stroke:#000000;stroke-width:0.6;" x="377.318821" xlink:href="#md58bcd443d" y="291.28"/>
      </g>
     </g>
    </g>
    <g id="xtick_40">
     <g id="line2d_42">
      <g>
       <use style="stroke:#000000;stroke-width:0.6;" x="382.350428" xlink:href="#md58bcd443d" y="291.28"/>
      </g>
     </g>
    </g>
    <g id="xtick_41">
     <g id="line2d_43">
      <g>
       <use style="stroke:#000000;stroke-width:0.6;" x="386.709004" xlink:href="#md58bcd443d" y="291.28"/>
      </g>
     </g>
    </g>
    <g id="xtick_42">
     <g id="line2d_44">
      <g>
       <use style="stroke:#000000;stroke-width:0.6;" x="390.55354" xlink:href="#md58bcd443d" y="291.28"/>
      </g>
     </g>
    </g>
    <g id="xtick_43">
     <g id="line2d_45">
      <g>
       <use style="stroke:#000000;stroke-width:0.6;" x="416.617498" xlink:href="#md58bcd443d" y="291.28"/>
      </g>
     </g>
    </g>
    <g id="xtick_44">
     <g id="line2d_46">
      <g>
       <use style="stroke:#000000;stroke-width:0.6;" x="429.852217" xlink:href="#md58bcd443d" y="291.28"/>
      </g>
     </g>
    </g>
    <g id="xtick_45">
     <g id="line2d_47">
      <g>
       <use style="stroke:#000000;stroke-width:0.6;" x="439.2424" xlink:href="#md58bcd443d" y="291.28"/>
      </g>
     </g>
    </g>
    <g id="xtick_46">
     <g id="line2d_48">
      <g>
       <use style="stroke:#000000;stroke-width:0.6;" x="446.525991" xlink:href="#md58bcd443d" y="291.28"/>
      </g>
     </g>
    </g>
    <g id="xtick_47">
     <g id="line2d_49">
      <g>
       <use style="stroke:#000000;stroke-width:0.6;" x="452.477119" xlink:href="#md58bcd443d" y="291.28"/>
      </g>
     </g>
    </g>
    <g id="text_3">
     <!-- log10 of FEvals ratio -->
     <g transform="translate(141.371312 336.833125)scale(0.2 -0.2)">
      <defs>
       <path d="M 603 4863 
L 1178 4863 
L 1178 0 
L 603 0 
L 603 4863 
z
" id="DejaVuSans-6c" transform="scale(0.015625)"/>
       <path d="M 1959 3097 
Q 1497 3097 1228 2736 
Q 959 2375 959 1747 
Q 959 1119 1226 758 
Q 1494 397 1959 397 
Q 2419 397 2687 759 
Q 2956 1122 2956 1747 
Q 2956 2369 2687 2733 
Q 2419 3097 1959 3097 
z
M 1959 3584 
Q 2709 3584 3137 3096 
Q 3566 2609 3566 1747 
Q 3566 888 3137 398 
Q 2709 -91 1959 -91 
Q 1206 -91 779 398 
Q 353 888 353 1747 
Q 353 2609 779 3096 
Q 1206 3584 1959 3584 
z
" id="DejaVuSans-6f" transform="scale(0.015625)"/>
       <path d="M 2906 1791 
Q 2906 2416 2648 2759 
Q 2391 3103 1925 3103 
Q 1463 3103 1205 2759 
Q 947 2416 947 1791 
Q 947 1169 1205 825 
Q 1463 481 1925 481 
Q 2391 481 2648 825 
Q 2906 1169 2906 1791 
z
M 3481 434 
Q 3481 -459 3084 -895 
Q 2688 -1331 1869 -1331 
Q 1566 -1331 1297 -1286 
Q 1028 -1241 775 -1147 
L 775 -588 
Q 1028 -725 1275 -790 
Q 1522 -856 1778 -856 
Q 2344 -856 2625 -561 
Q 2906 -266 2906 331 
L 2906 616 
Q 2728 306 2450 153 
Q 2172 0 1784 0 
Q 1141 0 747 490 
Q 353 981 353 1791 
Q 353 2603 747 3093 
Q 1141 3584 1784 3584 
Q 2172 3584 2450 3431 
Q 2728 3278 2906 2969 
L 2906 3500 
L 3481 3500 
L 3481 434 
z
" id="DejaVuSans-67" transform="scale(0.015625)"/>
       <path d="M 2034 4250 
Q 1547 4250 1301 3770 
Q 1056 3291 1056 2328 
Q 1056 1369 1301 889 
Q 1547 409 2034 409 
Q 2525 409 2770 889 
Q 3016 1369 3016 2328 
Q 3016 3291 2770 3770 
Q 2525 4250 2034 4250 
z
M 2034 4750 
Q 2819 4750 3233 4129 
Q 3647 3509 3647 2328 
Q 3647 1150 3233 529 
Q 2819 -91 2034 -91 
Q 1250 -91 836 529 
Q 422 1150 422 2328 
Q 422 3509 836 4129 
Q 1250 4750 2034 4750 
z
" id="DejaVuSans-30" transform="scale(0.015625)"/>
       <path id="DejaVuSans-20" transform="scale(0.015625)"/>
       <path d="M 2375 4863 
L 2375 4384 
L 1825 4384 
Q 1516 4384 1395 4259 
Q 1275 4134 1275 3809 
L 1275 3500 
L 2222 3500 
L 2222 3053 
L 1275 3053 
L 1275 0 
L 697 0 
L 697 3053 
L 147 3053 
L 147 3500 
L 697 3500 
L 697 3744 
Q 697 4328 969 4595 
Q 1241 4863 1831 4863 
L 2375 4863 
z
" id="DejaVuSans-66" transform="scale(0.015625)"/>
       <path d="M 628 4666 
L 3309 4666 
L 3309 4134 
L 1259 4134 
L 1259 2759 
L 3109 2759 
L 3109 2228 
L 1259 2228 
L 1259 0 
L 628 0 
L 628 4666 
z
" id="DejaVuSans-46" transform="scale(0.015625)"/>
       <path d="M 628 4666 
L 3578 4666 
L 3578 4134 
L 1259 4134 
L 1259 2753 
L 3481 2753 
L 3481 2222 
L 1259 2222 
L 1259 531 
L 3634 531 
L 3634 0 
L 628 0 
L 628 4666 
z
" id="DejaVuSans-45" transform="scale(0.015625)"/>
       <path d="M 191 3500 
L 800 3500 
L 1894 563 
L 2988 3500 
L 3597 3500 
L 2284 0 
L 1503 0 
L 191 3500 
z
" id="DejaVuSans-76" transform="scale(0.015625)"/>
       <path d="M 2194 1759 
Q 1497 1759 1228 1600 
Q 959 1441 959 1056 
Q 959 750 1161 570 
Q 1363 391 1709 391 
Q 2188 391 2477 730 
Q 2766 1069 2766 1631 
L 2766 1759 
L 2194 1759 
z
M 3341 1997 
L 3341 0 
L 2766 0 
L 2766 531 
Q 2569 213 2275 61 
Q 1981 -91 1556 -91 
Q 1019 -91 701 211 
Q 384 513 384 1019 
Q 384 1609 779 1909 
Q 1175 2209 1959 2209 
L 2766 2209 
L 2766 2266 
Q 2766 2663 2505 2880 
Q 2244 3097 1772 3097 
Q 1472 3097 1187 3025 
Q 903 2953 641 2809 
L 641 3341 
Q 956 3463 1253 3523 
Q 1550 3584 1831 3584 
Q 2591 3584 2966 3190 
Q 3341 2797 3341 1997 
z
" id="DejaVuSans-61" transform="scale(0.015625)"/>
       <path d="M 2834 3397 
L 2834 2853 
Q 2591 2978 2328 3040 
Q 2066 3103 1784 3103 
Q 1356 3103 1142 2972 
Q 928 2841 928 2578 
Q 928 2378 1081 2264 
Q 1234 2150 1697 2047 
L 1894 2003 
Q 2506 1872 2764 1633 
Q 3022 1394 3022 966 
Q 3022 478 2636 193 
Q 2250 -91 1575 -91 
Q 1294 -91 989 -36 
Q 684 19 347 128 
L 347 722 
Q 666 556 975 473 
Q 1284 391 1588 391 
Q 1994 391 2212 530 
Q 2431 669 2431 922 
Q 2431 1156 2273 1281 
Q 2116 1406 1581 1522 
L 1381 1569 
Q 847 1681 609 1914 
Q 372 2147 372 2553 
Q 372 3047 722 3315 
Q 1072 3584 1716 3584 
Q 2034 3584 2315 3537 
Q 2597 3491 2834 3397 
z
" id="DejaVuSans-73" transform="scale(0.015625)"/>
       <path d="M 2631 2963 
Q 2534 3019 2420 3045 
Q 2306 3072 2169 3072 
Q 1681 3072 1420 2755 
Q 1159 2438 1159 1844 
L 1159 0 
L 581 0 
L 581 3500 
L 1159 3500 
L 1159 2956 
Q 1341 3275 1631 3429 
Q 1922 3584 2338 3584 
Q 2397 3584 2469 3576 
Q 2541 3569 2628 3553 
L 2631 2963 
z
" id="DejaVuSans-72" transform="scale(0.015625)"/>
       <path d="M 1172 4494 
L 1172 3500 
L 2356 3500 
L 2356 3053 
L 1172 3053 
L 1172 1153 
Q 1172 725 1289 603 
Q 1406 481 1766 481 
L 2356 481 
L 2356 0 
L 1766 0 
Q 1100 0 847 248 
Q 594 497 594 1153 
L 594 3053 
L 172 3053 
L 172 3500 
L 594 3500 
L 594 4494 
L 1172 4494 
z
" id="DejaVuSans-74" transform="scale(0.015625)"/>
       <path d="M 603 3500 
L 1178 3500 
L 1178 0 
L 603 0 
L 603 3500 
z
M 603 4863 
L 1178 4863 
L 1178 4134 
L 603 4134 
L 603 4863 
z
" id="DejaVuSans-69" transform="scale(0.015625)"/>
      </defs>
      <use xlink:href="#DejaVuSans-6c"/>
      <use x="27.783203" xlink:href="#DejaVuSans-6f"/>
      <use x="88.964844" xlink:href="#DejaVuSans-67"/>
      <use x="152.441406" xlink:href="#DejaVuSans-31"/>
      <use x="216.064453" xlink:href="#DejaVuSans-30"/>
      <use x="279.6875" xlink:href="#DejaVuSans-20"/>
      <use x="311.474609" xlink:href="#DejaVuSans-6f"/>
      <use x="372.65625" xlink:href="#DejaVuSans-66"/>
      <use x="407.861328" xlink:href="#DejaVuSans-20"/>
      <use x="439.648438" xlink:href="#DejaVuSans-46"/>
      <use x="497.167969" xlink:href="#DejaVuSans-45"/>
      <use x="560.351562" xlink:href="#DejaVuSans-76"/>
      <use x="619.53125" xlink:href="#DejaVuSans-61"/>
      <use x="680.810547" xlink:href="#DejaVuSans-6c"/>
      <use x="708.59375" xlink:href="#DejaVuSans-73"/>
      <use x="760.693359" xlink:href="#DejaVuSans-20"/>
      <use x="792.480469" xlink:href="#DejaVuSans-72"/>
      <use x="833.59375" xlink:href="#DejaVuSans-61"/>
      <use x="894.873047" xlink:href="#DejaVuSans-74"/>
      <use x="934.082031" xlink:href="#DejaVuSans-69"/>
      <use x="961.865234" xlink:href="#DejaVuSans-6f"/>
     </g>
    </g>
   </g>
   <g id="matplotlib.axis_2">
    <g id="ytick_1">
     <g id="line2d_50">
      <path clip-path="url(#pea22b4a735)" d="M 34.16 288.453725 
L 453.192 288.453725 
" style="fill:none;stroke:#b0b0b0;stroke-linecap:square;stroke-width:0.8;"/>
     </g>
     <g id="line2d_51">
      <defs>
       <path d="M 0 0 
L -3.5 0 
" id="m9d87b1a75a" style="stroke:#000000;stroke-width:0.8;"/>
      </defs>
      <g>
       <use style="stroke:#000000;stroke-width:0.8;" x="34.16" xlink:href="#m9d87b1a75a" y="288.453725"/>
      </g>
     </g>
    </g>
    <g id="ytick_2">
     <g id="line2d_52">
      <path clip-path="url(#pea22b4a735)" d="M 34.16 217.796863 
L 453.192 217.796863 
" style="fill:none;stroke:#b0b0b0;stroke-linecap:square;stroke-width:0.8;"/>
     </g>
     <g id="line2d_53">
      <g>
       <use style="stroke:#000000;stroke-width:0.8;" x="34.16" xlink:href="#m9d87b1a75a" y="217.796863"/>
      </g>
     </g>
    </g>
    <g id="ytick_3">
     <g id="line2d_54">
      <path clip-path="url(#pea22b4a735)" d="M 34.16 147.14 
L 453.192 147.14 
" style="fill:none;stroke:#b0b0b0;stroke-linecap:square;stroke-width:0.8;"/>
     </g>
     <g id="line2d_55">
      <g>
       <use style="stroke:#000000;stroke-width:0.8;" x="34.16" xlink:href="#m9d87b1a75a" y="147.14"/>
      </g>
     </g>
    </g>
    <g id="ytick_4">
     <g id="line2d_56">
      <path clip-path="url(#pea22b4a735)" d="M 34.16 76.483137 
L 453.192 76.483137 
" style="fill:none;stroke:#b0b0b0;stroke-linecap:square;stroke-width:0.8;"/>
     </g>
     <g id="line2d_57">
      <g>
       <use style="stroke:#000000;stroke-width:0.8;" x="34.16" xlink:href="#m9d87b1a75a" y="76.483137"/>
      </g>
     </g>
    </g>
    <g id="ytick_5">
     <g id="line2d_58">
      <path clip-path="url(#pea22b4a735)" d="M 34.16 5.826275 
L 453.192 5.826275 
" style="fill:none;stroke:#b0b0b0;stroke-linecap:square;stroke-width:0.8;"/>
     </g>
     <g id="line2d_59">
      <g>
       <use style="stroke:#000000;stroke-width:0.8;" x="34.16" xlink:href="#m9d87b1a75a" y="5.826275"/>
      </g>
     </g>
    </g>
    <g id="text_4">
     <!-- proportion of trials -->
     <g transform="translate(19.000625 240.14625)rotate(-90)scale(0.2 -0.2)">
      <defs>
       <path d="M 1159 525 
L 1159 -1331 
L 581 -1331 
L 581 3500 
L 1159 3500 
L 1159 2969 
Q 1341 3281 1617 3432 
Q 1894 3584 2278 3584 
Q 2916 3584 3314 3078 
Q 3713 2572 3713 1747 
Q 3713 922 3314 415 
Q 2916 -91 2278 -91 
Q 1894 -91 1617 61 
Q 1341 213 1159 525 
z
M 3116 1747 
Q 3116 2381 2855 2742 
Q 2594 3103 2138 3103 
Q 1681 3103 1420 2742 
Q 1159 2381 1159 1747 
Q 1159 1113 1420 752 
Q 1681 391 2138 391 
Q 2594 391 2855 752 
Q 3116 1113 3116 1747 
z
" id="DejaVuSans-70" transform="scale(0.015625)"/>
       <path d="M 3513 2113 
L 3513 0 
L 2938 0 
L 2938 2094 
Q 2938 2591 2744 2837 
Q 2550 3084 2163 3084 
Q 1697 3084 1428 2787 
Q 1159 2491 1159 1978 
L 1159 0 
L 581 0 
L 581 3500 
L 1159 3500 
L 1159 2956 
Q 1366 3272 1645 3428 
Q 1925 3584 2291 3584 
Q 2894 3584 3203 3211 
Q 3513 2838 3513 2113 
z
" id="DejaVuSans-6e" transform="scale(0.015625)"/>
      </defs>
      <use xlink:href="#DejaVuSans-70"/>
      <use x="63.476562" xlink:href="#DejaVuSans-72"/>
      <use x="102.339844" xlink:href="#DejaVuSans-6f"/>
      <use x="163.521484" xlink:href="#DejaVuSans-70"/>
      <use x="226.998047" xlink:href="#DejaVuSans-6f"/>
      <use x="288.179688" xlink:href="#DejaVuSans-72"/>
      <use x="329.292969" xlink:href="#DejaVuSans-74"/>
      <use x="368.501953" xlink:href="#DejaVuSans-69"/>
      <use x="396.285156" xlink:href="#DejaVuSans-6f"/>
      <use x="457.466797" xlink:href="#DejaVuSans-6e"/>
      <use x="520.845703" xlink:href="#DejaVuSans-20"/>
      <use x="552.632812" xlink:href="#DejaVuSans-6f"/>
      <use x="613.814453" xlink:href="#DejaVuSans-66"/>
      <use x="649.019531" xlink:href="#DejaVuSans-20"/>
      <use x="680.806641" xlink:href="#DejaVuSans-74"/>
      <use x="720.015625" xlink:href="#DejaVuSans-72"/>
      <use x="761.128906" xlink:href="#DejaVuSans-69"/>
      <use x="788.912109" xlink:href="#DejaVuSans-61"/>
      <use x="850.191406" xlink:href="#DejaVuSans-6c"/>
      <use x="877.974609" xlink:href="#DejaVuSans-73"/>
     </g>
    </g>
   </g>
   <g id="line2d_60">
    <path clip-path="url(#pea22b4a735)" d="M 34.16 203.66549 
L 50.975845 203.66549 
L 50.975845 203.194444 
L 54.218397 203.194444 
L 54.218397 202.723399 
L 68.12557 202.723399 
L 68.12557 202.252353 
L 68.976381 202.252353 
L 68.976381 201.781307 
L 69.787375 201.781307 
L 69.787375 201.310261 
L 70.106214 201.310261 
L 70.106214 200.839216 
L 72.218934 200.839216 
L 72.218934 200.36817 
L 73.029928 200.36817 
L 73.029928 199.897124 
L 73.348766 199.897124 
L 73.348766 199.426078 
L 73.990387 199.426078 
L 73.990387 198.955033 
L 74.130929 198.955033 
L 74.130929 198.483987 
L 77.232939 198.483987 
L 77.232939 198.012941 
L 77.373481 198.012941 
L 77.373481 197.541895 
L 78.274053 197.541895 
L 78.274053 197.07085 
L 81.516606 197.07085 
L 81.516606 196.599804 
L 82.115158 196.599804 
L 82.115158 196.128758 
L 85.053505 196.128758 
L 85.053505 195.657712 
L 85.357711 195.657712 
L 85.357711 195.186667 
L 86.126106 195.186667 
L 86.126106 194.715621 
L 86.573098 194.715621 
L 86.573098 194.244575 
L 86.9371 194.244575 
L 86.9371 193.773529 
L 87.255939 193.773529 
L 87.255939 193.302484 
L 88.296058 193.302484 
L 88.296058 192.831438 
L 89.67757 192.831438 
L 89.67757 192.360392 
L 89.81565 192.360392 
L 89.81565 191.889346 
L 90.452207 191.889346 
L 90.452207 191.418301 
L 91.140112 191.418301 
L 91.140112 190.947255 
L 91.280654 190.947255 
L 91.280654 190.476209 
L 92.920122 190.476209 
L 92.920122 190.005163 
L 93.69476 190.005163 
L 93.69476 189.534118 
L 95.340726 189.534118 
L 95.423778 188.592026 
L 98.583278 188.592026 
L 98.583278 188.12098 
L 99.264883 188.12098 
L 99.264883 187.649935 
L 102.20323 187.649935 
L 102.20323 187.178889 
L 103.722823 187.178889 
L 103.722823 186.707843 
L 106.827295 186.707843 
L 106.827295 186.236797 
L 107.601932 186.236797 
L 107.601932 185.765752 
L 112.490451 185.765752 
L 112.490451 185.294706 
L 138.892658 185.294706 
L 138.892658 184.82366 
L 140.449771 184.82366 
L 140.449771 184.352614 
L 146.304149 184.352614 
L 146.304149 183.881569 
L 146.993242 183.881569 
L 146.993242 183.410523 
L 148.527861 183.410523 
L 148.527861 182.939477 
L 149.503118 182.939477 
L 149.503118 182.468431 
L 150.873993 182.468431 
L 150.873993 181.997386 
L 154.056709 181.997386 
L 154.056709 181.52634 
L 154.648259 181.52634 
L 154.648259 181.055294 
L 154.858619 181.055294 
L 154.858619 180.584248 
L 156.893194 180.584248 
L 156.893194 180.113203 
L 157.704188 180.113203 
L 157.704188 179.642157 
L 158.023027 179.642157 
L 158.023027 179.171111 
L 158.471945 179.171111 
L 158.471945 178.700065 
L 159.193889 178.700065 
L 159.193889 178.22902 
L 159.65976 178.22902 
L 159.65976 177.757974 
L 159.920167 177.757974 
L 159.920167 177.286928 
L 160.05953 177.286928 
L 160.05953 176.815882 
L 161.9072 176.815882 
L 161.9072 176.344837 
L 162.047742 176.344837 
L 162.047742 175.873791 
L 162.325948 175.873791 
L 162.325948 175.402745 
L 164.121562 175.402745 
L 164.121562 174.931699 
L 166.190866 174.931699 
L 166.190866 174.460654 
L 167.652575 174.460654 
L 167.652575 173.989608 
L 168.180326 173.989608 
L 168.180326 173.518562 
L 168.86942 173.518562 
L 168.86942 173.047516 
L 169.235595 173.047516 
L 169.235595 172.576471 
L 169.97594 172.576471 
L 170.031971 171.634379 
L 170.404038 171.634379 
L 170.404038 171.163333 
L 170.665033 171.163333 
L 170.665033 170.692288 
L 170.895127 170.692288 
L 170.895127 170.221242 
L 171.379296 170.221242 
L 171.489167 169.27915 
L 172.199652 169.27915 
L 172.199652 168.808105 
L 172.681235 168.808105 
L 172.750171 167.866013 
L 172.908381 167.866013 
L 172.970318 166.923922 
L 173.17491 166.923922 
L 173.17491 166.452876 
L 173.522001 166.452876 
L 173.522001 165.98183 
L 174.489911 165.98183 
L 174.545784 165.039739 
L 175.089973 165.039739 
L 175.089973 164.568693 
L 175.779067 164.568693 
L 175.779067 164.097647 
L 175.932886 164.097647 
L 175.932886 163.626601 
L 176.524436 163.626601 
L 176.524436 163.155556 
L 176.734797 163.155556 
L 176.734797 162.68451 
L 177.313685 162.68451 
L 177.343545 161.742418 
L 177.594383 161.742418 
L 177.594383 161.271373 
L 177.7285 161.271373 
L 177.7285 160.800327 
L 178.032639 160.800327 
L 178.032639 160.329281 
L 178.288943 160.329281 
L 178.36902 158.916144 
L 178.454068 158.916144 
L 178.535613 157.503007 
L 178.762759 157.503007 
L 178.762759 157.031961 
L 179.224706 157.031961 
L 179.224706 156.560915 
L 179.451853 156.560915 
L 179.451853 156.089869 
L 179.567258 156.089869 
L 179.659818 155.147778 
L 180.348123 155.147778 
L 180.348123 154.676732 
L 180.542515 154.676732 
L 180.542515 154.205686 
L 180.759325 154.205686 
L 180.759325 153.734641 
L 180.986471 153.734641 
L 181.070066 152.792549 
L 181.535938 152.792549 
L 181.535938 152.321503 
L 181.734582 152.321503 
L 181.796345 151.379412 
L 181.91339 151.379412 
L 181.961729 149.966275 
L 182.143736 149.966275 
L 182.143736 149.495229 
L 182.469356 149.495229 
L 182.469356 149.024183 
L 182.842533 149.024183 
L 182.86568 148.082092 
L 183.105457 148.082092 
L 183.105457 147.611046 
L 183.257539 147.611046 
L 183.332604 146.197908 
L 183.434083 146.197908 
L 183.434083 145.726863 
L 183.591959 145.726863 
L 183.644444 144.784771 
L 183.731322 144.784771 
L 183.731322 144.313725 
L 183.903061 144.313725 
L 183.903061 143.84268 
L 184.024775 143.84268 
L 184.024775 143.371634 
L 184.8023 143.371634 
L 184.8023 142.900588 
L 185.096105 142.900588 
L 185.096105 142.429542 
L 185.322397 142.429542 
L 185.322397 141.958497 
L 185.531362 141.958497 
L 185.531362 141.487451 
L 185.687655 141.487451 
L 185.687655 141.016405 
L 185.898016 141.016405 
L 185.898016 140.545359 
L 186.288173 140.545359 
L 186.288173 140.074314 
L 186.515319 140.074314 
L 186.515319 139.603268 
L 186.879723 139.603268 
L 186.879723 139.132222 
L 187.090083 139.132222 
L 187.106869 138.190131 
L 187.25777 138.190131 
L 187.31723 137.248039 
L 187.473233 137.248039 
L 187.473233 136.776993 
L 187.979713 136.776993 
L 187.979713 136.305948 
L 188.445585 136.305948 
L 188.445585 135.834902 
L 188.705992 135.834902 
L 188.705992 135.363856 
L 188.845355 135.363856 
L 188.845355 134.89281 
L 189.511342 134.89281 
L 189.516133 133.950719 
L 190.233285 133.950719 
L 190.233285 133.479673 
L 190.699157 133.479673 
L 190.703409 132.537582 
L 190.930556 132.537582 
L 190.959564 131.59549 
L 191.098927 131.59549 
L 191.098927 131.124444 
L 191.38574 131.124444 
L 191.425353 130.182353 
L 191.522537 130.182353 
L 191.522537 129.711307 
L 191.652499 129.711307 
L 191.652499 129.240261 
L 191.891224 129.240261 
L 191.891224 128.769216 
L 192.074833 128.769216 
L 192.151631 127.356078 
L 192.290994 127.356078 
L 192.378778 125.942941 
L 192.518141 125.942941 
L 192.518141 125.471895 
L 192.65237 125.471895 
L 192.65237 125.00085 
L 193.327611 125.00085 
L 193.327611 124.529804 
L 193.609452 124.529804 
L 193.609452 124.058758 
L 193.868975 124.058758 
L 193.868975 123.587712 
L 194.016705 123.587712 
L 194.016705 123.116667 
L 194.58471 123.116667 
L 194.58471 122.645621 
L 195.551324 122.645621 
L 195.551324 122.174575 
L 195.955584 122.174575 
L 195.955584 121.703529 
L 196.454604 121.703529 
L 196.536543 120.290392 
L 196.677085 120.290392 
L 196.677085 119.819346 
L 197.265598 119.819346 
L 197.265598 119.348301 
L 197.584437 119.348301 
L 197.584437 118.877255 
L 197.718435 118.877255 
L 197.781246 117.935163 
L 197.897456 117.935163 
L 197.897456 117.464118 
L 199.1383 117.464118 
L 199.1383 116.993072 
L 199.723353 116.993072 
L 199.72985 116.05098 
L 199.940211 116.05098 
L 199.940211 115.579935 
L 200.395413 115.579935 
L 200.469893 114.166797 
L 200.820209 114.166797 
L 200.820209 113.695752 
L 201.023798 113.695752 
L 201.080171 112.75366 
L 201.280887 112.75366 
L 201.280887 112.282614 
L 201.46861 112.282614 
L 201.46861 111.811569 
L 201.599725 111.811569 
L 201.671721 110.398431 
L 201.882082 110.398431 
L 201.947066 108.985294 
L 202.025311 108.985294 
L 202.025311 108.514248 
L 202.836306 108.514248 
L 202.922323 107.572157 
L 202.948079 107.572157 
L 202.948079 107.101111 
L 203.155144 107.101111 
L 203.155144 106.630065 
L 203.322934 106.630065 
L 203.322934 106.15902 
L 203.553536 106.15902 
L 203.572813 105.216928 
L 204.133928 105.216928 
L 204.133928 104.745882 
L 204.261906 104.745882 
L 204.293198 103.332745 
L 204.452766 103.332745 
L 204.452766 102.861699 
L 204.661315 102.861699 
L 204.741352 101.919608 
L 205.001758 101.919608 
L 205.001758 101.448562 
L 205.141122 101.448562 
L 205.141122 100.977516 
L 205.362949 100.977516 
L 205.362949 100.506471 
L 205.483898 100.506471 
L 205.495408 99.564379 
L 205.624441 99.564379 
L 205.624441 99.093333 
L 205.752276 99.093333 
L 205.796525 97.680196 
L 206.217351 97.680196 
L 206.249791 96.738105 
L 206.683223 96.738105 
L 206.771783 95.796013 
L 206.938884 95.796013 
L 207.039317 94.382876 
L 207.082993 94.382876 
L 207.179859 93.440784 
L 207.475913 93.440784 
L 207.574853 92.027647 
L 207.599661 92.027647 
L 207.599661 91.556601 
L 208.067463 91.556601 
L 208.142657 90.61451 
L 208.277824 90.61451 
L 208.336939 88.730327 
L 208.473503 88.730327 
L 208.477481 87.788235 
L 208.646502 87.788235 
L 208.646502 87.31719 
L 209.119254 87.31719 
L 209.119254 86.846144 
L 209.448761 86.846144 
L 209.448761 86.375098 
L 209.593381 86.375098 
L 209.593381 85.904052 
L 209.767565 85.904052 
L 209.767565 85.433007 
L 210.819635 85.433007 
L 210.819635 84.961961 
L 211.217327 84.961961 
L 211.325373 83.548824 
L 211.669973 83.548824 
L 211.669973 83.077778 
L 211.89115 83.077778 
L 211.916923 81.664641 
L 212.127284 81.664641 
L 212.223726 80.722549 
L 212.530675 80.722549 
L 212.620606 78.838366 
L 212.671217 78.838366 
L 212.688886 77.896275 
L 212.998363 77.896275 
L 213.078965 76.954183 
L 213.339372 76.954183 
L 213.441039 76.012092 
L 213.478735 76.012092 
L 213.478735 75.541046 
L 213.60867 75.541046 
L 213.60867 75.07 
L 214.002351 75.07 
L 214.051321 74.127908 
L 214.181921 74.127908 
L 214.181921 73.656863 
L 214.416297 73.656863 
L 214.416297 73.185817 
L 214.593901 73.185817 
L 214.593901 72.714771 
L 214.804261 72.714771 
L 214.871015 71.77268 
L 214.93097 71.77268 
L 214.942458 70.830588 
L 215.164089 70.830588 
L 215.164089 70.359542 
L 215.740609 70.359542 
L 215.787171 69.417451 
L 216.134525 69.417451 
L 216.134525 68.946405 
L 216.361672 68.946405 
L 216.462553 67.062222 
L 216.547017 67.062222 
L 216.547017 66.591176 
L 216.814341 66.591176 
L 216.814341 66.120131 
L 216.928425 66.120131 
L 216.928425 65.649085 
L 217.155792 65.649085 
L 217.188831 64.706993 
L 217.328195 64.706993 
L 217.380891 63.764902 
L 217.524351 63.764902 
L 217.524351 63.293856 
L 217.886882 63.293856 
L 217.93043 62.351765 
L 218.066609 62.351765 
L 218.102436 61.409673 
L 218.213445 61.409673 
L 218.213445 60.938627 
L 218.417587 60.938627 
L 218.417587 60.467582 
L 218.751766 60.467582 
L 218.751766 59.996536 
L 218.969887 59.996536 
L 218.969887 59.52549 
L 219.139531 59.52549 
L 219.139531 59.054444 
L 219.400058 59.054444 
L 219.400058 58.583399 
L 219.561437 58.583399 
L 219.622028 57.170261 
L 219.748064 57.170261 
L 219.771797 56.22817 
L 219.865809 56.22817 
L 219.921265 55.286078 
L 220.005172 55.286078 
L 220.005172 54.815033 
L 220.655447 54.815033 
L 220.732259 53.401895 
L 220.91965 53.401895 
L 220.948615 52.459804 
L 221.051098 52.459804 
L 221.051098 51.988758 
L 221.171081 51.988758 
L 221.171081 51.517712 
L 221.759609 51.517712 
L 221.759609 51.046667 
L 221.934481 51.046667 
L 221.945719 50.104575 
L 222.078448 50.104575 
L 222.094196 49.162484 
L 222.526031 49.162484 
L 222.526031 48.691438 
L 222.7265 48.691438 
L 222.818948 47.278301 
L 223.385123 47.278301 
L 223.385123 46.807255 
L 223.501137 46.807255 
L 223.593794 45.865163 
L 224.024122 45.865163 
L 224.107067 44.923072 
L 224.572938 44.923072 
L 224.572938 44.452026 
L 224.79876 44.452026 
L 224.833345 43.509935 
L 224.935271 43.509935 
L 224.972708 42.567843 
L 225.075813 42.567843 
L 225.113386 41.625752 
L 225.276911 41.625752 
L 225.276911 41.154706 
L 225.868461 41.154706 
L 225.962621 40.212614 
L 226.078822 40.212614 
L 226.103163 39.270523 
L 226.349718 39.270523 
L 226.349718 38.799477 
L 226.834237 38.799477 
L 226.834237 38.328431 
L 227.071661 38.328431 
L 227.071661 37.857386 
L 227.537533 37.857386 
L 227.537533 37.38634 
L 227.79794 37.38634 
L 227.79794 36.915294 
L 227.937303 36.915294 
L 227.937303 36.444248 
L 228.217858 36.444248 
L 228.217858 35.973203 
L 228.389656 35.973203 
L 228.389656 35.502157 
L 228.984653 35.502157 
L 228.992495 34.560065 
L 229.218937 34.560065 
L 229.218937 34.08902 
L 229.687278 34.08902 
L 229.692148 33.146928 
L 230.246287 33.146928 
L 230.246287 32.675882 
L 230.414091 32.675882 
L 230.414091 32.204837 
L 230.879963 32.204837 
L 230.926524 31.262745 
L 231.14037 31.262745 
L 231.14037 30.791699 
L 231.279733 30.791699 
L 231.279733 30.320654 
L 233.060043 30.320654 
L 233.060043 29.849608 
L 233.881014 29.849608 
L 233.881014 29.378562 
L 234.087392 29.378562 
L 234.087392 28.907516 
L 235.998389 28.907516 
L 235.998389 28.436471 
L 237.025739 28.436471 
L 237.025739 27.965425 
L 237.322266 27.965425 
L 237.322266 27.494379 
L 237.517982 27.494379 
L 237.517982 27.023333 
L 238.545331 27.023333 
L 238.545331 26.552288 
L 240.487342 26.552288 
L 240.487342 26.081242 
L 240.622454 26.081242 
L 240.622454 25.610196 
L 241.171726 25.610196 
L 241.171726 25.13915 
L 241.397091 25.13915 
L 241.397091 24.668105 
L 241.649803 24.668105 
L 241.649803 24.197059 
L 242.424441 24.197059 
L 242.424441 23.726013 
L 243.848703 23.726013 
L 243.848703 23.254967 
L 246.28561 23.254967 
L 246.28561 22.783922 
L 247.312959 22.783922 
L 247.312959 22.312876 
L 248.816239 22.312876 
L 248.816239 21.84183 
L 251.780834 21.84183 
L 251.780834 21.370784 
L 255.123264 21.370784 
L 255.123264 20.899739 
L 255.569388 20.899739 
L 255.569388 20.428693 
L 258.487878 20.428693 
L 258.487878 19.957647 
L 259.298872 19.957647 
L 259.298872 19.486601 
L 259.617711 19.486601 
L 259.617711 19.015556 
L 263.501884 19.015556 
L 263.501884 18.54451 
L 263.642426 18.54451 
L 263.642426 18.073464 
L 267.78555 18.073464 
L 267.78555 17.602418 
L 271.626655 17.602418 
L 271.626655 17.131373 
L 274.565002 17.131373 
L 274.565002 16.660327 
L 276.084595 16.660327 
L 276.084595 16.189281 
L 279.189066 16.189281 
L 279.189066 15.718235 
L 279.963704 15.718235 
L 279.963704 15.24719 
L 284.852222 15.24719 
L 284.852222 14.776144 
L 285.698058 14.776144 
L 285.698058 14.305098 
L 290.198731 14.305098 
L 290.198731 13.834052 
L 295.130797 13.834052 
L 295.130797 13.363007 
L 299.146086 13.363007 
L 299.146086 12.891961 
L 300.701505 12.891961 
L 300.701505 12.420915 
L 301.999127 12.420915 
L 301.999127 11.949869 
L 306.192863 11.949869 
L 306.192863 11.478824 
L 318.597459 11.478824 
L 318.597459 11.007778 
L 319.624808 11.007778 
L 319.624808 10.536732 
L 320.327402 10.536732 
L 320.327402 10.065686 
L 325.259468 10.065686 
L 325.259468 9.594641 
L 329.274757 9.594641 
L 329.274757 9.123595 
L 330.830176 9.123595 
L 330.830176 8.652549 
L 332.127798 8.652549 
L 332.127798 8.181503 
L 336.321534 8.181503 
L 336.321534 7.710458 
L 348.72613 7.710458 
L 348.72613 7.239412 
L 349.753479 7.239412 
L 349.753479 6.768366 
L 357.164071 6.768366 
L 357.164071 6.29732 
L 387.292742 6.29732 
L 387.292742 5.826275 
L 453.192 5.826275 
L 453.192 5.826275 
" style="fill:none;stroke:#000000;stroke-linecap:square;stroke-width:3;"/>
   </g>
   <g id="line2d_61">
    <path clip-path="url(#pea22b4a735)" style="fill:none;stroke:#000000;stroke-linecap:square;stroke-width:3;"/>
   </g>
   <g id="line2d_62">
    <path clip-path="url(#pea22b4a735)" d="M 34.843257 5.826275 
L 34.16 5.826275 
L 453.192 5.826275 
L 461.8 5.826275 
" style="fill:none;stroke:#00bfbf;stroke-linecap:square;stroke-width:3;"/>
   </g>
   <g id="line2d_63">
    <path clip-path="url(#pea22b4a735)" d="M 34.843257 5.826275 
L 34.16 5.826275 
L 453.192 5.826275 
L 461.8 5.826275 
" style="fill:none;stroke:#bf00bf;stroke-linecap:square;stroke-width:3;"/>
   </g>
   <g id="line2d_64">
    <path clip-path="url(#pea22b4a735)" d="M 34.843257 5.826275 
L 34.16 5.826275 
L 453.192 5.826275 
L 461.8 5.826275 
" style="fill:none;stroke:#ff0000;stroke-linecap:square;stroke-width:3;"/>
   </g>
   <g id="line2d_65">
    <path clip-path="url(#pea22b4a735)" d="M 243.676 291.28 
L 243.676 3 
" style="fill:none;stroke:#000000;stroke-linecap:square;stroke-width:1.5;"/>
   </g>
   <g id="line2d_66">
    <path clip-path="url(#pea22b4a735)" d="M 34.16 147.14 
L 453.192 147.14 
" style="fill:none;stroke:#000000;stroke-dasharray:2,3.3;stroke-dashoffset:0;stroke-width:2;"/>
   </g>
   <g id="patch_3">
    <path d="M 34.16 291.28 
L 34.16 3 
" style="fill:none;stroke:#000000;stroke-linecap:square;stroke-linejoin:miter;stroke-width:0.8;"/>
   </g>
   <g id="patch_4">
    <path d="M 453.192 291.28 
L 453.192 3 
" style="fill:none;stroke:#000000;stroke-linecap:square;stroke-linejoin:miter;stroke-width:0.8;"/>
   </g>
   <g id="patch_5">
    <path d="M 34.16 291.28 
L 453.192 291.28 
" style="fill:none;stroke:#000000;stroke-linecap:square;stroke-linejoin:miter;stroke-width:0.8;"/>
   </g>
   <g id="patch_6">
    <path d="M 34.16 3 
L 453.192 3 
" style="fill:none;stroke:#000000;stroke-linecap:square;stroke-linejoin:miter;stroke-width:0.8;"/>
   </g>
   <g id="text_5">
    <!-- f6-f8,40-D -->
    <g transform="translate(343.64261 285.5144)scale(0.2 -0.2)">
     <defs>
      <path d="M 2113 2584 
Q 1688 2584 1439 2293 
Q 1191 2003 1191 1497 
Q 1191 994 1439 701 
Q 1688 409 2113 409 
Q 2538 409 2786 701 
Q 3034 994 3034 1497 
Q 3034 2003 2786 2293 
Q 2538 2584 2113 2584 
z
M 3366 4563 
L 3366 3988 
Q 3128 4100 2886 4159 
Q 2644 4219 2406 4219 
Q 1781 4219 1451 3797 
Q 1122 3375 1075 2522 
Q 1259 2794 1537 2939 
Q 1816 3084 2150 3084 
Q 2853 3084 3261 2657 
Q 3669 2231 3669 1497 
Q 3669 778 3244 343 
Q 2819 -91 2113 -91 
Q 1303 -91 875 529 
Q 447 1150 447 2328 
Q 447 3434 972 4092 
Q 1497 4750 2381 4750 
Q 2619 4750 2861 4703 
Q 3103 4656 3366 4563 
z
" id="DejaVuSans-36" transform="scale(0.015625)"/>
      <path d="M 2034 2216 
Q 1584 2216 1326 1975 
Q 1069 1734 1069 1313 
Q 1069 891 1326 650 
Q 1584 409 2034 409 
Q 2484 409 2743 651 
Q 3003 894 3003 1313 
Q 3003 1734 2745 1975 
Q 2488 2216 2034 2216 
z
M 1403 2484 
Q 997 2584 770 2862 
Q 544 3141 544 3541 
Q 544 4100 942 4425 
Q 1341 4750 2034 4750 
Q 2731 4750 3128 4425 
Q 3525 4100 3525 3541 
Q 3525 3141 3298 2862 
Q 3072 2584 2669 2484 
Q 3125 2378 3379 2068 
Q 3634 1759 3634 1313 
Q 3634 634 3220 271 
Q 2806 -91 2034 -91 
Q 1263 -91 848 271 
Q 434 634 434 1313 
Q 434 1759 690 2068 
Q 947 2378 1403 2484 
z
M 1172 3481 
Q 1172 3119 1398 2916 
Q 1625 2713 2034 2713 
Q 2441 2713 2670 2916 
Q 2900 3119 2900 3481 
Q 2900 3844 2670 4047 
Q 2441 4250 2034 4250 
Q 1625 4250 1398 4047 
Q 1172 3844 1172 3481 
z
" id="DejaVuSans-38" transform="scale(0.015625)"/>
      <path d="M 750 794 
L 1409 794 
L 1409 256 
L 897 -744 
L 494 -744 
L 750 256 
L 750 794 
z
" id="DejaVuSans-2c" transform="scale(0.015625)"/>
      <path d="M 2419 4116 
L 825 1625 
L 2419 1625 
L 2419 4116 
z
M 2253 4666 
L 3047 4666 
L 3047 1625 
L 3713 1625 
L 3713 1100 
L 3047 1100 
L 3047 0 
L 2419 0 
L 2419 1100 
L 313 1100 
L 313 1709 
L 2253 4666 
z
" id="DejaVuSans-34" transform="scale(0.015625)"/>
      <path d="M 1259 4147 
L 1259 519 
L 2022 519 
Q 2988 519 3436 956 
Q 3884 1394 3884 2338 
Q 3884 3275 3436 3711 
Q 2988 4147 2022 4147 
L 1259 4147 
z
M 628 4666 
L 1925 4666 
Q 3281 4666 3915 4102 
Q 4550 3538 4550 2338 
Q 4550 1131 3912 565 
Q 3275 0 1925 0 
L 628 0 
L 628 4666 
z
" id="DejaVuSans-44" transform="scale(0.015625)"/>
     </defs>
     <use xlink:href="#DejaVuSans-66"/>
     <use x="35.205078" xlink:href="#DejaVuSans-36"/>
     <use x="98.828125" xlink:href="#DejaVuSans-2d"/>
     <use x="134.912109" xlink:href="#DejaVuSans-66"/>
     <use x="170.117188" xlink:href="#DejaVuSans-38"/>
     <use x="233.740234" xlink:href="#DejaVuSans-2c"/>
     <use x="265.527344" xlink:href="#DejaVuSans-34"/>
     <use x="329.150391" xlink:href="#DejaVuSans-30"/>
     <use x="392.773438" xlink:href="#DejaVuSans-2d"/>
     <use x="428.857422" xlink:href="#DejaVuSans-44"/>
    </g>
   </g>
   <g id="text_6">
    <!-- v2.6.3 -->
    <g style="fill:#808080;" transform="translate(227.99475 286.317512)scale(0.1 -0.1)">
     <defs>
      <path d="M 1228 531 
L 3431 531 
L 3431 0 
L 469 0 
L 469 531 
Q 828 903 1448 1529 
Q 2069 2156 2228 2338 
Q 2531 2678 2651 2914 
Q 2772 3150 2772 3378 
Q 2772 3750 2511 3984 
Q 2250 4219 1831 4219 
Q 1534 4219 1204 4116 
Q 875 4013 500 3803 
L 500 4441 
Q 881 4594 1212 4672 
Q 1544 4750 1819 4750 
Q 2544 4750 2975 4387 
Q 3406 4025 3406 3419 
Q 3406 3131 3298 2873 
Q 3191 2616 2906 2266 
Q 2828 2175 2409 1742 
Q 1991 1309 1228 531 
z
" id="DejaVuSans-32" transform="scale(0.015625)"/>
      <path d="M 684 794 
L 1344 794 
L 1344 0 
L 684 0 
L 684 794 
z
" id="DejaVuSans-2e" transform="scale(0.015625)"/>
      <path d="M 2597 2516 
Q 3050 2419 3304 2112 
Q 3559 1806 3559 1356 
Q 3559 666 3084 287 
Q 2609 -91 1734 -91 
Q 1441 -91 1130 -33 
Q 819 25 488 141 
L 488 750 
Q 750 597 1062 519 
Q 1375 441 1716 441 
Q 2309 441 2620 675 
Q 2931 909 2931 1356 
Q 2931 1769 2642 2001 
Q 2353 2234 1838 2234 
L 1294 2234 
L 1294 2753 
L 1863 2753 
Q 2328 2753 2575 2939 
Q 2822 3125 2822 3475 
Q 2822 3834 2567 4026 
Q 2313 4219 1838 4219 
Q 1578 4219 1281 4162 
Q 984 4106 628 3988 
L 628 4550 
Q 988 4650 1302 4700 
Q 1616 4750 1894 4750 
Q 2613 4750 3031 4423 
Q 3450 4097 3450 3541 
Q 3450 3153 3228 2886 
Q 3006 2619 2597 2516 
z
" id="DejaVuSans-33" transform="scale(0.015625)"/>
     </defs>
     <use xlink:href="#DejaVuSans-76"/>
     <use x="59.179688" xlink:href="#DejaVuSans-32"/>
     <use x="122.802734" xlink:href="#DejaVuSans-2e"/>
     <use x="154.589844" xlink:href="#DejaVuSans-36"/>
     <use x="218.212891" xlink:href="#DejaVuSans-2e"/>
     <use x="250" xlink:href="#DejaVuSans-33"/>
    </g>
   </g>
   <g id="legend_1">
    <g id="patch_7">
     <path d="M 309.970125 136.425 
L 439.192 136.425 
Q 443.192 136.425 443.192 132.425 
L 443.192 17 
Q 443.192 13 439.192 13 
L 309.970125 13 
Q 305.970125 13 305.970125 17 
L 305.970125 132.425 
Q 305.970125 136.425 309.970125 136.425 
z
" style="fill:#ffffff;opacity:0.2;stroke:#cccccc;stroke-linejoin:miter;"/>
    </g>
    <g id="line2d_67">
     <path d="M 313.970125 29.196875 
L 353.970125 29.196875 
" style="fill:none;stroke:#000000;stroke-linecap:square;stroke-width:3;"/>
    </g>
    <g id="line2d_68"/>
    <g id="text_7">
     <!-- 1: 3/2 -->
     <g transform="translate(369.970125 36.196875)scale(0.2 -0.2)">
      <defs>
       <path d="M 750 794 
L 1409 794 
L 1409 0 
L 750 0 
L 750 794 
z
M 750 3309 
L 1409 3309 
L 1409 2516 
L 750 2516 
L 750 3309 
z
" id="DejaVuSans-3a" transform="scale(0.015625)"/>
       <path d="M 1625 4666 
L 2156 4666 
L 531 -594 
L 0 -594 
L 1625 4666 
z
" id="DejaVuSans-2f" transform="scale(0.015625)"/>
      </defs>
      <use xlink:href="#DejaVuSans-31"/>
      <use x="63.623047" xlink:href="#DejaVuSans-3a"/>
      <use x="97.314453" xlink:href="#DejaVuSans-20"/>
      <use x="129.101562" xlink:href="#DejaVuSans-33"/>
      <use x="192.724609" xlink:href="#DejaVuSans-2f"/>
      <use x="226.416016" xlink:href="#DejaVuSans-32"/>
     </g>
    </g>
    <g id="line2d_69">
     <path d="M 313.970125 58.553125 
L 353.970125 58.553125 
" style="fill:none;stroke:#00bfbf;stroke-linecap:square;stroke-width:3;"/>
    </g>
    <g id="line2d_70"/>
    <g id="text_8">
     <!-- -1: 1/0 -->
     <g transform="translate(369.970125 65.553125)scale(0.2 -0.2)">
      <use xlink:href="#DejaVuSans-2d"/>
      <use x="36.083984" xlink:href="#DejaVuSans-31"/>
      <use x="99.707031" xlink:href="#DejaVuSans-3a"/>
      <use x="133.398438" xlink:href="#DejaVuSans-20"/>
      <use x="165.185547" xlink:href="#DejaVuSans-31"/>
      <use x="228.808594" xlink:href="#DejaVuSans-2f"/>
      <use x="262.5" xlink:href="#DejaVuSans-30"/>
     </g>
    </g>
    <g id="line2d_71">
     <path d="M 313.970125 87.909375 
L 353.970125 87.909375 
" style="fill:none;stroke:#bf00bf;stroke-linecap:square;stroke-width:3;"/>
    </g>
    <g id="line2d_72"/>
    <g id="text_9">
     <!-- -4: 1/0 -->
     <g transform="translate(369.970125 94.909375)scale(0.2 -0.2)">
      <use xlink:href="#DejaVuSans-2d"/>
      <use x="36.083984" xlink:href="#DejaVuSans-34"/>
      <use x="99.707031" xlink:href="#DejaVuSans-3a"/>
      <use x="133.398438" xlink:href="#DejaVuSans-20"/>
      <use x="165.185547" xlink:href="#DejaVuSans-31"/>
      <use x="228.808594" xlink:href="#DejaVuSans-2f"/>
      <use x="262.5" xlink:href="#DejaVuSans-30"/>
     </g>
    </g>
    <g id="line2d_73">
     <path d="M 313.970125 117.265625 
L 353.970125 117.265625 
" style="fill:none;stroke:#ff0000;stroke-linecap:square;stroke-width:3;"/>
    </g>
    <g id="line2d_74"/>
    <g id="text_10">
     <!-- -8: 1/0 -->
     <g transform="translate(369.970125 124.265625)scale(0.2 -0.2)">
      <use xlink:href="#DejaVuSans-2d"/>
      <use x="36.083984" xlink:href="#DejaVuSans-38"/>
      <use x="99.707031" xlink:href="#DejaVuSans-3a"/>
      <use x="133.398438" xlink:href="#DejaVuSans-20"/>
      <use x="165.185547" xlink:href="#DejaVuSans-31"/>
      <use x="228.808594" xlink:href="#DejaVuSans-2f"/>
      <use x="262.5" xlink:href="#DejaVuSans-30"/>
     </g>
    </g>
   </g>
  </g>
 </g>
 <defs>
  <clipPath id="pea22b4a735">
   <rect height="288.28" width="419.032" x="34.16" y="3"/>
  </clipPath>
 </defs>
</svg>
