<?xml version="1.0" encoding="utf-8" standalone="no"?>
<!DOCTYPE svg PUBLIC "-//W3C//DTD SVG 1.1//EN"
  "http://www.w3.org/Graphics/SVG/1.1/DTD/svg11.dtd">
<svg height="345.6pt" version="1.1" viewBox="0 0 460.8 345.6" width="460.8pt" xmlns="http://www.w3.org/2000/svg" xmlns:xlink="http://www.w3.org/1999/xlink">
 <metadata>
  <rdf:RDF xmlns:cc="http://creativecommons.org/ns#" xmlns:dc="http://purl.org/dc/elements/1.1/" xmlns:rdf="http://www.w3.org/1999/02/22-rdf-syntax-ns#">
   <cc:Work>
    <dc:type rdf:resource="http://purl.org/dc/dcmitype/StillImage"/>
    <dc:date>2023-04-17T18:16:41.940389</dc:date>
    <dc:format>image/svg+xml</dc:format>
    <dc:creator>
     <cc:Agent>
      <dc:title>Matplotlib v3.4.1, https://matplotlib.org/</dc:title>
     </cc:Agent>
    </dc:creator>
   </cc:Work>
  </rdf:RDF>
 </metadata>
 <defs>
  <style type="text/css">*{stroke-linecap:butt;stroke-linejoin:round;}</style>
 </defs>
 <g id="figure_1">
  <g id="patch_1">
   <path d="M 0 345.6 
L 460.8 345.6 
L 460.8 0 
L 0 0 
z
" style="fill:#ffffff;"/>
  </g>
  <g id="axes_1">
   <g id="patch_2">
    <path d="M 34.16 291.28 
L 453.192 291.28 
L 453.192 3 
L 34.16 3 
z
" style="fill:#ffffff;"/>
   </g>
   <g id="matplotlib.axis_1">
    <g id="xtick_1">
     <g id="line2d_1">
      <path clip-path="url(#pd80f6b5f6e)" d="M 107.296794 291.28 
L 107.296794 3 
" style="fill:none;stroke:#b0b0b0;stroke-linecap:square;stroke-width:0.8;"/>
     </g>
     <g id="line2d_2">
      <defs>
       <path d="M 0 0 
L 0 3.5 
" id="m7c17e7b008" style="stroke:#000000;stroke-width:0.8;"/>
      </defs>
      <g>
       <use style="stroke:#000000;stroke-width:0.8;" x="107.296794" xlink:href="#m7c17e7b008" y="291.28"/>
      </g>
     </g>
     <g id="text_1">
      <!-- -2 -->
      <g transform="translate(97.326482 313.476875)scale(0.2 -0.2)">
       <defs>
        <path d="M 313 2009 
L 1997 2009 
L 1997 1497 
L 313 1497 
L 313 2009 
z
" id="DejaVuSans-2d" transform="scale(0.015625)"/>
        <path d="M 1228 531 
L 3431 531 
L 3431 0 
L 469 0 
L 469 531 
Q 828 903 1448 1529 
Q 2069 2156 2228 2338 
Q 2531 2678 2651 2914 
Q 2772 3150 2772 3378 
Q 2772 3750 2511 3984 
Q 2250 4219 1831 4219 
Q 1534 4219 1204 4116 
Q 875 4013 500 3803 
L 500 4441 
Q 881 4594 1212 4672 
Q 1544 4750 1819 4750 
Q 2544 4750 2975 4387 
Q 3406 4025 3406 3419 
Q 3406 3131 3298 2873 
Q 3191 2616 2906 2266 
Q 2828 2175 2409 1742 
Q 1991 1309 1228 531 
z
" id="DejaVuSans-32" transform="scale(0.015625)"/>
       </defs>
       <use xlink:href="#DejaVuSans-2d"/>
       <use x="36.083984" xlink:href="#DejaVuSans-32"/>
      </g>
     </g>
    </g>
    <g id="xtick_2">
     <g id="line2d_3">
      <path clip-path="url(#pd80f6b5f6e)" d="M 243.676 291.28 
L 243.676 3 
" style="fill:none;stroke:#b0b0b0;stroke-linecap:square;stroke-width:0.8;"/>
     </g>
     <g id="line2d_4">
      <g>
       <use style="stroke:#000000;stroke-width:0.8;" x="243.676" xlink:href="#m7c17e7b008" y="291.28"/>
      </g>
     </g>
     <g id="text_2">
      <!-- 0 -->
      <g transform="translate(237.3135 313.476875)scale(0.2 -0.2)">
       <defs>
        <path d="M 2034 4250 
Q 1547 4250 1301 3770 
Q 1056 3291 1056 2328 
Q 1056 1369 1301 889 
Q 1547 409 2034 409 
Q 2525 409 2770 889 
Q 3016 1369 3016 2328 
Q 3016 3291 2770 3770 
Q 2525 4250 2034 4250 
z
M 2034 4750 
Q 2819 4750 3233 4129 
Q 3647 3509 3647 2328 
Q 3647 1150 3233 529 
Q 2819 -91 2034 -91 
Q 1250 -91 836 529 
Q 422 1150 422 2328 
Q 422 3509 836 4129 
Q 1250 4750 2034 4750 
z
" id="DejaVuSans-30" transform="scale(0.015625)"/>
       </defs>
       <use xlink:href="#DejaVuSans-30"/>
      </g>
     </g>
    </g>
    <g id="xtick_3">
     <g id="line2d_5">
      <path clip-path="url(#pd80f6b5f6e)" d="M 380.055206 291.28 
L 380.055206 3 
" style="fill:none;stroke:#b0b0b0;stroke-linecap:square;stroke-width:0.8;"/>
     </g>
     <g id="line2d_6">
      <g>
       <use style="stroke:#000000;stroke-width:0.8;" x="380.055206" xlink:href="#m7c17e7b008" y="291.28"/>
      </g>
     </g>
     <g id="text_3">
      <!-- 2 -->
      <g transform="translate(373.692706 313.476875)scale(0.2 -0.2)">
       <use xlink:href="#DejaVuSans-32"/>
      </g>
     </g>
    </g>
    <g id="text_4">
     <!-- log10 of FEvals ratio -->
     <g transform="translate(141.371312 336.833125)scale(0.2 -0.2)">
      <defs>
       <path d="M 603 4863 
L 1178 4863 
L 1178 0 
L 603 0 
L 603 4863 
z
" id="DejaVuSans-6c" transform="scale(0.015625)"/>
       <path d="M 1959 3097 
Q 1497 3097 1228 2736 
Q 959 2375 959 1747 
Q 959 1119 1226 758 
Q 1494 397 1959 397 
Q 2419 397 2687 759 
Q 2956 1122 2956 1747 
Q 2956 2369 2687 2733 
Q 2419 3097 1959 3097 
z
M 1959 3584 
Q 2709 3584 3137 3096 
Q 3566 2609 3566 1747 
Q 3566 888 3137 398 
Q 2709 -91 1959 -91 
Q 1206 -91 779 398 
Q 353 888 353 1747 
Q 353 2609 779 3096 
Q 1206 3584 1959 3584 
z
" id="DejaVuSans-6f" transform="scale(0.015625)"/>
       <path d="M 2906 1791 
Q 2906 2416 2648 2759 
Q 2391 3103 1925 3103 
Q 1463 3103 1205 2759 
Q 947 2416 947 1791 
Q 947 1169 1205 825 
Q 1463 481 1925 481 
Q 2391 481 2648 825 
Q 2906 1169 2906 1791 
z
M 3481 434 
Q 3481 -459 3084 -895 
Q 2688 -1331 1869 -1331 
Q 1566 -1331 1297 -1286 
Q 1028 -1241 775 -1147 
L 775 -588 
Q 1028 -725 1275 -790 
Q 1522 -856 1778 -856 
Q 2344 -856 2625 -561 
Q 2906 -266 2906 331 
L 2906 616 
Q 2728 306 2450 153 
Q 2172 0 1784 0 
Q 1141 0 747 490 
Q 353 981 353 1791 
Q 353 2603 747 3093 
Q 1141 3584 1784 3584 
Q 2172 3584 2450 3431 
Q 2728 3278 2906 2969 
L 2906 3500 
L 3481 3500 
L 3481 434 
z
" id="DejaVuSans-67" transform="scale(0.015625)"/>
       <path d="M 794 531 
L 1825 531 
L 1825 4091 
L 703 3866 
L 703 4441 
L 1819 4666 
L 2450 4666 
L 2450 531 
L 3481 531 
L 3481 0 
L 794 0 
L 794 531 
z
" id="DejaVuSans-31" transform="scale(0.015625)"/>
       <path id="DejaVuSans-20" transform="scale(0.015625)"/>
       <path d="M 2375 4863 
L 2375 4384 
L 1825 4384 
Q 1516 4384 1395 4259 
Q 1275 4134 1275 3809 
L 1275 3500 
L 2222 3500 
L 2222 3053 
L 1275 3053 
L 1275 0 
L 697 0 
L 697 3053 
L 147 3053 
L 147 3500 
L 697 3500 
L 697 3744 
Q 697 4328 969 4595 
Q 1241 4863 1831 4863 
L 2375 4863 
z
" id="DejaVuSans-66" transform="scale(0.015625)"/>
       <path d="M 628 4666 
L 3309 4666 
L 3309 4134 
L 1259 4134 
L 1259 2759 
L 3109 2759 
L 3109 2228 
L 1259 2228 
L 1259 0 
L 628 0 
L 628 4666 
z
" id="DejaVuSans-46" transform="scale(0.015625)"/>
       <path d="M 628 4666 
L 3578 4666 
L 3578 4134 
L 1259 4134 
L 1259 2753 
L 3481 2753 
L 3481 2222 
L 1259 2222 
L 1259 531 
L 3634 531 
L 3634 0 
L 628 0 
L 628 4666 
z
" id="DejaVuSans-45" transform="scale(0.015625)"/>
       <path d="M 191 3500 
L 800 3500 
L 1894 563 
L 2988 3500 
L 3597 3500 
L 2284 0 
L 1503 0 
L 191 3500 
z
" id="DejaVuSans-76" transform="scale(0.015625)"/>
       <path d="M 2194 1759 
Q 1497 1759 1228 1600 
Q 959 1441 959 1056 
Q 959 750 1161 570 
Q 1363 391 1709 391 
Q 2188 391 2477 730 
Q 2766 1069 2766 1631 
L 2766 1759 
L 2194 1759 
z
M 3341 1997 
L 3341 0 
L 2766 0 
L 2766 531 
Q 2569 213 2275 61 
Q 1981 -91 1556 -91 
Q 1019 -91 701 211 
Q 384 513 384 1019 
Q 384 1609 779 1909 
Q 1175 2209 1959 2209 
L 2766 2209 
L 2766 2266 
Q 2766 2663 2505 2880 
Q 2244 3097 1772 3097 
Q 1472 3097 1187 3025 
Q 903 2953 641 2809 
L 641 3341 
Q 956 3463 1253 3523 
Q 1550 3584 1831 3584 
Q 2591 3584 2966 3190 
Q 3341 2797 3341 1997 
z
" id="DejaVuSans-61" transform="scale(0.015625)"/>
       <path d="M 2834 3397 
L 2834 2853 
Q 2591 2978 2328 3040 
Q 2066 3103 1784 3103 
Q 1356 3103 1142 2972 
Q 928 2841 928 2578 
Q 928 2378 1081 2264 
Q 1234 2150 1697 2047 
L 1894 2003 
Q 2506 1872 2764 1633 
Q 3022 1394 3022 966 
Q 3022 478 2636 193 
Q 2250 -91 1575 -91 
Q 1294 -91 989 -36 
Q 684 19 347 128 
L 347 722 
Q 666 556 975 473 
Q 1284 391 1588 391 
Q 1994 391 2212 530 
Q 2431 669 2431 922 
Q 2431 1156 2273 1281 
Q 2116 1406 1581 1522 
L 1381 1569 
Q 847 1681 609 1914 
Q 372 2147 372 2553 
Q 372 3047 722 3315 
Q 1072 3584 1716 3584 
Q 2034 3584 2315 3537 
Q 2597 3491 2834 3397 
z
" id="DejaVuSans-73" transform="scale(0.015625)"/>
       <path d="M 2631 2963 
Q 2534 3019 2420 3045 
Q 2306 3072 2169 3072 
Q 1681 3072 1420 2755 
Q 1159 2438 1159 1844 
L 1159 0 
L 581 0 
L 581 3500 
L 1159 3500 
L 1159 2956 
Q 1341 3275 1631 3429 
Q 1922 3584 2338 3584 
Q 2397 3584 2469 3576 
Q 2541 3569 2628 3553 
L 2631 2963 
z
" id="DejaVuSans-72" transform="scale(0.015625)"/>
       <path d="M 1172 4494 
L 1172 3500 
L 2356 3500 
L 2356 3053 
L 1172 3053 
L 1172 1153 
Q 1172 725 1289 603 
Q 1406 481 1766 481 
L 2356 481 
L 2356 0 
L 1766 0 
Q 1100 0 847 248 
Q 594 497 594 1153 
L 594 3053 
L 172 3053 
L 172 3500 
L 594 3500 
L 594 4494 
L 1172 4494 
z
" id="DejaVuSans-74" transform="scale(0.015625)"/>
       <path d="M 603 3500 
L 1178 3500 
L 1178 0 
L 603 0 
L 603 3500 
z
M 603 4863 
L 1178 4863 
L 1178 4134 
L 603 4134 
L 603 4863 
z
" id="DejaVuSans-69" transform="scale(0.015625)"/>
      </defs>
      <use xlink:href="#DejaVuSans-6c"/>
      <use x="27.783203" xlink:href="#DejaVuSans-6f"/>
      <use x="88.964844" xlink:href="#DejaVuSans-67"/>
      <use x="152.441406" xlink:href="#DejaVuSans-31"/>
      <use x="216.064453" xlink:href="#DejaVuSans-30"/>
      <use x="279.6875" xlink:href="#DejaVuSans-20"/>
      <use x="311.474609" xlink:href="#DejaVuSans-6f"/>
      <use x="372.65625" xlink:href="#DejaVuSans-66"/>
      <use x="407.861328" xlink:href="#DejaVuSans-20"/>
      <use x="439.648438" xlink:href="#DejaVuSans-46"/>
      <use x="497.167969" xlink:href="#DejaVuSans-45"/>
      <use x="560.351562" xlink:href="#DejaVuSans-76"/>
      <use x="619.53125" xlink:href="#DejaVuSans-61"/>
      <use x="680.810547" xlink:href="#DejaVuSans-6c"/>
      <use x="708.59375" xlink:href="#DejaVuSans-73"/>
      <use x="760.693359" xlink:href="#DejaVuSans-20"/>
      <use x="792.480469" xlink:href="#DejaVuSans-72"/>
      <use x="833.59375" xlink:href="#DejaVuSans-61"/>
      <use x="894.873047" xlink:href="#DejaVuSans-74"/>
      <use x="934.082031" xlink:href="#DejaVuSans-69"/>
      <use x="961.865234" xlink:href="#DejaVuSans-6f"/>
     </g>
    </g>
   </g>
   <g id="matplotlib.axis_2">
    <g id="ytick_1">
     <g id="line2d_7">
      <path clip-path="url(#pd80f6b5f6e)" d="M 34.16 288.453725 
L 453.192 288.453725 
" style="fill:none;stroke:#b0b0b0;stroke-linecap:square;stroke-width:0.8;"/>
     </g>
     <g id="line2d_8">
      <defs>
       <path d="M 0 0 
L -3.5 0 
" id="mfcddbf94c6" style="stroke:#000000;stroke-width:0.8;"/>
      </defs>
      <g>
       <use style="stroke:#000000;stroke-width:0.8;" x="34.16" xlink:href="#mfcddbf94c6" y="288.453725"/>
      </g>
     </g>
    </g>
    <g id="ytick_2">
     <g id="line2d_9">
      <path clip-path="url(#pd80f6b5f6e)" d="M 34.16 217.796863 
L 453.192 217.796863 
" style="fill:none;stroke:#b0b0b0;stroke-linecap:square;stroke-width:0.8;"/>
     </g>
     <g id="line2d_10">
      <g>
       <use style="stroke:#000000;stroke-width:0.8;" x="34.16" xlink:href="#mfcddbf94c6" y="217.796863"/>
      </g>
     </g>
    </g>
    <g id="ytick_3">
     <g id="line2d_11">
      <path clip-path="url(#pd80f6b5f6e)" d="M 34.16 147.14 
L 453.192 147.14 
" style="fill:none;stroke:#b0b0b0;stroke-linecap:square;stroke-width:0.8;"/>
     </g>
     <g id="line2d_12">
      <g>
       <use style="stroke:#000000;stroke-width:0.8;" x="34.16" xlink:href="#mfcddbf94c6" y="147.14"/>
      </g>
     </g>
    </g>
    <g id="ytick_4">
     <g id="line2d_13">
      <path clip-path="url(#pd80f6b5f6e)" d="M 34.16 76.483137 
L 453.192 76.483137 
" style="fill:none;stroke:#b0b0b0;stroke-linecap:square;stroke-width:0.8;"/>
     </g>
     <g id="line2d_14">
      <g>
       <use style="stroke:#000000;stroke-width:0.8;" x="34.16" xlink:href="#mfcddbf94c6" y="76.483137"/>
      </g>
     </g>
    </g>
    <g id="ytick_5">
     <g id="line2d_15">
      <path clip-path="url(#pd80f6b5f6e)" d="M 34.16 5.826275 
L 453.192 5.826275 
" style="fill:none;stroke:#b0b0b0;stroke-linecap:square;stroke-width:0.8;"/>
     </g>
     <g id="line2d_16">
      <g>
       <use style="stroke:#000000;stroke-width:0.8;" x="34.16" xlink:href="#mfcddbf94c6" y="5.826275"/>
      </g>
     </g>
    </g>
    <g id="text_5">
     <!-- proportion of trials -->
     <g transform="translate(19.000625 240.14625)rotate(-90)scale(0.2 -0.2)">
      <defs>
       <path d="M 1159 525 
L 1159 -1331 
L 581 -1331 
L 581 3500 
L 1159 3500 
L 1159 2969 
Q 1341 3281 1617 3432 
Q 1894 3584 2278 3584 
Q 2916 3584 3314 3078 
Q 3713 2572 3713 1747 
Q 3713 922 3314 415 
Q 2916 -91 2278 -91 
Q 1894 -91 1617 61 
Q 1341 213 1159 525 
z
M 3116 1747 
Q 3116 2381 2855 2742 
Q 2594 3103 2138 3103 
Q 1681 3103 1420 2742 
Q 1159 2381 1159 1747 
Q 1159 1113 1420 752 
Q 1681 391 2138 391 
Q 2594 391 2855 752 
Q 3116 1113 3116 1747 
z
" id="DejaVuSans-70" transform="scale(0.015625)"/>
       <path d="M 3513 2113 
L 3513 0 
L 2938 0 
L 2938 2094 
Q 2938 2591 2744 2837 
Q 2550 3084 2163 3084 
Q 1697 3084 1428 2787 
Q 1159 2491 1159 1978 
L 1159 0 
L 581 0 
L 581 3500 
L 1159 3500 
L 1159 2956 
Q 1366 3272 1645 3428 
Q 1925 3584 2291 3584 
Q 2894 3584 3203 3211 
Q 3513 2838 3513 2113 
z
" id="DejaVuSans-6e" transform="scale(0.015625)"/>
      </defs>
      <use xlink:href="#DejaVuSans-70"/>
      <use x="63.476562" xlink:href="#DejaVuSans-72"/>
      <use x="102.339844" xlink:href="#DejaVuSans-6f"/>
      <use x="163.521484" xlink:href="#DejaVuSans-70"/>
      <use x="226.998047" xlink:href="#DejaVuSans-6f"/>
      <use x="288.179688" xlink:href="#DejaVuSans-72"/>
      <use x="329.292969" xlink:href="#DejaVuSans-74"/>
      <use x="368.501953" xlink:href="#DejaVuSans-69"/>
      <use x="396.285156" xlink:href="#DejaVuSans-6f"/>
      <use x="457.466797" xlink:href="#DejaVuSans-6e"/>
      <use x="520.845703" xlink:href="#DejaVuSans-20"/>
      <use x="552.632812" xlink:href="#DejaVuSans-6f"/>
      <use x="613.814453" xlink:href="#DejaVuSans-66"/>
      <use x="649.019531" xlink:href="#DejaVuSans-20"/>
      <use x="680.806641" xlink:href="#DejaVuSans-74"/>
      <use x="720.015625" xlink:href="#DejaVuSans-72"/>
      <use x="761.128906" xlink:href="#DejaVuSans-69"/>
      <use x="788.912109" xlink:href="#DejaVuSans-61"/>
      <use x="850.191406" xlink:href="#DejaVuSans-6c"/>
      <use x="877.974609" xlink:href="#DejaVuSans-73"/>
     </g>
    </g>
   </g>
   <g id="line2d_17">
    <path clip-path="url(#pd80f6b5f6e)" d="M 34.16 231.109025 
L 52.591786 231.109025 
L 52.591786 230.835955 
L 53.041116 230.835955 
L 53.041116 230.562885 
L 53.5278 230.562885 
L 53.5278 230.289815 
L 61.453675 230.289815 
L 61.453675 230.016745 
L 61.903005 230.016745 
L 61.903005 229.743675 
L 65.872506 229.743675 
L 65.872506 229.470605 
L 66.249027 229.470605 
L 66.321836 228.924465 
L 66.483134 228.924465 
L 66.483134 228.651395 
L 70.21972 228.651395 
L 70.21972 228.378325 
L 74.944303 228.378325 
L 74.944303 228.105255 
L 75.465391 228.105255 
L 75.465391 227.832185 
L 76.146211 227.832185 
L 76.146211 227.559115 
L 76.975799 227.559115 
L 76.975799 227.286045 
L 78.578241 227.286045 
L 78.578241 227.012975 
L 82.940947 227.012975 
L 83.022471 226.466835 
L 83.175054 226.466835 
L 83.175054 226.193765 
L 85.223496 226.193765 
L 85.23721 225.647625 
L 87.44013 225.647625 
L 87.44013 225.374555 
L 88.582876 225.374555 
L 88.582876 225.101485 
L 91.636223 225.101485 
L 91.636223 224.828415 
L 91.858961 224.828415 
L 91.858961 224.555345 
L 92.157311 224.555345 
L 92.157311 224.282275 
L 92.838131 224.282275 
L 92.838131 224.009205 
L 93.667719 224.009205 
L 93.667719 223.736135 
L 94.940998 223.736135 
L 94.940998 223.463065 
L 97.944723 223.463065 
L 97.958437 222.916925 
L 98.17883 222.916925 
L 98.192544 222.370785 
L 99.714391 222.370785 
L 99.714391 222.097715 
L 101.304102 222.097715 
L 101.304102 221.824645 
L 101.538209 221.824645 
L 101.538209 221.551575 
L 102.90143 221.551575 
L 102.90143 221.278505 
L 106.22224 221.278505 
L 106.22224 221.005435 
L 106.639999 221.005435 
L 106.653713 220.459295 
L 107.161086 220.459295 
L 107.174801 219.913155 
L 107.841906 219.913155 
L 107.855621 219.367015 
L 108.671495 219.367015 
L 108.685209 218.820875 
L 109.999379 218.820875 
L 109.999379 218.547805 
L 110.520466 218.547805 
L 110.520466 218.274735 
L 111.201286 218.274735 
L 111.201286 218.001665 
L 111.625897 218.001665 
L 111.632918 217.455525 
L 112.030874 217.455525 
L 112.030874 217.182455 
L 112.601517 217.182455 
L 112.601517 216.909385 
L 112.957892 216.909385 
L 112.957892 216.636315 
L 114.718167 216.636315 
L 114.731881 216.090175 
L 115.191189 216.090175 
L 115.191189 215.817105 
L 116.698001 215.817105 
L 116.698001 215.544035 
L 118.077547 215.544035 
L 118.077547 215.270965 
L 118.943467 215.270965 
L 118.943467 214.997895 
L 119.177574 214.997895 
L 119.177574 214.724825 
L 119.963177 214.724825 
L 119.963177 214.451755 
L 120.193389 214.451755 
L 120.193389 214.178685 
L 123.022863 214.178685 
L 123.022863 213.905615 
L 124.680043 213.905615 
L 124.680043 213.632545 
L 125.001359 213.632545 
L 125.001359 213.359475 
L 126.636694 213.359475 
L 126.650408 212.813335 
L 127.638743 212.813335 
L 127.638743 212.540265 
L 128.159831 212.540265 
L 128.159831 212.267195 
L 128.840651 212.267195 
L 128.840651 211.994125 
L 129.525969 211.994125 
L 129.525969 211.721055 
L 129.656311 211.721055 
L 129.670239 211.174915 
L 129.996074 211.174915 
L 129.996074 210.901845 
L 130.68202 210.901845 
L 130.68202 210.628775 
L 132.914616 210.628775 
L 132.914616 210.355705 
L 133.148723 210.355705 
L 133.148723 210.082635 
L 135.716911 210.082635 
L 135.716911 209.809565 
L 135.981406 209.809565 
L 135.981406 209.536495 
L 141.609892 209.536495 
L 141.609892 209.263425 
L 142.13098 209.263425 
L 142.172318 208.717285 
L 142.247196 208.717285 
L 142.247196 208.444215 
L 142.481303 208.444215 
L 142.481303 208.171145 
L 142.8118 208.171145 
L 142.8118 207.898075 
L 143.641388 207.898075 
L 143.641388 207.625005 
L 143.955661 207.625005 
L 143.955661 207.078865 
L 144.5748 207.078865 
L 144.5748 206.805795 
L 144.843295 206.805795 
L 144.843295 206.532725 
L 146.746079 206.532725 
L 146.746079 206.259655 
L 147.195409 206.259655 
L 147.195409 205.986585 
L 147.635438 205.986585 
L 147.635438 205.713515 
L 148.918896 205.713515 
L 148.918896 205.440445 
L 149.262126 205.440445 
L 149.368226 204.894305 
L 149.68806 204.894305 
L 149.68806 204.621235 
L 150.942473 204.621235 
L 150.942473 204.348165 
L 151.46356 204.348165 
L 151.46356 204.075095 
L 152.14438 204.075095 
L 152.14438 203.802025 
L 152.680129 203.802025 
L 152.680129 203.255885 
L 152.973968 203.255885 
L 152.973968 202.982815 
L 153.655749 202.982815 
L 153.655749 202.436675 
L 154.012124 202.436675 
L 154.012124 201.890535 
L 156.24542 201.890535 
L 156.24542 201.344395 
L 156.644742 201.344395 
L 156.644742 201.071325 
L 156.934304 201.071325 
L 156.934304 200.798255 
L 157.752233 200.798255 
L 157.752233 200.252115 
L 159.02064 200.252115 
L 159.02064 199.979045 
L 159.669882 199.979045 
L 159.669882 199.705975 
L 159.960819 199.705975 
L 159.960819 199.432905 
L 160.134806 199.432905 
L 160.134806 199.159835 
L 161.017409 199.159835 
L 161.017409 198.613695 
L 161.362592 198.613695 
L 161.362592 198.340625 
L 161.536371 198.340625 
L 161.606587 197.794485 
L 163.733006 197.794485 
L 163.733006 197.521415 
L 164.077095 197.521415 
L 164.077095 196.975275 
L 165.658772 196.975275 
L 165.734275 195.882995 
L 166.055591 195.882995 
L 166.055591 195.336855 
L 166.634392 195.336855 
L 166.634392 195.063785 
L 166.990767 195.063785 
L 166.990767 194.790715 
L 167.305328 194.790715 
L 167.305328 194.517645 
L 167.953246 194.517645 
L 167.970847 193.971505 
L 168.394349 193.971505 
L 168.394349 193.698435 
L 169.224063 193.698435 
L 169.224063 193.425365 
L 169.36997 193.425365 
L 169.36997 193.152295 
L 169.726344 193.152295 
L 169.726344 192.879225 
L 170.087059 192.879225 
L 170.087059 192.606155 
L 170.710543 192.606155 
L 170.730875 191.786945 
L 170.939168 191.786945 
L 170.939168 191.513875 
L 171.06268 191.513875 
L 171.06268 191.240805 
L 171.419054 191.240805 
L 171.419054 190.967735 
L 171.62323 190.967735 
L 171.62323 190.694665 
L 171.736251 190.694665 
L 171.736251 190.148525 
L 171.959641 190.148525 
L 171.959641 189.875455 
L 172.07256 189.875455 
L 172.07256 189.602385 
L 172.457474 189.602385 
L 172.457474 189.329315 
L 172.732534 189.329315 
L 172.732534 189.056245 
L 173.336662 189.056245 
L 173.433094 188.510105 
L 173.466453 188.510105 
L 173.466453 188.237035 
L 173.652351 188.237035 
L 173.652351 187.963965 
L 173.789469 187.963965 
L 173.789469 187.690895 
L 173.996052 187.690895 
L 173.996052 187.417825 
L 174.780059 187.417825 
L 174.879938 186.871685 
L 174.905351 186.871685 
L 174.905351 186.598615 
L 175.159163 186.598615 
L 175.159163 186.325545 
L 175.469742 186.325545 
L 175.469742 186.052475 
L 175.919072 186.052475 
L 176.029795 185.233265 
L 176.652739 185.233265 
L 176.731629 184.414055 
L 176.853 184.414055 
L 176.853 184.140985 
L 177.005416 184.140985 
L 177.055738 183.594845 
L 177.193221 183.594845 
L 177.193221 183.321775 
L 177.36179 183.321775 
L 177.36179 183.048705 
L 177.529578 183.048705 
L 177.529578 182.775635 
L 177.642551 182.775635 
L 177.670935 182.229495 
L 178.02731 182.229495 
L 178.02731 181.956425 
L 178.156165 181.956425 
L 178.228291 181.410285 
L 178.380517 181.410285 
L 178.424339 180.864145 
L 178.712918 180.864145 
L 178.712918 180.591075 
L 179.034234 180.591075 
L 179.034234 180.318005 
L 179.595087 180.318005 
L 179.595087 180.044935 
L 179.758258 180.044935 
L 179.791315 179.498795 
L 180.260606 179.498795 
L 180.260606 179.225725 
L 180.629332 179.225725 
L 180.629332 178.952655 
L 180.794754 178.952655 
L 180.794754 178.679585 
L 181.101899 178.679585 
L 181.101899 178.406515 
L 181.448495 178.406515 
L 181.484025 177.860375 
L 181.767419 177.860375 
L 181.769812 177.314235 
L 182.417143 177.314235 
L 182.417143 177.041165 
L 182.599961 177.041165 
L 182.599961 176.768095 
L 183.049291 176.768095 
L 183.141206 175.948885 
L 183.22655 175.948885 
L 183.22655 175.402745 
L 183.462522 175.402745 
L 183.462522 175.129675 
L 183.689186 175.129675 
L 183.689186 174.856605 
L 183.85444 174.856605 
L 183.85444 174.583535 
L 184.367075 174.583535 
L 184.367075 174.310465 
L 184.486349 174.310465 
L 184.486349 174.037395 
L 184.671439 174.037395 
L 184.714894 173.491255 
L 185.032595 173.491255 
L 185.032595 173.218185 
L 185.186485 173.218185 
L 185.186485 172.945115 
L 185.51162 172.945115 
L 185.51162 172.672045 
L 185.629031 172.672045 
L 185.629031 172.125905 
L 185.741149 172.125905 
L 185.832936 171.306695 
L 186.23097 171.306695 
L 186.23097 171.033625 
L 186.424763 171.033625 
L 186.424763 170.760555 
L 187.065233 170.760555 
L 187.065233 170.214415 
L 187.426761 170.214415 
L 187.450472 169.668275 
L 188.092281 169.668275 
L 188.117474 169.122135 
L 188.340438 169.122135 
L 188.354152 168.575995 
L 188.482726 168.575995 
L 188.482726 168.302925 
L 188.825197 168.302925 
L 188.825197 168.029855 
L 188.938834 168.029855 
L 188.938834 167.756785 
L 189.083941 167.756785 
L 189.148855 166.937575 
L 189.353799 166.937575 
L 189.458346 165.845295 
L 189.749461 165.845295 
L 189.814721 165.299155 
L 190.070777 165.299155 
L 190.070777 165.026085 
L 190.32942 165.026085 
L 190.32942 164.753015 
L 190.487888 164.753015 
L 190.487888 164.479945 
L 190.685794 164.479945 
L 190.685794 164.206875 
L 190.956542 164.206875 
L 190.956542 163.933805 
L 191.498252 163.933805 
L 191.598132 163.114595 
L 191.630308 163.114595 
L 191.699818 161.749245 
L 191.780488 161.749245 
L 191.823093 161.203105 
L 192.048017 161.203105 
L 192.148808 160.656965 
L 192.798713 160.656965 
L 192.798713 160.383895 
L 192.919091 160.383895 
L 192.919091 160.110825 
L 193.155088 160.110825 
L 193.256699 159.018545 
L 193.554829 159.018545 
L 193.623297 158.199335 
L 193.960577 158.199335 
L 194.060209 157.380125 
L 194.425903 157.380125 
L 194.465617 156.833985 
L 194.725729 156.833985 
L 194.725729 156.560915 
L 194.874358 156.560915 
L 194.883673 155.741705 
L 195.00954 155.741705 
L 195.098711 154.649425 
L 195.388384 154.649425 
L 195.441237 154.103285 
L 195.751437 154.103285 
L 195.797611 153.557145 
L 196.205192 153.557145 
L 196.205192 153.284075 
L 196.42483 153.284075 
L 196.42483 153.011005 
L 196.591447 153.011005 
L 196.591447 152.737935 
L 196.820006 152.737935 
L 196.895197 152.191795 
L 197.420918 152.191795 
L 197.434633 151.645655 
L 197.549665 151.645655 
L 197.609685 151.099515 
L 197.669038 151.099515 
L 197.691079 150.553375 
L 197.873322 150.553375 
L 197.873322 150.280305 
L 198.030908 150.280305 
L 198.030908 150.007235 
L 198.482385 150.007235 
L 198.525285 149.461095 
L 198.607674 149.461095 
L 198.607674 149.188025 
L 198.848942 149.188025 
L 198.94077 148.095745 
L 199.205317 148.095745 
L 199.205317 147.822675 
L 199.448748 147.822675 
L 199.53772 147.276535 
L 199.879691 147.276535 
L 199.879691 147.003465 
L 200.160373 147.003465 
L 200.160373 146.730395 
L 200.450109 146.730395 
L 200.549989 146.184255 
L 200.63348 146.184255 
L 200.63348 145.911185 
L 200.750765 145.911185 
L 200.780298 145.365045 
L 200.876222 145.365045 
L 200.976102 144.818905 
L 201.114956 144.818905 
L 201.204542 144.272765 
L 201.343252 144.272765 
L 201.438614 143.726625 
L 201.456198 143.726625 
L 201.536872 143.180485 
L 201.710485 143.180485 
L 201.810365 142.088205 
L 201.858188 142.088205 
L 201.904678 141.542065 
L 202.262802 141.542065 
L 202.262802 141.268995 
L 202.407945 141.268995 
L 202.407945 140.995925 
L 202.621768 140.995925 
L 202.729262 140.449785 
L 202.802897 140.449785 
L 202.802897 140.176715 
L 202.945426 140.176715 
L 203.035962 139.357505 
L 203.179676 139.357505 
L 203.220059 138.811365 
L 203.660976 138.811365 
L 203.660976 138.538295 
L 203.826215 138.538295 
L 203.826215 138.265225 
L 204.050568 138.265225 
L 204.050568 137.992155 
L 204.194582 137.992155 
L 204.252329 137.446015 
L 204.476681 137.446015 
L 204.501714 136.899875 
L 204.735821 136.899875 
L 204.735821 136.626805 
L 204.877239 136.626805 
L 204.877239 136.353735 
L 205.086592 136.353735 
L 205.086592 135.807595 
L 205.198555 135.807595 
L 205.253553 135.261455 
L 205.310944 135.261455 
L 205.406376 134.442245 
L 205.487478 134.442245 
L 205.487478 134.169175 
L 205.862582 134.169175 
L 205.886945 133.623035 
L 205.977926 133.623035 
L 205.977926 133.349965 
L 206.210602 133.349965 
L 206.308816 132.257685 
L 206.37544 132.257685 
L 206.37544 131.984615 
L 206.51314 131.984615 
L 206.576216 130.619265 
L 206.968865 130.619265 
L 206.968865 130.346195 
L 207.241736 130.346195 
L 207.241736 130.073125 
L 207.384213 130.073125 
L 207.385976 129.526985 
L 207.519763 129.526985 
L 207.538848 128.980845 
L 207.674735 128.980845 
L 207.674735 128.707775 
L 207.841079 128.707775 
L 207.841079 128.434705 
L 208.409922 128.434705 
L 208.409922 128.161635 
L 208.536152 128.161635 
L 208.604659 127.342425 
L 208.676515 127.342425 
L 208.676515 127.069355 
L 208.94663 127.069355 
L 208.978698 126.523215 
L 209.270288 126.523215 
L 209.339183 125.977075 
L 209.644217 125.977075 
L 209.651667 125.430935 
L 209.853507 125.430935 
L 209.876019 124.884795 
L 210.1564 124.884795 
L 210.1564 124.611725 
L 210.582513 124.611725 
L 210.603811 124.065585 
L 210.856535 124.065585 
L 210.927468 122.973305 
L 211.248784 122.973305 
L 211.282649 122.427165 
L 211.416776 122.427165 
L 211.416776 121.881025 
L 211.615131 121.881025 
L 211.615131 121.607955 
L 211.727733 121.607955 
L 211.727733 121.334885 
L 211.849238 121.334885 
L 211.849238 121.061815 
L 212.116912 121.061815 
L 212.116912 120.515675 
L 212.314291 120.515675 
L 212.414171 119.969535 
L 212.496031 119.969535 
L 212.496031 119.696465 
L 212.655259 119.696465 
L 212.655259 119.423395 
L 213.143024 119.423395 
L 213.198323 118.604185 
L 213.521739 118.604185 
L 213.521739 118.331115 
L 213.718078 118.331115 
L 213.718078 118.058045 
L 214.035621 118.058045 
L 214.035621 117.784975 
L 214.230812 117.784975 
L 214.230812 117.511905 
L 214.364235 117.511905 
L 214.398898 116.692695 
L 214.589155 116.692695 
L 214.673202 116.146555 
L 214.787305 116.146555 
L 214.787305 115.873485 
L 214.92529 115.873485 
L 215.004092 115.054275 
L 215.194289 115.054275 
L 215.228487 113.961995 
L 215.52518 113.961995 
L 215.580079 113.415855 
L 215.690397 113.415855 
L 215.690397 113.142785 
L 215.875109 113.142785 
L 215.981851 112.050505 
L 216.206 112.050505 
L 216.206 111.777435 
L 216.605787 111.777435 
L 216.704698 110.685155 
L 216.929445 110.685155 
L 217.035588 110.139015 
L 217.052706 110.139015 
L 217.052706 109.865945 
L 217.685934 109.865945 
L 217.685934 109.592875 
L 217.886968 109.592875 
L 217.886968 109.046735 
L 218.052045 109.046735 
L 218.052045 108.773665 
L 218.419663 108.773665 
L 218.419663 108.500595 
L 218.68236 108.500595 
L 218.68236 108.227525 
L 219.029146 108.227525 
L 219.029146 107.954455 
L 219.774497 107.954455 
L 219.789186 107.408315 
L 219.90022 107.408315 
L 219.90022 107.135245 
L 220.310407 107.135245 
L 220.379169 106.589105 
L 220.67959 106.589105 
L 220.67959 106.316035 
L 220.831495 106.316035 
L 220.912776 105.769895 
L 221.105704 105.769895 
L 221.191048 104.950685 
L 221.275159 104.950685 
L 221.325886 103.858405 
L 221.431628 103.858405 
L 221.512315 103.312265 
L 221.559993 103.312265 
L 221.614118 102.766125 
L 221.713997 102.766125 
L 221.713997 102.493055 
L 221.854061 102.493055 
L 221.945474 101.400775 
L 222.020581 101.400775 
L 222.131108 100.308495 
L 222.302702 100.308495 
L 222.369514 99.489285 
L 222.452043 99.489285 
L 222.520994 98.943145 
L 222.720717 98.943145 
L 222.75137 98.397005 
L 223.08226 98.397005 
L 223.08226 98.123935 
L 223.310331 98.123935 
L 223.355257 97.304725 
L 223.679305 97.304725 
L 223.679305 97.031655 
L 224.200392 97.031655 
L 224.200392 96.758585 
L 224.567154 96.758585 
L 224.567154 96.212445 
L 224.771995 96.212445 
L 224.881212 95.120165 
L 224.990224 95.120165 
L 225.012037 94.574025 
L 225.214576 94.574025 
L 225.254345 94.027885 
L 225.407335 94.027885 
L 225.407335 93.754815 
L 225.631687 93.754815 
L 225.710801 93.208675 
L 225.870485 93.208675 
L 225.870485 92.935605 
L 226.505042 92.935605 
L 226.505042 92.662535 
L 226.626408 92.662535 
L 226.626408 92.389465 
L 227.414519 92.389465 
L 227.414519 92.116395 
L 227.544249 92.116395 
L 227.544249 91.843325 
L 227.920332 91.843325 
L 227.920332 91.570255 
L 228.096085 91.570255 
L 228.201961 91.024115 
L 228.388575 91.024115 
L 228.490774 90.204905 
L 228.680873 90.204905 
L 228.780753 89.658765 
L 229.305092 89.658765 
L 229.331026 89.112625 
L 229.757139 89.112625 
L 229.864633 88.566485 
L 230.021162 88.566485 
L 230.021162 88.293415 
L 230.135699 88.293415 
L 230.135699 88.020345 
L 230.290746 88.020345 
L 230.290746 87.747275 
L 230.498567 87.747275 
L 230.591402 86.654995 
L 230.822225 86.654995 
L 230.897338 85.835785 
L 231.125009 85.835785 
L 231.22307 85.016575 
L 231.320408 85.016575 
L 231.320408 84.743505 
L 231.597474 84.743505 
L 231.597474 84.197365 
L 231.737519 84.197365 
L 231.757473 83.651225 
L 231.96308 83.651225 
L 232.05698 82.558945 
L 232.150933 82.558945 
L 232.150933 82.285875 
L 232.281332 82.285875 
L 232.390812 81.466665 
L 232.437655 81.466665 
L 232.543772 80.920525 
L 232.561063 80.920525 
L 232.642912 80.374385 
L 232.697297 80.374385 
L 232.797177 79.828245 
L 233.193686 79.828245 
L 233.193686 79.555175 
L 233.711587 79.555175 
L 233.711587 79.282105 
L 233.959063 79.282105 
L 233.959063 79.009035 
L 234.206202 79.009035 
L 234.206202 78.735965 
L 234.487004 78.735965 
L 234.505124 78.189825 
L 234.632315 78.189825 
L 234.669897 77.643685 
L 234.760499 77.643685 
L 234.760499 77.370615 
L 235.000787 77.370615 
L 235.000787 77.097545 
L 235.156477 77.097545 
L 235.156477 76.824475 
L 235.466578 76.824475 
L 235.466578 76.278335 
L 235.690084 76.278335 
L 235.690084 76.005265 
L 235.958988 76.005265 
L 235.958988 75.732195 
L 236.073404 75.732195 
L 236.073404 75.459125 
L 236.297756 75.459125 
L 236.297756 75.186055 
L 236.49269 75.186055 
L 236.49269 74.912985 
L 236.949249 74.912985 
L 236.962964 74.366845 
L 237.082871 74.366845 
L 237.082871 74.093775 
L 237.367531 74.093775 
L 237.367531 73.547635 
L 237.534541 73.547635 
L 237.534541 73.274565 
L 237.790601 73.274565 
L 237.790601 73.001495 
L 238.09933 73.001495 
L 238.207711 72.455355 
L 238.387164 72.455355 
L 238.387164 72.182285 
L 239.0873 72.182285 
L 239.0873 71.909215 
L 239.282307 71.909215 
L 239.282307 71.636145 
L 239.969373 71.636145 
L 240.031653 71.090005 
L 240.268294 71.090005 
L 240.308629 70.270795 
L 241.195208 70.270795 
L 241.195208 69.997725 
L 241.420529 69.997725 
L 241.420529 69.451585 
L 241.723392 69.451585 
L 241.728814 68.905445 
L 241.843599 68.905445 
L 241.843599 68.632375 
L 242.26071 68.632375 
L 242.26071 68.359305 
L 242.403588 68.359305 
L 242.403588 68.086235 
L 242.83582 68.086235 
L 242.83582 67.540095 
L 243.103724 67.540095 
L 243.103724 67.267025 
L 243.258889 67.267025 
L 243.258889 66.993955 
L 243.676 66.993955 
L 243.676 66.447815 
L 244.266587 66.447815 
L 244.266587 66.174745 
L 244.654335 66.174745 
L 244.715917 65.628605 
L 244.857357 65.628605 
L 244.857357 65.355535 
L 245.103665 65.355535 
L 245.103665 65.082465 
L 245.317472 65.082465 
L 245.317472 64.809395 
L 245.444547 64.809395 
L 245.476665 64.263255 
L 245.870661 64.263255 
L 245.870661 63.990185 
L 246.070384 63.990185 
L 246.070384 63.717115 
L 246.360817 63.717115 
L 246.360817 63.444045 
L 246.704923 63.444045 
L 246.810147 62.351765 
L 246.896065 62.351765 
L 246.896065 62.078695 
L 248.873781 62.078695 
L 248.910355 61.532555 
L 249.017004 61.532555 
L 249.017004 61.259485 
L 249.466334 61.259485 
L 249.476785 60.713345 
L 249.83928 60.713345 
L 249.83928 60.440275 
L 250.017857 60.440275 
L 250.071965 59.621065 
L 250.172292 59.621065 
L 250.172292 59.347995 
L 250.325645 59.347995 
L 250.396644 58.801855 
L 250.495035 58.801855 
L 250.605572 57.982645 
L 250.912145 57.982645 
L 250.912145 57.709575 
L 251.028641 57.709575 
L 251.028641 57.436505 
L 251.178924 57.436505 
L 251.269998 56.890365 
L 251.445752 56.890365 
L 251.445752 56.617295 
L 252.926779 56.617295 
L 252.989521 56.071155 
L 253.18964 56.071155 
L 253.223628 55.525015 
L 254.342069 55.525015 
L 254.342069 55.251945 
L 254.947141 55.251945 
L 255.01285 54.432735 
L 255.370211 54.432735 
L 255.389076 53.886595 
L 255.787321 53.886595 
L 255.787321 53.613525 
L 256.502476 53.613525 
L 256.502476 53.340455 
L 257.202612 53.340455 
L 257.308729 52.794315 
L 257.56179 52.794315 
L 257.56179 52.521245 
L 257.947994 52.521245 
L 257.947994 52.248175 
L 258.095397 52.248175 
L 258.095397 51.975105 
L 258.389672 51.975105 
L 258.389672 51.702035 
L 258.859362 51.702035 
L 258.859362 51.428965 
L 260.192602 51.428965 
L 260.192602 51.155895 
L 260.582841 51.155895 
L 260.589108 50.609755 
L 261.578215 50.609755 
L 261.684798 50.063615 
L 262.111821 50.063615 
L 262.205885 49.517475 
L 262.436966 49.517475 
L 262.436966 49.244405 
L 262.886705 49.244405 
L 262.972668 48.698265 
L 263.716293 48.698265 
L 263.716293 48.425195 
L 264.192723 48.425195 
L 264.192723 48.152125 
L 265.946049 48.152125 
L 265.989581 47.605985 
L 266.1827 47.605985 
L 266.196414 46.513705 
L 266.45339 46.513705 
L 266.45339 46.240635 
L 266.608556 46.240635 
L 266.608556 45.967565 
L 267.025667 45.967565 
L 267.025667 45.421425 
L 268.440957 45.421425 
L 268.440957 45.148355 
L 269.542079 45.148355 
L 269.542079 44.875285 
L 269.762965 44.875285 
L 269.762965 44.602215 
L 270.253042 44.602215 
L 270.253042 44.329145 
L 270.64079 44.329145 
L 270.64079 44.056075 
L 271.146081 44.056075 
L 271.146081 43.783005 
L 271.919143 43.783005 
L 271.919143 43.509935 
L 272.328454 43.509935 
L 272.347272 42.963795 
L 273.675312 42.963795 
L 273.675312 42.690725 
L 274.765819 42.690725 
L 274.765819 42.144585 
L 275.00346 42.144585 
L 275.089099 41.598445 
L 275.677102 41.598445 
L 275.677102 41.325375 
L 276.210709 41.325375 
L 276.210709 41.052305 
L 277.691736 41.052305 
L 277.691736 40.779235 
L 280.552278 40.779235 
L 280.552278 40.506165 
L 281.251723 40.506165 
L 281.251723 40.233095 
L 281.681493 40.233095 
L 281.681493 39.960025 
L 284.07715 39.960025 
L 284.07715 39.686955 
L 286.276586 39.686955 
L 286.276586 39.413885 
L 287.181444 39.413885 
L 287.181444 39.140815 
L 287.744462 39.140815 
L 287.744462 38.867745 
L 288.077271 38.867745 
L 288.077271 38.594675 
L 290.276707 38.594675 
L 290.276707 38.321605 
L 290.480039 38.321605 
L 290.480039 38.048535 
L 291.790624 38.048535 
L 291.790624 37.775465 
L 292.17275 37.775465 
L 292.17275 37.502395 
L 294.543164 37.502395 
L 294.543164 37.229325 
L 294.89743 37.229325 
L 294.89743 36.956255 
L 296.373641 36.956255 
L 296.373641 36.683185 
L 296.704531 36.683185 
L 296.704531 36.410115 
L 296.833559 36.410115 
L 296.833559 36.137045 
L 298.115486 36.137045 
L 298.213506 35.590905 
L 298.781005 35.590905 
L 298.781005 35.317835 
L 299.689718 35.317835 
L 299.789059 34.771695 
L 300.020608 34.771695 
L 300.020608 34.498625 
L 300.83368 34.498625 
L 300.83368 34.225555 
L 301.152593 34.225555 
L 301.152593 33.952485 
L 301.26527 33.952485 
L 301.26527 33.679415 
L 301.59616 33.679415 
L 301.59616 33.406345 
L 302.010847 33.406345 
L 302.010847 33.133275 
L 303.97791 33.133275 
L 303.97791 32.860205 
L 305.326923 32.860205 
L 305.379744 32.314065 
L 305.454121 32.314065 
L 305.454121 32.040995 
L 305.785012 32.040995 
L 305.785012 31.767925 
L 306.902476 31.767925 
L 306.902476 31.494855 
L 308.695821 31.494855 
L 308.695821 31.221785 
L 310.271373 31.221785 
L 310.271373 30.948715 
L 310.485173 30.948715 
L 310.568416 30.402575 
L 311.091327 30.402575 
L 311.091327 30.129505 
L 311.439489 30.129505 
L 311.439489 29.856435 
L 311.721601 29.856435 
L 311.721601 29.583365 
L 312.836653 29.583365 
L 312.836653 29.310295 
L 313.908783 29.310295 
L 313.908783 29.037225 
L 314.460224 29.037225 
L 314.460224 28.764155 
L 315.00947 28.764155 
L 315.037678 28.218015 
L 316.551307 28.218015 
L 316.613231 27.671875 
L 319.635355 27.671875 
L 319.635355 27.398805 
L 319.959012 27.398805 
L 319.959012 27.125735 
L 320.802082 27.125735 
L 320.802082 26.852665 
L 327.656207 26.852665 
L 327.656207 26.579595 
L 328.043955 26.579595 
L 328.043955 26.306525 
L 329.750437 26.306525 
L 329.750437 26.033455 
L 332.406625 26.033455 
L 332.406625 25.760385 
L 337.713804 25.760385 
L 337.713804 25.487315 
L 341.560316 25.487315 
L 341.560316 25.214245 
L 343.283795 25.214245 
L 343.385237 24.668105 
L 343.506241 24.668105 
L 343.506241 24.395035 
L 344.982452 24.395035 
L 344.982452 24.121965 
L 345.313343 24.121965 
L 345.313343 23.848895 
L 346.701313 23.848895 
L 346.701313 23.575825 
L 348.276866 23.575825 
L 348.276866 23.302755 
L 348.690535 23.302755 
L 348.690535 23.029685 
L 350.619658 23.029685 
L 350.619658 22.756615 
L 352.465717 22.756615 
L 352.465717 22.483545 
L 353.988555 22.483545 
L 353.988555 22.210475 
L 355.029408 22.210475 
L 355.029408 21.937405 
L 357.790052 21.937405 
L 357.790052 21.664335 
L 360.330413 21.664335 
L 360.330413 21.391265 
L 372.739691 21.391265 
L 372.739691 21.118195 
L 374.215903 21.118195 
L 374.215903 20.845125 
L 374.546793 20.845125 
L 374.546793 20.572055 
L 379.853108 20.572055 
L 379.853108 20.298985 
L 383.222006 20.298985 
L 383.222006 20.025915 
L 389.563863 20.025915 
L 389.563863 19.752845 
L 391.994048 19.752845 
L 391.994048 19.479775 
L 410.357161 19.479775 
L 410.357161 19.206705 
L 410.744909 19.206705 
L 410.744909 18.933635 
L 412.451391 18.933635 
L 412.451391 18.660565 
L 415.107578 18.660565 
L 415.107578 18.387495 
L 421.227498 18.387495 
L 421.227498 18.114425 
L 453.192 18.114425 
L 453.192 18.114425 
" style="fill:none;stroke:#000000;stroke-linecap:square;stroke-width:3;"/>
   </g>
   <g id="line2d_18">
    <path clip-path="url(#pd80f6b5f6e)" style="fill:none;stroke:#000000;stroke-linecap:square;stroke-width:3;"/>
   </g>
   <g id="line2d_19">
    <path clip-path="url(#pd80f6b5f6e)" d="M 34.16 202.095338 
L 74.925122 202.095338 
L 74.925122 201.659184 
L 76.704298 201.659184 
L 76.704298 201.223031 
L 78.707159 201.223031 
L 78.707159 200.786877 
L 83.809134 200.786877 
L 83.809134 200.350724 
L 92.623207 200.350724 
L 92.623207 199.91457 
L 94.402382 199.91457 
L 94.402382 199.478417 
L 96.405244 199.478417 
L 96.405244 199.042263 
L 101.507219 199.042263 
L 101.507219 198.60611 
L 106.656469 198.60611 
L 106.656469 198.169956 
L 108.435644 198.169956 
L 108.435644 197.733803 
L 110.438505 197.733803 
L 110.438505 197.297649 
L 115.540481 197.297649 
L 115.540481 196.861496 
L 117.513127 196.861496 
L 117.513127 196.425343 
L 118.49229 196.425343 
L 118.49229 195.989189 
L 119.292302 195.989189 
L 119.292302 195.553036 
L 120.271466 195.553036 
L 120.271466 195.116882 
L 120.567793 195.116882 
L 120.567793 194.680729 
L 121.295164 194.680729 
L 121.295164 194.244575 
L 122.274327 194.244575 
L 122.346969 193.372268 
L 124.34983 193.372268 
L 124.34983 192.936115 
L 126.397139 192.936115 
L 126.397139 192.499961 
L 127.376302 192.499961 
L 127.376302 192.063808 
L 129.451805 192.063808 
L 129.451805 191.627654 
L 135.756392 191.627654 
L 135.756392 191.191501 
L 135.953597 191.191501 
L 135.953597 190.755347 
L 137.535567 190.755347 
L 137.535567 190.319194 
L 137.732773 190.319194 
L 137.732773 189.88304 
L 138.726482 189.88304 
L 138.726482 189.446887 
L 139.538428 189.446887 
L 139.538428 189.010733 
L 139.735634 189.010733 
L 139.735634 188.57458 
L 140.126679 188.57458 
L 140.126679 188.138427 
L 140.505658 188.138427 
L 140.505658 187.702273 
L 140.897487 187.702273 
L 140.897487 187.26612 
L 141.117882 187.26612 
L 141.117882 186.829966 
L 142.508519 186.829966 
L 142.508519 186.393813 
L 142.875378 186.393813 
L 142.903094 185.085352 
L 143.785541 185.085352 
L 143.785541 184.649199 
L 144.04434 184.649199 
L 144.04434 184.213045 
L 144.640403 184.213045 
L 144.640403 183.776892 
L 144.837609 183.776892 
L 144.903325 182.468431 
L 146.283037 182.468431 
L 146.283037 182.032278 
L 146.682501 182.032278 
L 146.682501 181.596124 
L 147.059642 181.596124 
L 147.059642 181.159971 
L 147.610494 181.159971 
L 147.610494 180.723817 
L 147.826134 180.723817 
L 147.826134 180.287664 
L 148.685362 180.287664 
L 148.685362 179.851511 
L 148.858184 179.851511 
L 148.858184 179.415357 
L 149.149005 179.415357 
L 149.149005 178.979204 
L 150.001894 178.979204 
L 150.001894 178.54305 
L 153.474127 178.54305 
L 153.474127 178.106897 
L 153.787337 178.106897 
L 153.787337 177.670743 
L 155.94867 177.670743 
L 155.94867 177.23459 
L 156.209295 177.23459 
L 156.209295 176.798436 
L 157.127919 176.798436 
L 157.127919 176.362283 
L 157.824764 176.362283 
L 157.872021 175.489976 
L 157.988471 175.489976 
L 157.988471 175.053822 
L 158.595571 175.053822 
L 158.595571 174.617669 
L 159.991332 174.617669 
L 159.991332 174.181515 
L 160.573463 174.181515 
L 160.601179 173.309208 
L 161.483626 173.309208 
L 161.483626 172.873055 
L 161.742424 172.873055 
L 161.742424 172.436901 
L 165.093307 172.436901 
L 165.093307 172.000748 
L 165.524219 172.000748 
L 165.524219 171.564595 
L 166.847089 171.564595 
L 166.847089 171.128441 
L 169.851664 171.128441 
L 169.851664 170.692288 
L 170.628269 170.692288 
L 170.628269 170.256134 
L 171.858025 170.256134 
L 171.925891 169.383827 
L 172.426812 169.383827 
L 172.426812 168.947674 
L 172.628833 168.947674 
L 172.628833 168.51152 
L 174.606725 168.51152 
L 174.634441 167.639213 
L 175.516888 167.639213 
L 175.516888 167.20306 
L 175.775686 167.20306 
L 175.775686 166.766906 
L 176.075668 166.766906 
L 176.075668 166.330753 
L 176.852274 166.330753 
L 176.852274 165.894599 
L 177.042755 165.894599 
L 177.042755 165.458446 
L 177.709386 165.458446 
L 177.709386 165.022292 
L 178.485991 165.022292 
L 178.485991 164.586139 
L 178.650816 164.586139 
L 178.656139 163.713832 
L 179.432744 163.713832 
L 179.517297 162.841525 
L 179.557481 162.841525 
L 179.557481 162.405372 
L 180.284533 162.405372 
L 180.284533 161.969218 
L 180.696547 161.969218 
L 180.696547 161.533065 
L 180.880351 161.533065 
L 180.880351 161.096911 
L 181.231286 161.096911 
L 181.231286 160.660758 
L 181.440649 160.660758 
L 181.440649 160.224604 
L 182.714684 160.224604 
L 182.714684 159.788451 
L 183.266759 159.788451 
L 183.266759 159.352297 
L 183.485491 159.352297 
L 183.485491 158.916144 
L 183.693847 158.916144 
L 183.693847 158.47999 
L 184.464655 158.47999 
L 184.464655 158.043837 
L 184.900477 158.043837 
L 184.900477 157.607683 
L 185.463383 157.607683 
L 185.491099 156.735376 
L 185.741302 156.735376 
L 185.847229 155.426916 
L 186.373546 155.426916 
L 186.470262 154.118456 
L 186.540158 154.118456 
L 186.632344 153.246149 
L 186.920551 153.246149 
L 186.920551 152.809995 
L 187.352709 152.809995 
L 187.375019 151.937688 
L 187.611508 151.937688 
L 187.664653 151.065381 
L 188.321772 151.065381 
L 188.321772 150.629228 
L 188.51805 150.629228 
L 188.554268 149.320767 
L 189.013009 149.320767 
L 189.013009 148.884614 
L 189.298371 148.884614 
L 189.298371 148.44846 
L 189.428212 148.44846 
L 189.501021 147.576153 
L 189.687011 147.576153 
L 189.687011 147.14 
L 190.245123 147.14 
L 190.245123 146.703847 
L 190.414139 146.703847 
L 190.414139 146.267693 
L 191.393302 146.267693 
L 191.393302 145.83154 
L 191.737009 145.83154 
L 191.737009 145.395386 
L 192.716173 145.395386 
L 192.716173 144.959233 
L 193.468805 144.959233 
L 193.468805 144.523079 
L 194.21592 144.523079 
L 194.21592 144.086926 
L 194.791676 144.086926 
L 194.791676 143.650772 
L 195.494518 143.650772 
L 195.494518 143.214619 
L 196.52794 143.214619 
L 196.52794 142.778465 
L 199.771759 142.778465 
L 199.771759 142.342312 
L 200.957948 142.342312 
L 200.957948 141.906158 
L 201.155154 141.906158 
L 201.155154 141.470005 
L 201.718523 141.470005 
L 201.728756 140.597698 
L 201.925962 140.597698 
L 201.925962 140.161544 
L 202.321112 140.161544 
L 202.321112 139.725391 
L 203.35224 139.725391 
L 203.35224 139.289237 
L 203.706648 139.289237 
L 203.734364 138.416931 
L 203.903853 138.416931 
L 203.931569 137.10847 
L 204.298993 137.10847 
L 204.300261 136.236163 
L 204.616811 136.236163 
L 204.698847 135.363856 
L 204.814016 135.363856 
L 204.875609 134.491549 
L 205.072814 134.491549 
L 205.072814 134.055396 
L 206.215793 134.055396 
L 206.319438 133.183089 
L 206.676738 133.183089 
L 206.711093 131.874628 
L 207.090246 131.874628 
L 207.090246 131.438475 
L 207.586901 131.438475 
L 207.586901 131.002321 
L 207.8457 131.002321 
L 207.8457 130.566168 
L 208.657404 130.566168 
L 208.657404 130.130015 
L 208.854609 130.130015 
L 208.854678 129.257708 
L 209.068138 129.257708 
L 209.095854 128.385401 
L 209.605125 128.385401 
L 209.605125 127.949247 
L 209.978301 127.949247 
L 209.980274 127.07694 
L 210.104882 127.07694 
L 210.177479 125.76848 
L 210.237099 125.76848 
L 210.237099 125.332326 
L 210.87569 125.332326 
L 210.900523 124.460019 
L 211.627494 124.460019 
L 211.627494 124.023866 
L 211.917144 124.023866 
L 211.917144 123.587712 
L 212.487934 123.587712 
L 212.487934 123.151559 
L 212.853581 123.151559 
L 212.950365 121.843099 
L 213.763744 121.843099 
L 213.763744 121.406945 
L 214.018894 121.406945 
L 214.022542 120.534638 
L 214.235198 120.534638 
L 214.235198 120.098485 
L 215.134536 120.098485 
L 215.134536 119.662331 
L 215.341764 119.662331 
L 215.341764 119.226178 
L 216.547217 119.226178 
L 216.547217 118.790024 
L 216.785306 118.790024 
L 216.785306 118.353871 
L 217.446555 118.353871 
L 217.487603 117.481564 
L 217.804337 117.481564 
L 217.804337 117.04541 
L 219.127207 117.04541 
L 219.127207 116.609257 
L 220.744355 116.609257 
L 220.744355 116.173103 
L 221.410852 116.173103 
L 221.410852 115.73695 
L 222.18166 115.73695 
L 222.18166 115.300796 
L 223.340387 115.300796 
L 223.340387 114.864643 
L 224.159551 114.864643 
L 224.187267 113.992336 
L 224.341926 113.992336 
L 224.341926 113.556183 
L 225.069714 113.556183 
L 225.118531 112.683876 
L 225.328512 112.683876 
L 225.343545 111.811569 
L 225.88974 111.811569 
L 225.88974 111.375415 
L 226.904273 111.375415 
L 226.917074 110.503108 
L 227.680879 110.503108 
L 227.680879 110.066955 
L 227.868889 110.066955 
L 227.868889 109.630801 
L 227.996027 109.630801 
L 227.996027 109.194648 
L 228.224829 109.194648 
L 228.224829 108.758494 
L 228.772632 108.758494 
L 228.772632 108.322341 
L 229.001434 108.322341 
L 229.110307 107.450034 
L 229.240449 107.450034 
L 229.240449 107.01388 
L 229.38691 107.01388 
L 229.479421 106.141573 
L 229.564391 106.141573 
L 229.564391 105.70542 
L 229.784421 105.70542 
L 229.784421 105.269267 
L 230.017054 105.269267 
L 230.017054 104.833113 
L 230.163515 104.833113 
L 230.163515 104.39696 
L 230.433177 104.39696 
L 230.433177 103.960806 
L 230.571175 103.960806 
L 230.571175 103.524653 
L 230.799976 103.524653 
L 230.799976 103.088499 
L 231.076373 103.088499 
L 231.076373 102.652346 
L 231.198108 102.652346 
L 231.198108 102.216192 
L 231.351091 102.216192 
L 231.351091 101.780039 
L 231.533017 101.780039 
L 231.601013 100.907732 
L 231.815596 100.907732 
L 231.852978 100.035425 
L 231.962057 100.035425 
L 231.962057 99.599271 
L 232.113744 99.599271 
L 232.144861 98.290811 
L 232.423306 98.290811 
L 232.423306 97.854657 
L 232.580177 97.854657 
L 232.580177 97.418504 
L 232.876808 97.418504 
L 232.876808 96.982351 
L 233.447597 96.982351 
L 233.447597 96.546197 
L 233.651521 96.546197 
L 233.747462 95.67389 
L 233.926238 95.67389 
L 234.007559 94.801583 
L 234.092893 94.801583 
L 234.095364 93.929276 
L 234.46915 93.929276 
L 234.48339 93.056969 
L 234.65568 93.056969 
L 234.732629 91.748509 
L 235.186809 91.748509 
L 235.187118 90.876202 
L 235.415919 90.876202 
L 235.509234 90.003895 
L 235.726611 90.003895 
L 235.726611 89.567741 
L 235.930911 89.567741 
L 236.008425 88.695435 
L 236.431539 88.695435 
L 236.431539 88.259281 
L 236.569907 88.259281 
L 236.673364 86.950821 
L 237.307776 86.950821 
L 237.307776 86.514667 
L 237.506881 86.514667 
L 237.506881 86.078514 
L 237.642143 86.078514 
L 237.749156 84.770053 
L 237.890462 84.770053 
L 237.890462 84.3339 
L 238.267464 84.3339 
L 238.267464 83.897746 
L 238.406219 83.897746 
L 238.493258 83.025439 
L 238.542182 83.025439 
L 238.64731 81.716979 
L 238.84091 81.716979 
L 238.906082 80.844672 
L 239.052543 80.844672 
L 239.069711 79.972365 
L 239.585012 79.972365 
L 239.585012 79.536212 
L 239.813813 79.536212 
L 239.813813 79.100058 
L 240.085331 79.100058 
L 240.085331 78.663905 
L 240.231792 78.663905 
L 240.281028 77.791598 
L 240.693155 77.791598 
L 240.744585 76.483137 
L 240.829433 76.483137 
L 240.829433 76.046984 
L 240.975894 76.046984 
L 241.016724 75.174677 
L 241.22778 75.174677 
L 241.22778 74.738523 
L 241.52119 74.738523 
L 241.52119 74.30237 
L 241.921256 74.30237 
L 241.92372 73.430063 
L 242.195973 73.430063 
L 242.195973 72.993909 
L 242.326872 72.993909 
L 242.326872 72.557756 
L 242.665358 72.557756 
L 242.665358 72.121603 
L 242.84319 72.121603 
L 242.940076 71.249296 
L 243.273625 71.249296 
L 243.319733 70.376989 
L 244.398262 70.376989 
L 244.398262 69.940835 
L 245.155209 69.940835 
L 245.155209 69.504682 
L 245.577512 69.504682 
L 245.577512 69.068528 
L 245.850992 69.068528 
L 245.850992 68.632375 
L 246.108388 68.632375 
L 246.108388 68.196221 
L 246.321614 68.196221 
L 246.321614 67.760068 
L 247.935676 67.760068 
L 247.935676 67.323914 
L 248.163011 67.323914 
L 248.163011 66.887761 
L 248.420407 66.887761 
L 248.516652 66.015454 
L 248.912173 66.015454 
L 248.912173 65.5793 
L 249.844278 65.5793 
L 249.844278 65.143147 
L 249.98478 65.143147 
L 250.041483 64.27084 
L 250.410218 64.27084 
L 250.410218 63.834687 
L 251.589468 63.834687 
L 251.589468 63.398533 
L 252.33357 63.398533 
L 252.33357 62.96238 
L 252.547128 62.96238 
L 252.547128 62.526226 
L 252.814369 62.526226 
L 252.814369 62.090073 
L 253.638882 62.090073 
L 253.638882 61.653919 
L 253.867683 61.653919 
L 253.867683 61.217766 
L 254.883303 61.217766 
L 254.883303 60.781612 
L 255.029764 60.781612 
L 255.136177 59.909305 
L 255.205768 59.909305 
L 255.205768 59.473152 
L 256.719227 59.473152 
L 256.769894 58.600845 
L 256.993945 58.600845 
L 256.993945 58.164691 
L 257.716647 58.164691 
L 257.716647 57.728538 
L 258.991211 57.728538 
L 258.991211 57.292384 
L 259.37331 57.292384 
L 259.37331 56.856231 
L 260.352474 56.856231 
L 260.375483 55.983924 
L 262.427977 55.983924 
L 262.427977 55.547771 
L 266.114873 55.547771 
L 266.114873 55.111617 
L 266.387439 55.111617 
L 266.387439 54.675464 
L 269.122675 54.675464 
L 269.122675 54.23931 
L 269.380071 54.23931 
L 269.380071 53.803157 
L 270.297181 53.803157 
L 270.297181 53.367003 
L 277.616575 53.367003 
L 277.616575 52.93085 
L 277.81378 52.93085 
L 277.830648 52.058543 
L 280.380002 52.058543 
L 280.392996 51.186236 
L 280.586666 51.186236 
L 280.586666 50.750082 
L 281.48475 50.750082 
L 281.48475 50.313929 
L 281.713551 50.313929 
L 281.713551 49.877775 
L 282.359151 49.877775 
L 282.359151 49.441622 
L 282.729171 49.441622 
L 282.729171 49.005468 
L 282.875632 49.005468 
L 282.978065 47.697008 
L 284.034103 47.697008 
L 284.034103 47.260855 
L 284.262904 47.260855 
L 284.274683 46.388548 
L 284.565095 46.388548 
L 284.565095 45.952394 
L 284.839813 45.952394 
L 284.921498 45.080087 
L 285.278524 45.080087 
L 285.278524 44.643934 
L 285.424985 44.643934 
L 285.424985 44.20778 
L 286.013252 44.20778 
L 286.013252 43.771627 
L 286.242054 43.771627 
L 286.242054 43.335473 
L 286.763508 43.335473 
L 286.83703 42.463166 
L 286.913568 42.463166 
L 286.913568 42.027013 
L 287.114449 42.027013 
L 287.114449 41.590859 
L 287.257674 41.590859 
L 287.257674 41.154706 
L 287.389167 41.154706 
L 287.404135 40.282399 
L 287.928784 40.282399 
L 287.928784 39.846245 
L 288.157586 39.846245 
L 288.221351 38.973939 
L 288.959412 38.973939 
L 288.959412 38.537785 
L 289.093598 38.537785 
L 289.173206 37.665478 
L 289.319667 37.665478 
L 289.368316 36.793171 
L 289.475915 36.793171 
L 289.475915 36.357018 
L 290.567669 36.357018 
L 290.567669 35.920864 
L 290.770705 35.920864 
L 290.79647 35.048557 
L 291.00913 35.048557 
L 291.00913 34.612404 
L 291.283848 34.612404 
L 291.283848 34.17625 
L 291.52176 34.17625 
L 291.52176 33.740097 
L 291.81209 33.740097 
L 291.81209 33.303943 
L 291.958551 33.303943 
L 291.958551 32.86779 
L 292.613513 32.86779 
L 292.613513 32.431636 
L 292.749854 32.431636 
L 292.842315 31.559329 
L 293.648015 31.559329 
L 293.648015 31.123176 
L 293.857935 31.123176 
L 293.922733 30.250869 
L 294.004396 30.250869 
L 294.004396 29.814716 
L 294.233307 29.814716 
L 294.233307 29.378562 
L 294.665386 29.378562 
L 294.665386 28.942409 
L 295.693859 28.942409 
L 295.693859 28.506255 
L 295.968577 28.506255 
L 295.968577 28.070102 
L 296.782661 28.070102 
L 296.782661 27.633948 
L 297.304271 27.633948 
L 297.304271 27.197795 
L 298.069478 27.197795 
L 298.069478 26.761641 
L 298.76181 26.761641 
L 298.76181 26.325488 
L 299.350115 26.325488 
L 299.350115 25.889334 
L 300.677342 25.889334 
L 300.677342 25.453181 
L 303.316227 25.453181 
L 303.402435 24.580874 
L 305.362071 24.580874 
L 305.362071 24.14472 
L 305.964782 24.14472 
L 305.964782 23.708567 
L 307.056536 23.708567 
L 307.056536 23.272413 
L 307.285337 23.272413 
L 307.285337 22.83626 
L 308.300957 22.83626 
L 308.300957 22.400107 
L 308.447418 22.400107 
L 308.447418 21.963953 
L 310.136882 21.963953 
L 310.136882 21.5278 
L 310.411599 21.5278 
L 310.411599 21.091646 
L 313.793137 21.091646 
L 313.793137 20.655493 
L 319.805094 20.655493 
L 319.805094 20.219339 
L 453.192 20.219339 
L 453.192 20.219339 
" style="fill:none;stroke:#00bfbf;stroke-linecap:square;stroke-width:3;"/>
   </g>
   <g id="line2d_20">
    <path clip-path="url(#pd80f6b5f6e)" style="fill:none;stroke:#00bfbf;stroke-linecap:square;stroke-width:3;"/>
   </g>
   <g id="line2d_21">
    <path clip-path="url(#pd80f6b5f6e)" d="M 34.16 185.237117 
L 101.021764 185.237117 
L 101.021764 184.794127 
L 104.216061 184.794127 
L 104.216061 184.351138 
L 109.574997 184.351138 
L 109.574997 183.908148 
L 111.859764 183.908148 
L 111.859764 183.465158 
L 113.638108 183.465158 
L 113.638108 183.022169 
L 116.832405 183.022169 
L 116.832405 182.579179 
L 121.962728 182.579179 
L 121.962728 182.136189 
L 122.191341 182.136189 
L 122.191341 181.693199 
L 124.476108 181.693199 
L 124.476108 181.25021 
L 125.157024 181.25021 
L 125.157024 180.80722 
L 125.920655 180.80722 
L 125.920655 180.36423 
L 129.114951 180.36423 
L 129.114951 179.92124 
L 130.515961 179.92124 
L 130.515961 179.478251 
L 132.800728 179.478251 
L 132.800728 179.035261 
L 134.473887 179.035261 
L 134.473887 178.592271 
L 136.758655 178.592271 
L 136.758655 178.149281 
L 143.200076 178.149281 
L 143.200076 177.706292 
L 144.95394 177.706292 
L 144.95394 177.263302 
L 146.394373 177.263302 
L 146.394373 176.820312 
L 147.140274 176.820312 
L 147.140274 176.377323 
L 148.148237 176.377323 
L 148.148237 175.934333 
L 149.355464 175.934333 
L 149.355464 175.491343 
L 150.334571 175.491343 
L 150.334571 175.048353 
L 151.753309 175.048353 
L 151.753309 174.605364 
L 152.549761 174.605364 
L 152.549761 174.162374 
L 153.44701 174.162374 
L 153.507173 173.276394 
L 154.038076 173.276394 
L 154.038076 172.833405 
L 155.693507 172.833405 
L 155.79194 171.947425 
L 156.641306 171.947425 
L 156.641306 171.504435 
L 157.908697 171.504435 
L 157.978274 170.618456 
L 159.447302 170.618456 
L 159.447302 170.175466 
L 160.193465 170.175466 
L 160.193465 169.732476 
L 162.000242 169.732476 
L 162.000242 169.289487 
L 162.187017 169.289487 
L 162.246819 168.403507 
L 162.493288 168.403507 
L 162.493288 167.960518 
L 162.829914 167.960518 
L 162.899858 167.074538 
L 163.311324 167.074538 
L 163.311324 166.631548 
L 164.28501 166.631548 
L 164.28501 166.188559 
L 166.094155 166.188559 
L 166.094155 165.745569 
L 167.539284 165.745569 
L 167.539284 165.302579 
L 171.453091 165.302579 
L 171.453091 164.859589 
L 172.063646 164.859589 
L 172.063646 164.4166 
L 173.737858 164.4166 
L 173.737858 163.97361 
L 174.803362 163.97361 
L 174.863163 163.08763 
L 175.109632 163.08763 
L 175.109632 162.644641 
L 175.446258 162.644641 
L 175.446258 162.201651 
L 175.927668 162.201651 
L 175.927668 161.758661 
L 180.155628 161.758661 
L 180.155628 161.315672 
L 180.388265 161.315672 
L 180.388265 160.872682 
L 183.127981 160.872682 
L 183.187782 159.986702 
L 183.434251 159.986702 
L 183.434251 159.543713 
L 183.770878 159.543713 
L 183.770878 159.100723 
L 184.252288 159.100723 
L 184.346192 158.214743 
L 185.319768 158.214743 
L 185.319768 157.771754 
L 187.085908 157.771754 
L 187.145709 156.885774 
L 187.392178 156.885774 
L 187.392178 156.442784 
L 187.728804 156.442784 
L 187.728804 155.999795 
L 188.210215 155.999795 
L 188.210215 155.556805 
L 188.480247 155.556805 
L 188.480247 155.113815 
L 192.438174 155.113815 
L 192.438174 154.670825 
L 194.384636 154.670825 
L 194.384636 154.227836 
L 197.40447 154.227836 
L 197.40447 153.784846 
L 197.936112 153.784846 
L 197.936112 153.341856 
L 201.625613 153.341856 
L 201.625613 152.898867 
L 203.379478 152.898867 
L 203.379478 152.455877 
L 204.365329 152.455877 
L 204.42513 151.569897 
L 204.671599 151.569897 
L 204.671599 151.126908 
L 205.008226 151.126908 
L 205.008226 150.683918 
L 205.489636 150.683918 
L 205.565811 149.797938 
L 205.868282 149.797938 
L 205.868282 149.354949 
L 206.11424 149.354949 
L 206.178995 147.58299 
L 206.260732 147.58299 
L 206.370358 146.69701 
L 206.425464 146.69701 
L 206.425464 146.254021 
L 206.733475 146.254021 
L 206.76209 145.368041 
L 206.879541 145.368041 
L 206.989593 144.482062 
L 207.135659 144.482062 
L 207.2435 143.596082 
L 207.781002 143.596082 
L 207.80327 142.710103 
L 208.305527 142.710103 
L 208.365328 141.824123 
L 208.611797 141.824123 
L 208.611797 141.381133 
L 208.948424 141.381133 
L 208.948424 140.938144 
L 209.429834 140.938144 
L 209.429834 140.495154 
L 209.667371 140.495154 
L 209.717595 139.609175 
L 210.218659 139.609175 
L 210.218659 139.166185 
L 210.520718 139.166185 
L 210.580519 138.280205 
L 210.826988 138.280205 
L 210.826988 137.837216 
L 211.163614 137.837216 
L 211.163614 137.394226 
L 211.47146 137.394226 
L 211.47146 136.951236 
L 211.645024 136.951236 
L 211.645024 136.508246 
L 211.872547 136.508246 
L 211.872547 136.065257 
L 212.687204 136.065257 
L 212.687204 135.622267 
L 213.657793 135.622267 
L 213.657793 135.179277 
L 214.612263 135.179277 
L 214.672064 134.293298 
L 214.918533 134.293298 
L 214.918533 133.850308 
L 215.041283 133.850308 
L 215.041283 133.407318 
L 215.255159 133.407318 
L 215.255159 132.964328 
L 215.736569 132.964328 
L 215.799738 132.078349 
L 215.872984 132.078349 
L 215.872984 131.635359 
L 216.462481 131.635359 
L 216.462481 131.19237 
L 218.061117 131.19237 
L 218.061117 130.74938 
L 218.608447 130.74938 
L 218.608447 130.30639 
L 218.819572 130.30639 
L 218.819572 129.8634 
L 219.174953 129.8634 
L 219.174953 129.420411 
L 219.431071 129.420411 
L 219.482314 128.534431 
L 219.964529 128.534431 
L 220.014189 127.648452 
L 220.270307 127.648452 
L 220.270307 127.205462 
L 220.386227 127.205462 
L 220.419614 126.319482 
L 220.642345 126.319482 
L 220.71597 125.433503 
L 220.972088 125.433503 
L 220.972088 124.990513 
L 221.325396 124.990513 
L 221.325396 124.547524 
L 221.71207 124.547524 
L 221.71207 124.104534 
L 221.968188 124.104534 
L 221.968188 123.661544 
L 222.296897 123.661544 
L 222.296897 123.218554 
L 222.542855 123.218554 
L 222.542855 122.775565 
L 223.16209 122.775565 
L 223.16209 122.332575 
L 223.308156 122.332575 
L 223.308156 121.889585 
L 224.065112 121.889585 
L 224.124913 121.003606 
L 224.371382 121.003606 
L 224.371382 120.560616 
L 224.708008 120.560616 
L 224.708008 120.117626 
L 225.189418 120.117626 
L 225.189418 119.674636 
L 226.442782 119.674636 
L 226.442782 119.231647 
L 226.68874 119.231647 
L 226.68874 118.788657 
L 227.307975 118.788657 
L 227.307975 118.345667 
L 227.454041 118.345667 
L 227.49808 117.459688 
L 228.744233 117.459688 
L 228.744233 117.016698 
L 229.251944 117.016698 
L 229.251944 116.573708 
L 229.417378 116.573708 
L 229.417378 116.130719 
L 231.438278 116.130719 
L 231.438278 115.687729 
L 231.810535 115.687729 
L 231.810535 115.244739 
L 232.066653 115.244739 
L 232.066653 114.801749 
L 232.70216 114.801749 
L 232.70216 114.35876 
L 233.653468 114.35876 
L 233.653468 113.91577 
L 233.891181 113.91577 
L 233.891181 113.47278 
L 235.256186 113.47278 
L 235.256186 113.02979 
L 235.603568 113.02979 
L 235.603568 112.586801 
L 236.442804 112.586801 
L 236.442804 112.143811 
L 236.814842 112.143811 
L 236.814842 111.700821 
L 236.995799 111.700821 
L 236.995799 111.257831 
L 237.144585 111.257831 
L 237.241757 110.371852 
L 237.745014 110.371852 
L 237.760973 109.485873 
L 237.860992 109.485873 
L 237.860992 109.042883 
L 238.007058 109.042883 
L 238.017091 108.156903 
L 238.122403 108.156903 
L 238.195814 106.827934 
L 238.36836 106.827934 
L 238.441772 105.498965 
L 238.693204 105.498965 
L 238.693204 105.055975 
L 238.987595 105.055975 
L 239.061007 104.169996 
L 239.133662 104.169996 
L 239.207073 103.284016 
L 239.265094 103.284016 
L 239.265094 102.841026 
L 239.484851 102.841026 
L 239.484851 102.398037 
L 239.74097 102.398037 
L 239.749453 101.512057 
L 240.023549 101.512057 
L 240.023549 101.069068 
L 240.588689 101.069068 
L 240.686291 99.740098 
L 240.846586 99.740098 
L 240.846586 99.297109 
L 240.960727 99.297109 
L 240.960727 98.854119 
L 241.29047 98.854119 
L 241.29047 98.411129 
L 242.28657 98.411129 
L 242.28657 97.968139 
L 244.734548 97.968139 
L 244.794428 97.08216 
L 245.841833 97.08216 
L 245.841833 96.63917 
L 247.197862 96.63917 
L 247.197862 96.19618 
L 247.754381 96.19618 
L 247.814261 95.310201 
L 247.87253 95.310201 
L 247.87253 94.867211 
L 248.23915 94.867211 
L 248.23915 94.424222 
L 248.861666 94.424222 
L 248.861666 93.981232 
L 249.981581 93.981232 
L 249.981581 93.538242 
L 250.30247 93.538242 
L 250.30247 93.095252 
L 251.141706 93.095252 
L 251.141706 92.652263 
L 251.429073 92.652263 
L 251.513744 91.323293 
L 251.735446 91.323293 
L 251.843487 90.437314 
L 252.268309 90.437314 
L 252.341721 89.551334 
L 252.385035 89.551334 
L 252.385035 89.108345 
L 252.640347 89.108345 
L 252.713759 88.222365 
L 252.839587 88.222365 
L 252.839587 87.779375 
L 252.97009 87.779375 
L 253.043502 86.893396 
L 253.921779 86.893396 
L 253.966191 86.007417 
L 254.039602 86.007417 
L 254.039602 85.564427 
L 254.189588 85.564427 
L 254.189588 85.121437 
L 254.865701 85.121437 
L 254.865701 84.678447 
L 255.913466 84.678447 
L 255.913466 84.235458 
L 256.13697 84.235458 
L 256.19715 83.349478 
L 257.019083 83.349478 
L 257.019083 82.906488 
L 258.335473 82.906488 
L 258.335473 82.463499 
L 259.011586 82.463499 
L 259.011586 82.020509 
L 260.059351 82.020509 
L 260.155077 81.134529 
L 260.228515 81.134529 
L 260.228515 80.69154 
L 261.164968 80.69154 
L 261.164968 80.24855 
L 262.938052 80.24855 
L 262.938052 79.80556 
L 264.064655 79.80556 
L 264.138067 78.919581 
L 268.88849 78.919581 
L 268.958359 78.033601 
L 269.018238 78.033601 
L 269.018238 77.590612 
L 269.564603 77.590612 
L 269.564603 77.147622 
L 269.681364 77.147622 
L 269.681364 76.704632 
L 270.015093 76.704632 
L 270.088505 75.375663 
L 270.612368 75.375663 
L 270.691206 74.489683 
L 270.764618 74.489683 
L 270.764618 74.046694 
L 271.717985 74.046694 
L 271.812384 72.717725 
L 272.844588 72.717725 
L 272.918 71.831745 
L 277.434498 71.831745 
L 277.434498 71.388755 
L 279.188362 71.388755 
L 279.188362 70.945766 
L 281.374696 70.945766 
L 281.374696 70.502776 
L 283.589887 70.502776 
L 283.589887 70.059786 
L 287.681432 70.059786 
L 287.681432 69.616796 
L 297.13428 69.616796 
L 297.13428 69.173807 
L 453.192 69.173807 
L 453.192 69.173807 
" style="fill:none;stroke:#bf00bf;stroke-linecap:square;stroke-width:3;"/>
   </g>
   <g id="line2d_22">
    <path clip-path="url(#pd80f6b5f6e)" style="fill:none;stroke:#bf00bf;stroke-linecap:square;stroke-width:3;"/>
   </g>
   <g id="line2d_23">
    <path clip-path="url(#pd80f6b5f6e)" d="M 34.16 185.237117 
L 115.097652 185.237117 
L 115.097652 184.794127 
L 116.14392 184.794127 
L 116.14392 184.351138 
L 117.382872 184.351138 
L 117.382872 183.908148 
L 121.085038 183.908148 
L 121.085038 183.465158 
L 127.269611 183.465158 
L 127.269611 183.022169 
L 128.31588 183.022169 
L 128.31588 182.579179 
L 129.554831 182.579179 
L 129.554831 182.136189 
L 133.256997 182.136189 
L 133.256997 181.693199 
L 136.671286 181.693199 
L 136.671286 181.25021 
L 137.717555 181.25021 
L 137.717555 180.80722 
L 138.956506 180.80722 
L 138.956506 180.36423 
L 140.334651 180.36423 
L 140.334651 179.92124 
L 141.38092 179.92124 
L 141.38092 179.478251 
L 142.619871 179.478251 
L 142.658672 178.592271 
L 146.322037 178.592271 
L 146.322037 178.149281 
L 156.280627 178.149281 
L 156.280627 177.706292 
L 157.326895 177.706292 
L 157.326895 177.263302 
L 157.596453 177.263302 
L 157.596453 176.820312 
L 158.565847 176.820312 
L 158.642722 175.934333 
L 159.881674 175.934333 
L 159.881674 175.491343 
L 160.365993 175.491343 
L 160.365993 175.048353 
L 160.961707 175.048353 
L 160.961707 174.605364 
L 161.412261 174.605364 
L 161.412261 174.162374 
L 162.256455 174.162374 
L 162.268013 173.276394 
L 162.651213 173.276394 
L 162.71915 172.390415 
L 163.302723 172.390415 
L 163.302723 171.947425 
L 163.58384 171.947425 
L 163.58384 171.504435 
L 163.838021 171.504435 
L 163.838021 171.061446 
L 164.245961 171.061446 
L 164.253751 170.175466 
L 164.541675 170.175466 
L 164.541675 169.732476 
L 165.733391 169.732476 
L 165.742376 168.846497 
L 166.353379 168.846497 
L 166.353379 168.403507 
L 166.779659 168.403507 
L 166.779659 167.960518 
L 168.018611 167.960518 
L 168.018611 167.517528 
L 168.243841 167.517528 
L 168.243841 167.074538 
L 169.520376 167.074538 
L 169.520376 166.631548 
L 171.720777 166.631548 
L 171.720777 166.188559 
L 173.133666 166.188559 
L 173.133666 165.745569 
L 174.891109 165.745569 
L 174.891109 165.302579 
L 175.716668 165.302579 
L 175.716668 164.859589 
L 176.009981 164.859589 
L 176.009981 164.4166 
L 176.41792 164.4166 
L 176.42571 163.53062 
L 176.762937 163.53062 
L 176.762937 163.08763 
L 177.914336 163.08763 
L 178.001889 162.201651 
L 181.692335 162.201651 
L 181.704055 161.315672 
L 182.535341 161.315672 
L 182.535341 160.872682 
L 184.292784 160.872682 
L 184.292784 160.429692 
L 185.411655 160.429692 
L 185.411655 159.986702 
L 185.819595 159.986702 
L 185.827385 159.100723 
L 186.198706 159.100723 
L 186.198706 158.657733 
L 186.696028 158.657733 
L 186.696028 158.214743 
L 187.31601 158.214743 
L 187.31601 157.771754 
L 187.956149 157.771754 
L 187.956149 157.328764 
L 189.075021 157.328764 
L 189.075021 156.885774 
L 189.48296 156.885774 
L 189.49075 155.999795 
L 190.979375 155.999795 
L 190.979375 155.556805 
L 191.09401 155.556805 
L 191.09401 155.113815 
L 194.757375 155.113815 
L 194.757375 154.670825 
L 196.527433 154.670825 
L 196.527433 154.227836 
L 198.867988 154.227836 
L 198.867988 153.784846 
L 199.032812 153.784846 
L 199.032812 153.341856 
L 202.144681 153.341856 
L 202.144681 152.898867 
L 203.460508 152.898867 
L 203.460508 152.455877 
L 203.902125 152.455877 
L 203.902125 152.012887 
L 205.020996 152.012887 
L 205.020996 151.569897 
L 205.217952 151.569897 
L 205.217952 151.126908 
L 205.428935 151.126908 
L 205.436726 150.240928 
L 206.230048 150.240928 
L 206.336823 149.354949 
L 206.744762 149.354949 
L 206.752552 148.468969 
L 206.925351 148.468969 
L 206.925351 148.025979 
L 207.485247 148.025979 
L 207.509821 147.14 
L 207.703344 147.14 
L 207.771346 145.368041 
L 207.987491 145.368041 
L 207.987491 144.925051 
L 208.12051 144.925051 
L 208.12051 144.482062 
L 208.241178 144.482062 
L 208.346073 142.267113 
L 209.106362 142.267113 
L 209.106362 141.824123 
L 209.514302 141.824123 
L 209.522092 140.938144 
L 209.877953 140.938144 
L 209.877953 140.495154 
L 210.703351 140.495154 
L 210.703351 140.052164 
L 210.923144 140.052164 
L 211.010717 138.723195 
L 211.404764 138.723195 
L 211.412554 137.837216 
L 211.597446 137.837216 
L 211.597446 137.394226 
L 211.933028 137.394226 
L 212.019178 136.508246 
L 212.901179 136.508246 
L 212.901179 136.065257 
L 213.354889 136.065257 
L 213.428522 135.179277 
L 214.47376 135.179277 
L 214.47376 134.736287 
L 214.788717 134.736287 
L 214.88949 133.407318 
L 215.694405 133.407318 
L 215.694405 132.964328 
L 216.378115 132.964328 
L 216.378115 132.521339 
L 216.583798 132.521339 
L 216.679179 131.635359 
L 217.872479 131.635359 
L 217.872479 131.19237 
L 218.199783 131.19237 
L 218.199783 130.74938 
L 219.089176 130.74938 
L 219.089176 130.30639 
L 219.569123 130.30639 
L 219.569123 129.8634 
L 220.156115 129.8634 
L 220.156115 129.420411 
L 220.377783 129.420411 
L 220.463695 127.205462 
L 220.518033 127.205462 
L 220.518033 126.762472 
L 220.79669 126.762472 
L 220.821265 125.876493 
L 221.533011 125.876493 
L 221.580723 124.547524 
L 222.476608 124.547524 
L 222.501183 123.661544 
L 223.338167 123.661544 
L 223.380899 122.775565 
L 223.598996 122.775565 
L 223.642424 121.889585 
L 224.147067 121.889585 
L 224.147067 121.446595 
L 224.457038 121.446595 
L 224.457038 121.003606 
L 224.864977 121.003606 
L 224.872768 120.117626 
L 226.361393 120.117626 
L 226.361393 119.674636 
L 226.853919 119.674636 
L 226.853919 119.231647 
L 227.072016 119.231647 
L 227.115444 118.345667 
L 227.620087 118.345667 
L 227.620087 117.902677 
L 227.879003 117.902677 
L 227.879003 117.459688 
L 229.19483 117.459688 
L 229.19483 117.016698 
L 229.919707 117.016698 
L 229.919707 116.573708 
L 230.139393 116.573708 
L 230.139393 116.130719 
L 231.96437 116.130719 
L 231.96437 115.687729 
L 233.057839 115.687729 
L 233.082414 114.801749 
L 233.583072 114.801749 
L 233.583072 114.35876 
L 233.854831 114.35876 
L 233.964833 113.47278 
L 236.273435 113.47278 
L 236.334773 112.586801 
L 236.692342 112.586801 
L 236.692342 112.143811 
L 237.331768 112.143811 
L 237.428663 110.814842 
L 237.601331 110.814842 
L 237.644759 109.485873 
L 238.149402 109.485873 
L 238.256613 108.599893 
L 238.281188 108.599893 
L 238.380401 107.270924 
L 238.598498 107.270924 
L 238.641926 106.384944 
L 238.736095 106.384944 
L 238.736095 105.941955 
L 239.13478 105.941955 
L 239.161575 103.727006 
L 239.625488 103.727006 
L 239.654108 102.841026 
L 239.746455 102.841026 
L 239.807793 101.955047 
L 239.872205 101.955047 
L 239.915633 101.069068 
L 240.165363 101.069068 
L 240.165363 100.626078 
L 240.420276 100.626078 
L 240.420276 100.183088 
L 240.901684 100.183088 
L 240.914169 99.297109 
L 241.09048 99.297109 
L 241.115055 98.411129 
L 241.845281 98.411129 
L 241.845281 97.968139 
L 245.061951 97.968139 
L 245.086126 97.08216 
L 246.125472 97.08216 
L 246.125472 96.63917 
L 247.315045 96.63917 
L 247.315045 96.19618 
L 247.567329 96.19618 
L 247.591505 95.310201 
L 248.630851 95.310201 
L 248.630851 94.867211 
L 248.953491 94.867211 
L 248.953491 94.424222 
L 249.529048 94.424222 
L 249.529048 93.981232 
L 249.784629 93.981232 
L 249.784629 93.538242 
L 250.27577 93.538242 
L 250.337108 92.652263 
L 250.694677 92.652263 
L 250.694677 92.209273 
L 250.844875 92.209273 
L 250.844875 91.766283 
L 251.272937 91.766283 
L 251.334275 90.880304 
L 251.430998 90.880304 
L 251.430998 90.437314 
L 251.691845 90.437314 
L 251.691845 89.994324 
L 252.374595 89.994324 
L 252.428166 88.665355 
L 252.546644 88.665355 
L 252.607982 87.779375 
L 252.965552 87.779375 
L 252.965552 87.336386 
L 253.371763 87.336386 
L 253.371763 86.893396 
L 253.614414 86.893396 
L 253.701873 86.007417 
L 254.152265 86.007417 
L 254.152265 85.564427 
L 254.64547 85.564427 
L 254.64547 85.121437 
L 255.030432 85.121437 
L 255.032652 84.235458 
L 255.504876 84.235458 
L 255.504876 83.792468 
L 256.986132 83.792468 
L 256.986132 83.349478 
L 257.625286 83.349478 
L 257.625286 82.906488 
L 258.503453 82.906488 
L 258.505673 82.020509 
L 258.981812 82.020509 
L 258.981812 81.577519 
L 259.186304 81.577519 
L 259.186304 81.134529 
L 260.459153 81.134529 
L 260.459153 80.69154 
L 262.849669 80.69154 
L 262.955826 79.80556 
L 263.952993 79.80556 
L 263.952993 79.362571 
L 265.226701 79.362571 
L 265.226701 78.919581 
L 268.10364 78.919581 
L 268.1546 77.590612 
L 268.96509 77.590612 
L 269.034987 76.261642 
L 269.151768 76.261642 
L 269.167162 75.375663 
L 270.029935 75.375663 
L 270.032155 74.489683 
L 270.425475 74.489683 
L 270.425475 74.046694 
L 270.988467 74.046694 
L 270.988467 73.603704 
L 271.303642 73.603704 
L 271.305862 72.717725 
L 271.985635 72.717725 
L 271.985635 72.274735 
L 273.259342 72.274735 
L 273.259342 71.831745 
L 278.795644 71.831745 
L 278.795644 71.388755 
L 280.111471 71.388755 
L 280.111471 70.945766 
L 282.881011 70.945766 
L 282.881011 70.502776 
L 284.771472 70.502776 
L 284.771472 70.059786 
L 288.248408 70.059786 
L 288.248408 69.616796 
L 298.231686 69.616796 
L 298.231686 69.173807 
L 453.192 69.173807 
L 453.192 69.173807 
" style="fill:none;stroke:#ff0000;stroke-linecap:square;stroke-width:3;"/>
   </g>
   <g id="line2d_24">
    <path clip-path="url(#pd80f6b5f6e)" style="fill:none;stroke:#ff0000;stroke-linecap:square;stroke-width:3;"/>
   </g>
   <g id="line2d_25">
    <path clip-path="url(#pd80f6b5f6e)" d="M 243.676 291.28 
L 243.676 3 
" style="fill:none;stroke:#000000;stroke-linecap:square;stroke-width:1.5;"/>
   </g>
   <g id="line2d_26">
    <path clip-path="url(#pd80f6b5f6e)" d="M 34.16 147.14 
L 453.192 147.14 
" style="fill:none;stroke:#000000;stroke-dasharray:2,3.3;stroke-dashoffset:0;stroke-width:2;"/>
   </g>
   <g id="patch_3">
    <path d="M 34.16 291.28 
L 34.16 3 
" style="fill:none;stroke:#000000;stroke-linecap:square;stroke-linejoin:miter;stroke-width:0.8;"/>
   </g>
   <g id="patch_4">
    <path d="M 453.192 291.28 
L 453.192 3 
" style="fill:none;stroke:#000000;stroke-linecap:square;stroke-linejoin:miter;stroke-width:0.8;"/>
   </g>
   <g id="patch_5">
    <path d="M 34.16 291.28 
L 453.192 291.28 
" style="fill:none;stroke:#000000;stroke-linecap:square;stroke-linejoin:miter;stroke-width:0.8;"/>
   </g>
   <g id="patch_6">
    <path d="M 34.16 3 
L 453.192 3 
" style="fill:none;stroke:#000000;stroke-linecap:square;stroke-linejoin:miter;stroke-width:0.8;"/>
   </g>
   <g id="text_6">
    <!-- f20-f24,10-D -->
    <g transform="translate(318.19261 285.5144)scale(0.2 -0.2)">
     <defs>
      <path d="M 2419 4116 
L 825 1625 
L 2419 1625 
L 2419 4116 
z
M 2253 4666 
L 3047 4666 
L 3047 1625 
L 3713 1625 
L 3713 1100 
L 3047 1100 
L 3047 0 
L 2419 0 
L 2419 1100 
L 313 1100 
L 313 1709 
L 2253 4666 
z
" id="DejaVuSans-34" transform="scale(0.015625)"/>
      <path d="M 750 794 
L 1409 794 
L 1409 256 
L 897 -744 
L 494 -744 
L 750 256 
L 750 794 
z
" id="DejaVuSans-2c" transform="scale(0.015625)"/>
      <path d="M 1259 4147 
L 1259 519 
L 2022 519 
Q 2988 519 3436 956 
Q 3884 1394 3884 2338 
Q 3884 3275 3436 3711 
Q 2988 4147 2022 4147 
L 1259 4147 
z
M 628 4666 
L 1925 4666 
Q 3281 4666 3915 4102 
Q 4550 3538 4550 2338 
Q 4550 1131 3912 565 
Q 3275 0 1925 0 
L 628 0 
L 628 4666 
z
" id="DejaVuSans-44" transform="scale(0.015625)"/>
     </defs>
     <use xlink:href="#DejaVuSans-66"/>
     <use x="35.205078" xlink:href="#DejaVuSans-32"/>
     <use x="98.828125" xlink:href="#DejaVuSans-30"/>
     <use x="162.451172" xlink:href="#DejaVuSans-2d"/>
     <use x="198.535156" xlink:href="#DejaVuSans-66"/>
     <use x="233.740234" xlink:href="#DejaVuSans-32"/>
     <use x="297.363281" xlink:href="#DejaVuSans-34"/>
     <use x="360.986328" xlink:href="#DejaVuSans-2c"/>
     <use x="392.773438" xlink:href="#DejaVuSans-31"/>
     <use x="456.396484" xlink:href="#DejaVuSans-30"/>
     <use x="520.019531" xlink:href="#DejaVuSans-2d"/>
     <use x="556.103516" xlink:href="#DejaVuSans-44"/>
    </g>
   </g>
   <g id="text_7">
    <!-- v2.6.3 -->
    <g style="fill:#808080;" transform="translate(227.99475 286.317512)scale(0.1 -0.1)">
     <defs>
      <path d="M 684 794 
L 1344 794 
L 1344 0 
L 684 0 
L 684 794 
z
" id="DejaVuSans-2e" transform="scale(0.015625)"/>
      <path d="M 2113 2584 
Q 1688 2584 1439 2293 
Q 1191 2003 1191 1497 
Q 1191 994 1439 701 
Q 1688 409 2113 409 
Q 2538 409 2786 701 
Q 3034 994 3034 1497 
Q 3034 2003 2786 2293 
Q 2538 2584 2113 2584 
z
M 3366 4563 
L 3366 3988 
Q 3128 4100 2886 4159 
Q 2644 4219 2406 4219 
Q 1781 4219 1451 3797 
Q 1122 3375 1075 2522 
Q 1259 2794 1537 2939 
Q 1816 3084 2150 3084 
Q 2853 3084 3261 2657 
Q 3669 2231 3669 1497 
Q 3669 778 3244 343 
Q 2819 -91 2113 -91 
Q 1303 -91 875 529 
Q 447 1150 447 2328 
Q 447 3434 972 4092 
Q 1497 4750 2381 4750 
Q 2619 4750 2861 4703 
Q 3103 4656 3366 4563 
z
" id="DejaVuSans-36" transform="scale(0.015625)"/>
      <path d="M 2597 2516 
Q 3050 2419 3304 2112 
Q 3559 1806 3559 1356 
Q 3559 666 3084 287 
Q 2609 -91 1734 -91 
Q 1441 -91 1130 -33 
Q 819 25 488 141 
L 488 750 
Q 750 597 1062 519 
Q 1375 441 1716 441 
Q 2309 441 2620 675 
Q 2931 909 2931 1356 
Q 2931 1769 2642 2001 
Q 2353 2234 1838 2234 
L 1294 2234 
L 1294 2753 
L 1863 2753 
Q 2328 2753 2575 2939 
Q 2822 3125 2822 3475 
Q 2822 3834 2567 4026 
Q 2313 4219 1838 4219 
Q 1578 4219 1281 4162 
Q 984 4106 628 3988 
L 628 4550 
Q 988 4650 1302 4700 
Q 1616 4750 1894 4750 
Q 2613 4750 3031 4423 
Q 3450 4097 3450 3541 
Q 3450 3153 3228 2886 
Q 3006 2619 2597 2516 
z
" id="DejaVuSans-33" transform="scale(0.015625)"/>
     </defs>
     <use xlink:href="#DejaVuSans-76"/>
     <use x="59.179688" xlink:href="#DejaVuSans-32"/>
     <use x="122.802734" xlink:href="#DejaVuSans-2e"/>
     <use x="154.589844" xlink:href="#DejaVuSans-36"/>
     <use x="218.212891" xlink:href="#DejaVuSans-2e"/>
     <use x="250" xlink:href="#DejaVuSans-33"/>
    </g>
   </g>
   <g id="legend_1">
    <g id="patch_7">
     <path d="M 48.16 136.425 
L 177.381875 136.425 
Q 181.381875 136.425 181.381875 132.425 
L 181.381875 17 
Q 181.381875 13 177.381875 13 
L 48.16 13 
Q 44.16 13 44.16 17 
L 44.16 132.425 
Q 44.16 136.425 48.16 136.425 
z
" style="fill:#ffffff;opacity:0.2;stroke:#cccccc;stroke-linejoin:miter;"/>
    </g>
    <g id="line2d_27">
     <path d="M 52.16 29.196875 
L 92.16 29.196875 
" style="fill:none;stroke:#000000;stroke-linecap:square;stroke-width:3;"/>
    </g>
    <g id="line2d_28"/>
    <g id="text_8">
     <!-- 1: 5/5 -->
     <g transform="translate(108.16 36.196875)scale(0.2 -0.2)">
      <defs>
       <path d="M 750 794 
L 1409 794 
L 1409 0 
L 750 0 
L 750 794 
z
M 750 3309 
L 1409 3309 
L 1409 2516 
L 750 2516 
L 750 3309 
z
" id="DejaVuSans-3a" transform="scale(0.015625)"/>
       <path d="M 691 4666 
L 3169 4666 
L 3169 4134 
L 1269 4134 
L 1269 2991 
Q 1406 3038 1543 3061 
Q 1681 3084 1819 3084 
Q 2600 3084 3056 2656 
Q 3513 2228 3513 1497 
Q 3513 744 3044 326 
Q 2575 -91 1722 -91 
Q 1428 -91 1123 -41 
Q 819 9 494 109 
L 494 744 
Q 775 591 1075 516 
Q 1375 441 1709 441 
Q 2250 441 2565 725 
Q 2881 1009 2881 1497 
Q 2881 1984 2565 2268 
Q 2250 2553 1709 2553 
Q 1456 2553 1204 2497 
Q 953 2441 691 2322 
L 691 4666 
z
" id="DejaVuSans-35" transform="scale(0.015625)"/>
       <path d="M 1625 4666 
L 2156 4666 
L 531 -594 
L 0 -594 
L 1625 4666 
z
" id="DejaVuSans-2f" transform="scale(0.015625)"/>
      </defs>
      <use xlink:href="#DejaVuSans-31"/>
      <use x="63.623047" xlink:href="#DejaVuSans-3a"/>
      <use x="97.314453" xlink:href="#DejaVuSans-20"/>
      <use x="129.101562" xlink:href="#DejaVuSans-35"/>
      <use x="192.724609" xlink:href="#DejaVuSans-2f"/>
      <use x="226.416016" xlink:href="#DejaVuSans-35"/>
     </g>
    </g>
    <g id="line2d_29">
     <path d="M 52.16 58.553125 
L 92.16 58.553125 
" style="fill:none;stroke:#00bfbf;stroke-linecap:square;stroke-width:3;"/>
    </g>
    <g id="line2d_30"/>
    <g id="text_9">
     <!-- -1: 4/3 -->
     <g transform="translate(108.16 65.553125)scale(0.2 -0.2)">
      <use xlink:href="#DejaVuSans-2d"/>
      <use x="36.083984" xlink:href="#DejaVuSans-31"/>
      <use x="99.707031" xlink:href="#DejaVuSans-3a"/>
      <use x="133.398438" xlink:href="#DejaVuSans-20"/>
      <use x="165.185547" xlink:href="#DejaVuSans-34"/>
      <use x="228.808594" xlink:href="#DejaVuSans-2f"/>
      <use x="262.5" xlink:href="#DejaVuSans-33"/>
     </g>
    </g>
    <g id="line2d_31">
     <path d="M 52.16 87.909375 
L 92.16 87.909375 
" style="fill:none;stroke:#bf00bf;stroke-linecap:square;stroke-width:3;"/>
    </g>
    <g id="line2d_32"/>
    <g id="text_10">
     <!-- -4: 4/3 -->
     <g transform="translate(108.16 94.909375)scale(0.2 -0.2)">
      <use xlink:href="#DejaVuSans-2d"/>
      <use x="36.083984" xlink:href="#DejaVuSans-34"/>
      <use x="99.707031" xlink:href="#DejaVuSans-3a"/>
      <use x="133.398438" xlink:href="#DejaVuSans-20"/>
      <use x="165.185547" xlink:href="#DejaVuSans-34"/>
      <use x="228.808594" xlink:href="#DejaVuSans-2f"/>
      <use x="262.5" xlink:href="#DejaVuSans-33"/>
     </g>
    </g>
    <g id="line2d_33">
     <path d="M 52.16 117.265625 
L 92.16 117.265625 
" style="fill:none;stroke:#ff0000;stroke-linecap:square;stroke-width:3;"/>
    </g>
    <g id="line2d_34"/>
    <g id="text_11">
     <!-- -8: 4/3 -->
     <g transform="translate(108.16 124.265625)scale(0.2 -0.2)">
      <defs>
       <path d="M 2034 2216 
Q 1584 2216 1326 1975 
Q 1069 1734 1069 1313 
Q 1069 891 1326 650 
Q 1584 409 2034 409 
Q 2484 409 2743 651 
Q 3003 894 3003 1313 
Q 3003 1734 2745 1975 
Q 2488 2216 2034 2216 
z
M 1403 2484 
Q 997 2584 770 2862 
Q 544 3141 544 3541 
Q 544 4100 942 4425 
Q 1341 4750 2034 4750 
Q 2731 4750 3128 4425 
Q 3525 4100 3525 3541 
Q 3525 3141 3298 2862 
Q 3072 2584 2669 2484 
Q 3125 2378 3379 2068 
Q 3634 1759 3634 1313 
Q 3634 634 3220 271 
Q 2806 -91 2034 -91 
Q 1263 -91 848 271 
Q 434 634 434 1313 
Q 434 1759 690 2068 
Q 947 2378 1403 2484 
z
M 1172 3481 
Q 1172 3119 1398 2916 
Q 1625 2713 2034 2713 
Q 2441 2713 2670 2916 
Q 2900 3119 2900 3481 
Q 2900 3844 2670 4047 
Q 2441 4250 2034 4250 
Q 1625 4250 1398 4047 
Q 1172 3844 1172 3481 
z
" id="DejaVuSans-38" transform="scale(0.015625)"/>
      </defs>
      <use xlink:href="#DejaVuSans-2d"/>
      <use x="36.083984" xlink:href="#DejaVuSans-38"/>
      <use x="99.707031" xlink:href="#DejaVuSans-3a"/>
      <use x="133.398438" xlink:href="#DejaVuSans-20"/>
      <use x="165.185547" xlink:href="#DejaVuSans-34"/>
      <use x="228.808594" xlink:href="#DejaVuSans-2f"/>
      <use x="262.5" xlink:href="#DejaVuSans-33"/>
     </g>
    </g>
   </g>
  </g>
 </g>
 <defs>
  <clipPath id="pd80f6b5f6e">
   <rect height="288.28" width="419.032" x="34.16" y="3"/>
  </clipPath>
 </defs>
</svg>
