<?xml version="1.0" encoding="utf-8" standalone="no"?>
<!DOCTYPE svg PUBLIC "-//W3C//DTD SVG 1.1//EN"
  "http://www.w3.org/Graphics/SVG/1.1/DTD/svg11.dtd">
<svg height="345.6pt" version="1.1" viewBox="0 0 460.8 345.6" width="460.8pt" xmlns="http://www.w3.org/2000/svg" xmlns:xlink="http://www.w3.org/1999/xlink">
 <metadata>
  <rdf:RDF xmlns:cc="http://creativecommons.org/ns#" xmlns:dc="http://purl.org/dc/elements/1.1/" xmlns:rdf="http://www.w3.org/1999/02/22-rdf-syntax-ns#">
   <cc:Work>
    <dc:type rdf:resource="http://purl.org/dc/dcmitype/StillImage"/>
    <dc:date>2023-04-17T18:16:39.019388</dc:date>
    <dc:format>image/svg+xml</dc:format>
    <dc:creator>
     <cc:Agent>
      <dc:title>Matplotlib v3.4.1, https://matplotlib.org/</dc:title>
     </cc:Agent>
    </dc:creator>
   </cc:Work>
  </rdf:RDF>
 </metadata>
 <defs>
  <style type="text/css">*{stroke-linecap:butt;stroke-linejoin:round;}</style>
 </defs>
 <g id="figure_1">
  <g id="patch_1">
   <path d="M 0 345.6 
L 460.8 345.6 
L 460.8 0 
L 0 0 
z
" style="fill:#ffffff;"/>
  </g>
  <g id="axes_1">
   <g id="patch_2">
    <path d="M 34.16 291.28 
L 453.192 291.28 
L 453.192 3 
L 34.16 3 
z
" style="fill:#ffffff;"/>
   </g>
   <g id="matplotlib.axis_1">
    <g id="xtick_1">
     <g id="line2d_1">
      <path clip-path="url(#pe31e200c3c)" d="M 157.931004 291.28 
L 157.931004 3 
" style="fill:none;stroke:#b0b0b0;stroke-linecap:square;stroke-width:0.8;"/>
     </g>
     <g id="line2d_2">
      <defs>
       <path d="M 0 0 
L 0 3.5 
" id="m6d7aa5b06b" style="stroke:#000000;stroke-width:0.8;"/>
      </defs>
      <g>
       <use style="stroke:#000000;stroke-width:0.8;" x="157.931004" xlink:href="#m6d7aa5b06b" y="291.28"/>
      </g>
     </g>
     <g id="text_1">
      <!-- -1 -->
      <g transform="translate(147.960691 313.476875)scale(0.2 -0.2)">
       <defs>
        <path d="M 313 2009 
L 1997 2009 
L 1997 1497 
L 313 1497 
L 313 2009 
z
" id="DejaVuSans-2d" transform="scale(0.015625)"/>
        <path d="M 794 531 
L 1825 531 
L 1825 4091 
L 703 3866 
L 703 4441 
L 1819 4666 
L 2450 4666 
L 2450 531 
L 3481 531 
L 3481 0 
L 794 0 
L 794 531 
z
" id="DejaVuSans-31" transform="scale(0.015625)"/>
       </defs>
       <use xlink:href="#DejaVuSans-2d"/>
       <use x="36.083984" xlink:href="#DejaVuSans-31"/>
      </g>
     </g>
    </g>
    <g id="xtick_2">
     <g id="line2d_3">
      <path clip-path="url(#pe31e200c3c)" d="M 329.420996 291.28 
L 329.420996 3 
" style="fill:none;stroke:#b0b0b0;stroke-linecap:square;stroke-width:0.8;"/>
     </g>
     <g id="line2d_4">
      <g>
       <use style="stroke:#000000;stroke-width:0.8;" x="329.420996" xlink:href="#m6d7aa5b06b" y="291.28"/>
      </g>
     </g>
     <g id="text_2">
      <!-- 1 -->
      <g transform="translate(323.058496 313.476875)scale(0.2 -0.2)">
       <use xlink:href="#DejaVuSans-31"/>
      </g>
     </g>
    </g>
    <g id="xtick_3">
     <g id="line2d_5">
      <defs>
       <path d="M 0 0 
L 0 2 
" id="m710d59cc5f" style="stroke:#000000;stroke-width:0.6;"/>
      </defs>
      <g>
       <use style="stroke:#000000;stroke-width:0.6;" x="38.064643" xlink:href="#m710d59cc5f" y="291.28"/>
      </g>
     </g>
    </g>
    <g id="xtick_4">
     <g id="line2d_6">
      <g>
       <use style="stroke:#000000;stroke-width:0.6;" x="46.374192" xlink:href="#m710d59cc5f" y="291.28"/>
      </g>
     </g>
    </g>
    <g id="xtick_5">
     <g id="line2d_7">
      <g>
       <use style="stroke:#000000;stroke-width:0.6;" x="53.163587" xlink:href="#m710d59cc5f" y="291.28"/>
      </g>
     </g>
    </g>
    <g id="xtick_6">
     <g id="line2d_8">
      <g>
       <use style="stroke:#000000;stroke-width:0.6;" x="58.903939" xlink:href="#m710d59cc5f" y="291.28"/>
      </g>
     </g>
    </g>
    <g id="xtick_7">
     <g id="line2d_9">
      <g>
       <use style="stroke:#000000;stroke-width:0.6;" x="63.876459" xlink:href="#m710d59cc5f" y="291.28"/>
      </g>
     </g>
    </g>
    <g id="xtick_8">
     <g id="line2d_10">
      <g>
       <use style="stroke:#000000;stroke-width:0.6;" x="68.262532" xlink:href="#m710d59cc5f" y="291.28"/>
      </g>
     </g>
    </g>
    <g id="xtick_9">
     <g id="line2d_11">
      <g>
       <use style="stroke:#000000;stroke-width:0.6;" x="97.997823" xlink:href="#m710d59cc5f" y="291.28"/>
      </g>
     </g>
    </g>
    <g id="xtick_10">
     <g id="line2d_12">
      <g>
       <use style="stroke:#000000;stroke-width:0.6;" x="113.096768" xlink:href="#m710d59cc5f" y="291.28"/>
      </g>
     </g>
    </g>
    <g id="xtick_11">
     <g id="line2d_13">
      <g>
       <use style="stroke:#000000;stroke-width:0.6;" x="123.809639" xlink:href="#m710d59cc5f" y="291.28"/>
      </g>
     </g>
    </g>
    <g id="xtick_12">
     <g id="line2d_14">
      <g>
       <use style="stroke:#000000;stroke-width:0.6;" x="132.119188" xlink:href="#m710d59cc5f" y="291.28"/>
      </g>
     </g>
    </g>
    <g id="xtick_13">
     <g id="line2d_15">
      <g>
       <use style="stroke:#000000;stroke-width:0.6;" x="138.908583" xlink:href="#m710d59cc5f" y="291.28"/>
      </g>
     </g>
    </g>
    <g id="xtick_14">
     <g id="line2d_16">
      <g>
       <use style="stroke:#000000;stroke-width:0.6;" x="144.648936" xlink:href="#m710d59cc5f" y="291.28"/>
      </g>
     </g>
    </g>
    <g id="xtick_15">
     <g id="line2d_17">
      <g>
       <use style="stroke:#000000;stroke-width:0.6;" x="149.621455" xlink:href="#m710d59cc5f" y="291.28"/>
      </g>
     </g>
    </g>
    <g id="xtick_16">
     <g id="line2d_18">
      <g>
       <use style="stroke:#000000;stroke-width:0.6;" x="154.007528" xlink:href="#m710d59cc5f" y="291.28"/>
      </g>
     </g>
    </g>
    <g id="xtick_17">
     <g id="line2d_19">
      <g>
       <use style="stroke:#000000;stroke-width:0.6;" x="183.74282" xlink:href="#m710d59cc5f" y="291.28"/>
      </g>
     </g>
    </g>
    <g id="xtick_18">
     <g id="line2d_20">
      <g>
       <use style="stroke:#000000;stroke-width:0.6;" x="198.841764" xlink:href="#m710d59cc5f" y="291.28"/>
      </g>
     </g>
    </g>
    <g id="xtick_19">
     <g id="line2d_21">
      <g>
       <use style="stroke:#000000;stroke-width:0.6;" x="209.554635" xlink:href="#m710d59cc5f" y="291.28"/>
      </g>
     </g>
    </g>
    <g id="xtick_20">
     <g id="line2d_22">
      <g>
       <use style="stroke:#000000;stroke-width:0.6;" x="217.864184" xlink:href="#m710d59cc5f" y="291.28"/>
      </g>
     </g>
    </g>
    <g id="xtick_21">
     <g id="line2d_23">
      <g>
       <use style="stroke:#000000;stroke-width:0.6;" x="224.65358" xlink:href="#m710d59cc5f" y="291.28"/>
      </g>
     </g>
    </g>
    <g id="xtick_22">
     <g id="line2d_24">
      <g>
       <use style="stroke:#000000;stroke-width:0.6;" x="230.393932" xlink:href="#m710d59cc5f" y="291.28"/>
      </g>
     </g>
    </g>
    <g id="xtick_23">
     <g id="line2d_25">
      <g>
       <use style="stroke:#000000;stroke-width:0.6;" x="235.366451" xlink:href="#m710d59cc5f" y="291.28"/>
      </g>
     </g>
    </g>
    <g id="xtick_24">
     <g id="line2d_26">
      <g>
       <use style="stroke:#000000;stroke-width:0.6;" x="239.752524" xlink:href="#m710d59cc5f" y="291.28"/>
      </g>
     </g>
    </g>
    <g id="xtick_25">
     <g id="line2d_27">
      <g>
       <use style="stroke:#000000;stroke-width:0.6;" x="269.487816" xlink:href="#m710d59cc5f" y="291.28"/>
      </g>
     </g>
    </g>
    <g id="xtick_26">
     <g id="line2d_28">
      <g>
       <use style="stroke:#000000;stroke-width:0.6;" x="284.58676" xlink:href="#m710d59cc5f" y="291.28"/>
      </g>
     </g>
    </g>
    <g id="xtick_27">
     <g id="line2d_29">
      <g>
       <use style="stroke:#000000;stroke-width:0.6;" x="295.299632" xlink:href="#m710d59cc5f" y="291.28"/>
      </g>
     </g>
    </g>
    <g id="xtick_28">
     <g id="line2d_30">
      <g>
       <use style="stroke:#000000;stroke-width:0.6;" x="303.60918" xlink:href="#m710d59cc5f" y="291.28"/>
      </g>
     </g>
    </g>
    <g id="xtick_29">
     <g id="line2d_31">
      <g>
       <use style="stroke:#000000;stroke-width:0.6;" x="310.398576" xlink:href="#m710d59cc5f" y="291.28"/>
      </g>
     </g>
    </g>
    <g id="xtick_30">
     <g id="line2d_32">
      <g>
       <use style="stroke:#000000;stroke-width:0.6;" x="316.138928" xlink:href="#m710d59cc5f" y="291.28"/>
      </g>
     </g>
    </g>
    <g id="xtick_31">
     <g id="line2d_33">
      <g>
       <use style="stroke:#000000;stroke-width:0.6;" x="321.111448" xlink:href="#m710d59cc5f" y="291.28"/>
      </g>
     </g>
    </g>
    <g id="xtick_32">
     <g id="line2d_34">
      <g>
       <use style="stroke:#000000;stroke-width:0.6;" x="325.49752" xlink:href="#m710d59cc5f" y="291.28"/>
      </g>
     </g>
    </g>
    <g id="xtick_33">
     <g id="line2d_35">
      <g>
       <use style="stroke:#000000;stroke-width:0.6;" x="355.232812" xlink:href="#m710d59cc5f" y="291.28"/>
      </g>
     </g>
    </g>
    <g id="xtick_34">
     <g id="line2d_36">
      <g>
       <use style="stroke:#000000;stroke-width:0.6;" x="370.331757" xlink:href="#m710d59cc5f" y="291.28"/>
      </g>
     </g>
    </g>
    <g id="xtick_35">
     <g id="line2d_37">
      <g>
       <use style="stroke:#000000;stroke-width:0.6;" x="381.044628" xlink:href="#m710d59cc5f" y="291.28"/>
      </g>
     </g>
    </g>
    <g id="xtick_36">
     <g id="line2d_38">
      <g>
       <use style="stroke:#000000;stroke-width:0.6;" x="389.354177" xlink:href="#m710d59cc5f" y="291.28"/>
      </g>
     </g>
    </g>
    <g id="xtick_37">
     <g id="line2d_39">
      <g>
       <use style="stroke:#000000;stroke-width:0.6;" x="396.143572" xlink:href="#m710d59cc5f" y="291.28"/>
      </g>
     </g>
    </g>
    <g id="xtick_38">
     <g id="line2d_40">
      <g>
       <use style="stroke:#000000;stroke-width:0.6;" x="401.883925" xlink:href="#m710d59cc5f" y="291.28"/>
      </g>
     </g>
    </g>
    <g id="xtick_39">
     <g id="line2d_41">
      <g>
       <use style="stroke:#000000;stroke-width:0.6;" x="406.856444" xlink:href="#m710d59cc5f" y="291.28"/>
      </g>
     </g>
    </g>
    <g id="xtick_40">
     <g id="line2d_42">
      <g>
       <use style="stroke:#000000;stroke-width:0.6;" x="411.242517" xlink:href="#m710d59cc5f" y="291.28"/>
      </g>
     </g>
    </g>
    <g id="xtick_41">
     <g id="line2d_43">
      <g>
       <use style="stroke:#000000;stroke-width:0.6;" x="440.977808" xlink:href="#m710d59cc5f" y="291.28"/>
      </g>
     </g>
    </g>
    <g id="text_3">
     <!-- log10 of FEvals ratio -->
     <g transform="translate(141.371312 336.833125)scale(0.2 -0.2)">
      <defs>
       <path d="M 603 4863 
L 1178 4863 
L 1178 0 
L 603 0 
L 603 4863 
z
" id="DejaVuSans-6c" transform="scale(0.015625)"/>
       <path d="M 1959 3097 
Q 1497 3097 1228 2736 
Q 959 2375 959 1747 
Q 959 1119 1226 758 
Q 1494 397 1959 397 
Q 2419 397 2687 759 
Q 2956 1122 2956 1747 
Q 2956 2369 2687 2733 
Q 2419 3097 1959 3097 
z
M 1959 3584 
Q 2709 3584 3137 3096 
Q 3566 2609 3566 1747 
Q 3566 888 3137 398 
Q 2709 -91 1959 -91 
Q 1206 -91 779 398 
Q 353 888 353 1747 
Q 353 2609 779 3096 
Q 1206 3584 1959 3584 
z
" id="DejaVuSans-6f" transform="scale(0.015625)"/>
       <path d="M 2906 1791 
Q 2906 2416 2648 2759 
Q 2391 3103 1925 3103 
Q 1463 3103 1205 2759 
Q 947 2416 947 1791 
Q 947 1169 1205 825 
Q 1463 481 1925 481 
Q 2391 481 2648 825 
Q 2906 1169 2906 1791 
z
M 3481 434 
Q 3481 -459 3084 -895 
Q 2688 -1331 1869 -1331 
Q 1566 -1331 1297 -1286 
Q 1028 -1241 775 -1147 
L 775 -588 
Q 1028 -725 1275 -790 
Q 1522 -856 1778 -856 
Q 2344 -856 2625 -561 
Q 2906 -266 2906 331 
L 2906 616 
Q 2728 306 2450 153 
Q 2172 0 1784 0 
Q 1141 0 747 490 
Q 353 981 353 1791 
Q 353 2603 747 3093 
Q 1141 3584 1784 3584 
Q 2172 3584 2450 3431 
Q 2728 3278 2906 2969 
L 2906 3500 
L 3481 3500 
L 3481 434 
z
" id="DejaVuSans-67" transform="scale(0.015625)"/>
       <path d="M 2034 4250 
Q 1547 4250 1301 3770 
Q 1056 3291 1056 2328 
Q 1056 1369 1301 889 
Q 1547 409 2034 409 
Q 2525 409 2770 889 
Q 3016 1369 3016 2328 
Q 3016 3291 2770 3770 
Q 2525 4250 2034 4250 
z
M 2034 4750 
Q 2819 4750 3233 4129 
Q 3647 3509 3647 2328 
Q 3647 1150 3233 529 
Q 2819 -91 2034 -91 
Q 1250 -91 836 529 
Q 422 1150 422 2328 
Q 422 3509 836 4129 
Q 1250 4750 2034 4750 
z
" id="DejaVuSans-30" transform="scale(0.015625)"/>
       <path id="DejaVuSans-20" transform="scale(0.015625)"/>
       <path d="M 2375 4863 
L 2375 4384 
L 1825 4384 
Q 1516 4384 1395 4259 
Q 1275 4134 1275 3809 
L 1275 3500 
L 2222 3500 
L 2222 3053 
L 1275 3053 
L 1275 0 
L 697 0 
L 697 3053 
L 147 3053 
L 147 3500 
L 697 3500 
L 697 3744 
Q 697 4328 969 4595 
Q 1241 4863 1831 4863 
L 2375 4863 
z
" id="DejaVuSans-66" transform="scale(0.015625)"/>
       <path d="M 628 4666 
L 3309 4666 
L 3309 4134 
L 1259 4134 
L 1259 2759 
L 3109 2759 
L 3109 2228 
L 1259 2228 
L 1259 0 
L 628 0 
L 628 4666 
z
" id="DejaVuSans-46" transform="scale(0.015625)"/>
       <path d="M 628 4666 
L 3578 4666 
L 3578 4134 
L 1259 4134 
L 1259 2753 
L 3481 2753 
L 3481 2222 
L 1259 2222 
L 1259 531 
L 3634 531 
L 3634 0 
L 628 0 
L 628 4666 
z
" id="DejaVuSans-45" transform="scale(0.015625)"/>
       <path d="M 191 3500 
L 800 3500 
L 1894 563 
L 2988 3500 
L 3597 3500 
L 2284 0 
L 1503 0 
L 191 3500 
z
" id="DejaVuSans-76" transform="scale(0.015625)"/>
       <path d="M 2194 1759 
Q 1497 1759 1228 1600 
Q 959 1441 959 1056 
Q 959 750 1161 570 
Q 1363 391 1709 391 
Q 2188 391 2477 730 
Q 2766 1069 2766 1631 
L 2766 1759 
L 2194 1759 
z
M 3341 1997 
L 3341 0 
L 2766 0 
L 2766 531 
Q 2569 213 2275 61 
Q 1981 -91 1556 -91 
Q 1019 -91 701 211 
Q 384 513 384 1019 
Q 384 1609 779 1909 
Q 1175 2209 1959 2209 
L 2766 2209 
L 2766 2266 
Q 2766 2663 2505 2880 
Q 2244 3097 1772 3097 
Q 1472 3097 1187 3025 
Q 903 2953 641 2809 
L 641 3341 
Q 956 3463 1253 3523 
Q 1550 3584 1831 3584 
Q 2591 3584 2966 3190 
Q 3341 2797 3341 1997 
z
" id="DejaVuSans-61" transform="scale(0.015625)"/>
       <path d="M 2834 3397 
L 2834 2853 
Q 2591 2978 2328 3040 
Q 2066 3103 1784 3103 
Q 1356 3103 1142 2972 
Q 928 2841 928 2578 
Q 928 2378 1081 2264 
Q 1234 2150 1697 2047 
L 1894 2003 
Q 2506 1872 2764 1633 
Q 3022 1394 3022 966 
Q 3022 478 2636 193 
Q 2250 -91 1575 -91 
Q 1294 -91 989 -36 
Q 684 19 347 128 
L 347 722 
Q 666 556 975 473 
Q 1284 391 1588 391 
Q 1994 391 2212 530 
Q 2431 669 2431 922 
Q 2431 1156 2273 1281 
Q 2116 1406 1581 1522 
L 1381 1569 
Q 847 1681 609 1914 
Q 372 2147 372 2553 
Q 372 3047 722 3315 
Q 1072 3584 1716 3584 
Q 2034 3584 2315 3537 
Q 2597 3491 2834 3397 
z
" id="DejaVuSans-73" transform="scale(0.015625)"/>
       <path d="M 2631 2963 
Q 2534 3019 2420 3045 
Q 2306 3072 2169 3072 
Q 1681 3072 1420 2755 
Q 1159 2438 1159 1844 
L 1159 0 
L 581 0 
L 581 3500 
L 1159 3500 
L 1159 2956 
Q 1341 3275 1631 3429 
Q 1922 3584 2338 3584 
Q 2397 3584 2469 3576 
Q 2541 3569 2628 3553 
L 2631 2963 
z
" id="DejaVuSans-72" transform="scale(0.015625)"/>
       <path d="M 1172 4494 
L 1172 3500 
L 2356 3500 
L 2356 3053 
L 1172 3053 
L 1172 1153 
Q 1172 725 1289 603 
Q 1406 481 1766 481 
L 2356 481 
L 2356 0 
L 1766 0 
Q 1100 0 847 248 
Q 594 497 594 1153 
L 594 3053 
L 172 3053 
L 172 3500 
L 594 3500 
L 594 4494 
L 1172 4494 
z
" id="DejaVuSans-74" transform="scale(0.015625)"/>
       <path d="M 603 3500 
L 1178 3500 
L 1178 0 
L 603 0 
L 603 3500 
z
M 603 4863 
L 1178 4863 
L 1178 4134 
L 603 4134 
L 603 4863 
z
" id="DejaVuSans-69" transform="scale(0.015625)"/>
      </defs>
      <use xlink:href="#DejaVuSans-6c"/>
      <use x="27.783203" xlink:href="#DejaVuSans-6f"/>
      <use x="88.964844" xlink:href="#DejaVuSans-67"/>
      <use x="152.441406" xlink:href="#DejaVuSans-31"/>
      <use x="216.064453" xlink:href="#DejaVuSans-30"/>
      <use x="279.6875" xlink:href="#DejaVuSans-20"/>
      <use x="311.474609" xlink:href="#DejaVuSans-6f"/>
      <use x="372.65625" xlink:href="#DejaVuSans-66"/>
      <use x="407.861328" xlink:href="#DejaVuSans-20"/>
      <use x="439.648438" xlink:href="#DejaVuSans-46"/>
      <use x="497.167969" xlink:href="#DejaVuSans-45"/>
      <use x="560.351562" xlink:href="#DejaVuSans-76"/>
      <use x="619.53125" xlink:href="#DejaVuSans-61"/>
      <use x="680.810547" xlink:href="#DejaVuSans-6c"/>
      <use x="708.59375" xlink:href="#DejaVuSans-73"/>
      <use x="760.693359" xlink:href="#DejaVuSans-20"/>
      <use x="792.480469" xlink:href="#DejaVuSans-72"/>
      <use x="833.59375" xlink:href="#DejaVuSans-61"/>
      <use x="894.873047" xlink:href="#DejaVuSans-74"/>
      <use x="934.082031" xlink:href="#DejaVuSans-69"/>
      <use x="961.865234" xlink:href="#DejaVuSans-6f"/>
     </g>
    </g>
   </g>
   <g id="matplotlib.axis_2">
    <g id="ytick_1">
     <g id="line2d_44">
      <path clip-path="url(#pe31e200c3c)" d="M 34.16 288.453725 
L 453.192 288.453725 
" style="fill:none;stroke:#b0b0b0;stroke-linecap:square;stroke-width:0.8;"/>
     </g>
     <g id="line2d_45">
      <defs>
       <path d="M 0 0 
L -3.5 0 
" id="m7fd5c7ce23" style="stroke:#000000;stroke-width:0.8;"/>
      </defs>
      <g>
       <use style="stroke:#000000;stroke-width:0.8;" x="34.16" xlink:href="#m7fd5c7ce23" y="288.453725"/>
      </g>
     </g>
    </g>
    <g id="ytick_2">
     <g id="line2d_46">
      <path clip-path="url(#pe31e200c3c)" d="M 34.16 217.796863 
L 453.192 217.796863 
" style="fill:none;stroke:#b0b0b0;stroke-linecap:square;stroke-width:0.8;"/>
     </g>
     <g id="line2d_47">
      <g>
       <use style="stroke:#000000;stroke-width:0.8;" x="34.16" xlink:href="#m7fd5c7ce23" y="217.796863"/>
      </g>
     </g>
    </g>
    <g id="ytick_3">
     <g id="line2d_48">
      <path clip-path="url(#pe31e200c3c)" d="M 34.16 147.14 
L 453.192 147.14 
" style="fill:none;stroke:#b0b0b0;stroke-linecap:square;stroke-width:0.8;"/>
     </g>
     <g id="line2d_49">
      <g>
       <use style="stroke:#000000;stroke-width:0.8;" x="34.16" xlink:href="#m7fd5c7ce23" y="147.14"/>
      </g>
     </g>
    </g>
    <g id="ytick_4">
     <g id="line2d_50">
      <path clip-path="url(#pe31e200c3c)" d="M 34.16 76.483137 
L 453.192 76.483137 
" style="fill:none;stroke:#b0b0b0;stroke-linecap:square;stroke-width:0.8;"/>
     </g>
     <g id="line2d_51">
      <g>
       <use style="stroke:#000000;stroke-width:0.8;" x="34.16" xlink:href="#m7fd5c7ce23" y="76.483137"/>
      </g>
     </g>
    </g>
    <g id="ytick_5">
     <g id="line2d_52">
      <path clip-path="url(#pe31e200c3c)" d="M 34.16 5.826275 
L 453.192 5.826275 
" style="fill:none;stroke:#b0b0b0;stroke-linecap:square;stroke-width:0.8;"/>
     </g>
     <g id="line2d_53">
      <g>
       <use style="stroke:#000000;stroke-width:0.8;" x="34.16" xlink:href="#m7fd5c7ce23" y="5.826275"/>
      </g>
     </g>
    </g>
    <g id="text_4">
     <!-- proportion of trials -->
     <g transform="translate(19.000625 240.14625)rotate(-90)scale(0.2 -0.2)">
      <defs>
       <path d="M 1159 525 
L 1159 -1331 
L 581 -1331 
L 581 3500 
L 1159 3500 
L 1159 2969 
Q 1341 3281 1617 3432 
Q 1894 3584 2278 3584 
Q 2916 3584 3314 3078 
Q 3713 2572 3713 1747 
Q 3713 922 3314 415 
Q 2916 -91 2278 -91 
Q 1894 -91 1617 61 
Q 1341 213 1159 525 
z
M 3116 1747 
Q 3116 2381 2855 2742 
Q 2594 3103 2138 3103 
Q 1681 3103 1420 2742 
Q 1159 2381 1159 1747 
Q 1159 1113 1420 752 
Q 1681 391 2138 391 
Q 2594 391 2855 752 
Q 3116 1113 3116 1747 
z
" id="DejaVuSans-70" transform="scale(0.015625)"/>
       <path d="M 3513 2113 
L 3513 0 
L 2938 0 
L 2938 2094 
Q 2938 2591 2744 2837 
Q 2550 3084 2163 3084 
Q 1697 3084 1428 2787 
Q 1159 2491 1159 1978 
L 1159 0 
L 581 0 
L 581 3500 
L 1159 3500 
L 1159 2956 
Q 1366 3272 1645 3428 
Q 1925 3584 2291 3584 
Q 2894 3584 3203 3211 
Q 3513 2838 3513 2113 
z
" id="DejaVuSans-6e" transform="scale(0.015625)"/>
      </defs>
      <use xlink:href="#DejaVuSans-70"/>
      <use x="63.476562" xlink:href="#DejaVuSans-72"/>
      <use x="102.339844" xlink:href="#DejaVuSans-6f"/>
      <use x="163.521484" xlink:href="#DejaVuSans-70"/>
      <use x="226.998047" xlink:href="#DejaVuSans-6f"/>
      <use x="288.179688" xlink:href="#DejaVuSans-72"/>
      <use x="329.292969" xlink:href="#DejaVuSans-74"/>
      <use x="368.501953" xlink:href="#DejaVuSans-69"/>
      <use x="396.285156" xlink:href="#DejaVuSans-6f"/>
      <use x="457.466797" xlink:href="#DejaVuSans-6e"/>
      <use x="520.845703" xlink:href="#DejaVuSans-20"/>
      <use x="552.632812" xlink:href="#DejaVuSans-6f"/>
      <use x="613.814453" xlink:href="#DejaVuSans-66"/>
      <use x="649.019531" xlink:href="#DejaVuSans-20"/>
      <use x="680.806641" xlink:href="#DejaVuSans-74"/>
      <use x="720.015625" xlink:href="#DejaVuSans-72"/>
      <use x="761.128906" xlink:href="#DejaVuSans-69"/>
      <use x="788.912109" xlink:href="#DejaVuSans-61"/>
      <use x="850.191406" xlink:href="#DejaVuSans-6c"/>
      <use x="877.974609" xlink:href="#DejaVuSans-73"/>
     </g>
    </g>
   </g>
   <g id="line2d_54">
    <path clip-path="url(#pe31e200c3c)" d="M 34.16 206.640516 
L 52.03873 206.640516 
L 52.03873 206.144678 
L 52.522006 206.144678 
L 52.522006 205.648841 
L 56.670357 205.648841 
L 56.670357 205.153003 
L 57.153633 205.153003 
L 57.153633 204.657165 
L 58.429654 204.657165 
L 58.429654 204.161328 
L 59.41795 204.161328 
L 59.41795 203.66549 
L 63.061281 203.66549 
L 63.061281 203.169653 
L 64.049577 203.169653 
L 64.049577 202.673815 
L 66.24427 202.673815 
L 66.24427 202.177977 
L 68.638365 202.177977 
L 68.638365 201.68214 
L 70.875897 201.68214 
L 70.875897 201.186302 
L 73.269992 201.186302 
L 73.269992 200.690464 
L 79.657858 200.690464 
L 79.657858 200.194627 
L 79.857884 200.194627 
L 79.857884 199.698789 
L 80.141134 199.698789 
L 80.141134 199.202951 
L 80.34116 199.202951 
L 80.34116 198.707114 
L 81.186985 198.707114 
L 81.186985 198.211276 
L 81.670261 198.211276 
L 81.670261 197.715439 
L 86.048783 197.715439 
L 86.048783 197.219601 
L 86.248809 197.219601 
L 86.248809 196.723763 
L 87.037078 196.723763 
L 87.037078 196.227926 
L 87.237104 196.227926 
L 87.237104 195.732088 
L 87.57791 195.732088 
L 87.57791 195.23625 
L 88.566205 195.23625 
L 88.566205 194.740413 
L 93.863398 194.740413 
L 93.863398 194.244575 
L 94.063425 194.244575 
L 94.063425 193.748738 
L 95.392525 193.748738 
L 95.392525 193.2529 
L 96.257493 193.2529 
L 96.257493 192.757062 
L 96.45752 192.757062 
L 96.45752 192.261225 
L 97.78662 192.261225 
L 97.78662 191.765387 
L 115.40897 191.765387 
L 115.40897 191.269549 
L 115.892246 191.269549 
L 115.892246 190.773712 
L 118.563299 190.773712 
L 118.563299 190.277874 
L 119.046575 190.277874 
L 119.046575 189.782036 
L 121.799895 189.782036 
L 121.799895 189.286199 
L 122.78819 189.286199 
L 122.78819 188.790361 
L 124.954223 188.790361 
L 124.954223 188.294524 
L 125.942519 188.294524 
L 125.942519 187.798686 
L 129.61451 187.798686 
L 129.61451 187.302848 
L 131.855615 187.302848 
L 131.855615 186.807011 
L 132.008605 186.807011 
L 132.03371 185.815335 
L 132.768839 185.815335 
L 132.768839 185.319498 
L 132.979498 185.319498 
L 132.979498 184.82366 
L 133.157593 184.82366 
L 133.157593 184.327822 
L 133.379917 184.327822 
L 133.379917 183.831985 
L 133.558012 183.831985 
L 133.558012 183.336147 
L 135.162934 183.336147 
L 135.162934 182.84031 
L 136.528714 182.84031 
L 136.528714 182.344472 
L 136.706809 182.344472 
L 136.711256 181.352797 
L 136.889351 181.352797 
L 136.889351 180.856959 
L 137.521801 180.856959 
L 137.521801 180.361121 
L 137.699896 180.361121 
L 137.699896 179.865284 
L 138.096414 179.865284 
L 138.096414 179.369446 
L 138.227767 179.369446 
L 138.274509 178.377771 
L 138.379199 178.377771 
L 138.405862 177.386096 
L 138.619069 177.386096 
L 138.619069 176.890258 
L 138.797164 176.890258 
L 138.834696 175.898583 
L 139.012791 175.898583 
L 139.049081 174.906907 
L 139.227176 174.906907 
L 139.227176 174.41107 
L 139.503082 174.41107 
L 139.503082 173.915232 
L 139.903501 173.915232 
L 139.936258 172.923557 
L 140.114354 172.923557 
L 140.114354 172.427719 
L 143.052298 172.427719 
L 143.052298 171.931882 
L 143.23484 171.931882 
L 143.23484 171.436044 
L 144.045386 171.436044 
L 144.117672 170.444369 
L 144.295767 170.444369 
L 144.295767 169.948531 
L 144.619998 169.948531 
L 144.619998 169.452693 
L 144.751351 169.452693 
L 144.751351 168.956856 
L 145.142654 168.956856 
L 145.142654 168.461018 
L 145.35828 168.461018 
L 145.35828 167.965181 
L 145.509246 167.965181 
L 145.572665 166.973505 
L 145.687341 166.973505 
L 145.687341 166.477668 
L 146.459843 166.477668 
L 146.459843 165.98183 
L 150.641256 165.98183 
L 150.641256 165.485992 
L 151.991852 165.485992 
L 152.03283 164.494317 
L 152.169948 164.494317 
L 152.169948 163.99848 
L 158.515437 163.99848 
L 158.515437 163.502642 
L 162.993478 163.502642 
L 162.993478 163.006804 
L 165.296422 163.006804 
L 165.296422 162.510967 
L 167.625105 162.510967 
L 167.625105 162.015129 
L 169.928049 162.015129 
L 169.928049 161.519291 
L 183.785271 161.519291 
L 183.785271 161.023454 
L 188.416898 161.023454 
L 188.416898 160.527616 
L 190.612607 160.527616 
L 190.612607 160.031778 
L 190.812633 160.031778 
L 190.812633 159.535941 
L 192.141734 159.535941 
L 192.141734 159.040103 
L 192.915551 159.040103 
L 192.915551 158.544266 
L 193.115577 158.544266 
L 193.157764 157.55259 
L 194.281647 157.55259 
L 194.281647 157.056753 
L 194.444677 157.056753 
L 194.444677 156.560915 
L 194.682066 156.560915 
L 194.682066 156.065077 
L 196.422237 156.065077 
L 196.422237 155.56924 
L 196.714995 155.56924 
L 196.714995 155.073402 
L 197.54612 155.073402 
L 197.54612 154.577564 
L 197.830863 154.577564 
L 197.838878 153.585889 
L 197.946539 153.585889 
L 198.013405 152.594214 
L 198.239297 152.594214 
L 198.239297 152.098376 
L 198.513526 152.098376 
L 198.598796 151.106701 
L 198.823951 151.106701 
L 198.823951 150.610863 
L 198.996802 150.610863 
L 198.996802 150.115026 
L 199.398563 150.115026 
L 199.398563 149.619188 
L 199.529916 149.619188 
L 199.529916 149.123351 
L 199.722679 149.123351 
L 199.722679 148.627513 
L 199.921219 148.627513 
L 199.952503 147.635838 
L 200.123098 147.635838 
L 200.136845 146.644162 
L 200.35123 146.644162 
L 200.35123 146.148325 
L 200.485299 146.148325 
L 200.485299 145.652487 
L 201.076386 145.652487 
L 201.095336 144.660812 
L 201.238408 144.660812 
L 201.277878 143.669137 
L 201.388094 143.669137 
L 201.476805 142.677461 
L 201.570636 142.677461 
L 201.609182 141.685786 
L 202.009601 141.685786 
L 202.088424 140.694111 
L 202.193152 140.694111 
L 202.250175 139.702436 
L 202.381181 139.702436 
L 202.381181 139.206598 
L 202.663036 139.206598 
L 202.676428 138.214923 
L 202.794389 138.214923 
L 202.799832 137.223247 
L 202.955794 137.223247 
L 202.955794 136.72741 
L 203.087147 136.72741 
L 203.185692 135.735734 
L 203.271895 135.735734 
L 203.374058 134.744059 
L 203.401318 134.744059 
L 203.478449 133.256546 
L 203.615703 133.256546 
L 203.694076 132.264871 
L 203.774477 132.264871 
L 203.774477 131.769033 
L 203.908461 131.769033 
L 203.923715 130.777358 
L 204.264983 130.777358 
L 204.324134 129.785683 
L 204.502881 129.785683 
L 204.502881 129.289845 
L 204.625602 129.289845 
L 204.625602 128.794008 
L 204.795638 128.794008 
L 204.904451 126.810657 
L 204.970948 126.810657 
L 204.970948 126.314819 
L 205.158398 126.314819 
L 205.158398 125.818982 
L 205.34094 125.818982 
L 205.419821 123.835631 
L 205.577877 123.835631 
L 205.648459 122.348118 
L 205.792262 122.348118 
L 205.892746 121.356443 
L 206.131735 121.356443 
L 206.193302 119.373093 
L 206.324655 119.373093 
L 206.324655 118.877255 
L 206.521351 118.877255 
L 206.521351 118.381417 
L 206.67944 118.381417 
L 206.726098 116.893904 
L 206.811395 116.893904 
L 206.92177 115.406391 
L 206.923274 115.406391 
L 206.931584 114.414716 
L 207.105817 114.414716 
L 207.145969 113.423041 
L 207.248753 113.423041 
L 207.271021 112.431366 
L 207.46438 112.431366 
L 207.472931 111.43969 
L 207.606732 111.43969 
L 207.678765 109.45634 
L 207.916362 109.45634 
L 207.916362 108.960502 
L 208.033146 108.960502 
L 208.090008 107.968827 
L 208.466019 107.968827 
L 208.565943 105.985476 
L 208.584077 105.985476 
L 208.684294 104.497964 
L 208.977052 104.497964 
L 209.040631 102.514613 
L 209.171984 102.514613 
L 209.229256 101.522938 
L 209.443641 101.522938 
L 209.443641 101.0271 
L 209.563287 101.0271 
L 209.572372 100.035425 
L 209.778913 100.035425 
L 209.778913 99.539587 
L 209.993298 99.539587 
L 210.075868 98.052074 
L 210.253109 98.052074 
L 210.330819 97.060399 
L 210.368626 97.060399 
L 210.368626 96.564561 
L 210.820236 96.564561 
L 210.880476 95.077049 
L 211.002779 95.077049 
L 211.063654 94.085373 
L 211.4044 94.085373 
L 211.4044 93.589536 
L 211.604426 93.589536 
L 211.667273 92.102023 
L 211.76962 92.102023 
L 211.813324 91.110347 
L 212.039383 91.110347 
L 212.039383 90.61451 
L 212.160922 90.61451 
L 212.252427 89.126997 
L 212.376549 89.126997 
L 212.387936 88.135322 
L 212.51929 88.135322 
L 212.590934 87.143646 
L 212.719067 87.143646 
L 212.791156 85.656133 
L 212.910592 85.656133 
L 212.933526 84.664458 
L 213.027679 84.664458 
L 213.126218 83.672783 
L 213.191574 83.672783 
L 213.294002 82.681108 
L 213.340603 82.681108 
L 213.340603 82.18527 
L 213.478111 82.18527 
L 213.581985 80.697757 
L 213.606134 80.697757 
L 213.606134 80.20192 
L 213.997657 80.20192 
L 213.997657 79.706082 
L 214.13893 79.706082 
L 214.227781 78.714407 
L 214.512232 78.714407 
L 214.512232 78.218569 
L 214.705868 78.218569 
L 214.705868 77.722731 
L 214.911533 77.722731 
L 214.985952 76.731056 
L 215.061889 76.731056 
L 215.113162 75.243543 
L 215.899828 75.243543 
L 215.903806 74.251868 
L 216.340371 74.251868 
L 216.398693 73.260193 
L 216.453463 73.260193 
L 216.558475 71.77268 
L 216.851232 71.77268 
L 216.851232 71.276842 
L 217.333459 71.276842 
L 217.333459 70.781004 
L 217.659525 70.781004 
L 217.659525 70.285167 
L 217.908072 70.285167 
L 217.908072 69.789329 
L 218.039425 69.789329 
L 218.136473 68.797654 
L 218.255084 68.797654 
L 218.255084 68.301816 
L 218.409195 68.301816 
L 218.437626 66.814303 
L 218.646353 66.814303 
L 218.735034 65.822628 
L 218.792788 65.822628 
L 218.860738 64.830953 
L 219.051099 64.830953 
L 219.051099 64.335115 
L 219.248171 64.335115 
L 219.248171 63.839278 
L 219.747916 63.839278 
L 219.853999 61.855927 
L 219.954137 61.855927 
L 219.954137 61.360089 
L 220.088741 61.360089 
L 220.088741 60.864252 
L 220.345439 60.864252 
L 220.345439 60.368414 
L 220.561066 60.368414 
L 220.621537 59.376739 
L 220.775451 59.376739 
L 220.775451 58.880901 
L 221.662628 58.880901 
L 221.662628 58.385064 
L 221.812272 58.385064 
L 221.812272 57.889226 
L 222.072133 57.889226 
L 222.072133 57.393388 
L 222.248094 57.393388 
L 222.248094 56.897551 
L 222.386413 56.897551 
L 222.386413 56.401713 
L 222.726148 56.401713 
L 222.726148 55.905875 
L 222.93607 55.905875 
L 222.93607 55.410038 
L 223.92933 55.410038 
L 223.92933 54.9142 
L 224.206367 54.9142 
L 224.206367 54.418363 
L 225.120243 54.418363 
L 225.120243 53.922525 
L 225.320904 53.922525 
L 225.330153 52.93085 
L 225.533705 52.93085 
L 225.533705 52.435012 
L 225.844042 52.435012 
L 225.844042 51.939174 
L 226.171782 51.939174 
L 226.171782 51.443337 
L 226.283375 51.443337 
L 226.363719 50.451662 
L 226.70376 50.451662 
L 226.70376 49.955824 
L 227.235616 49.955824 
L 227.235616 49.459986 
L 228.666663 49.459986 
L 228.666663 48.964149 
L 229.518047 48.964149 
L 229.518047 48.468311 
L 229.96178 48.468311 
L 229.96178 47.972473 
L 230.803409 47.972473 
L 230.803409 47.476636 
L 231.80351 47.476636 
L 231.820991 46.48496 
L 233.718222 46.48496 
L 233.718222 45.989123 
L 241.123974 45.989123 
L 241.123974 45.493285 
L 241.324 45.493285 
L 241.324 44.997448 
L 242.653101 44.997448 
L 242.653101 44.50161 
L 247.155512 44.50161 
L 247.155512 44.005772 
L 247.683608 44.005772 
L 247.683608 43.509935 
L 249.691262 43.509935 
L 249.691262 43.014097 
L 249.891288 43.014097 
L 249.891288 42.518259 
L 250.30984 42.518259 
L 250.30984 42.022422 
L 251.220388 42.022422 
L 251.220388 41.526584 
L 252.315235 41.526584 
L 252.315235 41.030746 
L 252.949282 41.030746 
L 252.949282 40.534909 
L 253.131443 40.534909 
L 253.149308 39.543234 
L 253.790911 39.543234 
L 253.790911 39.047396 
L 253.990937 39.047396 
L 253.990937 38.551558 
L 254.478409 38.551558 
L 254.478409 38.055721 
L 255.320037 38.055721 
L 255.320037 37.559883 
L 257.763071 37.559883 
L 257.763071 37.064045 
L 275.302737 37.064045 
L 275.302737 36.568208 
L 275.502763 36.568208 
L 275.502763 36.07237 
L 276.831864 36.07237 
L 276.875086 35.080695 
L 280.029415 35.080695 
L 280.029415 34.584857 
L 280.750572 34.584857 
L 280.750572 34.08902 
L 280.950598 34.08902 
L 280.950598 33.593182 
L 282.279699 33.593182 
L 282.279699 33.097344 
L 285.442374 33.097344 
L 285.442374 32.601507 
L 288.596702 32.601507 
L 288.700394 31.609831 
L 289.542023 31.609831 
L 289.542023 31.113994 
L 291.854722 31.113994 
L 291.854722 30.618156 
L 292.696351 30.618156 
L 292.696351 30.122319 
L 309.468275 30.122319 
L 309.468275 29.626481 
L 311.053849 29.626481 
L 311.053849 29.130643 
L 311.771219 29.130643 
L 311.771219 28.634806 
L 313.147901 28.634806 
L 313.147901 28.138968 
L 314.208177 28.138968 
L 314.208177 27.64313 
L 315.450845 27.64313 
L 315.450845 27.147293 
L 316.501684 27.147293 
L 316.603208 26.155617 
L 318.561481 26.155617 
L 318.561481 25.65978 
L 318.906151 25.65978 
L 318.906151 25.163942 
L 319.475357 25.163942 
L 319.475357 24.668105 
L 319.656012 24.668105 
L 319.656012 24.172267 
L 320.864425 24.172267 
L 320.864425 23.676429 
L 321.778301 23.676429 
L 321.778301 23.180592 
L 330.260068 23.180592 
L 330.260068 22.684754 
L 333.939694 22.684754 
L 333.939694 22.188916 
L 337.395 22.188916 
L 337.395 21.693079 
L 339.353274 21.693079 
L 339.353274 21.197241 
L 340.26715 21.197241 
L 340.26715 20.701404 
L 359.979642 20.701404 
L 359.979642 20.205566 
L 363.659268 20.205566 
L 363.659268 19.709728 
L 367.114575 19.709728 
L 367.114575 19.213891 
L 368.54693 19.213891 
L 368.54693 18.718053 
L 369.072848 18.718053 
L 369.072848 18.222215 
L 369.986724 18.222215 
L 369.986724 17.726378 
L 371.80495 17.726378 
L 371.80495 17.23054 
L 372.226556 17.23054 
L 372.226556 16.734702 
L 372.646579 16.734702 
L 372.646579 16.238865 
L 375.484576 16.238865 
L 375.484576 15.743027 
L 375.681862 15.743027 
L 375.681862 15.24719 
L 376.326205 15.24719 
L 376.326205 14.751352 
L 377.640136 14.751352 
L 377.640136 14.255514 
L 378.554012 14.255514 
L 378.554012 13.759677 
L 378.939882 13.759677 
L 378.939882 13.263839 
L 379.781511 13.263839 
L 379.781511 12.768001 
L 380.898156 12.768001 
L 380.898156 12.272164 
L 381.739785 12.272164 
L 381.812032 11.280488 
L 382.653661 11.280488 
L 382.653661 10.784651 
L 394.158405 10.784651 
L 394.158405 10.288813 
L 397.838031 10.288813 
L 397.838031 9.792976 
L 399.60624 9.792976 
L 399.60624 9.297138 
L 401.293338 9.297138 
L 401.293338 8.8013 
L 403.251611 8.8013 
L 403.285866 7.809625 
L 404.165487 7.809625 
L 404.165487 7.313787 
L 406.741173 7.313787 
L 406.741173 6.81795 
L 408.699446 6.81795 
L 408.699446 6.322112 
L 409.613322 6.322112 
L 409.613322 5.826275 
L 453.192 5.826275 
L 453.192 5.826275 
" style="fill:none;stroke:#000000;stroke-linecap:square;stroke-width:3;"/>
   </g>
   <g id="line2d_55">
    <path clip-path="url(#pe31e200c3c)" style="fill:none;stroke:#000000;stroke-linecap:square;stroke-width:3;"/>
   </g>
   <g id="line2d_56">
    <path clip-path="url(#pe31e200c3c)" d="M 34.16 215.517609 
L 72.625328 215.517609 
L 72.625328 214.909808 
L 78.210461 214.909808 
L 78.210461 214.302007 
L 79.819495 214.302007 
L 79.819495 213.694206 
L 85.404627 213.694206 
L 85.404627 213.086405 
L 100.128117 213.086405 
L 100.128117 212.478604 
L 103.33374 212.478604 
L 103.33374 211.870803 
L 103.801056 211.870803 
L 103.801056 211.263002 
L 104.427384 211.263002 
L 104.475963 210.0474 
L 107.322284 210.0474 
L 107.322284 209.439599 
L 107.594382 209.439599 
L 107.594382 208.831798 
L 110.012517 208.831798 
L 110.012517 208.223997 
L 110.527907 208.223997 
L 110.527907 207.616197 
L 110.995223 207.616197 
L 110.995223 207.008396 
L 111.67013 207.008396 
L 111.67013 206.400595 
L 123.464098 206.400595 
L 123.464098 205.792794 
L 131.930173 205.792794 
L 131.930173 205.184993 
L 133.844987 205.184993 
L 133.844987 204.577192 
L 135.135796 204.577192 
L 135.135796 203.969391 
L 135.603112 203.969391 
L 135.603112 203.36159 
L 136.278019 203.36159 
L 136.278019 202.753789 
L 137.505583 202.753789 
L 137.505583 202.145988 
L 140.48442 202.145988 
L 140.48442 201.538187 
L 141.039154 201.538187 
L 141.039154 200.930386 
L 143.059996 200.930386 
L 143.090715 199.714784 
L 144.31459 199.714784 
L 144.31459 199.106983 
L 147.525532 199.106983 
L 147.525532 198.499182 
L 147.678587 198.499182 
L 147.678587 197.891381 
L 158.513234 197.891381 
L 158.513234 197.28358 
L 158.929712 197.28358 
L 158.929712 196.675779 
L 164.289029 196.675779 
L 164.289029 196.067978 
L 165.008372 196.067978 
L 165.008372 195.460177 
L 165.286684 195.460177 
L 165.286684 194.852376 
L 165.647043 194.852376 
L 165.647043 194.244575 
L 166.214057 194.244575 
L 166.214057 193.636774 
L 167.427268 193.636774 
L 167.427268 193.028973 
L 168.213995 193.028973 
L 168.213995 192.421172 
L 168.681311 192.421172 
L 168.681311 191.813371 
L 169.356218 191.813371 
L 169.356218 191.20557 
L 169.695022 191.20557 
L 169.695022 190.597769 
L 169.874161 190.597769 
L 169.874161 189.989968 
L 170.083847 189.989968 
L 170.083847 189.382167 
L 170.377789 189.382167 
L 170.377789 188.774366 
L 170.671601 188.774366 
L 170.671601 188.166565 
L 170.871817 188.166565 
L 170.871817 187.558764 
L 172.286476 187.558764 
L 172.286476 186.950964 
L 173.012401 186.950964 
L 173.012401 186.343163 
L 174.38295 186.343163 
L 174.38295 185.735362 
L 174.747206 185.735362 
L 174.747206 185.127561 
L 178.169048 185.127561 
L 178.169048 184.51976 
L 178.441326 184.51976 
L 178.441326 183.911959 
L 179.780203 183.911959 
L 179.780203 183.304158 
L 182.083774 183.304158 
L 182.083774 182.696357 
L 182.464774 182.696357 
L 182.568852 181.480755 
L 182.991146 181.480755 
L 182.991146 180.872954 
L 183.754181 180.872954 
L 183.754181 180.265153 
L 184.090369 180.265153 
L 184.090369 179.657352 
L 185.564738 179.657352 
L 185.564738 179.049551 
L 186.247506 179.049551 
L 186.247506 178.44175 
L 191.284535 178.44175 
L 191.284535 177.833949 
L 191.791818 177.833949 
L 191.791818 177.226148 
L 192.789473 177.226148 
L 192.789473 176.618347 
L 194.930057 176.618347 
L 194.997441 175.402745 
L 195.233442 175.402745 
L 195.233442 174.794944 
L 195.464757 174.794944 
L 195.464757 174.187143 
L 195.995096 174.187143 
L 195.995096 173.579342 
L 196.139664 173.579342 
L 196.139664 172.971541 
L 196.462412 172.971541 
L 196.462412 172.36374 
L 197.13732 172.36374 
L 197.13732 171.755939 
L 197.901775 171.755939 
L 197.901775 171.148138 
L 198.13568 171.148138 
L 198.13568 170.540337 
L 198.334491 170.540337 
L 198.444384 169.324735 
L 198.602996 169.324735 
L 198.602996 168.716934 
L 198.725242 168.716934 
L 198.742376 167.501332 
L 199.277904 167.501332 
L 199.277904 166.893532 
L 202.934265 166.893532 
L 202.934265 166.285731 
L 204.848878 166.285731 
L 204.848878 165.67793 
L 205.364675 165.67793 
L 205.364675 165.070129 
L 205.549461 165.070129 
L 205.549461 164.462328 
L 205.671837 164.462328 
L 205.671837 163.854527 
L 206.137215 163.854527 
L 206.145207 162.638925 
L 206.41523 162.638925 
L 206.41523 162.031124 
L 206.96338 162.031124 
L 206.96338 161.423323 
L 207.097997 161.423323 
L 207.097997 160.815522 
L 208.87746 160.815522 
L 208.87746 160.207721 
L 209.344776 160.207721 
L 209.344776 159.59992 
L 209.626172 159.59992 
L 209.626172 158.992119 
L 210.019684 158.992119 
L 210.019684 158.384318 
L 210.21282 158.384318 
L 210.308939 157.168716 
L 212.043044 157.168716 
L 212.043044 156.560915 
L 212.518359 156.560915 
L 212.548513 155.345313 
L 212.787542 155.345313 
L 212.787542 154.737512 
L 213.90694 154.737512 
L 213.90694 154.129711 
L 215.892424 154.129711 
L 215.892424 153.52191 
L 217.334086 153.52191 
L 217.334086 152.914109 
L 217.676624 152.914109 
L 217.676624 152.306308 
L 218.034466 152.306308 
L 218.034466 151.698507 
L 219.184982 151.698507 
L 219.184982 151.090706 
L 219.712525 151.090706 
L 219.712525 150.482905 
L 219.907987 150.482905 
L 219.907987 149.875104 
L 220.306448 149.875104 
L 220.306448 149.267303 
L 220.669875 149.267303 
L 220.669875 148.659502 
L 221.002699 148.659502 
L 221.002699 148.051701 
L 221.590453 148.051701 
L 221.590453 147.4439 
L 222.395924 147.4439 
L 222.395924 146.8361 
L 222.919218 146.8361 
L 222.919218 146.228299 
L 224.2636 146.228299 
L 224.2636 145.620498 
L 225.508688 145.620498 
L 225.508688 145.012697 
L 225.666058 145.012697 
L 225.666058 144.404896 
L 225.853974 144.404896 
L 225.89158 143.189294 
L 226.506343 143.189294 
L 226.506343 142.581493 
L 228.646927 142.581493 
L 228.703523 140.75809 
L 229.291277 140.75809 
L 229.360178 139.542488 
L 232.148121 139.542488 
L 232.184488 138.326886 
L 232.772241 138.326886 
L 232.867255 137.111284 
L 233.145776 137.111284 
L 233.145776 136.503483 
L 233.366881 136.503483 
L 233.455009 134.68008 
L 233.487704 134.68008 
L 233.546341 133.464478 
L 234.20799 133.464478 
L 234.20799 132.856677 
L 234.466169 132.856677 
L 234.466169 132.248876 
L 235.28636 132.248876 
L 235.28636 131.641075 
L 236.650933 131.641075 
L 236.650933 131.033274 
L 236.847846 131.033274 
L 236.847846 130.425473 
L 237.061002 130.425473 
L 237.061002 129.817672 
L 237.530613 129.817672 
L 237.530613 129.209871 
L 237.671792 129.209871 
L 237.671792 128.60207 
L 238.139108 128.60207 
L 238.139108 127.994269 
L 238.814016 127.994269 
L 238.814016 127.386468 
L 239.388707 127.386468 
L 239.388707 126.778668 
L 240.541967 126.778668 
L 240.541967 126.170867 
L 241.188527 126.170867 
L 241.224734 124.955265 
L 242.319919 124.955265 
L 242.319919 124.347464 
L 242.700709 124.347464 
L 242.700709 123.739663 
L 242.943128 123.739663 
L 242.943128 123.131862 
L 243.884921 123.131862 
L 243.884921 122.524061 
L 244.320414 122.524061 
L 244.320414 121.91626 
L 244.669492 121.91626 
L 244.669492 121.308459 
L 244.836875 121.308459 
L 244.88116 120.092857 
L 244.95424 120.092857 
L 244.95424 119.485056 
L 245.352259 119.485056 
L 245.352259 118.877255 
L 245.541994 118.877255 
L 245.541994 118.269454 
L 246.02814 118.269454 
L 246.02814 117.661653 
L 247.304615 117.661653 
L 247.304615 117.053852 
L 247.809236 117.053852 
L 247.905051 115.83825 
L 248.00261 115.83825 
L 248.042498 114.622648 
L 248.509814 114.622648 
L 248.509814 114.014847 
L 248.820627 114.014847 
L 248.820627 113.407046 
L 248.970623 113.407046 
L 248.970623 112.799245 
L 249.184721 112.799245 
L 249.184721 112.191444 
L 249.470053 112.191444 
L 249.50775 110.975842 
L 249.617599 110.975842 
L 249.661228 109.76024 
L 250.466293 109.76024 
L 250.466293 109.152439 
L 251.014859 109.152439 
L 251.014859 108.544638 
L 251.482175 108.544638 
L 251.482175 107.936837 
L 252.157083 107.936837 
L 252.157083 107.329036 
L 252.718692 107.329036 
L 252.718692 106.721236 
L 252.889747 106.721236 
L 252.889747 106.113435 
L 253.311719 106.113435 
L 253.311719 105.505634 
L 254.396832 105.505634 
L 254.396832 104.897833 
L 255.3736 104.897833 
L 255.3736 104.290032 
L 256.135489 104.290032 
L 256.135489 103.682231 
L 256.521451 103.682231 
L 256.521451 103.07443 
L 257.362051 103.07443 
L 257.439244 101.858828 
L 257.607774 101.858828 
L 257.607774 101.251027 
L 258.570426 101.251027 
L 258.570426 100.643226 
L 258.812845 100.643226 
L 258.812845 100.035425 
L 259.729214 100.035425 
L 259.729214 99.427624 
L 260.002415 99.427624 
L 260.002415 98.819823 
L 260.685183 98.819823 
L 260.685183 98.212022 
L 260.843016 98.212022 
L 260.843016 97.604221 
L 261.319588 97.604221 
L 261.319588 96.99642 
L 261.525784 96.99642 
L 261.525784 96.388619 
L 263.872326 96.388619 
L 263.872326 95.780818 
L 268.183039 95.780818 
L 268.183039 95.173017 
L 269.729132 95.173017 
L 269.822708 93.957415 
L 270.826839 93.957415 
L 270.826839 93.349614 
L 271.387709 93.349614 
L 271.387709 92.741813 
L 271.588727 92.741813 
L 271.588727 92.134012 
L 272.383949 92.134012 
L 272.383949 91.526211 
L 272.772168 91.526211 
L 272.772168 90.91841 
L 273.028331 90.91841 
L 273.028331 90.310609 
L 273.495647 90.310609 
L 273.495647 89.702808 
L 273.612769 89.702808 
L 273.612769 89.095007 
L 274.170554 89.095007 
L 274.170554 88.487206 
L 274.593332 88.487206 
L 274.593332 87.879405 
L 274.807404 87.879405 
L 274.822472 86.663803 
L 275.060648 86.663803 
L 275.060648 86.056003 
L 275.182452 86.056003 
L 275.277008 84.840401 
L 275.589572 84.840401 
L 275.589572 84.2326 
L 275.735556 84.2326 
L 275.754069 83.016998 
L 275.864762 83.016998 
L 275.864762 82.409197 
L 276.056888 82.409197 
L 276.056888 81.801396 
L 276.731796 81.801396 
L 276.772826 79.977993 
L 277.398613 79.977993 
L 277.398613 79.370192 
L 278.013027 79.370192 
L 278.013027 78.762391 
L 278.480343 78.762391 
L 278.553745 76.938988 
L 278.892309 76.938988 
L 278.892309 76.331187 
L 279.15525 76.331187 
L 279.15525 75.723386 
L 279.28955 75.723386 
L 279.28955 75.115585 
L 279.420917 75.115585 
L 279.420917 74.507784 
L 279.663336 74.507784 
L 279.663336 73.899983 
L 279.940366 73.899983 
L 279.940366 73.292182 
L 280.16609 73.292182 
L 280.16609 72.684381 
L 280.753844 72.684381 
L 280.753844 72.07658 
L 281.526106 72.07658 
L 281.526106 71.468779 
L 282.008627 71.468779 
L 282.008627 70.860978 
L 282.631859 70.860978 
L 282.691394 69.645376 
L 282.770515 69.645376 
L 282.874278 68.429774 
L 282.883275 68.429774 
L 282.883275 67.821973 
L 283.453282 67.821973 
L 283.453282 67.214172 
L 283.634487 67.214172 
L 283.634487 66.606371 
L 284.473649 66.606371 
L 284.473649 65.998571 
L 284.722818 65.998571 
L 284.829448 64.782969 
L 285.193178 64.782969 
L 285.193178 64.175168 
L 286.36424 64.175168 
L 286.36424 63.567367 
L 287.047008 63.567367 
L 287.047008 62.959566 
L 287.762012 62.959566 
L 287.762012 62.351765 
L 287.93376 62.351765 
L 287.954614 61.136163 
L 288.165539 61.136163 
L 288.165539 60.528362 
L 288.523569 60.528362 
L 288.523569 59.920561 
L 288.637381 59.920561 
L 288.637381 59.31276 
L 289.634089 59.31276 
L 289.634089 58.704959 
L 292.651094 58.704959 
L 292.651094 58.097158 
L 294.778379 58.097158 
L 294.778379 57.489357 
L 295.540267 57.489357 
L 295.540267 56.881556 
L 296.512578 56.881556 
L 296.512578 56.273755 
L 297.510234 56.273755 
L 297.510234 55.665954 
L 299.133993 55.665954 
L 299.133993 55.058153 
L 299.650818 55.058153 
L 299.650818 54.450352 
L 300.724366 54.450352 
L 300.724366 53.842551 
L 303.094936 53.842551 
L 303.094936 53.23475 
L 303.539578 53.23475 
L 303.539578 52.626949 
L 303.935536 52.626949 
L 303.935536 52.019148 
L 304.182059 52.019148 
L 304.182059 51.411347 
L 305.104579 51.411347 
L 305.190175 49.587944 
L 305.432594 49.587944 
L 305.432594 48.980143 
L 305.777929 48.980143 
L 305.777929 48.372342 
L 306.020348 48.372342 
L 306.100819 47.15674 
L 307.320299 47.15674 
L 307.320299 46.548939 
L 307.984017 46.548939 
L 307.984017 45.941139 
L 308.524274 45.941139 
L 308.524274 45.333338 
L 308.824618 45.333338 
L 308.824618 44.725537 
L 309.853533 44.725537 
L 309.853533 44.117736 
L 310.095952 44.117736 
L 310.179011 42.902134 
L 310.392598 42.902134 
L 310.492076 41.686532 
L 311.079829 41.686532 
L 311.079829 41.078731 
L 311.744012 41.078731 
L 311.744012 40.47093 
L 312.740252 40.47093 
L 312.740252 39.863129 
L 313.547654 39.863129 
L 313.547654 39.255328 
L 313.790073 39.255328 
L 313.790073 38.647527 
L 315.155434 38.647527 
L 315.163706 37.431925 
L 317.675179 37.431925 
L 317.675179 36.824124 
L 317.917598 36.824124 
L 317.917598 36.216323 
L 318.062079 36.216323 
L 318.062079 35.608522 
L 318.428421 35.608522 
L 318.428421 35.000721 
L 318.849554 35.000721 
L 318.849554 34.39292 
L 322.97708 34.39292 
L 322.97708 33.785119 
L 325.101147 33.785119 
L 325.101147 33.177318 
L 325.863035 33.177318 
L 325.863035 32.569517 
L 328.799126 32.569517 
L 328.799126 31.961716 
L 329.45676 31.961716 
L 329.45676 31.353915 
L 329.990229 31.353915 
L 329.990229 30.746114 
L 330.752117 30.746114 
L 330.752117 30.138313 
L 331.047134 30.138313 
L 331.047134 29.530512 
L 331.771488 29.530512 
L 331.771488 28.922711 
L 333.008103 28.922711 
L 333.008103 28.31491 
L 333.250522 28.31491 
L 333.250522 27.707109 
L 333.848704 27.707109 
L 333.848704 27.099308 
L 334.091123 27.099308 
L 334.091123 26.491507 
L 334.345842 26.491507 
L 334.345842 25.883707 
L 335.936216 25.883707 
L 335.936216 25.275906 
L 338.310003 25.275906 
L 338.310003 24.668105 
L 339.150604 24.668105 
L 339.18693 23.452503 
L 346.856411 23.452503 
L 346.856411 22.844702 
L 349.557635 22.844702 
L 349.557635 22.236901 
L 352.529997 22.236901 
L 352.529997 21.6291 
L 353.784959 21.6291 
L 353.784959 21.021299 
L 355.014314 21.021299 
L 355.014314 20.413498 
L 355.256733 20.413498 
L 355.349961 19.197896 
L 355.776202 19.197896 
L 355.776202 18.590095 
L 356.018621 18.590095 
L 356.018621 17.982294 
L 356.346201 17.982294 
L 356.346201 17.374493 
L 357.227116 17.374493 
L 357.227116 16.766692 
L 358.769655 16.766692 
L 358.769655 16.158891 
L 359.369927 16.158891 
L 359.369927 15.55109 
L 359.612347 15.55109 
L 359.612347 14.943289 
L 360.199478 14.943289 
L 360.199478 14.335488 
L 360.316215 14.335488 
L 360.316215 13.727687 
L 360.960301 13.727687 
L 360.960301 13.119886 
L 361.078103 13.119886 
L 361.078103 12.512085 
L 361.20272 12.512085 
L 361.20272 11.904284 
L 364.671828 11.904284 
L 364.671828 11.296483 
L 366.262202 11.296483 
L 366.262202 10.688682 
L 374.543468 10.688682 
L 374.543468 10.080881 
L 376.10847 10.080881 
L 376.10847 9.47308 
L 377.10471 9.47308 
L 377.10471 8.865279 
L 379.528164 8.865279 
L 379.528164 8.257478 
L 382.212949 8.257478 
L 382.212949 7.649677 
L 383.777951 7.649677 
L 383.777951 7.041876 
L 384.774191 7.041876 
L 384.774191 6.434075 
L 387.197645 6.434075 
L 387.197645 5.826275 
L 453.192 5.826275 
L 453.192 5.826275 
" style="fill:none;stroke:#00bfbf;stroke-linecap:square;stroke-width:3;"/>
   </g>
   <g id="line2d_57">
    <path clip-path="url(#pe31e200c3c)" style="fill:none;stroke:#00bfbf;stroke-linecap:square;stroke-width:3;"/>
   </g>
   <g id="line2d_58">
    <path clip-path="url(#pe31e200c3c)" d="M 34.16 200.132647 
L 106.585819 200.132647 
L 106.585819 198.955033 
L 109.360668 198.955033 
L 109.360668 197.777418 
L 111.701403 197.777418 
L 111.701403 196.599804 
L 114.333418 196.599804 
L 114.333418 195.42219 
L 119.768769 195.42219 
L 119.768769 194.244575 
L 120.504829 194.244575 
L 120.504829 193.066961 
L 122.543618 193.066961 
L 122.543618 191.889346 
L 123.279677 191.889346 
L 123.279677 190.711732 
L 124.884353 190.711732 
L 124.884353 189.534118 
L 125.620413 189.534118 
L 125.620413 188.356503 
L 127.516368 188.356503 
L 127.516368 187.178889 
L 128.252427 187.178889 
L 128.252427 186.001275 
L 135.199892 186.001275 
L 135.199892 184.82366 
L 137.363637 184.82366 
L 137.363637 183.646046 
L 137.520085 183.646046 
L 137.520085 182.468431 
L 148.382842 182.468431 
L 148.382842 181.290817 
L 149.118902 181.290817 
L 149.118902 180.113203 
L 150.546587 180.113203 
L 150.546587 178.935588 
L 150.703035 178.935588 
L 150.703035 177.757974 
L 151.282646 177.757974 
L 151.282646 176.580359 
L 151.439094 176.580359 
L 151.439094 175.402745 
L 165.903059 175.402745 
L 165.903059 174.225131 
L 166.128938 174.225131 
L 166.128938 173.047516 
L 168.745584 173.047516 
L 168.745584 171.869902 
L 168.903787 171.869902 
L 168.903787 170.692288 
L 169.902269 170.692288 
L 169.902269 169.514673 
L 171.244522 169.514673 
L 171.244522 168.337059 
L 171.520433 168.337059 
L 171.520433 167.159444 
L 172.677118 167.159444 
L 172.677118 165.98183 
L 173.861169 165.98183 
L 173.876537 163.626601 
L 175.017853 163.626601 
L 175.017853 162.448987 
L 176.493183 162.448987 
L 176.493183 161.271373 
L 177.649868 161.271373 
L 177.649868 160.093758 
L 178.327697 160.093758 
L 178.327697 158.916144 
L 179.086009 158.916144 
L 179.086009 157.738529 
L 179.822068 157.738529 
L 179.822068 156.560915 
L 181.102546 156.560915 
L 181.102546 155.383301 
L 183.443282 155.383301 
L 183.443282 154.205686 
L 186.075296 154.205686 
L 186.075296 153.028072 
L 194.743011 153.028072 
L 194.743011 151.850458 
L 196.906756 151.850458 
L 196.906756 150.672843 
L 197.063204 150.672843 
L 197.063204 149.495229 
L 197.359658 149.495229 
L 197.359658 148.317614 
L 198.516342 148.317614 
L 198.516342 147.14 
L 199.523402 147.14 
L 199.523402 145.962386 
L 199.67985 145.962386 
L 199.67985 144.784771 
L 199.915911 144.784771 
L 199.915911 143.607157 
L 200.680087 143.607157 
L 200.680087 142.429542 
L 200.836535 142.429542 
L 200.836535 141.251928 
L 202.69076 141.251928 
L 202.69076 140.074314 
L 205.031496 140.074314 
L 205.031496 138.896699 
L 206.511149 138.896699 
L 206.511149 137.719085 
L 206.94177 137.719085 
L 206.94177 136.541471 
L 207.66351 136.541471 
L 207.66351 135.363856 
L 209.105515 135.363856 
L 209.105515 134.186242 
L 209.261963 134.186242 
L 209.285998 131.831013 
L 209.721305 131.831013 
L 209.721305 130.653399 
L 211.626734 130.653399 
L 211.626734 129.475784 
L 214.258748 129.475784 
L 214.258748 128.29817 
L 217.502662 128.29817 
L 217.502662 127.120556 
L 220.277511 127.120556 
L 220.277511 125.942941 
L 220.948377 125.942941 
L 220.948377 124.765327 
L 222.618247 124.765327 
L 222.618247 123.587712 
L 222.904255 123.587712 
L 222.904255 122.410098 
L 223.640314 122.410098 
L 223.723226 120.054869 
L 225.250261 120.054869 
L 225.250261 118.877255 
L 225.446178 118.877255 
L 225.446178 117.699641 
L 226.063962 117.699641 
L 226.063962 116.522026 
L 227.722458 116.522026 
L 227.722458 115.344412 
L 228.062824 115.344412 
L 228.062824 114.166797 
L 228.529984 114.166797 
L 228.529984 112.989183 
L 228.695976 112.989183 
L 228.695976 111.811569 
L 229.219509 111.811569 
L 229.219509 110.633954 
L 229.927669 110.633954 
L 229.927669 109.45634 
L 230.693729 109.45634 
L 230.693729 108.278725 
L 230.850177 108.278725 
L 230.850177 107.101111 
L 235.125222 107.101111 
L 235.125222 105.923497 
L 237.288967 105.923497 
L 237.288967 104.745882 
L 237.445415 104.745882 
L 237.445415 103.568268 
L 237.644937 103.568268 
L 237.644937 102.390654 
L 240.905409 102.390654 
L 240.905409 101.213039 
L 241.641468 101.213039 
L 241.641468 100.035425 
L 243.110619 100.035425 
L 243.110619 98.85781 
L 243.440394 98.85781 
L 243.440394 97.680196 
L 243.846679 97.680196 
L 243.846679 96.502582 
L 244.4881 96.502582 
L 244.4881 95.324967 
L 245.918099 95.324967 
L 245.918099 94.147353 
L 246.116736 94.147353 
L 246.215243 91.792124 
L 247.08672 91.792124 
L 247.08672 90.61451 
L 247.262949 90.61451 
L 247.262949 89.436895 
L 248.28048 89.436895 
L 248.28048 88.259281 
L 248.436928 88.259281 
L 248.436928 87.081667 
L 248.555979 87.081667 
L 248.555979 85.904052 
L 248.692948 85.904052 
L 248.692948 84.726438 
L 249.562451 84.726438 
L 249.603684 82.371209 
L 249.861569 82.371209 
L 249.861569 81.193595 
L 251.033683 81.193595 
L 251.033683 80.01598 
L 251.187993 80.01598 
L 251.187993 78.838366 
L 251.726195 78.838366 
L 251.726195 77.660752 
L 251.882643 77.660752 
L 251.882643 76.483137 
L 252.202305 76.483137 
L 252.235698 74.127908 
L 253.665697 74.127908 
L 253.665697 72.950294 
L 254.834319 72.950294 
L 254.834319 71.77268 
L 259.233151 71.77268 
L 259.233151 70.595065 
L 265.828389 70.595065 
L 265.828389 69.417451 
L 269.264424 69.417451 
L 269.264424 68.239837 
L 271.88107 68.239837 
L 271.88107 67.062222 
L 272.054468 67.062222 
L 272.054468 65.884608 
L 273.037755 65.884608 
L 273.102173 63.529379 
L 274.218212 63.529379 
L 274.218212 62.351765 
L 274.37466 62.351765 
L 274.37466 61.17415 
L 274.532172 61.17415 
L 274.532172 59.996536 
L 275.265917 59.996536 
L 275.265917 58.818922 
L 275.422365 58.818922 
L 275.422365 57.641307 
L 275.700794 57.641307 
L 275.700794 56.463693 
L 276.695917 56.463693 
L 276.695917 55.286078 
L 276.819902 55.286078 
L 276.852365 52.93085 
L 277.864538 52.93085 
L 277.864538 51.753235 
L 278.020986 51.753235 
L 278.020986 50.575621 
L 280.265617 50.575621 
L 280.265617 49.398007 
L 281.463183 49.398007 
L 281.463183 48.220392 
L 287.265578 48.220392 
L 287.265578 47.042778 
L 289.470788 47.042778 
L 289.470788 45.865163 
L 289.882224 45.865163 
L 289.882224 44.687549 
L 291.038909 44.687549 
L 291.038909 43.509935 
L 292.087435 43.509935 
L 292.087435 42.33232 
L 293.244119 42.33232 
L 293.244119 41.154706 
L 299.464337 41.154706 
L 299.464337 39.977092 
L 301.669547 39.977092 
L 301.669547 38.799477 
L 302.757634 38.799477 
L 302.757634 37.621863 
L 303.051397 37.621863 
L 303.051397 36.444248 
L 303.805339 36.444248 
L 303.805339 35.266634 
L 305.235339 35.266634 
L 305.235339 34.08902 
L 306.40396 34.08902 
L 306.40396 32.911405 
L 309.646635 32.911405 
L 309.646635 31.733791 
L 320.638148 31.733791 
L 320.638148 30.556176 
L 321.052551 30.556176 
L 321.052551 29.378562 
L 323.257761 29.378562 
L 323.257761 28.200948 
L 324.083863 28.200948 
L 324.083863 27.023333 
L 327.647789 27.023333 
L 327.647789 25.845719 
L 329.852999 25.845719 
L 329.852999 24.668105 
L 338.639302 24.668105 
L 338.639302 23.49049 
L 340.844512 23.49049 
L 340.844512 22.312876 
L 342.085017 22.312876 
L 342.085017 21.135261 
L 344.290228 21.135261 
L 344.290228 19.957647 
L 346.57588 19.957647 
L 346.57588 18.780033 
L 347.623585 18.780033 
L 347.623585 17.602418 
L 349.053584 17.602418 
L 349.053584 16.424804 
L 350.222206 16.424804 
L 350.222206 15.24719 
L 364.577034 15.24719 
L 364.577034 14.069575 
L 365.624739 14.069575 
L 365.624739 12.891961 
L 366.782244 12.891961 
L 366.782244 11.714346 
L 367.054738 11.714346 
L 367.054738 10.536732 
L 367.82995 10.536732 
L 367.82995 9.359118 
L 368.22336 9.359118 
L 368.22336 8.181503 
L 369.259949 8.181503 
L 369.259949 7.003889 
L 370.42857 7.003889 
L 370.42857 5.826275 
L 453.192 5.826275 
L 453.192 5.826275 
" style="fill:none;stroke:#bf00bf;stroke-linecap:square;stroke-width:3;"/>
   </g>
   <g id="line2d_59">
    <path clip-path="url(#pe31e200c3c)" style="fill:none;stroke:#bf00bf;stroke-linecap:square;stroke-width:3;"/>
   </g>
   <g id="line2d_60">
    <path clip-path="url(#pe31e200c3c)" d="M 34.16 200.132647 
L 110.286347 200.132647 
L 110.286347 198.955033 
L 112.646647 198.955033 
L 112.646647 197.777418 
L 114.753887 197.777418 
L 114.753887 196.599804 
L 117.025163 196.599804 
L 117.025163 195.42219 
L 120.619697 195.42219 
L 120.619697 194.244575 
L 122.74783 194.244575 
L 122.74783 193.066961 
L 122.979997 193.066961 
L 122.979997 191.889346 
L 125.087237 191.889346 
L 125.108129 189.534118 
L 127.21537 189.534118 
L 127.21537 188.356503 
L 127.358513 188.356503 
L 127.358513 187.178889 
L 129.486645 187.178889 
L 129.486645 186.001275 
L 138.33389 186.001275 
L 138.33389 184.82366 
L 140.151997 184.82366 
L 140.174621 182.468431 
L 148.66724 182.468431 
L 148.66724 181.290817 
L 150.485347 181.290817 
L 150.507971 178.935588 
L 150.795373 178.935588 
L 150.795373 177.757974 
L 152.61348 177.757974 
L 152.636104 175.402745 
L 168.255868 175.402745 
L 168.255868 174.225131 
L 170.217791 174.225131 
L 170.217791 173.047516 
L 171.285686 173.047516 
L 171.285686 171.869902 
L 171.785068 171.869902 
L 171.785068 170.692288 
L 172.578091 170.692288 
L 172.578091 169.514673 
L 173.645986 169.514673 
L 173.645986 168.337059 
L 174.145368 168.337059 
L 174.145368 167.159444 
L 174.685332 167.159444 
L 174.685332 165.98183 
L 175.753227 165.98183 
L 175.753227 164.804216 
L 176.252609 164.804216 
L 176.252609 163.626601 
L 176.956607 163.626601 
L 176.956607 162.448987 
L 178.024502 162.448987 
L 178.024502 161.271373 
L 178.523884 161.271373 
L 178.589218 158.916144 
L 180.717351 158.916144 
L 180.717351 157.738529 
L 181.070161 157.738529 
L 181.070161 156.560915 
L 183.430461 156.560915 
L 183.430461 155.383301 
L 185.537701 155.383301 
L 185.537701 154.205686 
L 187.808977 154.205686 
L 187.808977 153.028072 
L 198.265334 153.028072 
L 198.265334 151.850458 
L 199.333229 151.850458 
L 199.333229 150.672843 
L 199.832611 150.672843 
L 199.832611 149.495229 
L 200.083441 149.495229 
L 200.106065 147.14 
L 201.151337 147.14 
L 201.173961 144.784771 
L 201.650718 144.784771 
L 201.673342 142.429542 
L 206.37653 142.429542 
L 206.37653 141.251928 
L 208.73683 141.251928 
L 208.791692 138.896699 
L 209.117704 138.896699 
L 209.117704 137.719085 
L 210.84407 137.719085 
L 210.935811 135.363856 
L 210.958435 135.363856 
L 210.958435 134.186242 
L 213.115346 134.186242 
L 213.115346 133.008627 
L 219.125042 133.008627 
L 219.125042 131.831013 
L 219.693362 131.831013 
L 219.693362 130.653399 
L 221.253175 130.653399 
L 221.253175 129.475784 
L 222.053662 129.475784 
L 222.053662 128.29817 
L 223.540386 128.29817 
L 223.540386 127.120556 
L 223.905947 127.120556 
L 223.905947 125.942941 
L 224.160903 125.942941 
L 224.160903 124.765327 
L 225.900685 124.765327 
L 225.900685 123.587712 
L 226.043755 123.587712 
L 226.043755 122.410098 
L 226.432178 122.410098 
L 226.432178 121.232484 
L 228.007926 121.232484 
L 228.007926 120.054869 
L 228.187312 120.054869 
L 228.187312 118.877255 
L 229.255207 118.877255 
L 229.255207 117.699641 
L 229.754589 117.699641 
L 229.754589 116.522026 
L 230.279201 116.522026 
L 230.279201 115.344412 
L 234.239297 115.344412 
L 234.239297 114.166797 
L 234.424073 114.166797 
L 234.424073 112.989183 
L 236.24218 112.989183 
L 236.264804 110.633954 
L 236.36743 110.633954 
L 236.377105 108.278725 
L 238.505238 108.278725 
L 238.505238 107.101111 
L 239.039682 107.101111 
L 239.039682 105.923497 
L 245.328654 105.923497 
L 245.328654 104.745882 
L 245.85847 104.745882 
L 245.85847 103.568268 
L 246.043385 103.568268 
L 246.043385 102.390654 
L 247.095469 102.390654 
L 247.095469 101.213039 
L 247.451954 101.213039 
L 247.451954 100.035425 
L 247.688953 100.035425 
L 247.740906 97.680196 
L 248.21877 97.680196 
L 248.21877 96.502582 
L 248.403685 96.502582 
L 248.403685 95.324967 
L 249.455769 95.324967 
L 249.559013 92.969739 
L 249.581637 92.969739 
L 249.581637 91.792124 
L 249.796194 91.792124 
L 249.812254 89.436895 
L 250.32601 89.436895 
L 250.32601 88.259281 
L 250.510926 88.259281 
L 250.510926 87.081667 
L 251.563009 87.081667 
L 251.587929 84.726438 
L 251.919494 84.726438 
L 251.919494 83.548824 
L 252.067469 83.548824 
L 252.067469 82.371209 
L 252.597286 82.371209 
L 252.597286 81.193595 
L 252.782201 81.193595 
L 252.782201 80.01598 
L 253.406036 80.01598 
L 253.42866 77.660752 
L 253.834285 77.660752 
L 253.834285 76.483137 
L 254.19077 76.483137 
L 254.19077 75.305523 
L 264.346051 75.305523 
L 264.346051 74.127908 
L 268.723136 74.127908 
L 268.723136 72.950294 
L 269.791032 72.950294 
L 269.791032 71.77268 
L 270.290413 71.77268 
L 270.290413 70.595065 
L 273.376197 70.595065 
L 273.376197 69.417451 
L 273.906013 69.417451 
L 273.906013 68.239837 
L 274.090928 68.239837 
L 274.090928 67.062222 
L 275.143012 67.062222 
L 275.216928 63.529379 
L 275.499497 63.529379 
L 275.499497 62.351765 
L 275.72412 62.351765 
L 275.746744 59.996536 
L 275.909036 59.996536 
L 275.93166 57.641307 
L 276.961119 57.641307 
L 276.983743 55.286078 
L 277.317604 55.286078 
L 277.340228 52.93085 
L 277.662884 52.93085 
L 277.662884 51.753235 
L 279.575506 51.753235 
L 279.575506 50.575621 
L 281.509907 50.575621 
L 281.509907 49.398007 
L 283.837392 49.398007 
L 283.837392 48.220392 
L 284.905287 48.220392 
L 284.905287 47.042778 
L 285.404669 47.042778 
L 285.404669 45.865163 
L 285.975199 45.865163 
L 285.975199 44.687549 
L 287.043095 44.687549 
L 287.043095 43.509935 
L 287.542476 43.509935 
L 287.542476 42.33232 
L 294.689761 42.33232 
L 294.689761 41.154706 
L 296.827569 41.154706 
L 296.827569 39.977092 
L 303.298175 39.977092 
L 303.298175 38.799477 
L 303.827991 38.799477 
L 303.827991 37.621863 
L 304.012906 37.621863 
L 304.012906 36.444248 
L 304.881875 36.444248 
L 304.881875 35.266634 
L 305.06499 35.266634 
L 305.06499 34.08902 
L 305.421475 34.08902 
L 305.421475 32.911405 
L 318.198708 32.911405 
L 318.198708 31.733791 
L 319.99613 31.733791 
L 319.99613 30.556176 
L 322.045731 30.556176 
L 322.133938 28.200948 
L 333.312963 28.200948 
L 333.312963 27.023333 
L 335.450771 27.023333 
L 335.450771 25.845719 
L 337.159986 25.845719 
L 337.159986 24.668105 
L 339.297794 24.668105 
L 339.297794 23.49049 
L 343.833999 23.49049 
L 343.833999 22.312876 
L 344.363815 22.312876 
L 344.363815 21.135261 
L 344.548731 21.135261 
L 344.548731 19.957647 
L 345.600814 19.957647 
L 345.600814 18.780033 
L 345.957299 18.780033 
L 345.957299 17.602418 
L 358.948254 17.602418 
L 358.948254 16.424804 
L 359.47807 16.424804 
L 359.47807 15.24719 
L 359.662986 15.24719 
L 359.662986 14.069575 
L 360.71507 14.069575 
L 360.71507 12.891961 
L 361.071554 12.891961 
L 361.086062 10.536732 
L 361.615878 10.536732 
L 361.615878 9.359118 
L 361.800794 9.359118 
L 361.800794 8.181503 
L 362.852877 8.181503 
L 362.852877 7.003889 
L 363.209362 7.003889 
L 363.209362 5.826275 
L 453.192 5.826275 
L 453.192 5.826275 
" style="fill:none;stroke:#ff0000;stroke-linecap:square;stroke-width:3;"/>
   </g>
   <g id="line2d_61">
    <path clip-path="url(#pe31e200c3c)" style="fill:none;stroke:#ff0000;stroke-linecap:square;stroke-width:3;"/>
   </g>
   <g id="line2d_62">
    <path clip-path="url(#pe31e200c3c)" d="M 243.676 291.28 
L 243.676 3 
" style="fill:none;stroke:#000000;stroke-linecap:square;stroke-width:1.5;"/>
   </g>
   <g id="line2d_63">
    <path clip-path="url(#pe31e200c3c)" d="M 34.16 147.14 
L 453.192 147.14 
" style="fill:none;stroke:#000000;stroke-dasharray:2,3.3;stroke-dashoffset:0;stroke-width:2;"/>
   </g>
   <g id="patch_3">
    <path d="M 34.16 291.28 
L 34.16 3 
" style="fill:none;stroke:#000000;stroke-linecap:square;stroke-linejoin:miter;stroke-width:0.8;"/>
   </g>
   <g id="patch_4">
    <path d="M 453.192 291.28 
L 453.192 3 
" style="fill:none;stroke:#000000;stroke-linecap:square;stroke-linejoin:miter;stroke-width:0.8;"/>
   </g>
   <g id="patch_5">
    <path d="M 34.16 291.28 
L 453.192 291.28 
" style="fill:none;stroke:#000000;stroke-linecap:square;stroke-linejoin:miter;stroke-width:0.8;"/>
   </g>
   <g id="patch_6">
    <path d="M 34.16 3 
L 453.192 3 
" style="fill:none;stroke:#000000;stroke-linecap:square;stroke-linejoin:miter;stroke-width:0.8;"/>
   </g>
   <g id="text_5">
    <!-- f20-f24,40-D -->
    <g transform="translate(318.19261 285.5144)scale(0.2 -0.2)">
     <defs>
      <path d="M 1228 531 
L 3431 531 
L 3431 0 
L 469 0 
L 469 531 
Q 828 903 1448 1529 
Q 2069 2156 2228 2338 
Q 2531 2678 2651 2914 
Q 2772 3150 2772 3378 
Q 2772 3750 2511 3984 
Q 2250 4219 1831 4219 
Q 1534 4219 1204 4116 
Q 875 4013 500 3803 
L 500 4441 
Q 881 4594 1212 4672 
Q 1544 4750 1819 4750 
Q 2544 4750 2975 4387 
Q 3406 4025 3406 3419 
Q 3406 3131 3298 2873 
Q 3191 2616 2906 2266 
Q 2828 2175 2409 1742 
Q 1991 1309 1228 531 
z
" id="DejaVuSans-32" transform="scale(0.015625)"/>
      <path d="M 2419 4116 
L 825 1625 
L 2419 1625 
L 2419 4116 
z
M 2253 4666 
L 3047 4666 
L 3047 1625 
L 3713 1625 
L 3713 1100 
L 3047 1100 
L 3047 0 
L 2419 0 
L 2419 1100 
L 313 1100 
L 313 1709 
L 2253 4666 
z
" id="DejaVuSans-34" transform="scale(0.015625)"/>
      <path d="M 750 794 
L 1409 794 
L 1409 256 
L 897 -744 
L 494 -744 
L 750 256 
L 750 794 
z
" id="DejaVuSans-2c" transform="scale(0.015625)"/>
      <path d="M 1259 4147 
L 1259 519 
L 2022 519 
Q 2988 519 3436 956 
Q 3884 1394 3884 2338 
Q 3884 3275 3436 3711 
Q 2988 4147 2022 4147 
L 1259 4147 
z
M 628 4666 
L 1925 4666 
Q 3281 4666 3915 4102 
Q 4550 3538 4550 2338 
Q 4550 1131 3912 565 
Q 3275 0 1925 0 
L 628 0 
L 628 4666 
z
" id="DejaVuSans-44" transform="scale(0.015625)"/>
     </defs>
     <use xlink:href="#DejaVuSans-66"/>
     <use x="35.205078" xlink:href="#DejaVuSans-32"/>
     <use x="98.828125" xlink:href="#DejaVuSans-30"/>
     <use x="162.451172" xlink:href="#DejaVuSans-2d"/>
     <use x="198.535156" xlink:href="#DejaVuSans-66"/>
     <use x="233.740234" xlink:href="#DejaVuSans-32"/>
     <use x="297.363281" xlink:href="#DejaVuSans-34"/>
     <use x="360.986328" xlink:href="#DejaVuSans-2c"/>
     <use x="392.773438" xlink:href="#DejaVuSans-34"/>
     <use x="456.396484" xlink:href="#DejaVuSans-30"/>
     <use x="520.019531" xlink:href="#DejaVuSans-2d"/>
     <use x="556.103516" xlink:href="#DejaVuSans-44"/>
    </g>
   </g>
   <g id="text_6">
    <!-- v2.6.3 -->
    <g style="fill:#808080;" transform="translate(227.99475 286.317512)scale(0.1 -0.1)">
     <defs>
      <path d="M 684 794 
L 1344 794 
L 1344 0 
L 684 0 
L 684 794 
z
" id="DejaVuSans-2e" transform="scale(0.015625)"/>
      <path d="M 2113 2584 
Q 1688 2584 1439 2293 
Q 1191 2003 1191 1497 
Q 1191 994 1439 701 
Q 1688 409 2113 409 
Q 2538 409 2786 701 
Q 3034 994 3034 1497 
Q 3034 2003 2786 2293 
Q 2538 2584 2113 2584 
z
M 3366 4563 
L 3366 3988 
Q 3128 4100 2886 4159 
Q 2644 4219 2406 4219 
Q 1781 4219 1451 3797 
Q 1122 3375 1075 2522 
Q 1259 2794 1537 2939 
Q 1816 3084 2150 3084 
Q 2853 3084 3261 2657 
Q 3669 2231 3669 1497 
Q 3669 778 3244 343 
Q 2819 -91 2113 -91 
Q 1303 -91 875 529 
Q 447 1150 447 2328 
Q 447 3434 972 4092 
Q 1497 4750 2381 4750 
Q 2619 4750 2861 4703 
Q 3103 4656 3366 4563 
z
" id="DejaVuSans-36" transform="scale(0.015625)"/>
      <path d="M 2597 2516 
Q 3050 2419 3304 2112 
Q 3559 1806 3559 1356 
Q 3559 666 3084 287 
Q 2609 -91 1734 -91 
Q 1441 -91 1130 -33 
Q 819 25 488 141 
L 488 750 
Q 750 597 1062 519 
Q 1375 441 1716 441 
Q 2309 441 2620 675 
Q 2931 909 2931 1356 
Q 2931 1769 2642 2001 
Q 2353 2234 1838 2234 
L 1294 2234 
L 1294 2753 
L 1863 2753 
Q 2328 2753 2575 2939 
Q 2822 3125 2822 3475 
Q 2822 3834 2567 4026 
Q 2313 4219 1838 4219 
Q 1578 4219 1281 4162 
Q 984 4106 628 3988 
L 628 4550 
Q 988 4650 1302 4700 
Q 1616 4750 1894 4750 
Q 2613 4750 3031 4423 
Q 3450 4097 3450 3541 
Q 3450 3153 3228 2886 
Q 3006 2619 2597 2516 
z
" id="DejaVuSans-33" transform="scale(0.015625)"/>
     </defs>
     <use xlink:href="#DejaVuSans-76"/>
     <use x="59.179688" xlink:href="#DejaVuSans-32"/>
     <use x="122.802734" xlink:href="#DejaVuSans-2e"/>
     <use x="154.589844" xlink:href="#DejaVuSans-36"/>
     <use x="218.212891" xlink:href="#DejaVuSans-2e"/>
     <use x="250" xlink:href="#DejaVuSans-33"/>
    </g>
   </g>
   <g id="legend_1">
    <g id="patch_7">
     <path d="M 48.16 136.425 
L 177.381875 136.425 
Q 181.381875 136.425 181.381875 132.425 
L 181.381875 17 
Q 181.381875 13 177.381875 13 
L 48.16 13 
Q 44.16 13 44.16 17 
L 44.16 132.425 
Q 44.16 136.425 48.16 136.425 
z
" style="fill:#ffffff;opacity:0.2;stroke:#cccccc;stroke-linejoin:miter;"/>
    </g>
    <g id="line2d_64">
     <path d="M 52.16 29.196875 
L 92.16 29.196875 
" style="fill:none;stroke:#000000;stroke-linecap:square;stroke-width:3;"/>
    </g>
    <g id="line2d_65"/>
    <g id="text_7">
     <!-- 1: 4/2 -->
     <g transform="translate(108.16 36.196875)scale(0.2 -0.2)">
      <defs>
       <path d="M 750 794 
L 1409 794 
L 1409 0 
L 750 0 
L 750 794 
z
M 750 3309 
L 1409 3309 
L 1409 2516 
L 750 2516 
L 750 3309 
z
" id="DejaVuSans-3a" transform="scale(0.015625)"/>
       <path d="M 1625 4666 
L 2156 4666 
L 531 -594 
L 0 -594 
L 1625 4666 
z
" id="DejaVuSans-2f" transform="scale(0.015625)"/>
      </defs>
      <use xlink:href="#DejaVuSans-31"/>
      <use x="63.623047" xlink:href="#DejaVuSans-3a"/>
      <use x="97.314453" xlink:href="#DejaVuSans-20"/>
      <use x="129.101562" xlink:href="#DejaVuSans-34"/>
      <use x="192.724609" xlink:href="#DejaVuSans-2f"/>
      <use x="226.416016" xlink:href="#DejaVuSans-32"/>
     </g>
    </g>
    <g id="line2d_66">
     <path d="M 52.16 58.553125 
L 92.16 58.553125 
" style="fill:none;stroke:#00bfbf;stroke-linecap:square;stroke-width:3;"/>
    </g>
    <g id="line2d_67"/>
    <g id="text_8">
     <!-- -1: 3/2 -->
     <g transform="translate(108.16 65.553125)scale(0.2 -0.2)">
      <use xlink:href="#DejaVuSans-2d"/>
      <use x="36.083984" xlink:href="#DejaVuSans-31"/>
      <use x="99.707031" xlink:href="#DejaVuSans-3a"/>
      <use x="133.398438" xlink:href="#DejaVuSans-20"/>
      <use x="165.185547" xlink:href="#DejaVuSans-33"/>
      <use x="228.808594" xlink:href="#DejaVuSans-2f"/>
      <use x="262.5" xlink:href="#DejaVuSans-32"/>
     </g>
    </g>
    <g id="line2d_68">
     <path d="M 52.16 87.909375 
L 92.16 87.909375 
" style="fill:none;stroke:#bf00bf;stroke-linecap:square;stroke-width:3;"/>
    </g>
    <g id="line2d_69"/>
    <g id="text_9">
     <!-- -4: 2/1 -->
     <g transform="translate(108.16 94.909375)scale(0.2 -0.2)">
      <use xlink:href="#DejaVuSans-2d"/>
      <use x="36.083984" xlink:href="#DejaVuSans-34"/>
      <use x="99.707031" xlink:href="#DejaVuSans-3a"/>
      <use x="133.398438" xlink:href="#DejaVuSans-20"/>
      <use x="165.185547" xlink:href="#DejaVuSans-32"/>
      <use x="228.808594" xlink:href="#DejaVuSans-2f"/>
      <use x="262.5" xlink:href="#DejaVuSans-31"/>
     </g>
    </g>
    <g id="line2d_70">
     <path d="M 52.16 117.265625 
L 92.16 117.265625 
" style="fill:none;stroke:#ff0000;stroke-linecap:square;stroke-width:3;"/>
    </g>
    <g id="line2d_71"/>
    <g id="text_10">
     <!-- -8: 2/1 -->
     <g transform="translate(108.16 124.265625)scale(0.2 -0.2)">
      <defs>
       <path d="M 2034 2216 
Q 1584 2216 1326 1975 
Q 1069 1734 1069 1313 
Q 1069 891 1326 650 
Q 1584 409 2034 409 
Q 2484 409 2743 651 
Q 3003 894 3003 1313 
Q 3003 1734 2745 1975 
Q 2488 2216 2034 2216 
z
M 1403 2484 
Q 997 2584 770 2862 
Q 544 3141 544 3541 
Q 544 4100 942 4425 
Q 1341 4750 2034 4750 
Q 2731 4750 3128 4425 
Q 3525 4100 3525 3541 
Q 3525 3141 3298 2862 
Q 3072 2584 2669 2484 
Q 3125 2378 3379 2068 
Q 3634 1759 3634 1313 
Q 3634 634 3220 271 
Q 2806 -91 2034 -91 
Q 1263 -91 848 271 
Q 434 634 434 1313 
Q 434 1759 690 2068 
Q 947 2378 1403 2484 
z
M 1172 3481 
Q 1172 3119 1398 2916 
Q 1625 2713 2034 2713 
Q 2441 2713 2670 2916 
Q 2900 3119 2900 3481 
Q 2900 3844 2670 4047 
Q 2441 4250 2034 4250 
Q 1625 4250 1398 4047 
Q 1172 3844 1172 3481 
z
" id="DejaVuSans-38" transform="scale(0.015625)"/>
      </defs>
      <use xlink:href="#DejaVuSans-2d"/>
      <use x="36.083984" xlink:href="#DejaVuSans-38"/>
      <use x="99.707031" xlink:href="#DejaVuSans-3a"/>
      <use x="133.398438" xlink:href="#DejaVuSans-20"/>
      <use x="165.185547" xlink:href="#DejaVuSans-32"/>
      <use x="228.808594" xlink:href="#DejaVuSans-2f"/>
      <use x="262.5" xlink:href="#DejaVuSans-31"/>
     </g>
    </g>
   </g>
  </g>
 </g>
 <defs>
  <clipPath id="pe31e200c3c">
   <rect height="288.28" width="419.032" x="34.16" y="3"/>
  </clipPath>
 </defs>
</svg>
