<?xml version="1.0" encoding="utf-8" standalone="no"?>
<!DOCTYPE svg PUBLIC "-//W3C//DTD SVG 1.1//EN"
  "http://www.w3.org/Graphics/SVG/1.1/DTD/svg11.dtd">
<svg height="345.6pt" version="1.1" viewBox="0 0 460.8 345.6" width="460.8pt" xmlns="http://www.w3.org/2000/svg" xmlns:xlink="http://www.w3.org/1999/xlink">
 <metadata>
  <rdf:RDF xmlns:cc="http://creativecommons.org/ns#" xmlns:dc="http://purl.org/dc/elements/1.1/" xmlns:rdf="http://www.w3.org/1999/02/22-rdf-syntax-ns#">
   <cc:Work>
    <dc:type rdf:resource="http://purl.org/dc/dcmitype/StillImage"/>
    <dc:date>2023-04-17T18:16:45.347386</dc:date>
    <dc:format>image/svg+xml</dc:format>
    <dc:creator>
     <cc:Agent>
      <dc:title>Matplotlib v3.4.1, https://matplotlib.org/</dc:title>
     </cc:Agent>
    </dc:creator>
   </cc:Work>
  </rdf:RDF>
 </metadata>
 <defs>
  <style type="text/css">*{stroke-linecap:butt;stroke-linejoin:round;}</style>
 </defs>
 <g id="figure_1">
  <g id="patch_1">
   <path d="M 0 345.6 
L 460.8 345.6 
L 460.8 0 
L 0 0 
z
" style="fill:#ffffff;"/>
  </g>
  <g id="axes_1">
   <g id="patch_2">
    <path d="M 62.208 293.76 
L 460.8 293.76 
L 460.8 3.456 
L 62.208 3.456 
z
" style="fill:#ffffff;"/>
   </g>
   <g id="line2d_1"/>
   <g id="line2d_2">
    <path clip-path="url(#p50a4682834)" d="M 370.322739 293.76 
L 370.322739 288.969505 
L 372.55071 288.969505 
L 372.55071 284.17901 
L 377.838922 284.17901 
L 377.838922 279.388515 
L 378.70371 279.388515 
L 378.70371 274.59802 
L 380.9631 274.59802 
L 380.9631 269.807525 
L 382.099012 269.807525 
L 382.099012 265.01703 
L 382.6401 265.01703 
L 382.6401 260.226535 
L 382.662564 260.226535 
L 382.662564 255.43604 
L 382.770823 255.43604 
L 382.770823 250.645545 
L 383.102452 250.645545 
L 383.102452 245.85505 
L 383.169909 245.85505 
L 383.169909 241.064554 
L 383.354636 241.064554 
L 383.354636 236.274059 
L 383.357609 236.274059 
L 383.357609 231.483564 
L 383.423802 231.483564 
L 383.423802 226.693069 
L 383.482692 226.693069 
L 383.482692 221.902574 
L 383.751499 221.902574 
L 383.751499 217.112079 
L 383.925267 217.112079 
L 383.925267 212.321584 
L 384.496778 212.321584 
L 384.496778 207.531089 
L 385.167495 207.531089 
L 385.167495 202.740594 
L 385.2276 202.740594 
L 385.2276 197.950099 
L 387.867462 197.950099 
L 387.867462 193.159604 
L 389.597881 193.159604 
L 389.597881 188.369109 
L 404.725804 188.369109 
L 404.725804 183.578614 
L 409.315661 183.578614 
L 409.315661 178.788119 
L 410.601106 178.788119 
L 410.601106 173.997624 
L 411.521588 173.997624 
L 411.521588 169.207129 
L 412.461161 169.207129 
L 412.461161 164.416634 
L 412.696235 164.416634 
L 412.696235 159.626139 
L 425.153054 159.626139 
L 425.153054 154.835644 
L 429.159406 154.835644 
L 429.159406 150.045149 
L 429.159406 150.045149 
L 429.159406 150.045149 
L 460.8 150.045149 
" style="fill:none;stroke:#f5deb3;stroke-linecap:square;stroke-width:1.5;"/>
   </g>
   <g id="line2d_3"/>
   <g id="line2d_4"/>
   <g id="line2d_5">
    <path clip-path="url(#p50a4682834)" d="M 328.833566 293.76 
L 328.833566 288.969505 
L 329.762364 288.969505 
L 329.762364 284.17901 
L 330.302986 284.17901 
L 330.302986 279.388515 
L 330.533183 279.388515 
L 330.533183 274.59802 
L 330.860905 274.59802 
L 330.860905 269.807525 
L 330.929169 269.807525 
L 330.929169 265.01703 
L 333.41286 265.01703 
L 333.41286 260.226535 
L 333.590858 260.226535 
L 333.590858 255.43604 
L 333.820406 255.43604 
L 333.820406 250.645545 
L 335.115367 250.645545 
L 335.115367 245.85505 
L 335.189243 245.85505 
L 335.189243 241.064554 
L 336.097681 241.064554 
L 336.097681 236.274059 
L 338.275958 236.274059 
L 338.275958 231.483564 
L 338.496037 231.483564 
L 338.496037 226.693069 
L 338.847737 226.693069 
L 338.847737 221.902574 
L 371.781258 221.902574 
L 371.781258 217.112079 
L 372.471699 217.112079 
L 372.471699 212.321584 
L 372.660963 212.321584 
L 372.660963 207.531089 
L 372.759389 207.531089 
L 372.759389 202.740594 
L 373.289795 202.740594 
L 373.289795 197.950099 
L 373.409444 197.950099 
L 373.409444 193.159604 
L 373.606298 193.159604 
L 373.606298 188.369109 
L 373.786683 188.369109 
L 373.786683 183.578614 
L 374.248527 183.578614 
L 374.248527 178.788119 
L 374.779053 178.788119 
L 374.779053 173.997624 
L 374.814075 173.997624 
L 374.814075 169.207129 
L 374.820345 169.207129 
L 374.820345 164.416634 
L 374.989261 164.416634 
L 374.989261 159.626139 
L 375.39567 159.626139 
L 375.39567 154.835644 
L 376.046323 154.835644 
L 376.046323 150.045149 
L 376.193626 150.045149 
L 376.193626 145.254653 
L 376.20272 145.254653 
L 376.20272 140.464158 
L 376.253208 140.464158 
L 376.253208 135.673663 
L 376.403294 135.673663 
L 376.403294 130.883168 
L 376.654394 130.883168 
L 376.654394 126.092673 
L 376.708823 126.092673 
L 376.708823 121.302178 
L 377.557823 121.302178 
L 377.557823 116.511683 
L 378.593262 116.511683 
L 378.593262 111.721188 
L 378.650903 111.721188 
L 378.650903 106.930693 
L 379.401408 106.930693 
L 379.401408 102.140198 
L 379.511578 102.140198 
L 379.511578 97.349703 
L 401.04096 97.349703 
L 401.04096 92.559208 
L 402.013913 92.559208 
L 402.013913 87.768713 
L 402.150051 87.768713 
L 402.150051 82.978218 
L 402.662511 82.978218 
L 402.662511 78.187723 
L 402.888887 78.187723 
L 402.888887 73.397228 
L 403.545301 73.397228 
L 403.545301 68.606733 
L 404.182969 68.606733 
L 404.182969 63.816238 
L 404.766742 63.816238 
L 404.766742 59.025743 
L 405.053675 59.025743 
L 405.053675 54.235248 
L 405.727114 54.235248 
L 405.727114 49.444752 
L 405.9211 49.444752 
L 405.9211 44.654257 
L 406.230126 44.654257 
L 406.230126 39.863762 
L 408.360162 39.863762 
L 408.360162 35.073267 
L 408.838164 35.073267 
L 408.838164 30.282772 
L 409.139093 30.282772 
L 409.139093 25.492277 
L 409.620544 25.492277 
L 409.620544 20.701782 
L 409.860292 20.701782 
L 409.860292 15.911287 
L 409.892421 15.911287 
L 409.892421 11.120792 
L 432.210611 11.120792 
L 432.210611 6.330297 
L 432.210611 6.330297 
L 432.210611 6.330297 
L 460.8 6.330297 
" style="fill:none;stroke:#f5deb3;stroke-linecap:square;stroke-width:1.5;"/>
   </g>
   <g id="line2d_6">
    <path clip-path="url(#p50a4682834)" d="M 377.84232 293.76 
L 377.84232 288.969505 
L 380.334084 288.969505 
L 380.334084 284.17901 
L 383.137048 284.17901 
L 383.137048 279.388515 
L 387.921476 279.388515 
L 387.921476 274.59802 
L 389.123612 274.59802 
L 389.123612 269.807525 
L 399.014584 269.807525 
L 399.014584 265.01703 
L 404.427914 265.01703 
L 404.427914 260.226535 
L 407.545687 260.226535 
L 407.545687 255.43604 
L 409.43784 255.43604 
L 409.43784 250.645545 
L 413.835687 250.645545 
L 413.835687 245.85505 
L 415.405922 245.85505 
L 415.405922 241.064554 
L 418.988882 241.064554 
L 418.988882 236.274059 
L 431.695114 236.274059 
L 431.695114 231.483564 
L 432.987119 231.483564 
L 432.987119 226.693069 
L 450.543721 226.693069 
L 450.543721 221.902574 
L 461.8 221.902574 
" style="fill:none;stroke:#f5deb3;stroke-linecap:square;stroke-width:1.5;"/>
   </g>
   <g id="line2d_7">
    <path clip-path="url(#p50a4682834)" d="M 311.325153 293.76 
L 311.325153 291.364752 
L 313.18277 291.364752 
L 313.18277 288.969505 
L 313.373524 288.969505 
L 313.373524 286.574257 
L 313.468571 286.574257 
L 313.468571 284.17901 
L 314.314269 284.17901 
L 314.314269 281.783762 
L 314.499868 281.783762 
L 314.499868 279.388515 
L 315.051702 279.388515 
L 315.051702 276.993267 
L 315.142959 276.993267 
L 315.142959 274.59802 
L 315.234016 274.59802 
L 315.234016 272.202772 
L 315.324871 272.202772 
L 315.324871 269.807525 
L 315.415527 269.807525 
L 315.415527 267.412277 
L 315.505983 267.412277 
L 315.505983 265.01703 
L 315.596242 265.01703 
L 315.596242 262.621782 
L 315.865837 262.621782 
L 315.865837 260.226535 
L 315.955311 260.226535 
L 315.955311 257.831287 
L 316.13368 257.831287 
L 316.13368 255.43604 
L 316.222575 255.43604 
L 316.222575 253.040792 
L 316.311279 253.040792 
L 316.311279 250.645545 
L 316.399792 250.645545 
L 316.399792 248.250297 
L 316.664198 248.250297 
L 316.664198 245.85505 
L 316.751957 245.85505 
L 316.751957 243.459802 
L 316.83953 243.459802 
L 316.83953 241.064554 
L 316.926917 241.064554 
L 316.926917 238.669307 
L 317.014119 238.669307 
L 317.014119 236.274059 
L 317.014119 236.274059 
L 317.014119 233.878812 
L 317.101137 233.878812 
L 317.101137 231.483564 
L 317.187972 231.483564 
L 317.187972 229.088317 
L 317.274624 229.088317 
L 317.274624 226.693069 
L 317.447384 226.693069 
L 317.447384 224.297822 
L 317.447384 224.297822 
L 317.447384 221.902574 
L 317.447384 221.902574 
L 317.447384 219.507327 
L 317.533492 219.507327 
L 317.533492 217.112079 
L 317.533492 217.112079 
L 317.533492 214.716832 
L 317.619422 214.716832 
L 317.619422 212.321584 
L 317.619422 212.321584 
L 317.619422 209.926337 
L 317.87614 209.926337 
L 317.87614 207.531089 
L 317.87614 207.531089 
L 317.87614 205.135842 
L 317.87614 205.135842 
L 317.87614 202.740594 
L 318.046401 202.740594 
L 318.046401 200.345347 
L 318.046401 200.345347 
L 318.046401 197.950099 
L 318.469 197.950099 
L 318.469 195.554851 
L 318.553002 195.554851 
L 318.553002 193.159604 
L 318.636834 193.159604 
L 318.636834 190.764356 
L 318.88731 190.764356 
L 318.88731 188.369109 
L 319.136272 188.369109 
L 319.136272 185.973861 
L 319.218926 185.973861 
L 319.218926 183.578614 
L 319.7114 183.578614 
L 319.7114 181.183366 
L 319.7114 181.183366 
L 319.7114 178.788119 
L 319.79291 178.788119 
L 319.79291 176.392871 
L 340.726608 176.392871 
L 340.726608 173.997624 
L 343.794149 173.997624 
L 343.794149 171.602376 
L 343.885007 171.602376 
L 343.885007 169.207129 
L 344.47075 169.207129 
L 344.47075 166.811881 
L 345.004144 166.811881 
L 345.004144 164.416634 
L 346.136674 164.416634 
L 346.136674 162.021386 
L 347.15516 162.021386 
L 347.15516 159.626139 
L 347.364212 159.626139 
L 347.364212 157.230891 
L 347.779162 157.230891 
L 347.779162 154.835644 
L 361.901972 154.835644 
L 361.901972 152.440396 
L 383.590087 152.440396 
L 383.590087 150.045149 
L 383.590087 150.045149 
L 383.590087 150.045149 
L 460.8 150.045149 
" style="fill:none;stroke:#f5deb3;stroke-linecap:square;stroke-width:1.5;"/>
   </g>
   <g id="line2d_8"/>
   <g id="line2d_9"/>
   <g id="line2d_10"/>
   <g id="line2d_11">
    <path clip-path="url(#p50a4682834)" d="M 453.609289 293.76 
L 453.609289 288.969505 
L 461.8 288.969505 
" style="fill:none;stroke:#f5deb3;stroke-linecap:square;stroke-width:1.5;"/>
   </g>
   <g id="line2d_12"/>
   <g id="line2d_13">
    <path clip-path="url(#p50a4682834)" d="M 272.63676 293.76 
L 272.63676 288.969505 
L 275.346339 288.969505 
L 275.346339 284.17901 
L 281.296531 284.17901 
L 281.296531 279.388515 
L 282.344684 279.388515 
L 282.344684 274.59802 
L 282.644216 274.59802 
L 282.644216 269.807525 
L 283.009534 269.807525 
L 283.009534 265.01703 
L 284.900381 265.01703 
L 284.900381 260.226535 
L 284.992914 260.226535 
L 284.992914 255.43604 
L 285.158953 255.43604 
L 285.158953 250.645545 
L 285.260092 250.645545 
L 285.260092 245.85505 
L 286.575046 245.85505 
L 286.575046 241.064554 
L 287.043794 241.064554 
L 287.043794 236.274059 
L 287.594136 236.274059 
L 287.594136 231.483564 
L 288.626729 231.483564 
L 288.626729 226.693069 
L 290.378818 226.693069 
L 290.378818 221.902574 
L 291.094399 221.902574 
L 291.094399 217.112079 
L 292.796398 217.112079 
L 292.796398 212.321584 
L 294.239309 212.321584 
L 294.239309 207.531089 
L 296.172451 207.531089 
L 296.172451 202.740594 
L 296.190064 202.740594 
L 296.190064 197.950099 
L 309.963797 197.950099 
L 309.963797 193.159604 
L 314.542754 193.159604 
L 314.542754 188.369109 
L 314.944606 188.369109 
L 314.944606 183.578614 
L 315.578646 183.578614 
L 315.578646 178.788119 
L 315.640199 178.788119 
L 315.640199 173.997624 
L 316.382536 173.997624 
L 316.382536 169.207129 
L 316.48166 169.207129 
L 316.48166 164.416634 
L 316.602011 164.416634 
L 316.602011 159.626139 
L 317.073566 159.626139 
L 317.073566 154.835644 
L 317.564951 154.835644 
L 317.564951 150.045149 
L 318.211833 150.045149 
L 318.211833 145.254653 
L 318.304598 145.254653 
L 318.304598 140.464158 
L 318.530482 140.464158 
L 318.530482 135.673663 
L 319.743228 135.673663 
L 319.743228 130.883168 
L 319.832612 130.883168 
L 319.832612 126.092673 
L 320.605103 126.092673 
L 320.605103 121.302178 
L 321.173672 121.302178 
L 321.173672 116.511683 
L 321.902784 116.511683 
L 321.902784 111.721188 
L 323.61406 111.721188 
L 323.61406 106.930693 
L 324.099934 106.930693 
L 324.099934 102.140198 
L 324.151781 102.140198 
L 324.151781 97.349703 
L 324.158927 97.349703 
L 324.158927 92.559208 
L 324.173216 92.559208 
L 324.173216 87.768713 
L 330.338366 87.768713 
L 330.338366 82.978218 
L 330.66611 82.978218 
L 330.66611 78.187723 
L 330.66611 78.187723 
L 330.66611 78.187723 
L 460.8 78.187723 
" style="fill:none;stroke:#f5deb3;stroke-linecap:square;stroke-width:1.5;"/>
   </g>
   <g id="line2d_14"/>
   <g id="line2d_15"/>
   <g id="line2d_16">
    <path clip-path="url(#p50a4682834)" d="M 425.436974 293.76 
L 425.436974 288.969505 
L 439.877691 288.969505 
L 439.877691 284.17901 
L 442.796389 284.17901 
L 442.796389 279.388515 
L 442.796389 279.388515 
L 442.796389 279.388515 
L 460.8 279.388515 
" style="fill:none;stroke:#f5deb3;stroke-linecap:square;stroke-width:1.5;"/>
   </g>
   <g id="line2d_17">
    <path clip-path="url(#p50a4682834)" d="M 363.341827 293.76 
L 363.341827 288.969505 
L 364.28149 288.969505 
L 364.28149 284.17901 
L 365.311556 284.17901 
L 365.311556 279.388515 
L 365.472456 279.388515 
L 365.472456 274.59802 
L 366.416555 274.59802 
L 366.416555 269.807525 
L 366.894231 269.807525 
L 366.894231 265.01703 
L 369.527343 265.01703 
L 369.527343 260.226535 
L 370.672021 260.226535 
L 370.672021 255.43604 
L 371.465102 255.43604 
L 371.465102 250.645545 
L 371.717657 250.645545 
L 371.717657 245.85505 
L 372.792877 245.85505 
L 372.792877 241.064554 
L 375.438922 241.064554 
L 375.438922 236.274059 
L 375.632484 236.274059 
L 375.632484 231.483564 
L 376.280445 231.483564 
L 376.280445 226.693069 
L 376.661889 226.693069 
L 376.661889 221.902574 
L 451.100105 221.902574 
L 451.100105 217.112079 
L 452.176285 217.112079 
L 452.176285 212.321584 
L 452.208164 212.321584 
L 452.208164 207.531089 
L 452.30214 207.531089 
L 452.30214 202.740594 
L 452.325003 202.740594 
L 452.325003 197.950099 
L 452.358995 197.950099 
L 452.358995 193.159604 
L 452.714509 193.159604 
L 452.714509 188.369109 
L 452.794191 188.369109 
L 452.794191 183.578614 
L 452.857055 183.578614 
L 452.857055 178.788119 
L 452.923278 178.788119 
L 452.923278 173.997624 
L 453.282381 173.997624 
L 453.282381 169.207129 
L 453.358721 169.207129 
L 453.358721 164.416634 
L 453.527766 164.416634 
L 453.527766 159.626139 
L 453.691653 159.626139 
L 453.691653 154.835644 
L 453.716607 154.835644 
L 453.716607 150.045149 
L 453.716838 150.045149 
L 453.716838 145.254653 
L 453.922364 145.254653 
L 453.922364 140.464158 
L 453.930254 140.464158 
L 453.930254 135.673663 
L 453.991104 135.673663 
L 453.991104 130.883168 
L 454.075533 130.883168 
L 454.075533 126.092673 
L 454.750964 126.092673 
L 454.750964 121.302178 
L 454.764628 121.302178 
L 454.764628 116.511683 
L 454.898471 116.511683 
L 454.898471 111.721188 
L 454.930855 111.721188 
L 454.930855 106.930693 
L 455.108326 106.930693 
L 455.108326 102.140198 
L 455.195995 102.140198 
L 455.195995 97.349703 
L 455.414764 97.349703 
L 455.414764 92.559208 
L 455.443643 92.559208 
L 455.443643 87.768713 
L 455.690692 87.768713 
L 455.690692 82.978218 
L 455.821932 82.978218 
L 455.821932 78.187723 
L 461.8 78.187723 
" style="fill:none;stroke:#f5deb3;stroke-linecap:square;stroke-width:1.5;"/>
   </g>
   <g id="line2d_18">
    <path clip-path="url(#p50a4682834)" d="M 340.08107 293.76 
L 340.08107 288.969505 
L 340.197435 288.969505 
L 340.197435 284.17901 
L 340.832823 284.17901 
L 340.832823 279.388515 
L 341.428029 279.388515 
L 341.428029 274.59802 
L 341.588664 274.59802 
L 341.588664 269.807525 
L 341.873217 269.807525 
L 341.873217 265.01703 
L 342.881183 265.01703 
L 342.881183 260.226535 
L 343.213266 260.226535 
L 343.213266 255.43604 
L 343.451077 255.43604 
L 343.451077 250.645545 
L 343.917092 250.645545 
L 343.917092 245.85505 
L 344.342884 245.85505 
L 344.342884 241.064554 
L 344.844417 241.064554 
L 344.844417 236.274059 
L 345.925497 236.274059 
L 345.925497 231.483564 
L 346.192178 231.483564 
L 346.192178 226.693069 
L 349.929399 226.693069 
L 349.929399 221.902574 
L 360.726705 221.902574 
L 360.726705 217.112079 
L 369.05477 217.112079 
L 369.05477 212.321584 
L 377.117973 212.321584 
L 377.117973 207.531089 
L 377.581769 207.531089 
L 377.581769 202.740594 
L 377.911684 202.740594 
L 377.911684 197.950099 
L 378.077105 197.950099 
L 378.077105 193.159604 
L 378.825715 193.159604 
L 378.825715 188.369109 
L 378.876878 188.369109 
L 378.876878 183.578614 
L 379.524164 183.578614 
L 379.524164 178.788119 
L 379.753292 178.788119 
L 379.753292 173.997624 
L 379.909188 173.997624 
L 379.909188 169.207129 
L 380.066336 169.207129 
L 380.066336 164.416634 
L 380.959049 164.416634 
L 380.959049 159.626139 
L 381.147662 159.626139 
L 381.147662 154.835644 
L 381.15707 154.835644 
L 381.15707 150.045149 
L 381.423633 150.045149 
L 381.423633 145.254653 
L 381.450772 145.254653 
L 381.450772 140.464158 
L 381.704398 140.464158 
L 381.704398 135.673663 
L 382.631457 135.673663 
L 382.631457 130.883168 
L 382.672064 130.883168 
L 382.672064 126.092673 
L 382.851294 126.092673 
L 382.851294 121.302178 
L 383.219364 121.302178 
L 383.219364 116.511683 
L 383.605286 116.511683 
L 383.605286 111.721188 
L 384.7028 111.721188 
L 384.7028 106.930693 
L 385.462706 106.930693 
L 385.462706 102.140198 
L 408.065594 102.140198 
L 408.065594 97.349703 
L 410.821279 97.349703 
L 410.821279 92.559208 
L 412.559951 92.559208 
L 412.559951 87.768713 
L 422.577568 87.768713 
L 422.577568 82.978218 
L 434.031922 82.978218 
L 434.031922 78.187723 
L 434.031922 78.187723 
L 434.031922 78.187723 
L 460.8 78.187723 
" style="fill:none;stroke:#f5deb3;stroke-linecap:square;stroke-width:1.5;"/>
   </g>
   <g id="line2d_19">
    <path clip-path="url(#p50a4682834)" d="M 330.554602 293.76 
L 330.554602 288.969505 
L 330.644748 288.969505 
L 330.644748 284.17901 
L 330.803171 284.17901 
L 330.803171 279.388515 
L 331.945708 279.388515 
L 331.945708 274.59802 
L 332.395753 274.59802 
L 332.395753 269.807525 
L 332.785912 269.807525 
L 332.785912 265.01703 
L 372.010642 265.01703 
L 372.010642 260.226535 
L 372.323766 260.226535 
L 372.323766 255.43604 
L 372.493262 255.43604 
L 372.493262 250.645545 
L 374.575125 250.645545 
L 374.575125 245.85505 
L 374.972088 245.85505 
L 374.972088 241.064554 
L 406.773528 241.064554 
L 406.773528 236.274059 
L 407.728026 236.274059 
L 407.728026 231.483564 
L 410.92886 231.483564 
L 410.92886 226.693069 
L 411.163083 226.693069 
L 411.163083 221.902574 
L 411.349077 221.902574 
L 411.349077 217.112079 
L 411.6049 217.112079 
L 411.6049 212.321584 
L 411.678433 212.321584 
L 411.678433 207.531089 
L 411.679501 207.531089 
L 411.679501 202.740594 
L 411.719632 202.740594 
L 411.719632 197.950099 
L 411.985892 197.950099 
L 411.985892 193.159604 
L 412.158508 193.159604 
L 412.158508 188.369109 
L 412.283709 188.369109 
L 412.283709 183.578614 
L 412.721439 183.578614 
L 412.721439 178.788119 
L 412.795087 178.788119 
L 412.795087 173.997624 
L 412.953794 173.997624 
L 412.953794 169.207129 
L 413.028476 169.207129 
L 413.028476 164.416634 
L 413.167959 164.416634 
L 413.167959 159.626139 
L 413.199051 159.626139 
L 413.199051 154.835644 
L 413.206049 154.835644 
L 413.206049 150.045149 
L 413.258289 150.045149 
L 413.258289 145.254653 
L 413.509509 145.254653 
L 413.509509 140.464158 
L 413.611526 140.464158 
L 413.611526 135.673663 
L 413.98378 135.673663 
L 413.98378 130.883168 
L 414.145828 130.883168 
L 414.145828 126.092673 
L 414.257319 126.092673 
L 414.257319 121.302178 
L 414.304437 121.302178 
L 414.304437 116.511683 
L 414.308043 116.511683 
L 414.308043 111.721188 
L 414.48778 111.721188 
L 414.48778 106.930693 
L 414.689374 106.930693 
L 414.689374 102.140198 
L 414.896505 102.140198 
L 414.896505 97.349703 
L 414.979185 97.349703 
L 414.979185 92.559208 
L 415.007168 92.559208 
L 415.007168 87.768713 
L 415.248959 87.768713 
L 415.248959 82.978218 
L 415.646748 82.978218 
L 415.646748 78.187723 
L 415.678158 78.187723 
L 415.678158 73.397228 
L 416.00287 73.397228 
L 416.00287 68.606733 
L 416.311685 68.606733 
L 416.311685 63.816238 
L 416.735678 63.816238 
L 416.735678 59.025743 
L 418.067412 59.025743 
L 418.067412 54.235248 
L 418.83604 54.235248 
L 418.83604 49.444752 
L 421.996779 49.444752 
L 421.996779 44.654257 
L 423.27958 44.654257 
L 423.27958 39.863762 
L 423.561135 39.863762 
L 423.561135 35.073267 
L 424.794527 35.073267 
L 424.794527 30.282772 
L 425.117927 30.282772 
L 425.117927 25.492277 
L 431.67356 25.492277 
L 431.67356 20.701782 
L 435.075588 20.701782 
L 435.075588 15.911287 
L 437.448343 15.911287 
L 437.448343 11.120792 
L 453.092552 11.120792 
L 453.092552 6.330297 
L 453.092552 6.330297 
L 453.092552 6.330297 
L 460.8 6.330297 
" style="fill:none;stroke:#f5deb3;stroke-linecap:square;stroke-width:1.5;"/>
   </g>
   <g id="line2d_20"/>
   <g id="matplotlib.axis_1">
    <g id="xtick_1">
     <g id="line2d_21">
      <path clip-path="url(#p50a4682834)" d="M 62.208 293.76 
L 62.208 3.456 
" style="fill:none;stroke:#b0b0b0;stroke-linecap:square;stroke-width:0.8;"/>
     </g>
     <g id="line2d_22">
      <defs>
       <path d="M 0 0 
L 0 3.5 
" id="m3ccf59fdfc" style="stroke:#000000;stroke-width:0.8;"/>
      </defs>
      <g>
       <use style="stroke:#000000;stroke-width:0.8;" x="62.208" xlink:href="#m3ccf59fdfc" y="293.76"/>
      </g>
     </g>
     <g id="text_1">
      <!-- 0 -->
      <g transform="translate(55.8455 315.956875)scale(0.2 -0.2)">
       <defs>
        <path d="M 2034 4250 
Q 1547 4250 1301 3770 
Q 1056 3291 1056 2328 
Q 1056 1369 1301 889 
Q 1547 409 2034 409 
Q 2525 409 2770 889 
Q 3016 1369 3016 2328 
Q 3016 3291 2770 3770 
Q 2525 4250 2034 4250 
z
M 2034 4750 
Q 2819 4750 3233 4129 
Q 3647 3509 3647 2328 
Q 3647 1150 3233 529 
Q 2819 -91 2034 -91 
Q 1250 -91 836 529 
Q 422 1150 422 2328 
Q 422 3509 836 4129 
Q 1250 4750 2034 4750 
z
" id="DejaVuSans-30" transform="scale(0.015625)"/>
       </defs>
       <use xlink:href="#DejaVuSans-30"/>
      </g>
     </g>
    </g>
    <g id="xtick_2">
     <g id="line2d_23">
      <path clip-path="url(#p50a4682834)" d="M 251.96479 293.76 
L 251.96479 3.456 
" style="fill:none;stroke:#b0b0b0;stroke-linecap:square;stroke-width:0.8;"/>
     </g>
     <g id="line2d_24">
      <g>
       <use style="stroke:#000000;stroke-width:0.8;" x="251.96479" xlink:href="#m3ccf59fdfc" y="293.76"/>
      </g>
     </g>
     <g id="text_2">
      <!-- 2 -->
      <g transform="translate(245.60229 315.956875)scale(0.2 -0.2)">
       <defs>
        <path d="M 1228 531 
L 3431 531 
L 3431 0 
L 469 0 
L 469 531 
Q 828 903 1448 1529 
Q 2069 2156 2228 2338 
Q 2531 2678 2651 2914 
Q 2772 3150 2772 3378 
Q 2772 3750 2511 3984 
Q 2250 4219 1831 4219 
Q 1534 4219 1204 4116 
Q 875 4013 500 3803 
L 500 4441 
Q 881 4594 1212 4672 
Q 1544 4750 1819 4750 
Q 2544 4750 2975 4387 
Q 3406 4025 3406 3419 
Q 3406 3131 3298 2873 
Q 3191 2616 2906 2266 
Q 2828 2175 2409 1742 
Q 1991 1309 1228 531 
z
" id="DejaVuSans-32" transform="scale(0.015625)"/>
       </defs>
       <use xlink:href="#DejaVuSans-32"/>
      </g>
     </g>
    </g>
    <g id="xtick_3">
     <g id="line2d_25">
      <path clip-path="url(#p50a4682834)" d="M 441.72158 293.76 
L 441.72158 3.456 
" style="fill:none;stroke:#b0b0b0;stroke-linecap:square;stroke-width:0.8;"/>
     </g>
     <g id="line2d_26">
      <g>
       <use style="stroke:#000000;stroke-width:0.8;" x="441.72158" xlink:href="#m3ccf59fdfc" y="293.76"/>
      </g>
     </g>
     <g id="text_3">
      <!-- 4 -->
      <g transform="translate(435.35908 315.956875)scale(0.2 -0.2)">
       <defs>
        <path d="M 2419 4116 
L 825 1625 
L 2419 1625 
L 2419 4116 
z
M 2253 4666 
L 3047 4666 
L 3047 1625 
L 3713 1625 
L 3713 1100 
L 3047 1100 
L 3047 0 
L 2419 0 
L 2419 1100 
L 313 1100 
L 313 1709 
L 2253 4666 
z
" id="DejaVuSans-34" transform="scale(0.015625)"/>
       </defs>
       <use xlink:href="#DejaVuSans-34"/>
      </g>
     </g>
    </g>
    <g id="xtick_4">
     <g id="line2d_27">
      <path clip-path="url(#p50a4682834)" d="M 90.769243 293.76 
L 90.769243 3.456 
" style="fill:none;stroke:#b0b0b0;stroke-linecap:square;stroke-width:0.8;"/>
     </g>
     <g id="line2d_28">
      <defs>
       <path d="M 0 0 
L 0 2 
" id="m3993fe1f9d" style="stroke:#000000;stroke-width:0.6;"/>
      </defs>
      <g>
       <use style="stroke:#000000;stroke-width:0.6;" x="90.769243" xlink:href="#m3993fe1f9d" y="293.76"/>
      </g>
     </g>
    </g>
    <g id="xtick_5">
     <g id="line2d_29">
      <path clip-path="url(#p50a4682834)" d="M 107.476499 293.76 
L 107.476499 3.456 
" style="fill:none;stroke:#b0b0b0;stroke-linecap:square;stroke-width:0.8;"/>
     </g>
     <g id="line2d_30">
      <g>
       <use style="stroke:#000000;stroke-width:0.6;" x="107.476499" xlink:href="#m3993fe1f9d" y="293.76"/>
      </g>
     </g>
    </g>
    <g id="xtick_6">
     <g id="line2d_31">
      <path clip-path="url(#p50a4682834)" d="M 119.330486 293.76 
L 119.330486 3.456 
" style="fill:none;stroke:#b0b0b0;stroke-linecap:square;stroke-width:0.8;"/>
     </g>
     <g id="line2d_32">
      <g>
       <use style="stroke:#000000;stroke-width:0.6;" x="119.330486" xlink:href="#m3993fe1f9d" y="293.76"/>
      </g>
     </g>
    </g>
    <g id="xtick_7">
     <g id="line2d_33">
      <path clip-path="url(#p50a4682834)" d="M 128.525152 293.76 
L 128.525152 3.456 
" style="fill:none;stroke:#b0b0b0;stroke-linecap:square;stroke-width:0.8;"/>
     </g>
     <g id="line2d_34">
      <g>
       <use style="stroke:#000000;stroke-width:0.6;" x="128.525152" xlink:href="#m3993fe1f9d" y="293.76"/>
      </g>
     </g>
    </g>
    <g id="xtick_8">
     <g id="line2d_35">
      <path clip-path="url(#p50a4682834)" d="M 136.037742 293.76 
L 136.037742 3.456 
" style="fill:none;stroke:#b0b0b0;stroke-linecap:square;stroke-width:0.8;"/>
     </g>
     <g id="line2d_36">
      <g>
       <use style="stroke:#000000;stroke-width:0.6;" x="136.037742" xlink:href="#m3993fe1f9d" y="293.76"/>
      </g>
     </g>
    </g>
    <g id="xtick_9">
     <g id="line2d_37">
      <path clip-path="url(#p50a4682834)" d="M 142.389546 293.76 
L 142.389546 3.456 
" style="fill:none;stroke:#b0b0b0;stroke-linecap:square;stroke-width:0.8;"/>
     </g>
     <g id="line2d_38">
      <g>
       <use style="stroke:#000000;stroke-width:0.6;" x="142.389546" xlink:href="#m3993fe1f9d" y="293.76"/>
      </g>
     </g>
    </g>
    <g id="xtick_10">
     <g id="line2d_39">
      <path clip-path="url(#p50a4682834)" d="M 147.891728 293.76 
L 147.891728 3.456 
" style="fill:none;stroke:#b0b0b0;stroke-linecap:square;stroke-width:0.8;"/>
     </g>
     <g id="line2d_40">
      <g>
       <use style="stroke:#000000;stroke-width:0.6;" x="147.891728" xlink:href="#m3993fe1f9d" y="293.76"/>
      </g>
     </g>
    </g>
    <g id="xtick_11">
     <g id="line2d_41">
      <path clip-path="url(#p50a4682834)" d="M 152.744998 293.76 
L 152.744998 3.456 
" style="fill:none;stroke:#b0b0b0;stroke-linecap:square;stroke-width:0.8;"/>
     </g>
     <g id="line2d_42">
      <g>
       <use style="stroke:#000000;stroke-width:0.6;" x="152.744998" xlink:href="#m3993fe1f9d" y="293.76"/>
      </g>
     </g>
    </g>
    <g id="xtick_12">
     <g id="line2d_43">
      <path clip-path="url(#p50a4682834)" d="M 185.647638 293.76 
L 185.647638 3.456 
" style="fill:none;stroke:#b0b0b0;stroke-linecap:square;stroke-width:0.8;"/>
     </g>
     <g id="line2d_44">
      <g>
       <use style="stroke:#000000;stroke-width:0.6;" x="185.647638" xlink:href="#m3993fe1f9d" y="293.76"/>
      </g>
     </g>
    </g>
    <g id="xtick_13">
     <g id="line2d_45">
      <path clip-path="url(#p50a4682834)" d="M 202.354894 293.76 
L 202.354894 3.456 
" style="fill:none;stroke:#b0b0b0;stroke-linecap:square;stroke-width:0.8;"/>
     </g>
     <g id="line2d_46">
      <g>
       <use style="stroke:#000000;stroke-width:0.6;" x="202.354894" xlink:href="#m3993fe1f9d" y="293.76"/>
      </g>
     </g>
    </g>
    <g id="xtick_14">
     <g id="line2d_47">
      <path clip-path="url(#p50a4682834)" d="M 214.20888 293.76 
L 214.20888 3.456 
" style="fill:none;stroke:#b0b0b0;stroke-linecap:square;stroke-width:0.8;"/>
     </g>
     <g id="line2d_48">
      <g>
       <use style="stroke:#000000;stroke-width:0.6;" x="214.20888" xlink:href="#m3993fe1f9d" y="293.76"/>
      </g>
     </g>
    </g>
    <g id="xtick_15">
     <g id="line2d_49">
      <path clip-path="url(#p50a4682834)" d="M 223.403547 293.76 
L 223.403547 3.456 
" style="fill:none;stroke:#b0b0b0;stroke-linecap:square;stroke-width:0.8;"/>
     </g>
     <g id="line2d_50">
      <g>
       <use style="stroke:#000000;stroke-width:0.6;" x="223.403547" xlink:href="#m3993fe1f9d" y="293.76"/>
      </g>
     </g>
    </g>
    <g id="xtick_16">
     <g id="line2d_51">
      <path clip-path="url(#p50a4682834)" d="M 230.916137 293.76 
L 230.916137 3.456 
" style="fill:none;stroke:#b0b0b0;stroke-linecap:square;stroke-width:0.8;"/>
     </g>
     <g id="line2d_52">
      <g>
       <use style="stroke:#000000;stroke-width:0.6;" x="230.916137" xlink:href="#m3993fe1f9d" y="293.76"/>
      </g>
     </g>
    </g>
    <g id="xtick_17">
     <g id="line2d_53">
      <path clip-path="url(#p50a4682834)" d="M 237.26794 293.76 
L 237.26794 3.456 
" style="fill:none;stroke:#b0b0b0;stroke-linecap:square;stroke-width:0.8;"/>
     </g>
     <g id="line2d_54">
      <g>
       <use style="stroke:#000000;stroke-width:0.6;" x="237.26794" xlink:href="#m3993fe1f9d" y="293.76"/>
      </g>
     </g>
    </g>
    <g id="xtick_18">
     <g id="line2d_55">
      <path clip-path="url(#p50a4682834)" d="M 242.770123 293.76 
L 242.770123 3.456 
" style="fill:none;stroke:#b0b0b0;stroke-linecap:square;stroke-width:0.8;"/>
     </g>
     <g id="line2d_56">
      <g>
       <use style="stroke:#000000;stroke-width:0.6;" x="242.770123" xlink:href="#m3993fe1f9d" y="293.76"/>
      </g>
     </g>
    </g>
    <g id="xtick_19">
     <g id="line2d_57">
      <path clip-path="url(#p50a4682834)" d="M 247.623393 293.76 
L 247.623393 3.456 
" style="fill:none;stroke:#b0b0b0;stroke-linecap:square;stroke-width:0.8;"/>
     </g>
     <g id="line2d_58">
      <g>
       <use style="stroke:#000000;stroke-width:0.6;" x="247.623393" xlink:href="#m3993fe1f9d" y="293.76"/>
      </g>
     </g>
    </g>
    <g id="xtick_20">
     <g id="line2d_59">
      <path clip-path="url(#p50a4682834)" d="M 280.526033 293.76 
L 280.526033 3.456 
" style="fill:none;stroke:#b0b0b0;stroke-linecap:square;stroke-width:0.8;"/>
     </g>
     <g id="line2d_60">
      <g>
       <use style="stroke:#000000;stroke-width:0.6;" x="280.526033" xlink:href="#m3993fe1f9d" y="293.76"/>
      </g>
     </g>
    </g>
    <g id="xtick_21">
     <g id="line2d_61">
      <path clip-path="url(#p50a4682834)" d="M 297.233289 293.76 
L 297.233289 3.456 
" style="fill:none;stroke:#b0b0b0;stroke-linecap:square;stroke-width:0.8;"/>
     </g>
     <g id="line2d_62">
      <g>
       <use style="stroke:#000000;stroke-width:0.6;" x="297.233289" xlink:href="#m3993fe1f9d" y="293.76"/>
      </g>
     </g>
    </g>
    <g id="xtick_22">
     <g id="line2d_63">
      <path clip-path="url(#p50a4682834)" d="M 309.087275 293.76 
L 309.087275 3.456 
" style="fill:none;stroke:#b0b0b0;stroke-linecap:square;stroke-width:0.8;"/>
     </g>
     <g id="line2d_64">
      <g>
       <use style="stroke:#000000;stroke-width:0.6;" x="309.087275" xlink:href="#m3993fe1f9d" y="293.76"/>
      </g>
     </g>
    </g>
    <g id="xtick_23">
     <g id="line2d_65">
      <path clip-path="url(#p50a4682834)" d="M 318.281942 293.76 
L 318.281942 3.456 
" style="fill:none;stroke:#b0b0b0;stroke-linecap:square;stroke-width:0.8;"/>
     </g>
     <g id="line2d_66">
      <g>
       <use style="stroke:#000000;stroke-width:0.6;" x="318.281942" xlink:href="#m3993fe1f9d" y="293.76"/>
      </g>
     </g>
    </g>
    <g id="xtick_24">
     <g id="line2d_67">
      <path clip-path="url(#p50a4682834)" d="M 325.794531 293.76 
L 325.794531 3.456 
" style="fill:none;stroke:#b0b0b0;stroke-linecap:square;stroke-width:0.8;"/>
     </g>
     <g id="line2d_68">
      <g>
       <use style="stroke:#000000;stroke-width:0.6;" x="325.794531" xlink:href="#m3993fe1f9d" y="293.76"/>
      </g>
     </g>
    </g>
    <g id="xtick_25">
     <g id="line2d_69">
      <path clip-path="url(#p50a4682834)" d="M 332.146335 293.76 
L 332.146335 3.456 
" style="fill:none;stroke:#b0b0b0;stroke-linecap:square;stroke-width:0.8;"/>
     </g>
     <g id="line2d_70">
      <g>
       <use style="stroke:#000000;stroke-width:0.6;" x="332.146335" xlink:href="#m3993fe1f9d" y="293.76"/>
      </g>
     </g>
    </g>
    <g id="xtick_26">
     <g id="line2d_71">
      <path clip-path="url(#p50a4682834)" d="M 337.648518 293.76 
L 337.648518 3.456 
" style="fill:none;stroke:#b0b0b0;stroke-linecap:square;stroke-width:0.8;"/>
     </g>
     <g id="line2d_72">
      <g>
       <use style="stroke:#000000;stroke-width:0.6;" x="337.648518" xlink:href="#m3993fe1f9d" y="293.76"/>
      </g>
     </g>
    </g>
    <g id="xtick_27">
     <g id="line2d_73">
      <path clip-path="url(#p50a4682834)" d="M 342.501787 293.76 
L 342.501787 3.456 
" style="fill:none;stroke:#b0b0b0;stroke-linecap:square;stroke-width:0.8;"/>
     </g>
     <g id="line2d_74">
      <g>
       <use style="stroke:#000000;stroke-width:0.6;" x="342.501787" xlink:href="#m3993fe1f9d" y="293.76"/>
      </g>
     </g>
    </g>
    <g id="xtick_28">
     <g id="line2d_75">
      <path clip-path="url(#p50a4682834)" d="M 375.404427 293.76 
L 375.404427 3.456 
" style="fill:none;stroke:#b0b0b0;stroke-linecap:square;stroke-width:0.8;"/>
     </g>
     <g id="line2d_76">
      <g>
       <use style="stroke:#000000;stroke-width:0.6;" x="375.404427" xlink:href="#m3993fe1f9d" y="293.76"/>
      </g>
     </g>
    </g>
    <g id="xtick_29">
     <g id="line2d_77">
      <path clip-path="url(#p50a4682834)" d="M 392.111683 293.76 
L 392.111683 3.456 
" style="fill:none;stroke:#b0b0b0;stroke-linecap:square;stroke-width:0.8;"/>
     </g>
     <g id="line2d_78">
      <g>
       <use style="stroke:#000000;stroke-width:0.6;" x="392.111683" xlink:href="#m3993fe1f9d" y="293.76"/>
      </g>
     </g>
    </g>
    <g id="xtick_30">
     <g id="line2d_79">
      <path clip-path="url(#p50a4682834)" d="M 403.96567 293.76 
L 403.96567 3.456 
" style="fill:none;stroke:#b0b0b0;stroke-linecap:square;stroke-width:0.8;"/>
     </g>
     <g id="line2d_80">
      <g>
       <use style="stroke:#000000;stroke-width:0.6;" x="403.96567" xlink:href="#m3993fe1f9d" y="293.76"/>
      </g>
     </g>
    </g>
    <g id="xtick_31">
     <g id="line2d_81">
      <path clip-path="url(#p50a4682834)" d="M 413.160337 293.76 
L 413.160337 3.456 
" style="fill:none;stroke:#b0b0b0;stroke-linecap:square;stroke-width:0.8;"/>
     </g>
     <g id="line2d_82">
      <g>
       <use style="stroke:#000000;stroke-width:0.6;" x="413.160337" xlink:href="#m3993fe1f9d" y="293.76"/>
      </g>
     </g>
    </g>
    <g id="xtick_32">
     <g id="line2d_83">
      <path clip-path="url(#p50a4682834)" d="M 420.672926 293.76 
L 420.672926 3.456 
" style="fill:none;stroke:#b0b0b0;stroke-linecap:square;stroke-width:0.8;"/>
     </g>
     <g id="line2d_84">
      <g>
       <use style="stroke:#000000;stroke-width:0.6;" x="420.672926" xlink:href="#m3993fe1f9d" y="293.76"/>
      </g>
     </g>
    </g>
    <g id="xtick_33">
     <g id="line2d_85">
      <path clip-path="url(#p50a4682834)" d="M 427.02473 293.76 
L 427.02473 3.456 
" style="fill:none;stroke:#b0b0b0;stroke-linecap:square;stroke-width:0.8;"/>
     </g>
     <g id="line2d_86">
      <g>
       <use style="stroke:#000000;stroke-width:0.6;" x="427.02473" xlink:href="#m3993fe1f9d" y="293.76"/>
      </g>
     </g>
    </g>
    <g id="xtick_34">
     <g id="line2d_87">
      <path clip-path="url(#p50a4682834)" d="M 432.526913 293.76 
L 432.526913 3.456 
" style="fill:none;stroke:#b0b0b0;stroke-linecap:square;stroke-width:0.8;"/>
     </g>
     <g id="line2d_88">
      <g>
       <use style="stroke:#000000;stroke-width:0.6;" x="432.526913" xlink:href="#m3993fe1f9d" y="293.76"/>
      </g>
     </g>
    </g>
    <g id="xtick_35">
     <g id="line2d_89">
      <path clip-path="url(#p50a4682834)" d="M 437.380182 293.76 
L 437.380182 3.456 
" style="fill:none;stroke:#b0b0b0;stroke-linecap:square;stroke-width:0.8;"/>
     </g>
     <g id="line2d_90">
      <g>
       <use style="stroke:#000000;stroke-width:0.6;" x="437.380182" xlink:href="#m3993fe1f9d" y="293.76"/>
      </g>
     </g>
    </g>
    <g id="text_4">
     <!-- log10 of FEvals / DIM -->
     <g transform="translate(156.430563 339.313125)scale(0.2 -0.2)">
      <defs>
       <path d="M 603 4863 
L 1178 4863 
L 1178 0 
L 603 0 
L 603 4863 
z
" id="DejaVuSans-6c" transform="scale(0.015625)"/>
       <path d="M 1959 3097 
Q 1497 3097 1228 2736 
Q 959 2375 959 1747 
Q 959 1119 1226 758 
Q 1494 397 1959 397 
Q 2419 397 2687 759 
Q 2956 1122 2956 1747 
Q 2956 2369 2687 2733 
Q 2419 3097 1959 3097 
z
M 1959 3584 
Q 2709 3584 3137 3096 
Q 3566 2609 3566 1747 
Q 3566 888 3137 398 
Q 2709 -91 1959 -91 
Q 1206 -91 779 398 
Q 353 888 353 1747 
Q 353 2609 779 3096 
Q 1206 3584 1959 3584 
z
" id="DejaVuSans-6f" transform="scale(0.015625)"/>
       <path d="M 2906 1791 
Q 2906 2416 2648 2759 
Q 2391 3103 1925 3103 
Q 1463 3103 1205 2759 
Q 947 2416 947 1791 
Q 947 1169 1205 825 
Q 1463 481 1925 481 
Q 2391 481 2648 825 
Q 2906 1169 2906 1791 
z
M 3481 434 
Q 3481 -459 3084 -895 
Q 2688 -1331 1869 -1331 
Q 1566 -1331 1297 -1286 
Q 1028 -1241 775 -1147 
L 775 -588 
Q 1028 -725 1275 -790 
Q 1522 -856 1778 -856 
Q 2344 -856 2625 -561 
Q 2906 -266 2906 331 
L 2906 616 
Q 2728 306 2450 153 
Q 2172 0 1784 0 
Q 1141 0 747 490 
Q 353 981 353 1791 
Q 353 2603 747 3093 
Q 1141 3584 1784 3584 
Q 2172 3584 2450 3431 
Q 2728 3278 2906 2969 
L 2906 3500 
L 3481 3500 
L 3481 434 
z
" id="DejaVuSans-67" transform="scale(0.015625)"/>
       <path d="M 794 531 
L 1825 531 
L 1825 4091 
L 703 3866 
L 703 4441 
L 1819 4666 
L 2450 4666 
L 2450 531 
L 3481 531 
L 3481 0 
L 794 0 
L 794 531 
z
" id="DejaVuSans-31" transform="scale(0.015625)"/>
       <path id="DejaVuSans-20" transform="scale(0.015625)"/>
       <path d="M 2375 4863 
L 2375 4384 
L 1825 4384 
Q 1516 4384 1395 4259 
Q 1275 4134 1275 3809 
L 1275 3500 
L 2222 3500 
L 2222 3053 
L 1275 3053 
L 1275 0 
L 697 0 
L 697 3053 
L 147 3053 
L 147 3500 
L 697 3500 
L 697 3744 
Q 697 4328 969 4595 
Q 1241 4863 1831 4863 
L 2375 4863 
z
" id="DejaVuSans-66" transform="scale(0.015625)"/>
       <path d="M 628 4666 
L 3309 4666 
L 3309 4134 
L 1259 4134 
L 1259 2759 
L 3109 2759 
L 3109 2228 
L 1259 2228 
L 1259 0 
L 628 0 
L 628 4666 
z
" id="DejaVuSans-46" transform="scale(0.015625)"/>
       <path d="M 628 4666 
L 3578 4666 
L 3578 4134 
L 1259 4134 
L 1259 2753 
L 3481 2753 
L 3481 2222 
L 1259 2222 
L 1259 531 
L 3634 531 
L 3634 0 
L 628 0 
L 628 4666 
z
" id="DejaVuSans-45" transform="scale(0.015625)"/>
       <path d="M 191 3500 
L 800 3500 
L 1894 563 
L 2988 3500 
L 3597 3500 
L 2284 0 
L 1503 0 
L 191 3500 
z
" id="DejaVuSans-76" transform="scale(0.015625)"/>
       <path d="M 2194 1759 
Q 1497 1759 1228 1600 
Q 959 1441 959 1056 
Q 959 750 1161 570 
Q 1363 391 1709 391 
Q 2188 391 2477 730 
Q 2766 1069 2766 1631 
L 2766 1759 
L 2194 1759 
z
M 3341 1997 
L 3341 0 
L 2766 0 
L 2766 531 
Q 2569 213 2275 61 
Q 1981 -91 1556 -91 
Q 1019 -91 701 211 
Q 384 513 384 1019 
Q 384 1609 779 1909 
Q 1175 2209 1959 2209 
L 2766 2209 
L 2766 2266 
Q 2766 2663 2505 2880 
Q 2244 3097 1772 3097 
Q 1472 3097 1187 3025 
Q 903 2953 641 2809 
L 641 3341 
Q 956 3463 1253 3523 
Q 1550 3584 1831 3584 
Q 2591 3584 2966 3190 
Q 3341 2797 3341 1997 
z
" id="DejaVuSans-61" transform="scale(0.015625)"/>
       <path d="M 2834 3397 
L 2834 2853 
Q 2591 2978 2328 3040 
Q 2066 3103 1784 3103 
Q 1356 3103 1142 2972 
Q 928 2841 928 2578 
Q 928 2378 1081 2264 
Q 1234 2150 1697 2047 
L 1894 2003 
Q 2506 1872 2764 1633 
Q 3022 1394 3022 966 
Q 3022 478 2636 193 
Q 2250 -91 1575 -91 
Q 1294 -91 989 -36 
Q 684 19 347 128 
L 347 722 
Q 666 556 975 473 
Q 1284 391 1588 391 
Q 1994 391 2212 530 
Q 2431 669 2431 922 
Q 2431 1156 2273 1281 
Q 2116 1406 1581 1522 
L 1381 1569 
Q 847 1681 609 1914 
Q 372 2147 372 2553 
Q 372 3047 722 3315 
Q 1072 3584 1716 3584 
Q 2034 3584 2315 3537 
Q 2597 3491 2834 3397 
z
" id="DejaVuSans-73" transform="scale(0.015625)"/>
       <path d="M 1625 4666 
L 2156 4666 
L 531 -594 
L 0 -594 
L 1625 4666 
z
" id="DejaVuSans-2f" transform="scale(0.015625)"/>
       <path d="M 1259 4147 
L 1259 519 
L 2022 519 
Q 2988 519 3436 956 
Q 3884 1394 3884 2338 
Q 3884 3275 3436 3711 
Q 2988 4147 2022 4147 
L 1259 4147 
z
M 628 4666 
L 1925 4666 
Q 3281 4666 3915 4102 
Q 4550 3538 4550 2338 
Q 4550 1131 3912 565 
Q 3275 0 1925 0 
L 628 0 
L 628 4666 
z
" id="DejaVuSans-44" transform="scale(0.015625)"/>
       <path d="M 628 4666 
L 1259 4666 
L 1259 0 
L 628 0 
L 628 4666 
z
" id="DejaVuSans-49" transform="scale(0.015625)"/>
       <path d="M 628 4666 
L 1569 4666 
L 2759 1491 
L 3956 4666 
L 4897 4666 
L 4897 0 
L 4281 0 
L 4281 4097 
L 3078 897 
L 2444 897 
L 1241 4097 
L 1241 0 
L 628 0 
L 628 4666 
z
" id="DejaVuSans-4d" transform="scale(0.015625)"/>
      </defs>
      <use xlink:href="#DejaVuSans-6c"/>
      <use x="27.783203" xlink:href="#DejaVuSans-6f"/>
      <use x="88.964844" xlink:href="#DejaVuSans-67"/>
      <use x="152.441406" xlink:href="#DejaVuSans-31"/>
      <use x="216.064453" xlink:href="#DejaVuSans-30"/>
      <use x="279.6875" xlink:href="#DejaVuSans-20"/>
      <use x="311.474609" xlink:href="#DejaVuSans-6f"/>
      <use x="372.65625" xlink:href="#DejaVuSans-66"/>
      <use x="407.861328" xlink:href="#DejaVuSans-20"/>
      <use x="439.648438" xlink:href="#DejaVuSans-46"/>
      <use x="497.167969" xlink:href="#DejaVuSans-45"/>
      <use x="560.351562" xlink:href="#DejaVuSans-76"/>
      <use x="619.53125" xlink:href="#DejaVuSans-61"/>
      <use x="680.810547" xlink:href="#DejaVuSans-6c"/>
      <use x="708.59375" xlink:href="#DejaVuSans-73"/>
      <use x="760.693359" xlink:href="#DejaVuSans-20"/>
      <use x="792.480469" xlink:href="#DejaVuSans-2f"/>
      <use x="826.171875" xlink:href="#DejaVuSans-20"/>
      <use x="857.958984" xlink:href="#DejaVuSans-44"/>
      <use x="934.960938" xlink:href="#DejaVuSans-49"/>
      <use x="964.453125" xlink:href="#DejaVuSans-4d"/>
     </g>
    </g>
   </g>
   <g id="matplotlib.axis_2">
    <g id="ytick_1">
     <g id="line2d_91">
      <path clip-path="url(#p50a4682834)" d="M 62.208 293.76 
L 460.8 293.76 
" style="fill:none;stroke:#b0b0b0;stroke-linecap:square;stroke-width:0.8;"/>
     </g>
     <g id="line2d_92">
      <defs>
       <path d="M 0 0 
L -3.5 0 
" id="m687f2fe340" style="stroke:#000000;stroke-width:0.8;"/>
      </defs>
      <g>
       <use style="stroke:#000000;stroke-width:0.8;" x="62.208" xlink:href="#m687f2fe340" y="293.76"/>
      </g>
     </g>
     <g id="text_5">
      <!-- 0.0 -->
      <g transform="translate(29.763 299.83875)scale(0.16 -0.16)">
       <defs>
        <path d="M 684 794 
L 1344 794 
L 1344 0 
L 684 0 
L 684 794 
z
" id="DejaVuSans-2e" transform="scale(0.015625)"/>
       </defs>
       <use xlink:href="#DejaVuSans-30"/>
       <use x="63.623047" xlink:href="#DejaVuSans-2e"/>
       <use x="95.410156" xlink:href="#DejaVuSans-30"/>
      </g>
     </g>
    </g>
    <g id="ytick_2">
     <g id="line2d_93">
      <path clip-path="url(#p50a4682834)" d="M 62.208 236.274059 
L 460.8 236.274059 
" style="fill:none;stroke:#b0b0b0;stroke-linecap:square;stroke-width:0.8;"/>
     </g>
     <g id="line2d_94">
      <g>
       <use style="stroke:#000000;stroke-width:0.8;" x="62.208" xlink:href="#m687f2fe340" y="236.274059"/>
      </g>
     </g>
     <g id="text_6">
      <!-- 0.2 -->
      <g transform="translate(29.763 242.352809)scale(0.16 -0.16)">
       <use xlink:href="#DejaVuSans-30"/>
       <use x="63.623047" xlink:href="#DejaVuSans-2e"/>
       <use x="95.410156" xlink:href="#DejaVuSans-32"/>
      </g>
     </g>
    </g>
    <g id="ytick_3">
     <g id="line2d_95">
      <path clip-path="url(#p50a4682834)" d="M 62.208 178.788119 
L 460.8 178.788119 
" style="fill:none;stroke:#b0b0b0;stroke-linecap:square;stroke-width:0.8;"/>
     </g>
     <g id="line2d_96">
      <g>
       <use style="stroke:#000000;stroke-width:0.8;" x="62.208" xlink:href="#m687f2fe340" y="178.788119"/>
      </g>
     </g>
     <g id="text_7">
      <!-- 0.4 -->
      <g transform="translate(29.763 184.866869)scale(0.16 -0.16)">
       <use xlink:href="#DejaVuSans-30"/>
       <use x="63.623047" xlink:href="#DejaVuSans-2e"/>
       <use x="95.410156" xlink:href="#DejaVuSans-34"/>
      </g>
     </g>
    </g>
    <g id="ytick_4">
     <g id="line2d_97">
      <path clip-path="url(#p50a4682834)" d="M 62.208 121.302178 
L 460.8 121.302178 
" style="fill:none;stroke:#b0b0b0;stroke-linecap:square;stroke-width:0.8;"/>
     </g>
     <g id="line2d_98">
      <g>
       <use style="stroke:#000000;stroke-width:0.8;" x="62.208" xlink:href="#m687f2fe340" y="121.302178"/>
      </g>
     </g>
     <g id="text_8">
      <!-- 0.6 -->
      <g transform="translate(29.763 127.380928)scale(0.16 -0.16)">
       <defs>
        <path d="M 2113 2584 
Q 1688 2584 1439 2293 
Q 1191 2003 1191 1497 
Q 1191 994 1439 701 
Q 1688 409 2113 409 
Q 2538 409 2786 701 
Q 3034 994 3034 1497 
Q 3034 2003 2786 2293 
Q 2538 2584 2113 2584 
z
M 3366 4563 
L 3366 3988 
Q 3128 4100 2886 4159 
Q 2644 4219 2406 4219 
Q 1781 4219 1451 3797 
Q 1122 3375 1075 2522 
Q 1259 2794 1537 2939 
Q 1816 3084 2150 3084 
Q 2853 3084 3261 2657 
Q 3669 2231 3669 1497 
Q 3669 778 3244 343 
Q 2819 -91 2113 -91 
Q 1303 -91 875 529 
Q 447 1150 447 2328 
Q 447 3434 972 4092 
Q 1497 4750 2381 4750 
Q 2619 4750 2861 4703 
Q 3103 4656 3366 4563 
z
" id="DejaVuSans-36" transform="scale(0.015625)"/>
       </defs>
       <use xlink:href="#DejaVuSans-30"/>
       <use x="63.623047" xlink:href="#DejaVuSans-2e"/>
       <use x="95.410156" xlink:href="#DejaVuSans-36"/>
      </g>
     </g>
    </g>
    <g id="ytick_5">
     <g id="line2d_99">
      <path clip-path="url(#p50a4682834)" d="M 62.208 63.816238 
L 460.8 63.816238 
" style="fill:none;stroke:#b0b0b0;stroke-linecap:square;stroke-width:0.8;"/>
     </g>
     <g id="line2d_100">
      <g>
       <use style="stroke:#000000;stroke-width:0.8;" x="62.208" xlink:href="#m687f2fe340" y="63.816238"/>
      </g>
     </g>
     <g id="text_9">
      <!-- 0.8 -->
      <g transform="translate(29.763 69.894988)scale(0.16 -0.16)">
       <defs>
        <path d="M 2034 2216 
Q 1584 2216 1326 1975 
Q 1069 1734 1069 1313 
Q 1069 891 1326 650 
Q 1584 409 2034 409 
Q 2484 409 2743 651 
Q 3003 894 3003 1313 
Q 3003 1734 2745 1975 
Q 2488 2216 2034 2216 
z
M 1403 2484 
Q 997 2584 770 2862 
Q 544 3141 544 3541 
Q 544 4100 942 4425 
Q 1341 4750 2034 4750 
Q 2731 4750 3128 4425 
Q 3525 4100 3525 3541 
Q 3525 3141 3298 2862 
Q 3072 2584 2669 2484 
Q 3125 2378 3379 2068 
Q 3634 1759 3634 1313 
Q 3634 634 3220 271 
Q 2806 -91 2034 -91 
Q 1263 -91 848 271 
Q 434 634 434 1313 
Q 434 1759 690 2068 
Q 947 2378 1403 2484 
z
M 1172 3481 
Q 1172 3119 1398 2916 
Q 1625 2713 2034 2713 
Q 2441 2713 2670 2916 
Q 2900 3119 2900 3481 
Q 2900 3844 2670 4047 
Q 2441 4250 2034 4250 
Q 1625 4250 1398 4047 
Q 1172 3844 1172 3481 
z
" id="DejaVuSans-38" transform="scale(0.015625)"/>
       </defs>
       <use xlink:href="#DejaVuSans-30"/>
       <use x="63.623047" xlink:href="#DejaVuSans-2e"/>
       <use x="95.410156" xlink:href="#DejaVuSans-38"/>
      </g>
     </g>
    </g>
    <g id="ytick_6">
     <g id="line2d_101">
      <path clip-path="url(#p50a4682834)" d="M 62.208 6.330297 
L 460.8 6.330297 
" style="fill:none;stroke:#b0b0b0;stroke-linecap:square;stroke-width:0.8;"/>
     </g>
     <g id="line2d_102">
      <g>
       <use style="stroke:#000000;stroke-width:0.8;" x="62.208" xlink:href="#m687f2fe340" y="6.330297"/>
      </g>
     </g>
     <g id="text_10">
      <!-- 1.0 -->
      <g transform="translate(29.763 12.409047)scale(0.16 -0.16)">
       <use xlink:href="#DejaVuSans-31"/>
       <use x="63.623047" xlink:href="#DejaVuSans-2e"/>
       <use x="95.410156" xlink:href="#DejaVuSans-30"/>
      </g>
     </g>
    </g>
    <g id="text_11">
     <!-- proportion of trials -->
     <g transform="translate(21.603625 241.61425)rotate(-90)scale(0.2 -0.2)">
      <defs>
       <path d="M 1159 525 
L 1159 -1331 
L 581 -1331 
L 581 3500 
L 1159 3500 
L 1159 2969 
Q 1341 3281 1617 3432 
Q 1894 3584 2278 3584 
Q 2916 3584 3314 3078 
Q 3713 2572 3713 1747 
Q 3713 922 3314 415 
Q 2916 -91 2278 -91 
Q 1894 -91 1617 61 
Q 1341 213 1159 525 
z
M 3116 1747 
Q 3116 2381 2855 2742 
Q 2594 3103 2138 3103 
Q 1681 3103 1420 2742 
Q 1159 2381 1159 1747 
Q 1159 1113 1420 752 
Q 1681 391 2138 391 
Q 2594 391 2855 752 
Q 3116 1113 3116 1747 
z
" id="DejaVuSans-70" transform="scale(0.015625)"/>
       <path d="M 2631 2963 
Q 2534 3019 2420 3045 
Q 2306 3072 2169 3072 
Q 1681 3072 1420 2755 
Q 1159 2438 1159 1844 
L 1159 0 
L 581 0 
L 581 3500 
L 1159 3500 
L 1159 2956 
Q 1341 3275 1631 3429 
Q 1922 3584 2338 3584 
Q 2397 3584 2469 3576 
Q 2541 3569 2628 3553 
L 2631 2963 
z
" id="DejaVuSans-72" transform="scale(0.015625)"/>
       <path d="M 1172 4494 
L 1172 3500 
L 2356 3500 
L 2356 3053 
L 1172 3053 
L 1172 1153 
Q 1172 725 1289 603 
Q 1406 481 1766 481 
L 2356 481 
L 2356 0 
L 1766 0 
Q 1100 0 847 248 
Q 594 497 594 1153 
L 594 3053 
L 172 3053 
L 172 3500 
L 594 3500 
L 594 4494 
L 1172 4494 
z
" id="DejaVuSans-74" transform="scale(0.015625)"/>
       <path d="M 603 3500 
L 1178 3500 
L 1178 0 
L 603 0 
L 603 3500 
z
M 603 4863 
L 1178 4863 
L 1178 4134 
L 603 4134 
L 603 4863 
z
" id="DejaVuSans-69" transform="scale(0.015625)"/>
       <path d="M 3513 2113 
L 3513 0 
L 2938 0 
L 2938 2094 
Q 2938 2591 2744 2837 
Q 2550 3084 2163 3084 
Q 1697 3084 1428 2787 
Q 1159 2491 1159 1978 
L 1159 0 
L 581 0 
L 581 3500 
L 1159 3500 
L 1159 2956 
Q 1366 3272 1645 3428 
Q 1925 3584 2291 3584 
Q 2894 3584 3203 3211 
Q 3513 2838 3513 2113 
z
" id="DejaVuSans-6e" transform="scale(0.015625)"/>
      </defs>
      <use xlink:href="#DejaVuSans-70"/>
      <use x="63.476562" xlink:href="#DejaVuSans-72"/>
      <use x="102.339844" xlink:href="#DejaVuSans-6f"/>
      <use x="163.521484" xlink:href="#DejaVuSans-70"/>
      <use x="226.998047" xlink:href="#DejaVuSans-6f"/>
      <use x="288.179688" xlink:href="#DejaVuSans-72"/>
      <use x="329.292969" xlink:href="#DejaVuSans-74"/>
      <use x="368.501953" xlink:href="#DejaVuSans-69"/>
      <use x="396.285156" xlink:href="#DejaVuSans-6f"/>
      <use x="457.466797" xlink:href="#DejaVuSans-6e"/>
      <use x="520.845703" xlink:href="#DejaVuSans-20"/>
      <use x="552.632812" xlink:href="#DejaVuSans-6f"/>
      <use x="613.814453" xlink:href="#DejaVuSans-66"/>
      <use x="649.019531" xlink:href="#DejaVuSans-20"/>
      <use x="680.806641" xlink:href="#DejaVuSans-74"/>
      <use x="720.015625" xlink:href="#DejaVuSans-72"/>
      <use x="761.128906" xlink:href="#DejaVuSans-69"/>
      <use x="788.912109" xlink:href="#DejaVuSans-61"/>
      <use x="850.191406" xlink:href="#DejaVuSans-6c"/>
      <use x="877.974609" xlink:href="#DejaVuSans-73"/>
     </g>
    </g>
   </g>
   <g id="line2d_103">
    <path clip-path="url(#p50a4682834)" d="M 166.691066 293.76 
L 166.691066 287.372673 
L 214.079913 287.372673 
L 214.079913 280.985347 
L 215.376819 280.985347 
L 215.376819 274.59802 
L 230.95046 274.59802 
L 230.95046 268.210693 
L 231.036143 268.210693 
L 231.036143 261.823366 
L 235.16988 261.823366 
L 235.16988 255.43604 
L 236.330235 255.43604 
L 236.330235 249.048713 
L 237.968328 249.048713 
L 237.968328 242.661386 
L 238.912327 242.661386 
L 238.912327 236.274059 
L 239.931859 236.274059 
L 239.931859 229.886733 
L 245.000683 229.886733 
L 245.000683 223.499406 
L 245.183249 223.499406 
L 245.183249 217.112079 
L 248.562614 217.112079 
L 248.562614 210.724752 
L 251.226829 210.724752 
L 251.226829 204.337426 
L 253.422099 204.337426 
L 253.422099 197.950099 
L 261.495961 197.950099 
L 261.495961 191.562772 
L 263.947342 191.562772 
L 263.947342 185.175446 
L 279.882351 185.175446 
L 279.882351 178.788119 
L 280.169097 178.788119 
L 280.169097 172.400792 
L 281.67394 172.400792 
L 281.67394 166.013465 
L 284.518806 166.013465 
L 284.518806 159.626139 
L 290.974663 159.626139 
L 290.974663 153.238812 
L 293.241412 153.238812 
L 293.241412 146.851485 
L 294.942248 146.851485 
L 294.942248 140.464158 
L 320.857479 140.464158 
L 320.857479 134.076832 
L 384.277264 134.076832 
L 384.277264 127.689505 
L 401.833412 127.689505 
L 401.833412 121.302178 
L 405.926748 121.302178 
L 405.926748 114.914851 
L 405.926748 114.914851 
L 405.926748 114.914851 
L 460.8 114.914851 
" style="fill:none;stroke:#000000;stroke-linecap:square;stroke-width:1.5;"/>
   </g>
   <g id="line2d_104">
    <defs>
     <path d="M 0 14.142136 
L 8.485281 0 
L 0 -14.142136 
L -8.485281 0 
z
" id="m1117489960" style="stroke:#000000;stroke-linejoin:miter;stroke-width:1.5;"/>
    </defs>
    <g clip-path="url(#p50a4682834)">
     <use style="fill-opacity:0;stroke:#000000;stroke-linejoin:miter;stroke-width:1.5;" x="235.16988" xlink:href="#m1117489960" y="261.823366"/>
     <use style="fill-opacity:0;stroke:#000000;stroke-linejoin:miter;stroke-width:1.5;" x="251.226829" xlink:href="#m1117489960" y="210.724752"/>
     <use style="fill-opacity:0;stroke:#000000;stroke-linejoin:miter;stroke-width:1.5;" x="293.241412" xlink:href="#m1117489960" y="153.238812"/>
     <use style="fill-opacity:0;stroke:#000000;stroke-linejoin:miter;stroke-width:1.5;" x="384.277264" xlink:href="#m1117489960" y="134.076832"/>
     <use style="fill-opacity:0;stroke:#000000;stroke-linejoin:miter;stroke-width:1.5;" x="405.926748" xlink:href="#m1117489960" y="114.914851"/>
    </g>
   </g>
   <g id="line2d_105">
    <path clip-path="url(#p50a4682834)" style="fill:none;stroke:#000000;stroke-linecap:square;stroke-width:1.5;"/>
    <g clip-path="url(#p50a4682834)">
     <use style="fill-opacity:0;stroke:#000000;stroke-linejoin:miter;stroke-width:1.5;" x="-1" xlink:href="#m1117489960" y="581.189703"/>
     <use style="fill-opacity:0;stroke:#000000;stroke-linejoin:miter;stroke-width:1.5;" x="460.8" xlink:href="#m1117489960" y="581.189703"/>
    </g>
   </g>
   <g id="line2d_106">
    <path clip-path="url(#p50a4682834)" d="M 162.665765 293.76 
L 162.665765 288.969505 
L 185.389297 288.969505 
L 185.389297 284.17901 
L 186.413081 284.17901 
L 186.413081 279.388515 
L 186.815576 279.388515 
L 186.815576 274.59802 
L 190.546665 274.59802 
L 190.546665 269.807525 
L 191.718882 269.807525 
L 191.718882 265.01703 
L 191.8963 265.01703 
L 191.8963 260.226535 
L 193.459591 260.226535 
L 193.459591 255.43604 
L 197.1265 255.43604 
L 197.1265 250.645545 
L 197.93712 250.645545 
L 197.93712 245.85505 
L 198.807018 245.85505 
L 198.807018 241.064554 
L 199.622255 241.064554 
L 199.622255 236.274059 
L 200.744291 236.274059 
L 200.744291 231.483564 
L 201.975438 231.483564 
L 201.975438 226.693069 
L 201.975438 226.693069 
L 201.975438 221.902574 
L 202.389217 221.902574 
L 202.389217 217.112079 
L 203.204515 217.112079 
L 203.204515 212.321584 
L 203.706004 212.321584 
L 203.706004 207.531089 
L 204.917526 207.531089 
L 204.917526 202.740594 
L 205.684751 202.740594 
L 205.684751 197.950099 
L 207.603055 197.950099 
L 207.603055 193.159604 
L 207.723803 193.159604 
L 207.723803 188.369109 
L 208.470564 188.369109 
L 208.470564 183.578614 
L 208.736119 183.578614 
L 208.736119 178.788119 
L 208.76552 178.788119 
L 208.76552 173.997624 
L 210.829075 173.997624 
L 210.829075 169.207129 
L 211.522081 169.207129 
L 211.522081 164.416634 
L 212.041079 164.416634 
L 212.041079 159.626139 
L 212.499969 159.626139 
L 212.499969 154.835644 
L 213.297513 154.835644 
L 213.297513 150.045149 
L 214.20888 150.045149 
L 214.20888 145.254653 
L 214.796988 145.254653 
L 214.796988 140.464158 
L 215.12572 140.464158 
L 215.12572 135.673663 
L 215.30165 135.673663 
L 215.30165 130.883168 
L 216.341739 130.883168 
L 216.341739 126.092673 
L 217.068908 126.092673 
L 217.068908 121.302178 
L 218.67114 121.302178 
L 218.67114 116.511683 
L 224.561471 116.511683 
L 224.561471 111.721188 
L 241.71369 111.721188 
L 241.71369 106.930693 
L 245.401266 106.930693 
L 245.401266 102.140198 
L 248.078703 102.140198 
L 248.078703 97.349703 
L 309.956233 97.349703 
L 309.956233 92.559208 
L 346.423856 92.559208 
L 346.423856 87.768713 
L 347.013832 87.768713 
L 347.013832 82.978218 
L 347.99009 82.978218 
L 347.99009 78.187723 
L 353.484758 78.187723 
L 353.484758 73.397228 
L 355.938014 73.397228 
L 355.938014 68.606733 
L 377.172287 68.606733 
L 377.172287 63.816238 
L 380.046552 63.816238 
L 380.046552 59.025743 
L 408.306887 59.025743 
L 408.306887 54.235248 
L 409.595392 54.235248 
L 409.595392 49.444752 
L 432.160104 49.444752 
L 432.160104 44.654257 
L 433.470568 44.654257 
L 433.470568 39.863762 
L 434.633108 39.863762 
L 434.633108 35.073267 
L 438.615934 35.073267 
L 438.615934 30.282772 
L 438.615934 30.282772 
L 438.615934 30.282772 
L 460.8 30.282772 
" style="fill:none;stroke:#000000;stroke-linecap:square;stroke-width:1.5;"/>
   </g>
   <g id="line2d_107">
    <defs>
     <path d="M 0 7.5 
C 1.989023 7.5 3.896849 6.709753 5.303301 5.303301 
C 6.709753 3.896849 7.5 1.989023 7.5 0 
C 7.5 -1.989023 6.709753 -3.896849 5.303301 -5.303301 
C 3.896849 -6.709753 1.989023 -7.5 0 -7.5 
C -1.989023 -7.5 -3.896849 -6.709753 -5.303301 -5.303301 
C -6.709753 -3.896849 -7.5 -1.989023 -7.5 0 
C -7.5 1.989023 -6.709753 3.896849 -5.303301 5.303301 
C -3.896849 6.709753 -1.989023 7.5 0 7.5 
z
" id="m4b47b713fe" style="stroke:#000000;stroke-width:1.5;"/>
    </defs>
    <g clip-path="url(#p50a4682834)">
     <use style="fill-opacity:0;stroke:#000000;stroke-width:1.5;" x="202.389217" xlink:href="#m4b47b713fe" y="221.902574"/>
     <use style="fill-opacity:0;stroke:#000000;stroke-width:1.5;" x="245.401266" xlink:href="#m4b47b713fe" y="106.930693"/>
     <use style="fill-opacity:0;stroke:#000000;stroke-width:1.5;" x="347.013832" xlink:href="#m4b47b713fe" y="87.768713"/>
     <use style="fill-opacity:0;stroke:#000000;stroke-width:1.5;" x="433.470568" xlink:href="#m4b47b713fe" y="44.654257"/>
     <use style="fill-opacity:0;stroke:#000000;stroke-width:1.5;" x="438.615934" xlink:href="#m4b47b713fe" y="30.282772"/>
    </g>
   </g>
   <g id="line2d_108">
    <path clip-path="url(#p50a4682834)" style="fill:none;stroke:#000000;stroke-linecap:square;stroke-width:1.5;"/>
   </g>
   <g id="line2d_109"/>
   <g id="line2d_110">
    <path clip-path="url(#p50a4682834)" d="M 357.914615 293.76 
L 357.914615 288.969505 
L 358.73321 288.969505 
L 358.73321 284.17901 
L 382.867197 284.17901 
L 382.867197 279.388515 
L 384.218252 279.388515 
L 384.218252 274.59802 
L 412.033773 274.59802 
L 412.033773 269.807525 
L 413.528095 269.807525 
L 413.528095 265.01703 
L 434.961286 265.01703 
L 434.961286 260.226535 
L 437.708966 260.226535 
L 437.708966 255.43604 
L 438.401107 255.43604 
L 438.401107 250.645545 
L 441.774186 250.645545 
L 441.774186 245.85505 
L 441.774186 245.85505 
L 441.774186 245.85505 
L 460.8 245.85505 
" style="fill:none;stroke:#00bfbf;stroke-linecap:square;stroke-width:1.5;"/>
   </g>
   <g id="line2d_111">
    <defs>
     <path d="M 0 7.5 
C 1.989023 7.5 3.896849 6.709753 5.303301 5.303301 
C 6.709753 3.896849 7.5 1.989023 7.5 0 
C 7.5 -1.989023 6.709753 -3.896849 5.303301 -5.303301 
C 3.896849 -6.709753 1.989023 -7.5 0 -7.5 
C -1.989023 -7.5 -3.896849 -6.709753 -5.303301 -5.303301 
C -6.709753 -3.896849 -7.5 -1.989023 -7.5 0 
C -7.5 1.989023 -6.709753 3.896849 -5.303301 5.303301 
C -3.896849 6.709753 -1.989023 7.5 0 7.5 
z
" id="md301e1e684" style="stroke:#00bfbf;stroke-width:1.5;"/>
    </defs>
    <g clip-path="url(#p50a4682834)">
     <use style="fill-opacity:0;stroke:#00bfbf;stroke-width:1.5;" x="412.033773" xlink:href="#md301e1e684" y="274.59802"/>
     <use style="fill-opacity:0;stroke:#00bfbf;stroke-width:1.5;" x="441.774186" xlink:href="#md301e1e684" y="250.645545"/>
     <use style="fill-opacity:0;stroke:#00bfbf;stroke-width:1.5;" x="441.774186" xlink:href="#md301e1e684" y="245.85505"/>
    </g>
   </g>
   <g id="line2d_112">
    <path clip-path="url(#p50a4682834)" style="fill:none;stroke:#00bfbf;stroke-linecap:square;stroke-width:1.5;"/>
   </g>
   <g id="line2d_113"/>
   <g id="line2d_114">
    <path clip-path="url(#p50a4682834)" d="M 359.586549 293.76 
L 359.586549 288.969505 
L 359.888635 288.969505 
L 359.888635 284.17901 
L 383.612461 284.17901 
L 383.612461 279.388515 
L 384.897163 279.388515 
L 384.897163 274.59802 
L 413.174344 274.59802 
L 413.174344 269.807525 
L 414.477605 269.807525 
L 414.477605 265.01703 
L 436.257759 265.01703 
L 436.257759 260.226535 
L 438.325669 260.226535 
L 438.325669 255.43604 
L 438.956639 255.43604 
L 438.956639 250.645545 
L 441.774186 250.645545 
L 441.774186 245.85505 
L 441.774186 245.85505 
L 441.774186 245.85505 
L 460.8 245.85505 
" style="fill:none;stroke:#bf00bf;stroke-linecap:square;stroke-width:1.5;"/>
   </g>
   <g id="line2d_115">
    <defs>
     <path d="M 0 7.5 
C 1.989023 7.5 3.896849 6.709753 5.303301 5.303301 
C 6.709753 3.896849 7.5 1.989023 7.5 0 
C 7.5 -1.989023 6.709753 -3.896849 5.303301 -5.303301 
C 3.896849 -6.709753 1.989023 -7.5 0 -7.5 
C -1.989023 -7.5 -3.896849 -6.709753 -5.303301 -5.303301 
C -6.709753 -3.896849 -7.5 -1.989023 -7.5 0 
C -7.5 1.989023 -6.709753 3.896849 -5.303301 5.303301 
C -3.896849 6.709753 -1.989023 7.5 0 7.5 
z
" id="m39dbbc2f8e" style="stroke:#bf00bf;stroke-width:1.5;"/>
    </defs>
    <g clip-path="url(#p50a4682834)">
     <use style="fill-opacity:0;stroke:#bf00bf;stroke-width:1.5;" x="383.612461" xlink:href="#m39dbbc2f8e" y="284.17901"/>
     <use style="fill-opacity:0;stroke:#bf00bf;stroke-width:1.5;" x="414.477605" xlink:href="#m39dbbc2f8e" y="269.807525"/>
     <use style="fill-opacity:0;stroke:#bf00bf;stroke-width:1.5;" x="441.774186" xlink:href="#m39dbbc2f8e" y="245.85505"/>
    </g>
   </g>
   <g id="line2d_116">
    <path clip-path="url(#p50a4682834)" style="fill:none;stroke:#bf00bf;stroke-linecap:square;stroke-width:1.5;"/>
   </g>
   <g id="line2d_117"/>
   <g id="line2d_118">
    <path clip-path="url(#p50a4682834)" d="M 360.429982 293.76 
L 360.429982 288.969505 
L 360.476625 288.969505 
L 360.476625 284.17901 
L 384.660444 284.17901 
L 384.660444 279.388515 
L 385.827469 279.388515 
L 385.827469 274.59802 
L 414.042707 274.59802 
L 414.042707 269.807525 
L 415.250526 269.807525 
L 415.250526 265.01703 
L 436.900219 265.01703 
L 436.900219 260.226535 
L 438.357314 260.226535 
L 438.357314 255.43604 
L 438.956639 255.43604 
L 438.956639 250.645545 
L 438.956639 250.645545 
L 438.956639 250.645545 
L 460.8 250.645545 
" style="fill:none;stroke:#ff0000;stroke-linecap:square;stroke-width:3;"/>
   </g>
   <g id="line2d_119">
    <defs>
     <path d="M 0 7.5 
C 1.989023 7.5 3.896849 6.709753 5.303301 5.303301 
C 6.709753 3.896849 7.5 1.989023 7.5 0 
C 7.5 -1.989023 6.709753 -3.896849 5.303301 -5.303301 
C 3.896849 -6.709753 1.989023 -7.5 0 -7.5 
C -1.989023 -7.5 -3.896849 -6.709753 -5.303301 -5.303301 
C -6.709753 -3.896849 -7.5 -1.989023 -7.5 0 
C -7.5 1.989023 -6.709753 3.896849 -5.303301 5.303301 
C -3.896849 6.709753 -1.989023 7.5 0 7.5 
z
" id="m91715af3a7" style="stroke:#ff0000;stroke-width:3;"/>
    </defs>
    <g clip-path="url(#p50a4682834)">
     <use style="fill-opacity:0;stroke:#ff0000;stroke-width:3;" x="385.827469" xlink:href="#m91715af3a7" y="279.388515"/>
     <use style="fill-opacity:0;stroke:#ff0000;stroke-width:3;" x="438.357314" xlink:href="#m91715af3a7" y="260.226535"/>
     <use style="fill-opacity:0;stroke:#ff0000;stroke-width:3;" x="438.956639" xlink:href="#m91715af3a7" y="250.645545"/>
    </g>
   </g>
   <g id="line2d_120">
    <path clip-path="url(#p50a4682834)" style="fill:none;stroke:#ff0000;stroke-linecap:square;stroke-width:3;"/>
   </g>
   <g id="line2d_121">
    <path clip-path="url(#p50a4682834)" d="M 441.765337 293.76 
L 441.765337 3.456 
" style="fill:none;stroke:#000000;stroke-linecap:square;stroke-width:1.5;"/>
    <defs>
     <path d="M -10 0 
L 10 0 
M 0 10 
L 0 -10 
" id="md687449880" style="stroke:#000000;stroke-width:3;"/>
    </defs>
    <g clip-path="url(#p50a4682834)">
     <use style="stroke:#000000;stroke-width:3;" x="441.765337" xlink:href="#md687449880" y="293.76"/>
     <use style="stroke:#000000;stroke-width:3;" x="441.765337" xlink:href="#md687449880" y="3.456"/>
    </g>
   </g>
   <g id="line2d_122">
    <path clip-path="url(#p50a4682834)" d="M 441.797636 293.76 
L 441.797636 3.456 
" style="fill:none;stroke:#000000;stroke-linecap:square;stroke-width:1.5;"/>
    <defs>
     <path d="M 0 7.5 
C 1.989023 7.5 3.896849 6.709753 5.303301 5.303301 
C 6.709753 3.896849 7.5 1.989023 7.5 0 
C 7.5 -1.989023 6.709753 -3.896849 5.303301 -5.303301 
C 3.896849 -6.709753 1.989023 -7.5 0 -7.5 
C -1.989023 -7.5 -3.896849 -6.709753 -5.303301 -5.303301 
C -6.709753 -3.896849 -7.5 -1.989023 -7.5 0 
C -7.5 1.989023 -6.709753 3.896849 -5.303301 5.303301 
C -3.896849 6.709753 -1.989023 7.5 0 7.5 
z
" id="mb084327a8c" style="stroke:#000000;stroke-width:3;"/>
    </defs>
    <g clip-path="url(#p50a4682834)">
     <use style="fill-opacity:0;stroke:#000000;stroke-width:3;" x="441.797636" xlink:href="#mb084327a8c" y="293.76"/>
     <use style="fill-opacity:0;stroke:#000000;stroke-width:3;" x="441.797636" xlink:href="#mb084327a8c" y="3.456"/>
    </g>
   </g>
   <g id="patch_3">
    <path d="M 62.208 293.76 
L 62.208 3.456 
" style="fill:none;stroke:#000000;stroke-linecap:square;stroke-linejoin:miter;stroke-width:0.8;"/>
   </g>
   <g id="patch_4">
    <path d="M 460.8 293.76 
L 460.8 3.456 
" style="fill:none;stroke:#000000;stroke-linecap:square;stroke-linejoin:miter;stroke-width:0.8;"/>
   </g>
   <g id="patch_5">
    <path d="M 62.208 293.76 
L 460.8 293.76 
" style="fill:none;stroke:#000000;stroke-linecap:square;stroke-linejoin:miter;stroke-width:0.8;"/>
   </g>
   <g id="patch_6">
    <path d="M 62.208 3.456 
L 460.8 3.456 
" style="fill:none;stroke:#000000;stroke-linecap:square;stroke-linejoin:miter;stroke-width:0.8;"/>
   </g>
   <g id="text_12">
    <!-- f6-f9 -->
    <g transform="translate(238.130563 24.458955)scale(0.2 -0.2)">
     <defs>
      <path d="M 313 2009 
L 1997 2009 
L 1997 1497 
L 313 1497 
L 313 2009 
z
" id="DejaVuSans-2d" transform="scale(0.015625)"/>
      <path d="M 703 97 
L 703 672 
Q 941 559 1184 500 
Q 1428 441 1663 441 
Q 2288 441 2617 861 
Q 2947 1281 2994 2138 
Q 2813 1869 2534 1725 
Q 2256 1581 1919 1581 
Q 1219 1581 811 2004 
Q 403 2428 403 3163 
Q 403 3881 828 4315 
Q 1253 4750 1959 4750 
Q 2769 4750 3195 4129 
Q 3622 3509 3622 2328 
Q 3622 1225 3098 567 
Q 2575 -91 1691 -91 
Q 1453 -91 1209 -44 
Q 966 3 703 97 
z
M 1959 2075 
Q 2384 2075 2632 2365 
Q 2881 2656 2881 3163 
Q 2881 3666 2632 3958 
Q 2384 4250 1959 4250 
Q 1534 4250 1286 3958 
Q 1038 3666 1038 3163 
Q 1038 2656 1286 2365 
Q 1534 2075 1959 2075 
z
" id="DejaVuSans-39" transform="scale(0.015625)"/>
     </defs>
     <use xlink:href="#DejaVuSans-66"/>
     <use x="35.205078" xlink:href="#DejaVuSans-36"/>
     <use x="98.828125" xlink:href="#DejaVuSans-2d"/>
     <use x="134.912109" xlink:href="#DejaVuSans-66"/>
     <use x="170.117188" xlink:href="#DejaVuSans-39"/>
    </g>
   </g>
   <g id="text_13">
    <!-- absolute targets -->
    <g transform="translate(62.208 609.932673)scale(0.14 -0.14)">
     <defs>
      <path d="M 3116 1747 
Q 3116 2381 2855 2742 
Q 2594 3103 2138 3103 
Q 1681 3103 1420 2742 
Q 1159 2381 1159 1747 
Q 1159 1113 1420 752 
Q 1681 391 2138 391 
Q 2594 391 2855 752 
Q 3116 1113 3116 1747 
z
M 1159 2969 
Q 1341 3281 1617 3432 
Q 1894 3584 2278 3584 
Q 2916 3584 3314 3078 
Q 3713 2572 3713 1747 
Q 3713 922 3314 415 
Q 2916 -91 2278 -91 
Q 1894 -91 1617 61 
Q 1341 213 1159 525 
L 1159 0 
L 581 0 
L 581 4863 
L 1159 4863 
L 1159 2969 
z
" id="DejaVuSans-62" transform="scale(0.015625)"/>
      <path d="M 544 1381 
L 544 3500 
L 1119 3500 
L 1119 1403 
Q 1119 906 1312 657 
Q 1506 409 1894 409 
Q 2359 409 2629 706 
Q 2900 1003 2900 1516 
L 2900 3500 
L 3475 3500 
L 3475 0 
L 2900 0 
L 2900 538 
Q 2691 219 2414 64 
Q 2138 -91 1772 -91 
Q 1169 -91 856 284 
Q 544 659 544 1381 
z
M 1991 3584 
L 1991 3584 
z
" id="DejaVuSans-75" transform="scale(0.015625)"/>
      <path d="M 3597 1894 
L 3597 1613 
L 953 1613 
Q 991 1019 1311 708 
Q 1631 397 2203 397 
Q 2534 397 2845 478 
Q 3156 559 3463 722 
L 3463 178 
Q 3153 47 2828 -22 
Q 2503 -91 2169 -91 
Q 1331 -91 842 396 
Q 353 884 353 1716 
Q 353 2575 817 3079 
Q 1281 3584 2069 3584 
Q 2775 3584 3186 3129 
Q 3597 2675 3597 1894 
z
M 3022 2063 
Q 3016 2534 2758 2815 
Q 2500 3097 2075 3097 
Q 1594 3097 1305 2825 
Q 1016 2553 972 2059 
L 3022 2063 
z
" id="DejaVuSans-65" transform="scale(0.015625)"/>
     </defs>
     <use xlink:href="#DejaVuSans-61"/>
     <use x="61.279297" xlink:href="#DejaVuSans-62"/>
     <use x="124.755859" xlink:href="#DejaVuSans-73"/>
     <use x="176.855469" xlink:href="#DejaVuSans-6f"/>
     <use x="238.037109" xlink:href="#DejaVuSans-6c"/>
     <use x="265.820312" xlink:href="#DejaVuSans-75"/>
     <use x="329.199219" xlink:href="#DejaVuSans-74"/>
     <use x="368.408203" xlink:href="#DejaVuSans-65"/>
     <use x="429.931641" xlink:href="#DejaVuSans-20"/>
     <use x="461.71875" xlink:href="#DejaVuSans-74"/>
     <use x="500.927734" xlink:href="#DejaVuSans-61"/>
     <use x="562.207031" xlink:href="#DejaVuSans-72"/>
     <use x="601.570312" xlink:href="#DejaVuSans-67"/>
     <use x="665.046875" xlink:href="#DejaVuSans-65"/>
     <use x="726.570312" xlink:href="#DejaVuSans-74"/>
     <use x="765.779297" xlink:href="#DejaVuSans-73"/>
    </g>
   </g>
   <g id="text_14">
    <!-- v2.6.3 -->
    <g style="fill:#808080;" transform="translate(245.82275 288.777272)scale(0.1 -0.1)">
     <defs>
      <path d="M 2597 2516 
Q 3050 2419 3304 2112 
Q 3559 1806 3559 1356 
Q 3559 666 3084 287 
Q 2609 -91 1734 -91 
Q 1441 -91 1130 -33 
Q 819 25 488 141 
L 488 750 
Q 750 597 1062 519 
Q 1375 441 1716 441 
Q 2309 441 2620 675 
Q 2931 909 2931 1356 
Q 2931 1769 2642 2001 
Q 2353 2234 1838 2234 
L 1294 2234 
L 1294 2753 
L 1863 2753 
Q 2328 2753 2575 2939 
Q 2822 3125 2822 3475 
Q 2822 3834 2567 4026 
Q 2313 4219 1838 4219 
Q 1578 4219 1281 4162 
Q 984 4106 628 3988 
L 628 4550 
Q 988 4650 1302 4700 
Q 1616 4750 1894 4750 
Q 2613 4750 3031 4423 
Q 3450 4097 3450 3541 
Q 3450 3153 3228 2886 
Q 3006 2619 2597 2516 
z
" id="DejaVuSans-33" transform="scale(0.015625)"/>
     </defs>
     <use xlink:href="#DejaVuSans-76"/>
     <use x="59.179688" xlink:href="#DejaVuSans-32"/>
     <use x="122.802734" xlink:href="#DejaVuSans-2e"/>
     <use x="154.589844" xlink:href="#DejaVuSans-36"/>
     <use x="218.212891" xlink:href="#DejaVuSans-2e"/>
     <use x="250" xlink:href="#DejaVuSans-33"/>
    </g>
   </g>
   <g id="legend_1">
    <g id="patch_7">
     <path d="M 76.208 136.881 
L 160.148625 136.881 
Q 164.148625 136.881 164.148625 132.881 
L 164.148625 17.456 
Q 164.148625 13.456 160.148625 13.456 
L 76.208 13.456 
Q 72.208 13.456 72.208 17.456 
L 72.208 132.881 
Q 72.208 136.881 76.208 136.881 
z
" style="fill:#ffffff;opacity:0.2;stroke:#cccccc;stroke-linejoin:miter;"/>
    </g>
    <g id="line2d_123">
     <path d="M 80.208 29.652875 
L 120.208 29.652875 
" style="fill:none;stroke:#000000;stroke-linecap:square;stroke-width:1.5;"/>
    </g>
    <g id="line2d_124"/>
    <g id="text_15">
     <!-- 1 -->
     <g transform="translate(136.208 36.652875)scale(0.2 -0.2)">
      <use xlink:href="#DejaVuSans-31"/>
     </g>
    </g>
    <g id="line2d_125">
     <path d="M 80.208 59.009125 
L 120.208 59.009125 
" style="fill:none;stroke:#00bfbf;stroke-linecap:square;stroke-width:1.5;"/>
    </g>
    <g id="line2d_126"/>
    <g id="text_16">
     <!-- -1 -->
     <g transform="translate(136.208 66.009125)scale(0.2 -0.2)">
      <use xlink:href="#DejaVuSans-2d"/>
      <use x="36.083984" xlink:href="#DejaVuSans-31"/>
     </g>
    </g>
    <g id="line2d_127">
     <path d="M 80.208 88.365375 
L 120.208 88.365375 
" style="fill:none;stroke:#bf00bf;stroke-linecap:square;stroke-width:1.5;"/>
    </g>
    <g id="line2d_128"/>
    <g id="text_17">
     <!-- -4 -->
     <g transform="translate(136.208 95.365375)scale(0.2 -0.2)">
      <use xlink:href="#DejaVuSans-2d"/>
      <use x="36.083984" xlink:href="#DejaVuSans-34"/>
     </g>
    </g>
    <g id="line2d_129">
     <path d="M 80.208 117.721625 
L 120.208 117.721625 
" style="fill:none;stroke:#ff0000;stroke-linecap:square;stroke-width:3;"/>
    </g>
    <g id="line2d_130"/>
    <g id="text_18">
     <!-- -8 -->
     <g transform="translate(136.208 124.721625)scale(0.2 -0.2)">
      <use xlink:href="#DejaVuSans-2d"/>
      <use x="36.083984" xlink:href="#DejaVuSans-38"/>
     </g>
    </g>
   </g>
  </g>
 </g>
 <defs>
  <clipPath id="p50a4682834">
   <rect height="290.304" width="398.592" x="62.208" y="3.456"/>
  </clipPath>
 </defs>
</svg>
