<?xml version="1.0" encoding="utf-8" standalone="no"?>
<!DOCTYPE svg PUBLIC "-//W3C//DTD SVG 1.1//EN"
  "http://www.w3.org/Graphics/SVG/1.1/DTD/svg11.dtd">
<svg height="345.6pt" version="1.1" viewBox="0 0 460.8 345.6" width="460.8pt" xmlns="http://www.w3.org/2000/svg" xmlns:xlink="http://www.w3.org/1999/xlink">
 <metadata>
  <rdf:RDF xmlns:cc="http://creativecommons.org/ns#" xmlns:dc="http://purl.org/dc/elements/1.1/" xmlns:rdf="http://www.w3.org/1999/02/22-rdf-syntax-ns#">
   <cc:Work>
    <dc:type rdf:resource="http://purl.org/dc/dcmitype/StillImage"/>
    <dc:date>2023-04-17T18:16:48.513388</dc:date>
    <dc:format>image/svg+xml</dc:format>
    <dc:creator>
     <cc:Agent>
      <dc:title>Matplotlib v3.4.1, https://matplotlib.org/</dc:title>
     </cc:Agent>
    </dc:creator>
   </cc:Work>
  </rdf:RDF>
 </metadata>
 <defs>
  <style type="text/css">*{stroke-linecap:butt;stroke-linejoin:round;}</style>
 </defs>
 <g id="figure_1">
  <g id="patch_1">
   <path d="M 0 345.6 
L 460.8 345.6 
L 460.8 0 
L 0 0 
z
" style="fill:#ffffff;"/>
  </g>
  <g id="axes_1">
   <g id="patch_2">
    <path d="M 62.208 293.76 
L 460.8 293.76 
L 460.8 3.456 
L 62.208 3.456 
z
" style="fill:#ffffff;"/>
   </g>
   <g id="line2d_1">
    <path clip-path="url(#p296eba4515)" d="M 272.980252 293.76 
L 272.980252 289.927604 
L 276.349794 289.927604 
L 276.349794 286.095208 
L 284.455664 286.095208 
L 284.455664 282.262812 
L 296.623334 282.262812 
L 296.623334 278.430416 
L 318.469623 278.430416 
L 318.469623 274.59802 
L 328.05732 274.59802 
L 328.05732 270.765624 
L 328.05732 270.765624 
L 328.05732 270.765624 
L 460.8 270.765624 
" style="fill:none;stroke:#f5deb3;stroke-linecap:square;stroke-width:1.5;"/>
   </g>
   <g id="line2d_2">
    <path clip-path="url(#p296eba4515)" d="M 408.359964 293.76 
L 408.359964 282.262812 
L 408.359964 282.262812 
L 408.359964 282.262812 
L 460.8 282.262812 
" style="fill:none;stroke:#f5deb3;stroke-linecap:square;stroke-width:1.5;"/>
   </g>
   <g id="line2d_3">
    <path clip-path="url(#p296eba4515)" d="M 218.591175 293.76 
L 218.591175 289.927604 
L 225.288645 289.927604 
L 225.288645 286.095208 
L 284.825588 286.095208 
L 284.825588 282.262812 
L 288.149379 282.262812 
L 288.149379 278.430416 
L 298.422027 278.430416 
L 298.422027 274.59802 
L 301.234868 274.59802 
L 301.234868 270.765624 
L 304.443278 270.765624 
L 304.443278 266.933228 
L 315.946736 266.933228 
L 315.946736 263.100832 
L 317.214938 263.100832 
L 317.214938 259.268436 
L 317.6319 259.268436 
L 317.6319 255.43604 
L 318.257699 255.43604 
L 318.257699 251.603644 
L 321.944642 251.603644 
L 321.944642 247.771248 
L 328.835635 247.771248 
L 328.835635 243.938851 
L 333.957189 243.938851 
L 333.957189 240.106455 
L 334.511457 240.106455 
L 334.511457 236.274059 
L 343.292998 236.274059 
L 343.292998 232.441663 
L 344.537123 232.441663 
L 344.537123 228.609267 
L 348.121923 228.609267 
L 348.121923 224.776871 
L 372.519769 224.776871 
L 372.519769 220.944475 
L 373.935855 220.944475 
L 373.935855 217.112079 
L 376.659395 217.112079 
L 376.659395 213.279683 
L 379.421403 213.279683 
L 379.421403 209.447287 
L 380.490723 209.447287 
L 380.490723 205.614891 
L 386.854926 205.614891 
L 386.854926 201.782495 
L 387.350382 201.782495 
L 387.350382 197.950099 
L 403.801825 197.950099 
L 403.801825 194.117703 
L 405.598099 194.117703 
L 405.598099 190.285307 
L 407.751511 190.285307 
L 407.751511 186.452911 
L 414.691161 186.452911 
L 414.691161 182.620515 
L 426.754932 182.620515 
L 426.754932 178.788119 
L 426.754932 178.788119 
L 426.754932 178.788119 
L 460.8 178.788119 
" style="fill:none;stroke:#f5deb3;stroke-linecap:square;stroke-width:1.5;"/>
   </g>
   <g id="line2d_4">
    <path clip-path="url(#p296eba4515)" d="M 233.16829 293.76 
L 233.16829 289.927604 
L 237.284024 289.927604 
L 237.284024 286.095208 
L 265.604523 286.095208 
L 265.604523 282.262812 
L 286.83787 282.262812 
L 286.83787 278.430416 
L 288.588627 278.430416 
L 288.588627 274.59802 
L 297.485153 274.59802 
L 297.485153 270.765624 
L 302.332367 270.765624 
L 302.332367 266.933228 
L 320.181458 266.933228 
L 320.181458 263.100832 
L 320.785305 263.100832 
L 320.785305 259.268436 
L 337.494765 259.268436 
L 337.494765 255.43604 
L 338.988138 255.43604 
L 338.988138 251.603644 
L 344.286079 251.603644 
L 344.286079 247.771248 
L 350.298044 247.771248 
L 350.298044 243.938851 
L 350.890248 243.938851 
L 350.890248 240.106455 
L 357.247331 240.106455 
L 357.247331 236.274059 
L 364.637909 236.274059 
L 364.637909 232.441663 
L 380.806533 232.441663 
L 380.806533 228.609267 
L 382.120596 228.609267 
L 382.120596 224.776871 
L 382.921288 224.776871 
L 382.921288 220.944475 
L 383.593263 220.944475 
L 383.593263 217.112079 
L 386.814784 217.112079 
L 386.814784 213.279683 
L 390.216829 213.279683 
L 390.216829 209.447287 
L 397.421979 209.447287 
L 397.421979 205.614891 
L 400.168158 205.614891 
L 400.168158 201.782495 
L 400.204992 201.782495 
L 400.204992 197.950099 
L 408.702618 197.950099 
L 408.702618 194.117703 
L 416.548209 194.117703 
L 416.548209 190.285307 
L 424.369447 190.285307 
L 424.369447 186.452911 
L 430.310359 186.452911 
L 430.310359 182.620515 
L 431.466923 182.620515 
L 431.466923 178.788119 
L 431.466923 178.788119 
L 431.466923 178.788119 
L 460.8 178.788119 
" style="fill:none;stroke:#f5deb3;stroke-linecap:square;stroke-width:1.5;"/>
   </g>
   <g id="line2d_5"/>
   <g id="line2d_6"/>
   <g id="line2d_7">
    <path clip-path="url(#p296eba4515)" d="M 264.321627 293.76 
L 264.321627 289.927604 
L 372.9785 289.927604 
L 372.9785 286.095208 
L 376.176152 286.095208 
L 376.176152 282.262812 
L 378.643186 282.262812 
L 378.643186 278.430416 
L 401.553804 278.430416 
L 401.553804 274.59802 
L 405.185004 274.59802 
L 405.185004 270.765624 
L 406.777901 270.765624 
L 406.777901 266.933228 
L 411.950645 266.933228 
L 411.950645 263.100832 
L 436.154342 263.100832 
L 436.154342 259.268436 
L 445.083567 259.268436 
L 445.083567 255.43604 
L 446.222403 255.43604 
L 446.222403 251.603644 
L 451.978191 251.603644 
L 451.978191 247.771248 
L 452.040609 247.771248 
L 452.040609 243.938851 
L 461.8 243.938851 
" style="fill:none;stroke:#f5deb3;stroke-linecap:square;stroke-width:1.5;"/>
   </g>
   <g id="line2d_8">
    <path clip-path="url(#p296eba4515)" d="M 406.636915 293.76 
L 406.636915 289.927604 
L 410.95667 289.927604 
L 410.95667 286.095208 
L 441.084378 286.095208 
L 441.084378 282.262812 
L 442.4913 282.262812 
L 442.4913 278.430416 
L 461.8 278.430416 
" style="fill:none;stroke:#f5deb3;stroke-linecap:square;stroke-width:1.5;"/>
   </g>
   <g id="line2d_9">
    <path clip-path="url(#p296eba4515)" d="M 253.500101 293.76 
L 253.500101 289.927604 
L 258.048398 289.927604 
L 258.048398 286.095208 
L 359.650457 286.095208 
L 359.650457 282.262812 
L 370.002287 282.262812 
L 370.002287 278.430416 
L 381.364017 278.430416 
L 381.364017 274.59802 
L 383.170136 274.59802 
L 383.170136 270.765624 
L 383.740002 270.765624 
L 383.740002 266.933228 
L 397.189742 266.933228 
L 397.189742 263.100832 
L 397.910879 263.100832 
L 397.910879 259.268436 
L 397.978063 259.268436 
L 397.978063 255.43604 
L 398.773521 255.43604 
L 398.773521 251.603644 
L 402.505798 251.603644 
L 402.505798 247.771248 
L 412.469012 247.771248 
L 412.469012 243.938851 
L 417.33858 243.938851 
L 417.33858 240.106455 
L 427.12433 240.106455 
L 427.12433 236.274059 
L 437.609433 236.274059 
L 437.609433 232.441663 
L 440.962724 232.441663 
L 440.962724 228.609267 
L 443.443685 228.609267 
L 443.443685 224.776871 
L 443.750373 224.776871 
L 443.750373 220.944475 
L 453.963313 220.944475 
L 453.963313 217.112079 
L 455.90725 217.112079 
L 455.90725 213.279683 
L 455.99391 213.279683 
L 455.99391 209.447287 
L 459.438685 209.447287 
L 459.438685 205.614891 
L 461.8 205.614891 
" style="fill:none;stroke:#f5deb3;stroke-linecap:square;stroke-width:1.5;"/>
   </g>
   <g id="line2d_10">
    <path clip-path="url(#p296eba4515)" d="M 432.752046 293.76 
L 432.752046 289.927604 
L 441.602533 289.927604 
L 441.602533 286.095208 
L 461.8 286.095208 
" style="fill:none;stroke:#f5deb3;stroke-linecap:square;stroke-width:1.5;"/>
   </g>
   <g id="line2d_11">
    <path clip-path="url(#p296eba4515)" d="M 234.503124 293.76 
L 234.503124 289.927604 
L 235.613787 289.927604 
L 235.613787 286.095208 
L 279.943834 286.095208 
L 279.943834 282.262812 
L 336.917231 282.262812 
L 336.917231 278.430416 
L 365.130081 278.430416 
L 365.130081 274.59802 
L 378.393746 274.59802 
L 378.393746 270.765624 
L 379.280662 270.765624 
L 379.280662 266.933228 
L 381.875751 266.933228 
L 381.875751 263.100832 
L 382.47228 263.100832 
L 382.47228 259.268436 
L 390.18553 259.268436 
L 390.18553 255.43604 
L 395.751947 255.43604 
L 395.751947 251.603644 
L 402.002661 251.603644 
L 402.002661 247.771248 
L 415.363556 247.771248 
L 415.363556 243.938851 
L 416.19343 243.938851 
L 416.19343 240.106455 
L 417.615755 240.106455 
L 417.615755 236.274059 
L 424.112506 236.274059 
L 424.112506 232.441663 
L 426.556635 232.441663 
L 426.556635 228.609267 
L 440.148716 228.609267 
L 440.148716 224.776871 
L 440.217556 224.776871 
L 440.217556 220.944475 
L 440.818259 220.944475 
L 440.818259 217.112079 
L 444.32682 217.112079 
L 444.32682 213.279683 
L 449.423784 213.279683 
L 449.423784 209.447287 
L 455.896008 209.447287 
L 455.896008 205.614891 
L 456.357273 205.614891 
L 456.357273 201.782495 
L 460.541341 201.782495 
L 460.541341 197.950099 
L 461.8 197.950099 
" style="fill:none;stroke:#f5deb3;stroke-linecap:square;stroke-width:1.5;"/>
   </g>
   <g id="line2d_12">
    <path clip-path="url(#p296eba4515)" d="M 294.349853 293.76 
L 294.349853 289.927604 
L 323.426895 289.927604 
L 323.426895 286.095208 
L 335.025749 286.095208 
L 335.025749 282.262812 
L 367.941131 282.262812 
L 367.941131 278.430416 
L 381.510124 278.430416 
L 381.510124 274.59802 
L 382.728968 274.59802 
L 382.728968 270.765624 
L 385.905807 270.765624 
L 385.905807 266.933228 
L 388.709101 266.933228 
L 388.709101 263.100832 
L 390.503102 263.100832 
L 390.503102 259.268436 
L 392.222153 259.268436 
L 392.222153 255.43604 
L 397.421979 255.43604 
L 397.421979 251.603644 
L 406.070991 251.603644 
L 406.070991 247.771248 
L 410.848273 247.771248 
L 410.848273 243.938851 
L 410.848273 243.938851 
L 410.848273 243.938851 
L 460.8 243.938851 
" style="fill:none;stroke:#f5deb3;stroke-linecap:square;stroke-width:1.5;"/>
   </g>
   <g id="line2d_13">
    <path clip-path="url(#p296eba4515)" d="M 332.980317 293.76 
L 332.980317 289.927604 
L 354.417747 289.927604 
L 354.417747 286.095208 
L 358.344747 286.095208 
L 358.344747 282.262812 
L 358.344747 282.262812 
L 358.344747 282.262812 
L 460.8 282.262812 
" style="fill:none;stroke:#f5deb3;stroke-linecap:square;stroke-width:1.5;"/>
   </g>
   <g id="line2d_14">
    <path clip-path="url(#p296eba4515)" d="M 266.648648 293.76 
L 266.648648 289.927604 
L 269.175575 289.927604 
L 269.175575 286.095208 
L 326.874791 286.095208 
L 326.874791 282.262812 
L 341.259962 282.262812 
L 341.259962 278.430416 
L 346.356159 278.430416 
L 346.356159 274.59802 
L 365.917835 274.59802 
L 365.917835 270.765624 
L 371.22955 270.765624 
L 371.22955 266.933228 
L 372.870257 266.933228 
L 372.870257 263.100832 
L 374.148645 263.100832 
L 374.148645 259.268436 
L 377.129213 259.268436 
L 377.129213 255.43604 
L 378.797383 255.43604 
L 378.797383 251.603644 
L 380.101615 251.603644 
L 380.101615 247.771248 
L 396.632564 247.771248 
L 396.632564 243.938851 
L 397.478046 243.938851 
L 397.478046 240.106455 
L 399.223871 240.106455 
L 399.223871 236.274059 
L 399.351642 236.274059 
L 399.351642 232.441663 
L 399.715662 232.441663 
L 399.715662 228.609267 
L 406.354445 228.609267 
L 406.354445 224.776871 
L 406.663625 224.776871 
L 406.663625 220.944475 
L 411.453688 220.944475 
L 411.453688 217.112079 
L 413.254026 217.112079 
L 413.254026 213.279683 
L 418.464182 213.279683 
L 418.464182 209.447287 
L 422.069301 209.447287 
L 422.069301 205.614891 
L 427.519176 205.614891 
L 427.519176 201.782495 
L 440.301021 201.782495 
L 440.301021 197.950099 
L 440.301021 197.950099 
L 440.301021 197.950099 
L 460.8 197.950099 
" style="fill:none;stroke:#f5deb3;stroke-linecap:square;stroke-width:1.5;"/>
   </g>
   <g id="line2d_15">
    <path clip-path="url(#p296eba4515)" style="fill:none;stroke:#f5deb3;stroke-linecap:square;stroke-width:1.5;"/>
   </g>
   <g id="line2d_16">
    <path clip-path="url(#p296eba4515)" d="M 385.692061 293.76 
L 385.692061 289.927604 
L 419.536108 289.927604 
L 419.536108 286.095208 
L 455.516895 286.095208 
L 455.516895 282.262812 
L 461.8 282.262812 
" style="fill:none;stroke:#f5deb3;stroke-linecap:square;stroke-width:1.5;"/>
   </g>
   <g id="line2d_17">
    <path clip-path="url(#p296eba4515)" d="M 379.546922 293.76 
L 379.546922 289.927604 
L 387.460016 289.927604 
L 387.460016 286.095208 
L 395.328341 286.095208 
L 395.328341 282.262812 
L 400.938113 282.262812 
L 400.938113 278.430416 
L 400.938113 278.430416 
L 400.938113 278.430416 
L 460.8 278.430416 
" style="fill:none;stroke:#f5deb3;stroke-linecap:square;stroke-width:1.5;"/>
   </g>
   <g id="line2d_18">
    <path clip-path="url(#p296eba4515)" d="M 224.657924 293.76 
L 224.657924 289.927604 
L 229.804183 289.927604 
L 229.804183 286.095208 
L 229.804183 286.095208 
L 229.804183 282.262812 
L 232.713548 282.262812 
L 232.713548 278.430416 
L 282.883924 278.430416 
L 282.883924 274.59802 
L 292.405455 274.59802 
L 292.405455 270.765624 
L 294.247462 270.765624 
L 294.247462 266.933228 
L 295.700691 266.933228 
L 295.700691 263.100832 
L 300.986953 263.100832 
L 300.986953 259.268436 
L 307.462059 259.268436 
L 307.462059 255.43604 
L 309.412249 255.43604 
L 309.412249 251.603644 
L 313.185142 251.603644 
L 313.185142 247.771248 
L 315.634372 247.771248 
L 315.634372 243.938851 
L 326.40819 243.938851 
L 326.40819 240.106455 
L 333.806248 240.106455 
L 333.806248 236.274059 
L 342.602302 236.274059 
L 342.602302 232.441663 
L 343.333007 232.441663 
L 343.333007 228.609267 
L 344.79951 228.609267 
L 344.79951 224.776871 
L 348.963622 224.776871 
L 348.963622 220.944475 
L 365.572458 220.944475 
L 365.572458 217.112079 
L 374.73287 217.112079 
L 374.73287 213.279683 
L 378.030115 213.279683 
L 378.030115 209.447287 
L 384.076521 209.447287 
L 384.076521 205.614891 
L 399.533487 205.614891 
L 399.533487 201.782495 
L 405.535419 201.782495 
L 405.535419 197.950099 
L 407.083928 197.950099 
L 407.083928 194.117703 
L 410.164685 194.117703 
L 410.164685 190.285307 
L 410.164685 190.285307 
L 410.164685 190.285307 
L 460.8 190.285307 
" style="fill:none;stroke:#f5deb3;stroke-linecap:square;stroke-width:1.5;"/>
   </g>
   <g id="line2d_19">
    <path clip-path="url(#p296eba4515)" d="M 392.884562 293.76 
L 392.884562 290.338218 
L 394.167892 290.338218 
L 394.167892 286.916436 
L 396.938073 286.916436 
L 396.938073 283.494653 
L 403.696393 283.494653 
L 403.696393 280.072871 
L 405.600056 280.072871 
L 405.600056 276.651089 
L 406.483952 276.651089 
L 406.483952 273.229307 
L 408.58356 273.229307 
L 408.58356 269.807525 
L 408.58993 269.807525 
L 408.58993 266.385743 
L 411.656908 266.385743 
L 411.656908 262.96396 
L 415.290933 262.96396 
L 415.290933 259.542178 
L 426.245535 259.542178 
L 426.245535 256.120396 
L 432.556302 256.120396 
L 432.556302 252.698614 
L 436.549731 252.698614 
L 436.549731 249.276832 
L 436.710873 249.276832 
L 436.710873 245.85505 
L 454.32341 245.85505 
L 454.32341 242.433267 
L 461.8 242.433267 
" style="fill:none;stroke:#f5deb3;stroke-linecap:square;stroke-width:1.5;"/>
   </g>
   <g id="line2d_20">
    <path clip-path="url(#p296eba4515)" d="M 246.885972 293.76 
L 246.885972 289.927604 
L 292.512527 289.927604 
L 292.512527 286.095208 
L 294.843588 286.095208 
L 294.843588 282.262812 
L 307.302404 282.262812 
L 307.302404 278.430416 
L 310.432891 278.430416 
L 310.432891 274.59802 
L 315.868867 274.59802 
L 315.868867 270.765624 
L 323.49171 270.765624 
L 323.49171 266.933228 
L 323.95681 266.933228 
L 323.95681 263.100832 
L 333.513978 263.100832 
L 333.513978 259.268436 
L 333.559078 259.268436 
L 333.559078 255.43604 
L 348.268005 255.43604 
L 348.268005 251.603644 
L 352.998571 251.603644 
L 352.998571 247.771248 
L 353.173857 247.771248 
L 353.173857 243.938851 
L 355.426903 243.938851 
L 355.426903 240.106455 
L 358.707202 240.106455 
L 358.707202 236.274059 
L 362.404601 236.274059 
L 362.404601 232.441663 
L 367.989972 232.441663 
L 367.989972 228.609267 
L 370.356355 228.609267 
L 370.356355 224.776871 
L 372.188316 224.776871 
L 372.188316 220.944475 
L 375.545222 220.944475 
L 375.545222 217.112079 
L 382.793742 217.112079 
L 382.793742 213.279683 
L 383.731679 213.279683 
L 383.731679 209.447287 
L 384.786877 209.447287 
L 384.786877 205.614891 
L 385.585567 205.614891 
L 385.585567 201.782495 
L 393.704062 201.782495 
L 393.704062 197.950099 
L 393.993108 197.950099 
L 393.993108 194.117703 
L 402.262428 194.117703 
L 402.262428 190.285307 
L 424.326632 190.285307 
L 424.326632 186.452911 
L 432.209701 186.452911 
L 432.209701 182.620515 
L 432.209701 182.620515 
L 432.209701 182.620515 
L 460.8 182.620515 
" style="fill:none;stroke:#f5deb3;stroke-linecap:square;stroke-width:1.5;"/>
   </g>
   <g id="line2d_21"/>
   <g id="line2d_22">
    <path clip-path="url(#p296eba4515)" d="M 246.13855 293.76 
L 246.13855 289.927604 
L 262.334936 289.927604 
L 262.334936 286.095208 
L 265.486856 286.095208 
L 265.486856 282.262812 
L 267.666938 282.262812 
L 267.666938 278.430416 
L 272.535876 278.430416 
L 272.535876 274.59802 
L 312.68292 274.59802 
L 312.68292 270.765624 
L 325.183488 270.765624 
L 325.183488 266.933228 
L 334.75299 266.933228 
L 334.75299 263.100832 
L 355.677842 263.100832 
L 355.677842 259.268436 
L 365.899865 259.268436 
L 365.899865 255.43604 
L 366.486256 255.43604 
L 366.486256 251.603644 
L 367.833475 251.603644 
L 367.833475 247.771248 
L 379.611379 247.771248 
L 379.611379 243.938851 
L 382.846509 243.938851 
L 382.846509 240.106455 
L 390.477673 240.106455 
L 390.477673 236.274059 
L 407.995049 236.274059 
L 407.995049 232.441663 
L 410.523964 232.441663 
L 410.523964 228.609267 
L 424.067548 228.609267 
L 424.067548 224.776871 
L 426.445924 224.776871 
L 426.445924 220.944475 
L 427.714044 220.944475 
L 427.714044 217.112079 
L 435.826071 217.112079 
L 435.826071 213.279683 
L 438.896914 213.279683 
L 438.896914 209.447287 
L 441.534748 209.447287 
L 441.534748 205.614891 
L 445.282167 205.614891 
L 445.282167 201.782495 
L 456.363259 201.782495 
L 456.363259 197.950099 
L 459.373563 197.950099 
L 459.373563 194.117703 
L 461.8 194.117703 
" style="fill:none;stroke:#f5deb3;stroke-linecap:square;stroke-width:1.5;"/>
   </g>
   <g id="line2d_23">
    <path clip-path="url(#p296eba4515)" d="M 337.026138 293.76 
L 337.026138 289.927604 
L 340.36718 289.927604 
L 340.36718 286.095208 
L 342.311814 286.095208 
L 342.311814 282.262812 
L 346.611339 282.262812 
L 346.611339 278.430416 
L 347.019614 278.430416 
L 347.019614 274.59802 
L 350.283035 274.59802 
L 350.283035 270.765624 
L 461.8 270.765624 
" style="fill:none;stroke:#f5deb3;stroke-linecap:square;stroke-width:1.5;"/>
   </g>
   <g id="line2d_24">
    <path clip-path="url(#p296eba4515)" d="M 310.845907 293.76 
L 310.845907 289.927604 
L 315.126078 289.927604 
L 315.126078 286.095208 
L 317.77271 286.095208 
L 317.77271 282.262812 
L 322.94115 282.262812 
L 322.94115 278.430416 
L 384.01539 278.430416 
L 384.01539 274.59802 
L 389.133242 274.59802 
L 389.133242 270.765624 
L 389.613712 270.765624 
L 389.613712 266.933228 
L 390.436671 266.933228 
L 390.436671 263.100832 
L 398.884267 263.100832 
L 398.884267 259.268436 
L 404.188477 259.268436 
L 404.188477 255.43604 
L 411.286977 255.43604 
L 411.286977 251.603644 
L 412.300551 251.603644 
L 412.300551 247.771248 
L 412.44996 247.771248 
L 412.44996 243.938851 
L 446.270149 243.938851 
L 446.270149 240.106455 
L 446.752506 240.106455 
L 446.752506 236.274059 
L 446.913836 236.274059 
L 446.913836 232.441663 
L 449.900776 232.441663 
L 449.900776 228.609267 
L 452.189145 228.609267 
L 452.189145 224.776871 
L 452.253449 224.776871 
L 452.253449 220.944475 
L 453.483733 220.944475 
L 453.483733 217.112079 
L 456.810887 217.112079 
L 456.810887 213.279683 
L 461.8 213.279683 
" style="fill:none;stroke:#f5deb3;stroke-linecap:square;stroke-width:1.5;"/>
   </g>
   <g id="line2d_25">
    <path clip-path="url(#p296eba4515)" d="M 431.832228 293.76 
L 431.832228 289.927604 
L 433.328764 289.927604 
L 433.328764 286.095208 
L 434.094828 286.095208 
L 434.094828 282.262812 
L 461.8 282.262812 
" style="fill:none;stroke:#f5deb3;stroke-linecap:square;stroke-width:1.5;"/>
   </g>
   <g id="line2d_26">
    <path clip-path="url(#p296eba4515)" d="M 303.201551 293.76 
L 303.201551 289.927604 
L 323.99237 289.927604 
L 323.99237 286.095208 
L 330.337265 286.095208 
L 330.337265 282.262812 
L 334.889595 282.262812 
L 334.889595 278.430416 
L 341.766176 278.430416 
L 341.766176 274.59802 
L 391.023749 274.59802 
L 391.023749 270.765624 
L 431.765437 270.765624 
L 431.765437 266.933228 
L 432.411687 266.933228 
L 432.411687 263.100832 
L 432.852093 263.100832 
L 432.852093 259.268436 
L 439.727268 259.268436 
L 439.727268 255.43604 
L 450.50726 255.43604 
L 450.50726 251.603644 
L 450.931617 251.603644 
L 450.931617 247.771248 
L 461.8 247.771248 
" style="fill:none;stroke:#f5deb3;stroke-linecap:square;stroke-width:1.5;"/>
   </g>
   <g id="line2d_27">
    <path clip-path="url(#p296eba4515)" d="M 247.529012 293.76 
L 247.529012 289.927604 
L 297.660764 289.927604 
L 297.660764 286.095208 
L 300.04374 286.095208 
L 300.04374 282.262812 
L 305.548598 282.262812 
L 305.548598 278.430416 
L 307.088562 278.430416 
L 307.088562 274.59802 
L 325.99045 274.59802 
L 325.99045 270.765624 
L 335.090943 270.765624 
L 335.090943 266.933228 
L 335.372263 266.933228 
L 335.372263 263.100832 
L 349.913602 263.100832 
L 349.913602 259.268436 
L 354.097456 259.268436 
L 354.097456 255.43604 
L 354.131648 255.43604 
L 354.131648 251.603644 
L 369.534811 251.603644 
L 369.534811 247.771248 
L 377.368927 247.771248 
L 377.368927 243.938851 
L 380.170656 243.938851 
L 380.170656 240.106455 
L 386.703415 240.106455 
L 386.703415 236.274059 
L 386.819418 236.274059 
L 386.819418 232.441663 
L 387.035084 232.441663 
L 387.035084 228.609267 
L 390.331861 228.609267 
L 390.331861 224.776871 
L 392.376277 224.776871 
L 392.376277 220.944475 
L 404.576547 220.944475 
L 404.576547 217.112079 
L 407.104689 217.112079 
L 407.104689 213.279683 
L 408.316015 213.279683 
L 408.316015 209.447287 
L 410.045396 209.447287 
L 410.045396 205.614891 
L 413.684832 205.614891 
L 413.684832 201.782495 
L 417.749276 201.782495 
L 417.749276 197.950099 
L 440.621922 197.950099 
L 440.621922 194.117703 
L 444.650518 194.117703 
L 444.650518 190.285307 
L 447.067392 190.285307 
L 447.067392 186.452911 
L 453.376601 186.452911 
L 453.376601 182.620515 
L 461.409232 182.620515 
L 461.409232 178.788119 
L 461.409232 178.788119 
" style="fill:none;stroke:#f5deb3;stroke-linecap:square;stroke-width:1.5;"/>
   </g>
   <g id="line2d_28">
    <path clip-path="url(#p296eba4515)" d="M 280.98783 293.76 
L 280.98783 289.927604 
L 281.10893 289.927604 
L 281.10893 286.095208 
L 284.138593 286.095208 
L 284.138593 282.262812 
L 285.537513 282.262812 
L 285.537513 278.430416 
L 306.057358 278.430416 
L 306.057358 274.59802 
L 364.933392 274.59802 
L 364.933392 270.765624 
L 366.703387 270.765624 
L 366.703387 266.933228 
L 369.308523 266.933228 
L 369.308523 263.100832 
L 388.869585 263.100832 
L 388.869585 259.268436 
L 410.370869 259.268436 
L 410.370869 255.43604 
L 411.005613 255.43604 
L 411.005613 251.603644 
L 411.216176 251.603644 
L 411.216176 247.771248 
L 411.952323 247.771248 
L 411.952323 243.938851 
L 443.497881 243.938851 
L 443.497881 240.106455 
L 454.609949 240.106455 
L 454.609949 236.274059 
L 455.793826 236.274059 
L 455.793826 232.441663 
L 456.016912 232.441663 
L 456.016912 228.609267 
L 461.8 228.609267 
" style="fill:none;stroke:#f5deb3;stroke-linecap:square;stroke-width:1.5;"/>
   </g>
   <g id="line2d_29">
    <path clip-path="url(#p296eba4515)" d="M 336.157287 293.76 
L 336.157287 289.927604 
L 336.157287 289.927604 
L 336.157287 286.095208 
L 336.157287 286.095208 
L 336.157287 282.262812 
L 343.862777 282.262812 
L 343.862777 278.430416 
L 343.862777 278.430416 
L 343.862777 274.59802 
L 343.862777 274.59802 
L 343.862777 270.765624 
L 351.757445 270.765624 
L 351.757445 266.933228 
L 351.757445 266.933228 
L 351.757445 263.100832 
L 351.757445 263.100832 
L 351.757445 259.268436 
L 351.757445 259.268436 
L 351.757445 259.268436 
L 460.8 259.268436 
" style="fill:none;stroke:#f5deb3;stroke-linecap:square;stroke-width:1.5;"/>
   </g>
   <g id="line2d_30">
    <path clip-path="url(#p296eba4515)" d="M 427.885224 293.76 
L 427.885224 289.927604 
L 439.684115 289.927604 
L 439.684115 286.095208 
L 440.225572 286.095208 
L 440.225572 282.262812 
L 440.225572 282.262812 
L 440.225572 282.262812 
L 460.8 282.262812 
" style="fill:none;stroke:#f5deb3;stroke-linecap:square;stroke-width:1.5;"/>
   </g>
   <g id="matplotlib.axis_1">
    <g id="xtick_1">
     <g id="line2d_31">
      <path clip-path="url(#p296eba4515)" d="M 156.968021 293.76 
L 156.968021 3.456 
" style="fill:none;stroke:#b0b0b0;stroke-linecap:square;stroke-width:0.8;"/>
     </g>
     <g id="line2d_32">
      <defs>
       <path d="M 0 0 
L 0 3.5 
" id="m050b50a4c7" style="stroke:#000000;stroke-width:0.8;"/>
      </defs>
      <g>
       <use style="stroke:#000000;stroke-width:0.8;" x="156.968021" xlink:href="#m050b50a4c7" y="293.76"/>
      </g>
     </g>
     <g id="text_1">
      <!-- 1 -->
      <g transform="translate(150.605521 315.956875)scale(0.2 -0.2)">
       <defs>
        <path d="M 794 531 
L 1825 531 
L 1825 4091 
L 703 3866 
L 703 4441 
L 1819 4666 
L 2450 4666 
L 2450 531 
L 3481 531 
L 3481 0 
L 794 0 
L 794 531 
z
" id="DejaVuSans-31" transform="scale(0.015625)"/>
       </defs>
       <use xlink:href="#DejaVuSans-31"/>
      </g>
     </g>
    </g>
    <g id="xtick_2">
     <g id="line2d_33">
      <path clip-path="url(#p296eba4515)" d="M 346.488063 293.76 
L 346.488063 3.456 
" style="fill:none;stroke:#b0b0b0;stroke-linecap:square;stroke-width:0.8;"/>
     </g>
     <g id="line2d_34">
      <g>
       <use style="stroke:#000000;stroke-width:0.8;" x="346.488063" xlink:href="#m050b50a4c7" y="293.76"/>
      </g>
     </g>
     <g id="text_2">
      <!-- 3 -->
      <g transform="translate(340.125563 315.956875)scale(0.2 -0.2)">
       <defs>
        <path d="M 2597 2516 
Q 3050 2419 3304 2112 
Q 3559 1806 3559 1356 
Q 3559 666 3084 287 
Q 2609 -91 1734 -91 
Q 1441 -91 1130 -33 
Q 819 25 488 141 
L 488 750 
Q 750 597 1062 519 
Q 1375 441 1716 441 
Q 2309 441 2620 675 
Q 2931 909 2931 1356 
Q 2931 1769 2642 2001 
Q 2353 2234 1838 2234 
L 1294 2234 
L 1294 2753 
L 1863 2753 
Q 2328 2753 2575 2939 
Q 2822 3125 2822 3475 
Q 2822 3834 2567 4026 
Q 2313 4219 1838 4219 
Q 1578 4219 1281 4162 
Q 984 4106 628 3988 
L 628 4550 
Q 988 4650 1302 4700 
Q 1616 4750 1894 4750 
Q 2613 4750 3031 4423 
Q 3450 4097 3450 3541 
Q 3450 3153 3228 2886 
Q 3006 2619 2597 2516 
z
" id="DejaVuSans-33" transform="scale(0.015625)"/>
       </defs>
       <use xlink:href="#DejaVuSans-33"/>
      </g>
     </g>
    </g>
    <g id="xtick_3">
     <g id="line2d_35">
      <path clip-path="url(#p296eba4515)" d="M 90.733609 293.76 
L 90.733609 3.456 
" style="fill:none;stroke:#b0b0b0;stroke-linecap:square;stroke-width:0.8;"/>
     </g>
     <g id="line2d_36">
      <defs>
       <path d="M 0 0 
L 0 2 
" id="m52bb2ec92b" style="stroke:#000000;stroke-width:0.6;"/>
      </defs>
      <g>
       <use style="stroke:#000000;stroke-width:0.6;" x="90.733609" xlink:href="#m52bb2ec92b" y="293.76"/>
      </g>
     </g>
    </g>
    <g id="xtick_4">
     <g id="line2d_37">
      <path clip-path="url(#p296eba4515)" d="M 107.42002 293.76 
L 107.42002 3.456 
" style="fill:none;stroke:#b0b0b0;stroke-linecap:square;stroke-width:0.8;"/>
     </g>
     <g id="line2d_38">
      <g>
       <use style="stroke:#000000;stroke-width:0.6;" x="107.42002" xlink:href="#m52bb2ec92b" y="293.76"/>
      </g>
     </g>
    </g>
    <g id="xtick_5">
     <g id="line2d_39">
      <path clip-path="url(#p296eba4515)" d="M 119.259217 293.76 
L 119.259217 3.456 
" style="fill:none;stroke:#b0b0b0;stroke-linecap:square;stroke-width:0.8;"/>
     </g>
     <g id="line2d_40">
      <g>
       <use style="stroke:#000000;stroke-width:0.6;" x="119.259217" xlink:href="#m52bb2ec92b" y="293.76"/>
      </g>
     </g>
    </g>
    <g id="xtick_6">
     <g id="line2d_41">
      <path clip-path="url(#p296eba4515)" d="M 128.442412 293.76 
L 128.442412 3.456 
" style="fill:none;stroke:#b0b0b0;stroke-linecap:square;stroke-width:0.8;"/>
     </g>
     <g id="line2d_42">
      <g>
       <use style="stroke:#000000;stroke-width:0.6;" x="128.442412" xlink:href="#m52bb2ec92b" y="293.76"/>
      </g>
     </g>
    </g>
    <g id="xtick_7">
     <g id="line2d_43">
      <path clip-path="url(#p296eba4515)" d="M 135.945629 293.76 
L 135.945629 3.456 
" style="fill:none;stroke:#b0b0b0;stroke-linecap:square;stroke-width:0.8;"/>
     </g>
     <g id="line2d_44">
      <g>
       <use style="stroke:#000000;stroke-width:0.6;" x="135.945629" xlink:href="#m52bb2ec92b" y="293.76"/>
      </g>
     </g>
    </g>
    <g id="xtick_8">
     <g id="line2d_45">
      <path clip-path="url(#p296eba4515)" d="M 142.289508 293.76 
L 142.289508 3.456 
" style="fill:none;stroke:#b0b0b0;stroke-linecap:square;stroke-width:0.8;"/>
     </g>
     <g id="line2d_46">
      <g>
       <use style="stroke:#000000;stroke-width:0.6;" x="142.289508" xlink:href="#m52bb2ec92b" y="293.76"/>
      </g>
     </g>
    </g>
    <g id="xtick_9">
     <g id="line2d_47">
      <path clip-path="url(#p296eba4515)" d="M 147.784826 293.76 
L 147.784826 3.456 
" style="fill:none;stroke:#b0b0b0;stroke-linecap:square;stroke-width:0.8;"/>
     </g>
     <g id="line2d_48">
      <g>
       <use style="stroke:#000000;stroke-width:0.6;" x="147.784826" xlink:href="#m52bb2ec92b" y="293.76"/>
      </g>
     </g>
    </g>
    <g id="xtick_10">
     <g id="line2d_49">
      <path clip-path="url(#p296eba4515)" d="M 152.63204 293.76 
L 152.63204 3.456 
" style="fill:none;stroke:#b0b0b0;stroke-linecap:square;stroke-width:0.8;"/>
     </g>
     <g id="line2d_50">
      <g>
       <use style="stroke:#000000;stroke-width:0.6;" x="152.63204" xlink:href="#m52bb2ec92b" y="293.76"/>
      </g>
     </g>
    </g>
    <g id="xtick_11">
     <g id="line2d_51">
      <path clip-path="url(#p296eba4515)" d="M 185.49363 293.76 
L 185.49363 3.456 
" style="fill:none;stroke:#b0b0b0;stroke-linecap:square;stroke-width:0.8;"/>
     </g>
     <g id="line2d_52">
      <g>
       <use style="stroke:#000000;stroke-width:0.6;" x="185.49363" xlink:href="#m52bb2ec92b" y="293.76"/>
      </g>
     </g>
    </g>
    <g id="xtick_12">
     <g id="line2d_53">
      <path clip-path="url(#p296eba4515)" d="M 202.180041 293.76 
L 202.180041 3.456 
" style="fill:none;stroke:#b0b0b0;stroke-linecap:square;stroke-width:0.8;"/>
     </g>
     <g id="line2d_54">
      <g>
       <use style="stroke:#000000;stroke-width:0.6;" x="202.180041" xlink:href="#m52bb2ec92b" y="293.76"/>
      </g>
     </g>
    </g>
    <g id="xtick_13">
     <g id="line2d_55">
      <path clip-path="url(#p296eba4515)" d="M 214.019238 293.76 
L 214.019238 3.456 
" style="fill:none;stroke:#b0b0b0;stroke-linecap:square;stroke-width:0.8;"/>
     </g>
     <g id="line2d_56">
      <g>
       <use style="stroke:#000000;stroke-width:0.6;" x="214.019238" xlink:href="#m52bb2ec92b" y="293.76"/>
      </g>
     </g>
    </g>
    <g id="xtick_14">
     <g id="line2d_57">
      <path clip-path="url(#p296eba4515)" d="M 223.202433 293.76 
L 223.202433 3.456 
" style="fill:none;stroke:#b0b0b0;stroke-linecap:square;stroke-width:0.8;"/>
     </g>
     <g id="line2d_58">
      <g>
       <use style="stroke:#000000;stroke-width:0.6;" x="223.202433" xlink:href="#m52bb2ec92b" y="293.76"/>
      </g>
     </g>
    </g>
    <g id="xtick_15">
     <g id="line2d_59">
      <path clip-path="url(#p296eba4515)" d="M 230.70565 293.76 
L 230.70565 3.456 
" style="fill:none;stroke:#b0b0b0;stroke-linecap:square;stroke-width:0.8;"/>
     </g>
     <g id="line2d_60">
      <g>
       <use style="stroke:#000000;stroke-width:0.6;" x="230.70565" xlink:href="#m52bb2ec92b" y="293.76"/>
      </g>
     </g>
    </g>
    <g id="xtick_16">
     <g id="line2d_61">
      <path clip-path="url(#p296eba4515)" d="M 237.049529 293.76 
L 237.049529 3.456 
" style="fill:none;stroke:#b0b0b0;stroke-linecap:square;stroke-width:0.8;"/>
     </g>
     <g id="line2d_62">
      <g>
       <use style="stroke:#000000;stroke-width:0.6;" x="237.049529" xlink:href="#m52bb2ec92b" y="293.76"/>
      </g>
     </g>
    </g>
    <g id="xtick_17">
     <g id="line2d_63">
      <path clip-path="url(#p296eba4515)" d="M 242.544847 293.76 
L 242.544847 3.456 
" style="fill:none;stroke:#b0b0b0;stroke-linecap:square;stroke-width:0.8;"/>
     </g>
     <g id="line2d_64">
      <g>
       <use style="stroke:#000000;stroke-width:0.6;" x="242.544847" xlink:href="#m52bb2ec92b" y="293.76"/>
      </g>
     </g>
    </g>
    <g id="xtick_18">
     <g id="line2d_65">
      <path clip-path="url(#p296eba4515)" d="M 247.392061 293.76 
L 247.392061 3.456 
" style="fill:none;stroke:#b0b0b0;stroke-linecap:square;stroke-width:0.8;"/>
     </g>
     <g id="line2d_66">
      <g>
       <use style="stroke:#000000;stroke-width:0.6;" x="247.392061" xlink:href="#m52bb2ec92b" y="293.76"/>
      </g>
     </g>
    </g>
    <g id="xtick_19">
     <g id="line2d_67">
      <path clip-path="url(#p296eba4515)" d="M 280.25365 293.76 
L 280.25365 3.456 
" style="fill:none;stroke:#b0b0b0;stroke-linecap:square;stroke-width:0.8;"/>
     </g>
     <g id="line2d_68">
      <g>
       <use style="stroke:#000000;stroke-width:0.6;" x="280.25365" xlink:href="#m52bb2ec92b" y="293.76"/>
      </g>
     </g>
    </g>
    <g id="xtick_20">
     <g id="line2d_69">
      <path clip-path="url(#p296eba4515)" d="M 296.940062 293.76 
L 296.940062 3.456 
" style="fill:none;stroke:#b0b0b0;stroke-linecap:square;stroke-width:0.8;"/>
     </g>
     <g id="line2d_70">
      <g>
       <use style="stroke:#000000;stroke-width:0.6;" x="296.940062" xlink:href="#m52bb2ec92b" y="293.76"/>
      </g>
     </g>
    </g>
    <g id="xtick_21">
     <g id="line2d_71">
      <path clip-path="url(#p296eba4515)" d="M 308.779259 293.76 
L 308.779259 3.456 
" style="fill:none;stroke:#b0b0b0;stroke-linecap:square;stroke-width:0.8;"/>
     </g>
     <g id="line2d_72">
      <g>
       <use style="stroke:#000000;stroke-width:0.6;" x="308.779259" xlink:href="#m52bb2ec92b" y="293.76"/>
      </g>
     </g>
    </g>
    <g id="xtick_22">
     <g id="line2d_73">
      <path clip-path="url(#p296eba4515)" d="M 317.962454 293.76 
L 317.962454 3.456 
" style="fill:none;stroke:#b0b0b0;stroke-linecap:square;stroke-width:0.8;"/>
     </g>
     <g id="line2d_74">
      <g>
       <use style="stroke:#000000;stroke-width:0.6;" x="317.962454" xlink:href="#m52bb2ec92b" y="293.76"/>
      </g>
     </g>
    </g>
    <g id="xtick_23">
     <g id="line2d_75">
      <path clip-path="url(#p296eba4515)" d="M 325.465671 293.76 
L 325.465671 3.456 
" style="fill:none;stroke:#b0b0b0;stroke-linecap:square;stroke-width:0.8;"/>
     </g>
     <g id="line2d_76">
      <g>
       <use style="stroke:#000000;stroke-width:0.6;" x="325.465671" xlink:href="#m52bb2ec92b" y="293.76"/>
      </g>
     </g>
    </g>
    <g id="xtick_24">
     <g id="line2d_77">
      <path clip-path="url(#p296eba4515)" d="M 331.80955 293.76 
L 331.80955 3.456 
" style="fill:none;stroke:#b0b0b0;stroke-linecap:square;stroke-width:0.8;"/>
     </g>
     <g id="line2d_78">
      <g>
       <use style="stroke:#000000;stroke-width:0.6;" x="331.80955" xlink:href="#m52bb2ec92b" y="293.76"/>
      </g>
     </g>
    </g>
    <g id="xtick_25">
     <g id="line2d_79">
      <path clip-path="url(#p296eba4515)" d="M 337.304868 293.76 
L 337.304868 3.456 
" style="fill:none;stroke:#b0b0b0;stroke-linecap:square;stroke-width:0.8;"/>
     </g>
     <g id="line2d_80">
      <g>
       <use style="stroke:#000000;stroke-width:0.6;" x="337.304868" xlink:href="#m52bb2ec92b" y="293.76"/>
      </g>
     </g>
    </g>
    <g id="xtick_26">
     <g id="line2d_81">
      <path clip-path="url(#p296eba4515)" d="M 342.152082 293.76 
L 342.152082 3.456 
" style="fill:none;stroke:#b0b0b0;stroke-linecap:square;stroke-width:0.8;"/>
     </g>
     <g id="line2d_82">
      <g>
       <use style="stroke:#000000;stroke-width:0.6;" x="342.152082" xlink:href="#m52bb2ec92b" y="293.76"/>
      </g>
     </g>
    </g>
    <g id="xtick_27">
     <g id="line2d_83">
      <path clip-path="url(#p296eba4515)" d="M 375.013671 293.76 
L 375.013671 3.456 
" style="fill:none;stroke:#b0b0b0;stroke-linecap:square;stroke-width:0.8;"/>
     </g>
     <g id="line2d_84">
      <g>
       <use style="stroke:#000000;stroke-width:0.6;" x="375.013671" xlink:href="#m52bb2ec92b" y="293.76"/>
      </g>
     </g>
    </g>
    <g id="xtick_28">
     <g id="line2d_85">
      <path clip-path="url(#p296eba4515)" d="M 391.700083 293.76 
L 391.700083 3.456 
" style="fill:none;stroke:#b0b0b0;stroke-linecap:square;stroke-width:0.8;"/>
     </g>
     <g id="line2d_86">
      <g>
       <use style="stroke:#000000;stroke-width:0.6;" x="391.700083" xlink:href="#m52bb2ec92b" y="293.76"/>
      </g>
     </g>
    </g>
    <g id="xtick_29">
     <g id="line2d_87">
      <path clip-path="url(#p296eba4515)" d="M 403.53928 293.76 
L 403.53928 3.456 
" style="fill:none;stroke:#b0b0b0;stroke-linecap:square;stroke-width:0.8;"/>
     </g>
     <g id="line2d_88">
      <g>
       <use style="stroke:#000000;stroke-width:0.6;" x="403.53928" xlink:href="#m52bb2ec92b" y="293.76"/>
      </g>
     </g>
    </g>
    <g id="xtick_30">
     <g id="line2d_89">
      <path clip-path="url(#p296eba4515)" d="M 412.722475 293.76 
L 412.722475 3.456 
" style="fill:none;stroke:#b0b0b0;stroke-linecap:square;stroke-width:0.8;"/>
     </g>
     <g id="line2d_90">
      <g>
       <use style="stroke:#000000;stroke-width:0.6;" x="412.722475" xlink:href="#m52bb2ec92b" y="293.76"/>
      </g>
     </g>
    </g>
    <g id="xtick_31">
     <g id="line2d_91">
      <path clip-path="url(#p296eba4515)" d="M 420.225691 293.76 
L 420.225691 3.456 
" style="fill:none;stroke:#b0b0b0;stroke-linecap:square;stroke-width:0.8;"/>
     </g>
     <g id="line2d_92">
      <g>
       <use style="stroke:#000000;stroke-width:0.6;" x="420.225691" xlink:href="#m52bb2ec92b" y="293.76"/>
      </g>
     </g>
    </g>
    <g id="xtick_32">
     <g id="line2d_93">
      <path clip-path="url(#p296eba4515)" d="M 426.569571 293.76 
L 426.569571 3.456 
" style="fill:none;stroke:#b0b0b0;stroke-linecap:square;stroke-width:0.8;"/>
     </g>
     <g id="line2d_94">
      <g>
       <use style="stroke:#000000;stroke-width:0.6;" x="426.569571" xlink:href="#m52bb2ec92b" y="293.76"/>
      </g>
     </g>
    </g>
    <g id="xtick_33">
     <g id="line2d_95">
      <path clip-path="url(#p296eba4515)" d="M 432.064889 293.76 
L 432.064889 3.456 
" style="fill:none;stroke:#b0b0b0;stroke-linecap:square;stroke-width:0.8;"/>
     </g>
     <g id="line2d_96">
      <g>
       <use style="stroke:#000000;stroke-width:0.6;" x="432.064889" xlink:href="#m52bb2ec92b" y="293.76"/>
      </g>
     </g>
    </g>
    <g id="xtick_34">
     <g id="line2d_97">
      <path clip-path="url(#p296eba4515)" d="M 436.912103 293.76 
L 436.912103 3.456 
" style="fill:none;stroke:#b0b0b0;stroke-linecap:square;stroke-width:0.8;"/>
     </g>
     <g id="line2d_98">
      <g>
       <use style="stroke:#000000;stroke-width:0.6;" x="436.912103" xlink:href="#m52bb2ec92b" y="293.76"/>
      </g>
     </g>
    </g>
    <g id="text_3">
     <!-- log10 of FEvals / DIM -->
     <g transform="translate(156.430563 339.313125)scale(0.2 -0.2)">
      <defs>
       <path d="M 603 4863 
L 1178 4863 
L 1178 0 
L 603 0 
L 603 4863 
z
" id="DejaVuSans-6c" transform="scale(0.015625)"/>
       <path d="M 1959 3097 
Q 1497 3097 1228 2736 
Q 959 2375 959 1747 
Q 959 1119 1226 758 
Q 1494 397 1959 397 
Q 2419 397 2687 759 
Q 2956 1122 2956 1747 
Q 2956 2369 2687 2733 
Q 2419 3097 1959 3097 
z
M 1959 3584 
Q 2709 3584 3137 3096 
Q 3566 2609 3566 1747 
Q 3566 888 3137 398 
Q 2709 -91 1959 -91 
Q 1206 -91 779 398 
Q 353 888 353 1747 
Q 353 2609 779 3096 
Q 1206 3584 1959 3584 
z
" id="DejaVuSans-6f" transform="scale(0.015625)"/>
       <path d="M 2906 1791 
Q 2906 2416 2648 2759 
Q 2391 3103 1925 3103 
Q 1463 3103 1205 2759 
Q 947 2416 947 1791 
Q 947 1169 1205 825 
Q 1463 481 1925 481 
Q 2391 481 2648 825 
Q 2906 1169 2906 1791 
z
M 3481 434 
Q 3481 -459 3084 -895 
Q 2688 -1331 1869 -1331 
Q 1566 -1331 1297 -1286 
Q 1028 -1241 775 -1147 
L 775 -588 
Q 1028 -725 1275 -790 
Q 1522 -856 1778 -856 
Q 2344 -856 2625 -561 
Q 2906 -266 2906 331 
L 2906 616 
Q 2728 306 2450 153 
Q 2172 0 1784 0 
Q 1141 0 747 490 
Q 353 981 353 1791 
Q 353 2603 747 3093 
Q 1141 3584 1784 3584 
Q 2172 3584 2450 3431 
Q 2728 3278 2906 2969 
L 2906 3500 
L 3481 3500 
L 3481 434 
z
" id="DejaVuSans-67" transform="scale(0.015625)"/>
       <path d="M 2034 4250 
Q 1547 4250 1301 3770 
Q 1056 3291 1056 2328 
Q 1056 1369 1301 889 
Q 1547 409 2034 409 
Q 2525 409 2770 889 
Q 3016 1369 3016 2328 
Q 3016 3291 2770 3770 
Q 2525 4250 2034 4250 
z
M 2034 4750 
Q 2819 4750 3233 4129 
Q 3647 3509 3647 2328 
Q 3647 1150 3233 529 
Q 2819 -91 2034 -91 
Q 1250 -91 836 529 
Q 422 1150 422 2328 
Q 422 3509 836 4129 
Q 1250 4750 2034 4750 
z
" id="DejaVuSans-30" transform="scale(0.015625)"/>
       <path id="DejaVuSans-20" transform="scale(0.015625)"/>
       <path d="M 2375 4863 
L 2375 4384 
L 1825 4384 
Q 1516 4384 1395 4259 
Q 1275 4134 1275 3809 
L 1275 3500 
L 2222 3500 
L 2222 3053 
L 1275 3053 
L 1275 0 
L 697 0 
L 697 3053 
L 147 3053 
L 147 3500 
L 697 3500 
L 697 3744 
Q 697 4328 969 4595 
Q 1241 4863 1831 4863 
L 2375 4863 
z
" id="DejaVuSans-66" transform="scale(0.015625)"/>
       <path d="M 628 4666 
L 3309 4666 
L 3309 4134 
L 1259 4134 
L 1259 2759 
L 3109 2759 
L 3109 2228 
L 1259 2228 
L 1259 0 
L 628 0 
L 628 4666 
z
" id="DejaVuSans-46" transform="scale(0.015625)"/>
       <path d="M 628 4666 
L 3578 4666 
L 3578 4134 
L 1259 4134 
L 1259 2753 
L 3481 2753 
L 3481 2222 
L 1259 2222 
L 1259 531 
L 3634 531 
L 3634 0 
L 628 0 
L 628 4666 
z
" id="DejaVuSans-45" transform="scale(0.015625)"/>
       <path d="M 191 3500 
L 800 3500 
L 1894 563 
L 2988 3500 
L 3597 3500 
L 2284 0 
L 1503 0 
L 191 3500 
z
" id="DejaVuSans-76" transform="scale(0.015625)"/>
       <path d="M 2194 1759 
Q 1497 1759 1228 1600 
Q 959 1441 959 1056 
Q 959 750 1161 570 
Q 1363 391 1709 391 
Q 2188 391 2477 730 
Q 2766 1069 2766 1631 
L 2766 1759 
L 2194 1759 
z
M 3341 1997 
L 3341 0 
L 2766 0 
L 2766 531 
Q 2569 213 2275 61 
Q 1981 -91 1556 -91 
Q 1019 -91 701 211 
Q 384 513 384 1019 
Q 384 1609 779 1909 
Q 1175 2209 1959 2209 
L 2766 2209 
L 2766 2266 
Q 2766 2663 2505 2880 
Q 2244 3097 1772 3097 
Q 1472 3097 1187 3025 
Q 903 2953 641 2809 
L 641 3341 
Q 956 3463 1253 3523 
Q 1550 3584 1831 3584 
Q 2591 3584 2966 3190 
Q 3341 2797 3341 1997 
z
" id="DejaVuSans-61" transform="scale(0.015625)"/>
       <path d="M 2834 3397 
L 2834 2853 
Q 2591 2978 2328 3040 
Q 2066 3103 1784 3103 
Q 1356 3103 1142 2972 
Q 928 2841 928 2578 
Q 928 2378 1081 2264 
Q 1234 2150 1697 2047 
L 1894 2003 
Q 2506 1872 2764 1633 
Q 3022 1394 3022 966 
Q 3022 478 2636 193 
Q 2250 -91 1575 -91 
Q 1294 -91 989 -36 
Q 684 19 347 128 
L 347 722 
Q 666 556 975 473 
Q 1284 391 1588 391 
Q 1994 391 2212 530 
Q 2431 669 2431 922 
Q 2431 1156 2273 1281 
Q 2116 1406 1581 1522 
L 1381 1569 
Q 847 1681 609 1914 
Q 372 2147 372 2553 
Q 372 3047 722 3315 
Q 1072 3584 1716 3584 
Q 2034 3584 2315 3537 
Q 2597 3491 2834 3397 
z
" id="DejaVuSans-73" transform="scale(0.015625)"/>
       <path d="M 1625 4666 
L 2156 4666 
L 531 -594 
L 0 -594 
L 1625 4666 
z
" id="DejaVuSans-2f" transform="scale(0.015625)"/>
       <path d="M 1259 4147 
L 1259 519 
L 2022 519 
Q 2988 519 3436 956 
Q 3884 1394 3884 2338 
Q 3884 3275 3436 3711 
Q 2988 4147 2022 4147 
L 1259 4147 
z
M 628 4666 
L 1925 4666 
Q 3281 4666 3915 4102 
Q 4550 3538 4550 2338 
Q 4550 1131 3912 565 
Q 3275 0 1925 0 
L 628 0 
L 628 4666 
z
" id="DejaVuSans-44" transform="scale(0.015625)"/>
       <path d="M 628 4666 
L 1259 4666 
L 1259 0 
L 628 0 
L 628 4666 
z
" id="DejaVuSans-49" transform="scale(0.015625)"/>
       <path d="M 628 4666 
L 1569 4666 
L 2759 1491 
L 3956 4666 
L 4897 4666 
L 4897 0 
L 4281 0 
L 4281 4097 
L 3078 897 
L 2444 897 
L 1241 4097 
L 1241 0 
L 628 0 
L 628 4666 
z
" id="DejaVuSans-4d" transform="scale(0.015625)"/>
      </defs>
      <use xlink:href="#DejaVuSans-6c"/>
      <use x="27.783203" xlink:href="#DejaVuSans-6f"/>
      <use x="88.964844" xlink:href="#DejaVuSans-67"/>
      <use x="152.441406" xlink:href="#DejaVuSans-31"/>
      <use x="216.064453" xlink:href="#DejaVuSans-30"/>
      <use x="279.6875" xlink:href="#DejaVuSans-20"/>
      <use x="311.474609" xlink:href="#DejaVuSans-6f"/>
      <use x="372.65625" xlink:href="#DejaVuSans-66"/>
      <use x="407.861328" xlink:href="#DejaVuSans-20"/>
      <use x="439.648438" xlink:href="#DejaVuSans-46"/>
      <use x="497.167969" xlink:href="#DejaVuSans-45"/>
      <use x="560.351562" xlink:href="#DejaVuSans-76"/>
      <use x="619.53125" xlink:href="#DejaVuSans-61"/>
      <use x="680.810547" xlink:href="#DejaVuSans-6c"/>
      <use x="708.59375" xlink:href="#DejaVuSans-73"/>
      <use x="760.693359" xlink:href="#DejaVuSans-20"/>
      <use x="792.480469" xlink:href="#DejaVuSans-2f"/>
      <use x="826.171875" xlink:href="#DejaVuSans-20"/>
      <use x="857.958984" xlink:href="#DejaVuSans-44"/>
      <use x="934.960938" xlink:href="#DejaVuSans-49"/>
      <use x="964.453125" xlink:href="#DejaVuSans-4d"/>
     </g>
    </g>
   </g>
   <g id="matplotlib.axis_2">
    <g id="ytick_1">
     <g id="line2d_99">
      <path clip-path="url(#p296eba4515)" d="M 62.208 293.76 
L 460.8 293.76 
" style="fill:none;stroke:#b0b0b0;stroke-linecap:square;stroke-width:0.8;"/>
     </g>
     <g id="line2d_100">
      <defs>
       <path d="M 0 0 
L -3.5 0 
" id="m206837f2fa" style="stroke:#000000;stroke-width:0.8;"/>
      </defs>
      <g>
       <use style="stroke:#000000;stroke-width:0.8;" x="62.208" xlink:href="#m206837f2fa" y="293.76"/>
      </g>
     </g>
     <g id="text_4">
      <!-- 0.0 -->
      <g transform="translate(29.763 299.83875)scale(0.16 -0.16)">
       <defs>
        <path d="M 684 794 
L 1344 794 
L 1344 0 
L 684 0 
L 684 794 
z
" id="DejaVuSans-2e" transform="scale(0.015625)"/>
       </defs>
       <use xlink:href="#DejaVuSans-30"/>
       <use x="63.623047" xlink:href="#DejaVuSans-2e"/>
       <use x="95.410156" xlink:href="#DejaVuSans-30"/>
      </g>
     </g>
    </g>
    <g id="ytick_2">
     <g id="line2d_101">
      <path clip-path="url(#p296eba4515)" d="M 62.208 236.274059 
L 460.8 236.274059 
" style="fill:none;stroke:#b0b0b0;stroke-linecap:square;stroke-width:0.8;"/>
     </g>
     <g id="line2d_102">
      <g>
       <use style="stroke:#000000;stroke-width:0.8;" x="62.208" xlink:href="#m206837f2fa" y="236.274059"/>
      </g>
     </g>
     <g id="text_5">
      <!-- 0.2 -->
      <g transform="translate(29.763 242.352809)scale(0.16 -0.16)">
       <defs>
        <path d="M 1228 531 
L 3431 531 
L 3431 0 
L 469 0 
L 469 531 
Q 828 903 1448 1529 
Q 2069 2156 2228 2338 
Q 2531 2678 2651 2914 
Q 2772 3150 2772 3378 
Q 2772 3750 2511 3984 
Q 2250 4219 1831 4219 
Q 1534 4219 1204 4116 
Q 875 4013 500 3803 
L 500 4441 
Q 881 4594 1212 4672 
Q 1544 4750 1819 4750 
Q 2544 4750 2975 4387 
Q 3406 4025 3406 3419 
Q 3406 3131 3298 2873 
Q 3191 2616 2906 2266 
Q 2828 2175 2409 1742 
Q 1991 1309 1228 531 
z
" id="DejaVuSans-32" transform="scale(0.015625)"/>
       </defs>
       <use xlink:href="#DejaVuSans-30"/>
       <use x="63.623047" xlink:href="#DejaVuSans-2e"/>
       <use x="95.410156" xlink:href="#DejaVuSans-32"/>
      </g>
     </g>
    </g>
    <g id="ytick_3">
     <g id="line2d_103">
      <path clip-path="url(#p296eba4515)" d="M 62.208 178.788119 
L 460.8 178.788119 
" style="fill:none;stroke:#b0b0b0;stroke-linecap:square;stroke-width:0.8;"/>
     </g>
     <g id="line2d_104">
      <g>
       <use style="stroke:#000000;stroke-width:0.8;" x="62.208" xlink:href="#m206837f2fa" y="178.788119"/>
      </g>
     </g>
     <g id="text_6">
      <!-- 0.4 -->
      <g transform="translate(29.763 184.866869)scale(0.16 -0.16)">
       <defs>
        <path d="M 2419 4116 
L 825 1625 
L 2419 1625 
L 2419 4116 
z
M 2253 4666 
L 3047 4666 
L 3047 1625 
L 3713 1625 
L 3713 1100 
L 3047 1100 
L 3047 0 
L 2419 0 
L 2419 1100 
L 313 1100 
L 313 1709 
L 2253 4666 
z
" id="DejaVuSans-34" transform="scale(0.015625)"/>
       </defs>
       <use xlink:href="#DejaVuSans-30"/>
       <use x="63.623047" xlink:href="#DejaVuSans-2e"/>
       <use x="95.410156" xlink:href="#DejaVuSans-34"/>
      </g>
     </g>
    </g>
    <g id="ytick_4">
     <g id="line2d_105">
      <path clip-path="url(#p296eba4515)" d="M 62.208 121.302178 
L 460.8 121.302178 
" style="fill:none;stroke:#b0b0b0;stroke-linecap:square;stroke-width:0.8;"/>
     </g>
     <g id="line2d_106">
      <g>
       <use style="stroke:#000000;stroke-width:0.8;" x="62.208" xlink:href="#m206837f2fa" y="121.302178"/>
      </g>
     </g>
     <g id="text_7">
      <!-- 0.6 -->
      <g transform="translate(29.763 127.380928)scale(0.16 -0.16)">
       <defs>
        <path d="M 2113 2584 
Q 1688 2584 1439 2293 
Q 1191 2003 1191 1497 
Q 1191 994 1439 701 
Q 1688 409 2113 409 
Q 2538 409 2786 701 
Q 3034 994 3034 1497 
Q 3034 2003 2786 2293 
Q 2538 2584 2113 2584 
z
M 3366 4563 
L 3366 3988 
Q 3128 4100 2886 4159 
Q 2644 4219 2406 4219 
Q 1781 4219 1451 3797 
Q 1122 3375 1075 2522 
Q 1259 2794 1537 2939 
Q 1816 3084 2150 3084 
Q 2853 3084 3261 2657 
Q 3669 2231 3669 1497 
Q 3669 778 3244 343 
Q 2819 -91 2113 -91 
Q 1303 -91 875 529 
Q 447 1150 447 2328 
Q 447 3434 972 4092 
Q 1497 4750 2381 4750 
Q 2619 4750 2861 4703 
Q 3103 4656 3366 4563 
z
" id="DejaVuSans-36" transform="scale(0.015625)"/>
       </defs>
       <use xlink:href="#DejaVuSans-30"/>
       <use x="63.623047" xlink:href="#DejaVuSans-2e"/>
       <use x="95.410156" xlink:href="#DejaVuSans-36"/>
      </g>
     </g>
    </g>
    <g id="ytick_5">
     <g id="line2d_107">
      <path clip-path="url(#p296eba4515)" d="M 62.208 63.816238 
L 460.8 63.816238 
" style="fill:none;stroke:#b0b0b0;stroke-linecap:square;stroke-width:0.8;"/>
     </g>
     <g id="line2d_108">
      <g>
       <use style="stroke:#000000;stroke-width:0.8;" x="62.208" xlink:href="#m206837f2fa" y="63.816238"/>
      </g>
     </g>
     <g id="text_8">
      <!-- 0.8 -->
      <g transform="translate(29.763 69.894988)scale(0.16 -0.16)">
       <defs>
        <path d="M 2034 2216 
Q 1584 2216 1326 1975 
Q 1069 1734 1069 1313 
Q 1069 891 1326 650 
Q 1584 409 2034 409 
Q 2484 409 2743 651 
Q 3003 894 3003 1313 
Q 3003 1734 2745 1975 
Q 2488 2216 2034 2216 
z
M 1403 2484 
Q 997 2584 770 2862 
Q 544 3141 544 3541 
Q 544 4100 942 4425 
Q 1341 4750 2034 4750 
Q 2731 4750 3128 4425 
Q 3525 4100 3525 3541 
Q 3525 3141 3298 2862 
Q 3072 2584 2669 2484 
Q 3125 2378 3379 2068 
Q 3634 1759 3634 1313 
Q 3634 634 3220 271 
Q 2806 -91 2034 -91 
Q 1263 -91 848 271 
Q 434 634 434 1313 
Q 434 1759 690 2068 
Q 947 2378 1403 2484 
z
M 1172 3481 
Q 1172 3119 1398 2916 
Q 1625 2713 2034 2713 
Q 2441 2713 2670 2916 
Q 2900 3119 2900 3481 
Q 2900 3844 2670 4047 
Q 2441 4250 2034 4250 
Q 1625 4250 1398 4047 
Q 1172 3844 1172 3481 
z
" id="DejaVuSans-38" transform="scale(0.015625)"/>
       </defs>
       <use xlink:href="#DejaVuSans-30"/>
       <use x="63.623047" xlink:href="#DejaVuSans-2e"/>
       <use x="95.410156" xlink:href="#DejaVuSans-38"/>
      </g>
     </g>
    </g>
    <g id="ytick_6">
     <g id="line2d_109">
      <path clip-path="url(#p296eba4515)" d="M 62.208 6.330297 
L 460.8 6.330297 
" style="fill:none;stroke:#b0b0b0;stroke-linecap:square;stroke-width:0.8;"/>
     </g>
     <g id="line2d_110">
      <g>
       <use style="stroke:#000000;stroke-width:0.8;" x="62.208" xlink:href="#m206837f2fa" y="6.330297"/>
      </g>
     </g>
     <g id="text_9">
      <!-- 1.0 -->
      <g transform="translate(29.763 12.409047)scale(0.16 -0.16)">
       <use xlink:href="#DejaVuSans-31"/>
       <use x="63.623047" xlink:href="#DejaVuSans-2e"/>
       <use x="95.410156" xlink:href="#DejaVuSans-30"/>
      </g>
     </g>
    </g>
    <g id="text_10">
     <!-- proportion of trials -->
     <g transform="translate(21.603625 241.61425)rotate(-90)scale(0.2 -0.2)">
      <defs>
       <path d="M 1159 525 
L 1159 -1331 
L 581 -1331 
L 581 3500 
L 1159 3500 
L 1159 2969 
Q 1341 3281 1617 3432 
Q 1894 3584 2278 3584 
Q 2916 3584 3314 3078 
Q 3713 2572 3713 1747 
Q 3713 922 3314 415 
Q 2916 -91 2278 -91 
Q 1894 -91 1617 61 
Q 1341 213 1159 525 
z
M 3116 1747 
Q 3116 2381 2855 2742 
Q 2594 3103 2138 3103 
Q 1681 3103 1420 2742 
Q 1159 2381 1159 1747 
Q 1159 1113 1420 752 
Q 1681 391 2138 391 
Q 2594 391 2855 752 
Q 3116 1113 3116 1747 
z
" id="DejaVuSans-70" transform="scale(0.015625)"/>
       <path d="M 2631 2963 
Q 2534 3019 2420 3045 
Q 2306 3072 2169 3072 
Q 1681 3072 1420 2755 
Q 1159 2438 1159 1844 
L 1159 0 
L 581 0 
L 581 3500 
L 1159 3500 
L 1159 2956 
Q 1341 3275 1631 3429 
Q 1922 3584 2338 3584 
Q 2397 3584 2469 3576 
Q 2541 3569 2628 3553 
L 2631 2963 
z
" id="DejaVuSans-72" transform="scale(0.015625)"/>
       <path d="M 1172 4494 
L 1172 3500 
L 2356 3500 
L 2356 3053 
L 1172 3053 
L 1172 1153 
Q 1172 725 1289 603 
Q 1406 481 1766 481 
L 2356 481 
L 2356 0 
L 1766 0 
Q 1100 0 847 248 
Q 594 497 594 1153 
L 594 3053 
L 172 3053 
L 172 3500 
L 594 3500 
L 594 4494 
L 1172 4494 
z
" id="DejaVuSans-74" transform="scale(0.015625)"/>
       <path d="M 603 3500 
L 1178 3500 
L 1178 0 
L 603 0 
L 603 3500 
z
M 603 4863 
L 1178 4863 
L 1178 4134 
L 603 4134 
L 603 4863 
z
" id="DejaVuSans-69" transform="scale(0.015625)"/>
       <path d="M 3513 2113 
L 3513 0 
L 2938 0 
L 2938 2094 
Q 2938 2591 2744 2837 
Q 2550 3084 2163 3084 
Q 1697 3084 1428 2787 
Q 1159 2491 1159 1978 
L 1159 0 
L 581 0 
L 581 3500 
L 1159 3500 
L 1159 2956 
Q 1366 3272 1645 3428 
Q 1925 3584 2291 3584 
Q 2894 3584 3203 3211 
Q 3513 2838 3513 2113 
z
" id="DejaVuSans-6e" transform="scale(0.015625)"/>
      </defs>
      <use xlink:href="#DejaVuSans-70"/>
      <use x="63.476562" xlink:href="#DejaVuSans-72"/>
      <use x="102.339844" xlink:href="#DejaVuSans-6f"/>
      <use x="163.521484" xlink:href="#DejaVuSans-70"/>
      <use x="226.998047" xlink:href="#DejaVuSans-6f"/>
      <use x="288.179688" xlink:href="#DejaVuSans-72"/>
      <use x="329.292969" xlink:href="#DejaVuSans-74"/>
      <use x="368.501953" xlink:href="#DejaVuSans-69"/>
      <use x="396.285156" xlink:href="#DejaVuSans-6f"/>
      <use x="457.466797" xlink:href="#DejaVuSans-6e"/>
      <use x="520.845703" xlink:href="#DejaVuSans-20"/>
      <use x="552.632812" xlink:href="#DejaVuSans-6f"/>
      <use x="613.814453" xlink:href="#DejaVuSans-66"/>
      <use x="649.019531" xlink:href="#DejaVuSans-20"/>
      <use x="680.806641" xlink:href="#DejaVuSans-74"/>
      <use x="720.015625" xlink:href="#DejaVuSans-72"/>
      <use x="761.128906" xlink:href="#DejaVuSans-69"/>
      <use x="788.912109" xlink:href="#DejaVuSans-61"/>
      <use x="850.191406" xlink:href="#DejaVuSans-6c"/>
      <use x="877.974609" xlink:href="#DejaVuSans-73"/>
     </g>
    </g>
   </g>
   <g id="line2d_111">
    <path clip-path="url(#p296eba4515)" d="M 47.529487 293.76 
L 47.529487 289.927604 
L 139.239687 289.927604 
L 139.239687 286.095208 
L 153.536555 286.095208 
L 153.536555 282.262812 
L 154.857109 282.262812 
L 154.857109 278.430416 
L 160.890393 278.430416 
L 160.890393 274.59802 
L 161.631922 274.59802 
L 161.631922 270.765624 
L 171.398868 270.765624 
L 171.398868 266.933228 
L 171.687667 266.933228 
L 171.687667 263.100832 
L 173.654432 263.100832 
L 173.654432 259.268436 
L 174.737488 259.268436 
L 174.737488 255.43604 
L 179.286701 255.43604 
L 179.286701 251.603644 
L 187.30509 251.603644 
L 187.30509 247.771248 
L 188.278037 247.771248 
L 188.278037 243.938851 
L 190.705039 243.938851 
L 190.705039 240.106455 
L 192.130419 240.106455 
L 192.130419 236.274059 
L 196.763036 236.274059 
L 196.763036 232.441663 
L 197.074809 232.441663 
L 197.074809 228.609267 
L 197.538083 228.609267 
L 197.538083 224.776871 
L 198.599196 224.776871 
L 198.599196 220.944475 
L 199.045715 220.944475 
L 199.045715 217.112079 
L 201.348624 217.112079 
L 201.348624 213.279683 
L 201.627633 213.279683 
L 201.627633 209.447287 
L 201.766432 209.447287 
L 201.766432 205.614891 
L 202.180041 205.614891 
L 202.180041 201.782495 
L 205.600531 201.782495 
L 205.600531 197.950099 
L 206.351077 197.950099 
L 206.351077 194.117703 
L 210.138 194.117703 
L 210.138 190.285307 
L 211.032682 190.285307 
L 211.032682 186.452911 
L 211.253346 186.452911 
L 211.253346 182.620515 
L 212.231949 182.620515 
L 212.231949 178.788119 
L 215.335461 178.788119 
L 215.335461 174.955723 
L 215.830698 174.955723 
L 215.830698 171.123327 
L 217.186474 171.123327 
L 217.186474 167.290931 
L 218.406629 167.290931 
L 218.406629 163.458535 
L 218.866452 163.458535 
L 218.866452 159.626139 
L 220.917877 159.626139 
L 220.917877 155.793743 
L 222.11828 155.793743 
L 222.11828 151.961347 
L 229.310474 151.961347 
L 229.310474 148.12895 
L 307.430178 148.12895 
L 307.430178 144.296554 
L 317.105833 144.296554 
L 317.105833 140.464158 
L 320.399244 140.464158 
L 320.399244 136.631762 
L 339.814321 136.631762 
L 339.814321 132.799366 
L 355.357294 132.799366 
L 355.357294 128.96697 
L 364.326952 128.96697 
L 364.326952 125.134574 
L 368.976272 125.134574 
L 368.976272 121.302178 
L 368.995331 121.302178 
L 368.995331 117.469782 
L 370.027845 117.469782 
L 370.027845 113.637386 
L 373.084302 113.637386 
L 373.084302 109.80499 
L 389.845402 109.80499 
L 389.845402 105.972594 
L 396.876427 105.972594 
L 396.876427 102.140198 
L 406.275582 102.140198 
L 406.275582 98.307802 
L 413.041412 98.307802 
L 413.041412 94.475406 
L 426.725658 94.475406 
L 426.725658 90.64301 
L 432.36422 90.64301 
L 432.36422 86.810614 
L 432.988634 86.810614 
L 432.988634 82.978218 
L 432.988634 82.978218 
L 432.988634 82.978218 
L 460.8 82.978218 
" style="fill:none;stroke:#000000;stroke-linecap:square;stroke-width:1.5;"/>
   </g>
   <g id="line2d_112">
    <defs>
     <path d="M 0 14.142136 
L 8.485281 0 
L 0 -14.142136 
L -8.485281 0 
z
" id="m56a7a16864" style="stroke:#000000;stroke-linejoin:miter;stroke-width:1.5;"/>
    </defs>
    <g clip-path="url(#p296eba4515)">
     <use style="fill-opacity:0;stroke:#000000;stroke-linejoin:miter;stroke-width:1.5;" x="139.239687" xlink:href="#m56a7a16864" y="289.927604"/>
     <use style="fill-opacity:0;stroke:#000000;stroke-linejoin:miter;stroke-width:1.5;" x="198.599196" xlink:href="#m56a7a16864" y="224.776871"/>
     <use style="fill-opacity:0;stroke:#000000;stroke-linejoin:miter;stroke-width:1.5;" x="215.830698" xlink:href="#m56a7a16864" y="174.955723"/>
     <use style="fill-opacity:0;stroke:#000000;stroke-linejoin:miter;stroke-width:1.5;" x="229.310474" xlink:href="#m56a7a16864" y="151.961347"/>
     <use style="fill-opacity:0;stroke:#000000;stroke-linejoin:miter;stroke-width:1.5;" x="370.027845" xlink:href="#m56a7a16864" y="117.469782"/>
     <use style="fill-opacity:0;stroke:#000000;stroke-linejoin:miter;stroke-width:1.5;" x="432.988634" xlink:href="#m56a7a16864" y="86.810614"/>
     <use style="fill-opacity:0;stroke:#000000;stroke-linejoin:miter;stroke-width:1.5;" x="432.988634" xlink:href="#m56a7a16864" y="82.978218"/>
    </g>
   </g>
   <g id="line2d_113">
    <path clip-path="url(#p296eba4515)" style="fill:none;stroke:#000000;stroke-linecap:square;stroke-width:1.5;"/>
    <g clip-path="url(#p296eba4515)">
     <use style="fill-opacity:0;stroke:#000000;stroke-linejoin:miter;stroke-width:1.5;" x="-1" xlink:href="#m56a7a16864" y="581.189703"/>
     <use style="fill-opacity:0;stroke:#000000;stroke-linejoin:miter;stroke-width:1.5;" x="460.8" xlink:href="#m56a7a16864" y="581.189703"/>
    </g>
   </g>
   <g id="line2d_114">
    <path clip-path="url(#p296eba4515)" d="M 33.682391 293.76 
L 33.682391 289.927604 
L 90.733609 289.927604 
L 90.733609 282.262812 
L 106.024844 282.262812 
L 106.024844 278.430416 
L 108.769444 278.430416 
L 108.769444 274.59802 
L 112.570953 274.59802 
L 112.570953 270.765624 
L 114.923237 270.765624 
L 114.923237 266.933228 
L 118.217295 266.933228 
L 118.217295 263.100832 
L 123.181589 263.100832 
L 123.181589 259.268436 
L 124.106431 259.268436 
L 124.106431 255.43604 
L 129.257365 255.43604 
L 129.257365 251.603644 
L 140.486866 251.603644 
L 140.486866 247.771248 
L 141.697357 247.771248 
L 141.697357 240.106455 
L 142.289508 240.106455 
L 142.289508 236.274059 
L 143.448845 236.274059 
L 143.448845 228.609267 
L 145.128824 228.609267 
L 145.128824 224.776871 
L 148.80102 224.776871 
L 148.80102 217.112079 
L 149.792724 217.112079 
L 149.792724 213.279683 
L 153.086782 213.279683 
L 153.086782 209.447287 
L 153.536555 209.447287 
L 153.536555 205.614891 
L 158.184477 205.614891 
L 158.184477 201.782495 
L 166.479136 201.782495 
L 166.479136 197.950099 
L 166.804464 197.950099 
L 166.804464 194.117703 
L 167.447504 194.117703 
L 167.447504 190.285307 
L 170.520106 190.285307 
L 170.520106 182.620515 
L 171.108027 182.620515 
L 171.108027 178.788119 
L 171.687667 178.788119 
L 171.687667 174.955723 
L 178.56257 174.955723 
L 178.56257 171.123327 
L 179.286701 171.123327 
L 179.286701 167.290931 
L 179.762473 167.290931 
L 179.762473 163.458535 
L 180.232806 163.458535 
L 180.232806 159.626139 
L 180.928379 159.626139 
L 180.928379 155.793743 
L 181.385648 155.793743 
L 181.385648 151.961347 
L 185.903123 151.961347 
L 185.903123 148.12895 
L 186.509823 148.12895 
L 186.509823 144.296554 
L 189.788436 144.296554 
L 189.788436 140.464158 
L 206.102413 140.464158 
L 206.102413 136.631762 
L 206.351077 136.631762 
L 206.351077 132.799366 
L 292.097992 132.799366 
L 292.097992 128.96697 
L 296.706194 128.96697 
L 296.706194 125.134574 
L 298.289486 125.134574 
L 298.289486 121.302178 
L 298.895668 121.302178 
L 298.895668 117.469782 
L 301.308952 117.469782 
L 301.308952 113.637386 
L 304.716726 113.637386 
L 304.716726 109.80499 
L 332.860143 109.80499 
L 332.860143 105.972594 
L 338.205468 105.972594 
L 338.205468 102.140198 
L 340.600509 102.140198 
L 340.600509 98.307802 
L 348.114012 98.307802 
L 348.114012 94.475406 
L 356.922859 94.475406 
L 356.922859 90.64301 
L 357.638374 90.64301 
L 357.638374 86.810614 
L 359.647468 86.810614 
L 359.647468 82.978218 
L 360.759202 82.978218 
L 360.759202 79.145822 
L 363.922127 79.145822 
L 363.922127 75.313426 
L 386.304979 75.313426 
L 386.304979 71.48103 
L 393.531229 71.48103 
L 393.531229 67.648634 
L 400.271878 67.648634 
L 400.271878 63.816238 
L 429.227961 63.816238 
L 429.227961 59.983842 
L 433.809346 59.983842 
L 433.809346 56.151446 
L 434.348182 56.151446 
L 434.348182 52.31905 
L 434.786749 52.31905 
L 434.786749 48.486653 
L 436.719602 48.486653 
L 436.719602 44.654257 
L 440.410787 44.654257 
L 440.410787 40.821861 
L 440.410787 40.821861 
L 460.8 40.821861 
L 460.8 40.821861 
" style="fill:none;stroke:#000000;stroke-linecap:square;stroke-width:1.5;"/>
   </g>
   <g id="line2d_115">
    <defs>
     <path d="M 0 7.5 
C 1.989023 7.5 3.896849 6.709753 5.303301 5.303301 
C 6.709753 3.896849 7.5 1.989023 7.5 0 
C 7.5 -1.989023 6.709753 -3.896849 5.303301 -5.303301 
C 3.896849 -6.709753 1.989023 -7.5 0 -7.5 
C -1.989023 -7.5 -3.896849 -6.709753 -5.303301 -5.303301 
C -6.709753 -3.896849 -7.5 -1.989023 -7.5 0 
C -7.5 1.989023 -6.709753 3.896849 -5.303301 5.303301 
C -3.896849 6.709753 -1.989023 7.5 0 7.5 
z
" id="m822c05c1ad" style="stroke:#000000;stroke-width:1.5;"/>
    </defs>
    <g clip-path="url(#p296eba4515)">
     <use style="fill-opacity:0;stroke:#000000;stroke-width:1.5;" x="106.024844" xlink:href="#m822c05c1ad" y="282.262812"/>
     <use style="fill-opacity:0;stroke:#000000;stroke-width:1.5;" x="166.804464" xlink:href="#m822c05c1ad" y="197.950099"/>
     <use style="fill-opacity:0;stroke:#000000;stroke-width:1.5;" x="206.102413" xlink:href="#m822c05c1ad" y="140.464158"/>
     <use style="fill-opacity:0;stroke:#000000;stroke-width:1.5;" x="292.097992" xlink:href="#m822c05c1ad" y="132.799366"/>
     <use style="fill-opacity:0;stroke:#000000;stroke-width:1.5;" x="360.759202" xlink:href="#m822c05c1ad" y="82.978218"/>
     <use style="fill-opacity:0;stroke:#000000;stroke-width:1.5;" x="440.410787" xlink:href="#m822c05c1ad" y="44.654257"/>
     <use style="fill-opacity:0;stroke:#000000;stroke-width:1.5;" x="440.410787" xlink:href="#m822c05c1ad" y="40.821861"/>
    </g>
   </g>
   <g id="line2d_116">
    <path clip-path="url(#p296eba4515)" style="fill:none;stroke:#000000;stroke-linecap:square;stroke-width:1.5;"/>
   </g>
   <g id="line2d_117">
    <path clip-path="url(#p296eba4515)" d="M 219.321195 293.76 
L 219.321195 289.927604 
L 239.392012 289.927604 
L 239.392012 286.095208 
L 242.23503 286.095208 
L 242.23503 282.262812 
L 245.90217 282.262812 
L 245.90217 278.430416 
L 248.564098 278.430416 
L 248.564098 274.59802 
L 251.314433 274.59802 
L 251.314433 270.765624 
L 254.857155 270.765624 
L 254.857155 266.933228 
L 293.553304 266.933228 
L 293.553304 263.100832 
L 313.083333 263.100832 
L 313.083333 259.268436 
L 314.117379 259.268436 
L 314.117379 255.43604 
L 315.756128 255.43604 
L 315.756128 251.603644 
L 319.194889 251.603644 
L 319.194889 247.771248 
L 325.609457 247.771248 
L 325.609457 243.938851 
L 326.768605 243.938851 
L 326.768605 240.106455 
L 328.10881 240.106455 
L 328.10881 236.274059 
L 329.188024 236.274059 
L 329.188024 232.441663 
L 342.480002 232.441663 
L 342.480002 228.609267 
L 347.740462 228.609267 
L 347.740462 224.776871 
L 351.063682 224.776871 
L 351.063682 220.944475 
L 354.917036 220.944475 
L 354.917036 217.112079 
L 355.191084 217.112079 
L 355.191084 213.279683 
L 376.297995 213.279683 
L 376.297995 209.447287 
L 379.182228 209.447287 
L 379.182228 205.614891 
L 380.542927 205.614891 
L 380.542927 201.782495 
L 394.502435 201.782495 
L 394.502435 197.950099 
L 395.629936 197.950099 
L 395.629936 194.117703 
L 415.131329 194.117703 
L 415.131329 190.285307 
L 423.629136 190.285307 
L 423.629136 186.452911 
L 426.842045 186.452911 
L 426.842045 182.620515 
L 439.72556 182.620515 
L 439.72556 178.788119 
L 439.72556 178.788119 
L 439.72556 178.788119 
L 460.8 178.788119 
" style="fill:none;stroke:#00bfbf;stroke-linecap:square;stroke-width:1.5;"/>
   </g>
   <g id="line2d_118">
    <defs>
     <path d="M 0 14.142136 
L 8.485281 0 
L 0 -14.142136 
L -8.485281 0 
z
" id="mb3a08b372f" style="stroke:#00bfbf;stroke-linejoin:miter;stroke-width:1.5;"/>
    </defs>
    <g clip-path="url(#p296eba4515)">
     <use style="fill-opacity:0;stroke:#00bfbf;stroke-linejoin:miter;stroke-width:1.5;" x="254.857155" xlink:href="#mb3a08b372f" y="270.765624"/>
     <use style="fill-opacity:0;stroke:#00bfbf;stroke-linejoin:miter;stroke-width:1.5;" x="329.188024" xlink:href="#mb3a08b372f" y="236.274059"/>
     <use style="fill-opacity:0;stroke:#00bfbf;stroke-linejoin:miter;stroke-width:1.5;" x="380.542927" xlink:href="#mb3a08b372f" y="205.614891"/>
     <use style="fill-opacity:0;stroke:#00bfbf;stroke-linejoin:miter;stroke-width:1.5;" x="439.72556" xlink:href="#mb3a08b372f" y="182.620515"/>
     <use style="fill-opacity:0;stroke:#00bfbf;stroke-linejoin:miter;stroke-width:1.5;" x="439.72556" xlink:href="#mb3a08b372f" y="178.788119"/>
    </g>
   </g>
   <g id="line2d_119">
    <path clip-path="url(#p296eba4515)" style="fill:none;stroke:#00bfbf;stroke-linecap:square;stroke-width:1.5;"/>
    <g clip-path="url(#p296eba4515)">
     <use style="fill-opacity:0;stroke:#00bfbf;stroke-linejoin:miter;stroke-width:1.5;" x="-1" xlink:href="#mb3a08b372f" y="581.189703"/>
     <use style="fill-opacity:0;stroke:#00bfbf;stroke-linejoin:miter;stroke-width:1.5;" x="460.8" xlink:href="#mb3a08b372f" y="581.189703"/>
    </g>
   </g>
   <g id="line2d_120">
    <path clip-path="url(#p296eba4515)" d="M 193.845407 293.76 
L 193.845407 289.927604 
L 205.220063 289.927604 
L 205.220063 286.095208 
L 207.692503 286.095208 
L 207.692503 282.262812 
L 210.475789 282.262812 
L 210.475789 278.430416 
L 217.565774 278.430416 
L 217.565774 274.59802 
L 226.597668 274.59802 
L 226.597668 270.765624 
L 235.246886 270.765624 
L 235.246886 266.933228 
L 237.51719 266.933228 
L 237.51719 263.100832 
L 238.83285 263.100832 
L 238.83285 259.268436 
L 295.82773 259.268436 
L 295.82773 255.43604 
L 296.898887 255.43604 
L 296.898887 251.603644 
L 299.647474 251.603644 
L 299.647474 247.771248 
L 299.68599 247.771248 
L 299.68599 243.938851 
L 300.912287 243.938851 
L 300.912287 240.106455 
L 301.271927 240.106455 
L 301.271927 236.274059 
L 302.320332 236.274059 
L 302.320332 232.441663 
L 305.88111 232.441663 
L 305.88111 228.609267 
L 306.527317 228.609267 
L 306.527317 224.776871 
L 307.398272 224.776871 
L 307.398272 220.944475 
L 307.716226 220.944475 
L 307.716226 217.112079 
L 308.36565 217.112079 
L 308.36565 213.279683 
L 309.127588 213.279683 
L 309.127588 209.447287 
L 309.331118 209.447287 
L 309.331118 205.614891 
L 311.678889 205.614891 
L 311.678889 201.782495 
L 312.060652 201.782495 
L 312.060652 197.950099 
L 316.759824 197.950099 
L 316.759824 194.117703 
L 325.114368 194.117703 
L 325.114368 190.285307 
L 335.934518 190.285307 
L 335.934518 186.452911 
L 341.766176 186.452911 
L 341.766176 182.620515 
L 353.646894 182.620515 
L 353.646894 178.788119 
L 358.109599 178.788119 
L 358.109599 174.955723 
L 362.171927 174.955723 
L 362.171927 171.123327 
L 363.762862 171.123327 
L 363.762862 167.290931 
L 379.495284 167.290931 
L 379.495284 163.458535 
L 380.288484 163.458535 
L 380.288484 159.626139 
L 385.929488 159.626139 
L 385.929488 155.793743 
L 387.179258 155.793743 
L 387.179258 151.961347 
L 402.356772 151.961347 
L 402.356772 148.12895 
L 425.684727 148.12895 
L 425.684727 144.296554 
L 429.864533 144.296554 
L 429.864533 140.464158 
L 430.222225 140.464158 
L 430.222225 136.631762 
L 430.222225 136.631762 
L 430.222225 136.631762 
L 460.8 136.631762 
" style="fill:none;stroke:#00bfbf;stroke-linecap:square;stroke-width:1.5;"/>
   </g>
   <g id="line2d_121">
    <defs>
     <path d="M 0 7.5 
C 1.989023 7.5 3.896849 6.709753 5.303301 5.303301 
C 6.709753 3.896849 7.5 1.989023 7.5 0 
C 7.5 -1.989023 6.709753 -3.896849 5.303301 -5.303301 
C 3.896849 -6.709753 1.989023 -7.5 0 -7.5 
C -1.989023 -7.5 -3.896849 -6.709753 -5.303301 -5.303301 
C -6.709753 -3.896849 -7.5 -1.989023 -7.5 0 
C -7.5 1.989023 -6.709753 3.896849 -5.303301 5.303301 
C -3.896849 6.709753 -1.989023 7.5 0 7.5 
z
" id="mb1064b5a4f" style="stroke:#00bfbf;stroke-width:1.5;"/>
    </defs>
    <g clip-path="url(#p296eba4515)">
     <use style="fill-opacity:0;stroke:#00bfbf;stroke-width:1.5;" x="238.83285" xlink:href="#mb1064b5a4f" y="263.100832"/>
     <use style="fill-opacity:0;stroke:#00bfbf;stroke-width:1.5;" x="325.114368" xlink:href="#mb1064b5a4f" y="194.117703"/>
     <use style="fill-opacity:0;stroke:#00bfbf;stroke-width:1.5;" x="387.179258" xlink:href="#mb1064b5a4f" y="155.793743"/>
     <use style="fill-opacity:0;stroke:#00bfbf;stroke-width:1.5;" x="430.222225" xlink:href="#mb1064b5a4f" y="140.464158"/>
     <use style="fill-opacity:0;stroke:#00bfbf;stroke-width:1.5;" x="430.222225" xlink:href="#mb1064b5a4f" y="136.631762"/>
    </g>
   </g>
   <g id="line2d_122">
    <path clip-path="url(#p296eba4515)" style="fill:none;stroke:#00bfbf;stroke-linecap:square;stroke-width:1.5;"/>
   </g>
   <g id="line2d_123">
    <path clip-path="url(#p296eba4515)" d="M 330.09894 293.76 
L 330.09894 289.927604 
L 343.235138 289.927604 
L 343.235138 286.095208 
L 348.920974 286.095208 
L 348.920974 282.262812 
L 351.999325 282.262812 
L 351.999325 278.430416 
L 355.037574 278.430416 
L 355.037574 274.59802 
L 357.474841 274.59802 
L 357.474841 270.765624 
L 380.533931 270.765624 
L 380.533931 266.933228 
L 381.487274 266.933228 
L 381.487274 263.100832 
L 382.070357 263.100832 
L 382.070357 259.268436 
L 383.526389 259.268436 
L 383.526389 255.43604 
L 384.465953 255.43604 
L 384.465953 251.603644 
L 386.987427 251.603644 
L 386.987427 247.771248 
L 392.735009 247.771248 
L 392.735009 243.938851 
L 395.921909 243.938851 
L 395.921909 240.106455 
L 398.555776 240.106455 
L 398.555776 236.274059 
L 406.76839 236.274059 
L 406.76839 232.441663 
L 408.152626 232.441663 
L 408.152626 228.609267 
L 408.610855 228.609267 
L 408.610855 224.776871 
L 409.12786 224.776871 
L 409.12786 220.944475 
L 410.294108 220.944475 
L 410.294108 217.112079 
L 416.088141 217.112079 
L 416.088141 213.279683 
L 425.388122 213.279683 
L 425.388122 209.447287 
L 427.380488 209.447287 
L 427.380488 205.614891 
L 427.58347 205.614891 
L 427.58347 201.782495 
L 428.443993 201.782495 
L 428.443993 197.950099 
L 428.785789 197.950099 
L 428.785789 194.117703 
L 429.584648 194.117703 
L 429.584648 190.285307 
L 429.584648 190.285307 
L 429.584648 190.285307 
L 460.8 190.285307 
" style="fill:none;stroke:#bf00bf;stroke-linecap:square;stroke-width:1.5;"/>
   </g>
   <g id="line2d_124">
    <defs>
     <path d="M 0 14.142136 
L 8.485281 0 
L 0 -14.142136 
L -8.485281 0 
z
" id="m4abebf861d" style="stroke:#bf00bf;stroke-linejoin:miter;stroke-width:1.5;"/>
    </defs>
    <g clip-path="url(#p296eba4515)">
     <use style="fill-opacity:0;stroke:#bf00bf;stroke-linejoin:miter;stroke-width:1.5;" x="381.487274" xlink:href="#m4abebf861d" y="266.933228"/>
     <use style="fill-opacity:0;stroke:#bf00bf;stroke-linejoin:miter;stroke-width:1.5;" x="408.152626" xlink:href="#m4abebf861d" y="232.441663"/>
     <use style="fill-opacity:0;stroke:#bf00bf;stroke-linejoin:miter;stroke-width:1.5;" x="429.584648" xlink:href="#m4abebf861d" y="194.117703"/>
     <use style="fill-opacity:0;stroke:#bf00bf;stroke-linejoin:miter;stroke-width:1.5;" x="429.584648" xlink:href="#m4abebf861d" y="190.285307"/>
    </g>
   </g>
   <g id="line2d_125">
    <path clip-path="url(#p296eba4515)" style="fill:none;stroke:#bf00bf;stroke-linecap:square;stroke-width:1.5;"/>
    <g clip-path="url(#p296eba4515)">
     <use style="fill-opacity:0;stroke:#bf00bf;stroke-linejoin:miter;stroke-width:1.5;" x="-1" xlink:href="#m4abebf861d" y="581.189703"/>
     <use style="fill-opacity:0;stroke:#bf00bf;stroke-linejoin:miter;stroke-width:1.5;" x="460.8" xlink:href="#m4abebf861d" y="581.189703"/>
    </g>
   </g>
   <g id="line2d_126">
    <path clip-path="url(#p296eba4515)" d="M 217.847972 293.76 
L 217.847972 289.927604 
L 222.286943 289.927604 
L 222.286943 286.095208 
L 229.734015 286.095208 
L 229.734015 282.262812 
L 232.909053 282.262812 
L 232.909053 278.430416 
L 299.039312 278.430416 
L 299.039312 274.59802 
L 302.846571 274.59802 
L 302.846571 270.765624 
L 302.929674 270.765624 
L 302.929674 266.933228 
L 303.272181 266.933228 
L 303.272181 263.100832 
L 303.739975 263.100832 
L 303.739975 259.268436 
L 304.408969 259.268436 
L 304.408969 255.43604 
L 310.284375 255.43604 
L 310.284375 251.603644 
L 334.993113 251.603644 
L 334.993113 247.771248 
L 339.756201 247.771248 
L 339.756201 243.938851 
L 342.357338 243.938851 
L 342.357338 240.106455 
L 354.853276 240.106455 
L 354.853276 236.274059 
L 361.08666 236.274059 
L 361.08666 232.441663 
L 364.201373 232.441663 
L 364.201373 228.609267 
L 366.237423 228.609267 
L 366.237423 224.776871 
L 376.246106 224.776871 
L 376.246106 220.944475 
L 376.602022 220.944475 
L 376.602022 217.112079 
L 382.324387 217.112079 
L 382.324387 213.279683 
L 389.792272 213.279683 
L 389.792272 209.447287 
L 390.846263 209.447287 
L 390.846263 205.614891 
L 391.767246 205.614891 
L 391.767246 201.782495 
L 399.076212 201.782495 
L 399.076212 197.950099 
L 404.387505 197.950099 
L 404.387505 194.117703 
L 404.837562 194.117703 
L 404.837562 190.285307 
L 419.502615 190.285307 
L 419.502615 186.452911 
L 421.068205 186.452911 
L 421.068205 182.620515 
L 421.170222 182.620515 
L 421.170222 178.788119 
L 431.055665 178.788119 
L 431.055665 174.955723 
L 431.138877 174.955723 
L 431.138877 171.123327 
L 432.594409 171.123327 
L 432.594409 167.290931 
L 432.594409 167.290931 
L 432.594409 167.290931 
L 460.8 167.290931 
" style="fill:none;stroke:#bf00bf;stroke-linecap:square;stroke-width:1.5;"/>
   </g>
   <g id="line2d_127">
    <defs>
     <path d="M 0 7.5 
C 1.989023 7.5 3.896849 6.709753 5.303301 5.303301 
C 6.709753 3.896849 7.5 1.989023 7.5 0 
C 7.5 -1.989023 6.709753 -3.896849 5.303301 -5.303301 
C 3.896849 -6.709753 1.989023 -7.5 0 -7.5 
C -1.989023 -7.5 -3.896849 -6.709753 -5.303301 -5.303301 
C -6.709753 -3.896849 -7.5 -1.989023 -7.5 0 
C -7.5 1.989023 -6.709753 3.896849 -5.303301 5.303301 
C -3.896849 6.709753 -1.989023 7.5 0 7.5 
z
" id="me30998d198" style="stroke:#bf00bf;stroke-width:1.5;"/>
    </defs>
    <g clip-path="url(#p296eba4515)">
     <use style="fill-opacity:0;stroke:#bf00bf;stroke-width:1.5;" x="229.734015" xlink:href="#me30998d198" y="286.095208"/>
     <use style="fill-opacity:0;stroke:#bf00bf;stroke-width:1.5;" x="304.408969" xlink:href="#me30998d198" y="259.268436"/>
     <use style="fill-opacity:0;stroke:#bf00bf;stroke-width:1.5;" x="366.237423" xlink:href="#me30998d198" y="228.609267"/>
     <use style="fill-opacity:0;stroke:#bf00bf;stroke-width:1.5;" x="404.837562" xlink:href="#me30998d198" y="194.117703"/>
     <use style="fill-opacity:0;stroke:#bf00bf;stroke-width:1.5;" x="432.594409" xlink:href="#me30998d198" y="167.290931"/>
    </g>
   </g>
   <g id="line2d_128">
    <path clip-path="url(#p296eba4515)" style="fill:none;stroke:#bf00bf;stroke-linecap:square;stroke-width:1.5;"/>
   </g>
   <g id="line2d_129">
    <path clip-path="url(#p296eba4515)" d="M 332.820007 293.76 
L 332.820007 289.927604 
L 346.693319 289.927604 
L 346.693319 286.095208 
L 351.52506 286.095208 
L 351.52506 282.262812 
L 354.15215 282.262812 
L 354.15215 278.430416 
L 358.000854 278.430416 
L 358.000854 274.59802 
L 359.8294 274.59802 
L 359.8294 270.765624 
L 381.988804 270.765624 
L 381.988804 266.933228 
L 384.155692 266.933228 
L 384.155692 263.100832 
L 386.870355 263.100832 
L 386.870355 259.268436 
L 386.87344 259.268436 
L 386.87344 255.43604 
L 387.079617 255.43604 
L 387.079617 251.603644 
L 388.09379 251.603644 
L 388.09379 247.771248 
L 395.318292 247.771248 
L 395.318292 243.938851 
L 398.536029 243.938851 
L 398.536029 240.106455 
L 400.144701 240.106455 
L 400.144701 236.274059 
L 410.022552 236.274059 
L 410.022552 232.441663 
L 411.333826 232.441663 
L 411.333826 228.609267 
L 412.357058 228.609267 
L 412.357058 224.776871 
L 412.853957 224.776871 
L 412.853957 220.944475 
L 412.939195 220.944475 
L 412.939195 217.112079 
L 417.059526 217.112079 
L 417.059526 213.279683 
L 427.074416 213.279683 
L 427.074416 209.447287 
L 429.790663 209.447287 
L 429.790663 205.614891 
L 430.491942 205.614891 
L 430.491942 201.782495 
L 430.552292 201.782495 
L 430.552292 197.950099 
L 430.556028 197.950099 
L 430.556028 194.117703 
L 430.855372 194.117703 
L 430.855372 190.285307 
L 430.855372 190.285307 
L 430.855372 190.285307 
L 460.8 190.285307 
" style="fill:none;stroke:#ff0000;stroke-linecap:square;stroke-width:3;"/>
   </g>
   <g id="line2d_130">
    <defs>
     <path d="M 0 14.142136 
L 8.485281 0 
L 0 -14.142136 
L -8.485281 0 
z
" id="ma5c5193352" style="stroke:#ff0000;stroke-linejoin:miter;stroke-width:3;"/>
    </defs>
    <g clip-path="url(#p296eba4515)">
     <use style="fill-opacity:0;stroke:#ff0000;stroke-linejoin:miter;stroke-width:3;" x="351.52506" xlink:href="#ma5c5193352" y="286.095208"/>
     <use style="fill-opacity:0;stroke:#ff0000;stroke-linejoin:miter;stroke-width:3;" x="388.09379" xlink:href="#ma5c5193352" y="251.603644"/>
     <use style="fill-opacity:0;stroke:#ff0000;stroke-linejoin:miter;stroke-width:3;" x="427.074416" xlink:href="#ma5c5193352" y="213.279683"/>
     <use style="fill-opacity:0;stroke:#ff0000;stroke-linejoin:miter;stroke-width:3;" x="430.855372" xlink:href="#ma5c5193352" y="190.285307"/>
    </g>
   </g>
   <g id="line2d_131">
    <path clip-path="url(#p296eba4515)" style="fill:none;stroke:#ff0000;stroke-linecap:square;stroke-width:3;"/>
    <g clip-path="url(#p296eba4515)">
     <use style="fill-opacity:0;stroke:#ff0000;stroke-linejoin:miter;stroke-width:3;" x="-1" xlink:href="#ma5c5193352" y="581.189703"/>
     <use style="fill-opacity:0;stroke:#ff0000;stroke-linejoin:miter;stroke-width:3;" x="460.8" xlink:href="#ma5c5193352" y="581.189703"/>
    </g>
   </g>
   <g id="line2d_132">
    <path clip-path="url(#p296eba4515)" d="M 238.379984 293.76 
L 238.379984 289.927604 
L 239.833936 289.927604 
L 239.833936 286.095208 
L 241.555652 286.095208 
L 241.555652 282.262812 
L 246.700385 282.262812 
L 246.700385 278.430416 
L 302.115196 278.430416 
L 302.115196 274.59802 
L 304.557436 274.59802 
L 304.557436 270.765624 
L 306.112281 270.765624 
L 306.112281 266.933228 
L 306.679176 266.933228 
L 306.679176 263.100832 
L 306.690002 263.100832 
L 306.690002 259.268436 
L 308.758677 259.268436 
L 308.758677 255.43604 
L 314.008794 255.43604 
L 314.008794 251.603644 
L 337.877025 251.603644 
L 337.877025 247.771248 
L 341.945797 247.771248 
L 341.945797 243.938851 
L 345.748928 243.938851 
L 345.748928 240.106455 
L 355.54596 240.106455 
L 355.54596 236.274059 
L 365.035787 236.274059 
L 365.035787 232.441663 
L 366.572235 232.441663 
L 366.572235 228.609267 
L 367.963117 228.609267 
L 367.963117 224.776871 
L 380.562711 224.776871 
L 380.562711 220.944475 
L 380.596862 220.944475 
L 380.596862 217.112079 
L 385.040858 217.112079 
L 385.040858 213.279683 
L 391.671265 213.279683 
L 391.671265 209.447287 
L 392.907214 209.447287 
L 392.907214 205.614891 
L 394.698037 205.614891 
L 394.698037 201.782495 
L 402.652184 201.782495 
L 402.652184 197.950099 
L 407.478484 197.950099 
L 407.478484 194.117703 
L 408.633588 194.117703 
L 408.633588 190.285307 
L 422.110598 190.285307 
L 422.110598 186.452911 
L 423.496317 186.452911 
L 423.496317 182.620515 
L 425.26633 182.620515 
L 425.26633 178.788119 
L 432.482021 178.788119 
L 432.482021 174.955723 
L 432.515617 174.955723 
L 432.515617 171.123327 
L 433.95995 171.123327 
L 433.95995 167.290931 
L 433.95995 167.290931 
L 433.95995 167.290931 
L 460.8 167.290931 
" style="fill:none;stroke:#ff0000;stroke-linecap:square;stroke-width:3;"/>
   </g>
   <g id="line2d_133">
    <defs>
     <path d="M 0 7.5 
C 1.989023 7.5 3.896849 6.709753 5.303301 5.303301 
C 6.709753 3.896849 7.5 1.989023 7.5 0 
C 7.5 -1.989023 6.709753 -3.896849 5.303301 -5.303301 
C 3.896849 -6.709753 1.989023 -7.5 0 -7.5 
C -1.989023 -7.5 -3.896849 -6.709753 -5.303301 -5.303301 
C -6.709753 -3.896849 -7.5 -1.989023 -7.5 0 
C -7.5 1.989023 -6.709753 3.896849 -5.303301 5.303301 
C -3.896849 6.709753 -1.989023 7.5 0 7.5 
z
" id="m1490d44345" style="stroke:#ff0000;stroke-width:3;"/>
    </defs>
    <g clip-path="url(#p296eba4515)">
     <use style="fill-opacity:0;stroke:#ff0000;stroke-width:3;" x="246.700385" xlink:href="#m1490d44345" y="282.262812"/>
     <use style="fill-opacity:0;stroke:#ff0000;stroke-width:3;" x="341.945797" xlink:href="#m1490d44345" y="247.771248"/>
     <use style="fill-opacity:0;stroke:#ff0000;stroke-width:3;" x="380.596862" xlink:href="#m1490d44345" y="220.944475"/>
     <use style="fill-opacity:0;stroke:#ff0000;stroke-width:3;" x="425.26633" xlink:href="#m1490d44345" y="182.620515"/>
     <use style="fill-opacity:0;stroke:#ff0000;stroke-width:3;" x="433.95995" xlink:href="#m1490d44345" y="167.290931"/>
    </g>
   </g>
   <g id="line2d_134">
    <path clip-path="url(#p296eba4515)" style="fill:none;stroke:#ff0000;stroke-linecap:square;stroke-width:3;"/>
   </g>
   <g id="line2d_135">
    <path clip-path="url(#p296eba4515)" d="M 441.726787 293.76 
L 441.726787 3.456 
" style="fill:none;stroke:#000000;stroke-linecap:square;stroke-width:1.5;"/>
    <defs>
     <path d="M -10 0 
L 10 0 
M 0 10 
L 0 -10 
" id="m8baf850cb9" style="stroke:#000000;stroke-width:3;"/>
    </defs>
    <g clip-path="url(#p296eba4515)">
     <use style="stroke:#000000;stroke-width:3;" x="441.726787" xlink:href="#m8baf850cb9" y="293.76"/>
     <use style="stroke:#000000;stroke-width:3;" x="441.726787" xlink:href="#m8baf850cb9" y="3.456"/>
    </g>
   </g>
   <g id="line2d_136">
    <path clip-path="url(#p296eba4515)" d="M 441.768664 293.76 
L 441.768664 3.456 
" style="fill:none;stroke:#000000;stroke-linecap:square;stroke-width:1.5;"/>
    <defs>
     <path d="M 0 7.5 
C 1.989023 7.5 3.896849 6.709753 5.303301 5.303301 
C 6.709753 3.896849 7.5 1.989023 7.5 0 
C 7.5 -1.989023 6.709753 -3.896849 5.303301 -5.303301 
C 3.896849 -6.709753 1.989023 -7.5 0 -7.5 
C -1.989023 -7.5 -3.896849 -6.709753 -5.303301 -5.303301 
C -6.709753 -3.896849 -7.5 -1.989023 -7.5 0 
C -7.5 1.989023 -6.709753 3.896849 -5.303301 5.303301 
C -3.896849 6.709753 -1.989023 7.5 0 7.5 
z
" id="mf309f29796" style="stroke:#000000;stroke-width:3;"/>
    </defs>
    <g clip-path="url(#p296eba4515)">
     <use style="fill-opacity:0;stroke:#000000;stroke-width:3;" x="441.768664" xlink:href="#mf309f29796" y="293.76"/>
     <use style="fill-opacity:0;stroke:#000000;stroke-width:3;" x="441.768664" xlink:href="#mf309f29796" y="3.456"/>
    </g>
   </g>
   <g id="patch_3">
    <path d="M 62.208 293.76 
L 62.208 3.456 
" style="fill:none;stroke:#000000;stroke-linecap:square;stroke-linejoin:miter;stroke-width:0.8;"/>
   </g>
   <g id="patch_4">
    <path d="M 460.8 293.76 
L 460.8 3.456 
" style="fill:none;stroke:#000000;stroke-linecap:square;stroke-linejoin:miter;stroke-width:0.8;"/>
   </g>
   <g id="patch_5">
    <path d="M 62.208 293.76 
L 460.8 293.76 
" style="fill:none;stroke:#000000;stroke-linecap:square;stroke-linejoin:miter;stroke-width:0.8;"/>
   </g>
   <g id="patch_6">
    <path d="M 62.208 3.456 
L 460.8 3.456 
" style="fill:none;stroke:#000000;stroke-linecap:square;stroke-linejoin:miter;stroke-width:0.8;"/>
   </g>
   <g id="text_11">
    <!-- f20-f24 -->
    <g transform="translate(225.405563 24.458955)scale(0.2 -0.2)">
     <defs>
      <path d="M 313 2009 
L 1997 2009 
L 1997 1497 
L 313 1497 
L 313 2009 
z
" id="DejaVuSans-2d" transform="scale(0.015625)"/>
     </defs>
     <use xlink:href="#DejaVuSans-66"/>
     <use x="35.205078" xlink:href="#DejaVuSans-32"/>
     <use x="98.828125" xlink:href="#DejaVuSans-30"/>
     <use x="162.451172" xlink:href="#DejaVuSans-2d"/>
     <use x="198.535156" xlink:href="#DejaVuSans-66"/>
     <use x="233.740234" xlink:href="#DejaVuSans-32"/>
     <use x="297.363281" xlink:href="#DejaVuSans-34"/>
    </g>
   </g>
   <g id="text_12">
    <!-- absolute targets -->
    <g transform="translate(62.208 608.208095)scale(0.14 -0.14)">
     <defs>
      <path d="M 3116 1747 
Q 3116 2381 2855 2742 
Q 2594 3103 2138 3103 
Q 1681 3103 1420 2742 
Q 1159 2381 1159 1747 
Q 1159 1113 1420 752 
Q 1681 391 2138 391 
Q 2594 391 2855 752 
Q 3116 1113 3116 1747 
z
M 1159 2969 
Q 1341 3281 1617 3432 
Q 1894 3584 2278 3584 
Q 2916 3584 3314 3078 
Q 3713 2572 3713 1747 
Q 3713 922 3314 415 
Q 2916 -91 2278 -91 
Q 1894 -91 1617 61 
Q 1341 213 1159 525 
L 1159 0 
L 581 0 
L 581 4863 
L 1159 4863 
L 1159 2969 
z
" id="DejaVuSans-62" transform="scale(0.015625)"/>
      <path d="M 544 1381 
L 544 3500 
L 1119 3500 
L 1119 1403 
Q 1119 906 1312 657 
Q 1506 409 1894 409 
Q 2359 409 2629 706 
Q 2900 1003 2900 1516 
L 2900 3500 
L 3475 3500 
L 3475 0 
L 2900 0 
L 2900 538 
Q 2691 219 2414 64 
Q 2138 -91 1772 -91 
Q 1169 -91 856 284 
Q 544 659 544 1381 
z
M 1991 3584 
L 1991 3584 
z
" id="DejaVuSans-75" transform="scale(0.015625)"/>
      <path d="M 3597 1894 
L 3597 1613 
L 953 1613 
Q 991 1019 1311 708 
Q 1631 397 2203 397 
Q 2534 397 2845 478 
Q 3156 559 3463 722 
L 3463 178 
Q 3153 47 2828 -22 
Q 2503 -91 2169 -91 
Q 1331 -91 842 396 
Q 353 884 353 1716 
Q 353 2575 817 3079 
Q 1281 3584 2069 3584 
Q 2775 3584 3186 3129 
Q 3597 2675 3597 1894 
z
M 3022 2063 
Q 3016 2534 2758 2815 
Q 2500 3097 2075 3097 
Q 1594 3097 1305 2825 
Q 1016 2553 972 2059 
L 3022 2063 
z
" id="DejaVuSans-65" transform="scale(0.015625)"/>
     </defs>
     <use xlink:href="#DejaVuSans-61"/>
     <use x="61.279297" xlink:href="#DejaVuSans-62"/>
     <use x="124.755859" xlink:href="#DejaVuSans-73"/>
     <use x="176.855469" xlink:href="#DejaVuSans-6f"/>
     <use x="238.037109" xlink:href="#DejaVuSans-6c"/>
     <use x="265.820312" xlink:href="#DejaVuSans-75"/>
     <use x="329.199219" xlink:href="#DejaVuSans-74"/>
     <use x="368.408203" xlink:href="#DejaVuSans-65"/>
     <use x="429.931641" xlink:href="#DejaVuSans-20"/>
     <use x="461.71875" xlink:href="#DejaVuSans-74"/>
     <use x="500.927734" xlink:href="#DejaVuSans-61"/>
     <use x="562.207031" xlink:href="#DejaVuSans-72"/>
     <use x="601.570312" xlink:href="#DejaVuSans-67"/>
     <use x="665.046875" xlink:href="#DejaVuSans-65"/>
     <use x="726.570312" xlink:href="#DejaVuSans-74"/>
     <use x="765.779297" xlink:href="#DejaVuSans-73"/>
    </g>
   </g>
   <g id="text_13">
    <!-- v2.6.3 -->
    <g style="fill:#808080;" transform="translate(245.82275 288.777272)scale(0.1 -0.1)">
     <use xlink:href="#DejaVuSans-76"/>
     <use x="59.179688" xlink:href="#DejaVuSans-32"/>
     <use x="122.802734" xlink:href="#DejaVuSans-2e"/>
     <use x="154.589844" xlink:href="#DejaVuSans-36"/>
     <use x="218.212891" xlink:href="#DejaVuSans-2e"/>
     <use x="250" xlink:href="#DejaVuSans-33"/>
    </g>
   </g>
   <g id="legend_1">
    <g id="patch_7">
     <path d="M 76.208 136.881 
L 160.148625 136.881 
Q 164.148625 136.881 164.148625 132.881 
L 164.148625 17.456 
Q 164.148625 13.456 160.148625 13.456 
L 76.208 13.456 
Q 72.208 13.456 72.208 17.456 
L 72.208 132.881 
Q 72.208 136.881 76.208 136.881 
z
" style="fill:#ffffff;opacity:0.2;stroke:#cccccc;stroke-linejoin:miter;"/>
    </g>
    <g id="line2d_137">
     <path d="M 80.208 29.652875 
L 120.208 29.652875 
" style="fill:none;stroke:#000000;stroke-linecap:square;stroke-width:1.5;"/>
    </g>
    <g id="line2d_138"/>
    <g id="text_14">
     <!-- 1 -->
     <g transform="translate(136.208 36.652875)scale(0.2 -0.2)">
      <use xlink:href="#DejaVuSans-31"/>
     </g>
    </g>
    <g id="line2d_139">
     <path d="M 80.208 59.009125 
L 120.208 59.009125 
" style="fill:none;stroke:#00bfbf;stroke-linecap:square;stroke-width:1.5;"/>
    </g>
    <g id="line2d_140"/>
    <g id="text_15">
     <!-- -1 -->
     <g transform="translate(136.208 66.009125)scale(0.2 -0.2)">
      <use xlink:href="#DejaVuSans-2d"/>
      <use x="36.083984" xlink:href="#DejaVuSans-31"/>
     </g>
    </g>
    <g id="line2d_141">
     <path d="M 80.208 88.365375 
L 120.208 88.365375 
" style="fill:none;stroke:#bf00bf;stroke-linecap:square;stroke-width:1.5;"/>
    </g>
    <g id="line2d_142"/>
    <g id="text_16">
     <!-- -4 -->
     <g transform="translate(136.208 95.365375)scale(0.2 -0.2)">
      <use xlink:href="#DejaVuSans-2d"/>
      <use x="36.083984" xlink:href="#DejaVuSans-34"/>
     </g>
    </g>
    <g id="line2d_143">
     <path d="M 80.208 117.721625 
L 120.208 117.721625 
" style="fill:none;stroke:#ff0000;stroke-linecap:square;stroke-width:3;"/>
    </g>
    <g id="line2d_144"/>
    <g id="text_17">
     <!-- -8 -->
     <g transform="translate(136.208 124.721625)scale(0.2 -0.2)">
      <use xlink:href="#DejaVuSans-2d"/>
      <use x="36.083984" xlink:href="#DejaVuSans-38"/>
     </g>
    </g>
   </g>
  </g>
 </g>
 <defs>
  <clipPath id="p296eba4515">
   <rect height="290.304" width="398.592" x="62.208" y="3.456"/>
  </clipPath>
 </defs>
</svg>
