<?xml version="1.0" encoding="utf-8" standalone="no"?>
<!DOCTYPE svg PUBLIC "-//W3C//DTD SVG 1.1//EN"
  "http://www.w3.org/Graphics/SVG/1.1/DTD/svg11.dtd">
<svg height="345.6pt" version="1.1" viewBox="0 0 460.8 345.6" width="460.8pt" xmlns="http://www.w3.org/2000/svg" xmlns:xlink="http://www.w3.org/1999/xlink">
 <metadata>
  <rdf:RDF xmlns:cc="http://creativecommons.org/ns#" xmlns:dc="http://purl.org/dc/elements/1.1/" xmlns:rdf="http://www.w3.org/1999/02/22-rdf-syntax-ns#">
   <cc:Work>
    <dc:type rdf:resource="http://purl.org/dc/dcmitype/StillImage"/>
    <dc:date>2023-04-17T18:16:44.430389</dc:date>
    <dc:format>image/svg+xml</dc:format>
    <dc:creator>
     <cc:Agent>
      <dc:title>Matplotlib v3.4.1, https://matplotlib.org/</dc:title>
     </cc:Agent>
    </dc:creator>
   </cc:Work>
  </rdf:RDF>
 </metadata>
 <defs>
  <style type="text/css">*{stroke-linecap:butt;stroke-linejoin:round;}</style>
 </defs>
 <g id="figure_1">
  <g id="patch_1">
   <path d="M 0 345.6 
L 460.8 345.6 
L 460.8 0 
L 0 0 
z
" style="fill:#ffffff;"/>
  </g>
  <g id="axes_1">
   <g id="patch_2">
    <path d="M 62.208 293.76 
L 460.8 293.76 
L 460.8 3.456 
L 62.208 3.456 
z
" style="fill:#ffffff;"/>
   </g>
   <g id="line2d_1"/>
   <g id="line2d_2">
    <path clip-path="url(#p1150ae50be)" d="M 351.565305 293.76 
L 351.565305 289.927604 
L 351.791574 289.927604 
L 351.791574 286.095208 
L 357.521402 286.095208 
L 357.521402 282.262812 
L 358.788751 282.262812 
L 358.788751 278.430416 
L 368.155734 278.430416 
L 368.155734 274.59802 
L 368.590085 274.59802 
L 368.590085 270.765624 
L 369.049962 270.765624 
L 369.049962 266.933228 
L 369.254377 266.933228 
L 369.254377 263.100832 
L 369.686827 263.100832 
L 369.686827 259.268436 
L 370.246339 259.268436 
L 370.246339 255.43604 
L 370.312832 255.43604 
L 370.312832 251.603644 
L 370.387946 251.603644 
L 370.387946 247.771248 
L 370.41993 247.771248 
L 370.41993 243.938851 
L 370.774732 243.938851 
L 370.774732 240.106455 
L 370.835201 240.106455 
L 370.835201 236.274059 
L 371.0533 236.274059 
L 371.0533 232.441663 
L 371.204145 232.441663 
L 371.204145 228.609267 
L 371.742434 228.609267 
L 371.742434 224.776871 
L 371.842515 224.776871 
L 371.842515 220.944475 
L 371.84813 220.944475 
L 371.84813 217.112079 
L 372.075468 217.112079 
L 372.075468 213.279683 
L 372.12904 213.279683 
L 372.12904 209.447287 
L 372.229856 209.447287 
L 372.229856 205.614891 
L 372.607527 205.614891 
L 372.607527 201.782495 
L 373.08924 201.782495 
L 373.08924 197.950099 
L 373.285999 197.950099 
L 373.285999 194.117703 
L 374.163154 194.117703 
L 374.163154 190.285307 
L 375.434805 190.285307 
L 375.434805 186.452911 
L 376.6444 186.452911 
L 376.6444 182.620515 
L 376.870684 182.620515 
L 376.870684 178.788119 
L 378.000765 178.788119 
L 378.000765 174.955723 
L 378.014304 174.955723 
L 378.014304 171.123327 
L 378.494465 171.123327 
L 378.494465 167.290931 
L 378.827137 167.290931 
L 378.827137 163.458535 
L 379.602387 163.458535 
L 379.602387 159.626139 
L 382.067476 159.626139 
L 382.067476 155.793743 
L 384.28723 155.793743 
L 384.28723 151.961347 
L 385.580763 151.961347 
L 385.580763 148.12895 
L 388.027017 148.12895 
L 388.027017 144.296554 
L 392.017147 144.296554 
L 392.017147 140.464158 
L 392.048798 140.464158 
L 392.048798 136.631762 
L 392.20943 136.631762 
L 392.20943 132.799366 
L 392.356469 132.799366 
L 392.356469 128.96697 
L 392.529507 128.96697 
L 392.529507 125.134574 
L 392.536985 125.134574 
L 392.536985 121.302178 
L 393.116415 121.302178 
L 393.116415 117.469782 
L 393.193751 117.469782 
L 393.193751 113.637386 
L 393.409924 113.637386 
L 393.409924 109.80499 
L 393.770019 109.80499 
L 393.770019 105.972594 
L 393.938548 105.972594 
L 393.938548 102.140198 
L 394.404 102.140198 
L 394.404 98.307802 
L 398.574004 98.307802 
L 398.574004 94.475406 
L 399.032295 94.475406 
L 399.032295 90.64301 
L 399.056092 90.64301 
L 399.056092 86.810614 
L 399.478366 86.810614 
L 399.478366 82.978218 
L 399.716595 82.978218 
L 399.716595 79.145822 
L 400.610178 79.145822 
L 400.610178 75.313426 
L 408.908806 75.313426 
L 408.908806 71.48103 
L 410.686516 71.48103 
L 410.686516 67.648634 
L 425.25165 67.648634 
L 425.25165 63.816238 
L 439.826812 63.816238 
L 439.826812 59.983842 
L 439.826812 59.983842 
L 439.826812 59.983842 
L 460.8 59.983842 
" style="fill:none;stroke:#f5deb3;stroke-linecap:square;stroke-width:1.5;"/>
   </g>
   <g id="line2d_3"/>
   <g id="line2d_4"/>
   <g id="line2d_5">
    <path clip-path="url(#p1150ae50be)" d="M 342.178896 293.76 
L 342.178896 289.927604 
L 343.508082 289.927604 
L 343.508082 286.095208 
L 345.073023 286.095208 
L 345.073023 282.262812 
L 345.415706 282.262812 
L 345.415706 278.430416 
L 345.785166 278.430416 
L 345.785166 274.59802 
L 351.965695 274.59802 
L 351.965695 270.765624 
L 352.333391 270.765624 
L 352.333391 266.933228 
L 352.825433 266.933228 
L 352.885971 259.268436 
L 353.081223 259.268436 
L 353.081223 255.43604 
L 353.338075 255.43604 
L 353.338075 251.603644 
L 353.465464 251.603644 
L 353.465464 247.771248 
L 353.722555 247.771248 
L 353.819204 240.106455 
L 354.056813 240.106455 
L 354.081882 232.441663 
L 354.520266 232.441663 
L 354.520266 228.609267 
L 357.088265 228.609267 
L 357.088265 224.776871 
L 358.071797 224.776871 
L 358.071797 220.944475 
L 358.86192 220.944475 
L 358.86192 217.112079 
L 359.680953 217.112079 
L 359.680953 213.279683 
L 360.229484 213.279683 
L 360.247346 205.614891 
L 360.467004 205.614891 
L 360.467004 201.782495 
L 361.430386 201.782495 
L 361.430386 197.950099 
L 362.287575 197.950099 
L 362.287575 194.117703 
L 362.741804 194.117703 
L 362.741804 190.285307 
L 367.389589 190.285307 
L 367.389589 186.452911 
L 369.389298 186.452911 
L 369.389298 182.620515 
L 371.100784 182.620515 
L 371.208137 174.955723 
L 371.577163 174.955723 
L 371.675954 163.458535 
L 371.705827 163.458535 
L 371.705827 159.626139 
L 371.861604 159.626139 
L 371.953556 151.961347 
L 372.18477 151.961347 
L 372.18477 148.12895 
L 372.320991 148.12895 
L 372.320991 144.296554 
L 372.572233 144.296554 
L 372.622959 136.631762 
L 372.847169 136.631762 
L 372.866347 128.96697 
L 373.392682 128.96697 
L 373.392682 125.134574 
L 376.035165 125.134574 
L 376.035165 121.302178 
L 377.220615 121.302178 
L 377.220615 117.469782 
L 377.452588 117.469782 
L 377.549512 109.80499 
L 377.608142 109.80499 
L 377.681801 98.307802 
L 377.784994 98.307802 
L 377.892294 90.64301 
L 377.9819 90.64301 
L 377.9819 86.810614 
L 378.358052 86.810614 
L 378.358052 82.978218 
L 378.743152 82.978218 
L 378.743152 79.145822 
L 379.742168 79.145822 
L 379.742168 75.313426 
L 380.232966 75.313426 
L 380.232966 71.48103 
L 380.486436 71.48103 
L 380.486436 67.648634 
L 381.4441 67.648634 
L 381.4441 63.816238 
L 444.768971 63.816238 
L 444.768971 59.983842 
L 446.290562 59.983842 
L 446.290562 56.151446 
L 446.545629 56.151446 
L 446.545629 52.31905 
L 447.088168 52.31905 
L 447.088168 48.486653 
L 461.8 48.486653 
L 461.8 48.486653 
" style="fill:none;stroke:#f5deb3;stroke-linecap:square;stroke-width:1.5;"/>
   </g>
   <g id="line2d_6">
    <path clip-path="url(#p1150ae50be)" style="fill:none;stroke:#f5deb3;stroke-linecap:square;stroke-width:1.5;"/>
   </g>
   <g id="line2d_7"/>
   <g id="line2d_8"/>
   <g id="line2d_9"/>
   <g id="line2d_10"/>
   <g id="line2d_11">
    <path clip-path="url(#p1150ae50be)" style="fill:none;stroke:#f5deb3;stroke-linecap:square;stroke-width:1.5;"/>
   </g>
   <g id="line2d_12"/>
   <g id="line2d_13">
    <path clip-path="url(#p1150ae50be)" d="M 315.708239 293.76 
L 315.708239 289.927604 
L 316.977985 289.927604 
L 316.977985 286.095208 
L 322.654437 286.095208 
L 322.654437 282.262812 
L 323.275984 282.262812 
L 323.275984 278.430416 
L 325.135152 278.430416 
L 325.135152 274.59802 
L 325.878573 274.59802 
L 325.878573 270.765624 
L 327.080792 270.765624 
L 327.080792 266.933228 
L 329.66245 266.933228 
L 329.66245 263.100832 
L 331.800531 263.100832 
L 331.800531 259.268436 
L 333.179588 259.268436 
L 333.179588 255.43604 
L 334.339935 255.43604 
L 334.339935 251.603644 
L 337.532465 251.603644 
L 337.532465 247.771248 
L 338.485944 247.771248 
L 338.485944 243.938851 
L 342.602388 243.938851 
L 342.602388 240.106455 
L 342.653737 240.106455 
L 342.653737 236.274059 
L 388.331868 236.274059 
L 388.331868 232.441663 
L 392.937415 232.441663 
L 392.937415 228.609267 
L 393.211809 228.609267 
L 393.211809 224.776871 
L 393.850091 224.776871 
L 393.850091 220.944475 
L 396.395766 220.944475 
L 396.395766 217.112079 
L 396.993329 217.112079 
L 396.993329 213.279683 
L 397.779427 213.279683 
L 397.779427 209.447287 
L 397.786908 209.447287 
L 397.786908 205.614891 
L 398.385713 205.614891 
L 398.385713 201.782495 
L 398.478495 201.782495 
L 398.478495 197.950099 
L 400.071092 197.950099 
L 400.071092 194.117703 
L 400.234941 194.117703 
L 400.234941 190.285307 
L 400.384941 190.285307 
L 400.384941 186.452911 
L 400.406846 186.452911 
L 400.406846 182.620515 
L 400.682196 182.620515 
L 400.682196 178.788119 
L 400.790265 178.788119 
L 400.790265 174.955723 
L 402.311483 174.955723 
L 402.311483 171.123327 
L 402.532059 171.123327 
L 402.532059 167.290931 
L 402.560847 167.290931 
L 402.560847 163.458535 
L 403.012418 163.458535 
L 403.012418 159.626139 
L 403.125067 159.626139 
L 403.125067 155.793743 
L 406.493278 155.793743 
L 406.493278 151.961347 
L 407.086756 151.961347 
L 407.086756 148.12895 
L 407.371312 148.12895 
L 407.371312 144.296554 
L 407.704043 144.296554 
L 407.704043 140.464158 
L 408.473894 140.464158 
L 408.473894 136.631762 
L 409.571348 136.631762 
L 409.571348 132.799366 
L 410.194411 132.799366 
L 410.194411 128.96697 
L 410.466719 128.96697 
L 410.466719 125.134574 
L 411.466455 125.134574 
L 411.466455 121.302178 
L 411.466455 121.302178 
L 411.466455 121.302178 
L 460.8 121.302178 
" style="fill:none;stroke:#f5deb3;stroke-linecap:square;stroke-width:1.5;"/>
   </g>
   <g id="line2d_14"/>
   <g id="line2d_15"/>
   <g id="line2d_16"/>
   <g id="line2d_17">
    <path clip-path="url(#p1150ae50be)" d="M 381.236728 293.76 
L 381.236728 289.927604 
L 384.870973 289.927604 
L 384.870973 286.095208 
L 387.209454 286.095208 
L 387.209454 282.262812 
L 388.53086 282.262812 
L 388.638964 274.59802 
L 389.999942 274.59802 
L 389.999942 270.765624 
L 390.424599 270.765624 
L 390.516789 263.100832 
L 391.309 263.100832 
L 391.309 259.268436 
L 391.435203 259.268436 
L 391.435203 255.43604 
L 391.844704 255.43604 
L 391.858526 247.771248 
L 392.196068 247.771248 
L 392.201893 240.106455 
L 392.700129 240.106455 
L 392.700129 236.274059 
L 392.984171 236.274059 
L 392.984171 232.441663 
L 393.226851 232.441663 
L 393.226851 228.609267 
L 393.447505 228.609267 
L 393.447505 224.776871 
L 393.941504 224.776871 
L 393.941504 220.944475 
L 394.940305 220.944475 
L 394.940305 217.112079 
L 395.920163 217.112079 
L 395.920163 213.279683 
L 396.170165 213.279683 
L 396.170165 209.447287 
L 396.482017 209.447287 
L 396.482017 205.614891 
L 396.986008 205.614891 
L 396.986008 201.782495 
L 397.241471 201.782495 
L 397.241471 197.950099 
L 397.605496 197.950099 
L 397.605496 194.117703 
L 400.137841 194.117703 
L 400.168068 186.452911 
L 400.319717 186.452911 
L 400.386626 178.788119 
L 400.49127 178.788119 
L 400.49127 174.955723 
L 401.353297 174.955723 
L 401.410056 163.458535 
L 402.496579 163.458535 
L 402.496579 159.626139 
L 402.697582 159.626139 
L 402.74191 151.961347 
L 403.251038 151.961347 
L 403.251038 148.12895 
L 404.029489 148.12895 
L 404.029489 144.296554 
L 404.487461 144.296554 
L 404.487461 140.464158 
L 405.687862 140.464158 
L 405.687862 136.631762 
L 407.491821 136.631762 
L 407.491821 132.799366 
L 408.384229 132.799366 
L 408.384229 128.96697 
L 409.946137 128.96697 
L 409.946137 125.134574 
L 412.952552 125.134574 
L 412.952552 121.302178 
L 416.637332 121.302178 
L 416.637332 117.469782 
L 417.782761 117.469782 
L 417.782761 113.637386 
L 418.760214 113.637386 
L 418.760214 109.80499 
L 419.012484 109.80499 
L 419.012484 105.972594 
L 420.430305 105.972594 
L 420.430305 102.140198 
L 421.205819 102.140198 
L 421.205819 98.307802 
L 421.923892 98.307802 
L 422.024036 86.810614 
L 422.88673 86.810614 
L 422.88673 82.978218 
L 424.007059 82.978218 
L 424.007059 79.145822 
L 424.219324 79.145822 
L 424.219324 75.313426 
L 425.007267 75.313426 
L 425.097731 67.648634 
L 427.52192 67.648634 
L 427.52192 63.816238 
L 429.710991 63.816238 
L 429.710991 59.983842 
L 430.968454 59.983842 
L 430.968454 56.151446 
L 433.87956 56.151446 
L 433.87956 52.31905 
L 440.025658 52.31905 
L 440.025658 48.486653 
L 440.527734 48.486653 
L 440.538019 40.821861 
L 442.607882 40.821861 
L 442.607882 36.989465 
L 443.605922 36.989465 
L 443.694492 29.324673 
L 443.917287 29.324673 
L 443.958384 21.659881 
L 444.661298 21.659881 
L 444.662641 13.995089 
L 447.120078 13.995089 
L 447.120078 10.162693 
L 447.575514 10.162693 
L 447.575514 6.330297 
L 447.575514 6.330297 
L 460.8 6.330297 
L 460.8 6.330297 
" style="fill:none;stroke:#f5deb3;stroke-linecap:square;stroke-width:1.5;"/>
   </g>
   <g id="line2d_18">
    <path clip-path="url(#p1150ae50be)" d="M 352.629858 293.76 
L 352.629858 289.927604 
L 355.971045 289.927604 
L 355.971045 286.095208 
L 357.513452 286.095208 
L 357.513452 282.262812 
L 360.451459 282.262812 
L 360.451459 278.430416 
L 360.962115 278.430416 
L 360.962115 274.59802 
L 360.970158 274.59802 
L 360.970158 270.765624 
L 363.963845 270.765624 
L 363.963845 266.933228 
L 368.354234 266.933228 
L 368.354234 263.100832 
L 368.393331 263.100832 
L 368.393331 259.268436 
L 376.841845 259.268436 
L 376.841845 255.43604 
L 378.414586 255.43604 
L 378.414586 251.603644 
L 379.536746 251.603644 
L 379.536746 247.771248 
L 380.679939 247.771248 
L 380.679939 243.938851 
L 385.350783 243.938851 
L 385.350783 240.106455 
L 386.788061 240.106455 
L 386.788061 236.274059 
L 421.743118 236.274059 
L 421.743118 232.441663 
L 422.85727 232.441663 
L 422.85727 228.609267 
L 423.905118 228.609267 
L 423.905118 224.776871 
L 424.11775 224.776871 
L 424.11775 220.944475 
L 424.354577 220.944475 
L 424.354577 217.112079 
L 424.504566 217.112079 
L 424.504566 213.279683 
L 424.620171 213.279683 
L 424.620171 209.447287 
L 424.635769 209.447287 
L 424.635769 205.614891 
L 424.775415 205.614891 
L 424.775415 201.782495 
L 425.950855 201.782495 
L 425.950855 197.950099 
L 426.703998 197.950099 
L 426.703998 194.117703 
L 427.976097 194.117703 
L 427.976097 190.285307 
L 428.421625 190.285307 
L 428.421625 186.452911 
L 428.854363 186.452911 
L 428.854363 182.620515 
L 430.533281 182.620515 
L 430.533281 178.788119 
L 430.533281 178.788119 
L 430.533281 178.788119 
L 460.8 178.788119 
" style="fill:none;stroke:#f5deb3;stroke-linecap:square;stroke-width:1.5;"/>
   </g>
   <g id="line2d_19">
    <path clip-path="url(#p1150ae50be)" d="M 356.985307 293.76 
L 356.985307 289.927604 
L 357.259027 289.927604 
L 357.259027 286.095208 
L 357.377263 286.095208 
L 357.463329 278.430416 
L 357.529351 278.430416 
L 357.529351 274.59802 
L 357.755251 274.59802 
L 357.755251 270.765624 
L 357.945313 270.765624 
L 357.972842 263.100832 
L 358.441163 263.100832 
L 358.441163 259.268436 
L 358.562261 259.268436 
L 358.562261 255.43604 
L 358.698459 255.43604 
L 358.784126 247.771248 
L 359.176219 247.771248 
L 359.176219 243.938851 
L 359.667372 243.938851 
L 359.667372 240.106455 
L 360.217572 240.106455 
L 360.217572 236.274059 
L 364.906867 236.274059 
L 364.906867 232.441663 
L 365.163895 232.441663 
L 365.163895 228.609267 
L 365.68819 228.609267 
L 365.68819 224.776871 
L 365.845031 224.776871 
L 365.845031 220.944475 
L 365.965024 220.944475 
L 365.965024 217.112079 
L 367.543837 217.112079 
L 367.553186 209.447287 
L 367.690057 209.447287 
L 367.690057 205.614891 
L 367.808519 205.614891 
L 367.808519 201.782495 
L 368.041963 201.782495 
L 368.041963 197.950099 
L 368.319382 197.950099 
L 368.319382 194.117703 
L 368.44337 194.117703 
L 368.44337 190.285307 
L 368.905482 190.285307 
L 368.905482 186.452911 
L 370.360595 186.452911 
L 370.360595 182.620515 
L 370.633294 182.620515 
L 370.633294 178.788119 
L 370.854762 178.788119 
L 370.854762 174.955723 
L 372.497684 174.955723 
L 372.497684 171.123327 
L 373.541144 171.123327 
L 373.541144 167.290931 
L 374.021715 167.290931 
L 374.021715 163.458535 
L 374.306755 163.458535 
L 374.315218 155.793743 
L 374.655454 155.793743 
L 374.655454 151.961347 
L 375.070345 151.961347 
L 375.070345 148.12895 
L 375.346184 148.12895 
L 375.353405 140.464158 
L 375.575588 140.464158 
L 375.575588 136.631762 
L 375.774126 136.631762 
L 375.774126 132.799366 
L 376.450021 132.799366 
L 376.450021 128.96697 
L 376.813981 128.96697 
L 376.813981 125.134574 
L 377.720772 125.134574 
L 377.720772 121.302178 
L 389.454561 121.302178 
L 389.454561 117.469782 
L 389.710504 117.469782 
L 389.710504 113.637386 
L 392.319588 113.637386 
L 392.319588 109.80499 
L 392.432859 109.80499 
L 392.432859 105.972594 
L 394.480581 105.972594 
L 394.480581 102.140198 
L 394.699154 102.140198 
L 394.699154 98.307802 
L 394.969469 98.307802 
L 395.042128 90.64301 
L 395.304808 90.64301 
L 395.386394 82.978218 
L 395.78407 82.978218 
L 395.78407 79.145822 
L 396.118479 79.145822 
L 396.118479 75.313426 
L 397.835349 75.313426 
L 397.835349 71.48103 
L 398.99454 71.48103 
L 398.99454 67.648634 
L 399.882994 67.648634 
L 399.98637 59.983842 
L 400.172021 59.983842 
L 400.19658 52.31905 
L 400.288756 52.31905 
L 400.288756 48.486653 
L 401.364545 48.486653 
L 401.364545 44.654257 
L 401.939319 44.654257 
L 401.977444 36.989465 
L 402.08972 36.989465 
L 402.167541 29.324673 
L 402.295932 29.324673 
L 402.295932 25.492277 
L 402.759947 25.492277 
L 402.759947 21.659881 
L 403.295822 21.659881 
L 403.394646 13.995089 
L 405.964793 13.995089 
L 405.964793 10.162693 
L 411.670958 10.162693 
L 411.670958 6.330297 
L 411.670958 6.330297 
L 460.8 6.330297 
L 460.8 6.330297 
" style="fill:none;stroke:#f5deb3;stroke-linecap:square;stroke-width:1.5;"/>
   </g>
   <g id="line2d_20"/>
   <g id="matplotlib.axis_1">
    <g id="xtick_1">
     <g id="line2d_21">
      <path clip-path="url(#p1150ae50be)" d="M 62.208 293.76 
L 62.208 3.456 
" style="fill:none;stroke:#b0b0b0;stroke-linecap:square;stroke-width:0.8;"/>
     </g>
     <g id="line2d_22">
      <defs>
       <path d="M 0 0 
L 0 3.5 
" id="m54f31cceba" style="stroke:#000000;stroke-width:0.8;"/>
      </defs>
      <g>
       <use style="stroke:#000000;stroke-width:0.8;" x="62.208" xlink:href="#m54f31cceba" y="293.76"/>
      </g>
     </g>
     <g id="text_1">
      <!-- 0 -->
      <g transform="translate(55.8455 315.956875)scale(0.2 -0.2)">
       <defs>
        <path d="M 2034 4250 
Q 1547 4250 1301 3770 
Q 1056 3291 1056 2328 
Q 1056 1369 1301 889 
Q 1547 409 2034 409 
Q 2525 409 2770 889 
Q 3016 1369 3016 2328 
Q 3016 3291 2770 3770 
Q 2525 4250 2034 4250 
z
M 2034 4750 
Q 2819 4750 3233 4129 
Q 3647 3509 3647 2328 
Q 3647 1150 3233 529 
Q 2819 -91 2034 -91 
Q 1250 -91 836 529 
Q 422 1150 422 2328 
Q 422 3509 836 4129 
Q 1250 4750 2034 4750 
z
" id="DejaVuSans-30" transform="scale(0.015625)"/>
       </defs>
       <use xlink:href="#DejaVuSans-30"/>
      </g>
     </g>
    </g>
    <g id="xtick_2">
     <g id="line2d_23">
      <path clip-path="url(#p1150ae50be)" d="M 251.96479 293.76 
L 251.96479 3.456 
" style="fill:none;stroke:#b0b0b0;stroke-linecap:square;stroke-width:0.8;"/>
     </g>
     <g id="line2d_24">
      <g>
       <use style="stroke:#000000;stroke-width:0.8;" x="251.96479" xlink:href="#m54f31cceba" y="293.76"/>
      </g>
     </g>
     <g id="text_2">
      <!-- 2 -->
      <g transform="translate(245.60229 315.956875)scale(0.2 -0.2)">
       <defs>
        <path d="M 1228 531 
L 3431 531 
L 3431 0 
L 469 0 
L 469 531 
Q 828 903 1448 1529 
Q 2069 2156 2228 2338 
Q 2531 2678 2651 2914 
Q 2772 3150 2772 3378 
Q 2772 3750 2511 3984 
Q 2250 4219 1831 4219 
Q 1534 4219 1204 4116 
Q 875 4013 500 3803 
L 500 4441 
Q 881 4594 1212 4672 
Q 1544 4750 1819 4750 
Q 2544 4750 2975 4387 
Q 3406 4025 3406 3419 
Q 3406 3131 3298 2873 
Q 3191 2616 2906 2266 
Q 2828 2175 2409 1742 
Q 1991 1309 1228 531 
z
" id="DejaVuSans-32" transform="scale(0.015625)"/>
       </defs>
       <use xlink:href="#DejaVuSans-32"/>
      </g>
     </g>
    </g>
    <g id="xtick_3">
     <g id="line2d_25">
      <path clip-path="url(#p1150ae50be)" d="M 441.72158 293.76 
L 441.72158 3.456 
" style="fill:none;stroke:#b0b0b0;stroke-linecap:square;stroke-width:0.8;"/>
     </g>
     <g id="line2d_26">
      <g>
       <use style="stroke:#000000;stroke-width:0.8;" x="441.72158" xlink:href="#m54f31cceba" y="293.76"/>
      </g>
     </g>
     <g id="text_3">
      <!-- 4 -->
      <g transform="translate(435.35908 315.956875)scale(0.2 -0.2)">
       <defs>
        <path d="M 2419 4116 
L 825 1625 
L 2419 1625 
L 2419 4116 
z
M 2253 4666 
L 3047 4666 
L 3047 1625 
L 3713 1625 
L 3713 1100 
L 3047 1100 
L 3047 0 
L 2419 0 
L 2419 1100 
L 313 1100 
L 313 1709 
L 2253 4666 
z
" id="DejaVuSans-34" transform="scale(0.015625)"/>
       </defs>
       <use xlink:href="#DejaVuSans-34"/>
      </g>
     </g>
    </g>
    <g id="xtick_4">
     <g id="line2d_27">
      <path clip-path="url(#p1150ae50be)" d="M 90.769243 293.76 
L 90.769243 3.456 
" style="fill:none;stroke:#b0b0b0;stroke-linecap:square;stroke-width:0.8;"/>
     </g>
     <g id="line2d_28">
      <defs>
       <path d="M 0 0 
L 0 2 
" id="m5793e84527" style="stroke:#000000;stroke-width:0.6;"/>
      </defs>
      <g>
       <use style="stroke:#000000;stroke-width:0.6;" x="90.769243" xlink:href="#m5793e84527" y="293.76"/>
      </g>
     </g>
    </g>
    <g id="xtick_5">
     <g id="line2d_29">
      <path clip-path="url(#p1150ae50be)" d="M 107.476499 293.76 
L 107.476499 3.456 
" style="fill:none;stroke:#b0b0b0;stroke-linecap:square;stroke-width:0.8;"/>
     </g>
     <g id="line2d_30">
      <g>
       <use style="stroke:#000000;stroke-width:0.6;" x="107.476499" xlink:href="#m5793e84527" y="293.76"/>
      </g>
     </g>
    </g>
    <g id="xtick_6">
     <g id="line2d_31">
      <path clip-path="url(#p1150ae50be)" d="M 119.330486 293.76 
L 119.330486 3.456 
" style="fill:none;stroke:#b0b0b0;stroke-linecap:square;stroke-width:0.8;"/>
     </g>
     <g id="line2d_32">
      <g>
       <use style="stroke:#000000;stroke-width:0.6;" x="119.330486" xlink:href="#m5793e84527" y="293.76"/>
      </g>
     </g>
    </g>
    <g id="xtick_7">
     <g id="line2d_33">
      <path clip-path="url(#p1150ae50be)" d="M 128.525152 293.76 
L 128.525152 3.456 
" style="fill:none;stroke:#b0b0b0;stroke-linecap:square;stroke-width:0.8;"/>
     </g>
     <g id="line2d_34">
      <g>
       <use style="stroke:#000000;stroke-width:0.6;" x="128.525152" xlink:href="#m5793e84527" y="293.76"/>
      </g>
     </g>
    </g>
    <g id="xtick_8">
     <g id="line2d_35">
      <path clip-path="url(#p1150ae50be)" d="M 136.037742 293.76 
L 136.037742 3.456 
" style="fill:none;stroke:#b0b0b0;stroke-linecap:square;stroke-width:0.8;"/>
     </g>
     <g id="line2d_36">
      <g>
       <use style="stroke:#000000;stroke-width:0.6;" x="136.037742" xlink:href="#m5793e84527" y="293.76"/>
      </g>
     </g>
    </g>
    <g id="xtick_9">
     <g id="line2d_37">
      <path clip-path="url(#p1150ae50be)" d="M 142.389546 293.76 
L 142.389546 3.456 
" style="fill:none;stroke:#b0b0b0;stroke-linecap:square;stroke-width:0.8;"/>
     </g>
     <g id="line2d_38">
      <g>
       <use style="stroke:#000000;stroke-width:0.6;" x="142.389546" xlink:href="#m5793e84527" y="293.76"/>
      </g>
     </g>
    </g>
    <g id="xtick_10">
     <g id="line2d_39">
      <path clip-path="url(#p1150ae50be)" d="M 147.891728 293.76 
L 147.891728 3.456 
" style="fill:none;stroke:#b0b0b0;stroke-linecap:square;stroke-width:0.8;"/>
     </g>
     <g id="line2d_40">
      <g>
       <use style="stroke:#000000;stroke-width:0.6;" x="147.891728" xlink:href="#m5793e84527" y="293.76"/>
      </g>
     </g>
    </g>
    <g id="xtick_11">
     <g id="line2d_41">
      <path clip-path="url(#p1150ae50be)" d="M 152.744998 293.76 
L 152.744998 3.456 
" style="fill:none;stroke:#b0b0b0;stroke-linecap:square;stroke-width:0.8;"/>
     </g>
     <g id="line2d_42">
      <g>
       <use style="stroke:#000000;stroke-width:0.6;" x="152.744998" xlink:href="#m5793e84527" y="293.76"/>
      </g>
     </g>
    </g>
    <g id="xtick_12">
     <g id="line2d_43">
      <path clip-path="url(#p1150ae50be)" d="M 185.647638 293.76 
L 185.647638 3.456 
" style="fill:none;stroke:#b0b0b0;stroke-linecap:square;stroke-width:0.8;"/>
     </g>
     <g id="line2d_44">
      <g>
       <use style="stroke:#000000;stroke-width:0.6;" x="185.647638" xlink:href="#m5793e84527" y="293.76"/>
      </g>
     </g>
    </g>
    <g id="xtick_13">
     <g id="line2d_45">
      <path clip-path="url(#p1150ae50be)" d="M 202.354894 293.76 
L 202.354894 3.456 
" style="fill:none;stroke:#b0b0b0;stroke-linecap:square;stroke-width:0.8;"/>
     </g>
     <g id="line2d_46">
      <g>
       <use style="stroke:#000000;stroke-width:0.6;" x="202.354894" xlink:href="#m5793e84527" y="293.76"/>
      </g>
     </g>
    </g>
    <g id="xtick_14">
     <g id="line2d_47">
      <path clip-path="url(#p1150ae50be)" d="M 214.20888 293.76 
L 214.20888 3.456 
" style="fill:none;stroke:#b0b0b0;stroke-linecap:square;stroke-width:0.8;"/>
     </g>
     <g id="line2d_48">
      <g>
       <use style="stroke:#000000;stroke-width:0.6;" x="214.20888" xlink:href="#m5793e84527" y="293.76"/>
      </g>
     </g>
    </g>
    <g id="xtick_15">
     <g id="line2d_49">
      <path clip-path="url(#p1150ae50be)" d="M 223.403547 293.76 
L 223.403547 3.456 
" style="fill:none;stroke:#b0b0b0;stroke-linecap:square;stroke-width:0.8;"/>
     </g>
     <g id="line2d_50">
      <g>
       <use style="stroke:#000000;stroke-width:0.6;" x="223.403547" xlink:href="#m5793e84527" y="293.76"/>
      </g>
     </g>
    </g>
    <g id="xtick_16">
     <g id="line2d_51">
      <path clip-path="url(#p1150ae50be)" d="M 230.916137 293.76 
L 230.916137 3.456 
" style="fill:none;stroke:#b0b0b0;stroke-linecap:square;stroke-width:0.8;"/>
     </g>
     <g id="line2d_52">
      <g>
       <use style="stroke:#000000;stroke-width:0.6;" x="230.916137" xlink:href="#m5793e84527" y="293.76"/>
      </g>
     </g>
    </g>
    <g id="xtick_17">
     <g id="line2d_53">
      <path clip-path="url(#p1150ae50be)" d="M 237.26794 293.76 
L 237.26794 3.456 
" style="fill:none;stroke:#b0b0b0;stroke-linecap:square;stroke-width:0.8;"/>
     </g>
     <g id="line2d_54">
      <g>
       <use style="stroke:#000000;stroke-width:0.6;" x="237.26794" xlink:href="#m5793e84527" y="293.76"/>
      </g>
     </g>
    </g>
    <g id="xtick_18">
     <g id="line2d_55">
      <path clip-path="url(#p1150ae50be)" d="M 242.770123 293.76 
L 242.770123 3.456 
" style="fill:none;stroke:#b0b0b0;stroke-linecap:square;stroke-width:0.8;"/>
     </g>
     <g id="line2d_56">
      <g>
       <use style="stroke:#000000;stroke-width:0.6;" x="242.770123" xlink:href="#m5793e84527" y="293.76"/>
      </g>
     </g>
    </g>
    <g id="xtick_19">
     <g id="line2d_57">
      <path clip-path="url(#p1150ae50be)" d="M 247.623393 293.76 
L 247.623393 3.456 
" style="fill:none;stroke:#b0b0b0;stroke-linecap:square;stroke-width:0.8;"/>
     </g>
     <g id="line2d_58">
      <g>
       <use style="stroke:#000000;stroke-width:0.6;" x="247.623393" xlink:href="#m5793e84527" y="293.76"/>
      </g>
     </g>
    </g>
    <g id="xtick_20">
     <g id="line2d_59">
      <path clip-path="url(#p1150ae50be)" d="M 280.526033 293.76 
L 280.526033 3.456 
" style="fill:none;stroke:#b0b0b0;stroke-linecap:square;stroke-width:0.8;"/>
     </g>
     <g id="line2d_60">
      <g>
       <use style="stroke:#000000;stroke-width:0.6;" x="280.526033" xlink:href="#m5793e84527" y="293.76"/>
      </g>
     </g>
    </g>
    <g id="xtick_21">
     <g id="line2d_61">
      <path clip-path="url(#p1150ae50be)" d="M 297.233289 293.76 
L 297.233289 3.456 
" style="fill:none;stroke:#b0b0b0;stroke-linecap:square;stroke-width:0.8;"/>
     </g>
     <g id="line2d_62">
      <g>
       <use style="stroke:#000000;stroke-width:0.6;" x="297.233289" xlink:href="#m5793e84527" y="293.76"/>
      </g>
     </g>
    </g>
    <g id="xtick_22">
     <g id="line2d_63">
      <path clip-path="url(#p1150ae50be)" d="M 309.087275 293.76 
L 309.087275 3.456 
" style="fill:none;stroke:#b0b0b0;stroke-linecap:square;stroke-width:0.8;"/>
     </g>
     <g id="line2d_64">
      <g>
       <use style="stroke:#000000;stroke-width:0.6;" x="309.087275" xlink:href="#m5793e84527" y="293.76"/>
      </g>
     </g>
    </g>
    <g id="xtick_23">
     <g id="line2d_65">
      <path clip-path="url(#p1150ae50be)" d="M 318.281942 293.76 
L 318.281942 3.456 
" style="fill:none;stroke:#b0b0b0;stroke-linecap:square;stroke-width:0.8;"/>
     </g>
     <g id="line2d_66">
      <g>
       <use style="stroke:#000000;stroke-width:0.6;" x="318.281942" xlink:href="#m5793e84527" y="293.76"/>
      </g>
     </g>
    </g>
    <g id="xtick_24">
     <g id="line2d_67">
      <path clip-path="url(#p1150ae50be)" d="M 325.794531 293.76 
L 325.794531 3.456 
" style="fill:none;stroke:#b0b0b0;stroke-linecap:square;stroke-width:0.8;"/>
     </g>
     <g id="line2d_68">
      <g>
       <use style="stroke:#000000;stroke-width:0.6;" x="325.794531" xlink:href="#m5793e84527" y="293.76"/>
      </g>
     </g>
    </g>
    <g id="xtick_25">
     <g id="line2d_69">
      <path clip-path="url(#p1150ae50be)" d="M 332.146335 293.76 
L 332.146335 3.456 
" style="fill:none;stroke:#b0b0b0;stroke-linecap:square;stroke-width:0.8;"/>
     </g>
     <g id="line2d_70">
      <g>
       <use style="stroke:#000000;stroke-width:0.6;" x="332.146335" xlink:href="#m5793e84527" y="293.76"/>
      </g>
     </g>
    </g>
    <g id="xtick_26">
     <g id="line2d_71">
      <path clip-path="url(#p1150ae50be)" d="M 337.648518 293.76 
L 337.648518 3.456 
" style="fill:none;stroke:#b0b0b0;stroke-linecap:square;stroke-width:0.8;"/>
     </g>
     <g id="line2d_72">
      <g>
       <use style="stroke:#000000;stroke-width:0.6;" x="337.648518" xlink:href="#m5793e84527" y="293.76"/>
      </g>
     </g>
    </g>
    <g id="xtick_27">
     <g id="line2d_73">
      <path clip-path="url(#p1150ae50be)" d="M 342.501787 293.76 
L 342.501787 3.456 
" style="fill:none;stroke:#b0b0b0;stroke-linecap:square;stroke-width:0.8;"/>
     </g>
     <g id="line2d_74">
      <g>
       <use style="stroke:#000000;stroke-width:0.6;" x="342.501787" xlink:href="#m5793e84527" y="293.76"/>
      </g>
     </g>
    </g>
    <g id="xtick_28">
     <g id="line2d_75">
      <path clip-path="url(#p1150ae50be)" d="M 375.404427 293.76 
L 375.404427 3.456 
" style="fill:none;stroke:#b0b0b0;stroke-linecap:square;stroke-width:0.8;"/>
     </g>
     <g id="line2d_76">
      <g>
       <use style="stroke:#000000;stroke-width:0.6;" x="375.404427" xlink:href="#m5793e84527" y="293.76"/>
      </g>
     </g>
    </g>
    <g id="xtick_29">
     <g id="line2d_77">
      <path clip-path="url(#p1150ae50be)" d="M 392.111683 293.76 
L 392.111683 3.456 
" style="fill:none;stroke:#b0b0b0;stroke-linecap:square;stroke-width:0.8;"/>
     </g>
     <g id="line2d_78">
      <g>
       <use style="stroke:#000000;stroke-width:0.6;" x="392.111683" xlink:href="#m5793e84527" y="293.76"/>
      </g>
     </g>
    </g>
    <g id="xtick_30">
     <g id="line2d_79">
      <path clip-path="url(#p1150ae50be)" d="M 403.96567 293.76 
L 403.96567 3.456 
" style="fill:none;stroke:#b0b0b0;stroke-linecap:square;stroke-width:0.8;"/>
     </g>
     <g id="line2d_80">
      <g>
       <use style="stroke:#000000;stroke-width:0.6;" x="403.96567" xlink:href="#m5793e84527" y="293.76"/>
      </g>
     </g>
    </g>
    <g id="xtick_31">
     <g id="line2d_81">
      <path clip-path="url(#p1150ae50be)" d="M 413.160337 293.76 
L 413.160337 3.456 
" style="fill:none;stroke:#b0b0b0;stroke-linecap:square;stroke-width:0.8;"/>
     </g>
     <g id="line2d_82">
      <g>
       <use style="stroke:#000000;stroke-width:0.6;" x="413.160337" xlink:href="#m5793e84527" y="293.76"/>
      </g>
     </g>
    </g>
    <g id="xtick_32">
     <g id="line2d_83">
      <path clip-path="url(#p1150ae50be)" d="M 420.672926 293.76 
L 420.672926 3.456 
" style="fill:none;stroke:#b0b0b0;stroke-linecap:square;stroke-width:0.8;"/>
     </g>
     <g id="line2d_84">
      <g>
       <use style="stroke:#000000;stroke-width:0.6;" x="420.672926" xlink:href="#m5793e84527" y="293.76"/>
      </g>
     </g>
    </g>
    <g id="xtick_33">
     <g id="line2d_85">
      <path clip-path="url(#p1150ae50be)" d="M 427.02473 293.76 
L 427.02473 3.456 
" style="fill:none;stroke:#b0b0b0;stroke-linecap:square;stroke-width:0.8;"/>
     </g>
     <g id="line2d_86">
      <g>
       <use style="stroke:#000000;stroke-width:0.6;" x="427.02473" xlink:href="#m5793e84527" y="293.76"/>
      </g>
     </g>
    </g>
    <g id="xtick_34">
     <g id="line2d_87">
      <path clip-path="url(#p1150ae50be)" d="M 432.526913 293.76 
L 432.526913 3.456 
" style="fill:none;stroke:#b0b0b0;stroke-linecap:square;stroke-width:0.8;"/>
     </g>
     <g id="line2d_88">
      <g>
       <use style="stroke:#000000;stroke-width:0.6;" x="432.526913" xlink:href="#m5793e84527" y="293.76"/>
      </g>
     </g>
    </g>
    <g id="xtick_35">
     <g id="line2d_89">
      <path clip-path="url(#p1150ae50be)" d="M 437.380182 293.76 
L 437.380182 3.456 
" style="fill:none;stroke:#b0b0b0;stroke-linecap:square;stroke-width:0.8;"/>
     </g>
     <g id="line2d_90">
      <g>
       <use style="stroke:#000000;stroke-width:0.6;" x="437.380182" xlink:href="#m5793e84527" y="293.76"/>
      </g>
     </g>
    </g>
    <g id="text_4">
     <!-- log10 of FEvals / DIM -->
     <g transform="translate(156.430563 339.313125)scale(0.2 -0.2)">
      <defs>
       <path d="M 603 4863 
L 1178 4863 
L 1178 0 
L 603 0 
L 603 4863 
z
" id="DejaVuSans-6c" transform="scale(0.015625)"/>
       <path d="M 1959 3097 
Q 1497 3097 1228 2736 
Q 959 2375 959 1747 
Q 959 1119 1226 758 
Q 1494 397 1959 397 
Q 2419 397 2687 759 
Q 2956 1122 2956 1747 
Q 2956 2369 2687 2733 
Q 2419 3097 1959 3097 
z
M 1959 3584 
Q 2709 3584 3137 3096 
Q 3566 2609 3566 1747 
Q 3566 888 3137 398 
Q 2709 -91 1959 -91 
Q 1206 -91 779 398 
Q 353 888 353 1747 
Q 353 2609 779 3096 
Q 1206 3584 1959 3584 
z
" id="DejaVuSans-6f" transform="scale(0.015625)"/>
       <path d="M 2906 1791 
Q 2906 2416 2648 2759 
Q 2391 3103 1925 3103 
Q 1463 3103 1205 2759 
Q 947 2416 947 1791 
Q 947 1169 1205 825 
Q 1463 481 1925 481 
Q 2391 481 2648 825 
Q 2906 1169 2906 1791 
z
M 3481 434 
Q 3481 -459 3084 -895 
Q 2688 -1331 1869 -1331 
Q 1566 -1331 1297 -1286 
Q 1028 -1241 775 -1147 
L 775 -588 
Q 1028 -725 1275 -790 
Q 1522 -856 1778 -856 
Q 2344 -856 2625 -561 
Q 2906 -266 2906 331 
L 2906 616 
Q 2728 306 2450 153 
Q 2172 0 1784 0 
Q 1141 0 747 490 
Q 353 981 353 1791 
Q 353 2603 747 3093 
Q 1141 3584 1784 3584 
Q 2172 3584 2450 3431 
Q 2728 3278 2906 2969 
L 2906 3500 
L 3481 3500 
L 3481 434 
z
" id="DejaVuSans-67" transform="scale(0.015625)"/>
       <path d="M 794 531 
L 1825 531 
L 1825 4091 
L 703 3866 
L 703 4441 
L 1819 4666 
L 2450 4666 
L 2450 531 
L 3481 531 
L 3481 0 
L 794 0 
L 794 531 
z
" id="DejaVuSans-31" transform="scale(0.015625)"/>
       <path id="DejaVuSans-20" transform="scale(0.015625)"/>
       <path d="M 2375 4863 
L 2375 4384 
L 1825 4384 
Q 1516 4384 1395 4259 
Q 1275 4134 1275 3809 
L 1275 3500 
L 2222 3500 
L 2222 3053 
L 1275 3053 
L 1275 0 
L 697 0 
L 697 3053 
L 147 3053 
L 147 3500 
L 697 3500 
L 697 3744 
Q 697 4328 969 4595 
Q 1241 4863 1831 4863 
L 2375 4863 
z
" id="DejaVuSans-66" transform="scale(0.015625)"/>
       <path d="M 628 4666 
L 3309 4666 
L 3309 4134 
L 1259 4134 
L 1259 2759 
L 3109 2759 
L 3109 2228 
L 1259 2228 
L 1259 0 
L 628 0 
L 628 4666 
z
" id="DejaVuSans-46" transform="scale(0.015625)"/>
       <path d="M 628 4666 
L 3578 4666 
L 3578 4134 
L 1259 4134 
L 1259 2753 
L 3481 2753 
L 3481 2222 
L 1259 2222 
L 1259 531 
L 3634 531 
L 3634 0 
L 628 0 
L 628 4666 
z
" id="DejaVuSans-45" transform="scale(0.015625)"/>
       <path d="M 191 3500 
L 800 3500 
L 1894 563 
L 2988 3500 
L 3597 3500 
L 2284 0 
L 1503 0 
L 191 3500 
z
" id="DejaVuSans-76" transform="scale(0.015625)"/>
       <path d="M 2194 1759 
Q 1497 1759 1228 1600 
Q 959 1441 959 1056 
Q 959 750 1161 570 
Q 1363 391 1709 391 
Q 2188 391 2477 730 
Q 2766 1069 2766 1631 
L 2766 1759 
L 2194 1759 
z
M 3341 1997 
L 3341 0 
L 2766 0 
L 2766 531 
Q 2569 213 2275 61 
Q 1981 -91 1556 -91 
Q 1019 -91 701 211 
Q 384 513 384 1019 
Q 384 1609 779 1909 
Q 1175 2209 1959 2209 
L 2766 2209 
L 2766 2266 
Q 2766 2663 2505 2880 
Q 2244 3097 1772 3097 
Q 1472 3097 1187 3025 
Q 903 2953 641 2809 
L 641 3341 
Q 956 3463 1253 3523 
Q 1550 3584 1831 3584 
Q 2591 3584 2966 3190 
Q 3341 2797 3341 1997 
z
" id="DejaVuSans-61" transform="scale(0.015625)"/>
       <path d="M 2834 3397 
L 2834 2853 
Q 2591 2978 2328 3040 
Q 2066 3103 1784 3103 
Q 1356 3103 1142 2972 
Q 928 2841 928 2578 
Q 928 2378 1081 2264 
Q 1234 2150 1697 2047 
L 1894 2003 
Q 2506 1872 2764 1633 
Q 3022 1394 3022 966 
Q 3022 478 2636 193 
Q 2250 -91 1575 -91 
Q 1294 -91 989 -36 
Q 684 19 347 128 
L 347 722 
Q 666 556 975 473 
Q 1284 391 1588 391 
Q 1994 391 2212 530 
Q 2431 669 2431 922 
Q 2431 1156 2273 1281 
Q 2116 1406 1581 1522 
L 1381 1569 
Q 847 1681 609 1914 
Q 372 2147 372 2553 
Q 372 3047 722 3315 
Q 1072 3584 1716 3584 
Q 2034 3584 2315 3537 
Q 2597 3491 2834 3397 
z
" id="DejaVuSans-73" transform="scale(0.015625)"/>
       <path d="M 1625 4666 
L 2156 4666 
L 531 -594 
L 0 -594 
L 1625 4666 
z
" id="DejaVuSans-2f" transform="scale(0.015625)"/>
       <path d="M 1259 4147 
L 1259 519 
L 2022 519 
Q 2988 519 3436 956 
Q 3884 1394 3884 2338 
Q 3884 3275 3436 3711 
Q 2988 4147 2022 4147 
L 1259 4147 
z
M 628 4666 
L 1925 4666 
Q 3281 4666 3915 4102 
Q 4550 3538 4550 2338 
Q 4550 1131 3912 565 
Q 3275 0 1925 0 
L 628 0 
L 628 4666 
z
" id="DejaVuSans-44" transform="scale(0.015625)"/>
       <path d="M 628 4666 
L 1259 4666 
L 1259 0 
L 628 0 
L 628 4666 
z
" id="DejaVuSans-49" transform="scale(0.015625)"/>
       <path d="M 628 4666 
L 1569 4666 
L 2759 1491 
L 3956 4666 
L 4897 4666 
L 4897 0 
L 4281 0 
L 4281 4097 
L 3078 897 
L 2444 897 
L 1241 4097 
L 1241 0 
L 628 0 
L 628 4666 
z
" id="DejaVuSans-4d" transform="scale(0.015625)"/>
      </defs>
      <use xlink:href="#DejaVuSans-6c"/>
      <use x="27.783203" xlink:href="#DejaVuSans-6f"/>
      <use x="88.964844" xlink:href="#DejaVuSans-67"/>
      <use x="152.441406" xlink:href="#DejaVuSans-31"/>
      <use x="216.064453" xlink:href="#DejaVuSans-30"/>
      <use x="279.6875" xlink:href="#DejaVuSans-20"/>
      <use x="311.474609" xlink:href="#DejaVuSans-6f"/>
      <use x="372.65625" xlink:href="#DejaVuSans-66"/>
      <use x="407.861328" xlink:href="#DejaVuSans-20"/>
      <use x="439.648438" xlink:href="#DejaVuSans-46"/>
      <use x="497.167969" xlink:href="#DejaVuSans-45"/>
      <use x="560.351562" xlink:href="#DejaVuSans-76"/>
      <use x="619.53125" xlink:href="#DejaVuSans-61"/>
      <use x="680.810547" xlink:href="#DejaVuSans-6c"/>
      <use x="708.59375" xlink:href="#DejaVuSans-73"/>
      <use x="760.693359" xlink:href="#DejaVuSans-20"/>
      <use x="792.480469" xlink:href="#DejaVuSans-2f"/>
      <use x="826.171875" xlink:href="#DejaVuSans-20"/>
      <use x="857.958984" xlink:href="#DejaVuSans-44"/>
      <use x="934.960938" xlink:href="#DejaVuSans-49"/>
      <use x="964.453125" xlink:href="#DejaVuSans-4d"/>
     </g>
    </g>
   </g>
   <g id="matplotlib.axis_2">
    <g id="ytick_1">
     <g id="line2d_91">
      <path clip-path="url(#p1150ae50be)" d="M 62.208 293.76 
L 460.8 293.76 
" style="fill:none;stroke:#b0b0b0;stroke-linecap:square;stroke-width:0.8;"/>
     </g>
     <g id="line2d_92">
      <defs>
       <path d="M 0 0 
L -3.5 0 
" id="m6fe3ca3363" style="stroke:#000000;stroke-width:0.8;"/>
      </defs>
      <g>
       <use style="stroke:#000000;stroke-width:0.8;" x="62.208" xlink:href="#m6fe3ca3363" y="293.76"/>
      </g>
     </g>
     <g id="text_5">
      <!-- 0.0 -->
      <g transform="translate(29.763 299.83875)scale(0.16 -0.16)">
       <defs>
        <path d="M 684 794 
L 1344 794 
L 1344 0 
L 684 0 
L 684 794 
z
" id="DejaVuSans-2e" transform="scale(0.015625)"/>
       </defs>
       <use xlink:href="#DejaVuSans-30"/>
       <use x="63.623047" xlink:href="#DejaVuSans-2e"/>
       <use x="95.410156" xlink:href="#DejaVuSans-30"/>
      </g>
     </g>
    </g>
    <g id="ytick_2">
     <g id="line2d_93">
      <path clip-path="url(#p1150ae50be)" d="M 62.208 236.274059 
L 460.8 236.274059 
" style="fill:none;stroke:#b0b0b0;stroke-linecap:square;stroke-width:0.8;"/>
     </g>
     <g id="line2d_94">
      <g>
       <use style="stroke:#000000;stroke-width:0.8;" x="62.208" xlink:href="#m6fe3ca3363" y="236.274059"/>
      </g>
     </g>
     <g id="text_6">
      <!-- 0.2 -->
      <g transform="translate(29.763 242.352809)scale(0.16 -0.16)">
       <use xlink:href="#DejaVuSans-30"/>
       <use x="63.623047" xlink:href="#DejaVuSans-2e"/>
       <use x="95.410156" xlink:href="#DejaVuSans-32"/>
      </g>
     </g>
    </g>
    <g id="ytick_3">
     <g id="line2d_95">
      <path clip-path="url(#p1150ae50be)" d="M 62.208 178.788119 
L 460.8 178.788119 
" style="fill:none;stroke:#b0b0b0;stroke-linecap:square;stroke-width:0.8;"/>
     </g>
     <g id="line2d_96">
      <g>
       <use style="stroke:#000000;stroke-width:0.8;" x="62.208" xlink:href="#m6fe3ca3363" y="178.788119"/>
      </g>
     </g>
     <g id="text_7">
      <!-- 0.4 -->
      <g transform="translate(29.763 184.866869)scale(0.16 -0.16)">
       <use xlink:href="#DejaVuSans-30"/>
       <use x="63.623047" xlink:href="#DejaVuSans-2e"/>
       <use x="95.410156" xlink:href="#DejaVuSans-34"/>
      </g>
     </g>
    </g>
    <g id="ytick_4">
     <g id="line2d_97">
      <path clip-path="url(#p1150ae50be)" d="M 62.208 121.302178 
L 460.8 121.302178 
" style="fill:none;stroke:#b0b0b0;stroke-linecap:square;stroke-width:0.8;"/>
     </g>
     <g id="line2d_98">
      <g>
       <use style="stroke:#000000;stroke-width:0.8;" x="62.208" xlink:href="#m6fe3ca3363" y="121.302178"/>
      </g>
     </g>
     <g id="text_8">
      <!-- 0.6 -->
      <g transform="translate(29.763 127.380928)scale(0.16 -0.16)">
       <defs>
        <path d="M 2113 2584 
Q 1688 2584 1439 2293 
Q 1191 2003 1191 1497 
Q 1191 994 1439 701 
Q 1688 409 2113 409 
Q 2538 409 2786 701 
Q 3034 994 3034 1497 
Q 3034 2003 2786 2293 
Q 2538 2584 2113 2584 
z
M 3366 4563 
L 3366 3988 
Q 3128 4100 2886 4159 
Q 2644 4219 2406 4219 
Q 1781 4219 1451 3797 
Q 1122 3375 1075 2522 
Q 1259 2794 1537 2939 
Q 1816 3084 2150 3084 
Q 2853 3084 3261 2657 
Q 3669 2231 3669 1497 
Q 3669 778 3244 343 
Q 2819 -91 2113 -91 
Q 1303 -91 875 529 
Q 447 1150 447 2328 
Q 447 3434 972 4092 
Q 1497 4750 2381 4750 
Q 2619 4750 2861 4703 
Q 3103 4656 3366 4563 
z
" id="DejaVuSans-36" transform="scale(0.015625)"/>
       </defs>
       <use xlink:href="#DejaVuSans-30"/>
       <use x="63.623047" xlink:href="#DejaVuSans-2e"/>
       <use x="95.410156" xlink:href="#DejaVuSans-36"/>
      </g>
     </g>
    </g>
    <g id="ytick_5">
     <g id="line2d_99">
      <path clip-path="url(#p1150ae50be)" d="M 62.208 63.816238 
L 460.8 63.816238 
" style="fill:none;stroke:#b0b0b0;stroke-linecap:square;stroke-width:0.8;"/>
     </g>
     <g id="line2d_100">
      <g>
       <use style="stroke:#000000;stroke-width:0.8;" x="62.208" xlink:href="#m6fe3ca3363" y="63.816238"/>
      </g>
     </g>
     <g id="text_9">
      <!-- 0.8 -->
      <g transform="translate(29.763 69.894988)scale(0.16 -0.16)">
       <defs>
        <path d="M 2034 2216 
Q 1584 2216 1326 1975 
Q 1069 1734 1069 1313 
Q 1069 891 1326 650 
Q 1584 409 2034 409 
Q 2484 409 2743 651 
Q 3003 894 3003 1313 
Q 3003 1734 2745 1975 
Q 2488 2216 2034 2216 
z
M 1403 2484 
Q 997 2584 770 2862 
Q 544 3141 544 3541 
Q 544 4100 942 4425 
Q 1341 4750 2034 4750 
Q 2731 4750 3128 4425 
Q 3525 4100 3525 3541 
Q 3525 3141 3298 2862 
Q 3072 2584 2669 2484 
Q 3125 2378 3379 2068 
Q 3634 1759 3634 1313 
Q 3634 634 3220 271 
Q 2806 -91 2034 -91 
Q 1263 -91 848 271 
Q 434 634 434 1313 
Q 434 1759 690 2068 
Q 947 2378 1403 2484 
z
M 1172 3481 
Q 1172 3119 1398 2916 
Q 1625 2713 2034 2713 
Q 2441 2713 2670 2916 
Q 2900 3119 2900 3481 
Q 2900 3844 2670 4047 
Q 2441 4250 2034 4250 
Q 1625 4250 1398 4047 
Q 1172 3844 1172 3481 
z
" id="DejaVuSans-38" transform="scale(0.015625)"/>
       </defs>
       <use xlink:href="#DejaVuSans-30"/>
       <use x="63.623047" xlink:href="#DejaVuSans-2e"/>
       <use x="95.410156" xlink:href="#DejaVuSans-38"/>
      </g>
     </g>
    </g>
    <g id="ytick_6">
     <g id="line2d_101">
      <path clip-path="url(#p1150ae50be)" d="M 62.208 6.330297 
L 460.8 6.330297 
" style="fill:none;stroke:#b0b0b0;stroke-linecap:square;stroke-width:0.8;"/>
     </g>
     <g id="line2d_102">
      <g>
       <use style="stroke:#000000;stroke-width:0.8;" x="62.208" xlink:href="#m6fe3ca3363" y="6.330297"/>
      </g>
     </g>
     <g id="text_10">
      <!-- 1.0 -->
      <g transform="translate(29.763 12.409047)scale(0.16 -0.16)">
       <use xlink:href="#DejaVuSans-31"/>
       <use x="63.623047" xlink:href="#DejaVuSans-2e"/>
       <use x="95.410156" xlink:href="#DejaVuSans-30"/>
      </g>
     </g>
    </g>
    <g id="text_11">
     <!-- proportion of trials -->
     <g transform="translate(21.603625 241.61425)rotate(-90)scale(0.2 -0.2)">
      <defs>
       <path d="M 1159 525 
L 1159 -1331 
L 581 -1331 
L 581 3500 
L 1159 3500 
L 1159 2969 
Q 1341 3281 1617 3432 
Q 1894 3584 2278 3584 
Q 2916 3584 3314 3078 
Q 3713 2572 3713 1747 
Q 3713 922 3314 415 
Q 2916 -91 2278 -91 
Q 1894 -91 1617 61 
Q 1341 213 1159 525 
z
M 3116 1747 
Q 3116 2381 2855 2742 
Q 2594 3103 2138 3103 
Q 1681 3103 1420 2742 
Q 1159 2381 1159 1747 
Q 1159 1113 1420 752 
Q 1681 391 2138 391 
Q 2594 391 2855 752 
Q 3116 1113 3116 1747 
z
" id="DejaVuSans-70" transform="scale(0.015625)"/>
       <path d="M 2631 2963 
Q 2534 3019 2420 3045 
Q 2306 3072 2169 3072 
Q 1681 3072 1420 2755 
Q 1159 2438 1159 1844 
L 1159 0 
L 581 0 
L 581 3500 
L 1159 3500 
L 1159 2956 
Q 1341 3275 1631 3429 
Q 1922 3584 2338 3584 
Q 2397 3584 2469 3576 
Q 2541 3569 2628 3553 
L 2631 2963 
z
" id="DejaVuSans-72" transform="scale(0.015625)"/>
       <path d="M 1172 4494 
L 1172 3500 
L 2356 3500 
L 2356 3053 
L 1172 3053 
L 1172 1153 
Q 1172 725 1289 603 
Q 1406 481 1766 481 
L 2356 481 
L 2356 0 
L 1766 0 
Q 1100 0 847 248 
Q 594 497 594 1153 
L 594 3053 
L 172 3053 
L 172 3500 
L 594 3500 
L 594 4494 
L 1172 4494 
z
" id="DejaVuSans-74" transform="scale(0.015625)"/>
       <path d="M 603 3500 
L 1178 3500 
L 1178 0 
L 603 0 
L 603 3500 
z
M 603 4863 
L 1178 4863 
L 1178 4134 
L 603 4134 
L 603 4863 
z
" id="DejaVuSans-69" transform="scale(0.015625)"/>
       <path d="M 3513 2113 
L 3513 0 
L 2938 0 
L 2938 2094 
Q 2938 2591 2744 2837 
Q 2550 3084 2163 3084 
Q 1697 3084 1428 2787 
Q 1159 2491 1159 1978 
L 1159 0 
L 581 0 
L 581 3500 
L 1159 3500 
L 1159 2956 
Q 1366 3272 1645 3428 
Q 1925 3584 2291 3584 
Q 2894 3584 3203 3211 
Q 3513 2838 3513 2113 
z
" id="DejaVuSans-6e" transform="scale(0.015625)"/>
      </defs>
      <use xlink:href="#DejaVuSans-70"/>
      <use x="63.476562" xlink:href="#DejaVuSans-72"/>
      <use x="102.339844" xlink:href="#DejaVuSans-6f"/>
      <use x="163.521484" xlink:href="#DejaVuSans-70"/>
      <use x="226.998047" xlink:href="#DejaVuSans-6f"/>
      <use x="288.179688" xlink:href="#DejaVuSans-72"/>
      <use x="329.292969" xlink:href="#DejaVuSans-74"/>
      <use x="368.501953" xlink:href="#DejaVuSans-69"/>
      <use x="396.285156" xlink:href="#DejaVuSans-6f"/>
      <use x="457.466797" xlink:href="#DejaVuSans-6e"/>
      <use x="520.845703" xlink:href="#DejaVuSans-20"/>
      <use x="552.632812" xlink:href="#DejaVuSans-6f"/>
      <use x="613.814453" xlink:href="#DejaVuSans-66"/>
      <use x="649.019531" xlink:href="#DejaVuSans-20"/>
      <use x="680.806641" xlink:href="#DejaVuSans-74"/>
      <use x="720.015625" xlink:href="#DejaVuSans-72"/>
      <use x="761.128906" xlink:href="#DejaVuSans-69"/>
      <use x="788.912109" xlink:href="#DejaVuSans-61"/>
      <use x="850.191406" xlink:href="#DejaVuSans-6c"/>
      <use x="877.974609" xlink:href="#DejaVuSans-73"/>
     </g>
    </g>
   </g>
   <g id="line2d_103">
    <path clip-path="url(#p1150ae50be)" d="M 15.896277 293.76 
L 15.896277 289.927604 
L 26.950138 289.927604 
L 26.950138 286.095208 
L 60.094451 286.095208 
L 60.094451 282.262812 
L 62.208 282.262812 
L 62.208 278.430416 
L 76.801707 278.430416 
L 76.801707 274.59802 
L 78.222716 274.59802 
L 78.222716 270.765624 
L 82.842528 270.765624 
L 82.842528 266.933228 
L 90.769243 266.933228 
L 90.769243 263.100832 
L 100.77988 263.100832 
L 100.77988 259.268436 
L 104.633636 259.268436 
L 104.633636 255.43604 
L 128.730665 255.43604 
L 128.730665 251.603644 
L 130.338875 251.603644 
L 130.338875 247.771248 
L 131.120039 247.771248 
L 131.120039 243.938851 
L 132.452424 243.938851 
L 132.452424 240.106455 
L 138.535789 240.106455 
L 138.535789 236.274059 
L 186.210349 236.274059 
L 186.210349 232.441663 
L 202.320542 232.441663 
L 202.320542 228.609267 
L 203.73922 228.609267 
L 203.73922 224.776871 
L 205.366808 224.776871 
L 205.366808 220.944475 
L 207.964242 220.944475 
L 207.964242 217.112079 
L 209.551513 217.112079 
L 209.551513 213.279683 
L 210.407607 213.279683 
L 210.407607 209.447287 
L 211.54956 209.447287 
L 211.54956 205.614891 
L 214.028212 205.614891 
L 214.028212 201.782495 
L 214.54232 201.782495 
L 214.54232 197.950099 
L 217.116933 197.950099 
L 217.116933 194.117703 
L 223.031022 194.117703 
L 223.031022 190.285307 
L 225.862795 190.285307 
L 225.862795 186.452911 
L 231.883319 186.452911 
L 231.883319 182.620515 
L 238.141581 182.620515 
L 238.141581 178.788119 
L 249.633799 178.788119 
L 249.633799 174.955723 
L 250.496766 174.955723 
L 250.496766 171.123327 
L 251.226829 171.123327 
L 251.226829 167.290931 
L 280.489962 167.290931 
L 280.489962 163.458535 
L 283.203054 163.458535 
L 283.203054 159.626139 
L 284.649497 159.626139 
L 284.649497 155.793743 
L 285.911517 155.793743 
L 285.911517 151.961347 
L 285.952173 151.961347 
L 285.952173 148.12895 
L 286.267027 148.12895 
L 286.267027 144.296554 
L 289.298248 144.296554 
L 289.298248 140.464158 
L 290.151098 140.464158 
L 290.151098 136.631762 
L 290.285442 136.631762 
L 290.285442 132.799366 
L 300.67069 132.799366 
L 300.67069 128.96697 
L 303.726126 128.96697 
L 303.726126 125.134574 
L 310.757813 125.134574 
L 310.757813 121.302178 
L 329.45718 121.302178 
L 329.45718 117.469782 
L 330.763623 117.469782 
L 330.763623 113.637386 
L 331.175496 113.637386 
L 331.175496 109.80499 
L 333.80486 109.80499 
L 333.80486 105.972594 
L 335.803822 105.972594 
L 335.803822 102.140198 
L 335.975829 102.140198 
L 335.975829 98.307802 
L 337.793768 98.307802 
L 337.793768 94.475406 
L 338.286103 94.475406 
L 338.286103 90.64301 
L 338.519997 90.64301 
L 338.519997 86.810614 
L 340.817326 86.810614 
L 340.817326 82.978218 
L 347.242989 82.978218 
L 347.242989 79.145822 
L 351.323005 79.145822 
L 351.323005 75.313426 
L 359.14184 75.313426 
L 359.14184 71.48103 
L 373.658454 71.48103 
L 373.658454 67.648634 
L 381.144078 67.648634 
L 381.144078 63.816238 
L 381.144078 63.816238 
L 381.144078 63.816238 
L 460.8 63.816238 
" style="fill:none;stroke:#000000;stroke-linecap:square;stroke-width:1.5;"/>
   </g>
   <g id="line2d_104">
    <defs>
     <path d="M 0 14.142136 
L 8.485281 0 
L 0 -14.142136 
L -8.485281 0 
z
" id="mf7390e39d3" style="stroke:#000000;stroke-linejoin:miter;stroke-width:1.5;"/>
    </defs>
    <g clip-path="url(#p1150ae50be)">
     <use style="fill-opacity:0;stroke:#000000;stroke-linejoin:miter;stroke-width:1.5;" x="131.120039" xlink:href="#mf7390e39d3" y="247.771248"/>
     <use style="fill-opacity:0;stroke:#000000;stroke-linejoin:miter;stroke-width:1.5;" x="207.964242" xlink:href="#mf7390e39d3" y="220.944475"/>
     <use style="fill-opacity:0;stroke:#000000;stroke-linejoin:miter;stroke-width:1.5;" x="251.226829" xlink:href="#mf7390e39d3" y="171.123327"/>
     <use style="fill-opacity:0;stroke:#000000;stroke-linejoin:miter;stroke-width:1.5;" x="329.45718" xlink:href="#mf7390e39d3" y="121.302178"/>
     <use style="fill-opacity:0;stroke:#000000;stroke-linejoin:miter;stroke-width:1.5;" x="381.144078" xlink:href="#mf7390e39d3" y="67.648634"/>
     <use style="fill-opacity:0;stroke:#000000;stroke-linejoin:miter;stroke-width:1.5;" x="381.144078" xlink:href="#mf7390e39d3" y="63.816238"/>
    </g>
   </g>
   <g id="line2d_105">
    <path clip-path="url(#p1150ae50be)" style="fill:none;stroke:#000000;stroke-linecap:square;stroke-width:1.5;"/>
    <g clip-path="url(#p1150ae50be)">
     <use style="fill-opacity:0;stroke:#000000;stroke-linejoin:miter;stroke-width:1.5;" x="-1" xlink:href="#mf7390e39d3" y="581.189703"/>
     <use style="fill-opacity:0;stroke:#000000;stroke-linejoin:miter;stroke-width:1.5;" x="460.8" xlink:href="#mf7390e39d3" y="581.189703"/>
    </g>
   </g>
   <g id="line2d_106">
    <path clip-path="url(#p1150ae50be)" d="M -1 289.927604 
L 29.30536 289.927604 
L 29.30536 286.095208 
L 47.511151 286.095208 
L 47.511151 282.262812 
L 51.705123 282.262812 
L 51.705123 278.430416 
L 55.511381 278.430416 
L 55.511381 274.59802 
L 66.135272 274.59802 
L 66.135272 270.765624 
L 75.329938 270.765624 
L 75.329938 266.933228 
L 78.915256 266.933228 
L 78.915256 263.100832 
L 81.574576 263.100832 
L 81.574576 259.268436 
L 86.996202 259.268436 
L 86.996202 255.43604 
L 95.622512 255.43604 
L 95.622512 251.603644 
L 100.77988 251.603644 
L 100.77988 247.771248 
L 103.891181 247.771248 
L 103.891181 243.938851 
L 107.818452 243.938851 
L 107.818452 240.106455 
L 108.493962 240.106455 
L 108.493962 236.274059 
L 162.394974 236.274059 
L 162.394974 232.441663 
L 164.684739 232.441663 
L 164.770316 224.776871 
L 170.581233 224.776871 
L 170.581233 220.944475 
L 171.170941 220.944475 
L 171.170941 217.112079 
L 172.039975 217.112079 
L 172.111574 209.447287 
L 172.325627 209.447287 
L 172.325627 205.614891 
L 174.203656 205.614891 
L 174.203656 201.782495 
L 177.907794 201.782495 
L 177.907794 197.950099 
L 178.402015 197.950099 
L 178.402015 194.117703 
L 178.951019 194.117703 
L 178.951019 190.285307 
L 182.043586 190.285307 
L 182.043586 186.452911 
L 182.87829 186.452911 
L 182.87829 182.620515 
L 191.984723 182.620515 
L 191.984723 178.788119 
L 214.363111 178.788119 
L 214.363111 174.955723 
L 215.276563 174.955723 
L 215.276563 171.123327 
L 216.071862 171.123327 
L 216.071862 167.290931 
L 217.522898 167.290931 
L 217.546655 159.626139 
L 217.924903 159.626139 
L 217.948429 151.961347 
L 218.509052 151.961347 
L 218.509052 148.12895 
L 218.832594 148.12895 
L 218.832594 144.296554 
L 219.06215 144.296554 
L 219.06215 140.464158 
L 219.900557 140.464158 
L 219.900557 136.631762 
L 222.254533 136.631762 
L 222.254533 132.799366 
L 222.864368 132.799366 
L 222.864368 128.96697 
L 223.568039 128.96697 
L 223.568039 125.134574 
L 223.711433 125.134574 
L 223.711433 121.302178 
L 223.915419 121.302178 
L 223.956095 113.637386 
L 224.721414 113.637386 
L 224.721414 109.80499 
L 226.555658 109.80499 
L 226.555658 105.972594 
L 229.483681 105.972594 
L 229.483681 102.140198 
L 231.782573 102.140198 
L 231.782573 98.307802 
L 235.830405 98.307802 
L 235.830405 94.475406 
L 238.982968 94.475406 
L 238.982968 90.64301 
L 245.52189 90.64301 
L 245.52189 86.810614 
L 250.50744 86.810614 
L 250.50744 82.978218 
L 264.055028 82.978218 
L 264.055028 79.145822 
L 267.965536 79.145822 
L 267.965536 75.313426 
L 272.191497 75.313426 
L 272.191497 71.48103 
L 284.081724 71.48103 
L 284.081724 67.648634 
L 311.548949 67.648634 
L 311.548949 63.816238 
L 438.094023 63.816238 
L 438.094023 59.983842 
L 439.402469 59.983842 
L 439.510215 52.31905 
L 441.616372 52.31905 
L 441.616372 48.486653 
L 441.616372 48.486653 
L 460.8 48.486653 
L 460.8 48.486653 
" style="fill:none;stroke:#000000;stroke-linecap:square;stroke-width:1.5;"/>
   </g>
   <g id="line2d_107">
    <defs>
     <path d="M 0 7.5 
C 1.989023 7.5 3.896849 6.709753 5.303301 5.303301 
C 6.709753 3.896849 7.5 1.989023 7.5 0 
C 7.5 -1.989023 6.709753 -3.896849 5.303301 -5.303301 
C 3.896849 -6.709753 1.989023 -7.5 0 -7.5 
C -1.989023 -7.5 -3.896849 -6.709753 -5.303301 -5.303301 
C -6.709753 -3.896849 -7.5 -1.989023 -7.5 0 
C -7.5 1.989023 -6.709753 3.896849 -5.303301 5.303301 
C -3.896849 6.709753 -1.989023 7.5 0 7.5 
z
" id="m70b8ebe3e6" style="stroke:#000000;stroke-width:1.5;"/>
    </defs>
    <g clip-path="url(#p1150ae50be)">
     <use style="fill-opacity:0;stroke:#000000;stroke-width:1.5;" x="107.818452" xlink:href="#m70b8ebe3e6" y="243.938851"/>
     <use style="fill-opacity:0;stroke:#000000;stroke-width:1.5;" x="182.87829" xlink:href="#m70b8ebe3e6" y="186.452911"/>
     <use style="fill-opacity:0;stroke:#000000;stroke-width:1.5;" x="226.555658" xlink:href="#m70b8ebe3e6" y="109.80499"/>
     <use style="fill-opacity:0;stroke:#000000;stroke-width:1.5;" x="284.081724" xlink:href="#m70b8ebe3e6" y="71.48103"/>
     <use style="fill-opacity:0;stroke:#000000;stroke-width:1.5;" x="311.548949" xlink:href="#m70b8ebe3e6" y="67.648634"/>
     <use style="fill-opacity:0;stroke:#000000;stroke-width:1.5;" x="441.616372" xlink:href="#m70b8ebe3e6" y="48.486653"/>
    </g>
   </g>
   <g id="line2d_108">
    <path clip-path="url(#p1150ae50be)" style="fill:none;stroke:#000000;stroke-linecap:square;stroke-width:1.5;"/>
   </g>
   <g id="line2d_109">
    <path clip-path="url(#p1150ae50be)" d="M 241.448619 293.76 
L 241.448619 289.927604 
L 242.873008 289.927604 
L 242.873008 286.095208 
L 246.202786 286.095208 
L 246.202786 282.262812 
L 249.349398 282.262812 
L 249.349398 278.430416 
L 249.970347 278.430416 
L 249.970347 274.59802 
L 250.741561 274.59802 
L 250.741561 270.765624 
L 252.446128 270.765624 
L 252.446128 266.933228 
L 253.052543 266.933228 
L 253.052543 263.100832 
L 254.916017 263.100832 
L 254.916017 259.268436 
L 255.383233 259.268436 
L 255.383233 255.43604 
L 257.99156 255.43604 
L 257.99156 251.603644 
L 259.912875 251.603644 
L 259.912875 247.771248 
L 263.099165 247.771248 
L 263.099165 243.938851 
L 273.470338 243.938851 
L 273.470338 240.106455 
L 280.241769 240.106455 
L 280.241769 236.274059 
L 282.270694 236.274059 
L 282.270694 232.441663 
L 295.443767 232.441663 
L 295.443767 228.609267 
L 295.995908 228.609267 
L 295.995908 224.776871 
L 298.95161 224.776871 
L 298.95161 220.944475 
L 300.024383 220.944475 
L 300.024383 217.112079 
L 300.248394 217.112079 
L 300.248394 213.279683 
L 301.038637 213.279683 
L 301.038637 209.447287 
L 302.605212 209.447287 
L 302.605212 205.614891 
L 303.635097 205.614891 
L 303.635097 201.782495 
L 306.745383 201.782495 
L 306.745383 197.950099 
L 307.046855 197.950099 
L 307.046855 194.117703 
L 317.984192 194.117703 
L 317.984192 190.285307 
L 318.622533 190.285307 
L 318.622533 186.452911 
L 328.921188 186.452911 
L 328.921188 182.620515 
L 330.004894 182.620515 
L 330.004894 178.788119 
L 333.255582 178.788119 
L 333.255582 174.955723 
L 334.141322 174.955723 
L 334.141322 171.123327 
L 339.786268 171.123327 
L 339.786268 167.290931 
L 339.926623 167.290931 
L 339.926623 163.458535 
L 342.37569 163.458535 
L 342.37569 159.626139 
L 345.051511 159.626139 
L 345.051511 155.793743 
L 347.521575 155.793743 
L 347.521575 151.961347 
L 348.673662 151.961347 
L 348.673662 148.12895 
L 349.575194 148.12895 
L 349.575194 144.296554 
L 353.447039 144.296554 
L 353.447039 140.464158 
L 354.679846 140.464158 
L 354.679846 136.631762 
L 355.761677 136.631762 
L 355.761677 132.799366 
L 361.292784 132.799366 
L 361.292784 128.96697 
L 375.950877 128.96697 
L 375.950877 125.134574 
L 382.465155 125.134574 
L 382.465155 121.302178 
L 382.465155 121.302178 
L 382.465155 121.302178 
L 460.8 121.302178 
" style="fill:none;stroke:#00bfbf;stroke-linecap:square;stroke-width:1.5;"/>
   </g>
   <g id="line2d_110">
    <defs>
     <path d="M 0 14.142136 
L 8.485281 0 
L 0 -14.142136 
L -8.485281 0 
z
" id="mc3f7bf3476" style="stroke:#00bfbf;stroke-linejoin:miter;stroke-width:1.5;"/>
    </defs>
    <g clip-path="url(#p1150ae50be)">
     <use style="fill-opacity:0;stroke:#00bfbf;stroke-linejoin:miter;stroke-width:1.5;" x="298.95161" xlink:href="#mc3f7bf3476" y="224.776871"/>
     <use style="fill-opacity:0;stroke:#00bfbf;stroke-linejoin:miter;stroke-width:1.5;" x="334.141322" xlink:href="#mc3f7bf3476" y="174.955723"/>
     <use style="fill-opacity:0;stroke:#00bfbf;stroke-linejoin:miter;stroke-width:1.5;" x="382.465155" xlink:href="#mc3f7bf3476" y="125.134574"/>
     <use style="fill-opacity:0;stroke:#00bfbf;stroke-linejoin:miter;stroke-width:1.5;" x="382.465155" xlink:href="#mc3f7bf3476" y="121.302178"/>
    </g>
   </g>
   <g id="line2d_111">
    <path clip-path="url(#p1150ae50be)" style="fill:none;stroke:#00bfbf;stroke-linecap:square;stroke-width:1.5;"/>
    <g clip-path="url(#p1150ae50be)">
     <use style="fill-opacity:0;stroke:#00bfbf;stroke-linejoin:miter;stroke-width:1.5;" x="-1" xlink:href="#mc3f7bf3476" y="581.189703"/>
     <use style="fill-opacity:0;stroke:#00bfbf;stroke-linejoin:miter;stroke-width:1.5;" x="460.8" xlink:href="#mc3f7bf3476" y="581.189703"/>
    </g>
   </g>
   <g id="line2d_112">
    <path clip-path="url(#p1150ae50be)" d="M 224.701455 293.76 
L 224.701455 289.927604 
L 225.433571 289.927604 
L 225.433571 286.095208 
L 229.287677 286.095208 
L 229.287677 282.262812 
L 230.74409 282.262812 
L 230.74409 278.430416 
L 230.761327 278.430416 
L 230.761327 274.59802 
L 231.866545 274.59802 
L 231.866545 270.765624 
L 239.460145 270.765624 
L 239.460145 266.933228 
L 240.575168 266.933228 
L 240.575168 263.100832 
L 241.937667 263.100832 
L 241.937667 259.268436 
L 243.320131 259.268436 
L 243.320131 255.43604 
L 244.025586 255.43604 
L 244.025586 251.603644 
L 245.461623 251.603644 
L 245.461623 247.771248 
L 245.497794 247.771248 
L 245.497794 243.938851 
L 246.942491 243.938851 
L 246.942491 240.106455 
L 247.897182 240.106455 
L 247.897182 236.274059 
L 248.663183 236.274059 
L 248.663183 232.441663 
L 249.029849 232.441663 
L 249.029849 228.609267 
L 249.633799 228.609267 
L 249.633799 224.776871 
L 249.840396 224.776871 
L 249.840396 220.944475 
L 250.013573 220.944475 
L 250.013573 217.112079 
L 255.030928 217.112079 
L 255.030928 213.279683 
L 255.307314 213.279683 
L 255.307314 209.447287 
L 255.676106 209.447287 
L 255.676106 205.614891 
L 256.06961 205.614891 
L 256.06961 201.782495 
L 257.32767 201.782495 
L 257.32767 197.950099 
L 259.417245 197.950099 
L 259.417245 194.117703 
L 260.461329 194.117703 
L 260.461329 190.285307 
L 260.770296 190.285307 
L 260.770296 186.452911 
L 262.449378 186.452911 
L 262.449378 182.620515 
L 263.521545 182.620515 
L 263.521545 178.788119 
L 264.269559 178.788119 
L 264.269559 174.955723 
L 265.154099 174.955723 
L 265.154099 171.123327 
L 270.800014 171.123327 
L 270.800014 167.290931 
L 270.949744 167.290931 
L 270.949744 163.458535 
L 270.956242 163.458535 
L 270.956242 159.626139 
L 277.773208 159.626139 
L 277.773208 155.793743 
L 286.320761 155.793743 
L 286.320761 151.961347 
L 288.757694 151.961347 
L 288.757694 148.12895 
L 289.260764 148.12895 
L 289.260764 144.296554 
L 292.408338 144.296554 
L 292.408338 140.464158 
L 292.716013 140.464158 
L 292.716013 136.631762 
L 308.942804 136.631762 
L 308.942804 132.799366 
L 314.635145 132.799366 
L 314.635145 128.96697 
L 321.453134 128.96697 
L 321.453134 125.134574 
L 376.570864 125.134574 
L 376.570864 121.302178 
L 376.570864 121.302178 
L 376.570864 121.302178 
L 460.8 121.302178 
" style="fill:none;stroke:#00bfbf;stroke-linecap:square;stroke-width:1.5;"/>
   </g>
   <g id="line2d_113">
    <defs>
     <path d="M 0 7.5 
C 1.989023 7.5 3.896849 6.709753 5.303301 5.303301 
C 6.709753 3.896849 7.5 1.989023 7.5 0 
C 7.5 -1.989023 6.709753 -3.896849 5.303301 -5.303301 
C 3.896849 -6.709753 1.989023 -7.5 0 -7.5 
C -1.989023 -7.5 -3.896849 -6.709753 -5.303301 -5.303301 
C -6.709753 -3.896849 -7.5 -1.989023 -7.5 0 
C -7.5 1.989023 -6.709753 3.896849 -5.303301 5.303301 
C -3.896849 6.709753 -1.989023 7.5 0 7.5 
z
" id="ma7b9a3454e" style="stroke:#00bfbf;stroke-width:1.5;"/>
    </defs>
    <g clip-path="url(#p1150ae50be)">
     <use style="fill-opacity:0;stroke:#00bfbf;stroke-width:1.5;" x="263.521545" xlink:href="#ma7b9a3454e" y="182.620515"/>
     <use style="fill-opacity:0;stroke:#00bfbf;stroke-width:1.5;" x="308.942804" xlink:href="#ma7b9a3454e" y="136.631762"/>
     <use style="fill-opacity:0;stroke:#00bfbf;stroke-width:1.5;" x="376.570864" xlink:href="#ma7b9a3454e" y="125.134574"/>
     <use style="fill-opacity:0;stroke:#00bfbf;stroke-width:1.5;" x="376.570864" xlink:href="#ma7b9a3454e" y="121.302178"/>
    </g>
   </g>
   <g id="line2d_114">
    <path clip-path="url(#p1150ae50be)" style="fill:none;stroke:#00bfbf;stroke-linecap:square;stroke-width:1.5;"/>
   </g>
   <g id="line2d_115">
    <path clip-path="url(#p1150ae50be)" d="M 287.376625 293.76 
L 287.376625 289.927604 
L 288.448627 289.927604 
L 288.448627 286.095208 
L 288.736599 286.095208 
L 288.736599 282.262812 
L 291.050536 282.262812 
L 291.050536 278.430416 
L 291.522591 278.430416 
L 291.522591 274.59802 
L 291.554133 274.59802 
L 291.554133 270.765624 
L 291.954186 270.765624 
L 291.954186 266.933228 
L 292.176065 266.933228 
L 292.176065 263.100832 
L 292.508585 263.100832 
L 292.508585 259.268436 
L 293.872115 259.268436 
L 293.872115 255.43604 
L 294.931357 255.43604 
L 294.931357 251.603644 
L 295.561941 251.603644 
L 295.561941 247.771248 
L 307.418609 247.771248 
L 307.418609 243.938851 
L 310.519719 243.938851 
L 310.519719 240.106455 
L 310.676123 240.106455 
L 310.676123 236.274059 
L 313.401365 236.274059 
L 313.401365 232.441663 
L 314.754271 232.441663 
L 314.754271 228.609267 
L 315.961851 228.609267 
L 315.961851 224.776871 
L 316.948203 224.776871 
L 316.948203 220.944475 
L 316.956714 220.944475 
L 316.956714 217.112079 
L 319.196767 217.112079 
L 319.196767 213.279683 
L 319.866329 213.279683 
L 319.866329 209.447287 
L 320.72566 209.447287 
L 320.72566 205.614891 
L 321.599762 205.614891 
L 321.599762 201.782495 
L 322.913021 201.782495 
L 322.913021 197.950099 
L 325.129918 197.950099 
L 325.129918 194.117703 
L 331.173989 194.117703 
L 331.173989 190.285307 
L 335.495643 190.285307 
L 335.495643 186.452911 
L 337.777084 186.452911 
L 337.777084 182.620515 
L 339.03492 182.620515 
L 339.03492 178.788119 
L 340.049498 178.788119 
L 340.049498 174.955723 
L 340.220426 174.955723 
L 340.220426 171.123327 
L 346.226699 171.123327 
L 346.226699 167.290931 
L 346.361369 167.290931 
L 346.361369 163.458535 
L 349.904541 163.458535 
L 349.904541 159.626139 
L 350.967581 159.626139 
L 350.967581 155.793743 
L 351.232352 155.793743 
L 351.232352 151.961347 
L 351.329472 151.961347 
L 351.329472 148.12895 
L 352.327079 148.12895 
L 352.327079 144.296554 
L 356.419288 144.296554 
L 356.419288 140.464158 
L 357.522197 140.464158 
L 357.522197 136.631762 
L 363.417684 136.631762 
L 363.417684 132.799366 
L 364.311839 132.799366 
L 364.311839 128.96697 
L 378.562741 128.96697 
L 378.562741 125.134574 
L 384.662501 125.134574 
L 384.662501 121.302178 
L 384.662501 121.302178 
L 384.662501 121.302178 
L 460.8 121.302178 
" style="fill:none;stroke:#bf00bf;stroke-linecap:square;stroke-width:1.5;"/>
   </g>
   <g id="line2d_116">
    <defs>
     <path d="M 0 14.142136 
L 8.485281 0 
L 0 -14.142136 
L -8.485281 0 
z
" id="m6fbf337677" style="stroke:#bf00bf;stroke-linejoin:miter;stroke-width:1.5;"/>
    </defs>
    <g clip-path="url(#p1150ae50be)">
     <use style="fill-opacity:0;stroke:#bf00bf;stroke-linejoin:miter;stroke-width:1.5;" x="321.599762" xlink:href="#m6fbf337677" y="205.614891"/>
     <use style="fill-opacity:0;stroke:#bf00bf;stroke-linejoin:miter;stroke-width:1.5;" x="346.361369" xlink:href="#m6fbf337677" y="167.290931"/>
     <use style="fill-opacity:0;stroke:#bf00bf;stroke-linejoin:miter;stroke-width:1.5;" x="384.662501" xlink:href="#m6fbf337677" y="125.134574"/>
     <use style="fill-opacity:0;stroke:#bf00bf;stroke-linejoin:miter;stroke-width:1.5;" x="384.662501" xlink:href="#m6fbf337677" y="121.302178"/>
    </g>
   </g>
   <g id="line2d_117">
    <path clip-path="url(#p1150ae50be)" style="fill:none;stroke:#bf00bf;stroke-linecap:square;stroke-width:1.5;"/>
    <g clip-path="url(#p1150ae50be)">
     <use style="fill-opacity:0;stroke:#bf00bf;stroke-linejoin:miter;stroke-width:1.5;" x="-1" xlink:href="#m6fbf337677" y="581.189703"/>
     <use style="fill-opacity:0;stroke:#bf00bf;stroke-linejoin:miter;stroke-width:1.5;" x="460.8" xlink:href="#m6fbf337677" y="581.189703"/>
    </g>
   </g>
   <g id="line2d_118">
    <path clip-path="url(#p1150ae50be)" d="M 259.588826 293.76 
L 259.588826 289.927604 
L 264.921577 289.927604 
L 264.921577 286.095208 
L 265.049252 286.095208 
L 265.049252 282.262812 
L 265.489314 282.262812 
L 265.489314 278.430416 
L 266.290153 278.430416 
L 266.290153 274.59802 
L 268.877558 274.59802 
L 268.877558 270.765624 
L 269.420633 270.765624 
L 269.420633 266.933228 
L 270.122725 266.933228 
L 270.122725 263.100832 
L 270.301346 263.100832 
L 270.301346 259.268436 
L 270.741275 259.268436 
L 270.741275 255.43604 
L 271.001697 255.43604 
L 271.001697 251.603644 
L 271.001697 251.603644 
L 271.001697 247.771248 
L 273.114272 247.771248 
L 273.114272 243.938851 
L 276.08723 243.938851 
L 276.08723 240.106455 
L 278.801011 240.106455 
L 278.801011 236.274059 
L 280.381562 236.274059 
L 280.381562 232.441663 
L 280.510578 232.441663 
L 280.510578 228.609267 
L 281.387425 228.609267 
L 281.387425 224.776871 
L 283.763938 224.776871 
L 283.763938 220.944475 
L 283.787739 220.944475 
L 283.787739 217.112079 
L 285.78024 217.112079 
L 285.78024 213.279683 
L 286.141374 213.279683 
L 286.141374 209.447287 
L 287.411504 209.447287 
L 287.411504 205.614891 
L 288.567447 205.614891 
L 288.567447 201.782495 
L 288.664794 201.782495 
L 288.664794 197.950099 
L 289.123031 197.950099 
L 289.123031 194.117703 
L 289.782461 194.117703 
L 289.782461 190.285307 
L 290.118463 190.285307 
L 290.118463 186.452911 
L 291.102369 186.452911 
L 291.102369 182.620515 
L 291.376396 182.620515 
L 291.376396 178.788119 
L 292.55477 178.788119 
L 292.55477 174.955723 
L 293.77887 174.955723 
L 293.77887 171.123327 
L 295.029279 171.123327 
L 295.029279 167.290931 
L 295.701166 167.290931 
L 295.701166 163.458535 
L 303.95428 163.458535 
L 303.95428 159.626139 
L 322.246656 159.626139 
L 322.246656 155.793743 
L 323.259554 155.793743 
L 323.259554 151.961347 
L 325.662119 151.961347 
L 325.662119 148.12895 
L 326.421549 148.12895 
L 326.421549 144.296554 
L 335.358385 144.296554 
L 335.358385 140.464158 
L 338.474587 140.464158 
L 338.474587 136.631762 
L 348.405758 136.631762 
L 348.405758 132.799366 
L 380.667702 132.799366 
L 380.667702 128.96697 
L 418.785205 128.96697 
L 418.785205 125.134574 
L 439.032141 125.134574 
L 439.032141 121.302178 
L 439.032141 121.302178 
L 439.032141 121.302178 
L 460.8 121.302178 
" style="fill:none;stroke:#bf00bf;stroke-linecap:square;stroke-width:1.5;"/>
   </g>
   <g id="line2d_119">
    <defs>
     <path d="M 0 7.5 
C 1.989023 7.5 3.896849 6.709753 5.303301 5.303301 
C 6.709753 3.896849 7.5 1.989023 7.5 0 
C 7.5 -1.989023 6.709753 -3.896849 5.303301 -5.303301 
C 3.896849 -6.709753 1.989023 -7.5 0 -7.5 
C -1.989023 -7.5 -3.896849 -6.709753 -5.303301 -5.303301 
C -6.709753 -3.896849 -7.5 -1.989023 -7.5 0 
C -7.5 1.989023 -6.709753 3.896849 -5.303301 5.303301 
C -3.896849 6.709753 -1.989023 7.5 0 7.5 
z
" id="m573bcef7d7" style="stroke:#bf00bf;stroke-width:1.5;"/>
    </defs>
    <g clip-path="url(#p1150ae50be)">
     <use style="fill-opacity:0;stroke:#bf00bf;stroke-width:1.5;" x="292.55477" xlink:href="#m573bcef7d7" y="178.788119"/>
     <use style="fill-opacity:0;stroke:#bf00bf;stroke-width:1.5;" x="338.474587" xlink:href="#m573bcef7d7" y="140.464158"/>
     <use style="fill-opacity:0;stroke:#bf00bf;stroke-width:1.5;" x="439.032141" xlink:href="#m573bcef7d7" y="125.134574"/>
     <use style="fill-opacity:0;stroke:#bf00bf;stroke-width:1.5;" x="439.032141" xlink:href="#m573bcef7d7" y="121.302178"/>
    </g>
   </g>
   <g id="line2d_120">
    <path clip-path="url(#p1150ae50be)" style="fill:none;stroke:#bf00bf;stroke-linecap:square;stroke-width:1.5;"/>
   </g>
   <g id="line2d_121">
    <path clip-path="url(#p1150ae50be)" d="M 321.307897 293.76 
L 321.307897 289.927604 
L 321.93485 289.927604 
L 321.93485 286.095208 
L 322.463152 286.095208 
L 322.463152 282.262812 
L 324.410043 282.262812 
L 324.410043 278.430416 
L 324.470368 278.430416 
L 324.470368 274.59802 
L 324.532374 274.59802 
L 324.532374 270.765624 
L 324.948058 270.765624 
L 324.948058 266.933228 
L 325.856293 266.933228 
L 325.856293 263.100832 
L 325.870005 263.100832 
L 325.870005 259.268436 
L 326.612185 259.268436 
L 326.612185 255.43604 
L 327.311457 255.43604 
L 327.311457 251.603644 
L 327.788584 251.603644 
L 327.788584 247.771248 
L 329.201912 247.771248 
L 329.201912 243.938851 
L 329.299794 243.938851 
L 329.299794 240.106455 
L 331.072913 240.106455 
L 331.072913 236.274059 
L 331.086505 236.274059 
L 331.086505 232.441663 
L 331.417363 232.441663 
L 331.417363 228.609267 
L 331.799047 228.609267 
L 331.799047 224.776871 
L 334.452802 224.776871 
L 334.452802 220.944475 
L 334.89707 220.944475 
L 334.89707 217.112079 
L 335.134533 217.112079 
L 335.134533 213.279683 
L 336.434573 213.279683 
L 336.434573 209.447287 
L 336.484936 209.447287 
L 336.484936 205.614891 
L 336.739783 205.614891 
L 336.739783 201.782495 
L 337.482074 201.782495 
L 337.482074 197.950099 
L 337.987066 197.950099 
L 337.987066 194.117703 
L 343.847359 194.117703 
L 343.847359 190.285307 
L 344.674297 190.285307 
L 344.674297 186.452911 
L 346.71215 186.452911 
L 346.71215 182.620515 
L 349.945644 182.620515 
L 349.945644 178.788119 
L 351.775126 178.788119 
L 351.775126 174.955723 
L 352.26481 174.955723 
L 352.26481 171.123327 
L 354.068053 171.123327 
L 354.068053 167.290931 
L 355.22221 167.290931 
L 355.22221 163.458535 
L 355.257499 163.458535 
L 355.257499 159.626139 
L 355.666157 159.626139 
L 355.666157 155.793743 
L 356.653775 155.793743 
L 356.653775 151.961347 
L 357.01107 151.961347 
L 357.01107 148.12895 
L 360.391443 148.12895 
L 360.391443 144.296554 
L 361.135064 144.296554 
L 361.135064 140.464158 
L 361.145986 140.464158 
L 361.145986 136.631762 
L 368.844528 136.631762 
L 368.844528 132.799366 
L 371.205856 132.799366 
L 371.205856 128.96697 
L 381.564476 128.96697 
L 381.564476 125.134574 
L 386.987244 125.134574 
L 386.987244 121.302178 
L 386.987244 121.302178 
L 386.987244 121.302178 
L 460.8 121.302178 
" style="fill:none;stroke:#ff0000;stroke-linecap:square;stroke-width:3;"/>
   </g>
   <g id="line2d_122">
    <defs>
     <path d="M 0 14.142136 
L 8.485281 0 
L 0 -14.142136 
L -8.485281 0 
z
" id="mcbea5bfd41" style="stroke:#ff0000;stroke-linejoin:miter;stroke-width:3;"/>
    </defs>
    <g clip-path="url(#p1150ae50be)">
     <use style="fill-opacity:0;stroke:#ff0000;stroke-linejoin:miter;stroke-width:3;" x="334.452802" xlink:href="#mcbea5bfd41" y="224.776871"/>
     <use style="fill-opacity:0;stroke:#ff0000;stroke-linejoin:miter;stroke-width:3;" x="386.987244" xlink:href="#mcbea5bfd41" y="125.134574"/>
     <use style="fill-opacity:0;stroke:#ff0000;stroke-linejoin:miter;stroke-width:3;" x="386.987244" xlink:href="#mcbea5bfd41" y="121.302178"/>
    </g>
   </g>
   <g id="line2d_123">
    <path clip-path="url(#p1150ae50be)" style="fill:none;stroke:#ff0000;stroke-linecap:square;stroke-width:3;"/>
    <g clip-path="url(#p1150ae50be)">
     <use style="fill-opacity:0;stroke:#ff0000;stroke-linejoin:miter;stroke-width:3;" x="-1" xlink:href="#mcbea5bfd41" y="581.189703"/>
     <use style="fill-opacity:0;stroke:#ff0000;stroke-linejoin:miter;stroke-width:3;" x="460.8" xlink:href="#mcbea5bfd41" y="581.189703"/>
    </g>
   </g>
   <g id="line2d_124">
    <path clip-path="url(#p1150ae50be)" d="M 279.217822 293.76 
L 279.217822 289.927604 
L 283.835298 289.927604 
L 283.835298 286.095208 
L 284.593537 286.095208 
L 284.593537 282.262812 
L 284.881849 282.262812 
L 284.881849 278.430416 
L 286.459251 278.430416 
L 286.459251 274.59802 
L 286.619496 274.59802 
L 286.619496 270.765624 
L 287.254316 270.765624 
L 287.254316 266.933228 
L 287.324252 266.933228 
L 287.324252 263.100832 
L 287.476823 263.100832 
L 287.476823 259.268436 
L 287.88812 259.268436 
L 287.88812 255.43604 
L 288.512323 255.43604 
L 288.512323 251.603644 
L 289.592765 251.603644 
L 289.592765 247.771248 
L 294.043138 247.771248 
L 294.043138 243.938851 
L 297.42855 243.938851 
L 297.42855 240.106455 
L 297.77906 240.106455 
L 297.77906 236.274059 
L 309.443699 236.274059 
L 309.443699 232.441663 
L 310.621573 232.441663 
L 310.621573 228.609267 
L 310.695942 228.609267 
L 310.695942 224.776871 
L 311.237249 224.776871 
L 311.237249 220.944475 
L 311.636192 220.944475 
L 311.636192 217.112079 
L 311.778775 217.112079 
L 311.778775 213.279683 
L 312.153413 213.279683 
L 312.153413 209.447287 
L 313.082386 209.447287 
L 313.082386 205.614891 
L 313.981729 205.614891 
L 313.981729 201.782495 
L 314.529216 201.782495 
L 314.529216 197.950099 
L 314.787923 197.950099 
L 314.787923 194.117703 
L 318.593917 194.117703 
L 318.593917 190.285307 
L 321.171752 190.285307 
L 321.171752 186.452911 
L 321.359553 186.452911 
L 321.359553 182.620515 
L 324.298031 182.620515 
L 324.298031 178.788119 
L 325.397744 178.788119 
L 325.397744 174.955723 
L 327.402372 174.955723 
L 327.402372 171.123327 
L 329.748328 171.123327 
L 329.748328 167.290931 
L 330.114806 167.290931 
L 330.114806 163.458535 
L 336.072269 163.458535 
L 336.072269 159.626139 
L 336.35094 159.626139 
L 336.35094 155.793743 
L 340.473693 155.793743 
L 340.473693 151.961347 
L 342.733486 151.961347 
L 342.733486 148.12895 
L 347.948993 148.12895 
L 347.948993 144.296554 
L 349.622405 144.296554 
L 349.622405 140.464158 
L 352.703196 140.464158 
L 352.703196 136.631762 
L 358.36257 136.631762 
L 358.36257 132.799366 
L 388.276882 132.799366 
L 388.276882 128.96697 
L 420.764335 128.96697 
L 420.764335 125.134574 
L 440.535793 125.134574 
L 440.535793 121.302178 
L 440.535793 121.302178 
L 440.535793 121.302178 
L 460.8 121.302178 
" style="fill:none;stroke:#ff0000;stroke-linecap:square;stroke-width:3;"/>
   </g>
   <g id="line2d_125">
    <defs>
     <path d="M 0 7.5 
C 1.989023 7.5 3.896849 6.709753 5.303301 5.303301 
C 6.709753 3.896849 7.5 1.989023 7.5 0 
C 7.5 -1.989023 6.709753 -3.896849 5.303301 -5.303301 
C 3.896849 -6.709753 1.989023 -7.5 0 -7.5 
C -1.989023 -7.5 -3.896849 -6.709753 -5.303301 -5.303301 
C -6.709753 -3.896849 -7.5 -1.989023 -7.5 0 
C -7.5 1.989023 -6.709753 3.896849 -5.303301 5.303301 
C -3.896849 6.709753 -1.989023 7.5 0 7.5 
z
" id="mbc36185eb0" style="stroke:#ff0000;stroke-width:3;"/>
    </defs>
    <g clip-path="url(#p1150ae50be)">
     <use style="fill-opacity:0;stroke:#ff0000;stroke-width:3;" x="313.981729" xlink:href="#mbc36185eb0" y="205.614891"/>
     <use style="fill-opacity:0;stroke:#ff0000;stroke-width:3;" x="352.703196" xlink:href="#mbc36185eb0" y="140.464158"/>
     <use style="fill-opacity:0;stroke:#ff0000;stroke-width:3;" x="420.764335" xlink:href="#mbc36185eb0" y="128.96697"/>
     <use style="fill-opacity:0;stroke:#ff0000;stroke-width:3;" x="440.535793" xlink:href="#mbc36185eb0" y="121.302178"/>
    </g>
   </g>
   <g id="line2d_126">
    <path clip-path="url(#p1150ae50be)" style="fill:none;stroke:#ff0000;stroke-linecap:square;stroke-width:3;"/>
   </g>
   <g id="line2d_127">
    <path clip-path="url(#p1150ae50be)" d="M 441.768424 293.76 
L 441.768424 3.456 
" style="fill:none;stroke:#000000;stroke-linecap:square;stroke-width:1.5;"/>
    <defs>
     <path d="M -10 0 
L 10 0 
M 0 10 
L 0 -10 
" id="m6abed60aec" style="stroke:#000000;stroke-width:3;"/>
    </defs>
    <g clip-path="url(#p1150ae50be)">
     <use style="stroke:#000000;stroke-width:3;" x="441.768424" xlink:href="#m6abed60aec" y="293.76"/>
     <use style="stroke:#000000;stroke-width:3;" x="441.768424" xlink:href="#m6abed60aec" y="3.456"/>
    </g>
   </g>
   <g id="line2d_128">
    <path clip-path="url(#p1150ae50be)" d="M 441.770687 293.76 
L 441.770687 3.456 
" style="fill:none;stroke:#000000;stroke-linecap:square;stroke-width:1.5;"/>
    <defs>
     <path d="M 0 7.5 
C 1.989023 7.5 3.896849 6.709753 5.303301 5.303301 
C 6.709753 3.896849 7.5 1.989023 7.5 0 
C 7.5 -1.989023 6.709753 -3.896849 5.303301 -5.303301 
C 3.896849 -6.709753 1.989023 -7.5 0 -7.5 
C -1.989023 -7.5 -3.896849 -6.709753 -5.303301 -5.303301 
C -6.709753 -3.896849 -7.5 -1.989023 -7.5 0 
C -7.5 1.989023 -6.709753 3.896849 -5.303301 5.303301 
C -3.896849 6.709753 -1.989023 7.5 0 7.5 
z
" id="mcc2af89f70" style="stroke:#000000;stroke-width:3;"/>
    </defs>
    <g clip-path="url(#p1150ae50be)">
     <use style="fill-opacity:0;stroke:#000000;stroke-width:3;" x="441.770687" xlink:href="#mcc2af89f70" y="293.76"/>
     <use style="fill-opacity:0;stroke:#000000;stroke-width:3;" x="441.770687" xlink:href="#mcc2af89f70" y="3.456"/>
    </g>
   </g>
   <g id="patch_3">
    <path d="M 62.208 293.76 
L 62.208 3.456 
" style="fill:none;stroke:#000000;stroke-linecap:square;stroke-linejoin:miter;stroke-width:0.8;"/>
   </g>
   <g id="patch_4">
    <path d="M 460.8 293.76 
L 460.8 3.456 
" style="fill:none;stroke:#000000;stroke-linecap:square;stroke-linejoin:miter;stroke-width:0.8;"/>
   </g>
   <g id="patch_5">
    <path d="M 62.208 293.76 
L 460.8 293.76 
" style="fill:none;stroke:#000000;stroke-linecap:square;stroke-linejoin:miter;stroke-width:0.8;"/>
   </g>
   <g id="patch_6">
    <path d="M 62.208 3.456 
L 460.8 3.456 
" style="fill:none;stroke:#000000;stroke-linecap:square;stroke-linejoin:miter;stroke-width:0.8;"/>
   </g>
   <g id="text_12">
    <!-- f10-f14 -->
    <g transform="translate(225.405563 24.458955)scale(0.2 -0.2)">
     <defs>
      <path d="M 313 2009 
L 1997 2009 
L 1997 1497 
L 313 1497 
L 313 2009 
z
" id="DejaVuSans-2d" transform="scale(0.015625)"/>
     </defs>
     <use xlink:href="#DejaVuSans-66"/>
     <use x="35.205078" xlink:href="#DejaVuSans-31"/>
     <use x="98.828125" xlink:href="#DejaVuSans-30"/>
     <use x="162.451172" xlink:href="#DejaVuSans-2d"/>
     <use x="198.535156" xlink:href="#DejaVuSans-66"/>
     <use x="233.740234" xlink:href="#DejaVuSans-31"/>
     <use x="297.363281" xlink:href="#DejaVuSans-34"/>
    </g>
   </g>
   <g id="text_13">
    <!-- absolute targets -->
    <g transform="translate(62.208 609.932673)scale(0.14 -0.14)">
     <defs>
      <path d="M 3116 1747 
Q 3116 2381 2855 2742 
Q 2594 3103 2138 3103 
Q 1681 3103 1420 2742 
Q 1159 2381 1159 1747 
Q 1159 1113 1420 752 
Q 1681 391 2138 391 
Q 2594 391 2855 752 
Q 3116 1113 3116 1747 
z
M 1159 2969 
Q 1341 3281 1617 3432 
Q 1894 3584 2278 3584 
Q 2916 3584 3314 3078 
Q 3713 2572 3713 1747 
Q 3713 922 3314 415 
Q 2916 -91 2278 -91 
Q 1894 -91 1617 61 
Q 1341 213 1159 525 
L 1159 0 
L 581 0 
L 581 4863 
L 1159 4863 
L 1159 2969 
z
" id="DejaVuSans-62" transform="scale(0.015625)"/>
      <path d="M 544 1381 
L 544 3500 
L 1119 3500 
L 1119 1403 
Q 1119 906 1312 657 
Q 1506 409 1894 409 
Q 2359 409 2629 706 
Q 2900 1003 2900 1516 
L 2900 3500 
L 3475 3500 
L 3475 0 
L 2900 0 
L 2900 538 
Q 2691 219 2414 64 
Q 2138 -91 1772 -91 
Q 1169 -91 856 284 
Q 544 659 544 1381 
z
M 1991 3584 
L 1991 3584 
z
" id="DejaVuSans-75" transform="scale(0.015625)"/>
      <path d="M 3597 1894 
L 3597 1613 
L 953 1613 
Q 991 1019 1311 708 
Q 1631 397 2203 397 
Q 2534 397 2845 478 
Q 3156 559 3463 722 
L 3463 178 
Q 3153 47 2828 -22 
Q 2503 -91 2169 -91 
Q 1331 -91 842 396 
Q 353 884 353 1716 
Q 353 2575 817 3079 
Q 1281 3584 2069 3584 
Q 2775 3584 3186 3129 
Q 3597 2675 3597 1894 
z
M 3022 2063 
Q 3016 2534 2758 2815 
Q 2500 3097 2075 3097 
Q 1594 3097 1305 2825 
Q 1016 2553 972 2059 
L 3022 2063 
z
" id="DejaVuSans-65" transform="scale(0.015625)"/>
     </defs>
     <use xlink:href="#DejaVuSans-61"/>
     <use x="61.279297" xlink:href="#DejaVuSans-62"/>
     <use x="124.755859" xlink:href="#DejaVuSans-73"/>
     <use x="176.855469" xlink:href="#DejaVuSans-6f"/>
     <use x="238.037109" xlink:href="#DejaVuSans-6c"/>
     <use x="265.820312" xlink:href="#DejaVuSans-75"/>
     <use x="329.199219" xlink:href="#DejaVuSans-74"/>
     <use x="368.408203" xlink:href="#DejaVuSans-65"/>
     <use x="429.931641" xlink:href="#DejaVuSans-20"/>
     <use x="461.71875" xlink:href="#DejaVuSans-74"/>
     <use x="500.927734" xlink:href="#DejaVuSans-61"/>
     <use x="562.207031" xlink:href="#DejaVuSans-72"/>
     <use x="601.570312" xlink:href="#DejaVuSans-67"/>
     <use x="665.046875" xlink:href="#DejaVuSans-65"/>
     <use x="726.570312" xlink:href="#DejaVuSans-74"/>
     <use x="765.779297" xlink:href="#DejaVuSans-73"/>
    </g>
   </g>
   <g id="text_14">
    <!-- v2.6.3 -->
    <g style="fill:#808080;" transform="translate(245.82275 288.777272)scale(0.1 -0.1)">
     <defs>
      <path d="M 2597 2516 
Q 3050 2419 3304 2112 
Q 3559 1806 3559 1356 
Q 3559 666 3084 287 
Q 2609 -91 1734 -91 
Q 1441 -91 1130 -33 
Q 819 25 488 141 
L 488 750 
Q 750 597 1062 519 
Q 1375 441 1716 441 
Q 2309 441 2620 675 
Q 2931 909 2931 1356 
Q 2931 1769 2642 2001 
Q 2353 2234 1838 2234 
L 1294 2234 
L 1294 2753 
L 1863 2753 
Q 2328 2753 2575 2939 
Q 2822 3125 2822 3475 
Q 2822 3834 2567 4026 
Q 2313 4219 1838 4219 
Q 1578 4219 1281 4162 
Q 984 4106 628 3988 
L 628 4550 
Q 988 4650 1302 4700 
Q 1616 4750 1894 4750 
Q 2613 4750 3031 4423 
Q 3450 4097 3450 3541 
Q 3450 3153 3228 2886 
Q 3006 2619 2597 2516 
z
" id="DejaVuSans-33" transform="scale(0.015625)"/>
     </defs>
     <use xlink:href="#DejaVuSans-76"/>
     <use x="59.179688" xlink:href="#DejaVuSans-32"/>
     <use x="122.802734" xlink:href="#DejaVuSans-2e"/>
     <use x="154.589844" xlink:href="#DejaVuSans-36"/>
     <use x="218.212891" xlink:href="#DejaVuSans-2e"/>
     <use x="250" xlink:href="#DejaVuSans-33"/>
    </g>
   </g>
   <g id="legend_1">
    <g id="patch_7">
     <path d="M 76.208 136.881 
L 160.148625 136.881 
Q 164.148625 136.881 164.148625 132.881 
L 164.148625 17.456 
Q 164.148625 13.456 160.148625 13.456 
L 76.208 13.456 
Q 72.208 13.456 72.208 17.456 
L 72.208 132.881 
Q 72.208 136.881 76.208 136.881 
z
" style="fill:#ffffff;opacity:0.2;stroke:#cccccc;stroke-linejoin:miter;"/>
    </g>
    <g id="line2d_129">
     <path d="M 80.208 29.652875 
L 120.208 29.652875 
" style="fill:none;stroke:#000000;stroke-linecap:square;stroke-width:1.5;"/>
    </g>
    <g id="line2d_130"/>
    <g id="text_15">
     <!-- 1 -->
     <g transform="translate(136.208 36.652875)scale(0.2 -0.2)">
      <use xlink:href="#DejaVuSans-31"/>
     </g>
    </g>
    <g id="line2d_131">
     <path d="M 80.208 59.009125 
L 120.208 59.009125 
" style="fill:none;stroke:#00bfbf;stroke-linecap:square;stroke-width:1.5;"/>
    </g>
    <g id="line2d_132"/>
    <g id="text_16">
     <!-- -1 -->
     <g transform="translate(136.208 66.009125)scale(0.2 -0.2)">
      <use xlink:href="#DejaVuSans-2d"/>
      <use x="36.083984" xlink:href="#DejaVuSans-31"/>
     </g>
    </g>
    <g id="line2d_133">
     <path d="M 80.208 88.365375 
L 120.208 88.365375 
" style="fill:none;stroke:#bf00bf;stroke-linecap:square;stroke-width:1.5;"/>
    </g>
    <g id="line2d_134"/>
    <g id="text_17">
     <!-- -4 -->
     <g transform="translate(136.208 95.365375)scale(0.2 -0.2)">
      <use xlink:href="#DejaVuSans-2d"/>
      <use x="36.083984" xlink:href="#DejaVuSans-34"/>
     </g>
    </g>
    <g id="line2d_135">
     <path d="M 80.208 117.721625 
L 120.208 117.721625 
" style="fill:none;stroke:#ff0000;stroke-linecap:square;stroke-width:3;"/>
    </g>
    <g id="line2d_136"/>
    <g id="text_18">
     <!-- -8 -->
     <g transform="translate(136.208 124.721625)scale(0.2 -0.2)">
      <use xlink:href="#DejaVuSans-2d"/>
      <use x="36.083984" xlink:href="#DejaVuSans-38"/>
     </g>
    </g>
   </g>
  </g>
 </g>
 <defs>
  <clipPath id="p1150ae50be">
   <rect height="290.304" width="398.592" x="62.208" y="3.456"/>
  </clipPath>
 </defs>
</svg>
